G04 #@! TF.GenerationSoftware,KiCad,Pcbnew,(5.1.6)-1*
G04 #@! TF.CreationDate,2020-12-13T19:15:46+01:00*
G04 #@! TF.ProjectId,ACM-pcb,41434d2d-7063-4622-9e6b-696361645f70,rev?*
G04 #@! TF.SameCoordinates,Original*
G04 #@! TF.FileFunction,Copper,L2,Bot*
G04 #@! TF.FilePolarity,Positive*
%FSLAX46Y46*%
G04 Gerber Fmt 4.6, Leading zero omitted, Abs format (unit mm)*
G04 Created by KiCad (PCBNEW (5.1.6)-1) date 2020-12-13 19:15:46*
%MOMM*%
%LPD*%
G01*
G04 APERTURE LIST*
G04 #@! TA.AperFunction,SMDPad,CuDef*
%ADD10C,0.100000*%
G04 #@! TD*
G04 #@! TA.AperFunction,SMDPad,CuDef*
%ADD11R,0.900000X1.200000*%
G04 #@! TD*
G04 #@! TA.AperFunction,SMDPad,CuDef*
%ADD12R,0.550000X1.500000*%
G04 #@! TD*
G04 #@! TA.AperFunction,SMDPad,CuDef*
%ADD13R,0.600000X0.700000*%
G04 #@! TD*
G04 #@! TA.AperFunction,ViaPad*
%ADD14C,0.600000*%
G04 #@! TD*
G04 #@! TA.AperFunction,ViaPad*
%ADD15C,0.800000*%
G04 #@! TD*
G04 #@! TA.AperFunction,Conductor*
%ADD16C,0.254000*%
G04 #@! TD*
G04 #@! TA.AperFunction,Conductor*
%ADD17C,0.508000*%
G04 #@! TD*
G04 #@! TA.AperFunction,Conductor*
%ADD18C,0.127000*%
G04 #@! TD*
G04 APERTURE END LIST*
G04 #@! TA.AperFunction,SMDPad,CuDef*
D10*
G36*
X74588171Y-74666600D02*
G01*
X73845709Y-75409062D01*
X73598221Y-75161574D01*
X74340683Y-74419112D01*
X74588171Y-74666600D01*
G37*
G04 #@! TD.AperFunction*
G04 #@! TA.AperFunction,SMDPad,CuDef*
G36*
X75047791Y-75126220D02*
G01*
X74305329Y-75868682D01*
X74057841Y-75621194D01*
X74800303Y-74878732D01*
X75047791Y-75126220D01*
G37*
G04 #@! TD.AperFunction*
G04 #@! TA.AperFunction,SMDPad,CuDef*
G36*
X75507410Y-75585839D02*
G01*
X74764948Y-76328301D01*
X74517460Y-76080813D01*
X75259922Y-75338351D01*
X75507410Y-75585839D01*
G37*
G04 #@! TD.AperFunction*
G04 #@! TA.AperFunction,SMDPad,CuDef*
G36*
X75967029Y-76045459D02*
G01*
X75224567Y-76787921D01*
X74977079Y-76540433D01*
X75719541Y-75797971D01*
X75967029Y-76045459D01*
G37*
G04 #@! TD.AperFunction*
G04 #@! TA.AperFunction,SMDPad,CuDef*
G36*
X76426649Y-76505078D02*
G01*
X75684187Y-77247540D01*
X75436699Y-77000052D01*
X76179161Y-76257590D01*
X76426649Y-76505078D01*
G37*
G04 #@! TD.AperFunction*
G04 #@! TA.AperFunction,SMDPad,CuDef*
G36*
X76886268Y-76964697D02*
G01*
X76143806Y-77707159D01*
X75896318Y-77459671D01*
X76638780Y-76717209D01*
X76886268Y-76964697D01*
G37*
G04 #@! TD.AperFunction*
G04 #@! TA.AperFunction,SMDPad,CuDef*
G36*
X77345888Y-77424317D02*
G01*
X76603426Y-78166779D01*
X76355938Y-77919291D01*
X77098400Y-77176829D01*
X77345888Y-77424317D01*
G37*
G04 #@! TD.AperFunction*
G04 #@! TA.AperFunction,SMDPad,CuDef*
G36*
X76603426Y-78449621D02*
G01*
X77345888Y-79192083D01*
X77098400Y-79439571D01*
X76355938Y-78697109D01*
X76603426Y-78449621D01*
G37*
G04 #@! TD.AperFunction*
G04 #@! TA.AperFunction,SMDPad,CuDef*
G36*
X76143806Y-78909241D02*
G01*
X76886268Y-79651703D01*
X76638780Y-79899191D01*
X75896318Y-79156729D01*
X76143806Y-78909241D01*
G37*
G04 #@! TD.AperFunction*
G04 #@! TA.AperFunction,SMDPad,CuDef*
G36*
X75684187Y-79368860D02*
G01*
X76426649Y-80111322D01*
X76179161Y-80358810D01*
X75436699Y-79616348D01*
X75684187Y-79368860D01*
G37*
G04 #@! TD.AperFunction*
G04 #@! TA.AperFunction,SMDPad,CuDef*
G36*
X75224567Y-79828479D02*
G01*
X75967029Y-80570941D01*
X75719541Y-80818429D01*
X74977079Y-80075967D01*
X75224567Y-79828479D01*
G37*
G04 #@! TD.AperFunction*
G04 #@! TA.AperFunction,SMDPad,CuDef*
G36*
X74764948Y-80288099D02*
G01*
X75507410Y-81030561D01*
X75259922Y-81278049D01*
X74517460Y-80535587D01*
X74764948Y-80288099D01*
G37*
G04 #@! TD.AperFunction*
G04 #@! TA.AperFunction,SMDPad,CuDef*
G36*
X74305329Y-80747718D02*
G01*
X75047791Y-81490180D01*
X74800303Y-81737668D01*
X74057841Y-80995206D01*
X74305329Y-80747718D01*
G37*
G04 #@! TD.AperFunction*
G04 #@! TA.AperFunction,SMDPad,CuDef*
G36*
X73845709Y-81207338D02*
G01*
X74588171Y-81949800D01*
X74340683Y-82197288D01*
X73598221Y-81454826D01*
X73845709Y-81207338D01*
G37*
G04 #@! TD.AperFunction*
G04 #@! TA.AperFunction,SMDPad,CuDef*
G36*
X73315379Y-81454826D02*
G01*
X72572917Y-82197288D01*
X72325429Y-81949800D01*
X73067891Y-81207338D01*
X73315379Y-81454826D01*
G37*
G04 #@! TD.AperFunction*
G04 #@! TA.AperFunction,SMDPad,CuDef*
G36*
X72855759Y-80995206D02*
G01*
X72113297Y-81737668D01*
X71865809Y-81490180D01*
X72608271Y-80747718D01*
X72855759Y-80995206D01*
G37*
G04 #@! TD.AperFunction*
G04 #@! TA.AperFunction,SMDPad,CuDef*
G36*
X72396140Y-80535587D02*
G01*
X71653678Y-81278049D01*
X71406190Y-81030561D01*
X72148652Y-80288099D01*
X72396140Y-80535587D01*
G37*
G04 #@! TD.AperFunction*
G04 #@! TA.AperFunction,SMDPad,CuDef*
G36*
X71936521Y-80075967D02*
G01*
X71194059Y-80818429D01*
X70946571Y-80570941D01*
X71689033Y-79828479D01*
X71936521Y-80075967D01*
G37*
G04 #@! TD.AperFunction*
G04 #@! TA.AperFunction,SMDPad,CuDef*
G36*
X71476901Y-79616348D02*
G01*
X70734439Y-80358810D01*
X70486951Y-80111322D01*
X71229413Y-79368860D01*
X71476901Y-79616348D01*
G37*
G04 #@! TD.AperFunction*
G04 #@! TA.AperFunction,SMDPad,CuDef*
G36*
X71017282Y-79156729D02*
G01*
X70274820Y-79899191D01*
X70027332Y-79651703D01*
X70769794Y-78909241D01*
X71017282Y-79156729D01*
G37*
G04 #@! TD.AperFunction*
G04 #@! TA.AperFunction,SMDPad,CuDef*
G36*
X70557662Y-78697109D02*
G01*
X69815200Y-79439571D01*
X69567712Y-79192083D01*
X70310174Y-78449621D01*
X70557662Y-78697109D01*
G37*
G04 #@! TD.AperFunction*
G04 #@! TA.AperFunction,SMDPad,CuDef*
G36*
X69815200Y-77176829D02*
G01*
X70557662Y-77919291D01*
X70310174Y-78166779D01*
X69567712Y-77424317D01*
X69815200Y-77176829D01*
G37*
G04 #@! TD.AperFunction*
G04 #@! TA.AperFunction,SMDPad,CuDef*
G36*
X70274820Y-76717209D02*
G01*
X71017282Y-77459671D01*
X70769794Y-77707159D01*
X70027332Y-76964697D01*
X70274820Y-76717209D01*
G37*
G04 #@! TD.AperFunction*
G04 #@! TA.AperFunction,SMDPad,CuDef*
G36*
X70734439Y-76257590D02*
G01*
X71476901Y-77000052D01*
X71229413Y-77247540D01*
X70486951Y-76505078D01*
X70734439Y-76257590D01*
G37*
G04 #@! TD.AperFunction*
G04 #@! TA.AperFunction,SMDPad,CuDef*
G36*
X71194059Y-75797971D02*
G01*
X71936521Y-76540433D01*
X71689033Y-76787921D01*
X70946571Y-76045459D01*
X71194059Y-75797971D01*
G37*
G04 #@! TD.AperFunction*
G04 #@! TA.AperFunction,SMDPad,CuDef*
G36*
X71653678Y-75338351D02*
G01*
X72396140Y-76080813D01*
X72148652Y-76328301D01*
X71406190Y-75585839D01*
X71653678Y-75338351D01*
G37*
G04 #@! TD.AperFunction*
G04 #@! TA.AperFunction,SMDPad,CuDef*
G36*
X72113297Y-74878732D02*
G01*
X72855759Y-75621194D01*
X72608271Y-75868682D01*
X71865809Y-75126220D01*
X72113297Y-74878732D01*
G37*
G04 #@! TD.AperFunction*
G04 #@! TA.AperFunction,SMDPad,CuDef*
G36*
X72572917Y-74419112D02*
G01*
X73315379Y-75161574D01*
X73067891Y-75409062D01*
X72325429Y-74666600D01*
X72572917Y-74419112D01*
G37*
G04 #@! TD.AperFunction*
G04 #@! TA.AperFunction,SMDPad,CuDef*
G36*
X73456800Y-75338352D02*
G01*
X76426648Y-78308200D01*
X73456800Y-81278048D01*
X70486952Y-78308200D01*
X73456800Y-75338352D01*
G37*
G04 #@! TD.AperFunction*
D11*
X76199000Y-86868000D03*
X72899000Y-86868000D03*
G04 #@! TA.AperFunction,SMDPad,CuDef*
G36*
G01*
X69194900Y-80195200D02*
X69539900Y-80195200D01*
G75*
G02*
X69687400Y-80342700I0J-147500D01*
G01*
X69687400Y-80637700D01*
G75*
G02*
X69539900Y-80785200I-147500J0D01*
G01*
X69194900Y-80785200D01*
G75*
G02*
X69047400Y-80637700I0J147500D01*
G01*
X69047400Y-80342700D01*
G75*
G02*
X69194900Y-80195200I147500J0D01*
G01*
G37*
G04 #@! TD.AperFunction*
G04 #@! TA.AperFunction,SMDPad,CuDef*
G36*
G01*
X69194900Y-81165200D02*
X69539900Y-81165200D01*
G75*
G02*
X69687400Y-81312700I0J-147500D01*
G01*
X69687400Y-81607700D01*
G75*
G02*
X69539900Y-81755200I-147500J0D01*
G01*
X69194900Y-81755200D01*
G75*
G02*
X69047400Y-81607700I0J147500D01*
G01*
X69047400Y-81312700D01*
G75*
G02*
X69194900Y-81165200I147500J0D01*
G01*
G37*
G04 #@! TD.AperFunction*
G04 #@! TA.AperFunction,SMDPad,CuDef*
G36*
G01*
X67671602Y-74624410D02*
X67309210Y-74986803D01*
G75*
G02*
X66999850Y-74986803I-154680J154680D01*
G01*
X66690491Y-74677444D01*
G75*
G02*
X66690491Y-74368084I154680J154680D01*
G01*
X67052884Y-74005691D01*
G75*
G02*
X67362244Y-74005691I154680J-154680D01*
G01*
X67671603Y-74315050D01*
G75*
G02*
X67671603Y-74624410I-154680J-154680D01*
G01*
G37*
G04 #@! TD.AperFunction*
G04 #@! TA.AperFunction,SMDPad,CuDef*
G36*
G01*
X66557908Y-73510716D02*
X66195516Y-73873109D01*
G75*
G02*
X65886156Y-73873109I-154680J154680D01*
G01*
X65576797Y-73563750D01*
G75*
G02*
X65576797Y-73254390I154680J154680D01*
G01*
X65939190Y-72891997D01*
G75*
G02*
X66248550Y-72891997I154680J-154680D01*
G01*
X66557909Y-73201356D01*
G75*
G02*
X66557909Y-73510716I-154680J-154680D01*
G01*
G37*
G04 #@! TD.AperFunction*
D12*
X80022000Y-70988000D03*
X80022000Y-67188000D03*
X79222000Y-70988000D03*
X79222000Y-67188000D03*
X78422000Y-70988000D03*
X78422000Y-67188000D03*
X77622000Y-70988000D03*
X77622000Y-67188000D03*
X76822000Y-70988000D03*
X76822000Y-67188000D03*
X76022000Y-70988000D03*
X76022000Y-67188000D03*
X75222000Y-70988000D03*
X75222000Y-67188000D03*
X74422000Y-70988000D03*
X74422000Y-67188000D03*
X73622000Y-70988000D03*
X73622000Y-67188000D03*
X72822000Y-70988000D03*
X72822000Y-67188000D03*
X72022000Y-70988000D03*
X72022000Y-67188000D03*
X71222000Y-70988000D03*
X71222000Y-67188000D03*
X70422000Y-70988000D03*
X70422000Y-67188000D03*
X69622000Y-70988000D03*
X69622000Y-67188000D03*
X68822000Y-70988000D03*
X68822000Y-67188000D03*
D13*
X77150000Y-89725000D03*
X75750000Y-89725000D03*
G04 #@! TA.AperFunction,SMDPad,CuDef*
G36*
G01*
X66078684Y-68233708D02*
X65716291Y-67871316D01*
G75*
G02*
X65716291Y-67561956I154680J154680D01*
G01*
X66025650Y-67252597D01*
G75*
G02*
X66335010Y-67252597I154680J-154680D01*
G01*
X66697403Y-67614990D01*
G75*
G02*
X66697403Y-67924350I-154680J-154680D01*
G01*
X66388044Y-68233709D01*
G75*
G02*
X66078684Y-68233709I-154680J154680D01*
G01*
G37*
G04 #@! TD.AperFunction*
G04 #@! TA.AperFunction,SMDPad,CuDef*
G36*
G01*
X64964990Y-69347402D02*
X64602597Y-68985010D01*
G75*
G02*
X64602597Y-68675650I154680J154680D01*
G01*
X64911956Y-68366291D01*
G75*
G02*
X65221316Y-68366291I154680J-154680D01*
G01*
X65583709Y-68728684D01*
G75*
G02*
X65583709Y-69038044I-154680J-154680D01*
G01*
X65274350Y-69347403D01*
G75*
G02*
X64964990Y-69347403I-154680J154680D01*
G01*
G37*
G04 #@! TD.AperFunction*
G04 #@! TA.AperFunction,SMDPad,CuDef*
G36*
G01*
X76951579Y-75539972D02*
X76707628Y-75296020D01*
G75*
G02*
X76707628Y-75087424I104298J104298D01*
G01*
X76916224Y-74878828D01*
G75*
G02*
X77124820Y-74878828I104298J-104298D01*
G01*
X77368772Y-75122780D01*
G75*
G02*
X77368772Y-75331376I-104298J-104298D01*
G01*
X77160176Y-75539972D01*
G75*
G02*
X76951580Y-75539972I-104298J104298D01*
G01*
G37*
G04 #@! TD.AperFunction*
G04 #@! TA.AperFunction,SMDPad,CuDef*
G36*
G01*
X77637473Y-74854078D02*
X77393522Y-74610126D01*
G75*
G02*
X77393522Y-74401530I104298J104298D01*
G01*
X77602118Y-74192934D01*
G75*
G02*
X77810714Y-74192934I104298J-104298D01*
G01*
X78054666Y-74436886D01*
G75*
G02*
X78054666Y-74645482I-104298J-104298D01*
G01*
X77846070Y-74854078D01*
G75*
G02*
X77637474Y-74854078I-104298J104298D01*
G01*
G37*
G04 #@! TD.AperFunction*
G04 #@! TA.AperFunction,SMDPad,CuDef*
G36*
G01*
X77977628Y-73700379D02*
X78221580Y-73456428D01*
G75*
G02*
X78430176Y-73456428I104298J-104298D01*
G01*
X78638772Y-73665024D01*
G75*
G02*
X78638772Y-73873620I-104298J-104298D01*
G01*
X78394820Y-74117572D01*
G75*
G02*
X78186224Y-74117572I-104298J104298D01*
G01*
X77977628Y-73908976D01*
G75*
G02*
X77977628Y-73700380I104298J104298D01*
G01*
G37*
G04 #@! TD.AperFunction*
G04 #@! TA.AperFunction,SMDPad,CuDef*
G36*
G01*
X78663522Y-74386273D02*
X78907474Y-74142322D01*
G75*
G02*
X79116070Y-74142322I104298J-104298D01*
G01*
X79324666Y-74350918D01*
G75*
G02*
X79324666Y-74559514I-104298J-104298D01*
G01*
X79080714Y-74803466D01*
G75*
G02*
X78872118Y-74803466I-104298J104298D01*
G01*
X78663522Y-74594870D01*
G75*
G02*
X78663522Y-74386274I104298J104298D01*
G01*
G37*
G04 #@! TD.AperFunction*
G04 #@! TA.AperFunction,SMDPad,CuDef*
G36*
G01*
X75935579Y-74752572D02*
X75691628Y-74508620D01*
G75*
G02*
X75691628Y-74300024I104298J104298D01*
G01*
X75900224Y-74091428D01*
G75*
G02*
X76108820Y-74091428I104298J-104298D01*
G01*
X76352772Y-74335380D01*
G75*
G02*
X76352772Y-74543976I-104298J-104298D01*
G01*
X76144176Y-74752572D01*
G75*
G02*
X75935580Y-74752572I-104298J104298D01*
G01*
G37*
G04 #@! TD.AperFunction*
G04 #@! TA.AperFunction,SMDPad,CuDef*
G36*
G01*
X76621473Y-74066678D02*
X76377522Y-73822726D01*
G75*
G02*
X76377522Y-73614130I104298J104298D01*
G01*
X76586118Y-73405534D01*
G75*
G02*
X76794714Y-73405534I104298J-104298D01*
G01*
X77038666Y-73649486D01*
G75*
G02*
X77038666Y-73858082I-104298J-104298D01*
G01*
X76830070Y-74066678D01*
G75*
G02*
X76621474Y-74066678I-104298J104298D01*
G01*
G37*
G04 #@! TD.AperFunction*
D14*
X73600000Y-66000000D03*
X74400000Y-66000000D03*
X72775000Y-69450000D03*
X68950000Y-69075000D03*
X69675000Y-86100000D03*
X78130400Y-81737192D03*
X76581000Y-83540600D03*
X76400000Y-84840900D03*
X81280000Y-89916000D03*
X77343000Y-84201000D03*
X66040000Y-81661000D03*
X66675000Y-84650000D03*
X64325000Y-67450000D03*
X76800000Y-66000000D03*
X74464799Y-72264808D03*
X75868189Y-72218370D03*
X72974200Y-73380600D03*
X71200000Y-66000000D03*
X69600000Y-66000000D03*
X65225002Y-66675000D03*
X65950002Y-65900000D03*
X65100000Y-65025000D03*
X64375000Y-65775000D03*
X70400000Y-66000000D03*
X76377800Y-80848200D03*
X67233800Y-82981800D03*
X69260941Y-79757258D03*
X67810090Y-81762600D03*
X79857600Y-77851000D03*
X81254600Y-77266800D03*
X75160110Y-72239899D03*
X75773503Y-73466914D03*
X70764400Y-73482200D03*
D15*
X68427600Y-75920600D03*
D14*
X70385196Y-72185196D03*
X73634600Y-72262998D03*
X77600000Y-66000000D03*
X76000000Y-66000000D03*
X75200000Y-66000000D03*
X72800000Y-66000000D03*
X72000000Y-66000000D03*
X80000000Y-66000000D03*
X79200000Y-66000000D03*
X78400000Y-66000000D03*
X73758098Y-69849098D03*
X77600042Y-72500000D03*
X71200000Y-72200000D03*
X79900000Y-72500000D03*
X79100000Y-72500000D03*
D15*
X77724000Y-88011000D03*
D14*
X78288917Y-72493330D03*
X75260200Y-82067400D03*
X74980800Y-83261200D03*
X75692000Y-81483200D03*
X75438000Y-83947000D03*
X69550000Y-88350000D03*
D16*
X74400000Y-67166000D02*
X74422000Y-67188000D01*
X74400000Y-66000000D02*
X74400000Y-67166000D01*
X73600000Y-67166000D02*
X73622000Y-67188000D01*
X73600000Y-66000000D02*
X73600000Y-67166000D01*
X74422000Y-67188000D02*
X73622000Y-67188000D01*
X74400000Y-66000000D02*
X73600000Y-66000000D01*
X76800000Y-71010000D02*
X76822000Y-70988000D01*
X73456800Y-81065917D02*
X73456800Y-78308200D01*
X72820404Y-81702313D02*
X73456800Y-81065917D01*
X70688200Y-78308200D02*
X73456800Y-78308200D01*
X70062687Y-77671804D02*
X70062687Y-77682687D01*
X70062687Y-77682687D02*
X70688200Y-78308200D01*
X78994094Y-74447400D02*
X78994094Y-74472894D01*
X76822000Y-70988000D02*
X76822000Y-72485492D01*
X77361508Y-73025000D02*
X78790800Y-73025000D01*
X78790800Y-73025000D02*
X79171800Y-73406000D01*
X79171800Y-73406000D02*
X79171800Y-74269694D01*
X76822000Y-72485492D02*
X77361508Y-73025000D01*
X79171800Y-74269694D02*
X78994094Y-74447400D01*
X76822000Y-66022000D02*
X76800000Y-66000000D01*
X76822000Y-67188000D02*
X76822000Y-66022000D01*
X74464799Y-71907799D02*
X74464799Y-72264808D01*
X74422000Y-71865000D02*
X74464799Y-71907799D01*
X74422000Y-70988000D02*
X74422000Y-71865000D01*
X74464799Y-72829801D02*
X74464799Y-72264808D01*
X73253600Y-74041000D02*
X74464799Y-72829801D01*
X72360784Y-75373707D02*
X72352693Y-75373707D01*
X72339200Y-75387200D02*
X71882000Y-74930000D01*
X72352693Y-75373707D02*
X72339200Y-75387200D01*
X71882000Y-74930000D02*
X71882000Y-74345800D01*
X71882000Y-74345800D02*
X72186800Y-74041000D01*
X72186800Y-74041000D02*
X73253600Y-74041000D01*
X76022000Y-70988000D02*
X76022000Y-72064559D01*
X76022000Y-72064559D02*
X75868189Y-72218370D01*
X72186800Y-73380600D02*
X72974200Y-73380600D01*
X71297800Y-74269600D02*
X72186800Y-73380600D01*
X71297800Y-75260200D02*
X71297800Y-74269600D01*
X71901165Y-75833326D02*
X71870926Y-75833326D01*
X71870926Y-75833326D02*
X71297800Y-75260200D01*
X71200000Y-67166000D02*
X71222000Y-67188000D01*
X69600000Y-67166000D02*
X69622000Y-67188000D01*
X69600000Y-66000000D02*
X69600000Y-67166000D01*
X65100000Y-65049998D02*
X65100000Y-65025000D01*
X65950002Y-65900000D02*
X65100000Y-65049998D01*
X65225002Y-66675000D02*
X64375000Y-65824998D01*
X64375000Y-65824998D02*
X64375000Y-65775000D01*
X70400000Y-67166000D02*
X70422000Y-67188000D01*
X70400000Y-66000000D02*
X70400000Y-67166000D01*
X71222000Y-66022000D02*
X71200000Y-66000000D01*
X71222000Y-67188000D02*
X71222000Y-66022000D01*
X71200000Y-66000000D02*
X70400000Y-66000000D01*
X70400000Y-66000000D02*
X69600000Y-66000000D01*
X75472054Y-80323454D02*
X75996800Y-80848200D01*
X75996800Y-80848200D02*
X76377800Y-80848200D01*
X70355561Y-80490200D02*
X69367400Y-80490200D01*
X70981926Y-79863835D02*
X70355561Y-80490200D01*
X77012800Y-73431400D02*
X76708094Y-73736106D01*
X78308200Y-73787000D02*
X77952600Y-73431400D01*
X77952600Y-73431400D02*
X77012800Y-73431400D01*
X67810090Y-82186864D02*
X67810090Y-81762600D01*
X69367400Y-80490200D02*
X69367400Y-79863717D01*
X69367400Y-79863717D02*
X69260941Y-79757258D01*
X67810090Y-82405510D02*
X67810090Y-82186864D01*
X67233800Y-82981800D02*
X67810090Y-82405510D01*
X81254600Y-77266800D02*
X80441800Y-77266800D01*
X80441800Y-77266800D02*
X79857600Y-77851000D01*
X76936600Y-75107800D02*
X77038200Y-75209400D01*
X76708094Y-73736106D02*
X76936600Y-73964612D01*
X76936600Y-73964612D02*
X76936600Y-75107800D01*
X75636361Y-75209400D02*
X75012435Y-75833326D01*
X77038200Y-75209400D02*
X75636361Y-75209400D01*
X79679800Y-77851000D02*
X79857600Y-77851000D01*
X77038200Y-75209400D02*
X79679800Y-77851000D01*
X75222000Y-72178009D02*
X75160110Y-72239899D01*
X75222000Y-70988000D02*
X75222000Y-72178009D01*
X75160110Y-72664163D02*
X75160110Y-72239899D01*
X75160110Y-72896490D02*
X75160110Y-72664163D01*
X72820404Y-74914087D02*
X73142513Y-74914087D01*
X73142513Y-74914087D02*
X75160110Y-72896490D01*
X74093196Y-74914087D02*
X74326330Y-74914087D01*
X74326330Y-74914087D02*
X75773503Y-73466914D01*
X70764400Y-75615800D02*
X70764400Y-73906464D01*
X71441546Y-76292946D02*
X70764400Y-75615800D01*
X70764400Y-73906464D02*
X70764400Y-73482200D01*
X68800000Y-67166000D02*
X68822000Y-67188000D01*
D17*
X67275000Y-66725000D02*
X66225000Y-67775000D01*
X68822000Y-67188000D02*
X68359000Y-66725000D01*
X68359000Y-66725000D02*
X67275000Y-66725000D01*
D16*
X68224400Y-76123800D02*
X68427600Y-75920600D01*
X70062687Y-78944596D02*
X68224400Y-77106309D01*
X68224400Y-77106309D02*
X68224400Y-76123800D01*
X70422000Y-70988000D02*
X70422000Y-72148392D01*
X70422000Y-72148392D02*
X70385196Y-72185196D01*
X73622000Y-70988000D02*
X73622000Y-72250398D01*
X73622000Y-72250398D02*
X73634600Y-72262998D01*
X77622000Y-66022000D02*
X77600000Y-66000000D01*
X77622000Y-67188000D02*
X77622000Y-66022000D01*
X76022000Y-66022000D02*
X76000000Y-66000000D01*
X76022000Y-67188000D02*
X76022000Y-66022000D01*
X75200000Y-67166000D02*
X75222000Y-67188000D01*
X75200000Y-66000000D02*
X75200000Y-67166000D01*
X72822000Y-66022000D02*
X72800000Y-66000000D01*
X72822000Y-67188000D02*
X72822000Y-66022000D01*
X72022000Y-66022000D02*
X72000000Y-66000000D01*
X72022000Y-67188000D02*
X72022000Y-66022000D01*
X80000000Y-67166000D02*
X80022000Y-67188000D01*
X80000000Y-66000000D02*
X80000000Y-67166000D01*
X79200000Y-67166000D02*
X79222000Y-67188000D01*
X79200000Y-66000000D02*
X79200000Y-67166000D01*
X78422000Y-66022000D02*
X78400000Y-66000000D01*
X78422000Y-67188000D02*
X78422000Y-66022000D01*
X77700000Y-71066000D02*
X77622000Y-70988000D01*
X74182362Y-69849098D02*
X74191460Y-69840000D01*
X73758098Y-69849098D02*
X74182362Y-69849098D01*
X77622000Y-70111000D02*
X77622000Y-70988000D01*
X77351000Y-69840000D02*
X77622000Y-70111000D01*
X74191460Y-69840000D02*
X77351000Y-69840000D01*
X77550000Y-71060000D02*
X77622000Y-70988000D01*
X77622000Y-72478042D02*
X77600042Y-72500000D01*
X77622000Y-70988000D02*
X77622000Y-72478042D01*
X71400000Y-71166000D02*
X71222000Y-70988000D01*
X71222000Y-72178000D02*
X71200000Y-72200000D01*
X71222000Y-70988000D02*
X71222000Y-72178000D01*
X80000000Y-71010000D02*
X80022000Y-70988000D01*
X79900000Y-71110000D02*
X79900000Y-72500000D01*
X80022000Y-70988000D02*
X79900000Y-71110000D01*
X79200000Y-71010000D02*
X79222000Y-70988000D01*
X79222000Y-70988000D02*
X79222000Y-71532000D01*
X79100000Y-71110000D02*
X79100000Y-72500000D01*
X79222000Y-70988000D02*
X79100000Y-71110000D01*
X77844000Y-88018000D02*
X77724000Y-88138000D01*
D17*
X78620000Y-88018000D02*
X77844000Y-88018000D01*
X77575000Y-89725000D02*
X77200000Y-89725000D01*
X78620000Y-88018000D02*
X78620000Y-88680000D01*
X78620000Y-88680000D02*
X77575000Y-89725000D01*
X78620000Y-87320000D02*
X78620000Y-88018000D01*
X78150000Y-86850000D02*
X78620000Y-87320000D01*
X76217000Y-86850000D02*
X76199000Y-86868000D01*
X78150000Y-86850000D02*
X76217000Y-86850000D01*
D16*
X78275000Y-72479413D02*
X78288917Y-72493330D01*
X78422000Y-70988000D02*
X78275000Y-71135000D01*
X78275000Y-71135000D02*
X78275000Y-72479413D01*
X69593794Y-71016206D02*
X69622000Y-70988000D01*
X69622000Y-72055294D02*
X69622000Y-70988000D01*
X67181047Y-74496247D02*
X69622000Y-72055294D01*
X75260200Y-81950077D02*
X75260200Y-82067400D01*
X74552816Y-81242693D02*
X75260200Y-81950077D01*
X74556536Y-83261200D02*
X74980800Y-83261200D01*
X68675000Y-79696251D02*
X68675000Y-81984600D01*
X67181047Y-74496247D02*
X67181047Y-78202298D01*
X67181047Y-78202298D02*
X68675000Y-79696251D01*
X69951600Y-83261200D02*
X74556536Y-83261200D01*
X68675000Y-81984600D02*
X69951600Y-83261200D01*
X68461906Y-70988000D02*
X68822000Y-70988000D01*
X66067353Y-73382553D02*
X68461906Y-70988000D01*
X75012435Y-80783074D02*
X75012435Y-80803635D01*
X75012435Y-80803635D02*
X75692000Y-81483200D01*
X75316000Y-83825000D02*
X75438000Y-83947000D01*
X68332089Y-82225889D02*
X69931200Y-83825000D01*
X66067353Y-73382553D02*
X66067353Y-77573553D01*
X68332089Y-79838289D02*
X68332089Y-82225889D01*
X66067353Y-77573553D02*
X68332089Y-79838289D01*
X69931200Y-83825000D02*
X75316000Y-83825000D01*
X75504523Y-74422000D02*
X74552816Y-75373707D01*
X76022200Y-74422000D02*
X75504523Y-74422000D01*
X75946000Y-82600800D02*
X78206600Y-80340200D01*
X72360784Y-81242693D02*
X71918843Y-81684634D01*
X72288400Y-82600800D02*
X75946000Y-82600800D01*
X78206600Y-77116748D02*
X76940857Y-75851005D01*
X76940857Y-75851005D02*
X75913995Y-75851005D01*
X78206600Y-80340200D02*
X78206600Y-77116748D01*
X75913995Y-75851005D02*
X75472054Y-76292946D01*
X71918843Y-82231243D02*
X72288400Y-82600800D01*
X71918843Y-81684634D02*
X71918843Y-82231243D01*
D18*
X76099874Y-79955635D02*
X76099874Y-79960674D01*
X76099874Y-79960674D02*
X76282601Y-80143401D01*
D16*
X75931674Y-76752565D02*
X76373615Y-76310624D01*
X76869424Y-76310624D02*
X77774800Y-77216000D01*
X76373615Y-80305776D02*
X75931674Y-79863835D01*
X77774800Y-77216000D02*
X77774800Y-79502000D01*
X77774800Y-79502000D02*
X76971024Y-80305776D01*
X76373615Y-76310624D02*
X76869424Y-76310624D01*
X76971024Y-80305776D02*
X76373615Y-80305776D01*
X69578000Y-88322000D02*
X69550000Y-88350000D01*
X69578000Y-87122000D02*
X69578000Y-88322000D01*
D17*
X72645000Y-87122000D02*
X72899000Y-86868000D01*
X69578000Y-87122000D02*
X72645000Y-87122000D01*
X67564000Y-87122000D02*
X69578000Y-87122000D01*
X63700000Y-83258000D02*
X67564000Y-87122000D01*
X65100000Y-68875000D02*
X63700000Y-70275000D01*
X63700000Y-70275000D02*
X63700000Y-83258000D01*
D16*
G36*
X82530084Y-90377010D02*
G01*
X81197282Y-91709813D01*
X65316969Y-91733621D01*
X64894687Y-91674156D01*
X64499171Y-91536301D01*
X64137964Y-91324250D01*
X63824823Y-91046078D01*
X63571678Y-90712382D01*
X63388168Y-90335870D01*
X63279715Y-89924936D01*
X63255756Y-89700454D01*
X63255537Y-88866643D01*
X64646000Y-88866643D01*
X64646000Y-89133357D01*
X64698034Y-89394947D01*
X64800101Y-89641359D01*
X64948280Y-89863124D01*
X65136876Y-90051720D01*
X65358641Y-90199899D01*
X65605053Y-90301966D01*
X65866643Y-90354000D01*
X66133357Y-90354000D01*
X66394947Y-90301966D01*
X66641359Y-90199899D01*
X66828283Y-90075000D01*
X74811928Y-90075000D01*
X74824188Y-90199482D01*
X74860498Y-90319180D01*
X74919463Y-90429494D01*
X74998815Y-90526185D01*
X75095506Y-90605537D01*
X75205820Y-90664502D01*
X75325518Y-90700812D01*
X75450000Y-90713072D01*
X75464250Y-90710000D01*
X75623000Y-90551250D01*
X75623000Y-89852000D01*
X74973750Y-89852000D01*
X74815000Y-90010750D01*
X74811928Y-90075000D01*
X66828283Y-90075000D01*
X66863124Y-90051720D01*
X67051720Y-89863124D01*
X67199899Y-89641359D01*
X67301966Y-89394947D01*
X67305933Y-89375000D01*
X74811928Y-89375000D01*
X74815000Y-89439250D01*
X74973750Y-89598000D01*
X75623000Y-89598000D01*
X75623000Y-88898750D01*
X75464250Y-88740000D01*
X75450000Y-88736928D01*
X75325518Y-88749188D01*
X75205820Y-88785498D01*
X75095506Y-88844463D01*
X74998815Y-88923815D01*
X74919463Y-89020506D01*
X74860498Y-89130820D01*
X74824188Y-89250518D01*
X74811928Y-89375000D01*
X67305933Y-89375000D01*
X67354000Y-89133357D01*
X67354000Y-88866643D01*
X67301966Y-88605053D01*
X67199899Y-88358641D01*
X67051720Y-88136876D01*
X66863124Y-87948280D01*
X66641359Y-87800101D01*
X66394947Y-87698034D01*
X66133357Y-87646000D01*
X65866643Y-87646000D01*
X65605053Y-87698034D01*
X65358641Y-87800101D01*
X65136876Y-87948280D01*
X64948280Y-88136876D01*
X64800101Y-88358641D01*
X64698034Y-88605053D01*
X64646000Y-88866643D01*
X63255537Y-88866643D01*
X63254126Y-83501474D01*
X63275571Y-83541595D01*
X63306697Y-83579522D01*
X63339053Y-83618948D01*
X63358430Y-83634850D01*
X67187150Y-87463571D01*
X67203052Y-87482948D01*
X67222429Y-87498850D01*
X67280404Y-87546429D01*
X67368601Y-87593571D01*
X67368657Y-87593601D01*
X67464415Y-87622649D01*
X67539053Y-87630000D01*
X67539055Y-87630000D01*
X67563999Y-87632457D01*
X67588943Y-87630000D01*
X69197000Y-87630000D01*
X69197001Y-87919576D01*
X69196845Y-87919680D01*
X69119680Y-87996845D01*
X69059051Y-88087582D01*
X69017289Y-88188404D01*
X68996000Y-88295436D01*
X68996000Y-88404564D01*
X69017289Y-88511596D01*
X69059051Y-88612418D01*
X69119680Y-88703155D01*
X69196845Y-88780320D01*
X69287582Y-88840949D01*
X69388404Y-88882711D01*
X69495436Y-88904000D01*
X69604564Y-88904000D01*
X69711596Y-88882711D01*
X69812418Y-88840949D01*
X69903155Y-88780320D01*
X69980320Y-88703155D01*
X70040949Y-88612418D01*
X70082711Y-88511596D01*
X70104000Y-88404564D01*
X70104000Y-88295436D01*
X70082711Y-88188404D01*
X70040949Y-88087582D01*
X69980320Y-87996845D01*
X69959000Y-87975525D01*
X69959000Y-87630000D01*
X72253366Y-87630000D01*
X72268527Y-87648473D01*
X72307203Y-87680214D01*
X72351328Y-87703800D01*
X72399207Y-87718324D01*
X72449000Y-87723228D01*
X73349000Y-87723228D01*
X73398793Y-87718324D01*
X73446672Y-87703800D01*
X73490797Y-87680214D01*
X73529473Y-87648473D01*
X73561214Y-87609797D01*
X73584800Y-87565672D01*
X73599324Y-87517793D01*
X73604228Y-87468000D01*
X73604228Y-86268000D01*
X75493772Y-86268000D01*
X75493772Y-87468000D01*
X75498676Y-87517793D01*
X75513200Y-87565672D01*
X75536786Y-87609797D01*
X75568527Y-87648473D01*
X75607203Y-87680214D01*
X75651328Y-87703800D01*
X75699207Y-87718324D01*
X75749000Y-87723228D01*
X76649000Y-87723228D01*
X76698793Y-87718324D01*
X76746672Y-87703800D01*
X76790797Y-87680214D01*
X76829473Y-87648473D01*
X76861214Y-87609797D01*
X76884800Y-87565672D01*
X76899324Y-87517793D01*
X76904228Y-87468000D01*
X76904228Y-87358000D01*
X77654560Y-87358000D01*
X77533235Y-87382133D01*
X77414215Y-87431433D01*
X77307100Y-87503005D01*
X77216005Y-87594100D01*
X77144433Y-87701215D01*
X77095133Y-87820235D01*
X77070000Y-87946587D01*
X77070000Y-88075413D01*
X77095133Y-88201765D01*
X77144433Y-88320785D01*
X77216005Y-88427900D01*
X77307100Y-88518995D01*
X77414215Y-88590567D01*
X77533235Y-88639867D01*
X77659587Y-88665000D01*
X77788413Y-88665000D01*
X77914765Y-88639867D01*
X77960767Y-88620812D01*
X77460749Y-89120831D01*
X77450000Y-89119772D01*
X76850000Y-89119772D01*
X76800207Y-89124676D01*
X76752328Y-89139200D01*
X76708203Y-89162786D01*
X76669527Y-89194527D01*
X76661715Y-89204046D01*
X76639502Y-89130820D01*
X76580537Y-89020506D01*
X76501185Y-88923815D01*
X76404494Y-88844463D01*
X76294180Y-88785498D01*
X76174482Y-88749188D01*
X76050000Y-88736928D01*
X76035750Y-88740000D01*
X75877000Y-88898750D01*
X75877000Y-89598000D01*
X75897000Y-89598000D01*
X75897000Y-89852000D01*
X75877000Y-89852000D01*
X75877000Y-90551250D01*
X76035750Y-90710000D01*
X76050000Y-90713072D01*
X76174482Y-90700812D01*
X76294180Y-90664502D01*
X76404494Y-90605537D01*
X76501185Y-90526185D01*
X76580537Y-90429494D01*
X76639502Y-90319180D01*
X76661715Y-90245954D01*
X76669527Y-90255473D01*
X76708203Y-90287214D01*
X76752328Y-90310800D01*
X76800207Y-90325324D01*
X76850000Y-90330228D01*
X77450000Y-90330228D01*
X77499793Y-90325324D01*
X77547672Y-90310800D01*
X77591797Y-90287214D01*
X77630473Y-90255473D01*
X77653223Y-90227753D01*
X77674585Y-90225649D01*
X77770343Y-90196601D01*
X77858595Y-90149429D01*
X77935948Y-90085948D01*
X77951855Y-90066565D01*
X78961571Y-89056850D01*
X78980948Y-89040948D01*
X78999624Y-89018190D01*
X79044429Y-88963596D01*
X79091600Y-88875345D01*
X79102034Y-88840949D01*
X79120649Y-88779585D01*
X79128000Y-88704947D01*
X79128000Y-88704945D01*
X79130457Y-88680001D01*
X79128000Y-88655057D01*
X79128000Y-88042947D01*
X79130457Y-88018000D01*
X79128000Y-87993053D01*
X79128000Y-87344943D01*
X79130457Y-87319999D01*
X79128000Y-87295053D01*
X79120649Y-87220415D01*
X79091601Y-87124657D01*
X79080179Y-87103288D01*
X79044429Y-87036404D01*
X78996850Y-86978429D01*
X78980948Y-86959052D01*
X78961570Y-86943149D01*
X78526855Y-86508434D01*
X78510948Y-86489052D01*
X78433595Y-86425571D01*
X78345343Y-86378399D01*
X78249585Y-86349351D01*
X78174947Y-86342000D01*
X78174944Y-86342000D01*
X78150000Y-86339543D01*
X78125056Y-86342000D01*
X76904228Y-86342000D01*
X76904228Y-86268000D01*
X76899324Y-86218207D01*
X76884800Y-86170328D01*
X76861214Y-86126203D01*
X76829473Y-86087527D01*
X76790797Y-86055786D01*
X76746672Y-86032200D01*
X76698793Y-86017676D01*
X76649000Y-86012772D01*
X75749000Y-86012772D01*
X75699207Y-86017676D01*
X75651328Y-86032200D01*
X75607203Y-86055786D01*
X75568527Y-86087527D01*
X75536786Y-86126203D01*
X75513200Y-86170328D01*
X75498676Y-86218207D01*
X75493772Y-86268000D01*
X73604228Y-86268000D01*
X73599324Y-86218207D01*
X73584800Y-86170328D01*
X73561214Y-86126203D01*
X73529473Y-86087527D01*
X73490797Y-86055786D01*
X73446672Y-86032200D01*
X73398793Y-86017676D01*
X73349000Y-86012772D01*
X72449000Y-86012772D01*
X72399207Y-86017676D01*
X72351328Y-86032200D01*
X72307203Y-86055786D01*
X72268527Y-86087527D01*
X72236786Y-86126203D01*
X72213200Y-86170328D01*
X72198676Y-86218207D01*
X72193772Y-86268000D01*
X72193772Y-86614000D01*
X67774421Y-86614000D01*
X66722621Y-85562200D01*
X67670700Y-85562200D01*
X67670700Y-85709800D01*
X67699495Y-85854563D01*
X67755979Y-85990927D01*
X67837980Y-86113651D01*
X67942349Y-86218020D01*
X68065073Y-86300021D01*
X68201437Y-86356505D01*
X68346200Y-86385300D01*
X68493800Y-86385300D01*
X68638563Y-86356505D01*
X68774927Y-86300021D01*
X68897651Y-86218020D01*
X69002020Y-86113651D01*
X69084021Y-85990927D01*
X69140505Y-85854563D01*
X69169300Y-85709800D01*
X69169300Y-85562200D01*
X69140505Y-85417437D01*
X69084021Y-85281073D01*
X69002020Y-85158349D01*
X68897651Y-85053980D01*
X68774927Y-84971979D01*
X68638563Y-84915495D01*
X68493800Y-84886700D01*
X68346200Y-84886700D01*
X68201437Y-84915495D01*
X68065073Y-84971979D01*
X67942349Y-85053980D01*
X67837980Y-85158349D01*
X67755979Y-85281073D01*
X67699495Y-85417437D01*
X67670700Y-85562200D01*
X66722621Y-85562200D01*
X64208000Y-83047580D01*
X64208000Y-73409070D01*
X65257499Y-73409070D01*
X65266606Y-73501539D01*
X65293578Y-73590454D01*
X65337379Y-73672398D01*
X65396324Y-73744223D01*
X65686353Y-74034252D01*
X65686354Y-77554833D01*
X65684510Y-77573553D01*
X65687260Y-77601468D01*
X65691824Y-77647800D01*
X65691867Y-77648241D01*
X65713652Y-77720060D01*
X65749031Y-77786249D01*
X65776283Y-77819455D01*
X65796643Y-77844264D01*
X65811180Y-77856194D01*
X67951089Y-79996104D01*
X67951090Y-81225792D01*
X67864654Y-81208600D01*
X67755526Y-81208600D01*
X67648494Y-81229889D01*
X67547672Y-81271651D01*
X67456935Y-81332280D01*
X67379770Y-81409445D01*
X67319141Y-81500182D01*
X67277379Y-81601004D01*
X67256090Y-81708036D01*
X67256090Y-81817164D01*
X67277379Y-81924196D01*
X67319141Y-82025018D01*
X67379770Y-82115755D01*
X67429090Y-82165075D01*
X67429090Y-82247695D01*
X67248986Y-82427800D01*
X67179236Y-82427800D01*
X67072204Y-82449089D01*
X66971382Y-82490851D01*
X66880645Y-82551480D01*
X66803480Y-82628645D01*
X66742851Y-82719382D01*
X66701089Y-82820204D01*
X66679800Y-82927236D01*
X66679800Y-83036364D01*
X66701089Y-83143396D01*
X66742851Y-83244218D01*
X66803480Y-83334955D01*
X66880645Y-83412120D01*
X66971382Y-83472749D01*
X67072204Y-83514511D01*
X67179236Y-83535800D01*
X67288364Y-83535800D01*
X67395396Y-83514511D01*
X67496218Y-83472749D01*
X67586955Y-83412120D01*
X67664120Y-83334955D01*
X67724749Y-83244218D01*
X67766511Y-83143396D01*
X67787800Y-83036364D01*
X67787800Y-82966614D01*
X68066265Y-82688150D01*
X68080801Y-82676221D01*
X68110614Y-82639893D01*
X68128412Y-82618207D01*
X68148330Y-82580944D01*
X68422086Y-82854700D01*
X68346200Y-82854700D01*
X68201437Y-82883495D01*
X68065073Y-82939979D01*
X67942349Y-83021980D01*
X67837980Y-83126349D01*
X67755979Y-83249073D01*
X67699495Y-83385437D01*
X67670700Y-83530200D01*
X67670700Y-83677800D01*
X67699495Y-83822563D01*
X67755979Y-83958927D01*
X67837980Y-84081651D01*
X67942349Y-84186020D01*
X68065073Y-84268021D01*
X68201437Y-84324505D01*
X68346200Y-84353300D01*
X68493800Y-84353300D01*
X68638563Y-84324505D01*
X68774927Y-84268021D01*
X68897651Y-84186020D01*
X69002020Y-84081651D01*
X69084021Y-83958927D01*
X69140505Y-83822563D01*
X69169300Y-83677800D01*
X69169300Y-83601915D01*
X69648559Y-84081174D01*
X69660489Y-84095711D01*
X69675024Y-84107639D01*
X69718503Y-84143322D01*
X69741559Y-84155645D01*
X69784692Y-84178701D01*
X69856511Y-84200487D01*
X69912487Y-84206000D01*
X69912496Y-84206000D01*
X69931199Y-84207842D01*
X69949902Y-84206000D01*
X72875450Y-84206000D01*
X72835979Y-84265073D01*
X72779495Y-84401437D01*
X72750700Y-84546200D01*
X72750700Y-84693800D01*
X72779495Y-84838563D01*
X72835979Y-84974927D01*
X72917980Y-85097651D01*
X73022349Y-85202020D01*
X73145073Y-85284021D01*
X73281437Y-85340505D01*
X73426200Y-85369300D01*
X73573800Y-85369300D01*
X73718563Y-85340505D01*
X73854927Y-85284021D01*
X73977651Y-85202020D01*
X74082020Y-85097651D01*
X74164021Y-84974927D01*
X74220505Y-84838563D01*
X74249300Y-84693800D01*
X74249300Y-84546200D01*
X74220505Y-84401437D01*
X74164021Y-84265073D01*
X74124550Y-84206000D01*
X74945635Y-84206000D01*
X74947051Y-84209418D01*
X75007680Y-84300155D01*
X75084845Y-84377320D01*
X75175582Y-84437949D01*
X75276404Y-84479711D01*
X75383436Y-84501000D01*
X75492564Y-84501000D01*
X75599596Y-84479711D01*
X75700418Y-84437949D01*
X75791155Y-84377320D01*
X75868320Y-84300155D01*
X75928949Y-84209418D01*
X75970711Y-84108596D01*
X75992000Y-84001564D01*
X75992000Y-83892436D01*
X75970711Y-83785404D01*
X75928949Y-83684582D01*
X75868320Y-83593845D01*
X75791155Y-83516680D01*
X75700418Y-83456051D01*
X75599596Y-83414289D01*
X75518415Y-83398142D01*
X75534800Y-83315764D01*
X75534800Y-83206636D01*
X75513511Y-83099604D01*
X75471749Y-82998782D01*
X75460402Y-82981800D01*
X75927290Y-82981800D01*
X75946000Y-82983643D01*
X75964710Y-82981800D01*
X75964713Y-82981800D01*
X76020689Y-82976287D01*
X76092508Y-82954501D01*
X76158696Y-82919122D01*
X76216711Y-82871511D01*
X76228646Y-82856968D01*
X78462775Y-80622840D01*
X78477311Y-80610911D01*
X78505562Y-80576487D01*
X78524922Y-80552897D01*
X78560301Y-80486708D01*
X78560724Y-80485313D01*
X78582087Y-80414889D01*
X78587600Y-80358913D01*
X78587600Y-80358911D01*
X78589443Y-80340201D01*
X78587600Y-80321491D01*
X78587600Y-77297615D01*
X79340664Y-78050680D01*
X79366651Y-78113418D01*
X79427280Y-78204155D01*
X79504445Y-78281320D01*
X79595182Y-78341949D01*
X79696004Y-78383711D01*
X79803036Y-78405000D01*
X79912164Y-78405000D01*
X80019196Y-78383711D01*
X80120018Y-78341949D01*
X80210755Y-78281320D01*
X80287920Y-78204155D01*
X80348549Y-78113418D01*
X80390311Y-78012596D01*
X80411600Y-77905564D01*
X80411600Y-77835815D01*
X80599616Y-77647800D01*
X80852125Y-77647800D01*
X80901445Y-77697120D01*
X80992182Y-77757749D01*
X81093004Y-77799511D01*
X81200036Y-77820800D01*
X81309164Y-77820800D01*
X81416196Y-77799511D01*
X81517018Y-77757749D01*
X81607755Y-77697120D01*
X81684920Y-77619955D01*
X81745549Y-77529218D01*
X81787311Y-77428396D01*
X81808600Y-77321364D01*
X81808600Y-77212236D01*
X81787311Y-77105204D01*
X81745549Y-77004382D01*
X81684920Y-76913645D01*
X81607755Y-76836480D01*
X81517018Y-76775851D01*
X81416196Y-76734089D01*
X81309164Y-76712800D01*
X81200036Y-76712800D01*
X81093004Y-76734089D01*
X80992182Y-76775851D01*
X80901445Y-76836480D01*
X80852125Y-76885800D01*
X80460510Y-76885800D01*
X80441800Y-76883957D01*
X80423090Y-76885800D01*
X80423087Y-76885800D01*
X80367111Y-76891313D01*
X80295292Y-76913099D01*
X80229104Y-76948478D01*
X80185624Y-76984160D01*
X80185621Y-76984163D01*
X80171089Y-76996089D01*
X80159163Y-77010621D01*
X79872785Y-77297000D01*
X79803036Y-77297000D01*
X79696004Y-77318289D01*
X79688863Y-77321247D01*
X77931892Y-75564277D01*
X77985951Y-75547879D01*
X78096266Y-75488915D01*
X78192957Y-75409562D01*
X78197325Y-75400849D01*
X78197325Y-75176342D01*
X78146713Y-75125730D01*
X78520863Y-75125730D01*
X78520863Y-75350237D01*
X78525231Y-75358950D01*
X78621922Y-75438303D01*
X78732237Y-75497267D01*
X78851935Y-75533576D01*
X78976416Y-75545837D01*
X79100898Y-75533576D01*
X79220596Y-75497267D01*
X79330910Y-75438303D01*
X79427601Y-75358950D01*
X79449648Y-75332559D01*
X79449648Y-75108053D01*
X78994094Y-74652499D01*
X78520863Y-75125730D01*
X78146713Y-75125730D01*
X77724094Y-74703111D01*
X77709952Y-74717254D01*
X77530347Y-74537649D01*
X77544489Y-74523506D01*
X77530347Y-74509364D01*
X77709952Y-74329759D01*
X77724094Y-74343901D01*
X77738237Y-74329759D01*
X77917842Y-74509364D01*
X77903699Y-74523506D01*
X77926656Y-74546463D01*
X77933412Y-74615053D01*
X77969721Y-74734751D01*
X78028685Y-74845066D01*
X78108038Y-74941757D01*
X78116751Y-74946125D01*
X78326318Y-74946125D01*
X78376930Y-74996737D01*
X78601437Y-74996737D01*
X78610150Y-74992369D01*
X78689503Y-74895678D01*
X78748467Y-74785363D01*
X78784776Y-74665665D01*
X78797037Y-74541184D01*
X78792479Y-74494904D01*
X78814489Y-74472894D01*
X79173699Y-74472894D01*
X79629253Y-74928448D01*
X79853759Y-74928448D01*
X79880150Y-74906401D01*
X79959503Y-74809710D01*
X80018467Y-74699396D01*
X80054776Y-74579698D01*
X80067037Y-74455216D01*
X80054776Y-74330735D01*
X80018467Y-74211037D01*
X79959503Y-74100722D01*
X79880150Y-74004031D01*
X79871437Y-73999663D01*
X79646930Y-73999663D01*
X79173699Y-74472894D01*
X78814489Y-74472894D01*
X78800347Y-74458752D01*
X78979952Y-74279147D01*
X78994094Y-74293289D01*
X79467325Y-73820058D01*
X79467325Y-73595551D01*
X79462957Y-73586838D01*
X79366266Y-73507485D01*
X79255951Y-73448521D01*
X79136253Y-73412212D01*
X79011772Y-73399951D01*
X78887290Y-73412212D01*
X78779580Y-73444884D01*
X78610650Y-73275954D01*
X78549622Y-73225870D01*
X78479995Y-73188654D01*
X78404446Y-73165736D01*
X78325878Y-73157998D01*
X78247310Y-73165736D01*
X78231411Y-73170559D01*
X78223311Y-73160689D01*
X78165296Y-73113078D01*
X78099108Y-73077699D01*
X78027289Y-73055913D01*
X77971313Y-73050400D01*
X77971310Y-73050400D01*
X77952600Y-73048557D01*
X77933890Y-73050400D01*
X77672705Y-73050400D01*
X77761638Y-73032711D01*
X77862460Y-72990949D01*
X77949471Y-72932810D01*
X78026499Y-72984279D01*
X78127321Y-73026041D01*
X78234353Y-73047330D01*
X78343481Y-73047330D01*
X78450513Y-73026041D01*
X78551335Y-72984279D01*
X78642072Y-72923650D01*
X78691124Y-72874599D01*
X78746845Y-72930320D01*
X78837582Y-72990949D01*
X78938404Y-73032711D01*
X79045436Y-73054000D01*
X79154564Y-73054000D01*
X79261596Y-73032711D01*
X79362418Y-72990949D01*
X79453155Y-72930320D01*
X79500000Y-72883475D01*
X79546845Y-72930320D01*
X79637582Y-72990949D01*
X79738404Y-73032711D01*
X79845436Y-73054000D01*
X79954564Y-73054000D01*
X80061596Y-73032711D01*
X80162418Y-72990949D01*
X80253155Y-72930320D01*
X80330320Y-72853155D01*
X80390949Y-72762418D01*
X80432711Y-72661596D01*
X80454000Y-72554564D01*
X80454000Y-72445436D01*
X80432711Y-72338404D01*
X80390949Y-72237582D01*
X80330320Y-72146845D01*
X80281000Y-72097525D01*
X80281000Y-71993228D01*
X80297000Y-71993228D01*
X80346793Y-71988324D01*
X80394672Y-71973800D01*
X80438797Y-71950214D01*
X80477473Y-71918473D01*
X80509214Y-71879797D01*
X80532800Y-71835672D01*
X80547324Y-71787793D01*
X80552228Y-71738000D01*
X80552228Y-70867350D01*
X80635899Y-70923257D01*
X80745820Y-70968788D01*
X80862511Y-70992000D01*
X80981489Y-70992000D01*
X81098180Y-70968788D01*
X81208101Y-70923257D01*
X81307027Y-70857157D01*
X81391157Y-70773027D01*
X81457257Y-70674101D01*
X81502788Y-70564180D01*
X81526000Y-70447489D01*
X81526000Y-70328511D01*
X81502788Y-70211820D01*
X81457257Y-70101899D01*
X81391157Y-70002973D01*
X81307027Y-69918843D01*
X81208101Y-69852743D01*
X81098180Y-69807212D01*
X80981489Y-69784000D01*
X80862511Y-69784000D01*
X80745820Y-69807212D01*
X80635899Y-69852743D01*
X80536973Y-69918843D01*
X80452843Y-70002973D01*
X80437915Y-70025315D01*
X80394672Y-70002200D01*
X80346793Y-69987676D01*
X80297000Y-69982772D01*
X79747000Y-69982772D01*
X79697207Y-69987676D01*
X79649328Y-70002200D01*
X79622000Y-70016808D01*
X79594672Y-70002200D01*
X79546793Y-69987676D01*
X79497000Y-69982772D01*
X78947000Y-69982772D01*
X78897207Y-69987676D01*
X78849328Y-70002200D01*
X78822000Y-70016808D01*
X78794672Y-70002200D01*
X78746793Y-69987676D01*
X78697000Y-69982772D01*
X78147000Y-69982772D01*
X78097207Y-69987676D01*
X78049328Y-70002200D01*
X78022000Y-70016808D01*
X77994672Y-70002200D01*
X77986376Y-69999683D01*
X77975701Y-69964492D01*
X77959098Y-69933430D01*
X77940322Y-69898303D01*
X77904639Y-69854824D01*
X77892711Y-69840289D01*
X77878174Y-69828360D01*
X77633645Y-69583831D01*
X77621711Y-69569289D01*
X77563696Y-69521678D01*
X77497508Y-69486299D01*
X77425689Y-69464513D01*
X77369713Y-69459000D01*
X77369710Y-69459000D01*
X77351000Y-69457157D01*
X77332290Y-69459000D01*
X74210170Y-69459000D01*
X74191460Y-69457157D01*
X74172750Y-69459000D01*
X74172747Y-69459000D01*
X74153382Y-69460907D01*
X74111253Y-69418778D01*
X74020516Y-69358149D01*
X73919694Y-69316387D01*
X73812662Y-69295098D01*
X73703534Y-69295098D01*
X73596502Y-69316387D01*
X73495680Y-69358149D01*
X73404943Y-69418778D01*
X73327778Y-69495943D01*
X73267149Y-69586680D01*
X73252726Y-69621500D01*
X73224631Y-69612823D01*
X73107750Y-69603000D01*
X72949000Y-69761750D01*
X72949000Y-70861000D01*
X72969000Y-70861000D01*
X72969000Y-71115000D01*
X72949000Y-71115000D01*
X72949000Y-72214250D01*
X73087624Y-72352874D01*
X73101889Y-72424594D01*
X73143651Y-72525416D01*
X73204280Y-72616153D01*
X73281445Y-72693318D01*
X73372182Y-72753947D01*
X73473004Y-72795709D01*
X73580036Y-72816998D01*
X73689164Y-72816998D01*
X73796196Y-72795709D01*
X73897018Y-72753947D01*
X73987755Y-72693318D01*
X74048795Y-72632279D01*
X74083799Y-72667283D01*
X74083799Y-72671986D01*
X73511867Y-73243919D01*
X73506911Y-73219004D01*
X73465149Y-73118182D01*
X73404520Y-73027445D01*
X73327355Y-72950280D01*
X73236618Y-72889651D01*
X73135796Y-72847889D01*
X73028764Y-72826600D01*
X72919636Y-72826600D01*
X72812604Y-72847889D01*
X72711782Y-72889651D01*
X72621045Y-72950280D01*
X72571725Y-72999600D01*
X72205510Y-72999600D01*
X72186800Y-72997757D01*
X72168090Y-72999600D01*
X72168087Y-72999600D01*
X72112111Y-73005113D01*
X72040292Y-73026899D01*
X71974103Y-73062278D01*
X71955313Y-73077699D01*
X71916089Y-73109889D01*
X71904159Y-73124426D01*
X71197719Y-73830867D01*
X71255349Y-73744618D01*
X71297111Y-73643796D01*
X71318400Y-73536764D01*
X71318400Y-73427636D01*
X71297111Y-73320604D01*
X71255349Y-73219782D01*
X71194720Y-73129045D01*
X71117555Y-73051880D01*
X71026818Y-72991251D01*
X70925996Y-72949489D01*
X70818964Y-72928200D01*
X70709836Y-72928200D01*
X70602804Y-72949489D01*
X70501982Y-72991251D01*
X70411245Y-73051880D01*
X70334080Y-73129045D01*
X70273451Y-73219782D01*
X70231689Y-73320604D01*
X70210400Y-73427636D01*
X70210400Y-73536764D01*
X70231689Y-73643796D01*
X70273451Y-73744618D01*
X70334080Y-73835355D01*
X70383400Y-73884675D01*
X70383400Y-73925176D01*
X70383401Y-73925186D01*
X70383400Y-75597090D01*
X70381557Y-75615800D01*
X70383400Y-75634510D01*
X70383400Y-75634512D01*
X70388913Y-75690488D01*
X70404206Y-75740901D01*
X70410699Y-75762307D01*
X70446078Y-75828496D01*
X70454208Y-75838402D01*
X70493689Y-75886511D01*
X70508232Y-75898446D01*
X70633384Y-76023598D01*
X70592642Y-76045376D01*
X70553966Y-76077117D01*
X70306478Y-76324605D01*
X70274737Y-76363281D01*
X70251151Y-76407406D01*
X70236627Y-76455285D01*
X70235587Y-76465845D01*
X70225027Y-76466885D01*
X70177148Y-76481409D01*
X70133023Y-76504995D01*
X70094347Y-76536736D01*
X70046733Y-76584350D01*
X69951449Y-76553474D01*
X69827220Y-76538870D01*
X69702530Y-76548783D01*
X69582169Y-76582832D01*
X69470764Y-76639708D01*
X69388637Y-76705366D01*
X69388637Y-76929872D01*
X70006826Y-77548060D01*
X70076830Y-77478057D01*
X70246133Y-77647360D01*
X70037891Y-77854898D01*
X69868940Y-77685947D01*
X69938943Y-77615943D01*
X69320755Y-76997754D01*
X69096249Y-76997754D01*
X69030591Y-77079881D01*
X68973715Y-77191286D01*
X68946036Y-77289130D01*
X68605400Y-76948495D01*
X68605400Y-76552046D01*
X68618365Y-76549467D01*
X68737385Y-76500167D01*
X68844500Y-76428595D01*
X68935595Y-76337500D01*
X69007167Y-76230385D01*
X69056467Y-76111365D01*
X69081600Y-75985013D01*
X69081600Y-75856187D01*
X69056467Y-75729835D01*
X69007167Y-75610815D01*
X68935595Y-75503700D01*
X68844500Y-75412605D01*
X68737385Y-75341033D01*
X68618365Y-75291733D01*
X68492013Y-75266600D01*
X68363187Y-75266600D01*
X68236835Y-75291733D01*
X68117815Y-75341033D01*
X68010700Y-75412605D01*
X67919605Y-75503700D01*
X67848033Y-75610815D01*
X67798733Y-75729835D01*
X67773600Y-75856187D01*
X67773600Y-75985013D01*
X67798733Y-76111365D01*
X67843401Y-76219202D01*
X67843400Y-77087599D01*
X67841557Y-77106309D01*
X67843400Y-77125019D01*
X67843400Y-77125021D01*
X67848913Y-77180997D01*
X67870699Y-77252816D01*
X67906078Y-77319005D01*
X67922066Y-77338486D01*
X67953689Y-77377020D01*
X67968232Y-77388955D01*
X69489063Y-78909786D01*
X69387239Y-79011610D01*
X69355498Y-79050286D01*
X69331912Y-79094411D01*
X69317388Y-79142290D01*
X69312484Y-79192083D01*
X69313585Y-79203258D01*
X69206377Y-79203258D01*
X69099345Y-79224547D01*
X68998523Y-79266309D01*
X68907786Y-79326938D01*
X68876144Y-79358580D01*
X67562047Y-78044484D01*
X67562047Y-75094912D01*
X67852076Y-74804883D01*
X67911021Y-74733058D01*
X67954822Y-74651114D01*
X67981794Y-74562199D01*
X67990901Y-74469730D01*
X67981794Y-74377261D01*
X67954822Y-74288346D01*
X67945396Y-74270712D01*
X69857415Y-72358694D01*
X69894247Y-72447614D01*
X69954876Y-72538351D01*
X70032041Y-72615516D01*
X70122778Y-72676145D01*
X70223600Y-72717907D01*
X70330632Y-72739196D01*
X70439760Y-72739196D01*
X70546792Y-72717907D01*
X70647614Y-72676145D01*
X70738351Y-72615516D01*
X70785196Y-72568671D01*
X70846845Y-72630320D01*
X70937582Y-72690949D01*
X71038404Y-72732711D01*
X71145436Y-72754000D01*
X71254564Y-72754000D01*
X71361596Y-72732711D01*
X71462418Y-72690949D01*
X71553155Y-72630320D01*
X71630320Y-72553155D01*
X71690949Y-72462418D01*
X71728265Y-72372329D01*
X71736250Y-72373000D01*
X71895000Y-72214250D01*
X71895000Y-71734787D01*
X71908936Y-71734787D01*
X71920570Y-71859329D01*
X71956276Y-71979208D01*
X72014684Y-72089818D01*
X72093549Y-72186908D01*
X72189839Y-72266746D01*
X72215236Y-72280486D01*
X72307750Y-72373000D01*
X72422000Y-72363398D01*
X72536250Y-72373000D01*
X72628764Y-72280486D01*
X72654161Y-72266746D01*
X72750451Y-72186908D01*
X72829316Y-72089818D01*
X72887724Y-71979208D01*
X72923430Y-71859329D01*
X72935064Y-71734787D01*
X72932000Y-71273750D01*
X72773250Y-71115000D01*
X72070750Y-71115000D01*
X71912000Y-71273750D01*
X71908936Y-71734787D01*
X71895000Y-71734787D01*
X71895000Y-71115000D01*
X71875000Y-71115000D01*
X71875000Y-70861000D01*
X71895000Y-70861000D01*
X71895000Y-70241213D01*
X71908936Y-70241213D01*
X71912000Y-70702250D01*
X72070750Y-70861000D01*
X72773250Y-70861000D01*
X72932000Y-70702250D01*
X72935064Y-70241213D01*
X72923430Y-70116671D01*
X72887724Y-69996792D01*
X72829316Y-69886182D01*
X72750451Y-69789092D01*
X72654161Y-69709254D01*
X72628764Y-69695514D01*
X72536250Y-69603000D01*
X72422000Y-69612602D01*
X72307750Y-69603000D01*
X72215236Y-69695514D01*
X72189839Y-69709254D01*
X72093549Y-69789092D01*
X72014684Y-69886182D01*
X71956276Y-69996792D01*
X71920570Y-70116671D01*
X71908936Y-70241213D01*
X71895000Y-70241213D01*
X71895000Y-69761750D01*
X71736250Y-69603000D01*
X71619369Y-69612823D01*
X71499855Y-69649735D01*
X71389839Y-69709254D01*
X71293549Y-69789092D01*
X71214684Y-69886182D01*
X71163679Y-69982772D01*
X70947000Y-69982772D01*
X70897207Y-69987676D01*
X70849328Y-70002200D01*
X70822000Y-70016808D01*
X70794672Y-70002200D01*
X70746793Y-69987676D01*
X70697000Y-69982772D01*
X70147000Y-69982772D01*
X70097207Y-69987676D01*
X70049328Y-70002200D01*
X70022000Y-70016808D01*
X69994672Y-70002200D01*
X69946793Y-69987676D01*
X69897000Y-69982772D01*
X69347000Y-69982772D01*
X69297207Y-69987676D01*
X69249328Y-70002200D01*
X69222000Y-70016808D01*
X69194672Y-70002200D01*
X69146793Y-69987676D01*
X69097000Y-69982772D01*
X68547000Y-69982772D01*
X68497207Y-69987676D01*
X68449328Y-70002200D01*
X68405203Y-70025786D01*
X68366527Y-70057527D01*
X68334786Y-70096203D01*
X68311200Y-70140328D01*
X68296676Y-70188207D01*
X68291772Y-70238000D01*
X68291772Y-70646928D01*
X68272265Y-70657355D01*
X68249209Y-70669678D01*
X68243820Y-70674101D01*
X68191195Y-70717289D01*
X68179265Y-70731826D01*
X66292888Y-72618204D01*
X66275254Y-72608778D01*
X66186339Y-72581806D01*
X66093870Y-72572699D01*
X66001401Y-72581806D01*
X65912486Y-72608778D01*
X65830542Y-72652579D01*
X65758717Y-72711524D01*
X65396324Y-73073917D01*
X65337379Y-73145742D01*
X65293578Y-73227686D01*
X65266606Y-73316601D01*
X65257499Y-73409070D01*
X64208000Y-73409070D01*
X64208000Y-70485420D01*
X65035053Y-69658367D01*
X65119670Y-69666701D01*
X65212139Y-69657594D01*
X65301054Y-69630622D01*
X65382998Y-69586821D01*
X65454823Y-69527876D01*
X65764182Y-69218517D01*
X65823127Y-69146692D01*
X65866928Y-69064748D01*
X65893900Y-68975833D01*
X65903007Y-68883364D01*
X65893900Y-68790895D01*
X65866928Y-68701980D01*
X65823127Y-68620036D01*
X65764182Y-68548211D01*
X65401789Y-68185818D01*
X65329964Y-68126873D01*
X65248020Y-68083072D01*
X65159105Y-68056100D01*
X65066636Y-68046993D01*
X64974167Y-68056100D01*
X64885252Y-68083072D01*
X64803308Y-68126873D01*
X64731483Y-68185818D01*
X64422124Y-68495177D01*
X64363179Y-68567002D01*
X64319378Y-68648946D01*
X64292406Y-68737861D01*
X64283299Y-68830330D01*
X64292406Y-68922799D01*
X64302036Y-68954544D01*
X63358435Y-69898145D01*
X63339052Y-69914052D01*
X63275571Y-69991405D01*
X63250587Y-70038147D01*
X63249977Y-67716636D01*
X65396993Y-67716636D01*
X65406100Y-67809105D01*
X65433072Y-67898020D01*
X65476873Y-67979964D01*
X65535818Y-68051789D01*
X65898211Y-68414182D01*
X65970036Y-68473127D01*
X66051980Y-68516928D01*
X66140895Y-68543900D01*
X66233364Y-68553007D01*
X66325833Y-68543900D01*
X66414748Y-68516928D01*
X66496692Y-68473127D01*
X66568517Y-68414182D01*
X66877876Y-68104823D01*
X66936821Y-68032998D01*
X66980622Y-67951054D01*
X67007594Y-67862139D01*
X67016701Y-67769670D01*
X67010609Y-67707812D01*
X67485421Y-67233000D01*
X67683563Y-67233000D01*
X67635899Y-67252743D01*
X67536973Y-67318843D01*
X67452843Y-67402973D01*
X67386743Y-67501899D01*
X67341212Y-67611820D01*
X67318000Y-67728511D01*
X67318000Y-67847489D01*
X67341212Y-67964180D01*
X67386743Y-68074101D01*
X67452843Y-68173027D01*
X67536973Y-68257157D01*
X67635899Y-68323257D01*
X67745820Y-68368788D01*
X67862511Y-68392000D01*
X67981489Y-68392000D01*
X68098180Y-68368788D01*
X68208101Y-68323257D01*
X68307027Y-68257157D01*
X68391157Y-68173027D01*
X68406085Y-68150685D01*
X68449328Y-68173800D01*
X68497207Y-68188324D01*
X68547000Y-68193228D01*
X69097000Y-68193228D01*
X69146793Y-68188324D01*
X69194672Y-68173800D01*
X69222000Y-68159192D01*
X69249328Y-68173800D01*
X69297207Y-68188324D01*
X69347000Y-68193228D01*
X69897000Y-68193228D01*
X69946793Y-68188324D01*
X69994672Y-68173800D01*
X70022000Y-68159192D01*
X70049328Y-68173800D01*
X70097207Y-68188324D01*
X70147000Y-68193228D01*
X70697000Y-68193228D01*
X70746793Y-68188324D01*
X70794672Y-68173800D01*
X70822000Y-68159192D01*
X70849328Y-68173800D01*
X70897207Y-68188324D01*
X70947000Y-68193228D01*
X71497000Y-68193228D01*
X71546793Y-68188324D01*
X71594672Y-68173800D01*
X71622000Y-68159192D01*
X71649328Y-68173800D01*
X71697207Y-68188324D01*
X71747000Y-68193228D01*
X72297000Y-68193228D01*
X72346793Y-68188324D01*
X72394672Y-68173800D01*
X72422000Y-68159192D01*
X72449328Y-68173800D01*
X72497207Y-68188324D01*
X72547000Y-68193228D01*
X72763679Y-68193228D01*
X72814684Y-68289818D01*
X72893549Y-68386908D01*
X72989839Y-68466746D01*
X73099855Y-68526265D01*
X73219369Y-68563177D01*
X73336250Y-68573000D01*
X73495000Y-68414250D01*
X73495000Y-67934787D01*
X73508936Y-67934787D01*
X73520570Y-68059329D01*
X73556276Y-68179208D01*
X73614684Y-68289818D01*
X73693549Y-68386908D01*
X73789839Y-68466746D01*
X73815236Y-68480486D01*
X73907750Y-68573000D01*
X74022000Y-68563398D01*
X74136250Y-68573000D01*
X74228764Y-68480486D01*
X74254161Y-68466746D01*
X74350451Y-68386908D01*
X74429316Y-68289818D01*
X74487724Y-68179208D01*
X74523430Y-68059329D01*
X74535064Y-67934787D01*
X74532000Y-67473750D01*
X74373250Y-67315000D01*
X73670750Y-67315000D01*
X73512000Y-67473750D01*
X73508936Y-67934787D01*
X73495000Y-67934787D01*
X73495000Y-67315000D01*
X73475000Y-67315000D01*
X73475000Y-67061000D01*
X73495000Y-67061000D01*
X73495000Y-66441213D01*
X73508936Y-66441213D01*
X73512000Y-66902250D01*
X73670750Y-67061000D01*
X74373250Y-67061000D01*
X74532000Y-66902250D01*
X74535064Y-66441213D01*
X74523430Y-66316671D01*
X74487724Y-66196792D01*
X74429316Y-66086182D01*
X74350451Y-65989092D01*
X74317475Y-65961750D01*
X74549000Y-65961750D01*
X74549000Y-67061000D01*
X74569000Y-67061000D01*
X74569000Y-67315000D01*
X74549000Y-67315000D01*
X74549000Y-68414250D01*
X74707750Y-68573000D01*
X74824631Y-68563177D01*
X74944145Y-68526265D01*
X75054161Y-68466746D01*
X75150451Y-68386908D01*
X75229316Y-68289818D01*
X75280321Y-68193228D01*
X75497000Y-68193228D01*
X75546793Y-68188324D01*
X75594672Y-68173800D01*
X75622000Y-68159192D01*
X75649328Y-68173800D01*
X75697207Y-68188324D01*
X75747000Y-68193228D01*
X76297000Y-68193228D01*
X76346793Y-68188324D01*
X76394672Y-68173800D01*
X76422000Y-68159192D01*
X76449328Y-68173800D01*
X76497207Y-68188324D01*
X76547000Y-68193228D01*
X77097000Y-68193228D01*
X77146793Y-68188324D01*
X77194672Y-68173800D01*
X77222000Y-68159192D01*
X77249328Y-68173800D01*
X77297207Y-68188324D01*
X77347000Y-68193228D01*
X77897000Y-68193228D01*
X77946793Y-68188324D01*
X77994672Y-68173800D01*
X78022000Y-68159192D01*
X78049328Y-68173800D01*
X78097207Y-68188324D01*
X78147000Y-68193228D01*
X78697000Y-68193228D01*
X78746793Y-68188324D01*
X78794672Y-68173800D01*
X78822000Y-68159192D01*
X78849328Y-68173800D01*
X78897207Y-68188324D01*
X78947000Y-68193228D01*
X79497000Y-68193228D01*
X79546793Y-68188324D01*
X79594672Y-68173800D01*
X79622000Y-68159192D01*
X79649328Y-68173800D01*
X79697207Y-68188324D01*
X79747000Y-68193228D01*
X80297000Y-68193228D01*
X80346793Y-68188324D01*
X80394672Y-68173800D01*
X80438797Y-68150214D01*
X80477473Y-68118473D01*
X80509214Y-68079797D01*
X80532800Y-68035672D01*
X80547324Y-67987793D01*
X80552228Y-67938000D01*
X80552228Y-66438000D01*
X80547324Y-66388207D01*
X80532800Y-66340328D01*
X80509214Y-66296203D01*
X80486703Y-66268773D01*
X80490949Y-66262418D01*
X80532711Y-66161596D01*
X80554000Y-66054564D01*
X80554000Y-65945436D01*
X80532711Y-65838404D01*
X80490949Y-65737582D01*
X80430320Y-65646845D01*
X80353155Y-65569680D01*
X80262418Y-65509051D01*
X80161596Y-65467289D01*
X80054564Y-65446000D01*
X79945436Y-65446000D01*
X79838404Y-65467289D01*
X79737582Y-65509051D01*
X79646845Y-65569680D01*
X79600000Y-65616525D01*
X79553155Y-65569680D01*
X79462418Y-65509051D01*
X79361596Y-65467289D01*
X79254564Y-65446000D01*
X79145436Y-65446000D01*
X79038404Y-65467289D01*
X78937582Y-65509051D01*
X78846845Y-65569680D01*
X78800000Y-65616525D01*
X78753155Y-65569680D01*
X78662418Y-65509051D01*
X78561596Y-65467289D01*
X78454564Y-65446000D01*
X78345436Y-65446000D01*
X78238404Y-65467289D01*
X78137582Y-65509051D01*
X78046845Y-65569680D01*
X78000000Y-65616525D01*
X77953155Y-65569680D01*
X77862418Y-65509051D01*
X77761596Y-65467289D01*
X77654564Y-65446000D01*
X77545436Y-65446000D01*
X77438404Y-65467289D01*
X77337582Y-65509051D01*
X77246845Y-65569680D01*
X77200000Y-65616525D01*
X77153155Y-65569680D01*
X77062418Y-65509051D01*
X76961596Y-65467289D01*
X76854564Y-65446000D01*
X76745436Y-65446000D01*
X76638404Y-65467289D01*
X76537582Y-65509051D01*
X76446845Y-65569680D01*
X76400000Y-65616525D01*
X76353155Y-65569680D01*
X76262418Y-65509051D01*
X76161596Y-65467289D01*
X76054564Y-65446000D01*
X75945436Y-65446000D01*
X75838404Y-65467289D01*
X75737582Y-65509051D01*
X75646845Y-65569680D01*
X75600000Y-65616525D01*
X75553155Y-65569680D01*
X75462418Y-65509051D01*
X75361596Y-65467289D01*
X75254564Y-65446000D01*
X75145436Y-65446000D01*
X75038404Y-65467289D01*
X74937582Y-65509051D01*
X74846845Y-65569680D01*
X74769680Y-65646845D01*
X74709051Y-65737582D01*
X74667289Y-65838404D01*
X74666033Y-65844717D01*
X74549000Y-65961750D01*
X74317475Y-65961750D01*
X74254161Y-65909254D01*
X74228764Y-65895514D01*
X74136250Y-65803000D01*
X74022000Y-65812602D01*
X73907750Y-65803000D01*
X73815236Y-65895514D01*
X73789839Y-65909254D01*
X73693549Y-65989092D01*
X73614684Y-66086182D01*
X73556276Y-66196792D01*
X73520570Y-66316671D01*
X73508936Y-66441213D01*
X73495000Y-66441213D01*
X73495000Y-65961750D01*
X73336250Y-65803000D01*
X73318659Y-65804478D01*
X73290949Y-65737582D01*
X73230320Y-65646845D01*
X73153155Y-65569680D01*
X73062418Y-65509051D01*
X72961596Y-65467289D01*
X72854564Y-65446000D01*
X72745436Y-65446000D01*
X72638404Y-65467289D01*
X72537582Y-65509051D01*
X72446845Y-65569680D01*
X72400000Y-65616525D01*
X72353155Y-65569680D01*
X72262418Y-65509051D01*
X72161596Y-65467289D01*
X72054564Y-65446000D01*
X71945436Y-65446000D01*
X71838404Y-65467289D01*
X71737582Y-65509051D01*
X71646845Y-65569680D01*
X71600000Y-65616525D01*
X71553155Y-65569680D01*
X71462418Y-65509051D01*
X71361596Y-65467289D01*
X71254564Y-65446000D01*
X71145436Y-65446000D01*
X71038404Y-65467289D01*
X70937582Y-65509051D01*
X70846845Y-65569680D01*
X70800000Y-65616525D01*
X70753155Y-65569680D01*
X70662418Y-65509051D01*
X70561596Y-65467289D01*
X70454564Y-65446000D01*
X70345436Y-65446000D01*
X70238404Y-65467289D01*
X70137582Y-65509051D01*
X70046845Y-65569680D01*
X70000000Y-65616525D01*
X69953155Y-65569680D01*
X69862418Y-65509051D01*
X69761596Y-65467289D01*
X69654564Y-65446000D01*
X69545436Y-65446000D01*
X69438404Y-65467289D01*
X69337582Y-65509051D01*
X69246845Y-65569680D01*
X69169680Y-65646845D01*
X69109051Y-65737582D01*
X69067289Y-65838404D01*
X69046000Y-65945436D01*
X69046000Y-66054564D01*
X69067289Y-66161596D01*
X69076060Y-66182772D01*
X68547000Y-66182772D01*
X68497207Y-66187676D01*
X68449328Y-66202200D01*
X68415775Y-66220135D01*
X68383947Y-66217000D01*
X68383944Y-66217000D01*
X68359000Y-66214543D01*
X68334056Y-66217000D01*
X67299943Y-66217000D01*
X67274999Y-66214543D01*
X67250055Y-66217000D01*
X67250053Y-66217000D01*
X67175415Y-66224351D01*
X67079657Y-66253399D01*
X67079655Y-66253400D01*
X66991404Y-66300571D01*
X66942960Y-66340328D01*
X66914052Y-66364052D01*
X66898150Y-66383429D01*
X66323725Y-66957854D01*
X66272799Y-66942406D01*
X66180330Y-66933299D01*
X66087861Y-66942406D01*
X65998946Y-66969378D01*
X65917002Y-67013179D01*
X65845177Y-67072124D01*
X65535818Y-67381483D01*
X65476873Y-67453308D01*
X65433072Y-67535252D01*
X65406100Y-67624167D01*
X65396993Y-67716636D01*
X63249977Y-67716636D01*
X63249452Y-65720436D01*
X63821000Y-65720436D01*
X63821000Y-65829564D01*
X63842289Y-65936596D01*
X63884051Y-66037418D01*
X63944680Y-66128155D01*
X64021845Y-66205320D01*
X64112582Y-66265949D01*
X64213404Y-66307711D01*
X64320436Y-66329000D01*
X64340188Y-66329000D01*
X64671002Y-66659815D01*
X64671002Y-66729564D01*
X64692291Y-66836596D01*
X64734053Y-66937418D01*
X64794682Y-67028155D01*
X64871847Y-67105320D01*
X64962584Y-67165949D01*
X65063406Y-67207711D01*
X65170438Y-67229000D01*
X65279566Y-67229000D01*
X65386598Y-67207711D01*
X65487420Y-67165949D01*
X65578157Y-67105320D01*
X65655322Y-67028155D01*
X65715951Y-66937418D01*
X65757713Y-66836596D01*
X65779002Y-66729564D01*
X65779002Y-66620436D01*
X65757713Y-66513404D01*
X65715951Y-66412582D01*
X65706820Y-66398917D01*
X65788406Y-66432711D01*
X65895438Y-66454000D01*
X66004566Y-66454000D01*
X66111598Y-66432711D01*
X66212420Y-66390949D01*
X66303157Y-66330320D01*
X66380322Y-66253155D01*
X66440951Y-66162418D01*
X66482713Y-66061596D01*
X66504002Y-65954564D01*
X66504002Y-65845436D01*
X66482713Y-65738404D01*
X66440951Y-65637582D01*
X66380322Y-65546845D01*
X66303157Y-65469680D01*
X66212420Y-65409051D01*
X66111598Y-65367289D01*
X66004566Y-65346000D01*
X65934817Y-65346000D01*
X65654000Y-65065184D01*
X65654000Y-64970436D01*
X65632711Y-64863404D01*
X65590949Y-64762582D01*
X65530320Y-64671845D01*
X65453155Y-64594680D01*
X65362418Y-64534051D01*
X65261596Y-64492289D01*
X65154564Y-64471000D01*
X65045436Y-64471000D01*
X64938404Y-64492289D01*
X64837582Y-64534051D01*
X64746845Y-64594680D01*
X64669680Y-64671845D01*
X64609051Y-64762582D01*
X64567289Y-64863404D01*
X64546000Y-64970436D01*
X64546000Y-65079564D01*
X64567289Y-65186596D01*
X64601492Y-65269170D01*
X64536596Y-65242289D01*
X64429564Y-65221000D01*
X64320436Y-65221000D01*
X64213404Y-65242289D01*
X64112582Y-65284051D01*
X64021845Y-65344680D01*
X63944680Y-65421845D01*
X63884051Y-65512582D01*
X63842289Y-65613404D01*
X63821000Y-65720436D01*
X63249452Y-65720436D01*
X63249073Y-64278718D01*
X82530991Y-64259281D01*
X82530084Y-90377010D01*
G37*
X82530084Y-90377010D02*
X81197282Y-91709813D01*
X65316969Y-91733621D01*
X64894687Y-91674156D01*
X64499171Y-91536301D01*
X64137964Y-91324250D01*
X63824823Y-91046078D01*
X63571678Y-90712382D01*
X63388168Y-90335870D01*
X63279715Y-89924936D01*
X63255756Y-89700454D01*
X63255537Y-88866643D01*
X64646000Y-88866643D01*
X64646000Y-89133357D01*
X64698034Y-89394947D01*
X64800101Y-89641359D01*
X64948280Y-89863124D01*
X65136876Y-90051720D01*
X65358641Y-90199899D01*
X65605053Y-90301966D01*
X65866643Y-90354000D01*
X66133357Y-90354000D01*
X66394947Y-90301966D01*
X66641359Y-90199899D01*
X66828283Y-90075000D01*
X74811928Y-90075000D01*
X74824188Y-90199482D01*
X74860498Y-90319180D01*
X74919463Y-90429494D01*
X74998815Y-90526185D01*
X75095506Y-90605537D01*
X75205820Y-90664502D01*
X75325518Y-90700812D01*
X75450000Y-90713072D01*
X75464250Y-90710000D01*
X75623000Y-90551250D01*
X75623000Y-89852000D01*
X74973750Y-89852000D01*
X74815000Y-90010750D01*
X74811928Y-90075000D01*
X66828283Y-90075000D01*
X66863124Y-90051720D01*
X67051720Y-89863124D01*
X67199899Y-89641359D01*
X67301966Y-89394947D01*
X67305933Y-89375000D01*
X74811928Y-89375000D01*
X74815000Y-89439250D01*
X74973750Y-89598000D01*
X75623000Y-89598000D01*
X75623000Y-88898750D01*
X75464250Y-88740000D01*
X75450000Y-88736928D01*
X75325518Y-88749188D01*
X75205820Y-88785498D01*
X75095506Y-88844463D01*
X74998815Y-88923815D01*
X74919463Y-89020506D01*
X74860498Y-89130820D01*
X74824188Y-89250518D01*
X74811928Y-89375000D01*
X67305933Y-89375000D01*
X67354000Y-89133357D01*
X67354000Y-88866643D01*
X67301966Y-88605053D01*
X67199899Y-88358641D01*
X67051720Y-88136876D01*
X66863124Y-87948280D01*
X66641359Y-87800101D01*
X66394947Y-87698034D01*
X66133357Y-87646000D01*
X65866643Y-87646000D01*
X65605053Y-87698034D01*
X65358641Y-87800101D01*
X65136876Y-87948280D01*
X64948280Y-88136876D01*
X64800101Y-88358641D01*
X64698034Y-88605053D01*
X64646000Y-88866643D01*
X63255537Y-88866643D01*
X63254126Y-83501474D01*
X63275571Y-83541595D01*
X63306697Y-83579522D01*
X63339053Y-83618948D01*
X63358430Y-83634850D01*
X67187150Y-87463571D01*
X67203052Y-87482948D01*
X67222429Y-87498850D01*
X67280404Y-87546429D01*
X67368601Y-87593571D01*
X67368657Y-87593601D01*
X67464415Y-87622649D01*
X67539053Y-87630000D01*
X67539055Y-87630000D01*
X67563999Y-87632457D01*
X67588943Y-87630000D01*
X69197000Y-87630000D01*
X69197001Y-87919576D01*
X69196845Y-87919680D01*
X69119680Y-87996845D01*
X69059051Y-88087582D01*
X69017289Y-88188404D01*
X68996000Y-88295436D01*
X68996000Y-88404564D01*
X69017289Y-88511596D01*
X69059051Y-88612418D01*
X69119680Y-88703155D01*
X69196845Y-88780320D01*
X69287582Y-88840949D01*
X69388404Y-88882711D01*
X69495436Y-88904000D01*
X69604564Y-88904000D01*
X69711596Y-88882711D01*
X69812418Y-88840949D01*
X69903155Y-88780320D01*
X69980320Y-88703155D01*
X70040949Y-88612418D01*
X70082711Y-88511596D01*
X70104000Y-88404564D01*
X70104000Y-88295436D01*
X70082711Y-88188404D01*
X70040949Y-88087582D01*
X69980320Y-87996845D01*
X69959000Y-87975525D01*
X69959000Y-87630000D01*
X72253366Y-87630000D01*
X72268527Y-87648473D01*
X72307203Y-87680214D01*
X72351328Y-87703800D01*
X72399207Y-87718324D01*
X72449000Y-87723228D01*
X73349000Y-87723228D01*
X73398793Y-87718324D01*
X73446672Y-87703800D01*
X73490797Y-87680214D01*
X73529473Y-87648473D01*
X73561214Y-87609797D01*
X73584800Y-87565672D01*
X73599324Y-87517793D01*
X73604228Y-87468000D01*
X73604228Y-86268000D01*
X75493772Y-86268000D01*
X75493772Y-87468000D01*
X75498676Y-87517793D01*
X75513200Y-87565672D01*
X75536786Y-87609797D01*
X75568527Y-87648473D01*
X75607203Y-87680214D01*
X75651328Y-87703800D01*
X75699207Y-87718324D01*
X75749000Y-87723228D01*
X76649000Y-87723228D01*
X76698793Y-87718324D01*
X76746672Y-87703800D01*
X76790797Y-87680214D01*
X76829473Y-87648473D01*
X76861214Y-87609797D01*
X76884800Y-87565672D01*
X76899324Y-87517793D01*
X76904228Y-87468000D01*
X76904228Y-87358000D01*
X77654560Y-87358000D01*
X77533235Y-87382133D01*
X77414215Y-87431433D01*
X77307100Y-87503005D01*
X77216005Y-87594100D01*
X77144433Y-87701215D01*
X77095133Y-87820235D01*
X77070000Y-87946587D01*
X77070000Y-88075413D01*
X77095133Y-88201765D01*
X77144433Y-88320785D01*
X77216005Y-88427900D01*
X77307100Y-88518995D01*
X77414215Y-88590567D01*
X77533235Y-88639867D01*
X77659587Y-88665000D01*
X77788413Y-88665000D01*
X77914765Y-88639867D01*
X77960767Y-88620812D01*
X77460749Y-89120831D01*
X77450000Y-89119772D01*
X76850000Y-89119772D01*
X76800207Y-89124676D01*
X76752328Y-89139200D01*
X76708203Y-89162786D01*
X76669527Y-89194527D01*
X76661715Y-89204046D01*
X76639502Y-89130820D01*
X76580537Y-89020506D01*
X76501185Y-88923815D01*
X76404494Y-88844463D01*
X76294180Y-88785498D01*
X76174482Y-88749188D01*
X76050000Y-88736928D01*
X76035750Y-88740000D01*
X75877000Y-88898750D01*
X75877000Y-89598000D01*
X75897000Y-89598000D01*
X75897000Y-89852000D01*
X75877000Y-89852000D01*
X75877000Y-90551250D01*
X76035750Y-90710000D01*
X76050000Y-90713072D01*
X76174482Y-90700812D01*
X76294180Y-90664502D01*
X76404494Y-90605537D01*
X76501185Y-90526185D01*
X76580537Y-90429494D01*
X76639502Y-90319180D01*
X76661715Y-90245954D01*
X76669527Y-90255473D01*
X76708203Y-90287214D01*
X76752328Y-90310800D01*
X76800207Y-90325324D01*
X76850000Y-90330228D01*
X77450000Y-90330228D01*
X77499793Y-90325324D01*
X77547672Y-90310800D01*
X77591797Y-90287214D01*
X77630473Y-90255473D01*
X77653223Y-90227753D01*
X77674585Y-90225649D01*
X77770343Y-90196601D01*
X77858595Y-90149429D01*
X77935948Y-90085948D01*
X77951855Y-90066565D01*
X78961571Y-89056850D01*
X78980948Y-89040948D01*
X78999624Y-89018190D01*
X79044429Y-88963596D01*
X79091600Y-88875345D01*
X79102034Y-88840949D01*
X79120649Y-88779585D01*
X79128000Y-88704947D01*
X79128000Y-88704945D01*
X79130457Y-88680001D01*
X79128000Y-88655057D01*
X79128000Y-88042947D01*
X79130457Y-88018000D01*
X79128000Y-87993053D01*
X79128000Y-87344943D01*
X79130457Y-87319999D01*
X79128000Y-87295053D01*
X79120649Y-87220415D01*
X79091601Y-87124657D01*
X79080179Y-87103288D01*
X79044429Y-87036404D01*
X78996850Y-86978429D01*
X78980948Y-86959052D01*
X78961570Y-86943149D01*
X78526855Y-86508434D01*
X78510948Y-86489052D01*
X78433595Y-86425571D01*
X78345343Y-86378399D01*
X78249585Y-86349351D01*
X78174947Y-86342000D01*
X78174944Y-86342000D01*
X78150000Y-86339543D01*
X78125056Y-86342000D01*
X76904228Y-86342000D01*
X76904228Y-86268000D01*
X76899324Y-86218207D01*
X76884800Y-86170328D01*
X76861214Y-86126203D01*
X76829473Y-86087527D01*
X76790797Y-86055786D01*
X76746672Y-86032200D01*
X76698793Y-86017676D01*
X76649000Y-86012772D01*
X75749000Y-86012772D01*
X75699207Y-86017676D01*
X75651328Y-86032200D01*
X75607203Y-86055786D01*
X75568527Y-86087527D01*
X75536786Y-86126203D01*
X75513200Y-86170328D01*
X75498676Y-86218207D01*
X75493772Y-86268000D01*
X73604228Y-86268000D01*
X73599324Y-86218207D01*
X73584800Y-86170328D01*
X73561214Y-86126203D01*
X73529473Y-86087527D01*
X73490797Y-86055786D01*
X73446672Y-86032200D01*
X73398793Y-86017676D01*
X73349000Y-86012772D01*
X72449000Y-86012772D01*
X72399207Y-86017676D01*
X72351328Y-86032200D01*
X72307203Y-86055786D01*
X72268527Y-86087527D01*
X72236786Y-86126203D01*
X72213200Y-86170328D01*
X72198676Y-86218207D01*
X72193772Y-86268000D01*
X72193772Y-86614000D01*
X67774421Y-86614000D01*
X66722621Y-85562200D01*
X67670700Y-85562200D01*
X67670700Y-85709800D01*
X67699495Y-85854563D01*
X67755979Y-85990927D01*
X67837980Y-86113651D01*
X67942349Y-86218020D01*
X68065073Y-86300021D01*
X68201437Y-86356505D01*
X68346200Y-86385300D01*
X68493800Y-86385300D01*
X68638563Y-86356505D01*
X68774927Y-86300021D01*
X68897651Y-86218020D01*
X69002020Y-86113651D01*
X69084021Y-85990927D01*
X69140505Y-85854563D01*
X69169300Y-85709800D01*
X69169300Y-85562200D01*
X69140505Y-85417437D01*
X69084021Y-85281073D01*
X69002020Y-85158349D01*
X68897651Y-85053980D01*
X68774927Y-84971979D01*
X68638563Y-84915495D01*
X68493800Y-84886700D01*
X68346200Y-84886700D01*
X68201437Y-84915495D01*
X68065073Y-84971979D01*
X67942349Y-85053980D01*
X67837980Y-85158349D01*
X67755979Y-85281073D01*
X67699495Y-85417437D01*
X67670700Y-85562200D01*
X66722621Y-85562200D01*
X64208000Y-83047580D01*
X64208000Y-73409070D01*
X65257499Y-73409070D01*
X65266606Y-73501539D01*
X65293578Y-73590454D01*
X65337379Y-73672398D01*
X65396324Y-73744223D01*
X65686353Y-74034252D01*
X65686354Y-77554833D01*
X65684510Y-77573553D01*
X65687260Y-77601468D01*
X65691824Y-77647800D01*
X65691867Y-77648241D01*
X65713652Y-77720060D01*
X65749031Y-77786249D01*
X65776283Y-77819455D01*
X65796643Y-77844264D01*
X65811180Y-77856194D01*
X67951089Y-79996104D01*
X67951090Y-81225792D01*
X67864654Y-81208600D01*
X67755526Y-81208600D01*
X67648494Y-81229889D01*
X67547672Y-81271651D01*
X67456935Y-81332280D01*
X67379770Y-81409445D01*
X67319141Y-81500182D01*
X67277379Y-81601004D01*
X67256090Y-81708036D01*
X67256090Y-81817164D01*
X67277379Y-81924196D01*
X67319141Y-82025018D01*
X67379770Y-82115755D01*
X67429090Y-82165075D01*
X67429090Y-82247695D01*
X67248986Y-82427800D01*
X67179236Y-82427800D01*
X67072204Y-82449089D01*
X66971382Y-82490851D01*
X66880645Y-82551480D01*
X66803480Y-82628645D01*
X66742851Y-82719382D01*
X66701089Y-82820204D01*
X66679800Y-82927236D01*
X66679800Y-83036364D01*
X66701089Y-83143396D01*
X66742851Y-83244218D01*
X66803480Y-83334955D01*
X66880645Y-83412120D01*
X66971382Y-83472749D01*
X67072204Y-83514511D01*
X67179236Y-83535800D01*
X67288364Y-83535800D01*
X67395396Y-83514511D01*
X67496218Y-83472749D01*
X67586955Y-83412120D01*
X67664120Y-83334955D01*
X67724749Y-83244218D01*
X67766511Y-83143396D01*
X67787800Y-83036364D01*
X67787800Y-82966614D01*
X68066265Y-82688150D01*
X68080801Y-82676221D01*
X68110614Y-82639893D01*
X68128412Y-82618207D01*
X68148330Y-82580944D01*
X68422086Y-82854700D01*
X68346200Y-82854700D01*
X68201437Y-82883495D01*
X68065073Y-82939979D01*
X67942349Y-83021980D01*
X67837980Y-83126349D01*
X67755979Y-83249073D01*
X67699495Y-83385437D01*
X67670700Y-83530200D01*
X67670700Y-83677800D01*
X67699495Y-83822563D01*
X67755979Y-83958927D01*
X67837980Y-84081651D01*
X67942349Y-84186020D01*
X68065073Y-84268021D01*
X68201437Y-84324505D01*
X68346200Y-84353300D01*
X68493800Y-84353300D01*
X68638563Y-84324505D01*
X68774927Y-84268021D01*
X68897651Y-84186020D01*
X69002020Y-84081651D01*
X69084021Y-83958927D01*
X69140505Y-83822563D01*
X69169300Y-83677800D01*
X69169300Y-83601915D01*
X69648559Y-84081174D01*
X69660489Y-84095711D01*
X69675024Y-84107639D01*
X69718503Y-84143322D01*
X69741559Y-84155645D01*
X69784692Y-84178701D01*
X69856511Y-84200487D01*
X69912487Y-84206000D01*
X69912496Y-84206000D01*
X69931199Y-84207842D01*
X69949902Y-84206000D01*
X72875450Y-84206000D01*
X72835979Y-84265073D01*
X72779495Y-84401437D01*
X72750700Y-84546200D01*
X72750700Y-84693800D01*
X72779495Y-84838563D01*
X72835979Y-84974927D01*
X72917980Y-85097651D01*
X73022349Y-85202020D01*
X73145073Y-85284021D01*
X73281437Y-85340505D01*
X73426200Y-85369300D01*
X73573800Y-85369300D01*
X73718563Y-85340505D01*
X73854927Y-85284021D01*
X73977651Y-85202020D01*
X74082020Y-85097651D01*
X74164021Y-84974927D01*
X74220505Y-84838563D01*
X74249300Y-84693800D01*
X74249300Y-84546200D01*
X74220505Y-84401437D01*
X74164021Y-84265073D01*
X74124550Y-84206000D01*
X74945635Y-84206000D01*
X74947051Y-84209418D01*
X75007680Y-84300155D01*
X75084845Y-84377320D01*
X75175582Y-84437949D01*
X75276404Y-84479711D01*
X75383436Y-84501000D01*
X75492564Y-84501000D01*
X75599596Y-84479711D01*
X75700418Y-84437949D01*
X75791155Y-84377320D01*
X75868320Y-84300155D01*
X75928949Y-84209418D01*
X75970711Y-84108596D01*
X75992000Y-84001564D01*
X75992000Y-83892436D01*
X75970711Y-83785404D01*
X75928949Y-83684582D01*
X75868320Y-83593845D01*
X75791155Y-83516680D01*
X75700418Y-83456051D01*
X75599596Y-83414289D01*
X75518415Y-83398142D01*
X75534800Y-83315764D01*
X75534800Y-83206636D01*
X75513511Y-83099604D01*
X75471749Y-82998782D01*
X75460402Y-82981800D01*
X75927290Y-82981800D01*
X75946000Y-82983643D01*
X75964710Y-82981800D01*
X75964713Y-82981800D01*
X76020689Y-82976287D01*
X76092508Y-82954501D01*
X76158696Y-82919122D01*
X76216711Y-82871511D01*
X76228646Y-82856968D01*
X78462775Y-80622840D01*
X78477311Y-80610911D01*
X78505562Y-80576487D01*
X78524922Y-80552897D01*
X78560301Y-80486708D01*
X78560724Y-80485313D01*
X78582087Y-80414889D01*
X78587600Y-80358913D01*
X78587600Y-80358911D01*
X78589443Y-80340201D01*
X78587600Y-80321491D01*
X78587600Y-77297615D01*
X79340664Y-78050680D01*
X79366651Y-78113418D01*
X79427280Y-78204155D01*
X79504445Y-78281320D01*
X79595182Y-78341949D01*
X79696004Y-78383711D01*
X79803036Y-78405000D01*
X79912164Y-78405000D01*
X80019196Y-78383711D01*
X80120018Y-78341949D01*
X80210755Y-78281320D01*
X80287920Y-78204155D01*
X80348549Y-78113418D01*
X80390311Y-78012596D01*
X80411600Y-77905564D01*
X80411600Y-77835815D01*
X80599616Y-77647800D01*
X80852125Y-77647800D01*
X80901445Y-77697120D01*
X80992182Y-77757749D01*
X81093004Y-77799511D01*
X81200036Y-77820800D01*
X81309164Y-77820800D01*
X81416196Y-77799511D01*
X81517018Y-77757749D01*
X81607755Y-77697120D01*
X81684920Y-77619955D01*
X81745549Y-77529218D01*
X81787311Y-77428396D01*
X81808600Y-77321364D01*
X81808600Y-77212236D01*
X81787311Y-77105204D01*
X81745549Y-77004382D01*
X81684920Y-76913645D01*
X81607755Y-76836480D01*
X81517018Y-76775851D01*
X81416196Y-76734089D01*
X81309164Y-76712800D01*
X81200036Y-76712800D01*
X81093004Y-76734089D01*
X80992182Y-76775851D01*
X80901445Y-76836480D01*
X80852125Y-76885800D01*
X80460510Y-76885800D01*
X80441800Y-76883957D01*
X80423090Y-76885800D01*
X80423087Y-76885800D01*
X80367111Y-76891313D01*
X80295292Y-76913099D01*
X80229104Y-76948478D01*
X80185624Y-76984160D01*
X80185621Y-76984163D01*
X80171089Y-76996089D01*
X80159163Y-77010621D01*
X79872785Y-77297000D01*
X79803036Y-77297000D01*
X79696004Y-77318289D01*
X79688863Y-77321247D01*
X77931892Y-75564277D01*
X77985951Y-75547879D01*
X78096266Y-75488915D01*
X78192957Y-75409562D01*
X78197325Y-75400849D01*
X78197325Y-75176342D01*
X78146713Y-75125730D01*
X78520863Y-75125730D01*
X78520863Y-75350237D01*
X78525231Y-75358950D01*
X78621922Y-75438303D01*
X78732237Y-75497267D01*
X78851935Y-75533576D01*
X78976416Y-75545837D01*
X79100898Y-75533576D01*
X79220596Y-75497267D01*
X79330910Y-75438303D01*
X79427601Y-75358950D01*
X79449648Y-75332559D01*
X79449648Y-75108053D01*
X78994094Y-74652499D01*
X78520863Y-75125730D01*
X78146713Y-75125730D01*
X77724094Y-74703111D01*
X77709952Y-74717254D01*
X77530347Y-74537649D01*
X77544489Y-74523506D01*
X77530347Y-74509364D01*
X77709952Y-74329759D01*
X77724094Y-74343901D01*
X77738237Y-74329759D01*
X77917842Y-74509364D01*
X77903699Y-74523506D01*
X77926656Y-74546463D01*
X77933412Y-74615053D01*
X77969721Y-74734751D01*
X78028685Y-74845066D01*
X78108038Y-74941757D01*
X78116751Y-74946125D01*
X78326318Y-74946125D01*
X78376930Y-74996737D01*
X78601437Y-74996737D01*
X78610150Y-74992369D01*
X78689503Y-74895678D01*
X78748467Y-74785363D01*
X78784776Y-74665665D01*
X78797037Y-74541184D01*
X78792479Y-74494904D01*
X78814489Y-74472894D01*
X79173699Y-74472894D01*
X79629253Y-74928448D01*
X79853759Y-74928448D01*
X79880150Y-74906401D01*
X79959503Y-74809710D01*
X80018467Y-74699396D01*
X80054776Y-74579698D01*
X80067037Y-74455216D01*
X80054776Y-74330735D01*
X80018467Y-74211037D01*
X79959503Y-74100722D01*
X79880150Y-74004031D01*
X79871437Y-73999663D01*
X79646930Y-73999663D01*
X79173699Y-74472894D01*
X78814489Y-74472894D01*
X78800347Y-74458752D01*
X78979952Y-74279147D01*
X78994094Y-74293289D01*
X79467325Y-73820058D01*
X79467325Y-73595551D01*
X79462957Y-73586838D01*
X79366266Y-73507485D01*
X79255951Y-73448521D01*
X79136253Y-73412212D01*
X79011772Y-73399951D01*
X78887290Y-73412212D01*
X78779580Y-73444884D01*
X78610650Y-73275954D01*
X78549622Y-73225870D01*
X78479995Y-73188654D01*
X78404446Y-73165736D01*
X78325878Y-73157998D01*
X78247310Y-73165736D01*
X78231411Y-73170559D01*
X78223311Y-73160689D01*
X78165296Y-73113078D01*
X78099108Y-73077699D01*
X78027289Y-73055913D01*
X77971313Y-73050400D01*
X77971310Y-73050400D01*
X77952600Y-73048557D01*
X77933890Y-73050400D01*
X77672705Y-73050400D01*
X77761638Y-73032711D01*
X77862460Y-72990949D01*
X77949471Y-72932810D01*
X78026499Y-72984279D01*
X78127321Y-73026041D01*
X78234353Y-73047330D01*
X78343481Y-73047330D01*
X78450513Y-73026041D01*
X78551335Y-72984279D01*
X78642072Y-72923650D01*
X78691124Y-72874599D01*
X78746845Y-72930320D01*
X78837582Y-72990949D01*
X78938404Y-73032711D01*
X79045436Y-73054000D01*
X79154564Y-73054000D01*
X79261596Y-73032711D01*
X79362418Y-72990949D01*
X79453155Y-72930320D01*
X79500000Y-72883475D01*
X79546845Y-72930320D01*
X79637582Y-72990949D01*
X79738404Y-73032711D01*
X79845436Y-73054000D01*
X79954564Y-73054000D01*
X80061596Y-73032711D01*
X80162418Y-72990949D01*
X80253155Y-72930320D01*
X80330320Y-72853155D01*
X80390949Y-72762418D01*
X80432711Y-72661596D01*
X80454000Y-72554564D01*
X80454000Y-72445436D01*
X80432711Y-72338404D01*
X80390949Y-72237582D01*
X80330320Y-72146845D01*
X80281000Y-72097525D01*
X80281000Y-71993228D01*
X80297000Y-71993228D01*
X80346793Y-71988324D01*
X80394672Y-71973800D01*
X80438797Y-71950214D01*
X80477473Y-71918473D01*
X80509214Y-71879797D01*
X80532800Y-71835672D01*
X80547324Y-71787793D01*
X80552228Y-71738000D01*
X80552228Y-70867350D01*
X80635899Y-70923257D01*
X80745820Y-70968788D01*
X80862511Y-70992000D01*
X80981489Y-70992000D01*
X81098180Y-70968788D01*
X81208101Y-70923257D01*
X81307027Y-70857157D01*
X81391157Y-70773027D01*
X81457257Y-70674101D01*
X81502788Y-70564180D01*
X81526000Y-70447489D01*
X81526000Y-70328511D01*
X81502788Y-70211820D01*
X81457257Y-70101899D01*
X81391157Y-70002973D01*
X81307027Y-69918843D01*
X81208101Y-69852743D01*
X81098180Y-69807212D01*
X80981489Y-69784000D01*
X80862511Y-69784000D01*
X80745820Y-69807212D01*
X80635899Y-69852743D01*
X80536973Y-69918843D01*
X80452843Y-70002973D01*
X80437915Y-70025315D01*
X80394672Y-70002200D01*
X80346793Y-69987676D01*
X80297000Y-69982772D01*
X79747000Y-69982772D01*
X79697207Y-69987676D01*
X79649328Y-70002200D01*
X79622000Y-70016808D01*
X79594672Y-70002200D01*
X79546793Y-69987676D01*
X79497000Y-69982772D01*
X78947000Y-69982772D01*
X78897207Y-69987676D01*
X78849328Y-70002200D01*
X78822000Y-70016808D01*
X78794672Y-70002200D01*
X78746793Y-69987676D01*
X78697000Y-69982772D01*
X78147000Y-69982772D01*
X78097207Y-69987676D01*
X78049328Y-70002200D01*
X78022000Y-70016808D01*
X77994672Y-70002200D01*
X77986376Y-69999683D01*
X77975701Y-69964492D01*
X77959098Y-69933430D01*
X77940322Y-69898303D01*
X77904639Y-69854824D01*
X77892711Y-69840289D01*
X77878174Y-69828360D01*
X77633645Y-69583831D01*
X77621711Y-69569289D01*
X77563696Y-69521678D01*
X77497508Y-69486299D01*
X77425689Y-69464513D01*
X77369713Y-69459000D01*
X77369710Y-69459000D01*
X77351000Y-69457157D01*
X77332290Y-69459000D01*
X74210170Y-69459000D01*
X74191460Y-69457157D01*
X74172750Y-69459000D01*
X74172747Y-69459000D01*
X74153382Y-69460907D01*
X74111253Y-69418778D01*
X74020516Y-69358149D01*
X73919694Y-69316387D01*
X73812662Y-69295098D01*
X73703534Y-69295098D01*
X73596502Y-69316387D01*
X73495680Y-69358149D01*
X73404943Y-69418778D01*
X73327778Y-69495943D01*
X73267149Y-69586680D01*
X73252726Y-69621500D01*
X73224631Y-69612823D01*
X73107750Y-69603000D01*
X72949000Y-69761750D01*
X72949000Y-70861000D01*
X72969000Y-70861000D01*
X72969000Y-71115000D01*
X72949000Y-71115000D01*
X72949000Y-72214250D01*
X73087624Y-72352874D01*
X73101889Y-72424594D01*
X73143651Y-72525416D01*
X73204280Y-72616153D01*
X73281445Y-72693318D01*
X73372182Y-72753947D01*
X73473004Y-72795709D01*
X73580036Y-72816998D01*
X73689164Y-72816998D01*
X73796196Y-72795709D01*
X73897018Y-72753947D01*
X73987755Y-72693318D01*
X74048795Y-72632279D01*
X74083799Y-72667283D01*
X74083799Y-72671986D01*
X73511867Y-73243919D01*
X73506911Y-73219004D01*
X73465149Y-73118182D01*
X73404520Y-73027445D01*
X73327355Y-72950280D01*
X73236618Y-72889651D01*
X73135796Y-72847889D01*
X73028764Y-72826600D01*
X72919636Y-72826600D01*
X72812604Y-72847889D01*
X72711782Y-72889651D01*
X72621045Y-72950280D01*
X72571725Y-72999600D01*
X72205510Y-72999600D01*
X72186800Y-72997757D01*
X72168090Y-72999600D01*
X72168087Y-72999600D01*
X72112111Y-73005113D01*
X72040292Y-73026899D01*
X71974103Y-73062278D01*
X71955313Y-73077699D01*
X71916089Y-73109889D01*
X71904159Y-73124426D01*
X71197719Y-73830867D01*
X71255349Y-73744618D01*
X71297111Y-73643796D01*
X71318400Y-73536764D01*
X71318400Y-73427636D01*
X71297111Y-73320604D01*
X71255349Y-73219782D01*
X71194720Y-73129045D01*
X71117555Y-73051880D01*
X71026818Y-72991251D01*
X70925996Y-72949489D01*
X70818964Y-72928200D01*
X70709836Y-72928200D01*
X70602804Y-72949489D01*
X70501982Y-72991251D01*
X70411245Y-73051880D01*
X70334080Y-73129045D01*
X70273451Y-73219782D01*
X70231689Y-73320604D01*
X70210400Y-73427636D01*
X70210400Y-73536764D01*
X70231689Y-73643796D01*
X70273451Y-73744618D01*
X70334080Y-73835355D01*
X70383400Y-73884675D01*
X70383400Y-73925176D01*
X70383401Y-73925186D01*
X70383400Y-75597090D01*
X70381557Y-75615800D01*
X70383400Y-75634510D01*
X70383400Y-75634512D01*
X70388913Y-75690488D01*
X70404206Y-75740901D01*
X70410699Y-75762307D01*
X70446078Y-75828496D01*
X70454208Y-75838402D01*
X70493689Y-75886511D01*
X70508232Y-75898446D01*
X70633384Y-76023598D01*
X70592642Y-76045376D01*
X70553966Y-76077117D01*
X70306478Y-76324605D01*
X70274737Y-76363281D01*
X70251151Y-76407406D01*
X70236627Y-76455285D01*
X70235587Y-76465845D01*
X70225027Y-76466885D01*
X70177148Y-76481409D01*
X70133023Y-76504995D01*
X70094347Y-76536736D01*
X70046733Y-76584350D01*
X69951449Y-76553474D01*
X69827220Y-76538870D01*
X69702530Y-76548783D01*
X69582169Y-76582832D01*
X69470764Y-76639708D01*
X69388637Y-76705366D01*
X69388637Y-76929872D01*
X70006826Y-77548060D01*
X70076830Y-77478057D01*
X70246133Y-77647360D01*
X70037891Y-77854898D01*
X69868940Y-77685947D01*
X69938943Y-77615943D01*
X69320755Y-76997754D01*
X69096249Y-76997754D01*
X69030591Y-77079881D01*
X68973715Y-77191286D01*
X68946036Y-77289130D01*
X68605400Y-76948495D01*
X68605400Y-76552046D01*
X68618365Y-76549467D01*
X68737385Y-76500167D01*
X68844500Y-76428595D01*
X68935595Y-76337500D01*
X69007167Y-76230385D01*
X69056467Y-76111365D01*
X69081600Y-75985013D01*
X69081600Y-75856187D01*
X69056467Y-75729835D01*
X69007167Y-75610815D01*
X68935595Y-75503700D01*
X68844500Y-75412605D01*
X68737385Y-75341033D01*
X68618365Y-75291733D01*
X68492013Y-75266600D01*
X68363187Y-75266600D01*
X68236835Y-75291733D01*
X68117815Y-75341033D01*
X68010700Y-75412605D01*
X67919605Y-75503700D01*
X67848033Y-75610815D01*
X67798733Y-75729835D01*
X67773600Y-75856187D01*
X67773600Y-75985013D01*
X67798733Y-76111365D01*
X67843401Y-76219202D01*
X67843400Y-77087599D01*
X67841557Y-77106309D01*
X67843400Y-77125019D01*
X67843400Y-77125021D01*
X67848913Y-77180997D01*
X67870699Y-77252816D01*
X67906078Y-77319005D01*
X67922066Y-77338486D01*
X67953689Y-77377020D01*
X67968232Y-77388955D01*
X69489063Y-78909786D01*
X69387239Y-79011610D01*
X69355498Y-79050286D01*
X69331912Y-79094411D01*
X69317388Y-79142290D01*
X69312484Y-79192083D01*
X69313585Y-79203258D01*
X69206377Y-79203258D01*
X69099345Y-79224547D01*
X68998523Y-79266309D01*
X68907786Y-79326938D01*
X68876144Y-79358580D01*
X67562047Y-78044484D01*
X67562047Y-75094912D01*
X67852076Y-74804883D01*
X67911021Y-74733058D01*
X67954822Y-74651114D01*
X67981794Y-74562199D01*
X67990901Y-74469730D01*
X67981794Y-74377261D01*
X67954822Y-74288346D01*
X67945396Y-74270712D01*
X69857415Y-72358694D01*
X69894247Y-72447614D01*
X69954876Y-72538351D01*
X70032041Y-72615516D01*
X70122778Y-72676145D01*
X70223600Y-72717907D01*
X70330632Y-72739196D01*
X70439760Y-72739196D01*
X70546792Y-72717907D01*
X70647614Y-72676145D01*
X70738351Y-72615516D01*
X70785196Y-72568671D01*
X70846845Y-72630320D01*
X70937582Y-72690949D01*
X71038404Y-72732711D01*
X71145436Y-72754000D01*
X71254564Y-72754000D01*
X71361596Y-72732711D01*
X71462418Y-72690949D01*
X71553155Y-72630320D01*
X71630320Y-72553155D01*
X71690949Y-72462418D01*
X71728265Y-72372329D01*
X71736250Y-72373000D01*
X71895000Y-72214250D01*
X71895000Y-71734787D01*
X71908936Y-71734787D01*
X71920570Y-71859329D01*
X71956276Y-71979208D01*
X72014684Y-72089818D01*
X72093549Y-72186908D01*
X72189839Y-72266746D01*
X72215236Y-72280486D01*
X72307750Y-72373000D01*
X72422000Y-72363398D01*
X72536250Y-72373000D01*
X72628764Y-72280486D01*
X72654161Y-72266746D01*
X72750451Y-72186908D01*
X72829316Y-72089818D01*
X72887724Y-71979208D01*
X72923430Y-71859329D01*
X72935064Y-71734787D01*
X72932000Y-71273750D01*
X72773250Y-71115000D01*
X72070750Y-71115000D01*
X71912000Y-71273750D01*
X71908936Y-71734787D01*
X71895000Y-71734787D01*
X71895000Y-71115000D01*
X71875000Y-71115000D01*
X71875000Y-70861000D01*
X71895000Y-70861000D01*
X71895000Y-70241213D01*
X71908936Y-70241213D01*
X71912000Y-70702250D01*
X72070750Y-70861000D01*
X72773250Y-70861000D01*
X72932000Y-70702250D01*
X72935064Y-70241213D01*
X72923430Y-70116671D01*
X72887724Y-69996792D01*
X72829316Y-69886182D01*
X72750451Y-69789092D01*
X72654161Y-69709254D01*
X72628764Y-69695514D01*
X72536250Y-69603000D01*
X72422000Y-69612602D01*
X72307750Y-69603000D01*
X72215236Y-69695514D01*
X72189839Y-69709254D01*
X72093549Y-69789092D01*
X72014684Y-69886182D01*
X71956276Y-69996792D01*
X71920570Y-70116671D01*
X71908936Y-70241213D01*
X71895000Y-70241213D01*
X71895000Y-69761750D01*
X71736250Y-69603000D01*
X71619369Y-69612823D01*
X71499855Y-69649735D01*
X71389839Y-69709254D01*
X71293549Y-69789092D01*
X71214684Y-69886182D01*
X71163679Y-69982772D01*
X70947000Y-69982772D01*
X70897207Y-69987676D01*
X70849328Y-70002200D01*
X70822000Y-70016808D01*
X70794672Y-70002200D01*
X70746793Y-69987676D01*
X70697000Y-69982772D01*
X70147000Y-69982772D01*
X70097207Y-69987676D01*
X70049328Y-70002200D01*
X70022000Y-70016808D01*
X69994672Y-70002200D01*
X69946793Y-69987676D01*
X69897000Y-69982772D01*
X69347000Y-69982772D01*
X69297207Y-69987676D01*
X69249328Y-70002200D01*
X69222000Y-70016808D01*
X69194672Y-70002200D01*
X69146793Y-69987676D01*
X69097000Y-69982772D01*
X68547000Y-69982772D01*
X68497207Y-69987676D01*
X68449328Y-70002200D01*
X68405203Y-70025786D01*
X68366527Y-70057527D01*
X68334786Y-70096203D01*
X68311200Y-70140328D01*
X68296676Y-70188207D01*
X68291772Y-70238000D01*
X68291772Y-70646928D01*
X68272265Y-70657355D01*
X68249209Y-70669678D01*
X68243820Y-70674101D01*
X68191195Y-70717289D01*
X68179265Y-70731826D01*
X66292888Y-72618204D01*
X66275254Y-72608778D01*
X66186339Y-72581806D01*
X66093870Y-72572699D01*
X66001401Y-72581806D01*
X65912486Y-72608778D01*
X65830542Y-72652579D01*
X65758717Y-72711524D01*
X65396324Y-73073917D01*
X65337379Y-73145742D01*
X65293578Y-73227686D01*
X65266606Y-73316601D01*
X65257499Y-73409070D01*
X64208000Y-73409070D01*
X64208000Y-70485420D01*
X65035053Y-69658367D01*
X65119670Y-69666701D01*
X65212139Y-69657594D01*
X65301054Y-69630622D01*
X65382998Y-69586821D01*
X65454823Y-69527876D01*
X65764182Y-69218517D01*
X65823127Y-69146692D01*
X65866928Y-69064748D01*
X65893900Y-68975833D01*
X65903007Y-68883364D01*
X65893900Y-68790895D01*
X65866928Y-68701980D01*
X65823127Y-68620036D01*
X65764182Y-68548211D01*
X65401789Y-68185818D01*
X65329964Y-68126873D01*
X65248020Y-68083072D01*
X65159105Y-68056100D01*
X65066636Y-68046993D01*
X64974167Y-68056100D01*
X64885252Y-68083072D01*
X64803308Y-68126873D01*
X64731483Y-68185818D01*
X64422124Y-68495177D01*
X64363179Y-68567002D01*
X64319378Y-68648946D01*
X64292406Y-68737861D01*
X64283299Y-68830330D01*
X64292406Y-68922799D01*
X64302036Y-68954544D01*
X63358435Y-69898145D01*
X63339052Y-69914052D01*
X63275571Y-69991405D01*
X63250587Y-70038147D01*
X63249977Y-67716636D01*
X65396993Y-67716636D01*
X65406100Y-67809105D01*
X65433072Y-67898020D01*
X65476873Y-67979964D01*
X65535818Y-68051789D01*
X65898211Y-68414182D01*
X65970036Y-68473127D01*
X66051980Y-68516928D01*
X66140895Y-68543900D01*
X66233364Y-68553007D01*
X66325833Y-68543900D01*
X66414748Y-68516928D01*
X66496692Y-68473127D01*
X66568517Y-68414182D01*
X66877876Y-68104823D01*
X66936821Y-68032998D01*
X66980622Y-67951054D01*
X67007594Y-67862139D01*
X67016701Y-67769670D01*
X67010609Y-67707812D01*
X67485421Y-67233000D01*
X67683563Y-67233000D01*
X67635899Y-67252743D01*
X67536973Y-67318843D01*
X67452843Y-67402973D01*
X67386743Y-67501899D01*
X67341212Y-67611820D01*
X67318000Y-67728511D01*
X67318000Y-67847489D01*
X67341212Y-67964180D01*
X67386743Y-68074101D01*
X67452843Y-68173027D01*
X67536973Y-68257157D01*
X67635899Y-68323257D01*
X67745820Y-68368788D01*
X67862511Y-68392000D01*
X67981489Y-68392000D01*
X68098180Y-68368788D01*
X68208101Y-68323257D01*
X68307027Y-68257157D01*
X68391157Y-68173027D01*
X68406085Y-68150685D01*
X68449328Y-68173800D01*
X68497207Y-68188324D01*
X68547000Y-68193228D01*
X69097000Y-68193228D01*
X69146793Y-68188324D01*
X69194672Y-68173800D01*
X69222000Y-68159192D01*
X69249328Y-68173800D01*
X69297207Y-68188324D01*
X69347000Y-68193228D01*
X69897000Y-68193228D01*
X69946793Y-68188324D01*
X69994672Y-68173800D01*
X70022000Y-68159192D01*
X70049328Y-68173800D01*
X70097207Y-68188324D01*
X70147000Y-68193228D01*
X70697000Y-68193228D01*
X70746793Y-68188324D01*
X70794672Y-68173800D01*
X70822000Y-68159192D01*
X70849328Y-68173800D01*
X70897207Y-68188324D01*
X70947000Y-68193228D01*
X71497000Y-68193228D01*
X71546793Y-68188324D01*
X71594672Y-68173800D01*
X71622000Y-68159192D01*
X71649328Y-68173800D01*
X71697207Y-68188324D01*
X71747000Y-68193228D01*
X72297000Y-68193228D01*
X72346793Y-68188324D01*
X72394672Y-68173800D01*
X72422000Y-68159192D01*
X72449328Y-68173800D01*
X72497207Y-68188324D01*
X72547000Y-68193228D01*
X72763679Y-68193228D01*
X72814684Y-68289818D01*
X72893549Y-68386908D01*
X72989839Y-68466746D01*
X73099855Y-68526265D01*
X73219369Y-68563177D01*
X73336250Y-68573000D01*
X73495000Y-68414250D01*
X73495000Y-67934787D01*
X73508936Y-67934787D01*
X73520570Y-68059329D01*
X73556276Y-68179208D01*
X73614684Y-68289818D01*
X73693549Y-68386908D01*
X73789839Y-68466746D01*
X73815236Y-68480486D01*
X73907750Y-68573000D01*
X74022000Y-68563398D01*
X74136250Y-68573000D01*
X74228764Y-68480486D01*
X74254161Y-68466746D01*
X74350451Y-68386908D01*
X74429316Y-68289818D01*
X74487724Y-68179208D01*
X74523430Y-68059329D01*
X74535064Y-67934787D01*
X74532000Y-67473750D01*
X74373250Y-67315000D01*
X73670750Y-67315000D01*
X73512000Y-67473750D01*
X73508936Y-67934787D01*
X73495000Y-67934787D01*
X73495000Y-67315000D01*
X73475000Y-67315000D01*
X73475000Y-67061000D01*
X73495000Y-67061000D01*
X73495000Y-66441213D01*
X73508936Y-66441213D01*
X73512000Y-66902250D01*
X73670750Y-67061000D01*
X74373250Y-67061000D01*
X74532000Y-66902250D01*
X74535064Y-66441213D01*
X74523430Y-66316671D01*
X74487724Y-66196792D01*
X74429316Y-66086182D01*
X74350451Y-65989092D01*
X74317475Y-65961750D01*
X74549000Y-65961750D01*
X74549000Y-67061000D01*
X74569000Y-67061000D01*
X74569000Y-67315000D01*
X74549000Y-67315000D01*
X74549000Y-68414250D01*
X74707750Y-68573000D01*
X74824631Y-68563177D01*
X74944145Y-68526265D01*
X75054161Y-68466746D01*
X75150451Y-68386908D01*
X75229316Y-68289818D01*
X75280321Y-68193228D01*
X75497000Y-68193228D01*
X75546793Y-68188324D01*
X75594672Y-68173800D01*
X75622000Y-68159192D01*
X75649328Y-68173800D01*
X75697207Y-68188324D01*
X75747000Y-68193228D01*
X76297000Y-68193228D01*
X76346793Y-68188324D01*
X76394672Y-68173800D01*
X76422000Y-68159192D01*
X76449328Y-68173800D01*
X76497207Y-68188324D01*
X76547000Y-68193228D01*
X77097000Y-68193228D01*
X77146793Y-68188324D01*
X77194672Y-68173800D01*
X77222000Y-68159192D01*
X77249328Y-68173800D01*
X77297207Y-68188324D01*
X77347000Y-68193228D01*
X77897000Y-68193228D01*
X77946793Y-68188324D01*
X77994672Y-68173800D01*
X78022000Y-68159192D01*
X78049328Y-68173800D01*
X78097207Y-68188324D01*
X78147000Y-68193228D01*
X78697000Y-68193228D01*
X78746793Y-68188324D01*
X78794672Y-68173800D01*
X78822000Y-68159192D01*
X78849328Y-68173800D01*
X78897207Y-68188324D01*
X78947000Y-68193228D01*
X79497000Y-68193228D01*
X79546793Y-68188324D01*
X79594672Y-68173800D01*
X79622000Y-68159192D01*
X79649328Y-68173800D01*
X79697207Y-68188324D01*
X79747000Y-68193228D01*
X80297000Y-68193228D01*
X80346793Y-68188324D01*
X80394672Y-68173800D01*
X80438797Y-68150214D01*
X80477473Y-68118473D01*
X80509214Y-68079797D01*
X80532800Y-68035672D01*
X80547324Y-67987793D01*
X80552228Y-67938000D01*
X80552228Y-66438000D01*
X80547324Y-66388207D01*
X80532800Y-66340328D01*
X80509214Y-66296203D01*
X80486703Y-66268773D01*
X80490949Y-66262418D01*
X80532711Y-66161596D01*
X80554000Y-66054564D01*
X80554000Y-65945436D01*
X80532711Y-65838404D01*
X80490949Y-65737582D01*
X80430320Y-65646845D01*
X80353155Y-65569680D01*
X80262418Y-65509051D01*
X80161596Y-65467289D01*
X80054564Y-65446000D01*
X79945436Y-65446000D01*
X79838404Y-65467289D01*
X79737582Y-65509051D01*
X79646845Y-65569680D01*
X79600000Y-65616525D01*
X79553155Y-65569680D01*
X79462418Y-65509051D01*
X79361596Y-65467289D01*
X79254564Y-65446000D01*
X79145436Y-65446000D01*
X79038404Y-65467289D01*
X78937582Y-65509051D01*
X78846845Y-65569680D01*
X78800000Y-65616525D01*
X78753155Y-65569680D01*
X78662418Y-65509051D01*
X78561596Y-65467289D01*
X78454564Y-65446000D01*
X78345436Y-65446000D01*
X78238404Y-65467289D01*
X78137582Y-65509051D01*
X78046845Y-65569680D01*
X78000000Y-65616525D01*
X77953155Y-65569680D01*
X77862418Y-65509051D01*
X77761596Y-65467289D01*
X77654564Y-65446000D01*
X77545436Y-65446000D01*
X77438404Y-65467289D01*
X77337582Y-65509051D01*
X77246845Y-65569680D01*
X77200000Y-65616525D01*
X77153155Y-65569680D01*
X77062418Y-65509051D01*
X76961596Y-65467289D01*
X76854564Y-65446000D01*
X76745436Y-65446000D01*
X76638404Y-65467289D01*
X76537582Y-65509051D01*
X76446845Y-65569680D01*
X76400000Y-65616525D01*
X76353155Y-65569680D01*
X76262418Y-65509051D01*
X76161596Y-65467289D01*
X76054564Y-65446000D01*
X75945436Y-65446000D01*
X75838404Y-65467289D01*
X75737582Y-65509051D01*
X75646845Y-65569680D01*
X75600000Y-65616525D01*
X75553155Y-65569680D01*
X75462418Y-65509051D01*
X75361596Y-65467289D01*
X75254564Y-65446000D01*
X75145436Y-65446000D01*
X75038404Y-65467289D01*
X74937582Y-65509051D01*
X74846845Y-65569680D01*
X74769680Y-65646845D01*
X74709051Y-65737582D01*
X74667289Y-65838404D01*
X74666033Y-65844717D01*
X74549000Y-65961750D01*
X74317475Y-65961750D01*
X74254161Y-65909254D01*
X74228764Y-65895514D01*
X74136250Y-65803000D01*
X74022000Y-65812602D01*
X73907750Y-65803000D01*
X73815236Y-65895514D01*
X73789839Y-65909254D01*
X73693549Y-65989092D01*
X73614684Y-66086182D01*
X73556276Y-66196792D01*
X73520570Y-66316671D01*
X73508936Y-66441213D01*
X73495000Y-66441213D01*
X73495000Y-65961750D01*
X73336250Y-65803000D01*
X73318659Y-65804478D01*
X73290949Y-65737582D01*
X73230320Y-65646845D01*
X73153155Y-65569680D01*
X73062418Y-65509051D01*
X72961596Y-65467289D01*
X72854564Y-65446000D01*
X72745436Y-65446000D01*
X72638404Y-65467289D01*
X72537582Y-65509051D01*
X72446845Y-65569680D01*
X72400000Y-65616525D01*
X72353155Y-65569680D01*
X72262418Y-65509051D01*
X72161596Y-65467289D01*
X72054564Y-65446000D01*
X71945436Y-65446000D01*
X71838404Y-65467289D01*
X71737582Y-65509051D01*
X71646845Y-65569680D01*
X71600000Y-65616525D01*
X71553155Y-65569680D01*
X71462418Y-65509051D01*
X71361596Y-65467289D01*
X71254564Y-65446000D01*
X71145436Y-65446000D01*
X71038404Y-65467289D01*
X70937582Y-65509051D01*
X70846845Y-65569680D01*
X70800000Y-65616525D01*
X70753155Y-65569680D01*
X70662418Y-65509051D01*
X70561596Y-65467289D01*
X70454564Y-65446000D01*
X70345436Y-65446000D01*
X70238404Y-65467289D01*
X70137582Y-65509051D01*
X70046845Y-65569680D01*
X70000000Y-65616525D01*
X69953155Y-65569680D01*
X69862418Y-65509051D01*
X69761596Y-65467289D01*
X69654564Y-65446000D01*
X69545436Y-65446000D01*
X69438404Y-65467289D01*
X69337582Y-65509051D01*
X69246845Y-65569680D01*
X69169680Y-65646845D01*
X69109051Y-65737582D01*
X69067289Y-65838404D01*
X69046000Y-65945436D01*
X69046000Y-66054564D01*
X69067289Y-66161596D01*
X69076060Y-66182772D01*
X68547000Y-66182772D01*
X68497207Y-66187676D01*
X68449328Y-66202200D01*
X68415775Y-66220135D01*
X68383947Y-66217000D01*
X68383944Y-66217000D01*
X68359000Y-66214543D01*
X68334056Y-66217000D01*
X67299943Y-66217000D01*
X67274999Y-66214543D01*
X67250055Y-66217000D01*
X67250053Y-66217000D01*
X67175415Y-66224351D01*
X67079657Y-66253399D01*
X67079655Y-66253400D01*
X66991404Y-66300571D01*
X66942960Y-66340328D01*
X66914052Y-66364052D01*
X66898150Y-66383429D01*
X66323725Y-66957854D01*
X66272799Y-66942406D01*
X66180330Y-66933299D01*
X66087861Y-66942406D01*
X65998946Y-66969378D01*
X65917002Y-67013179D01*
X65845177Y-67072124D01*
X65535818Y-67381483D01*
X65476873Y-67453308D01*
X65433072Y-67535252D01*
X65406100Y-67624167D01*
X65396993Y-67716636D01*
X63249977Y-67716636D01*
X63249452Y-65720436D01*
X63821000Y-65720436D01*
X63821000Y-65829564D01*
X63842289Y-65936596D01*
X63884051Y-66037418D01*
X63944680Y-66128155D01*
X64021845Y-66205320D01*
X64112582Y-66265949D01*
X64213404Y-66307711D01*
X64320436Y-66329000D01*
X64340188Y-66329000D01*
X64671002Y-66659815D01*
X64671002Y-66729564D01*
X64692291Y-66836596D01*
X64734053Y-66937418D01*
X64794682Y-67028155D01*
X64871847Y-67105320D01*
X64962584Y-67165949D01*
X65063406Y-67207711D01*
X65170438Y-67229000D01*
X65279566Y-67229000D01*
X65386598Y-67207711D01*
X65487420Y-67165949D01*
X65578157Y-67105320D01*
X65655322Y-67028155D01*
X65715951Y-66937418D01*
X65757713Y-66836596D01*
X65779002Y-66729564D01*
X65779002Y-66620436D01*
X65757713Y-66513404D01*
X65715951Y-66412582D01*
X65706820Y-66398917D01*
X65788406Y-66432711D01*
X65895438Y-66454000D01*
X66004566Y-66454000D01*
X66111598Y-66432711D01*
X66212420Y-66390949D01*
X66303157Y-66330320D01*
X66380322Y-66253155D01*
X66440951Y-66162418D01*
X66482713Y-66061596D01*
X66504002Y-65954564D01*
X66504002Y-65845436D01*
X66482713Y-65738404D01*
X66440951Y-65637582D01*
X66380322Y-65546845D01*
X66303157Y-65469680D01*
X66212420Y-65409051D01*
X66111598Y-65367289D01*
X66004566Y-65346000D01*
X65934817Y-65346000D01*
X65654000Y-65065184D01*
X65654000Y-64970436D01*
X65632711Y-64863404D01*
X65590949Y-64762582D01*
X65530320Y-64671845D01*
X65453155Y-64594680D01*
X65362418Y-64534051D01*
X65261596Y-64492289D01*
X65154564Y-64471000D01*
X65045436Y-64471000D01*
X64938404Y-64492289D01*
X64837582Y-64534051D01*
X64746845Y-64594680D01*
X64669680Y-64671845D01*
X64609051Y-64762582D01*
X64567289Y-64863404D01*
X64546000Y-64970436D01*
X64546000Y-65079564D01*
X64567289Y-65186596D01*
X64601492Y-65269170D01*
X64536596Y-65242289D01*
X64429564Y-65221000D01*
X64320436Y-65221000D01*
X64213404Y-65242289D01*
X64112582Y-65284051D01*
X64021845Y-65344680D01*
X63944680Y-65421845D01*
X63884051Y-65512582D01*
X63842289Y-65613404D01*
X63821000Y-65720436D01*
X63249452Y-65720436D01*
X63249073Y-64278718D01*
X82530991Y-64259281D01*
X82530084Y-90377010D01*
G36*
X73650548Y-78294058D02*
G01*
X73636405Y-78308200D01*
X73650548Y-78322343D01*
X73470943Y-78501948D01*
X73456800Y-78487805D01*
X72295201Y-79649404D01*
X72183478Y-79649404D01*
X71565290Y-80267593D01*
X71635294Y-80337597D01*
X71455689Y-80517202D01*
X71385685Y-80447198D01*
X70767496Y-81065386D01*
X70767496Y-81289892D01*
X70849623Y-81355550D01*
X70961028Y-81412426D01*
X71081389Y-81446475D01*
X71206079Y-81456388D01*
X71330308Y-81441784D01*
X71425591Y-81410908D01*
X71473205Y-81458522D01*
X71511881Y-81490263D01*
X71556006Y-81513849D01*
X71575034Y-81519621D01*
X71565142Y-81538127D01*
X71543356Y-81609946D01*
X71540684Y-81637080D01*
X71536000Y-81684634D01*
X71537843Y-81703345D01*
X71537844Y-82212523D01*
X71536000Y-82231243D01*
X71543357Y-82305931D01*
X71565142Y-82377750D01*
X71600521Y-82443939D01*
X71627757Y-82477125D01*
X71648133Y-82501954D01*
X71662669Y-82513884D01*
X72005763Y-82856979D01*
X72017689Y-82871511D01*
X72028277Y-82880200D01*
X70109415Y-82880200D01*
X69494402Y-82265188D01*
X69494402Y-82231452D01*
X69653150Y-82390200D01*
X69687400Y-82393272D01*
X69811882Y-82381012D01*
X69931580Y-82344702D01*
X70041894Y-82285737D01*
X70138585Y-82206385D01*
X70217937Y-82109694D01*
X70276902Y-81999380D01*
X70313212Y-81879682D01*
X70325472Y-81755200D01*
X70322400Y-81745950D01*
X70163650Y-81587200D01*
X69494400Y-81587200D01*
X69494400Y-81607200D01*
X69240400Y-81607200D01*
X69240400Y-81587200D01*
X69220400Y-81587200D01*
X69220400Y-81333200D01*
X69240400Y-81333200D01*
X69240400Y-81313200D01*
X69494400Y-81313200D01*
X69494400Y-81333200D01*
X70163650Y-81333200D01*
X70322400Y-81174450D01*
X70325472Y-81165200D01*
X70313212Y-81040718D01*
X70276902Y-80921020D01*
X70250272Y-80871200D01*
X70336851Y-80871200D01*
X70355561Y-80873043D01*
X70374271Y-80871200D01*
X70374274Y-80871200D01*
X70386292Y-80870016D01*
X70409450Y-80915377D01*
X70475108Y-80997504D01*
X70699614Y-80997504D01*
X71317802Y-80379315D01*
X71247799Y-80309312D01*
X71427404Y-80129707D01*
X71497407Y-80199710D01*
X72115596Y-79581522D01*
X72115596Y-79469799D01*
X73277195Y-78308200D01*
X73263053Y-78294058D01*
X73442658Y-78114453D01*
X73456800Y-78128595D01*
X73470943Y-78114453D01*
X73650548Y-78294058D01*
G37*
X73650548Y-78294058D02*
X73636405Y-78308200D01*
X73650548Y-78322343D01*
X73470943Y-78501948D01*
X73456800Y-78487805D01*
X72295201Y-79649404D01*
X72183478Y-79649404D01*
X71565290Y-80267593D01*
X71635294Y-80337597D01*
X71455689Y-80517202D01*
X71385685Y-80447198D01*
X70767496Y-81065386D01*
X70767496Y-81289892D01*
X70849623Y-81355550D01*
X70961028Y-81412426D01*
X71081389Y-81446475D01*
X71206079Y-81456388D01*
X71330308Y-81441784D01*
X71425591Y-81410908D01*
X71473205Y-81458522D01*
X71511881Y-81490263D01*
X71556006Y-81513849D01*
X71575034Y-81519621D01*
X71565142Y-81538127D01*
X71543356Y-81609946D01*
X71540684Y-81637080D01*
X71536000Y-81684634D01*
X71537843Y-81703345D01*
X71537844Y-82212523D01*
X71536000Y-82231243D01*
X71543357Y-82305931D01*
X71565142Y-82377750D01*
X71600521Y-82443939D01*
X71627757Y-82477125D01*
X71648133Y-82501954D01*
X71662669Y-82513884D01*
X72005763Y-82856979D01*
X72017689Y-82871511D01*
X72028277Y-82880200D01*
X70109415Y-82880200D01*
X69494402Y-82265188D01*
X69494402Y-82231452D01*
X69653150Y-82390200D01*
X69687400Y-82393272D01*
X69811882Y-82381012D01*
X69931580Y-82344702D01*
X70041894Y-82285737D01*
X70138585Y-82206385D01*
X70217937Y-82109694D01*
X70276902Y-81999380D01*
X70313212Y-81879682D01*
X70325472Y-81755200D01*
X70322400Y-81745950D01*
X70163650Y-81587200D01*
X69494400Y-81587200D01*
X69494400Y-81607200D01*
X69240400Y-81607200D01*
X69240400Y-81587200D01*
X69220400Y-81587200D01*
X69220400Y-81333200D01*
X69240400Y-81333200D01*
X69240400Y-81313200D01*
X69494400Y-81313200D01*
X69494400Y-81333200D01*
X70163650Y-81333200D01*
X70322400Y-81174450D01*
X70325472Y-81165200D01*
X70313212Y-81040718D01*
X70276902Y-80921020D01*
X70250272Y-80871200D01*
X70336851Y-80871200D01*
X70355561Y-80873043D01*
X70374271Y-80871200D01*
X70374274Y-80871200D01*
X70386292Y-80870016D01*
X70409450Y-80915377D01*
X70475108Y-80997504D01*
X70699614Y-80997504D01*
X71317802Y-80379315D01*
X71247799Y-80309312D01*
X71427404Y-80129707D01*
X71497407Y-80199710D01*
X72115596Y-79581522D01*
X72115596Y-79469799D01*
X73277195Y-78308200D01*
X73263053Y-78294058D01*
X73442658Y-78114453D01*
X73456800Y-78128595D01*
X73470943Y-78114453D01*
X73650548Y-78294058D01*
G36*
X73003498Y-81727109D02*
G01*
X72834547Y-81896061D01*
X72764543Y-81826057D01*
X72750400Y-81840199D01*
X72682518Y-81772317D01*
X72696660Y-81758174D01*
X72626657Y-81688171D01*
X72795960Y-81518867D01*
X73003498Y-81727109D01*
G37*
X73003498Y-81727109D02*
X72834547Y-81896061D01*
X72764543Y-81826057D01*
X72750400Y-81840199D01*
X72682518Y-81772317D01*
X72696660Y-81758174D01*
X72626657Y-81688171D01*
X72795960Y-81518867D01*
X73003498Y-81727109D01*
G36*
X76949000Y-70861000D02*
G01*
X76969000Y-70861000D01*
X76969000Y-71115000D01*
X76949000Y-71115000D01*
X76949000Y-72214250D01*
X77069037Y-72334287D01*
X77067331Y-72338404D01*
X77046042Y-72445436D01*
X77046042Y-72554564D01*
X77067331Y-72661596D01*
X77109093Y-72762418D01*
X77169722Y-72853155D01*
X77246887Y-72930320D01*
X77337624Y-72990949D01*
X77438446Y-73032711D01*
X77527379Y-73050400D01*
X77031502Y-73050400D01*
X77012799Y-73048558D01*
X76994096Y-73050400D01*
X76994087Y-73050400D01*
X76938111Y-73055913D01*
X76866292Y-73077699D01*
X76825774Y-73099357D01*
X76800103Y-73113078D01*
X76790135Y-73121258D01*
X76768984Y-73114842D01*
X76690416Y-73107104D01*
X76611848Y-73114842D01*
X76536299Y-73137760D01*
X76466672Y-73174976D01*
X76405644Y-73225060D01*
X76309395Y-73321309D01*
X76306214Y-73305318D01*
X76264452Y-73204496D01*
X76203823Y-73113759D01*
X76126658Y-73036594D01*
X76035921Y-72975965D01*
X75935099Y-72934203D01*
X75828067Y-72912914D01*
X75718939Y-72912914D01*
X75611907Y-72934203D01*
X75536148Y-72965583D01*
X75541110Y-72915203D01*
X75541110Y-72915201D01*
X75542953Y-72896491D01*
X75541110Y-72877781D01*
X75541110Y-72666114D01*
X75605771Y-72709319D01*
X75706593Y-72751081D01*
X75813625Y-72772370D01*
X75922753Y-72772370D01*
X76029785Y-72751081D01*
X76130607Y-72709319D01*
X76221344Y-72648690D01*
X76298509Y-72571525D01*
X76359138Y-72480788D01*
X76400900Y-72379966D01*
X76405115Y-72358775D01*
X76419369Y-72363177D01*
X76536250Y-72373000D01*
X76695000Y-72214250D01*
X76695000Y-71115000D01*
X76675000Y-71115000D01*
X76675000Y-70861000D01*
X76695000Y-70861000D01*
X76695000Y-70841000D01*
X76949000Y-70841000D01*
X76949000Y-70861000D01*
G37*
X76949000Y-70861000D02*
X76969000Y-70861000D01*
X76969000Y-71115000D01*
X76949000Y-71115000D01*
X76949000Y-72214250D01*
X77069037Y-72334287D01*
X77067331Y-72338404D01*
X77046042Y-72445436D01*
X77046042Y-72554564D01*
X77067331Y-72661596D01*
X77109093Y-72762418D01*
X77169722Y-72853155D01*
X77246887Y-72930320D01*
X77337624Y-72990949D01*
X77438446Y-73032711D01*
X77527379Y-73050400D01*
X77031502Y-73050400D01*
X77012799Y-73048558D01*
X76994096Y-73050400D01*
X76994087Y-73050400D01*
X76938111Y-73055913D01*
X76866292Y-73077699D01*
X76825774Y-73099357D01*
X76800103Y-73113078D01*
X76790135Y-73121258D01*
X76768984Y-73114842D01*
X76690416Y-73107104D01*
X76611848Y-73114842D01*
X76536299Y-73137760D01*
X76466672Y-73174976D01*
X76405644Y-73225060D01*
X76309395Y-73321309D01*
X76306214Y-73305318D01*
X76264452Y-73204496D01*
X76203823Y-73113759D01*
X76126658Y-73036594D01*
X76035921Y-72975965D01*
X75935099Y-72934203D01*
X75828067Y-72912914D01*
X75718939Y-72912914D01*
X75611907Y-72934203D01*
X75536148Y-72965583D01*
X75541110Y-72915203D01*
X75541110Y-72915201D01*
X75542953Y-72896491D01*
X75541110Y-72877781D01*
X75541110Y-72666114D01*
X75605771Y-72709319D01*
X75706593Y-72751081D01*
X75813625Y-72772370D01*
X75922753Y-72772370D01*
X76029785Y-72751081D01*
X76130607Y-72709319D01*
X76221344Y-72648690D01*
X76298509Y-72571525D01*
X76359138Y-72480788D01*
X76400900Y-72379966D01*
X76405115Y-72358775D01*
X76419369Y-72363177D01*
X76536250Y-72373000D01*
X76695000Y-72214250D01*
X76695000Y-71115000D01*
X76675000Y-71115000D01*
X76675000Y-70861000D01*
X76695000Y-70861000D01*
X76695000Y-70841000D01*
X76949000Y-70841000D01*
X76949000Y-70861000D01*
M02*
