G04 #@! TF.GenerationSoftware,KiCad,Pcbnew,(5.1.2)-2*
G04 #@! TF.CreationDate,2020-03-09T10:25:21+01:00*
G04 #@! TF.ProjectId,ACM-pcb,41434d2d-7063-4622-9e6b-696361645f70,rev?*
G04 #@! TF.SameCoordinates,Original*
G04 #@! TF.FileFunction,Soldermask,Bot*
G04 #@! TF.FilePolarity,Negative*
%FSLAX46Y46*%
G04 Gerber Fmt 4.6, Leading zero omitted, Abs format (unit mm)*
G04 Created by KiCad (PCBNEW (5.1.2)-2) date 2020-03-09 10:25:21*
%MOMM*%
%LPD*%
G04 APERTURE LIST*
%ADD10C,0.100000*%
G04 APERTURE END LIST*
D10*
G36*
X66224549Y-87871116D02*
G01*
X66335734Y-87893232D01*
X66545203Y-87979997D01*
X66733720Y-88105960D01*
X66894040Y-88266280D01*
X67020003Y-88454797D01*
X67106768Y-88664266D01*
X67121429Y-88737971D01*
X67142846Y-88845640D01*
X67151000Y-88886636D01*
X67151000Y-89113364D01*
X67106768Y-89335734D01*
X67020003Y-89545203D01*
X66894040Y-89733720D01*
X66733720Y-89894040D01*
X66545203Y-90020003D01*
X66335734Y-90106768D01*
X66224549Y-90128884D01*
X66113365Y-90151000D01*
X65886635Y-90151000D01*
X65775451Y-90128884D01*
X65664266Y-90106768D01*
X65454797Y-90020003D01*
X65266280Y-89894040D01*
X65105960Y-89733720D01*
X64979997Y-89545203D01*
X64893232Y-89335734D01*
X64849000Y-89113364D01*
X64849000Y-88886636D01*
X64857155Y-88845640D01*
X64878571Y-88737971D01*
X64893232Y-88664266D01*
X64979997Y-88454797D01*
X65105960Y-88266280D01*
X65266280Y-88105960D01*
X65454797Y-87979997D01*
X65664266Y-87893232D01*
X65775451Y-87871116D01*
X65886635Y-87849000D01*
X66113365Y-87849000D01*
X66224549Y-87871116D01*
X66224549Y-87871116D01*
G37*
G36*
X77551000Y-89501000D02*
G01*
X76849000Y-89501000D01*
X76849000Y-88699000D01*
X77551000Y-88699000D01*
X77551000Y-89501000D01*
X77551000Y-89501000D01*
G37*
G36*
X76151000Y-89501000D02*
G01*
X75449000Y-89501000D01*
X75449000Y-88699000D01*
X76151000Y-88699000D01*
X76151000Y-89501000D01*
X76151000Y-89501000D01*
G37*
G36*
X73819938Y-88731716D02*
G01*
X73840557Y-88737971D01*
X73859553Y-88748124D01*
X73876208Y-88761792D01*
X73889876Y-88778447D01*
X73900029Y-88797443D01*
X73906284Y-88818062D01*
X73909000Y-88845640D01*
X73909000Y-89354360D01*
X73906284Y-89381938D01*
X73900029Y-89402557D01*
X73889876Y-89421553D01*
X73876208Y-89438208D01*
X73859553Y-89451876D01*
X73840557Y-89462029D01*
X73819938Y-89468284D01*
X73792360Y-89471000D01*
X73333640Y-89471000D01*
X73306062Y-89468284D01*
X73285443Y-89462029D01*
X73266447Y-89451876D01*
X73249792Y-89438208D01*
X73236124Y-89421553D01*
X73225971Y-89402557D01*
X73219716Y-89381938D01*
X73217000Y-89354360D01*
X73217000Y-88845640D01*
X73219716Y-88818062D01*
X73225971Y-88797443D01*
X73236124Y-88778447D01*
X73249792Y-88761792D01*
X73266447Y-88748124D01*
X73285443Y-88737971D01*
X73306062Y-88731716D01*
X73333640Y-88729000D01*
X73792360Y-88729000D01*
X73819938Y-88731716D01*
X73819938Y-88731716D01*
G37*
G36*
X74789938Y-88731716D02*
G01*
X74810557Y-88737971D01*
X74829553Y-88748124D01*
X74846208Y-88761792D01*
X74859876Y-88778447D01*
X74870029Y-88797443D01*
X74876284Y-88818062D01*
X74879000Y-88845640D01*
X74879000Y-89354360D01*
X74876284Y-89381938D01*
X74870029Y-89402557D01*
X74859876Y-89421553D01*
X74846208Y-89438208D01*
X74829553Y-89451876D01*
X74810557Y-89462029D01*
X74789938Y-89468284D01*
X74762360Y-89471000D01*
X74303640Y-89471000D01*
X74276062Y-89468284D01*
X74255443Y-89462029D01*
X74236447Y-89451876D01*
X74219792Y-89438208D01*
X74206124Y-89421553D01*
X74195971Y-89402557D01*
X74189716Y-89381938D01*
X74187000Y-89354360D01*
X74187000Y-88845640D01*
X74189716Y-88818062D01*
X74195971Y-88797443D01*
X74206124Y-88778447D01*
X74219792Y-88761792D01*
X74236447Y-88748124D01*
X74255443Y-88737971D01*
X74276062Y-88731716D01*
X74303640Y-88729000D01*
X74762360Y-88729000D01*
X74789938Y-88731716D01*
X74789938Y-88731716D01*
G37*
G36*
X75581000Y-88001000D02*
G01*
X74579000Y-88001000D01*
X74579000Y-87099000D01*
X75581000Y-87099000D01*
X75581000Y-88001000D01*
X75581000Y-88001000D01*
G37*
G36*
X73941000Y-87625000D02*
G01*
X73139000Y-87625000D01*
X73139000Y-86923000D01*
X73941000Y-86923000D01*
X73941000Y-87625000D01*
X73941000Y-87625000D01*
G37*
G36*
X78999591Y-86140585D02*
G01*
X79033569Y-86150893D01*
X79064890Y-86167634D01*
X79092339Y-86190161D01*
X79114866Y-86217610D01*
X79131607Y-86248931D01*
X79141915Y-86282909D01*
X79146000Y-86324390D01*
X79146000Y-86925610D01*
X79141915Y-86967091D01*
X79131607Y-87001069D01*
X79114866Y-87032390D01*
X79092339Y-87059839D01*
X79064890Y-87082366D01*
X79033569Y-87099107D01*
X78999591Y-87109415D01*
X78958110Y-87113500D01*
X78281890Y-87113500D01*
X78240409Y-87109415D01*
X78206431Y-87099107D01*
X78175110Y-87082366D01*
X78147661Y-87059839D01*
X78125134Y-87032390D01*
X78108393Y-87001069D01*
X78098085Y-86967091D01*
X78094000Y-86925610D01*
X78094000Y-86324390D01*
X78098085Y-86282909D01*
X78108393Y-86248931D01*
X78125134Y-86217610D01*
X78147661Y-86190161D01*
X78175110Y-86167634D01*
X78206431Y-86150893D01*
X78240409Y-86140585D01*
X78281890Y-86136500D01*
X78958110Y-86136500D01*
X78999591Y-86140585D01*
X78999591Y-86140585D01*
G37*
G36*
X77581000Y-87051000D02*
G01*
X76579000Y-87051000D01*
X76579000Y-86149000D01*
X77581000Y-86149000D01*
X77581000Y-87051000D01*
X77581000Y-87051000D01*
G37*
G36*
X73941000Y-86225000D02*
G01*
X73139000Y-86225000D01*
X73139000Y-85523000D01*
X73941000Y-85523000D01*
X73941000Y-86225000D01*
X73941000Y-86225000D01*
G37*
G36*
X68526578Y-85100197D02*
G01*
X68579350Y-85110694D01*
X68678770Y-85151875D01*
X68768246Y-85211661D01*
X68844339Y-85287754D01*
X68904125Y-85377230D01*
X68945306Y-85476650D01*
X68966300Y-85582194D01*
X68966300Y-85689806D01*
X68945306Y-85795350D01*
X68904125Y-85894770D01*
X68844339Y-85984246D01*
X68768246Y-86060339D01*
X68678770Y-86120125D01*
X68579350Y-86161306D01*
X68547537Y-86167634D01*
X68473807Y-86182300D01*
X68366193Y-86182300D01*
X68292463Y-86167634D01*
X68260650Y-86161306D01*
X68161230Y-86120125D01*
X68071754Y-86060339D01*
X67995661Y-85984246D01*
X67935875Y-85894770D01*
X67894694Y-85795350D01*
X67873700Y-85689806D01*
X67873700Y-85582194D01*
X67894694Y-85476650D01*
X67935875Y-85377230D01*
X67995661Y-85287754D01*
X68071754Y-85211661D01*
X68161230Y-85151875D01*
X68260650Y-85110694D01*
X68313422Y-85100197D01*
X68366193Y-85089700D01*
X68473807Y-85089700D01*
X68526578Y-85100197D01*
X68526578Y-85100197D01*
G37*
G36*
X75581000Y-86101000D02*
G01*
X74579000Y-86101000D01*
X74579000Y-85199000D01*
X75581000Y-85199000D01*
X75581000Y-86101000D01*
X75581000Y-86101000D01*
G37*
G36*
X78999591Y-84565585D02*
G01*
X79033569Y-84575893D01*
X79064890Y-84592634D01*
X79092339Y-84615161D01*
X79114866Y-84642610D01*
X79131607Y-84673931D01*
X79141915Y-84707909D01*
X79146000Y-84749390D01*
X79146000Y-85350610D01*
X79141915Y-85392091D01*
X79131607Y-85426069D01*
X79114866Y-85457390D01*
X79092339Y-85484839D01*
X79064890Y-85507366D01*
X79033569Y-85524107D01*
X78999591Y-85534415D01*
X78958110Y-85538500D01*
X78281890Y-85538500D01*
X78240409Y-85534415D01*
X78206431Y-85524107D01*
X78175110Y-85507366D01*
X78147661Y-85484839D01*
X78125134Y-85457390D01*
X78108393Y-85426069D01*
X78098085Y-85392091D01*
X78094000Y-85350610D01*
X78094000Y-84749390D01*
X78098085Y-84707909D01*
X78108393Y-84673931D01*
X78125134Y-84642610D01*
X78147661Y-84615161D01*
X78175110Y-84592634D01*
X78206431Y-84575893D01*
X78240409Y-84565585D01*
X78281890Y-84561500D01*
X78958110Y-84561500D01*
X78999591Y-84565585D01*
X78999591Y-84565585D01*
G37*
G36*
X73606578Y-84084197D02*
G01*
X73659350Y-84094694D01*
X73758770Y-84135875D01*
X73848246Y-84195661D01*
X73924339Y-84271754D01*
X73984125Y-84361230D01*
X74025306Y-84460650D01*
X74025306Y-84460651D01*
X74046300Y-84566193D01*
X74046300Y-84673807D01*
X74038647Y-84712280D01*
X74025306Y-84779350D01*
X73984125Y-84878770D01*
X73924339Y-84968246D01*
X73848246Y-85044339D01*
X73758770Y-85104125D01*
X73659350Y-85145306D01*
X73626325Y-85151875D01*
X73553807Y-85166300D01*
X73446193Y-85166300D01*
X73373675Y-85151875D01*
X73340650Y-85145306D01*
X73241230Y-85104125D01*
X73151754Y-85044339D01*
X73075661Y-84968246D01*
X73015875Y-84878770D01*
X72974694Y-84779350D01*
X72961353Y-84712280D01*
X72953700Y-84673807D01*
X72953700Y-84566193D01*
X72974694Y-84460651D01*
X72974694Y-84460650D01*
X73015875Y-84361230D01*
X73075661Y-84271754D01*
X73151754Y-84195661D01*
X73241230Y-84135875D01*
X73340650Y-84094694D01*
X73393422Y-84084197D01*
X73446193Y-84073700D01*
X73553807Y-84073700D01*
X73606578Y-84084197D01*
X73606578Y-84084197D01*
G37*
G36*
X68526578Y-83068197D02*
G01*
X68579350Y-83078694D01*
X68678770Y-83119875D01*
X68768246Y-83179661D01*
X68844339Y-83255754D01*
X68904125Y-83345230D01*
X68945306Y-83444650D01*
X68966300Y-83550194D01*
X68966300Y-83657806D01*
X68945306Y-83763350D01*
X68904125Y-83862770D01*
X68844339Y-83952246D01*
X68768246Y-84028339D01*
X68678770Y-84088125D01*
X68579350Y-84129306D01*
X68546325Y-84135875D01*
X68473807Y-84150300D01*
X68366193Y-84150300D01*
X68293675Y-84135875D01*
X68260650Y-84129306D01*
X68161230Y-84088125D01*
X68071754Y-84028339D01*
X67995661Y-83952246D01*
X67935875Y-83862770D01*
X67894694Y-83763350D01*
X67873700Y-83657806D01*
X67873700Y-83550194D01*
X67894694Y-83444650D01*
X67935875Y-83345230D01*
X67995661Y-83255754D01*
X68071754Y-83179661D01*
X68161230Y-83119875D01*
X68260650Y-83078694D01*
X68313422Y-83068197D01*
X68366193Y-83057700D01*
X68473807Y-83057700D01*
X68526578Y-83068197D01*
X68526578Y-83068197D01*
G37*
G36*
X74660296Y-74666600D02*
G01*
X74660296Y-74666601D01*
X74800303Y-74806608D01*
X74800303Y-74806607D01*
X75119916Y-75126220D01*
X75119916Y-75126221D01*
X75259922Y-75266227D01*
X75259922Y-75266226D01*
X75579535Y-75585839D01*
X75579535Y-75585840D01*
X75667917Y-75674222D01*
X75667922Y-75674228D01*
X75719541Y-75725847D01*
X75719541Y-75725846D01*
X76039154Y-76045459D01*
X76039154Y-76045460D01*
X76090773Y-76097079D01*
X76090779Y-76097084D01*
X76179161Y-76185466D01*
X76179161Y-76185465D01*
X76498774Y-76505078D01*
X76498774Y-76505079D01*
X76638780Y-76645085D01*
X76638780Y-76645084D01*
X76958393Y-76964697D01*
X76958393Y-76964698D01*
X77098400Y-77104705D01*
X77098400Y-77104704D01*
X77418013Y-77424317D01*
X76622512Y-78219818D01*
X76606972Y-78238754D01*
X76595421Y-78260365D01*
X76588308Y-78283814D01*
X76585906Y-78308200D01*
X76588308Y-78332586D01*
X76595421Y-78356035D01*
X76606972Y-78377646D01*
X76622512Y-78396582D01*
X77418013Y-79192083D01*
X76179161Y-80430935D01*
X76039154Y-80570941D01*
X75719541Y-80890554D01*
X75579535Y-81030561D01*
X74340683Y-82269413D01*
X73545182Y-81473912D01*
X73526246Y-81458372D01*
X73504635Y-81446821D01*
X73481186Y-81439708D01*
X73456800Y-81437306D01*
X73432414Y-81439708D01*
X73408965Y-81446821D01*
X73387354Y-81458372D01*
X73368418Y-81473912D01*
X72572917Y-82269413D01*
X72253304Y-81949800D01*
X72253305Y-81949800D01*
X72113298Y-81809793D01*
X72113297Y-81809793D01*
X71793684Y-81490180D01*
X71793685Y-81490180D01*
X71653679Y-81350174D01*
X71653678Y-81350174D01*
X71334065Y-81030561D01*
X71334066Y-81030561D01*
X71245684Y-80942179D01*
X71245679Y-80942173D01*
X71194060Y-80890554D01*
X71194059Y-80890554D01*
X70874446Y-80570941D01*
X70874447Y-80570941D01*
X70822828Y-80519322D01*
X70822822Y-80519317D01*
X70734440Y-80430935D01*
X70734439Y-80430935D01*
X70414826Y-80111322D01*
X70414827Y-80111322D01*
X70274821Y-79971316D01*
X70274820Y-79971316D01*
X69955207Y-79651703D01*
X69955208Y-79651703D01*
X69815201Y-79511696D01*
X69815200Y-79511696D01*
X69495587Y-79192083D01*
X70291088Y-78396582D01*
X70306628Y-78377646D01*
X70318179Y-78356035D01*
X70325292Y-78332586D01*
X70327694Y-78308200D01*
X70325292Y-78283814D01*
X70318179Y-78260365D01*
X70306628Y-78238754D01*
X70291088Y-78219818D01*
X69495587Y-77424317D01*
X69815200Y-77104704D01*
X69815201Y-77104705D01*
X69955208Y-76964698D01*
X69955207Y-76964697D01*
X70274820Y-76645084D01*
X70274821Y-76645085D01*
X70414827Y-76505079D01*
X70414826Y-76505078D01*
X70734439Y-76185465D01*
X70734440Y-76185466D01*
X70822817Y-76097088D01*
X70822828Y-76097079D01*
X70874447Y-76045460D01*
X70874446Y-76045459D01*
X71194059Y-75725846D01*
X71194060Y-75725847D01*
X71245679Y-75674228D01*
X71245688Y-75674217D01*
X71334066Y-75585840D01*
X71334065Y-75585839D01*
X71653678Y-75266226D01*
X71653679Y-75266227D01*
X71793685Y-75126221D01*
X71793684Y-75126220D01*
X72113297Y-74806607D01*
X72113298Y-74806608D01*
X72253305Y-74666601D01*
X72253304Y-74666600D01*
X72572917Y-74346987D01*
X73368418Y-75142488D01*
X73387354Y-75158028D01*
X73408965Y-75169579D01*
X73432414Y-75176692D01*
X73456800Y-75179094D01*
X73481186Y-75176692D01*
X73504635Y-75169579D01*
X73526246Y-75158028D01*
X73545182Y-75142488D01*
X74340683Y-74346987D01*
X74660296Y-74666600D01*
X74660296Y-74666600D01*
G37*
G36*
X69649338Y-81116916D02*
G01*
X69669957Y-81123171D01*
X69688953Y-81133324D01*
X69705608Y-81146992D01*
X69719276Y-81163647D01*
X69729429Y-81182643D01*
X69735684Y-81203262D01*
X69738400Y-81230840D01*
X69738400Y-81689560D01*
X69735684Y-81717138D01*
X69729429Y-81737757D01*
X69719276Y-81756753D01*
X69705608Y-81773408D01*
X69688953Y-81787076D01*
X69669957Y-81797229D01*
X69649338Y-81803484D01*
X69621760Y-81806200D01*
X69113040Y-81806200D01*
X69085462Y-81803484D01*
X69064843Y-81797229D01*
X69045847Y-81787076D01*
X69029192Y-81773408D01*
X69015524Y-81756753D01*
X69005371Y-81737757D01*
X68999116Y-81717138D01*
X68996400Y-81689560D01*
X68996400Y-81230840D01*
X68999116Y-81203262D01*
X69005371Y-81182643D01*
X69015524Y-81163647D01*
X69029192Y-81146992D01*
X69045847Y-81133324D01*
X69064843Y-81123171D01*
X69085462Y-81116916D01*
X69113040Y-81114200D01*
X69621760Y-81114200D01*
X69649338Y-81116916D01*
X69649338Y-81116916D01*
G37*
G36*
X69649338Y-80146916D02*
G01*
X69669957Y-80153171D01*
X69688953Y-80163324D01*
X69705608Y-80176992D01*
X69719276Y-80193647D01*
X69729429Y-80212643D01*
X69735684Y-80233262D01*
X69738400Y-80260840D01*
X69738400Y-80719560D01*
X69735684Y-80747138D01*
X69729429Y-80767757D01*
X69719276Y-80786753D01*
X69705608Y-80803408D01*
X69688953Y-80817076D01*
X69669957Y-80827229D01*
X69649338Y-80833484D01*
X69621760Y-80836200D01*
X69113040Y-80836200D01*
X69085462Y-80833484D01*
X69064843Y-80827229D01*
X69045847Y-80817076D01*
X69029192Y-80803408D01*
X69015524Y-80786753D01*
X69005371Y-80767757D01*
X68999116Y-80747138D01*
X68996400Y-80719560D01*
X68996400Y-80260840D01*
X68999116Y-80233262D01*
X69005371Y-80212643D01*
X69015524Y-80193647D01*
X69029192Y-80176992D01*
X69045847Y-80163324D01*
X69064843Y-80153171D01*
X69085462Y-80146916D01*
X69113040Y-80144200D01*
X69621760Y-80144200D01*
X69649338Y-80146916D01*
X69649338Y-80146916D01*
G37*
G36*
X77041960Y-74750891D02*
G01*
X77062579Y-74757146D01*
X77081575Y-74767299D01*
X77102996Y-74784879D01*
X77462721Y-75144604D01*
X77480301Y-75166025D01*
X77490454Y-75185021D01*
X77496709Y-75205640D01*
X77498820Y-75227078D01*
X77496709Y-75248516D01*
X77490454Y-75269135D01*
X77480301Y-75288131D01*
X77462721Y-75309552D01*
X77138352Y-75633921D01*
X77116931Y-75651501D01*
X77097935Y-75661654D01*
X77077316Y-75667909D01*
X77055878Y-75670020D01*
X77034440Y-75667909D01*
X77013821Y-75661654D01*
X76994825Y-75651501D01*
X76973404Y-75633921D01*
X76613679Y-75274196D01*
X76596099Y-75252775D01*
X76585946Y-75233779D01*
X76579691Y-75213160D01*
X76577580Y-75191722D01*
X76579691Y-75170284D01*
X76585946Y-75149665D01*
X76596099Y-75130669D01*
X76613679Y-75109248D01*
X76938048Y-74784879D01*
X76959469Y-74767299D01*
X76978465Y-74757146D01*
X76999084Y-74750891D01*
X77020522Y-74748780D01*
X77041960Y-74750891D01*
X77041960Y-74750891D01*
G37*
G36*
X67242905Y-73858255D02*
G01*
X67276883Y-73868563D01*
X67308204Y-73885304D01*
X67340418Y-73911742D01*
X67380269Y-73951593D01*
X67380275Y-73951598D01*
X67725696Y-74297019D01*
X67725701Y-74297025D01*
X67765552Y-74336876D01*
X67791990Y-74369090D01*
X67808731Y-74400411D01*
X67819039Y-74434389D01*
X67822519Y-74469730D01*
X67819039Y-74505071D01*
X67808731Y-74539049D01*
X67791990Y-74570370D01*
X67765552Y-74602584D01*
X67725701Y-74642435D01*
X67725696Y-74642441D01*
X67327241Y-75040896D01*
X67327235Y-75040901D01*
X67287384Y-75080752D01*
X67255170Y-75107190D01*
X67223849Y-75123931D01*
X67189871Y-75134239D01*
X67154530Y-75137719D01*
X67119189Y-75134239D01*
X67085211Y-75123931D01*
X67053890Y-75107190D01*
X67021676Y-75080752D01*
X66981825Y-75040901D01*
X66981819Y-75040896D01*
X66636398Y-74695475D01*
X66636393Y-74695469D01*
X66596542Y-74655618D01*
X66570104Y-74623404D01*
X66553363Y-74592083D01*
X66543055Y-74558105D01*
X66539575Y-74522764D01*
X66543055Y-74487423D01*
X66553363Y-74453445D01*
X66570104Y-74422124D01*
X66596542Y-74389910D01*
X66636393Y-74350059D01*
X66636398Y-74350053D01*
X67034853Y-73951598D01*
X67034859Y-73951593D01*
X67074710Y-73911742D01*
X67106924Y-73885304D01*
X67138245Y-73868563D01*
X67172223Y-73858255D01*
X67207564Y-73854775D01*
X67242905Y-73858255D01*
X67242905Y-73858255D01*
G37*
G36*
X78347316Y-73328491D02*
G01*
X78367935Y-73334746D01*
X78386931Y-73344899D01*
X78408352Y-73362479D01*
X78732721Y-73686848D01*
X78750301Y-73708269D01*
X78760454Y-73727265D01*
X78766709Y-73747884D01*
X78768820Y-73769322D01*
X78766709Y-73790760D01*
X78760454Y-73811379D01*
X78750301Y-73830375D01*
X78732721Y-73851796D01*
X78372996Y-74211521D01*
X78351575Y-74229101D01*
X78332579Y-74239254D01*
X78311960Y-74245509D01*
X78290522Y-74247620D01*
X78269084Y-74245509D01*
X78267660Y-74245077D01*
X78243626Y-74240297D01*
X78219122Y-74240297D01*
X78195089Y-74245078D01*
X78172450Y-74254455D01*
X78152076Y-74268069D01*
X78134749Y-74285396D01*
X78121135Y-74305771D01*
X78111758Y-74328409D01*
X78106978Y-74352443D01*
X78106978Y-74376947D01*
X78111759Y-74400980D01*
X78121136Y-74423619D01*
X78142987Y-74453082D01*
X78148615Y-74458710D01*
X78166195Y-74480131D01*
X78176348Y-74499127D01*
X78182603Y-74519746D01*
X78184714Y-74541184D01*
X78182603Y-74562622D01*
X78176348Y-74583241D01*
X78166195Y-74602237D01*
X78148615Y-74623658D01*
X77824246Y-74948027D01*
X77802825Y-74965607D01*
X77783829Y-74975760D01*
X77763210Y-74982015D01*
X77741772Y-74984126D01*
X77720334Y-74982015D01*
X77699715Y-74975760D01*
X77680719Y-74965607D01*
X77659298Y-74948027D01*
X77299573Y-74588302D01*
X77281993Y-74566881D01*
X77271840Y-74547885D01*
X77265585Y-74527266D01*
X77263474Y-74505828D01*
X77265585Y-74484390D01*
X77271840Y-74463771D01*
X77281993Y-74444775D01*
X77299573Y-74423354D01*
X77623942Y-74098985D01*
X77645363Y-74081405D01*
X77664359Y-74071252D01*
X77684978Y-74064997D01*
X77706416Y-74062886D01*
X77727854Y-74064997D01*
X77735340Y-74067268D01*
X77759373Y-74072048D01*
X77783877Y-74072048D01*
X77807910Y-74067268D01*
X77830549Y-74057890D01*
X77850923Y-74044277D01*
X77868250Y-74026950D01*
X77881864Y-74006575D01*
X77891242Y-73983936D01*
X77896022Y-73959903D01*
X77896022Y-73935399D01*
X77891242Y-73911366D01*
X77881864Y-73888727D01*
X77868253Y-73868355D01*
X77866099Y-73865731D01*
X77855946Y-73846735D01*
X77849691Y-73826116D01*
X77847580Y-73804678D01*
X77849691Y-73783240D01*
X77855946Y-73762621D01*
X77866099Y-73743625D01*
X77883679Y-73722204D01*
X78243404Y-73362479D01*
X78264825Y-73344899D01*
X78283821Y-73334746D01*
X78304440Y-73328491D01*
X78325878Y-73326380D01*
X78347316Y-73328491D01*
X78347316Y-73328491D01*
G37*
G36*
X79033210Y-74014385D02*
G01*
X79053829Y-74020640D01*
X79072825Y-74030793D01*
X79094246Y-74048373D01*
X79418615Y-74372742D01*
X79436195Y-74394163D01*
X79446348Y-74413159D01*
X79452603Y-74433778D01*
X79454714Y-74455216D01*
X79452603Y-74476654D01*
X79446348Y-74497273D01*
X79436195Y-74516269D01*
X79418615Y-74537690D01*
X79058890Y-74897415D01*
X79037469Y-74914995D01*
X79018473Y-74925148D01*
X78997854Y-74931403D01*
X78976416Y-74933514D01*
X78954978Y-74931403D01*
X78934359Y-74925148D01*
X78915363Y-74914995D01*
X78893942Y-74897415D01*
X78569573Y-74573046D01*
X78551993Y-74551625D01*
X78541840Y-74532629D01*
X78535585Y-74512010D01*
X78533474Y-74490572D01*
X78535585Y-74469134D01*
X78541840Y-74448515D01*
X78551993Y-74429519D01*
X78569573Y-74408098D01*
X78929298Y-74048373D01*
X78950719Y-74030793D01*
X78969715Y-74020640D01*
X78990334Y-74014385D01*
X79011772Y-74012274D01*
X79033210Y-74014385D01*
X79033210Y-74014385D01*
G37*
G36*
X76025960Y-73963491D02*
G01*
X76046579Y-73969746D01*
X76065575Y-73979899D01*
X76086996Y-73997479D01*
X76446721Y-74357204D01*
X76464301Y-74378625D01*
X76474454Y-74397621D01*
X76480709Y-74418240D01*
X76482820Y-74439678D01*
X76480709Y-74461116D01*
X76474454Y-74481735D01*
X76464301Y-74500731D01*
X76446721Y-74522152D01*
X76122352Y-74846521D01*
X76100931Y-74864101D01*
X76081935Y-74874254D01*
X76061316Y-74880509D01*
X76039878Y-74882620D01*
X76018440Y-74880509D01*
X75997821Y-74874254D01*
X75978825Y-74864101D01*
X75957404Y-74846521D01*
X75597679Y-74486796D01*
X75580099Y-74465375D01*
X75569946Y-74446379D01*
X75563691Y-74425760D01*
X75561580Y-74404322D01*
X75563691Y-74382884D01*
X75569946Y-74362265D01*
X75580099Y-74343269D01*
X75597679Y-74321848D01*
X75922048Y-73997479D01*
X75943469Y-73979899D01*
X75962465Y-73969746D01*
X75983084Y-73963491D01*
X76004522Y-73961380D01*
X76025960Y-73963491D01*
X76025960Y-73963491D01*
G37*
G36*
X76711854Y-73277597D02*
G01*
X76732473Y-73283852D01*
X76751469Y-73294005D01*
X76772890Y-73311585D01*
X77132615Y-73671310D01*
X77150195Y-73692731D01*
X77160348Y-73711727D01*
X77166603Y-73732346D01*
X77168714Y-73753784D01*
X77166603Y-73775222D01*
X77160348Y-73795841D01*
X77150195Y-73814837D01*
X77132615Y-73836258D01*
X76808246Y-74160627D01*
X76786825Y-74178207D01*
X76767829Y-74188360D01*
X76747210Y-74194615D01*
X76725772Y-74196726D01*
X76704334Y-74194615D01*
X76683715Y-74188360D01*
X76664719Y-74178207D01*
X76643298Y-74160627D01*
X76283573Y-73800902D01*
X76265993Y-73779481D01*
X76255840Y-73760485D01*
X76249585Y-73739866D01*
X76247474Y-73718428D01*
X76249585Y-73696990D01*
X76255840Y-73676371D01*
X76265993Y-73657375D01*
X76283573Y-73635954D01*
X76607942Y-73311585D01*
X76629363Y-73294005D01*
X76648359Y-73283852D01*
X76668978Y-73277597D01*
X76690416Y-73275486D01*
X76711854Y-73277597D01*
X76711854Y-73277597D01*
G37*
G36*
X66129211Y-72744561D02*
G01*
X66163189Y-72754869D01*
X66194510Y-72771610D01*
X66226724Y-72798048D01*
X66266575Y-72837899D01*
X66266581Y-72837904D01*
X66612002Y-73183325D01*
X66612007Y-73183331D01*
X66651858Y-73223182D01*
X66678296Y-73255396D01*
X66695037Y-73286717D01*
X66705345Y-73320695D01*
X66708825Y-73356036D01*
X66705345Y-73391377D01*
X66695037Y-73425355D01*
X66678296Y-73456676D01*
X66651858Y-73488890D01*
X66612007Y-73528741D01*
X66612002Y-73528747D01*
X66213547Y-73927202D01*
X66213541Y-73927207D01*
X66173690Y-73967058D01*
X66141476Y-73993496D01*
X66110155Y-74010237D01*
X66076177Y-74020545D01*
X66040836Y-74024025D01*
X66005495Y-74020545D01*
X65971517Y-74010237D01*
X65940196Y-73993496D01*
X65907982Y-73967058D01*
X65868131Y-73927207D01*
X65868125Y-73927202D01*
X65522704Y-73581781D01*
X65522699Y-73581775D01*
X65482848Y-73541924D01*
X65456410Y-73509710D01*
X65439669Y-73478389D01*
X65429361Y-73444411D01*
X65425881Y-73409070D01*
X65429361Y-73373729D01*
X65439669Y-73339751D01*
X65456410Y-73308430D01*
X65482848Y-73276216D01*
X65522699Y-73236365D01*
X65522704Y-73236359D01*
X65921159Y-72837904D01*
X65921165Y-72837899D01*
X65961016Y-72798048D01*
X65993230Y-72771610D01*
X66024551Y-72754869D01*
X66058529Y-72744561D01*
X66093870Y-72741081D01*
X66129211Y-72744561D01*
X66129211Y-72744561D01*
G37*
G36*
X81000231Y-69994705D02*
G01*
X81038967Y-70002410D01*
X81069195Y-70014931D01*
X81111944Y-70032638D01*
X81177622Y-70076523D01*
X81233477Y-70132378D01*
X81277362Y-70198056D01*
X81307590Y-70271034D01*
X81323000Y-70348504D01*
X81323000Y-70427496D01*
X81307590Y-70504966D01*
X81277362Y-70577944D01*
X81233477Y-70643622D01*
X81177622Y-70699477D01*
X81111944Y-70743362D01*
X81069195Y-70761069D01*
X81038967Y-70773590D01*
X81000231Y-70781295D01*
X80961496Y-70789000D01*
X80882504Y-70789000D01*
X80843769Y-70781295D01*
X80805033Y-70773590D01*
X80774805Y-70761069D01*
X80732056Y-70743362D01*
X80666378Y-70699477D01*
X80610521Y-70643620D01*
X80576932Y-70593350D01*
X80561387Y-70574408D01*
X80542445Y-70558863D01*
X80520835Y-70547311D01*
X80497386Y-70540198D01*
X80473000Y-70537796D01*
X80448614Y-70540198D01*
X80425165Y-70547311D01*
X80403554Y-70558862D01*
X80384612Y-70574407D01*
X80369067Y-70593349D01*
X80357515Y-70614959D01*
X80350402Y-70638408D01*
X80348000Y-70662795D01*
X80348000Y-71789000D01*
X68496000Y-71789000D01*
X68496000Y-70187000D01*
X80372635Y-70187000D01*
X80384611Y-70201593D01*
X80403553Y-70217138D01*
X80425164Y-70228689D01*
X80448613Y-70235802D01*
X80472999Y-70238204D01*
X80497385Y-70235802D01*
X80520834Y-70228689D01*
X80542445Y-70217138D01*
X80561387Y-70201593D01*
X80576932Y-70182650D01*
X80610521Y-70132380D01*
X80666378Y-70076523D01*
X80732056Y-70032638D01*
X80774805Y-70014931D01*
X80805033Y-70002410D01*
X80843769Y-69994705D01*
X80882504Y-69987000D01*
X80961496Y-69987000D01*
X81000231Y-69994705D01*
X81000231Y-69994705D01*
G37*
G36*
X80348000Y-67989000D02*
G01*
X68471365Y-67989000D01*
X68459389Y-67974407D01*
X68440447Y-67958862D01*
X68418836Y-67947311D01*
X68395387Y-67940198D01*
X68371001Y-67937796D01*
X68346615Y-67940198D01*
X68323166Y-67947311D01*
X68301555Y-67958862D01*
X68282613Y-67974407D01*
X68267068Y-67993350D01*
X68233479Y-68043620D01*
X68177622Y-68099477D01*
X68111944Y-68143362D01*
X68069195Y-68161069D01*
X68038967Y-68173590D01*
X68000231Y-68181295D01*
X67961496Y-68189000D01*
X67882504Y-68189000D01*
X67843769Y-68181295D01*
X67805033Y-68173590D01*
X67774805Y-68161069D01*
X67732056Y-68143362D01*
X67666378Y-68099477D01*
X67610523Y-68043622D01*
X67566638Y-67977944D01*
X67536410Y-67904966D01*
X67521000Y-67827496D01*
X67521000Y-67748504D01*
X67536410Y-67671034D01*
X67566638Y-67598056D01*
X67610523Y-67532378D01*
X67666378Y-67476523D01*
X67732056Y-67432638D01*
X67774805Y-67414931D01*
X67805033Y-67402410D01*
X67843769Y-67394705D01*
X67882504Y-67387000D01*
X67961496Y-67387000D01*
X68000231Y-67394705D01*
X68038967Y-67402410D01*
X68069195Y-67414931D01*
X68111944Y-67432638D01*
X68177622Y-67476523D01*
X68233479Y-67532380D01*
X68267068Y-67582650D01*
X68282613Y-67601592D01*
X68301555Y-67617137D01*
X68323165Y-67628689D01*
X68346614Y-67635802D01*
X68371000Y-67638204D01*
X68395386Y-67635802D01*
X68418835Y-67628689D01*
X68440446Y-67617138D01*
X68459388Y-67601593D01*
X68474933Y-67582651D01*
X68486485Y-67561041D01*
X68493598Y-67537592D01*
X68496000Y-67513205D01*
X68496000Y-66387000D01*
X80348000Y-66387000D01*
X80348000Y-67989000D01*
X80348000Y-67989000D01*
G37*
M02*
