G04 #@! TF.GenerationSoftware,KiCad,Pcbnew,(5.1.6)-1*
G04 #@! TF.CreationDate,2020-12-13T19:15:46+01:00*
G04 #@! TF.ProjectId,ACM-pcb,41434d2d-7063-4622-9e6b-696361645f70,rev?*
G04 #@! TF.SameCoordinates,Original*
G04 #@! TF.FileFunction,Copper,L1,Top*
G04 #@! TF.FilePolarity,Positive*
%FSLAX46Y46*%
G04 Gerber Fmt 4.6, Leading zero omitted, Abs format (unit mm)*
G04 Created by KiCad (PCBNEW (5.1.6)-1) date 2020-12-13 19:15:46*
%MOMM*%
%LPD*%
G01*
G04 APERTURE LIST*
G04 #@! TA.AperFunction,SMDPad,CuDef*
%ADD10R,1.200000X0.900000*%
G04 #@! TD*
G04 #@! TA.AperFunction,SMDPad,CuDef*
%ADD11R,0.700000X1.600000*%
G04 #@! TD*
G04 #@! TA.AperFunction,SMDPad,CuDef*
%ADD12R,0.800000X0.900000*%
G04 #@! TD*
G04 #@! TA.AperFunction,SMDPad,CuDef*
%ADD13C,0.100000*%
G04 #@! TD*
G04 #@! TA.AperFunction,ConnectorPad*
%ADD14C,0.787400*%
G04 #@! TD*
G04 #@! TA.AperFunction,SMDPad,CuDef*
%ADD15R,0.350000X0.750000*%
G04 #@! TD*
G04 #@! TA.AperFunction,SMDPad,CuDef*
%ADD16R,2.400000X1.600000*%
G04 #@! TD*
G04 #@! TA.AperFunction,ViaPad*
%ADD17C,0.600000*%
G04 #@! TD*
G04 #@! TA.AperFunction,ViaPad*
%ADD18C,0.800000*%
G04 #@! TD*
G04 #@! TA.AperFunction,Conductor*
%ADD19C,0.254000*%
G04 #@! TD*
G04 #@! TA.AperFunction,Conductor*
%ADD20C,0.508000*%
G04 #@! TD*
G04 #@! TA.AperFunction,Conductor*
%ADD21C,0.127000*%
G04 #@! TD*
G04 APERTURE END LIST*
D10*
X65750000Y-86975000D03*
X65750000Y-83675000D03*
D11*
X64990000Y-80367000D03*
X64990000Y-77367000D03*
X66040000Y-80367000D03*
X66040000Y-77367000D03*
X67090000Y-80367000D03*
X67090000Y-77367000D03*
D12*
X71440000Y-89392000D03*
X73340000Y-89392000D03*
X72390000Y-87392000D03*
G04 #@! TA.AperFunction,SMDPad,CuDef*
G36*
G01*
X78023100Y-83263450D02*
X78023100Y-82750950D01*
G75*
G02*
X78241850Y-82532200I218750J0D01*
G01*
X78679350Y-82532200D01*
G75*
G02*
X78898100Y-82750950I0J-218750D01*
G01*
X78898100Y-83263450D01*
G75*
G02*
X78679350Y-83482200I-218750J0D01*
G01*
X78241850Y-83482200D01*
G75*
G02*
X78023100Y-83263450I0J218750D01*
G01*
G37*
G04 #@! TD.AperFunction*
G04 #@! TA.AperFunction,SMDPad,CuDef*
G36*
G01*
X79598100Y-83263450D02*
X79598100Y-82750950D01*
G75*
G02*
X79816850Y-82532200I218750J0D01*
G01*
X80254350Y-82532200D01*
G75*
G02*
X80473100Y-82750950I0J-218750D01*
G01*
X80473100Y-83263450D01*
G75*
G02*
X80254350Y-83482200I-218750J0D01*
G01*
X79816850Y-83482200D01*
G75*
G02*
X79598100Y-83263450I0J218750D01*
G01*
G37*
G04 #@! TD.AperFunction*
G04 #@! TA.AperFunction,SMDPad,CuDef*
G36*
G01*
X78350000Y-78756250D02*
X78350000Y-78243750D01*
G75*
G02*
X78568750Y-78025000I218750J0D01*
G01*
X79006250Y-78025000D01*
G75*
G02*
X79225000Y-78243750I0J-218750D01*
G01*
X79225000Y-78756250D01*
G75*
G02*
X79006250Y-78975000I-218750J0D01*
G01*
X78568750Y-78975000D01*
G75*
G02*
X78350000Y-78756250I0J218750D01*
G01*
G37*
G04 #@! TD.AperFunction*
G04 #@! TA.AperFunction,SMDPad,CuDef*
G36*
G01*
X76775000Y-78756250D02*
X76775000Y-78243750D01*
G75*
G02*
X76993750Y-78025000I218750J0D01*
G01*
X77431250Y-78025000D01*
G75*
G02*
X77650000Y-78243750I0J-218750D01*
G01*
X77650000Y-78756250D01*
G75*
G02*
X77431250Y-78975000I-218750J0D01*
G01*
X76993750Y-78975000D01*
G75*
G02*
X76775000Y-78756250I0J218750D01*
G01*
G37*
G04 #@! TD.AperFunction*
G04 #@! TA.AperFunction,SMDPad,CuDef*
D13*
G36*
X72257879Y-67089934D02*
G01*
X72646788Y-66701025D01*
X73778159Y-67832396D01*
X73389250Y-68221305D01*
X72257879Y-67089934D01*
G37*
G04 #@! TD.AperFunction*
G04 #@! TA.AperFunction,SMDPad,CuDef*
G36*
X71692194Y-67655620D02*
G01*
X72081103Y-67266711D01*
X73212474Y-68398082D01*
X72823565Y-68786991D01*
X71692194Y-67655620D01*
G37*
G04 #@! TD.AperFunction*
G04 #@! TA.AperFunction,SMDPad,CuDef*
G36*
X71126508Y-68221305D02*
G01*
X71515417Y-67832396D01*
X72646788Y-68963767D01*
X72257879Y-69352676D01*
X71126508Y-68221305D01*
G37*
G04 #@! TD.AperFunction*
G04 #@! TA.AperFunction,SMDPad,CuDef*
G36*
X70560823Y-68786990D02*
G01*
X70949732Y-68398081D01*
X72081103Y-69529452D01*
X71692194Y-69918361D01*
X70560823Y-68786990D01*
G37*
G04 #@! TD.AperFunction*
G04 #@! TA.AperFunction,SMDPad,CuDef*
G36*
X69995137Y-69352676D02*
G01*
X70384046Y-68963767D01*
X71515417Y-70095138D01*
X71126508Y-70484047D01*
X69995137Y-69352676D01*
G37*
G04 #@! TD.AperFunction*
G04 #@! TA.AperFunction,SMDPad,CuDef*
G36*
X69429452Y-69918361D02*
G01*
X69818361Y-69529452D01*
X70949732Y-70660823D01*
X70560823Y-71049732D01*
X69429452Y-69918361D01*
G37*
G04 #@! TD.AperFunction*
G04 #@! TA.AperFunction,SMDPad,CuDef*
G36*
X68863767Y-70484047D02*
G01*
X69252676Y-70095138D01*
X70384047Y-71226509D01*
X69995138Y-71615418D01*
X68863767Y-70484047D01*
G37*
G04 #@! TD.AperFunction*
G04 #@! TA.AperFunction,SMDPad,CuDef*
G36*
X68298081Y-71049732D02*
G01*
X68686990Y-70660823D01*
X69818361Y-71792194D01*
X69429452Y-72181103D01*
X68298081Y-71049732D01*
G37*
G04 #@! TD.AperFunction*
G04 #@! TA.AperFunction,SMDPad,CuDef*
G36*
X68686990Y-74231713D02*
G01*
X68298081Y-73842804D01*
X69429452Y-72711433D01*
X69818361Y-73100342D01*
X68686990Y-74231713D01*
G37*
G04 #@! TD.AperFunction*
G04 #@! TA.AperFunction,SMDPad,CuDef*
G36*
X69252676Y-74797398D02*
G01*
X68863767Y-74408489D01*
X69995138Y-73277118D01*
X70384047Y-73666027D01*
X69252676Y-74797398D01*
G37*
G04 #@! TD.AperFunction*
G04 #@! TA.AperFunction,SMDPad,CuDef*
G36*
X69818361Y-75363084D02*
G01*
X69429452Y-74974175D01*
X70560823Y-73842804D01*
X70949732Y-74231713D01*
X69818361Y-75363084D01*
G37*
G04 #@! TD.AperFunction*
G04 #@! TA.AperFunction,SMDPad,CuDef*
G36*
X70384046Y-75928769D02*
G01*
X69995137Y-75539860D01*
X71126508Y-74408489D01*
X71515417Y-74797398D01*
X70384046Y-75928769D01*
G37*
G04 #@! TD.AperFunction*
G04 #@! TA.AperFunction,SMDPad,CuDef*
G36*
X70949732Y-76494455D02*
G01*
X70560823Y-76105546D01*
X71692194Y-74974175D01*
X72081103Y-75363084D01*
X70949732Y-76494455D01*
G37*
G04 #@! TD.AperFunction*
G04 #@! TA.AperFunction,SMDPad,CuDef*
G36*
X71515417Y-77060140D02*
G01*
X71126508Y-76671231D01*
X72257879Y-75539860D01*
X72646788Y-75928769D01*
X71515417Y-77060140D01*
G37*
G04 #@! TD.AperFunction*
G04 #@! TA.AperFunction,SMDPad,CuDef*
G36*
X72081103Y-77625825D02*
G01*
X71692194Y-77236916D01*
X72823565Y-76105545D01*
X73212474Y-76494454D01*
X72081103Y-77625825D01*
G37*
G04 #@! TD.AperFunction*
G04 #@! TA.AperFunction,SMDPad,CuDef*
G36*
X72646788Y-78191511D02*
G01*
X72257879Y-77802602D01*
X73389250Y-76671231D01*
X73778159Y-77060140D01*
X72646788Y-78191511D01*
G37*
G04 #@! TD.AperFunction*
G04 #@! TA.AperFunction,SMDPad,CuDef*
G36*
X74308489Y-77060140D02*
G01*
X74697398Y-76671231D01*
X75828769Y-77802602D01*
X75439860Y-78191511D01*
X74308489Y-77060140D01*
G37*
G04 #@! TD.AperFunction*
G04 #@! TA.AperFunction,SMDPad,CuDef*
G36*
X74874174Y-76494454D02*
G01*
X75263083Y-76105545D01*
X76394454Y-77236916D01*
X76005545Y-77625825D01*
X74874174Y-76494454D01*
G37*
G04 #@! TD.AperFunction*
G04 #@! TA.AperFunction,SMDPad,CuDef*
G36*
X75439860Y-75928769D02*
G01*
X75828769Y-75539860D01*
X76960140Y-76671231D01*
X76571231Y-77060140D01*
X75439860Y-75928769D01*
G37*
G04 #@! TD.AperFunction*
G04 #@! TA.AperFunction,SMDPad,CuDef*
G36*
X76005545Y-75363084D02*
G01*
X76394454Y-74974175D01*
X77525825Y-76105546D01*
X77136916Y-76494455D01*
X76005545Y-75363084D01*
G37*
G04 #@! TD.AperFunction*
G04 #@! TA.AperFunction,SMDPad,CuDef*
G36*
X76571231Y-74797398D02*
G01*
X76960140Y-74408489D01*
X78091511Y-75539860D01*
X77702602Y-75928769D01*
X76571231Y-74797398D01*
G37*
G04 #@! TD.AperFunction*
G04 #@! TA.AperFunction,SMDPad,CuDef*
G36*
X77136916Y-74231713D02*
G01*
X77525825Y-73842804D01*
X78657196Y-74974175D01*
X78268287Y-75363084D01*
X77136916Y-74231713D01*
G37*
G04 #@! TD.AperFunction*
G04 #@! TA.AperFunction,SMDPad,CuDef*
G36*
X77702601Y-73666027D02*
G01*
X78091510Y-73277118D01*
X79222881Y-74408489D01*
X78833972Y-74797398D01*
X77702601Y-73666027D01*
G37*
G04 #@! TD.AperFunction*
G04 #@! TA.AperFunction,SMDPad,CuDef*
G36*
X78268287Y-73100342D02*
G01*
X78657196Y-72711433D01*
X79788567Y-73842804D01*
X79399658Y-74231713D01*
X78268287Y-73100342D01*
G37*
G04 #@! TD.AperFunction*
G04 #@! TA.AperFunction,SMDPad,CuDef*
G36*
X78657196Y-72181103D02*
G01*
X78268287Y-71792194D01*
X79399658Y-70660823D01*
X79788567Y-71049732D01*
X78657196Y-72181103D01*
G37*
G04 #@! TD.AperFunction*
G04 #@! TA.AperFunction,SMDPad,CuDef*
G36*
X78091510Y-71615418D02*
G01*
X77702601Y-71226509D01*
X78833972Y-70095138D01*
X79222881Y-70484047D01*
X78091510Y-71615418D01*
G37*
G04 #@! TD.AperFunction*
G04 #@! TA.AperFunction,SMDPad,CuDef*
G36*
X77525825Y-71049732D02*
G01*
X77136916Y-70660823D01*
X78268287Y-69529452D01*
X78657196Y-69918361D01*
X77525825Y-71049732D01*
G37*
G04 #@! TD.AperFunction*
G04 #@! TA.AperFunction,SMDPad,CuDef*
G36*
X76960140Y-70484047D02*
G01*
X76571231Y-70095138D01*
X77702602Y-68963767D01*
X78091511Y-69352676D01*
X76960140Y-70484047D01*
G37*
G04 #@! TD.AperFunction*
G04 #@! TA.AperFunction,SMDPad,CuDef*
G36*
X76394454Y-69918361D02*
G01*
X76005545Y-69529452D01*
X77136916Y-68398081D01*
X77525825Y-68786990D01*
X76394454Y-69918361D01*
G37*
G04 #@! TD.AperFunction*
G04 #@! TA.AperFunction,SMDPad,CuDef*
G36*
X75828769Y-69352676D02*
G01*
X75439860Y-68963767D01*
X76571231Y-67832396D01*
X76960140Y-68221305D01*
X75828769Y-69352676D01*
G37*
G04 #@! TD.AperFunction*
G04 #@! TA.AperFunction,SMDPad,CuDef*
G36*
X75263083Y-68786991D02*
G01*
X74874174Y-68398082D01*
X76005545Y-67266711D01*
X76394454Y-67655620D01*
X75263083Y-68786991D01*
G37*
G04 #@! TD.AperFunction*
G04 #@! TA.AperFunction,SMDPad,CuDef*
G36*
X74697398Y-68221305D02*
G01*
X74308489Y-67832396D01*
X75439860Y-66701025D01*
X75828769Y-67089934D01*
X74697398Y-68221305D01*
G37*
G04 #@! TD.AperFunction*
D14*
X72230000Y-83985000D03*
X72230000Y-85255000D03*
X70960000Y-83985000D03*
X70960000Y-85255000D03*
X69690000Y-83985000D03*
X69690000Y-85255000D03*
G04 #@! TA.AperFunction,SMDPad,CuDef*
G36*
G01*
X68915500Y-80350000D02*
X69260500Y-80350000D01*
G75*
G02*
X69408000Y-80497500I0J-147500D01*
G01*
X69408000Y-80792500D01*
G75*
G02*
X69260500Y-80940000I-147500J0D01*
G01*
X68915500Y-80940000D01*
G75*
G02*
X68768000Y-80792500I0J147500D01*
G01*
X68768000Y-80497500D01*
G75*
G02*
X68915500Y-80350000I147500J0D01*
G01*
G37*
G04 #@! TD.AperFunction*
G04 #@! TA.AperFunction,SMDPad,CuDef*
G36*
G01*
X68915500Y-81320000D02*
X69260500Y-81320000D01*
G75*
G02*
X69408000Y-81467500I0J-147500D01*
G01*
X69408000Y-81762500D01*
G75*
G02*
X69260500Y-81910000I-147500J0D01*
G01*
X68915500Y-81910000D01*
G75*
G02*
X68768000Y-81762500I0J147500D01*
G01*
X68768000Y-81467500D01*
G75*
G02*
X68915500Y-81320000I147500J0D01*
G01*
G37*
G04 #@! TD.AperFunction*
G04 #@! TA.AperFunction,SMDPad,CuDef*
G36*
G01*
X69661685Y-78969066D02*
X69417734Y-78725114D01*
G75*
G02*
X69417734Y-78516518I104298J104298D01*
G01*
X69626330Y-78307922D01*
G75*
G02*
X69834926Y-78307922I104298J-104298D01*
G01*
X70078878Y-78551874D01*
G75*
G02*
X70078878Y-78760470I-104298J-104298D01*
G01*
X69870282Y-78969066D01*
G75*
G02*
X69661686Y-78969066I-104298J104298D01*
G01*
G37*
G04 #@! TD.AperFunction*
G04 #@! TA.AperFunction,SMDPad,CuDef*
G36*
G01*
X70347579Y-78283172D02*
X70103628Y-78039220D01*
G75*
G02*
X70103628Y-77830624I104298J104298D01*
G01*
X70312224Y-77622028D01*
G75*
G02*
X70520820Y-77622028I104298J-104298D01*
G01*
X70764772Y-77865980D01*
G75*
G02*
X70764772Y-78074576I-104298J-104298D01*
G01*
X70556176Y-78283172D01*
G75*
G02*
X70347580Y-78283172I-104298J104298D01*
G01*
G37*
G04 #@! TD.AperFunction*
G04 #@! TA.AperFunction,SMDPad,CuDef*
D13*
G36*
X68377387Y-69996116D02*
G01*
X67033884Y-68652613D01*
X67316727Y-68369770D01*
X68660230Y-69713273D01*
X68377387Y-69996116D01*
G37*
G04 #@! TD.AperFunction*
G04 #@! TA.AperFunction,SMDPad,CuDef*
G36*
X67528859Y-70844645D02*
G01*
X66185356Y-69501142D01*
X66468199Y-69218299D01*
X67811702Y-70561802D01*
X67528859Y-70844645D01*
G37*
G04 #@! TD.AperFunction*
G04 #@! TA.AperFunction,SMDPad,CuDef*
G36*
X66680330Y-71693173D02*
G01*
X65336827Y-70349670D01*
X65619670Y-70066827D01*
X66963173Y-71410330D01*
X66680330Y-71693173D01*
G37*
G04 #@! TD.AperFunction*
G04 #@! TA.AperFunction,SMDPad,CuDef*
G36*
G01*
X70222515Y-67658534D02*
X70466466Y-67902486D01*
G75*
G02*
X70466466Y-68111082I-104298J-104298D01*
G01*
X70257870Y-68319678D01*
G75*
G02*
X70049274Y-68319678I-104298J104298D01*
G01*
X69805322Y-68075726D01*
G75*
G02*
X69805322Y-67867130I104298J104298D01*
G01*
X70013918Y-67658534D01*
G75*
G02*
X70222514Y-67658534I104298J-104298D01*
G01*
G37*
G04 #@! TD.AperFunction*
G04 #@! TA.AperFunction,SMDPad,CuDef*
G36*
G01*
X69536621Y-68344428D02*
X69780572Y-68588380D01*
G75*
G02*
X69780572Y-68796976I-104298J-104298D01*
G01*
X69571976Y-69005572D01*
G75*
G02*
X69363380Y-69005572I-104298J104298D01*
G01*
X69119428Y-68761620D01*
G75*
G02*
X69119428Y-68553024I104298J104298D01*
G01*
X69328024Y-68344428D01*
G75*
G02*
X69536620Y-68344428I104298J-104298D01*
G01*
G37*
G04 #@! TD.AperFunction*
G04 #@! TA.AperFunction,SMDPad,CuDef*
G36*
G01*
X79786621Y-76469428D02*
X80030572Y-76713380D01*
G75*
G02*
X80030572Y-76921976I-104298J-104298D01*
G01*
X79821976Y-77130572D01*
G75*
G02*
X79613380Y-77130572I-104298J104298D01*
G01*
X79369428Y-76886620D01*
G75*
G02*
X79369428Y-76678024I104298J104298D01*
G01*
X79578024Y-76469428D01*
G75*
G02*
X79786620Y-76469428I104298J-104298D01*
G01*
G37*
G04 #@! TD.AperFunction*
G04 #@! TA.AperFunction,SMDPad,CuDef*
G36*
G01*
X80472515Y-75783534D02*
X80716466Y-76027486D01*
G75*
G02*
X80716466Y-76236082I-104298J-104298D01*
G01*
X80507870Y-76444678D01*
G75*
G02*
X80299274Y-76444678I-104298J104298D01*
G01*
X80055322Y-76200726D01*
G75*
G02*
X80055322Y-75992130I104298J104298D01*
G01*
X80263918Y-75783534D01*
G75*
G02*
X80472514Y-75783534I104298J-104298D01*
G01*
G37*
G04 #@! TD.AperFunction*
G04 #@! TA.AperFunction,SMDPad,CuDef*
G36*
G01*
X80055500Y-89218000D02*
X79710500Y-89218000D01*
G75*
G02*
X79563000Y-89070500I0J147500D01*
G01*
X79563000Y-88775500D01*
G75*
G02*
X79710500Y-88628000I147500J0D01*
G01*
X80055500Y-88628000D01*
G75*
G02*
X80203000Y-88775500I0J-147500D01*
G01*
X80203000Y-89070500D01*
G75*
G02*
X80055500Y-89218000I-147500J0D01*
G01*
G37*
G04 #@! TD.AperFunction*
G04 #@! TA.AperFunction,SMDPad,CuDef*
G36*
G01*
X80055500Y-90188000D02*
X79710500Y-90188000D01*
G75*
G02*
X79563000Y-90040500I0J147500D01*
G01*
X79563000Y-89745500D01*
G75*
G02*
X79710500Y-89598000I147500J0D01*
G01*
X80055500Y-89598000D01*
G75*
G02*
X80203000Y-89745500I0J-147500D01*
G01*
X80203000Y-90040500D01*
G75*
G02*
X80055500Y-90188000I-147500J0D01*
G01*
G37*
G04 #@! TD.AperFunction*
G04 #@! TA.AperFunction,SMDPad,CuDef*
G36*
G01*
X76728100Y-83025200D02*
X76383100Y-83025200D01*
G75*
G02*
X76235600Y-82877700I0J147500D01*
G01*
X76235600Y-82582700D01*
G75*
G02*
X76383100Y-82435200I147500J0D01*
G01*
X76728100Y-82435200D01*
G75*
G02*
X76875600Y-82582700I0J-147500D01*
G01*
X76875600Y-82877700D01*
G75*
G02*
X76728100Y-83025200I-147500J0D01*
G01*
G37*
G04 #@! TD.AperFunction*
G04 #@! TA.AperFunction,SMDPad,CuDef*
G36*
G01*
X76728100Y-82055200D02*
X76383100Y-82055200D01*
G75*
G02*
X76235600Y-81907700I0J147500D01*
G01*
X76235600Y-81612700D01*
G75*
G02*
X76383100Y-81465200I147500J0D01*
G01*
X76728100Y-81465200D01*
G75*
G02*
X76875600Y-81612700I0J-147500D01*
G01*
X76875600Y-81907700D01*
G75*
G02*
X76728100Y-82055200I-147500J0D01*
G01*
G37*
G04 #@! TD.AperFunction*
G04 #@! TA.AperFunction,SMDPad,CuDef*
G36*
G01*
X77970432Y-77073519D02*
X77726481Y-76829567D01*
G75*
G02*
X77726481Y-76620971I104298J104298D01*
G01*
X77935077Y-76412375D01*
G75*
G02*
X78143673Y-76412375I104298J-104298D01*
G01*
X78387625Y-76656327D01*
G75*
G02*
X78387625Y-76864923I-104298J-104298D01*
G01*
X78179029Y-77073519D01*
G75*
G02*
X77970433Y-77073519I-104298J104298D01*
G01*
G37*
G04 #@! TD.AperFunction*
G04 #@! TA.AperFunction,SMDPad,CuDef*
G36*
G01*
X78656326Y-76387625D02*
X78412375Y-76143673D01*
G75*
G02*
X78412375Y-75935077I104298J104298D01*
G01*
X78620971Y-75726481D01*
G75*
G02*
X78829567Y-75726481I104298J-104298D01*
G01*
X79073519Y-75970433D01*
G75*
G02*
X79073519Y-76179029I-104298J-104298D01*
G01*
X78864923Y-76387625D01*
G75*
G02*
X78656327Y-76387625I-104298J104298D01*
G01*
G37*
G04 #@! TD.AperFunction*
G04 #@! TA.AperFunction,SMDPad,CuDef*
G36*
G01*
X77032900Y-87673400D02*
X76687900Y-87673400D01*
G75*
G02*
X76540400Y-87525900I0J147500D01*
G01*
X76540400Y-87230900D01*
G75*
G02*
X76687900Y-87083400I147500J0D01*
G01*
X77032900Y-87083400D01*
G75*
G02*
X77180400Y-87230900I0J-147500D01*
G01*
X77180400Y-87525900D01*
G75*
G02*
X77032900Y-87673400I-147500J0D01*
G01*
G37*
G04 #@! TD.AperFunction*
G04 #@! TA.AperFunction,SMDPad,CuDef*
G36*
G01*
X77032900Y-86703400D02*
X76687900Y-86703400D01*
G75*
G02*
X76540400Y-86555900I0J147500D01*
G01*
X76540400Y-86260900D01*
G75*
G02*
X76687900Y-86113400I147500J0D01*
G01*
X77032900Y-86113400D01*
G75*
G02*
X77180400Y-86260900I0J-147500D01*
G01*
X77180400Y-86555900D01*
G75*
G02*
X77032900Y-86703400I-147500J0D01*
G01*
G37*
G04 #@! TD.AperFunction*
G04 #@! TA.AperFunction,SMDPad,CuDef*
G36*
G01*
X79281000Y-81591500D02*
X79281000Y-81936500D01*
G75*
G02*
X79133500Y-82084000I-147500J0D01*
G01*
X78838500Y-82084000D01*
G75*
G02*
X78691000Y-81936500I0J147500D01*
G01*
X78691000Y-81591500D01*
G75*
G02*
X78838500Y-81444000I147500J0D01*
G01*
X79133500Y-81444000D01*
G75*
G02*
X79281000Y-81591500I0J-147500D01*
G01*
G37*
G04 #@! TD.AperFunction*
G04 #@! TA.AperFunction,SMDPad,CuDef*
G36*
G01*
X80251000Y-81591500D02*
X80251000Y-81936500D01*
G75*
G02*
X80103500Y-82084000I-147500J0D01*
G01*
X79808500Y-82084000D01*
G75*
G02*
X79661000Y-81936500I0J147500D01*
G01*
X79661000Y-81591500D01*
G75*
G02*
X79808500Y-81444000I147500J0D01*
G01*
X80103500Y-81444000D01*
G75*
G02*
X80251000Y-81591500I0J-147500D01*
G01*
G37*
G04 #@! TD.AperFunction*
D15*
X78549000Y-87320000D03*
X79199000Y-87320000D03*
X79849000Y-87320000D03*
X80499000Y-87320000D03*
X80499000Y-84320000D03*
X79849000Y-84320000D03*
X79199000Y-84320000D03*
X78549000Y-84320000D03*
D16*
X79524000Y-85820000D03*
G04 #@! TA.AperFunction,SMDPad,CuDef*
G36*
G01*
X75516450Y-87610500D02*
X75003950Y-87610500D01*
G75*
G02*
X74785200Y-87391750I0J218750D01*
G01*
X74785200Y-86954250D01*
G75*
G02*
X75003950Y-86735500I218750J0D01*
G01*
X75516450Y-86735500D01*
G75*
G02*
X75735200Y-86954250I0J-218750D01*
G01*
X75735200Y-87391750D01*
G75*
G02*
X75516450Y-87610500I-218750J0D01*
G01*
G37*
G04 #@! TD.AperFunction*
G04 #@! TA.AperFunction,SMDPad,CuDef*
G36*
G01*
X75516450Y-86035500D02*
X75003950Y-86035500D01*
G75*
G02*
X74785200Y-85816750I0J218750D01*
G01*
X74785200Y-85379250D01*
G75*
G02*
X75003950Y-85160500I218750J0D01*
G01*
X75516450Y-85160500D01*
G75*
G02*
X75735200Y-85379250I0J-218750D01*
G01*
X75735200Y-85816750D01*
G75*
G02*
X75516450Y-86035500I-218750J0D01*
G01*
G37*
G04 #@! TD.AperFunction*
G04 #@! TA.AperFunction,SMDPad,CuDef*
G36*
G01*
X79098000Y-80237750D02*
X79098000Y-80750250D01*
G75*
G02*
X78879250Y-80969000I-218750J0D01*
G01*
X78441750Y-80969000D01*
G75*
G02*
X78223000Y-80750250I0J218750D01*
G01*
X78223000Y-80237750D01*
G75*
G02*
X78441750Y-80019000I218750J0D01*
G01*
X78879250Y-80019000D01*
G75*
G02*
X79098000Y-80237750I0J-218750D01*
G01*
G37*
G04 #@! TD.AperFunction*
G04 #@! TA.AperFunction,SMDPad,CuDef*
G36*
G01*
X80673000Y-80237750D02*
X80673000Y-80750250D01*
G75*
G02*
X80454250Y-80969000I-218750J0D01*
G01*
X80016750Y-80969000D01*
G75*
G02*
X79798000Y-80750250I0J218750D01*
G01*
X79798000Y-80237750D01*
G75*
G02*
X80016750Y-80019000I218750J0D01*
G01*
X80454250Y-80019000D01*
G75*
G02*
X80673000Y-80237750I0J-218750D01*
G01*
G37*
G04 #@! TD.AperFunction*
G04 #@! TA.AperFunction,SMDPad,CuDef*
G36*
G01*
X68620285Y-78080066D02*
X68376334Y-77836114D01*
G75*
G02*
X68376334Y-77627518I104298J104298D01*
G01*
X68584930Y-77418922D01*
G75*
G02*
X68793526Y-77418922I104298J-104298D01*
G01*
X69037478Y-77662874D01*
G75*
G02*
X69037478Y-77871470I-104298J-104298D01*
G01*
X68828882Y-78080066D01*
G75*
G02*
X68620286Y-78080066I-104298J104298D01*
G01*
G37*
G04 #@! TD.AperFunction*
G04 #@! TA.AperFunction,SMDPad,CuDef*
G36*
G01*
X69306179Y-77394172D02*
X69062228Y-77150220D01*
G75*
G02*
X69062228Y-76941624I104298J104298D01*
G01*
X69270824Y-76733028D01*
G75*
G02*
X69479420Y-76733028I104298J-104298D01*
G01*
X69723372Y-76976980D01*
G75*
G02*
X69723372Y-77185576I-104298J-104298D01*
G01*
X69514776Y-77394172D01*
G75*
G02*
X69306180Y-77394172I-104298J104298D01*
G01*
G37*
G04 #@! TD.AperFunction*
G04 #@! TA.AperFunction,SMDPad,CuDef*
G36*
G01*
X67451979Y-75158972D02*
X67208028Y-74915020D01*
G75*
G02*
X67208028Y-74706424I104298J104298D01*
G01*
X67416624Y-74497828D01*
G75*
G02*
X67625220Y-74497828I104298J-104298D01*
G01*
X67869172Y-74741780D01*
G75*
G02*
X67869172Y-74950376I-104298J-104298D01*
G01*
X67660576Y-75158972D01*
G75*
G02*
X67451980Y-75158972I-104298J104298D01*
G01*
G37*
G04 #@! TD.AperFunction*
G04 #@! TA.AperFunction,SMDPad,CuDef*
G36*
G01*
X66766085Y-75844866D02*
X66522134Y-75600914D01*
G75*
G02*
X66522134Y-75392318I104298J104298D01*
G01*
X66730730Y-75183722D01*
G75*
G02*
X66939326Y-75183722I104298J-104298D01*
G01*
X67183278Y-75427674D01*
G75*
G02*
X67183278Y-75636270I-104298J-104298D01*
G01*
X66974682Y-75844866D01*
G75*
G02*
X66766086Y-75844866I-104298J104298D01*
G01*
G37*
G04 #@! TD.AperFunction*
D17*
X73600000Y-66000000D03*
X74400000Y-66000000D03*
X72775000Y-69450000D03*
X68950000Y-69075000D03*
X69675000Y-86100000D03*
X78130400Y-81737192D03*
X76581000Y-83540600D03*
X76400000Y-84840900D03*
X81280000Y-89916000D03*
X77343000Y-84201000D03*
X66040000Y-81661000D03*
X66675000Y-84650000D03*
X64325000Y-67450000D03*
X76800000Y-66000000D03*
X74464799Y-72264808D03*
X75868189Y-72218370D03*
X72974200Y-73380600D03*
X71200000Y-66000000D03*
X69600000Y-66000000D03*
X65225002Y-66675000D03*
X65950002Y-65900000D03*
X65100000Y-65025000D03*
X64375000Y-65775000D03*
X70400000Y-66000000D03*
X76377800Y-80848200D03*
X67233800Y-82981800D03*
X69260941Y-79757258D03*
X67810090Y-81762600D03*
X79857600Y-77851000D03*
X81254600Y-77266800D03*
X75160110Y-72239899D03*
X75773503Y-73466914D03*
X70764400Y-73482200D03*
D18*
X68427600Y-75920600D03*
D17*
X70385196Y-72185196D03*
X73634600Y-72262998D03*
X77600000Y-66000000D03*
X76000000Y-66000000D03*
X75200000Y-66000000D03*
X72800000Y-66000000D03*
X72000000Y-66000000D03*
X80000000Y-66000000D03*
X79200000Y-66000000D03*
X78400000Y-66000000D03*
X73758098Y-69849098D03*
X77600042Y-72500000D03*
X71200000Y-72200000D03*
X79900000Y-72500000D03*
X79100000Y-72500000D03*
D18*
X77724000Y-88011000D03*
D17*
X78288917Y-72493330D03*
X75260200Y-82067400D03*
X74980800Y-83261200D03*
X75692000Y-81483200D03*
X75438000Y-83947000D03*
X69550000Y-88350000D03*
D19*
X69519392Y-70855278D02*
X69623907Y-70855278D01*
X67847057Y-69182943D02*
X69519392Y-70855278D01*
X79199000Y-85495000D02*
X79524000Y-85820000D01*
X79199000Y-84320000D02*
X79199000Y-85495000D01*
X80328841Y-76057053D02*
X80385894Y-76114106D01*
X78800000Y-76114106D02*
X78742947Y-76057053D01*
X80385894Y-76114106D02*
X78800000Y-76114106D01*
X78691000Y-81764000D02*
X78986000Y-81764000D01*
X78670000Y-81743000D02*
X78691000Y-81764000D01*
X78660500Y-80494000D02*
X78670000Y-80503500D01*
X78670000Y-80503500D02*
X78670000Y-81743000D01*
X78219795Y-76057053D02*
X77331371Y-75168629D01*
X78742947Y-76057053D02*
X78219795Y-76057053D01*
X72000000Y-68705888D02*
X72005888Y-68705888D01*
X71886648Y-68592536D02*
X72000000Y-68705888D01*
X69706370Y-68675000D02*
X70755277Y-69723907D01*
X69450000Y-68675000D02*
X69706370Y-68675000D01*
X79849000Y-86145000D02*
X79849000Y-87320000D01*
X79524000Y-85820000D02*
X79849000Y-86145000D01*
X80385894Y-76114106D02*
X80385894Y-76064106D01*
X71886648Y-68592536D02*
X71917536Y-68592536D01*
X71917536Y-68592536D02*
X72775000Y-69450000D01*
X69450000Y-68675000D02*
X69350000Y-68675000D01*
X69350000Y-68675000D02*
X68950000Y-69075000D01*
X69690000Y-86085000D02*
X69675000Y-86100000D01*
X69690000Y-85255000D02*
X69690000Y-86085000D01*
X66998529Y-70031472D02*
X66981472Y-70031472D01*
X78157208Y-81764000D02*
X78130400Y-81737192D01*
X78986000Y-81764000D02*
X78157208Y-81764000D01*
X80514106Y-76242318D02*
X80385894Y-76114106D01*
X80514106Y-78515294D02*
X80514106Y-76242318D01*
X78660500Y-80494000D02*
X78660500Y-80368900D01*
X78660500Y-80368900D02*
X80514106Y-78515294D01*
X76555600Y-82730200D02*
X76555600Y-83515200D01*
X76555600Y-83515200D02*
X76581000Y-83540600D01*
X76400000Y-85169400D02*
X76400000Y-84840900D01*
X75260200Y-85598000D02*
X75971400Y-85598000D01*
X75971400Y-85598000D02*
X76400000Y-85169400D01*
X79199000Y-83691000D02*
X79199000Y-84320000D01*
X78986000Y-81764000D02*
X79199000Y-81977000D01*
X79199000Y-81977000D02*
X79199000Y-83691000D01*
X79883000Y-89893000D02*
X81257000Y-89893000D01*
X81257000Y-89893000D02*
X81280000Y-89916000D01*
X79524000Y-85820000D02*
X78962000Y-85820000D01*
X76860400Y-84683600D02*
X77343000Y-84201000D01*
X76860400Y-86408400D02*
X76860400Y-84683600D01*
X78962000Y-85820000D02*
X77343000Y-84201000D01*
X64990000Y-80367000D02*
X67090000Y-80367000D01*
X66040000Y-80367000D02*
X66040000Y-81661000D01*
D20*
X65750000Y-83675000D02*
X65750000Y-83725000D01*
X65750000Y-83725000D02*
X66675000Y-84650000D01*
D19*
X66998529Y-70031472D02*
X66906472Y-70031472D01*
X66906472Y-70031472D02*
X64325000Y-67450000D01*
X77262910Y-68660996D02*
X76765685Y-69158221D01*
X76800000Y-66000000D02*
X77262910Y-66462910D01*
X77262910Y-66462910D02*
X77262910Y-68660996D01*
X69690000Y-83010000D02*
X69690000Y-83985000D01*
X69690000Y-82415000D02*
X69690000Y-83985000D01*
X63700000Y-81800000D02*
X64315000Y-82415000D01*
X63700000Y-67300000D02*
X63700000Y-81800000D01*
X76800000Y-65575736D02*
X76024264Y-64800000D01*
X76800000Y-66000000D02*
X76800000Y-65575736D01*
X76024264Y-64800000D02*
X66219554Y-64800000D01*
X66219554Y-64800000D02*
X64300000Y-66719554D01*
X64300000Y-66719554D02*
X64280446Y-66719554D01*
X64280446Y-66719554D02*
X63700000Y-67300000D01*
X64315000Y-82415000D02*
X65651000Y-82415000D01*
X69096000Y-81623000D02*
X69088000Y-81615000D01*
X69096000Y-82415000D02*
X69690000Y-82415000D01*
X69096000Y-82415000D02*
X69096000Y-81623000D01*
X65651000Y-82415000D02*
X69096000Y-82415000D01*
X71620399Y-77697620D02*
X72452334Y-76865685D01*
X70960000Y-85255000D02*
X71620399Y-84594601D01*
X71620399Y-84594601D02*
X71620399Y-77697620D01*
X74464799Y-72689072D02*
X74464799Y-72264808D01*
X74464799Y-74853221D02*
X74464799Y-72689072D01*
X72452334Y-76865685D02*
X72452335Y-76865685D01*
X72452335Y-76865685D02*
X74464799Y-74853221D01*
X74432234Y-76794976D02*
X74432234Y-76215166D01*
X75068629Y-77431371D02*
X74432234Y-76794976D01*
X75196689Y-73314134D02*
X75868189Y-72642634D01*
X75196689Y-75450711D02*
X75196689Y-73314134D01*
X74432234Y-76215166D02*
X75196689Y-75450711D01*
X75868189Y-72642634D02*
X75868189Y-72218370D01*
X75568190Y-71918371D02*
X75868189Y-72218370D01*
X75049220Y-71399400D02*
X75568190Y-71918371D01*
X73431400Y-71399400D02*
X75049220Y-71399400D01*
X72974200Y-73380600D02*
X72974200Y-71856600D01*
X72974200Y-71856600D02*
X73431400Y-71399400D01*
D21*
X70960000Y-83985000D02*
X70350000Y-84595000D01*
X70350000Y-84595000D02*
X70350000Y-85631028D01*
D19*
X72644000Y-82677000D02*
X72796400Y-82829400D01*
X72644000Y-79095600D02*
X72644000Y-82677000D01*
X75068629Y-77431371D02*
X74308229Y-77431371D01*
X74308229Y-77431371D02*
X72644000Y-79095600D01*
D21*
X70350000Y-85631028D02*
X70743972Y-86025000D01*
X70743972Y-86025000D02*
X71400000Y-86025000D01*
X71400000Y-86025000D02*
X71590000Y-85835000D01*
X71590000Y-85835000D02*
X71590000Y-85030000D01*
X71590000Y-85030000D02*
X71987200Y-84632800D01*
X72644000Y-84632800D02*
X72796400Y-84480400D01*
X71987200Y-84632800D02*
X72644000Y-84632800D01*
X72796400Y-84480400D02*
X72796400Y-82829400D01*
D19*
X79956000Y-80773500D02*
X80235500Y-80494000D01*
X79956000Y-81764000D02*
X79956000Y-80773500D01*
X75223950Y-76455321D02*
X75634314Y-76865685D01*
X77212500Y-78443871D02*
X75634314Y-76865685D01*
X77212500Y-78500000D02*
X77212500Y-78443871D01*
X76555600Y-81026000D02*
X76555600Y-81760200D01*
X76377800Y-80848200D02*
X76555600Y-81026000D01*
X80499000Y-83470600D02*
X80499000Y-84320000D01*
X80035600Y-83007200D02*
X80499000Y-83470600D01*
X73018629Y-77431371D02*
X73018019Y-77431371D01*
X72230000Y-83985000D02*
X72150000Y-83905000D01*
X72150000Y-78299390D02*
X73018019Y-77431371D01*
X72150000Y-83905000D02*
X72150000Y-78299390D01*
X73018019Y-77431371D02*
X73654414Y-76794976D01*
X74853778Y-72970495D02*
X75160110Y-72664163D01*
X74853778Y-75158622D02*
X74853778Y-72970495D01*
X73654414Y-76357986D02*
X74853778Y-75158622D01*
X75160110Y-72664163D02*
X75160110Y-72239899D01*
X73654414Y-76794976D02*
X73654414Y-76357986D01*
X69850000Y-74811968D02*
X69850000Y-75184000D01*
X75355553Y-70942200D02*
X73126600Y-70942200D01*
X70432592Y-74602944D02*
X70189592Y-74602944D01*
X76384090Y-72856327D02*
X76384090Y-71970737D01*
X72313800Y-72721736D02*
X70432592Y-74602944D01*
X72313800Y-71755000D02*
X72313800Y-72721736D01*
X76384090Y-71970737D02*
X75355553Y-70942200D01*
X73126600Y-70942200D02*
X72313800Y-71755000D01*
X75773503Y-73466914D02*
X76384090Y-72856327D01*
X75068629Y-67461165D02*
X74432234Y-68097560D01*
X71755000Y-72491600D02*
X71064399Y-73182201D01*
X71755000Y-71348600D02*
X71755000Y-72491600D01*
X74432234Y-68097560D02*
X74432234Y-69905596D01*
X72694800Y-70408800D02*
X71755000Y-71348600D01*
X74432234Y-69905596D02*
X73929030Y-70408800D01*
X71064399Y-73182201D02*
X70764400Y-73482200D01*
X73929030Y-70408800D02*
X72694800Y-70408800D01*
X70003306Y-75920600D02*
X70755277Y-75168629D01*
X68427600Y-75920600D02*
X70003306Y-75920600D01*
X70364804Y-72185196D02*
X70385196Y-72185196D01*
X69058221Y-73471573D02*
X69078427Y-73471573D01*
X69078427Y-73471573D02*
X70364804Y-72185196D01*
X68895427Y-73471573D02*
X67538600Y-74828400D01*
X69058221Y-73471573D02*
X68895427Y-73471573D01*
X69991678Y-77063600D02*
X69392800Y-77063600D01*
X71320963Y-75734315D02*
X69991678Y-77063600D01*
X71800000Y-76300000D02*
X71886648Y-76300000D01*
X71886648Y-76300000D02*
X73634600Y-74552048D01*
X73634600Y-74552048D02*
X73634600Y-72687262D01*
X73634600Y-72687262D02*
X73634600Y-72262998D01*
X70434200Y-77752448D02*
X70434200Y-77952600D01*
X71886648Y-76300000D02*
X70434200Y-77752448D01*
X77899999Y-69155279D02*
X77331371Y-69723907D01*
X77600000Y-66000000D02*
X77899999Y-66299999D01*
X77899999Y-66299999D02*
X77899999Y-69155279D01*
X76299999Y-66299999D02*
X76000000Y-66000000D01*
X76733400Y-66733400D02*
X76299999Y-66299999D01*
X76200000Y-68592536D02*
X76733400Y-68059136D01*
X76733400Y-68059136D02*
X76733400Y-66733400D01*
X76200000Y-67000000D02*
X75200000Y-66000000D01*
X75634314Y-68026851D02*
X76200000Y-67461165D01*
X76200000Y-67461165D02*
X76200000Y-67000000D01*
X72810000Y-67253146D02*
X73018019Y-67461165D01*
X72800000Y-66000000D02*
X72810000Y-66010000D01*
X72810000Y-66010000D02*
X72810000Y-67253146D01*
X72000000Y-67574517D02*
X72452334Y-68026851D01*
X72000000Y-66000000D02*
X72000000Y-67574517D01*
X79028427Y-71401573D02*
X79028427Y-71420963D01*
X80000000Y-66000000D02*
X80000000Y-70430000D01*
X80000000Y-70430000D02*
X79028427Y-71401573D01*
X79200000Y-70118019D02*
X78462741Y-70855278D01*
X79200000Y-66000000D02*
X79200000Y-70118019D01*
X78470000Y-69716648D02*
X77897056Y-70289592D01*
X78400000Y-66000000D02*
X78470000Y-66070000D01*
X78470000Y-66070000D02*
X78470000Y-69716648D01*
X76200000Y-76300000D02*
X75539600Y-75639600D01*
X75539600Y-75639600D02*
X75539600Y-74560442D01*
X75539600Y-74560442D02*
X77325000Y-72775042D01*
X77325000Y-72775042D02*
X77600042Y-72500000D01*
X70900001Y-72499999D02*
X71200000Y-72200000D01*
X69623907Y-73776093D02*
X70900001Y-72499999D01*
X69623907Y-74037258D02*
X69623907Y-73776093D01*
X79203083Y-74777600D02*
X78462741Y-74037258D01*
X79922400Y-74777600D02*
X79203083Y-74777600D01*
X80600000Y-74100000D02*
X79922400Y-74777600D01*
X79900000Y-72500000D02*
X80600000Y-73200000D01*
X80600000Y-73200000D02*
X80600000Y-74100000D01*
X79100000Y-73400000D02*
X79028427Y-73471573D01*
X79100000Y-72500000D02*
X79100000Y-73400000D01*
X78574401Y-87847401D02*
X78549000Y-87822000D01*
X78549000Y-87822000D02*
X78549000Y-87320000D01*
X80499000Y-87822000D02*
X80473599Y-87847401D01*
X80499000Y-87320000D02*
X80499000Y-87822000D01*
X78807000Y-88080000D02*
X78574401Y-87847401D01*
X80473599Y-87847401D02*
X80241000Y-88080000D01*
X76918800Y-87320000D02*
X76860400Y-87378400D01*
X75465600Y-87378400D02*
X75260200Y-87173000D01*
X76860400Y-87378400D02*
X75465600Y-87378400D01*
X77724000Y-87376000D02*
X77780000Y-87320000D01*
X77724000Y-88138000D02*
X77724000Y-87376000D01*
X78549000Y-87320000D02*
X77780000Y-87320000D01*
X77780000Y-87320000D02*
X76918800Y-87320000D01*
X79941000Y-88080000D02*
X78807000Y-88080000D01*
X80241000Y-88080000D02*
X79941000Y-88080000D01*
X78787500Y-77712500D02*
X78787500Y-78500000D01*
X79700000Y-76800000D02*
X78787500Y-77712500D01*
X78549000Y-83120000D02*
X78635000Y-83034000D01*
X78549000Y-83095600D02*
X78549000Y-84320000D01*
X78460600Y-83007200D02*
X78549000Y-83095600D01*
X77774317Y-76742947D02*
X76765685Y-75734315D01*
X78057053Y-76742947D02*
X77774317Y-76742947D01*
X66150000Y-70880000D02*
X66995000Y-71725000D01*
X68754184Y-71725000D02*
X69058221Y-71420963D01*
X66995000Y-71725000D02*
X68754184Y-71725000D01*
X78288917Y-72574617D02*
X78288917Y-72493330D01*
X77317600Y-73545934D02*
X78288917Y-72574617D01*
X77897056Y-74602944D02*
X77317600Y-74023488D01*
X77317600Y-74023488D02*
X77317600Y-73545934D01*
X75260200Y-82067400D02*
X75260200Y-82981800D01*
X75260200Y-82981800D02*
X74980800Y-83261200D01*
X75737999Y-83647001D02*
X75438000Y-83947000D01*
X75819000Y-83566000D02*
X75737999Y-83647001D01*
X75692000Y-81483200D02*
X75819000Y-81610200D01*
X75819000Y-81610200D02*
X75819000Y-83566000D01*
X72230000Y-87232000D02*
X72390000Y-87392000D01*
X72230000Y-85255000D02*
X72230000Y-87232000D01*
X69138800Y-79248000D02*
X69748306Y-78638494D01*
X65405000Y-79248000D02*
X69138800Y-79248000D01*
X64990000Y-77367000D02*
X64990000Y-78833000D01*
X64990000Y-78833000D02*
X65405000Y-79248000D01*
X66040000Y-76327000D02*
X66852706Y-75514294D01*
X66040000Y-77367000D02*
X66040000Y-76327000D01*
X67090000Y-77367000D02*
X67090000Y-78520000D01*
X67090000Y-78520000D02*
X67183000Y-78613000D01*
X67843400Y-78613000D02*
X68706906Y-77749494D01*
X67183000Y-78613000D02*
X67843400Y-78613000D01*
X79941000Y-88865000D02*
X79883000Y-88923000D01*
X71382000Y-89450000D02*
X71440000Y-89392000D01*
X69550000Y-88350000D02*
X70650000Y-89450000D01*
X70650000Y-89450000D02*
X71382000Y-89450000D01*
X79227000Y-88923000D02*
X79883000Y-88923000D01*
X77575000Y-90575000D02*
X79227000Y-88923000D01*
X72275000Y-90575000D02*
X77575000Y-90575000D01*
X71440000Y-89392000D02*
X71440000Y-89740000D01*
X71440000Y-89740000D02*
X72275000Y-90575000D01*
G36*
X82530084Y-90377010D02*
G01*
X81197282Y-91709813D01*
X65316969Y-91733621D01*
X64894687Y-91674156D01*
X64499171Y-91536301D01*
X64137964Y-91324250D01*
X63824823Y-91046078D01*
X63571678Y-90712382D01*
X63388168Y-90335870D01*
X63279715Y-89924936D01*
X63255756Y-89700454D01*
X63255158Y-87425000D01*
X64511928Y-87425000D01*
X64524188Y-87549482D01*
X64560498Y-87669180D01*
X64619463Y-87779494D01*
X64698815Y-87876185D01*
X64795506Y-87955537D01*
X64905820Y-88014502D01*
X65025518Y-88050812D01*
X65033553Y-88051603D01*
X64948280Y-88136876D01*
X64800101Y-88358641D01*
X64698034Y-88605053D01*
X64646000Y-88866643D01*
X64646000Y-89133357D01*
X64698034Y-89394947D01*
X64800101Y-89641359D01*
X64948280Y-89863124D01*
X65136876Y-90051720D01*
X65358641Y-90199899D01*
X65605053Y-90301966D01*
X65866643Y-90354000D01*
X66133357Y-90354000D01*
X66394947Y-90301966D01*
X66641359Y-90199899D01*
X66863124Y-90051720D01*
X67051720Y-89863124D01*
X67199899Y-89641359D01*
X67301966Y-89394947D01*
X67354000Y-89133357D01*
X67354000Y-88866643D01*
X67301966Y-88605053D01*
X67199899Y-88358641D01*
X67051720Y-88136876D01*
X66863124Y-87948280D01*
X66780559Y-87893112D01*
X66801185Y-87876185D01*
X66880537Y-87779494D01*
X66939502Y-87669180D01*
X66975812Y-87549482D01*
X66988072Y-87425000D01*
X66985000Y-87260750D01*
X66826250Y-87102000D01*
X65877000Y-87102000D01*
X65877000Y-87122000D01*
X65623000Y-87122000D01*
X65623000Y-87102000D01*
X64673750Y-87102000D01*
X64515000Y-87260750D01*
X64511928Y-87425000D01*
X63255158Y-87425000D01*
X63254922Y-86525000D01*
X64511928Y-86525000D01*
X64515000Y-86689250D01*
X64673750Y-86848000D01*
X65623000Y-86848000D01*
X65623000Y-86048750D01*
X65877000Y-86048750D01*
X65877000Y-86848000D01*
X66826250Y-86848000D01*
X66985000Y-86689250D01*
X66988072Y-86525000D01*
X66975812Y-86400518D01*
X66939502Y-86280820D01*
X66880537Y-86170506D01*
X66801185Y-86073815D01*
X66704494Y-85994463D01*
X66594180Y-85935498D01*
X66474482Y-85899188D01*
X66350000Y-85886928D01*
X66035750Y-85890000D01*
X65877000Y-86048750D01*
X65623000Y-86048750D01*
X65464250Y-85890000D01*
X65150000Y-85886928D01*
X65025518Y-85899188D01*
X64905820Y-85935498D01*
X64795506Y-85994463D01*
X64698815Y-86073815D01*
X64619463Y-86170506D01*
X64560498Y-86280820D01*
X64524188Y-86400518D01*
X64511928Y-86525000D01*
X63254922Y-86525000D01*
X63254055Y-83225000D01*
X64894772Y-83225000D01*
X64894772Y-84125000D01*
X64899676Y-84174793D01*
X64914200Y-84222672D01*
X64937786Y-84266797D01*
X64969527Y-84305473D01*
X65008203Y-84337214D01*
X65052328Y-84360800D01*
X65100207Y-84375324D01*
X65150000Y-84380228D01*
X65686808Y-84380228D01*
X66159340Y-84852760D01*
X66184051Y-84912418D01*
X66244680Y-85003155D01*
X66321845Y-85080320D01*
X66412582Y-85140949D01*
X66513404Y-85182711D01*
X66620436Y-85204000D01*
X66729564Y-85204000D01*
X66836596Y-85182711D01*
X66937418Y-85140949D01*
X67028155Y-85080320D01*
X67105320Y-85003155D01*
X67165949Y-84912418D01*
X67207711Y-84811596D01*
X67229000Y-84704564D01*
X67229000Y-84595436D01*
X67207711Y-84488404D01*
X67165949Y-84387582D01*
X67105320Y-84296845D01*
X67028155Y-84219680D01*
X66937418Y-84159051D01*
X66877760Y-84134340D01*
X66605228Y-83861808D01*
X66605228Y-83225000D01*
X66600324Y-83175207D01*
X66585800Y-83127328D01*
X66562214Y-83083203D01*
X66530473Y-83044527D01*
X66491797Y-83012786D01*
X66447672Y-82989200D01*
X66399793Y-82974676D01*
X66350000Y-82969772D01*
X65150000Y-82969772D01*
X65100207Y-82974676D01*
X65052328Y-82989200D01*
X65008203Y-83012786D01*
X64969527Y-83044527D01*
X64937786Y-83083203D01*
X64914200Y-83127328D01*
X64899676Y-83175207D01*
X64894772Y-83225000D01*
X63254055Y-83225000D01*
X63249868Y-67300000D01*
X63317157Y-67300000D01*
X63319000Y-67318710D01*
X63319001Y-81781280D01*
X63317157Y-81800000D01*
X63324514Y-81874688D01*
X63346299Y-81946507D01*
X63381678Y-82012696D01*
X63403687Y-82039513D01*
X63429290Y-82070711D01*
X63443827Y-82082641D01*
X64032359Y-82671174D01*
X64044289Y-82685711D01*
X64070474Y-82707200D01*
X64102303Y-82733322D01*
X64113467Y-82739289D01*
X64168492Y-82768701D01*
X64240311Y-82790487D01*
X64296287Y-82796000D01*
X64296296Y-82796000D01*
X64314999Y-82797842D01*
X64333702Y-82796000D01*
X69077287Y-82796000D01*
X69096000Y-82797843D01*
X69114713Y-82796000D01*
X69309000Y-82796000D01*
X69309000Y-83460594D01*
X69277115Y-83481899D01*
X69186899Y-83572115D01*
X69169300Y-83598454D01*
X69169300Y-83530200D01*
X69140505Y-83385437D01*
X69084021Y-83249073D01*
X69002020Y-83126349D01*
X68897651Y-83021980D01*
X68774927Y-82939979D01*
X68638563Y-82883495D01*
X68493800Y-82854700D01*
X68346200Y-82854700D01*
X68201437Y-82883495D01*
X68065073Y-82939979D01*
X67942349Y-83021980D01*
X67837980Y-83126349D01*
X67755979Y-83249073D01*
X67699495Y-83385437D01*
X67670700Y-83530200D01*
X67670700Y-83677800D01*
X67699495Y-83822563D01*
X67755979Y-83958927D01*
X67837980Y-84081651D01*
X67942349Y-84186020D01*
X68065073Y-84268021D01*
X68201437Y-84324505D01*
X68346200Y-84353300D01*
X68493800Y-84353300D01*
X68638563Y-84324505D01*
X68774927Y-84268021D01*
X68897651Y-84186020D01*
X69002020Y-84081651D01*
X69042300Y-84021367D01*
X69042300Y-84048793D01*
X69067191Y-84173927D01*
X69116016Y-84291801D01*
X69186899Y-84397885D01*
X69277115Y-84488101D01*
X69383199Y-84558984D01*
X69501073Y-84607809D01*
X69562361Y-84620000D01*
X69501073Y-84632191D01*
X69383199Y-84681016D01*
X69277115Y-84751899D01*
X69186899Y-84842115D01*
X69116016Y-84948199D01*
X69067191Y-85066073D01*
X69042300Y-85191207D01*
X69042300Y-85218633D01*
X69002020Y-85158349D01*
X68897651Y-85053980D01*
X68774927Y-84971979D01*
X68638563Y-84915495D01*
X68493800Y-84886700D01*
X68346200Y-84886700D01*
X68201437Y-84915495D01*
X68065073Y-84971979D01*
X67942349Y-85053980D01*
X67837980Y-85158349D01*
X67755979Y-85281073D01*
X67699495Y-85417437D01*
X67670700Y-85562200D01*
X67670700Y-85709800D01*
X67699495Y-85854563D01*
X67755979Y-85990927D01*
X67837980Y-86113651D01*
X67942349Y-86218020D01*
X68065073Y-86300021D01*
X68201437Y-86356505D01*
X68346200Y-86385300D01*
X68493800Y-86385300D01*
X68638563Y-86356505D01*
X68774927Y-86300021D01*
X68897651Y-86218020D01*
X69002020Y-86113651D01*
X69084021Y-85990927D01*
X69140505Y-85854563D01*
X69169300Y-85709800D01*
X69169300Y-85641546D01*
X69186899Y-85667885D01*
X69255270Y-85736256D01*
X69244680Y-85746845D01*
X69184051Y-85837582D01*
X69142289Y-85938404D01*
X69121000Y-86045436D01*
X69121000Y-86154564D01*
X69142289Y-86261596D01*
X69184051Y-86362418D01*
X69244680Y-86453155D01*
X69321845Y-86530320D01*
X69412582Y-86590949D01*
X69513404Y-86632711D01*
X69620436Y-86654000D01*
X69729564Y-86654000D01*
X69836596Y-86632711D01*
X69937418Y-86590949D01*
X70028155Y-86530320D01*
X70105320Y-86453155D01*
X70165949Y-86362418D01*
X70207711Y-86261596D01*
X70229000Y-86154564D01*
X70229000Y-86045436D01*
X70207711Y-85938404D01*
X70207249Y-85937290D01*
X70508435Y-86238476D01*
X70518379Y-86250593D01*
X70555211Y-86280820D01*
X70566725Y-86290269D01*
X70621882Y-86319751D01*
X70681731Y-86337906D01*
X70743972Y-86344037D01*
X70759575Y-86342500D01*
X71384404Y-86342500D01*
X71400000Y-86344036D01*
X71415596Y-86342500D01*
X71462241Y-86337906D01*
X71522090Y-86319751D01*
X71577247Y-86290269D01*
X71625593Y-86250593D01*
X71635542Y-86238470D01*
X71803471Y-86070541D01*
X71815593Y-86060593D01*
X71849000Y-86019885D01*
X71849001Y-86729360D01*
X71848203Y-86729786D01*
X71809527Y-86761527D01*
X71777786Y-86800203D01*
X71754200Y-86844328D01*
X71739676Y-86892207D01*
X71734772Y-86942000D01*
X71734772Y-87842000D01*
X71739676Y-87891793D01*
X71754200Y-87939672D01*
X71777786Y-87983797D01*
X71809527Y-88022473D01*
X71848203Y-88054214D01*
X71892328Y-88077800D01*
X71940207Y-88092324D01*
X71990000Y-88097228D01*
X72790000Y-88097228D01*
X72839793Y-88092324D01*
X72887672Y-88077800D01*
X72931797Y-88054214D01*
X72970473Y-88022473D01*
X73002214Y-87983797D01*
X73025800Y-87939672D01*
X73040324Y-87891793D01*
X73045228Y-87842000D01*
X73045228Y-86942000D01*
X73040324Y-86892207D01*
X73025800Y-86844328D01*
X73002214Y-86800203D01*
X72970473Y-86761527D01*
X72931797Y-86729786D01*
X72887672Y-86706200D01*
X72839793Y-86691676D01*
X72790000Y-86686772D01*
X72611000Y-86686772D01*
X72611000Y-85779406D01*
X72642885Y-85758101D01*
X72733101Y-85667885D01*
X72803984Y-85561801D01*
X72852809Y-85443927D01*
X72877700Y-85318793D01*
X72877700Y-85191207D01*
X72852809Y-85066073D01*
X72803984Y-84948199D01*
X72783846Y-84918060D01*
X72807244Y-84905554D01*
X72835979Y-84974927D01*
X72917980Y-85097651D01*
X73022349Y-85202020D01*
X73145073Y-85284021D01*
X73281437Y-85340505D01*
X73426200Y-85369300D01*
X73573800Y-85369300D01*
X73718563Y-85340505D01*
X73854927Y-85284021D01*
X73977651Y-85202020D01*
X74082020Y-85097651D01*
X74164021Y-84974927D01*
X74220505Y-84838563D01*
X74249300Y-84693800D01*
X74249300Y-84546200D01*
X74220505Y-84401437D01*
X74164021Y-84265073D01*
X74082020Y-84142349D01*
X73977651Y-84037980D01*
X73854927Y-83955979D01*
X73718563Y-83899495D01*
X73573800Y-83870700D01*
X73426200Y-83870700D01*
X73281437Y-83899495D01*
X73145073Y-83955979D01*
X73113900Y-83976808D01*
X73113900Y-83043098D01*
X73114722Y-83042096D01*
X73150101Y-82975907D01*
X73171886Y-82904088D01*
X73179243Y-82829399D01*
X73171886Y-82754711D01*
X73150101Y-82682892D01*
X73114722Y-82616704D01*
X73079039Y-82573225D01*
X73025000Y-82519186D01*
X73025000Y-79253414D01*
X73303414Y-78975000D01*
X76136928Y-78975000D01*
X76149188Y-79099482D01*
X76185498Y-79219180D01*
X76244463Y-79329494D01*
X76323815Y-79426185D01*
X76420506Y-79505537D01*
X76530820Y-79564502D01*
X76650518Y-79600812D01*
X76775000Y-79613072D01*
X76926750Y-79610000D01*
X77085500Y-79451250D01*
X77085500Y-78627000D01*
X76298750Y-78627000D01*
X76140000Y-78785750D01*
X76136928Y-78975000D01*
X73303414Y-78975000D01*
X74466044Y-77812371D01*
X74699774Y-77812371D01*
X75259387Y-78371984D01*
X75298063Y-78403725D01*
X75342188Y-78427311D01*
X75390067Y-78441835D01*
X75439860Y-78446739D01*
X75489653Y-78441835D01*
X75537532Y-78427311D01*
X75581657Y-78403725D01*
X75620333Y-78371984D01*
X75773541Y-78218776D01*
X75878055Y-78251030D01*
X76002476Y-78263890D01*
X76127015Y-78252227D01*
X76166274Y-78240524D01*
X76298750Y-78373000D01*
X77085500Y-78373000D01*
X77085500Y-77548750D01*
X76991986Y-77455236D01*
X77020856Y-77358386D01*
X77032519Y-77233847D01*
X77019659Y-77109426D01*
X76987405Y-77004912D01*
X77140613Y-76851704D01*
X77172354Y-76813028D01*
X77195940Y-76768903D01*
X77204935Y-76739250D01*
X77225551Y-76732996D01*
X77491676Y-76999121D01*
X77503606Y-77013658D01*
X77518141Y-77025586D01*
X77561620Y-77061269D01*
X77627137Y-77096289D01*
X77627809Y-77096648D01*
X77634706Y-77098740D01*
X77789959Y-77253993D01*
X77850987Y-77304077D01*
X77920614Y-77341293D01*
X77996163Y-77364211D01*
X78074731Y-77371949D01*
X78153299Y-77364211D01*
X78228848Y-77341293D01*
X78298475Y-77304077D01*
X78359503Y-77253993D01*
X78568099Y-77045397D01*
X78618183Y-76984369D01*
X78655399Y-76914742D01*
X78678317Y-76839193D01*
X78686055Y-76760625D01*
X78678317Y-76682057D01*
X78676688Y-76676688D01*
X78682057Y-76678317D01*
X78760625Y-76686055D01*
X78839193Y-76678317D01*
X78914742Y-76655399D01*
X78984369Y-76618183D01*
X79045397Y-76568099D01*
X79118390Y-76495106D01*
X79191398Y-76495106D01*
X79188954Y-76497550D01*
X79138870Y-76558578D01*
X79101654Y-76628205D01*
X79078736Y-76703754D01*
X79070998Y-76782322D01*
X79078736Y-76860890D01*
X79083754Y-76877431D01*
X78531332Y-77429854D01*
X78516789Y-77441789D01*
X78486429Y-77478784D01*
X78469178Y-77499804D01*
X78443016Y-77548750D01*
X78433799Y-77565993D01*
X78412013Y-77637812D01*
X78408370Y-77674806D01*
X78404657Y-77712500D01*
X78406500Y-77731211D01*
X78406500Y-77800047D01*
X78387366Y-77805851D01*
X78305422Y-77849652D01*
X78269360Y-77879247D01*
X78239502Y-77780820D01*
X78180537Y-77670506D01*
X78101185Y-77573815D01*
X78004494Y-77494463D01*
X77894180Y-77435498D01*
X77774482Y-77399188D01*
X77650000Y-77386928D01*
X77498250Y-77390000D01*
X77339500Y-77548750D01*
X77339500Y-78373000D01*
X77359500Y-78373000D01*
X77359500Y-78627000D01*
X77339500Y-78627000D01*
X77339500Y-79451250D01*
X77498250Y-79610000D01*
X77650000Y-79613072D01*
X77774482Y-79600812D01*
X77894180Y-79564502D01*
X78004494Y-79505537D01*
X78101185Y-79426185D01*
X78180537Y-79329494D01*
X78239502Y-79219180D01*
X78269360Y-79120753D01*
X78305422Y-79150348D01*
X78387366Y-79194149D01*
X78476281Y-79221121D01*
X78568750Y-79230228D01*
X79006250Y-79230228D01*
X79098719Y-79221121D01*
X79187634Y-79194149D01*
X79269578Y-79150348D01*
X79341403Y-79091403D01*
X79400348Y-79019578D01*
X79444149Y-78937634D01*
X79471121Y-78848719D01*
X79480228Y-78756250D01*
X79480228Y-78243750D01*
X79471121Y-78151281D01*
X79444149Y-78062366D01*
X79400348Y-77980422D01*
X79341403Y-77908597D01*
X79269578Y-77849652D01*
X79217174Y-77821641D01*
X79622569Y-77416246D01*
X79639110Y-77421264D01*
X79717678Y-77429002D01*
X79796246Y-77421264D01*
X79871795Y-77398346D01*
X79941422Y-77361130D01*
X80002450Y-77311046D01*
X80133107Y-77180389D01*
X80133106Y-78357479D01*
X78726814Y-79763772D01*
X78441750Y-79763772D01*
X78349281Y-79772879D01*
X78260366Y-79799851D01*
X78178422Y-79843652D01*
X78106597Y-79902597D01*
X78047652Y-79974422D01*
X78003851Y-80056366D01*
X77976879Y-80145281D01*
X77967772Y-80237750D01*
X77967772Y-80750250D01*
X77976879Y-80842719D01*
X78003851Y-80931634D01*
X78047652Y-81013578D01*
X78106597Y-81085403D01*
X78178422Y-81144348D01*
X78260366Y-81188149D01*
X78289001Y-81196835D01*
X78289001Y-81203885D01*
X78184964Y-81183192D01*
X78075836Y-81183192D01*
X77968804Y-81204481D01*
X77867982Y-81246243D01*
X77777245Y-81306872D01*
X77700080Y-81384037D01*
X77639451Y-81474774D01*
X77597689Y-81575596D01*
X77576400Y-81682628D01*
X77576400Y-81791756D01*
X77597689Y-81898788D01*
X77639451Y-81999610D01*
X77700080Y-82090347D01*
X77777245Y-82167512D01*
X77867982Y-82228141D01*
X77968804Y-82269903D01*
X78075836Y-82291192D01*
X78132526Y-82291192D01*
X78060466Y-82313051D01*
X77978522Y-82356852D01*
X77906697Y-82415797D01*
X77847752Y-82487622D01*
X77803951Y-82569566D01*
X77776979Y-82658481D01*
X77767872Y-82750950D01*
X77767872Y-83263450D01*
X77776979Y-83355919D01*
X77803951Y-83444834D01*
X77847752Y-83526778D01*
X77906697Y-83598603D01*
X77978522Y-83657548D01*
X78060466Y-83701349D01*
X78149381Y-83728321D01*
X78168001Y-83730155D01*
X78168001Y-83795631D01*
X78161786Y-83803203D01*
X78138200Y-83847328D01*
X78123676Y-83895207D01*
X78118772Y-83945000D01*
X78118772Y-84437958D01*
X77897000Y-84216186D01*
X77897000Y-84146436D01*
X77875711Y-84039404D01*
X77833949Y-83938582D01*
X77773320Y-83847845D01*
X77696155Y-83770680D01*
X77605418Y-83710051D01*
X77504596Y-83668289D01*
X77397564Y-83647000D01*
X77288436Y-83647000D01*
X77181404Y-83668289D01*
X77114983Y-83695802D01*
X77135000Y-83595164D01*
X77135000Y-83486036D01*
X77113711Y-83379004D01*
X77071949Y-83278182D01*
X77011320Y-83187445D01*
X76998303Y-83174428D01*
X77012872Y-83162472D01*
X77062956Y-83101444D01*
X77100172Y-83031817D01*
X77123090Y-82956268D01*
X77130828Y-82877700D01*
X77130828Y-82638797D01*
X77230094Y-82585737D01*
X77326785Y-82506385D01*
X77406137Y-82409694D01*
X77465102Y-82299380D01*
X77501412Y-82179682D01*
X77513672Y-82055200D01*
X77510600Y-82045950D01*
X77351850Y-81887200D01*
X76682600Y-81887200D01*
X76682600Y-81907200D01*
X76428600Y-81907200D01*
X76428600Y-81887200D01*
X76408600Y-81887200D01*
X76408600Y-81633200D01*
X76428600Y-81633200D01*
X76428600Y-80988950D01*
X76682600Y-80988950D01*
X76682600Y-81633200D01*
X77351850Y-81633200D01*
X77510600Y-81474450D01*
X77513672Y-81465200D01*
X77501412Y-81340718D01*
X77465102Y-81221020D01*
X77406137Y-81110706D01*
X77326785Y-81014015D01*
X77230094Y-80934663D01*
X77119780Y-80875698D01*
X77000082Y-80839388D01*
X76875600Y-80827128D01*
X76841350Y-80830200D01*
X76682600Y-80988950D01*
X76428600Y-80988950D01*
X76269850Y-80830200D01*
X76235600Y-80827128D01*
X76111118Y-80839388D01*
X75991420Y-80875698D01*
X75881106Y-80934663D01*
X75859063Y-80952753D01*
X75853596Y-80950489D01*
X75746564Y-80929200D01*
X75637436Y-80929200D01*
X75530404Y-80950489D01*
X75429582Y-80992251D01*
X75338845Y-81052880D01*
X75261680Y-81130045D01*
X75201051Y-81220782D01*
X75159289Y-81321604D01*
X75138000Y-81428636D01*
X75138000Y-81526853D01*
X75098604Y-81534689D01*
X74997782Y-81576451D01*
X74907045Y-81637080D01*
X74829880Y-81714245D01*
X74769251Y-81804982D01*
X74727489Y-81905804D01*
X74706200Y-82012836D01*
X74706200Y-82121964D01*
X74727489Y-82228996D01*
X74769251Y-82329818D01*
X74829880Y-82420555D01*
X74879200Y-82469875D01*
X74879201Y-82716555D01*
X74819204Y-82728489D01*
X74718382Y-82770251D01*
X74627645Y-82830880D01*
X74550480Y-82908045D01*
X74489851Y-82998782D01*
X74448089Y-83099604D01*
X74426800Y-83206636D01*
X74426800Y-83315764D01*
X74448089Y-83422796D01*
X74489851Y-83523618D01*
X74550480Y-83614355D01*
X74627645Y-83691520D01*
X74718382Y-83752149D01*
X74819204Y-83793911D01*
X74900385Y-83810058D01*
X74884000Y-83892436D01*
X74884000Y-84001564D01*
X74905289Y-84108596D01*
X74947051Y-84209418D01*
X75007680Y-84300155D01*
X75084845Y-84377320D01*
X75175582Y-84437949D01*
X75276404Y-84479711D01*
X75383436Y-84501000D01*
X75492564Y-84501000D01*
X75599596Y-84479711D01*
X75700418Y-84437949D01*
X75791155Y-84377320D01*
X75868320Y-84300155D01*
X75928949Y-84209418D01*
X75970711Y-84108596D01*
X75992000Y-84001564D01*
X75992000Y-83931816D01*
X76020639Y-83903177D01*
X76020648Y-83903166D01*
X76075168Y-83848646D01*
X76089711Y-83836711D01*
X76102308Y-83821361D01*
X76150680Y-83893755D01*
X76227845Y-83970920D01*
X76318582Y-84031549D01*
X76419404Y-84073311D01*
X76526436Y-84094600D01*
X76635564Y-84094600D01*
X76742596Y-84073311D01*
X76809017Y-84045798D01*
X76789000Y-84146436D01*
X76789000Y-84216186D01*
X76657339Y-84347847D01*
X76561596Y-84308189D01*
X76454564Y-84286900D01*
X76345436Y-84286900D01*
X76238404Y-84308189D01*
X76137582Y-84349951D01*
X76046845Y-84410580D01*
X75969680Y-84487745D01*
X75909051Y-84578482D01*
X75867289Y-84679304D01*
X75846000Y-84786336D01*
X75846000Y-84895464D01*
X75867289Y-85002496D01*
X75909051Y-85103318D01*
X75916348Y-85114238D01*
X75911982Y-85118604D01*
X75910548Y-85115922D01*
X75851603Y-85044097D01*
X75779778Y-84985152D01*
X75697834Y-84941351D01*
X75608919Y-84914379D01*
X75516450Y-84905272D01*
X75003950Y-84905272D01*
X74911481Y-84914379D01*
X74822566Y-84941351D01*
X74740622Y-84985152D01*
X74668797Y-85044097D01*
X74609852Y-85115922D01*
X74566051Y-85197866D01*
X74539079Y-85286781D01*
X74529972Y-85379250D01*
X74529972Y-85816750D01*
X74539079Y-85909219D01*
X74566051Y-85998134D01*
X74609852Y-86080078D01*
X74668797Y-86151903D01*
X74740622Y-86210848D01*
X74822566Y-86254649D01*
X74911481Y-86281621D01*
X75003950Y-86290728D01*
X75516450Y-86290728D01*
X75608919Y-86281621D01*
X75697834Y-86254649D01*
X75779778Y-86210848D01*
X75851603Y-86151903D01*
X75910548Y-86080078D01*
X75954349Y-85998134D01*
X75959937Y-85979714D01*
X75971400Y-85980843D01*
X75990110Y-85979000D01*
X75990113Y-85979000D01*
X76046089Y-85973487D01*
X76117908Y-85951701D01*
X76184096Y-85916322D01*
X76242111Y-85868711D01*
X76254046Y-85854169D01*
X76479400Y-85628814D01*
X76479400Y-85917896D01*
X76464156Y-85926044D01*
X76403128Y-85976128D01*
X76353044Y-86037156D01*
X76315828Y-86106783D01*
X76292910Y-86182332D01*
X76285172Y-86260900D01*
X76285172Y-86555900D01*
X76292910Y-86634468D01*
X76315828Y-86710017D01*
X76353044Y-86779644D01*
X76403128Y-86840672D01*
X76464156Y-86890756D01*
X76469103Y-86893400D01*
X76464156Y-86896044D01*
X76403128Y-86946128D01*
X76361050Y-86997400D01*
X75990428Y-86997400D01*
X75990428Y-86954250D01*
X75981321Y-86861781D01*
X75954349Y-86772866D01*
X75910548Y-86690922D01*
X75851603Y-86619097D01*
X75779778Y-86560152D01*
X75697834Y-86516351D01*
X75608919Y-86489379D01*
X75516450Y-86480272D01*
X75003950Y-86480272D01*
X74911481Y-86489379D01*
X74822566Y-86516351D01*
X74740622Y-86560152D01*
X74668797Y-86619097D01*
X74609852Y-86690922D01*
X74566051Y-86772866D01*
X74539079Y-86861781D01*
X74529972Y-86954250D01*
X74529972Y-87391750D01*
X74539079Y-87484219D01*
X74566051Y-87573134D01*
X74609852Y-87655078D01*
X74668797Y-87726903D01*
X74740622Y-87785848D01*
X74822566Y-87829649D01*
X74911481Y-87856621D01*
X75003950Y-87865728D01*
X75516450Y-87865728D01*
X75608919Y-87856621D01*
X75697834Y-87829649D01*
X75779778Y-87785848D01*
X75812005Y-87759400D01*
X76361050Y-87759400D01*
X76403128Y-87810672D01*
X76464156Y-87860756D01*
X76533783Y-87897972D01*
X76609332Y-87920890D01*
X76687900Y-87928628D01*
X77032900Y-87928628D01*
X77074385Y-87924542D01*
X77070000Y-87946587D01*
X77070000Y-88075413D01*
X77095133Y-88201765D01*
X77144433Y-88320785D01*
X77216005Y-88427900D01*
X77307100Y-88518995D01*
X77414215Y-88590567D01*
X77533235Y-88639867D01*
X77659587Y-88665000D01*
X77788413Y-88665000D01*
X77914765Y-88639867D01*
X78033785Y-88590567D01*
X78140900Y-88518995D01*
X78231995Y-88427900D01*
X78303567Y-88320785D01*
X78352867Y-88201765D01*
X78359020Y-88170834D01*
X78524358Y-88336173D01*
X78536289Y-88350711D01*
X78550824Y-88362639D01*
X78550825Y-88362640D01*
X78594303Y-88398322D01*
X78643630Y-88424688D01*
X78660492Y-88433701D01*
X78732311Y-88455487D01*
X78788287Y-88461000D01*
X78788290Y-88461000D01*
X78807000Y-88462843D01*
X78825710Y-88461000D01*
X79461952Y-88461000D01*
X79425728Y-88490728D01*
X79383650Y-88542000D01*
X79245710Y-88542000D01*
X79227000Y-88540157D01*
X79208290Y-88542000D01*
X79208287Y-88542000D01*
X79152311Y-88547513D01*
X79080492Y-88569299D01*
X79014303Y-88604678D01*
X78984972Y-88628750D01*
X78956289Y-88652289D01*
X78944360Y-88666825D01*
X77417186Y-90194000D01*
X74271870Y-90194000D01*
X74329502Y-90086180D01*
X74365812Y-89966482D01*
X74378072Y-89842000D01*
X74375000Y-89677750D01*
X74216250Y-89519000D01*
X73467000Y-89519000D01*
X73467000Y-89539000D01*
X73213000Y-89539000D01*
X73213000Y-89519000D01*
X72463750Y-89519000D01*
X72305000Y-89677750D01*
X72301928Y-89842000D01*
X72314188Y-89966482D01*
X72350498Y-90086180D01*
X72379784Y-90140969D01*
X72093936Y-89855121D01*
X72095228Y-89842000D01*
X72095228Y-88942000D01*
X72301928Y-88942000D01*
X72305000Y-89106250D01*
X72463750Y-89265000D01*
X73213000Y-89265000D01*
X73213000Y-88465750D01*
X73467000Y-88465750D01*
X73467000Y-89265000D01*
X74216250Y-89265000D01*
X74375000Y-89106250D01*
X74378072Y-88942000D01*
X74365812Y-88817518D01*
X74329502Y-88697820D01*
X74270537Y-88587506D01*
X74191185Y-88490815D01*
X74094494Y-88411463D01*
X73984180Y-88352498D01*
X73864482Y-88316188D01*
X73740000Y-88303928D01*
X73625750Y-88307000D01*
X73467000Y-88465750D01*
X73213000Y-88465750D01*
X73054250Y-88307000D01*
X72940000Y-88303928D01*
X72815518Y-88316188D01*
X72695820Y-88352498D01*
X72585506Y-88411463D01*
X72488815Y-88490815D01*
X72409463Y-88587506D01*
X72350498Y-88697820D01*
X72314188Y-88817518D01*
X72301928Y-88942000D01*
X72095228Y-88942000D01*
X72090324Y-88892207D01*
X72075800Y-88844328D01*
X72052214Y-88800203D01*
X72020473Y-88761527D01*
X71981797Y-88729786D01*
X71937672Y-88706200D01*
X71889793Y-88691676D01*
X71840000Y-88686772D01*
X71040000Y-88686772D01*
X70990207Y-88691676D01*
X70942328Y-88706200D01*
X70898203Y-88729786D01*
X70859527Y-88761527D01*
X70827786Y-88800203D01*
X70804200Y-88844328D01*
X70789676Y-88892207D01*
X70784772Y-88942000D01*
X70784772Y-89045957D01*
X70104000Y-88365186D01*
X70104000Y-88295436D01*
X70082711Y-88188404D01*
X70040949Y-88087582D01*
X69980320Y-87996845D01*
X69903155Y-87919680D01*
X69812418Y-87859051D01*
X69711596Y-87817289D01*
X69604564Y-87796000D01*
X69495436Y-87796000D01*
X69388404Y-87817289D01*
X69287582Y-87859051D01*
X69196845Y-87919680D01*
X69119680Y-87996845D01*
X69059051Y-88087582D01*
X69017289Y-88188404D01*
X68996000Y-88295436D01*
X68996000Y-88404564D01*
X69017289Y-88511596D01*
X69059051Y-88612418D01*
X69119680Y-88703155D01*
X69196845Y-88780320D01*
X69287582Y-88840949D01*
X69388404Y-88882711D01*
X69495436Y-88904000D01*
X69565186Y-88904000D01*
X70367359Y-89706174D01*
X70379289Y-89720711D01*
X70393824Y-89732639D01*
X70437303Y-89768322D01*
X70503492Y-89803701D01*
X70575311Y-89825487D01*
X70631287Y-89831000D01*
X70631290Y-89831000D01*
X70650000Y-89832843D01*
X70668710Y-89831000D01*
X70784772Y-89831000D01*
X70784772Y-89842000D01*
X70789676Y-89891793D01*
X70804200Y-89939672D01*
X70827786Y-89983797D01*
X70859527Y-90022473D01*
X70898203Y-90054214D01*
X70942328Y-90077800D01*
X70990207Y-90092324D01*
X71040000Y-90097228D01*
X71258414Y-90097228D01*
X71992359Y-90831174D01*
X72004289Y-90845711D01*
X72018824Y-90857639D01*
X72062303Y-90893322D01*
X72074876Y-90900042D01*
X72128492Y-90928701D01*
X72200311Y-90950487D01*
X72256287Y-90956000D01*
X72256296Y-90956000D01*
X72274999Y-90957842D01*
X72293702Y-90956000D01*
X77556290Y-90956000D01*
X77575000Y-90957843D01*
X77593710Y-90956000D01*
X77593713Y-90956000D01*
X77649689Y-90950487D01*
X77721508Y-90928701D01*
X77787696Y-90893322D01*
X77845711Y-90845711D01*
X77857646Y-90831168D01*
X79384175Y-89304640D01*
X79425728Y-89355272D01*
X79486756Y-89405356D01*
X79491703Y-89408000D01*
X79486756Y-89410644D01*
X79425728Y-89460728D01*
X79375644Y-89521756D01*
X79338428Y-89591383D01*
X79315510Y-89666932D01*
X79307772Y-89745500D01*
X79307772Y-90040500D01*
X79315510Y-90119068D01*
X79338428Y-90194617D01*
X79375644Y-90264244D01*
X79425728Y-90325272D01*
X79486756Y-90375356D01*
X79556383Y-90412572D01*
X79631932Y-90435490D01*
X79710500Y-90443228D01*
X80055500Y-90443228D01*
X80134068Y-90435490D01*
X80209617Y-90412572D01*
X80279244Y-90375356D01*
X80340272Y-90325272D01*
X80382350Y-90274000D01*
X80854525Y-90274000D01*
X80926845Y-90346320D01*
X81017582Y-90406949D01*
X81118404Y-90448711D01*
X81225436Y-90470000D01*
X81334564Y-90470000D01*
X81441596Y-90448711D01*
X81542418Y-90406949D01*
X81633155Y-90346320D01*
X81710320Y-90269155D01*
X81770949Y-90178418D01*
X81812711Y-90077596D01*
X81834000Y-89970564D01*
X81834000Y-89861436D01*
X81812711Y-89754404D01*
X81770949Y-89653582D01*
X81710320Y-89562845D01*
X81633155Y-89485680D01*
X81542418Y-89425051D01*
X81441596Y-89383289D01*
X81334564Y-89362000D01*
X81225436Y-89362000D01*
X81118404Y-89383289D01*
X81017582Y-89425051D01*
X80926845Y-89485680D01*
X80900525Y-89512000D01*
X80382350Y-89512000D01*
X80340272Y-89460728D01*
X80279244Y-89410644D01*
X80274297Y-89408000D01*
X80279244Y-89405356D01*
X80340272Y-89355272D01*
X80390356Y-89294244D01*
X80427572Y-89224617D01*
X80450490Y-89149068D01*
X80458228Y-89070500D01*
X80458228Y-88775500D01*
X80450490Y-88696932D01*
X80427572Y-88621383D01*
X80390356Y-88551756D01*
X80340272Y-88490728D01*
X80299298Y-88457101D01*
X80315689Y-88455487D01*
X80387508Y-88433701D01*
X80453696Y-88398322D01*
X80511711Y-88350711D01*
X80523645Y-88336169D01*
X80755174Y-88104641D01*
X80769711Y-88092711D01*
X80817322Y-88034696D01*
X80852701Y-87968508D01*
X80874487Y-87896689D01*
X80879591Y-87844867D01*
X80886214Y-87836797D01*
X80909800Y-87792672D01*
X80924324Y-87744793D01*
X80929228Y-87695000D01*
X80929228Y-86945000D01*
X80924324Y-86895207D01*
X80909800Y-86847328D01*
X80890767Y-86811721D01*
X80904473Y-86800473D01*
X80936214Y-86761797D01*
X80959800Y-86717672D01*
X80974324Y-86669793D01*
X80979228Y-86620000D01*
X80979228Y-85251887D01*
X81040560Y-85217274D01*
X81135407Y-85135726D01*
X81212522Y-85037242D01*
X81268943Y-84925605D01*
X81302500Y-84805107D01*
X81311904Y-84680377D01*
X81309000Y-84605750D01*
X81150250Y-84447000D01*
X80547000Y-84447000D01*
X80547000Y-84467000D01*
X80451000Y-84467000D01*
X80451000Y-84447000D01*
X80352000Y-84447000D01*
X80352000Y-84193000D01*
X80451000Y-84193000D01*
X80451000Y-84173000D01*
X80547000Y-84173000D01*
X80547000Y-84193000D01*
X81150250Y-84193000D01*
X81309000Y-84034250D01*
X81311904Y-83959623D01*
X81302500Y-83834893D01*
X81268943Y-83714395D01*
X81212522Y-83602758D01*
X81135407Y-83504274D01*
X81111060Y-83483341D01*
X81111172Y-83482200D01*
X81108100Y-83292950D01*
X80949350Y-83134200D01*
X80162600Y-83134200D01*
X80162600Y-83154200D01*
X79908600Y-83154200D01*
X79908600Y-83134200D01*
X79888600Y-83134200D01*
X79888600Y-82880200D01*
X79908600Y-82880200D01*
X79908600Y-82055950D01*
X79829000Y-81976350D01*
X79829000Y-81891000D01*
X80083000Y-81891000D01*
X80083000Y-82560250D01*
X80162600Y-82639850D01*
X80162600Y-82880200D01*
X80949350Y-82880200D01*
X81108100Y-82721450D01*
X81111172Y-82532200D01*
X81098912Y-82407718D01*
X81062602Y-82288020D01*
X81003637Y-82177706D01*
X80924285Y-82081015D01*
X80885138Y-82048888D01*
X80727250Y-81891000D01*
X80083000Y-81891000D01*
X79829000Y-81891000D01*
X79809000Y-81891000D01*
X79809000Y-81637000D01*
X79829000Y-81637000D01*
X79829000Y-81617000D01*
X80083000Y-81617000D01*
X80083000Y-81637000D01*
X80727250Y-81637000D01*
X80766374Y-81597876D01*
X80797482Y-81594812D01*
X80917180Y-81558502D01*
X81027494Y-81499537D01*
X81124185Y-81420185D01*
X81203537Y-81323494D01*
X81262502Y-81213180D01*
X81298812Y-81093482D01*
X81311072Y-80969000D01*
X81308000Y-80779750D01*
X81149250Y-80621000D01*
X80362500Y-80621000D01*
X80362500Y-80641000D01*
X80108500Y-80641000D01*
X80108500Y-80621000D01*
X80088500Y-80621000D01*
X80088500Y-80367000D01*
X80108500Y-80367000D01*
X80108500Y-79542750D01*
X80362500Y-79542750D01*
X80362500Y-80367000D01*
X81149250Y-80367000D01*
X81308000Y-80208250D01*
X81311072Y-80019000D01*
X81298812Y-79894518D01*
X81262502Y-79774820D01*
X81203537Y-79664506D01*
X81124185Y-79567815D01*
X81027494Y-79488463D01*
X80917180Y-79429498D01*
X80797482Y-79393188D01*
X80673000Y-79380928D01*
X80521250Y-79384000D01*
X80362500Y-79542750D01*
X80108500Y-79542750D01*
X80066982Y-79501232D01*
X80770281Y-78797934D01*
X80784817Y-78786005D01*
X80809236Y-78756250D01*
X80832428Y-78727991D01*
X80867807Y-78661802D01*
X80878364Y-78627000D01*
X80889593Y-78589983D01*
X80895106Y-78534007D01*
X80895106Y-78534004D01*
X80896949Y-78515294D01*
X80895106Y-78496584D01*
X80895106Y-76418390D01*
X80896940Y-76416556D01*
X80947024Y-76355528D01*
X80984240Y-76285901D01*
X81007158Y-76210352D01*
X81014896Y-76131784D01*
X81007158Y-76053216D01*
X80984240Y-75977667D01*
X80947024Y-75908040D01*
X80896940Y-75847012D01*
X80652988Y-75603060D01*
X80591960Y-75552976D01*
X80522333Y-75515760D01*
X80446784Y-75492842D01*
X80368216Y-75485104D01*
X80289648Y-75492842D01*
X80214099Y-75515760D01*
X80144472Y-75552976D01*
X80083444Y-75603060D01*
X79953398Y-75733106D01*
X79197140Y-75733106D01*
X79010041Y-75546007D01*
X78949013Y-75495923D01*
X78879386Y-75458707D01*
X78803837Y-75435789D01*
X78725269Y-75428051D01*
X78646701Y-75435789D01*
X78571152Y-75458707D01*
X78501525Y-75495923D01*
X78472913Y-75519404D01*
X78837669Y-75154648D01*
X78869410Y-75115972D01*
X78892996Y-75071847D01*
X78901991Y-75042193D01*
X78922296Y-75036034D01*
X78932372Y-75048311D01*
X78956203Y-75067868D01*
X78990386Y-75095922D01*
X79015596Y-75109397D01*
X79056575Y-75131301D01*
X79128394Y-75153087D01*
X79184370Y-75158600D01*
X79184373Y-75158600D01*
X79203083Y-75160443D01*
X79221793Y-75158600D01*
X79903690Y-75158600D01*
X79922400Y-75160443D01*
X79941110Y-75158600D01*
X79941113Y-75158600D01*
X79997089Y-75153087D01*
X80068908Y-75131301D01*
X80135096Y-75095922D01*
X80193111Y-75048311D01*
X80205046Y-75033768D01*
X80856174Y-74382641D01*
X80870711Y-74370711D01*
X80904626Y-74329385D01*
X80918322Y-74312697D01*
X80953701Y-74246508D01*
X80965764Y-74206741D01*
X80975487Y-74174689D01*
X80981000Y-74118713D01*
X80981000Y-74118711D01*
X80982843Y-74100001D01*
X80981000Y-74081291D01*
X80981000Y-73218702D01*
X80982842Y-73199999D01*
X80981000Y-73181296D01*
X80981000Y-73181287D01*
X80975487Y-73125311D01*
X80953701Y-73053492D01*
X80926623Y-73002834D01*
X80918322Y-72987303D01*
X80889170Y-72951782D01*
X80870711Y-72929289D01*
X80856175Y-72917360D01*
X80454000Y-72515186D01*
X80454000Y-72445436D01*
X80432711Y-72338404D01*
X80390949Y-72237582D01*
X80330320Y-72146845D01*
X80253155Y-72069680D01*
X80162418Y-72009051D01*
X80061596Y-71967289D01*
X79954564Y-71946000D01*
X79845436Y-71946000D01*
X79738404Y-71967289D01*
X79637582Y-72009051D01*
X79546845Y-72069680D01*
X79500000Y-72116525D01*
X79453155Y-72069680D01*
X79362418Y-72009051D01*
X79261596Y-71967289D01*
X79236873Y-71962372D01*
X79969040Y-71230205D01*
X80000781Y-71191529D01*
X80024367Y-71147404D01*
X80038891Y-71099525D01*
X80043795Y-71049732D01*
X80038891Y-70999939D01*
X80024367Y-70952060D01*
X80021715Y-70947099D01*
X80256174Y-70712641D01*
X80270711Y-70700711D01*
X80303446Y-70660823D01*
X80318322Y-70642697D01*
X80349542Y-70584290D01*
X80386743Y-70674101D01*
X80452843Y-70773027D01*
X80536973Y-70857157D01*
X80635899Y-70923257D01*
X80745820Y-70968788D01*
X80862511Y-70992000D01*
X80981489Y-70992000D01*
X81098180Y-70968788D01*
X81208101Y-70923257D01*
X81307027Y-70857157D01*
X81391157Y-70773027D01*
X81457257Y-70674101D01*
X81502788Y-70564180D01*
X81526000Y-70447489D01*
X81526000Y-70328511D01*
X81502788Y-70211820D01*
X81457257Y-70101899D01*
X81391157Y-70002973D01*
X81307027Y-69918843D01*
X81208101Y-69852743D01*
X81098180Y-69807212D01*
X80981489Y-69784000D01*
X80862511Y-69784000D01*
X80745820Y-69807212D01*
X80635899Y-69852743D01*
X80536973Y-69918843D01*
X80452843Y-70002973D01*
X80386743Y-70101899D01*
X80381000Y-70115764D01*
X80381000Y-66402475D01*
X80430320Y-66353155D01*
X80490949Y-66262418D01*
X80532711Y-66161596D01*
X80554000Y-66054564D01*
X80554000Y-65945436D01*
X80532711Y-65838404D01*
X80490949Y-65737582D01*
X80430320Y-65646845D01*
X80353155Y-65569680D01*
X80262418Y-65509051D01*
X80161596Y-65467289D01*
X80054564Y-65446000D01*
X79945436Y-65446000D01*
X79838404Y-65467289D01*
X79737582Y-65509051D01*
X79646845Y-65569680D01*
X79600000Y-65616525D01*
X79553155Y-65569680D01*
X79462418Y-65509051D01*
X79361596Y-65467289D01*
X79254564Y-65446000D01*
X79145436Y-65446000D01*
X79038404Y-65467289D01*
X78937582Y-65509051D01*
X78846845Y-65569680D01*
X78800000Y-65616525D01*
X78753155Y-65569680D01*
X78662418Y-65509051D01*
X78561596Y-65467289D01*
X78454564Y-65446000D01*
X78345436Y-65446000D01*
X78238404Y-65467289D01*
X78137582Y-65509051D01*
X78046845Y-65569680D01*
X78000000Y-65616525D01*
X77953155Y-65569680D01*
X77862418Y-65509051D01*
X77761596Y-65467289D01*
X77654564Y-65446000D01*
X77545436Y-65446000D01*
X77438404Y-65467289D01*
X77337582Y-65509051D01*
X77246845Y-65569680D01*
X77200000Y-65616525D01*
X77181000Y-65597525D01*
X77181000Y-65594438D01*
X77182842Y-65575735D01*
X77181000Y-65557032D01*
X77181000Y-65557023D01*
X77175487Y-65501047D01*
X77153701Y-65429228D01*
X77130645Y-65386095D01*
X77118322Y-65363039D01*
X77082639Y-65319560D01*
X77070711Y-65305025D01*
X77056174Y-65293095D01*
X76306910Y-64543832D01*
X76294975Y-64529289D01*
X76236960Y-64481678D01*
X76170772Y-64446299D01*
X76098953Y-64424513D01*
X76042977Y-64419000D01*
X76042974Y-64419000D01*
X76024264Y-64417157D01*
X76005554Y-64419000D01*
X66238256Y-64419000D01*
X66219553Y-64417158D01*
X66200850Y-64419000D01*
X66200841Y-64419000D01*
X66144865Y-64424513D01*
X66073046Y-64446299D01*
X66029913Y-64469355D01*
X66006857Y-64481678D01*
X65977526Y-64505750D01*
X65948843Y-64529289D01*
X65936913Y-64543826D01*
X64093011Y-66387729D01*
X64067749Y-66401232D01*
X64024270Y-66436914D01*
X64024267Y-66436917D01*
X64009735Y-66448843D01*
X63997809Y-66463375D01*
X63443831Y-67017355D01*
X63429289Y-67029289D01*
X63398213Y-67067157D01*
X63381678Y-67087304D01*
X63353657Y-67139727D01*
X63346299Y-67153493D01*
X63324513Y-67225312D01*
X63320072Y-67270407D01*
X63317157Y-67300000D01*
X63249868Y-67300000D01*
X63249073Y-64278718D01*
X82530991Y-64259281D01*
X82530084Y-90377010D01*
G37*
X82530084Y-90377010D02*
X81197282Y-91709813D01*
X65316969Y-91733621D01*
X64894687Y-91674156D01*
X64499171Y-91536301D01*
X64137964Y-91324250D01*
X63824823Y-91046078D01*
X63571678Y-90712382D01*
X63388168Y-90335870D01*
X63279715Y-89924936D01*
X63255756Y-89700454D01*
X63255158Y-87425000D01*
X64511928Y-87425000D01*
X64524188Y-87549482D01*
X64560498Y-87669180D01*
X64619463Y-87779494D01*
X64698815Y-87876185D01*
X64795506Y-87955537D01*
X64905820Y-88014502D01*
X65025518Y-88050812D01*
X65033553Y-88051603D01*
X64948280Y-88136876D01*
X64800101Y-88358641D01*
X64698034Y-88605053D01*
X64646000Y-88866643D01*
X64646000Y-89133357D01*
X64698034Y-89394947D01*
X64800101Y-89641359D01*
X64948280Y-89863124D01*
X65136876Y-90051720D01*
X65358641Y-90199899D01*
X65605053Y-90301966D01*
X65866643Y-90354000D01*
X66133357Y-90354000D01*
X66394947Y-90301966D01*
X66641359Y-90199899D01*
X66863124Y-90051720D01*
X67051720Y-89863124D01*
X67199899Y-89641359D01*
X67301966Y-89394947D01*
X67354000Y-89133357D01*
X67354000Y-88866643D01*
X67301966Y-88605053D01*
X67199899Y-88358641D01*
X67051720Y-88136876D01*
X66863124Y-87948280D01*
X66780559Y-87893112D01*
X66801185Y-87876185D01*
X66880537Y-87779494D01*
X66939502Y-87669180D01*
X66975812Y-87549482D01*
X66988072Y-87425000D01*
X66985000Y-87260750D01*
X66826250Y-87102000D01*
X65877000Y-87102000D01*
X65877000Y-87122000D01*
X65623000Y-87122000D01*
X65623000Y-87102000D01*
X64673750Y-87102000D01*
X64515000Y-87260750D01*
X64511928Y-87425000D01*
X63255158Y-87425000D01*
X63254922Y-86525000D01*
X64511928Y-86525000D01*
X64515000Y-86689250D01*
X64673750Y-86848000D01*
X65623000Y-86848000D01*
X65623000Y-86048750D01*
X65877000Y-86048750D01*
X65877000Y-86848000D01*
X66826250Y-86848000D01*
X66985000Y-86689250D01*
X66988072Y-86525000D01*
X66975812Y-86400518D01*
X66939502Y-86280820D01*
X66880537Y-86170506D01*
X66801185Y-86073815D01*
X66704494Y-85994463D01*
X66594180Y-85935498D01*
X66474482Y-85899188D01*
X66350000Y-85886928D01*
X66035750Y-85890000D01*
X65877000Y-86048750D01*
X65623000Y-86048750D01*
X65464250Y-85890000D01*
X65150000Y-85886928D01*
X65025518Y-85899188D01*
X64905820Y-85935498D01*
X64795506Y-85994463D01*
X64698815Y-86073815D01*
X64619463Y-86170506D01*
X64560498Y-86280820D01*
X64524188Y-86400518D01*
X64511928Y-86525000D01*
X63254922Y-86525000D01*
X63254055Y-83225000D01*
X64894772Y-83225000D01*
X64894772Y-84125000D01*
X64899676Y-84174793D01*
X64914200Y-84222672D01*
X64937786Y-84266797D01*
X64969527Y-84305473D01*
X65008203Y-84337214D01*
X65052328Y-84360800D01*
X65100207Y-84375324D01*
X65150000Y-84380228D01*
X65686808Y-84380228D01*
X66159340Y-84852760D01*
X66184051Y-84912418D01*
X66244680Y-85003155D01*
X66321845Y-85080320D01*
X66412582Y-85140949D01*
X66513404Y-85182711D01*
X66620436Y-85204000D01*
X66729564Y-85204000D01*
X66836596Y-85182711D01*
X66937418Y-85140949D01*
X67028155Y-85080320D01*
X67105320Y-85003155D01*
X67165949Y-84912418D01*
X67207711Y-84811596D01*
X67229000Y-84704564D01*
X67229000Y-84595436D01*
X67207711Y-84488404D01*
X67165949Y-84387582D01*
X67105320Y-84296845D01*
X67028155Y-84219680D01*
X66937418Y-84159051D01*
X66877760Y-84134340D01*
X66605228Y-83861808D01*
X66605228Y-83225000D01*
X66600324Y-83175207D01*
X66585800Y-83127328D01*
X66562214Y-83083203D01*
X66530473Y-83044527D01*
X66491797Y-83012786D01*
X66447672Y-82989200D01*
X66399793Y-82974676D01*
X66350000Y-82969772D01*
X65150000Y-82969772D01*
X65100207Y-82974676D01*
X65052328Y-82989200D01*
X65008203Y-83012786D01*
X64969527Y-83044527D01*
X64937786Y-83083203D01*
X64914200Y-83127328D01*
X64899676Y-83175207D01*
X64894772Y-83225000D01*
X63254055Y-83225000D01*
X63249868Y-67300000D01*
X63317157Y-67300000D01*
X63319000Y-67318710D01*
X63319001Y-81781280D01*
X63317157Y-81800000D01*
X63324514Y-81874688D01*
X63346299Y-81946507D01*
X63381678Y-82012696D01*
X63403687Y-82039513D01*
X63429290Y-82070711D01*
X63443827Y-82082641D01*
X64032359Y-82671174D01*
X64044289Y-82685711D01*
X64070474Y-82707200D01*
X64102303Y-82733322D01*
X64113467Y-82739289D01*
X64168492Y-82768701D01*
X64240311Y-82790487D01*
X64296287Y-82796000D01*
X64296296Y-82796000D01*
X64314999Y-82797842D01*
X64333702Y-82796000D01*
X69077287Y-82796000D01*
X69096000Y-82797843D01*
X69114713Y-82796000D01*
X69309000Y-82796000D01*
X69309000Y-83460594D01*
X69277115Y-83481899D01*
X69186899Y-83572115D01*
X69169300Y-83598454D01*
X69169300Y-83530200D01*
X69140505Y-83385437D01*
X69084021Y-83249073D01*
X69002020Y-83126349D01*
X68897651Y-83021980D01*
X68774927Y-82939979D01*
X68638563Y-82883495D01*
X68493800Y-82854700D01*
X68346200Y-82854700D01*
X68201437Y-82883495D01*
X68065073Y-82939979D01*
X67942349Y-83021980D01*
X67837980Y-83126349D01*
X67755979Y-83249073D01*
X67699495Y-83385437D01*
X67670700Y-83530200D01*
X67670700Y-83677800D01*
X67699495Y-83822563D01*
X67755979Y-83958927D01*
X67837980Y-84081651D01*
X67942349Y-84186020D01*
X68065073Y-84268021D01*
X68201437Y-84324505D01*
X68346200Y-84353300D01*
X68493800Y-84353300D01*
X68638563Y-84324505D01*
X68774927Y-84268021D01*
X68897651Y-84186020D01*
X69002020Y-84081651D01*
X69042300Y-84021367D01*
X69042300Y-84048793D01*
X69067191Y-84173927D01*
X69116016Y-84291801D01*
X69186899Y-84397885D01*
X69277115Y-84488101D01*
X69383199Y-84558984D01*
X69501073Y-84607809D01*
X69562361Y-84620000D01*
X69501073Y-84632191D01*
X69383199Y-84681016D01*
X69277115Y-84751899D01*
X69186899Y-84842115D01*
X69116016Y-84948199D01*
X69067191Y-85066073D01*
X69042300Y-85191207D01*
X69042300Y-85218633D01*
X69002020Y-85158349D01*
X68897651Y-85053980D01*
X68774927Y-84971979D01*
X68638563Y-84915495D01*
X68493800Y-84886700D01*
X68346200Y-84886700D01*
X68201437Y-84915495D01*
X68065073Y-84971979D01*
X67942349Y-85053980D01*
X67837980Y-85158349D01*
X67755979Y-85281073D01*
X67699495Y-85417437D01*
X67670700Y-85562200D01*
X67670700Y-85709800D01*
X67699495Y-85854563D01*
X67755979Y-85990927D01*
X67837980Y-86113651D01*
X67942349Y-86218020D01*
X68065073Y-86300021D01*
X68201437Y-86356505D01*
X68346200Y-86385300D01*
X68493800Y-86385300D01*
X68638563Y-86356505D01*
X68774927Y-86300021D01*
X68897651Y-86218020D01*
X69002020Y-86113651D01*
X69084021Y-85990927D01*
X69140505Y-85854563D01*
X69169300Y-85709800D01*
X69169300Y-85641546D01*
X69186899Y-85667885D01*
X69255270Y-85736256D01*
X69244680Y-85746845D01*
X69184051Y-85837582D01*
X69142289Y-85938404D01*
X69121000Y-86045436D01*
X69121000Y-86154564D01*
X69142289Y-86261596D01*
X69184051Y-86362418D01*
X69244680Y-86453155D01*
X69321845Y-86530320D01*
X69412582Y-86590949D01*
X69513404Y-86632711D01*
X69620436Y-86654000D01*
X69729564Y-86654000D01*
X69836596Y-86632711D01*
X69937418Y-86590949D01*
X70028155Y-86530320D01*
X70105320Y-86453155D01*
X70165949Y-86362418D01*
X70207711Y-86261596D01*
X70229000Y-86154564D01*
X70229000Y-86045436D01*
X70207711Y-85938404D01*
X70207249Y-85937290D01*
X70508435Y-86238476D01*
X70518379Y-86250593D01*
X70555211Y-86280820D01*
X70566725Y-86290269D01*
X70621882Y-86319751D01*
X70681731Y-86337906D01*
X70743972Y-86344037D01*
X70759575Y-86342500D01*
X71384404Y-86342500D01*
X71400000Y-86344036D01*
X71415596Y-86342500D01*
X71462241Y-86337906D01*
X71522090Y-86319751D01*
X71577247Y-86290269D01*
X71625593Y-86250593D01*
X71635542Y-86238470D01*
X71803471Y-86070541D01*
X71815593Y-86060593D01*
X71849000Y-86019885D01*
X71849001Y-86729360D01*
X71848203Y-86729786D01*
X71809527Y-86761527D01*
X71777786Y-86800203D01*
X71754200Y-86844328D01*
X71739676Y-86892207D01*
X71734772Y-86942000D01*
X71734772Y-87842000D01*
X71739676Y-87891793D01*
X71754200Y-87939672D01*
X71777786Y-87983797D01*
X71809527Y-88022473D01*
X71848203Y-88054214D01*
X71892328Y-88077800D01*
X71940207Y-88092324D01*
X71990000Y-88097228D01*
X72790000Y-88097228D01*
X72839793Y-88092324D01*
X72887672Y-88077800D01*
X72931797Y-88054214D01*
X72970473Y-88022473D01*
X73002214Y-87983797D01*
X73025800Y-87939672D01*
X73040324Y-87891793D01*
X73045228Y-87842000D01*
X73045228Y-86942000D01*
X73040324Y-86892207D01*
X73025800Y-86844328D01*
X73002214Y-86800203D01*
X72970473Y-86761527D01*
X72931797Y-86729786D01*
X72887672Y-86706200D01*
X72839793Y-86691676D01*
X72790000Y-86686772D01*
X72611000Y-86686772D01*
X72611000Y-85779406D01*
X72642885Y-85758101D01*
X72733101Y-85667885D01*
X72803984Y-85561801D01*
X72852809Y-85443927D01*
X72877700Y-85318793D01*
X72877700Y-85191207D01*
X72852809Y-85066073D01*
X72803984Y-84948199D01*
X72783846Y-84918060D01*
X72807244Y-84905554D01*
X72835979Y-84974927D01*
X72917980Y-85097651D01*
X73022349Y-85202020D01*
X73145073Y-85284021D01*
X73281437Y-85340505D01*
X73426200Y-85369300D01*
X73573800Y-85369300D01*
X73718563Y-85340505D01*
X73854927Y-85284021D01*
X73977651Y-85202020D01*
X74082020Y-85097651D01*
X74164021Y-84974927D01*
X74220505Y-84838563D01*
X74249300Y-84693800D01*
X74249300Y-84546200D01*
X74220505Y-84401437D01*
X74164021Y-84265073D01*
X74082020Y-84142349D01*
X73977651Y-84037980D01*
X73854927Y-83955979D01*
X73718563Y-83899495D01*
X73573800Y-83870700D01*
X73426200Y-83870700D01*
X73281437Y-83899495D01*
X73145073Y-83955979D01*
X73113900Y-83976808D01*
X73113900Y-83043098D01*
X73114722Y-83042096D01*
X73150101Y-82975907D01*
X73171886Y-82904088D01*
X73179243Y-82829399D01*
X73171886Y-82754711D01*
X73150101Y-82682892D01*
X73114722Y-82616704D01*
X73079039Y-82573225D01*
X73025000Y-82519186D01*
X73025000Y-79253414D01*
X73303414Y-78975000D01*
X76136928Y-78975000D01*
X76149188Y-79099482D01*
X76185498Y-79219180D01*
X76244463Y-79329494D01*
X76323815Y-79426185D01*
X76420506Y-79505537D01*
X76530820Y-79564502D01*
X76650518Y-79600812D01*
X76775000Y-79613072D01*
X76926750Y-79610000D01*
X77085500Y-79451250D01*
X77085500Y-78627000D01*
X76298750Y-78627000D01*
X76140000Y-78785750D01*
X76136928Y-78975000D01*
X73303414Y-78975000D01*
X74466044Y-77812371D01*
X74699774Y-77812371D01*
X75259387Y-78371984D01*
X75298063Y-78403725D01*
X75342188Y-78427311D01*
X75390067Y-78441835D01*
X75439860Y-78446739D01*
X75489653Y-78441835D01*
X75537532Y-78427311D01*
X75581657Y-78403725D01*
X75620333Y-78371984D01*
X75773541Y-78218776D01*
X75878055Y-78251030D01*
X76002476Y-78263890D01*
X76127015Y-78252227D01*
X76166274Y-78240524D01*
X76298750Y-78373000D01*
X77085500Y-78373000D01*
X77085500Y-77548750D01*
X76991986Y-77455236D01*
X77020856Y-77358386D01*
X77032519Y-77233847D01*
X77019659Y-77109426D01*
X76987405Y-77004912D01*
X77140613Y-76851704D01*
X77172354Y-76813028D01*
X77195940Y-76768903D01*
X77204935Y-76739250D01*
X77225551Y-76732996D01*
X77491676Y-76999121D01*
X77503606Y-77013658D01*
X77518141Y-77025586D01*
X77561620Y-77061269D01*
X77627137Y-77096289D01*
X77627809Y-77096648D01*
X77634706Y-77098740D01*
X77789959Y-77253993D01*
X77850987Y-77304077D01*
X77920614Y-77341293D01*
X77996163Y-77364211D01*
X78074731Y-77371949D01*
X78153299Y-77364211D01*
X78228848Y-77341293D01*
X78298475Y-77304077D01*
X78359503Y-77253993D01*
X78568099Y-77045397D01*
X78618183Y-76984369D01*
X78655399Y-76914742D01*
X78678317Y-76839193D01*
X78686055Y-76760625D01*
X78678317Y-76682057D01*
X78676688Y-76676688D01*
X78682057Y-76678317D01*
X78760625Y-76686055D01*
X78839193Y-76678317D01*
X78914742Y-76655399D01*
X78984369Y-76618183D01*
X79045397Y-76568099D01*
X79118390Y-76495106D01*
X79191398Y-76495106D01*
X79188954Y-76497550D01*
X79138870Y-76558578D01*
X79101654Y-76628205D01*
X79078736Y-76703754D01*
X79070998Y-76782322D01*
X79078736Y-76860890D01*
X79083754Y-76877431D01*
X78531332Y-77429854D01*
X78516789Y-77441789D01*
X78486429Y-77478784D01*
X78469178Y-77499804D01*
X78443016Y-77548750D01*
X78433799Y-77565993D01*
X78412013Y-77637812D01*
X78408370Y-77674806D01*
X78404657Y-77712500D01*
X78406500Y-77731211D01*
X78406500Y-77800047D01*
X78387366Y-77805851D01*
X78305422Y-77849652D01*
X78269360Y-77879247D01*
X78239502Y-77780820D01*
X78180537Y-77670506D01*
X78101185Y-77573815D01*
X78004494Y-77494463D01*
X77894180Y-77435498D01*
X77774482Y-77399188D01*
X77650000Y-77386928D01*
X77498250Y-77390000D01*
X77339500Y-77548750D01*
X77339500Y-78373000D01*
X77359500Y-78373000D01*
X77359500Y-78627000D01*
X77339500Y-78627000D01*
X77339500Y-79451250D01*
X77498250Y-79610000D01*
X77650000Y-79613072D01*
X77774482Y-79600812D01*
X77894180Y-79564502D01*
X78004494Y-79505537D01*
X78101185Y-79426185D01*
X78180537Y-79329494D01*
X78239502Y-79219180D01*
X78269360Y-79120753D01*
X78305422Y-79150348D01*
X78387366Y-79194149D01*
X78476281Y-79221121D01*
X78568750Y-79230228D01*
X79006250Y-79230228D01*
X79098719Y-79221121D01*
X79187634Y-79194149D01*
X79269578Y-79150348D01*
X79341403Y-79091403D01*
X79400348Y-79019578D01*
X79444149Y-78937634D01*
X79471121Y-78848719D01*
X79480228Y-78756250D01*
X79480228Y-78243750D01*
X79471121Y-78151281D01*
X79444149Y-78062366D01*
X79400348Y-77980422D01*
X79341403Y-77908597D01*
X79269578Y-77849652D01*
X79217174Y-77821641D01*
X79622569Y-77416246D01*
X79639110Y-77421264D01*
X79717678Y-77429002D01*
X79796246Y-77421264D01*
X79871795Y-77398346D01*
X79941422Y-77361130D01*
X80002450Y-77311046D01*
X80133107Y-77180389D01*
X80133106Y-78357479D01*
X78726814Y-79763772D01*
X78441750Y-79763772D01*
X78349281Y-79772879D01*
X78260366Y-79799851D01*
X78178422Y-79843652D01*
X78106597Y-79902597D01*
X78047652Y-79974422D01*
X78003851Y-80056366D01*
X77976879Y-80145281D01*
X77967772Y-80237750D01*
X77967772Y-80750250D01*
X77976879Y-80842719D01*
X78003851Y-80931634D01*
X78047652Y-81013578D01*
X78106597Y-81085403D01*
X78178422Y-81144348D01*
X78260366Y-81188149D01*
X78289001Y-81196835D01*
X78289001Y-81203885D01*
X78184964Y-81183192D01*
X78075836Y-81183192D01*
X77968804Y-81204481D01*
X77867982Y-81246243D01*
X77777245Y-81306872D01*
X77700080Y-81384037D01*
X77639451Y-81474774D01*
X77597689Y-81575596D01*
X77576400Y-81682628D01*
X77576400Y-81791756D01*
X77597689Y-81898788D01*
X77639451Y-81999610D01*
X77700080Y-82090347D01*
X77777245Y-82167512D01*
X77867982Y-82228141D01*
X77968804Y-82269903D01*
X78075836Y-82291192D01*
X78132526Y-82291192D01*
X78060466Y-82313051D01*
X77978522Y-82356852D01*
X77906697Y-82415797D01*
X77847752Y-82487622D01*
X77803951Y-82569566D01*
X77776979Y-82658481D01*
X77767872Y-82750950D01*
X77767872Y-83263450D01*
X77776979Y-83355919D01*
X77803951Y-83444834D01*
X77847752Y-83526778D01*
X77906697Y-83598603D01*
X77978522Y-83657548D01*
X78060466Y-83701349D01*
X78149381Y-83728321D01*
X78168001Y-83730155D01*
X78168001Y-83795631D01*
X78161786Y-83803203D01*
X78138200Y-83847328D01*
X78123676Y-83895207D01*
X78118772Y-83945000D01*
X78118772Y-84437958D01*
X77897000Y-84216186D01*
X77897000Y-84146436D01*
X77875711Y-84039404D01*
X77833949Y-83938582D01*
X77773320Y-83847845D01*
X77696155Y-83770680D01*
X77605418Y-83710051D01*
X77504596Y-83668289D01*
X77397564Y-83647000D01*
X77288436Y-83647000D01*
X77181404Y-83668289D01*
X77114983Y-83695802D01*
X77135000Y-83595164D01*
X77135000Y-83486036D01*
X77113711Y-83379004D01*
X77071949Y-83278182D01*
X77011320Y-83187445D01*
X76998303Y-83174428D01*
X77012872Y-83162472D01*
X77062956Y-83101444D01*
X77100172Y-83031817D01*
X77123090Y-82956268D01*
X77130828Y-82877700D01*
X77130828Y-82638797D01*
X77230094Y-82585737D01*
X77326785Y-82506385D01*
X77406137Y-82409694D01*
X77465102Y-82299380D01*
X77501412Y-82179682D01*
X77513672Y-82055200D01*
X77510600Y-82045950D01*
X77351850Y-81887200D01*
X76682600Y-81887200D01*
X76682600Y-81907200D01*
X76428600Y-81907200D01*
X76428600Y-81887200D01*
X76408600Y-81887200D01*
X76408600Y-81633200D01*
X76428600Y-81633200D01*
X76428600Y-80988950D01*
X76682600Y-80988950D01*
X76682600Y-81633200D01*
X77351850Y-81633200D01*
X77510600Y-81474450D01*
X77513672Y-81465200D01*
X77501412Y-81340718D01*
X77465102Y-81221020D01*
X77406137Y-81110706D01*
X77326785Y-81014015D01*
X77230094Y-80934663D01*
X77119780Y-80875698D01*
X77000082Y-80839388D01*
X76875600Y-80827128D01*
X76841350Y-80830200D01*
X76682600Y-80988950D01*
X76428600Y-80988950D01*
X76269850Y-80830200D01*
X76235600Y-80827128D01*
X76111118Y-80839388D01*
X75991420Y-80875698D01*
X75881106Y-80934663D01*
X75859063Y-80952753D01*
X75853596Y-80950489D01*
X75746564Y-80929200D01*
X75637436Y-80929200D01*
X75530404Y-80950489D01*
X75429582Y-80992251D01*
X75338845Y-81052880D01*
X75261680Y-81130045D01*
X75201051Y-81220782D01*
X75159289Y-81321604D01*
X75138000Y-81428636D01*
X75138000Y-81526853D01*
X75098604Y-81534689D01*
X74997782Y-81576451D01*
X74907045Y-81637080D01*
X74829880Y-81714245D01*
X74769251Y-81804982D01*
X74727489Y-81905804D01*
X74706200Y-82012836D01*
X74706200Y-82121964D01*
X74727489Y-82228996D01*
X74769251Y-82329818D01*
X74829880Y-82420555D01*
X74879200Y-82469875D01*
X74879201Y-82716555D01*
X74819204Y-82728489D01*
X74718382Y-82770251D01*
X74627645Y-82830880D01*
X74550480Y-82908045D01*
X74489851Y-82998782D01*
X74448089Y-83099604D01*
X74426800Y-83206636D01*
X74426800Y-83315764D01*
X74448089Y-83422796D01*
X74489851Y-83523618D01*
X74550480Y-83614355D01*
X74627645Y-83691520D01*
X74718382Y-83752149D01*
X74819204Y-83793911D01*
X74900385Y-83810058D01*
X74884000Y-83892436D01*
X74884000Y-84001564D01*
X74905289Y-84108596D01*
X74947051Y-84209418D01*
X75007680Y-84300155D01*
X75084845Y-84377320D01*
X75175582Y-84437949D01*
X75276404Y-84479711D01*
X75383436Y-84501000D01*
X75492564Y-84501000D01*
X75599596Y-84479711D01*
X75700418Y-84437949D01*
X75791155Y-84377320D01*
X75868320Y-84300155D01*
X75928949Y-84209418D01*
X75970711Y-84108596D01*
X75992000Y-84001564D01*
X75992000Y-83931816D01*
X76020639Y-83903177D01*
X76020648Y-83903166D01*
X76075168Y-83848646D01*
X76089711Y-83836711D01*
X76102308Y-83821361D01*
X76150680Y-83893755D01*
X76227845Y-83970920D01*
X76318582Y-84031549D01*
X76419404Y-84073311D01*
X76526436Y-84094600D01*
X76635564Y-84094600D01*
X76742596Y-84073311D01*
X76809017Y-84045798D01*
X76789000Y-84146436D01*
X76789000Y-84216186D01*
X76657339Y-84347847D01*
X76561596Y-84308189D01*
X76454564Y-84286900D01*
X76345436Y-84286900D01*
X76238404Y-84308189D01*
X76137582Y-84349951D01*
X76046845Y-84410580D01*
X75969680Y-84487745D01*
X75909051Y-84578482D01*
X75867289Y-84679304D01*
X75846000Y-84786336D01*
X75846000Y-84895464D01*
X75867289Y-85002496D01*
X75909051Y-85103318D01*
X75916348Y-85114238D01*
X75911982Y-85118604D01*
X75910548Y-85115922D01*
X75851603Y-85044097D01*
X75779778Y-84985152D01*
X75697834Y-84941351D01*
X75608919Y-84914379D01*
X75516450Y-84905272D01*
X75003950Y-84905272D01*
X74911481Y-84914379D01*
X74822566Y-84941351D01*
X74740622Y-84985152D01*
X74668797Y-85044097D01*
X74609852Y-85115922D01*
X74566051Y-85197866D01*
X74539079Y-85286781D01*
X74529972Y-85379250D01*
X74529972Y-85816750D01*
X74539079Y-85909219D01*
X74566051Y-85998134D01*
X74609852Y-86080078D01*
X74668797Y-86151903D01*
X74740622Y-86210848D01*
X74822566Y-86254649D01*
X74911481Y-86281621D01*
X75003950Y-86290728D01*
X75516450Y-86290728D01*
X75608919Y-86281621D01*
X75697834Y-86254649D01*
X75779778Y-86210848D01*
X75851603Y-86151903D01*
X75910548Y-86080078D01*
X75954349Y-85998134D01*
X75959937Y-85979714D01*
X75971400Y-85980843D01*
X75990110Y-85979000D01*
X75990113Y-85979000D01*
X76046089Y-85973487D01*
X76117908Y-85951701D01*
X76184096Y-85916322D01*
X76242111Y-85868711D01*
X76254046Y-85854169D01*
X76479400Y-85628814D01*
X76479400Y-85917896D01*
X76464156Y-85926044D01*
X76403128Y-85976128D01*
X76353044Y-86037156D01*
X76315828Y-86106783D01*
X76292910Y-86182332D01*
X76285172Y-86260900D01*
X76285172Y-86555900D01*
X76292910Y-86634468D01*
X76315828Y-86710017D01*
X76353044Y-86779644D01*
X76403128Y-86840672D01*
X76464156Y-86890756D01*
X76469103Y-86893400D01*
X76464156Y-86896044D01*
X76403128Y-86946128D01*
X76361050Y-86997400D01*
X75990428Y-86997400D01*
X75990428Y-86954250D01*
X75981321Y-86861781D01*
X75954349Y-86772866D01*
X75910548Y-86690922D01*
X75851603Y-86619097D01*
X75779778Y-86560152D01*
X75697834Y-86516351D01*
X75608919Y-86489379D01*
X75516450Y-86480272D01*
X75003950Y-86480272D01*
X74911481Y-86489379D01*
X74822566Y-86516351D01*
X74740622Y-86560152D01*
X74668797Y-86619097D01*
X74609852Y-86690922D01*
X74566051Y-86772866D01*
X74539079Y-86861781D01*
X74529972Y-86954250D01*
X74529972Y-87391750D01*
X74539079Y-87484219D01*
X74566051Y-87573134D01*
X74609852Y-87655078D01*
X74668797Y-87726903D01*
X74740622Y-87785848D01*
X74822566Y-87829649D01*
X74911481Y-87856621D01*
X75003950Y-87865728D01*
X75516450Y-87865728D01*
X75608919Y-87856621D01*
X75697834Y-87829649D01*
X75779778Y-87785848D01*
X75812005Y-87759400D01*
X76361050Y-87759400D01*
X76403128Y-87810672D01*
X76464156Y-87860756D01*
X76533783Y-87897972D01*
X76609332Y-87920890D01*
X76687900Y-87928628D01*
X77032900Y-87928628D01*
X77074385Y-87924542D01*
X77070000Y-87946587D01*
X77070000Y-88075413D01*
X77095133Y-88201765D01*
X77144433Y-88320785D01*
X77216005Y-88427900D01*
X77307100Y-88518995D01*
X77414215Y-88590567D01*
X77533235Y-88639867D01*
X77659587Y-88665000D01*
X77788413Y-88665000D01*
X77914765Y-88639867D01*
X78033785Y-88590567D01*
X78140900Y-88518995D01*
X78231995Y-88427900D01*
X78303567Y-88320785D01*
X78352867Y-88201765D01*
X78359020Y-88170834D01*
X78524358Y-88336173D01*
X78536289Y-88350711D01*
X78550824Y-88362639D01*
X78550825Y-88362640D01*
X78594303Y-88398322D01*
X78643630Y-88424688D01*
X78660492Y-88433701D01*
X78732311Y-88455487D01*
X78788287Y-88461000D01*
X78788290Y-88461000D01*
X78807000Y-88462843D01*
X78825710Y-88461000D01*
X79461952Y-88461000D01*
X79425728Y-88490728D01*
X79383650Y-88542000D01*
X79245710Y-88542000D01*
X79227000Y-88540157D01*
X79208290Y-88542000D01*
X79208287Y-88542000D01*
X79152311Y-88547513D01*
X79080492Y-88569299D01*
X79014303Y-88604678D01*
X78984972Y-88628750D01*
X78956289Y-88652289D01*
X78944360Y-88666825D01*
X77417186Y-90194000D01*
X74271870Y-90194000D01*
X74329502Y-90086180D01*
X74365812Y-89966482D01*
X74378072Y-89842000D01*
X74375000Y-89677750D01*
X74216250Y-89519000D01*
X73467000Y-89519000D01*
X73467000Y-89539000D01*
X73213000Y-89539000D01*
X73213000Y-89519000D01*
X72463750Y-89519000D01*
X72305000Y-89677750D01*
X72301928Y-89842000D01*
X72314188Y-89966482D01*
X72350498Y-90086180D01*
X72379784Y-90140969D01*
X72093936Y-89855121D01*
X72095228Y-89842000D01*
X72095228Y-88942000D01*
X72301928Y-88942000D01*
X72305000Y-89106250D01*
X72463750Y-89265000D01*
X73213000Y-89265000D01*
X73213000Y-88465750D01*
X73467000Y-88465750D01*
X73467000Y-89265000D01*
X74216250Y-89265000D01*
X74375000Y-89106250D01*
X74378072Y-88942000D01*
X74365812Y-88817518D01*
X74329502Y-88697820D01*
X74270537Y-88587506D01*
X74191185Y-88490815D01*
X74094494Y-88411463D01*
X73984180Y-88352498D01*
X73864482Y-88316188D01*
X73740000Y-88303928D01*
X73625750Y-88307000D01*
X73467000Y-88465750D01*
X73213000Y-88465750D01*
X73054250Y-88307000D01*
X72940000Y-88303928D01*
X72815518Y-88316188D01*
X72695820Y-88352498D01*
X72585506Y-88411463D01*
X72488815Y-88490815D01*
X72409463Y-88587506D01*
X72350498Y-88697820D01*
X72314188Y-88817518D01*
X72301928Y-88942000D01*
X72095228Y-88942000D01*
X72090324Y-88892207D01*
X72075800Y-88844328D01*
X72052214Y-88800203D01*
X72020473Y-88761527D01*
X71981797Y-88729786D01*
X71937672Y-88706200D01*
X71889793Y-88691676D01*
X71840000Y-88686772D01*
X71040000Y-88686772D01*
X70990207Y-88691676D01*
X70942328Y-88706200D01*
X70898203Y-88729786D01*
X70859527Y-88761527D01*
X70827786Y-88800203D01*
X70804200Y-88844328D01*
X70789676Y-88892207D01*
X70784772Y-88942000D01*
X70784772Y-89045957D01*
X70104000Y-88365186D01*
X70104000Y-88295436D01*
X70082711Y-88188404D01*
X70040949Y-88087582D01*
X69980320Y-87996845D01*
X69903155Y-87919680D01*
X69812418Y-87859051D01*
X69711596Y-87817289D01*
X69604564Y-87796000D01*
X69495436Y-87796000D01*
X69388404Y-87817289D01*
X69287582Y-87859051D01*
X69196845Y-87919680D01*
X69119680Y-87996845D01*
X69059051Y-88087582D01*
X69017289Y-88188404D01*
X68996000Y-88295436D01*
X68996000Y-88404564D01*
X69017289Y-88511596D01*
X69059051Y-88612418D01*
X69119680Y-88703155D01*
X69196845Y-88780320D01*
X69287582Y-88840949D01*
X69388404Y-88882711D01*
X69495436Y-88904000D01*
X69565186Y-88904000D01*
X70367359Y-89706174D01*
X70379289Y-89720711D01*
X70393824Y-89732639D01*
X70437303Y-89768322D01*
X70503492Y-89803701D01*
X70575311Y-89825487D01*
X70631287Y-89831000D01*
X70631290Y-89831000D01*
X70650000Y-89832843D01*
X70668710Y-89831000D01*
X70784772Y-89831000D01*
X70784772Y-89842000D01*
X70789676Y-89891793D01*
X70804200Y-89939672D01*
X70827786Y-89983797D01*
X70859527Y-90022473D01*
X70898203Y-90054214D01*
X70942328Y-90077800D01*
X70990207Y-90092324D01*
X71040000Y-90097228D01*
X71258414Y-90097228D01*
X71992359Y-90831174D01*
X72004289Y-90845711D01*
X72018824Y-90857639D01*
X72062303Y-90893322D01*
X72074876Y-90900042D01*
X72128492Y-90928701D01*
X72200311Y-90950487D01*
X72256287Y-90956000D01*
X72256296Y-90956000D01*
X72274999Y-90957842D01*
X72293702Y-90956000D01*
X77556290Y-90956000D01*
X77575000Y-90957843D01*
X77593710Y-90956000D01*
X77593713Y-90956000D01*
X77649689Y-90950487D01*
X77721508Y-90928701D01*
X77787696Y-90893322D01*
X77845711Y-90845711D01*
X77857646Y-90831168D01*
X79384175Y-89304640D01*
X79425728Y-89355272D01*
X79486756Y-89405356D01*
X79491703Y-89408000D01*
X79486756Y-89410644D01*
X79425728Y-89460728D01*
X79375644Y-89521756D01*
X79338428Y-89591383D01*
X79315510Y-89666932D01*
X79307772Y-89745500D01*
X79307772Y-90040500D01*
X79315510Y-90119068D01*
X79338428Y-90194617D01*
X79375644Y-90264244D01*
X79425728Y-90325272D01*
X79486756Y-90375356D01*
X79556383Y-90412572D01*
X79631932Y-90435490D01*
X79710500Y-90443228D01*
X80055500Y-90443228D01*
X80134068Y-90435490D01*
X80209617Y-90412572D01*
X80279244Y-90375356D01*
X80340272Y-90325272D01*
X80382350Y-90274000D01*
X80854525Y-90274000D01*
X80926845Y-90346320D01*
X81017582Y-90406949D01*
X81118404Y-90448711D01*
X81225436Y-90470000D01*
X81334564Y-90470000D01*
X81441596Y-90448711D01*
X81542418Y-90406949D01*
X81633155Y-90346320D01*
X81710320Y-90269155D01*
X81770949Y-90178418D01*
X81812711Y-90077596D01*
X81834000Y-89970564D01*
X81834000Y-89861436D01*
X81812711Y-89754404D01*
X81770949Y-89653582D01*
X81710320Y-89562845D01*
X81633155Y-89485680D01*
X81542418Y-89425051D01*
X81441596Y-89383289D01*
X81334564Y-89362000D01*
X81225436Y-89362000D01*
X81118404Y-89383289D01*
X81017582Y-89425051D01*
X80926845Y-89485680D01*
X80900525Y-89512000D01*
X80382350Y-89512000D01*
X80340272Y-89460728D01*
X80279244Y-89410644D01*
X80274297Y-89408000D01*
X80279244Y-89405356D01*
X80340272Y-89355272D01*
X80390356Y-89294244D01*
X80427572Y-89224617D01*
X80450490Y-89149068D01*
X80458228Y-89070500D01*
X80458228Y-88775500D01*
X80450490Y-88696932D01*
X80427572Y-88621383D01*
X80390356Y-88551756D01*
X80340272Y-88490728D01*
X80299298Y-88457101D01*
X80315689Y-88455487D01*
X80387508Y-88433701D01*
X80453696Y-88398322D01*
X80511711Y-88350711D01*
X80523645Y-88336169D01*
X80755174Y-88104641D01*
X80769711Y-88092711D01*
X80817322Y-88034696D01*
X80852701Y-87968508D01*
X80874487Y-87896689D01*
X80879591Y-87844867D01*
X80886214Y-87836797D01*
X80909800Y-87792672D01*
X80924324Y-87744793D01*
X80929228Y-87695000D01*
X80929228Y-86945000D01*
X80924324Y-86895207D01*
X80909800Y-86847328D01*
X80890767Y-86811721D01*
X80904473Y-86800473D01*
X80936214Y-86761797D01*
X80959800Y-86717672D01*
X80974324Y-86669793D01*
X80979228Y-86620000D01*
X80979228Y-85251887D01*
X81040560Y-85217274D01*
X81135407Y-85135726D01*
X81212522Y-85037242D01*
X81268943Y-84925605D01*
X81302500Y-84805107D01*
X81311904Y-84680377D01*
X81309000Y-84605750D01*
X81150250Y-84447000D01*
X80547000Y-84447000D01*
X80547000Y-84467000D01*
X80451000Y-84467000D01*
X80451000Y-84447000D01*
X80352000Y-84447000D01*
X80352000Y-84193000D01*
X80451000Y-84193000D01*
X80451000Y-84173000D01*
X80547000Y-84173000D01*
X80547000Y-84193000D01*
X81150250Y-84193000D01*
X81309000Y-84034250D01*
X81311904Y-83959623D01*
X81302500Y-83834893D01*
X81268943Y-83714395D01*
X81212522Y-83602758D01*
X81135407Y-83504274D01*
X81111060Y-83483341D01*
X81111172Y-83482200D01*
X81108100Y-83292950D01*
X80949350Y-83134200D01*
X80162600Y-83134200D01*
X80162600Y-83154200D01*
X79908600Y-83154200D01*
X79908600Y-83134200D01*
X79888600Y-83134200D01*
X79888600Y-82880200D01*
X79908600Y-82880200D01*
X79908600Y-82055950D01*
X79829000Y-81976350D01*
X79829000Y-81891000D01*
X80083000Y-81891000D01*
X80083000Y-82560250D01*
X80162600Y-82639850D01*
X80162600Y-82880200D01*
X80949350Y-82880200D01*
X81108100Y-82721450D01*
X81111172Y-82532200D01*
X81098912Y-82407718D01*
X81062602Y-82288020D01*
X81003637Y-82177706D01*
X80924285Y-82081015D01*
X80885138Y-82048888D01*
X80727250Y-81891000D01*
X80083000Y-81891000D01*
X79829000Y-81891000D01*
X79809000Y-81891000D01*
X79809000Y-81637000D01*
X79829000Y-81637000D01*
X79829000Y-81617000D01*
X80083000Y-81617000D01*
X80083000Y-81637000D01*
X80727250Y-81637000D01*
X80766374Y-81597876D01*
X80797482Y-81594812D01*
X80917180Y-81558502D01*
X81027494Y-81499537D01*
X81124185Y-81420185D01*
X81203537Y-81323494D01*
X81262502Y-81213180D01*
X81298812Y-81093482D01*
X81311072Y-80969000D01*
X81308000Y-80779750D01*
X81149250Y-80621000D01*
X80362500Y-80621000D01*
X80362500Y-80641000D01*
X80108500Y-80641000D01*
X80108500Y-80621000D01*
X80088500Y-80621000D01*
X80088500Y-80367000D01*
X80108500Y-80367000D01*
X80108500Y-79542750D01*
X80362500Y-79542750D01*
X80362500Y-80367000D01*
X81149250Y-80367000D01*
X81308000Y-80208250D01*
X81311072Y-80019000D01*
X81298812Y-79894518D01*
X81262502Y-79774820D01*
X81203537Y-79664506D01*
X81124185Y-79567815D01*
X81027494Y-79488463D01*
X80917180Y-79429498D01*
X80797482Y-79393188D01*
X80673000Y-79380928D01*
X80521250Y-79384000D01*
X80362500Y-79542750D01*
X80108500Y-79542750D01*
X80066982Y-79501232D01*
X80770281Y-78797934D01*
X80784817Y-78786005D01*
X80809236Y-78756250D01*
X80832428Y-78727991D01*
X80867807Y-78661802D01*
X80878364Y-78627000D01*
X80889593Y-78589983D01*
X80895106Y-78534007D01*
X80895106Y-78534004D01*
X80896949Y-78515294D01*
X80895106Y-78496584D01*
X80895106Y-76418390D01*
X80896940Y-76416556D01*
X80947024Y-76355528D01*
X80984240Y-76285901D01*
X81007158Y-76210352D01*
X81014896Y-76131784D01*
X81007158Y-76053216D01*
X80984240Y-75977667D01*
X80947024Y-75908040D01*
X80896940Y-75847012D01*
X80652988Y-75603060D01*
X80591960Y-75552976D01*
X80522333Y-75515760D01*
X80446784Y-75492842D01*
X80368216Y-75485104D01*
X80289648Y-75492842D01*
X80214099Y-75515760D01*
X80144472Y-75552976D01*
X80083444Y-75603060D01*
X79953398Y-75733106D01*
X79197140Y-75733106D01*
X79010041Y-75546007D01*
X78949013Y-75495923D01*
X78879386Y-75458707D01*
X78803837Y-75435789D01*
X78725269Y-75428051D01*
X78646701Y-75435789D01*
X78571152Y-75458707D01*
X78501525Y-75495923D01*
X78472913Y-75519404D01*
X78837669Y-75154648D01*
X78869410Y-75115972D01*
X78892996Y-75071847D01*
X78901991Y-75042193D01*
X78922296Y-75036034D01*
X78932372Y-75048311D01*
X78956203Y-75067868D01*
X78990386Y-75095922D01*
X79015596Y-75109397D01*
X79056575Y-75131301D01*
X79128394Y-75153087D01*
X79184370Y-75158600D01*
X79184373Y-75158600D01*
X79203083Y-75160443D01*
X79221793Y-75158600D01*
X79903690Y-75158600D01*
X79922400Y-75160443D01*
X79941110Y-75158600D01*
X79941113Y-75158600D01*
X79997089Y-75153087D01*
X80068908Y-75131301D01*
X80135096Y-75095922D01*
X80193111Y-75048311D01*
X80205046Y-75033768D01*
X80856174Y-74382641D01*
X80870711Y-74370711D01*
X80904626Y-74329385D01*
X80918322Y-74312697D01*
X80953701Y-74246508D01*
X80965764Y-74206741D01*
X80975487Y-74174689D01*
X80981000Y-74118713D01*
X80981000Y-74118711D01*
X80982843Y-74100001D01*
X80981000Y-74081291D01*
X80981000Y-73218702D01*
X80982842Y-73199999D01*
X80981000Y-73181296D01*
X80981000Y-73181287D01*
X80975487Y-73125311D01*
X80953701Y-73053492D01*
X80926623Y-73002834D01*
X80918322Y-72987303D01*
X80889170Y-72951782D01*
X80870711Y-72929289D01*
X80856175Y-72917360D01*
X80454000Y-72515186D01*
X80454000Y-72445436D01*
X80432711Y-72338404D01*
X80390949Y-72237582D01*
X80330320Y-72146845D01*
X80253155Y-72069680D01*
X80162418Y-72009051D01*
X80061596Y-71967289D01*
X79954564Y-71946000D01*
X79845436Y-71946000D01*
X79738404Y-71967289D01*
X79637582Y-72009051D01*
X79546845Y-72069680D01*
X79500000Y-72116525D01*
X79453155Y-72069680D01*
X79362418Y-72009051D01*
X79261596Y-71967289D01*
X79236873Y-71962372D01*
X79969040Y-71230205D01*
X80000781Y-71191529D01*
X80024367Y-71147404D01*
X80038891Y-71099525D01*
X80043795Y-71049732D01*
X80038891Y-70999939D01*
X80024367Y-70952060D01*
X80021715Y-70947099D01*
X80256174Y-70712641D01*
X80270711Y-70700711D01*
X80303446Y-70660823D01*
X80318322Y-70642697D01*
X80349542Y-70584290D01*
X80386743Y-70674101D01*
X80452843Y-70773027D01*
X80536973Y-70857157D01*
X80635899Y-70923257D01*
X80745820Y-70968788D01*
X80862511Y-70992000D01*
X80981489Y-70992000D01*
X81098180Y-70968788D01*
X81208101Y-70923257D01*
X81307027Y-70857157D01*
X81391157Y-70773027D01*
X81457257Y-70674101D01*
X81502788Y-70564180D01*
X81526000Y-70447489D01*
X81526000Y-70328511D01*
X81502788Y-70211820D01*
X81457257Y-70101899D01*
X81391157Y-70002973D01*
X81307027Y-69918843D01*
X81208101Y-69852743D01*
X81098180Y-69807212D01*
X80981489Y-69784000D01*
X80862511Y-69784000D01*
X80745820Y-69807212D01*
X80635899Y-69852743D01*
X80536973Y-69918843D01*
X80452843Y-70002973D01*
X80386743Y-70101899D01*
X80381000Y-70115764D01*
X80381000Y-66402475D01*
X80430320Y-66353155D01*
X80490949Y-66262418D01*
X80532711Y-66161596D01*
X80554000Y-66054564D01*
X80554000Y-65945436D01*
X80532711Y-65838404D01*
X80490949Y-65737582D01*
X80430320Y-65646845D01*
X80353155Y-65569680D01*
X80262418Y-65509051D01*
X80161596Y-65467289D01*
X80054564Y-65446000D01*
X79945436Y-65446000D01*
X79838404Y-65467289D01*
X79737582Y-65509051D01*
X79646845Y-65569680D01*
X79600000Y-65616525D01*
X79553155Y-65569680D01*
X79462418Y-65509051D01*
X79361596Y-65467289D01*
X79254564Y-65446000D01*
X79145436Y-65446000D01*
X79038404Y-65467289D01*
X78937582Y-65509051D01*
X78846845Y-65569680D01*
X78800000Y-65616525D01*
X78753155Y-65569680D01*
X78662418Y-65509051D01*
X78561596Y-65467289D01*
X78454564Y-65446000D01*
X78345436Y-65446000D01*
X78238404Y-65467289D01*
X78137582Y-65509051D01*
X78046845Y-65569680D01*
X78000000Y-65616525D01*
X77953155Y-65569680D01*
X77862418Y-65509051D01*
X77761596Y-65467289D01*
X77654564Y-65446000D01*
X77545436Y-65446000D01*
X77438404Y-65467289D01*
X77337582Y-65509051D01*
X77246845Y-65569680D01*
X77200000Y-65616525D01*
X77181000Y-65597525D01*
X77181000Y-65594438D01*
X77182842Y-65575735D01*
X77181000Y-65557032D01*
X77181000Y-65557023D01*
X77175487Y-65501047D01*
X77153701Y-65429228D01*
X77130645Y-65386095D01*
X77118322Y-65363039D01*
X77082639Y-65319560D01*
X77070711Y-65305025D01*
X77056174Y-65293095D01*
X76306910Y-64543832D01*
X76294975Y-64529289D01*
X76236960Y-64481678D01*
X76170772Y-64446299D01*
X76098953Y-64424513D01*
X76042977Y-64419000D01*
X76042974Y-64419000D01*
X76024264Y-64417157D01*
X76005554Y-64419000D01*
X66238256Y-64419000D01*
X66219553Y-64417158D01*
X66200850Y-64419000D01*
X66200841Y-64419000D01*
X66144865Y-64424513D01*
X66073046Y-64446299D01*
X66029913Y-64469355D01*
X66006857Y-64481678D01*
X65977526Y-64505750D01*
X65948843Y-64529289D01*
X65936913Y-64543826D01*
X64093011Y-66387729D01*
X64067749Y-66401232D01*
X64024270Y-66436914D01*
X64024267Y-66436917D01*
X64009735Y-66448843D01*
X63997809Y-66463375D01*
X63443831Y-67017355D01*
X63429289Y-67029289D01*
X63398213Y-67067157D01*
X63381678Y-67087304D01*
X63353657Y-67139727D01*
X63346299Y-67153493D01*
X63324513Y-67225312D01*
X63320072Y-67270407D01*
X63317157Y-67300000D01*
X63249868Y-67300000D01*
X63249073Y-64278718D01*
X82530991Y-64259281D01*
X82530084Y-90377010D01*
G36*
X71447399Y-77304935D02*
G01*
X71453653Y-77325552D01*
X71364226Y-77414979D01*
X71349689Y-77426909D01*
X71335171Y-77444600D01*
X71302077Y-77484924D01*
X71266698Y-77551113D01*
X71258579Y-77577879D01*
X71245157Y-77622129D01*
X71244913Y-77622932D01*
X71237556Y-77697620D01*
X71239400Y-77716340D01*
X71239399Y-83399666D01*
X71148927Y-83362191D01*
X71023793Y-83337300D01*
X70896207Y-83337300D01*
X70771073Y-83362191D01*
X70653199Y-83411016D01*
X70547115Y-83481899D01*
X70456899Y-83572115D01*
X70386016Y-83678199D01*
X70337191Y-83796073D01*
X70325000Y-83857361D01*
X70312809Y-83796073D01*
X70263984Y-83678199D01*
X70193101Y-83572115D01*
X70102885Y-83481899D01*
X70071000Y-83460594D01*
X70071000Y-82433712D01*
X70072843Y-82415000D01*
X70065487Y-82340311D01*
X70043701Y-82268492D01*
X70008322Y-82202304D01*
X69960711Y-82144289D01*
X69902696Y-82096678D01*
X69836508Y-82061299D01*
X69764689Y-82039513D01*
X69708713Y-82034000D01*
X69690000Y-82032157D01*
X69671287Y-82034000D01*
X69556164Y-82034000D01*
X69595356Y-81986244D01*
X69632572Y-81916617D01*
X69655490Y-81841068D01*
X69663228Y-81762500D01*
X69663228Y-81523597D01*
X69762494Y-81470537D01*
X69859185Y-81391185D01*
X69938537Y-81294494D01*
X69997502Y-81184180D01*
X70033812Y-81064482D01*
X70046072Y-80940000D01*
X70043000Y-80930750D01*
X69884250Y-80772000D01*
X69215000Y-80772000D01*
X69215000Y-80792000D01*
X68961000Y-80792000D01*
X68961000Y-80772000D01*
X68291750Y-80772000D01*
X68133000Y-80930750D01*
X68129928Y-80940000D01*
X68142188Y-81064482D01*
X68178498Y-81184180D01*
X68237463Y-81294494D01*
X68316815Y-81391185D01*
X68413506Y-81470537D01*
X68512772Y-81523597D01*
X68512772Y-81762500D01*
X68520510Y-81841068D01*
X68543428Y-81916617D01*
X68580644Y-81986244D01*
X68619836Y-82034000D01*
X66450475Y-82034000D01*
X66470320Y-82014155D01*
X66530949Y-81923418D01*
X66572711Y-81822596D01*
X66594000Y-81715564D01*
X66594000Y-81606436D01*
X66572711Y-81499404D01*
X66530949Y-81398582D01*
X66521637Y-81384645D01*
X66531797Y-81379214D01*
X66565000Y-81351965D01*
X66598203Y-81379214D01*
X66642328Y-81402800D01*
X66690207Y-81417324D01*
X66740000Y-81422228D01*
X67440000Y-81422228D01*
X67489793Y-81417324D01*
X67537672Y-81402800D01*
X67581797Y-81379214D01*
X67620473Y-81347473D01*
X67652214Y-81308797D01*
X67675800Y-81264672D01*
X67690324Y-81216793D01*
X67695228Y-81167000D01*
X67695228Y-80350000D01*
X68129928Y-80350000D01*
X68133000Y-80359250D01*
X68291750Y-80518000D01*
X68961000Y-80518000D01*
X68961000Y-79873750D01*
X69215000Y-79873750D01*
X69215000Y-80518000D01*
X69884250Y-80518000D01*
X70043000Y-80359250D01*
X70046072Y-80350000D01*
X70033812Y-80225518D01*
X69997502Y-80105820D01*
X69938537Y-79995506D01*
X69859185Y-79898815D01*
X69762494Y-79819463D01*
X69652180Y-79760498D01*
X69532482Y-79724188D01*
X69408000Y-79711928D01*
X69373750Y-79715000D01*
X69215000Y-79873750D01*
X68961000Y-79873750D01*
X68802250Y-79715000D01*
X68768000Y-79711928D01*
X68643518Y-79724188D01*
X68523820Y-79760498D01*
X68413506Y-79819463D01*
X68316815Y-79898815D01*
X68237463Y-79995506D01*
X68178498Y-80105820D01*
X68142188Y-80225518D01*
X68129928Y-80350000D01*
X67695228Y-80350000D01*
X67695228Y-79629000D01*
X69120090Y-79629000D01*
X69138800Y-79630843D01*
X69157510Y-79629000D01*
X69157513Y-79629000D01*
X69213489Y-79623487D01*
X69285308Y-79601701D01*
X69351496Y-79566322D01*
X69409511Y-79518711D01*
X69421445Y-79504169D01*
X69670875Y-79254740D01*
X69687416Y-79259758D01*
X69765984Y-79267496D01*
X69844552Y-79259758D01*
X69920101Y-79236840D01*
X69989728Y-79199624D01*
X70050756Y-79149540D01*
X70259352Y-78940944D01*
X70309436Y-78879916D01*
X70346652Y-78810289D01*
X70369570Y-78734740D01*
X70377308Y-78656172D01*
X70369570Y-78577604D01*
X70367941Y-78572235D01*
X70373310Y-78573864D01*
X70451878Y-78581602D01*
X70530446Y-78573864D01*
X70605995Y-78550946D01*
X70675622Y-78513730D01*
X70736650Y-78463646D01*
X70945246Y-78255050D01*
X70995330Y-78194022D01*
X71032546Y-78124395D01*
X71055464Y-78048846D01*
X71063202Y-77970278D01*
X71055464Y-77891710D01*
X71032546Y-77816161D01*
X70995330Y-77746534D01*
X70987937Y-77737525D01*
X71426782Y-77298681D01*
X71447399Y-77304935D01*
G37*
X71447399Y-77304935D02*
X71453653Y-77325552D01*
X71364226Y-77414979D01*
X71349689Y-77426909D01*
X71335171Y-77444600D01*
X71302077Y-77484924D01*
X71266698Y-77551113D01*
X71258579Y-77577879D01*
X71245157Y-77622129D01*
X71244913Y-77622932D01*
X71237556Y-77697620D01*
X71239400Y-77716340D01*
X71239399Y-83399666D01*
X71148927Y-83362191D01*
X71023793Y-83337300D01*
X70896207Y-83337300D01*
X70771073Y-83362191D01*
X70653199Y-83411016D01*
X70547115Y-83481899D01*
X70456899Y-83572115D01*
X70386016Y-83678199D01*
X70337191Y-83796073D01*
X70325000Y-83857361D01*
X70312809Y-83796073D01*
X70263984Y-83678199D01*
X70193101Y-83572115D01*
X70102885Y-83481899D01*
X70071000Y-83460594D01*
X70071000Y-82433712D01*
X70072843Y-82415000D01*
X70065487Y-82340311D01*
X70043701Y-82268492D01*
X70008322Y-82202304D01*
X69960711Y-82144289D01*
X69902696Y-82096678D01*
X69836508Y-82061299D01*
X69764689Y-82039513D01*
X69708713Y-82034000D01*
X69690000Y-82032157D01*
X69671287Y-82034000D01*
X69556164Y-82034000D01*
X69595356Y-81986244D01*
X69632572Y-81916617D01*
X69655490Y-81841068D01*
X69663228Y-81762500D01*
X69663228Y-81523597D01*
X69762494Y-81470537D01*
X69859185Y-81391185D01*
X69938537Y-81294494D01*
X69997502Y-81184180D01*
X70033812Y-81064482D01*
X70046072Y-80940000D01*
X70043000Y-80930750D01*
X69884250Y-80772000D01*
X69215000Y-80772000D01*
X69215000Y-80792000D01*
X68961000Y-80792000D01*
X68961000Y-80772000D01*
X68291750Y-80772000D01*
X68133000Y-80930750D01*
X68129928Y-80940000D01*
X68142188Y-81064482D01*
X68178498Y-81184180D01*
X68237463Y-81294494D01*
X68316815Y-81391185D01*
X68413506Y-81470537D01*
X68512772Y-81523597D01*
X68512772Y-81762500D01*
X68520510Y-81841068D01*
X68543428Y-81916617D01*
X68580644Y-81986244D01*
X68619836Y-82034000D01*
X66450475Y-82034000D01*
X66470320Y-82014155D01*
X66530949Y-81923418D01*
X66572711Y-81822596D01*
X66594000Y-81715564D01*
X66594000Y-81606436D01*
X66572711Y-81499404D01*
X66530949Y-81398582D01*
X66521637Y-81384645D01*
X66531797Y-81379214D01*
X66565000Y-81351965D01*
X66598203Y-81379214D01*
X66642328Y-81402800D01*
X66690207Y-81417324D01*
X66740000Y-81422228D01*
X67440000Y-81422228D01*
X67489793Y-81417324D01*
X67537672Y-81402800D01*
X67581797Y-81379214D01*
X67620473Y-81347473D01*
X67652214Y-81308797D01*
X67675800Y-81264672D01*
X67690324Y-81216793D01*
X67695228Y-81167000D01*
X67695228Y-80350000D01*
X68129928Y-80350000D01*
X68133000Y-80359250D01*
X68291750Y-80518000D01*
X68961000Y-80518000D01*
X68961000Y-79873750D01*
X69215000Y-79873750D01*
X69215000Y-80518000D01*
X69884250Y-80518000D01*
X70043000Y-80359250D01*
X70046072Y-80350000D01*
X70033812Y-80225518D01*
X69997502Y-80105820D01*
X69938537Y-79995506D01*
X69859185Y-79898815D01*
X69762494Y-79819463D01*
X69652180Y-79760498D01*
X69532482Y-79724188D01*
X69408000Y-79711928D01*
X69373750Y-79715000D01*
X69215000Y-79873750D01*
X68961000Y-79873750D01*
X68802250Y-79715000D01*
X68768000Y-79711928D01*
X68643518Y-79724188D01*
X68523820Y-79760498D01*
X68413506Y-79819463D01*
X68316815Y-79898815D01*
X68237463Y-79995506D01*
X68178498Y-80105820D01*
X68142188Y-80225518D01*
X68129928Y-80350000D01*
X67695228Y-80350000D01*
X67695228Y-79629000D01*
X69120090Y-79629000D01*
X69138800Y-79630843D01*
X69157510Y-79629000D01*
X69157513Y-79629000D01*
X69213489Y-79623487D01*
X69285308Y-79601701D01*
X69351496Y-79566322D01*
X69409511Y-79518711D01*
X69421445Y-79504169D01*
X69670875Y-79254740D01*
X69687416Y-79259758D01*
X69765984Y-79267496D01*
X69844552Y-79259758D01*
X69920101Y-79236840D01*
X69989728Y-79199624D01*
X70050756Y-79149540D01*
X70259352Y-78940944D01*
X70309436Y-78879916D01*
X70346652Y-78810289D01*
X70369570Y-78734740D01*
X70377308Y-78656172D01*
X70369570Y-78577604D01*
X70367941Y-78572235D01*
X70373310Y-78573864D01*
X70451878Y-78581602D01*
X70530446Y-78573864D01*
X70605995Y-78550946D01*
X70675622Y-78513730D01*
X70736650Y-78463646D01*
X70945246Y-78255050D01*
X70995330Y-78194022D01*
X71032546Y-78124395D01*
X71055464Y-78048846D01*
X71063202Y-77970278D01*
X71055464Y-77891710D01*
X71032546Y-77816161D01*
X70995330Y-77746534D01*
X70987937Y-77737525D01*
X71426782Y-77298681D01*
X71447399Y-77304935D01*
G36*
X76150539Y-65465090D02*
G01*
X76054564Y-65446000D01*
X75945436Y-65446000D01*
X75838404Y-65467289D01*
X75737582Y-65509051D01*
X75646845Y-65569680D01*
X75600000Y-65616525D01*
X75553155Y-65569680D01*
X75462418Y-65509051D01*
X75361596Y-65467289D01*
X75254564Y-65446000D01*
X75145436Y-65446000D01*
X75038404Y-65467289D01*
X74937582Y-65509051D01*
X74846845Y-65569680D01*
X74800000Y-65616525D01*
X74753155Y-65569680D01*
X74662418Y-65509051D01*
X74561596Y-65467289D01*
X74454564Y-65446000D01*
X74345436Y-65446000D01*
X74238404Y-65467289D01*
X74137582Y-65509051D01*
X74046845Y-65569680D01*
X74000000Y-65616525D01*
X73953155Y-65569680D01*
X73862418Y-65509051D01*
X73761596Y-65467289D01*
X73654564Y-65446000D01*
X73545436Y-65446000D01*
X73438404Y-65467289D01*
X73337582Y-65509051D01*
X73246845Y-65569680D01*
X73200000Y-65616525D01*
X73153155Y-65569680D01*
X73062418Y-65509051D01*
X72961596Y-65467289D01*
X72854564Y-65446000D01*
X72745436Y-65446000D01*
X72638404Y-65467289D01*
X72537582Y-65509051D01*
X72446845Y-65569680D01*
X72400000Y-65616525D01*
X72353155Y-65569680D01*
X72262418Y-65509051D01*
X72161596Y-65467289D01*
X72054564Y-65446000D01*
X71945436Y-65446000D01*
X71838404Y-65467289D01*
X71737582Y-65509051D01*
X71646845Y-65569680D01*
X71569680Y-65646845D01*
X71509051Y-65737582D01*
X71467289Y-65838404D01*
X71446000Y-65945436D01*
X71446000Y-66054564D01*
X71467289Y-66161596D01*
X71509051Y-66262418D01*
X71569680Y-66353155D01*
X71619000Y-66402475D01*
X71619001Y-67367867D01*
X71511721Y-67475147D01*
X71479980Y-67513823D01*
X71456394Y-67557948D01*
X71447399Y-67587601D01*
X71417745Y-67596596D01*
X71373620Y-67620182D01*
X71334944Y-67651923D01*
X71181737Y-67805130D01*
X71172282Y-67802212D01*
X71160267Y-67762604D01*
X71101303Y-67652290D01*
X71021950Y-67555599D01*
X70995559Y-67533552D01*
X70771053Y-67533552D01*
X70315499Y-67989106D01*
X70788730Y-68462337D01*
X70804685Y-68462337D01*
X71320963Y-68978616D01*
X71335106Y-68964474D01*
X71514711Y-69144079D01*
X71500568Y-69158221D01*
X72313211Y-69970863D01*
X72537717Y-69970863D01*
X72549926Y-69956418D01*
X72613404Y-69982711D01*
X72720436Y-70004000D01*
X72829564Y-70004000D01*
X72936596Y-69982711D01*
X73037418Y-69940949D01*
X73128155Y-69880320D01*
X73204098Y-69804377D01*
X73204098Y-69903662D01*
X73225387Y-70010694D01*
X73232473Y-70027800D01*
X72713510Y-70027800D01*
X72694800Y-70025957D01*
X72676090Y-70027800D01*
X72676087Y-70027800D01*
X72620111Y-70033313D01*
X72548292Y-70055099D01*
X72482103Y-70090478D01*
X72471121Y-70099491D01*
X72424089Y-70138089D01*
X72412160Y-70152625D01*
X71498832Y-71065954D01*
X71484289Y-71077889D01*
X71452666Y-71116423D01*
X71436678Y-71135904D01*
X71409525Y-71186704D01*
X71401299Y-71202093D01*
X71379513Y-71273912D01*
X71375697Y-71312658D01*
X71372157Y-71348600D01*
X71374000Y-71367310D01*
X71374000Y-71672427D01*
X71361596Y-71667289D01*
X71254564Y-71646000D01*
X71145436Y-71646000D01*
X71038404Y-71667289D01*
X70937582Y-71709051D01*
X70846845Y-71769680D01*
X70800000Y-71816525D01*
X70738351Y-71754876D01*
X70647614Y-71694247D01*
X70618344Y-71682123D01*
X70682293Y-71676134D01*
X70802164Y-71640401D01*
X70912761Y-71581968D01*
X71002234Y-71506346D01*
X71002234Y-71281840D01*
X70189592Y-70469197D01*
X70175450Y-70483340D01*
X69995844Y-70303734D01*
X70009987Y-70289592D01*
X69995844Y-70275450D01*
X70175450Y-70095844D01*
X70189592Y-70109987D01*
X70203735Y-70095845D01*
X70383340Y-70275450D01*
X70369197Y-70289592D01*
X71181840Y-71102234D01*
X71406346Y-71102234D01*
X71481968Y-71012761D01*
X71540401Y-70902164D01*
X71576134Y-70782293D01*
X71587797Y-70657754D01*
X71576117Y-70544746D01*
X71689125Y-70556426D01*
X71813664Y-70544763D01*
X71933535Y-70509030D01*
X72044132Y-70450597D01*
X72133605Y-70374975D01*
X72133605Y-70150469D01*
X71320963Y-69337826D01*
X71306821Y-69351969D01*
X71127216Y-69172364D01*
X71141358Y-69158221D01*
X70328715Y-68345579D01*
X70312762Y-68345579D01*
X70135894Y-68168711D01*
X70121752Y-68182854D01*
X69942147Y-68003249D01*
X69956289Y-67989106D01*
X69483058Y-67515875D01*
X69258551Y-67515875D01*
X69249838Y-67520243D01*
X69170485Y-67616934D01*
X69111521Y-67727249D01*
X69075212Y-67846947D01*
X69062951Y-67971428D01*
X69075212Y-68095910D01*
X69107884Y-68203620D01*
X68938954Y-68372550D01*
X68888870Y-68433578D01*
X68851654Y-68503205D01*
X68843098Y-68531410D01*
X68788404Y-68542289D01*
X68687582Y-68584051D01*
X68596845Y-68644680D01*
X68519680Y-68721845D01*
X68459051Y-68812582D01*
X68417289Y-68913404D01*
X68396000Y-69020436D01*
X68396000Y-69088097D01*
X67621617Y-68313714D01*
X67635899Y-68323257D01*
X67745820Y-68368788D01*
X67862511Y-68392000D01*
X67981489Y-68392000D01*
X68098180Y-68368788D01*
X68208101Y-68323257D01*
X68307027Y-68257157D01*
X68391157Y-68173027D01*
X68457257Y-68074101D01*
X68502788Y-67964180D01*
X68526000Y-67847489D01*
X68526000Y-67728511D01*
X68502788Y-67611820D01*
X68457257Y-67501899D01*
X68391157Y-67402973D01*
X68307027Y-67318843D01*
X68208101Y-67252743D01*
X68098180Y-67207212D01*
X67981489Y-67184000D01*
X67862511Y-67184000D01*
X67745820Y-67207212D01*
X67635899Y-67252743D01*
X67536973Y-67318843D01*
X67452843Y-67402973D01*
X67386743Y-67501899D01*
X67341212Y-67611820D01*
X67318000Y-67728511D01*
X67318000Y-67847489D01*
X67341212Y-67964180D01*
X67386743Y-68074101D01*
X67433606Y-68144237D01*
X67414399Y-68133970D01*
X67366520Y-68119446D01*
X67316727Y-68114542D01*
X67266934Y-68119446D01*
X67219055Y-68133970D01*
X67174930Y-68157556D01*
X67136254Y-68189297D01*
X66853411Y-68472140D01*
X66821670Y-68510816D01*
X66798084Y-68554941D01*
X66783560Y-68602820D01*
X66778656Y-68652613D01*
X66783560Y-68702406D01*
X66798084Y-68750285D01*
X66821670Y-68794410D01*
X66853411Y-68833086D01*
X68196914Y-70176589D01*
X68235590Y-70208330D01*
X68279715Y-70231916D01*
X68327594Y-70246440D01*
X68376562Y-70251263D01*
X68563906Y-70438606D01*
X68545193Y-70448609D01*
X68506517Y-70480350D01*
X68117608Y-70869259D01*
X68085867Y-70907935D01*
X68062281Y-70952060D01*
X68047757Y-70999939D01*
X68042853Y-71049732D01*
X68047757Y-71099525D01*
X68062281Y-71147404D01*
X68085867Y-71191529D01*
X68117608Y-71230205D01*
X68231403Y-71344000D01*
X67208481Y-71344000D01*
X67198973Y-71312658D01*
X67175387Y-71268533D01*
X67143646Y-71229857D01*
X65800143Y-69886354D01*
X65761467Y-69854613D01*
X65717342Y-69831027D01*
X65669463Y-69816503D01*
X65619670Y-69811599D01*
X65569877Y-69816503D01*
X65521998Y-69831027D01*
X65477873Y-69854613D01*
X65439197Y-69886354D01*
X65156354Y-70169197D01*
X65124613Y-70207873D01*
X65101027Y-70251998D01*
X65086503Y-70299877D01*
X65081599Y-70349670D01*
X65086503Y-70399463D01*
X65101027Y-70447342D01*
X65124613Y-70491467D01*
X65156354Y-70530143D01*
X66499857Y-71873646D01*
X66538533Y-71905387D01*
X66582658Y-71928973D01*
X66630537Y-71943497D01*
X66679505Y-71948320D01*
X66712359Y-71981174D01*
X66724289Y-71995711D01*
X66738824Y-72007639D01*
X66782303Y-72043322D01*
X66801332Y-72053493D01*
X66848492Y-72078701D01*
X66920311Y-72100487D01*
X66976287Y-72106000D01*
X66976296Y-72106000D01*
X66994999Y-72107842D01*
X67013702Y-72106000D01*
X68735474Y-72106000D01*
X68754184Y-72107843D01*
X68772894Y-72106000D01*
X68772897Y-72106000D01*
X68828873Y-72100487D01*
X68900692Y-72078701D01*
X68943319Y-72055916D01*
X69248979Y-72361576D01*
X69287655Y-72393317D01*
X69331780Y-72416903D01*
X69379659Y-72431427D01*
X69429452Y-72436331D01*
X69479245Y-72431427D01*
X69527124Y-72416903D01*
X69571249Y-72393317D01*
X69609925Y-72361576D01*
X69831196Y-72140305D01*
X69831196Y-72179989D01*
X69532617Y-72478569D01*
X69527124Y-72475633D01*
X69479245Y-72461109D01*
X69429452Y-72456205D01*
X69379659Y-72461109D01*
X69331780Y-72475633D01*
X69287655Y-72499219D01*
X69248979Y-72530960D01*
X68117608Y-73662331D01*
X68085867Y-73701007D01*
X68062281Y-73745132D01*
X68053236Y-73774950D01*
X67616032Y-74212154D01*
X67599490Y-74207136D01*
X67520922Y-74199398D01*
X67442354Y-74207136D01*
X67366805Y-74230054D01*
X67297178Y-74267270D01*
X67236150Y-74317354D01*
X67027554Y-74525950D01*
X66977470Y-74586978D01*
X66940254Y-74656605D01*
X66917336Y-74732154D01*
X66909598Y-74810722D01*
X66917336Y-74889290D01*
X66918965Y-74894659D01*
X66913596Y-74893030D01*
X66835028Y-74885292D01*
X66756460Y-74893030D01*
X66680911Y-74915948D01*
X66611284Y-74953164D01*
X66550256Y-75003248D01*
X66341660Y-75211844D01*
X66291576Y-75272872D01*
X66254360Y-75342499D01*
X66231442Y-75418048D01*
X66223704Y-75496616D01*
X66231442Y-75575184D01*
X66236460Y-75591726D01*
X65783827Y-76044359D01*
X65769290Y-76056289D01*
X65757361Y-76070825D01*
X65721678Y-76114304D01*
X65686299Y-76180493D01*
X65676900Y-76211479D01*
X65666833Y-76244668D01*
X65664514Y-76252312D01*
X65658350Y-76314889D01*
X65640207Y-76316676D01*
X65592328Y-76331200D01*
X65548203Y-76354786D01*
X65515000Y-76382035D01*
X65481797Y-76354786D01*
X65437672Y-76331200D01*
X65389793Y-76316676D01*
X65340000Y-76311772D01*
X64640000Y-76311772D01*
X64590207Y-76316676D01*
X64542328Y-76331200D01*
X64498203Y-76354786D01*
X64459527Y-76386527D01*
X64427786Y-76425203D01*
X64404200Y-76469328D01*
X64389676Y-76517207D01*
X64384772Y-76567000D01*
X64384772Y-78167000D01*
X64389676Y-78216793D01*
X64404200Y-78264672D01*
X64427786Y-78308797D01*
X64459527Y-78347473D01*
X64498203Y-78379214D01*
X64542328Y-78402800D01*
X64590207Y-78417324D01*
X64609001Y-78419175D01*
X64609001Y-78814280D01*
X64607157Y-78833000D01*
X64614514Y-78907688D01*
X64636299Y-78979507D01*
X64671678Y-79045696D01*
X64697276Y-79076887D01*
X64719290Y-79103711D01*
X64733827Y-79115641D01*
X64929957Y-79311772D01*
X64640000Y-79311772D01*
X64590207Y-79316676D01*
X64542328Y-79331200D01*
X64498203Y-79354786D01*
X64459527Y-79386527D01*
X64427786Y-79425203D01*
X64404200Y-79469328D01*
X64389676Y-79517207D01*
X64384772Y-79567000D01*
X64384772Y-81167000D01*
X64389676Y-81216793D01*
X64404200Y-81264672D01*
X64427786Y-81308797D01*
X64459527Y-81347473D01*
X64498203Y-81379214D01*
X64542328Y-81402800D01*
X64590207Y-81417324D01*
X64640000Y-81422228D01*
X65340000Y-81422228D01*
X65389793Y-81417324D01*
X65437672Y-81402800D01*
X65481797Y-81379214D01*
X65515000Y-81351965D01*
X65548203Y-81379214D01*
X65558363Y-81384645D01*
X65549051Y-81398582D01*
X65507289Y-81499404D01*
X65486000Y-81606436D01*
X65486000Y-81715564D01*
X65507289Y-81822596D01*
X65549051Y-81923418D01*
X65609680Y-82014155D01*
X65629525Y-82034000D01*
X64472815Y-82034000D01*
X64081000Y-81642186D01*
X64081000Y-67948578D01*
X64163404Y-67982711D01*
X64270436Y-68004000D01*
X64340186Y-68004000D01*
X65966272Y-69630087D01*
X65973142Y-69642939D01*
X66004883Y-69681615D01*
X67348386Y-71025118D01*
X67387062Y-71056859D01*
X67431187Y-71080445D01*
X67479066Y-71094969D01*
X67528859Y-71099873D01*
X67578652Y-71094969D01*
X67626531Y-71080445D01*
X67670656Y-71056859D01*
X67709332Y-71025118D01*
X67992175Y-70742275D01*
X68023916Y-70703599D01*
X68047502Y-70659474D01*
X68062026Y-70611595D01*
X68066930Y-70561802D01*
X68062026Y-70512009D01*
X68047502Y-70464130D01*
X68023916Y-70420005D01*
X67992175Y-70381329D01*
X66648672Y-69037826D01*
X66609996Y-69006085D01*
X66565871Y-68982499D01*
X66517992Y-68967975D01*
X66468199Y-68963071D01*
X66418406Y-68967975D01*
X66390312Y-68976497D01*
X64879000Y-67465186D01*
X64879000Y-67395436D01*
X64857711Y-67288404D01*
X64815949Y-67187582D01*
X64765288Y-67111763D01*
X69662663Y-67111763D01*
X69662663Y-67336270D01*
X70135894Y-67809501D01*
X70591448Y-67353947D01*
X70591448Y-67129441D01*
X70569401Y-67103050D01*
X70472710Y-67023697D01*
X70362396Y-66964733D01*
X70242698Y-66928424D01*
X70118216Y-66916163D01*
X69993735Y-66928424D01*
X69874037Y-66964733D01*
X69763722Y-67023697D01*
X69667031Y-67103050D01*
X69662663Y-67111763D01*
X64765288Y-67111763D01*
X64755320Y-67096845D01*
X64678155Y-67019680D01*
X64594551Y-66963817D01*
X66377369Y-65181000D01*
X75866450Y-65181000D01*
X76150539Y-65465090D01*
G37*
X76150539Y-65465090D02*
X76054564Y-65446000D01*
X75945436Y-65446000D01*
X75838404Y-65467289D01*
X75737582Y-65509051D01*
X75646845Y-65569680D01*
X75600000Y-65616525D01*
X75553155Y-65569680D01*
X75462418Y-65509051D01*
X75361596Y-65467289D01*
X75254564Y-65446000D01*
X75145436Y-65446000D01*
X75038404Y-65467289D01*
X74937582Y-65509051D01*
X74846845Y-65569680D01*
X74800000Y-65616525D01*
X74753155Y-65569680D01*
X74662418Y-65509051D01*
X74561596Y-65467289D01*
X74454564Y-65446000D01*
X74345436Y-65446000D01*
X74238404Y-65467289D01*
X74137582Y-65509051D01*
X74046845Y-65569680D01*
X74000000Y-65616525D01*
X73953155Y-65569680D01*
X73862418Y-65509051D01*
X73761596Y-65467289D01*
X73654564Y-65446000D01*
X73545436Y-65446000D01*
X73438404Y-65467289D01*
X73337582Y-65509051D01*
X73246845Y-65569680D01*
X73200000Y-65616525D01*
X73153155Y-65569680D01*
X73062418Y-65509051D01*
X72961596Y-65467289D01*
X72854564Y-65446000D01*
X72745436Y-65446000D01*
X72638404Y-65467289D01*
X72537582Y-65509051D01*
X72446845Y-65569680D01*
X72400000Y-65616525D01*
X72353155Y-65569680D01*
X72262418Y-65509051D01*
X72161596Y-65467289D01*
X72054564Y-65446000D01*
X71945436Y-65446000D01*
X71838404Y-65467289D01*
X71737582Y-65509051D01*
X71646845Y-65569680D01*
X71569680Y-65646845D01*
X71509051Y-65737582D01*
X71467289Y-65838404D01*
X71446000Y-65945436D01*
X71446000Y-66054564D01*
X71467289Y-66161596D01*
X71509051Y-66262418D01*
X71569680Y-66353155D01*
X71619000Y-66402475D01*
X71619001Y-67367867D01*
X71511721Y-67475147D01*
X71479980Y-67513823D01*
X71456394Y-67557948D01*
X71447399Y-67587601D01*
X71417745Y-67596596D01*
X71373620Y-67620182D01*
X71334944Y-67651923D01*
X71181737Y-67805130D01*
X71172282Y-67802212D01*
X71160267Y-67762604D01*
X71101303Y-67652290D01*
X71021950Y-67555599D01*
X70995559Y-67533552D01*
X70771053Y-67533552D01*
X70315499Y-67989106D01*
X70788730Y-68462337D01*
X70804685Y-68462337D01*
X71320963Y-68978616D01*
X71335106Y-68964474D01*
X71514711Y-69144079D01*
X71500568Y-69158221D01*
X72313211Y-69970863D01*
X72537717Y-69970863D01*
X72549926Y-69956418D01*
X72613404Y-69982711D01*
X72720436Y-70004000D01*
X72829564Y-70004000D01*
X72936596Y-69982711D01*
X73037418Y-69940949D01*
X73128155Y-69880320D01*
X73204098Y-69804377D01*
X73204098Y-69903662D01*
X73225387Y-70010694D01*
X73232473Y-70027800D01*
X72713510Y-70027800D01*
X72694800Y-70025957D01*
X72676090Y-70027800D01*
X72676087Y-70027800D01*
X72620111Y-70033313D01*
X72548292Y-70055099D01*
X72482103Y-70090478D01*
X72471121Y-70099491D01*
X72424089Y-70138089D01*
X72412160Y-70152625D01*
X71498832Y-71065954D01*
X71484289Y-71077889D01*
X71452666Y-71116423D01*
X71436678Y-71135904D01*
X71409525Y-71186704D01*
X71401299Y-71202093D01*
X71379513Y-71273912D01*
X71375697Y-71312658D01*
X71372157Y-71348600D01*
X71374000Y-71367310D01*
X71374000Y-71672427D01*
X71361596Y-71667289D01*
X71254564Y-71646000D01*
X71145436Y-71646000D01*
X71038404Y-71667289D01*
X70937582Y-71709051D01*
X70846845Y-71769680D01*
X70800000Y-71816525D01*
X70738351Y-71754876D01*
X70647614Y-71694247D01*
X70618344Y-71682123D01*
X70682293Y-71676134D01*
X70802164Y-71640401D01*
X70912761Y-71581968D01*
X71002234Y-71506346D01*
X71002234Y-71281840D01*
X70189592Y-70469197D01*
X70175450Y-70483340D01*
X69995844Y-70303734D01*
X70009987Y-70289592D01*
X69995844Y-70275450D01*
X70175450Y-70095844D01*
X70189592Y-70109987D01*
X70203735Y-70095845D01*
X70383340Y-70275450D01*
X70369197Y-70289592D01*
X71181840Y-71102234D01*
X71406346Y-71102234D01*
X71481968Y-71012761D01*
X71540401Y-70902164D01*
X71576134Y-70782293D01*
X71587797Y-70657754D01*
X71576117Y-70544746D01*
X71689125Y-70556426D01*
X71813664Y-70544763D01*
X71933535Y-70509030D01*
X72044132Y-70450597D01*
X72133605Y-70374975D01*
X72133605Y-70150469D01*
X71320963Y-69337826D01*
X71306821Y-69351969D01*
X71127216Y-69172364D01*
X71141358Y-69158221D01*
X70328715Y-68345579D01*
X70312762Y-68345579D01*
X70135894Y-68168711D01*
X70121752Y-68182854D01*
X69942147Y-68003249D01*
X69956289Y-67989106D01*
X69483058Y-67515875D01*
X69258551Y-67515875D01*
X69249838Y-67520243D01*
X69170485Y-67616934D01*
X69111521Y-67727249D01*
X69075212Y-67846947D01*
X69062951Y-67971428D01*
X69075212Y-68095910D01*
X69107884Y-68203620D01*
X68938954Y-68372550D01*
X68888870Y-68433578D01*
X68851654Y-68503205D01*
X68843098Y-68531410D01*
X68788404Y-68542289D01*
X68687582Y-68584051D01*
X68596845Y-68644680D01*
X68519680Y-68721845D01*
X68459051Y-68812582D01*
X68417289Y-68913404D01*
X68396000Y-69020436D01*
X68396000Y-69088097D01*
X67621617Y-68313714D01*
X67635899Y-68323257D01*
X67745820Y-68368788D01*
X67862511Y-68392000D01*
X67981489Y-68392000D01*
X68098180Y-68368788D01*
X68208101Y-68323257D01*
X68307027Y-68257157D01*
X68391157Y-68173027D01*
X68457257Y-68074101D01*
X68502788Y-67964180D01*
X68526000Y-67847489D01*
X68526000Y-67728511D01*
X68502788Y-67611820D01*
X68457257Y-67501899D01*
X68391157Y-67402973D01*
X68307027Y-67318843D01*
X68208101Y-67252743D01*
X68098180Y-67207212D01*
X67981489Y-67184000D01*
X67862511Y-67184000D01*
X67745820Y-67207212D01*
X67635899Y-67252743D01*
X67536973Y-67318843D01*
X67452843Y-67402973D01*
X67386743Y-67501899D01*
X67341212Y-67611820D01*
X67318000Y-67728511D01*
X67318000Y-67847489D01*
X67341212Y-67964180D01*
X67386743Y-68074101D01*
X67433606Y-68144237D01*
X67414399Y-68133970D01*
X67366520Y-68119446D01*
X67316727Y-68114542D01*
X67266934Y-68119446D01*
X67219055Y-68133970D01*
X67174930Y-68157556D01*
X67136254Y-68189297D01*
X66853411Y-68472140D01*
X66821670Y-68510816D01*
X66798084Y-68554941D01*
X66783560Y-68602820D01*
X66778656Y-68652613D01*
X66783560Y-68702406D01*
X66798084Y-68750285D01*
X66821670Y-68794410D01*
X66853411Y-68833086D01*
X68196914Y-70176589D01*
X68235590Y-70208330D01*
X68279715Y-70231916D01*
X68327594Y-70246440D01*
X68376562Y-70251263D01*
X68563906Y-70438606D01*
X68545193Y-70448609D01*
X68506517Y-70480350D01*
X68117608Y-70869259D01*
X68085867Y-70907935D01*
X68062281Y-70952060D01*
X68047757Y-70999939D01*
X68042853Y-71049732D01*
X68047757Y-71099525D01*
X68062281Y-71147404D01*
X68085867Y-71191529D01*
X68117608Y-71230205D01*
X68231403Y-71344000D01*
X67208481Y-71344000D01*
X67198973Y-71312658D01*
X67175387Y-71268533D01*
X67143646Y-71229857D01*
X65800143Y-69886354D01*
X65761467Y-69854613D01*
X65717342Y-69831027D01*
X65669463Y-69816503D01*
X65619670Y-69811599D01*
X65569877Y-69816503D01*
X65521998Y-69831027D01*
X65477873Y-69854613D01*
X65439197Y-69886354D01*
X65156354Y-70169197D01*
X65124613Y-70207873D01*
X65101027Y-70251998D01*
X65086503Y-70299877D01*
X65081599Y-70349670D01*
X65086503Y-70399463D01*
X65101027Y-70447342D01*
X65124613Y-70491467D01*
X65156354Y-70530143D01*
X66499857Y-71873646D01*
X66538533Y-71905387D01*
X66582658Y-71928973D01*
X66630537Y-71943497D01*
X66679505Y-71948320D01*
X66712359Y-71981174D01*
X66724289Y-71995711D01*
X66738824Y-72007639D01*
X66782303Y-72043322D01*
X66801332Y-72053493D01*
X66848492Y-72078701D01*
X66920311Y-72100487D01*
X66976287Y-72106000D01*
X66976296Y-72106000D01*
X66994999Y-72107842D01*
X67013702Y-72106000D01*
X68735474Y-72106000D01*
X68754184Y-72107843D01*
X68772894Y-72106000D01*
X68772897Y-72106000D01*
X68828873Y-72100487D01*
X68900692Y-72078701D01*
X68943319Y-72055916D01*
X69248979Y-72361576D01*
X69287655Y-72393317D01*
X69331780Y-72416903D01*
X69379659Y-72431427D01*
X69429452Y-72436331D01*
X69479245Y-72431427D01*
X69527124Y-72416903D01*
X69571249Y-72393317D01*
X69609925Y-72361576D01*
X69831196Y-72140305D01*
X69831196Y-72179989D01*
X69532617Y-72478569D01*
X69527124Y-72475633D01*
X69479245Y-72461109D01*
X69429452Y-72456205D01*
X69379659Y-72461109D01*
X69331780Y-72475633D01*
X69287655Y-72499219D01*
X69248979Y-72530960D01*
X68117608Y-73662331D01*
X68085867Y-73701007D01*
X68062281Y-73745132D01*
X68053236Y-73774950D01*
X67616032Y-74212154D01*
X67599490Y-74207136D01*
X67520922Y-74199398D01*
X67442354Y-74207136D01*
X67366805Y-74230054D01*
X67297178Y-74267270D01*
X67236150Y-74317354D01*
X67027554Y-74525950D01*
X66977470Y-74586978D01*
X66940254Y-74656605D01*
X66917336Y-74732154D01*
X66909598Y-74810722D01*
X66917336Y-74889290D01*
X66918965Y-74894659D01*
X66913596Y-74893030D01*
X66835028Y-74885292D01*
X66756460Y-74893030D01*
X66680911Y-74915948D01*
X66611284Y-74953164D01*
X66550256Y-75003248D01*
X66341660Y-75211844D01*
X66291576Y-75272872D01*
X66254360Y-75342499D01*
X66231442Y-75418048D01*
X66223704Y-75496616D01*
X66231442Y-75575184D01*
X66236460Y-75591726D01*
X65783827Y-76044359D01*
X65769290Y-76056289D01*
X65757361Y-76070825D01*
X65721678Y-76114304D01*
X65686299Y-76180493D01*
X65676900Y-76211479D01*
X65666833Y-76244668D01*
X65664514Y-76252312D01*
X65658350Y-76314889D01*
X65640207Y-76316676D01*
X65592328Y-76331200D01*
X65548203Y-76354786D01*
X65515000Y-76382035D01*
X65481797Y-76354786D01*
X65437672Y-76331200D01*
X65389793Y-76316676D01*
X65340000Y-76311772D01*
X64640000Y-76311772D01*
X64590207Y-76316676D01*
X64542328Y-76331200D01*
X64498203Y-76354786D01*
X64459527Y-76386527D01*
X64427786Y-76425203D01*
X64404200Y-76469328D01*
X64389676Y-76517207D01*
X64384772Y-76567000D01*
X64384772Y-78167000D01*
X64389676Y-78216793D01*
X64404200Y-78264672D01*
X64427786Y-78308797D01*
X64459527Y-78347473D01*
X64498203Y-78379214D01*
X64542328Y-78402800D01*
X64590207Y-78417324D01*
X64609001Y-78419175D01*
X64609001Y-78814280D01*
X64607157Y-78833000D01*
X64614514Y-78907688D01*
X64636299Y-78979507D01*
X64671678Y-79045696D01*
X64697276Y-79076887D01*
X64719290Y-79103711D01*
X64733827Y-79115641D01*
X64929957Y-79311772D01*
X64640000Y-79311772D01*
X64590207Y-79316676D01*
X64542328Y-79331200D01*
X64498203Y-79354786D01*
X64459527Y-79386527D01*
X64427786Y-79425203D01*
X64404200Y-79469328D01*
X64389676Y-79517207D01*
X64384772Y-79567000D01*
X64384772Y-81167000D01*
X64389676Y-81216793D01*
X64404200Y-81264672D01*
X64427786Y-81308797D01*
X64459527Y-81347473D01*
X64498203Y-81379214D01*
X64542328Y-81402800D01*
X64590207Y-81417324D01*
X64640000Y-81422228D01*
X65340000Y-81422228D01*
X65389793Y-81417324D01*
X65437672Y-81402800D01*
X65481797Y-81379214D01*
X65515000Y-81351965D01*
X65548203Y-81379214D01*
X65558363Y-81384645D01*
X65549051Y-81398582D01*
X65507289Y-81499404D01*
X65486000Y-81606436D01*
X65486000Y-81715564D01*
X65507289Y-81822596D01*
X65549051Y-81923418D01*
X65609680Y-82014155D01*
X65629525Y-82034000D01*
X64472815Y-82034000D01*
X64081000Y-81642186D01*
X64081000Y-67948578D01*
X64163404Y-67982711D01*
X64270436Y-68004000D01*
X64340186Y-68004000D01*
X65966272Y-69630087D01*
X65973142Y-69642939D01*
X66004883Y-69681615D01*
X67348386Y-71025118D01*
X67387062Y-71056859D01*
X67431187Y-71080445D01*
X67479066Y-71094969D01*
X67528859Y-71099873D01*
X67578652Y-71094969D01*
X67626531Y-71080445D01*
X67670656Y-71056859D01*
X67709332Y-71025118D01*
X67992175Y-70742275D01*
X68023916Y-70703599D01*
X68047502Y-70659474D01*
X68062026Y-70611595D01*
X68066930Y-70561802D01*
X68062026Y-70512009D01*
X68047502Y-70464130D01*
X68023916Y-70420005D01*
X67992175Y-70381329D01*
X66648672Y-69037826D01*
X66609996Y-69006085D01*
X66565871Y-68982499D01*
X66517992Y-68967975D01*
X66468199Y-68963071D01*
X66418406Y-68967975D01*
X66390312Y-68976497D01*
X64879000Y-67465186D01*
X64879000Y-67395436D01*
X64857711Y-67288404D01*
X64815949Y-67187582D01*
X64765288Y-67111763D01*
X69662663Y-67111763D01*
X69662663Y-67336270D01*
X70135894Y-67809501D01*
X70591448Y-67353947D01*
X70591448Y-67129441D01*
X70569401Y-67103050D01*
X70472710Y-67023697D01*
X70362396Y-66964733D01*
X70242698Y-66928424D01*
X70118216Y-66916163D01*
X69993735Y-66928424D01*
X69874037Y-66964733D01*
X69763722Y-67023697D01*
X69667031Y-67103050D01*
X69662663Y-67111763D01*
X64765288Y-67111763D01*
X64755320Y-67096845D01*
X64678155Y-67019680D01*
X64594551Y-66963817D01*
X66377369Y-65181000D01*
X75866450Y-65181000D01*
X76150539Y-65465090D01*
G36*
X75828062Y-76851543D02*
G01*
X75813919Y-76865685D01*
X75828062Y-76879827D01*
X75648456Y-77059433D01*
X75634314Y-77045290D01*
X75620172Y-77059433D01*
X75440566Y-76879827D01*
X75454709Y-76865685D01*
X75440566Y-76851543D01*
X75620172Y-76671937D01*
X75634314Y-76686080D01*
X75648456Y-76671937D01*
X75828062Y-76851543D01*
G37*
X75828062Y-76851543D02*
X75813919Y-76865685D01*
X75828062Y-76879827D01*
X75648456Y-77059433D01*
X75634314Y-77045290D01*
X75620172Y-77059433D01*
X75440566Y-76879827D01*
X75454709Y-76865685D01*
X75440566Y-76851543D01*
X75620172Y-76671937D01*
X75634314Y-76686080D01*
X75648456Y-76671937D01*
X75828062Y-76851543D01*
M02*
