G04 #@! TF.GenerationSoftware,KiCad,Pcbnew,(5.1.6)-1*
G04 #@! TF.CreationDate,2020-12-13T19:15:47+01:00*
G04 #@! TF.ProjectId,ACM-pcb,41434d2d-7063-4622-9e6b-696361645f70,rev?*
G04 #@! TF.SameCoordinates,Original*
G04 #@! TF.FileFunction,Legend,Bot*
G04 #@! TF.FilePolarity,Positive*
%FSLAX46Y46*%
G04 Gerber Fmt 4.6, Leading zero omitted, Abs format (unit mm)*
G04 Created by KiCad (PCBNEW (5.1.6)-1) date 2020-12-13 19:15:47*
%MOMM*%
%LPD*%
G01*
G04 APERTURE LIST*
%ADD10C,0.150000*%
%ADD11C,0.100000*%
%ADD12C,0.254000*%
%ADD13C,0.120000*%
G04 APERTURE END LIST*
D10*
X67138651Y-77568469D02*
X67256502Y-77686320D01*
X67963609Y-76979213D01*
X67845758Y-76861362D01*
X67515775Y-76625660D02*
X67421494Y-76531379D01*
X67350783Y-76507809D01*
X67256502Y-76507809D01*
X67138651Y-76578519D01*
X66973660Y-76743511D01*
X66902949Y-76861362D01*
X66902949Y-76955643D01*
X66926519Y-77026354D01*
X67020800Y-77120634D01*
X67091511Y-77144205D01*
X67185792Y-77144205D01*
X67303643Y-77073494D01*
X67468634Y-76908502D01*
X67539345Y-76790651D01*
X67539345Y-76696370D01*
X67515775Y-76625660D01*
X66926519Y-76366387D02*
X66431544Y-76861362D01*
X66902949Y-76389957D02*
X66879379Y-76319247D01*
X66785098Y-76224966D01*
X66714387Y-76201396D01*
X66667247Y-76201396D01*
X66596536Y-76224966D01*
X66455115Y-76366387D01*
X66431544Y-76437098D01*
X66431544Y-76484238D01*
X66455115Y-76554949D01*
X66549396Y-76649230D01*
X66620106Y-76672800D01*
X66549396Y-75989264D02*
X66360834Y-75800702D01*
X66643677Y-75753561D02*
X66219412Y-76177825D01*
X66148702Y-76201396D01*
X66077991Y-76177825D01*
X66030851Y-76130685D01*
X65865859Y-75965693D02*
X66195842Y-75635710D01*
X66360834Y-75470719D02*
X66360834Y-75517859D01*
X66313693Y-75517859D01*
X66313693Y-75470719D01*
X66360834Y-75470719D01*
X66313693Y-75517859D01*
X65559446Y-75659280D02*
X65630157Y-75682851D01*
X65677297Y-75682851D01*
X65748008Y-75659280D01*
X65889429Y-75517859D01*
X65912999Y-75447148D01*
X65913000Y-75400008D01*
X65889429Y-75329297D01*
X65818719Y-75258587D01*
X65748008Y-75235016D01*
X65700867Y-75235016D01*
X65630157Y-75258587D01*
X65488735Y-75400008D01*
X65465165Y-75470719D01*
X65465165Y-75517859D01*
X65488735Y-75588570D01*
X65559446Y-75659280D01*
X65512306Y-74952174D02*
X65182322Y-75282157D01*
X65465165Y-74999314D02*
X65465165Y-74952174D01*
X65441595Y-74881463D01*
X65370884Y-74810752D01*
X65300174Y-74787182D01*
X65229463Y-74810752D01*
X64970190Y-75070025D01*
X64522356Y-74622190D02*
X64781629Y-74362918D01*
X64852339Y-74339348D01*
X64923050Y-74362918D01*
X65017331Y-74457199D01*
X65040901Y-74527910D01*
X64545926Y-74598620D02*
X64569497Y-74669331D01*
X64687348Y-74787182D01*
X64758058Y-74810752D01*
X64828769Y-74787182D01*
X64875910Y-74740042D01*
X64899480Y-74669331D01*
X64875910Y-74598620D01*
X64758058Y-74480769D01*
X64734488Y-74410058D01*
X64215943Y-74315778D02*
X64286654Y-74339348D01*
X64357365Y-74315778D01*
X64781629Y-73891513D01*
X63909530Y-74339348D02*
X63791679Y-74221497D01*
X64498786Y-73514390D01*
X64616637Y-73632241D01*
X80824438Y-90887419D02*
X80776819Y-90744561D01*
X80776819Y-90506466D01*
X80824438Y-90411228D01*
X80872057Y-90363609D01*
X80967295Y-90315990D01*
X81062533Y-90315990D01*
X81157771Y-90363609D01*
X81205390Y-90411228D01*
X81253009Y-90506466D01*
X81300628Y-90696942D01*
X81348247Y-90792180D01*
X81395866Y-90839800D01*
X81491104Y-90887419D01*
X81586342Y-90887419D01*
X81681580Y-90839800D01*
X81729200Y-90792180D01*
X81776819Y-90696942D01*
X81776819Y-90458847D01*
X81729200Y-90315990D01*
X80776819Y-89887419D02*
X81776819Y-89887419D01*
X80776819Y-89315990D01*
X81776819Y-89315990D01*
X80872057Y-88839800D02*
X80824438Y-88792180D01*
X80776819Y-88839800D01*
X80824438Y-88887419D01*
X80872057Y-88839800D01*
X80776819Y-88839800D01*
X81395866Y-88839800D02*
X81348247Y-88792180D01*
X81300628Y-88839800D01*
X81348247Y-88887419D01*
X81395866Y-88839800D01*
X81300628Y-88839800D01*
D11*
G36*
X82355200Y-88442800D02*
G01*
X79756000Y-88442800D01*
X79726400Y-78663800D01*
X82325600Y-78663800D01*
X82355200Y-88442800D01*
G37*
X82355200Y-88442800D02*
X79756000Y-88442800D01*
X79726400Y-78663800D01*
X82325600Y-78663800D01*
X82355200Y-88442800D01*
D12*
X73937144Y-73853781D02*
G75*
G03*
X73937144Y-73853781I-162500J0D01*
G01*
D13*
X76799000Y-85868000D02*
X72899000Y-85868000D01*
X76799000Y-87868000D02*
X72899000Y-87868000D01*
X76799000Y-85868000D02*
X76799000Y-87868000D01*
X66378678Y-74415127D02*
X66148473Y-74184922D01*
X67099927Y-73693878D02*
X66869722Y-73463673D01*
D11*
X76422000Y-67488000D02*
X77222000Y-67488000D01*
X77222000Y-67488000D02*
X77222000Y-69588000D01*
X71622000Y-68588000D02*
X71622000Y-70688000D01*
X71622000Y-70688000D02*
X72422000Y-70688000D01*
D13*
X77600000Y-89125000D02*
X77600000Y-90325000D01*
X75750000Y-89125000D02*
X77600000Y-89125000D01*
X75750000Y-90325000D02*
X77600000Y-90325000D01*
X65895522Y-68775727D02*
X66125727Y-68545522D01*
X65174273Y-68054478D02*
X65404478Y-67824273D01*
M02*
