M48
; DRILL file {KiCad (5.1.2)-2} date 09-Mar-20 10:25:24 AM
; FORMAT={-:-/ absolute / inch / decimal}
; #@! TF.CreationDate,2020-03-09T10:25:24+01:00
; #@! TF.GenerationSoftware,Kicad,Pcbnew,(5.1.2)-2
; #@! TF.FileFunction,Plated,1,2,PTH
FMAT,2
INCH
T1C0.0118
T2C0.0472
%
G90
G05
T1
X2.529Y-3.139
X2.5344Y-2.5896
X2.563Y-2.56
X2.5679Y-2.625
X2.571Y-3.126
X2.5955Y-2.7126
X2.5965Y-2.5945
X2.647Y-3.267
X2.6687Y-3.152
X2.6697Y-3.219
X2.7087Y-2.5984
X2.7146Y-2.7195
X2.7268Y-3.14
X2.7402Y-2.5984
X2.7431Y-3.3898
X2.7711Y-2.8419
X2.7717Y-2.5984
X2.786Y-2.893
X2.8031Y-2.5984
X2.8031Y-2.8425
X2.8346Y-2.5984
X2.8494Y-3.4262
X2.8652Y-2.7343
X2.8661Y-2.5984
X2.873Y-2.889
X2.8976Y-2.5984
X2.899Y-2.845
X2.9039Y-2.75
X2.9291Y-2.5984
X2.9317Y-2.8451
X2.952Y-3.278
X2.9591Y-2.8441
X2.9606Y-2.5984
X2.963Y-3.231
X2.97Y-3.305
X2.98Y-3.208
X2.9832Y-2.8924
X2.9869Y-2.8432
X2.9921Y-2.5984
X3.007Y-3.183
X3.0079Y-3.3402
X3.015Y-3.289
X3.0236Y-2.5984
X3.0551Y-2.5984
X3.0551Y-2.8543
X3.056Y-3.344
X3.076Y-3.218
X3.0822Y-2.8541
X3.0866Y-2.5984
X3.1142Y-2.8543
X3.1181Y-2.5984
X3.144Y-3.065
X3.1457Y-2.8543
X3.1496Y-2.5984
X3.199Y-3.042
T2
X2.694Y-2.989
T0
M30
