G04 #@! TF.GenerationSoftware,KiCad,Pcbnew,(5.1.2)-2*
G04 #@! TF.CreationDate,2020-01-30T12:23:50+01:00*
G04 #@! TF.ProjectId,ACM-pcb,41434d2d-7063-4622-9e6b-696361645f70,rev?*
G04 #@! TF.SameCoordinates,Original*
G04 #@! TF.FileFunction,Legend,Top*
G04 #@! TF.FilePolarity,Positive*
%FSLAX46Y46*%
G04 Gerber Fmt 4.6, Leading zero omitted, Abs format (unit mm)*
G04 Created by KiCad (PCBNEW (5.1.2)-2) date 2020-01-30 12:23:50*
%MOMM*%
%LPD*%
G04 APERTURE LIST*
%ADD10C,0.120000*%
%ADD11C,0.150000*%
%ADD12C,0.200000*%
%ADD13C,0.100000*%
%ADD14C,0.254000*%
G04 APERTURE END LIST*
D10*
X77837221Y-79010000D02*
X78162779Y-79010000D01*
X77837221Y-77990000D02*
X78162779Y-77990000D01*
D11*
X74043324Y-67319744D02*
X73884225Y-67478843D01*
X79169848Y-72446268D02*
X78940038Y-72676078D01*
X74043324Y-77572792D02*
X74273134Y-77342982D01*
X68916800Y-72446268D02*
X69146610Y-72216458D01*
X74043324Y-67319744D02*
X74273134Y-67549554D01*
X68916800Y-72446268D02*
X69146610Y-72676078D01*
X74043324Y-77572792D02*
X73813514Y-77342982D01*
X79169848Y-72446268D02*
X78940038Y-72216458D01*
X73884225Y-67478843D02*
X72876598Y-66471216D01*
D10*
X72865000Y-83350000D02*
X72865000Y-83985000D01*
X72230000Y-83350000D02*
X72865000Y-83350000D01*
X65940000Y-81300000D02*
X65140000Y-81300000D01*
X65140000Y-81300044D02*
X65140000Y-76850000D01*
X68140000Y-80750000D02*
X68140000Y-76850000D01*
D12*
X67069239Y-71940659D02*
G75*
G03X67210661Y-71799239I70711J70710D01*
G01*
X67210661Y-71799238D02*
G75*
G03X67069239Y-71940660I-70711J-70711D01*
G01*
X67210661Y-71799239D02*
X67210661Y-71799239D01*
X67069239Y-71940660D02*
X67069239Y-71940660D01*
D13*
X68589519Y-69359720D02*
X67670280Y-68440481D01*
X66326777Y-71622462D02*
X65407538Y-70703223D01*
D10*
X79259721Y-82524000D02*
X79585279Y-82524000D01*
X79259721Y-83544000D02*
X79585279Y-83544000D01*
D14*
X77999000Y-87695000D02*
G75*
G03X77999000Y-87695000I-125000J0D01*
G01*
D10*
X75890000Y-86524279D02*
X75890000Y-86198721D01*
X76910000Y-86524279D02*
X76910000Y-86198721D01*
X79610779Y-79984000D02*
X79285221Y-79984000D01*
X79610779Y-81004000D02*
X79285221Y-81004000D01*
D11*
X76017619Y-79873333D02*
X76017619Y-79397142D01*
X77017619Y-79397142D01*
X76017619Y-80730476D02*
X76017619Y-80159047D01*
X76017619Y-80444761D02*
X77017619Y-80444761D01*
X76874761Y-80349523D01*
X76779523Y-80254285D01*
X76731904Y-80159047D01*
X77028476Y-66154026D02*
X76456056Y-66726446D01*
X76422384Y-66827461D01*
X76422384Y-66894805D01*
X76456056Y-66995820D01*
X76590743Y-67130507D01*
X76691758Y-67164179D01*
X76759102Y-67164179D01*
X76860117Y-67130507D01*
X77432537Y-66558087D01*
X77432537Y-67972301D02*
X77028476Y-67568240D01*
X77230506Y-67770270D02*
X77937613Y-67063164D01*
X77769254Y-67096835D01*
X77634567Y-67096835D01*
X77533552Y-67063164D01*
X72676666Y-87042380D02*
X72676666Y-87756666D01*
X72629047Y-87899523D01*
X72533809Y-87994761D01*
X72390952Y-88042380D01*
X72295714Y-88042380D01*
X73676666Y-88042380D02*
X73105238Y-88042380D01*
X73390952Y-88042380D02*
X73390952Y-87042380D01*
X73295714Y-87185238D01*
X73200476Y-87280476D01*
X73105238Y-87328095D01*
X66202380Y-83388095D02*
X65202380Y-83388095D01*
X65202380Y-83150000D01*
X65250000Y-83007142D01*
X65345238Y-82911904D01*
X65440476Y-82864285D01*
X65630952Y-82816666D01*
X65773809Y-82816666D01*
X65964285Y-82864285D01*
X66059523Y-82911904D01*
X66154761Y-83007142D01*
X66202380Y-83150000D01*
X66202380Y-83388095D01*
X65202380Y-82483333D02*
X65202380Y-81864285D01*
X65583333Y-82197619D01*
X65583333Y-82054761D01*
X65630952Y-81959523D01*
X65678571Y-81911904D01*
X65773809Y-81864285D01*
X66011904Y-81864285D01*
X66107142Y-81911904D01*
X66154761Y-81959523D01*
X66202380Y-82054761D01*
X66202380Y-82340476D01*
X66154761Y-82435714D01*
X66107142Y-82483333D01*
X70283333Y-81592380D02*
X69950000Y-81116190D01*
X69711904Y-81592380D02*
X69711904Y-80592380D01*
X70092857Y-80592380D01*
X70188095Y-80640000D01*
X70235714Y-80687619D01*
X70283333Y-80782857D01*
X70283333Y-80925714D01*
X70235714Y-81020952D01*
X70188095Y-81068571D01*
X70092857Y-81116190D01*
X69711904Y-81116190D01*
X71235714Y-81592380D02*
X70664285Y-81592380D01*
X70950000Y-81592380D02*
X70950000Y-80592380D01*
X70854761Y-80735238D01*
X70759523Y-80830476D01*
X70664285Y-80878095D01*
X71522030Y-79017732D02*
X70949610Y-78916717D01*
X71117969Y-79421793D02*
X70410862Y-78714687D01*
X70680236Y-78445312D01*
X70781251Y-78411641D01*
X70848595Y-78411641D01*
X70949610Y-78445312D01*
X71050625Y-78546328D01*
X71084297Y-78647343D01*
X71084297Y-78714687D01*
X71050625Y-78815702D01*
X70781251Y-79085076D01*
X71454687Y-77670862D02*
X71117969Y-78007580D01*
X71421015Y-78377969D01*
X71421015Y-78310625D01*
X71454687Y-78209610D01*
X71623045Y-78041251D01*
X71724061Y-78007580D01*
X71791404Y-78007580D01*
X71892419Y-78041251D01*
X72060778Y-78209610D01*
X72094450Y-78310625D01*
X72094450Y-78377969D01*
X72060778Y-78478984D01*
X71892419Y-78647343D01*
X71791404Y-78681015D01*
X71724061Y-78681015D01*
D14*
X65485238Y-67439761D02*
X65485238Y-68044523D01*
X65061904Y-66774523D02*
X65485238Y-67439761D01*
X65908571Y-66774523D01*
X66997142Y-68044523D02*
X66271428Y-68044523D01*
X66634285Y-68044523D02*
X66634285Y-66774523D01*
X66513333Y-66955952D01*
X66392380Y-67076904D01*
X66271428Y-67137380D01*
D11*
X69434687Y-67645389D02*
X69434687Y-67712732D01*
X69367343Y-67847419D01*
X69300000Y-67914763D01*
X69165312Y-67982106D01*
X69030625Y-67982106D01*
X68929610Y-67948435D01*
X68761251Y-67847419D01*
X68660236Y-67746404D01*
X68559221Y-67578045D01*
X68525549Y-67477030D01*
X68525549Y-67342343D01*
X68592893Y-67207656D01*
X68660236Y-67140312D01*
X68794923Y-67072969D01*
X68862267Y-67072969D01*
X70175465Y-67039297D02*
X69771404Y-67443358D01*
X69973435Y-67241328D02*
X69266328Y-66534221D01*
X69300000Y-66702580D01*
X69300000Y-66837267D01*
X69266328Y-66938282D01*
X81544687Y-75560389D02*
X81544687Y-75627732D01*
X81477343Y-75762419D01*
X81410000Y-75829763D01*
X81275312Y-75897106D01*
X81140625Y-75897106D01*
X81039610Y-75863435D01*
X80871251Y-75762419D01*
X80770236Y-75661404D01*
X80669221Y-75493045D01*
X80635549Y-75392030D01*
X80635549Y-75257343D01*
X80702893Y-75122656D01*
X80770236Y-75055312D01*
X80904923Y-74987969D01*
X80972267Y-74987969D01*
X81140625Y-74684923D02*
X81578358Y-74247190D01*
X81612030Y-74752267D01*
X81713045Y-74651251D01*
X81814061Y-74617580D01*
X81881404Y-74617580D01*
X81982419Y-74651251D01*
X82150778Y-74819610D01*
X82184450Y-74920625D01*
X82184450Y-74987969D01*
X82150778Y-75088984D01*
X81948748Y-75291015D01*
X81847732Y-75324687D01*
X81780389Y-75324687D01*
X79954687Y-75480389D02*
X79954687Y-75547732D01*
X79887343Y-75682419D01*
X79820000Y-75749763D01*
X79685312Y-75817106D01*
X79550625Y-75817106D01*
X79449610Y-75783435D01*
X79281251Y-75682419D01*
X79180236Y-75581404D01*
X79079221Y-75413045D01*
X79045549Y-75312030D01*
X79045549Y-75177343D01*
X79112893Y-75042656D01*
X79180236Y-74975312D01*
X79314923Y-74907969D01*
X79382267Y-74907969D01*
X79651641Y-74638595D02*
X79651641Y-74571251D01*
X79685312Y-74470236D01*
X79853671Y-74301877D01*
X79954687Y-74268206D01*
X80022030Y-74268206D01*
X80123045Y-74301877D01*
X80190389Y-74369221D01*
X80257732Y-74503908D01*
X80257732Y-75312030D01*
X80695465Y-74874297D01*
X78087142Y-89106666D02*
X78134761Y-89154285D01*
X78182380Y-89297142D01*
X78182380Y-89392380D01*
X78134761Y-89535238D01*
X78039523Y-89630476D01*
X77944285Y-89678095D01*
X77753809Y-89725714D01*
X77610952Y-89725714D01*
X77420476Y-89678095D01*
X77325238Y-89630476D01*
X77230000Y-89535238D01*
X77182380Y-89392380D01*
X77182380Y-89297142D01*
X77230000Y-89154285D01*
X77277619Y-89106666D01*
X77515714Y-88249523D02*
X78182380Y-88249523D01*
X77134761Y-88487619D02*
X77849047Y-88725714D01*
X77849047Y-88106666D01*
X81433333Y-82157142D02*
X81385714Y-82204761D01*
X81242857Y-82252380D01*
X81147619Y-82252380D01*
X81004761Y-82204761D01*
X80909523Y-82109523D01*
X80861904Y-82014285D01*
X80814285Y-81823809D01*
X80814285Y-81680952D01*
X80861904Y-81490476D01*
X80909523Y-81395238D01*
X81004761Y-81300000D01*
X81147619Y-81252380D01*
X81242857Y-81252380D01*
X81385714Y-81300000D01*
X81433333Y-81347619D01*
X82338095Y-81252380D02*
X81861904Y-81252380D01*
X81814285Y-81728571D01*
X81861904Y-81680952D01*
X81957142Y-81633333D01*
X82195238Y-81633333D01*
X82290476Y-81680952D01*
X82338095Y-81728571D01*
X82385714Y-81823809D01*
X82385714Y-82061904D01*
X82338095Y-82157142D01*
X82290476Y-82204761D01*
X82195238Y-82252380D01*
X81957142Y-82252380D01*
X81861904Y-82204761D01*
X81814285Y-82157142D01*
X81573333Y-83612380D02*
X81097142Y-83612380D01*
X81097142Y-82612380D01*
X81859047Y-82707619D02*
X81906666Y-82660000D01*
X82001904Y-82612380D01*
X82240000Y-82612380D01*
X82335238Y-82660000D01*
X82382857Y-82707619D01*
X82430476Y-82802857D01*
X82430476Y-82898095D01*
X82382857Y-83040952D01*
X81811428Y-83612380D01*
X82430476Y-83612380D01*
X80928095Y-84702380D02*
X80928095Y-85511904D01*
X80975714Y-85607142D01*
X81023333Y-85654761D01*
X81118571Y-85702380D01*
X81309047Y-85702380D01*
X81404285Y-85654761D01*
X81451904Y-85607142D01*
X81499523Y-85511904D01*
X81499523Y-84702380D01*
X81880476Y-84702380D02*
X82499523Y-84702380D01*
X82166190Y-85083333D01*
X82309047Y-85083333D01*
X82404285Y-85130952D01*
X82451904Y-85178571D01*
X82499523Y-85273809D01*
X82499523Y-85511904D01*
X82451904Y-85607142D01*
X82404285Y-85654761D01*
X82309047Y-85702380D01*
X82023333Y-85702380D01*
X81928095Y-85654761D01*
X81880476Y-85607142D01*
X76706342Y-89823757D02*
X76753961Y-89871376D01*
X76801580Y-90014233D01*
X76801580Y-90109471D01*
X76753961Y-90252328D01*
X76658723Y-90347566D01*
X76563485Y-90395185D01*
X76373009Y-90442804D01*
X76230152Y-90442804D01*
X76039676Y-90395185D01*
X75944438Y-90347566D01*
X75849200Y-90252328D01*
X75801580Y-90109471D01*
X75801580Y-90014233D01*
X75849200Y-89871376D01*
X75896819Y-89823757D01*
X76801580Y-88871376D02*
X76801580Y-89442804D01*
X76801580Y-89157090D02*
X75801580Y-89157090D01*
X75944438Y-89252328D01*
X76039676Y-89347566D01*
X76087295Y-89442804D01*
X75801580Y-88252328D02*
X75801580Y-88157090D01*
X75849200Y-88061852D01*
X75896819Y-88014233D01*
X75992057Y-87966614D01*
X76182533Y-87918995D01*
X76420628Y-87918995D01*
X76611104Y-87966614D01*
X76706342Y-88014233D01*
X76753961Y-88061852D01*
X76801580Y-88157090D01*
X76801580Y-88252328D01*
X76753961Y-88347566D01*
X76706342Y-88395185D01*
X76611104Y-88442804D01*
X76420628Y-88490423D01*
X76182533Y-88490423D01*
X75992057Y-88442804D01*
X75896819Y-88395185D01*
X75849200Y-88347566D01*
X75801580Y-88252328D01*
X80033642Y-83422857D02*
X80081261Y-83470476D01*
X80128880Y-83613333D01*
X80128880Y-83708571D01*
X80081261Y-83851428D01*
X79986023Y-83946666D01*
X79890785Y-83994285D01*
X79700309Y-84041904D01*
X79557452Y-84041904D01*
X79366976Y-83994285D01*
X79271738Y-83946666D01*
X79176500Y-83851428D01*
X79128880Y-83708571D01*
X79128880Y-83613333D01*
X79176500Y-83470476D01*
X79224119Y-83422857D01*
X80128880Y-82470476D02*
X80128880Y-83041904D01*
X80128880Y-82756190D02*
X79128880Y-82756190D01*
X79271738Y-82851428D01*
X79366976Y-82946666D01*
X79414595Y-83041904D01*
X80128880Y-81518095D02*
X80128880Y-82089523D01*
X80128880Y-81803809D02*
X79128880Y-81803809D01*
X79271738Y-81899047D01*
X79366976Y-81994285D01*
X79414595Y-82089523D01*
X68342267Y-75932030D02*
X68443282Y-75359610D01*
X67938206Y-75527969D02*
X68645312Y-74820862D01*
X68914687Y-75090236D01*
X68948358Y-75191251D01*
X68948358Y-75258595D01*
X68914687Y-75359610D01*
X68813671Y-75460625D01*
X68712656Y-75494297D01*
X68645312Y-75494297D01*
X68544297Y-75460625D01*
X68274923Y-75191251D01*
X69285076Y-75460625D02*
X69722809Y-75898358D01*
X69217732Y-75932030D01*
X69318748Y-76033045D01*
X69352419Y-76134061D01*
X69352419Y-76201404D01*
X69318748Y-76302419D01*
X69150389Y-76470778D01*
X69049374Y-76504450D01*
X68982030Y-76504450D01*
X68881015Y-76470778D01*
X68678984Y-76268748D01*
X68645312Y-76167732D01*
X68645312Y-76100389D01*
X66831768Y-74553364D02*
X66259348Y-74452349D01*
X66427707Y-74957425D02*
X65720600Y-74250319D01*
X65989974Y-73980944D01*
X66090989Y-73947273D01*
X66158333Y-73947273D01*
X66259348Y-73980944D01*
X66360363Y-74081960D01*
X66394035Y-74182975D01*
X66394035Y-74250319D01*
X66360363Y-74351334D01*
X66090989Y-74620708D01*
X66966455Y-73475868D02*
X67437860Y-73947273D01*
X66528722Y-73374853D02*
X66865440Y-74048288D01*
X67303173Y-73610555D01*
M02*
