G04 #@! TF.GenerationSoftware,KiCad,Pcbnew,(5.1.2)-2*
G04 #@! TF.CreationDate,2020-03-09T10:25:20+01:00*
G04 #@! TF.ProjectId,ACM-pcb,41434d2d-7063-4622-9e6b-696361645f70,rev?*
G04 #@! TF.SameCoordinates,Original*
G04 #@! TF.FileFunction,Paste,Top*
G04 #@! TF.FilePolarity,Positive*
%FSLAX46Y46*%
G04 Gerber Fmt 4.6, Leading zero omitted, Abs format (unit mm)*
G04 Created by KiCad (PCBNEW (5.1.2)-2) date 2020-03-09 10:25:20*
%MOMM*%
%LPD*%
G04 APERTURE LIST*
%ADD10C,0.100000*%
%ADD11C,0.875000*%
%ADD12C,0.550000*%
%ADD13R,1.100000X1.500000*%
%ADD14C,0.590000*%
%ADD15C,0.400000*%
%ADD16R,0.350000X0.750000*%
%ADD17R,2.400000X1.600000*%
G04 APERTURE END LIST*
D10*
G36*
X78700791Y-82533253D02*
G01*
X78722026Y-82536403D01*
X78742850Y-82541619D01*
X78763062Y-82548851D01*
X78782468Y-82558030D01*
X78800881Y-82569066D01*
X78818124Y-82581854D01*
X78834030Y-82596270D01*
X78848446Y-82612176D01*
X78861234Y-82629419D01*
X78872270Y-82647832D01*
X78881449Y-82667238D01*
X78888681Y-82687450D01*
X78893897Y-82708274D01*
X78897047Y-82729509D01*
X78898100Y-82750950D01*
X78898100Y-83263450D01*
X78897047Y-83284891D01*
X78893897Y-83306126D01*
X78888681Y-83326950D01*
X78881449Y-83347162D01*
X78872270Y-83366568D01*
X78861234Y-83384981D01*
X78848446Y-83402224D01*
X78834030Y-83418130D01*
X78818124Y-83432546D01*
X78800881Y-83445334D01*
X78782468Y-83456370D01*
X78763062Y-83465549D01*
X78742850Y-83472781D01*
X78722026Y-83477997D01*
X78700791Y-83481147D01*
X78679350Y-83482200D01*
X78241850Y-83482200D01*
X78220409Y-83481147D01*
X78199174Y-83477997D01*
X78178350Y-83472781D01*
X78158138Y-83465549D01*
X78138732Y-83456370D01*
X78120319Y-83445334D01*
X78103076Y-83432546D01*
X78087170Y-83418130D01*
X78072754Y-83402224D01*
X78059966Y-83384981D01*
X78048930Y-83366568D01*
X78039751Y-83347162D01*
X78032519Y-83326950D01*
X78027303Y-83306126D01*
X78024153Y-83284891D01*
X78023100Y-83263450D01*
X78023100Y-82750950D01*
X78024153Y-82729509D01*
X78027303Y-82708274D01*
X78032519Y-82687450D01*
X78039751Y-82667238D01*
X78048930Y-82647832D01*
X78059966Y-82629419D01*
X78072754Y-82612176D01*
X78087170Y-82596270D01*
X78103076Y-82581854D01*
X78120319Y-82569066D01*
X78138732Y-82558030D01*
X78158138Y-82548851D01*
X78178350Y-82541619D01*
X78199174Y-82536403D01*
X78220409Y-82533253D01*
X78241850Y-82532200D01*
X78679350Y-82532200D01*
X78700791Y-82533253D01*
X78700791Y-82533253D01*
G37*
D11*
X78460600Y-83007200D03*
D10*
G36*
X80275791Y-82533253D02*
G01*
X80297026Y-82536403D01*
X80317850Y-82541619D01*
X80338062Y-82548851D01*
X80357468Y-82558030D01*
X80375881Y-82569066D01*
X80393124Y-82581854D01*
X80409030Y-82596270D01*
X80423446Y-82612176D01*
X80436234Y-82629419D01*
X80447270Y-82647832D01*
X80456449Y-82667238D01*
X80463681Y-82687450D01*
X80468897Y-82708274D01*
X80472047Y-82729509D01*
X80473100Y-82750950D01*
X80473100Y-83263450D01*
X80472047Y-83284891D01*
X80468897Y-83306126D01*
X80463681Y-83326950D01*
X80456449Y-83347162D01*
X80447270Y-83366568D01*
X80436234Y-83384981D01*
X80423446Y-83402224D01*
X80409030Y-83418130D01*
X80393124Y-83432546D01*
X80375881Y-83445334D01*
X80357468Y-83456370D01*
X80338062Y-83465549D01*
X80317850Y-83472781D01*
X80297026Y-83477997D01*
X80275791Y-83481147D01*
X80254350Y-83482200D01*
X79816850Y-83482200D01*
X79795409Y-83481147D01*
X79774174Y-83477997D01*
X79753350Y-83472781D01*
X79733138Y-83465549D01*
X79713732Y-83456370D01*
X79695319Y-83445334D01*
X79678076Y-83432546D01*
X79662170Y-83418130D01*
X79647754Y-83402224D01*
X79634966Y-83384981D01*
X79623930Y-83366568D01*
X79614751Y-83347162D01*
X79607519Y-83326950D01*
X79602303Y-83306126D01*
X79599153Y-83284891D01*
X79598100Y-83263450D01*
X79598100Y-82750950D01*
X79599153Y-82729509D01*
X79602303Y-82708274D01*
X79607519Y-82687450D01*
X79614751Y-82667238D01*
X79623930Y-82647832D01*
X79634966Y-82629419D01*
X79647754Y-82612176D01*
X79662170Y-82596270D01*
X79678076Y-82581854D01*
X79695319Y-82569066D01*
X79713732Y-82558030D01*
X79733138Y-82548851D01*
X79753350Y-82541619D01*
X79774174Y-82536403D01*
X79795409Y-82533253D01*
X79816850Y-82532200D01*
X80254350Y-82532200D01*
X80275791Y-82533253D01*
X80275791Y-82533253D01*
G37*
D11*
X80035600Y-83007200D03*
D10*
G36*
X79027691Y-78026053D02*
G01*
X79048926Y-78029203D01*
X79069750Y-78034419D01*
X79089962Y-78041651D01*
X79109368Y-78050830D01*
X79127781Y-78061866D01*
X79145024Y-78074654D01*
X79160930Y-78089070D01*
X79175346Y-78104976D01*
X79188134Y-78122219D01*
X79199170Y-78140632D01*
X79208349Y-78160038D01*
X79215581Y-78180250D01*
X79220797Y-78201074D01*
X79223947Y-78222309D01*
X79225000Y-78243750D01*
X79225000Y-78756250D01*
X79223947Y-78777691D01*
X79220797Y-78798926D01*
X79215581Y-78819750D01*
X79208349Y-78839962D01*
X79199170Y-78859368D01*
X79188134Y-78877781D01*
X79175346Y-78895024D01*
X79160930Y-78910930D01*
X79145024Y-78925346D01*
X79127781Y-78938134D01*
X79109368Y-78949170D01*
X79089962Y-78958349D01*
X79069750Y-78965581D01*
X79048926Y-78970797D01*
X79027691Y-78973947D01*
X79006250Y-78975000D01*
X78568750Y-78975000D01*
X78547309Y-78973947D01*
X78526074Y-78970797D01*
X78505250Y-78965581D01*
X78485038Y-78958349D01*
X78465632Y-78949170D01*
X78447219Y-78938134D01*
X78429976Y-78925346D01*
X78414070Y-78910930D01*
X78399654Y-78895024D01*
X78386866Y-78877781D01*
X78375830Y-78859368D01*
X78366651Y-78839962D01*
X78359419Y-78819750D01*
X78354203Y-78798926D01*
X78351053Y-78777691D01*
X78350000Y-78756250D01*
X78350000Y-78243750D01*
X78351053Y-78222309D01*
X78354203Y-78201074D01*
X78359419Y-78180250D01*
X78366651Y-78160038D01*
X78375830Y-78140632D01*
X78386866Y-78122219D01*
X78399654Y-78104976D01*
X78414070Y-78089070D01*
X78429976Y-78074654D01*
X78447219Y-78061866D01*
X78465632Y-78050830D01*
X78485038Y-78041651D01*
X78505250Y-78034419D01*
X78526074Y-78029203D01*
X78547309Y-78026053D01*
X78568750Y-78025000D01*
X79006250Y-78025000D01*
X79027691Y-78026053D01*
X79027691Y-78026053D01*
G37*
D11*
X78787500Y-78500000D03*
D10*
G36*
X77452691Y-78026053D02*
G01*
X77473926Y-78029203D01*
X77494750Y-78034419D01*
X77514962Y-78041651D01*
X77534368Y-78050830D01*
X77552781Y-78061866D01*
X77570024Y-78074654D01*
X77585930Y-78089070D01*
X77600346Y-78104976D01*
X77613134Y-78122219D01*
X77624170Y-78140632D01*
X77633349Y-78160038D01*
X77640581Y-78180250D01*
X77645797Y-78201074D01*
X77648947Y-78222309D01*
X77650000Y-78243750D01*
X77650000Y-78756250D01*
X77648947Y-78777691D01*
X77645797Y-78798926D01*
X77640581Y-78819750D01*
X77633349Y-78839962D01*
X77624170Y-78859368D01*
X77613134Y-78877781D01*
X77600346Y-78895024D01*
X77585930Y-78910930D01*
X77570024Y-78925346D01*
X77552781Y-78938134D01*
X77534368Y-78949170D01*
X77514962Y-78958349D01*
X77494750Y-78965581D01*
X77473926Y-78970797D01*
X77452691Y-78973947D01*
X77431250Y-78975000D01*
X76993750Y-78975000D01*
X76972309Y-78973947D01*
X76951074Y-78970797D01*
X76930250Y-78965581D01*
X76910038Y-78958349D01*
X76890632Y-78949170D01*
X76872219Y-78938134D01*
X76854976Y-78925346D01*
X76839070Y-78910930D01*
X76824654Y-78895024D01*
X76811866Y-78877781D01*
X76800830Y-78859368D01*
X76791651Y-78839962D01*
X76784419Y-78819750D01*
X76779203Y-78798926D01*
X76776053Y-78777691D01*
X76775000Y-78756250D01*
X76775000Y-78243750D01*
X76776053Y-78222309D01*
X76779203Y-78201074D01*
X76784419Y-78180250D01*
X76791651Y-78160038D01*
X76800830Y-78140632D01*
X76811866Y-78122219D01*
X76824654Y-78104976D01*
X76839070Y-78089070D01*
X76854976Y-78074654D01*
X76872219Y-78061866D01*
X76890632Y-78050830D01*
X76910038Y-78041651D01*
X76930250Y-78034419D01*
X76951074Y-78029203D01*
X76972309Y-78026053D01*
X76993750Y-78025000D01*
X77431250Y-78025000D01*
X77452691Y-78026053D01*
X77452691Y-78026053D01*
G37*
D11*
X77212500Y-78500000D03*
D12*
X73018019Y-67461165D03*
D10*
G36*
X72257879Y-67089934D02*
G01*
X72646788Y-66701025D01*
X73778159Y-67832396D01*
X73389250Y-68221305D01*
X72257879Y-67089934D01*
X72257879Y-67089934D01*
G37*
D12*
X72452334Y-68026851D03*
D10*
G36*
X71692194Y-67655620D02*
G01*
X72081103Y-67266711D01*
X73212474Y-68398082D01*
X72823565Y-68786991D01*
X71692194Y-67655620D01*
X71692194Y-67655620D01*
G37*
D12*
X71886648Y-68592536D03*
D10*
G36*
X71126508Y-68221305D02*
G01*
X71515417Y-67832396D01*
X72646788Y-68963767D01*
X72257879Y-69352676D01*
X71126508Y-68221305D01*
X71126508Y-68221305D01*
G37*
D12*
X71320963Y-69158221D03*
D10*
G36*
X70560823Y-68786990D02*
G01*
X70949732Y-68398081D01*
X72081103Y-69529452D01*
X71692194Y-69918361D01*
X70560823Y-68786990D01*
X70560823Y-68786990D01*
G37*
D12*
X70755277Y-69723907D03*
D10*
G36*
X69995137Y-69352676D02*
G01*
X70384046Y-68963767D01*
X71515417Y-70095138D01*
X71126508Y-70484047D01*
X69995137Y-69352676D01*
X69995137Y-69352676D01*
G37*
D12*
X70189592Y-70289592D03*
D10*
G36*
X69429452Y-69918361D02*
G01*
X69818361Y-69529452D01*
X70949732Y-70660823D01*
X70560823Y-71049732D01*
X69429452Y-69918361D01*
X69429452Y-69918361D01*
G37*
D12*
X69623907Y-70855278D03*
D10*
G36*
X68863767Y-70484047D02*
G01*
X69252676Y-70095138D01*
X70384047Y-71226509D01*
X69995138Y-71615418D01*
X68863767Y-70484047D01*
X68863767Y-70484047D01*
G37*
D12*
X69058221Y-71420963D03*
D10*
G36*
X68298081Y-71049732D02*
G01*
X68686990Y-70660823D01*
X69818361Y-71792194D01*
X69429452Y-72181103D01*
X68298081Y-71049732D01*
X68298081Y-71049732D01*
G37*
D12*
X69058221Y-73471573D03*
D10*
G36*
X68686990Y-74231713D02*
G01*
X68298081Y-73842804D01*
X69429452Y-72711433D01*
X69818361Y-73100342D01*
X68686990Y-74231713D01*
X68686990Y-74231713D01*
G37*
D12*
X69623907Y-74037258D03*
D10*
G36*
X69252676Y-74797398D02*
G01*
X68863767Y-74408489D01*
X69995138Y-73277118D01*
X70384047Y-73666027D01*
X69252676Y-74797398D01*
X69252676Y-74797398D01*
G37*
D12*
X70189592Y-74602944D03*
D10*
G36*
X69818361Y-75363084D02*
G01*
X69429452Y-74974175D01*
X70560823Y-73842804D01*
X70949732Y-74231713D01*
X69818361Y-75363084D01*
X69818361Y-75363084D01*
G37*
D12*
X70755277Y-75168629D03*
D10*
G36*
X70384046Y-75928769D02*
G01*
X69995137Y-75539860D01*
X71126508Y-74408489D01*
X71515417Y-74797398D01*
X70384046Y-75928769D01*
X70384046Y-75928769D01*
G37*
D12*
X71320963Y-75734315D03*
D10*
G36*
X70949732Y-76494455D02*
G01*
X70560823Y-76105546D01*
X71692194Y-74974175D01*
X72081103Y-75363084D01*
X70949732Y-76494455D01*
X70949732Y-76494455D01*
G37*
D12*
X71886648Y-76300000D03*
D10*
G36*
X71515417Y-77060140D02*
G01*
X71126508Y-76671231D01*
X72257879Y-75539860D01*
X72646788Y-75928769D01*
X71515417Y-77060140D01*
X71515417Y-77060140D01*
G37*
D12*
X72452334Y-76865685D03*
D10*
G36*
X72081103Y-77625825D02*
G01*
X71692194Y-77236916D01*
X72823565Y-76105545D01*
X73212474Y-76494454D01*
X72081103Y-77625825D01*
X72081103Y-77625825D01*
G37*
D12*
X73018019Y-77431371D03*
D10*
G36*
X72646788Y-78191511D02*
G01*
X72257879Y-77802602D01*
X73389250Y-76671231D01*
X73778159Y-77060140D01*
X72646788Y-78191511D01*
X72646788Y-78191511D01*
G37*
D12*
X75068629Y-77431371D03*
D10*
G36*
X74308489Y-77060140D02*
G01*
X74697398Y-76671231D01*
X75828769Y-77802602D01*
X75439860Y-78191511D01*
X74308489Y-77060140D01*
X74308489Y-77060140D01*
G37*
D12*
X75634314Y-76865685D03*
D10*
G36*
X74874174Y-76494454D02*
G01*
X75263083Y-76105545D01*
X76394454Y-77236916D01*
X76005545Y-77625825D01*
X74874174Y-76494454D01*
X74874174Y-76494454D01*
G37*
D12*
X76200000Y-76300000D03*
D10*
G36*
X75439860Y-75928769D02*
G01*
X75828769Y-75539860D01*
X76960140Y-76671231D01*
X76571231Y-77060140D01*
X75439860Y-75928769D01*
X75439860Y-75928769D01*
G37*
D12*
X76765685Y-75734315D03*
D10*
G36*
X76005545Y-75363084D02*
G01*
X76394454Y-74974175D01*
X77525825Y-76105546D01*
X77136916Y-76494455D01*
X76005545Y-75363084D01*
X76005545Y-75363084D01*
G37*
D12*
X77331371Y-75168629D03*
D10*
G36*
X76571231Y-74797398D02*
G01*
X76960140Y-74408489D01*
X78091511Y-75539860D01*
X77702602Y-75928769D01*
X76571231Y-74797398D01*
X76571231Y-74797398D01*
G37*
D12*
X77897056Y-74602944D03*
D10*
G36*
X77136916Y-74231713D02*
G01*
X77525825Y-73842804D01*
X78657196Y-74974175D01*
X78268287Y-75363084D01*
X77136916Y-74231713D01*
X77136916Y-74231713D01*
G37*
D12*
X78462741Y-74037258D03*
D10*
G36*
X77702601Y-73666027D02*
G01*
X78091510Y-73277118D01*
X79222881Y-74408489D01*
X78833972Y-74797398D01*
X77702601Y-73666027D01*
X77702601Y-73666027D01*
G37*
D12*
X79028427Y-73471573D03*
D10*
G36*
X78268287Y-73100342D02*
G01*
X78657196Y-72711433D01*
X79788567Y-73842804D01*
X79399658Y-74231713D01*
X78268287Y-73100342D01*
X78268287Y-73100342D01*
G37*
D12*
X79028427Y-71420963D03*
D10*
G36*
X78657196Y-72181103D02*
G01*
X78268287Y-71792194D01*
X79399658Y-70660823D01*
X79788567Y-71049732D01*
X78657196Y-72181103D01*
X78657196Y-72181103D01*
G37*
D12*
X78462741Y-70855278D03*
D10*
G36*
X78091510Y-71615418D02*
G01*
X77702601Y-71226509D01*
X78833972Y-70095138D01*
X79222881Y-70484047D01*
X78091510Y-71615418D01*
X78091510Y-71615418D01*
G37*
D12*
X77897056Y-70289592D03*
D10*
G36*
X77525825Y-71049732D02*
G01*
X77136916Y-70660823D01*
X78268287Y-69529452D01*
X78657196Y-69918361D01*
X77525825Y-71049732D01*
X77525825Y-71049732D01*
G37*
D12*
X77331371Y-69723907D03*
D10*
G36*
X76960140Y-70484047D02*
G01*
X76571231Y-70095138D01*
X77702602Y-68963767D01*
X78091511Y-69352676D01*
X76960140Y-70484047D01*
X76960140Y-70484047D01*
G37*
D12*
X76765685Y-69158221D03*
D10*
G36*
X76394454Y-69918361D02*
G01*
X76005545Y-69529452D01*
X77136916Y-68398081D01*
X77525825Y-68786990D01*
X76394454Y-69918361D01*
X76394454Y-69918361D01*
G37*
D12*
X76200000Y-68592536D03*
D10*
G36*
X75828769Y-69352676D02*
G01*
X75439860Y-68963767D01*
X76571231Y-67832396D01*
X76960140Y-68221305D01*
X75828769Y-69352676D01*
X75828769Y-69352676D01*
G37*
D12*
X75634314Y-68026851D03*
D10*
G36*
X75263083Y-68786991D02*
G01*
X74874174Y-68398082D01*
X76005545Y-67266711D01*
X76394454Y-67655620D01*
X75263083Y-68786991D01*
X75263083Y-68786991D01*
G37*
D12*
X75068629Y-67461165D03*
D10*
G36*
X74697398Y-68221305D02*
G01*
X74308489Y-67832396D01*
X75439860Y-66701025D01*
X75828769Y-67089934D01*
X74697398Y-68221305D01*
X74697398Y-68221305D01*
G37*
D13*
X65188400Y-81103600D03*
X65188400Y-78103600D03*
X66688400Y-78103600D03*
X66688400Y-81103600D03*
D10*
G36*
X70061958Y-79580710D02*
G01*
X70076276Y-79582834D01*
X70090317Y-79586351D01*
X70103946Y-79591228D01*
X70117031Y-79597417D01*
X70129447Y-79604858D01*
X70141073Y-79613481D01*
X70151798Y-79623202D01*
X70161519Y-79633927D01*
X70170142Y-79645553D01*
X70177583Y-79657969D01*
X70183772Y-79671054D01*
X70188649Y-79684683D01*
X70192166Y-79698724D01*
X70194290Y-79713042D01*
X70195000Y-79727500D01*
X70195000Y-80072500D01*
X70194290Y-80086958D01*
X70192166Y-80101276D01*
X70188649Y-80115317D01*
X70183772Y-80128946D01*
X70177583Y-80142031D01*
X70170142Y-80154447D01*
X70161519Y-80166073D01*
X70151798Y-80176798D01*
X70141073Y-80186519D01*
X70129447Y-80195142D01*
X70117031Y-80202583D01*
X70103946Y-80208772D01*
X70090317Y-80213649D01*
X70076276Y-80217166D01*
X70061958Y-80219290D01*
X70047500Y-80220000D01*
X69752500Y-80220000D01*
X69738042Y-80219290D01*
X69723724Y-80217166D01*
X69709683Y-80213649D01*
X69696054Y-80208772D01*
X69682969Y-80202583D01*
X69670553Y-80195142D01*
X69658927Y-80186519D01*
X69648202Y-80176798D01*
X69638481Y-80166073D01*
X69629858Y-80154447D01*
X69622417Y-80142031D01*
X69616228Y-80128946D01*
X69611351Y-80115317D01*
X69607834Y-80101276D01*
X69605710Y-80086958D01*
X69605000Y-80072500D01*
X69605000Y-79727500D01*
X69605710Y-79713042D01*
X69607834Y-79698724D01*
X69611351Y-79684683D01*
X69616228Y-79671054D01*
X69622417Y-79657969D01*
X69629858Y-79645553D01*
X69638481Y-79633927D01*
X69648202Y-79623202D01*
X69658927Y-79613481D01*
X69670553Y-79604858D01*
X69682969Y-79597417D01*
X69696054Y-79591228D01*
X69709683Y-79586351D01*
X69723724Y-79582834D01*
X69738042Y-79580710D01*
X69752500Y-79580000D01*
X70047500Y-79580000D01*
X70061958Y-79580710D01*
X70061958Y-79580710D01*
G37*
D14*
X69900000Y-79900000D03*
D10*
G36*
X71031958Y-79580710D02*
G01*
X71046276Y-79582834D01*
X71060317Y-79586351D01*
X71073946Y-79591228D01*
X71087031Y-79597417D01*
X71099447Y-79604858D01*
X71111073Y-79613481D01*
X71121798Y-79623202D01*
X71131519Y-79633927D01*
X71140142Y-79645553D01*
X71147583Y-79657969D01*
X71153772Y-79671054D01*
X71158649Y-79684683D01*
X71162166Y-79698724D01*
X71164290Y-79713042D01*
X71165000Y-79727500D01*
X71165000Y-80072500D01*
X71164290Y-80086958D01*
X71162166Y-80101276D01*
X71158649Y-80115317D01*
X71153772Y-80128946D01*
X71147583Y-80142031D01*
X71140142Y-80154447D01*
X71131519Y-80166073D01*
X71121798Y-80176798D01*
X71111073Y-80186519D01*
X71099447Y-80195142D01*
X71087031Y-80202583D01*
X71073946Y-80208772D01*
X71060317Y-80213649D01*
X71046276Y-80217166D01*
X71031958Y-80219290D01*
X71017500Y-80220000D01*
X70722500Y-80220000D01*
X70708042Y-80219290D01*
X70693724Y-80217166D01*
X70679683Y-80213649D01*
X70666054Y-80208772D01*
X70652969Y-80202583D01*
X70640553Y-80195142D01*
X70628927Y-80186519D01*
X70618202Y-80176798D01*
X70608481Y-80166073D01*
X70599858Y-80154447D01*
X70592417Y-80142031D01*
X70586228Y-80128946D01*
X70581351Y-80115317D01*
X70577834Y-80101276D01*
X70575710Y-80086958D01*
X70575000Y-80072500D01*
X70575000Y-79727500D01*
X70575710Y-79713042D01*
X70577834Y-79698724D01*
X70581351Y-79684683D01*
X70586228Y-79671054D01*
X70592417Y-79657969D01*
X70599858Y-79645553D01*
X70608481Y-79633927D01*
X70618202Y-79623202D01*
X70628927Y-79613481D01*
X70640553Y-79604858D01*
X70652969Y-79597417D01*
X70666054Y-79591228D01*
X70679683Y-79586351D01*
X70693724Y-79582834D01*
X70708042Y-79580710D01*
X70722500Y-79580000D01*
X71017500Y-79580000D01*
X71031958Y-79580710D01*
X71031958Y-79580710D01*
G37*
D14*
X70870000Y-79900000D03*
D10*
G36*
X69745086Y-78265430D02*
G01*
X69759404Y-78267554D01*
X69773445Y-78271071D01*
X69787074Y-78275948D01*
X69800159Y-78282137D01*
X69812575Y-78289578D01*
X69824201Y-78298201D01*
X69834926Y-78307922D01*
X70078878Y-78551874D01*
X70088599Y-78562599D01*
X70097222Y-78574225D01*
X70104663Y-78586641D01*
X70110852Y-78599726D01*
X70115729Y-78613355D01*
X70119246Y-78627396D01*
X70121370Y-78641714D01*
X70122080Y-78656172D01*
X70121370Y-78670630D01*
X70119246Y-78684948D01*
X70115729Y-78698989D01*
X70110852Y-78712618D01*
X70104663Y-78725703D01*
X70097222Y-78738119D01*
X70088599Y-78749745D01*
X70078878Y-78760470D01*
X69870282Y-78969066D01*
X69859557Y-78978787D01*
X69847931Y-78987410D01*
X69835515Y-78994851D01*
X69822430Y-79001040D01*
X69808801Y-79005917D01*
X69794760Y-79009434D01*
X69780442Y-79011558D01*
X69765984Y-79012268D01*
X69751526Y-79011558D01*
X69737208Y-79009434D01*
X69723167Y-79005917D01*
X69709538Y-79001040D01*
X69696453Y-78994851D01*
X69684037Y-78987410D01*
X69672411Y-78978787D01*
X69661686Y-78969066D01*
X69417734Y-78725114D01*
X69408013Y-78714389D01*
X69399390Y-78702763D01*
X69391949Y-78690347D01*
X69385760Y-78677262D01*
X69380883Y-78663633D01*
X69377366Y-78649592D01*
X69375242Y-78635274D01*
X69374532Y-78620816D01*
X69375242Y-78606358D01*
X69377366Y-78592040D01*
X69380883Y-78577999D01*
X69385760Y-78564370D01*
X69391949Y-78551285D01*
X69399390Y-78538869D01*
X69408013Y-78527243D01*
X69417734Y-78516518D01*
X69626330Y-78307922D01*
X69637055Y-78298201D01*
X69648681Y-78289578D01*
X69661097Y-78282137D01*
X69674182Y-78275948D01*
X69687811Y-78271071D01*
X69701852Y-78267554D01*
X69716170Y-78265430D01*
X69730628Y-78264720D01*
X69745086Y-78265430D01*
X69745086Y-78265430D01*
G37*
D14*
X69748306Y-78638494D03*
D10*
G36*
X70430980Y-77579536D02*
G01*
X70445298Y-77581660D01*
X70459339Y-77585177D01*
X70472968Y-77590054D01*
X70486053Y-77596243D01*
X70498469Y-77603684D01*
X70510095Y-77612307D01*
X70520820Y-77622028D01*
X70764772Y-77865980D01*
X70774493Y-77876705D01*
X70783116Y-77888331D01*
X70790557Y-77900747D01*
X70796746Y-77913832D01*
X70801623Y-77927461D01*
X70805140Y-77941502D01*
X70807264Y-77955820D01*
X70807974Y-77970278D01*
X70807264Y-77984736D01*
X70805140Y-77999054D01*
X70801623Y-78013095D01*
X70796746Y-78026724D01*
X70790557Y-78039809D01*
X70783116Y-78052225D01*
X70774493Y-78063851D01*
X70764772Y-78074576D01*
X70556176Y-78283172D01*
X70545451Y-78292893D01*
X70533825Y-78301516D01*
X70521409Y-78308957D01*
X70508324Y-78315146D01*
X70494695Y-78320023D01*
X70480654Y-78323540D01*
X70466336Y-78325664D01*
X70451878Y-78326374D01*
X70437420Y-78325664D01*
X70423102Y-78323540D01*
X70409061Y-78320023D01*
X70395432Y-78315146D01*
X70382347Y-78308957D01*
X70369931Y-78301516D01*
X70358305Y-78292893D01*
X70347580Y-78283172D01*
X70103628Y-78039220D01*
X70093907Y-78028495D01*
X70085284Y-78016869D01*
X70077843Y-78004453D01*
X70071654Y-77991368D01*
X70066777Y-77977739D01*
X70063260Y-77963698D01*
X70061136Y-77949380D01*
X70060426Y-77934922D01*
X70061136Y-77920464D01*
X70063260Y-77906146D01*
X70066777Y-77892105D01*
X70071654Y-77878476D01*
X70077843Y-77865391D01*
X70085284Y-77852975D01*
X70093907Y-77841349D01*
X70103628Y-77830624D01*
X70312224Y-77622028D01*
X70322949Y-77612307D01*
X70334575Y-77603684D01*
X70346991Y-77596243D01*
X70360076Y-77590054D01*
X70373705Y-77585177D01*
X70387746Y-77581660D01*
X70402064Y-77579536D01*
X70416522Y-77578826D01*
X70430980Y-77579536D01*
X70430980Y-77579536D01*
G37*
D14*
X70434200Y-77952600D03*
D15*
X67847057Y-69182943D03*
D10*
G36*
X68377387Y-69996116D02*
G01*
X67033884Y-68652613D01*
X67316727Y-68369770D01*
X68660230Y-69713273D01*
X68377387Y-69996116D01*
X68377387Y-69996116D01*
G37*
D15*
X66998529Y-70031472D03*
D10*
G36*
X67528859Y-70844645D02*
G01*
X66185356Y-69501142D01*
X66468199Y-69218299D01*
X67811702Y-70561802D01*
X67528859Y-70844645D01*
X67528859Y-70844645D01*
G37*
D15*
X66150000Y-70880000D03*
D10*
G36*
X66680330Y-71693173D02*
G01*
X65336827Y-70349670D01*
X65619670Y-70066827D01*
X66963173Y-71410330D01*
X66680330Y-71693173D01*
X66680330Y-71693173D01*
G37*
G36*
X70132674Y-67616042D02*
G01*
X70146992Y-67618166D01*
X70161033Y-67621683D01*
X70174662Y-67626560D01*
X70187747Y-67632749D01*
X70200163Y-67640190D01*
X70211789Y-67648813D01*
X70222514Y-67658534D01*
X70466466Y-67902486D01*
X70476187Y-67913211D01*
X70484810Y-67924837D01*
X70492251Y-67937253D01*
X70498440Y-67950338D01*
X70503317Y-67963967D01*
X70506834Y-67978008D01*
X70508958Y-67992326D01*
X70509668Y-68006784D01*
X70508958Y-68021242D01*
X70506834Y-68035560D01*
X70503317Y-68049601D01*
X70498440Y-68063230D01*
X70492251Y-68076315D01*
X70484810Y-68088731D01*
X70476187Y-68100357D01*
X70466466Y-68111082D01*
X70257870Y-68319678D01*
X70247145Y-68329399D01*
X70235519Y-68338022D01*
X70223103Y-68345463D01*
X70210018Y-68351652D01*
X70196389Y-68356529D01*
X70182348Y-68360046D01*
X70168030Y-68362170D01*
X70153572Y-68362880D01*
X70139114Y-68362170D01*
X70124796Y-68360046D01*
X70110755Y-68356529D01*
X70097126Y-68351652D01*
X70084041Y-68345463D01*
X70071625Y-68338022D01*
X70059999Y-68329399D01*
X70049274Y-68319678D01*
X69805322Y-68075726D01*
X69795601Y-68065001D01*
X69786978Y-68053375D01*
X69779537Y-68040959D01*
X69773348Y-68027874D01*
X69768471Y-68014245D01*
X69764954Y-68000204D01*
X69762830Y-67985886D01*
X69762120Y-67971428D01*
X69762830Y-67956970D01*
X69764954Y-67942652D01*
X69768471Y-67928611D01*
X69773348Y-67914982D01*
X69779537Y-67901897D01*
X69786978Y-67889481D01*
X69795601Y-67877855D01*
X69805322Y-67867130D01*
X70013918Y-67658534D01*
X70024643Y-67648813D01*
X70036269Y-67640190D01*
X70048685Y-67632749D01*
X70061770Y-67626560D01*
X70075399Y-67621683D01*
X70089440Y-67618166D01*
X70103758Y-67616042D01*
X70118216Y-67615332D01*
X70132674Y-67616042D01*
X70132674Y-67616042D01*
G37*
D14*
X70135894Y-67989106D03*
D10*
G36*
X69446780Y-68301936D02*
G01*
X69461098Y-68304060D01*
X69475139Y-68307577D01*
X69488768Y-68312454D01*
X69501853Y-68318643D01*
X69514269Y-68326084D01*
X69525895Y-68334707D01*
X69536620Y-68344428D01*
X69780572Y-68588380D01*
X69790293Y-68599105D01*
X69798916Y-68610731D01*
X69806357Y-68623147D01*
X69812546Y-68636232D01*
X69817423Y-68649861D01*
X69820940Y-68663902D01*
X69823064Y-68678220D01*
X69823774Y-68692678D01*
X69823064Y-68707136D01*
X69820940Y-68721454D01*
X69817423Y-68735495D01*
X69812546Y-68749124D01*
X69806357Y-68762209D01*
X69798916Y-68774625D01*
X69790293Y-68786251D01*
X69780572Y-68796976D01*
X69571976Y-69005572D01*
X69561251Y-69015293D01*
X69549625Y-69023916D01*
X69537209Y-69031357D01*
X69524124Y-69037546D01*
X69510495Y-69042423D01*
X69496454Y-69045940D01*
X69482136Y-69048064D01*
X69467678Y-69048774D01*
X69453220Y-69048064D01*
X69438902Y-69045940D01*
X69424861Y-69042423D01*
X69411232Y-69037546D01*
X69398147Y-69031357D01*
X69385731Y-69023916D01*
X69374105Y-69015293D01*
X69363380Y-69005572D01*
X69119428Y-68761620D01*
X69109707Y-68750895D01*
X69101084Y-68739269D01*
X69093643Y-68726853D01*
X69087454Y-68713768D01*
X69082577Y-68700139D01*
X69079060Y-68686098D01*
X69076936Y-68671780D01*
X69076226Y-68657322D01*
X69076936Y-68642864D01*
X69079060Y-68628546D01*
X69082577Y-68614505D01*
X69087454Y-68600876D01*
X69093643Y-68587791D01*
X69101084Y-68575375D01*
X69109707Y-68563749D01*
X69119428Y-68553024D01*
X69328024Y-68344428D01*
X69338749Y-68334707D01*
X69350375Y-68326084D01*
X69362791Y-68318643D01*
X69375876Y-68312454D01*
X69389505Y-68307577D01*
X69403546Y-68304060D01*
X69417864Y-68301936D01*
X69432322Y-68301226D01*
X69446780Y-68301936D01*
X69446780Y-68301936D01*
G37*
D14*
X69450000Y-68675000D03*
D10*
G36*
X79696780Y-76426936D02*
G01*
X79711098Y-76429060D01*
X79725139Y-76432577D01*
X79738768Y-76437454D01*
X79751853Y-76443643D01*
X79764269Y-76451084D01*
X79775895Y-76459707D01*
X79786620Y-76469428D01*
X80030572Y-76713380D01*
X80040293Y-76724105D01*
X80048916Y-76735731D01*
X80056357Y-76748147D01*
X80062546Y-76761232D01*
X80067423Y-76774861D01*
X80070940Y-76788902D01*
X80073064Y-76803220D01*
X80073774Y-76817678D01*
X80073064Y-76832136D01*
X80070940Y-76846454D01*
X80067423Y-76860495D01*
X80062546Y-76874124D01*
X80056357Y-76887209D01*
X80048916Y-76899625D01*
X80040293Y-76911251D01*
X80030572Y-76921976D01*
X79821976Y-77130572D01*
X79811251Y-77140293D01*
X79799625Y-77148916D01*
X79787209Y-77156357D01*
X79774124Y-77162546D01*
X79760495Y-77167423D01*
X79746454Y-77170940D01*
X79732136Y-77173064D01*
X79717678Y-77173774D01*
X79703220Y-77173064D01*
X79688902Y-77170940D01*
X79674861Y-77167423D01*
X79661232Y-77162546D01*
X79648147Y-77156357D01*
X79635731Y-77148916D01*
X79624105Y-77140293D01*
X79613380Y-77130572D01*
X79369428Y-76886620D01*
X79359707Y-76875895D01*
X79351084Y-76864269D01*
X79343643Y-76851853D01*
X79337454Y-76838768D01*
X79332577Y-76825139D01*
X79329060Y-76811098D01*
X79326936Y-76796780D01*
X79326226Y-76782322D01*
X79326936Y-76767864D01*
X79329060Y-76753546D01*
X79332577Y-76739505D01*
X79337454Y-76725876D01*
X79343643Y-76712791D01*
X79351084Y-76700375D01*
X79359707Y-76688749D01*
X79369428Y-76678024D01*
X79578024Y-76469428D01*
X79588749Y-76459707D01*
X79600375Y-76451084D01*
X79612791Y-76443643D01*
X79625876Y-76437454D01*
X79639505Y-76432577D01*
X79653546Y-76429060D01*
X79667864Y-76426936D01*
X79682322Y-76426226D01*
X79696780Y-76426936D01*
X79696780Y-76426936D01*
G37*
D14*
X79700000Y-76800000D03*
D10*
G36*
X80382674Y-75741042D02*
G01*
X80396992Y-75743166D01*
X80411033Y-75746683D01*
X80424662Y-75751560D01*
X80437747Y-75757749D01*
X80450163Y-75765190D01*
X80461789Y-75773813D01*
X80472514Y-75783534D01*
X80716466Y-76027486D01*
X80726187Y-76038211D01*
X80734810Y-76049837D01*
X80742251Y-76062253D01*
X80748440Y-76075338D01*
X80753317Y-76088967D01*
X80756834Y-76103008D01*
X80758958Y-76117326D01*
X80759668Y-76131784D01*
X80758958Y-76146242D01*
X80756834Y-76160560D01*
X80753317Y-76174601D01*
X80748440Y-76188230D01*
X80742251Y-76201315D01*
X80734810Y-76213731D01*
X80726187Y-76225357D01*
X80716466Y-76236082D01*
X80507870Y-76444678D01*
X80497145Y-76454399D01*
X80485519Y-76463022D01*
X80473103Y-76470463D01*
X80460018Y-76476652D01*
X80446389Y-76481529D01*
X80432348Y-76485046D01*
X80418030Y-76487170D01*
X80403572Y-76487880D01*
X80389114Y-76487170D01*
X80374796Y-76485046D01*
X80360755Y-76481529D01*
X80347126Y-76476652D01*
X80334041Y-76470463D01*
X80321625Y-76463022D01*
X80309999Y-76454399D01*
X80299274Y-76444678D01*
X80055322Y-76200726D01*
X80045601Y-76190001D01*
X80036978Y-76178375D01*
X80029537Y-76165959D01*
X80023348Y-76152874D01*
X80018471Y-76139245D01*
X80014954Y-76125204D01*
X80012830Y-76110886D01*
X80012120Y-76096428D01*
X80012830Y-76081970D01*
X80014954Y-76067652D01*
X80018471Y-76053611D01*
X80023348Y-76039982D01*
X80029537Y-76026897D01*
X80036978Y-76014481D01*
X80045601Y-76002855D01*
X80055322Y-75992130D01*
X80263918Y-75783534D01*
X80274643Y-75773813D01*
X80286269Y-75765190D01*
X80298685Y-75757749D01*
X80311770Y-75751560D01*
X80325399Y-75746683D01*
X80339440Y-75743166D01*
X80353758Y-75741042D01*
X80368216Y-75740332D01*
X80382674Y-75741042D01*
X80382674Y-75741042D01*
G37*
D14*
X80385894Y-76114106D03*
D10*
G36*
X76742558Y-82435910D02*
G01*
X76756876Y-82438034D01*
X76770917Y-82441551D01*
X76784546Y-82446428D01*
X76797631Y-82452617D01*
X76810047Y-82460058D01*
X76821673Y-82468681D01*
X76832398Y-82478402D01*
X76842119Y-82489127D01*
X76850742Y-82500753D01*
X76858183Y-82513169D01*
X76864372Y-82526254D01*
X76869249Y-82539883D01*
X76872766Y-82553924D01*
X76874890Y-82568242D01*
X76875600Y-82582700D01*
X76875600Y-82877700D01*
X76874890Y-82892158D01*
X76872766Y-82906476D01*
X76869249Y-82920517D01*
X76864372Y-82934146D01*
X76858183Y-82947231D01*
X76850742Y-82959647D01*
X76842119Y-82971273D01*
X76832398Y-82981998D01*
X76821673Y-82991719D01*
X76810047Y-83000342D01*
X76797631Y-83007783D01*
X76784546Y-83013972D01*
X76770917Y-83018849D01*
X76756876Y-83022366D01*
X76742558Y-83024490D01*
X76728100Y-83025200D01*
X76383100Y-83025200D01*
X76368642Y-83024490D01*
X76354324Y-83022366D01*
X76340283Y-83018849D01*
X76326654Y-83013972D01*
X76313569Y-83007783D01*
X76301153Y-83000342D01*
X76289527Y-82991719D01*
X76278802Y-82981998D01*
X76269081Y-82971273D01*
X76260458Y-82959647D01*
X76253017Y-82947231D01*
X76246828Y-82934146D01*
X76241951Y-82920517D01*
X76238434Y-82906476D01*
X76236310Y-82892158D01*
X76235600Y-82877700D01*
X76235600Y-82582700D01*
X76236310Y-82568242D01*
X76238434Y-82553924D01*
X76241951Y-82539883D01*
X76246828Y-82526254D01*
X76253017Y-82513169D01*
X76260458Y-82500753D01*
X76269081Y-82489127D01*
X76278802Y-82478402D01*
X76289527Y-82468681D01*
X76301153Y-82460058D01*
X76313569Y-82452617D01*
X76326654Y-82446428D01*
X76340283Y-82441551D01*
X76354324Y-82438034D01*
X76368642Y-82435910D01*
X76383100Y-82435200D01*
X76728100Y-82435200D01*
X76742558Y-82435910D01*
X76742558Y-82435910D01*
G37*
D14*
X76555600Y-82730200D03*
D10*
G36*
X76742558Y-81465910D02*
G01*
X76756876Y-81468034D01*
X76770917Y-81471551D01*
X76784546Y-81476428D01*
X76797631Y-81482617D01*
X76810047Y-81490058D01*
X76821673Y-81498681D01*
X76832398Y-81508402D01*
X76842119Y-81519127D01*
X76850742Y-81530753D01*
X76858183Y-81543169D01*
X76864372Y-81556254D01*
X76869249Y-81569883D01*
X76872766Y-81583924D01*
X76874890Y-81598242D01*
X76875600Y-81612700D01*
X76875600Y-81907700D01*
X76874890Y-81922158D01*
X76872766Y-81936476D01*
X76869249Y-81950517D01*
X76864372Y-81964146D01*
X76858183Y-81977231D01*
X76850742Y-81989647D01*
X76842119Y-82001273D01*
X76832398Y-82011998D01*
X76821673Y-82021719D01*
X76810047Y-82030342D01*
X76797631Y-82037783D01*
X76784546Y-82043972D01*
X76770917Y-82048849D01*
X76756876Y-82052366D01*
X76742558Y-82054490D01*
X76728100Y-82055200D01*
X76383100Y-82055200D01*
X76368642Y-82054490D01*
X76354324Y-82052366D01*
X76340283Y-82048849D01*
X76326654Y-82043972D01*
X76313569Y-82037783D01*
X76301153Y-82030342D01*
X76289527Y-82021719D01*
X76278802Y-82011998D01*
X76269081Y-82001273D01*
X76260458Y-81989647D01*
X76253017Y-81977231D01*
X76246828Y-81964146D01*
X76241951Y-81950517D01*
X76238434Y-81936476D01*
X76236310Y-81922158D01*
X76235600Y-81907700D01*
X76235600Y-81612700D01*
X76236310Y-81598242D01*
X76238434Y-81583924D01*
X76241951Y-81569883D01*
X76246828Y-81556254D01*
X76253017Y-81543169D01*
X76260458Y-81530753D01*
X76269081Y-81519127D01*
X76278802Y-81508402D01*
X76289527Y-81498681D01*
X76301153Y-81490058D01*
X76313569Y-81482617D01*
X76326654Y-81476428D01*
X76340283Y-81471551D01*
X76354324Y-81468034D01*
X76368642Y-81465910D01*
X76383100Y-81465200D01*
X76728100Y-81465200D01*
X76742558Y-81465910D01*
X76742558Y-81465910D01*
G37*
D14*
X76555600Y-81760200D03*
D10*
G36*
X78053833Y-76369883D02*
G01*
X78068151Y-76372007D01*
X78082192Y-76375524D01*
X78095821Y-76380401D01*
X78108906Y-76386590D01*
X78121322Y-76394031D01*
X78132948Y-76402654D01*
X78143673Y-76412375D01*
X78387625Y-76656327D01*
X78397346Y-76667052D01*
X78405969Y-76678678D01*
X78413410Y-76691094D01*
X78419599Y-76704179D01*
X78424476Y-76717808D01*
X78427993Y-76731849D01*
X78430117Y-76746167D01*
X78430827Y-76760625D01*
X78430117Y-76775083D01*
X78427993Y-76789401D01*
X78424476Y-76803442D01*
X78419599Y-76817071D01*
X78413410Y-76830156D01*
X78405969Y-76842572D01*
X78397346Y-76854198D01*
X78387625Y-76864923D01*
X78179029Y-77073519D01*
X78168304Y-77083240D01*
X78156678Y-77091863D01*
X78144262Y-77099304D01*
X78131177Y-77105493D01*
X78117548Y-77110370D01*
X78103507Y-77113887D01*
X78089189Y-77116011D01*
X78074731Y-77116721D01*
X78060273Y-77116011D01*
X78045955Y-77113887D01*
X78031914Y-77110370D01*
X78018285Y-77105493D01*
X78005200Y-77099304D01*
X77992784Y-77091863D01*
X77981158Y-77083240D01*
X77970433Y-77073519D01*
X77726481Y-76829567D01*
X77716760Y-76818842D01*
X77708137Y-76807216D01*
X77700696Y-76794800D01*
X77694507Y-76781715D01*
X77689630Y-76768086D01*
X77686113Y-76754045D01*
X77683989Y-76739727D01*
X77683279Y-76725269D01*
X77683989Y-76710811D01*
X77686113Y-76696493D01*
X77689630Y-76682452D01*
X77694507Y-76668823D01*
X77700696Y-76655738D01*
X77708137Y-76643322D01*
X77716760Y-76631696D01*
X77726481Y-76620971D01*
X77935077Y-76412375D01*
X77945802Y-76402654D01*
X77957428Y-76394031D01*
X77969844Y-76386590D01*
X77982929Y-76380401D01*
X77996558Y-76375524D01*
X78010599Y-76372007D01*
X78024917Y-76369883D01*
X78039375Y-76369173D01*
X78053833Y-76369883D01*
X78053833Y-76369883D01*
G37*
D14*
X78057053Y-76742947D03*
D10*
G36*
X78739727Y-75683989D02*
G01*
X78754045Y-75686113D01*
X78768086Y-75689630D01*
X78781715Y-75694507D01*
X78794800Y-75700696D01*
X78807216Y-75708137D01*
X78818842Y-75716760D01*
X78829567Y-75726481D01*
X79073519Y-75970433D01*
X79083240Y-75981158D01*
X79091863Y-75992784D01*
X79099304Y-76005200D01*
X79105493Y-76018285D01*
X79110370Y-76031914D01*
X79113887Y-76045955D01*
X79116011Y-76060273D01*
X79116721Y-76074731D01*
X79116011Y-76089189D01*
X79113887Y-76103507D01*
X79110370Y-76117548D01*
X79105493Y-76131177D01*
X79099304Y-76144262D01*
X79091863Y-76156678D01*
X79083240Y-76168304D01*
X79073519Y-76179029D01*
X78864923Y-76387625D01*
X78854198Y-76397346D01*
X78842572Y-76405969D01*
X78830156Y-76413410D01*
X78817071Y-76419599D01*
X78803442Y-76424476D01*
X78789401Y-76427993D01*
X78775083Y-76430117D01*
X78760625Y-76430827D01*
X78746167Y-76430117D01*
X78731849Y-76427993D01*
X78717808Y-76424476D01*
X78704179Y-76419599D01*
X78691094Y-76413410D01*
X78678678Y-76405969D01*
X78667052Y-76397346D01*
X78656327Y-76387625D01*
X78412375Y-76143673D01*
X78402654Y-76132948D01*
X78394031Y-76121322D01*
X78386590Y-76108906D01*
X78380401Y-76095821D01*
X78375524Y-76082192D01*
X78372007Y-76068151D01*
X78369883Y-76053833D01*
X78369173Y-76039375D01*
X78369883Y-76024917D01*
X78372007Y-76010599D01*
X78375524Y-75996558D01*
X78380401Y-75982929D01*
X78386590Y-75969844D01*
X78394031Y-75957428D01*
X78402654Y-75945802D01*
X78412375Y-75935077D01*
X78620971Y-75726481D01*
X78631696Y-75716760D01*
X78643322Y-75708137D01*
X78655738Y-75700696D01*
X78668823Y-75694507D01*
X78682452Y-75689630D01*
X78696493Y-75686113D01*
X78710811Y-75683989D01*
X78725269Y-75683279D01*
X78739727Y-75683989D01*
X78739727Y-75683989D01*
G37*
D14*
X78742947Y-76057053D03*
D10*
G36*
X77047358Y-87084110D02*
G01*
X77061676Y-87086234D01*
X77075717Y-87089751D01*
X77089346Y-87094628D01*
X77102431Y-87100817D01*
X77114847Y-87108258D01*
X77126473Y-87116881D01*
X77137198Y-87126602D01*
X77146919Y-87137327D01*
X77155542Y-87148953D01*
X77162983Y-87161369D01*
X77169172Y-87174454D01*
X77174049Y-87188083D01*
X77177566Y-87202124D01*
X77179690Y-87216442D01*
X77180400Y-87230900D01*
X77180400Y-87525900D01*
X77179690Y-87540358D01*
X77177566Y-87554676D01*
X77174049Y-87568717D01*
X77169172Y-87582346D01*
X77162983Y-87595431D01*
X77155542Y-87607847D01*
X77146919Y-87619473D01*
X77137198Y-87630198D01*
X77126473Y-87639919D01*
X77114847Y-87648542D01*
X77102431Y-87655983D01*
X77089346Y-87662172D01*
X77075717Y-87667049D01*
X77061676Y-87670566D01*
X77047358Y-87672690D01*
X77032900Y-87673400D01*
X76687900Y-87673400D01*
X76673442Y-87672690D01*
X76659124Y-87670566D01*
X76645083Y-87667049D01*
X76631454Y-87662172D01*
X76618369Y-87655983D01*
X76605953Y-87648542D01*
X76594327Y-87639919D01*
X76583602Y-87630198D01*
X76573881Y-87619473D01*
X76565258Y-87607847D01*
X76557817Y-87595431D01*
X76551628Y-87582346D01*
X76546751Y-87568717D01*
X76543234Y-87554676D01*
X76541110Y-87540358D01*
X76540400Y-87525900D01*
X76540400Y-87230900D01*
X76541110Y-87216442D01*
X76543234Y-87202124D01*
X76546751Y-87188083D01*
X76551628Y-87174454D01*
X76557817Y-87161369D01*
X76565258Y-87148953D01*
X76573881Y-87137327D01*
X76583602Y-87126602D01*
X76594327Y-87116881D01*
X76605953Y-87108258D01*
X76618369Y-87100817D01*
X76631454Y-87094628D01*
X76645083Y-87089751D01*
X76659124Y-87086234D01*
X76673442Y-87084110D01*
X76687900Y-87083400D01*
X77032900Y-87083400D01*
X77047358Y-87084110D01*
X77047358Y-87084110D01*
G37*
D14*
X76860400Y-87378400D03*
D10*
G36*
X77047358Y-86114110D02*
G01*
X77061676Y-86116234D01*
X77075717Y-86119751D01*
X77089346Y-86124628D01*
X77102431Y-86130817D01*
X77114847Y-86138258D01*
X77126473Y-86146881D01*
X77137198Y-86156602D01*
X77146919Y-86167327D01*
X77155542Y-86178953D01*
X77162983Y-86191369D01*
X77169172Y-86204454D01*
X77174049Y-86218083D01*
X77177566Y-86232124D01*
X77179690Y-86246442D01*
X77180400Y-86260900D01*
X77180400Y-86555900D01*
X77179690Y-86570358D01*
X77177566Y-86584676D01*
X77174049Y-86598717D01*
X77169172Y-86612346D01*
X77162983Y-86625431D01*
X77155542Y-86637847D01*
X77146919Y-86649473D01*
X77137198Y-86660198D01*
X77126473Y-86669919D01*
X77114847Y-86678542D01*
X77102431Y-86685983D01*
X77089346Y-86692172D01*
X77075717Y-86697049D01*
X77061676Y-86700566D01*
X77047358Y-86702690D01*
X77032900Y-86703400D01*
X76687900Y-86703400D01*
X76673442Y-86702690D01*
X76659124Y-86700566D01*
X76645083Y-86697049D01*
X76631454Y-86692172D01*
X76618369Y-86685983D01*
X76605953Y-86678542D01*
X76594327Y-86669919D01*
X76583602Y-86660198D01*
X76573881Y-86649473D01*
X76565258Y-86637847D01*
X76557817Y-86625431D01*
X76551628Y-86612346D01*
X76546751Y-86598717D01*
X76543234Y-86584676D01*
X76541110Y-86570358D01*
X76540400Y-86555900D01*
X76540400Y-86260900D01*
X76541110Y-86246442D01*
X76543234Y-86232124D01*
X76546751Y-86218083D01*
X76551628Y-86204454D01*
X76557817Y-86191369D01*
X76565258Y-86178953D01*
X76573881Y-86167327D01*
X76583602Y-86156602D01*
X76594327Y-86146881D01*
X76605953Y-86138258D01*
X76618369Y-86130817D01*
X76631454Y-86124628D01*
X76645083Y-86119751D01*
X76659124Y-86116234D01*
X76673442Y-86114110D01*
X76687900Y-86113400D01*
X77032900Y-86113400D01*
X77047358Y-86114110D01*
X77047358Y-86114110D01*
G37*
D14*
X76860400Y-86408400D03*
D10*
G36*
X79147958Y-81444710D02*
G01*
X79162276Y-81446834D01*
X79176317Y-81450351D01*
X79189946Y-81455228D01*
X79203031Y-81461417D01*
X79215447Y-81468858D01*
X79227073Y-81477481D01*
X79237798Y-81487202D01*
X79247519Y-81497927D01*
X79256142Y-81509553D01*
X79263583Y-81521969D01*
X79269772Y-81535054D01*
X79274649Y-81548683D01*
X79278166Y-81562724D01*
X79280290Y-81577042D01*
X79281000Y-81591500D01*
X79281000Y-81936500D01*
X79280290Y-81950958D01*
X79278166Y-81965276D01*
X79274649Y-81979317D01*
X79269772Y-81992946D01*
X79263583Y-82006031D01*
X79256142Y-82018447D01*
X79247519Y-82030073D01*
X79237798Y-82040798D01*
X79227073Y-82050519D01*
X79215447Y-82059142D01*
X79203031Y-82066583D01*
X79189946Y-82072772D01*
X79176317Y-82077649D01*
X79162276Y-82081166D01*
X79147958Y-82083290D01*
X79133500Y-82084000D01*
X78838500Y-82084000D01*
X78824042Y-82083290D01*
X78809724Y-82081166D01*
X78795683Y-82077649D01*
X78782054Y-82072772D01*
X78768969Y-82066583D01*
X78756553Y-82059142D01*
X78744927Y-82050519D01*
X78734202Y-82040798D01*
X78724481Y-82030073D01*
X78715858Y-82018447D01*
X78708417Y-82006031D01*
X78702228Y-81992946D01*
X78697351Y-81979317D01*
X78693834Y-81965276D01*
X78691710Y-81950958D01*
X78691000Y-81936500D01*
X78691000Y-81591500D01*
X78691710Y-81577042D01*
X78693834Y-81562724D01*
X78697351Y-81548683D01*
X78702228Y-81535054D01*
X78708417Y-81521969D01*
X78715858Y-81509553D01*
X78724481Y-81497927D01*
X78734202Y-81487202D01*
X78744927Y-81477481D01*
X78756553Y-81468858D01*
X78768969Y-81461417D01*
X78782054Y-81455228D01*
X78795683Y-81450351D01*
X78809724Y-81446834D01*
X78824042Y-81444710D01*
X78838500Y-81444000D01*
X79133500Y-81444000D01*
X79147958Y-81444710D01*
X79147958Y-81444710D01*
G37*
D14*
X78986000Y-81764000D03*
D10*
G36*
X80117958Y-81444710D02*
G01*
X80132276Y-81446834D01*
X80146317Y-81450351D01*
X80159946Y-81455228D01*
X80173031Y-81461417D01*
X80185447Y-81468858D01*
X80197073Y-81477481D01*
X80207798Y-81487202D01*
X80217519Y-81497927D01*
X80226142Y-81509553D01*
X80233583Y-81521969D01*
X80239772Y-81535054D01*
X80244649Y-81548683D01*
X80248166Y-81562724D01*
X80250290Y-81577042D01*
X80251000Y-81591500D01*
X80251000Y-81936500D01*
X80250290Y-81950958D01*
X80248166Y-81965276D01*
X80244649Y-81979317D01*
X80239772Y-81992946D01*
X80233583Y-82006031D01*
X80226142Y-82018447D01*
X80217519Y-82030073D01*
X80207798Y-82040798D01*
X80197073Y-82050519D01*
X80185447Y-82059142D01*
X80173031Y-82066583D01*
X80159946Y-82072772D01*
X80146317Y-82077649D01*
X80132276Y-82081166D01*
X80117958Y-82083290D01*
X80103500Y-82084000D01*
X79808500Y-82084000D01*
X79794042Y-82083290D01*
X79779724Y-82081166D01*
X79765683Y-82077649D01*
X79752054Y-82072772D01*
X79738969Y-82066583D01*
X79726553Y-82059142D01*
X79714927Y-82050519D01*
X79704202Y-82040798D01*
X79694481Y-82030073D01*
X79685858Y-82018447D01*
X79678417Y-82006031D01*
X79672228Y-81992946D01*
X79667351Y-81979317D01*
X79663834Y-81965276D01*
X79661710Y-81950958D01*
X79661000Y-81936500D01*
X79661000Y-81591500D01*
X79661710Y-81577042D01*
X79663834Y-81562724D01*
X79667351Y-81548683D01*
X79672228Y-81535054D01*
X79678417Y-81521969D01*
X79685858Y-81509553D01*
X79694481Y-81497927D01*
X79704202Y-81487202D01*
X79714927Y-81477481D01*
X79726553Y-81468858D01*
X79738969Y-81461417D01*
X79752054Y-81455228D01*
X79765683Y-81450351D01*
X79779724Y-81446834D01*
X79794042Y-81444710D01*
X79808500Y-81444000D01*
X80103500Y-81444000D01*
X80117958Y-81444710D01*
X80117958Y-81444710D01*
G37*
D14*
X79956000Y-81764000D03*
D16*
X78549000Y-87320000D03*
X79199000Y-87320000D03*
X79849000Y-87320000D03*
X80499000Y-87320000D03*
X80499000Y-84320000D03*
X79849000Y-84320000D03*
X79199000Y-84320000D03*
X78549000Y-84320000D03*
D17*
X79524000Y-85820000D03*
D10*
G36*
X75537891Y-86736553D02*
G01*
X75559126Y-86739703D01*
X75579950Y-86744919D01*
X75600162Y-86752151D01*
X75619568Y-86761330D01*
X75637981Y-86772366D01*
X75655224Y-86785154D01*
X75671130Y-86799570D01*
X75685546Y-86815476D01*
X75698334Y-86832719D01*
X75709370Y-86851132D01*
X75718549Y-86870538D01*
X75725781Y-86890750D01*
X75730997Y-86911574D01*
X75734147Y-86932809D01*
X75735200Y-86954250D01*
X75735200Y-87391750D01*
X75734147Y-87413191D01*
X75730997Y-87434426D01*
X75725781Y-87455250D01*
X75718549Y-87475462D01*
X75709370Y-87494868D01*
X75698334Y-87513281D01*
X75685546Y-87530524D01*
X75671130Y-87546430D01*
X75655224Y-87560846D01*
X75637981Y-87573634D01*
X75619568Y-87584670D01*
X75600162Y-87593849D01*
X75579950Y-87601081D01*
X75559126Y-87606297D01*
X75537891Y-87609447D01*
X75516450Y-87610500D01*
X75003950Y-87610500D01*
X74982509Y-87609447D01*
X74961274Y-87606297D01*
X74940450Y-87601081D01*
X74920238Y-87593849D01*
X74900832Y-87584670D01*
X74882419Y-87573634D01*
X74865176Y-87560846D01*
X74849270Y-87546430D01*
X74834854Y-87530524D01*
X74822066Y-87513281D01*
X74811030Y-87494868D01*
X74801851Y-87475462D01*
X74794619Y-87455250D01*
X74789403Y-87434426D01*
X74786253Y-87413191D01*
X74785200Y-87391750D01*
X74785200Y-86954250D01*
X74786253Y-86932809D01*
X74789403Y-86911574D01*
X74794619Y-86890750D01*
X74801851Y-86870538D01*
X74811030Y-86851132D01*
X74822066Y-86832719D01*
X74834854Y-86815476D01*
X74849270Y-86799570D01*
X74865176Y-86785154D01*
X74882419Y-86772366D01*
X74900832Y-86761330D01*
X74920238Y-86752151D01*
X74940450Y-86744919D01*
X74961274Y-86739703D01*
X74982509Y-86736553D01*
X75003950Y-86735500D01*
X75516450Y-86735500D01*
X75537891Y-86736553D01*
X75537891Y-86736553D01*
G37*
D11*
X75260200Y-87173000D03*
D10*
G36*
X75537891Y-85161553D02*
G01*
X75559126Y-85164703D01*
X75579950Y-85169919D01*
X75600162Y-85177151D01*
X75619568Y-85186330D01*
X75637981Y-85197366D01*
X75655224Y-85210154D01*
X75671130Y-85224570D01*
X75685546Y-85240476D01*
X75698334Y-85257719D01*
X75709370Y-85276132D01*
X75718549Y-85295538D01*
X75725781Y-85315750D01*
X75730997Y-85336574D01*
X75734147Y-85357809D01*
X75735200Y-85379250D01*
X75735200Y-85816750D01*
X75734147Y-85838191D01*
X75730997Y-85859426D01*
X75725781Y-85880250D01*
X75718549Y-85900462D01*
X75709370Y-85919868D01*
X75698334Y-85938281D01*
X75685546Y-85955524D01*
X75671130Y-85971430D01*
X75655224Y-85985846D01*
X75637981Y-85998634D01*
X75619568Y-86009670D01*
X75600162Y-86018849D01*
X75579950Y-86026081D01*
X75559126Y-86031297D01*
X75537891Y-86034447D01*
X75516450Y-86035500D01*
X75003950Y-86035500D01*
X74982509Y-86034447D01*
X74961274Y-86031297D01*
X74940450Y-86026081D01*
X74920238Y-86018849D01*
X74900832Y-86009670D01*
X74882419Y-85998634D01*
X74865176Y-85985846D01*
X74849270Y-85971430D01*
X74834854Y-85955524D01*
X74822066Y-85938281D01*
X74811030Y-85919868D01*
X74801851Y-85900462D01*
X74794619Y-85880250D01*
X74789403Y-85859426D01*
X74786253Y-85838191D01*
X74785200Y-85816750D01*
X74785200Y-85379250D01*
X74786253Y-85357809D01*
X74789403Y-85336574D01*
X74794619Y-85315750D01*
X74801851Y-85295538D01*
X74811030Y-85276132D01*
X74822066Y-85257719D01*
X74834854Y-85240476D01*
X74849270Y-85224570D01*
X74865176Y-85210154D01*
X74882419Y-85197366D01*
X74900832Y-85186330D01*
X74920238Y-85177151D01*
X74940450Y-85169919D01*
X74961274Y-85164703D01*
X74982509Y-85161553D01*
X75003950Y-85160500D01*
X75516450Y-85160500D01*
X75537891Y-85161553D01*
X75537891Y-85161553D01*
G37*
D11*
X75260200Y-85598000D03*
D10*
G36*
X78900691Y-80020053D02*
G01*
X78921926Y-80023203D01*
X78942750Y-80028419D01*
X78962962Y-80035651D01*
X78982368Y-80044830D01*
X79000781Y-80055866D01*
X79018024Y-80068654D01*
X79033930Y-80083070D01*
X79048346Y-80098976D01*
X79061134Y-80116219D01*
X79072170Y-80134632D01*
X79081349Y-80154038D01*
X79088581Y-80174250D01*
X79093797Y-80195074D01*
X79096947Y-80216309D01*
X79098000Y-80237750D01*
X79098000Y-80750250D01*
X79096947Y-80771691D01*
X79093797Y-80792926D01*
X79088581Y-80813750D01*
X79081349Y-80833962D01*
X79072170Y-80853368D01*
X79061134Y-80871781D01*
X79048346Y-80889024D01*
X79033930Y-80904930D01*
X79018024Y-80919346D01*
X79000781Y-80932134D01*
X78982368Y-80943170D01*
X78962962Y-80952349D01*
X78942750Y-80959581D01*
X78921926Y-80964797D01*
X78900691Y-80967947D01*
X78879250Y-80969000D01*
X78441750Y-80969000D01*
X78420309Y-80967947D01*
X78399074Y-80964797D01*
X78378250Y-80959581D01*
X78358038Y-80952349D01*
X78338632Y-80943170D01*
X78320219Y-80932134D01*
X78302976Y-80919346D01*
X78287070Y-80904930D01*
X78272654Y-80889024D01*
X78259866Y-80871781D01*
X78248830Y-80853368D01*
X78239651Y-80833962D01*
X78232419Y-80813750D01*
X78227203Y-80792926D01*
X78224053Y-80771691D01*
X78223000Y-80750250D01*
X78223000Y-80237750D01*
X78224053Y-80216309D01*
X78227203Y-80195074D01*
X78232419Y-80174250D01*
X78239651Y-80154038D01*
X78248830Y-80134632D01*
X78259866Y-80116219D01*
X78272654Y-80098976D01*
X78287070Y-80083070D01*
X78302976Y-80068654D01*
X78320219Y-80055866D01*
X78338632Y-80044830D01*
X78358038Y-80035651D01*
X78378250Y-80028419D01*
X78399074Y-80023203D01*
X78420309Y-80020053D01*
X78441750Y-80019000D01*
X78879250Y-80019000D01*
X78900691Y-80020053D01*
X78900691Y-80020053D01*
G37*
D11*
X78660500Y-80494000D03*
D10*
G36*
X80475691Y-80020053D02*
G01*
X80496926Y-80023203D01*
X80517750Y-80028419D01*
X80537962Y-80035651D01*
X80557368Y-80044830D01*
X80575781Y-80055866D01*
X80593024Y-80068654D01*
X80608930Y-80083070D01*
X80623346Y-80098976D01*
X80636134Y-80116219D01*
X80647170Y-80134632D01*
X80656349Y-80154038D01*
X80663581Y-80174250D01*
X80668797Y-80195074D01*
X80671947Y-80216309D01*
X80673000Y-80237750D01*
X80673000Y-80750250D01*
X80671947Y-80771691D01*
X80668797Y-80792926D01*
X80663581Y-80813750D01*
X80656349Y-80833962D01*
X80647170Y-80853368D01*
X80636134Y-80871781D01*
X80623346Y-80889024D01*
X80608930Y-80904930D01*
X80593024Y-80919346D01*
X80575781Y-80932134D01*
X80557368Y-80943170D01*
X80537962Y-80952349D01*
X80517750Y-80959581D01*
X80496926Y-80964797D01*
X80475691Y-80967947D01*
X80454250Y-80969000D01*
X80016750Y-80969000D01*
X79995309Y-80967947D01*
X79974074Y-80964797D01*
X79953250Y-80959581D01*
X79933038Y-80952349D01*
X79913632Y-80943170D01*
X79895219Y-80932134D01*
X79877976Y-80919346D01*
X79862070Y-80904930D01*
X79847654Y-80889024D01*
X79834866Y-80871781D01*
X79823830Y-80853368D01*
X79814651Y-80833962D01*
X79807419Y-80813750D01*
X79802203Y-80792926D01*
X79799053Y-80771691D01*
X79798000Y-80750250D01*
X79798000Y-80237750D01*
X79799053Y-80216309D01*
X79802203Y-80195074D01*
X79807419Y-80174250D01*
X79814651Y-80154038D01*
X79823830Y-80134632D01*
X79834866Y-80116219D01*
X79847654Y-80098976D01*
X79862070Y-80083070D01*
X79877976Y-80068654D01*
X79895219Y-80055866D01*
X79913632Y-80044830D01*
X79933038Y-80035651D01*
X79953250Y-80028419D01*
X79974074Y-80023203D01*
X79995309Y-80020053D01*
X80016750Y-80019000D01*
X80454250Y-80019000D01*
X80475691Y-80020053D01*
X80475691Y-80020053D01*
G37*
D11*
X80235500Y-80494000D03*
D10*
G36*
X68703686Y-77376430D02*
G01*
X68718004Y-77378554D01*
X68732045Y-77382071D01*
X68745674Y-77386948D01*
X68758759Y-77393137D01*
X68771175Y-77400578D01*
X68782801Y-77409201D01*
X68793526Y-77418922D01*
X69037478Y-77662874D01*
X69047199Y-77673599D01*
X69055822Y-77685225D01*
X69063263Y-77697641D01*
X69069452Y-77710726D01*
X69074329Y-77724355D01*
X69077846Y-77738396D01*
X69079970Y-77752714D01*
X69080680Y-77767172D01*
X69079970Y-77781630D01*
X69077846Y-77795948D01*
X69074329Y-77809989D01*
X69069452Y-77823618D01*
X69063263Y-77836703D01*
X69055822Y-77849119D01*
X69047199Y-77860745D01*
X69037478Y-77871470D01*
X68828882Y-78080066D01*
X68818157Y-78089787D01*
X68806531Y-78098410D01*
X68794115Y-78105851D01*
X68781030Y-78112040D01*
X68767401Y-78116917D01*
X68753360Y-78120434D01*
X68739042Y-78122558D01*
X68724584Y-78123268D01*
X68710126Y-78122558D01*
X68695808Y-78120434D01*
X68681767Y-78116917D01*
X68668138Y-78112040D01*
X68655053Y-78105851D01*
X68642637Y-78098410D01*
X68631011Y-78089787D01*
X68620286Y-78080066D01*
X68376334Y-77836114D01*
X68366613Y-77825389D01*
X68357990Y-77813763D01*
X68350549Y-77801347D01*
X68344360Y-77788262D01*
X68339483Y-77774633D01*
X68335966Y-77760592D01*
X68333842Y-77746274D01*
X68333132Y-77731816D01*
X68333842Y-77717358D01*
X68335966Y-77703040D01*
X68339483Y-77688999D01*
X68344360Y-77675370D01*
X68350549Y-77662285D01*
X68357990Y-77649869D01*
X68366613Y-77638243D01*
X68376334Y-77627518D01*
X68584930Y-77418922D01*
X68595655Y-77409201D01*
X68607281Y-77400578D01*
X68619697Y-77393137D01*
X68632782Y-77386948D01*
X68646411Y-77382071D01*
X68660452Y-77378554D01*
X68674770Y-77376430D01*
X68689228Y-77375720D01*
X68703686Y-77376430D01*
X68703686Y-77376430D01*
G37*
D14*
X68706906Y-77749494D03*
D10*
G36*
X69389580Y-76690536D02*
G01*
X69403898Y-76692660D01*
X69417939Y-76696177D01*
X69431568Y-76701054D01*
X69444653Y-76707243D01*
X69457069Y-76714684D01*
X69468695Y-76723307D01*
X69479420Y-76733028D01*
X69723372Y-76976980D01*
X69733093Y-76987705D01*
X69741716Y-76999331D01*
X69749157Y-77011747D01*
X69755346Y-77024832D01*
X69760223Y-77038461D01*
X69763740Y-77052502D01*
X69765864Y-77066820D01*
X69766574Y-77081278D01*
X69765864Y-77095736D01*
X69763740Y-77110054D01*
X69760223Y-77124095D01*
X69755346Y-77137724D01*
X69749157Y-77150809D01*
X69741716Y-77163225D01*
X69733093Y-77174851D01*
X69723372Y-77185576D01*
X69514776Y-77394172D01*
X69504051Y-77403893D01*
X69492425Y-77412516D01*
X69480009Y-77419957D01*
X69466924Y-77426146D01*
X69453295Y-77431023D01*
X69439254Y-77434540D01*
X69424936Y-77436664D01*
X69410478Y-77437374D01*
X69396020Y-77436664D01*
X69381702Y-77434540D01*
X69367661Y-77431023D01*
X69354032Y-77426146D01*
X69340947Y-77419957D01*
X69328531Y-77412516D01*
X69316905Y-77403893D01*
X69306180Y-77394172D01*
X69062228Y-77150220D01*
X69052507Y-77139495D01*
X69043884Y-77127869D01*
X69036443Y-77115453D01*
X69030254Y-77102368D01*
X69025377Y-77088739D01*
X69021860Y-77074698D01*
X69019736Y-77060380D01*
X69019026Y-77045922D01*
X69019736Y-77031464D01*
X69021860Y-77017146D01*
X69025377Y-77003105D01*
X69030254Y-76989476D01*
X69036443Y-76976391D01*
X69043884Y-76963975D01*
X69052507Y-76952349D01*
X69062228Y-76941624D01*
X69270824Y-76733028D01*
X69281549Y-76723307D01*
X69293175Y-76714684D01*
X69305591Y-76707243D01*
X69318676Y-76701054D01*
X69332305Y-76696177D01*
X69346346Y-76692660D01*
X69360664Y-76690536D01*
X69375122Y-76689826D01*
X69389580Y-76690536D01*
X69389580Y-76690536D01*
G37*
D14*
X69392800Y-77063600D03*
D10*
G36*
X67535380Y-74455336D02*
G01*
X67549698Y-74457460D01*
X67563739Y-74460977D01*
X67577368Y-74465854D01*
X67590453Y-74472043D01*
X67602869Y-74479484D01*
X67614495Y-74488107D01*
X67625220Y-74497828D01*
X67869172Y-74741780D01*
X67878893Y-74752505D01*
X67887516Y-74764131D01*
X67894957Y-74776547D01*
X67901146Y-74789632D01*
X67906023Y-74803261D01*
X67909540Y-74817302D01*
X67911664Y-74831620D01*
X67912374Y-74846078D01*
X67911664Y-74860536D01*
X67909540Y-74874854D01*
X67906023Y-74888895D01*
X67901146Y-74902524D01*
X67894957Y-74915609D01*
X67887516Y-74928025D01*
X67878893Y-74939651D01*
X67869172Y-74950376D01*
X67660576Y-75158972D01*
X67649851Y-75168693D01*
X67638225Y-75177316D01*
X67625809Y-75184757D01*
X67612724Y-75190946D01*
X67599095Y-75195823D01*
X67585054Y-75199340D01*
X67570736Y-75201464D01*
X67556278Y-75202174D01*
X67541820Y-75201464D01*
X67527502Y-75199340D01*
X67513461Y-75195823D01*
X67499832Y-75190946D01*
X67486747Y-75184757D01*
X67474331Y-75177316D01*
X67462705Y-75168693D01*
X67451980Y-75158972D01*
X67208028Y-74915020D01*
X67198307Y-74904295D01*
X67189684Y-74892669D01*
X67182243Y-74880253D01*
X67176054Y-74867168D01*
X67171177Y-74853539D01*
X67167660Y-74839498D01*
X67165536Y-74825180D01*
X67164826Y-74810722D01*
X67165536Y-74796264D01*
X67167660Y-74781946D01*
X67171177Y-74767905D01*
X67176054Y-74754276D01*
X67182243Y-74741191D01*
X67189684Y-74728775D01*
X67198307Y-74717149D01*
X67208028Y-74706424D01*
X67416624Y-74497828D01*
X67427349Y-74488107D01*
X67438975Y-74479484D01*
X67451391Y-74472043D01*
X67464476Y-74465854D01*
X67478105Y-74460977D01*
X67492146Y-74457460D01*
X67506464Y-74455336D01*
X67520922Y-74454626D01*
X67535380Y-74455336D01*
X67535380Y-74455336D01*
G37*
D14*
X67538600Y-74828400D03*
D10*
G36*
X66849486Y-75141230D02*
G01*
X66863804Y-75143354D01*
X66877845Y-75146871D01*
X66891474Y-75151748D01*
X66904559Y-75157937D01*
X66916975Y-75165378D01*
X66928601Y-75174001D01*
X66939326Y-75183722D01*
X67183278Y-75427674D01*
X67192999Y-75438399D01*
X67201622Y-75450025D01*
X67209063Y-75462441D01*
X67215252Y-75475526D01*
X67220129Y-75489155D01*
X67223646Y-75503196D01*
X67225770Y-75517514D01*
X67226480Y-75531972D01*
X67225770Y-75546430D01*
X67223646Y-75560748D01*
X67220129Y-75574789D01*
X67215252Y-75588418D01*
X67209063Y-75601503D01*
X67201622Y-75613919D01*
X67192999Y-75625545D01*
X67183278Y-75636270D01*
X66974682Y-75844866D01*
X66963957Y-75854587D01*
X66952331Y-75863210D01*
X66939915Y-75870651D01*
X66926830Y-75876840D01*
X66913201Y-75881717D01*
X66899160Y-75885234D01*
X66884842Y-75887358D01*
X66870384Y-75888068D01*
X66855926Y-75887358D01*
X66841608Y-75885234D01*
X66827567Y-75881717D01*
X66813938Y-75876840D01*
X66800853Y-75870651D01*
X66788437Y-75863210D01*
X66776811Y-75854587D01*
X66766086Y-75844866D01*
X66522134Y-75600914D01*
X66512413Y-75590189D01*
X66503790Y-75578563D01*
X66496349Y-75566147D01*
X66490160Y-75553062D01*
X66485283Y-75539433D01*
X66481766Y-75525392D01*
X66479642Y-75511074D01*
X66478932Y-75496616D01*
X66479642Y-75482158D01*
X66481766Y-75467840D01*
X66485283Y-75453799D01*
X66490160Y-75440170D01*
X66496349Y-75427085D01*
X66503790Y-75414669D01*
X66512413Y-75403043D01*
X66522134Y-75392318D01*
X66730730Y-75183722D01*
X66741455Y-75174001D01*
X66753081Y-75165378D01*
X66765497Y-75157937D01*
X66778582Y-75151748D01*
X66792211Y-75146871D01*
X66806252Y-75143354D01*
X66820570Y-75141230D01*
X66835028Y-75140520D01*
X66849486Y-75141230D01*
X66849486Y-75141230D01*
G37*
D14*
X66852706Y-75514294D03*
M02*
