G04 #@! TF.GenerationSoftware,KiCad,Pcbnew,(5.1.6)-1*
G04 #@! TF.CreationDate,2020-12-13T19:15:47+01:00*
G04 #@! TF.ProjectId,ACM-pcb,41434d2d-7063-4622-9e6b-696361645f70,rev?*
G04 #@! TF.SameCoordinates,Original*
G04 #@! TF.FileFunction,Legend,Top*
G04 #@! TF.FilePolarity,Positive*
%FSLAX46Y46*%
G04 Gerber Fmt 4.6, Leading zero omitted, Abs format (unit mm)*
G04 Created by KiCad (PCBNEW (5.1.6)-1) date 2020-12-13 19:15:47*
%MOMM*%
%LPD*%
G01*
G04 APERTURE LIST*
%ADD10C,0.150000*%
%ADD11C,0.120000*%
%ADD12C,0.200000*%
%ADD13C,0.100000*%
%ADD14C,0.254000*%
G04 APERTURE END LIST*
D10*
X75666790Y-90562180D02*
X76000123Y-91562180D01*
X76333457Y-90562180D01*
X76619171Y-90657419D02*
X76666790Y-90609800D01*
X76762028Y-90562180D01*
X77000123Y-90562180D01*
X77095361Y-90609800D01*
X77142980Y-90657419D01*
X77190600Y-90752657D01*
X77190600Y-90847895D01*
X77142980Y-90990752D01*
X76571552Y-91562180D01*
X77190600Y-91562180D01*
X77619171Y-91466942D02*
X77666790Y-91514561D01*
X77619171Y-91562180D01*
X77571552Y-91514561D01*
X77619171Y-91466942D01*
X77619171Y-91562180D01*
X78047742Y-90657419D02*
X78095361Y-90609800D01*
X78190600Y-90562180D01*
X78428695Y-90562180D01*
X78523933Y-90609800D01*
X78571552Y-90657419D01*
X78619171Y-90752657D01*
X78619171Y-90847895D01*
X78571552Y-90990752D01*
X78000123Y-91562180D01*
X78619171Y-91562180D01*
X70391976Y-79542666D02*
X70868166Y-79542666D01*
X70296738Y-79828380D02*
X70630071Y-78828380D01*
X70963404Y-79828380D01*
X71439595Y-79828380D02*
X71344357Y-79780761D01*
X71296738Y-79685523D01*
X71296738Y-78828380D01*
X71820547Y-79828380D02*
X71820547Y-79161714D01*
X71820547Y-78828380D02*
X71772928Y-78876000D01*
X71820547Y-78923619D01*
X71868166Y-78876000D01*
X71820547Y-78828380D01*
X71820547Y-78923619D01*
X72725309Y-79161714D02*
X72725309Y-79971238D01*
X72677690Y-80066476D01*
X72630071Y-80114095D01*
X72534833Y-80161714D01*
X72391976Y-80161714D01*
X72296738Y-80114095D01*
X72725309Y-79780761D02*
X72630071Y-79828380D01*
X72439595Y-79828380D01*
X72344357Y-79780761D01*
X72296738Y-79733142D01*
X72249119Y-79637904D01*
X72249119Y-79352190D01*
X72296738Y-79256952D01*
X72344357Y-79209333D01*
X72439595Y-79161714D01*
X72630071Y-79161714D01*
X72725309Y-79209333D01*
X73201500Y-79161714D02*
X73201500Y-79828380D01*
X73201500Y-79256952D02*
X73249119Y-79209333D01*
X73344357Y-79161714D01*
X73487214Y-79161714D01*
X73582452Y-79209333D01*
X73630071Y-79304571D01*
X73630071Y-79828380D01*
X71011023Y-81383142D02*
X70963404Y-81430761D01*
X70820547Y-81478380D01*
X70725309Y-81478380D01*
X70582452Y-81430761D01*
X70487214Y-81335523D01*
X70439595Y-81240285D01*
X70391976Y-81049809D01*
X70391976Y-80906952D01*
X70439595Y-80716476D01*
X70487214Y-80621238D01*
X70582452Y-80526000D01*
X70725309Y-80478380D01*
X70820547Y-80478380D01*
X70963404Y-80526000D01*
X71011023Y-80573619D01*
X71391976Y-81192666D02*
X71868166Y-81192666D01*
X71296738Y-81478380D02*
X71630071Y-80478380D01*
X71963404Y-81478380D01*
X72296738Y-81478380D02*
X72296738Y-80478380D01*
X72868166Y-81478380D01*
X72868166Y-80478380D01*
X73344357Y-81478380D02*
X73344357Y-80478380D01*
X73344357Y-80859333D02*
X73439595Y-80811714D01*
X73630071Y-80811714D01*
X73725309Y-80859333D01*
X73772928Y-80906952D01*
X73820547Y-81002190D01*
X73820547Y-81287904D01*
X73772928Y-81383142D01*
X73725309Y-81430761D01*
X73630071Y-81478380D01*
X73439595Y-81478380D01*
X73344357Y-81430761D01*
X74677690Y-80811714D02*
X74677690Y-81478380D01*
X74249119Y-80811714D02*
X74249119Y-81335523D01*
X74296738Y-81430761D01*
X74391976Y-81478380D01*
X74534833Y-81478380D01*
X74630071Y-81430761D01*
X74677690Y-81383142D01*
X75106261Y-81430761D02*
X75201500Y-81478380D01*
X75391976Y-81478380D01*
X75487214Y-81430761D01*
X75534833Y-81335523D01*
X75534833Y-81287904D01*
X75487214Y-81192666D01*
X75391976Y-81145047D01*
X75249119Y-81145047D01*
X75153880Y-81097428D01*
X75106261Y-81002190D01*
X75106261Y-80954571D01*
X75153880Y-80859333D01*
X75249119Y-80811714D01*
X75391976Y-80811714D01*
X75487214Y-80859333D01*
X70439595Y-83128380D02*
X70439595Y-82128380D01*
X70772928Y-82842666D01*
X71106261Y-82128380D01*
X71106261Y-83128380D01*
X71725309Y-83128380D02*
X71630071Y-83080761D01*
X71582452Y-83033142D01*
X71534833Y-82937904D01*
X71534833Y-82652190D01*
X71582452Y-82556952D01*
X71630071Y-82509333D01*
X71725309Y-82461714D01*
X71868166Y-82461714D01*
X71963404Y-82509333D01*
X72011023Y-82556952D01*
X72058642Y-82652190D01*
X72058642Y-82937904D01*
X72011023Y-83033142D01*
X71963404Y-83080761D01*
X71868166Y-83128380D01*
X71725309Y-83128380D01*
X72915785Y-83128380D02*
X72915785Y-82128380D01*
X72915785Y-83080761D02*
X72820547Y-83128380D01*
X72630071Y-83128380D01*
X72534833Y-83080761D01*
X72487214Y-83033142D01*
X72439595Y-82937904D01*
X72439595Y-82652190D01*
X72487214Y-82556952D01*
X72534833Y-82509333D01*
X72630071Y-82461714D01*
X72820547Y-82461714D01*
X72915785Y-82509333D01*
X73820547Y-82461714D02*
X73820547Y-83128380D01*
X73391976Y-82461714D02*
X73391976Y-82985523D01*
X73439595Y-83080761D01*
X73534833Y-83128380D01*
X73677690Y-83128380D01*
X73772928Y-83080761D01*
X73820547Y-83033142D01*
X74439595Y-83128380D02*
X74344357Y-83080761D01*
X74296738Y-82985523D01*
X74296738Y-82128380D01*
X75201500Y-83080761D02*
X75106261Y-83128380D01*
X74915785Y-83128380D01*
X74820547Y-83080761D01*
X74772928Y-82985523D01*
X74772928Y-82604571D01*
X74820547Y-82509333D01*
X74915785Y-82461714D01*
X75106261Y-82461714D01*
X75201500Y-82509333D01*
X75249119Y-82604571D01*
X75249119Y-82699809D01*
X74772928Y-82795047D01*
D11*
X64750000Y-87575000D02*
X66750000Y-87575000D01*
X66750000Y-87575000D02*
X66750000Y-83675000D01*
X64750000Y-87575000D02*
X64750000Y-83675000D01*
D12*
X66940000Y-76167000D02*
X66940000Y-76167000D01*
X67140000Y-76167000D02*
X67140000Y-76167000D01*
D13*
X64290000Y-77017000D02*
X64290000Y-80717000D01*
X67790000Y-77017000D02*
X67790000Y-80717000D01*
D12*
X67140000Y-76167000D02*
G75*
G03*
X66940000Y-76167000I-100000J0D01*
G01*
X66940000Y-76167000D02*
G75*
G03*
X67140000Y-76167000I100000J0D01*
G01*
D11*
X73970000Y-87632000D02*
X73970000Y-89092000D01*
X70810000Y-87632000D02*
X70810000Y-89792000D01*
X70810000Y-87632000D02*
X71740000Y-87632000D01*
X73970000Y-87632000D02*
X73040000Y-87632000D01*
X79085321Y-83517200D02*
X79410879Y-83517200D01*
X79085321Y-82497200D02*
X79410879Y-82497200D01*
X77837221Y-77990000D02*
X78162779Y-77990000D01*
X77837221Y-79010000D02*
X78162779Y-79010000D01*
D10*
X73884225Y-67478843D02*
X72876598Y-66471216D01*
X79169848Y-72446268D02*
X78940038Y-72216458D01*
X74043324Y-77572792D02*
X73813514Y-77342982D01*
X68916800Y-72446268D02*
X69146610Y-72676078D01*
X74043324Y-67319744D02*
X74273134Y-67549554D01*
X68916800Y-72446268D02*
X69146610Y-72216458D01*
X74043324Y-77572792D02*
X74273134Y-77342982D01*
X79169848Y-72446268D02*
X78940038Y-72676078D01*
X74043324Y-67319744D02*
X73884225Y-67478843D01*
D11*
X72230000Y-83350000D02*
X72865000Y-83350000D01*
X72865000Y-83350000D02*
X72865000Y-83985000D01*
D13*
X66326777Y-71622462D02*
X65407538Y-70703223D01*
X68589519Y-69359720D02*
X67670280Y-68440481D01*
D12*
X67069239Y-71940660D02*
X67069239Y-71940660D01*
X67210661Y-71799239D02*
X67210661Y-71799239D01*
X67069239Y-71940659D02*
G75*
G03*
X67210661Y-71799239I70711J70710D01*
G01*
X67210661Y-71799238D02*
G75*
G03*
X67069239Y-71940660I-70711J-70711D01*
G01*
D14*
X77999000Y-87695000D02*
G75*
G03*
X77999000Y-87695000I-125000J0D01*
G01*
D11*
X75770200Y-86548279D02*
X75770200Y-86222721D01*
X74750200Y-86548279D02*
X74750200Y-86222721D01*
X79610779Y-81004000D02*
X79285221Y-81004000D01*
X79610779Y-79984000D02*
X79285221Y-79984000D01*
D10*
X64202380Y-86063095D02*
X63202380Y-86063095D01*
X63202380Y-85825000D01*
X63250000Y-85682142D01*
X63345238Y-85586904D01*
X63440476Y-85539285D01*
X63630952Y-85491666D01*
X63773809Y-85491666D01*
X63964285Y-85539285D01*
X64059523Y-85586904D01*
X64154761Y-85682142D01*
X64202380Y-85825000D01*
X64202380Y-86063095D01*
X63297619Y-85110714D02*
X63250000Y-85063095D01*
X63202380Y-84967857D01*
X63202380Y-84729761D01*
X63250000Y-84634523D01*
X63297619Y-84586904D01*
X63392857Y-84539285D01*
X63488095Y-84539285D01*
X63630952Y-84586904D01*
X64202380Y-85158333D01*
X64202380Y-84539285D01*
M02*
