G04 #@! TF.GenerationSoftware,KiCad,Pcbnew,(5.1.2)-2*
G04 #@! TF.CreationDate,2020-03-09T10:25:20+01:00*
G04 #@! TF.ProjectId,ACM-pcb,41434d2d-7063-4622-9e6b-696361645f70,rev?*
G04 #@! TF.SameCoordinates,Original*
G04 #@! TF.FileFunction,Copper,L1,Top*
G04 #@! TF.FilePolarity,Positive*
%FSLAX46Y46*%
G04 Gerber Fmt 4.6, Leading zero omitted, Abs format (unit mm)*
G04 Created by KiCad (PCBNEW (5.1.2)-2) date 2020-03-09 10:25:20*
%MOMM*%
%LPD*%
G04 APERTURE LIST*
%ADD10C,0.100000*%
%ADD11C,0.875000*%
%ADD12C,0.550000*%
%ADD13C,0.787400*%
%ADD14R,1.100000X1.500000*%
%ADD15C,0.590000*%
%ADD16C,0.400000*%
%ADD17R,0.350000X0.750000*%
%ADD18R,2.400000X1.600000*%
%ADD19C,0.600000*%
%ADD20C,1.300000*%
%ADD21C,0.254000*%
%ADD22C,0.127000*%
G04 APERTURE END LIST*
D10*
G36*
X78700791Y-82533253D02*
G01*
X78722026Y-82536403D01*
X78742850Y-82541619D01*
X78763062Y-82548851D01*
X78782468Y-82558030D01*
X78800881Y-82569066D01*
X78818124Y-82581854D01*
X78834030Y-82596270D01*
X78848446Y-82612176D01*
X78861234Y-82629419D01*
X78872270Y-82647832D01*
X78881449Y-82667238D01*
X78888681Y-82687450D01*
X78893897Y-82708274D01*
X78897047Y-82729509D01*
X78898100Y-82750950D01*
X78898100Y-83263450D01*
X78897047Y-83284891D01*
X78893897Y-83306126D01*
X78888681Y-83326950D01*
X78881449Y-83347162D01*
X78872270Y-83366568D01*
X78861234Y-83384981D01*
X78848446Y-83402224D01*
X78834030Y-83418130D01*
X78818124Y-83432546D01*
X78800881Y-83445334D01*
X78782468Y-83456370D01*
X78763062Y-83465549D01*
X78742850Y-83472781D01*
X78722026Y-83477997D01*
X78700791Y-83481147D01*
X78679350Y-83482200D01*
X78241850Y-83482200D01*
X78220409Y-83481147D01*
X78199174Y-83477997D01*
X78178350Y-83472781D01*
X78158138Y-83465549D01*
X78138732Y-83456370D01*
X78120319Y-83445334D01*
X78103076Y-83432546D01*
X78087170Y-83418130D01*
X78072754Y-83402224D01*
X78059966Y-83384981D01*
X78048930Y-83366568D01*
X78039751Y-83347162D01*
X78032519Y-83326950D01*
X78027303Y-83306126D01*
X78024153Y-83284891D01*
X78023100Y-83263450D01*
X78023100Y-82750950D01*
X78024153Y-82729509D01*
X78027303Y-82708274D01*
X78032519Y-82687450D01*
X78039751Y-82667238D01*
X78048930Y-82647832D01*
X78059966Y-82629419D01*
X78072754Y-82612176D01*
X78087170Y-82596270D01*
X78103076Y-82581854D01*
X78120319Y-82569066D01*
X78138732Y-82558030D01*
X78158138Y-82548851D01*
X78178350Y-82541619D01*
X78199174Y-82536403D01*
X78220409Y-82533253D01*
X78241850Y-82532200D01*
X78679350Y-82532200D01*
X78700791Y-82533253D01*
X78700791Y-82533253D01*
G37*
D11*
X78460600Y-83007200D03*
D10*
G36*
X80275791Y-82533253D02*
G01*
X80297026Y-82536403D01*
X80317850Y-82541619D01*
X80338062Y-82548851D01*
X80357468Y-82558030D01*
X80375881Y-82569066D01*
X80393124Y-82581854D01*
X80409030Y-82596270D01*
X80423446Y-82612176D01*
X80436234Y-82629419D01*
X80447270Y-82647832D01*
X80456449Y-82667238D01*
X80463681Y-82687450D01*
X80468897Y-82708274D01*
X80472047Y-82729509D01*
X80473100Y-82750950D01*
X80473100Y-83263450D01*
X80472047Y-83284891D01*
X80468897Y-83306126D01*
X80463681Y-83326950D01*
X80456449Y-83347162D01*
X80447270Y-83366568D01*
X80436234Y-83384981D01*
X80423446Y-83402224D01*
X80409030Y-83418130D01*
X80393124Y-83432546D01*
X80375881Y-83445334D01*
X80357468Y-83456370D01*
X80338062Y-83465549D01*
X80317850Y-83472781D01*
X80297026Y-83477997D01*
X80275791Y-83481147D01*
X80254350Y-83482200D01*
X79816850Y-83482200D01*
X79795409Y-83481147D01*
X79774174Y-83477997D01*
X79753350Y-83472781D01*
X79733138Y-83465549D01*
X79713732Y-83456370D01*
X79695319Y-83445334D01*
X79678076Y-83432546D01*
X79662170Y-83418130D01*
X79647754Y-83402224D01*
X79634966Y-83384981D01*
X79623930Y-83366568D01*
X79614751Y-83347162D01*
X79607519Y-83326950D01*
X79602303Y-83306126D01*
X79599153Y-83284891D01*
X79598100Y-83263450D01*
X79598100Y-82750950D01*
X79599153Y-82729509D01*
X79602303Y-82708274D01*
X79607519Y-82687450D01*
X79614751Y-82667238D01*
X79623930Y-82647832D01*
X79634966Y-82629419D01*
X79647754Y-82612176D01*
X79662170Y-82596270D01*
X79678076Y-82581854D01*
X79695319Y-82569066D01*
X79713732Y-82558030D01*
X79733138Y-82548851D01*
X79753350Y-82541619D01*
X79774174Y-82536403D01*
X79795409Y-82533253D01*
X79816850Y-82532200D01*
X80254350Y-82532200D01*
X80275791Y-82533253D01*
X80275791Y-82533253D01*
G37*
D11*
X80035600Y-83007200D03*
D10*
G36*
X79027691Y-78026053D02*
G01*
X79048926Y-78029203D01*
X79069750Y-78034419D01*
X79089962Y-78041651D01*
X79109368Y-78050830D01*
X79127781Y-78061866D01*
X79145024Y-78074654D01*
X79160930Y-78089070D01*
X79175346Y-78104976D01*
X79188134Y-78122219D01*
X79199170Y-78140632D01*
X79208349Y-78160038D01*
X79215581Y-78180250D01*
X79220797Y-78201074D01*
X79223947Y-78222309D01*
X79225000Y-78243750D01*
X79225000Y-78756250D01*
X79223947Y-78777691D01*
X79220797Y-78798926D01*
X79215581Y-78819750D01*
X79208349Y-78839962D01*
X79199170Y-78859368D01*
X79188134Y-78877781D01*
X79175346Y-78895024D01*
X79160930Y-78910930D01*
X79145024Y-78925346D01*
X79127781Y-78938134D01*
X79109368Y-78949170D01*
X79089962Y-78958349D01*
X79069750Y-78965581D01*
X79048926Y-78970797D01*
X79027691Y-78973947D01*
X79006250Y-78975000D01*
X78568750Y-78975000D01*
X78547309Y-78973947D01*
X78526074Y-78970797D01*
X78505250Y-78965581D01*
X78485038Y-78958349D01*
X78465632Y-78949170D01*
X78447219Y-78938134D01*
X78429976Y-78925346D01*
X78414070Y-78910930D01*
X78399654Y-78895024D01*
X78386866Y-78877781D01*
X78375830Y-78859368D01*
X78366651Y-78839962D01*
X78359419Y-78819750D01*
X78354203Y-78798926D01*
X78351053Y-78777691D01*
X78350000Y-78756250D01*
X78350000Y-78243750D01*
X78351053Y-78222309D01*
X78354203Y-78201074D01*
X78359419Y-78180250D01*
X78366651Y-78160038D01*
X78375830Y-78140632D01*
X78386866Y-78122219D01*
X78399654Y-78104976D01*
X78414070Y-78089070D01*
X78429976Y-78074654D01*
X78447219Y-78061866D01*
X78465632Y-78050830D01*
X78485038Y-78041651D01*
X78505250Y-78034419D01*
X78526074Y-78029203D01*
X78547309Y-78026053D01*
X78568750Y-78025000D01*
X79006250Y-78025000D01*
X79027691Y-78026053D01*
X79027691Y-78026053D01*
G37*
D11*
X78787500Y-78500000D03*
D10*
G36*
X77452691Y-78026053D02*
G01*
X77473926Y-78029203D01*
X77494750Y-78034419D01*
X77514962Y-78041651D01*
X77534368Y-78050830D01*
X77552781Y-78061866D01*
X77570024Y-78074654D01*
X77585930Y-78089070D01*
X77600346Y-78104976D01*
X77613134Y-78122219D01*
X77624170Y-78140632D01*
X77633349Y-78160038D01*
X77640581Y-78180250D01*
X77645797Y-78201074D01*
X77648947Y-78222309D01*
X77650000Y-78243750D01*
X77650000Y-78756250D01*
X77648947Y-78777691D01*
X77645797Y-78798926D01*
X77640581Y-78819750D01*
X77633349Y-78839962D01*
X77624170Y-78859368D01*
X77613134Y-78877781D01*
X77600346Y-78895024D01*
X77585930Y-78910930D01*
X77570024Y-78925346D01*
X77552781Y-78938134D01*
X77534368Y-78949170D01*
X77514962Y-78958349D01*
X77494750Y-78965581D01*
X77473926Y-78970797D01*
X77452691Y-78973947D01*
X77431250Y-78975000D01*
X76993750Y-78975000D01*
X76972309Y-78973947D01*
X76951074Y-78970797D01*
X76930250Y-78965581D01*
X76910038Y-78958349D01*
X76890632Y-78949170D01*
X76872219Y-78938134D01*
X76854976Y-78925346D01*
X76839070Y-78910930D01*
X76824654Y-78895024D01*
X76811866Y-78877781D01*
X76800830Y-78859368D01*
X76791651Y-78839962D01*
X76784419Y-78819750D01*
X76779203Y-78798926D01*
X76776053Y-78777691D01*
X76775000Y-78756250D01*
X76775000Y-78243750D01*
X76776053Y-78222309D01*
X76779203Y-78201074D01*
X76784419Y-78180250D01*
X76791651Y-78160038D01*
X76800830Y-78140632D01*
X76811866Y-78122219D01*
X76824654Y-78104976D01*
X76839070Y-78089070D01*
X76854976Y-78074654D01*
X76872219Y-78061866D01*
X76890632Y-78050830D01*
X76910038Y-78041651D01*
X76930250Y-78034419D01*
X76951074Y-78029203D01*
X76972309Y-78026053D01*
X76993750Y-78025000D01*
X77431250Y-78025000D01*
X77452691Y-78026053D01*
X77452691Y-78026053D01*
G37*
D11*
X77212500Y-78500000D03*
D12*
X73018019Y-67461165D03*
D10*
G36*
X72257879Y-67089934D02*
G01*
X72646788Y-66701025D01*
X73778159Y-67832396D01*
X73389250Y-68221305D01*
X72257879Y-67089934D01*
X72257879Y-67089934D01*
G37*
D12*
X72452334Y-68026851D03*
D10*
G36*
X71692194Y-67655620D02*
G01*
X72081103Y-67266711D01*
X73212474Y-68398082D01*
X72823565Y-68786991D01*
X71692194Y-67655620D01*
X71692194Y-67655620D01*
G37*
D12*
X71886648Y-68592536D03*
D10*
G36*
X71126508Y-68221305D02*
G01*
X71515417Y-67832396D01*
X72646788Y-68963767D01*
X72257879Y-69352676D01*
X71126508Y-68221305D01*
X71126508Y-68221305D01*
G37*
D12*
X71320963Y-69158221D03*
D10*
G36*
X70560823Y-68786990D02*
G01*
X70949732Y-68398081D01*
X72081103Y-69529452D01*
X71692194Y-69918361D01*
X70560823Y-68786990D01*
X70560823Y-68786990D01*
G37*
D12*
X70755277Y-69723907D03*
D10*
G36*
X69995137Y-69352676D02*
G01*
X70384046Y-68963767D01*
X71515417Y-70095138D01*
X71126508Y-70484047D01*
X69995137Y-69352676D01*
X69995137Y-69352676D01*
G37*
D12*
X70189592Y-70289592D03*
D10*
G36*
X69429452Y-69918361D02*
G01*
X69818361Y-69529452D01*
X70949732Y-70660823D01*
X70560823Y-71049732D01*
X69429452Y-69918361D01*
X69429452Y-69918361D01*
G37*
D12*
X69623907Y-70855278D03*
D10*
G36*
X68863767Y-70484047D02*
G01*
X69252676Y-70095138D01*
X70384047Y-71226509D01*
X69995138Y-71615418D01*
X68863767Y-70484047D01*
X68863767Y-70484047D01*
G37*
D12*
X69058221Y-71420963D03*
D10*
G36*
X68298081Y-71049732D02*
G01*
X68686990Y-70660823D01*
X69818361Y-71792194D01*
X69429452Y-72181103D01*
X68298081Y-71049732D01*
X68298081Y-71049732D01*
G37*
D12*
X69058221Y-73471573D03*
D10*
G36*
X68686990Y-74231713D02*
G01*
X68298081Y-73842804D01*
X69429452Y-72711433D01*
X69818361Y-73100342D01*
X68686990Y-74231713D01*
X68686990Y-74231713D01*
G37*
D12*
X69623907Y-74037258D03*
D10*
G36*
X69252676Y-74797398D02*
G01*
X68863767Y-74408489D01*
X69995138Y-73277118D01*
X70384047Y-73666027D01*
X69252676Y-74797398D01*
X69252676Y-74797398D01*
G37*
D12*
X70189592Y-74602944D03*
D10*
G36*
X69818361Y-75363084D02*
G01*
X69429452Y-74974175D01*
X70560823Y-73842804D01*
X70949732Y-74231713D01*
X69818361Y-75363084D01*
X69818361Y-75363084D01*
G37*
D12*
X70755277Y-75168629D03*
D10*
G36*
X70384046Y-75928769D02*
G01*
X69995137Y-75539860D01*
X71126508Y-74408489D01*
X71515417Y-74797398D01*
X70384046Y-75928769D01*
X70384046Y-75928769D01*
G37*
D12*
X71320963Y-75734315D03*
D10*
G36*
X70949732Y-76494455D02*
G01*
X70560823Y-76105546D01*
X71692194Y-74974175D01*
X72081103Y-75363084D01*
X70949732Y-76494455D01*
X70949732Y-76494455D01*
G37*
D12*
X71886648Y-76300000D03*
D10*
G36*
X71515417Y-77060140D02*
G01*
X71126508Y-76671231D01*
X72257879Y-75539860D01*
X72646788Y-75928769D01*
X71515417Y-77060140D01*
X71515417Y-77060140D01*
G37*
D12*
X72452334Y-76865685D03*
D10*
G36*
X72081103Y-77625825D02*
G01*
X71692194Y-77236916D01*
X72823565Y-76105545D01*
X73212474Y-76494454D01*
X72081103Y-77625825D01*
X72081103Y-77625825D01*
G37*
D12*
X73018019Y-77431371D03*
D10*
G36*
X72646788Y-78191511D02*
G01*
X72257879Y-77802602D01*
X73389250Y-76671231D01*
X73778159Y-77060140D01*
X72646788Y-78191511D01*
X72646788Y-78191511D01*
G37*
D12*
X75068629Y-77431371D03*
D10*
G36*
X74308489Y-77060140D02*
G01*
X74697398Y-76671231D01*
X75828769Y-77802602D01*
X75439860Y-78191511D01*
X74308489Y-77060140D01*
X74308489Y-77060140D01*
G37*
D12*
X75634314Y-76865685D03*
D10*
G36*
X74874174Y-76494454D02*
G01*
X75263083Y-76105545D01*
X76394454Y-77236916D01*
X76005545Y-77625825D01*
X74874174Y-76494454D01*
X74874174Y-76494454D01*
G37*
D12*
X76200000Y-76300000D03*
D10*
G36*
X75439860Y-75928769D02*
G01*
X75828769Y-75539860D01*
X76960140Y-76671231D01*
X76571231Y-77060140D01*
X75439860Y-75928769D01*
X75439860Y-75928769D01*
G37*
D12*
X76765685Y-75734315D03*
D10*
G36*
X76005545Y-75363084D02*
G01*
X76394454Y-74974175D01*
X77525825Y-76105546D01*
X77136916Y-76494455D01*
X76005545Y-75363084D01*
X76005545Y-75363084D01*
G37*
D12*
X77331371Y-75168629D03*
D10*
G36*
X76571231Y-74797398D02*
G01*
X76960140Y-74408489D01*
X78091511Y-75539860D01*
X77702602Y-75928769D01*
X76571231Y-74797398D01*
X76571231Y-74797398D01*
G37*
D12*
X77897056Y-74602944D03*
D10*
G36*
X77136916Y-74231713D02*
G01*
X77525825Y-73842804D01*
X78657196Y-74974175D01*
X78268287Y-75363084D01*
X77136916Y-74231713D01*
X77136916Y-74231713D01*
G37*
D12*
X78462741Y-74037258D03*
D10*
G36*
X77702601Y-73666027D02*
G01*
X78091510Y-73277118D01*
X79222881Y-74408489D01*
X78833972Y-74797398D01*
X77702601Y-73666027D01*
X77702601Y-73666027D01*
G37*
D12*
X79028427Y-73471573D03*
D10*
G36*
X78268287Y-73100342D02*
G01*
X78657196Y-72711433D01*
X79788567Y-73842804D01*
X79399658Y-74231713D01*
X78268287Y-73100342D01*
X78268287Y-73100342D01*
G37*
D12*
X79028427Y-71420963D03*
D10*
G36*
X78657196Y-72181103D02*
G01*
X78268287Y-71792194D01*
X79399658Y-70660823D01*
X79788567Y-71049732D01*
X78657196Y-72181103D01*
X78657196Y-72181103D01*
G37*
D12*
X78462741Y-70855278D03*
D10*
G36*
X78091510Y-71615418D02*
G01*
X77702601Y-71226509D01*
X78833972Y-70095138D01*
X79222881Y-70484047D01*
X78091510Y-71615418D01*
X78091510Y-71615418D01*
G37*
D12*
X77897056Y-70289592D03*
D10*
G36*
X77525825Y-71049732D02*
G01*
X77136916Y-70660823D01*
X78268287Y-69529452D01*
X78657196Y-69918361D01*
X77525825Y-71049732D01*
X77525825Y-71049732D01*
G37*
D12*
X77331371Y-69723907D03*
D10*
G36*
X76960140Y-70484047D02*
G01*
X76571231Y-70095138D01*
X77702602Y-68963767D01*
X78091511Y-69352676D01*
X76960140Y-70484047D01*
X76960140Y-70484047D01*
G37*
D12*
X76765685Y-69158221D03*
D10*
G36*
X76394454Y-69918361D02*
G01*
X76005545Y-69529452D01*
X77136916Y-68398081D01*
X77525825Y-68786990D01*
X76394454Y-69918361D01*
X76394454Y-69918361D01*
G37*
D12*
X76200000Y-68592536D03*
D10*
G36*
X75828769Y-69352676D02*
G01*
X75439860Y-68963767D01*
X76571231Y-67832396D01*
X76960140Y-68221305D01*
X75828769Y-69352676D01*
X75828769Y-69352676D01*
G37*
D12*
X75634314Y-68026851D03*
D10*
G36*
X75263083Y-68786991D02*
G01*
X74874174Y-68398082D01*
X76005545Y-67266711D01*
X76394454Y-67655620D01*
X75263083Y-68786991D01*
X75263083Y-68786991D01*
G37*
D12*
X75068629Y-67461165D03*
D10*
G36*
X74697398Y-68221305D02*
G01*
X74308489Y-67832396D01*
X75439860Y-66701025D01*
X75828769Y-67089934D01*
X74697398Y-68221305D01*
X74697398Y-68221305D01*
G37*
D13*
X72230000Y-83985000D03*
X72230000Y-85255000D03*
X70960000Y-83985000D03*
X70960000Y-85255000D03*
X69690000Y-83985000D03*
X69690000Y-85255000D03*
D14*
X65188400Y-81103600D03*
X65188400Y-78103600D03*
X66688400Y-78103600D03*
X66688400Y-81103600D03*
D10*
G36*
X70061958Y-79580710D02*
G01*
X70076276Y-79582834D01*
X70090317Y-79586351D01*
X70103946Y-79591228D01*
X70117031Y-79597417D01*
X70129447Y-79604858D01*
X70141073Y-79613481D01*
X70151798Y-79623202D01*
X70161519Y-79633927D01*
X70170142Y-79645553D01*
X70177583Y-79657969D01*
X70183772Y-79671054D01*
X70188649Y-79684683D01*
X70192166Y-79698724D01*
X70194290Y-79713042D01*
X70195000Y-79727500D01*
X70195000Y-80072500D01*
X70194290Y-80086958D01*
X70192166Y-80101276D01*
X70188649Y-80115317D01*
X70183772Y-80128946D01*
X70177583Y-80142031D01*
X70170142Y-80154447D01*
X70161519Y-80166073D01*
X70151798Y-80176798D01*
X70141073Y-80186519D01*
X70129447Y-80195142D01*
X70117031Y-80202583D01*
X70103946Y-80208772D01*
X70090317Y-80213649D01*
X70076276Y-80217166D01*
X70061958Y-80219290D01*
X70047500Y-80220000D01*
X69752500Y-80220000D01*
X69738042Y-80219290D01*
X69723724Y-80217166D01*
X69709683Y-80213649D01*
X69696054Y-80208772D01*
X69682969Y-80202583D01*
X69670553Y-80195142D01*
X69658927Y-80186519D01*
X69648202Y-80176798D01*
X69638481Y-80166073D01*
X69629858Y-80154447D01*
X69622417Y-80142031D01*
X69616228Y-80128946D01*
X69611351Y-80115317D01*
X69607834Y-80101276D01*
X69605710Y-80086958D01*
X69605000Y-80072500D01*
X69605000Y-79727500D01*
X69605710Y-79713042D01*
X69607834Y-79698724D01*
X69611351Y-79684683D01*
X69616228Y-79671054D01*
X69622417Y-79657969D01*
X69629858Y-79645553D01*
X69638481Y-79633927D01*
X69648202Y-79623202D01*
X69658927Y-79613481D01*
X69670553Y-79604858D01*
X69682969Y-79597417D01*
X69696054Y-79591228D01*
X69709683Y-79586351D01*
X69723724Y-79582834D01*
X69738042Y-79580710D01*
X69752500Y-79580000D01*
X70047500Y-79580000D01*
X70061958Y-79580710D01*
X70061958Y-79580710D01*
G37*
D15*
X69900000Y-79900000D03*
D10*
G36*
X71031958Y-79580710D02*
G01*
X71046276Y-79582834D01*
X71060317Y-79586351D01*
X71073946Y-79591228D01*
X71087031Y-79597417D01*
X71099447Y-79604858D01*
X71111073Y-79613481D01*
X71121798Y-79623202D01*
X71131519Y-79633927D01*
X71140142Y-79645553D01*
X71147583Y-79657969D01*
X71153772Y-79671054D01*
X71158649Y-79684683D01*
X71162166Y-79698724D01*
X71164290Y-79713042D01*
X71165000Y-79727500D01*
X71165000Y-80072500D01*
X71164290Y-80086958D01*
X71162166Y-80101276D01*
X71158649Y-80115317D01*
X71153772Y-80128946D01*
X71147583Y-80142031D01*
X71140142Y-80154447D01*
X71131519Y-80166073D01*
X71121798Y-80176798D01*
X71111073Y-80186519D01*
X71099447Y-80195142D01*
X71087031Y-80202583D01*
X71073946Y-80208772D01*
X71060317Y-80213649D01*
X71046276Y-80217166D01*
X71031958Y-80219290D01*
X71017500Y-80220000D01*
X70722500Y-80220000D01*
X70708042Y-80219290D01*
X70693724Y-80217166D01*
X70679683Y-80213649D01*
X70666054Y-80208772D01*
X70652969Y-80202583D01*
X70640553Y-80195142D01*
X70628927Y-80186519D01*
X70618202Y-80176798D01*
X70608481Y-80166073D01*
X70599858Y-80154447D01*
X70592417Y-80142031D01*
X70586228Y-80128946D01*
X70581351Y-80115317D01*
X70577834Y-80101276D01*
X70575710Y-80086958D01*
X70575000Y-80072500D01*
X70575000Y-79727500D01*
X70575710Y-79713042D01*
X70577834Y-79698724D01*
X70581351Y-79684683D01*
X70586228Y-79671054D01*
X70592417Y-79657969D01*
X70599858Y-79645553D01*
X70608481Y-79633927D01*
X70618202Y-79623202D01*
X70628927Y-79613481D01*
X70640553Y-79604858D01*
X70652969Y-79597417D01*
X70666054Y-79591228D01*
X70679683Y-79586351D01*
X70693724Y-79582834D01*
X70708042Y-79580710D01*
X70722500Y-79580000D01*
X71017500Y-79580000D01*
X71031958Y-79580710D01*
X71031958Y-79580710D01*
G37*
D15*
X70870000Y-79900000D03*
D10*
G36*
X69745086Y-78265430D02*
G01*
X69759404Y-78267554D01*
X69773445Y-78271071D01*
X69787074Y-78275948D01*
X69800159Y-78282137D01*
X69812575Y-78289578D01*
X69824201Y-78298201D01*
X69834926Y-78307922D01*
X70078878Y-78551874D01*
X70088599Y-78562599D01*
X70097222Y-78574225D01*
X70104663Y-78586641D01*
X70110852Y-78599726D01*
X70115729Y-78613355D01*
X70119246Y-78627396D01*
X70121370Y-78641714D01*
X70122080Y-78656172D01*
X70121370Y-78670630D01*
X70119246Y-78684948D01*
X70115729Y-78698989D01*
X70110852Y-78712618D01*
X70104663Y-78725703D01*
X70097222Y-78738119D01*
X70088599Y-78749745D01*
X70078878Y-78760470D01*
X69870282Y-78969066D01*
X69859557Y-78978787D01*
X69847931Y-78987410D01*
X69835515Y-78994851D01*
X69822430Y-79001040D01*
X69808801Y-79005917D01*
X69794760Y-79009434D01*
X69780442Y-79011558D01*
X69765984Y-79012268D01*
X69751526Y-79011558D01*
X69737208Y-79009434D01*
X69723167Y-79005917D01*
X69709538Y-79001040D01*
X69696453Y-78994851D01*
X69684037Y-78987410D01*
X69672411Y-78978787D01*
X69661686Y-78969066D01*
X69417734Y-78725114D01*
X69408013Y-78714389D01*
X69399390Y-78702763D01*
X69391949Y-78690347D01*
X69385760Y-78677262D01*
X69380883Y-78663633D01*
X69377366Y-78649592D01*
X69375242Y-78635274D01*
X69374532Y-78620816D01*
X69375242Y-78606358D01*
X69377366Y-78592040D01*
X69380883Y-78577999D01*
X69385760Y-78564370D01*
X69391949Y-78551285D01*
X69399390Y-78538869D01*
X69408013Y-78527243D01*
X69417734Y-78516518D01*
X69626330Y-78307922D01*
X69637055Y-78298201D01*
X69648681Y-78289578D01*
X69661097Y-78282137D01*
X69674182Y-78275948D01*
X69687811Y-78271071D01*
X69701852Y-78267554D01*
X69716170Y-78265430D01*
X69730628Y-78264720D01*
X69745086Y-78265430D01*
X69745086Y-78265430D01*
G37*
D15*
X69748306Y-78638494D03*
D10*
G36*
X70430980Y-77579536D02*
G01*
X70445298Y-77581660D01*
X70459339Y-77585177D01*
X70472968Y-77590054D01*
X70486053Y-77596243D01*
X70498469Y-77603684D01*
X70510095Y-77612307D01*
X70520820Y-77622028D01*
X70764772Y-77865980D01*
X70774493Y-77876705D01*
X70783116Y-77888331D01*
X70790557Y-77900747D01*
X70796746Y-77913832D01*
X70801623Y-77927461D01*
X70805140Y-77941502D01*
X70807264Y-77955820D01*
X70807974Y-77970278D01*
X70807264Y-77984736D01*
X70805140Y-77999054D01*
X70801623Y-78013095D01*
X70796746Y-78026724D01*
X70790557Y-78039809D01*
X70783116Y-78052225D01*
X70774493Y-78063851D01*
X70764772Y-78074576D01*
X70556176Y-78283172D01*
X70545451Y-78292893D01*
X70533825Y-78301516D01*
X70521409Y-78308957D01*
X70508324Y-78315146D01*
X70494695Y-78320023D01*
X70480654Y-78323540D01*
X70466336Y-78325664D01*
X70451878Y-78326374D01*
X70437420Y-78325664D01*
X70423102Y-78323540D01*
X70409061Y-78320023D01*
X70395432Y-78315146D01*
X70382347Y-78308957D01*
X70369931Y-78301516D01*
X70358305Y-78292893D01*
X70347580Y-78283172D01*
X70103628Y-78039220D01*
X70093907Y-78028495D01*
X70085284Y-78016869D01*
X70077843Y-78004453D01*
X70071654Y-77991368D01*
X70066777Y-77977739D01*
X70063260Y-77963698D01*
X70061136Y-77949380D01*
X70060426Y-77934922D01*
X70061136Y-77920464D01*
X70063260Y-77906146D01*
X70066777Y-77892105D01*
X70071654Y-77878476D01*
X70077843Y-77865391D01*
X70085284Y-77852975D01*
X70093907Y-77841349D01*
X70103628Y-77830624D01*
X70312224Y-77622028D01*
X70322949Y-77612307D01*
X70334575Y-77603684D01*
X70346991Y-77596243D01*
X70360076Y-77590054D01*
X70373705Y-77585177D01*
X70387746Y-77581660D01*
X70402064Y-77579536D01*
X70416522Y-77578826D01*
X70430980Y-77579536D01*
X70430980Y-77579536D01*
G37*
D15*
X70434200Y-77952600D03*
D16*
X67847057Y-69182943D03*
D10*
G36*
X68377387Y-69996116D02*
G01*
X67033884Y-68652613D01*
X67316727Y-68369770D01*
X68660230Y-69713273D01*
X68377387Y-69996116D01*
X68377387Y-69996116D01*
G37*
D16*
X66998529Y-70031472D03*
D10*
G36*
X67528859Y-70844645D02*
G01*
X66185356Y-69501142D01*
X66468199Y-69218299D01*
X67811702Y-70561802D01*
X67528859Y-70844645D01*
X67528859Y-70844645D01*
G37*
D16*
X66150000Y-70880000D03*
D10*
G36*
X66680330Y-71693173D02*
G01*
X65336827Y-70349670D01*
X65619670Y-70066827D01*
X66963173Y-71410330D01*
X66680330Y-71693173D01*
X66680330Y-71693173D01*
G37*
G36*
X70132674Y-67616042D02*
G01*
X70146992Y-67618166D01*
X70161033Y-67621683D01*
X70174662Y-67626560D01*
X70187747Y-67632749D01*
X70200163Y-67640190D01*
X70211789Y-67648813D01*
X70222514Y-67658534D01*
X70466466Y-67902486D01*
X70476187Y-67913211D01*
X70484810Y-67924837D01*
X70492251Y-67937253D01*
X70498440Y-67950338D01*
X70503317Y-67963967D01*
X70506834Y-67978008D01*
X70508958Y-67992326D01*
X70509668Y-68006784D01*
X70508958Y-68021242D01*
X70506834Y-68035560D01*
X70503317Y-68049601D01*
X70498440Y-68063230D01*
X70492251Y-68076315D01*
X70484810Y-68088731D01*
X70476187Y-68100357D01*
X70466466Y-68111082D01*
X70257870Y-68319678D01*
X70247145Y-68329399D01*
X70235519Y-68338022D01*
X70223103Y-68345463D01*
X70210018Y-68351652D01*
X70196389Y-68356529D01*
X70182348Y-68360046D01*
X70168030Y-68362170D01*
X70153572Y-68362880D01*
X70139114Y-68362170D01*
X70124796Y-68360046D01*
X70110755Y-68356529D01*
X70097126Y-68351652D01*
X70084041Y-68345463D01*
X70071625Y-68338022D01*
X70059999Y-68329399D01*
X70049274Y-68319678D01*
X69805322Y-68075726D01*
X69795601Y-68065001D01*
X69786978Y-68053375D01*
X69779537Y-68040959D01*
X69773348Y-68027874D01*
X69768471Y-68014245D01*
X69764954Y-68000204D01*
X69762830Y-67985886D01*
X69762120Y-67971428D01*
X69762830Y-67956970D01*
X69764954Y-67942652D01*
X69768471Y-67928611D01*
X69773348Y-67914982D01*
X69779537Y-67901897D01*
X69786978Y-67889481D01*
X69795601Y-67877855D01*
X69805322Y-67867130D01*
X70013918Y-67658534D01*
X70024643Y-67648813D01*
X70036269Y-67640190D01*
X70048685Y-67632749D01*
X70061770Y-67626560D01*
X70075399Y-67621683D01*
X70089440Y-67618166D01*
X70103758Y-67616042D01*
X70118216Y-67615332D01*
X70132674Y-67616042D01*
X70132674Y-67616042D01*
G37*
D15*
X70135894Y-67989106D03*
D10*
G36*
X69446780Y-68301936D02*
G01*
X69461098Y-68304060D01*
X69475139Y-68307577D01*
X69488768Y-68312454D01*
X69501853Y-68318643D01*
X69514269Y-68326084D01*
X69525895Y-68334707D01*
X69536620Y-68344428D01*
X69780572Y-68588380D01*
X69790293Y-68599105D01*
X69798916Y-68610731D01*
X69806357Y-68623147D01*
X69812546Y-68636232D01*
X69817423Y-68649861D01*
X69820940Y-68663902D01*
X69823064Y-68678220D01*
X69823774Y-68692678D01*
X69823064Y-68707136D01*
X69820940Y-68721454D01*
X69817423Y-68735495D01*
X69812546Y-68749124D01*
X69806357Y-68762209D01*
X69798916Y-68774625D01*
X69790293Y-68786251D01*
X69780572Y-68796976D01*
X69571976Y-69005572D01*
X69561251Y-69015293D01*
X69549625Y-69023916D01*
X69537209Y-69031357D01*
X69524124Y-69037546D01*
X69510495Y-69042423D01*
X69496454Y-69045940D01*
X69482136Y-69048064D01*
X69467678Y-69048774D01*
X69453220Y-69048064D01*
X69438902Y-69045940D01*
X69424861Y-69042423D01*
X69411232Y-69037546D01*
X69398147Y-69031357D01*
X69385731Y-69023916D01*
X69374105Y-69015293D01*
X69363380Y-69005572D01*
X69119428Y-68761620D01*
X69109707Y-68750895D01*
X69101084Y-68739269D01*
X69093643Y-68726853D01*
X69087454Y-68713768D01*
X69082577Y-68700139D01*
X69079060Y-68686098D01*
X69076936Y-68671780D01*
X69076226Y-68657322D01*
X69076936Y-68642864D01*
X69079060Y-68628546D01*
X69082577Y-68614505D01*
X69087454Y-68600876D01*
X69093643Y-68587791D01*
X69101084Y-68575375D01*
X69109707Y-68563749D01*
X69119428Y-68553024D01*
X69328024Y-68344428D01*
X69338749Y-68334707D01*
X69350375Y-68326084D01*
X69362791Y-68318643D01*
X69375876Y-68312454D01*
X69389505Y-68307577D01*
X69403546Y-68304060D01*
X69417864Y-68301936D01*
X69432322Y-68301226D01*
X69446780Y-68301936D01*
X69446780Y-68301936D01*
G37*
D15*
X69450000Y-68675000D03*
D10*
G36*
X79696780Y-76426936D02*
G01*
X79711098Y-76429060D01*
X79725139Y-76432577D01*
X79738768Y-76437454D01*
X79751853Y-76443643D01*
X79764269Y-76451084D01*
X79775895Y-76459707D01*
X79786620Y-76469428D01*
X80030572Y-76713380D01*
X80040293Y-76724105D01*
X80048916Y-76735731D01*
X80056357Y-76748147D01*
X80062546Y-76761232D01*
X80067423Y-76774861D01*
X80070940Y-76788902D01*
X80073064Y-76803220D01*
X80073774Y-76817678D01*
X80073064Y-76832136D01*
X80070940Y-76846454D01*
X80067423Y-76860495D01*
X80062546Y-76874124D01*
X80056357Y-76887209D01*
X80048916Y-76899625D01*
X80040293Y-76911251D01*
X80030572Y-76921976D01*
X79821976Y-77130572D01*
X79811251Y-77140293D01*
X79799625Y-77148916D01*
X79787209Y-77156357D01*
X79774124Y-77162546D01*
X79760495Y-77167423D01*
X79746454Y-77170940D01*
X79732136Y-77173064D01*
X79717678Y-77173774D01*
X79703220Y-77173064D01*
X79688902Y-77170940D01*
X79674861Y-77167423D01*
X79661232Y-77162546D01*
X79648147Y-77156357D01*
X79635731Y-77148916D01*
X79624105Y-77140293D01*
X79613380Y-77130572D01*
X79369428Y-76886620D01*
X79359707Y-76875895D01*
X79351084Y-76864269D01*
X79343643Y-76851853D01*
X79337454Y-76838768D01*
X79332577Y-76825139D01*
X79329060Y-76811098D01*
X79326936Y-76796780D01*
X79326226Y-76782322D01*
X79326936Y-76767864D01*
X79329060Y-76753546D01*
X79332577Y-76739505D01*
X79337454Y-76725876D01*
X79343643Y-76712791D01*
X79351084Y-76700375D01*
X79359707Y-76688749D01*
X79369428Y-76678024D01*
X79578024Y-76469428D01*
X79588749Y-76459707D01*
X79600375Y-76451084D01*
X79612791Y-76443643D01*
X79625876Y-76437454D01*
X79639505Y-76432577D01*
X79653546Y-76429060D01*
X79667864Y-76426936D01*
X79682322Y-76426226D01*
X79696780Y-76426936D01*
X79696780Y-76426936D01*
G37*
D15*
X79700000Y-76800000D03*
D10*
G36*
X80382674Y-75741042D02*
G01*
X80396992Y-75743166D01*
X80411033Y-75746683D01*
X80424662Y-75751560D01*
X80437747Y-75757749D01*
X80450163Y-75765190D01*
X80461789Y-75773813D01*
X80472514Y-75783534D01*
X80716466Y-76027486D01*
X80726187Y-76038211D01*
X80734810Y-76049837D01*
X80742251Y-76062253D01*
X80748440Y-76075338D01*
X80753317Y-76088967D01*
X80756834Y-76103008D01*
X80758958Y-76117326D01*
X80759668Y-76131784D01*
X80758958Y-76146242D01*
X80756834Y-76160560D01*
X80753317Y-76174601D01*
X80748440Y-76188230D01*
X80742251Y-76201315D01*
X80734810Y-76213731D01*
X80726187Y-76225357D01*
X80716466Y-76236082D01*
X80507870Y-76444678D01*
X80497145Y-76454399D01*
X80485519Y-76463022D01*
X80473103Y-76470463D01*
X80460018Y-76476652D01*
X80446389Y-76481529D01*
X80432348Y-76485046D01*
X80418030Y-76487170D01*
X80403572Y-76487880D01*
X80389114Y-76487170D01*
X80374796Y-76485046D01*
X80360755Y-76481529D01*
X80347126Y-76476652D01*
X80334041Y-76470463D01*
X80321625Y-76463022D01*
X80309999Y-76454399D01*
X80299274Y-76444678D01*
X80055322Y-76200726D01*
X80045601Y-76190001D01*
X80036978Y-76178375D01*
X80029537Y-76165959D01*
X80023348Y-76152874D01*
X80018471Y-76139245D01*
X80014954Y-76125204D01*
X80012830Y-76110886D01*
X80012120Y-76096428D01*
X80012830Y-76081970D01*
X80014954Y-76067652D01*
X80018471Y-76053611D01*
X80023348Y-76039982D01*
X80029537Y-76026897D01*
X80036978Y-76014481D01*
X80045601Y-76002855D01*
X80055322Y-75992130D01*
X80263918Y-75783534D01*
X80274643Y-75773813D01*
X80286269Y-75765190D01*
X80298685Y-75757749D01*
X80311770Y-75751560D01*
X80325399Y-75746683D01*
X80339440Y-75743166D01*
X80353758Y-75741042D01*
X80368216Y-75740332D01*
X80382674Y-75741042D01*
X80382674Y-75741042D01*
G37*
D15*
X80385894Y-76114106D03*
D10*
G36*
X76742558Y-82435910D02*
G01*
X76756876Y-82438034D01*
X76770917Y-82441551D01*
X76784546Y-82446428D01*
X76797631Y-82452617D01*
X76810047Y-82460058D01*
X76821673Y-82468681D01*
X76832398Y-82478402D01*
X76842119Y-82489127D01*
X76850742Y-82500753D01*
X76858183Y-82513169D01*
X76864372Y-82526254D01*
X76869249Y-82539883D01*
X76872766Y-82553924D01*
X76874890Y-82568242D01*
X76875600Y-82582700D01*
X76875600Y-82877700D01*
X76874890Y-82892158D01*
X76872766Y-82906476D01*
X76869249Y-82920517D01*
X76864372Y-82934146D01*
X76858183Y-82947231D01*
X76850742Y-82959647D01*
X76842119Y-82971273D01*
X76832398Y-82981998D01*
X76821673Y-82991719D01*
X76810047Y-83000342D01*
X76797631Y-83007783D01*
X76784546Y-83013972D01*
X76770917Y-83018849D01*
X76756876Y-83022366D01*
X76742558Y-83024490D01*
X76728100Y-83025200D01*
X76383100Y-83025200D01*
X76368642Y-83024490D01*
X76354324Y-83022366D01*
X76340283Y-83018849D01*
X76326654Y-83013972D01*
X76313569Y-83007783D01*
X76301153Y-83000342D01*
X76289527Y-82991719D01*
X76278802Y-82981998D01*
X76269081Y-82971273D01*
X76260458Y-82959647D01*
X76253017Y-82947231D01*
X76246828Y-82934146D01*
X76241951Y-82920517D01*
X76238434Y-82906476D01*
X76236310Y-82892158D01*
X76235600Y-82877700D01*
X76235600Y-82582700D01*
X76236310Y-82568242D01*
X76238434Y-82553924D01*
X76241951Y-82539883D01*
X76246828Y-82526254D01*
X76253017Y-82513169D01*
X76260458Y-82500753D01*
X76269081Y-82489127D01*
X76278802Y-82478402D01*
X76289527Y-82468681D01*
X76301153Y-82460058D01*
X76313569Y-82452617D01*
X76326654Y-82446428D01*
X76340283Y-82441551D01*
X76354324Y-82438034D01*
X76368642Y-82435910D01*
X76383100Y-82435200D01*
X76728100Y-82435200D01*
X76742558Y-82435910D01*
X76742558Y-82435910D01*
G37*
D15*
X76555600Y-82730200D03*
D10*
G36*
X76742558Y-81465910D02*
G01*
X76756876Y-81468034D01*
X76770917Y-81471551D01*
X76784546Y-81476428D01*
X76797631Y-81482617D01*
X76810047Y-81490058D01*
X76821673Y-81498681D01*
X76832398Y-81508402D01*
X76842119Y-81519127D01*
X76850742Y-81530753D01*
X76858183Y-81543169D01*
X76864372Y-81556254D01*
X76869249Y-81569883D01*
X76872766Y-81583924D01*
X76874890Y-81598242D01*
X76875600Y-81612700D01*
X76875600Y-81907700D01*
X76874890Y-81922158D01*
X76872766Y-81936476D01*
X76869249Y-81950517D01*
X76864372Y-81964146D01*
X76858183Y-81977231D01*
X76850742Y-81989647D01*
X76842119Y-82001273D01*
X76832398Y-82011998D01*
X76821673Y-82021719D01*
X76810047Y-82030342D01*
X76797631Y-82037783D01*
X76784546Y-82043972D01*
X76770917Y-82048849D01*
X76756876Y-82052366D01*
X76742558Y-82054490D01*
X76728100Y-82055200D01*
X76383100Y-82055200D01*
X76368642Y-82054490D01*
X76354324Y-82052366D01*
X76340283Y-82048849D01*
X76326654Y-82043972D01*
X76313569Y-82037783D01*
X76301153Y-82030342D01*
X76289527Y-82021719D01*
X76278802Y-82011998D01*
X76269081Y-82001273D01*
X76260458Y-81989647D01*
X76253017Y-81977231D01*
X76246828Y-81964146D01*
X76241951Y-81950517D01*
X76238434Y-81936476D01*
X76236310Y-81922158D01*
X76235600Y-81907700D01*
X76235600Y-81612700D01*
X76236310Y-81598242D01*
X76238434Y-81583924D01*
X76241951Y-81569883D01*
X76246828Y-81556254D01*
X76253017Y-81543169D01*
X76260458Y-81530753D01*
X76269081Y-81519127D01*
X76278802Y-81508402D01*
X76289527Y-81498681D01*
X76301153Y-81490058D01*
X76313569Y-81482617D01*
X76326654Y-81476428D01*
X76340283Y-81471551D01*
X76354324Y-81468034D01*
X76368642Y-81465910D01*
X76383100Y-81465200D01*
X76728100Y-81465200D01*
X76742558Y-81465910D01*
X76742558Y-81465910D01*
G37*
D15*
X76555600Y-81760200D03*
D10*
G36*
X78053833Y-76369883D02*
G01*
X78068151Y-76372007D01*
X78082192Y-76375524D01*
X78095821Y-76380401D01*
X78108906Y-76386590D01*
X78121322Y-76394031D01*
X78132948Y-76402654D01*
X78143673Y-76412375D01*
X78387625Y-76656327D01*
X78397346Y-76667052D01*
X78405969Y-76678678D01*
X78413410Y-76691094D01*
X78419599Y-76704179D01*
X78424476Y-76717808D01*
X78427993Y-76731849D01*
X78430117Y-76746167D01*
X78430827Y-76760625D01*
X78430117Y-76775083D01*
X78427993Y-76789401D01*
X78424476Y-76803442D01*
X78419599Y-76817071D01*
X78413410Y-76830156D01*
X78405969Y-76842572D01*
X78397346Y-76854198D01*
X78387625Y-76864923D01*
X78179029Y-77073519D01*
X78168304Y-77083240D01*
X78156678Y-77091863D01*
X78144262Y-77099304D01*
X78131177Y-77105493D01*
X78117548Y-77110370D01*
X78103507Y-77113887D01*
X78089189Y-77116011D01*
X78074731Y-77116721D01*
X78060273Y-77116011D01*
X78045955Y-77113887D01*
X78031914Y-77110370D01*
X78018285Y-77105493D01*
X78005200Y-77099304D01*
X77992784Y-77091863D01*
X77981158Y-77083240D01*
X77970433Y-77073519D01*
X77726481Y-76829567D01*
X77716760Y-76818842D01*
X77708137Y-76807216D01*
X77700696Y-76794800D01*
X77694507Y-76781715D01*
X77689630Y-76768086D01*
X77686113Y-76754045D01*
X77683989Y-76739727D01*
X77683279Y-76725269D01*
X77683989Y-76710811D01*
X77686113Y-76696493D01*
X77689630Y-76682452D01*
X77694507Y-76668823D01*
X77700696Y-76655738D01*
X77708137Y-76643322D01*
X77716760Y-76631696D01*
X77726481Y-76620971D01*
X77935077Y-76412375D01*
X77945802Y-76402654D01*
X77957428Y-76394031D01*
X77969844Y-76386590D01*
X77982929Y-76380401D01*
X77996558Y-76375524D01*
X78010599Y-76372007D01*
X78024917Y-76369883D01*
X78039375Y-76369173D01*
X78053833Y-76369883D01*
X78053833Y-76369883D01*
G37*
D15*
X78057053Y-76742947D03*
D10*
G36*
X78739727Y-75683989D02*
G01*
X78754045Y-75686113D01*
X78768086Y-75689630D01*
X78781715Y-75694507D01*
X78794800Y-75700696D01*
X78807216Y-75708137D01*
X78818842Y-75716760D01*
X78829567Y-75726481D01*
X79073519Y-75970433D01*
X79083240Y-75981158D01*
X79091863Y-75992784D01*
X79099304Y-76005200D01*
X79105493Y-76018285D01*
X79110370Y-76031914D01*
X79113887Y-76045955D01*
X79116011Y-76060273D01*
X79116721Y-76074731D01*
X79116011Y-76089189D01*
X79113887Y-76103507D01*
X79110370Y-76117548D01*
X79105493Y-76131177D01*
X79099304Y-76144262D01*
X79091863Y-76156678D01*
X79083240Y-76168304D01*
X79073519Y-76179029D01*
X78864923Y-76387625D01*
X78854198Y-76397346D01*
X78842572Y-76405969D01*
X78830156Y-76413410D01*
X78817071Y-76419599D01*
X78803442Y-76424476D01*
X78789401Y-76427993D01*
X78775083Y-76430117D01*
X78760625Y-76430827D01*
X78746167Y-76430117D01*
X78731849Y-76427993D01*
X78717808Y-76424476D01*
X78704179Y-76419599D01*
X78691094Y-76413410D01*
X78678678Y-76405969D01*
X78667052Y-76397346D01*
X78656327Y-76387625D01*
X78412375Y-76143673D01*
X78402654Y-76132948D01*
X78394031Y-76121322D01*
X78386590Y-76108906D01*
X78380401Y-76095821D01*
X78375524Y-76082192D01*
X78372007Y-76068151D01*
X78369883Y-76053833D01*
X78369173Y-76039375D01*
X78369883Y-76024917D01*
X78372007Y-76010599D01*
X78375524Y-75996558D01*
X78380401Y-75982929D01*
X78386590Y-75969844D01*
X78394031Y-75957428D01*
X78402654Y-75945802D01*
X78412375Y-75935077D01*
X78620971Y-75726481D01*
X78631696Y-75716760D01*
X78643322Y-75708137D01*
X78655738Y-75700696D01*
X78668823Y-75694507D01*
X78682452Y-75689630D01*
X78696493Y-75686113D01*
X78710811Y-75683989D01*
X78725269Y-75683279D01*
X78739727Y-75683989D01*
X78739727Y-75683989D01*
G37*
D15*
X78742947Y-76057053D03*
D10*
G36*
X77047358Y-87084110D02*
G01*
X77061676Y-87086234D01*
X77075717Y-87089751D01*
X77089346Y-87094628D01*
X77102431Y-87100817D01*
X77114847Y-87108258D01*
X77126473Y-87116881D01*
X77137198Y-87126602D01*
X77146919Y-87137327D01*
X77155542Y-87148953D01*
X77162983Y-87161369D01*
X77169172Y-87174454D01*
X77174049Y-87188083D01*
X77177566Y-87202124D01*
X77179690Y-87216442D01*
X77180400Y-87230900D01*
X77180400Y-87525900D01*
X77179690Y-87540358D01*
X77177566Y-87554676D01*
X77174049Y-87568717D01*
X77169172Y-87582346D01*
X77162983Y-87595431D01*
X77155542Y-87607847D01*
X77146919Y-87619473D01*
X77137198Y-87630198D01*
X77126473Y-87639919D01*
X77114847Y-87648542D01*
X77102431Y-87655983D01*
X77089346Y-87662172D01*
X77075717Y-87667049D01*
X77061676Y-87670566D01*
X77047358Y-87672690D01*
X77032900Y-87673400D01*
X76687900Y-87673400D01*
X76673442Y-87672690D01*
X76659124Y-87670566D01*
X76645083Y-87667049D01*
X76631454Y-87662172D01*
X76618369Y-87655983D01*
X76605953Y-87648542D01*
X76594327Y-87639919D01*
X76583602Y-87630198D01*
X76573881Y-87619473D01*
X76565258Y-87607847D01*
X76557817Y-87595431D01*
X76551628Y-87582346D01*
X76546751Y-87568717D01*
X76543234Y-87554676D01*
X76541110Y-87540358D01*
X76540400Y-87525900D01*
X76540400Y-87230900D01*
X76541110Y-87216442D01*
X76543234Y-87202124D01*
X76546751Y-87188083D01*
X76551628Y-87174454D01*
X76557817Y-87161369D01*
X76565258Y-87148953D01*
X76573881Y-87137327D01*
X76583602Y-87126602D01*
X76594327Y-87116881D01*
X76605953Y-87108258D01*
X76618369Y-87100817D01*
X76631454Y-87094628D01*
X76645083Y-87089751D01*
X76659124Y-87086234D01*
X76673442Y-87084110D01*
X76687900Y-87083400D01*
X77032900Y-87083400D01*
X77047358Y-87084110D01*
X77047358Y-87084110D01*
G37*
D15*
X76860400Y-87378400D03*
D10*
G36*
X77047358Y-86114110D02*
G01*
X77061676Y-86116234D01*
X77075717Y-86119751D01*
X77089346Y-86124628D01*
X77102431Y-86130817D01*
X77114847Y-86138258D01*
X77126473Y-86146881D01*
X77137198Y-86156602D01*
X77146919Y-86167327D01*
X77155542Y-86178953D01*
X77162983Y-86191369D01*
X77169172Y-86204454D01*
X77174049Y-86218083D01*
X77177566Y-86232124D01*
X77179690Y-86246442D01*
X77180400Y-86260900D01*
X77180400Y-86555900D01*
X77179690Y-86570358D01*
X77177566Y-86584676D01*
X77174049Y-86598717D01*
X77169172Y-86612346D01*
X77162983Y-86625431D01*
X77155542Y-86637847D01*
X77146919Y-86649473D01*
X77137198Y-86660198D01*
X77126473Y-86669919D01*
X77114847Y-86678542D01*
X77102431Y-86685983D01*
X77089346Y-86692172D01*
X77075717Y-86697049D01*
X77061676Y-86700566D01*
X77047358Y-86702690D01*
X77032900Y-86703400D01*
X76687900Y-86703400D01*
X76673442Y-86702690D01*
X76659124Y-86700566D01*
X76645083Y-86697049D01*
X76631454Y-86692172D01*
X76618369Y-86685983D01*
X76605953Y-86678542D01*
X76594327Y-86669919D01*
X76583602Y-86660198D01*
X76573881Y-86649473D01*
X76565258Y-86637847D01*
X76557817Y-86625431D01*
X76551628Y-86612346D01*
X76546751Y-86598717D01*
X76543234Y-86584676D01*
X76541110Y-86570358D01*
X76540400Y-86555900D01*
X76540400Y-86260900D01*
X76541110Y-86246442D01*
X76543234Y-86232124D01*
X76546751Y-86218083D01*
X76551628Y-86204454D01*
X76557817Y-86191369D01*
X76565258Y-86178953D01*
X76573881Y-86167327D01*
X76583602Y-86156602D01*
X76594327Y-86146881D01*
X76605953Y-86138258D01*
X76618369Y-86130817D01*
X76631454Y-86124628D01*
X76645083Y-86119751D01*
X76659124Y-86116234D01*
X76673442Y-86114110D01*
X76687900Y-86113400D01*
X77032900Y-86113400D01*
X77047358Y-86114110D01*
X77047358Y-86114110D01*
G37*
D15*
X76860400Y-86408400D03*
D10*
G36*
X79147958Y-81444710D02*
G01*
X79162276Y-81446834D01*
X79176317Y-81450351D01*
X79189946Y-81455228D01*
X79203031Y-81461417D01*
X79215447Y-81468858D01*
X79227073Y-81477481D01*
X79237798Y-81487202D01*
X79247519Y-81497927D01*
X79256142Y-81509553D01*
X79263583Y-81521969D01*
X79269772Y-81535054D01*
X79274649Y-81548683D01*
X79278166Y-81562724D01*
X79280290Y-81577042D01*
X79281000Y-81591500D01*
X79281000Y-81936500D01*
X79280290Y-81950958D01*
X79278166Y-81965276D01*
X79274649Y-81979317D01*
X79269772Y-81992946D01*
X79263583Y-82006031D01*
X79256142Y-82018447D01*
X79247519Y-82030073D01*
X79237798Y-82040798D01*
X79227073Y-82050519D01*
X79215447Y-82059142D01*
X79203031Y-82066583D01*
X79189946Y-82072772D01*
X79176317Y-82077649D01*
X79162276Y-82081166D01*
X79147958Y-82083290D01*
X79133500Y-82084000D01*
X78838500Y-82084000D01*
X78824042Y-82083290D01*
X78809724Y-82081166D01*
X78795683Y-82077649D01*
X78782054Y-82072772D01*
X78768969Y-82066583D01*
X78756553Y-82059142D01*
X78744927Y-82050519D01*
X78734202Y-82040798D01*
X78724481Y-82030073D01*
X78715858Y-82018447D01*
X78708417Y-82006031D01*
X78702228Y-81992946D01*
X78697351Y-81979317D01*
X78693834Y-81965276D01*
X78691710Y-81950958D01*
X78691000Y-81936500D01*
X78691000Y-81591500D01*
X78691710Y-81577042D01*
X78693834Y-81562724D01*
X78697351Y-81548683D01*
X78702228Y-81535054D01*
X78708417Y-81521969D01*
X78715858Y-81509553D01*
X78724481Y-81497927D01*
X78734202Y-81487202D01*
X78744927Y-81477481D01*
X78756553Y-81468858D01*
X78768969Y-81461417D01*
X78782054Y-81455228D01*
X78795683Y-81450351D01*
X78809724Y-81446834D01*
X78824042Y-81444710D01*
X78838500Y-81444000D01*
X79133500Y-81444000D01*
X79147958Y-81444710D01*
X79147958Y-81444710D01*
G37*
D15*
X78986000Y-81764000D03*
D10*
G36*
X80117958Y-81444710D02*
G01*
X80132276Y-81446834D01*
X80146317Y-81450351D01*
X80159946Y-81455228D01*
X80173031Y-81461417D01*
X80185447Y-81468858D01*
X80197073Y-81477481D01*
X80207798Y-81487202D01*
X80217519Y-81497927D01*
X80226142Y-81509553D01*
X80233583Y-81521969D01*
X80239772Y-81535054D01*
X80244649Y-81548683D01*
X80248166Y-81562724D01*
X80250290Y-81577042D01*
X80251000Y-81591500D01*
X80251000Y-81936500D01*
X80250290Y-81950958D01*
X80248166Y-81965276D01*
X80244649Y-81979317D01*
X80239772Y-81992946D01*
X80233583Y-82006031D01*
X80226142Y-82018447D01*
X80217519Y-82030073D01*
X80207798Y-82040798D01*
X80197073Y-82050519D01*
X80185447Y-82059142D01*
X80173031Y-82066583D01*
X80159946Y-82072772D01*
X80146317Y-82077649D01*
X80132276Y-82081166D01*
X80117958Y-82083290D01*
X80103500Y-82084000D01*
X79808500Y-82084000D01*
X79794042Y-82083290D01*
X79779724Y-82081166D01*
X79765683Y-82077649D01*
X79752054Y-82072772D01*
X79738969Y-82066583D01*
X79726553Y-82059142D01*
X79714927Y-82050519D01*
X79704202Y-82040798D01*
X79694481Y-82030073D01*
X79685858Y-82018447D01*
X79678417Y-82006031D01*
X79672228Y-81992946D01*
X79667351Y-81979317D01*
X79663834Y-81965276D01*
X79661710Y-81950958D01*
X79661000Y-81936500D01*
X79661000Y-81591500D01*
X79661710Y-81577042D01*
X79663834Y-81562724D01*
X79667351Y-81548683D01*
X79672228Y-81535054D01*
X79678417Y-81521969D01*
X79685858Y-81509553D01*
X79694481Y-81497927D01*
X79704202Y-81487202D01*
X79714927Y-81477481D01*
X79726553Y-81468858D01*
X79738969Y-81461417D01*
X79752054Y-81455228D01*
X79765683Y-81450351D01*
X79779724Y-81446834D01*
X79794042Y-81444710D01*
X79808500Y-81444000D01*
X80103500Y-81444000D01*
X80117958Y-81444710D01*
X80117958Y-81444710D01*
G37*
D15*
X79956000Y-81764000D03*
D17*
X78549000Y-87320000D03*
X79199000Y-87320000D03*
X79849000Y-87320000D03*
X80499000Y-87320000D03*
X80499000Y-84320000D03*
X79849000Y-84320000D03*
X79199000Y-84320000D03*
X78549000Y-84320000D03*
D18*
X79524000Y-85820000D03*
D10*
G36*
X75537891Y-86736553D02*
G01*
X75559126Y-86739703D01*
X75579950Y-86744919D01*
X75600162Y-86752151D01*
X75619568Y-86761330D01*
X75637981Y-86772366D01*
X75655224Y-86785154D01*
X75671130Y-86799570D01*
X75685546Y-86815476D01*
X75698334Y-86832719D01*
X75709370Y-86851132D01*
X75718549Y-86870538D01*
X75725781Y-86890750D01*
X75730997Y-86911574D01*
X75734147Y-86932809D01*
X75735200Y-86954250D01*
X75735200Y-87391750D01*
X75734147Y-87413191D01*
X75730997Y-87434426D01*
X75725781Y-87455250D01*
X75718549Y-87475462D01*
X75709370Y-87494868D01*
X75698334Y-87513281D01*
X75685546Y-87530524D01*
X75671130Y-87546430D01*
X75655224Y-87560846D01*
X75637981Y-87573634D01*
X75619568Y-87584670D01*
X75600162Y-87593849D01*
X75579950Y-87601081D01*
X75559126Y-87606297D01*
X75537891Y-87609447D01*
X75516450Y-87610500D01*
X75003950Y-87610500D01*
X74982509Y-87609447D01*
X74961274Y-87606297D01*
X74940450Y-87601081D01*
X74920238Y-87593849D01*
X74900832Y-87584670D01*
X74882419Y-87573634D01*
X74865176Y-87560846D01*
X74849270Y-87546430D01*
X74834854Y-87530524D01*
X74822066Y-87513281D01*
X74811030Y-87494868D01*
X74801851Y-87475462D01*
X74794619Y-87455250D01*
X74789403Y-87434426D01*
X74786253Y-87413191D01*
X74785200Y-87391750D01*
X74785200Y-86954250D01*
X74786253Y-86932809D01*
X74789403Y-86911574D01*
X74794619Y-86890750D01*
X74801851Y-86870538D01*
X74811030Y-86851132D01*
X74822066Y-86832719D01*
X74834854Y-86815476D01*
X74849270Y-86799570D01*
X74865176Y-86785154D01*
X74882419Y-86772366D01*
X74900832Y-86761330D01*
X74920238Y-86752151D01*
X74940450Y-86744919D01*
X74961274Y-86739703D01*
X74982509Y-86736553D01*
X75003950Y-86735500D01*
X75516450Y-86735500D01*
X75537891Y-86736553D01*
X75537891Y-86736553D01*
G37*
D11*
X75260200Y-87173000D03*
D10*
G36*
X75537891Y-85161553D02*
G01*
X75559126Y-85164703D01*
X75579950Y-85169919D01*
X75600162Y-85177151D01*
X75619568Y-85186330D01*
X75637981Y-85197366D01*
X75655224Y-85210154D01*
X75671130Y-85224570D01*
X75685546Y-85240476D01*
X75698334Y-85257719D01*
X75709370Y-85276132D01*
X75718549Y-85295538D01*
X75725781Y-85315750D01*
X75730997Y-85336574D01*
X75734147Y-85357809D01*
X75735200Y-85379250D01*
X75735200Y-85816750D01*
X75734147Y-85838191D01*
X75730997Y-85859426D01*
X75725781Y-85880250D01*
X75718549Y-85900462D01*
X75709370Y-85919868D01*
X75698334Y-85938281D01*
X75685546Y-85955524D01*
X75671130Y-85971430D01*
X75655224Y-85985846D01*
X75637981Y-85998634D01*
X75619568Y-86009670D01*
X75600162Y-86018849D01*
X75579950Y-86026081D01*
X75559126Y-86031297D01*
X75537891Y-86034447D01*
X75516450Y-86035500D01*
X75003950Y-86035500D01*
X74982509Y-86034447D01*
X74961274Y-86031297D01*
X74940450Y-86026081D01*
X74920238Y-86018849D01*
X74900832Y-86009670D01*
X74882419Y-85998634D01*
X74865176Y-85985846D01*
X74849270Y-85971430D01*
X74834854Y-85955524D01*
X74822066Y-85938281D01*
X74811030Y-85919868D01*
X74801851Y-85900462D01*
X74794619Y-85880250D01*
X74789403Y-85859426D01*
X74786253Y-85838191D01*
X74785200Y-85816750D01*
X74785200Y-85379250D01*
X74786253Y-85357809D01*
X74789403Y-85336574D01*
X74794619Y-85315750D01*
X74801851Y-85295538D01*
X74811030Y-85276132D01*
X74822066Y-85257719D01*
X74834854Y-85240476D01*
X74849270Y-85224570D01*
X74865176Y-85210154D01*
X74882419Y-85197366D01*
X74900832Y-85186330D01*
X74920238Y-85177151D01*
X74940450Y-85169919D01*
X74961274Y-85164703D01*
X74982509Y-85161553D01*
X75003950Y-85160500D01*
X75516450Y-85160500D01*
X75537891Y-85161553D01*
X75537891Y-85161553D01*
G37*
D11*
X75260200Y-85598000D03*
D10*
G36*
X78900691Y-80020053D02*
G01*
X78921926Y-80023203D01*
X78942750Y-80028419D01*
X78962962Y-80035651D01*
X78982368Y-80044830D01*
X79000781Y-80055866D01*
X79018024Y-80068654D01*
X79033930Y-80083070D01*
X79048346Y-80098976D01*
X79061134Y-80116219D01*
X79072170Y-80134632D01*
X79081349Y-80154038D01*
X79088581Y-80174250D01*
X79093797Y-80195074D01*
X79096947Y-80216309D01*
X79098000Y-80237750D01*
X79098000Y-80750250D01*
X79096947Y-80771691D01*
X79093797Y-80792926D01*
X79088581Y-80813750D01*
X79081349Y-80833962D01*
X79072170Y-80853368D01*
X79061134Y-80871781D01*
X79048346Y-80889024D01*
X79033930Y-80904930D01*
X79018024Y-80919346D01*
X79000781Y-80932134D01*
X78982368Y-80943170D01*
X78962962Y-80952349D01*
X78942750Y-80959581D01*
X78921926Y-80964797D01*
X78900691Y-80967947D01*
X78879250Y-80969000D01*
X78441750Y-80969000D01*
X78420309Y-80967947D01*
X78399074Y-80964797D01*
X78378250Y-80959581D01*
X78358038Y-80952349D01*
X78338632Y-80943170D01*
X78320219Y-80932134D01*
X78302976Y-80919346D01*
X78287070Y-80904930D01*
X78272654Y-80889024D01*
X78259866Y-80871781D01*
X78248830Y-80853368D01*
X78239651Y-80833962D01*
X78232419Y-80813750D01*
X78227203Y-80792926D01*
X78224053Y-80771691D01*
X78223000Y-80750250D01*
X78223000Y-80237750D01*
X78224053Y-80216309D01*
X78227203Y-80195074D01*
X78232419Y-80174250D01*
X78239651Y-80154038D01*
X78248830Y-80134632D01*
X78259866Y-80116219D01*
X78272654Y-80098976D01*
X78287070Y-80083070D01*
X78302976Y-80068654D01*
X78320219Y-80055866D01*
X78338632Y-80044830D01*
X78358038Y-80035651D01*
X78378250Y-80028419D01*
X78399074Y-80023203D01*
X78420309Y-80020053D01*
X78441750Y-80019000D01*
X78879250Y-80019000D01*
X78900691Y-80020053D01*
X78900691Y-80020053D01*
G37*
D11*
X78660500Y-80494000D03*
D10*
G36*
X80475691Y-80020053D02*
G01*
X80496926Y-80023203D01*
X80517750Y-80028419D01*
X80537962Y-80035651D01*
X80557368Y-80044830D01*
X80575781Y-80055866D01*
X80593024Y-80068654D01*
X80608930Y-80083070D01*
X80623346Y-80098976D01*
X80636134Y-80116219D01*
X80647170Y-80134632D01*
X80656349Y-80154038D01*
X80663581Y-80174250D01*
X80668797Y-80195074D01*
X80671947Y-80216309D01*
X80673000Y-80237750D01*
X80673000Y-80750250D01*
X80671947Y-80771691D01*
X80668797Y-80792926D01*
X80663581Y-80813750D01*
X80656349Y-80833962D01*
X80647170Y-80853368D01*
X80636134Y-80871781D01*
X80623346Y-80889024D01*
X80608930Y-80904930D01*
X80593024Y-80919346D01*
X80575781Y-80932134D01*
X80557368Y-80943170D01*
X80537962Y-80952349D01*
X80517750Y-80959581D01*
X80496926Y-80964797D01*
X80475691Y-80967947D01*
X80454250Y-80969000D01*
X80016750Y-80969000D01*
X79995309Y-80967947D01*
X79974074Y-80964797D01*
X79953250Y-80959581D01*
X79933038Y-80952349D01*
X79913632Y-80943170D01*
X79895219Y-80932134D01*
X79877976Y-80919346D01*
X79862070Y-80904930D01*
X79847654Y-80889024D01*
X79834866Y-80871781D01*
X79823830Y-80853368D01*
X79814651Y-80833962D01*
X79807419Y-80813750D01*
X79802203Y-80792926D01*
X79799053Y-80771691D01*
X79798000Y-80750250D01*
X79798000Y-80237750D01*
X79799053Y-80216309D01*
X79802203Y-80195074D01*
X79807419Y-80174250D01*
X79814651Y-80154038D01*
X79823830Y-80134632D01*
X79834866Y-80116219D01*
X79847654Y-80098976D01*
X79862070Y-80083070D01*
X79877976Y-80068654D01*
X79895219Y-80055866D01*
X79913632Y-80044830D01*
X79933038Y-80035651D01*
X79953250Y-80028419D01*
X79974074Y-80023203D01*
X79995309Y-80020053D01*
X80016750Y-80019000D01*
X80454250Y-80019000D01*
X80475691Y-80020053D01*
X80475691Y-80020053D01*
G37*
D11*
X80235500Y-80494000D03*
D10*
G36*
X68703686Y-77376430D02*
G01*
X68718004Y-77378554D01*
X68732045Y-77382071D01*
X68745674Y-77386948D01*
X68758759Y-77393137D01*
X68771175Y-77400578D01*
X68782801Y-77409201D01*
X68793526Y-77418922D01*
X69037478Y-77662874D01*
X69047199Y-77673599D01*
X69055822Y-77685225D01*
X69063263Y-77697641D01*
X69069452Y-77710726D01*
X69074329Y-77724355D01*
X69077846Y-77738396D01*
X69079970Y-77752714D01*
X69080680Y-77767172D01*
X69079970Y-77781630D01*
X69077846Y-77795948D01*
X69074329Y-77809989D01*
X69069452Y-77823618D01*
X69063263Y-77836703D01*
X69055822Y-77849119D01*
X69047199Y-77860745D01*
X69037478Y-77871470D01*
X68828882Y-78080066D01*
X68818157Y-78089787D01*
X68806531Y-78098410D01*
X68794115Y-78105851D01*
X68781030Y-78112040D01*
X68767401Y-78116917D01*
X68753360Y-78120434D01*
X68739042Y-78122558D01*
X68724584Y-78123268D01*
X68710126Y-78122558D01*
X68695808Y-78120434D01*
X68681767Y-78116917D01*
X68668138Y-78112040D01*
X68655053Y-78105851D01*
X68642637Y-78098410D01*
X68631011Y-78089787D01*
X68620286Y-78080066D01*
X68376334Y-77836114D01*
X68366613Y-77825389D01*
X68357990Y-77813763D01*
X68350549Y-77801347D01*
X68344360Y-77788262D01*
X68339483Y-77774633D01*
X68335966Y-77760592D01*
X68333842Y-77746274D01*
X68333132Y-77731816D01*
X68333842Y-77717358D01*
X68335966Y-77703040D01*
X68339483Y-77688999D01*
X68344360Y-77675370D01*
X68350549Y-77662285D01*
X68357990Y-77649869D01*
X68366613Y-77638243D01*
X68376334Y-77627518D01*
X68584930Y-77418922D01*
X68595655Y-77409201D01*
X68607281Y-77400578D01*
X68619697Y-77393137D01*
X68632782Y-77386948D01*
X68646411Y-77382071D01*
X68660452Y-77378554D01*
X68674770Y-77376430D01*
X68689228Y-77375720D01*
X68703686Y-77376430D01*
X68703686Y-77376430D01*
G37*
D15*
X68706906Y-77749494D03*
D10*
G36*
X69389580Y-76690536D02*
G01*
X69403898Y-76692660D01*
X69417939Y-76696177D01*
X69431568Y-76701054D01*
X69444653Y-76707243D01*
X69457069Y-76714684D01*
X69468695Y-76723307D01*
X69479420Y-76733028D01*
X69723372Y-76976980D01*
X69733093Y-76987705D01*
X69741716Y-76999331D01*
X69749157Y-77011747D01*
X69755346Y-77024832D01*
X69760223Y-77038461D01*
X69763740Y-77052502D01*
X69765864Y-77066820D01*
X69766574Y-77081278D01*
X69765864Y-77095736D01*
X69763740Y-77110054D01*
X69760223Y-77124095D01*
X69755346Y-77137724D01*
X69749157Y-77150809D01*
X69741716Y-77163225D01*
X69733093Y-77174851D01*
X69723372Y-77185576D01*
X69514776Y-77394172D01*
X69504051Y-77403893D01*
X69492425Y-77412516D01*
X69480009Y-77419957D01*
X69466924Y-77426146D01*
X69453295Y-77431023D01*
X69439254Y-77434540D01*
X69424936Y-77436664D01*
X69410478Y-77437374D01*
X69396020Y-77436664D01*
X69381702Y-77434540D01*
X69367661Y-77431023D01*
X69354032Y-77426146D01*
X69340947Y-77419957D01*
X69328531Y-77412516D01*
X69316905Y-77403893D01*
X69306180Y-77394172D01*
X69062228Y-77150220D01*
X69052507Y-77139495D01*
X69043884Y-77127869D01*
X69036443Y-77115453D01*
X69030254Y-77102368D01*
X69025377Y-77088739D01*
X69021860Y-77074698D01*
X69019736Y-77060380D01*
X69019026Y-77045922D01*
X69019736Y-77031464D01*
X69021860Y-77017146D01*
X69025377Y-77003105D01*
X69030254Y-76989476D01*
X69036443Y-76976391D01*
X69043884Y-76963975D01*
X69052507Y-76952349D01*
X69062228Y-76941624D01*
X69270824Y-76733028D01*
X69281549Y-76723307D01*
X69293175Y-76714684D01*
X69305591Y-76707243D01*
X69318676Y-76701054D01*
X69332305Y-76696177D01*
X69346346Y-76692660D01*
X69360664Y-76690536D01*
X69375122Y-76689826D01*
X69389580Y-76690536D01*
X69389580Y-76690536D01*
G37*
D15*
X69392800Y-77063600D03*
D10*
G36*
X67535380Y-74455336D02*
G01*
X67549698Y-74457460D01*
X67563739Y-74460977D01*
X67577368Y-74465854D01*
X67590453Y-74472043D01*
X67602869Y-74479484D01*
X67614495Y-74488107D01*
X67625220Y-74497828D01*
X67869172Y-74741780D01*
X67878893Y-74752505D01*
X67887516Y-74764131D01*
X67894957Y-74776547D01*
X67901146Y-74789632D01*
X67906023Y-74803261D01*
X67909540Y-74817302D01*
X67911664Y-74831620D01*
X67912374Y-74846078D01*
X67911664Y-74860536D01*
X67909540Y-74874854D01*
X67906023Y-74888895D01*
X67901146Y-74902524D01*
X67894957Y-74915609D01*
X67887516Y-74928025D01*
X67878893Y-74939651D01*
X67869172Y-74950376D01*
X67660576Y-75158972D01*
X67649851Y-75168693D01*
X67638225Y-75177316D01*
X67625809Y-75184757D01*
X67612724Y-75190946D01*
X67599095Y-75195823D01*
X67585054Y-75199340D01*
X67570736Y-75201464D01*
X67556278Y-75202174D01*
X67541820Y-75201464D01*
X67527502Y-75199340D01*
X67513461Y-75195823D01*
X67499832Y-75190946D01*
X67486747Y-75184757D01*
X67474331Y-75177316D01*
X67462705Y-75168693D01*
X67451980Y-75158972D01*
X67208028Y-74915020D01*
X67198307Y-74904295D01*
X67189684Y-74892669D01*
X67182243Y-74880253D01*
X67176054Y-74867168D01*
X67171177Y-74853539D01*
X67167660Y-74839498D01*
X67165536Y-74825180D01*
X67164826Y-74810722D01*
X67165536Y-74796264D01*
X67167660Y-74781946D01*
X67171177Y-74767905D01*
X67176054Y-74754276D01*
X67182243Y-74741191D01*
X67189684Y-74728775D01*
X67198307Y-74717149D01*
X67208028Y-74706424D01*
X67416624Y-74497828D01*
X67427349Y-74488107D01*
X67438975Y-74479484D01*
X67451391Y-74472043D01*
X67464476Y-74465854D01*
X67478105Y-74460977D01*
X67492146Y-74457460D01*
X67506464Y-74455336D01*
X67520922Y-74454626D01*
X67535380Y-74455336D01*
X67535380Y-74455336D01*
G37*
D15*
X67538600Y-74828400D03*
D10*
G36*
X66849486Y-75141230D02*
G01*
X66863804Y-75143354D01*
X66877845Y-75146871D01*
X66891474Y-75151748D01*
X66904559Y-75157937D01*
X66916975Y-75165378D01*
X66928601Y-75174001D01*
X66939326Y-75183722D01*
X67183278Y-75427674D01*
X67192999Y-75438399D01*
X67201622Y-75450025D01*
X67209063Y-75462441D01*
X67215252Y-75475526D01*
X67220129Y-75489155D01*
X67223646Y-75503196D01*
X67225770Y-75517514D01*
X67226480Y-75531972D01*
X67225770Y-75546430D01*
X67223646Y-75560748D01*
X67220129Y-75574789D01*
X67215252Y-75588418D01*
X67209063Y-75601503D01*
X67201622Y-75613919D01*
X67192999Y-75625545D01*
X67183278Y-75636270D01*
X66974682Y-75844866D01*
X66963957Y-75854587D01*
X66952331Y-75863210D01*
X66939915Y-75870651D01*
X66926830Y-75876840D01*
X66913201Y-75881717D01*
X66899160Y-75885234D01*
X66884842Y-75887358D01*
X66870384Y-75888068D01*
X66855926Y-75887358D01*
X66841608Y-75885234D01*
X66827567Y-75881717D01*
X66813938Y-75876840D01*
X66800853Y-75870651D01*
X66788437Y-75863210D01*
X66776811Y-75854587D01*
X66766086Y-75844866D01*
X66522134Y-75600914D01*
X66512413Y-75590189D01*
X66503790Y-75578563D01*
X66496349Y-75566147D01*
X66490160Y-75553062D01*
X66485283Y-75539433D01*
X66481766Y-75525392D01*
X66479642Y-75511074D01*
X66478932Y-75496616D01*
X66479642Y-75482158D01*
X66481766Y-75467840D01*
X66485283Y-75453799D01*
X66490160Y-75440170D01*
X66496349Y-75427085D01*
X66503790Y-75414669D01*
X66512413Y-75403043D01*
X66522134Y-75392318D01*
X66730730Y-75183722D01*
X66741455Y-75174001D01*
X66753081Y-75165378D01*
X66765497Y-75157937D01*
X66778582Y-75151748D01*
X66792211Y-75146871D01*
X66806252Y-75143354D01*
X66820570Y-75141230D01*
X66835028Y-75140520D01*
X66849486Y-75141230D01*
X66849486Y-75141230D01*
G37*
D15*
X66852706Y-75514294D03*
D19*
X73600000Y-66000000D03*
X74400000Y-66000000D03*
X72775000Y-69450000D03*
X68950000Y-69075000D03*
X69675000Y-86100000D03*
X65925000Y-68899998D03*
X78130400Y-81737192D03*
X76581000Y-83540600D03*
X76400000Y-84840900D03*
X77622400Y-84937600D03*
X76800000Y-66000000D03*
X74464799Y-72264808D03*
X75868189Y-72218370D03*
X72974200Y-73380600D03*
X71200000Y-66000000D03*
X69600000Y-66000000D03*
X65225002Y-66675000D03*
X65950002Y-65900000D03*
X65100000Y-65025000D03*
X64375000Y-65775000D03*
X70400000Y-66000000D03*
X64236600Y-79730600D03*
X76377800Y-80848200D03*
X67233800Y-82981800D03*
X69260941Y-79757258D03*
X67810090Y-81762600D03*
X79857600Y-77851000D03*
X81254600Y-77266800D03*
X75160110Y-72239899D03*
X75773503Y-73466914D03*
X70764400Y-73482200D03*
X68800000Y-66000000D03*
D20*
X68427600Y-75920600D03*
D19*
X70385196Y-72185196D03*
X73634600Y-72262998D03*
X77600000Y-66000000D03*
X76000000Y-66000000D03*
X75200000Y-66000000D03*
X72800000Y-66000000D03*
X72000000Y-66000000D03*
X80000000Y-66000000D03*
X79200000Y-66000000D03*
X78400000Y-66000000D03*
X73758098Y-69849098D03*
X77600042Y-72500000D03*
X71200000Y-72200000D03*
X79900000Y-72500000D03*
X79100000Y-72500000D03*
X72375000Y-87025000D03*
X65303400Y-79400400D03*
X67784690Y-80060800D03*
X78288917Y-72493330D03*
X75260200Y-82067400D03*
X74980800Y-83261200D03*
X75692000Y-81483200D03*
X75438000Y-83947000D03*
D21*
X69519392Y-70855278D02*
X69623907Y-70855278D01*
X67847057Y-69182943D02*
X69519392Y-70855278D01*
X77678000Y-85820000D02*
X77670000Y-85828000D01*
X79524000Y-85820000D02*
X77678000Y-85820000D01*
X79199000Y-85495000D02*
X79524000Y-85820000D01*
X79199000Y-84320000D02*
X79199000Y-85495000D01*
X80328841Y-76057053D02*
X80385894Y-76114106D01*
X78800000Y-76114106D02*
X78742947Y-76057053D01*
X80385894Y-76114106D02*
X78800000Y-76114106D01*
X78691000Y-81764000D02*
X78986000Y-81764000D01*
X78670000Y-81743000D02*
X78691000Y-81764000D01*
X78660500Y-80494000D02*
X78670000Y-80503500D01*
X78670000Y-80503500D02*
X78670000Y-81743000D01*
X78219795Y-76057053D02*
X77331371Y-75168629D01*
X78742947Y-76057053D02*
X78219795Y-76057053D01*
X72000000Y-68705888D02*
X72005888Y-68705888D01*
X71886648Y-68592536D02*
X72000000Y-68705888D01*
X69706370Y-68675000D02*
X70755277Y-69723907D01*
X69450000Y-68675000D02*
X69706370Y-68675000D01*
X79849000Y-86145000D02*
X79849000Y-87320000D01*
X79524000Y-85820000D02*
X79849000Y-86145000D01*
X80385894Y-76114106D02*
X80385894Y-76064106D01*
X71886648Y-68592536D02*
X71917536Y-68592536D01*
X71917536Y-68592536D02*
X72775000Y-69450000D01*
X69450000Y-68675000D02*
X69350000Y-68675000D01*
X69350000Y-68675000D02*
X68950000Y-69075000D01*
X69690000Y-86085000D02*
X69675000Y-86100000D01*
X69690000Y-85255000D02*
X69690000Y-86085000D01*
X65925000Y-68975000D02*
X65925000Y-68899998D01*
X66998529Y-70031472D02*
X66981472Y-70031472D01*
X66981472Y-70031472D02*
X65925000Y-68975000D01*
X78157208Y-81764000D02*
X78130400Y-81737192D01*
X78986000Y-81764000D02*
X78157208Y-81764000D01*
X80514106Y-76242318D02*
X80385894Y-76114106D01*
X80514106Y-78515294D02*
X80514106Y-76242318D01*
X78660500Y-80494000D02*
X78660500Y-80368900D01*
X78660500Y-80368900D02*
X80514106Y-78515294D01*
X76555600Y-82730200D02*
X76555600Y-83515200D01*
X76555600Y-83515200D02*
X76581000Y-83540600D01*
X77670000Y-84985200D02*
X77622400Y-84937600D01*
X77670000Y-85828000D02*
X77670000Y-84985200D01*
X76860400Y-85699600D02*
X77622400Y-84937600D01*
X76860400Y-86408400D02*
X76860400Y-85699600D01*
X76400000Y-85169400D02*
X76400000Y-84840900D01*
X75260200Y-85598000D02*
X75971400Y-85598000D01*
X75971400Y-85598000D02*
X76400000Y-85169400D01*
X79199000Y-83691000D02*
X79199000Y-84320000D01*
X78986000Y-81764000D02*
X79199000Y-81977000D01*
X79199000Y-81977000D02*
X79199000Y-83691000D01*
X77262910Y-68660996D02*
X76765685Y-69158221D01*
X76800000Y-66000000D02*
X77262910Y-66462910D01*
X77262910Y-66462910D02*
X77262910Y-68660996D01*
X69690000Y-83010000D02*
X69690000Y-83985000D01*
X69690000Y-82415000D02*
X69690000Y-83985000D01*
X69690000Y-81770200D02*
X69690000Y-82415000D01*
X70870000Y-79900000D02*
X70870000Y-80590200D01*
X70870000Y-80590200D02*
X69690000Y-81770200D01*
X63700000Y-81800000D02*
X64315000Y-82415000D01*
X63700000Y-67300000D02*
X63700000Y-81800000D01*
X76800000Y-65575736D02*
X76024264Y-64800000D01*
X76800000Y-66000000D02*
X76800000Y-65575736D01*
X76024264Y-64800000D02*
X66219554Y-64800000D01*
X64315000Y-82415000D02*
X69690000Y-82415000D01*
X66219554Y-64800000D02*
X64300000Y-66719554D01*
X64300000Y-66719554D02*
X64280446Y-66719554D01*
X64280446Y-66719554D02*
X63700000Y-67300000D01*
X71620399Y-77697620D02*
X72452334Y-76865685D01*
X70960000Y-85255000D02*
X71620399Y-84594601D01*
X71620399Y-84594601D02*
X71620399Y-77697620D01*
X74464799Y-72689072D02*
X74464799Y-72264808D01*
X74464799Y-74853221D02*
X74464799Y-72689072D01*
X72452334Y-76865685D02*
X72452335Y-76865685D01*
X72452335Y-76865685D02*
X74464799Y-74853221D01*
X74432234Y-76794976D02*
X74432234Y-76215166D01*
X75068629Y-77431371D02*
X74432234Y-76794976D01*
X75196689Y-73314134D02*
X75868189Y-72642634D01*
X75196689Y-75450711D02*
X75196689Y-73314134D01*
X74432234Y-76215166D02*
X75196689Y-75450711D01*
X75868189Y-72642634D02*
X75868189Y-72218370D01*
X75568190Y-71918371D02*
X75868189Y-72218370D01*
X75049220Y-71399400D02*
X75568190Y-71918371D01*
X73431400Y-71399400D02*
X75049220Y-71399400D01*
X72974200Y-73380600D02*
X72974200Y-71856600D01*
X72974200Y-71856600D02*
X73431400Y-71399400D01*
D22*
X70960000Y-83985000D02*
X70350000Y-84595000D01*
X70350000Y-84595000D02*
X70350000Y-85631028D01*
D21*
X72644000Y-82677000D02*
X72796400Y-82829400D01*
X72644000Y-79095600D02*
X72644000Y-82677000D01*
X75068629Y-77431371D02*
X74308229Y-77431371D01*
X74308229Y-77431371D02*
X72644000Y-79095600D01*
D22*
X70350000Y-85631028D02*
X70743972Y-86025000D01*
X70743972Y-86025000D02*
X71400000Y-86025000D01*
X71400000Y-86025000D02*
X71590000Y-85835000D01*
X71590000Y-85835000D02*
X71590000Y-85030000D01*
X71590000Y-85030000D02*
X71987200Y-84632800D01*
X72644000Y-84632800D02*
X72796400Y-84480400D01*
X71987200Y-84632800D02*
X72644000Y-84632800D01*
X72796400Y-84480400D02*
X72796400Y-82829400D01*
D21*
X79956000Y-80773500D02*
X80235500Y-80494000D01*
X79956000Y-81764000D02*
X79956000Y-80773500D01*
X75223950Y-76455321D02*
X75634314Y-76865685D01*
X77212500Y-78443871D02*
X75634314Y-76865685D01*
X77212500Y-78500000D02*
X77212500Y-78443871D01*
X65188400Y-81103600D02*
X65188400Y-80682400D01*
X65188400Y-80682400D02*
X64236600Y-79730600D01*
X76555600Y-81026000D02*
X76555600Y-81760200D01*
X76377800Y-80848200D02*
X76555600Y-81026000D01*
X80499000Y-83470600D02*
X80499000Y-84320000D01*
X80035600Y-83007200D02*
X80499000Y-83470600D01*
X73018629Y-77431371D02*
X73018019Y-77431371D01*
X72230000Y-83985000D02*
X72150000Y-83905000D01*
X72150000Y-78299390D02*
X73018019Y-77431371D01*
X72150000Y-83905000D02*
X72150000Y-78299390D01*
X73018019Y-77431371D02*
X73654414Y-76794976D01*
X74853778Y-72970495D02*
X75160110Y-72664163D01*
X74853778Y-75158622D02*
X74853778Y-72970495D01*
X73654414Y-76357986D02*
X74853778Y-75158622D01*
X75160110Y-72664163D02*
X75160110Y-72239899D01*
X73654414Y-76794976D02*
X73654414Y-76357986D01*
X69850000Y-74811968D02*
X69850000Y-75184000D01*
X75355553Y-70942200D02*
X73126600Y-70942200D01*
X70432592Y-74602944D02*
X70189592Y-74602944D01*
X76384090Y-72856327D02*
X76384090Y-71970737D01*
X72313800Y-72721736D02*
X70432592Y-74602944D01*
X72313800Y-71755000D02*
X72313800Y-72721736D01*
X76384090Y-71970737D02*
X75355553Y-70942200D01*
X73126600Y-70942200D02*
X72313800Y-71755000D01*
X75773503Y-73466914D02*
X76384090Y-72856327D01*
X75068629Y-67461165D02*
X74432234Y-68097560D01*
X71755000Y-72491600D02*
X71064399Y-73182201D01*
X71755000Y-71348600D02*
X71755000Y-72491600D01*
X74432234Y-68097560D02*
X74432234Y-69905596D01*
X72694800Y-70408800D02*
X71755000Y-71348600D01*
X74432234Y-69905596D02*
X73929030Y-70408800D01*
X71064399Y-73182201D02*
X70764400Y-73482200D01*
X73929030Y-70408800D02*
X72694800Y-70408800D01*
X70003306Y-75920600D02*
X70755277Y-75168629D01*
X68427600Y-75920600D02*
X70003306Y-75920600D01*
X70364804Y-72185196D02*
X70385196Y-72185196D01*
X69058221Y-73471573D02*
X69078427Y-73471573D01*
X69078427Y-73471573D02*
X70364804Y-72185196D01*
X68895427Y-73471573D02*
X67538600Y-74828400D01*
X69058221Y-73471573D02*
X68895427Y-73471573D01*
X69991678Y-77063600D02*
X69392800Y-77063600D01*
X71320963Y-75734315D02*
X69991678Y-77063600D01*
X71800000Y-76300000D02*
X71886648Y-76300000D01*
X71886648Y-76300000D02*
X73634600Y-74552048D01*
X73634600Y-74552048D02*
X73634600Y-72687262D01*
X73634600Y-72687262D02*
X73634600Y-72262998D01*
X70434200Y-77752448D02*
X70434200Y-77952600D01*
X71886648Y-76300000D02*
X70434200Y-77752448D01*
X77899999Y-69155279D02*
X77331371Y-69723907D01*
X77600000Y-66000000D02*
X77899999Y-66299999D01*
X77899999Y-66299999D02*
X77899999Y-69155279D01*
X76299999Y-66299999D02*
X76000000Y-66000000D01*
X76733400Y-66733400D02*
X76299999Y-66299999D01*
X76200000Y-68592536D02*
X76733400Y-68059136D01*
X76733400Y-68059136D02*
X76733400Y-66733400D01*
X76200000Y-67000000D02*
X75200000Y-66000000D01*
X75634314Y-68026851D02*
X76200000Y-67461165D01*
X76200000Y-67461165D02*
X76200000Y-67000000D01*
X72810000Y-67253146D02*
X73018019Y-67461165D01*
X72800000Y-66000000D02*
X72810000Y-66010000D01*
X72810000Y-66010000D02*
X72810000Y-67253146D01*
X72000000Y-67574517D02*
X72452334Y-68026851D01*
X72000000Y-66000000D02*
X72000000Y-67574517D01*
X79028427Y-71401573D02*
X79028427Y-71420963D01*
X80000000Y-66000000D02*
X80000000Y-70430000D01*
X80000000Y-70430000D02*
X79028427Y-71401573D01*
X79200000Y-70118019D02*
X78462741Y-70855278D01*
X79200000Y-66000000D02*
X79200000Y-70118019D01*
X78470000Y-69716648D02*
X77897056Y-70289592D01*
X78400000Y-66000000D02*
X78470000Y-66070000D01*
X78470000Y-66070000D02*
X78470000Y-69716648D01*
X76200000Y-76300000D02*
X75539600Y-75639600D01*
X75539600Y-75639600D02*
X75539600Y-74560442D01*
X75539600Y-74560442D02*
X77325000Y-72775042D01*
X77325000Y-72775042D02*
X77600042Y-72500000D01*
X70900001Y-72499999D02*
X71200000Y-72200000D01*
X69623907Y-73776093D02*
X70900001Y-72499999D01*
X69623907Y-74037258D02*
X69623907Y-73776093D01*
X79203083Y-74777600D02*
X78462741Y-74037258D01*
X79922400Y-74777600D02*
X79203083Y-74777600D01*
X80600000Y-74100000D02*
X79922400Y-74777600D01*
X79900000Y-72500000D02*
X80600000Y-73200000D01*
X80600000Y-73200000D02*
X80600000Y-74100000D01*
X79100000Y-73400000D02*
X79028427Y-73471573D01*
X79100000Y-72500000D02*
X79100000Y-73400000D01*
X78574401Y-87847401D02*
X78549000Y-87822000D01*
X78549000Y-87822000D02*
X78549000Y-87320000D01*
X80499000Y-87822000D02*
X80473599Y-87847401D01*
X80499000Y-87320000D02*
X80499000Y-87822000D01*
X78807000Y-88080000D02*
X78574401Y-87847401D01*
X80473599Y-87847401D02*
X80241000Y-88080000D01*
X80241000Y-88080000D02*
X78807000Y-88080000D01*
X72499000Y-87149000D02*
X72375000Y-87025000D01*
X76918800Y-87320000D02*
X76860400Y-87378400D01*
X78549000Y-87320000D02*
X76918800Y-87320000D01*
X75465600Y-87378400D02*
X75260200Y-87173000D01*
X76860400Y-87378400D02*
X75465600Y-87378400D01*
X72523000Y-87173000D02*
X72375000Y-87025000D01*
X75260200Y-87173000D02*
X72523000Y-87173000D01*
X78787500Y-77712500D02*
X78787500Y-78500000D01*
X79700000Y-76800000D02*
X78787500Y-77712500D01*
X78549000Y-83120000D02*
X78635000Y-83034000D01*
X78549000Y-83095600D02*
X78549000Y-84320000D01*
X78460600Y-83007200D02*
X78549000Y-83095600D01*
X77774317Y-76742947D02*
X76765685Y-75734315D01*
X78057053Y-76742947D02*
X77774317Y-76742947D01*
X65303400Y-78218600D02*
X65188400Y-78103600D01*
X65303400Y-79400400D02*
X65303400Y-78218600D01*
X69206996Y-78638494D02*
X68084689Y-79760801D01*
X69748306Y-78638494D02*
X69206996Y-78638494D01*
X68084689Y-79760801D02*
X67784690Y-80060800D01*
X66852706Y-77939294D02*
X66688400Y-78103600D01*
X66852706Y-75514294D02*
X66852706Y-77939294D01*
X66688400Y-80072800D02*
X66688400Y-81103600D01*
X68706906Y-77749494D02*
X68706906Y-78054294D01*
X68706906Y-78054294D02*
X66688400Y-80072800D01*
X66150000Y-70880000D02*
X66995000Y-71725000D01*
X68754184Y-71725000D02*
X69058221Y-71420963D01*
X66995000Y-71725000D02*
X68754184Y-71725000D01*
X78288917Y-72574617D02*
X78288917Y-72493330D01*
X77317600Y-73545934D02*
X78288917Y-72574617D01*
X77897056Y-74602944D02*
X77317600Y-74023488D01*
X77317600Y-74023488D02*
X77317600Y-73545934D01*
X75260200Y-82067400D02*
X75260200Y-82981800D01*
X75260200Y-82981800D02*
X74980800Y-83261200D01*
X75737999Y-83647001D02*
X75438000Y-83947000D01*
X75819000Y-83566000D02*
X75737999Y-83647001D01*
X75692000Y-81483200D02*
X75819000Y-81610200D01*
X75819000Y-81610200D02*
X75819000Y-83566000D01*
G36*
X82530084Y-90377010D02*
G01*
X81197282Y-91709813D01*
X65316969Y-91733621D01*
X64894687Y-91674156D01*
X64499171Y-91536301D01*
X64137964Y-91324250D01*
X63824823Y-91046078D01*
X63571678Y-90712382D01*
X63388168Y-90335870D01*
X63279715Y-89924936D01*
X63255756Y-89700454D01*
X63255537Y-88866643D01*
X64646000Y-88866643D01*
X64646000Y-89133357D01*
X64698034Y-89394947D01*
X64800101Y-89641359D01*
X64948280Y-89863124D01*
X65136876Y-90051720D01*
X65358641Y-90199899D01*
X65605053Y-90301966D01*
X65866643Y-90354000D01*
X66133357Y-90354000D01*
X66394947Y-90301966D01*
X66641359Y-90199899D01*
X66863124Y-90051720D01*
X67051720Y-89863124D01*
X67199899Y-89641359D01*
X67301966Y-89394947D01*
X67354000Y-89133357D01*
X67354000Y-88866643D01*
X67301966Y-88605053D01*
X67199899Y-88358641D01*
X67051720Y-88136876D01*
X66863124Y-87948280D01*
X66641359Y-87800101D01*
X66394947Y-87698034D01*
X66133357Y-87646000D01*
X65866643Y-87646000D01*
X65605053Y-87698034D01*
X65358641Y-87800101D01*
X65136876Y-87948280D01*
X64948280Y-88136876D01*
X64800101Y-88358641D01*
X64698034Y-88605053D01*
X64646000Y-88866643D01*
X63255537Y-88866643D01*
X63249868Y-67300000D01*
X63317157Y-67300000D01*
X63319000Y-67318710D01*
X63319001Y-81781280D01*
X63317157Y-81800000D01*
X63324514Y-81874688D01*
X63346299Y-81946507D01*
X63381678Y-82012696D01*
X63403687Y-82039513D01*
X63429290Y-82070711D01*
X63443827Y-82082641D01*
X64032359Y-82671174D01*
X64044289Y-82685711D01*
X64070474Y-82707200D01*
X64102303Y-82733322D01*
X64113467Y-82739289D01*
X64168492Y-82768701D01*
X64240311Y-82790487D01*
X64296287Y-82796000D01*
X64296296Y-82796000D01*
X64314999Y-82797842D01*
X64333702Y-82796000D01*
X69309000Y-82796000D01*
X69309000Y-83460594D01*
X69277115Y-83481899D01*
X69186899Y-83572115D01*
X69169300Y-83598454D01*
X69169300Y-83530200D01*
X69140505Y-83385437D01*
X69084021Y-83249073D01*
X69002020Y-83126349D01*
X68897651Y-83021980D01*
X68774927Y-82939979D01*
X68638563Y-82883495D01*
X68493800Y-82854700D01*
X68346200Y-82854700D01*
X68201437Y-82883495D01*
X68065073Y-82939979D01*
X67942349Y-83021980D01*
X67837980Y-83126349D01*
X67755979Y-83249073D01*
X67699495Y-83385437D01*
X67670700Y-83530200D01*
X67670700Y-83677800D01*
X67699495Y-83822563D01*
X67755979Y-83958927D01*
X67837980Y-84081651D01*
X67942349Y-84186020D01*
X68065073Y-84268021D01*
X68201437Y-84324505D01*
X68346200Y-84353300D01*
X68493800Y-84353300D01*
X68638563Y-84324505D01*
X68774927Y-84268021D01*
X68897651Y-84186020D01*
X69002020Y-84081651D01*
X69042300Y-84021367D01*
X69042300Y-84048793D01*
X69067191Y-84173927D01*
X69116016Y-84291801D01*
X69186899Y-84397885D01*
X69277115Y-84488101D01*
X69383199Y-84558984D01*
X69501073Y-84607809D01*
X69562361Y-84620000D01*
X69501073Y-84632191D01*
X69383199Y-84681016D01*
X69277115Y-84751899D01*
X69186899Y-84842115D01*
X69116016Y-84948199D01*
X69067191Y-85066073D01*
X69042300Y-85191207D01*
X69042300Y-85218633D01*
X69002020Y-85158349D01*
X68897651Y-85053980D01*
X68774927Y-84971979D01*
X68638563Y-84915495D01*
X68493800Y-84886700D01*
X68346200Y-84886700D01*
X68201437Y-84915495D01*
X68065073Y-84971979D01*
X67942349Y-85053980D01*
X67837980Y-85158349D01*
X67755979Y-85281073D01*
X67699495Y-85417437D01*
X67670700Y-85562200D01*
X67670700Y-85709800D01*
X67699495Y-85854563D01*
X67755979Y-85990927D01*
X67837980Y-86113651D01*
X67942349Y-86218020D01*
X68065073Y-86300021D01*
X68201437Y-86356505D01*
X68346200Y-86385300D01*
X68493800Y-86385300D01*
X68638563Y-86356505D01*
X68774927Y-86300021D01*
X68897651Y-86218020D01*
X69002020Y-86113651D01*
X69084021Y-85990927D01*
X69140505Y-85854563D01*
X69169300Y-85709800D01*
X69169300Y-85641546D01*
X69186899Y-85667885D01*
X69255270Y-85736256D01*
X69244680Y-85746845D01*
X69184051Y-85837582D01*
X69142289Y-85938404D01*
X69121000Y-86045436D01*
X69121000Y-86154564D01*
X69142289Y-86261596D01*
X69184051Y-86362418D01*
X69244680Y-86453155D01*
X69321845Y-86530320D01*
X69412582Y-86590949D01*
X69513404Y-86632711D01*
X69620436Y-86654000D01*
X69729564Y-86654000D01*
X69836596Y-86632711D01*
X69937418Y-86590949D01*
X70028155Y-86530320D01*
X70105320Y-86453155D01*
X70165949Y-86362418D01*
X70207711Y-86261596D01*
X70229000Y-86154564D01*
X70229000Y-86045436D01*
X70207711Y-85938404D01*
X70207249Y-85937290D01*
X70508435Y-86238476D01*
X70518379Y-86250593D01*
X70556187Y-86281621D01*
X70566725Y-86290269D01*
X70621882Y-86319751D01*
X70681731Y-86337906D01*
X70743972Y-86344037D01*
X70759575Y-86342500D01*
X71384404Y-86342500D01*
X71400000Y-86344036D01*
X71415596Y-86342500D01*
X71462241Y-86337906D01*
X71522090Y-86319751D01*
X71577247Y-86290269D01*
X71625593Y-86250593D01*
X71635542Y-86238470D01*
X71728262Y-86145750D01*
X71729768Y-86159576D01*
X71915854Y-86239785D01*
X72114012Y-86282149D01*
X72316628Y-86285041D01*
X72515914Y-86248349D01*
X72704213Y-86173483D01*
X72730232Y-86159576D01*
X72752312Y-85956917D01*
X72230000Y-85434605D01*
X72215858Y-85448748D01*
X72036253Y-85269143D01*
X72050395Y-85255000D01*
X72036253Y-85240858D01*
X72215858Y-85061253D01*
X72230000Y-85075395D01*
X72244143Y-85061253D01*
X72423748Y-85240858D01*
X72409605Y-85255000D01*
X72931917Y-85777312D01*
X73134576Y-85755232D01*
X73214785Y-85569146D01*
X73257149Y-85370988D01*
X73257724Y-85330683D01*
X73281437Y-85340505D01*
X73426200Y-85369300D01*
X73573800Y-85369300D01*
X73718563Y-85340505D01*
X73854927Y-85284021D01*
X73977651Y-85202020D01*
X74082020Y-85097651D01*
X74164021Y-84974927D01*
X74220505Y-84838563D01*
X74249300Y-84693800D01*
X74249300Y-84546200D01*
X74220505Y-84401437D01*
X74164021Y-84265073D01*
X74082020Y-84142349D01*
X73977651Y-84037980D01*
X73854927Y-83955979D01*
X73718563Y-83899495D01*
X73573800Y-83870700D01*
X73426200Y-83870700D01*
X73281437Y-83899495D01*
X73145073Y-83955979D01*
X73113900Y-83976808D01*
X73113900Y-83206636D01*
X74426800Y-83206636D01*
X74426800Y-83315764D01*
X74448089Y-83422796D01*
X74489851Y-83523618D01*
X74550480Y-83614355D01*
X74627645Y-83691520D01*
X74718382Y-83752149D01*
X74819204Y-83793911D01*
X74900385Y-83810058D01*
X74884000Y-83892436D01*
X74884000Y-84001564D01*
X74905289Y-84108596D01*
X74947051Y-84209418D01*
X75007680Y-84300155D01*
X75084845Y-84377320D01*
X75175582Y-84437949D01*
X75276404Y-84479711D01*
X75383436Y-84501000D01*
X75492564Y-84501000D01*
X75599596Y-84479711D01*
X75700418Y-84437949D01*
X75791155Y-84377320D01*
X75868320Y-84300155D01*
X75928949Y-84209418D01*
X75970711Y-84108596D01*
X75992000Y-84001564D01*
X75992000Y-83931816D01*
X76020639Y-83903177D01*
X76020648Y-83903166D01*
X76075168Y-83848646D01*
X76089711Y-83836711D01*
X76102308Y-83821361D01*
X76150680Y-83893755D01*
X76227845Y-83970920D01*
X76318582Y-84031549D01*
X76419404Y-84073311D01*
X76526436Y-84094600D01*
X76635564Y-84094600D01*
X76742596Y-84073311D01*
X76843418Y-84031549D01*
X76934155Y-83970920D01*
X77011320Y-83893755D01*
X77071949Y-83803018D01*
X77113711Y-83702196D01*
X77135000Y-83595164D01*
X77135000Y-83486036D01*
X77113711Y-83379004D01*
X77071949Y-83278182D01*
X77011320Y-83187445D01*
X76998303Y-83174428D01*
X77012872Y-83162472D01*
X77062956Y-83101444D01*
X77100172Y-83031817D01*
X77123090Y-82956268D01*
X77130828Y-82877700D01*
X77130828Y-82638797D01*
X77230094Y-82585737D01*
X77326785Y-82506385D01*
X77406137Y-82409694D01*
X77465102Y-82299380D01*
X77501412Y-82179682D01*
X77513672Y-82055200D01*
X77510600Y-82045950D01*
X77351850Y-81887200D01*
X76682600Y-81887200D01*
X76682600Y-81907200D01*
X76428600Y-81907200D01*
X76428600Y-81887200D01*
X76408600Y-81887200D01*
X76408600Y-81633200D01*
X76428600Y-81633200D01*
X76428600Y-80988950D01*
X76682600Y-80988950D01*
X76682600Y-81633200D01*
X77351850Y-81633200D01*
X77510600Y-81474450D01*
X77513672Y-81465200D01*
X77501412Y-81340718D01*
X77465102Y-81221020D01*
X77406137Y-81110706D01*
X77326785Y-81014015D01*
X77230094Y-80934663D01*
X77119780Y-80875698D01*
X77000082Y-80839388D01*
X76875600Y-80827128D01*
X76841350Y-80830200D01*
X76682600Y-80988950D01*
X76428600Y-80988950D01*
X76269850Y-80830200D01*
X76235600Y-80827128D01*
X76111118Y-80839388D01*
X75991420Y-80875698D01*
X75881106Y-80934663D01*
X75859063Y-80952753D01*
X75853596Y-80950489D01*
X75746564Y-80929200D01*
X75637436Y-80929200D01*
X75530404Y-80950489D01*
X75429582Y-80992251D01*
X75338845Y-81052880D01*
X75261680Y-81130045D01*
X75201051Y-81220782D01*
X75159289Y-81321604D01*
X75138000Y-81428636D01*
X75138000Y-81526853D01*
X75098604Y-81534689D01*
X74997782Y-81576451D01*
X74907045Y-81637080D01*
X74829880Y-81714245D01*
X74769251Y-81804982D01*
X74727489Y-81905804D01*
X74706200Y-82012836D01*
X74706200Y-82121964D01*
X74727489Y-82228996D01*
X74769251Y-82329818D01*
X74829880Y-82420555D01*
X74879200Y-82469875D01*
X74879201Y-82716555D01*
X74819204Y-82728489D01*
X74718382Y-82770251D01*
X74627645Y-82830880D01*
X74550480Y-82908045D01*
X74489851Y-82998782D01*
X74448089Y-83099604D01*
X74426800Y-83206636D01*
X73113900Y-83206636D01*
X73113900Y-83043098D01*
X73114722Y-83042096D01*
X73150101Y-82975907D01*
X73171886Y-82904088D01*
X73179243Y-82829399D01*
X73171886Y-82754711D01*
X73150101Y-82682892D01*
X73114722Y-82616704D01*
X73079039Y-82573225D01*
X73025000Y-82519186D01*
X73025000Y-79253414D01*
X73303414Y-78975000D01*
X76136928Y-78975000D01*
X76149188Y-79099482D01*
X76185498Y-79219180D01*
X76244463Y-79329494D01*
X76323815Y-79426185D01*
X76420506Y-79505537D01*
X76530820Y-79564502D01*
X76650518Y-79600812D01*
X76775000Y-79613072D01*
X76926750Y-79610000D01*
X77085500Y-79451250D01*
X77085500Y-78627000D01*
X76298750Y-78627000D01*
X76140000Y-78785750D01*
X76136928Y-78975000D01*
X73303414Y-78975000D01*
X74466044Y-77812371D01*
X74699774Y-77812371D01*
X75259387Y-78371984D01*
X75298063Y-78403725D01*
X75342188Y-78427311D01*
X75390067Y-78441835D01*
X75439860Y-78446739D01*
X75489653Y-78441835D01*
X75537532Y-78427311D01*
X75581657Y-78403725D01*
X75620333Y-78371984D01*
X75773541Y-78218776D01*
X75878055Y-78251030D01*
X76002476Y-78263890D01*
X76127015Y-78252227D01*
X76166274Y-78240524D01*
X76298750Y-78373000D01*
X77085500Y-78373000D01*
X77085500Y-77548750D01*
X76991986Y-77455236D01*
X77020856Y-77358386D01*
X77032519Y-77233847D01*
X77019659Y-77109426D01*
X76987405Y-77004912D01*
X77140613Y-76851704D01*
X77172354Y-76813028D01*
X77195940Y-76768903D01*
X77204935Y-76739250D01*
X77225551Y-76732996D01*
X77491676Y-76999121D01*
X77503606Y-77013658D01*
X77518141Y-77025586D01*
X77561620Y-77061269D01*
X77627809Y-77096648D01*
X77634706Y-77098740D01*
X77789959Y-77253993D01*
X77850987Y-77304077D01*
X77920614Y-77341293D01*
X77996163Y-77364211D01*
X78074731Y-77371949D01*
X78153299Y-77364211D01*
X78228848Y-77341293D01*
X78298475Y-77304077D01*
X78359503Y-77253993D01*
X78568099Y-77045397D01*
X78618183Y-76984369D01*
X78655399Y-76914742D01*
X78678317Y-76839193D01*
X78686055Y-76760625D01*
X78678317Y-76682057D01*
X78676688Y-76676688D01*
X78682057Y-76678317D01*
X78760625Y-76686055D01*
X78839193Y-76678317D01*
X78914742Y-76655399D01*
X78984369Y-76618183D01*
X79045397Y-76568099D01*
X79118390Y-76495106D01*
X79191398Y-76495106D01*
X79188954Y-76497550D01*
X79138870Y-76558578D01*
X79101654Y-76628205D01*
X79078736Y-76703754D01*
X79070998Y-76782322D01*
X79078736Y-76860890D01*
X79083754Y-76877431D01*
X78531332Y-77429854D01*
X78516789Y-77441789D01*
X78486430Y-77478783D01*
X78469178Y-77499804D01*
X78443016Y-77548750D01*
X78433799Y-77565993D01*
X78412013Y-77637812D01*
X78407966Y-77678907D01*
X78404657Y-77712500D01*
X78406500Y-77731211D01*
X78406500Y-77800047D01*
X78387366Y-77805851D01*
X78305422Y-77849652D01*
X78269360Y-77879247D01*
X78239502Y-77780820D01*
X78180537Y-77670506D01*
X78101185Y-77573815D01*
X78004494Y-77494463D01*
X77894180Y-77435498D01*
X77774482Y-77399188D01*
X77650000Y-77386928D01*
X77498250Y-77390000D01*
X77339500Y-77548750D01*
X77339500Y-78373000D01*
X77359500Y-78373000D01*
X77359500Y-78627000D01*
X77339500Y-78627000D01*
X77339500Y-79451250D01*
X77498250Y-79610000D01*
X77650000Y-79613072D01*
X77774482Y-79600812D01*
X77894180Y-79564502D01*
X78004494Y-79505537D01*
X78101185Y-79426185D01*
X78180537Y-79329494D01*
X78239502Y-79219180D01*
X78269360Y-79120753D01*
X78305422Y-79150348D01*
X78387366Y-79194149D01*
X78476281Y-79221121D01*
X78568750Y-79230228D01*
X79006250Y-79230228D01*
X79098719Y-79221121D01*
X79187634Y-79194149D01*
X79269578Y-79150348D01*
X79341403Y-79091403D01*
X79400348Y-79019578D01*
X79444149Y-78937634D01*
X79471121Y-78848719D01*
X79480228Y-78756250D01*
X79480228Y-78243750D01*
X79471121Y-78151281D01*
X79444149Y-78062366D01*
X79400348Y-77980422D01*
X79341403Y-77908597D01*
X79269578Y-77849652D01*
X79217174Y-77821641D01*
X79622569Y-77416246D01*
X79639110Y-77421264D01*
X79717678Y-77429002D01*
X79796246Y-77421264D01*
X79871795Y-77398346D01*
X79941422Y-77361130D01*
X80002450Y-77311046D01*
X80133107Y-77180389D01*
X80133106Y-78357479D01*
X78726814Y-79763772D01*
X78441750Y-79763772D01*
X78349281Y-79772879D01*
X78260366Y-79799851D01*
X78178422Y-79843652D01*
X78106597Y-79902597D01*
X78047652Y-79974422D01*
X78003851Y-80056366D01*
X77976879Y-80145281D01*
X77967772Y-80237750D01*
X77967772Y-80750250D01*
X77976879Y-80842719D01*
X78003851Y-80931634D01*
X78047652Y-81013578D01*
X78106597Y-81085403D01*
X78178422Y-81144348D01*
X78260366Y-81188149D01*
X78289001Y-81196835D01*
X78289001Y-81203885D01*
X78184964Y-81183192D01*
X78075836Y-81183192D01*
X77968804Y-81204481D01*
X77867982Y-81246243D01*
X77777245Y-81306872D01*
X77700080Y-81384037D01*
X77639451Y-81474774D01*
X77597689Y-81575596D01*
X77576400Y-81682628D01*
X77576400Y-81791756D01*
X77597689Y-81898788D01*
X77639451Y-81999610D01*
X77700080Y-82090347D01*
X77777245Y-82167512D01*
X77867982Y-82228141D01*
X77968804Y-82269903D01*
X78075836Y-82291192D01*
X78132526Y-82291192D01*
X78060466Y-82313051D01*
X77978522Y-82356852D01*
X77906697Y-82415797D01*
X77847752Y-82487622D01*
X77803951Y-82569566D01*
X77776979Y-82658481D01*
X77767872Y-82750950D01*
X77767872Y-83263450D01*
X77776979Y-83355919D01*
X77803951Y-83444834D01*
X77847752Y-83526778D01*
X77906697Y-83598603D01*
X77978522Y-83657548D01*
X78060466Y-83701349D01*
X78149381Y-83728321D01*
X78168001Y-83730155D01*
X78168001Y-83795631D01*
X78161786Y-83803203D01*
X78138200Y-83847328D01*
X78123676Y-83895207D01*
X78118772Y-83945000D01*
X78118772Y-84688274D01*
X78113349Y-84675182D01*
X78052720Y-84584445D01*
X77975555Y-84507280D01*
X77884818Y-84446651D01*
X77783996Y-84404889D01*
X77676964Y-84383600D01*
X77567836Y-84383600D01*
X77460804Y-84404889D01*
X77359982Y-84446651D01*
X77269245Y-84507280D01*
X77192080Y-84584445D01*
X77131451Y-84675182D01*
X77089689Y-84776004D01*
X77068400Y-84883036D01*
X77068400Y-84952785D01*
X76836742Y-85184443D01*
X76890949Y-85103318D01*
X76932711Y-85002496D01*
X76954000Y-84895464D01*
X76954000Y-84786336D01*
X76932711Y-84679304D01*
X76890949Y-84578482D01*
X76830320Y-84487745D01*
X76753155Y-84410580D01*
X76662418Y-84349951D01*
X76561596Y-84308189D01*
X76454564Y-84286900D01*
X76345436Y-84286900D01*
X76238404Y-84308189D01*
X76137582Y-84349951D01*
X76046845Y-84410580D01*
X75969680Y-84487745D01*
X75909051Y-84578482D01*
X75867289Y-84679304D01*
X75846000Y-84786336D01*
X75846000Y-84895464D01*
X75867289Y-85002496D01*
X75909051Y-85103318D01*
X75916348Y-85114238D01*
X75911982Y-85118604D01*
X75910548Y-85115922D01*
X75851603Y-85044097D01*
X75779778Y-84985152D01*
X75697834Y-84941351D01*
X75608919Y-84914379D01*
X75516450Y-84905272D01*
X75003950Y-84905272D01*
X74911481Y-84914379D01*
X74822566Y-84941351D01*
X74740622Y-84985152D01*
X74668797Y-85044097D01*
X74609852Y-85115922D01*
X74566051Y-85197866D01*
X74539079Y-85286781D01*
X74529972Y-85379250D01*
X74529972Y-85816750D01*
X74539079Y-85909219D01*
X74566051Y-85998134D01*
X74609852Y-86080078D01*
X74668797Y-86151903D01*
X74740622Y-86210848D01*
X74822566Y-86254649D01*
X74911481Y-86281621D01*
X75003950Y-86290728D01*
X75516450Y-86290728D01*
X75608919Y-86281621D01*
X75697834Y-86254649D01*
X75779778Y-86210848D01*
X75851603Y-86151903D01*
X75910548Y-86080078D01*
X75954349Y-85998134D01*
X75959937Y-85979714D01*
X75971400Y-85980843D01*
X75990110Y-85979000D01*
X75990113Y-85979000D01*
X76046089Y-85973487D01*
X76117908Y-85951701D01*
X76184096Y-85916322D01*
X76242111Y-85868711D01*
X76254046Y-85854169D01*
X76485616Y-85622599D01*
X76484914Y-85624912D01*
X76477557Y-85699600D01*
X76479401Y-85718320D01*
X76479401Y-85917896D01*
X76464156Y-85926044D01*
X76403128Y-85976128D01*
X76353044Y-86037156D01*
X76315828Y-86106783D01*
X76292910Y-86182332D01*
X76285172Y-86260900D01*
X76285172Y-86555900D01*
X76292910Y-86634468D01*
X76315828Y-86710017D01*
X76353044Y-86779644D01*
X76403128Y-86840672D01*
X76464156Y-86890756D01*
X76469103Y-86893400D01*
X76464156Y-86896044D01*
X76403128Y-86946128D01*
X76361050Y-86997400D01*
X75990428Y-86997400D01*
X75990428Y-86954250D01*
X75981321Y-86861781D01*
X75954349Y-86772866D01*
X75910548Y-86690922D01*
X75851603Y-86619097D01*
X75779778Y-86560152D01*
X75697834Y-86516351D01*
X75608919Y-86489379D01*
X75516450Y-86480272D01*
X75003950Y-86480272D01*
X74911481Y-86489379D01*
X74822566Y-86516351D01*
X74740622Y-86560152D01*
X74668797Y-86619097D01*
X74609852Y-86690922D01*
X74566051Y-86772866D01*
X74560247Y-86792000D01*
X72878134Y-86792000D01*
X72865949Y-86762582D01*
X72805320Y-86671845D01*
X72728155Y-86594680D01*
X72637418Y-86534051D01*
X72536596Y-86492289D01*
X72429564Y-86471000D01*
X72320436Y-86471000D01*
X72213404Y-86492289D01*
X72112582Y-86534051D01*
X72021845Y-86594680D01*
X71944680Y-86671845D01*
X71884051Y-86762582D01*
X71842289Y-86863404D01*
X71821000Y-86970436D01*
X71821000Y-87079564D01*
X71842289Y-87186596D01*
X71884051Y-87287418D01*
X71944680Y-87378155D01*
X72021845Y-87455320D01*
X72112582Y-87515949D01*
X72213404Y-87557711D01*
X72320436Y-87579000D01*
X72429564Y-87579000D01*
X72536596Y-87557711D01*
X72545555Y-87554000D01*
X74560247Y-87554000D01*
X74566051Y-87573134D01*
X74609852Y-87655078D01*
X74668797Y-87726903D01*
X74740622Y-87785848D01*
X74822566Y-87829649D01*
X74911481Y-87856621D01*
X75003950Y-87865728D01*
X75516450Y-87865728D01*
X75608919Y-87856621D01*
X75697834Y-87829649D01*
X75779778Y-87785848D01*
X75812005Y-87759400D01*
X76361050Y-87759400D01*
X76403128Y-87810672D01*
X76464156Y-87860756D01*
X76533783Y-87897972D01*
X76609332Y-87920890D01*
X76687900Y-87928628D01*
X77032900Y-87928628D01*
X77111468Y-87920890D01*
X77187017Y-87897972D01*
X77256644Y-87860756D01*
X77317672Y-87810672D01*
X77367756Y-87749644D01*
X77393756Y-87701000D01*
X78119363Y-87701000D01*
X78123676Y-87744793D01*
X78138200Y-87792672D01*
X78161786Y-87836797D01*
X78168409Y-87844867D01*
X78173513Y-87896688D01*
X78189754Y-87950228D01*
X78195299Y-87968507D01*
X78230678Y-88034696D01*
X78246666Y-88054177D01*
X78278289Y-88092711D01*
X78292832Y-88104646D01*
X78524358Y-88336173D01*
X78536289Y-88350711D01*
X78550824Y-88362639D01*
X78550825Y-88362640D01*
X78594303Y-88398322D01*
X78660492Y-88433701D01*
X78732311Y-88455487D01*
X78788287Y-88461000D01*
X78788290Y-88461000D01*
X78807000Y-88462843D01*
X78825710Y-88461000D01*
X80222290Y-88461000D01*
X80241000Y-88462843D01*
X80259710Y-88461000D01*
X80259713Y-88461000D01*
X80315689Y-88455487D01*
X80387508Y-88433701D01*
X80453696Y-88398322D01*
X80511711Y-88350711D01*
X80523645Y-88336169D01*
X80755174Y-88104641D01*
X80769711Y-88092711D01*
X80817322Y-88034696D01*
X80852701Y-87968508D01*
X80874487Y-87896689D01*
X80879591Y-87844867D01*
X80886214Y-87836797D01*
X80909800Y-87792672D01*
X80924324Y-87744793D01*
X80929228Y-87695000D01*
X80929228Y-86945000D01*
X80924324Y-86895207D01*
X80909800Y-86847328D01*
X80890767Y-86811721D01*
X80904473Y-86800473D01*
X80936214Y-86761797D01*
X80959800Y-86717672D01*
X80974324Y-86669793D01*
X80979228Y-86620000D01*
X80979228Y-85251887D01*
X81040560Y-85217274D01*
X81135407Y-85135726D01*
X81212522Y-85037242D01*
X81268943Y-84925605D01*
X81302500Y-84805107D01*
X81311904Y-84680377D01*
X81309000Y-84605750D01*
X81150250Y-84447000D01*
X80547000Y-84447000D01*
X80547000Y-84467000D01*
X80451000Y-84467000D01*
X80451000Y-84447000D01*
X80352000Y-84447000D01*
X80352000Y-84193000D01*
X80451000Y-84193000D01*
X80451000Y-84173000D01*
X80547000Y-84173000D01*
X80547000Y-84193000D01*
X81150250Y-84193000D01*
X81309000Y-84034250D01*
X81311904Y-83959623D01*
X81302500Y-83834893D01*
X81268943Y-83714395D01*
X81212522Y-83602758D01*
X81135407Y-83504274D01*
X81111060Y-83483341D01*
X81111172Y-83482200D01*
X81108100Y-83292950D01*
X80949350Y-83134200D01*
X80162600Y-83134200D01*
X80162600Y-83154200D01*
X79908600Y-83154200D01*
X79908600Y-83134200D01*
X79888600Y-83134200D01*
X79888600Y-82880200D01*
X79908600Y-82880200D01*
X79908600Y-82055950D01*
X79829000Y-81976350D01*
X79829000Y-81891000D01*
X80083000Y-81891000D01*
X80083000Y-82560250D01*
X80162600Y-82639850D01*
X80162600Y-82880200D01*
X80949350Y-82880200D01*
X81108100Y-82721450D01*
X81111172Y-82532200D01*
X81098912Y-82407718D01*
X81062602Y-82288020D01*
X81003637Y-82177706D01*
X80924285Y-82081015D01*
X80885138Y-82048888D01*
X80727250Y-81891000D01*
X80083000Y-81891000D01*
X79829000Y-81891000D01*
X79809000Y-81891000D01*
X79809000Y-81637000D01*
X79829000Y-81637000D01*
X79829000Y-81617000D01*
X80083000Y-81617000D01*
X80083000Y-81637000D01*
X80727250Y-81637000D01*
X80766374Y-81597876D01*
X80797482Y-81594812D01*
X80917180Y-81558502D01*
X81027494Y-81499537D01*
X81124185Y-81420185D01*
X81203537Y-81323494D01*
X81262502Y-81213180D01*
X81298812Y-81093482D01*
X81311072Y-80969000D01*
X81308000Y-80779750D01*
X81149250Y-80621000D01*
X80362500Y-80621000D01*
X80362500Y-80641000D01*
X80108500Y-80641000D01*
X80108500Y-80621000D01*
X80088500Y-80621000D01*
X80088500Y-80367000D01*
X80108500Y-80367000D01*
X80108500Y-79542750D01*
X80362500Y-79542750D01*
X80362500Y-80367000D01*
X81149250Y-80367000D01*
X81308000Y-80208250D01*
X81311072Y-80019000D01*
X81298812Y-79894518D01*
X81262502Y-79774820D01*
X81203537Y-79664506D01*
X81124185Y-79567815D01*
X81027494Y-79488463D01*
X80917180Y-79429498D01*
X80797482Y-79393188D01*
X80673000Y-79380928D01*
X80521250Y-79384000D01*
X80362500Y-79542750D01*
X80108500Y-79542750D01*
X80066982Y-79501232D01*
X80770281Y-78797934D01*
X80784817Y-78786005D01*
X80809236Y-78756250D01*
X80832428Y-78727991D01*
X80867807Y-78661802D01*
X80878364Y-78627000D01*
X80889593Y-78589983D01*
X80895106Y-78534007D01*
X80895106Y-78534004D01*
X80896949Y-78515294D01*
X80895106Y-78496584D01*
X80895106Y-76418390D01*
X80896940Y-76416556D01*
X80947024Y-76355528D01*
X80984240Y-76285901D01*
X81007158Y-76210352D01*
X81014896Y-76131784D01*
X81007158Y-76053216D01*
X80984240Y-75977667D01*
X80947024Y-75908040D01*
X80896940Y-75847012D01*
X80652988Y-75603060D01*
X80591960Y-75552976D01*
X80522333Y-75515760D01*
X80446784Y-75492842D01*
X80368216Y-75485104D01*
X80289648Y-75492842D01*
X80214099Y-75515760D01*
X80144472Y-75552976D01*
X80083444Y-75603060D01*
X79953398Y-75733106D01*
X79197140Y-75733106D01*
X79010041Y-75546007D01*
X78949013Y-75495923D01*
X78879386Y-75458707D01*
X78803837Y-75435789D01*
X78725269Y-75428051D01*
X78646701Y-75435789D01*
X78571152Y-75458707D01*
X78501525Y-75495923D01*
X78472913Y-75519404D01*
X78837669Y-75154648D01*
X78869410Y-75115972D01*
X78892996Y-75071847D01*
X78901991Y-75042193D01*
X78922296Y-75036034D01*
X78932372Y-75048311D01*
X78956203Y-75067868D01*
X78990386Y-75095922D01*
X79015596Y-75109397D01*
X79056575Y-75131301D01*
X79128394Y-75153087D01*
X79184370Y-75158600D01*
X79184373Y-75158600D01*
X79203083Y-75160443D01*
X79221793Y-75158600D01*
X79903690Y-75158600D01*
X79922400Y-75160443D01*
X79941110Y-75158600D01*
X79941113Y-75158600D01*
X79997089Y-75153087D01*
X80068908Y-75131301D01*
X80135096Y-75095922D01*
X80193111Y-75048311D01*
X80205046Y-75033768D01*
X80856174Y-74382641D01*
X80870711Y-74370711D01*
X80904626Y-74329385D01*
X80918322Y-74312697D01*
X80953701Y-74246508D01*
X80965764Y-74206741D01*
X80975487Y-74174689D01*
X80981000Y-74118713D01*
X80981000Y-74118711D01*
X80982843Y-74100001D01*
X80981000Y-74081291D01*
X80981000Y-73218702D01*
X80982842Y-73199999D01*
X80981000Y-73181296D01*
X80981000Y-73181287D01*
X80975487Y-73125311D01*
X80953701Y-73053492D01*
X80926623Y-73002834D01*
X80918322Y-72987303D01*
X80889170Y-72951782D01*
X80870711Y-72929289D01*
X80856175Y-72917360D01*
X80454000Y-72515186D01*
X80454000Y-72445436D01*
X80432711Y-72338404D01*
X80390949Y-72237582D01*
X80330320Y-72146845D01*
X80253155Y-72069680D01*
X80162418Y-72009051D01*
X80061596Y-71967289D01*
X79954564Y-71946000D01*
X79845436Y-71946000D01*
X79738404Y-71967289D01*
X79637582Y-72009051D01*
X79546845Y-72069680D01*
X79500000Y-72116525D01*
X79453155Y-72069680D01*
X79362418Y-72009051D01*
X79261596Y-71967289D01*
X79236873Y-71962372D01*
X79969040Y-71230205D01*
X80000781Y-71191529D01*
X80024367Y-71147404D01*
X80038891Y-71099525D01*
X80043795Y-71049732D01*
X80038891Y-70999939D01*
X80024367Y-70952060D01*
X80021715Y-70947099D01*
X80256174Y-70712641D01*
X80270711Y-70700711D01*
X80303446Y-70660823D01*
X80318322Y-70642697D01*
X80349542Y-70584290D01*
X80386743Y-70674101D01*
X80452843Y-70773027D01*
X80536973Y-70857157D01*
X80635899Y-70923257D01*
X80745820Y-70968788D01*
X80862511Y-70992000D01*
X80981489Y-70992000D01*
X81098180Y-70968788D01*
X81208101Y-70923257D01*
X81307027Y-70857157D01*
X81391157Y-70773027D01*
X81457257Y-70674101D01*
X81502788Y-70564180D01*
X81526000Y-70447489D01*
X81526000Y-70328511D01*
X81502788Y-70211820D01*
X81457257Y-70101899D01*
X81391157Y-70002973D01*
X81307027Y-69918843D01*
X81208101Y-69852743D01*
X81098180Y-69807212D01*
X80981489Y-69784000D01*
X80862511Y-69784000D01*
X80745820Y-69807212D01*
X80635899Y-69852743D01*
X80536973Y-69918843D01*
X80452843Y-70002973D01*
X80386743Y-70101899D01*
X80381000Y-70115764D01*
X80381000Y-66402475D01*
X80430320Y-66353155D01*
X80490949Y-66262418D01*
X80532711Y-66161596D01*
X80554000Y-66054564D01*
X80554000Y-65945436D01*
X80532711Y-65838404D01*
X80490949Y-65737582D01*
X80430320Y-65646845D01*
X80353155Y-65569680D01*
X80262418Y-65509051D01*
X80161596Y-65467289D01*
X80054564Y-65446000D01*
X79945436Y-65446000D01*
X79838404Y-65467289D01*
X79737582Y-65509051D01*
X79646845Y-65569680D01*
X79600000Y-65616525D01*
X79553155Y-65569680D01*
X79462418Y-65509051D01*
X79361596Y-65467289D01*
X79254564Y-65446000D01*
X79145436Y-65446000D01*
X79038404Y-65467289D01*
X78937582Y-65509051D01*
X78846845Y-65569680D01*
X78800000Y-65616525D01*
X78753155Y-65569680D01*
X78662418Y-65509051D01*
X78561596Y-65467289D01*
X78454564Y-65446000D01*
X78345436Y-65446000D01*
X78238404Y-65467289D01*
X78137582Y-65509051D01*
X78046845Y-65569680D01*
X78000000Y-65616525D01*
X77953155Y-65569680D01*
X77862418Y-65509051D01*
X77761596Y-65467289D01*
X77654564Y-65446000D01*
X77545436Y-65446000D01*
X77438404Y-65467289D01*
X77337582Y-65509051D01*
X77246845Y-65569680D01*
X77200000Y-65616525D01*
X77181000Y-65597525D01*
X77181000Y-65594438D01*
X77182842Y-65575735D01*
X77181000Y-65557032D01*
X77181000Y-65557023D01*
X77175487Y-65501047D01*
X77153701Y-65429228D01*
X77130645Y-65386095D01*
X77118322Y-65363039D01*
X77082639Y-65319560D01*
X77070711Y-65305025D01*
X77056174Y-65293095D01*
X76306910Y-64543832D01*
X76294975Y-64529289D01*
X76236960Y-64481678D01*
X76170772Y-64446299D01*
X76098953Y-64424513D01*
X76042977Y-64419000D01*
X76042974Y-64419000D01*
X76024264Y-64417157D01*
X76005554Y-64419000D01*
X66238256Y-64419000D01*
X66219553Y-64417158D01*
X66200850Y-64419000D01*
X66200841Y-64419000D01*
X66144865Y-64424513D01*
X66073046Y-64446299D01*
X66029913Y-64469355D01*
X66006857Y-64481678D01*
X65977526Y-64505750D01*
X65948843Y-64529289D01*
X65936913Y-64543826D01*
X64093011Y-66387729D01*
X64067749Y-66401232D01*
X64024270Y-66436914D01*
X64024267Y-66436917D01*
X64009735Y-66448843D01*
X63997809Y-66463375D01*
X63443831Y-67017355D01*
X63429289Y-67029289D01*
X63397666Y-67067823D01*
X63381678Y-67087304D01*
X63366210Y-67116243D01*
X63346299Y-67153493D01*
X63324513Y-67225312D01*
X63320072Y-67270407D01*
X63317157Y-67300000D01*
X63249868Y-67300000D01*
X63249073Y-64278718D01*
X82530991Y-64259281D01*
X82530084Y-90377010D01*
X82530084Y-90377010D01*
G37*
X82530084Y-90377010D02*
X81197282Y-91709813D01*
X65316969Y-91733621D01*
X64894687Y-91674156D01*
X64499171Y-91536301D01*
X64137964Y-91324250D01*
X63824823Y-91046078D01*
X63571678Y-90712382D01*
X63388168Y-90335870D01*
X63279715Y-89924936D01*
X63255756Y-89700454D01*
X63255537Y-88866643D01*
X64646000Y-88866643D01*
X64646000Y-89133357D01*
X64698034Y-89394947D01*
X64800101Y-89641359D01*
X64948280Y-89863124D01*
X65136876Y-90051720D01*
X65358641Y-90199899D01*
X65605053Y-90301966D01*
X65866643Y-90354000D01*
X66133357Y-90354000D01*
X66394947Y-90301966D01*
X66641359Y-90199899D01*
X66863124Y-90051720D01*
X67051720Y-89863124D01*
X67199899Y-89641359D01*
X67301966Y-89394947D01*
X67354000Y-89133357D01*
X67354000Y-88866643D01*
X67301966Y-88605053D01*
X67199899Y-88358641D01*
X67051720Y-88136876D01*
X66863124Y-87948280D01*
X66641359Y-87800101D01*
X66394947Y-87698034D01*
X66133357Y-87646000D01*
X65866643Y-87646000D01*
X65605053Y-87698034D01*
X65358641Y-87800101D01*
X65136876Y-87948280D01*
X64948280Y-88136876D01*
X64800101Y-88358641D01*
X64698034Y-88605053D01*
X64646000Y-88866643D01*
X63255537Y-88866643D01*
X63249868Y-67300000D01*
X63317157Y-67300000D01*
X63319000Y-67318710D01*
X63319001Y-81781280D01*
X63317157Y-81800000D01*
X63324514Y-81874688D01*
X63346299Y-81946507D01*
X63381678Y-82012696D01*
X63403687Y-82039513D01*
X63429290Y-82070711D01*
X63443827Y-82082641D01*
X64032359Y-82671174D01*
X64044289Y-82685711D01*
X64070474Y-82707200D01*
X64102303Y-82733322D01*
X64113467Y-82739289D01*
X64168492Y-82768701D01*
X64240311Y-82790487D01*
X64296287Y-82796000D01*
X64296296Y-82796000D01*
X64314999Y-82797842D01*
X64333702Y-82796000D01*
X69309000Y-82796000D01*
X69309000Y-83460594D01*
X69277115Y-83481899D01*
X69186899Y-83572115D01*
X69169300Y-83598454D01*
X69169300Y-83530200D01*
X69140505Y-83385437D01*
X69084021Y-83249073D01*
X69002020Y-83126349D01*
X68897651Y-83021980D01*
X68774927Y-82939979D01*
X68638563Y-82883495D01*
X68493800Y-82854700D01*
X68346200Y-82854700D01*
X68201437Y-82883495D01*
X68065073Y-82939979D01*
X67942349Y-83021980D01*
X67837980Y-83126349D01*
X67755979Y-83249073D01*
X67699495Y-83385437D01*
X67670700Y-83530200D01*
X67670700Y-83677800D01*
X67699495Y-83822563D01*
X67755979Y-83958927D01*
X67837980Y-84081651D01*
X67942349Y-84186020D01*
X68065073Y-84268021D01*
X68201437Y-84324505D01*
X68346200Y-84353300D01*
X68493800Y-84353300D01*
X68638563Y-84324505D01*
X68774927Y-84268021D01*
X68897651Y-84186020D01*
X69002020Y-84081651D01*
X69042300Y-84021367D01*
X69042300Y-84048793D01*
X69067191Y-84173927D01*
X69116016Y-84291801D01*
X69186899Y-84397885D01*
X69277115Y-84488101D01*
X69383199Y-84558984D01*
X69501073Y-84607809D01*
X69562361Y-84620000D01*
X69501073Y-84632191D01*
X69383199Y-84681016D01*
X69277115Y-84751899D01*
X69186899Y-84842115D01*
X69116016Y-84948199D01*
X69067191Y-85066073D01*
X69042300Y-85191207D01*
X69042300Y-85218633D01*
X69002020Y-85158349D01*
X68897651Y-85053980D01*
X68774927Y-84971979D01*
X68638563Y-84915495D01*
X68493800Y-84886700D01*
X68346200Y-84886700D01*
X68201437Y-84915495D01*
X68065073Y-84971979D01*
X67942349Y-85053980D01*
X67837980Y-85158349D01*
X67755979Y-85281073D01*
X67699495Y-85417437D01*
X67670700Y-85562200D01*
X67670700Y-85709800D01*
X67699495Y-85854563D01*
X67755979Y-85990927D01*
X67837980Y-86113651D01*
X67942349Y-86218020D01*
X68065073Y-86300021D01*
X68201437Y-86356505D01*
X68346200Y-86385300D01*
X68493800Y-86385300D01*
X68638563Y-86356505D01*
X68774927Y-86300021D01*
X68897651Y-86218020D01*
X69002020Y-86113651D01*
X69084021Y-85990927D01*
X69140505Y-85854563D01*
X69169300Y-85709800D01*
X69169300Y-85641546D01*
X69186899Y-85667885D01*
X69255270Y-85736256D01*
X69244680Y-85746845D01*
X69184051Y-85837582D01*
X69142289Y-85938404D01*
X69121000Y-86045436D01*
X69121000Y-86154564D01*
X69142289Y-86261596D01*
X69184051Y-86362418D01*
X69244680Y-86453155D01*
X69321845Y-86530320D01*
X69412582Y-86590949D01*
X69513404Y-86632711D01*
X69620436Y-86654000D01*
X69729564Y-86654000D01*
X69836596Y-86632711D01*
X69937418Y-86590949D01*
X70028155Y-86530320D01*
X70105320Y-86453155D01*
X70165949Y-86362418D01*
X70207711Y-86261596D01*
X70229000Y-86154564D01*
X70229000Y-86045436D01*
X70207711Y-85938404D01*
X70207249Y-85937290D01*
X70508435Y-86238476D01*
X70518379Y-86250593D01*
X70556187Y-86281621D01*
X70566725Y-86290269D01*
X70621882Y-86319751D01*
X70681731Y-86337906D01*
X70743972Y-86344037D01*
X70759575Y-86342500D01*
X71384404Y-86342500D01*
X71400000Y-86344036D01*
X71415596Y-86342500D01*
X71462241Y-86337906D01*
X71522090Y-86319751D01*
X71577247Y-86290269D01*
X71625593Y-86250593D01*
X71635542Y-86238470D01*
X71728262Y-86145750D01*
X71729768Y-86159576D01*
X71915854Y-86239785D01*
X72114012Y-86282149D01*
X72316628Y-86285041D01*
X72515914Y-86248349D01*
X72704213Y-86173483D01*
X72730232Y-86159576D01*
X72752312Y-85956917D01*
X72230000Y-85434605D01*
X72215858Y-85448748D01*
X72036253Y-85269143D01*
X72050395Y-85255000D01*
X72036253Y-85240858D01*
X72215858Y-85061253D01*
X72230000Y-85075395D01*
X72244143Y-85061253D01*
X72423748Y-85240858D01*
X72409605Y-85255000D01*
X72931917Y-85777312D01*
X73134576Y-85755232D01*
X73214785Y-85569146D01*
X73257149Y-85370988D01*
X73257724Y-85330683D01*
X73281437Y-85340505D01*
X73426200Y-85369300D01*
X73573800Y-85369300D01*
X73718563Y-85340505D01*
X73854927Y-85284021D01*
X73977651Y-85202020D01*
X74082020Y-85097651D01*
X74164021Y-84974927D01*
X74220505Y-84838563D01*
X74249300Y-84693800D01*
X74249300Y-84546200D01*
X74220505Y-84401437D01*
X74164021Y-84265073D01*
X74082020Y-84142349D01*
X73977651Y-84037980D01*
X73854927Y-83955979D01*
X73718563Y-83899495D01*
X73573800Y-83870700D01*
X73426200Y-83870700D01*
X73281437Y-83899495D01*
X73145073Y-83955979D01*
X73113900Y-83976808D01*
X73113900Y-83206636D01*
X74426800Y-83206636D01*
X74426800Y-83315764D01*
X74448089Y-83422796D01*
X74489851Y-83523618D01*
X74550480Y-83614355D01*
X74627645Y-83691520D01*
X74718382Y-83752149D01*
X74819204Y-83793911D01*
X74900385Y-83810058D01*
X74884000Y-83892436D01*
X74884000Y-84001564D01*
X74905289Y-84108596D01*
X74947051Y-84209418D01*
X75007680Y-84300155D01*
X75084845Y-84377320D01*
X75175582Y-84437949D01*
X75276404Y-84479711D01*
X75383436Y-84501000D01*
X75492564Y-84501000D01*
X75599596Y-84479711D01*
X75700418Y-84437949D01*
X75791155Y-84377320D01*
X75868320Y-84300155D01*
X75928949Y-84209418D01*
X75970711Y-84108596D01*
X75992000Y-84001564D01*
X75992000Y-83931816D01*
X76020639Y-83903177D01*
X76020648Y-83903166D01*
X76075168Y-83848646D01*
X76089711Y-83836711D01*
X76102308Y-83821361D01*
X76150680Y-83893755D01*
X76227845Y-83970920D01*
X76318582Y-84031549D01*
X76419404Y-84073311D01*
X76526436Y-84094600D01*
X76635564Y-84094600D01*
X76742596Y-84073311D01*
X76843418Y-84031549D01*
X76934155Y-83970920D01*
X77011320Y-83893755D01*
X77071949Y-83803018D01*
X77113711Y-83702196D01*
X77135000Y-83595164D01*
X77135000Y-83486036D01*
X77113711Y-83379004D01*
X77071949Y-83278182D01*
X77011320Y-83187445D01*
X76998303Y-83174428D01*
X77012872Y-83162472D01*
X77062956Y-83101444D01*
X77100172Y-83031817D01*
X77123090Y-82956268D01*
X77130828Y-82877700D01*
X77130828Y-82638797D01*
X77230094Y-82585737D01*
X77326785Y-82506385D01*
X77406137Y-82409694D01*
X77465102Y-82299380D01*
X77501412Y-82179682D01*
X77513672Y-82055200D01*
X77510600Y-82045950D01*
X77351850Y-81887200D01*
X76682600Y-81887200D01*
X76682600Y-81907200D01*
X76428600Y-81907200D01*
X76428600Y-81887200D01*
X76408600Y-81887200D01*
X76408600Y-81633200D01*
X76428600Y-81633200D01*
X76428600Y-80988950D01*
X76682600Y-80988950D01*
X76682600Y-81633200D01*
X77351850Y-81633200D01*
X77510600Y-81474450D01*
X77513672Y-81465200D01*
X77501412Y-81340718D01*
X77465102Y-81221020D01*
X77406137Y-81110706D01*
X77326785Y-81014015D01*
X77230094Y-80934663D01*
X77119780Y-80875698D01*
X77000082Y-80839388D01*
X76875600Y-80827128D01*
X76841350Y-80830200D01*
X76682600Y-80988950D01*
X76428600Y-80988950D01*
X76269850Y-80830200D01*
X76235600Y-80827128D01*
X76111118Y-80839388D01*
X75991420Y-80875698D01*
X75881106Y-80934663D01*
X75859063Y-80952753D01*
X75853596Y-80950489D01*
X75746564Y-80929200D01*
X75637436Y-80929200D01*
X75530404Y-80950489D01*
X75429582Y-80992251D01*
X75338845Y-81052880D01*
X75261680Y-81130045D01*
X75201051Y-81220782D01*
X75159289Y-81321604D01*
X75138000Y-81428636D01*
X75138000Y-81526853D01*
X75098604Y-81534689D01*
X74997782Y-81576451D01*
X74907045Y-81637080D01*
X74829880Y-81714245D01*
X74769251Y-81804982D01*
X74727489Y-81905804D01*
X74706200Y-82012836D01*
X74706200Y-82121964D01*
X74727489Y-82228996D01*
X74769251Y-82329818D01*
X74829880Y-82420555D01*
X74879200Y-82469875D01*
X74879201Y-82716555D01*
X74819204Y-82728489D01*
X74718382Y-82770251D01*
X74627645Y-82830880D01*
X74550480Y-82908045D01*
X74489851Y-82998782D01*
X74448089Y-83099604D01*
X74426800Y-83206636D01*
X73113900Y-83206636D01*
X73113900Y-83043098D01*
X73114722Y-83042096D01*
X73150101Y-82975907D01*
X73171886Y-82904088D01*
X73179243Y-82829399D01*
X73171886Y-82754711D01*
X73150101Y-82682892D01*
X73114722Y-82616704D01*
X73079039Y-82573225D01*
X73025000Y-82519186D01*
X73025000Y-79253414D01*
X73303414Y-78975000D01*
X76136928Y-78975000D01*
X76149188Y-79099482D01*
X76185498Y-79219180D01*
X76244463Y-79329494D01*
X76323815Y-79426185D01*
X76420506Y-79505537D01*
X76530820Y-79564502D01*
X76650518Y-79600812D01*
X76775000Y-79613072D01*
X76926750Y-79610000D01*
X77085500Y-79451250D01*
X77085500Y-78627000D01*
X76298750Y-78627000D01*
X76140000Y-78785750D01*
X76136928Y-78975000D01*
X73303414Y-78975000D01*
X74466044Y-77812371D01*
X74699774Y-77812371D01*
X75259387Y-78371984D01*
X75298063Y-78403725D01*
X75342188Y-78427311D01*
X75390067Y-78441835D01*
X75439860Y-78446739D01*
X75489653Y-78441835D01*
X75537532Y-78427311D01*
X75581657Y-78403725D01*
X75620333Y-78371984D01*
X75773541Y-78218776D01*
X75878055Y-78251030D01*
X76002476Y-78263890D01*
X76127015Y-78252227D01*
X76166274Y-78240524D01*
X76298750Y-78373000D01*
X77085500Y-78373000D01*
X77085500Y-77548750D01*
X76991986Y-77455236D01*
X77020856Y-77358386D01*
X77032519Y-77233847D01*
X77019659Y-77109426D01*
X76987405Y-77004912D01*
X77140613Y-76851704D01*
X77172354Y-76813028D01*
X77195940Y-76768903D01*
X77204935Y-76739250D01*
X77225551Y-76732996D01*
X77491676Y-76999121D01*
X77503606Y-77013658D01*
X77518141Y-77025586D01*
X77561620Y-77061269D01*
X77627809Y-77096648D01*
X77634706Y-77098740D01*
X77789959Y-77253993D01*
X77850987Y-77304077D01*
X77920614Y-77341293D01*
X77996163Y-77364211D01*
X78074731Y-77371949D01*
X78153299Y-77364211D01*
X78228848Y-77341293D01*
X78298475Y-77304077D01*
X78359503Y-77253993D01*
X78568099Y-77045397D01*
X78618183Y-76984369D01*
X78655399Y-76914742D01*
X78678317Y-76839193D01*
X78686055Y-76760625D01*
X78678317Y-76682057D01*
X78676688Y-76676688D01*
X78682057Y-76678317D01*
X78760625Y-76686055D01*
X78839193Y-76678317D01*
X78914742Y-76655399D01*
X78984369Y-76618183D01*
X79045397Y-76568099D01*
X79118390Y-76495106D01*
X79191398Y-76495106D01*
X79188954Y-76497550D01*
X79138870Y-76558578D01*
X79101654Y-76628205D01*
X79078736Y-76703754D01*
X79070998Y-76782322D01*
X79078736Y-76860890D01*
X79083754Y-76877431D01*
X78531332Y-77429854D01*
X78516789Y-77441789D01*
X78486430Y-77478783D01*
X78469178Y-77499804D01*
X78443016Y-77548750D01*
X78433799Y-77565993D01*
X78412013Y-77637812D01*
X78407966Y-77678907D01*
X78404657Y-77712500D01*
X78406500Y-77731211D01*
X78406500Y-77800047D01*
X78387366Y-77805851D01*
X78305422Y-77849652D01*
X78269360Y-77879247D01*
X78239502Y-77780820D01*
X78180537Y-77670506D01*
X78101185Y-77573815D01*
X78004494Y-77494463D01*
X77894180Y-77435498D01*
X77774482Y-77399188D01*
X77650000Y-77386928D01*
X77498250Y-77390000D01*
X77339500Y-77548750D01*
X77339500Y-78373000D01*
X77359500Y-78373000D01*
X77359500Y-78627000D01*
X77339500Y-78627000D01*
X77339500Y-79451250D01*
X77498250Y-79610000D01*
X77650000Y-79613072D01*
X77774482Y-79600812D01*
X77894180Y-79564502D01*
X78004494Y-79505537D01*
X78101185Y-79426185D01*
X78180537Y-79329494D01*
X78239502Y-79219180D01*
X78269360Y-79120753D01*
X78305422Y-79150348D01*
X78387366Y-79194149D01*
X78476281Y-79221121D01*
X78568750Y-79230228D01*
X79006250Y-79230228D01*
X79098719Y-79221121D01*
X79187634Y-79194149D01*
X79269578Y-79150348D01*
X79341403Y-79091403D01*
X79400348Y-79019578D01*
X79444149Y-78937634D01*
X79471121Y-78848719D01*
X79480228Y-78756250D01*
X79480228Y-78243750D01*
X79471121Y-78151281D01*
X79444149Y-78062366D01*
X79400348Y-77980422D01*
X79341403Y-77908597D01*
X79269578Y-77849652D01*
X79217174Y-77821641D01*
X79622569Y-77416246D01*
X79639110Y-77421264D01*
X79717678Y-77429002D01*
X79796246Y-77421264D01*
X79871795Y-77398346D01*
X79941422Y-77361130D01*
X80002450Y-77311046D01*
X80133107Y-77180389D01*
X80133106Y-78357479D01*
X78726814Y-79763772D01*
X78441750Y-79763772D01*
X78349281Y-79772879D01*
X78260366Y-79799851D01*
X78178422Y-79843652D01*
X78106597Y-79902597D01*
X78047652Y-79974422D01*
X78003851Y-80056366D01*
X77976879Y-80145281D01*
X77967772Y-80237750D01*
X77967772Y-80750250D01*
X77976879Y-80842719D01*
X78003851Y-80931634D01*
X78047652Y-81013578D01*
X78106597Y-81085403D01*
X78178422Y-81144348D01*
X78260366Y-81188149D01*
X78289001Y-81196835D01*
X78289001Y-81203885D01*
X78184964Y-81183192D01*
X78075836Y-81183192D01*
X77968804Y-81204481D01*
X77867982Y-81246243D01*
X77777245Y-81306872D01*
X77700080Y-81384037D01*
X77639451Y-81474774D01*
X77597689Y-81575596D01*
X77576400Y-81682628D01*
X77576400Y-81791756D01*
X77597689Y-81898788D01*
X77639451Y-81999610D01*
X77700080Y-82090347D01*
X77777245Y-82167512D01*
X77867982Y-82228141D01*
X77968804Y-82269903D01*
X78075836Y-82291192D01*
X78132526Y-82291192D01*
X78060466Y-82313051D01*
X77978522Y-82356852D01*
X77906697Y-82415797D01*
X77847752Y-82487622D01*
X77803951Y-82569566D01*
X77776979Y-82658481D01*
X77767872Y-82750950D01*
X77767872Y-83263450D01*
X77776979Y-83355919D01*
X77803951Y-83444834D01*
X77847752Y-83526778D01*
X77906697Y-83598603D01*
X77978522Y-83657548D01*
X78060466Y-83701349D01*
X78149381Y-83728321D01*
X78168001Y-83730155D01*
X78168001Y-83795631D01*
X78161786Y-83803203D01*
X78138200Y-83847328D01*
X78123676Y-83895207D01*
X78118772Y-83945000D01*
X78118772Y-84688274D01*
X78113349Y-84675182D01*
X78052720Y-84584445D01*
X77975555Y-84507280D01*
X77884818Y-84446651D01*
X77783996Y-84404889D01*
X77676964Y-84383600D01*
X77567836Y-84383600D01*
X77460804Y-84404889D01*
X77359982Y-84446651D01*
X77269245Y-84507280D01*
X77192080Y-84584445D01*
X77131451Y-84675182D01*
X77089689Y-84776004D01*
X77068400Y-84883036D01*
X77068400Y-84952785D01*
X76836742Y-85184443D01*
X76890949Y-85103318D01*
X76932711Y-85002496D01*
X76954000Y-84895464D01*
X76954000Y-84786336D01*
X76932711Y-84679304D01*
X76890949Y-84578482D01*
X76830320Y-84487745D01*
X76753155Y-84410580D01*
X76662418Y-84349951D01*
X76561596Y-84308189D01*
X76454564Y-84286900D01*
X76345436Y-84286900D01*
X76238404Y-84308189D01*
X76137582Y-84349951D01*
X76046845Y-84410580D01*
X75969680Y-84487745D01*
X75909051Y-84578482D01*
X75867289Y-84679304D01*
X75846000Y-84786336D01*
X75846000Y-84895464D01*
X75867289Y-85002496D01*
X75909051Y-85103318D01*
X75916348Y-85114238D01*
X75911982Y-85118604D01*
X75910548Y-85115922D01*
X75851603Y-85044097D01*
X75779778Y-84985152D01*
X75697834Y-84941351D01*
X75608919Y-84914379D01*
X75516450Y-84905272D01*
X75003950Y-84905272D01*
X74911481Y-84914379D01*
X74822566Y-84941351D01*
X74740622Y-84985152D01*
X74668797Y-85044097D01*
X74609852Y-85115922D01*
X74566051Y-85197866D01*
X74539079Y-85286781D01*
X74529972Y-85379250D01*
X74529972Y-85816750D01*
X74539079Y-85909219D01*
X74566051Y-85998134D01*
X74609852Y-86080078D01*
X74668797Y-86151903D01*
X74740622Y-86210848D01*
X74822566Y-86254649D01*
X74911481Y-86281621D01*
X75003950Y-86290728D01*
X75516450Y-86290728D01*
X75608919Y-86281621D01*
X75697834Y-86254649D01*
X75779778Y-86210848D01*
X75851603Y-86151903D01*
X75910548Y-86080078D01*
X75954349Y-85998134D01*
X75959937Y-85979714D01*
X75971400Y-85980843D01*
X75990110Y-85979000D01*
X75990113Y-85979000D01*
X76046089Y-85973487D01*
X76117908Y-85951701D01*
X76184096Y-85916322D01*
X76242111Y-85868711D01*
X76254046Y-85854169D01*
X76485616Y-85622599D01*
X76484914Y-85624912D01*
X76477557Y-85699600D01*
X76479401Y-85718320D01*
X76479401Y-85917896D01*
X76464156Y-85926044D01*
X76403128Y-85976128D01*
X76353044Y-86037156D01*
X76315828Y-86106783D01*
X76292910Y-86182332D01*
X76285172Y-86260900D01*
X76285172Y-86555900D01*
X76292910Y-86634468D01*
X76315828Y-86710017D01*
X76353044Y-86779644D01*
X76403128Y-86840672D01*
X76464156Y-86890756D01*
X76469103Y-86893400D01*
X76464156Y-86896044D01*
X76403128Y-86946128D01*
X76361050Y-86997400D01*
X75990428Y-86997400D01*
X75990428Y-86954250D01*
X75981321Y-86861781D01*
X75954349Y-86772866D01*
X75910548Y-86690922D01*
X75851603Y-86619097D01*
X75779778Y-86560152D01*
X75697834Y-86516351D01*
X75608919Y-86489379D01*
X75516450Y-86480272D01*
X75003950Y-86480272D01*
X74911481Y-86489379D01*
X74822566Y-86516351D01*
X74740622Y-86560152D01*
X74668797Y-86619097D01*
X74609852Y-86690922D01*
X74566051Y-86772866D01*
X74560247Y-86792000D01*
X72878134Y-86792000D01*
X72865949Y-86762582D01*
X72805320Y-86671845D01*
X72728155Y-86594680D01*
X72637418Y-86534051D01*
X72536596Y-86492289D01*
X72429564Y-86471000D01*
X72320436Y-86471000D01*
X72213404Y-86492289D01*
X72112582Y-86534051D01*
X72021845Y-86594680D01*
X71944680Y-86671845D01*
X71884051Y-86762582D01*
X71842289Y-86863404D01*
X71821000Y-86970436D01*
X71821000Y-87079564D01*
X71842289Y-87186596D01*
X71884051Y-87287418D01*
X71944680Y-87378155D01*
X72021845Y-87455320D01*
X72112582Y-87515949D01*
X72213404Y-87557711D01*
X72320436Y-87579000D01*
X72429564Y-87579000D01*
X72536596Y-87557711D01*
X72545555Y-87554000D01*
X74560247Y-87554000D01*
X74566051Y-87573134D01*
X74609852Y-87655078D01*
X74668797Y-87726903D01*
X74740622Y-87785848D01*
X74822566Y-87829649D01*
X74911481Y-87856621D01*
X75003950Y-87865728D01*
X75516450Y-87865728D01*
X75608919Y-87856621D01*
X75697834Y-87829649D01*
X75779778Y-87785848D01*
X75812005Y-87759400D01*
X76361050Y-87759400D01*
X76403128Y-87810672D01*
X76464156Y-87860756D01*
X76533783Y-87897972D01*
X76609332Y-87920890D01*
X76687900Y-87928628D01*
X77032900Y-87928628D01*
X77111468Y-87920890D01*
X77187017Y-87897972D01*
X77256644Y-87860756D01*
X77317672Y-87810672D01*
X77367756Y-87749644D01*
X77393756Y-87701000D01*
X78119363Y-87701000D01*
X78123676Y-87744793D01*
X78138200Y-87792672D01*
X78161786Y-87836797D01*
X78168409Y-87844867D01*
X78173513Y-87896688D01*
X78189754Y-87950228D01*
X78195299Y-87968507D01*
X78230678Y-88034696D01*
X78246666Y-88054177D01*
X78278289Y-88092711D01*
X78292832Y-88104646D01*
X78524358Y-88336173D01*
X78536289Y-88350711D01*
X78550824Y-88362639D01*
X78550825Y-88362640D01*
X78594303Y-88398322D01*
X78660492Y-88433701D01*
X78732311Y-88455487D01*
X78788287Y-88461000D01*
X78788290Y-88461000D01*
X78807000Y-88462843D01*
X78825710Y-88461000D01*
X80222290Y-88461000D01*
X80241000Y-88462843D01*
X80259710Y-88461000D01*
X80259713Y-88461000D01*
X80315689Y-88455487D01*
X80387508Y-88433701D01*
X80453696Y-88398322D01*
X80511711Y-88350711D01*
X80523645Y-88336169D01*
X80755174Y-88104641D01*
X80769711Y-88092711D01*
X80817322Y-88034696D01*
X80852701Y-87968508D01*
X80874487Y-87896689D01*
X80879591Y-87844867D01*
X80886214Y-87836797D01*
X80909800Y-87792672D01*
X80924324Y-87744793D01*
X80929228Y-87695000D01*
X80929228Y-86945000D01*
X80924324Y-86895207D01*
X80909800Y-86847328D01*
X80890767Y-86811721D01*
X80904473Y-86800473D01*
X80936214Y-86761797D01*
X80959800Y-86717672D01*
X80974324Y-86669793D01*
X80979228Y-86620000D01*
X80979228Y-85251887D01*
X81040560Y-85217274D01*
X81135407Y-85135726D01*
X81212522Y-85037242D01*
X81268943Y-84925605D01*
X81302500Y-84805107D01*
X81311904Y-84680377D01*
X81309000Y-84605750D01*
X81150250Y-84447000D01*
X80547000Y-84447000D01*
X80547000Y-84467000D01*
X80451000Y-84467000D01*
X80451000Y-84447000D01*
X80352000Y-84447000D01*
X80352000Y-84193000D01*
X80451000Y-84193000D01*
X80451000Y-84173000D01*
X80547000Y-84173000D01*
X80547000Y-84193000D01*
X81150250Y-84193000D01*
X81309000Y-84034250D01*
X81311904Y-83959623D01*
X81302500Y-83834893D01*
X81268943Y-83714395D01*
X81212522Y-83602758D01*
X81135407Y-83504274D01*
X81111060Y-83483341D01*
X81111172Y-83482200D01*
X81108100Y-83292950D01*
X80949350Y-83134200D01*
X80162600Y-83134200D01*
X80162600Y-83154200D01*
X79908600Y-83154200D01*
X79908600Y-83134200D01*
X79888600Y-83134200D01*
X79888600Y-82880200D01*
X79908600Y-82880200D01*
X79908600Y-82055950D01*
X79829000Y-81976350D01*
X79829000Y-81891000D01*
X80083000Y-81891000D01*
X80083000Y-82560250D01*
X80162600Y-82639850D01*
X80162600Y-82880200D01*
X80949350Y-82880200D01*
X81108100Y-82721450D01*
X81111172Y-82532200D01*
X81098912Y-82407718D01*
X81062602Y-82288020D01*
X81003637Y-82177706D01*
X80924285Y-82081015D01*
X80885138Y-82048888D01*
X80727250Y-81891000D01*
X80083000Y-81891000D01*
X79829000Y-81891000D01*
X79809000Y-81891000D01*
X79809000Y-81637000D01*
X79829000Y-81637000D01*
X79829000Y-81617000D01*
X80083000Y-81617000D01*
X80083000Y-81637000D01*
X80727250Y-81637000D01*
X80766374Y-81597876D01*
X80797482Y-81594812D01*
X80917180Y-81558502D01*
X81027494Y-81499537D01*
X81124185Y-81420185D01*
X81203537Y-81323494D01*
X81262502Y-81213180D01*
X81298812Y-81093482D01*
X81311072Y-80969000D01*
X81308000Y-80779750D01*
X81149250Y-80621000D01*
X80362500Y-80621000D01*
X80362500Y-80641000D01*
X80108500Y-80641000D01*
X80108500Y-80621000D01*
X80088500Y-80621000D01*
X80088500Y-80367000D01*
X80108500Y-80367000D01*
X80108500Y-79542750D01*
X80362500Y-79542750D01*
X80362500Y-80367000D01*
X81149250Y-80367000D01*
X81308000Y-80208250D01*
X81311072Y-80019000D01*
X81298812Y-79894518D01*
X81262502Y-79774820D01*
X81203537Y-79664506D01*
X81124185Y-79567815D01*
X81027494Y-79488463D01*
X80917180Y-79429498D01*
X80797482Y-79393188D01*
X80673000Y-79380928D01*
X80521250Y-79384000D01*
X80362500Y-79542750D01*
X80108500Y-79542750D01*
X80066982Y-79501232D01*
X80770281Y-78797934D01*
X80784817Y-78786005D01*
X80809236Y-78756250D01*
X80832428Y-78727991D01*
X80867807Y-78661802D01*
X80878364Y-78627000D01*
X80889593Y-78589983D01*
X80895106Y-78534007D01*
X80895106Y-78534004D01*
X80896949Y-78515294D01*
X80895106Y-78496584D01*
X80895106Y-76418390D01*
X80896940Y-76416556D01*
X80947024Y-76355528D01*
X80984240Y-76285901D01*
X81007158Y-76210352D01*
X81014896Y-76131784D01*
X81007158Y-76053216D01*
X80984240Y-75977667D01*
X80947024Y-75908040D01*
X80896940Y-75847012D01*
X80652988Y-75603060D01*
X80591960Y-75552976D01*
X80522333Y-75515760D01*
X80446784Y-75492842D01*
X80368216Y-75485104D01*
X80289648Y-75492842D01*
X80214099Y-75515760D01*
X80144472Y-75552976D01*
X80083444Y-75603060D01*
X79953398Y-75733106D01*
X79197140Y-75733106D01*
X79010041Y-75546007D01*
X78949013Y-75495923D01*
X78879386Y-75458707D01*
X78803837Y-75435789D01*
X78725269Y-75428051D01*
X78646701Y-75435789D01*
X78571152Y-75458707D01*
X78501525Y-75495923D01*
X78472913Y-75519404D01*
X78837669Y-75154648D01*
X78869410Y-75115972D01*
X78892996Y-75071847D01*
X78901991Y-75042193D01*
X78922296Y-75036034D01*
X78932372Y-75048311D01*
X78956203Y-75067868D01*
X78990386Y-75095922D01*
X79015596Y-75109397D01*
X79056575Y-75131301D01*
X79128394Y-75153087D01*
X79184370Y-75158600D01*
X79184373Y-75158600D01*
X79203083Y-75160443D01*
X79221793Y-75158600D01*
X79903690Y-75158600D01*
X79922400Y-75160443D01*
X79941110Y-75158600D01*
X79941113Y-75158600D01*
X79997089Y-75153087D01*
X80068908Y-75131301D01*
X80135096Y-75095922D01*
X80193111Y-75048311D01*
X80205046Y-75033768D01*
X80856174Y-74382641D01*
X80870711Y-74370711D01*
X80904626Y-74329385D01*
X80918322Y-74312697D01*
X80953701Y-74246508D01*
X80965764Y-74206741D01*
X80975487Y-74174689D01*
X80981000Y-74118713D01*
X80981000Y-74118711D01*
X80982843Y-74100001D01*
X80981000Y-74081291D01*
X80981000Y-73218702D01*
X80982842Y-73199999D01*
X80981000Y-73181296D01*
X80981000Y-73181287D01*
X80975487Y-73125311D01*
X80953701Y-73053492D01*
X80926623Y-73002834D01*
X80918322Y-72987303D01*
X80889170Y-72951782D01*
X80870711Y-72929289D01*
X80856175Y-72917360D01*
X80454000Y-72515186D01*
X80454000Y-72445436D01*
X80432711Y-72338404D01*
X80390949Y-72237582D01*
X80330320Y-72146845D01*
X80253155Y-72069680D01*
X80162418Y-72009051D01*
X80061596Y-71967289D01*
X79954564Y-71946000D01*
X79845436Y-71946000D01*
X79738404Y-71967289D01*
X79637582Y-72009051D01*
X79546845Y-72069680D01*
X79500000Y-72116525D01*
X79453155Y-72069680D01*
X79362418Y-72009051D01*
X79261596Y-71967289D01*
X79236873Y-71962372D01*
X79969040Y-71230205D01*
X80000781Y-71191529D01*
X80024367Y-71147404D01*
X80038891Y-71099525D01*
X80043795Y-71049732D01*
X80038891Y-70999939D01*
X80024367Y-70952060D01*
X80021715Y-70947099D01*
X80256174Y-70712641D01*
X80270711Y-70700711D01*
X80303446Y-70660823D01*
X80318322Y-70642697D01*
X80349542Y-70584290D01*
X80386743Y-70674101D01*
X80452843Y-70773027D01*
X80536973Y-70857157D01*
X80635899Y-70923257D01*
X80745820Y-70968788D01*
X80862511Y-70992000D01*
X80981489Y-70992000D01*
X81098180Y-70968788D01*
X81208101Y-70923257D01*
X81307027Y-70857157D01*
X81391157Y-70773027D01*
X81457257Y-70674101D01*
X81502788Y-70564180D01*
X81526000Y-70447489D01*
X81526000Y-70328511D01*
X81502788Y-70211820D01*
X81457257Y-70101899D01*
X81391157Y-70002973D01*
X81307027Y-69918843D01*
X81208101Y-69852743D01*
X81098180Y-69807212D01*
X80981489Y-69784000D01*
X80862511Y-69784000D01*
X80745820Y-69807212D01*
X80635899Y-69852743D01*
X80536973Y-69918843D01*
X80452843Y-70002973D01*
X80386743Y-70101899D01*
X80381000Y-70115764D01*
X80381000Y-66402475D01*
X80430320Y-66353155D01*
X80490949Y-66262418D01*
X80532711Y-66161596D01*
X80554000Y-66054564D01*
X80554000Y-65945436D01*
X80532711Y-65838404D01*
X80490949Y-65737582D01*
X80430320Y-65646845D01*
X80353155Y-65569680D01*
X80262418Y-65509051D01*
X80161596Y-65467289D01*
X80054564Y-65446000D01*
X79945436Y-65446000D01*
X79838404Y-65467289D01*
X79737582Y-65509051D01*
X79646845Y-65569680D01*
X79600000Y-65616525D01*
X79553155Y-65569680D01*
X79462418Y-65509051D01*
X79361596Y-65467289D01*
X79254564Y-65446000D01*
X79145436Y-65446000D01*
X79038404Y-65467289D01*
X78937582Y-65509051D01*
X78846845Y-65569680D01*
X78800000Y-65616525D01*
X78753155Y-65569680D01*
X78662418Y-65509051D01*
X78561596Y-65467289D01*
X78454564Y-65446000D01*
X78345436Y-65446000D01*
X78238404Y-65467289D01*
X78137582Y-65509051D01*
X78046845Y-65569680D01*
X78000000Y-65616525D01*
X77953155Y-65569680D01*
X77862418Y-65509051D01*
X77761596Y-65467289D01*
X77654564Y-65446000D01*
X77545436Y-65446000D01*
X77438404Y-65467289D01*
X77337582Y-65509051D01*
X77246845Y-65569680D01*
X77200000Y-65616525D01*
X77181000Y-65597525D01*
X77181000Y-65594438D01*
X77182842Y-65575735D01*
X77181000Y-65557032D01*
X77181000Y-65557023D01*
X77175487Y-65501047D01*
X77153701Y-65429228D01*
X77130645Y-65386095D01*
X77118322Y-65363039D01*
X77082639Y-65319560D01*
X77070711Y-65305025D01*
X77056174Y-65293095D01*
X76306910Y-64543832D01*
X76294975Y-64529289D01*
X76236960Y-64481678D01*
X76170772Y-64446299D01*
X76098953Y-64424513D01*
X76042977Y-64419000D01*
X76042974Y-64419000D01*
X76024264Y-64417157D01*
X76005554Y-64419000D01*
X66238256Y-64419000D01*
X66219553Y-64417158D01*
X66200850Y-64419000D01*
X66200841Y-64419000D01*
X66144865Y-64424513D01*
X66073046Y-64446299D01*
X66029913Y-64469355D01*
X66006857Y-64481678D01*
X65977526Y-64505750D01*
X65948843Y-64529289D01*
X65936913Y-64543826D01*
X64093011Y-66387729D01*
X64067749Y-66401232D01*
X64024270Y-66436914D01*
X64024267Y-66436917D01*
X64009735Y-66448843D01*
X63997809Y-66463375D01*
X63443831Y-67017355D01*
X63429289Y-67029289D01*
X63397666Y-67067823D01*
X63381678Y-67087304D01*
X63366210Y-67116243D01*
X63346299Y-67153493D01*
X63324513Y-67225312D01*
X63320072Y-67270407D01*
X63317157Y-67300000D01*
X63249868Y-67300000D01*
X63249073Y-64278718D01*
X82530991Y-64259281D01*
X82530084Y-90377010D01*
G36*
X68979188Y-79455518D02*
G01*
X68966928Y-79580000D01*
X68970000Y-79614250D01*
X69128750Y-79773000D01*
X69773000Y-79773000D01*
X69773000Y-79753000D01*
X70027000Y-79753000D01*
X70027000Y-79773000D01*
X70047000Y-79773000D01*
X70047000Y-80027000D01*
X70027000Y-80027000D01*
X70027000Y-80696250D01*
X70126068Y-80795318D01*
X69433832Y-81487554D01*
X69419289Y-81499489D01*
X69389727Y-81535512D01*
X69371678Y-81557504D01*
X69350838Y-81596493D01*
X69336299Y-81623693D01*
X69314513Y-81695512D01*
X69309000Y-81751487D01*
X69307157Y-81770200D01*
X69309000Y-81788911D01*
X69309000Y-82034000D01*
X67418933Y-82034000D01*
X67450614Y-81995397D01*
X67474200Y-81951272D01*
X67488724Y-81903393D01*
X67493628Y-81853600D01*
X67493628Y-80532610D01*
X67522272Y-80551749D01*
X67623094Y-80593511D01*
X67730126Y-80614800D01*
X67839254Y-80614800D01*
X67946286Y-80593511D01*
X68047108Y-80551749D01*
X68137845Y-80491120D01*
X68215010Y-80413955D01*
X68275639Y-80323218D01*
X68317401Y-80222396D01*
X68317877Y-80220000D01*
X68966928Y-80220000D01*
X68979188Y-80344482D01*
X69015498Y-80464180D01*
X69074463Y-80574494D01*
X69153815Y-80671185D01*
X69250506Y-80750537D01*
X69360820Y-80809502D01*
X69480518Y-80845812D01*
X69605000Y-80858072D01*
X69614250Y-80855000D01*
X69773000Y-80696250D01*
X69773000Y-80027000D01*
X69128750Y-80027000D01*
X68970000Y-80185750D01*
X68966928Y-80220000D01*
X68317877Y-80220000D01*
X68338690Y-80115364D01*
X68338690Y-80045616D01*
X68367329Y-80016977D01*
X68367338Y-80016966D01*
X69001135Y-79383170D01*
X68979188Y-79455518D01*
X68979188Y-79455518D01*
G37*
X68979188Y-79455518D02*
X68966928Y-79580000D01*
X68970000Y-79614250D01*
X69128750Y-79773000D01*
X69773000Y-79773000D01*
X69773000Y-79753000D01*
X70027000Y-79753000D01*
X70027000Y-79773000D01*
X70047000Y-79773000D01*
X70047000Y-80027000D01*
X70027000Y-80027000D01*
X70027000Y-80696250D01*
X70126068Y-80795318D01*
X69433832Y-81487554D01*
X69419289Y-81499489D01*
X69389727Y-81535512D01*
X69371678Y-81557504D01*
X69350838Y-81596493D01*
X69336299Y-81623693D01*
X69314513Y-81695512D01*
X69309000Y-81751487D01*
X69307157Y-81770200D01*
X69309000Y-81788911D01*
X69309000Y-82034000D01*
X67418933Y-82034000D01*
X67450614Y-81995397D01*
X67474200Y-81951272D01*
X67488724Y-81903393D01*
X67493628Y-81853600D01*
X67493628Y-80532610D01*
X67522272Y-80551749D01*
X67623094Y-80593511D01*
X67730126Y-80614800D01*
X67839254Y-80614800D01*
X67946286Y-80593511D01*
X68047108Y-80551749D01*
X68137845Y-80491120D01*
X68215010Y-80413955D01*
X68275639Y-80323218D01*
X68317401Y-80222396D01*
X68317877Y-80220000D01*
X68966928Y-80220000D01*
X68979188Y-80344482D01*
X69015498Y-80464180D01*
X69074463Y-80574494D01*
X69153815Y-80671185D01*
X69250506Y-80750537D01*
X69360820Y-80809502D01*
X69480518Y-80845812D01*
X69605000Y-80858072D01*
X69614250Y-80855000D01*
X69773000Y-80696250D01*
X69773000Y-80027000D01*
X69128750Y-80027000D01*
X68970000Y-80185750D01*
X68966928Y-80220000D01*
X68317877Y-80220000D01*
X68338690Y-80115364D01*
X68338690Y-80045616D01*
X68367329Y-80016977D01*
X68367338Y-80016966D01*
X69001135Y-79383170D01*
X68979188Y-79455518D01*
G36*
X65315400Y-80976600D02*
G01*
X65335400Y-80976600D01*
X65335400Y-81230600D01*
X65315400Y-81230600D01*
X65315400Y-81250600D01*
X65061400Y-81250600D01*
X65061400Y-81230600D01*
X65041400Y-81230600D01*
X65041400Y-80976600D01*
X65061400Y-80976600D01*
X65061400Y-80956600D01*
X65315400Y-80956600D01*
X65315400Y-80976600D01*
X65315400Y-80976600D01*
G37*
X65315400Y-80976600D02*
X65335400Y-80976600D01*
X65335400Y-81230600D01*
X65315400Y-81230600D01*
X65315400Y-81250600D01*
X65061400Y-81250600D01*
X65061400Y-81230600D01*
X65041400Y-81230600D01*
X65041400Y-80976600D01*
X65061400Y-80976600D01*
X65061400Y-80956600D01*
X65315400Y-80956600D01*
X65315400Y-80976600D01*
G36*
X76150539Y-65465090D02*
G01*
X76054564Y-65446000D01*
X75945436Y-65446000D01*
X75838404Y-65467289D01*
X75737582Y-65509051D01*
X75646845Y-65569680D01*
X75600000Y-65616525D01*
X75553155Y-65569680D01*
X75462418Y-65509051D01*
X75361596Y-65467289D01*
X75254564Y-65446000D01*
X75145436Y-65446000D01*
X75038404Y-65467289D01*
X74937582Y-65509051D01*
X74846845Y-65569680D01*
X74800000Y-65616525D01*
X74753155Y-65569680D01*
X74662418Y-65509051D01*
X74561596Y-65467289D01*
X74454564Y-65446000D01*
X74345436Y-65446000D01*
X74238404Y-65467289D01*
X74137582Y-65509051D01*
X74046845Y-65569680D01*
X74000000Y-65616525D01*
X73953155Y-65569680D01*
X73862418Y-65509051D01*
X73761596Y-65467289D01*
X73654564Y-65446000D01*
X73545436Y-65446000D01*
X73438404Y-65467289D01*
X73337582Y-65509051D01*
X73246845Y-65569680D01*
X73200000Y-65616525D01*
X73153155Y-65569680D01*
X73062418Y-65509051D01*
X72961596Y-65467289D01*
X72854564Y-65446000D01*
X72745436Y-65446000D01*
X72638404Y-65467289D01*
X72537582Y-65509051D01*
X72446845Y-65569680D01*
X72400000Y-65616525D01*
X72353155Y-65569680D01*
X72262418Y-65509051D01*
X72161596Y-65467289D01*
X72054564Y-65446000D01*
X71945436Y-65446000D01*
X71838404Y-65467289D01*
X71737582Y-65509051D01*
X71646845Y-65569680D01*
X71569680Y-65646845D01*
X71509051Y-65737582D01*
X71467289Y-65838404D01*
X71446000Y-65945436D01*
X71446000Y-66054564D01*
X71467289Y-66161596D01*
X71509051Y-66262418D01*
X71569680Y-66353155D01*
X71619000Y-66402475D01*
X71619001Y-67367867D01*
X71511721Y-67475147D01*
X71479980Y-67513823D01*
X71456394Y-67557948D01*
X71447399Y-67587601D01*
X71417745Y-67596596D01*
X71373620Y-67620182D01*
X71334944Y-67651923D01*
X71181737Y-67805130D01*
X71172282Y-67802212D01*
X71160267Y-67762604D01*
X71101303Y-67652290D01*
X71021950Y-67555599D01*
X70995559Y-67533552D01*
X70771053Y-67533552D01*
X70315499Y-67989106D01*
X70788730Y-68462337D01*
X70804685Y-68462337D01*
X71320963Y-68978616D01*
X71335106Y-68964474D01*
X71514711Y-69144079D01*
X71500568Y-69158221D01*
X72313211Y-69970863D01*
X72537717Y-69970863D01*
X72549926Y-69956418D01*
X72613404Y-69982711D01*
X72720436Y-70004000D01*
X72829564Y-70004000D01*
X72936596Y-69982711D01*
X73037418Y-69940949D01*
X73128155Y-69880320D01*
X73204098Y-69804377D01*
X73204098Y-69903662D01*
X73225387Y-70010694D01*
X73232473Y-70027800D01*
X72713510Y-70027800D01*
X72694800Y-70025957D01*
X72676090Y-70027800D01*
X72676087Y-70027800D01*
X72620111Y-70033313D01*
X72548292Y-70055099D01*
X72482103Y-70090478D01*
X72471121Y-70099491D01*
X72424089Y-70138089D01*
X72412160Y-70152625D01*
X71498832Y-71065954D01*
X71484289Y-71077889D01*
X71452666Y-71116423D01*
X71436678Y-71135904D01*
X71409525Y-71186704D01*
X71401299Y-71202093D01*
X71379513Y-71273912D01*
X71375697Y-71312658D01*
X71372157Y-71348600D01*
X71374000Y-71367310D01*
X71374000Y-71672427D01*
X71361596Y-71667289D01*
X71254564Y-71646000D01*
X71145436Y-71646000D01*
X71038404Y-71667289D01*
X70937582Y-71709051D01*
X70846845Y-71769680D01*
X70800000Y-71816525D01*
X70738351Y-71754876D01*
X70647614Y-71694247D01*
X70618344Y-71682123D01*
X70682293Y-71676134D01*
X70802164Y-71640401D01*
X70912761Y-71581968D01*
X71002234Y-71506346D01*
X71002234Y-71281840D01*
X70189592Y-70469197D01*
X70175450Y-70483340D01*
X69995844Y-70303734D01*
X70009987Y-70289592D01*
X69995844Y-70275450D01*
X70175450Y-70095844D01*
X70189592Y-70109987D01*
X70203735Y-70095845D01*
X70383340Y-70275450D01*
X70369197Y-70289592D01*
X71181840Y-71102234D01*
X71406346Y-71102234D01*
X71481968Y-71012761D01*
X71540401Y-70902164D01*
X71576134Y-70782293D01*
X71587797Y-70657754D01*
X71576117Y-70544746D01*
X71689125Y-70556426D01*
X71813664Y-70544763D01*
X71933535Y-70509030D01*
X72044132Y-70450597D01*
X72133605Y-70374975D01*
X72133605Y-70150469D01*
X71320963Y-69337826D01*
X71306821Y-69351969D01*
X71127216Y-69172364D01*
X71141358Y-69158221D01*
X70328715Y-68345579D01*
X70312762Y-68345579D01*
X70135894Y-68168711D01*
X70121752Y-68182854D01*
X69942147Y-68003249D01*
X69956289Y-67989106D01*
X69483058Y-67515875D01*
X69258551Y-67515875D01*
X69249838Y-67520243D01*
X69170485Y-67616934D01*
X69111521Y-67727249D01*
X69075212Y-67846947D01*
X69062951Y-67971428D01*
X69075212Y-68095910D01*
X69107884Y-68203620D01*
X68938954Y-68372550D01*
X68888870Y-68433578D01*
X68851654Y-68503205D01*
X68843098Y-68531410D01*
X68788404Y-68542289D01*
X68687582Y-68584051D01*
X68596845Y-68644680D01*
X68519680Y-68721845D01*
X68459051Y-68812582D01*
X68417289Y-68913404D01*
X68396000Y-69020436D01*
X68396000Y-69088097D01*
X67621617Y-68313714D01*
X67635899Y-68323257D01*
X67745820Y-68368788D01*
X67862511Y-68392000D01*
X67981489Y-68392000D01*
X68098180Y-68368788D01*
X68208101Y-68323257D01*
X68307027Y-68257157D01*
X68391157Y-68173027D01*
X68457257Y-68074101D01*
X68502788Y-67964180D01*
X68526000Y-67847489D01*
X68526000Y-67728511D01*
X68502788Y-67611820D01*
X68457257Y-67501899D01*
X68391157Y-67402973D01*
X68307027Y-67318843D01*
X68208101Y-67252743D01*
X68098180Y-67207212D01*
X67981489Y-67184000D01*
X67862511Y-67184000D01*
X67745820Y-67207212D01*
X67635899Y-67252743D01*
X67536973Y-67318843D01*
X67452843Y-67402973D01*
X67386743Y-67501899D01*
X67341212Y-67611820D01*
X67318000Y-67728511D01*
X67318000Y-67847489D01*
X67341212Y-67964180D01*
X67386743Y-68074101D01*
X67433606Y-68144237D01*
X67414399Y-68133970D01*
X67366520Y-68119446D01*
X67316727Y-68114542D01*
X67266934Y-68119446D01*
X67219055Y-68133970D01*
X67174930Y-68157556D01*
X67136254Y-68189297D01*
X66853411Y-68472140D01*
X66821670Y-68510816D01*
X66798084Y-68554941D01*
X66783560Y-68602820D01*
X66778656Y-68652613D01*
X66783560Y-68702406D01*
X66798084Y-68750285D01*
X66821670Y-68794410D01*
X66853411Y-68833086D01*
X68196914Y-70176589D01*
X68235590Y-70208330D01*
X68279715Y-70231916D01*
X68327594Y-70246440D01*
X68376562Y-70251263D01*
X68563906Y-70438606D01*
X68545193Y-70448609D01*
X68506517Y-70480350D01*
X68117608Y-70869259D01*
X68085867Y-70907935D01*
X68062281Y-70952060D01*
X68047757Y-70999939D01*
X68042853Y-71049732D01*
X68047757Y-71099525D01*
X68062281Y-71147404D01*
X68085867Y-71191529D01*
X68117608Y-71230205D01*
X68231403Y-71344000D01*
X67208481Y-71344000D01*
X67198973Y-71312658D01*
X67175387Y-71268533D01*
X67143646Y-71229857D01*
X65800143Y-69886354D01*
X65761467Y-69854613D01*
X65717342Y-69831027D01*
X65669463Y-69816503D01*
X65619670Y-69811599D01*
X65569877Y-69816503D01*
X65521998Y-69831027D01*
X65477873Y-69854613D01*
X65439197Y-69886354D01*
X65156354Y-70169197D01*
X65124613Y-70207873D01*
X65101027Y-70251998D01*
X65086503Y-70299877D01*
X65081599Y-70349670D01*
X65086503Y-70399463D01*
X65101027Y-70447342D01*
X65124613Y-70491467D01*
X65156354Y-70530143D01*
X66499857Y-71873646D01*
X66538533Y-71905387D01*
X66582658Y-71928973D01*
X66630537Y-71943497D01*
X66679505Y-71948320D01*
X66712359Y-71981174D01*
X66724289Y-71995711D01*
X66738824Y-72007639D01*
X66782303Y-72043322D01*
X66801332Y-72053493D01*
X66848492Y-72078701D01*
X66920311Y-72100487D01*
X66976287Y-72106000D01*
X66976296Y-72106000D01*
X66994999Y-72107842D01*
X67013702Y-72106000D01*
X68735474Y-72106000D01*
X68754184Y-72107843D01*
X68772894Y-72106000D01*
X68772897Y-72106000D01*
X68828873Y-72100487D01*
X68900692Y-72078701D01*
X68943319Y-72055916D01*
X69248979Y-72361576D01*
X69287655Y-72393317D01*
X69331780Y-72416903D01*
X69379659Y-72431427D01*
X69429452Y-72436331D01*
X69479245Y-72431427D01*
X69527124Y-72416903D01*
X69571249Y-72393317D01*
X69609925Y-72361576D01*
X69831196Y-72140305D01*
X69831196Y-72179989D01*
X69532617Y-72478569D01*
X69527124Y-72475633D01*
X69479245Y-72461109D01*
X69429452Y-72456205D01*
X69379659Y-72461109D01*
X69331780Y-72475633D01*
X69287655Y-72499219D01*
X69248979Y-72530960D01*
X68117608Y-73662331D01*
X68085867Y-73701007D01*
X68062281Y-73745132D01*
X68053236Y-73774950D01*
X67616032Y-74212154D01*
X67599490Y-74207136D01*
X67520922Y-74199398D01*
X67442354Y-74207136D01*
X67366805Y-74230054D01*
X67297178Y-74267270D01*
X67236150Y-74317354D01*
X67027554Y-74525950D01*
X66977470Y-74586978D01*
X66940254Y-74656605D01*
X66917336Y-74732154D01*
X66909598Y-74810722D01*
X66917336Y-74889290D01*
X66918965Y-74894659D01*
X66913596Y-74893030D01*
X66835028Y-74885292D01*
X66756460Y-74893030D01*
X66680911Y-74915948D01*
X66611284Y-74953164D01*
X66550256Y-75003248D01*
X66341660Y-75211844D01*
X66291576Y-75272872D01*
X66254360Y-75342499D01*
X66231442Y-75418048D01*
X66223704Y-75496616D01*
X66231442Y-75575184D01*
X66254360Y-75650733D01*
X66291576Y-75720360D01*
X66341660Y-75781388D01*
X66471706Y-75911434D01*
X66471707Y-77098372D01*
X66138400Y-77098372D01*
X66088607Y-77103276D01*
X66040728Y-77117800D01*
X65996603Y-77141386D01*
X65957927Y-77173127D01*
X65938400Y-77196920D01*
X65918873Y-77173127D01*
X65880197Y-77141386D01*
X65836072Y-77117800D01*
X65788193Y-77103276D01*
X65738400Y-77098372D01*
X64638400Y-77098372D01*
X64588607Y-77103276D01*
X64540728Y-77117800D01*
X64496603Y-77141386D01*
X64457927Y-77173127D01*
X64426186Y-77211803D01*
X64402600Y-77255928D01*
X64388076Y-77303807D01*
X64383172Y-77353600D01*
X64383172Y-78853600D01*
X64388076Y-78903393D01*
X64402600Y-78951272D01*
X64426186Y-78995397D01*
X64457927Y-79034073D01*
X64496603Y-79065814D01*
X64540728Y-79089400D01*
X64588607Y-79103924D01*
X64638400Y-79108828D01*
X64831931Y-79108828D01*
X64812451Y-79137982D01*
X64770689Y-79238804D01*
X64749400Y-79345836D01*
X64749400Y-79454964D01*
X64770689Y-79561996D01*
X64812451Y-79662818D01*
X64849309Y-79717980D01*
X64638400Y-79715528D01*
X64513918Y-79727788D01*
X64394220Y-79764098D01*
X64283906Y-79823063D01*
X64187215Y-79902415D01*
X64107863Y-79999106D01*
X64081000Y-80049362D01*
X64081000Y-68845434D01*
X65371000Y-68845434D01*
X65371000Y-68954562D01*
X65392289Y-69061594D01*
X65434051Y-69162416D01*
X65494680Y-69253153D01*
X65571845Y-69330318D01*
X65662582Y-69390947D01*
X65763404Y-69432709D01*
X65863880Y-69452694D01*
X65932073Y-69520887D01*
X65935032Y-69550935D01*
X65949556Y-69598814D01*
X65973142Y-69642939D01*
X66004883Y-69681615D01*
X67348386Y-71025118D01*
X67387062Y-71056859D01*
X67431187Y-71080445D01*
X67479066Y-71094969D01*
X67528859Y-71099873D01*
X67578652Y-71094969D01*
X67626531Y-71080445D01*
X67670656Y-71056859D01*
X67709332Y-71025118D01*
X67992175Y-70742275D01*
X68023916Y-70703599D01*
X68047502Y-70659474D01*
X68062026Y-70611595D01*
X68066930Y-70561802D01*
X68062026Y-70512009D01*
X68047502Y-70464130D01*
X68023916Y-70420005D01*
X67992175Y-70381329D01*
X66648672Y-69037826D01*
X66609996Y-69006085D01*
X66565871Y-68982499D01*
X66517992Y-68967975D01*
X66477133Y-68963951D01*
X66479000Y-68954562D01*
X66479000Y-68845434D01*
X66457711Y-68738402D01*
X66415949Y-68637580D01*
X66355320Y-68546843D01*
X66278155Y-68469678D01*
X66187418Y-68409049D01*
X66086596Y-68367287D01*
X65979564Y-68345998D01*
X65870436Y-68345998D01*
X65763404Y-68367287D01*
X65662582Y-68409049D01*
X65571845Y-68469678D01*
X65494680Y-68546843D01*
X65434051Y-68637580D01*
X65392289Y-68738402D01*
X65371000Y-68845434D01*
X64081000Y-68845434D01*
X64081000Y-67457814D01*
X64427052Y-67111763D01*
X69662663Y-67111763D01*
X69662663Y-67336270D01*
X70135894Y-67809501D01*
X70591448Y-67353947D01*
X70591448Y-67129441D01*
X70569401Y-67103050D01*
X70472710Y-67023697D01*
X70362396Y-66964733D01*
X70242698Y-66928424D01*
X70118216Y-66916163D01*
X69993735Y-66928424D01*
X69874037Y-66964733D01*
X69763722Y-67023697D01*
X69667031Y-67103050D01*
X69662663Y-67111763D01*
X64427052Y-67111763D01*
X64487440Y-67051376D01*
X64512696Y-67037876D01*
X64570711Y-66990265D01*
X64582646Y-66975722D01*
X65612932Y-65945436D01*
X68246000Y-65945436D01*
X68246000Y-66054564D01*
X68267289Y-66161596D01*
X68309051Y-66262418D01*
X68369680Y-66353155D01*
X68446845Y-66430320D01*
X68537582Y-66490949D01*
X68638404Y-66532711D01*
X68745436Y-66554000D01*
X68854564Y-66554000D01*
X68961596Y-66532711D01*
X69062418Y-66490949D01*
X69153155Y-66430320D01*
X69230320Y-66353155D01*
X69290949Y-66262418D01*
X69332711Y-66161596D01*
X69354000Y-66054564D01*
X69354000Y-65945436D01*
X69332711Y-65838404D01*
X69290949Y-65737582D01*
X69230320Y-65646845D01*
X69153155Y-65569680D01*
X69062418Y-65509051D01*
X68961596Y-65467289D01*
X68854564Y-65446000D01*
X68745436Y-65446000D01*
X68638404Y-65467289D01*
X68537582Y-65509051D01*
X68446845Y-65569680D01*
X68369680Y-65646845D01*
X68309051Y-65737582D01*
X68267289Y-65838404D01*
X68246000Y-65945436D01*
X65612932Y-65945436D01*
X66377369Y-65181000D01*
X75866450Y-65181000D01*
X76150539Y-65465090D01*
X76150539Y-65465090D01*
G37*
X76150539Y-65465090D02*
X76054564Y-65446000D01*
X75945436Y-65446000D01*
X75838404Y-65467289D01*
X75737582Y-65509051D01*
X75646845Y-65569680D01*
X75600000Y-65616525D01*
X75553155Y-65569680D01*
X75462418Y-65509051D01*
X75361596Y-65467289D01*
X75254564Y-65446000D01*
X75145436Y-65446000D01*
X75038404Y-65467289D01*
X74937582Y-65509051D01*
X74846845Y-65569680D01*
X74800000Y-65616525D01*
X74753155Y-65569680D01*
X74662418Y-65509051D01*
X74561596Y-65467289D01*
X74454564Y-65446000D01*
X74345436Y-65446000D01*
X74238404Y-65467289D01*
X74137582Y-65509051D01*
X74046845Y-65569680D01*
X74000000Y-65616525D01*
X73953155Y-65569680D01*
X73862418Y-65509051D01*
X73761596Y-65467289D01*
X73654564Y-65446000D01*
X73545436Y-65446000D01*
X73438404Y-65467289D01*
X73337582Y-65509051D01*
X73246845Y-65569680D01*
X73200000Y-65616525D01*
X73153155Y-65569680D01*
X73062418Y-65509051D01*
X72961596Y-65467289D01*
X72854564Y-65446000D01*
X72745436Y-65446000D01*
X72638404Y-65467289D01*
X72537582Y-65509051D01*
X72446845Y-65569680D01*
X72400000Y-65616525D01*
X72353155Y-65569680D01*
X72262418Y-65509051D01*
X72161596Y-65467289D01*
X72054564Y-65446000D01*
X71945436Y-65446000D01*
X71838404Y-65467289D01*
X71737582Y-65509051D01*
X71646845Y-65569680D01*
X71569680Y-65646845D01*
X71509051Y-65737582D01*
X71467289Y-65838404D01*
X71446000Y-65945436D01*
X71446000Y-66054564D01*
X71467289Y-66161596D01*
X71509051Y-66262418D01*
X71569680Y-66353155D01*
X71619000Y-66402475D01*
X71619001Y-67367867D01*
X71511721Y-67475147D01*
X71479980Y-67513823D01*
X71456394Y-67557948D01*
X71447399Y-67587601D01*
X71417745Y-67596596D01*
X71373620Y-67620182D01*
X71334944Y-67651923D01*
X71181737Y-67805130D01*
X71172282Y-67802212D01*
X71160267Y-67762604D01*
X71101303Y-67652290D01*
X71021950Y-67555599D01*
X70995559Y-67533552D01*
X70771053Y-67533552D01*
X70315499Y-67989106D01*
X70788730Y-68462337D01*
X70804685Y-68462337D01*
X71320963Y-68978616D01*
X71335106Y-68964474D01*
X71514711Y-69144079D01*
X71500568Y-69158221D01*
X72313211Y-69970863D01*
X72537717Y-69970863D01*
X72549926Y-69956418D01*
X72613404Y-69982711D01*
X72720436Y-70004000D01*
X72829564Y-70004000D01*
X72936596Y-69982711D01*
X73037418Y-69940949D01*
X73128155Y-69880320D01*
X73204098Y-69804377D01*
X73204098Y-69903662D01*
X73225387Y-70010694D01*
X73232473Y-70027800D01*
X72713510Y-70027800D01*
X72694800Y-70025957D01*
X72676090Y-70027800D01*
X72676087Y-70027800D01*
X72620111Y-70033313D01*
X72548292Y-70055099D01*
X72482103Y-70090478D01*
X72471121Y-70099491D01*
X72424089Y-70138089D01*
X72412160Y-70152625D01*
X71498832Y-71065954D01*
X71484289Y-71077889D01*
X71452666Y-71116423D01*
X71436678Y-71135904D01*
X71409525Y-71186704D01*
X71401299Y-71202093D01*
X71379513Y-71273912D01*
X71375697Y-71312658D01*
X71372157Y-71348600D01*
X71374000Y-71367310D01*
X71374000Y-71672427D01*
X71361596Y-71667289D01*
X71254564Y-71646000D01*
X71145436Y-71646000D01*
X71038404Y-71667289D01*
X70937582Y-71709051D01*
X70846845Y-71769680D01*
X70800000Y-71816525D01*
X70738351Y-71754876D01*
X70647614Y-71694247D01*
X70618344Y-71682123D01*
X70682293Y-71676134D01*
X70802164Y-71640401D01*
X70912761Y-71581968D01*
X71002234Y-71506346D01*
X71002234Y-71281840D01*
X70189592Y-70469197D01*
X70175450Y-70483340D01*
X69995844Y-70303734D01*
X70009987Y-70289592D01*
X69995844Y-70275450D01*
X70175450Y-70095844D01*
X70189592Y-70109987D01*
X70203735Y-70095845D01*
X70383340Y-70275450D01*
X70369197Y-70289592D01*
X71181840Y-71102234D01*
X71406346Y-71102234D01*
X71481968Y-71012761D01*
X71540401Y-70902164D01*
X71576134Y-70782293D01*
X71587797Y-70657754D01*
X71576117Y-70544746D01*
X71689125Y-70556426D01*
X71813664Y-70544763D01*
X71933535Y-70509030D01*
X72044132Y-70450597D01*
X72133605Y-70374975D01*
X72133605Y-70150469D01*
X71320963Y-69337826D01*
X71306821Y-69351969D01*
X71127216Y-69172364D01*
X71141358Y-69158221D01*
X70328715Y-68345579D01*
X70312762Y-68345579D01*
X70135894Y-68168711D01*
X70121752Y-68182854D01*
X69942147Y-68003249D01*
X69956289Y-67989106D01*
X69483058Y-67515875D01*
X69258551Y-67515875D01*
X69249838Y-67520243D01*
X69170485Y-67616934D01*
X69111521Y-67727249D01*
X69075212Y-67846947D01*
X69062951Y-67971428D01*
X69075212Y-68095910D01*
X69107884Y-68203620D01*
X68938954Y-68372550D01*
X68888870Y-68433578D01*
X68851654Y-68503205D01*
X68843098Y-68531410D01*
X68788404Y-68542289D01*
X68687582Y-68584051D01*
X68596845Y-68644680D01*
X68519680Y-68721845D01*
X68459051Y-68812582D01*
X68417289Y-68913404D01*
X68396000Y-69020436D01*
X68396000Y-69088097D01*
X67621617Y-68313714D01*
X67635899Y-68323257D01*
X67745820Y-68368788D01*
X67862511Y-68392000D01*
X67981489Y-68392000D01*
X68098180Y-68368788D01*
X68208101Y-68323257D01*
X68307027Y-68257157D01*
X68391157Y-68173027D01*
X68457257Y-68074101D01*
X68502788Y-67964180D01*
X68526000Y-67847489D01*
X68526000Y-67728511D01*
X68502788Y-67611820D01*
X68457257Y-67501899D01*
X68391157Y-67402973D01*
X68307027Y-67318843D01*
X68208101Y-67252743D01*
X68098180Y-67207212D01*
X67981489Y-67184000D01*
X67862511Y-67184000D01*
X67745820Y-67207212D01*
X67635899Y-67252743D01*
X67536973Y-67318843D01*
X67452843Y-67402973D01*
X67386743Y-67501899D01*
X67341212Y-67611820D01*
X67318000Y-67728511D01*
X67318000Y-67847489D01*
X67341212Y-67964180D01*
X67386743Y-68074101D01*
X67433606Y-68144237D01*
X67414399Y-68133970D01*
X67366520Y-68119446D01*
X67316727Y-68114542D01*
X67266934Y-68119446D01*
X67219055Y-68133970D01*
X67174930Y-68157556D01*
X67136254Y-68189297D01*
X66853411Y-68472140D01*
X66821670Y-68510816D01*
X66798084Y-68554941D01*
X66783560Y-68602820D01*
X66778656Y-68652613D01*
X66783560Y-68702406D01*
X66798084Y-68750285D01*
X66821670Y-68794410D01*
X66853411Y-68833086D01*
X68196914Y-70176589D01*
X68235590Y-70208330D01*
X68279715Y-70231916D01*
X68327594Y-70246440D01*
X68376562Y-70251263D01*
X68563906Y-70438606D01*
X68545193Y-70448609D01*
X68506517Y-70480350D01*
X68117608Y-70869259D01*
X68085867Y-70907935D01*
X68062281Y-70952060D01*
X68047757Y-70999939D01*
X68042853Y-71049732D01*
X68047757Y-71099525D01*
X68062281Y-71147404D01*
X68085867Y-71191529D01*
X68117608Y-71230205D01*
X68231403Y-71344000D01*
X67208481Y-71344000D01*
X67198973Y-71312658D01*
X67175387Y-71268533D01*
X67143646Y-71229857D01*
X65800143Y-69886354D01*
X65761467Y-69854613D01*
X65717342Y-69831027D01*
X65669463Y-69816503D01*
X65619670Y-69811599D01*
X65569877Y-69816503D01*
X65521998Y-69831027D01*
X65477873Y-69854613D01*
X65439197Y-69886354D01*
X65156354Y-70169197D01*
X65124613Y-70207873D01*
X65101027Y-70251998D01*
X65086503Y-70299877D01*
X65081599Y-70349670D01*
X65086503Y-70399463D01*
X65101027Y-70447342D01*
X65124613Y-70491467D01*
X65156354Y-70530143D01*
X66499857Y-71873646D01*
X66538533Y-71905387D01*
X66582658Y-71928973D01*
X66630537Y-71943497D01*
X66679505Y-71948320D01*
X66712359Y-71981174D01*
X66724289Y-71995711D01*
X66738824Y-72007639D01*
X66782303Y-72043322D01*
X66801332Y-72053493D01*
X66848492Y-72078701D01*
X66920311Y-72100487D01*
X66976287Y-72106000D01*
X66976296Y-72106000D01*
X66994999Y-72107842D01*
X67013702Y-72106000D01*
X68735474Y-72106000D01*
X68754184Y-72107843D01*
X68772894Y-72106000D01*
X68772897Y-72106000D01*
X68828873Y-72100487D01*
X68900692Y-72078701D01*
X68943319Y-72055916D01*
X69248979Y-72361576D01*
X69287655Y-72393317D01*
X69331780Y-72416903D01*
X69379659Y-72431427D01*
X69429452Y-72436331D01*
X69479245Y-72431427D01*
X69527124Y-72416903D01*
X69571249Y-72393317D01*
X69609925Y-72361576D01*
X69831196Y-72140305D01*
X69831196Y-72179989D01*
X69532617Y-72478569D01*
X69527124Y-72475633D01*
X69479245Y-72461109D01*
X69429452Y-72456205D01*
X69379659Y-72461109D01*
X69331780Y-72475633D01*
X69287655Y-72499219D01*
X69248979Y-72530960D01*
X68117608Y-73662331D01*
X68085867Y-73701007D01*
X68062281Y-73745132D01*
X68053236Y-73774950D01*
X67616032Y-74212154D01*
X67599490Y-74207136D01*
X67520922Y-74199398D01*
X67442354Y-74207136D01*
X67366805Y-74230054D01*
X67297178Y-74267270D01*
X67236150Y-74317354D01*
X67027554Y-74525950D01*
X66977470Y-74586978D01*
X66940254Y-74656605D01*
X66917336Y-74732154D01*
X66909598Y-74810722D01*
X66917336Y-74889290D01*
X66918965Y-74894659D01*
X66913596Y-74893030D01*
X66835028Y-74885292D01*
X66756460Y-74893030D01*
X66680911Y-74915948D01*
X66611284Y-74953164D01*
X66550256Y-75003248D01*
X66341660Y-75211844D01*
X66291576Y-75272872D01*
X66254360Y-75342499D01*
X66231442Y-75418048D01*
X66223704Y-75496616D01*
X66231442Y-75575184D01*
X66254360Y-75650733D01*
X66291576Y-75720360D01*
X66341660Y-75781388D01*
X66471706Y-75911434D01*
X66471707Y-77098372D01*
X66138400Y-77098372D01*
X66088607Y-77103276D01*
X66040728Y-77117800D01*
X65996603Y-77141386D01*
X65957927Y-77173127D01*
X65938400Y-77196920D01*
X65918873Y-77173127D01*
X65880197Y-77141386D01*
X65836072Y-77117800D01*
X65788193Y-77103276D01*
X65738400Y-77098372D01*
X64638400Y-77098372D01*
X64588607Y-77103276D01*
X64540728Y-77117800D01*
X64496603Y-77141386D01*
X64457927Y-77173127D01*
X64426186Y-77211803D01*
X64402600Y-77255928D01*
X64388076Y-77303807D01*
X64383172Y-77353600D01*
X64383172Y-78853600D01*
X64388076Y-78903393D01*
X64402600Y-78951272D01*
X64426186Y-78995397D01*
X64457927Y-79034073D01*
X64496603Y-79065814D01*
X64540728Y-79089400D01*
X64588607Y-79103924D01*
X64638400Y-79108828D01*
X64831931Y-79108828D01*
X64812451Y-79137982D01*
X64770689Y-79238804D01*
X64749400Y-79345836D01*
X64749400Y-79454964D01*
X64770689Y-79561996D01*
X64812451Y-79662818D01*
X64849309Y-79717980D01*
X64638400Y-79715528D01*
X64513918Y-79727788D01*
X64394220Y-79764098D01*
X64283906Y-79823063D01*
X64187215Y-79902415D01*
X64107863Y-79999106D01*
X64081000Y-80049362D01*
X64081000Y-68845434D01*
X65371000Y-68845434D01*
X65371000Y-68954562D01*
X65392289Y-69061594D01*
X65434051Y-69162416D01*
X65494680Y-69253153D01*
X65571845Y-69330318D01*
X65662582Y-69390947D01*
X65763404Y-69432709D01*
X65863880Y-69452694D01*
X65932073Y-69520887D01*
X65935032Y-69550935D01*
X65949556Y-69598814D01*
X65973142Y-69642939D01*
X66004883Y-69681615D01*
X67348386Y-71025118D01*
X67387062Y-71056859D01*
X67431187Y-71080445D01*
X67479066Y-71094969D01*
X67528859Y-71099873D01*
X67578652Y-71094969D01*
X67626531Y-71080445D01*
X67670656Y-71056859D01*
X67709332Y-71025118D01*
X67992175Y-70742275D01*
X68023916Y-70703599D01*
X68047502Y-70659474D01*
X68062026Y-70611595D01*
X68066930Y-70561802D01*
X68062026Y-70512009D01*
X68047502Y-70464130D01*
X68023916Y-70420005D01*
X67992175Y-70381329D01*
X66648672Y-69037826D01*
X66609996Y-69006085D01*
X66565871Y-68982499D01*
X66517992Y-68967975D01*
X66477133Y-68963951D01*
X66479000Y-68954562D01*
X66479000Y-68845434D01*
X66457711Y-68738402D01*
X66415949Y-68637580D01*
X66355320Y-68546843D01*
X66278155Y-68469678D01*
X66187418Y-68409049D01*
X66086596Y-68367287D01*
X65979564Y-68345998D01*
X65870436Y-68345998D01*
X65763404Y-68367287D01*
X65662582Y-68409049D01*
X65571845Y-68469678D01*
X65494680Y-68546843D01*
X65434051Y-68637580D01*
X65392289Y-68738402D01*
X65371000Y-68845434D01*
X64081000Y-68845434D01*
X64081000Y-67457814D01*
X64427052Y-67111763D01*
X69662663Y-67111763D01*
X69662663Y-67336270D01*
X70135894Y-67809501D01*
X70591448Y-67353947D01*
X70591448Y-67129441D01*
X70569401Y-67103050D01*
X70472710Y-67023697D01*
X70362396Y-66964733D01*
X70242698Y-66928424D01*
X70118216Y-66916163D01*
X69993735Y-66928424D01*
X69874037Y-66964733D01*
X69763722Y-67023697D01*
X69667031Y-67103050D01*
X69662663Y-67111763D01*
X64427052Y-67111763D01*
X64487440Y-67051376D01*
X64512696Y-67037876D01*
X64570711Y-66990265D01*
X64582646Y-66975722D01*
X65612932Y-65945436D01*
X68246000Y-65945436D01*
X68246000Y-66054564D01*
X68267289Y-66161596D01*
X68309051Y-66262418D01*
X68369680Y-66353155D01*
X68446845Y-66430320D01*
X68537582Y-66490949D01*
X68638404Y-66532711D01*
X68745436Y-66554000D01*
X68854564Y-66554000D01*
X68961596Y-66532711D01*
X69062418Y-66490949D01*
X69153155Y-66430320D01*
X69230320Y-66353155D01*
X69290949Y-66262418D01*
X69332711Y-66161596D01*
X69354000Y-66054564D01*
X69354000Y-65945436D01*
X69332711Y-65838404D01*
X69290949Y-65737582D01*
X69230320Y-65646845D01*
X69153155Y-65569680D01*
X69062418Y-65509051D01*
X68961596Y-65467289D01*
X68854564Y-65446000D01*
X68745436Y-65446000D01*
X68638404Y-65467289D01*
X68537582Y-65509051D01*
X68446845Y-65569680D01*
X68369680Y-65646845D01*
X68309051Y-65737582D01*
X68267289Y-65838404D01*
X68246000Y-65945436D01*
X65612932Y-65945436D01*
X66377369Y-65181000D01*
X75866450Y-65181000D01*
X76150539Y-65465090D01*
G36*
X75828062Y-76851543D02*
G01*
X75813919Y-76865685D01*
X75828062Y-76879827D01*
X75648456Y-77059433D01*
X75634314Y-77045290D01*
X75620172Y-77059433D01*
X75440566Y-76879827D01*
X75454709Y-76865685D01*
X75440566Y-76851543D01*
X75620172Y-76671937D01*
X75634314Y-76686080D01*
X75648456Y-76671937D01*
X75828062Y-76851543D01*
X75828062Y-76851543D01*
G37*
X75828062Y-76851543D02*
X75813919Y-76865685D01*
X75828062Y-76879827D01*
X75648456Y-77059433D01*
X75634314Y-77045290D01*
X75620172Y-77059433D01*
X75440566Y-76879827D01*
X75454709Y-76865685D01*
X75440566Y-76851543D01*
X75620172Y-76671937D01*
X75634314Y-76686080D01*
X75648456Y-76671937D01*
X75828062Y-76851543D01*
M02*
