G04 #@! TF.GenerationSoftware,KiCad,Pcbnew,(5.1.2)-2*
G04 #@! TF.CreationDate,2020-03-09T10:25:20+01:00*
G04 #@! TF.ProjectId,ACM-pcb,41434d2d-7063-4622-9e6b-696361645f70,rev?*
G04 #@! TF.SameCoordinates,Original*
G04 #@! TF.FileFunction,Legend,Bot*
G04 #@! TF.FilePolarity,Positive*
%FSLAX46Y46*%
G04 Gerber Fmt 4.6, Leading zero omitted, Abs format (unit mm)*
G04 Created by KiCad (PCBNEW (5.1.2)-2) date 2020-03-09 10:25:20*
%MOMM*%
%LPD*%
G04 APERTURE LIST*
%ADD10C,0.150000*%
%ADD11C,0.100000*%
%ADD12C,0.325000*%
%ADD13C,0.120000*%
%ADD14C,0.254000*%
G04 APERTURE END LIST*
D10*
X66579851Y-76552469D02*
X66697702Y-76670320D01*
X67404809Y-75963213D01*
X67286958Y-75845362D01*
X66956975Y-75609660D02*
X66862694Y-75515379D01*
X66791983Y-75491809D01*
X66697702Y-75491809D01*
X66579851Y-75562519D01*
X66414860Y-75727511D01*
X66344149Y-75845362D01*
X66344149Y-75939643D01*
X66367719Y-76010354D01*
X66462000Y-76104634D01*
X66532711Y-76128205D01*
X66626992Y-76128205D01*
X66744843Y-76057494D01*
X66909834Y-75892502D01*
X66980545Y-75774651D01*
X66980545Y-75680370D01*
X66956975Y-75609660D01*
X66367719Y-75350387D02*
X65872744Y-75845362D01*
X66344149Y-75373957D02*
X66320579Y-75303247D01*
X66226298Y-75208966D01*
X66155587Y-75185396D01*
X66108447Y-75185396D01*
X66037736Y-75208966D01*
X65896315Y-75350387D01*
X65872744Y-75421098D01*
X65872744Y-75468238D01*
X65896315Y-75538949D01*
X65990596Y-75633230D01*
X66061306Y-75656800D01*
X65990596Y-74973264D02*
X65802034Y-74784702D01*
X66084877Y-74737561D02*
X65660612Y-75161825D01*
X65589902Y-75185396D01*
X65519191Y-75161825D01*
X65472051Y-75114685D01*
X65307059Y-74949693D02*
X65637042Y-74619710D01*
X65802034Y-74454719D02*
X65802034Y-74501859D01*
X65754893Y-74501859D01*
X65754893Y-74454719D01*
X65802034Y-74454719D01*
X65754893Y-74501859D01*
X65000646Y-74643280D02*
X65071357Y-74666851D01*
X65118497Y-74666851D01*
X65189208Y-74643280D01*
X65330629Y-74501859D01*
X65354199Y-74431148D01*
X65354200Y-74384008D01*
X65330629Y-74313297D01*
X65259919Y-74242587D01*
X65189208Y-74219016D01*
X65142067Y-74219016D01*
X65071357Y-74242587D01*
X64929935Y-74384008D01*
X64906365Y-74454719D01*
X64906365Y-74501859D01*
X64929935Y-74572570D01*
X65000646Y-74643280D01*
X64953506Y-73936174D02*
X64623522Y-74266157D01*
X64906365Y-73983314D02*
X64906365Y-73936174D01*
X64882795Y-73865463D01*
X64812084Y-73794752D01*
X64741374Y-73771182D01*
X64670663Y-73794752D01*
X64411390Y-74054025D01*
X63963556Y-73606190D02*
X64222829Y-73346918D01*
X64293539Y-73323348D01*
X64364250Y-73346918D01*
X64458531Y-73441199D01*
X64482101Y-73511910D01*
X63987126Y-73582620D02*
X64010697Y-73653331D01*
X64128548Y-73771182D01*
X64199258Y-73794752D01*
X64269969Y-73771182D01*
X64317110Y-73724042D01*
X64340680Y-73653331D01*
X64317110Y-73582620D01*
X64199258Y-73464769D01*
X64175688Y-73394058D01*
X63657143Y-73299778D02*
X63727854Y-73323348D01*
X63798565Y-73299778D01*
X64222829Y-72875513D01*
X63350730Y-73323348D02*
X63232879Y-73205497D01*
X63939986Y-72498390D01*
X64057837Y-72616241D01*
X80824438Y-90887419D02*
X80776819Y-90744561D01*
X80776819Y-90506466D01*
X80824438Y-90411228D01*
X80872057Y-90363609D01*
X80967295Y-90315990D01*
X81062533Y-90315990D01*
X81157771Y-90363609D01*
X81205390Y-90411228D01*
X81253009Y-90506466D01*
X81300628Y-90696942D01*
X81348247Y-90792180D01*
X81395866Y-90839800D01*
X81491104Y-90887419D01*
X81586342Y-90887419D01*
X81681580Y-90839800D01*
X81729200Y-90792180D01*
X81776819Y-90696942D01*
X81776819Y-90458847D01*
X81729200Y-90315990D01*
X80776819Y-89887419D02*
X81776819Y-89887419D01*
X80776819Y-89315990D01*
X81776819Y-89315990D01*
X80872057Y-88839800D02*
X80824438Y-88792180D01*
X80776819Y-88839800D01*
X80824438Y-88887419D01*
X80872057Y-88839800D01*
X80776819Y-88839800D01*
X81395866Y-88839800D02*
X81348247Y-88792180D01*
X81300628Y-88839800D01*
X81348247Y-88887419D01*
X81395866Y-88839800D01*
X81300628Y-88839800D01*
D11*
G36*
X82355200Y-88442800D02*
G01*
X79756000Y-88442800D01*
X79726400Y-78663800D01*
X82325600Y-78663800D01*
X82355200Y-88442800D01*
G37*
X82355200Y-88442800D02*
X79756000Y-88442800D01*
X79726400Y-78663800D01*
X82325600Y-78663800D01*
X82355200Y-88442800D01*
D12*
X73937144Y-73853781D02*
G75*
G03X73937144Y-73853781I-162500J0D01*
G01*
D13*
X67099927Y-73693878D02*
X66869722Y-73463673D01*
X66378678Y-74415127D02*
X66148473Y-74184922D01*
D11*
X71622000Y-70688000D02*
X72422000Y-70688000D01*
X71622000Y-68588000D02*
X71622000Y-70688000D01*
X77222000Y-67488000D02*
X77222000Y-69588000D01*
X76422000Y-67488000D02*
X77222000Y-67488000D01*
D13*
X75800000Y-89700000D02*
X77650000Y-89700000D01*
X75800000Y-88500000D02*
X77650000Y-88500000D01*
X77650000Y-88500000D02*
X77650000Y-89700000D01*
X76840000Y-85020000D02*
X75380000Y-85020000D01*
X76840000Y-88180000D02*
X74680000Y-88180000D01*
X76840000Y-88180000D02*
X76840000Y-87250000D01*
X76840000Y-85020000D02*
X76840000Y-85950000D01*
X78110000Y-86000279D02*
X78110000Y-85674721D01*
X79130000Y-86000279D02*
X79130000Y-85674721D01*
X74140000Y-87274000D02*
X74140000Y-85424000D01*
X72940000Y-87274000D02*
X72940000Y-85424000D01*
X72940000Y-85424000D02*
X74140000Y-85424000D01*
D14*
X74739693Y-77837805D02*
X73841668Y-76939780D01*
X73713378Y-78693068D02*
X73798904Y-78693068D01*
X73969957Y-78607541D01*
X74055483Y-78522015D01*
X74141009Y-78350963D01*
X74141009Y-78179910D01*
X74098246Y-78051621D01*
X73969957Y-77837805D01*
X73841668Y-77709516D01*
X73627852Y-77581226D01*
X73499563Y-77538463D01*
X73328510Y-77538463D01*
X73157458Y-77623990D01*
X73071931Y-77709516D01*
X72986405Y-77880568D01*
X72986405Y-77966095D01*
X72943642Y-79633856D02*
X73456800Y-79120699D01*
X73200221Y-79377278D02*
X72302195Y-78479252D01*
X72516011Y-78522015D01*
X72687063Y-78522015D01*
X72815353Y-78479252D01*
D10*
X68137066Y-81357742D02*
X68184685Y-81405361D01*
X68327542Y-81452980D01*
X68422780Y-81452980D01*
X68565638Y-81405361D01*
X68660876Y-81310123D01*
X68708495Y-81214885D01*
X68756114Y-81024409D01*
X68756114Y-80881552D01*
X68708495Y-80691076D01*
X68660876Y-80595838D01*
X68565638Y-80500600D01*
X68422780Y-80452980D01*
X68327542Y-80452980D01*
X68184685Y-80500600D01*
X68137066Y-80548219D01*
X67565638Y-80881552D02*
X67660876Y-80833933D01*
X67708495Y-80786314D01*
X67756114Y-80691076D01*
X67756114Y-80643457D01*
X67708495Y-80548219D01*
X67660876Y-80500600D01*
X67565638Y-80452980D01*
X67375161Y-80452980D01*
X67279923Y-80500600D01*
X67232304Y-80548219D01*
X67184685Y-80643457D01*
X67184685Y-80691076D01*
X67232304Y-80786314D01*
X67279923Y-80833933D01*
X67375161Y-80881552D01*
X67565638Y-80881552D01*
X67660876Y-80929171D01*
X67708495Y-80976790D01*
X67756114Y-81072028D01*
X67756114Y-81262504D01*
X67708495Y-81357742D01*
X67660876Y-81405361D01*
X67565638Y-81452980D01*
X67375161Y-81452980D01*
X67279923Y-81405361D01*
X67232304Y-81357742D01*
X67184685Y-81262504D01*
X67184685Y-81072028D01*
X67232304Y-80976790D01*
X67279923Y-80929171D01*
X67375161Y-80881552D01*
X64593369Y-72599132D02*
X65165789Y-72498117D01*
X64997430Y-73003193D02*
X65704537Y-72296087D01*
X65435163Y-72026712D01*
X65334148Y-71993041D01*
X65266804Y-71993041D01*
X65165789Y-72026712D01*
X65064774Y-72127728D01*
X65031102Y-72228743D01*
X65031102Y-72296087D01*
X65064774Y-72397102D01*
X65334148Y-72666476D01*
X65064774Y-71656323D02*
X64593369Y-71184919D01*
X64189308Y-72195071D01*
D14*
X75460980Y-65446123D02*
X75460980Y-64176123D01*
X74977171Y-64176123D01*
X74856219Y-64236600D01*
X74795742Y-64297076D01*
X74735266Y-64418028D01*
X74735266Y-64599457D01*
X74795742Y-64720409D01*
X74856219Y-64780885D01*
X74977171Y-64841361D01*
X75460980Y-64841361D01*
X73525742Y-65446123D02*
X74251457Y-65446123D01*
X73888600Y-65446123D02*
X73888600Y-64176123D01*
X74009552Y-64357552D01*
X74130504Y-64478504D01*
X74251457Y-64538980D01*
D10*
X77293695Y-91028780D02*
X77293695Y-90028780D01*
X77055600Y-90028780D01*
X76912742Y-90076400D01*
X76817504Y-90171638D01*
X76769885Y-90266876D01*
X76722266Y-90457352D01*
X76722266Y-90600209D01*
X76769885Y-90790685D01*
X76817504Y-90885923D01*
X76912742Y-90981161D01*
X77055600Y-91028780D01*
X77293695Y-91028780D01*
X75769885Y-91028780D02*
X76341314Y-91028780D01*
X76055600Y-91028780D02*
X76055600Y-90028780D01*
X76150838Y-90171638D01*
X76246076Y-90266876D01*
X76341314Y-90314495D01*
X72328066Y-89631780D02*
X72661400Y-89155590D01*
X72899495Y-89631780D02*
X72899495Y-88631780D01*
X72518542Y-88631780D01*
X72423304Y-88679400D01*
X72375685Y-88727019D01*
X72328066Y-88822257D01*
X72328066Y-88965114D01*
X72375685Y-89060352D01*
X72423304Y-89107971D01*
X72518542Y-89155590D01*
X72899495Y-89155590D01*
X71947114Y-88727019D02*
X71899495Y-88679400D01*
X71804257Y-88631780D01*
X71566161Y-88631780D01*
X71470923Y-88679400D01*
X71423304Y-88727019D01*
X71375685Y-88822257D01*
X71375685Y-88917495D01*
X71423304Y-89060352D01*
X71994733Y-89631780D01*
X71375685Y-89631780D01*
X76092038Y-84748619D02*
X76187276Y-84701000D01*
X76282514Y-84605761D01*
X76425371Y-84462904D01*
X76520609Y-84415285D01*
X76615847Y-84415285D01*
X76568228Y-84653380D02*
X76663466Y-84605761D01*
X76758704Y-84510523D01*
X76806323Y-84320047D01*
X76806323Y-83986714D01*
X76758704Y-83796238D01*
X76663466Y-83701000D01*
X76568228Y-83653380D01*
X76377752Y-83653380D01*
X76282514Y-83701000D01*
X76187276Y-83796238D01*
X76139657Y-83986714D01*
X76139657Y-84320047D01*
X76187276Y-84510523D01*
X76282514Y-84605761D01*
X76377752Y-84653380D01*
X76568228Y-84653380D01*
X75187276Y-84653380D02*
X75758704Y-84653380D01*
X75472990Y-84653380D02*
X75472990Y-83653380D01*
X75568228Y-83796238D01*
X75663466Y-83891476D01*
X75758704Y-83939095D01*
X78870133Y-83646971D02*
X79203466Y-83646971D01*
X79203466Y-84170780D02*
X79203466Y-83170780D01*
X78727276Y-83170780D01*
X77822514Y-84170780D02*
X78393942Y-84170780D01*
X78108228Y-84170780D02*
X78108228Y-83170780D01*
X78203466Y-83313638D01*
X78298704Y-83408876D01*
X78393942Y-83456495D01*
X72620095Y-87015580D02*
X72620095Y-86015580D01*
X72382000Y-86015580D01*
X72239142Y-86063200D01*
X72143904Y-86158438D01*
X72096285Y-86253676D01*
X72048666Y-86444152D01*
X72048666Y-86587009D01*
X72096285Y-86777485D01*
X72143904Y-86872723D01*
X72239142Y-86967961D01*
X72382000Y-87015580D01*
X72620095Y-87015580D01*
X71667714Y-86110819D02*
X71620095Y-86063200D01*
X71524857Y-86015580D01*
X71286761Y-86015580D01*
X71191523Y-86063200D01*
X71143904Y-86110819D01*
X71096285Y-86206057D01*
X71096285Y-86301295D01*
X71143904Y-86444152D01*
X71715333Y-87015580D01*
X71096285Y-87015580D01*
X78097312Y-76367189D02*
X78097312Y-76434532D01*
X78164656Y-76569219D01*
X78232000Y-76636563D01*
X78366687Y-76703906D01*
X78501374Y-76703906D01*
X78602389Y-76670235D01*
X78770748Y-76569219D01*
X78871763Y-76468204D01*
X78972778Y-76299845D01*
X79006450Y-76198830D01*
X79006450Y-76064143D01*
X78939106Y-75929456D01*
X78871763Y-75862112D01*
X78737076Y-75794769D01*
X78669732Y-75794769D01*
X78501374Y-75491723D02*
X78029969Y-75020319D01*
X77625908Y-76030471D01*
X79875312Y-75884589D02*
X79875312Y-75951932D01*
X79942656Y-76086619D01*
X80010000Y-76153963D01*
X80144687Y-76221306D01*
X80279374Y-76221306D01*
X80380389Y-76187635D01*
X80548748Y-76086619D01*
X80649763Y-75985604D01*
X80750778Y-75817245D01*
X80784450Y-75716230D01*
X80784450Y-75581543D01*
X80717106Y-75446856D01*
X80649763Y-75379512D01*
X80515076Y-75312169D01*
X80447732Y-75312169D01*
X79908984Y-74638734D02*
X80043671Y-74773421D01*
X80077343Y-74874436D01*
X80077343Y-74941780D01*
X80043671Y-75110138D01*
X79942656Y-75278497D01*
X79673282Y-75547871D01*
X79572267Y-75581543D01*
X79504923Y-75581543D01*
X79403908Y-75547871D01*
X79269221Y-75413184D01*
X79235549Y-75312169D01*
X79235549Y-75244825D01*
X79269221Y-75143810D01*
X79437580Y-74975451D01*
X79538595Y-74941780D01*
X79605938Y-74941780D01*
X79706954Y-74975451D01*
X79841641Y-75110138D01*
X79875312Y-75211154D01*
X79875312Y-75278497D01*
X79841641Y-75379512D01*
X76028132Y-73608030D02*
X75927117Y-73035610D01*
X76432193Y-73203969D02*
X75725087Y-72496862D01*
X75455712Y-72766236D01*
X75422041Y-72867251D01*
X75422041Y-72934595D01*
X75455712Y-73035610D01*
X75556728Y-73136625D01*
X75657743Y-73170297D01*
X75725087Y-73170297D01*
X75826102Y-73136625D01*
X76095476Y-72867251D01*
X74714934Y-73507015D02*
X74849621Y-73372328D01*
X74950636Y-73338656D01*
X75017980Y-73338656D01*
X75186338Y-73372328D01*
X75354697Y-73473343D01*
X75624071Y-73742717D01*
X75657743Y-73843732D01*
X75657743Y-73911076D01*
X75624071Y-74012091D01*
X75489384Y-74146778D01*
X75388369Y-74180450D01*
X75321025Y-74180450D01*
X75220010Y-74146778D01*
X75051651Y-73978419D01*
X75017980Y-73877404D01*
X75017980Y-73810061D01*
X75051651Y-73709045D01*
X75186338Y-73574358D01*
X75287354Y-73540687D01*
X75354697Y-73540687D01*
X75455712Y-73574358D01*
X66771904Y-89402380D02*
X66771904Y-88402380D01*
X66771904Y-88878571D02*
X66200476Y-88878571D01*
X66200476Y-89402380D02*
X66200476Y-88402380D01*
X65200476Y-89402380D02*
X65771904Y-89402380D01*
X65486190Y-89402380D02*
X65486190Y-88402380D01*
X65581428Y-88545238D01*
X65676666Y-88640476D01*
X65771904Y-88688095D01*
M02*
