M48
; DRILL file {KiCad (5.1.4)-1} date 30. jan. 2020 13:19:50
; FORMAT={-:-/ absolute / metric / decimal}
; #@! TF.CreationDate,2020-01-30T13:19:50+01:00
; #@! TF.GenerationSoftware,Kicad,Pcbnew,(5.1.4)-1
FMAT,2
METRIC
T1C0.400
T2C0.500
T3C1.000
T4C1.200
T5C2.500
%
G90
G05
T1
X113.584Y-132.237
X114.082Y-127.935
X114.167Y-93.089
X114.823Y-119.873
X114.912Y-82.928
X115.042Y-92.583
X116.228Y-82.332
X116.5Y-105.25
X118.166Y-129.2
X125.877Y-78.577
X125.984Y-92.243
X126.365Y-80.752
X127.706Y-87.3
X128.849Y-98.163
X129.06Y-100.721
X130.228Y-100.526
X130.472Y-97.963
X130.726Y-76.479
X131.364Y-95.726
X131.536Y-73.462
X132.42Y-100.589
X137.058Y-126.347
X137.622Y-108.384
X139.052Y-116.329
X141.552Y-116.157
X142.418Y-95.814
X144.109Y-97.153
X144.531Y-87.859
X145.918Y-126.868
X146.538Y-94.285
X149.139Y-126.208
X150.52Y-91.013
X151.74Y-90.902
X153.228Y-126.492
X153.482Y-88.153
X154.396Y-96.413
X154.412Y-78.75
X154.564Y-126.406
X154.656Y-92.705
X154.818Y-74.717
X155.666Y-126.492
X156.53Y-77.272
X156.845Y-127.051
X157.844Y-126.996
X157.955Y-112.067
X158.552Y-96.799
X159.024Y-126.949
X160.101Y-77.379
X160.137Y-127.086
X164.501Y-74.767
X166.004Y-77.963
X166.502Y-99.954
X167.0Y-96.596
X167.498Y-101.925
X169.382Y-125.07
X169.621Y-97.475
X170.205Y-88.158
X172.441Y-129.261
X172.654Y-79.929
X172.745Y-134.325
X173.126Y-124.445
X173.284Y-95.438
X173.848Y-118.588
X173.893Y-84.176
X173.909Y-114.31
T2
X113.75Y-106.5
X121.113Y-102.225
X121.315Y-106.289
X122.063Y-88.484
X138.181Y-97.033
X141.481Y-125.984
X144.363Y-114.816
X145.141Y-98.003
X146.877Y-114.868
X149.216Y-96.618
X149.25Y-112.06
X161.536Y-108.113
X161.694Y-85.575
X165.347Y-118.012
X170.523Y-115.717
T3
X113.477Y-123.292
X117.5Y-101.5
X118.354Y-111.59
X121.702Y-129.611
X135.377Y-93.703
X160.947Y-125.006
X161.764Y-96.103
X162.57Y-83.972
X164.808Y-116.4
X172.182Y-105.392
X172.156Y-102.095
X126.596Y-103.142
X126.596Y-118.382
X129.136Y-103.142
X129.136Y-118.382
X131.676Y-103.142
X131.676Y-118.382
X134.216Y-103.142
X134.216Y-118.382
X136.756Y-103.142
X136.756Y-118.382
X139.296Y-103.142
X139.296Y-118.382
X141.836Y-103.142
X141.836Y-118.382
X144.376Y-103.142
X144.376Y-118.382
X146.916Y-103.142
X146.916Y-118.382
X149.456Y-103.142
X149.456Y-118.382
X151.996Y-103.142
X151.996Y-105.682
X151.996Y-108.222
X151.996Y-110.762
X151.996Y-113.302
X151.996Y-115.842
X151.996Y-118.382
X154.536Y-103.142
X154.536Y-105.682
X154.536Y-118.382
X154.596Y-108.222
X154.596Y-110.762
X154.596Y-113.302
X154.596Y-115.842
X157.076Y-103.142
X157.076Y-118.382
X159.616Y-103.142
X159.616Y-105.682
X159.616Y-108.222
X159.616Y-110.762
X159.616Y-113.302
X159.616Y-115.842
X159.616Y-118.382
X172.156Y-108.544
T4
X119.31Y-140.421
X119.31Y-142.271
X119.31Y-144.121
X166.81Y-140.421
X166.81Y-142.271
X166.81Y-144.121
T5
X172.58Y-74.643
X172.58Y-142.644
X113.597Y-142.644
X113.597Y-74.643
T0
M30
