G04 #@! TF.GenerationSoftware,KiCad,Pcbnew,(5.1.6)-1*
G04 #@! TF.CreationDate,2020-12-13T19:26:13+01:00*
G04 #@! TF.ProjectId,ACM-pcb,41434d2d-7063-4622-9e6b-696361645f70,rev?*
G04 #@! TF.SameCoordinates,Original*
G04 #@! TF.FileFunction,Soldermask,Top*
G04 #@! TF.FilePolarity,Negative*
%FSLAX46Y46*%
G04 Gerber Fmt 4.6, Leading zero omitted, Abs format (unit mm)*
G04 Created by KiCad (PCBNEW (5.1.6)-1) date 2020-12-13 19:26:13*
%MOMM*%
%LPD*%
G01*
G04 APERTURE LIST*
%ADD10C,0.100000*%
G04 APERTURE END LIST*
D10*
G36*
X80164938Y-89549716D02*
G01*
X80185557Y-89555971D01*
X80204553Y-89566124D01*
X80221208Y-89579792D01*
X80234876Y-89596447D01*
X80245029Y-89615443D01*
X80251284Y-89636062D01*
X80254000Y-89663640D01*
X80254000Y-90122360D01*
X80251284Y-90149938D01*
X80245029Y-90170557D01*
X80234876Y-90189553D01*
X80221208Y-90206208D01*
X80204553Y-90219876D01*
X80185557Y-90230029D01*
X80164938Y-90236284D01*
X80137360Y-90239000D01*
X79628640Y-90239000D01*
X79601062Y-90236284D01*
X79580443Y-90230029D01*
X79561447Y-90219876D01*
X79544792Y-90206208D01*
X79531124Y-90189553D01*
X79520971Y-90170557D01*
X79514716Y-90149938D01*
X79512000Y-90122360D01*
X79512000Y-89663640D01*
X79514716Y-89636062D01*
X79520971Y-89615443D01*
X79531124Y-89596447D01*
X79544792Y-89579792D01*
X79561447Y-89566124D01*
X79580443Y-89555971D01*
X79601062Y-89549716D01*
X79628640Y-89547000D01*
X80137360Y-89547000D01*
X80164938Y-89549716D01*
G37*
G36*
X66224549Y-87871116D02*
G01*
X66335734Y-87893232D01*
X66545203Y-87979997D01*
X66733720Y-88105960D01*
X66894040Y-88266280D01*
X67020003Y-88454797D01*
X67078543Y-88596124D01*
X67106768Y-88664267D01*
X67151000Y-88886635D01*
X67151000Y-89113365D01*
X67143243Y-89152360D01*
X67106768Y-89335734D01*
X67020003Y-89545203D01*
X66894040Y-89733720D01*
X66733720Y-89894040D01*
X66545203Y-90020003D01*
X66335734Y-90106768D01*
X66257347Y-90122360D01*
X66113365Y-90151000D01*
X65886635Y-90151000D01*
X65742653Y-90122360D01*
X65664266Y-90106768D01*
X65454797Y-90020003D01*
X65266280Y-89894040D01*
X65105960Y-89733720D01*
X64979997Y-89545203D01*
X64893232Y-89335734D01*
X64856757Y-89152360D01*
X64849000Y-89113365D01*
X64849000Y-88886635D01*
X64893232Y-88664267D01*
X64921458Y-88596124D01*
X64979997Y-88454797D01*
X65105960Y-88266280D01*
X65266280Y-88105960D01*
X65454797Y-87979997D01*
X65664266Y-87893232D01*
X65775451Y-87871116D01*
X65886635Y-87849000D01*
X66113365Y-87849000D01*
X66224549Y-87871116D01*
G37*
G36*
X73791000Y-89893000D02*
G01*
X72889000Y-89893000D01*
X72889000Y-88891000D01*
X73791000Y-88891000D01*
X73791000Y-89893000D01*
G37*
G36*
X71891000Y-89893000D02*
G01*
X70989000Y-89893000D01*
X70989000Y-88891000D01*
X71891000Y-88891000D01*
X71891000Y-89893000D01*
G37*
G36*
X80164938Y-88579716D02*
G01*
X80185557Y-88585971D01*
X80204553Y-88596124D01*
X80221208Y-88609792D01*
X80234876Y-88626447D01*
X80245029Y-88645443D01*
X80251284Y-88666062D01*
X80254000Y-88693640D01*
X80254000Y-89152360D01*
X80251284Y-89179938D01*
X80245029Y-89200557D01*
X80234876Y-89219553D01*
X80221208Y-89236208D01*
X80204553Y-89249876D01*
X80185557Y-89260029D01*
X80164938Y-89266284D01*
X80137360Y-89269000D01*
X79628640Y-89269000D01*
X79601062Y-89266284D01*
X79580443Y-89260029D01*
X79561447Y-89249876D01*
X79544792Y-89236208D01*
X79531124Y-89219553D01*
X79520971Y-89200557D01*
X79514716Y-89179938D01*
X79512000Y-89152360D01*
X79512000Y-88693640D01*
X79514716Y-88666062D01*
X79520971Y-88645443D01*
X79531124Y-88626447D01*
X79544792Y-88609792D01*
X79561447Y-88596124D01*
X79580443Y-88585971D01*
X79601062Y-88579716D01*
X79628640Y-88577000D01*
X80137360Y-88577000D01*
X80164938Y-88579716D01*
G37*
G36*
X72841000Y-87893000D02*
G01*
X71939000Y-87893000D01*
X71939000Y-86891000D01*
X72841000Y-86891000D01*
X72841000Y-87893000D01*
G37*
G36*
X80725000Y-84844001D02*
G01*
X80727402Y-84868387D01*
X80734515Y-84891836D01*
X80746066Y-84913447D01*
X80761611Y-84932389D01*
X80775000Y-84943377D01*
X80775000Y-86696623D01*
X80761611Y-86707611D01*
X80746066Y-86726553D01*
X80734515Y-86748164D01*
X80727402Y-86771613D01*
X80725000Y-86795999D01*
X80725000Y-87746000D01*
X78323000Y-87746000D01*
X78323000Y-86795999D01*
X78320598Y-86771613D01*
X78313485Y-86748164D01*
X78301934Y-86726553D01*
X78286389Y-86707611D01*
X78273000Y-86696623D01*
X78273000Y-84943377D01*
X78286389Y-84932389D01*
X78301934Y-84913447D01*
X78313485Y-84891836D01*
X78320598Y-84868387D01*
X78323000Y-84844001D01*
X78323000Y-83894000D01*
X80725000Y-83894000D01*
X80725000Y-84844001D01*
G37*
G36*
X77142338Y-87035116D02*
G01*
X77162957Y-87041371D01*
X77181953Y-87051524D01*
X77198608Y-87065192D01*
X77212276Y-87081847D01*
X77222429Y-87100843D01*
X77228684Y-87121462D01*
X77231400Y-87149040D01*
X77231400Y-87607760D01*
X77228684Y-87635338D01*
X77222429Y-87655957D01*
X77212276Y-87674953D01*
X77198608Y-87691608D01*
X77181953Y-87705276D01*
X77162957Y-87715429D01*
X77142338Y-87721684D01*
X77114760Y-87724400D01*
X76606040Y-87724400D01*
X76578462Y-87721684D01*
X76557843Y-87715429D01*
X76538847Y-87705276D01*
X76522192Y-87691608D01*
X76508524Y-87674953D01*
X76498371Y-87655957D01*
X76492116Y-87635338D01*
X76489400Y-87607760D01*
X76489400Y-87149040D01*
X76492116Y-87121462D01*
X76498371Y-87100843D01*
X76508524Y-87081847D01*
X76522192Y-87065192D01*
X76538847Y-87051524D01*
X76557843Y-87041371D01*
X76578462Y-87035116D01*
X76606040Y-87032400D01*
X77114760Y-87032400D01*
X77142338Y-87035116D01*
G37*
G36*
X75639791Y-86688585D02*
G01*
X75673769Y-86698893D01*
X75705090Y-86715634D01*
X75732539Y-86738161D01*
X75755066Y-86765610D01*
X75771807Y-86796931D01*
X75782115Y-86830909D01*
X75786200Y-86872390D01*
X75786200Y-87473610D01*
X75782115Y-87515091D01*
X75771807Y-87549069D01*
X75755066Y-87580390D01*
X75732539Y-87607839D01*
X75705090Y-87630366D01*
X75673769Y-87647107D01*
X75639791Y-87657415D01*
X75598310Y-87661500D01*
X74922090Y-87661500D01*
X74880609Y-87657415D01*
X74846631Y-87647107D01*
X74815310Y-87630366D01*
X74787861Y-87607839D01*
X74765334Y-87580390D01*
X74748593Y-87549069D01*
X74738285Y-87515091D01*
X74734200Y-87473610D01*
X74734200Y-86872390D01*
X74738285Y-86830909D01*
X74748593Y-86796931D01*
X74765334Y-86765610D01*
X74787861Y-86738161D01*
X74815310Y-86715634D01*
X74846631Y-86698893D01*
X74880609Y-86688585D01*
X74922090Y-86684500D01*
X75598310Y-86684500D01*
X75639791Y-86688585D01*
G37*
G36*
X66741800Y-87089600D02*
G01*
X65439800Y-87089600D01*
X65439800Y-86087600D01*
X66741800Y-86087600D01*
X66741800Y-87089600D01*
G37*
G36*
X77142338Y-86065116D02*
G01*
X77162957Y-86071371D01*
X77181953Y-86081524D01*
X77198608Y-86095192D01*
X77212276Y-86111847D01*
X77222429Y-86130843D01*
X77228684Y-86151462D01*
X77231400Y-86179040D01*
X77231400Y-86637760D01*
X77228684Y-86665338D01*
X77222429Y-86685957D01*
X77212276Y-86704953D01*
X77198608Y-86721608D01*
X77181953Y-86735276D01*
X77162957Y-86745429D01*
X77142338Y-86751684D01*
X77114760Y-86754400D01*
X76606040Y-86754400D01*
X76578462Y-86751684D01*
X76557843Y-86745429D01*
X76538847Y-86735276D01*
X76522192Y-86721608D01*
X76508524Y-86704953D01*
X76498371Y-86685957D01*
X76492116Y-86665338D01*
X76489400Y-86637760D01*
X76489400Y-86179040D01*
X76492116Y-86151462D01*
X76498371Y-86130843D01*
X76508524Y-86111847D01*
X76522192Y-86095192D01*
X76538847Y-86081524D01*
X76557843Y-86071371D01*
X76578462Y-86065116D01*
X76606040Y-86062400D01*
X77114760Y-86062400D01*
X77142338Y-86065116D01*
G37*
G36*
X68526578Y-85100197D02*
G01*
X68579350Y-85110694D01*
X68678770Y-85151875D01*
X68768246Y-85211661D01*
X68844339Y-85287754D01*
X68904125Y-85377230D01*
X68945306Y-85476650D01*
X68966300Y-85582194D01*
X68966300Y-85689806D01*
X68945306Y-85795350D01*
X68904125Y-85894770D01*
X68844339Y-85984246D01*
X68768246Y-86060339D01*
X68678770Y-86120125D01*
X68579350Y-86161306D01*
X68539684Y-86169196D01*
X68473807Y-86182300D01*
X68366193Y-86182300D01*
X68300316Y-86169196D01*
X68260650Y-86161306D01*
X68161230Y-86120125D01*
X68071754Y-86060339D01*
X67995661Y-85984246D01*
X67935875Y-85894770D01*
X67894694Y-85795350D01*
X67873700Y-85689806D01*
X67873700Y-85582194D01*
X67894694Y-85476650D01*
X67935875Y-85377230D01*
X67995661Y-85287754D01*
X68071754Y-85211661D01*
X68161230Y-85151875D01*
X68260650Y-85110694D01*
X68313422Y-85100197D01*
X68366193Y-85089700D01*
X68473807Y-85089700D01*
X68526578Y-85100197D01*
G37*
G36*
X75639791Y-85113585D02*
G01*
X75673769Y-85123893D01*
X75705090Y-85140634D01*
X75732539Y-85163161D01*
X75755066Y-85190610D01*
X75771807Y-85221931D01*
X75782115Y-85255909D01*
X75786200Y-85297390D01*
X75786200Y-85898610D01*
X75782115Y-85940091D01*
X75771807Y-85974069D01*
X75755066Y-86005390D01*
X75732539Y-86032839D01*
X75705090Y-86055366D01*
X75673769Y-86072107D01*
X75639791Y-86082415D01*
X75598310Y-86086500D01*
X74922090Y-86086500D01*
X74880609Y-86082415D01*
X74846631Y-86072107D01*
X74815310Y-86055366D01*
X74787861Y-86032839D01*
X74765334Y-86005390D01*
X74748593Y-85974069D01*
X74738285Y-85940091D01*
X74734200Y-85898610D01*
X74734200Y-85297390D01*
X74738285Y-85255909D01*
X74748593Y-85221931D01*
X74765334Y-85190610D01*
X74787861Y-85163161D01*
X74815310Y-85140634D01*
X74846631Y-85123893D01*
X74880609Y-85113585D01*
X74922090Y-85109500D01*
X75598310Y-85109500D01*
X75639791Y-85113585D01*
G37*
G36*
X69819714Y-84827389D02*
G01*
X69900645Y-84860912D01*
X69973480Y-84909579D01*
X70035421Y-84971520D01*
X70084088Y-85044355D01*
X70084089Y-85044357D01*
X70117611Y-85125286D01*
X70130605Y-85190610D01*
X70134700Y-85211201D01*
X70134700Y-85298799D01*
X70117611Y-85384714D01*
X70084088Y-85465645D01*
X70035421Y-85538480D01*
X69973480Y-85600421D01*
X69900645Y-85649088D01*
X69900644Y-85649089D01*
X69900643Y-85649089D01*
X69819714Y-85682611D01*
X69733801Y-85699700D01*
X69646199Y-85699700D01*
X69560286Y-85682611D01*
X69479357Y-85649089D01*
X69479356Y-85649089D01*
X69479355Y-85649088D01*
X69406520Y-85600421D01*
X69344579Y-85538480D01*
X69295912Y-85465645D01*
X69262389Y-85384714D01*
X69245300Y-85298799D01*
X69245300Y-85211201D01*
X69249396Y-85190610D01*
X69262389Y-85125286D01*
X69295911Y-85044357D01*
X69295912Y-85044355D01*
X69344579Y-84971520D01*
X69406520Y-84909579D01*
X69479355Y-84860912D01*
X69560286Y-84827389D01*
X69646199Y-84810300D01*
X69733801Y-84810300D01*
X69819714Y-84827389D01*
G37*
G36*
X71089714Y-84827389D02*
G01*
X71170645Y-84860912D01*
X71243480Y-84909579D01*
X71305421Y-84971520D01*
X71354088Y-85044355D01*
X71354089Y-85044357D01*
X71387611Y-85125286D01*
X71400605Y-85190610D01*
X71404700Y-85211201D01*
X71404700Y-85298799D01*
X71387611Y-85384714D01*
X71354088Y-85465645D01*
X71305421Y-85538480D01*
X71243480Y-85600421D01*
X71170645Y-85649088D01*
X71170644Y-85649089D01*
X71170643Y-85649089D01*
X71089714Y-85682611D01*
X71003801Y-85699700D01*
X70916199Y-85699700D01*
X70830286Y-85682611D01*
X70749357Y-85649089D01*
X70749356Y-85649089D01*
X70749355Y-85649088D01*
X70676520Y-85600421D01*
X70614579Y-85538480D01*
X70565912Y-85465645D01*
X70532389Y-85384714D01*
X70515300Y-85298799D01*
X70515300Y-85211201D01*
X70519396Y-85190610D01*
X70532389Y-85125286D01*
X70565911Y-85044357D01*
X70565912Y-85044355D01*
X70614579Y-84971520D01*
X70676520Y-84909579D01*
X70749355Y-84860912D01*
X70830286Y-84827389D01*
X70916199Y-84810300D01*
X71003801Y-84810300D01*
X71089714Y-84827389D01*
G37*
G36*
X72359714Y-84827389D02*
G01*
X72440645Y-84860912D01*
X72513480Y-84909579D01*
X72575421Y-84971520D01*
X72624088Y-85044355D01*
X72624089Y-85044357D01*
X72657611Y-85125286D01*
X72670605Y-85190610D01*
X72674700Y-85211201D01*
X72674700Y-85298799D01*
X72657611Y-85384714D01*
X72624088Y-85465645D01*
X72575421Y-85538480D01*
X72513480Y-85600421D01*
X72440645Y-85649088D01*
X72440644Y-85649089D01*
X72440643Y-85649089D01*
X72359714Y-85682611D01*
X72273801Y-85699700D01*
X72186199Y-85699700D01*
X72100286Y-85682611D01*
X72019357Y-85649089D01*
X72019356Y-85649089D01*
X72019355Y-85649088D01*
X71946520Y-85600421D01*
X71884579Y-85538480D01*
X71835912Y-85465645D01*
X71802389Y-85384714D01*
X71785300Y-85298799D01*
X71785300Y-85211201D01*
X71789396Y-85190610D01*
X71802389Y-85125286D01*
X71835911Y-85044357D01*
X71835912Y-85044355D01*
X71884579Y-84971520D01*
X71946520Y-84909579D01*
X72019355Y-84860912D01*
X72100286Y-84827389D01*
X72186199Y-84810300D01*
X72273801Y-84810300D01*
X72359714Y-84827389D01*
G37*
G36*
X73606578Y-84084197D02*
G01*
X73659350Y-84094694D01*
X73758770Y-84135875D01*
X73848246Y-84195661D01*
X73924339Y-84271754D01*
X73984125Y-84361230D01*
X74025306Y-84460650D01*
X74046300Y-84566194D01*
X74046300Y-84673806D01*
X74025306Y-84779350D01*
X73984125Y-84878770D01*
X73924339Y-84968246D01*
X73848246Y-85044339D01*
X73758770Y-85104125D01*
X73659350Y-85145306D01*
X73626325Y-85151875D01*
X73553807Y-85166300D01*
X73446193Y-85166300D01*
X73373675Y-85151875D01*
X73340650Y-85145306D01*
X73241230Y-85104125D01*
X73151754Y-85044339D01*
X73075661Y-84968246D01*
X73015875Y-84878770D01*
X72974694Y-84779350D01*
X72953700Y-84673806D01*
X72953700Y-84566194D01*
X72974694Y-84460650D01*
X73015875Y-84361230D01*
X73075661Y-84271754D01*
X73151754Y-84195661D01*
X73241230Y-84135875D01*
X73340650Y-84094694D01*
X73393422Y-84084197D01*
X73446193Y-84073700D01*
X73553807Y-84073700D01*
X73606578Y-84084197D01*
G37*
G36*
X72359714Y-83557389D02*
G01*
X72440645Y-83590912D01*
X72513480Y-83639579D01*
X72575421Y-83701520D01*
X72624088Y-83774355D01*
X72624089Y-83774357D01*
X72657611Y-83855286D01*
X72665312Y-83894000D01*
X72674700Y-83941201D01*
X72674700Y-84028799D01*
X72657611Y-84114714D01*
X72624088Y-84195645D01*
X72575421Y-84268480D01*
X72513480Y-84330421D01*
X72440645Y-84379088D01*
X72440644Y-84379089D01*
X72440643Y-84379089D01*
X72359714Y-84412611D01*
X72273801Y-84429700D01*
X72186199Y-84429700D01*
X72100286Y-84412611D01*
X72019357Y-84379089D01*
X72019356Y-84379089D01*
X72019355Y-84379088D01*
X71946520Y-84330421D01*
X71884579Y-84268480D01*
X71835912Y-84195645D01*
X71802389Y-84114714D01*
X71785300Y-84028799D01*
X71785300Y-83941201D01*
X71794689Y-83894000D01*
X71802389Y-83855286D01*
X71835911Y-83774357D01*
X71835912Y-83774355D01*
X71884579Y-83701520D01*
X71946520Y-83639579D01*
X72019355Y-83590912D01*
X72100286Y-83557389D01*
X72186199Y-83540300D01*
X72273801Y-83540300D01*
X72359714Y-83557389D01*
G37*
G36*
X69819714Y-83557389D02*
G01*
X69900645Y-83590912D01*
X69973480Y-83639579D01*
X70035421Y-83701520D01*
X70084088Y-83774355D01*
X70084089Y-83774357D01*
X70117611Y-83855286D01*
X70125312Y-83894000D01*
X70134700Y-83941201D01*
X70134700Y-84028799D01*
X70117611Y-84114714D01*
X70084088Y-84195645D01*
X70035421Y-84268480D01*
X69973480Y-84330421D01*
X69900645Y-84379088D01*
X69900644Y-84379089D01*
X69900643Y-84379089D01*
X69819714Y-84412611D01*
X69733801Y-84429700D01*
X69646199Y-84429700D01*
X69560286Y-84412611D01*
X69479357Y-84379089D01*
X69479356Y-84379089D01*
X69479355Y-84379088D01*
X69406520Y-84330421D01*
X69344579Y-84268480D01*
X69295912Y-84195645D01*
X69262389Y-84114714D01*
X69245300Y-84028799D01*
X69245300Y-83941201D01*
X69254689Y-83894000D01*
X69262389Y-83855286D01*
X69295911Y-83774357D01*
X69295912Y-83774355D01*
X69344579Y-83701520D01*
X69406520Y-83639579D01*
X69479355Y-83590912D01*
X69560286Y-83557389D01*
X69646199Y-83540300D01*
X69733801Y-83540300D01*
X69819714Y-83557389D01*
G37*
G36*
X71089714Y-83557389D02*
G01*
X71170645Y-83590912D01*
X71243480Y-83639579D01*
X71305421Y-83701520D01*
X71354088Y-83774355D01*
X71354089Y-83774357D01*
X71387611Y-83855286D01*
X71395312Y-83894000D01*
X71404700Y-83941201D01*
X71404700Y-84028799D01*
X71387611Y-84114714D01*
X71354088Y-84195645D01*
X71305421Y-84268480D01*
X71243480Y-84330421D01*
X71170645Y-84379088D01*
X71170644Y-84379089D01*
X71170643Y-84379089D01*
X71089714Y-84412611D01*
X71003801Y-84429700D01*
X70916199Y-84429700D01*
X70830286Y-84412611D01*
X70749357Y-84379089D01*
X70749356Y-84379089D01*
X70749355Y-84379088D01*
X70676520Y-84330421D01*
X70614579Y-84268480D01*
X70565912Y-84195645D01*
X70532389Y-84114714D01*
X70515300Y-84028799D01*
X70515300Y-83941201D01*
X70524689Y-83894000D01*
X70532389Y-83855286D01*
X70565911Y-83774357D01*
X70565912Y-83774355D01*
X70614579Y-83701520D01*
X70676520Y-83639579D01*
X70749355Y-83590912D01*
X70830286Y-83557389D01*
X70916199Y-83540300D01*
X71003801Y-83540300D01*
X71089714Y-83557389D01*
G37*
G36*
X68526578Y-83068197D02*
G01*
X68579350Y-83078694D01*
X68678770Y-83119875D01*
X68768246Y-83179661D01*
X68844339Y-83255754D01*
X68904125Y-83345230D01*
X68945306Y-83444650D01*
X68966300Y-83550194D01*
X68966300Y-83657806D01*
X68945306Y-83763350D01*
X68904125Y-83862770D01*
X68844339Y-83952246D01*
X68768246Y-84028339D01*
X68678770Y-84088125D01*
X68579350Y-84129306D01*
X68546325Y-84135875D01*
X68473807Y-84150300D01*
X68366193Y-84150300D01*
X68293675Y-84135875D01*
X68260650Y-84129306D01*
X68161230Y-84088125D01*
X68071754Y-84028339D01*
X67995661Y-83952246D01*
X67935875Y-83862770D01*
X67894694Y-83763350D01*
X67873700Y-83657806D01*
X67873700Y-83550194D01*
X67894694Y-83444650D01*
X67935875Y-83345230D01*
X67995661Y-83255754D01*
X68071754Y-83179661D01*
X68161230Y-83119875D01*
X68260650Y-83078694D01*
X68313422Y-83068197D01*
X68366193Y-83057700D01*
X68473807Y-83057700D01*
X68526578Y-83068197D01*
G37*
G36*
X66741800Y-83789600D02*
G01*
X65439800Y-83789600D01*
X65439800Y-82787600D01*
X66741800Y-82787600D01*
X66741800Y-83789600D01*
G37*
G36*
X80377691Y-82485285D02*
G01*
X80411669Y-82495593D01*
X80442990Y-82512334D01*
X80470439Y-82534861D01*
X80492966Y-82562310D01*
X80509707Y-82593631D01*
X80520015Y-82627609D01*
X80524100Y-82669090D01*
X80524100Y-83345310D01*
X80520015Y-83386791D01*
X80509707Y-83420769D01*
X80492966Y-83452090D01*
X80470439Y-83479539D01*
X80442990Y-83502066D01*
X80411669Y-83518807D01*
X80377691Y-83529115D01*
X80336210Y-83533200D01*
X79734990Y-83533200D01*
X79693509Y-83529115D01*
X79659531Y-83518807D01*
X79628210Y-83502066D01*
X79600761Y-83479539D01*
X79578234Y-83452090D01*
X79561493Y-83420769D01*
X79551185Y-83386791D01*
X79547100Y-83345310D01*
X79547100Y-82669090D01*
X79551185Y-82627609D01*
X79561493Y-82593631D01*
X79578234Y-82562310D01*
X79600761Y-82534861D01*
X79628210Y-82512334D01*
X79659531Y-82495593D01*
X79693509Y-82485285D01*
X79734990Y-82481200D01*
X80336210Y-82481200D01*
X80377691Y-82485285D01*
G37*
G36*
X78802691Y-82485285D02*
G01*
X78836669Y-82495593D01*
X78867990Y-82512334D01*
X78895439Y-82534861D01*
X78917966Y-82562310D01*
X78934707Y-82593631D01*
X78945015Y-82627609D01*
X78949100Y-82669090D01*
X78949100Y-83345310D01*
X78945015Y-83386791D01*
X78934707Y-83420769D01*
X78917966Y-83452090D01*
X78895439Y-83479539D01*
X78867990Y-83502066D01*
X78836669Y-83518807D01*
X78802691Y-83529115D01*
X78761210Y-83533200D01*
X78159990Y-83533200D01*
X78118509Y-83529115D01*
X78084531Y-83518807D01*
X78053210Y-83502066D01*
X78025761Y-83479539D01*
X78003234Y-83452090D01*
X77986493Y-83420769D01*
X77976185Y-83386791D01*
X77972100Y-83345310D01*
X77972100Y-82669090D01*
X77976185Y-82627609D01*
X77986493Y-82593631D01*
X78003234Y-82562310D01*
X78025761Y-82534861D01*
X78053210Y-82512334D01*
X78084531Y-82495593D01*
X78118509Y-82485285D01*
X78159990Y-82481200D01*
X78761210Y-82481200D01*
X78802691Y-82485285D01*
G37*
G36*
X79242938Y-81395716D02*
G01*
X79263557Y-81401971D01*
X79282553Y-81412124D01*
X79299208Y-81425792D01*
X79312876Y-81442447D01*
X79323029Y-81461443D01*
X79329284Y-81482062D01*
X79332000Y-81509640D01*
X79332000Y-82018360D01*
X79329284Y-82045938D01*
X79323029Y-82066557D01*
X79312876Y-82085553D01*
X79299208Y-82102208D01*
X79282553Y-82115876D01*
X79263557Y-82126029D01*
X79242938Y-82132284D01*
X79215360Y-82135000D01*
X78756640Y-82135000D01*
X78729062Y-82132284D01*
X78708443Y-82126029D01*
X78689447Y-82115876D01*
X78672792Y-82102208D01*
X78659124Y-82085553D01*
X78648971Y-82066557D01*
X78642716Y-82045938D01*
X78640000Y-82018360D01*
X78640000Y-81509640D01*
X78642716Y-81482062D01*
X78648971Y-81461443D01*
X78659124Y-81442447D01*
X78672792Y-81425792D01*
X78689447Y-81412124D01*
X78708443Y-81401971D01*
X78729062Y-81395716D01*
X78756640Y-81393000D01*
X79215360Y-81393000D01*
X79242938Y-81395716D01*
G37*
G36*
X80212938Y-81395716D02*
G01*
X80233557Y-81401971D01*
X80252553Y-81412124D01*
X80269208Y-81425792D01*
X80282876Y-81442447D01*
X80293029Y-81461443D01*
X80299284Y-81482062D01*
X80302000Y-81509640D01*
X80302000Y-82018360D01*
X80299284Y-82045938D01*
X80293029Y-82066557D01*
X80282876Y-82085553D01*
X80269208Y-82102208D01*
X80252553Y-82115876D01*
X80233557Y-82126029D01*
X80212938Y-82132284D01*
X80185360Y-82135000D01*
X79726640Y-82135000D01*
X79699062Y-82132284D01*
X79678443Y-82126029D01*
X79659447Y-82115876D01*
X79642792Y-82102208D01*
X79629124Y-82085553D01*
X79618971Y-82066557D01*
X79612716Y-82045938D01*
X79610000Y-82018360D01*
X79610000Y-81509640D01*
X79612716Y-81482062D01*
X79618971Y-81461443D01*
X79629124Y-81442447D01*
X79642792Y-81425792D01*
X79659447Y-81412124D01*
X79678443Y-81401971D01*
X79699062Y-81395716D01*
X79726640Y-81393000D01*
X80185360Y-81393000D01*
X80212938Y-81395716D01*
G37*
G36*
X67491000Y-81218000D02*
G01*
X64589000Y-81218000D01*
X64589000Y-79516000D01*
X67491000Y-79516000D01*
X67491000Y-81218000D01*
G37*
G36*
X70490338Y-80429116D02*
G01*
X70510957Y-80435371D01*
X70529953Y-80445524D01*
X70546608Y-80459192D01*
X70560276Y-80475847D01*
X70570429Y-80494843D01*
X70576684Y-80515462D01*
X70579400Y-80543040D01*
X70579400Y-81051760D01*
X70576684Y-81079338D01*
X70570429Y-81099957D01*
X70560276Y-81118953D01*
X70546608Y-81135608D01*
X70529953Y-81149276D01*
X70510957Y-81159429D01*
X70490338Y-81165684D01*
X70462760Y-81168400D01*
X70004040Y-81168400D01*
X69976462Y-81165684D01*
X69955843Y-81159429D01*
X69936847Y-81149276D01*
X69920192Y-81135608D01*
X69906524Y-81118953D01*
X69896371Y-81099957D01*
X69890116Y-81079338D01*
X69887400Y-81051760D01*
X69887400Y-80543040D01*
X69890116Y-80515462D01*
X69896371Y-80494843D01*
X69906524Y-80475847D01*
X69920192Y-80459192D01*
X69936847Y-80445524D01*
X69955843Y-80435371D01*
X69976462Y-80429116D01*
X70004040Y-80426400D01*
X70462760Y-80426400D01*
X70490338Y-80429116D01*
G37*
G36*
X69520338Y-80429116D02*
G01*
X69540957Y-80435371D01*
X69559953Y-80445524D01*
X69576608Y-80459192D01*
X69590276Y-80475847D01*
X69600429Y-80494843D01*
X69606684Y-80515462D01*
X69609400Y-80543040D01*
X69609400Y-81051760D01*
X69606684Y-81079338D01*
X69600429Y-81099957D01*
X69590276Y-81118953D01*
X69576608Y-81135608D01*
X69559953Y-81149276D01*
X69540957Y-81159429D01*
X69520338Y-81165684D01*
X69492760Y-81168400D01*
X69034040Y-81168400D01*
X69006462Y-81165684D01*
X68985843Y-81159429D01*
X68966847Y-81149276D01*
X68950192Y-81135608D01*
X68936524Y-81118953D01*
X68926371Y-81099957D01*
X68920116Y-81079338D01*
X68917400Y-81051760D01*
X68917400Y-80543040D01*
X68920116Y-80515462D01*
X68926371Y-80494843D01*
X68936524Y-80475847D01*
X68950192Y-80459192D01*
X68966847Y-80445524D01*
X68985843Y-80435371D01*
X69006462Y-80429116D01*
X69034040Y-80426400D01*
X69492760Y-80426400D01*
X69520338Y-80429116D01*
G37*
G36*
X80577591Y-79972085D02*
G01*
X80611569Y-79982393D01*
X80642890Y-79999134D01*
X80670339Y-80021661D01*
X80692866Y-80049110D01*
X80709607Y-80080431D01*
X80719915Y-80114409D01*
X80724000Y-80155890D01*
X80724000Y-80832110D01*
X80719915Y-80873591D01*
X80709607Y-80907569D01*
X80692866Y-80938890D01*
X80670339Y-80966339D01*
X80642890Y-80988866D01*
X80611569Y-81005607D01*
X80577591Y-81015915D01*
X80536110Y-81020000D01*
X79934890Y-81020000D01*
X79893409Y-81015915D01*
X79859431Y-81005607D01*
X79828110Y-80988866D01*
X79800661Y-80966339D01*
X79778134Y-80938890D01*
X79761393Y-80907569D01*
X79751085Y-80873591D01*
X79747000Y-80832110D01*
X79747000Y-80155890D01*
X79751085Y-80114409D01*
X79761393Y-80080431D01*
X79778134Y-80049110D01*
X79800661Y-80021661D01*
X79828110Y-79999134D01*
X79859431Y-79982393D01*
X79893409Y-79972085D01*
X79934890Y-79968000D01*
X80536110Y-79968000D01*
X80577591Y-79972085D01*
G37*
G36*
X79002591Y-79972085D02*
G01*
X79036569Y-79982393D01*
X79067890Y-79999134D01*
X79095339Y-80021661D01*
X79117866Y-80049110D01*
X79134607Y-80080431D01*
X79144915Y-80114409D01*
X79149000Y-80155890D01*
X79149000Y-80832110D01*
X79144915Y-80873591D01*
X79134607Y-80907569D01*
X79117866Y-80938890D01*
X79095339Y-80966339D01*
X79067890Y-80988866D01*
X79036569Y-81005607D01*
X79002591Y-81015915D01*
X78961110Y-81020000D01*
X78359890Y-81020000D01*
X78318409Y-81015915D01*
X78284431Y-81005607D01*
X78253110Y-80988866D01*
X78225661Y-80966339D01*
X78203134Y-80938890D01*
X78186393Y-80907569D01*
X78176085Y-80873591D01*
X78172000Y-80832110D01*
X78172000Y-80155890D01*
X78176085Y-80114409D01*
X78186393Y-80080431D01*
X78203134Y-80049110D01*
X78225661Y-80021661D01*
X78253110Y-79999134D01*
X78284431Y-79982393D01*
X78318409Y-79972085D01*
X78359890Y-79968000D01*
X78961110Y-79968000D01*
X79002591Y-79972085D01*
G37*
G36*
X69752066Y-78179985D02*
G01*
X69772685Y-78186240D01*
X69791681Y-78196393D01*
X69813102Y-78213973D01*
X70172827Y-78573698D01*
X70190407Y-78595119D01*
X70200560Y-78614115D01*
X70206815Y-78634734D01*
X70208926Y-78656172D01*
X70206815Y-78677610D01*
X70200560Y-78698229D01*
X70190407Y-78717225D01*
X70172827Y-78738646D01*
X69848458Y-79063015D01*
X69827037Y-79080595D01*
X69808041Y-79090748D01*
X69787422Y-79097003D01*
X69765984Y-79099114D01*
X69744546Y-79097003D01*
X69723927Y-79090748D01*
X69704931Y-79080595D01*
X69683510Y-79063015D01*
X69323785Y-78703290D01*
X69306205Y-78681869D01*
X69296052Y-78662873D01*
X69289797Y-78642254D01*
X69287686Y-78620816D01*
X69289797Y-78599378D01*
X69296052Y-78578759D01*
X69306205Y-78559763D01*
X69323785Y-78538342D01*
X69648154Y-78213973D01*
X69669575Y-78196393D01*
X69688571Y-78186240D01*
X69709190Y-78179985D01*
X69730628Y-78177874D01*
X69752066Y-78179985D01*
G37*
G36*
X77554591Y-77978085D02*
G01*
X77588569Y-77988393D01*
X77619890Y-78005134D01*
X77647339Y-78027661D01*
X77669866Y-78055110D01*
X77686607Y-78086431D01*
X77696915Y-78120409D01*
X77701000Y-78161890D01*
X77701000Y-78838110D01*
X77696915Y-78879591D01*
X77686607Y-78913569D01*
X77669866Y-78944890D01*
X77647339Y-78972339D01*
X77619890Y-78994866D01*
X77588569Y-79011607D01*
X77554591Y-79021915D01*
X77513110Y-79026000D01*
X76911890Y-79026000D01*
X76870409Y-79021915D01*
X76836431Y-79011607D01*
X76805110Y-78994866D01*
X76777661Y-78972339D01*
X76755134Y-78944890D01*
X76738393Y-78913569D01*
X76728085Y-78879591D01*
X76724000Y-78838110D01*
X76724000Y-78161890D01*
X76728085Y-78120409D01*
X76738393Y-78086431D01*
X76755134Y-78055110D01*
X76777661Y-78027661D01*
X76805110Y-78005134D01*
X76836431Y-77988393D01*
X76870409Y-77978085D01*
X76911890Y-77974000D01*
X77513110Y-77974000D01*
X77554591Y-77978085D01*
G37*
G36*
X79129591Y-77978085D02*
G01*
X79163569Y-77988393D01*
X79194890Y-78005134D01*
X79222339Y-78027661D01*
X79244866Y-78055110D01*
X79261607Y-78086431D01*
X79271915Y-78120409D01*
X79276000Y-78161890D01*
X79276000Y-78838110D01*
X79271915Y-78879591D01*
X79261607Y-78913569D01*
X79244866Y-78944890D01*
X79222339Y-78972339D01*
X79194890Y-78994866D01*
X79163569Y-79011607D01*
X79129591Y-79021915D01*
X79088110Y-79026000D01*
X78486890Y-79026000D01*
X78445409Y-79021915D01*
X78411431Y-79011607D01*
X78380110Y-78994866D01*
X78352661Y-78972339D01*
X78330134Y-78944890D01*
X78313393Y-78913569D01*
X78303085Y-78879591D01*
X78299000Y-78838110D01*
X78299000Y-78161890D01*
X78303085Y-78120409D01*
X78313393Y-78086431D01*
X78330134Y-78055110D01*
X78352661Y-78027661D01*
X78380110Y-78005134D01*
X78411431Y-77988393D01*
X78445409Y-77978085D01*
X78486890Y-77974000D01*
X79088110Y-77974000D01*
X79129591Y-77978085D01*
G37*
G36*
X70437960Y-77494091D02*
G01*
X70458579Y-77500346D01*
X70477575Y-77510499D01*
X70498996Y-77528079D01*
X70858721Y-77887804D01*
X70876301Y-77909225D01*
X70886454Y-77928221D01*
X70892709Y-77948840D01*
X70894820Y-77970278D01*
X70892709Y-77991716D01*
X70886454Y-78012335D01*
X70876301Y-78031331D01*
X70858721Y-78052752D01*
X70534352Y-78377121D01*
X70512931Y-78394701D01*
X70493935Y-78404854D01*
X70473316Y-78411109D01*
X70451878Y-78413220D01*
X70430440Y-78411109D01*
X70409821Y-78404854D01*
X70390825Y-78394701D01*
X70369404Y-78377121D01*
X70009679Y-78017396D01*
X69992099Y-77995975D01*
X69981946Y-77976979D01*
X69975691Y-77956360D01*
X69973580Y-77934922D01*
X69975691Y-77913484D01*
X69981946Y-77892865D01*
X69992099Y-77873869D01*
X70009679Y-77852448D01*
X70334048Y-77528079D01*
X70355469Y-77510499D01*
X70374465Y-77500346D01*
X70395084Y-77494091D01*
X70416522Y-77491980D01*
X70437960Y-77494091D01*
G37*
G36*
X79860692Y-73842804D02*
G01*
X79399658Y-74303838D01*
X79295006Y-74408489D01*
X78833972Y-74869523D01*
X78729321Y-74974175D01*
X76571231Y-77132265D01*
X76466579Y-77236916D01*
X76005545Y-77697950D01*
X75900894Y-77802602D01*
X75439860Y-78263636D01*
X74236364Y-77060140D01*
X74697398Y-76599106D01*
X74697399Y-76599107D01*
X74713663Y-76582843D01*
X74713672Y-76582832D01*
X74802050Y-76494455D01*
X74802049Y-76494454D01*
X75263083Y-76033420D01*
X75263084Y-76033421D01*
X75351461Y-75945043D01*
X75351472Y-75945034D01*
X75367736Y-75928770D01*
X75367735Y-75928769D01*
X75828769Y-75467735D01*
X75828770Y-75467736D01*
X75917157Y-75379348D01*
X75933421Y-75363085D01*
X75933420Y-75363084D01*
X76394454Y-74902050D01*
X76394455Y-74902051D01*
X76499107Y-74797399D01*
X76499106Y-74797398D01*
X76960140Y-74336364D01*
X76960141Y-74336365D01*
X77048528Y-74247977D01*
X77064792Y-74231714D01*
X77064791Y-74231713D01*
X77525825Y-73770679D01*
X77525826Y-73770680D01*
X77542090Y-73754416D01*
X77542099Y-73754405D01*
X77630477Y-73666028D01*
X77630476Y-73666027D01*
X78091510Y-73204993D01*
X78091511Y-73204994D01*
X78179888Y-73116616D01*
X78179899Y-73116607D01*
X78196163Y-73100343D01*
X78196162Y-73100342D01*
X78657196Y-72639308D01*
X79860692Y-73842804D01*
G37*
G36*
X69890486Y-73100342D02*
G01*
X69890486Y-73100343D01*
X69906750Y-73116607D01*
X69906756Y-73116612D01*
X69995138Y-73204994D01*
X69995138Y-73204993D01*
X70456172Y-73666027D01*
X70456172Y-73666028D01*
X70544554Y-73754410D01*
X70544559Y-73754416D01*
X70560823Y-73770680D01*
X70560823Y-73770679D01*
X71021857Y-74231713D01*
X71021857Y-74231714D01*
X71126508Y-74336365D01*
X71126508Y-74336364D01*
X71587542Y-74797398D01*
X71587542Y-74797399D01*
X71692194Y-74902051D01*
X71692194Y-74902050D01*
X72153228Y-75363084D01*
X72153228Y-75363085D01*
X72257879Y-75467736D01*
X72257879Y-75467735D01*
X72718913Y-75928769D01*
X72718913Y-75928770D01*
X72735177Y-75945034D01*
X72735183Y-75945039D01*
X72823565Y-76033421D01*
X72823565Y-76033420D01*
X73284599Y-76494454D01*
X73284599Y-76494455D01*
X73372981Y-76582837D01*
X73372986Y-76582843D01*
X73389250Y-76599107D01*
X73389250Y-76599106D01*
X73850284Y-77060140D01*
X72646788Y-78263636D01*
X72185754Y-77802602D01*
X72185755Y-77802602D01*
X72097373Y-77714220D01*
X72097368Y-77714214D01*
X72081104Y-77697950D01*
X72081103Y-77697950D01*
X71620069Y-77236916D01*
X71620070Y-77236916D01*
X71603806Y-77220652D01*
X71603800Y-77220647D01*
X71515418Y-77132265D01*
X71515417Y-77132265D01*
X71054383Y-76671231D01*
X71054384Y-76671231D01*
X70949733Y-76566580D01*
X70949732Y-76566580D01*
X70488698Y-76105546D01*
X70488699Y-76105546D01*
X70384047Y-76000894D01*
X70384046Y-76000894D01*
X69923012Y-75539860D01*
X69923013Y-75539860D01*
X69818362Y-75435209D01*
X69818361Y-75435209D01*
X69357327Y-74974175D01*
X69357328Y-74974175D01*
X69268946Y-74885793D01*
X69268941Y-74885787D01*
X69252677Y-74869523D01*
X69252676Y-74869523D01*
X68791642Y-74408489D01*
X68791643Y-74408489D01*
X68775379Y-74392225D01*
X68775373Y-74392220D01*
X68686991Y-74303838D01*
X68686990Y-74303838D01*
X68225956Y-73842804D01*
X69429452Y-72639308D01*
X69890486Y-73100342D01*
G37*
G36*
X67491000Y-78218000D02*
G01*
X64589000Y-78218000D01*
X64589000Y-76516000D01*
X67491000Y-76516000D01*
X67491000Y-78218000D01*
G37*
G36*
X68710666Y-77290985D02*
G01*
X68731285Y-77297240D01*
X68750281Y-77307393D01*
X68771702Y-77324973D01*
X69131427Y-77684698D01*
X69149007Y-77706119D01*
X69159160Y-77725115D01*
X69165415Y-77745734D01*
X69167526Y-77767172D01*
X69165415Y-77788610D01*
X69159160Y-77809229D01*
X69149007Y-77828225D01*
X69131427Y-77849646D01*
X68807058Y-78174015D01*
X68785637Y-78191595D01*
X68766641Y-78201748D01*
X68746022Y-78208003D01*
X68724584Y-78210114D01*
X68703146Y-78208003D01*
X68682527Y-78201748D01*
X68663531Y-78191595D01*
X68642110Y-78174015D01*
X68282385Y-77814290D01*
X68264805Y-77792869D01*
X68254652Y-77773873D01*
X68248397Y-77753254D01*
X68246286Y-77731816D01*
X68248397Y-77710378D01*
X68254652Y-77689759D01*
X68264805Y-77670763D01*
X68282385Y-77649342D01*
X68606754Y-77324973D01*
X68628175Y-77307393D01*
X68647171Y-77297240D01*
X68667790Y-77290985D01*
X68689228Y-77288874D01*
X68710666Y-77290985D01*
G37*
G36*
X69396560Y-76605091D02*
G01*
X69417179Y-76611346D01*
X69436175Y-76621499D01*
X69457596Y-76639079D01*
X69817321Y-76998804D01*
X69834901Y-77020225D01*
X69845054Y-77039221D01*
X69851309Y-77059840D01*
X69853420Y-77081278D01*
X69851309Y-77102716D01*
X69845054Y-77123335D01*
X69834901Y-77142331D01*
X69817321Y-77163752D01*
X69492952Y-77488121D01*
X69471531Y-77505701D01*
X69452535Y-77515854D01*
X69431916Y-77522109D01*
X69410478Y-77524220D01*
X69389040Y-77522109D01*
X69368421Y-77515854D01*
X69349425Y-77505701D01*
X69328004Y-77488121D01*
X68968279Y-77128396D01*
X68950699Y-77106975D01*
X68940546Y-77087979D01*
X68934291Y-77067360D01*
X68932180Y-77045922D01*
X68934291Y-77024484D01*
X68940546Y-77003865D01*
X68950699Y-76984869D01*
X68968279Y-76963448D01*
X69292648Y-76639079D01*
X69314069Y-76621499D01*
X69333065Y-76611346D01*
X69353684Y-76605091D01*
X69375122Y-76602980D01*
X69396560Y-76605091D01*
G37*
G36*
X79703760Y-76341491D02*
G01*
X79724379Y-76347746D01*
X79743375Y-76357899D01*
X79764796Y-76375479D01*
X80124521Y-76735204D01*
X80142101Y-76756625D01*
X80152254Y-76775621D01*
X80158509Y-76796240D01*
X80160620Y-76817678D01*
X80158509Y-76839116D01*
X80152254Y-76859735D01*
X80142101Y-76878731D01*
X80124521Y-76900152D01*
X79800152Y-77224521D01*
X79778731Y-77242101D01*
X79759735Y-77252254D01*
X79739116Y-77258509D01*
X79717678Y-77260620D01*
X79696240Y-77258509D01*
X79675621Y-77252254D01*
X79656625Y-77242101D01*
X79635204Y-77224521D01*
X79275479Y-76864796D01*
X79257899Y-76843375D01*
X79247746Y-76824379D01*
X79241491Y-76803760D01*
X79239380Y-76782322D01*
X79241491Y-76760884D01*
X79247746Y-76740265D01*
X79257899Y-76721269D01*
X79275479Y-76699848D01*
X79599848Y-76375479D01*
X79621269Y-76357899D01*
X79640265Y-76347746D01*
X79660884Y-76341491D01*
X79682322Y-76339380D01*
X79703760Y-76341491D01*
G37*
G36*
X78060813Y-76284438D02*
G01*
X78081432Y-76290693D01*
X78100428Y-76300846D01*
X78121849Y-76318426D01*
X78481574Y-76678151D01*
X78499154Y-76699572D01*
X78509307Y-76718568D01*
X78515562Y-76739187D01*
X78517673Y-76760625D01*
X78515562Y-76782063D01*
X78509307Y-76802682D01*
X78499154Y-76821678D01*
X78481574Y-76843099D01*
X78157205Y-77167468D01*
X78135784Y-77185048D01*
X78116788Y-77195201D01*
X78096169Y-77201456D01*
X78074731Y-77203567D01*
X78053293Y-77201456D01*
X78032674Y-77195201D01*
X78013678Y-77185048D01*
X77992257Y-77167468D01*
X77632532Y-76807743D01*
X77614952Y-76786322D01*
X77604799Y-76767326D01*
X77598544Y-76746707D01*
X77596433Y-76725269D01*
X77598544Y-76703831D01*
X77604799Y-76683212D01*
X77614952Y-76664216D01*
X77632532Y-76642795D01*
X77956901Y-76318426D01*
X77978322Y-76300846D01*
X77997318Y-76290693D01*
X78017937Y-76284438D01*
X78039375Y-76282327D01*
X78060813Y-76284438D01*
G37*
G36*
X80389654Y-75655597D02*
G01*
X80410273Y-75661852D01*
X80429269Y-75672005D01*
X80450690Y-75689585D01*
X80810415Y-76049310D01*
X80827995Y-76070731D01*
X80838148Y-76089727D01*
X80844403Y-76110346D01*
X80846514Y-76131784D01*
X80844403Y-76153222D01*
X80838148Y-76173841D01*
X80827995Y-76192837D01*
X80810415Y-76214258D01*
X80486046Y-76538627D01*
X80464625Y-76556207D01*
X80445629Y-76566360D01*
X80425010Y-76572615D01*
X80403572Y-76574726D01*
X80382134Y-76572615D01*
X80361515Y-76566360D01*
X80342519Y-76556207D01*
X80321098Y-76538627D01*
X79961373Y-76178902D01*
X79943793Y-76157481D01*
X79933640Y-76138485D01*
X79927385Y-76117866D01*
X79925274Y-76096428D01*
X79927385Y-76074990D01*
X79933640Y-76054371D01*
X79943793Y-76035375D01*
X79961373Y-76013954D01*
X80285742Y-75689585D01*
X80307163Y-75672005D01*
X80326159Y-75661852D01*
X80346778Y-75655597D01*
X80368216Y-75653486D01*
X80389654Y-75655597D01*
G37*
G36*
X78746707Y-75598544D02*
G01*
X78767326Y-75604799D01*
X78786322Y-75614952D01*
X78807743Y-75632532D01*
X79167468Y-75992257D01*
X79185048Y-76013678D01*
X79195201Y-76032674D01*
X79201456Y-76053293D01*
X79203567Y-76074731D01*
X79201456Y-76096169D01*
X79195201Y-76116788D01*
X79185048Y-76135784D01*
X79167468Y-76157205D01*
X78843099Y-76481574D01*
X78821678Y-76499154D01*
X78802682Y-76509307D01*
X78782063Y-76515562D01*
X78760625Y-76517673D01*
X78739187Y-76515562D01*
X78718568Y-76509307D01*
X78699572Y-76499154D01*
X78678151Y-76481574D01*
X78318426Y-76121849D01*
X78300846Y-76100428D01*
X78290693Y-76081432D01*
X78284438Y-76060813D01*
X78282327Y-76039375D01*
X78284438Y-76017937D01*
X78290693Y-75997318D01*
X78300846Y-75978322D01*
X78318426Y-75956901D01*
X78642795Y-75632532D01*
X78664216Y-75614952D01*
X78683212Y-75604799D01*
X78703831Y-75598544D01*
X78725269Y-75596433D01*
X78746707Y-75598544D01*
G37*
G36*
X66856466Y-75055785D02*
G01*
X66877085Y-75062040D01*
X66896081Y-75072193D01*
X66917502Y-75089773D01*
X67277227Y-75449498D01*
X67294807Y-75470919D01*
X67304960Y-75489915D01*
X67311215Y-75510534D01*
X67313326Y-75531972D01*
X67311215Y-75553410D01*
X67304960Y-75574029D01*
X67294807Y-75593025D01*
X67277227Y-75614446D01*
X66952858Y-75938815D01*
X66931437Y-75956395D01*
X66912441Y-75966548D01*
X66891822Y-75972803D01*
X66870384Y-75974914D01*
X66848946Y-75972803D01*
X66828327Y-75966548D01*
X66809331Y-75956395D01*
X66787910Y-75938815D01*
X66428185Y-75579090D01*
X66410605Y-75557669D01*
X66400452Y-75538673D01*
X66394197Y-75518054D01*
X66392086Y-75496616D01*
X66394197Y-75475178D01*
X66400452Y-75454559D01*
X66410605Y-75435563D01*
X66428185Y-75414142D01*
X66752554Y-75089773D01*
X66773975Y-75072193D01*
X66792971Y-75062040D01*
X66813590Y-75055785D01*
X66835028Y-75053674D01*
X66856466Y-75055785D01*
G37*
G36*
X67542360Y-74369891D02*
G01*
X67562979Y-74376146D01*
X67581975Y-74386299D01*
X67603396Y-74403879D01*
X67963121Y-74763604D01*
X67980701Y-74785025D01*
X67990854Y-74804021D01*
X67997109Y-74824640D01*
X67999220Y-74846078D01*
X67997109Y-74867516D01*
X67990854Y-74888135D01*
X67980701Y-74907131D01*
X67963121Y-74928552D01*
X67638752Y-75252921D01*
X67617331Y-75270501D01*
X67598335Y-75280654D01*
X67577716Y-75286909D01*
X67556278Y-75289020D01*
X67534840Y-75286909D01*
X67514221Y-75280654D01*
X67495225Y-75270501D01*
X67473804Y-75252921D01*
X67114079Y-74893196D01*
X67096499Y-74871775D01*
X67086346Y-74852779D01*
X67080091Y-74832160D01*
X67077980Y-74810722D01*
X67080091Y-74789284D01*
X67086346Y-74768665D01*
X67096499Y-74749669D01*
X67114079Y-74728248D01*
X67438448Y-74403879D01*
X67459869Y-74386299D01*
X67478865Y-74376146D01*
X67499484Y-74369891D01*
X67520922Y-74367780D01*
X67542360Y-74369891D01*
G37*
G36*
X73850284Y-67832396D02*
G01*
X73372986Y-68309694D01*
X73284599Y-68398082D01*
X72823565Y-68859116D01*
X72735177Y-68947503D01*
X72257879Y-69424801D01*
X72169491Y-69513188D01*
X72153228Y-69529452D01*
X71126508Y-70556172D01*
X71038120Y-70644559D01*
X71021857Y-70660823D01*
X70544559Y-71138121D01*
X70456172Y-71226509D01*
X69995138Y-71687543D01*
X69906750Y-71775930D01*
X69429452Y-72253228D01*
X68225956Y-71049732D01*
X68686990Y-70588698D01*
X68686991Y-70588699D01*
X68775368Y-70500321D01*
X68775379Y-70500312D01*
X68791643Y-70484048D01*
X68791642Y-70484047D01*
X69252676Y-70023013D01*
X69252677Y-70023014D01*
X69268941Y-70006750D01*
X69268950Y-70006739D01*
X69357328Y-69918362D01*
X69357327Y-69918361D01*
X69818361Y-69457327D01*
X69818362Y-69457328D01*
X69923013Y-69352677D01*
X69923012Y-69352676D01*
X70384046Y-68891642D01*
X70384047Y-68891643D01*
X70488699Y-68786991D01*
X70488698Y-68786990D01*
X70949732Y-68325956D01*
X70949733Y-68325957D01*
X71054384Y-68221306D01*
X71054383Y-68221305D01*
X71515417Y-67760271D01*
X71515418Y-67760272D01*
X71603795Y-67671894D01*
X71603806Y-67671885D01*
X71620070Y-67655621D01*
X71620069Y-67655620D01*
X72081103Y-67194586D01*
X72081104Y-67194587D01*
X72097368Y-67178323D01*
X72097377Y-67178312D01*
X72185755Y-67089935D01*
X72185754Y-67089934D01*
X72646788Y-66628900D01*
X73850284Y-67832396D01*
G37*
G36*
X75900894Y-67089934D02*
G01*
X75900894Y-67089935D01*
X75989276Y-67178317D01*
X75989281Y-67178323D01*
X76005545Y-67194587D01*
X76005545Y-67194586D01*
X76466579Y-67655620D01*
X76466579Y-67655621D01*
X76482843Y-67671885D01*
X76482849Y-67671890D01*
X76571231Y-67760272D01*
X76571231Y-67760271D01*
X77032265Y-68221305D01*
X77032265Y-68221306D01*
X77136916Y-68325957D01*
X77136916Y-68325956D01*
X77597950Y-68786990D01*
X77597950Y-68786991D01*
X77702602Y-68891643D01*
X77702602Y-68891642D01*
X78163636Y-69352676D01*
X78163636Y-69352677D01*
X78268287Y-69457328D01*
X78268287Y-69457327D01*
X78729321Y-69918361D01*
X78729321Y-69918362D01*
X78817703Y-70006744D01*
X78817708Y-70006750D01*
X78833972Y-70023014D01*
X78833972Y-70023013D01*
X79295006Y-70484047D01*
X79295006Y-70484048D01*
X79311270Y-70500312D01*
X79311276Y-70500317D01*
X79399658Y-70588699D01*
X79399658Y-70588698D01*
X79860692Y-71049732D01*
X78657196Y-72253228D01*
X78196162Y-71792194D01*
X78196163Y-71792194D01*
X78179899Y-71775930D01*
X78179893Y-71775925D01*
X78091511Y-71687543D01*
X78091510Y-71687543D01*
X77630476Y-71226509D01*
X77630477Y-71226509D01*
X77542095Y-71138127D01*
X77542090Y-71138121D01*
X77525826Y-71121857D01*
X77525825Y-71121857D01*
X77064791Y-70660823D01*
X77064792Y-70660823D01*
X76960141Y-70556172D01*
X76960140Y-70556172D01*
X76499106Y-70095138D01*
X76499107Y-70095138D01*
X76394455Y-69990486D01*
X76394454Y-69990486D01*
X75933420Y-69529452D01*
X75933421Y-69529452D01*
X75828770Y-69424801D01*
X75828769Y-69424801D01*
X75367735Y-68963767D01*
X75367736Y-68963767D01*
X75351472Y-68947503D01*
X75351466Y-68947498D01*
X75263084Y-68859116D01*
X75263083Y-68859116D01*
X74802049Y-68398082D01*
X74802050Y-68398082D01*
X74713668Y-68309700D01*
X74713663Y-68309694D01*
X74697399Y-68293430D01*
X74697398Y-68293430D01*
X74236364Y-67832396D01*
X75439860Y-66628900D01*
X75900894Y-67089934D01*
G37*
G36*
X67035298Y-71410330D02*
G01*
X66680330Y-71765298D01*
X65264702Y-70349670D01*
X65619670Y-69994702D01*
X67035298Y-71410330D01*
G37*
G36*
X81000231Y-70344705D02*
G01*
X81038967Y-70352410D01*
X81069195Y-70364931D01*
X81111944Y-70382638D01*
X81177622Y-70426523D01*
X81233477Y-70482378D01*
X81277362Y-70548056D01*
X81294196Y-70588698D01*
X81307590Y-70621033D01*
X81315295Y-70659769D01*
X81323000Y-70698504D01*
X81323000Y-70777496D01*
X81307590Y-70854966D01*
X81277362Y-70927944D01*
X81233477Y-70993622D01*
X81177622Y-71049477D01*
X81111944Y-71093362D01*
X81069195Y-71111069D01*
X81038967Y-71123590D01*
X81000231Y-71131295D01*
X80961496Y-71139000D01*
X80882504Y-71139000D01*
X80843769Y-71131295D01*
X80805033Y-71123590D01*
X80774805Y-71111069D01*
X80732056Y-71093362D01*
X80666378Y-71049477D01*
X80610523Y-70993622D01*
X80566638Y-70927944D01*
X80536410Y-70854966D01*
X80521000Y-70777496D01*
X80521000Y-70698504D01*
X80528705Y-70659769D01*
X80536410Y-70621033D01*
X80549804Y-70588698D01*
X80566638Y-70548056D01*
X80610523Y-70482378D01*
X80666378Y-70426523D01*
X80732056Y-70382638D01*
X80774805Y-70364931D01*
X80805033Y-70352410D01*
X80843769Y-70344705D01*
X80882504Y-70337000D01*
X80961496Y-70337000D01*
X81000231Y-70344705D01*
G37*
G36*
X67883827Y-70561802D02*
G01*
X67528859Y-70916770D01*
X66113231Y-69501142D01*
X66468199Y-69146174D01*
X67883827Y-70561802D01*
G37*
G36*
X68732355Y-69713273D02*
G01*
X68377387Y-70068241D01*
X66961759Y-68652613D01*
X67316727Y-68297645D01*
X68732355Y-69713273D01*
G37*
G36*
X69453760Y-68216491D02*
G01*
X69474379Y-68222746D01*
X69493375Y-68232899D01*
X69514796Y-68250479D01*
X69874521Y-68610204D01*
X69892101Y-68631625D01*
X69902254Y-68650621D01*
X69908509Y-68671240D01*
X69910620Y-68692678D01*
X69908509Y-68714116D01*
X69902254Y-68734735D01*
X69892101Y-68753731D01*
X69874521Y-68775152D01*
X69550152Y-69099521D01*
X69528731Y-69117101D01*
X69509735Y-69127254D01*
X69489116Y-69133509D01*
X69467678Y-69135620D01*
X69446240Y-69133509D01*
X69425621Y-69127254D01*
X69406625Y-69117101D01*
X69385204Y-69099521D01*
X69025479Y-68739796D01*
X69007899Y-68718375D01*
X68997746Y-68699379D01*
X68991491Y-68678760D01*
X68989380Y-68657322D01*
X68991491Y-68635884D01*
X68997746Y-68615265D01*
X69007899Y-68596269D01*
X69025479Y-68574848D01*
X69349848Y-68250479D01*
X69371269Y-68232899D01*
X69390265Y-68222746D01*
X69410884Y-68216491D01*
X69432322Y-68214380D01*
X69453760Y-68216491D01*
G37*
G36*
X70139654Y-67530597D02*
G01*
X70160273Y-67536852D01*
X70179269Y-67547005D01*
X70200690Y-67564585D01*
X70560415Y-67924310D01*
X70577995Y-67945731D01*
X70588148Y-67964727D01*
X70594403Y-67985346D01*
X70596514Y-68006784D01*
X70594403Y-68028222D01*
X70588148Y-68048841D01*
X70577995Y-68067837D01*
X70560415Y-68089258D01*
X70236046Y-68413627D01*
X70214625Y-68431207D01*
X70195629Y-68441360D01*
X70175010Y-68447615D01*
X70153572Y-68449726D01*
X70132134Y-68447615D01*
X70111515Y-68441360D01*
X70092519Y-68431207D01*
X70071098Y-68413627D01*
X69711373Y-68053902D01*
X69693793Y-68032481D01*
X69683640Y-68013485D01*
X69677385Y-67992866D01*
X69675274Y-67971428D01*
X69677385Y-67949990D01*
X69683640Y-67929371D01*
X69693793Y-67910375D01*
X69711373Y-67888954D01*
X70035742Y-67564585D01*
X70057163Y-67547005D01*
X70076159Y-67536852D01*
X70096778Y-67530597D01*
X70118216Y-67528486D01*
X70139654Y-67530597D01*
G37*
G36*
X68000231Y-67044705D02*
G01*
X68038967Y-67052410D01*
X68069195Y-67064931D01*
X68111944Y-67082638D01*
X68177622Y-67126523D01*
X68233477Y-67182378D01*
X68277362Y-67248056D01*
X68307590Y-67321034D01*
X68323000Y-67398504D01*
X68323000Y-67477496D01*
X68307590Y-67554966D01*
X68277362Y-67627944D01*
X68233477Y-67693622D01*
X68177622Y-67749477D01*
X68111944Y-67793362D01*
X68069195Y-67811069D01*
X68038967Y-67823590D01*
X68000231Y-67831295D01*
X67961496Y-67839000D01*
X67882504Y-67839000D01*
X67843769Y-67831295D01*
X67805033Y-67823590D01*
X67774805Y-67811069D01*
X67732056Y-67793362D01*
X67666378Y-67749477D01*
X67610523Y-67693622D01*
X67566638Y-67627944D01*
X67536410Y-67554966D01*
X67521000Y-67477496D01*
X67521000Y-67398504D01*
X67536410Y-67321034D01*
X67566638Y-67248056D01*
X67610523Y-67182378D01*
X67666378Y-67126523D01*
X67732056Y-67082638D01*
X67774805Y-67064931D01*
X67805033Y-67052410D01*
X67843769Y-67044705D01*
X67882504Y-67037000D01*
X67961496Y-67037000D01*
X68000231Y-67044705D01*
G37*
M02*
