M48
; DRILL file {KiCad (5.1.6)-1} date 12/13/20 19:26:22
; FORMAT={-:-/ absolute / inch / decimal}
; #@! TF.CreationDate,2020-12-13T19:26:22+01:00
; #@! TF.GenerationSoftware,Kicad,Pcbnew,(5.1.6)-1
; #@! TF.FileFunction,Plated,1,2,PTH
FMAT,2
INCH
T1C0.0118
T2C0.0157
%
G90
G05
T1
X2.5344Y-2.5896
X2.542Y-2.652
X2.554Y-2.934
X2.558Y-3.222
X2.563Y-2.56
X2.5679Y-2.625
X2.5965Y-2.5945
X2.684Y-3.1338
X2.7431Y-3.3898
X2.7441Y-3.4646
X2.7595Y-2.8555
X2.7944Y-2.8609
X2.8051Y-2.5787
X2.826Y-2.8601
X2.8346Y-2.5786
X2.8642Y-2.5787
X2.8652Y-2.7343
X2.874Y-2.8819
X2.898Y-2.858
X2.928Y-2.861
X2.95Y-2.9018
X2.9606Y-2.5787
X2.9641Y-2.8585
X2.9921Y-2.5787
X2.9957Y-2.8581
X3.0217Y-2.5787
X3.0409Y-2.8594
X3.045Y-3.263
X3.0551Y-2.5787
X3.0705Y-2.861
X3.0906Y-2.5787
X3.1201Y-2.5787
X3.1255Y-2.86
X3.144Y-3.068
X3.1496Y-2.5787
X3.1561Y-2.8595
X3.157Y-2.952
X3.198Y-3.066
X3.2Y-3.54
T2
X3.06Y-3.465
T0
M30
