G04 #@! TF.GenerationSoftware,KiCad,Pcbnew,(5.1.6)-1*
G04 #@! TF.CreationDate,2020-12-13T19:26:13+01:00*
G04 #@! TF.ProjectId,ACM-pcb,41434d2d-7063-4622-9e6b-696361645f70,rev?*
G04 #@! TF.SameCoordinates,Original*
G04 #@! TF.FileFunction,Copper,L1,Top*
G04 #@! TF.FilePolarity,Positive*
%FSLAX46Y46*%
G04 Gerber Fmt 4.6, Leading zero omitted, Abs format (unit mm)*
G04 Created by KiCad (PCBNEW (5.1.6)-1) date 2020-12-13 19:26:13*
%MOMM*%
%LPD*%
G01*
G04 APERTURE LIST*
G04 #@! TA.AperFunction,SMDPad,CuDef*
%ADD10R,0.700000X1.600000*%
G04 #@! TD*
G04 #@! TA.AperFunction,SMDPad,CuDef*
%ADD11R,0.800000X0.900000*%
G04 #@! TD*
G04 #@! TA.AperFunction,SMDPad,CuDef*
%ADD12C,0.100000*%
G04 #@! TD*
G04 #@! TA.AperFunction,ConnectorPad*
%ADD13C,0.787400*%
G04 #@! TD*
G04 #@! TA.AperFunction,SMDPad,CuDef*
%ADD14R,0.350000X0.750000*%
G04 #@! TD*
G04 #@! TA.AperFunction,SMDPad,CuDef*
%ADD15R,2.400000X1.600000*%
G04 #@! TD*
G04 #@! TA.AperFunction,SMDPad,CuDef*
%ADD16R,1.200000X0.900000*%
G04 #@! TD*
G04 #@! TA.AperFunction,ViaPad*
%ADD17C,0.600000*%
G04 #@! TD*
G04 #@! TA.AperFunction,ViaPad*
%ADD18C,0.800000*%
G04 #@! TD*
G04 #@! TA.AperFunction,Conductor*
%ADD19C,0.254000*%
G04 #@! TD*
G04 #@! TA.AperFunction,Conductor*
%ADD20C,0.400000*%
G04 #@! TD*
G04 #@! TA.AperFunction,Conductor*
%ADD21C,0.508000*%
G04 #@! TD*
G04 #@! TA.AperFunction,Conductor*
%ADD22C,0.127000*%
G04 #@! TD*
G04 APERTURE END LIST*
D10*
X67090000Y-77367000D03*
X67090000Y-80367000D03*
X66040000Y-77367000D03*
X66040000Y-80367000D03*
X64990000Y-77367000D03*
X64990000Y-80367000D03*
D11*
X71440000Y-89392000D03*
X73340000Y-89392000D03*
X72390000Y-87392000D03*
G04 #@! TA.AperFunction,SMDPad,CuDef*
G36*
G01*
X78023100Y-83263450D02*
X78023100Y-82750950D01*
G75*
G02*
X78241850Y-82532200I218750J0D01*
G01*
X78679350Y-82532200D01*
G75*
G02*
X78898100Y-82750950I0J-218750D01*
G01*
X78898100Y-83263450D01*
G75*
G02*
X78679350Y-83482200I-218750J0D01*
G01*
X78241850Y-83482200D01*
G75*
G02*
X78023100Y-83263450I0J218750D01*
G01*
G37*
G04 #@! TD.AperFunction*
G04 #@! TA.AperFunction,SMDPad,CuDef*
G36*
G01*
X79598100Y-83263450D02*
X79598100Y-82750950D01*
G75*
G02*
X79816850Y-82532200I218750J0D01*
G01*
X80254350Y-82532200D01*
G75*
G02*
X80473100Y-82750950I0J-218750D01*
G01*
X80473100Y-83263450D01*
G75*
G02*
X80254350Y-83482200I-218750J0D01*
G01*
X79816850Y-83482200D01*
G75*
G02*
X79598100Y-83263450I0J218750D01*
G01*
G37*
G04 #@! TD.AperFunction*
G04 #@! TA.AperFunction,SMDPad,CuDef*
G36*
G01*
X78350000Y-78756250D02*
X78350000Y-78243750D01*
G75*
G02*
X78568750Y-78025000I218750J0D01*
G01*
X79006250Y-78025000D01*
G75*
G02*
X79225000Y-78243750I0J-218750D01*
G01*
X79225000Y-78756250D01*
G75*
G02*
X79006250Y-78975000I-218750J0D01*
G01*
X78568750Y-78975000D01*
G75*
G02*
X78350000Y-78756250I0J218750D01*
G01*
G37*
G04 #@! TD.AperFunction*
G04 #@! TA.AperFunction,SMDPad,CuDef*
G36*
G01*
X76775000Y-78756250D02*
X76775000Y-78243750D01*
G75*
G02*
X76993750Y-78025000I218750J0D01*
G01*
X77431250Y-78025000D01*
G75*
G02*
X77650000Y-78243750I0J-218750D01*
G01*
X77650000Y-78756250D01*
G75*
G02*
X77431250Y-78975000I-218750J0D01*
G01*
X76993750Y-78975000D01*
G75*
G02*
X76775000Y-78756250I0J218750D01*
G01*
G37*
G04 #@! TD.AperFunction*
G04 #@! TA.AperFunction,SMDPad,CuDef*
D12*
G36*
X72257879Y-67089934D02*
G01*
X72646788Y-66701025D01*
X73778159Y-67832396D01*
X73389250Y-68221305D01*
X72257879Y-67089934D01*
G37*
G04 #@! TD.AperFunction*
G04 #@! TA.AperFunction,SMDPad,CuDef*
G36*
X71692194Y-67655620D02*
G01*
X72081103Y-67266711D01*
X73212474Y-68398082D01*
X72823565Y-68786991D01*
X71692194Y-67655620D01*
G37*
G04 #@! TD.AperFunction*
G04 #@! TA.AperFunction,SMDPad,CuDef*
G36*
X71126508Y-68221305D02*
G01*
X71515417Y-67832396D01*
X72646788Y-68963767D01*
X72257879Y-69352676D01*
X71126508Y-68221305D01*
G37*
G04 #@! TD.AperFunction*
G04 #@! TA.AperFunction,SMDPad,CuDef*
G36*
X70560823Y-68786990D02*
G01*
X70949732Y-68398081D01*
X72081103Y-69529452D01*
X71692194Y-69918361D01*
X70560823Y-68786990D01*
G37*
G04 #@! TD.AperFunction*
G04 #@! TA.AperFunction,SMDPad,CuDef*
G36*
X69995137Y-69352676D02*
G01*
X70384046Y-68963767D01*
X71515417Y-70095138D01*
X71126508Y-70484047D01*
X69995137Y-69352676D01*
G37*
G04 #@! TD.AperFunction*
G04 #@! TA.AperFunction,SMDPad,CuDef*
G36*
X69429452Y-69918361D02*
G01*
X69818361Y-69529452D01*
X70949732Y-70660823D01*
X70560823Y-71049732D01*
X69429452Y-69918361D01*
G37*
G04 #@! TD.AperFunction*
G04 #@! TA.AperFunction,SMDPad,CuDef*
G36*
X68863767Y-70484047D02*
G01*
X69252676Y-70095138D01*
X70384047Y-71226509D01*
X69995138Y-71615418D01*
X68863767Y-70484047D01*
G37*
G04 #@! TD.AperFunction*
G04 #@! TA.AperFunction,SMDPad,CuDef*
G36*
X68298081Y-71049732D02*
G01*
X68686990Y-70660823D01*
X69818361Y-71792194D01*
X69429452Y-72181103D01*
X68298081Y-71049732D01*
G37*
G04 #@! TD.AperFunction*
G04 #@! TA.AperFunction,SMDPad,CuDef*
G36*
X68686990Y-74231713D02*
G01*
X68298081Y-73842804D01*
X69429452Y-72711433D01*
X69818361Y-73100342D01*
X68686990Y-74231713D01*
G37*
G04 #@! TD.AperFunction*
G04 #@! TA.AperFunction,SMDPad,CuDef*
G36*
X69252676Y-74797398D02*
G01*
X68863767Y-74408489D01*
X69995138Y-73277118D01*
X70384047Y-73666027D01*
X69252676Y-74797398D01*
G37*
G04 #@! TD.AperFunction*
G04 #@! TA.AperFunction,SMDPad,CuDef*
G36*
X69818361Y-75363084D02*
G01*
X69429452Y-74974175D01*
X70560823Y-73842804D01*
X70949732Y-74231713D01*
X69818361Y-75363084D01*
G37*
G04 #@! TD.AperFunction*
G04 #@! TA.AperFunction,SMDPad,CuDef*
G36*
X70384046Y-75928769D02*
G01*
X69995137Y-75539860D01*
X71126508Y-74408489D01*
X71515417Y-74797398D01*
X70384046Y-75928769D01*
G37*
G04 #@! TD.AperFunction*
G04 #@! TA.AperFunction,SMDPad,CuDef*
G36*
X70949732Y-76494455D02*
G01*
X70560823Y-76105546D01*
X71692194Y-74974175D01*
X72081103Y-75363084D01*
X70949732Y-76494455D01*
G37*
G04 #@! TD.AperFunction*
G04 #@! TA.AperFunction,SMDPad,CuDef*
G36*
X71515417Y-77060140D02*
G01*
X71126508Y-76671231D01*
X72257879Y-75539860D01*
X72646788Y-75928769D01*
X71515417Y-77060140D01*
G37*
G04 #@! TD.AperFunction*
G04 #@! TA.AperFunction,SMDPad,CuDef*
G36*
X72081103Y-77625825D02*
G01*
X71692194Y-77236916D01*
X72823565Y-76105545D01*
X73212474Y-76494454D01*
X72081103Y-77625825D01*
G37*
G04 #@! TD.AperFunction*
G04 #@! TA.AperFunction,SMDPad,CuDef*
G36*
X72646788Y-78191511D02*
G01*
X72257879Y-77802602D01*
X73389250Y-76671231D01*
X73778159Y-77060140D01*
X72646788Y-78191511D01*
G37*
G04 #@! TD.AperFunction*
G04 #@! TA.AperFunction,SMDPad,CuDef*
G36*
X74308489Y-77060140D02*
G01*
X74697398Y-76671231D01*
X75828769Y-77802602D01*
X75439860Y-78191511D01*
X74308489Y-77060140D01*
G37*
G04 #@! TD.AperFunction*
G04 #@! TA.AperFunction,SMDPad,CuDef*
G36*
X74874174Y-76494454D02*
G01*
X75263083Y-76105545D01*
X76394454Y-77236916D01*
X76005545Y-77625825D01*
X74874174Y-76494454D01*
G37*
G04 #@! TD.AperFunction*
G04 #@! TA.AperFunction,SMDPad,CuDef*
G36*
X75439860Y-75928769D02*
G01*
X75828769Y-75539860D01*
X76960140Y-76671231D01*
X76571231Y-77060140D01*
X75439860Y-75928769D01*
G37*
G04 #@! TD.AperFunction*
G04 #@! TA.AperFunction,SMDPad,CuDef*
G36*
X76005545Y-75363084D02*
G01*
X76394454Y-74974175D01*
X77525825Y-76105546D01*
X77136916Y-76494455D01*
X76005545Y-75363084D01*
G37*
G04 #@! TD.AperFunction*
G04 #@! TA.AperFunction,SMDPad,CuDef*
G36*
X76571231Y-74797398D02*
G01*
X76960140Y-74408489D01*
X78091511Y-75539860D01*
X77702602Y-75928769D01*
X76571231Y-74797398D01*
G37*
G04 #@! TD.AperFunction*
G04 #@! TA.AperFunction,SMDPad,CuDef*
G36*
X77136916Y-74231713D02*
G01*
X77525825Y-73842804D01*
X78657196Y-74974175D01*
X78268287Y-75363084D01*
X77136916Y-74231713D01*
G37*
G04 #@! TD.AperFunction*
G04 #@! TA.AperFunction,SMDPad,CuDef*
G36*
X77702601Y-73666027D02*
G01*
X78091510Y-73277118D01*
X79222881Y-74408489D01*
X78833972Y-74797398D01*
X77702601Y-73666027D01*
G37*
G04 #@! TD.AperFunction*
G04 #@! TA.AperFunction,SMDPad,CuDef*
G36*
X78268287Y-73100342D02*
G01*
X78657196Y-72711433D01*
X79788567Y-73842804D01*
X79399658Y-74231713D01*
X78268287Y-73100342D01*
G37*
G04 #@! TD.AperFunction*
G04 #@! TA.AperFunction,SMDPad,CuDef*
G36*
X78657196Y-72181103D02*
G01*
X78268287Y-71792194D01*
X79399658Y-70660823D01*
X79788567Y-71049732D01*
X78657196Y-72181103D01*
G37*
G04 #@! TD.AperFunction*
G04 #@! TA.AperFunction,SMDPad,CuDef*
G36*
X78091510Y-71615418D02*
G01*
X77702601Y-71226509D01*
X78833972Y-70095138D01*
X79222881Y-70484047D01*
X78091510Y-71615418D01*
G37*
G04 #@! TD.AperFunction*
G04 #@! TA.AperFunction,SMDPad,CuDef*
G36*
X77525825Y-71049732D02*
G01*
X77136916Y-70660823D01*
X78268287Y-69529452D01*
X78657196Y-69918361D01*
X77525825Y-71049732D01*
G37*
G04 #@! TD.AperFunction*
G04 #@! TA.AperFunction,SMDPad,CuDef*
G36*
X76960140Y-70484047D02*
G01*
X76571231Y-70095138D01*
X77702602Y-68963767D01*
X78091511Y-69352676D01*
X76960140Y-70484047D01*
G37*
G04 #@! TD.AperFunction*
G04 #@! TA.AperFunction,SMDPad,CuDef*
G36*
X76394454Y-69918361D02*
G01*
X76005545Y-69529452D01*
X77136916Y-68398081D01*
X77525825Y-68786990D01*
X76394454Y-69918361D01*
G37*
G04 #@! TD.AperFunction*
G04 #@! TA.AperFunction,SMDPad,CuDef*
G36*
X75828769Y-69352676D02*
G01*
X75439860Y-68963767D01*
X76571231Y-67832396D01*
X76960140Y-68221305D01*
X75828769Y-69352676D01*
G37*
G04 #@! TD.AperFunction*
G04 #@! TA.AperFunction,SMDPad,CuDef*
G36*
X75263083Y-68786991D02*
G01*
X74874174Y-68398082D01*
X76005545Y-67266711D01*
X76394454Y-67655620D01*
X75263083Y-68786991D01*
G37*
G04 #@! TD.AperFunction*
G04 #@! TA.AperFunction,SMDPad,CuDef*
G36*
X74697398Y-68221305D02*
G01*
X74308489Y-67832396D01*
X75439860Y-66701025D01*
X75828769Y-67089934D01*
X74697398Y-68221305D01*
G37*
G04 #@! TD.AperFunction*
D13*
X72230000Y-83985000D03*
X72230000Y-85255000D03*
X70960000Y-83985000D03*
X70960000Y-85255000D03*
X69690000Y-83985000D03*
X69690000Y-85255000D03*
G04 #@! TA.AperFunction,SMDPad,CuDef*
G36*
G01*
X68968400Y-80969900D02*
X68968400Y-80624900D01*
G75*
G02*
X69115900Y-80477400I147500J0D01*
G01*
X69410900Y-80477400D01*
G75*
G02*
X69558400Y-80624900I0J-147500D01*
G01*
X69558400Y-80969900D01*
G75*
G02*
X69410900Y-81117400I-147500J0D01*
G01*
X69115900Y-81117400D01*
G75*
G02*
X68968400Y-80969900I0J147500D01*
G01*
G37*
G04 #@! TD.AperFunction*
G04 #@! TA.AperFunction,SMDPad,CuDef*
G36*
G01*
X69938400Y-80969900D02*
X69938400Y-80624900D01*
G75*
G02*
X70085900Y-80477400I147500J0D01*
G01*
X70380900Y-80477400D01*
G75*
G02*
X70528400Y-80624900I0J-147500D01*
G01*
X70528400Y-80969900D01*
G75*
G02*
X70380900Y-81117400I-147500J0D01*
G01*
X70085900Y-81117400D01*
G75*
G02*
X69938400Y-80969900I0J147500D01*
G01*
G37*
G04 #@! TD.AperFunction*
G04 #@! TA.AperFunction,SMDPad,CuDef*
G36*
G01*
X69661685Y-78969066D02*
X69417734Y-78725114D01*
G75*
G02*
X69417734Y-78516518I104298J104298D01*
G01*
X69626330Y-78307922D01*
G75*
G02*
X69834926Y-78307922I104298J-104298D01*
G01*
X70078878Y-78551874D01*
G75*
G02*
X70078878Y-78760470I-104298J-104298D01*
G01*
X69870282Y-78969066D01*
G75*
G02*
X69661686Y-78969066I-104298J104298D01*
G01*
G37*
G04 #@! TD.AperFunction*
G04 #@! TA.AperFunction,SMDPad,CuDef*
G36*
G01*
X70347579Y-78283172D02*
X70103628Y-78039220D01*
G75*
G02*
X70103628Y-77830624I104298J104298D01*
G01*
X70312224Y-77622028D01*
G75*
G02*
X70520820Y-77622028I104298J-104298D01*
G01*
X70764772Y-77865980D01*
G75*
G02*
X70764772Y-78074576I-104298J-104298D01*
G01*
X70556176Y-78283172D01*
G75*
G02*
X70347580Y-78283172I-104298J104298D01*
G01*
G37*
G04 #@! TD.AperFunction*
G04 #@! TA.AperFunction,SMDPad,CuDef*
D12*
G36*
X68377387Y-69996116D02*
G01*
X67033884Y-68652613D01*
X67316727Y-68369770D01*
X68660230Y-69713273D01*
X68377387Y-69996116D01*
G37*
G04 #@! TD.AperFunction*
G04 #@! TA.AperFunction,SMDPad,CuDef*
G36*
X67528859Y-70844645D02*
G01*
X66185356Y-69501142D01*
X66468199Y-69218299D01*
X67811702Y-70561802D01*
X67528859Y-70844645D01*
G37*
G04 #@! TD.AperFunction*
G04 #@! TA.AperFunction,SMDPad,CuDef*
G36*
X66680330Y-71693173D02*
G01*
X65336827Y-70349670D01*
X65619670Y-70066827D01*
X66963173Y-71410330D01*
X66680330Y-71693173D01*
G37*
G04 #@! TD.AperFunction*
G04 #@! TA.AperFunction,SMDPad,CuDef*
G36*
G01*
X70222515Y-67658534D02*
X70466466Y-67902486D01*
G75*
G02*
X70466466Y-68111082I-104298J-104298D01*
G01*
X70257870Y-68319678D01*
G75*
G02*
X70049274Y-68319678I-104298J104298D01*
G01*
X69805322Y-68075726D01*
G75*
G02*
X69805322Y-67867130I104298J104298D01*
G01*
X70013918Y-67658534D01*
G75*
G02*
X70222514Y-67658534I104298J-104298D01*
G01*
G37*
G04 #@! TD.AperFunction*
G04 #@! TA.AperFunction,SMDPad,CuDef*
G36*
G01*
X69536621Y-68344428D02*
X69780572Y-68588380D01*
G75*
G02*
X69780572Y-68796976I-104298J-104298D01*
G01*
X69571976Y-69005572D01*
G75*
G02*
X69363380Y-69005572I-104298J104298D01*
G01*
X69119428Y-68761620D01*
G75*
G02*
X69119428Y-68553024I104298J104298D01*
G01*
X69328024Y-68344428D01*
G75*
G02*
X69536620Y-68344428I104298J-104298D01*
G01*
G37*
G04 #@! TD.AperFunction*
G04 #@! TA.AperFunction,SMDPad,CuDef*
G36*
G01*
X79786621Y-76469428D02*
X80030572Y-76713380D01*
G75*
G02*
X80030572Y-76921976I-104298J-104298D01*
G01*
X79821976Y-77130572D01*
G75*
G02*
X79613380Y-77130572I-104298J104298D01*
G01*
X79369428Y-76886620D01*
G75*
G02*
X79369428Y-76678024I104298J104298D01*
G01*
X79578024Y-76469428D01*
G75*
G02*
X79786620Y-76469428I104298J-104298D01*
G01*
G37*
G04 #@! TD.AperFunction*
G04 #@! TA.AperFunction,SMDPad,CuDef*
G36*
G01*
X80472515Y-75783534D02*
X80716466Y-76027486D01*
G75*
G02*
X80716466Y-76236082I-104298J-104298D01*
G01*
X80507870Y-76444678D01*
G75*
G02*
X80299274Y-76444678I-104298J104298D01*
G01*
X80055322Y-76200726D01*
G75*
G02*
X80055322Y-75992130I104298J104298D01*
G01*
X80263918Y-75783534D01*
G75*
G02*
X80472514Y-75783534I104298J-104298D01*
G01*
G37*
G04 #@! TD.AperFunction*
G04 #@! TA.AperFunction,SMDPad,CuDef*
G36*
G01*
X80055500Y-89218000D02*
X79710500Y-89218000D01*
G75*
G02*
X79563000Y-89070500I0J147500D01*
G01*
X79563000Y-88775500D01*
G75*
G02*
X79710500Y-88628000I147500J0D01*
G01*
X80055500Y-88628000D01*
G75*
G02*
X80203000Y-88775500I0J-147500D01*
G01*
X80203000Y-89070500D01*
G75*
G02*
X80055500Y-89218000I-147500J0D01*
G01*
G37*
G04 #@! TD.AperFunction*
G04 #@! TA.AperFunction,SMDPad,CuDef*
G36*
G01*
X80055500Y-90188000D02*
X79710500Y-90188000D01*
G75*
G02*
X79563000Y-90040500I0J147500D01*
G01*
X79563000Y-89745500D01*
G75*
G02*
X79710500Y-89598000I147500J0D01*
G01*
X80055500Y-89598000D01*
G75*
G02*
X80203000Y-89745500I0J-147500D01*
G01*
X80203000Y-90040500D01*
G75*
G02*
X80055500Y-90188000I-147500J0D01*
G01*
G37*
G04 #@! TD.AperFunction*
G04 #@! TA.AperFunction,SMDPad,CuDef*
G36*
G01*
X77970432Y-77073519D02*
X77726481Y-76829567D01*
G75*
G02*
X77726481Y-76620971I104298J104298D01*
G01*
X77935077Y-76412375D01*
G75*
G02*
X78143673Y-76412375I104298J-104298D01*
G01*
X78387625Y-76656327D01*
G75*
G02*
X78387625Y-76864923I-104298J-104298D01*
G01*
X78179029Y-77073519D01*
G75*
G02*
X77970433Y-77073519I-104298J104298D01*
G01*
G37*
G04 #@! TD.AperFunction*
G04 #@! TA.AperFunction,SMDPad,CuDef*
G36*
G01*
X78656326Y-76387625D02*
X78412375Y-76143673D01*
G75*
G02*
X78412375Y-75935077I104298J104298D01*
G01*
X78620971Y-75726481D01*
G75*
G02*
X78829567Y-75726481I104298J-104298D01*
G01*
X79073519Y-75970433D01*
G75*
G02*
X79073519Y-76179029I-104298J-104298D01*
G01*
X78864923Y-76387625D01*
G75*
G02*
X78656327Y-76387625I-104298J104298D01*
G01*
G37*
G04 #@! TD.AperFunction*
G04 #@! TA.AperFunction,SMDPad,CuDef*
G36*
G01*
X77032900Y-87673400D02*
X76687900Y-87673400D01*
G75*
G02*
X76540400Y-87525900I0J147500D01*
G01*
X76540400Y-87230900D01*
G75*
G02*
X76687900Y-87083400I147500J0D01*
G01*
X77032900Y-87083400D01*
G75*
G02*
X77180400Y-87230900I0J-147500D01*
G01*
X77180400Y-87525900D01*
G75*
G02*
X77032900Y-87673400I-147500J0D01*
G01*
G37*
G04 #@! TD.AperFunction*
G04 #@! TA.AperFunction,SMDPad,CuDef*
G36*
G01*
X77032900Y-86703400D02*
X76687900Y-86703400D01*
G75*
G02*
X76540400Y-86555900I0J147500D01*
G01*
X76540400Y-86260900D01*
G75*
G02*
X76687900Y-86113400I147500J0D01*
G01*
X77032900Y-86113400D01*
G75*
G02*
X77180400Y-86260900I0J-147500D01*
G01*
X77180400Y-86555900D01*
G75*
G02*
X77032900Y-86703400I-147500J0D01*
G01*
G37*
G04 #@! TD.AperFunction*
G04 #@! TA.AperFunction,SMDPad,CuDef*
G36*
G01*
X79281000Y-81591500D02*
X79281000Y-81936500D01*
G75*
G02*
X79133500Y-82084000I-147500J0D01*
G01*
X78838500Y-82084000D01*
G75*
G02*
X78691000Y-81936500I0J147500D01*
G01*
X78691000Y-81591500D01*
G75*
G02*
X78838500Y-81444000I147500J0D01*
G01*
X79133500Y-81444000D01*
G75*
G02*
X79281000Y-81591500I0J-147500D01*
G01*
G37*
G04 #@! TD.AperFunction*
G04 #@! TA.AperFunction,SMDPad,CuDef*
G36*
G01*
X80251000Y-81591500D02*
X80251000Y-81936500D01*
G75*
G02*
X80103500Y-82084000I-147500J0D01*
G01*
X79808500Y-82084000D01*
G75*
G02*
X79661000Y-81936500I0J147500D01*
G01*
X79661000Y-81591500D01*
G75*
G02*
X79808500Y-81444000I147500J0D01*
G01*
X80103500Y-81444000D01*
G75*
G02*
X80251000Y-81591500I0J-147500D01*
G01*
G37*
G04 #@! TD.AperFunction*
D14*
X78549000Y-87320000D03*
X79199000Y-87320000D03*
X79849000Y-87320000D03*
X80499000Y-87320000D03*
X80499000Y-84320000D03*
X79849000Y-84320000D03*
X79199000Y-84320000D03*
X78549000Y-84320000D03*
D15*
X79524000Y-85820000D03*
G04 #@! TA.AperFunction,SMDPad,CuDef*
G36*
G01*
X75516450Y-87610500D02*
X75003950Y-87610500D01*
G75*
G02*
X74785200Y-87391750I0J218750D01*
G01*
X74785200Y-86954250D01*
G75*
G02*
X75003950Y-86735500I218750J0D01*
G01*
X75516450Y-86735500D01*
G75*
G02*
X75735200Y-86954250I0J-218750D01*
G01*
X75735200Y-87391750D01*
G75*
G02*
X75516450Y-87610500I-218750J0D01*
G01*
G37*
G04 #@! TD.AperFunction*
G04 #@! TA.AperFunction,SMDPad,CuDef*
G36*
G01*
X75516450Y-86035500D02*
X75003950Y-86035500D01*
G75*
G02*
X74785200Y-85816750I0J218750D01*
G01*
X74785200Y-85379250D01*
G75*
G02*
X75003950Y-85160500I218750J0D01*
G01*
X75516450Y-85160500D01*
G75*
G02*
X75735200Y-85379250I0J-218750D01*
G01*
X75735200Y-85816750D01*
G75*
G02*
X75516450Y-86035500I-218750J0D01*
G01*
G37*
G04 #@! TD.AperFunction*
G04 #@! TA.AperFunction,SMDPad,CuDef*
G36*
G01*
X79098000Y-80237750D02*
X79098000Y-80750250D01*
G75*
G02*
X78879250Y-80969000I-218750J0D01*
G01*
X78441750Y-80969000D01*
G75*
G02*
X78223000Y-80750250I0J218750D01*
G01*
X78223000Y-80237750D01*
G75*
G02*
X78441750Y-80019000I218750J0D01*
G01*
X78879250Y-80019000D01*
G75*
G02*
X79098000Y-80237750I0J-218750D01*
G01*
G37*
G04 #@! TD.AperFunction*
G04 #@! TA.AperFunction,SMDPad,CuDef*
G36*
G01*
X80673000Y-80237750D02*
X80673000Y-80750250D01*
G75*
G02*
X80454250Y-80969000I-218750J0D01*
G01*
X80016750Y-80969000D01*
G75*
G02*
X79798000Y-80750250I0J218750D01*
G01*
X79798000Y-80237750D01*
G75*
G02*
X80016750Y-80019000I218750J0D01*
G01*
X80454250Y-80019000D01*
G75*
G02*
X80673000Y-80237750I0J-218750D01*
G01*
G37*
G04 #@! TD.AperFunction*
G04 #@! TA.AperFunction,SMDPad,CuDef*
G36*
G01*
X68620285Y-78080066D02*
X68376334Y-77836114D01*
G75*
G02*
X68376334Y-77627518I104298J104298D01*
G01*
X68584930Y-77418922D01*
G75*
G02*
X68793526Y-77418922I104298J-104298D01*
G01*
X69037478Y-77662874D01*
G75*
G02*
X69037478Y-77871470I-104298J-104298D01*
G01*
X68828882Y-78080066D01*
G75*
G02*
X68620286Y-78080066I-104298J104298D01*
G01*
G37*
G04 #@! TD.AperFunction*
G04 #@! TA.AperFunction,SMDPad,CuDef*
G36*
G01*
X69306179Y-77394172D02*
X69062228Y-77150220D01*
G75*
G02*
X69062228Y-76941624I104298J104298D01*
G01*
X69270824Y-76733028D01*
G75*
G02*
X69479420Y-76733028I104298J-104298D01*
G01*
X69723372Y-76976980D01*
G75*
G02*
X69723372Y-77185576I-104298J-104298D01*
G01*
X69514776Y-77394172D01*
G75*
G02*
X69306180Y-77394172I-104298J104298D01*
G01*
G37*
G04 #@! TD.AperFunction*
G04 #@! TA.AperFunction,SMDPad,CuDef*
G36*
G01*
X67451979Y-75158972D02*
X67208028Y-74915020D01*
G75*
G02*
X67208028Y-74706424I104298J104298D01*
G01*
X67416624Y-74497828D01*
G75*
G02*
X67625220Y-74497828I104298J-104298D01*
G01*
X67869172Y-74741780D01*
G75*
G02*
X67869172Y-74950376I-104298J-104298D01*
G01*
X67660576Y-75158972D01*
G75*
G02*
X67451980Y-75158972I-104298J104298D01*
G01*
G37*
G04 #@! TD.AperFunction*
G04 #@! TA.AperFunction,SMDPad,CuDef*
G36*
G01*
X66766085Y-75844866D02*
X66522134Y-75600914D01*
G75*
G02*
X66522134Y-75392318I104298J104298D01*
G01*
X66730730Y-75183722D01*
G75*
G02*
X66939326Y-75183722I104298J-104298D01*
G01*
X67183278Y-75427674D01*
G75*
G02*
X67183278Y-75636270I-104298J-104298D01*
G01*
X66974682Y-75844866D01*
G75*
G02*
X66766086Y-75844866I-104298J104298D01*
G01*
G37*
G04 #@! TD.AperFunction*
D16*
X66090800Y-83288600D03*
X66090800Y-86588600D03*
D17*
X72775000Y-69450000D03*
X69675000Y-86100000D03*
X81280000Y-89916000D03*
X64973200Y-81838800D03*
X64566800Y-67360800D03*
X77343000Y-82880200D03*
X80187800Y-74980800D03*
X76750000Y-65500000D03*
X74371200Y-72669400D03*
X76091152Y-72595314D03*
X65225002Y-66675000D03*
X65950002Y-65900000D03*
X65100000Y-65025000D03*
X64375000Y-65775000D03*
X81229200Y-77876400D03*
X64871600Y-74523600D03*
X68173600Y-79598800D03*
X71250000Y-65499998D03*
X79857600Y-77927200D03*
X75287904Y-72605132D03*
X74930476Y-73705535D03*
X73000008Y-73200000D03*
X71780400Y-72645990D03*
X70091300Y-72529700D03*
X73609200Y-72593200D03*
X77600000Y-65500000D03*
X76000000Y-65500000D03*
X75200000Y-65500000D03*
X72750000Y-65499990D03*
X72000000Y-65495694D03*
X80000000Y-65500000D03*
X79250000Y-65500000D03*
X78500000Y-65500000D03*
X77238654Y-72628947D03*
X70976900Y-72666000D03*
X80165102Y-72631300D03*
X79387700Y-72644000D03*
D18*
X77724000Y-88011000D03*
D17*
X77990700Y-72669398D03*
X69700000Y-88000000D03*
D19*
X69519392Y-70855278D02*
X69623907Y-70855278D01*
X67847057Y-69182943D02*
X69519392Y-70855278D01*
X79199000Y-85495000D02*
X79524000Y-85820000D01*
X79199000Y-84320000D02*
X79199000Y-85495000D01*
X80328841Y-76057053D02*
X80385894Y-76114106D01*
X78800000Y-76114106D02*
X78742947Y-76057053D01*
X78219795Y-76057053D02*
X77331371Y-75168629D01*
X78742947Y-76057053D02*
X78219795Y-76057053D01*
X72000000Y-68705888D02*
X72005888Y-68705888D01*
X71886648Y-68592536D02*
X72000000Y-68705888D01*
X69706370Y-68675000D02*
X70755277Y-69723907D01*
X69450000Y-68675000D02*
X69706370Y-68675000D01*
X79849000Y-86145000D02*
X79849000Y-87320000D01*
X79524000Y-85820000D02*
X79849000Y-86145000D01*
X80385894Y-76114106D02*
X80385894Y-76064106D01*
X71886648Y-68592536D02*
X71917536Y-68592536D01*
X71917536Y-68592536D02*
X72775000Y-69450000D01*
X69690000Y-86085000D02*
X69675000Y-86100000D01*
X69690000Y-85255000D02*
X69690000Y-86085000D01*
X80514106Y-76242318D02*
X80385894Y-76114106D01*
X78660500Y-80494000D02*
X78660500Y-80368900D01*
X79883000Y-89893000D02*
X81257000Y-89893000D01*
X81257000Y-89893000D02*
X81280000Y-89916000D01*
X76860400Y-84683600D02*
X77343000Y-84201000D01*
D20*
X79524000Y-85820000D02*
X78200000Y-85820000D01*
X77343000Y-84963000D02*
X77343000Y-84201000D01*
X78200000Y-85820000D02*
X77343000Y-84963000D01*
D19*
X76860400Y-86408400D02*
X76860400Y-84683600D01*
X64990000Y-80367000D02*
X67090000Y-80367000D01*
X64990000Y-80367000D02*
X64990000Y-81822000D01*
X64990000Y-81822000D02*
X64973200Y-81838800D01*
X75946000Y-85598000D02*
X76860400Y-84683600D01*
X75260200Y-85598000D02*
X75946000Y-85598000D01*
X71203741Y-70172371D02*
X70755277Y-69723907D01*
X72052629Y-70172371D02*
X71203741Y-70172371D01*
X72775000Y-69450000D02*
X72052629Y-70172371D01*
X79638694Y-76114106D02*
X78800000Y-76114106D01*
X80385894Y-76114106D02*
X79638694Y-76114106D01*
X79638694Y-76114106D02*
X79638694Y-75529906D01*
X79638694Y-75529906D02*
X80187800Y-74980800D01*
D21*
X66090800Y-82956400D02*
X64973200Y-81838800D01*
X66090800Y-83288600D02*
X66090800Y-82956400D01*
D19*
X64566800Y-67614800D02*
X64566800Y-67360800D01*
X66998529Y-70031472D02*
X66983472Y-70031472D01*
X66983472Y-70031472D02*
X64566800Y-67614800D01*
X77343000Y-82880200D02*
X77343000Y-84201000D01*
X77343000Y-82457000D02*
X77343000Y-82880200D01*
X78363500Y-81436500D02*
X77343000Y-82457000D01*
X78691000Y-81764000D02*
X78986000Y-81764000D01*
X78363500Y-81436500D02*
X78691000Y-81764000D01*
X78660500Y-80494000D02*
X78363500Y-80791000D01*
X78363500Y-80791000D02*
X78363500Y-81436500D01*
X69690000Y-83010000D02*
X69690000Y-83985000D01*
X69690000Y-82844800D02*
X69690000Y-83985000D01*
X70233400Y-80797400D02*
X70233400Y-82301400D01*
X70233400Y-82301400D02*
X69690000Y-82844800D01*
X63700000Y-77924000D02*
X63700000Y-67300000D01*
X77262910Y-68660996D02*
X77262910Y-66437174D01*
X77262910Y-66437174D02*
X76750000Y-65924264D01*
X70233400Y-80797400D02*
X68480800Y-79044800D01*
X68480800Y-79044800D02*
X64820800Y-79044800D01*
X66304001Y-64695999D02*
X76370263Y-64695999D01*
X76750000Y-65924264D02*
X76750000Y-65500000D01*
X64820800Y-79044800D02*
X63700000Y-77924000D01*
X76750000Y-65075736D02*
X76750000Y-65500000D01*
X76765685Y-69158221D02*
X77262910Y-68660996D01*
X63700000Y-67300000D02*
X66304001Y-64695999D01*
X76370263Y-64695999D02*
X76750000Y-65075736D01*
D22*
X71602600Y-84612400D02*
X70960000Y-85255000D01*
X71602600Y-83515200D02*
X71602600Y-84612400D01*
D19*
X71602600Y-77876400D02*
X71602600Y-83515200D01*
X72452334Y-76865685D02*
X72452334Y-77026666D01*
X72452334Y-77026666D02*
X71602600Y-77876400D01*
X72452334Y-76865685D02*
X74371200Y-74946819D01*
X74371200Y-74946819D02*
X74371200Y-72669400D01*
X75946000Y-78308742D02*
X75068629Y-77431371D01*
X75946000Y-78435200D02*
X75946000Y-78308742D01*
D22*
X70375799Y-85637015D02*
X70375799Y-84569201D01*
X70577985Y-85839201D02*
X70375799Y-85637015D01*
X71240417Y-85839201D02*
X70577985Y-85839201D01*
X71544201Y-85535417D02*
X71240417Y-85839201D01*
X72872600Y-84232414D02*
X72434215Y-84670799D01*
X71544201Y-85030023D02*
X71544201Y-85535417D01*
X72872600Y-83794600D02*
X72872600Y-84232414D01*
X70375799Y-84569201D02*
X70960000Y-83985000D01*
X72434215Y-84670799D02*
X71903425Y-84670799D01*
X71903425Y-84670799D02*
X71544201Y-85030023D01*
D19*
X76957201Y-80319599D02*
X73990200Y-83286600D01*
X75946000Y-78435200D02*
X76957201Y-79446401D01*
X73380600Y-83286600D02*
X72872600Y-83794600D01*
X73990200Y-83286600D02*
X73380600Y-83286600D01*
X76957201Y-79446401D02*
X76957201Y-80319599D01*
X75068629Y-77431371D02*
X74432234Y-76794976D01*
X76091152Y-73364781D02*
X76091152Y-72595314D01*
X75234789Y-74221144D02*
X76091152Y-73364781D01*
X74432234Y-76118996D02*
X75234789Y-75316441D01*
X75234789Y-75316441D02*
X75234789Y-74221144D01*
X74432234Y-76794976D02*
X74432234Y-76118996D01*
X79956000Y-80773500D02*
X80235500Y-80494000D01*
X79956000Y-81764000D02*
X79956000Y-80773500D01*
X75223950Y-76455321D02*
X75634314Y-76865685D01*
X77212500Y-78443871D02*
X75634314Y-76865685D01*
X77212500Y-78500000D02*
X77212500Y-78443871D01*
X69263400Y-80797400D02*
X69263400Y-80688600D01*
X69263400Y-80688600D02*
X68173600Y-79598800D01*
X73018629Y-77431371D02*
X73018019Y-77431371D01*
X72230000Y-83985000D02*
X72230000Y-78219390D01*
X72230000Y-78219390D02*
X73018019Y-77431371D01*
X74853778Y-75158622D02*
X74853778Y-73039258D01*
X73654414Y-76357986D02*
X74853778Y-75158622D01*
X74853778Y-73039258D02*
X75287904Y-72605132D01*
X73018019Y-77431371D02*
X73654414Y-76794976D01*
X73654414Y-76794976D02*
X73654414Y-76357986D01*
X69850000Y-74811968D02*
X69850000Y-75184000D01*
X70189592Y-74602944D02*
X71592536Y-73200000D01*
X71592536Y-73200000D02*
X73000008Y-73200000D01*
X75068629Y-67461165D02*
X73914000Y-68615794D01*
X73914000Y-68615794D02*
X73914000Y-70512390D01*
X73914000Y-70512390D02*
X71780400Y-72645990D01*
X68895427Y-73471573D02*
X67538600Y-74828400D01*
X69058221Y-73471573D02*
X68895427Y-73471573D01*
X69149427Y-73471573D02*
X70091300Y-72529700D01*
X69058221Y-73471573D02*
X69149427Y-73471573D01*
X69991678Y-77063600D02*
X69392800Y-77063600D01*
X71320963Y-75734315D02*
X69991678Y-77063600D01*
X71800000Y-76300000D02*
X71886648Y-76300000D01*
X70434200Y-77752448D02*
X70434200Y-77952600D01*
X71886648Y-76300000D02*
X70434200Y-77752448D01*
X73754002Y-74432646D02*
X73754002Y-72738002D01*
X71886648Y-76300000D02*
X73754002Y-74432646D01*
X73754002Y-72738002D02*
X73609200Y-72593200D01*
X77899999Y-65799999D02*
X77600000Y-65500000D01*
X77899999Y-69155279D02*
X77899999Y-65799999D01*
X77331371Y-69723907D02*
X77899999Y-69155279D01*
X76000000Y-65950437D02*
X76000000Y-65500000D01*
X76733400Y-66683837D02*
X76000000Y-65950437D01*
X76733400Y-68059136D02*
X76733400Y-66683837D01*
X76200000Y-68592536D02*
X76733400Y-68059136D01*
X75200000Y-65924264D02*
X75200000Y-65500000D01*
X76200000Y-66924264D02*
X75200000Y-65924264D01*
X76200000Y-67461165D02*
X76200000Y-66924264D01*
X75634314Y-68026851D02*
X76200000Y-67461165D01*
X73018019Y-65768009D02*
X72750000Y-65499990D01*
X73018019Y-67461165D02*
X73018019Y-65768009D01*
X72000000Y-67574517D02*
X72000000Y-65495694D01*
X72452334Y-68026851D02*
X72000000Y-67574517D01*
X79028427Y-71420963D02*
X79417336Y-71420963D01*
X79417336Y-71420963D02*
X80000000Y-70838299D01*
X80000000Y-70838299D02*
X80000000Y-65500000D01*
X79250000Y-65924264D02*
X79250000Y-65500000D01*
X79250000Y-70068019D02*
X79250000Y-65924264D01*
X78462741Y-70855278D02*
X79250000Y-70068019D01*
X78500000Y-69686648D02*
X78500000Y-65500000D01*
X77897056Y-70289592D02*
X78500000Y-69686648D01*
X75615800Y-75715800D02*
X75615800Y-74676065D01*
X76200000Y-76300000D02*
X75615800Y-75715800D01*
X77238654Y-73053211D02*
X77238654Y-72628947D01*
X75615800Y-74676065D02*
X77238654Y-73053211D01*
X69623907Y-74018993D02*
X70976900Y-72666000D01*
X69623907Y-74037258D02*
X69623907Y-74018993D01*
X79212998Y-74777600D02*
X80165102Y-73825496D01*
X80165102Y-73825496D02*
X80165102Y-72631300D01*
X79203083Y-74777600D02*
X79212998Y-74777600D01*
X78462741Y-74037258D02*
X79203083Y-74777600D01*
X79028427Y-73003273D02*
X79387700Y-72644000D01*
X79028427Y-73471573D02*
X79028427Y-73003273D01*
X78574401Y-87847401D02*
X78549000Y-87822000D01*
X78549000Y-87822000D02*
X78549000Y-87320000D01*
X80499000Y-87822000D02*
X80473599Y-87847401D01*
X80499000Y-87320000D02*
X80499000Y-87822000D01*
X78807000Y-88080000D02*
X78574401Y-87847401D01*
X80473599Y-87847401D02*
X80241000Y-88080000D01*
X76918800Y-87320000D02*
X76860400Y-87378400D01*
X75465600Y-87378400D02*
X75260200Y-87173000D01*
X76860400Y-87378400D02*
X75465600Y-87378400D01*
X77724000Y-87376000D02*
X77780000Y-87320000D01*
X77724000Y-88138000D02*
X77724000Y-87376000D01*
X78549000Y-87320000D02*
X77780000Y-87320000D01*
X77780000Y-87320000D02*
X76918800Y-87320000D01*
X79941000Y-88080000D02*
X78807000Y-88080000D01*
X80241000Y-88080000D02*
X79941000Y-88080000D01*
X78787500Y-77712500D02*
X78787500Y-78500000D01*
X79700000Y-76800000D02*
X78787500Y-77712500D01*
X78549000Y-83120000D02*
X78635000Y-83034000D01*
X78549000Y-83095600D02*
X78549000Y-84320000D01*
X78460600Y-83007200D02*
X78549000Y-83095600D01*
X77774317Y-76742947D02*
X76765685Y-75734315D01*
X78057053Y-76742947D02*
X77774317Y-76742947D01*
X66150000Y-70880000D02*
X66995000Y-71725000D01*
X68754184Y-71725000D02*
X69058221Y-71420963D01*
X66995000Y-71725000D02*
X68754184Y-71725000D01*
X77990700Y-73004764D02*
X77990700Y-72669398D01*
X77317600Y-74023488D02*
X77317600Y-73677864D01*
X77897056Y-74602944D02*
X77317600Y-74023488D01*
X77317600Y-73677864D02*
X77990700Y-73004764D01*
X72230000Y-87232000D02*
X72390000Y-87392000D01*
X72230000Y-85255000D02*
X72230000Y-87232000D01*
X69723000Y-78663800D02*
X69748306Y-78638494D01*
X65265300Y-78663800D02*
X69723000Y-78663800D01*
X64990000Y-77367000D02*
X64990000Y-78388500D01*
X64990000Y-78388500D02*
X65265300Y-78663800D01*
X66040000Y-76327000D02*
X66852706Y-75514294D01*
X66040000Y-77367000D02*
X66040000Y-76327000D01*
X68160994Y-77749494D02*
X68706906Y-77749494D01*
X68008500Y-77597000D02*
X68160994Y-77749494D01*
X67090000Y-77367000D02*
X67320000Y-77597000D01*
X67320000Y-77597000D02*
X68008500Y-77597000D01*
X79883000Y-88923000D02*
X79577000Y-88923000D01*
X79577000Y-88923000D02*
X77900000Y-90600000D01*
X72648000Y-90600000D02*
X71440000Y-89392000D01*
X77900000Y-90600000D02*
X72648000Y-90600000D01*
X71440000Y-89392000D02*
X71440000Y-89560000D01*
X71440000Y-89560000D02*
X69880000Y-88000000D01*
X69880000Y-88000000D02*
X69700000Y-88000000D01*
G36*
X82530084Y-90377010D02*
G01*
X81197282Y-91709813D01*
X65316969Y-91733621D01*
X64894687Y-91674156D01*
X64499171Y-91536301D01*
X64137964Y-91324250D01*
X63824823Y-91046078D01*
X63571678Y-90712382D01*
X63388168Y-90335870D01*
X63279715Y-89924936D01*
X63255756Y-89700454D01*
X63255537Y-88866643D01*
X64646000Y-88866643D01*
X64646000Y-89133357D01*
X64698034Y-89394947D01*
X64800101Y-89641359D01*
X64948280Y-89863124D01*
X65136876Y-90051720D01*
X65358641Y-90199899D01*
X65605053Y-90301966D01*
X65866643Y-90354000D01*
X66133357Y-90354000D01*
X66394947Y-90301966D01*
X66641359Y-90199899D01*
X66863124Y-90051720D01*
X67051720Y-89863124D01*
X67199899Y-89641359D01*
X67301966Y-89394947D01*
X67354000Y-89133357D01*
X67354000Y-88866643D01*
X67301966Y-88605053D01*
X67199899Y-88358641D01*
X67051720Y-88136876D01*
X66863124Y-87948280D01*
X66858868Y-87945436D01*
X69146000Y-87945436D01*
X69146000Y-88054564D01*
X69167289Y-88161596D01*
X69209051Y-88262418D01*
X69269680Y-88353155D01*
X69346845Y-88430320D01*
X69437582Y-88490949D01*
X69538404Y-88532711D01*
X69645436Y-88554000D01*
X69754564Y-88554000D01*
X69861596Y-88532711D01*
X69870294Y-88529108D01*
X70784772Y-89443587D01*
X70784772Y-89842000D01*
X70789676Y-89891793D01*
X70804200Y-89939672D01*
X70827786Y-89983797D01*
X70859527Y-90022473D01*
X70898203Y-90054214D01*
X70942328Y-90077800D01*
X70990207Y-90092324D01*
X71040000Y-90097228D01*
X71606414Y-90097228D01*
X72365359Y-90856174D01*
X72377289Y-90870711D01*
X72391824Y-90882639D01*
X72435303Y-90918322D01*
X72499941Y-90952872D01*
X72501492Y-90953701D01*
X72573311Y-90975487D01*
X72629287Y-90981000D01*
X72629290Y-90981000D01*
X72648000Y-90982843D01*
X72666710Y-90981000D01*
X77881290Y-90981000D01*
X77900000Y-90982843D01*
X77918710Y-90981000D01*
X77918713Y-90981000D01*
X77974689Y-90975487D01*
X78046508Y-90953701D01*
X78112696Y-90918322D01*
X78170711Y-90870711D01*
X78182646Y-90856168D01*
X79309351Y-89729463D01*
X79307772Y-89745500D01*
X79307772Y-90040500D01*
X79315510Y-90119068D01*
X79338428Y-90194617D01*
X79375644Y-90264244D01*
X79425728Y-90325272D01*
X79486756Y-90375356D01*
X79556383Y-90412572D01*
X79631932Y-90435490D01*
X79710500Y-90443228D01*
X80055500Y-90443228D01*
X80134068Y-90435490D01*
X80209617Y-90412572D01*
X80279244Y-90375356D01*
X80340272Y-90325272D01*
X80382350Y-90274000D01*
X80854525Y-90274000D01*
X80926845Y-90346320D01*
X81017582Y-90406949D01*
X81118404Y-90448711D01*
X81225436Y-90470000D01*
X81334564Y-90470000D01*
X81441596Y-90448711D01*
X81542418Y-90406949D01*
X81633155Y-90346320D01*
X81710320Y-90269155D01*
X81770949Y-90178418D01*
X81812711Y-90077596D01*
X81834000Y-89970564D01*
X81834000Y-89861436D01*
X81812711Y-89754404D01*
X81770949Y-89653582D01*
X81710320Y-89562845D01*
X81633155Y-89485680D01*
X81542418Y-89425051D01*
X81441596Y-89383289D01*
X81334564Y-89362000D01*
X81225436Y-89362000D01*
X81118404Y-89383289D01*
X81017582Y-89425051D01*
X80926845Y-89485680D01*
X80900525Y-89512000D01*
X80382350Y-89512000D01*
X80340272Y-89460728D01*
X80279244Y-89410644D01*
X80274297Y-89408000D01*
X80279244Y-89405356D01*
X80340272Y-89355272D01*
X80390356Y-89294244D01*
X80427572Y-89224617D01*
X80450490Y-89149068D01*
X80458228Y-89070500D01*
X80458228Y-88775500D01*
X80450490Y-88696932D01*
X80427572Y-88621383D01*
X80390356Y-88551756D01*
X80340272Y-88490728D01*
X80299298Y-88457101D01*
X80315689Y-88455487D01*
X80387508Y-88433701D01*
X80453696Y-88398322D01*
X80511711Y-88350711D01*
X80523645Y-88336169D01*
X80755174Y-88104641D01*
X80769711Y-88092711D01*
X80817322Y-88034696D01*
X80852701Y-87968508D01*
X80874487Y-87896689D01*
X80879591Y-87844867D01*
X80886214Y-87836797D01*
X80909800Y-87792672D01*
X80924324Y-87744793D01*
X80929228Y-87695000D01*
X80929228Y-86945000D01*
X80924324Y-86895207D01*
X80909800Y-86847328D01*
X80890767Y-86811721D01*
X80904473Y-86800473D01*
X80936214Y-86761797D01*
X80959800Y-86717672D01*
X80974324Y-86669793D01*
X80979228Y-86620000D01*
X80979228Y-85020000D01*
X80974324Y-84970207D01*
X80959800Y-84922328D01*
X80936214Y-84878203D01*
X80904473Y-84839527D01*
X80865797Y-84807786D01*
X80821672Y-84784200D01*
X80773793Y-84769676D01*
X80724000Y-84764772D01*
X80268263Y-84764772D01*
X80274324Y-84744793D01*
X80279228Y-84695000D01*
X80279228Y-83945000D01*
X80274324Y-83895207D01*
X80259800Y-83847328D01*
X80236214Y-83803203D01*
X80204473Y-83764527D01*
X80165797Y-83732786D01*
X80121672Y-83709200D01*
X80073793Y-83694676D01*
X80024000Y-83689772D01*
X79674000Y-83689772D01*
X79624207Y-83694676D01*
X79576328Y-83709200D01*
X79532203Y-83732786D01*
X79524000Y-83739518D01*
X79515797Y-83732786D01*
X79471672Y-83709200D01*
X79423793Y-83694676D01*
X79374000Y-83689772D01*
X79024000Y-83689772D01*
X78974207Y-83694676D01*
X78930000Y-83708086D01*
X78930000Y-83664325D01*
X78942678Y-83657548D01*
X79014503Y-83598603D01*
X79073448Y-83526778D01*
X79117249Y-83444834D01*
X79144221Y-83355919D01*
X79153328Y-83263450D01*
X79153328Y-82750950D01*
X79144221Y-82658481D01*
X79117249Y-82569566D01*
X79073448Y-82487622D01*
X79014503Y-82415797D01*
X78942678Y-82356852D01*
X78909707Y-82339228D01*
X79133500Y-82339228D01*
X79212068Y-82331490D01*
X79287617Y-82308572D01*
X79357244Y-82271356D01*
X79418272Y-82221272D01*
X79468356Y-82160244D01*
X79505572Y-82090617D01*
X79528490Y-82015068D01*
X79536228Y-81936500D01*
X79536228Y-81591500D01*
X79528490Y-81512932D01*
X79505572Y-81437383D01*
X79468356Y-81367756D01*
X79418272Y-81306728D01*
X79357244Y-81256644D01*
X79287617Y-81219428D01*
X79212068Y-81196510D01*
X79133500Y-81188772D01*
X79058580Y-81188772D01*
X79060634Y-81188149D01*
X79142578Y-81144348D01*
X79214403Y-81085403D01*
X79273348Y-81013578D01*
X79317149Y-80931634D01*
X79344121Y-80842719D01*
X79353228Y-80750250D01*
X79353228Y-80237750D01*
X79344121Y-80145281D01*
X79317149Y-80056366D01*
X79273348Y-79974422D01*
X79214403Y-79902597D01*
X79142578Y-79843652D01*
X79060634Y-79799851D01*
X78971719Y-79772879D01*
X78879250Y-79763772D01*
X78441750Y-79763772D01*
X78349281Y-79772879D01*
X78260366Y-79799851D01*
X78178422Y-79843652D01*
X78106597Y-79902597D01*
X78047652Y-79974422D01*
X78003851Y-80056366D01*
X77976879Y-80145281D01*
X77967772Y-80237750D01*
X77967772Y-80750250D01*
X77976879Y-80842719D01*
X77982500Y-80861249D01*
X77982501Y-81278684D01*
X77086832Y-82174354D01*
X77072289Y-82186289D01*
X77043580Y-82221272D01*
X77024678Y-82244304D01*
X77002349Y-82286079D01*
X76989299Y-82310493D01*
X76967513Y-82382312D01*
X76962000Y-82438287D01*
X76960157Y-82457000D01*
X76962000Y-82475710D01*
X76962000Y-82477725D01*
X76912680Y-82527045D01*
X76852051Y-82617782D01*
X76810289Y-82718604D01*
X76789000Y-82825636D01*
X76789000Y-82934764D01*
X76810289Y-83041796D01*
X76852051Y-83142618D01*
X76912680Y-83233355D01*
X76962000Y-83282675D01*
X76962001Y-83950708D01*
X76921531Y-84026421D01*
X76896610Y-84108575D01*
X76604229Y-84400957D01*
X76604224Y-84400961D01*
X76604222Y-84400963D01*
X76589690Y-84412889D01*
X76577764Y-84427421D01*
X75900954Y-85104232D01*
X75851603Y-85044097D01*
X75779778Y-84985152D01*
X75697834Y-84941351D01*
X75608919Y-84914379D01*
X75516450Y-84905272D01*
X75003950Y-84905272D01*
X74911481Y-84914379D01*
X74822566Y-84941351D01*
X74740622Y-84985152D01*
X74668797Y-85044097D01*
X74609852Y-85115922D01*
X74566051Y-85197866D01*
X74539079Y-85286781D01*
X74529972Y-85379250D01*
X74529972Y-85816750D01*
X74539079Y-85909219D01*
X74566051Y-85998134D01*
X74609852Y-86080078D01*
X74668797Y-86151903D01*
X74740622Y-86210848D01*
X74822566Y-86254649D01*
X74911481Y-86281621D01*
X75003950Y-86290728D01*
X75516450Y-86290728D01*
X75608919Y-86281621D01*
X75697834Y-86254649D01*
X75779778Y-86210848D01*
X75851603Y-86151903D01*
X75910548Y-86080078D01*
X75954349Y-85998134D01*
X75960013Y-85979463D01*
X75964710Y-85979000D01*
X75964713Y-85979000D01*
X76020689Y-85973487D01*
X76092508Y-85951701D01*
X76158696Y-85916322D01*
X76216711Y-85868711D01*
X76228646Y-85854168D01*
X76479400Y-85603414D01*
X76479400Y-85917896D01*
X76464156Y-85926044D01*
X76403128Y-85976128D01*
X76353044Y-86037156D01*
X76315828Y-86106783D01*
X76292910Y-86182332D01*
X76285172Y-86260900D01*
X76285172Y-86555900D01*
X76292910Y-86634468D01*
X76315828Y-86710017D01*
X76353044Y-86779644D01*
X76403128Y-86840672D01*
X76464156Y-86890756D01*
X76469103Y-86893400D01*
X76464156Y-86896044D01*
X76403128Y-86946128D01*
X76361050Y-86997400D01*
X75990428Y-86997400D01*
X75990428Y-86954250D01*
X75981321Y-86861781D01*
X75954349Y-86772866D01*
X75910548Y-86690922D01*
X75851603Y-86619097D01*
X75779778Y-86560152D01*
X75697834Y-86516351D01*
X75608919Y-86489379D01*
X75516450Y-86480272D01*
X75003950Y-86480272D01*
X74911481Y-86489379D01*
X74822566Y-86516351D01*
X74740622Y-86560152D01*
X74668797Y-86619097D01*
X74609852Y-86690922D01*
X74566051Y-86772866D01*
X74539079Y-86861781D01*
X74529972Y-86954250D01*
X74529972Y-87391750D01*
X74539079Y-87484219D01*
X74566051Y-87573134D01*
X74609852Y-87655078D01*
X74668797Y-87726903D01*
X74740622Y-87785848D01*
X74822566Y-87829649D01*
X74911481Y-87856621D01*
X75003950Y-87865728D01*
X75516450Y-87865728D01*
X75608919Y-87856621D01*
X75697834Y-87829649D01*
X75779778Y-87785848D01*
X75812005Y-87759400D01*
X76361050Y-87759400D01*
X76403128Y-87810672D01*
X76464156Y-87860756D01*
X76533783Y-87897972D01*
X76609332Y-87920890D01*
X76687900Y-87928628D01*
X77032900Y-87928628D01*
X77074385Y-87924542D01*
X77070000Y-87946587D01*
X77070000Y-88075413D01*
X77095133Y-88201765D01*
X77144433Y-88320785D01*
X77216005Y-88427900D01*
X77307100Y-88518995D01*
X77414215Y-88590567D01*
X77533235Y-88639867D01*
X77659587Y-88665000D01*
X77788413Y-88665000D01*
X77914765Y-88639867D01*
X78033785Y-88590567D01*
X78140900Y-88518995D01*
X78231995Y-88427900D01*
X78303567Y-88320785D01*
X78352867Y-88201765D01*
X78359020Y-88170834D01*
X78524358Y-88336173D01*
X78536289Y-88350711D01*
X78550824Y-88362639D01*
X78550825Y-88362640D01*
X78594303Y-88398322D01*
X78649639Y-88427900D01*
X78660492Y-88433701D01*
X78732311Y-88455487D01*
X78788287Y-88461000D01*
X78788290Y-88461000D01*
X78807000Y-88462843D01*
X78825710Y-88461000D01*
X79461952Y-88461000D01*
X79425728Y-88490728D01*
X79375644Y-88551756D01*
X79338428Y-88621383D01*
X79336598Y-88627415D01*
X79334972Y-88628750D01*
X79306289Y-88652289D01*
X79294359Y-88666826D01*
X77742186Y-90219000D01*
X72805815Y-90219000D01*
X72095228Y-89508414D01*
X72095228Y-88942000D01*
X72090324Y-88892207D01*
X72075800Y-88844328D01*
X72052214Y-88800203D01*
X72020473Y-88761527D01*
X71981797Y-88729786D01*
X71937672Y-88706200D01*
X71889793Y-88691676D01*
X71840000Y-88686772D01*
X71105587Y-88686772D01*
X70215382Y-87796568D01*
X70190949Y-87737582D01*
X70130320Y-87646845D01*
X70053155Y-87569680D01*
X69962418Y-87509051D01*
X69861596Y-87467289D01*
X69754564Y-87446000D01*
X69645436Y-87446000D01*
X69538404Y-87467289D01*
X69437582Y-87509051D01*
X69346845Y-87569680D01*
X69269680Y-87646845D01*
X69209051Y-87737582D01*
X69167289Y-87838404D01*
X69146000Y-87945436D01*
X66858868Y-87945436D01*
X66641359Y-87800101D01*
X66394947Y-87698034D01*
X66133357Y-87646000D01*
X65866643Y-87646000D01*
X65605053Y-87698034D01*
X65358641Y-87800101D01*
X65136876Y-87948280D01*
X64948280Y-88136876D01*
X64800101Y-88358641D01*
X64698034Y-88605053D01*
X64646000Y-88866643D01*
X63255537Y-88866643D01*
X63249868Y-67300000D01*
X63317157Y-67300000D01*
X63319001Y-67318720D01*
X63319000Y-77905290D01*
X63317157Y-77924000D01*
X63319000Y-77942710D01*
X63319000Y-77942712D01*
X63324513Y-77998688D01*
X63344993Y-78066201D01*
X63346299Y-78070507D01*
X63381678Y-78136696D01*
X63390225Y-78147110D01*
X63429289Y-78194711D01*
X63443832Y-78206646D01*
X64538163Y-79300979D01*
X64550089Y-79315511D01*
X64561952Y-79325247D01*
X64542328Y-79331200D01*
X64498203Y-79354786D01*
X64459527Y-79386527D01*
X64427786Y-79425203D01*
X64404200Y-79469328D01*
X64389676Y-79517207D01*
X64384772Y-79567000D01*
X64384772Y-81167000D01*
X64389676Y-81216793D01*
X64404200Y-81264672D01*
X64427786Y-81308797D01*
X64459527Y-81347473D01*
X64498203Y-81379214D01*
X64542328Y-81402800D01*
X64590207Y-81417324D01*
X64609001Y-81419175D01*
X64609001Y-81419524D01*
X64542880Y-81485645D01*
X64482251Y-81576382D01*
X64440489Y-81677204D01*
X64419200Y-81784236D01*
X64419200Y-81893364D01*
X64440489Y-82000396D01*
X64482251Y-82101218D01*
X64542880Y-82191955D01*
X64620045Y-82269120D01*
X64710782Y-82329749D01*
X64770440Y-82354460D01*
X65237276Y-82821297D01*
X65235572Y-82838600D01*
X65235572Y-83738600D01*
X65240476Y-83788393D01*
X65255000Y-83836272D01*
X65278586Y-83880397D01*
X65310327Y-83919073D01*
X65349003Y-83950814D01*
X65393128Y-83974400D01*
X65441007Y-83988924D01*
X65490800Y-83993828D01*
X66690800Y-83993828D01*
X66740593Y-83988924D01*
X66788472Y-83974400D01*
X66832597Y-83950814D01*
X66871273Y-83919073D01*
X66903014Y-83880397D01*
X66926600Y-83836272D01*
X66941124Y-83788393D01*
X66946028Y-83738600D01*
X66946028Y-82838600D01*
X66941124Y-82788807D01*
X66926600Y-82740928D01*
X66903014Y-82696803D01*
X66871273Y-82658127D01*
X66832597Y-82626386D01*
X66788472Y-82602800D01*
X66740593Y-82588276D01*
X66690800Y-82583372D01*
X66437028Y-82583372D01*
X66432371Y-82579550D01*
X65488860Y-81636040D01*
X65464149Y-81576382D01*
X65403520Y-81485645D01*
X65371000Y-81453125D01*
X65371000Y-81419175D01*
X65389793Y-81417324D01*
X65437672Y-81402800D01*
X65481797Y-81379214D01*
X65515000Y-81351965D01*
X65548203Y-81379214D01*
X65592328Y-81402800D01*
X65640207Y-81417324D01*
X65690000Y-81422228D01*
X66390000Y-81422228D01*
X66439793Y-81417324D01*
X66487672Y-81402800D01*
X66531797Y-81379214D01*
X66565000Y-81351965D01*
X66598203Y-81379214D01*
X66642328Y-81402800D01*
X66690207Y-81417324D01*
X66740000Y-81422228D01*
X67440000Y-81422228D01*
X67489793Y-81417324D01*
X67537672Y-81402800D01*
X67581797Y-81379214D01*
X67620473Y-81347473D01*
X67652214Y-81308797D01*
X67675800Y-81264672D01*
X67690324Y-81216793D01*
X67695228Y-81167000D01*
X67695228Y-79567000D01*
X67690324Y-79517207D01*
X67675800Y-79469328D01*
X67652533Y-79425800D01*
X68322986Y-79425800D01*
X69683172Y-80785987D01*
X69683172Y-80969900D01*
X69690910Y-81048468D01*
X69713828Y-81124017D01*
X69751044Y-81193644D01*
X69801128Y-81254672D01*
X69852400Y-81296750D01*
X69852401Y-82143584D01*
X69433831Y-82562155D01*
X69419289Y-82574089D01*
X69395147Y-82603507D01*
X69371678Y-82632104D01*
X69339835Y-82691678D01*
X69336299Y-82698293D01*
X69314513Y-82770112D01*
X69309471Y-82821304D01*
X69307157Y-82844800D01*
X69309000Y-82863510D01*
X69309000Y-83460594D01*
X69277115Y-83481899D01*
X69186899Y-83572115D01*
X69169300Y-83598454D01*
X69169300Y-83530200D01*
X69140505Y-83385437D01*
X69084021Y-83249073D01*
X69002020Y-83126349D01*
X68897651Y-83021980D01*
X68774927Y-82939979D01*
X68638563Y-82883495D01*
X68493800Y-82854700D01*
X68346200Y-82854700D01*
X68201437Y-82883495D01*
X68065073Y-82939979D01*
X67942349Y-83021980D01*
X67837980Y-83126349D01*
X67755979Y-83249073D01*
X67699495Y-83385437D01*
X67670700Y-83530200D01*
X67670700Y-83677800D01*
X67699495Y-83822563D01*
X67755979Y-83958927D01*
X67837980Y-84081651D01*
X67942349Y-84186020D01*
X68065073Y-84268021D01*
X68201437Y-84324505D01*
X68346200Y-84353300D01*
X68493800Y-84353300D01*
X68638563Y-84324505D01*
X68774927Y-84268021D01*
X68897651Y-84186020D01*
X69002020Y-84081651D01*
X69042300Y-84021367D01*
X69042300Y-84048793D01*
X69067191Y-84173927D01*
X69116016Y-84291801D01*
X69186899Y-84397885D01*
X69277115Y-84488101D01*
X69383199Y-84558984D01*
X69501073Y-84607809D01*
X69562361Y-84620000D01*
X69501073Y-84632191D01*
X69383199Y-84681016D01*
X69277115Y-84751899D01*
X69186899Y-84842115D01*
X69116016Y-84948199D01*
X69067191Y-85066073D01*
X69042300Y-85191207D01*
X69042300Y-85218633D01*
X69002020Y-85158349D01*
X68897651Y-85053980D01*
X68774927Y-84971979D01*
X68638563Y-84915495D01*
X68493800Y-84886700D01*
X68346200Y-84886700D01*
X68201437Y-84915495D01*
X68065073Y-84971979D01*
X67942349Y-85053980D01*
X67837980Y-85158349D01*
X67755979Y-85281073D01*
X67699495Y-85417437D01*
X67670700Y-85562200D01*
X67670700Y-85709800D01*
X67699495Y-85854563D01*
X67755979Y-85990927D01*
X67837980Y-86113651D01*
X67942349Y-86218020D01*
X68065073Y-86300021D01*
X68201437Y-86356505D01*
X68346200Y-86385300D01*
X68493800Y-86385300D01*
X68638563Y-86356505D01*
X68774927Y-86300021D01*
X68897651Y-86218020D01*
X69002020Y-86113651D01*
X69084021Y-85990927D01*
X69140505Y-85854563D01*
X69169300Y-85709800D01*
X69169300Y-85641546D01*
X69186899Y-85667885D01*
X69255270Y-85736256D01*
X69244680Y-85746845D01*
X69184051Y-85837582D01*
X69142289Y-85938404D01*
X69121000Y-86045436D01*
X69121000Y-86154564D01*
X69142289Y-86261596D01*
X69184051Y-86362418D01*
X69244680Y-86453155D01*
X69321845Y-86530320D01*
X69412582Y-86590949D01*
X69513404Y-86632711D01*
X69620436Y-86654000D01*
X69729564Y-86654000D01*
X69836596Y-86632711D01*
X69937418Y-86590949D01*
X70028155Y-86530320D01*
X70105320Y-86453155D01*
X70165949Y-86362418D01*
X70207711Y-86261596D01*
X70229000Y-86154564D01*
X70229000Y-86045436D01*
X70207711Y-85938404D01*
X70193240Y-85903468D01*
X70342443Y-86052671D01*
X70352392Y-86064794D01*
X70400738Y-86104470D01*
X70455895Y-86133952D01*
X70515744Y-86152107D01*
X70562389Y-86156701D01*
X70562391Y-86156701D01*
X70577984Y-86158237D01*
X70593577Y-86156701D01*
X71224821Y-86156701D01*
X71240417Y-86158237D01*
X71256013Y-86156701D01*
X71302658Y-86152107D01*
X71362507Y-86133952D01*
X71417664Y-86104470D01*
X71466010Y-86064794D01*
X71475958Y-86052672D01*
X71757676Y-85770954D01*
X71769794Y-85761010D01*
X71792435Y-85733421D01*
X71817115Y-85758101D01*
X71849000Y-85779406D01*
X71849001Y-86729360D01*
X71848203Y-86729786D01*
X71809527Y-86761527D01*
X71777786Y-86800203D01*
X71754200Y-86844328D01*
X71739676Y-86892207D01*
X71734772Y-86942000D01*
X71734772Y-87842000D01*
X71739676Y-87891793D01*
X71754200Y-87939672D01*
X71777786Y-87983797D01*
X71809527Y-88022473D01*
X71848203Y-88054214D01*
X71892328Y-88077800D01*
X71940207Y-88092324D01*
X71990000Y-88097228D01*
X72790000Y-88097228D01*
X72839793Y-88092324D01*
X72887672Y-88077800D01*
X72931797Y-88054214D01*
X72970473Y-88022473D01*
X73002214Y-87983797D01*
X73025800Y-87939672D01*
X73040324Y-87891793D01*
X73045228Y-87842000D01*
X73045228Y-86942000D01*
X73040324Y-86892207D01*
X73025800Y-86844328D01*
X73002214Y-86800203D01*
X72970473Y-86761527D01*
X72931797Y-86729786D01*
X72887672Y-86706200D01*
X72839793Y-86691676D01*
X72790000Y-86686772D01*
X72611000Y-86686772D01*
X72611000Y-85779406D01*
X72642885Y-85758101D01*
X72733101Y-85667885D01*
X72803984Y-85561801D01*
X72852809Y-85443927D01*
X72877700Y-85318793D01*
X72877700Y-85191207D01*
X72852809Y-85066073D01*
X72803984Y-84948199D01*
X72733101Y-84842115D01*
X72722506Y-84831520D01*
X72768871Y-84785155D01*
X72779495Y-84838563D01*
X72835979Y-84974927D01*
X72917980Y-85097651D01*
X73022349Y-85202020D01*
X73145073Y-85284021D01*
X73281437Y-85340505D01*
X73426200Y-85369300D01*
X73573800Y-85369300D01*
X73718563Y-85340505D01*
X73854927Y-85284021D01*
X73977651Y-85202020D01*
X74082020Y-85097651D01*
X74164021Y-84974927D01*
X74220505Y-84838563D01*
X74249300Y-84693800D01*
X74249300Y-84546200D01*
X74220505Y-84401437D01*
X74164021Y-84265073D01*
X74082020Y-84142349D01*
X73977651Y-84037980D01*
X73854927Y-83955979D01*
X73718563Y-83899495D01*
X73573800Y-83870700D01*
X73426200Y-83870700D01*
X73312747Y-83893267D01*
X73538415Y-83667600D01*
X73971490Y-83667600D01*
X73990200Y-83669443D01*
X74008910Y-83667600D01*
X74008913Y-83667600D01*
X74064889Y-83662087D01*
X74136708Y-83640301D01*
X74202896Y-83604922D01*
X74260911Y-83557311D01*
X74272846Y-83542768D01*
X77213375Y-80602240D01*
X77227912Y-80590310D01*
X77251451Y-80561627D01*
X77275523Y-80532296D01*
X77310902Y-80466107D01*
X77318309Y-80441689D01*
X77332688Y-80394288D01*
X77338201Y-80338312D01*
X77338201Y-80338310D01*
X77340044Y-80319600D01*
X77338201Y-80300890D01*
X77338201Y-79465110D01*
X77340044Y-79446400D01*
X77338201Y-79427688D01*
X77332688Y-79371712D01*
X77310902Y-79299893D01*
X77275524Y-79233706D01*
X77275523Y-79233704D01*
X77247554Y-79199624D01*
X77227912Y-79175690D01*
X77213376Y-79163761D01*
X76325619Y-78276005D01*
X76321487Y-78234054D01*
X76299701Y-78162234D01*
X76290329Y-78144701D01*
X76264322Y-78096045D01*
X76236682Y-78062366D01*
X76216711Y-78038031D01*
X76202174Y-78026101D01*
X76067310Y-77891237D01*
X76079093Y-77852395D01*
X76083997Y-77802602D01*
X76079093Y-77752809D01*
X76064569Y-77704930D01*
X76040983Y-77660805D01*
X76009242Y-77622129D01*
X74877871Y-76490758D01*
X74839195Y-76459017D01*
X74813234Y-76445140D01*
X74813234Y-76276810D01*
X75187184Y-75902861D01*
X75184632Y-75928769D01*
X75189536Y-75978562D01*
X75204060Y-76026441D01*
X75227646Y-76070566D01*
X75259387Y-76109242D01*
X76390758Y-77240613D01*
X76429434Y-77272354D01*
X76473559Y-77295940D01*
X76521438Y-77310464D01*
X76571231Y-77315368D01*
X76621024Y-77310464D01*
X76668903Y-77295940D01*
X76713028Y-77272354D01*
X76751704Y-77240613D01*
X77140613Y-76851704D01*
X77172354Y-76813028D01*
X77195940Y-76768903D01*
X77204935Y-76739250D01*
X77225551Y-76732996D01*
X77491676Y-76999121D01*
X77503606Y-77013658D01*
X77518141Y-77025586D01*
X77561620Y-77061269D01*
X77627137Y-77096289D01*
X77627809Y-77096648D01*
X77634706Y-77098740D01*
X77789959Y-77253993D01*
X77850987Y-77304077D01*
X77920614Y-77341293D01*
X77996163Y-77364211D01*
X78074731Y-77371949D01*
X78153299Y-77364211D01*
X78228848Y-77341293D01*
X78298475Y-77304077D01*
X78359503Y-77253993D01*
X78568099Y-77045397D01*
X78618183Y-76984369D01*
X78655399Y-76914742D01*
X78678317Y-76839193D01*
X78686055Y-76760625D01*
X78678317Y-76682057D01*
X78676688Y-76676688D01*
X78682057Y-76678317D01*
X78760625Y-76686055D01*
X78839193Y-76678317D01*
X78914742Y-76655399D01*
X78984369Y-76618183D01*
X79045397Y-76568099D01*
X79118390Y-76495106D01*
X79191398Y-76495106D01*
X79188954Y-76497550D01*
X79138870Y-76558578D01*
X79101654Y-76628205D01*
X79078736Y-76703754D01*
X79070998Y-76782322D01*
X79078736Y-76860890D01*
X79083754Y-76877431D01*
X78531332Y-77429854D01*
X78516789Y-77441789D01*
X78486430Y-77478783D01*
X78469178Y-77499804D01*
X78443142Y-77548514D01*
X78433799Y-77565993D01*
X78412013Y-77637812D01*
X78409463Y-77663705D01*
X78404657Y-77712500D01*
X78406500Y-77731211D01*
X78406500Y-77800047D01*
X78387366Y-77805851D01*
X78305422Y-77849652D01*
X78233597Y-77908597D01*
X78174652Y-77980422D01*
X78130851Y-78062366D01*
X78103879Y-78151281D01*
X78094772Y-78243750D01*
X78094772Y-78756250D01*
X78103879Y-78848719D01*
X78130851Y-78937634D01*
X78174652Y-79019578D01*
X78233597Y-79091403D01*
X78305422Y-79150348D01*
X78387366Y-79194149D01*
X78476281Y-79221121D01*
X78568750Y-79230228D01*
X79006250Y-79230228D01*
X79098719Y-79221121D01*
X79187634Y-79194149D01*
X79269578Y-79150348D01*
X79341403Y-79091403D01*
X79400348Y-79019578D01*
X79444149Y-78937634D01*
X79471121Y-78848719D01*
X79480228Y-78756250D01*
X79480228Y-78243750D01*
X79471121Y-78151281D01*
X79444149Y-78062366D01*
X79400348Y-77980422D01*
X79341403Y-77908597D01*
X79269578Y-77849652D01*
X79217174Y-77821641D01*
X79622569Y-77416246D01*
X79639110Y-77421264D01*
X79717678Y-77429002D01*
X79796246Y-77421264D01*
X79871795Y-77398346D01*
X79941422Y-77361130D01*
X80002450Y-77311046D01*
X80211046Y-77102450D01*
X80261130Y-77041422D01*
X80298346Y-76971795D01*
X80321264Y-76896246D01*
X80329002Y-76817678D01*
X80321264Y-76739110D01*
X80319635Y-76733741D01*
X80325004Y-76735370D01*
X80403572Y-76743108D01*
X80482140Y-76735370D01*
X80557689Y-76712452D01*
X80627316Y-76675236D01*
X80688344Y-76625152D01*
X80896940Y-76416556D01*
X80947024Y-76355528D01*
X80984240Y-76285901D01*
X81007158Y-76210352D01*
X81014896Y-76131784D01*
X81007158Y-76053216D01*
X80984240Y-75977667D01*
X80947024Y-75908040D01*
X80896940Y-75847012D01*
X80652988Y-75603060D01*
X80591960Y-75552976D01*
X80522333Y-75515760D01*
X80446784Y-75492842D01*
X80408418Y-75489063D01*
X80450218Y-75471749D01*
X80540955Y-75411120D01*
X80618120Y-75333955D01*
X80678749Y-75243218D01*
X80720511Y-75142396D01*
X80741800Y-75035364D01*
X80741800Y-74926236D01*
X80720511Y-74819204D01*
X80678749Y-74718382D01*
X80618120Y-74627645D01*
X80540955Y-74550480D01*
X80450218Y-74489851D01*
X80349396Y-74448089D01*
X80242364Y-74426800D01*
X80133236Y-74426800D01*
X80095009Y-74434403D01*
X80421277Y-74108136D01*
X80435813Y-74096207D01*
X80467858Y-74057160D01*
X80483424Y-74038193D01*
X80503688Y-74000281D01*
X80518803Y-73972004D01*
X80540589Y-73900185D01*
X80546102Y-73844209D01*
X80546102Y-73844200D01*
X80547944Y-73825497D01*
X80546102Y-73806794D01*
X80546102Y-73033775D01*
X80595422Y-72984455D01*
X80656051Y-72893718D01*
X80697813Y-72792896D01*
X80719102Y-72685864D01*
X80719102Y-72576736D01*
X80697813Y-72469704D01*
X80656051Y-72368882D01*
X80595422Y-72278145D01*
X80518257Y-72200980D01*
X80427520Y-72140351D01*
X80326698Y-72098589D01*
X80219666Y-72077300D01*
X80110538Y-72077300D01*
X80003506Y-72098589D01*
X79902684Y-72140351D01*
X79811947Y-72200980D01*
X79770051Y-72242876D01*
X79740855Y-72213680D01*
X79650118Y-72153051D01*
X79549296Y-72111289D01*
X79442264Y-72090000D01*
X79333136Y-72090000D01*
X79226104Y-72111289D01*
X79125282Y-72153051D01*
X79034545Y-72213680D01*
X78957380Y-72290845D01*
X78896751Y-72381582D01*
X78854989Y-72482404D01*
X78844060Y-72537351D01*
X78837669Y-72530960D01*
X78798993Y-72499219D01*
X78754868Y-72475633D01*
X78706989Y-72461109D01*
X78657196Y-72456205D01*
X78607403Y-72461109D01*
X78559524Y-72475633D01*
X78519048Y-72497269D01*
X78481649Y-72406980D01*
X78421020Y-72316243D01*
X78343855Y-72239078D01*
X78253118Y-72178449D01*
X78152296Y-72136687D01*
X78045264Y-72115398D01*
X77936136Y-72115398D01*
X77829104Y-72136687D01*
X77728282Y-72178449D01*
X77637545Y-72239078D01*
X77634903Y-72241721D01*
X77591809Y-72198627D01*
X77501072Y-72137998D01*
X77400250Y-72096236D01*
X77293218Y-72074947D01*
X77184090Y-72074947D01*
X77077058Y-72096236D01*
X76976236Y-72137998D01*
X76885499Y-72198627D01*
X76808334Y-72275792D01*
X76747705Y-72366529D01*
X76705943Y-72467351D01*
X76684654Y-72574383D01*
X76684654Y-72683511D01*
X76705943Y-72790543D01*
X76747705Y-72891365D01*
X76793359Y-72959691D01*
X76472152Y-73280898D01*
X76472152Y-72997789D01*
X76521472Y-72948469D01*
X76582101Y-72857732D01*
X76623863Y-72756910D01*
X76645152Y-72649878D01*
X76645152Y-72540750D01*
X76623863Y-72433718D01*
X76582101Y-72332896D01*
X76521472Y-72242159D01*
X76444307Y-72164994D01*
X76353570Y-72104365D01*
X76252748Y-72062603D01*
X76145716Y-72041314D01*
X76036588Y-72041314D01*
X75929556Y-72062603D01*
X75828734Y-72104365D01*
X75737997Y-72164994D01*
X75684619Y-72218372D01*
X75641059Y-72174812D01*
X75550322Y-72114183D01*
X75449500Y-72072421D01*
X75342468Y-72051132D01*
X75233340Y-72051132D01*
X75126308Y-72072421D01*
X75025486Y-72114183D01*
X74934749Y-72174812D01*
X74857584Y-72251977D01*
X74808081Y-72326064D01*
X74801520Y-72316245D01*
X74724355Y-72239080D01*
X74633618Y-72178451D01*
X74532796Y-72136689D01*
X74425764Y-72115400D01*
X74316636Y-72115400D01*
X74209604Y-72136689D01*
X74108782Y-72178451D01*
X74030340Y-72230865D01*
X73962355Y-72162880D01*
X73871618Y-72102251D01*
X73770796Y-72060489D01*
X73663764Y-72039200D01*
X73554636Y-72039200D01*
X73447604Y-72060489D01*
X73346782Y-72102251D01*
X73256045Y-72162880D01*
X73178880Y-72240045D01*
X73118251Y-72330782D01*
X73076489Y-72431604D01*
X73055200Y-72538636D01*
X73055200Y-72646125D01*
X73054572Y-72646000D01*
X72945444Y-72646000D01*
X72838412Y-72667289D01*
X72737590Y-72709051D01*
X72646853Y-72769680D01*
X72597533Y-72819000D01*
X72308383Y-72819000D01*
X72313111Y-72807586D01*
X72334400Y-72700554D01*
X72334400Y-72630804D01*
X74170174Y-70795031D01*
X74184711Y-70783101D01*
X74220678Y-70739275D01*
X74232322Y-70725087D01*
X74267701Y-70658898D01*
X74289487Y-70587079D01*
X74295000Y-70531103D01*
X74295000Y-70531101D01*
X74296843Y-70512391D01*
X74295000Y-70493681D01*
X74295000Y-68773608D01*
X74608762Y-68459846D01*
X74629379Y-68466100D01*
X74638374Y-68495754D01*
X74661960Y-68539879D01*
X74693701Y-68578555D01*
X75082610Y-68967464D01*
X75121286Y-68999205D01*
X75165411Y-69022791D01*
X75195065Y-69031786D01*
X75204060Y-69061439D01*
X75227646Y-69105564D01*
X75259387Y-69144240D01*
X75648296Y-69533149D01*
X75686972Y-69564890D01*
X75731097Y-69588476D01*
X75760750Y-69597471D01*
X75769745Y-69627124D01*
X75793331Y-69671249D01*
X75825072Y-69709925D01*
X76213981Y-70098834D01*
X76252657Y-70130575D01*
X76296782Y-70154161D01*
X76326436Y-70163156D01*
X76335431Y-70192810D01*
X76359017Y-70236935D01*
X76390758Y-70275611D01*
X76779667Y-70664520D01*
X76818343Y-70696261D01*
X76862468Y-70719847D01*
X76892121Y-70728842D01*
X76901116Y-70758495D01*
X76924702Y-70802620D01*
X76956443Y-70841296D01*
X77345352Y-71230205D01*
X77384028Y-71261946D01*
X77428153Y-71285532D01*
X77457806Y-71294527D01*
X77466801Y-71324181D01*
X77490387Y-71368306D01*
X77522128Y-71406982D01*
X77911037Y-71795891D01*
X77949713Y-71827632D01*
X77993838Y-71851218D01*
X78023492Y-71860213D01*
X78032487Y-71889866D01*
X78056073Y-71933991D01*
X78087814Y-71972667D01*
X78476723Y-72361576D01*
X78515399Y-72393317D01*
X78559524Y-72416903D01*
X78607403Y-72431427D01*
X78657196Y-72436331D01*
X78706989Y-72431427D01*
X78754868Y-72416903D01*
X78798993Y-72393317D01*
X78837669Y-72361576D01*
X79397282Y-71801963D01*
X79398626Y-71801963D01*
X79417336Y-71803806D01*
X79436046Y-71801963D01*
X79436049Y-71801963D01*
X79492025Y-71796450D01*
X79563844Y-71774664D01*
X79630032Y-71739285D01*
X79688047Y-71691674D01*
X79699982Y-71677131D01*
X80256175Y-71120939D01*
X80270711Y-71109010D01*
X80304388Y-71067974D01*
X80318322Y-71050996D01*
X80344625Y-71001786D01*
X80353701Y-70984807D01*
X80360789Y-70961442D01*
X80386743Y-71024101D01*
X80452843Y-71123027D01*
X80536973Y-71207157D01*
X80635899Y-71273257D01*
X80745820Y-71318788D01*
X80862511Y-71342000D01*
X80981489Y-71342000D01*
X81098180Y-71318788D01*
X81208101Y-71273257D01*
X81307027Y-71207157D01*
X81391157Y-71123027D01*
X81457257Y-71024101D01*
X81502788Y-70914180D01*
X81526000Y-70797489D01*
X81526000Y-70678511D01*
X81502788Y-70561820D01*
X81457257Y-70451899D01*
X81391157Y-70352973D01*
X81307027Y-70268843D01*
X81208101Y-70202743D01*
X81098180Y-70157212D01*
X80981489Y-70134000D01*
X80862511Y-70134000D01*
X80745820Y-70157212D01*
X80635899Y-70202743D01*
X80536973Y-70268843D01*
X80452843Y-70352973D01*
X80386743Y-70451899D01*
X80381000Y-70465764D01*
X80381000Y-65902475D01*
X80430320Y-65853155D01*
X80490949Y-65762418D01*
X80532711Y-65661596D01*
X80554000Y-65554564D01*
X80554000Y-65445436D01*
X80532711Y-65338404D01*
X80490949Y-65237582D01*
X80430320Y-65146845D01*
X80353155Y-65069680D01*
X80262418Y-65009051D01*
X80161596Y-64967289D01*
X80054564Y-64946000D01*
X79945436Y-64946000D01*
X79838404Y-64967289D01*
X79737582Y-65009051D01*
X79646845Y-65069680D01*
X79625000Y-65091525D01*
X79603155Y-65069680D01*
X79512418Y-65009051D01*
X79411596Y-64967289D01*
X79304564Y-64946000D01*
X79195436Y-64946000D01*
X79088404Y-64967289D01*
X78987582Y-65009051D01*
X78896845Y-65069680D01*
X78875000Y-65091525D01*
X78853155Y-65069680D01*
X78762418Y-65009051D01*
X78661596Y-64967289D01*
X78554564Y-64946000D01*
X78445436Y-64946000D01*
X78338404Y-64967289D01*
X78237582Y-65009051D01*
X78146845Y-65069680D01*
X78069680Y-65146845D01*
X78050000Y-65176298D01*
X78030320Y-65146845D01*
X77953155Y-65069680D01*
X77862418Y-65009051D01*
X77761596Y-64967289D01*
X77654564Y-64946000D01*
X77545436Y-64946000D01*
X77438404Y-64967289D01*
X77337582Y-65009051D01*
X77246845Y-65069680D01*
X77175000Y-65141525D01*
X77131000Y-65097525D01*
X77131000Y-65094445D01*
X77132843Y-65075735D01*
X77126274Y-65009041D01*
X77125487Y-65001047D01*
X77103701Y-64929228D01*
X77068323Y-64863041D01*
X77068322Y-64863039D01*
X77032639Y-64819560D01*
X77020711Y-64805025D01*
X77006175Y-64793096D01*
X76652908Y-64439830D01*
X76640974Y-64425288D01*
X76582959Y-64377677D01*
X76516771Y-64342298D01*
X76444952Y-64320512D01*
X76388976Y-64314999D01*
X76388973Y-64314999D01*
X76370263Y-64313156D01*
X76351553Y-64314999D01*
X66322711Y-64314999D01*
X66304001Y-64313156D01*
X66285291Y-64314999D01*
X66285288Y-64314999D01*
X66229312Y-64320512D01*
X66157493Y-64342298D01*
X66091305Y-64377677D01*
X66047825Y-64413359D01*
X66047822Y-64413362D01*
X66033290Y-64425288D01*
X66021364Y-64439820D01*
X63443827Y-67017359D01*
X63429290Y-67029289D01*
X63417361Y-67043825D01*
X63381678Y-67087304D01*
X63346299Y-67153493D01*
X63324514Y-67225312D01*
X63317157Y-67300000D01*
X63249868Y-67300000D01*
X63249073Y-64278718D01*
X82530991Y-64259281D01*
X82530084Y-90377010D01*
G37*
X82530084Y-90377010D02*
X81197282Y-91709813D01*
X65316969Y-91733621D01*
X64894687Y-91674156D01*
X64499171Y-91536301D01*
X64137964Y-91324250D01*
X63824823Y-91046078D01*
X63571678Y-90712382D01*
X63388168Y-90335870D01*
X63279715Y-89924936D01*
X63255756Y-89700454D01*
X63255537Y-88866643D01*
X64646000Y-88866643D01*
X64646000Y-89133357D01*
X64698034Y-89394947D01*
X64800101Y-89641359D01*
X64948280Y-89863124D01*
X65136876Y-90051720D01*
X65358641Y-90199899D01*
X65605053Y-90301966D01*
X65866643Y-90354000D01*
X66133357Y-90354000D01*
X66394947Y-90301966D01*
X66641359Y-90199899D01*
X66863124Y-90051720D01*
X67051720Y-89863124D01*
X67199899Y-89641359D01*
X67301966Y-89394947D01*
X67354000Y-89133357D01*
X67354000Y-88866643D01*
X67301966Y-88605053D01*
X67199899Y-88358641D01*
X67051720Y-88136876D01*
X66863124Y-87948280D01*
X66858868Y-87945436D01*
X69146000Y-87945436D01*
X69146000Y-88054564D01*
X69167289Y-88161596D01*
X69209051Y-88262418D01*
X69269680Y-88353155D01*
X69346845Y-88430320D01*
X69437582Y-88490949D01*
X69538404Y-88532711D01*
X69645436Y-88554000D01*
X69754564Y-88554000D01*
X69861596Y-88532711D01*
X69870294Y-88529108D01*
X70784772Y-89443587D01*
X70784772Y-89842000D01*
X70789676Y-89891793D01*
X70804200Y-89939672D01*
X70827786Y-89983797D01*
X70859527Y-90022473D01*
X70898203Y-90054214D01*
X70942328Y-90077800D01*
X70990207Y-90092324D01*
X71040000Y-90097228D01*
X71606414Y-90097228D01*
X72365359Y-90856174D01*
X72377289Y-90870711D01*
X72391824Y-90882639D01*
X72435303Y-90918322D01*
X72499941Y-90952872D01*
X72501492Y-90953701D01*
X72573311Y-90975487D01*
X72629287Y-90981000D01*
X72629290Y-90981000D01*
X72648000Y-90982843D01*
X72666710Y-90981000D01*
X77881290Y-90981000D01*
X77900000Y-90982843D01*
X77918710Y-90981000D01*
X77918713Y-90981000D01*
X77974689Y-90975487D01*
X78046508Y-90953701D01*
X78112696Y-90918322D01*
X78170711Y-90870711D01*
X78182646Y-90856168D01*
X79309351Y-89729463D01*
X79307772Y-89745500D01*
X79307772Y-90040500D01*
X79315510Y-90119068D01*
X79338428Y-90194617D01*
X79375644Y-90264244D01*
X79425728Y-90325272D01*
X79486756Y-90375356D01*
X79556383Y-90412572D01*
X79631932Y-90435490D01*
X79710500Y-90443228D01*
X80055500Y-90443228D01*
X80134068Y-90435490D01*
X80209617Y-90412572D01*
X80279244Y-90375356D01*
X80340272Y-90325272D01*
X80382350Y-90274000D01*
X80854525Y-90274000D01*
X80926845Y-90346320D01*
X81017582Y-90406949D01*
X81118404Y-90448711D01*
X81225436Y-90470000D01*
X81334564Y-90470000D01*
X81441596Y-90448711D01*
X81542418Y-90406949D01*
X81633155Y-90346320D01*
X81710320Y-90269155D01*
X81770949Y-90178418D01*
X81812711Y-90077596D01*
X81834000Y-89970564D01*
X81834000Y-89861436D01*
X81812711Y-89754404D01*
X81770949Y-89653582D01*
X81710320Y-89562845D01*
X81633155Y-89485680D01*
X81542418Y-89425051D01*
X81441596Y-89383289D01*
X81334564Y-89362000D01*
X81225436Y-89362000D01*
X81118404Y-89383289D01*
X81017582Y-89425051D01*
X80926845Y-89485680D01*
X80900525Y-89512000D01*
X80382350Y-89512000D01*
X80340272Y-89460728D01*
X80279244Y-89410644D01*
X80274297Y-89408000D01*
X80279244Y-89405356D01*
X80340272Y-89355272D01*
X80390356Y-89294244D01*
X80427572Y-89224617D01*
X80450490Y-89149068D01*
X80458228Y-89070500D01*
X80458228Y-88775500D01*
X80450490Y-88696932D01*
X80427572Y-88621383D01*
X80390356Y-88551756D01*
X80340272Y-88490728D01*
X80299298Y-88457101D01*
X80315689Y-88455487D01*
X80387508Y-88433701D01*
X80453696Y-88398322D01*
X80511711Y-88350711D01*
X80523645Y-88336169D01*
X80755174Y-88104641D01*
X80769711Y-88092711D01*
X80817322Y-88034696D01*
X80852701Y-87968508D01*
X80874487Y-87896689D01*
X80879591Y-87844867D01*
X80886214Y-87836797D01*
X80909800Y-87792672D01*
X80924324Y-87744793D01*
X80929228Y-87695000D01*
X80929228Y-86945000D01*
X80924324Y-86895207D01*
X80909800Y-86847328D01*
X80890767Y-86811721D01*
X80904473Y-86800473D01*
X80936214Y-86761797D01*
X80959800Y-86717672D01*
X80974324Y-86669793D01*
X80979228Y-86620000D01*
X80979228Y-85020000D01*
X80974324Y-84970207D01*
X80959800Y-84922328D01*
X80936214Y-84878203D01*
X80904473Y-84839527D01*
X80865797Y-84807786D01*
X80821672Y-84784200D01*
X80773793Y-84769676D01*
X80724000Y-84764772D01*
X80268263Y-84764772D01*
X80274324Y-84744793D01*
X80279228Y-84695000D01*
X80279228Y-83945000D01*
X80274324Y-83895207D01*
X80259800Y-83847328D01*
X80236214Y-83803203D01*
X80204473Y-83764527D01*
X80165797Y-83732786D01*
X80121672Y-83709200D01*
X80073793Y-83694676D01*
X80024000Y-83689772D01*
X79674000Y-83689772D01*
X79624207Y-83694676D01*
X79576328Y-83709200D01*
X79532203Y-83732786D01*
X79524000Y-83739518D01*
X79515797Y-83732786D01*
X79471672Y-83709200D01*
X79423793Y-83694676D01*
X79374000Y-83689772D01*
X79024000Y-83689772D01*
X78974207Y-83694676D01*
X78930000Y-83708086D01*
X78930000Y-83664325D01*
X78942678Y-83657548D01*
X79014503Y-83598603D01*
X79073448Y-83526778D01*
X79117249Y-83444834D01*
X79144221Y-83355919D01*
X79153328Y-83263450D01*
X79153328Y-82750950D01*
X79144221Y-82658481D01*
X79117249Y-82569566D01*
X79073448Y-82487622D01*
X79014503Y-82415797D01*
X78942678Y-82356852D01*
X78909707Y-82339228D01*
X79133500Y-82339228D01*
X79212068Y-82331490D01*
X79287617Y-82308572D01*
X79357244Y-82271356D01*
X79418272Y-82221272D01*
X79468356Y-82160244D01*
X79505572Y-82090617D01*
X79528490Y-82015068D01*
X79536228Y-81936500D01*
X79536228Y-81591500D01*
X79528490Y-81512932D01*
X79505572Y-81437383D01*
X79468356Y-81367756D01*
X79418272Y-81306728D01*
X79357244Y-81256644D01*
X79287617Y-81219428D01*
X79212068Y-81196510D01*
X79133500Y-81188772D01*
X79058580Y-81188772D01*
X79060634Y-81188149D01*
X79142578Y-81144348D01*
X79214403Y-81085403D01*
X79273348Y-81013578D01*
X79317149Y-80931634D01*
X79344121Y-80842719D01*
X79353228Y-80750250D01*
X79353228Y-80237750D01*
X79344121Y-80145281D01*
X79317149Y-80056366D01*
X79273348Y-79974422D01*
X79214403Y-79902597D01*
X79142578Y-79843652D01*
X79060634Y-79799851D01*
X78971719Y-79772879D01*
X78879250Y-79763772D01*
X78441750Y-79763772D01*
X78349281Y-79772879D01*
X78260366Y-79799851D01*
X78178422Y-79843652D01*
X78106597Y-79902597D01*
X78047652Y-79974422D01*
X78003851Y-80056366D01*
X77976879Y-80145281D01*
X77967772Y-80237750D01*
X77967772Y-80750250D01*
X77976879Y-80842719D01*
X77982500Y-80861249D01*
X77982501Y-81278684D01*
X77086832Y-82174354D01*
X77072289Y-82186289D01*
X77043580Y-82221272D01*
X77024678Y-82244304D01*
X77002349Y-82286079D01*
X76989299Y-82310493D01*
X76967513Y-82382312D01*
X76962000Y-82438287D01*
X76960157Y-82457000D01*
X76962000Y-82475710D01*
X76962000Y-82477725D01*
X76912680Y-82527045D01*
X76852051Y-82617782D01*
X76810289Y-82718604D01*
X76789000Y-82825636D01*
X76789000Y-82934764D01*
X76810289Y-83041796D01*
X76852051Y-83142618D01*
X76912680Y-83233355D01*
X76962000Y-83282675D01*
X76962001Y-83950708D01*
X76921531Y-84026421D01*
X76896610Y-84108575D01*
X76604229Y-84400957D01*
X76604224Y-84400961D01*
X76604222Y-84400963D01*
X76589690Y-84412889D01*
X76577764Y-84427421D01*
X75900954Y-85104232D01*
X75851603Y-85044097D01*
X75779778Y-84985152D01*
X75697834Y-84941351D01*
X75608919Y-84914379D01*
X75516450Y-84905272D01*
X75003950Y-84905272D01*
X74911481Y-84914379D01*
X74822566Y-84941351D01*
X74740622Y-84985152D01*
X74668797Y-85044097D01*
X74609852Y-85115922D01*
X74566051Y-85197866D01*
X74539079Y-85286781D01*
X74529972Y-85379250D01*
X74529972Y-85816750D01*
X74539079Y-85909219D01*
X74566051Y-85998134D01*
X74609852Y-86080078D01*
X74668797Y-86151903D01*
X74740622Y-86210848D01*
X74822566Y-86254649D01*
X74911481Y-86281621D01*
X75003950Y-86290728D01*
X75516450Y-86290728D01*
X75608919Y-86281621D01*
X75697834Y-86254649D01*
X75779778Y-86210848D01*
X75851603Y-86151903D01*
X75910548Y-86080078D01*
X75954349Y-85998134D01*
X75960013Y-85979463D01*
X75964710Y-85979000D01*
X75964713Y-85979000D01*
X76020689Y-85973487D01*
X76092508Y-85951701D01*
X76158696Y-85916322D01*
X76216711Y-85868711D01*
X76228646Y-85854168D01*
X76479400Y-85603414D01*
X76479400Y-85917896D01*
X76464156Y-85926044D01*
X76403128Y-85976128D01*
X76353044Y-86037156D01*
X76315828Y-86106783D01*
X76292910Y-86182332D01*
X76285172Y-86260900D01*
X76285172Y-86555900D01*
X76292910Y-86634468D01*
X76315828Y-86710017D01*
X76353044Y-86779644D01*
X76403128Y-86840672D01*
X76464156Y-86890756D01*
X76469103Y-86893400D01*
X76464156Y-86896044D01*
X76403128Y-86946128D01*
X76361050Y-86997400D01*
X75990428Y-86997400D01*
X75990428Y-86954250D01*
X75981321Y-86861781D01*
X75954349Y-86772866D01*
X75910548Y-86690922D01*
X75851603Y-86619097D01*
X75779778Y-86560152D01*
X75697834Y-86516351D01*
X75608919Y-86489379D01*
X75516450Y-86480272D01*
X75003950Y-86480272D01*
X74911481Y-86489379D01*
X74822566Y-86516351D01*
X74740622Y-86560152D01*
X74668797Y-86619097D01*
X74609852Y-86690922D01*
X74566051Y-86772866D01*
X74539079Y-86861781D01*
X74529972Y-86954250D01*
X74529972Y-87391750D01*
X74539079Y-87484219D01*
X74566051Y-87573134D01*
X74609852Y-87655078D01*
X74668797Y-87726903D01*
X74740622Y-87785848D01*
X74822566Y-87829649D01*
X74911481Y-87856621D01*
X75003950Y-87865728D01*
X75516450Y-87865728D01*
X75608919Y-87856621D01*
X75697834Y-87829649D01*
X75779778Y-87785848D01*
X75812005Y-87759400D01*
X76361050Y-87759400D01*
X76403128Y-87810672D01*
X76464156Y-87860756D01*
X76533783Y-87897972D01*
X76609332Y-87920890D01*
X76687900Y-87928628D01*
X77032900Y-87928628D01*
X77074385Y-87924542D01*
X77070000Y-87946587D01*
X77070000Y-88075413D01*
X77095133Y-88201765D01*
X77144433Y-88320785D01*
X77216005Y-88427900D01*
X77307100Y-88518995D01*
X77414215Y-88590567D01*
X77533235Y-88639867D01*
X77659587Y-88665000D01*
X77788413Y-88665000D01*
X77914765Y-88639867D01*
X78033785Y-88590567D01*
X78140900Y-88518995D01*
X78231995Y-88427900D01*
X78303567Y-88320785D01*
X78352867Y-88201765D01*
X78359020Y-88170834D01*
X78524358Y-88336173D01*
X78536289Y-88350711D01*
X78550824Y-88362639D01*
X78550825Y-88362640D01*
X78594303Y-88398322D01*
X78649639Y-88427900D01*
X78660492Y-88433701D01*
X78732311Y-88455487D01*
X78788287Y-88461000D01*
X78788290Y-88461000D01*
X78807000Y-88462843D01*
X78825710Y-88461000D01*
X79461952Y-88461000D01*
X79425728Y-88490728D01*
X79375644Y-88551756D01*
X79338428Y-88621383D01*
X79336598Y-88627415D01*
X79334972Y-88628750D01*
X79306289Y-88652289D01*
X79294359Y-88666826D01*
X77742186Y-90219000D01*
X72805815Y-90219000D01*
X72095228Y-89508414D01*
X72095228Y-88942000D01*
X72090324Y-88892207D01*
X72075800Y-88844328D01*
X72052214Y-88800203D01*
X72020473Y-88761527D01*
X71981797Y-88729786D01*
X71937672Y-88706200D01*
X71889793Y-88691676D01*
X71840000Y-88686772D01*
X71105587Y-88686772D01*
X70215382Y-87796568D01*
X70190949Y-87737582D01*
X70130320Y-87646845D01*
X70053155Y-87569680D01*
X69962418Y-87509051D01*
X69861596Y-87467289D01*
X69754564Y-87446000D01*
X69645436Y-87446000D01*
X69538404Y-87467289D01*
X69437582Y-87509051D01*
X69346845Y-87569680D01*
X69269680Y-87646845D01*
X69209051Y-87737582D01*
X69167289Y-87838404D01*
X69146000Y-87945436D01*
X66858868Y-87945436D01*
X66641359Y-87800101D01*
X66394947Y-87698034D01*
X66133357Y-87646000D01*
X65866643Y-87646000D01*
X65605053Y-87698034D01*
X65358641Y-87800101D01*
X65136876Y-87948280D01*
X64948280Y-88136876D01*
X64800101Y-88358641D01*
X64698034Y-88605053D01*
X64646000Y-88866643D01*
X63255537Y-88866643D01*
X63249868Y-67300000D01*
X63317157Y-67300000D01*
X63319001Y-67318720D01*
X63319000Y-77905290D01*
X63317157Y-77924000D01*
X63319000Y-77942710D01*
X63319000Y-77942712D01*
X63324513Y-77998688D01*
X63344993Y-78066201D01*
X63346299Y-78070507D01*
X63381678Y-78136696D01*
X63390225Y-78147110D01*
X63429289Y-78194711D01*
X63443832Y-78206646D01*
X64538163Y-79300979D01*
X64550089Y-79315511D01*
X64561952Y-79325247D01*
X64542328Y-79331200D01*
X64498203Y-79354786D01*
X64459527Y-79386527D01*
X64427786Y-79425203D01*
X64404200Y-79469328D01*
X64389676Y-79517207D01*
X64384772Y-79567000D01*
X64384772Y-81167000D01*
X64389676Y-81216793D01*
X64404200Y-81264672D01*
X64427786Y-81308797D01*
X64459527Y-81347473D01*
X64498203Y-81379214D01*
X64542328Y-81402800D01*
X64590207Y-81417324D01*
X64609001Y-81419175D01*
X64609001Y-81419524D01*
X64542880Y-81485645D01*
X64482251Y-81576382D01*
X64440489Y-81677204D01*
X64419200Y-81784236D01*
X64419200Y-81893364D01*
X64440489Y-82000396D01*
X64482251Y-82101218D01*
X64542880Y-82191955D01*
X64620045Y-82269120D01*
X64710782Y-82329749D01*
X64770440Y-82354460D01*
X65237276Y-82821297D01*
X65235572Y-82838600D01*
X65235572Y-83738600D01*
X65240476Y-83788393D01*
X65255000Y-83836272D01*
X65278586Y-83880397D01*
X65310327Y-83919073D01*
X65349003Y-83950814D01*
X65393128Y-83974400D01*
X65441007Y-83988924D01*
X65490800Y-83993828D01*
X66690800Y-83993828D01*
X66740593Y-83988924D01*
X66788472Y-83974400D01*
X66832597Y-83950814D01*
X66871273Y-83919073D01*
X66903014Y-83880397D01*
X66926600Y-83836272D01*
X66941124Y-83788393D01*
X66946028Y-83738600D01*
X66946028Y-82838600D01*
X66941124Y-82788807D01*
X66926600Y-82740928D01*
X66903014Y-82696803D01*
X66871273Y-82658127D01*
X66832597Y-82626386D01*
X66788472Y-82602800D01*
X66740593Y-82588276D01*
X66690800Y-82583372D01*
X66437028Y-82583372D01*
X66432371Y-82579550D01*
X65488860Y-81636040D01*
X65464149Y-81576382D01*
X65403520Y-81485645D01*
X65371000Y-81453125D01*
X65371000Y-81419175D01*
X65389793Y-81417324D01*
X65437672Y-81402800D01*
X65481797Y-81379214D01*
X65515000Y-81351965D01*
X65548203Y-81379214D01*
X65592328Y-81402800D01*
X65640207Y-81417324D01*
X65690000Y-81422228D01*
X66390000Y-81422228D01*
X66439793Y-81417324D01*
X66487672Y-81402800D01*
X66531797Y-81379214D01*
X66565000Y-81351965D01*
X66598203Y-81379214D01*
X66642328Y-81402800D01*
X66690207Y-81417324D01*
X66740000Y-81422228D01*
X67440000Y-81422228D01*
X67489793Y-81417324D01*
X67537672Y-81402800D01*
X67581797Y-81379214D01*
X67620473Y-81347473D01*
X67652214Y-81308797D01*
X67675800Y-81264672D01*
X67690324Y-81216793D01*
X67695228Y-81167000D01*
X67695228Y-79567000D01*
X67690324Y-79517207D01*
X67675800Y-79469328D01*
X67652533Y-79425800D01*
X68322986Y-79425800D01*
X69683172Y-80785987D01*
X69683172Y-80969900D01*
X69690910Y-81048468D01*
X69713828Y-81124017D01*
X69751044Y-81193644D01*
X69801128Y-81254672D01*
X69852400Y-81296750D01*
X69852401Y-82143584D01*
X69433831Y-82562155D01*
X69419289Y-82574089D01*
X69395147Y-82603507D01*
X69371678Y-82632104D01*
X69339835Y-82691678D01*
X69336299Y-82698293D01*
X69314513Y-82770112D01*
X69309471Y-82821304D01*
X69307157Y-82844800D01*
X69309000Y-82863510D01*
X69309000Y-83460594D01*
X69277115Y-83481899D01*
X69186899Y-83572115D01*
X69169300Y-83598454D01*
X69169300Y-83530200D01*
X69140505Y-83385437D01*
X69084021Y-83249073D01*
X69002020Y-83126349D01*
X68897651Y-83021980D01*
X68774927Y-82939979D01*
X68638563Y-82883495D01*
X68493800Y-82854700D01*
X68346200Y-82854700D01*
X68201437Y-82883495D01*
X68065073Y-82939979D01*
X67942349Y-83021980D01*
X67837980Y-83126349D01*
X67755979Y-83249073D01*
X67699495Y-83385437D01*
X67670700Y-83530200D01*
X67670700Y-83677800D01*
X67699495Y-83822563D01*
X67755979Y-83958927D01*
X67837980Y-84081651D01*
X67942349Y-84186020D01*
X68065073Y-84268021D01*
X68201437Y-84324505D01*
X68346200Y-84353300D01*
X68493800Y-84353300D01*
X68638563Y-84324505D01*
X68774927Y-84268021D01*
X68897651Y-84186020D01*
X69002020Y-84081651D01*
X69042300Y-84021367D01*
X69042300Y-84048793D01*
X69067191Y-84173927D01*
X69116016Y-84291801D01*
X69186899Y-84397885D01*
X69277115Y-84488101D01*
X69383199Y-84558984D01*
X69501073Y-84607809D01*
X69562361Y-84620000D01*
X69501073Y-84632191D01*
X69383199Y-84681016D01*
X69277115Y-84751899D01*
X69186899Y-84842115D01*
X69116016Y-84948199D01*
X69067191Y-85066073D01*
X69042300Y-85191207D01*
X69042300Y-85218633D01*
X69002020Y-85158349D01*
X68897651Y-85053980D01*
X68774927Y-84971979D01*
X68638563Y-84915495D01*
X68493800Y-84886700D01*
X68346200Y-84886700D01*
X68201437Y-84915495D01*
X68065073Y-84971979D01*
X67942349Y-85053980D01*
X67837980Y-85158349D01*
X67755979Y-85281073D01*
X67699495Y-85417437D01*
X67670700Y-85562200D01*
X67670700Y-85709800D01*
X67699495Y-85854563D01*
X67755979Y-85990927D01*
X67837980Y-86113651D01*
X67942349Y-86218020D01*
X68065073Y-86300021D01*
X68201437Y-86356505D01*
X68346200Y-86385300D01*
X68493800Y-86385300D01*
X68638563Y-86356505D01*
X68774927Y-86300021D01*
X68897651Y-86218020D01*
X69002020Y-86113651D01*
X69084021Y-85990927D01*
X69140505Y-85854563D01*
X69169300Y-85709800D01*
X69169300Y-85641546D01*
X69186899Y-85667885D01*
X69255270Y-85736256D01*
X69244680Y-85746845D01*
X69184051Y-85837582D01*
X69142289Y-85938404D01*
X69121000Y-86045436D01*
X69121000Y-86154564D01*
X69142289Y-86261596D01*
X69184051Y-86362418D01*
X69244680Y-86453155D01*
X69321845Y-86530320D01*
X69412582Y-86590949D01*
X69513404Y-86632711D01*
X69620436Y-86654000D01*
X69729564Y-86654000D01*
X69836596Y-86632711D01*
X69937418Y-86590949D01*
X70028155Y-86530320D01*
X70105320Y-86453155D01*
X70165949Y-86362418D01*
X70207711Y-86261596D01*
X70229000Y-86154564D01*
X70229000Y-86045436D01*
X70207711Y-85938404D01*
X70193240Y-85903468D01*
X70342443Y-86052671D01*
X70352392Y-86064794D01*
X70400738Y-86104470D01*
X70455895Y-86133952D01*
X70515744Y-86152107D01*
X70562389Y-86156701D01*
X70562391Y-86156701D01*
X70577984Y-86158237D01*
X70593577Y-86156701D01*
X71224821Y-86156701D01*
X71240417Y-86158237D01*
X71256013Y-86156701D01*
X71302658Y-86152107D01*
X71362507Y-86133952D01*
X71417664Y-86104470D01*
X71466010Y-86064794D01*
X71475958Y-86052672D01*
X71757676Y-85770954D01*
X71769794Y-85761010D01*
X71792435Y-85733421D01*
X71817115Y-85758101D01*
X71849000Y-85779406D01*
X71849001Y-86729360D01*
X71848203Y-86729786D01*
X71809527Y-86761527D01*
X71777786Y-86800203D01*
X71754200Y-86844328D01*
X71739676Y-86892207D01*
X71734772Y-86942000D01*
X71734772Y-87842000D01*
X71739676Y-87891793D01*
X71754200Y-87939672D01*
X71777786Y-87983797D01*
X71809527Y-88022473D01*
X71848203Y-88054214D01*
X71892328Y-88077800D01*
X71940207Y-88092324D01*
X71990000Y-88097228D01*
X72790000Y-88097228D01*
X72839793Y-88092324D01*
X72887672Y-88077800D01*
X72931797Y-88054214D01*
X72970473Y-88022473D01*
X73002214Y-87983797D01*
X73025800Y-87939672D01*
X73040324Y-87891793D01*
X73045228Y-87842000D01*
X73045228Y-86942000D01*
X73040324Y-86892207D01*
X73025800Y-86844328D01*
X73002214Y-86800203D01*
X72970473Y-86761527D01*
X72931797Y-86729786D01*
X72887672Y-86706200D01*
X72839793Y-86691676D01*
X72790000Y-86686772D01*
X72611000Y-86686772D01*
X72611000Y-85779406D01*
X72642885Y-85758101D01*
X72733101Y-85667885D01*
X72803984Y-85561801D01*
X72852809Y-85443927D01*
X72877700Y-85318793D01*
X72877700Y-85191207D01*
X72852809Y-85066073D01*
X72803984Y-84948199D01*
X72733101Y-84842115D01*
X72722506Y-84831520D01*
X72768871Y-84785155D01*
X72779495Y-84838563D01*
X72835979Y-84974927D01*
X72917980Y-85097651D01*
X73022349Y-85202020D01*
X73145073Y-85284021D01*
X73281437Y-85340505D01*
X73426200Y-85369300D01*
X73573800Y-85369300D01*
X73718563Y-85340505D01*
X73854927Y-85284021D01*
X73977651Y-85202020D01*
X74082020Y-85097651D01*
X74164021Y-84974927D01*
X74220505Y-84838563D01*
X74249300Y-84693800D01*
X74249300Y-84546200D01*
X74220505Y-84401437D01*
X74164021Y-84265073D01*
X74082020Y-84142349D01*
X73977651Y-84037980D01*
X73854927Y-83955979D01*
X73718563Y-83899495D01*
X73573800Y-83870700D01*
X73426200Y-83870700D01*
X73312747Y-83893267D01*
X73538415Y-83667600D01*
X73971490Y-83667600D01*
X73990200Y-83669443D01*
X74008910Y-83667600D01*
X74008913Y-83667600D01*
X74064889Y-83662087D01*
X74136708Y-83640301D01*
X74202896Y-83604922D01*
X74260911Y-83557311D01*
X74272846Y-83542768D01*
X77213375Y-80602240D01*
X77227912Y-80590310D01*
X77251451Y-80561627D01*
X77275523Y-80532296D01*
X77310902Y-80466107D01*
X77318309Y-80441689D01*
X77332688Y-80394288D01*
X77338201Y-80338312D01*
X77338201Y-80338310D01*
X77340044Y-80319600D01*
X77338201Y-80300890D01*
X77338201Y-79465110D01*
X77340044Y-79446400D01*
X77338201Y-79427688D01*
X77332688Y-79371712D01*
X77310902Y-79299893D01*
X77275524Y-79233706D01*
X77275523Y-79233704D01*
X77247554Y-79199624D01*
X77227912Y-79175690D01*
X77213376Y-79163761D01*
X76325619Y-78276005D01*
X76321487Y-78234054D01*
X76299701Y-78162234D01*
X76290329Y-78144701D01*
X76264322Y-78096045D01*
X76236682Y-78062366D01*
X76216711Y-78038031D01*
X76202174Y-78026101D01*
X76067310Y-77891237D01*
X76079093Y-77852395D01*
X76083997Y-77802602D01*
X76079093Y-77752809D01*
X76064569Y-77704930D01*
X76040983Y-77660805D01*
X76009242Y-77622129D01*
X74877871Y-76490758D01*
X74839195Y-76459017D01*
X74813234Y-76445140D01*
X74813234Y-76276810D01*
X75187184Y-75902861D01*
X75184632Y-75928769D01*
X75189536Y-75978562D01*
X75204060Y-76026441D01*
X75227646Y-76070566D01*
X75259387Y-76109242D01*
X76390758Y-77240613D01*
X76429434Y-77272354D01*
X76473559Y-77295940D01*
X76521438Y-77310464D01*
X76571231Y-77315368D01*
X76621024Y-77310464D01*
X76668903Y-77295940D01*
X76713028Y-77272354D01*
X76751704Y-77240613D01*
X77140613Y-76851704D01*
X77172354Y-76813028D01*
X77195940Y-76768903D01*
X77204935Y-76739250D01*
X77225551Y-76732996D01*
X77491676Y-76999121D01*
X77503606Y-77013658D01*
X77518141Y-77025586D01*
X77561620Y-77061269D01*
X77627137Y-77096289D01*
X77627809Y-77096648D01*
X77634706Y-77098740D01*
X77789959Y-77253993D01*
X77850987Y-77304077D01*
X77920614Y-77341293D01*
X77996163Y-77364211D01*
X78074731Y-77371949D01*
X78153299Y-77364211D01*
X78228848Y-77341293D01*
X78298475Y-77304077D01*
X78359503Y-77253993D01*
X78568099Y-77045397D01*
X78618183Y-76984369D01*
X78655399Y-76914742D01*
X78678317Y-76839193D01*
X78686055Y-76760625D01*
X78678317Y-76682057D01*
X78676688Y-76676688D01*
X78682057Y-76678317D01*
X78760625Y-76686055D01*
X78839193Y-76678317D01*
X78914742Y-76655399D01*
X78984369Y-76618183D01*
X79045397Y-76568099D01*
X79118390Y-76495106D01*
X79191398Y-76495106D01*
X79188954Y-76497550D01*
X79138870Y-76558578D01*
X79101654Y-76628205D01*
X79078736Y-76703754D01*
X79070998Y-76782322D01*
X79078736Y-76860890D01*
X79083754Y-76877431D01*
X78531332Y-77429854D01*
X78516789Y-77441789D01*
X78486430Y-77478783D01*
X78469178Y-77499804D01*
X78443142Y-77548514D01*
X78433799Y-77565993D01*
X78412013Y-77637812D01*
X78409463Y-77663705D01*
X78404657Y-77712500D01*
X78406500Y-77731211D01*
X78406500Y-77800047D01*
X78387366Y-77805851D01*
X78305422Y-77849652D01*
X78233597Y-77908597D01*
X78174652Y-77980422D01*
X78130851Y-78062366D01*
X78103879Y-78151281D01*
X78094772Y-78243750D01*
X78094772Y-78756250D01*
X78103879Y-78848719D01*
X78130851Y-78937634D01*
X78174652Y-79019578D01*
X78233597Y-79091403D01*
X78305422Y-79150348D01*
X78387366Y-79194149D01*
X78476281Y-79221121D01*
X78568750Y-79230228D01*
X79006250Y-79230228D01*
X79098719Y-79221121D01*
X79187634Y-79194149D01*
X79269578Y-79150348D01*
X79341403Y-79091403D01*
X79400348Y-79019578D01*
X79444149Y-78937634D01*
X79471121Y-78848719D01*
X79480228Y-78756250D01*
X79480228Y-78243750D01*
X79471121Y-78151281D01*
X79444149Y-78062366D01*
X79400348Y-77980422D01*
X79341403Y-77908597D01*
X79269578Y-77849652D01*
X79217174Y-77821641D01*
X79622569Y-77416246D01*
X79639110Y-77421264D01*
X79717678Y-77429002D01*
X79796246Y-77421264D01*
X79871795Y-77398346D01*
X79941422Y-77361130D01*
X80002450Y-77311046D01*
X80211046Y-77102450D01*
X80261130Y-77041422D01*
X80298346Y-76971795D01*
X80321264Y-76896246D01*
X80329002Y-76817678D01*
X80321264Y-76739110D01*
X80319635Y-76733741D01*
X80325004Y-76735370D01*
X80403572Y-76743108D01*
X80482140Y-76735370D01*
X80557689Y-76712452D01*
X80627316Y-76675236D01*
X80688344Y-76625152D01*
X80896940Y-76416556D01*
X80947024Y-76355528D01*
X80984240Y-76285901D01*
X81007158Y-76210352D01*
X81014896Y-76131784D01*
X81007158Y-76053216D01*
X80984240Y-75977667D01*
X80947024Y-75908040D01*
X80896940Y-75847012D01*
X80652988Y-75603060D01*
X80591960Y-75552976D01*
X80522333Y-75515760D01*
X80446784Y-75492842D01*
X80408418Y-75489063D01*
X80450218Y-75471749D01*
X80540955Y-75411120D01*
X80618120Y-75333955D01*
X80678749Y-75243218D01*
X80720511Y-75142396D01*
X80741800Y-75035364D01*
X80741800Y-74926236D01*
X80720511Y-74819204D01*
X80678749Y-74718382D01*
X80618120Y-74627645D01*
X80540955Y-74550480D01*
X80450218Y-74489851D01*
X80349396Y-74448089D01*
X80242364Y-74426800D01*
X80133236Y-74426800D01*
X80095009Y-74434403D01*
X80421277Y-74108136D01*
X80435813Y-74096207D01*
X80467858Y-74057160D01*
X80483424Y-74038193D01*
X80503688Y-74000281D01*
X80518803Y-73972004D01*
X80540589Y-73900185D01*
X80546102Y-73844209D01*
X80546102Y-73844200D01*
X80547944Y-73825497D01*
X80546102Y-73806794D01*
X80546102Y-73033775D01*
X80595422Y-72984455D01*
X80656051Y-72893718D01*
X80697813Y-72792896D01*
X80719102Y-72685864D01*
X80719102Y-72576736D01*
X80697813Y-72469704D01*
X80656051Y-72368882D01*
X80595422Y-72278145D01*
X80518257Y-72200980D01*
X80427520Y-72140351D01*
X80326698Y-72098589D01*
X80219666Y-72077300D01*
X80110538Y-72077300D01*
X80003506Y-72098589D01*
X79902684Y-72140351D01*
X79811947Y-72200980D01*
X79770051Y-72242876D01*
X79740855Y-72213680D01*
X79650118Y-72153051D01*
X79549296Y-72111289D01*
X79442264Y-72090000D01*
X79333136Y-72090000D01*
X79226104Y-72111289D01*
X79125282Y-72153051D01*
X79034545Y-72213680D01*
X78957380Y-72290845D01*
X78896751Y-72381582D01*
X78854989Y-72482404D01*
X78844060Y-72537351D01*
X78837669Y-72530960D01*
X78798993Y-72499219D01*
X78754868Y-72475633D01*
X78706989Y-72461109D01*
X78657196Y-72456205D01*
X78607403Y-72461109D01*
X78559524Y-72475633D01*
X78519048Y-72497269D01*
X78481649Y-72406980D01*
X78421020Y-72316243D01*
X78343855Y-72239078D01*
X78253118Y-72178449D01*
X78152296Y-72136687D01*
X78045264Y-72115398D01*
X77936136Y-72115398D01*
X77829104Y-72136687D01*
X77728282Y-72178449D01*
X77637545Y-72239078D01*
X77634903Y-72241721D01*
X77591809Y-72198627D01*
X77501072Y-72137998D01*
X77400250Y-72096236D01*
X77293218Y-72074947D01*
X77184090Y-72074947D01*
X77077058Y-72096236D01*
X76976236Y-72137998D01*
X76885499Y-72198627D01*
X76808334Y-72275792D01*
X76747705Y-72366529D01*
X76705943Y-72467351D01*
X76684654Y-72574383D01*
X76684654Y-72683511D01*
X76705943Y-72790543D01*
X76747705Y-72891365D01*
X76793359Y-72959691D01*
X76472152Y-73280898D01*
X76472152Y-72997789D01*
X76521472Y-72948469D01*
X76582101Y-72857732D01*
X76623863Y-72756910D01*
X76645152Y-72649878D01*
X76645152Y-72540750D01*
X76623863Y-72433718D01*
X76582101Y-72332896D01*
X76521472Y-72242159D01*
X76444307Y-72164994D01*
X76353570Y-72104365D01*
X76252748Y-72062603D01*
X76145716Y-72041314D01*
X76036588Y-72041314D01*
X75929556Y-72062603D01*
X75828734Y-72104365D01*
X75737997Y-72164994D01*
X75684619Y-72218372D01*
X75641059Y-72174812D01*
X75550322Y-72114183D01*
X75449500Y-72072421D01*
X75342468Y-72051132D01*
X75233340Y-72051132D01*
X75126308Y-72072421D01*
X75025486Y-72114183D01*
X74934749Y-72174812D01*
X74857584Y-72251977D01*
X74808081Y-72326064D01*
X74801520Y-72316245D01*
X74724355Y-72239080D01*
X74633618Y-72178451D01*
X74532796Y-72136689D01*
X74425764Y-72115400D01*
X74316636Y-72115400D01*
X74209604Y-72136689D01*
X74108782Y-72178451D01*
X74030340Y-72230865D01*
X73962355Y-72162880D01*
X73871618Y-72102251D01*
X73770796Y-72060489D01*
X73663764Y-72039200D01*
X73554636Y-72039200D01*
X73447604Y-72060489D01*
X73346782Y-72102251D01*
X73256045Y-72162880D01*
X73178880Y-72240045D01*
X73118251Y-72330782D01*
X73076489Y-72431604D01*
X73055200Y-72538636D01*
X73055200Y-72646125D01*
X73054572Y-72646000D01*
X72945444Y-72646000D01*
X72838412Y-72667289D01*
X72737590Y-72709051D01*
X72646853Y-72769680D01*
X72597533Y-72819000D01*
X72308383Y-72819000D01*
X72313111Y-72807586D01*
X72334400Y-72700554D01*
X72334400Y-72630804D01*
X74170174Y-70795031D01*
X74184711Y-70783101D01*
X74220678Y-70739275D01*
X74232322Y-70725087D01*
X74267701Y-70658898D01*
X74289487Y-70587079D01*
X74295000Y-70531103D01*
X74295000Y-70531101D01*
X74296843Y-70512391D01*
X74295000Y-70493681D01*
X74295000Y-68773608D01*
X74608762Y-68459846D01*
X74629379Y-68466100D01*
X74638374Y-68495754D01*
X74661960Y-68539879D01*
X74693701Y-68578555D01*
X75082610Y-68967464D01*
X75121286Y-68999205D01*
X75165411Y-69022791D01*
X75195065Y-69031786D01*
X75204060Y-69061439D01*
X75227646Y-69105564D01*
X75259387Y-69144240D01*
X75648296Y-69533149D01*
X75686972Y-69564890D01*
X75731097Y-69588476D01*
X75760750Y-69597471D01*
X75769745Y-69627124D01*
X75793331Y-69671249D01*
X75825072Y-69709925D01*
X76213981Y-70098834D01*
X76252657Y-70130575D01*
X76296782Y-70154161D01*
X76326436Y-70163156D01*
X76335431Y-70192810D01*
X76359017Y-70236935D01*
X76390758Y-70275611D01*
X76779667Y-70664520D01*
X76818343Y-70696261D01*
X76862468Y-70719847D01*
X76892121Y-70728842D01*
X76901116Y-70758495D01*
X76924702Y-70802620D01*
X76956443Y-70841296D01*
X77345352Y-71230205D01*
X77384028Y-71261946D01*
X77428153Y-71285532D01*
X77457806Y-71294527D01*
X77466801Y-71324181D01*
X77490387Y-71368306D01*
X77522128Y-71406982D01*
X77911037Y-71795891D01*
X77949713Y-71827632D01*
X77993838Y-71851218D01*
X78023492Y-71860213D01*
X78032487Y-71889866D01*
X78056073Y-71933991D01*
X78087814Y-71972667D01*
X78476723Y-72361576D01*
X78515399Y-72393317D01*
X78559524Y-72416903D01*
X78607403Y-72431427D01*
X78657196Y-72436331D01*
X78706989Y-72431427D01*
X78754868Y-72416903D01*
X78798993Y-72393317D01*
X78837669Y-72361576D01*
X79397282Y-71801963D01*
X79398626Y-71801963D01*
X79417336Y-71803806D01*
X79436046Y-71801963D01*
X79436049Y-71801963D01*
X79492025Y-71796450D01*
X79563844Y-71774664D01*
X79630032Y-71739285D01*
X79688047Y-71691674D01*
X79699982Y-71677131D01*
X80256175Y-71120939D01*
X80270711Y-71109010D01*
X80304388Y-71067974D01*
X80318322Y-71050996D01*
X80344625Y-71001786D01*
X80353701Y-70984807D01*
X80360789Y-70961442D01*
X80386743Y-71024101D01*
X80452843Y-71123027D01*
X80536973Y-71207157D01*
X80635899Y-71273257D01*
X80745820Y-71318788D01*
X80862511Y-71342000D01*
X80981489Y-71342000D01*
X81098180Y-71318788D01*
X81208101Y-71273257D01*
X81307027Y-71207157D01*
X81391157Y-71123027D01*
X81457257Y-71024101D01*
X81502788Y-70914180D01*
X81526000Y-70797489D01*
X81526000Y-70678511D01*
X81502788Y-70561820D01*
X81457257Y-70451899D01*
X81391157Y-70352973D01*
X81307027Y-70268843D01*
X81208101Y-70202743D01*
X81098180Y-70157212D01*
X80981489Y-70134000D01*
X80862511Y-70134000D01*
X80745820Y-70157212D01*
X80635899Y-70202743D01*
X80536973Y-70268843D01*
X80452843Y-70352973D01*
X80386743Y-70451899D01*
X80381000Y-70465764D01*
X80381000Y-65902475D01*
X80430320Y-65853155D01*
X80490949Y-65762418D01*
X80532711Y-65661596D01*
X80554000Y-65554564D01*
X80554000Y-65445436D01*
X80532711Y-65338404D01*
X80490949Y-65237582D01*
X80430320Y-65146845D01*
X80353155Y-65069680D01*
X80262418Y-65009051D01*
X80161596Y-64967289D01*
X80054564Y-64946000D01*
X79945436Y-64946000D01*
X79838404Y-64967289D01*
X79737582Y-65009051D01*
X79646845Y-65069680D01*
X79625000Y-65091525D01*
X79603155Y-65069680D01*
X79512418Y-65009051D01*
X79411596Y-64967289D01*
X79304564Y-64946000D01*
X79195436Y-64946000D01*
X79088404Y-64967289D01*
X78987582Y-65009051D01*
X78896845Y-65069680D01*
X78875000Y-65091525D01*
X78853155Y-65069680D01*
X78762418Y-65009051D01*
X78661596Y-64967289D01*
X78554564Y-64946000D01*
X78445436Y-64946000D01*
X78338404Y-64967289D01*
X78237582Y-65009051D01*
X78146845Y-65069680D01*
X78069680Y-65146845D01*
X78050000Y-65176298D01*
X78030320Y-65146845D01*
X77953155Y-65069680D01*
X77862418Y-65009051D01*
X77761596Y-64967289D01*
X77654564Y-64946000D01*
X77545436Y-64946000D01*
X77438404Y-64967289D01*
X77337582Y-65009051D01*
X77246845Y-65069680D01*
X77175000Y-65141525D01*
X77131000Y-65097525D01*
X77131000Y-65094445D01*
X77132843Y-65075735D01*
X77126274Y-65009041D01*
X77125487Y-65001047D01*
X77103701Y-64929228D01*
X77068323Y-64863041D01*
X77068322Y-64863039D01*
X77032639Y-64819560D01*
X77020711Y-64805025D01*
X77006175Y-64793096D01*
X76652908Y-64439830D01*
X76640974Y-64425288D01*
X76582959Y-64377677D01*
X76516771Y-64342298D01*
X76444952Y-64320512D01*
X76388976Y-64314999D01*
X76388973Y-64314999D01*
X76370263Y-64313156D01*
X76351553Y-64314999D01*
X66322711Y-64314999D01*
X66304001Y-64313156D01*
X66285291Y-64314999D01*
X66285288Y-64314999D01*
X66229312Y-64320512D01*
X66157493Y-64342298D01*
X66091305Y-64377677D01*
X66047825Y-64413359D01*
X66047822Y-64413362D01*
X66033290Y-64425288D01*
X66021364Y-64439820D01*
X63443827Y-67017359D01*
X63429290Y-67029289D01*
X63417361Y-67043825D01*
X63381678Y-67087304D01*
X63346299Y-67153493D01*
X63324514Y-67225312D01*
X63317157Y-67300000D01*
X63249868Y-67300000D01*
X63249073Y-64278718D01*
X82530991Y-64259281D01*
X82530084Y-90377010D01*
G36*
X71569680Y-65142539D02*
G01*
X71509051Y-65233276D01*
X71467289Y-65334098D01*
X71446000Y-65441130D01*
X71446000Y-65550258D01*
X71467289Y-65657290D01*
X71509051Y-65758112D01*
X71569680Y-65848849D01*
X71619001Y-65898170D01*
X71619000Y-67367868D01*
X71511721Y-67475147D01*
X71479980Y-67513823D01*
X71456394Y-67557948D01*
X71447399Y-67587601D01*
X71417745Y-67596596D01*
X71373620Y-67620182D01*
X71334944Y-67651923D01*
X70946035Y-68040832D01*
X70914294Y-68079508D01*
X70890708Y-68123633D01*
X70876184Y-68171512D01*
X70871280Y-68221305D01*
X70876184Y-68271098D01*
X70890708Y-68318977D01*
X70914294Y-68363102D01*
X70946035Y-68401778D01*
X72077406Y-69533149D01*
X72116082Y-69564890D01*
X72119479Y-69566706D01*
X71894815Y-69791371D01*
X71572596Y-69791371D01*
X70564519Y-68783294D01*
X70525843Y-68751553D01*
X70481718Y-68727967D01*
X70433839Y-68713443D01*
X70384046Y-68708539D01*
X70334253Y-68713443D01*
X70295410Y-68725226D01*
X69989016Y-68418832D01*
X69977081Y-68404289D01*
X69919066Y-68356678D01*
X69899198Y-68346058D01*
X69717094Y-68163954D01*
X69656066Y-68113870D01*
X69586439Y-68076654D01*
X69510890Y-68053736D01*
X69432322Y-68045998D01*
X69353754Y-68053736D01*
X69278205Y-68076654D01*
X69208578Y-68113870D01*
X69147550Y-68163954D01*
X68938954Y-68372550D01*
X68888870Y-68433578D01*
X68851654Y-68503205D01*
X68828736Y-68578754D01*
X68820998Y-68657322D01*
X68828736Y-68735890D01*
X68851654Y-68811439D01*
X68888870Y-68881066D01*
X68938954Y-68942094D01*
X69182906Y-69186046D01*
X69243934Y-69236130D01*
X69313561Y-69273346D01*
X69389110Y-69296264D01*
X69467678Y-69304002D01*
X69546246Y-69296264D01*
X69621795Y-69273346D01*
X69691422Y-69236130D01*
X69711889Y-69219333D01*
X69756596Y-69264040D01*
X69744813Y-69302883D01*
X69739909Y-69352676D01*
X69744813Y-69402469D01*
X69759337Y-69450348D01*
X69782923Y-69494473D01*
X69814664Y-69533149D01*
X70946035Y-70664520D01*
X70984711Y-70696261D01*
X71028836Y-70719847D01*
X71076715Y-70734371D01*
X71126508Y-70739275D01*
X71176301Y-70734371D01*
X71224180Y-70719847D01*
X71268305Y-70696261D01*
X71306981Y-70664520D01*
X71418130Y-70553371D01*
X72033919Y-70553371D01*
X72052629Y-70555214D01*
X72071339Y-70553371D01*
X72071342Y-70553371D01*
X72127318Y-70547858D01*
X72199137Y-70526072D01*
X72265325Y-70490693D01*
X72323340Y-70443082D01*
X72335275Y-70428539D01*
X72759815Y-70004000D01*
X72829564Y-70004000D01*
X72936596Y-69982711D01*
X73037418Y-69940949D01*
X73128155Y-69880320D01*
X73205320Y-69803155D01*
X73265949Y-69712418D01*
X73307711Y-69611596D01*
X73329000Y-69504564D01*
X73329000Y-69395436D01*
X73307711Y-69288404D01*
X73265949Y-69187582D01*
X73205320Y-69096845D01*
X73128155Y-69019680D01*
X73037418Y-68959051D01*
X73019764Y-68951738D01*
X73392947Y-68578555D01*
X73424688Y-68539879D01*
X73448274Y-68495754D01*
X73457269Y-68466100D01*
X73486922Y-68457105D01*
X73531047Y-68433519D01*
X73569723Y-68401778D01*
X73958632Y-68012869D01*
X73990373Y-67974193D01*
X74013959Y-67930068D01*
X74028483Y-67882189D01*
X74033387Y-67832396D01*
X74028483Y-67782603D01*
X74013959Y-67734724D01*
X73990373Y-67690599D01*
X73958632Y-67651923D01*
X73399019Y-67092310D01*
X73399019Y-65786718D01*
X73400862Y-65768008D01*
X73397881Y-65737741D01*
X73393506Y-65693320D01*
X73371720Y-65621501D01*
X73358483Y-65596736D01*
X73336341Y-65555312D01*
X73312269Y-65525981D01*
X73304000Y-65515905D01*
X73304000Y-65445426D01*
X73282711Y-65338394D01*
X73240949Y-65237572D01*
X73180320Y-65146835D01*
X73110484Y-65076999D01*
X74839526Y-65076999D01*
X74769680Y-65146845D01*
X74709051Y-65237582D01*
X74667289Y-65338404D01*
X74646000Y-65445436D01*
X74646000Y-65554564D01*
X74667289Y-65661596D01*
X74709051Y-65762418D01*
X74769680Y-65853155D01*
X74819000Y-65902475D01*
X74819000Y-65905551D01*
X74817157Y-65924264D01*
X74819000Y-65942974D01*
X74819000Y-65942976D01*
X74824513Y-65998952D01*
X74846280Y-66070710D01*
X74846299Y-66070771D01*
X74881678Y-66136960D01*
X74897666Y-66156441D01*
X74929289Y-66194975D01*
X74943831Y-66206910D01*
X75258430Y-66521509D01*
X74128016Y-67651923D01*
X74096275Y-67690599D01*
X74072689Y-67734724D01*
X74058165Y-67782603D01*
X74053261Y-67832396D01*
X74058165Y-67882189D01*
X74069948Y-67921032D01*
X73657832Y-68333148D01*
X73643289Y-68345083D01*
X73615983Y-68378357D01*
X73595678Y-68403098D01*
X73564032Y-68462304D01*
X73560299Y-68469287D01*
X73538513Y-68541106D01*
X73534061Y-68586308D01*
X73531157Y-68615794D01*
X73533000Y-68634504D01*
X73533001Y-70354574D01*
X71795586Y-72091990D01*
X71725836Y-72091990D01*
X71618804Y-72113279D01*
X71517982Y-72155041D01*
X71427245Y-72215670D01*
X71368645Y-72274270D01*
X71330055Y-72235680D01*
X71239318Y-72175051D01*
X71138496Y-72133289D01*
X71031464Y-72112000D01*
X70922336Y-72112000D01*
X70815304Y-72133289D01*
X70714482Y-72175051D01*
X70623745Y-72235680D01*
X70585147Y-72274278D01*
X70582249Y-72267282D01*
X70521620Y-72176545D01*
X70444455Y-72099380D01*
X70353718Y-72038751D01*
X70252896Y-71996989D01*
X70145864Y-71975700D01*
X70036736Y-71975700D01*
X69985637Y-71985864D01*
X69998834Y-71972667D01*
X70030575Y-71933991D01*
X70054161Y-71889866D01*
X70063156Y-71860213D01*
X70092810Y-71851218D01*
X70136935Y-71827632D01*
X70175611Y-71795891D01*
X70564520Y-71406982D01*
X70596261Y-71368306D01*
X70619847Y-71324181D01*
X70634371Y-71276302D01*
X70639275Y-71226509D01*
X70634371Y-71176716D01*
X70619847Y-71128837D01*
X70596261Y-71084712D01*
X70564520Y-71046036D01*
X69433149Y-69914665D01*
X69394473Y-69882924D01*
X69350348Y-69859338D01*
X69302469Y-69844814D01*
X69252676Y-69839910D01*
X69202883Y-69844814D01*
X69155004Y-69859338D01*
X69110879Y-69882924D01*
X69097133Y-69894205D01*
X68915377Y-69712448D01*
X68910554Y-69663480D01*
X68896030Y-69615601D01*
X68872444Y-69571476D01*
X68840703Y-69532800D01*
X67497200Y-68189297D01*
X67458524Y-68157556D01*
X67414399Y-68133970D01*
X67366520Y-68119446D01*
X67316727Y-68114542D01*
X67266934Y-68119446D01*
X67219055Y-68133970D01*
X67174930Y-68157556D01*
X67136254Y-68189297D01*
X66853411Y-68472140D01*
X66821670Y-68510816D01*
X66798084Y-68554941D01*
X66783560Y-68602820D01*
X66778656Y-68652613D01*
X66783560Y-68702406D01*
X66798084Y-68750285D01*
X66821670Y-68794410D01*
X66853411Y-68833086D01*
X68196914Y-70176589D01*
X68235590Y-70208330D01*
X68279715Y-70231916D01*
X68327594Y-70246440D01*
X68376562Y-70251263D01*
X68563906Y-70438606D01*
X68545193Y-70448609D01*
X68506517Y-70480350D01*
X68117608Y-70869259D01*
X68085867Y-70907935D01*
X68062281Y-70952060D01*
X68047757Y-70999939D01*
X68042853Y-71049732D01*
X68047757Y-71099525D01*
X68062281Y-71147404D01*
X68085867Y-71191529D01*
X68117608Y-71230205D01*
X68231403Y-71344000D01*
X67208481Y-71344000D01*
X67198973Y-71312658D01*
X67175387Y-71268533D01*
X67143646Y-71229857D01*
X65800143Y-69886354D01*
X65761467Y-69854613D01*
X65717342Y-69831027D01*
X65669463Y-69816503D01*
X65619670Y-69811599D01*
X65569877Y-69816503D01*
X65521998Y-69831027D01*
X65477873Y-69854613D01*
X65439197Y-69886354D01*
X65156354Y-70169197D01*
X65124613Y-70207873D01*
X65101027Y-70251998D01*
X65086503Y-70299877D01*
X65081599Y-70349670D01*
X65086503Y-70399463D01*
X65101027Y-70447342D01*
X65124613Y-70491467D01*
X65156354Y-70530143D01*
X66499857Y-71873646D01*
X66538533Y-71905387D01*
X66582658Y-71928973D01*
X66630537Y-71943497D01*
X66679505Y-71948320D01*
X66712359Y-71981174D01*
X66724289Y-71995711D01*
X66738824Y-72007639D01*
X66782303Y-72043322D01*
X66796915Y-72051132D01*
X66848492Y-72078701D01*
X66920311Y-72100487D01*
X66976287Y-72106000D01*
X66976296Y-72106000D01*
X66994999Y-72107842D01*
X67013702Y-72106000D01*
X68735474Y-72106000D01*
X68754184Y-72107843D01*
X68772894Y-72106000D01*
X68772897Y-72106000D01*
X68828873Y-72100487D01*
X68900692Y-72078701D01*
X68943319Y-72055916D01*
X69248979Y-72361576D01*
X69287655Y-72393317D01*
X69331780Y-72416903D01*
X69379659Y-72431427D01*
X69429452Y-72436331D01*
X69479245Y-72431427D01*
X69527124Y-72416903D01*
X69551471Y-72403889D01*
X69537300Y-72475136D01*
X69537300Y-72481072D01*
X69527124Y-72475633D01*
X69479245Y-72461109D01*
X69429452Y-72456205D01*
X69379659Y-72461109D01*
X69331780Y-72475633D01*
X69287655Y-72499219D01*
X69248979Y-72530960D01*
X68117608Y-73662331D01*
X68085867Y-73701007D01*
X68062281Y-73745132D01*
X68053236Y-73774950D01*
X67616032Y-74212154D01*
X67599490Y-74207136D01*
X67520922Y-74199398D01*
X67442354Y-74207136D01*
X67366805Y-74230054D01*
X67297178Y-74267270D01*
X67236150Y-74317354D01*
X67027554Y-74525950D01*
X66977470Y-74586978D01*
X66940254Y-74656605D01*
X66917336Y-74732154D01*
X66909598Y-74810722D01*
X66917336Y-74889290D01*
X66918965Y-74894659D01*
X66913596Y-74893030D01*
X66835028Y-74885292D01*
X66756460Y-74893030D01*
X66680911Y-74915948D01*
X66611284Y-74953164D01*
X66550256Y-75003248D01*
X66341660Y-75211844D01*
X66291576Y-75272872D01*
X66254360Y-75342499D01*
X66231442Y-75418048D01*
X66223704Y-75496616D01*
X66231442Y-75575184D01*
X66236460Y-75591726D01*
X65783827Y-76044359D01*
X65769290Y-76056289D01*
X65757361Y-76070825D01*
X65721678Y-76114304D01*
X65686299Y-76180493D01*
X65664514Y-76252312D01*
X65658350Y-76314889D01*
X65640207Y-76316676D01*
X65592328Y-76331200D01*
X65548203Y-76354786D01*
X65515000Y-76382035D01*
X65481797Y-76354786D01*
X65437672Y-76331200D01*
X65389793Y-76316676D01*
X65340000Y-76311772D01*
X64640000Y-76311772D01*
X64590207Y-76316676D01*
X64542328Y-76331200D01*
X64498203Y-76354786D01*
X64459527Y-76386527D01*
X64427786Y-76425203D01*
X64404200Y-76469328D01*
X64389676Y-76517207D01*
X64384772Y-76567000D01*
X64384772Y-78069957D01*
X64081000Y-77766186D01*
X64081000Y-67630924D01*
X64136480Y-67713955D01*
X64213645Y-67791120D01*
X64237585Y-67807116D01*
X64248478Y-67827496D01*
X64262029Y-67844008D01*
X64296089Y-67885511D01*
X64310632Y-67897446D01*
X65931854Y-69518669D01*
X65935032Y-69550935D01*
X65949556Y-69598814D01*
X65973142Y-69642939D01*
X66004883Y-69681615D01*
X67348386Y-71025118D01*
X67387062Y-71056859D01*
X67431187Y-71080445D01*
X67479066Y-71094969D01*
X67528859Y-71099873D01*
X67578652Y-71094969D01*
X67626531Y-71080445D01*
X67670656Y-71056859D01*
X67709332Y-71025118D01*
X67992175Y-70742275D01*
X68023916Y-70703599D01*
X68047502Y-70659474D01*
X68062026Y-70611595D01*
X68066930Y-70561802D01*
X68062026Y-70512009D01*
X68047502Y-70464130D01*
X68023916Y-70420005D01*
X67992175Y-70381329D01*
X66648672Y-69037826D01*
X66609996Y-69006085D01*
X66565871Y-68982499D01*
X66517992Y-68967975D01*
X66468199Y-68963071D01*
X66455169Y-68964354D01*
X65074234Y-67583420D01*
X65099511Y-67522396D01*
X65120800Y-67415364D01*
X65120800Y-67378511D01*
X67318000Y-67378511D01*
X67318000Y-67497489D01*
X67341212Y-67614180D01*
X67386743Y-67724101D01*
X67452843Y-67823027D01*
X67536973Y-67907157D01*
X67635899Y-67973257D01*
X67745820Y-68018788D01*
X67862511Y-68042000D01*
X67981489Y-68042000D01*
X68098180Y-68018788D01*
X68208101Y-67973257D01*
X68307027Y-67907157D01*
X68391157Y-67823027D01*
X68457257Y-67724101D01*
X68502788Y-67614180D01*
X68526000Y-67497489D01*
X68526000Y-67378511D01*
X68502788Y-67261820D01*
X68457257Y-67151899D01*
X68391157Y-67052973D01*
X68307027Y-66968843D01*
X68208101Y-66902743D01*
X68098180Y-66857212D01*
X67981489Y-66834000D01*
X67862511Y-66834000D01*
X67745820Y-66857212D01*
X67635899Y-66902743D01*
X67536973Y-66968843D01*
X67452843Y-67052973D01*
X67386743Y-67151899D01*
X67341212Y-67261820D01*
X67318000Y-67378511D01*
X65120800Y-67378511D01*
X65120800Y-67306236D01*
X65099511Y-67199204D01*
X65057749Y-67098382D01*
X64997120Y-67007645D01*
X64919955Y-66930480D01*
X64829218Y-66869851D01*
X64728396Y-66828089D01*
X64713657Y-66825157D01*
X66461817Y-65076999D01*
X71635220Y-65076999D01*
X71569680Y-65142539D01*
G37*
X71569680Y-65142539D02*
X71509051Y-65233276D01*
X71467289Y-65334098D01*
X71446000Y-65441130D01*
X71446000Y-65550258D01*
X71467289Y-65657290D01*
X71509051Y-65758112D01*
X71569680Y-65848849D01*
X71619001Y-65898170D01*
X71619000Y-67367868D01*
X71511721Y-67475147D01*
X71479980Y-67513823D01*
X71456394Y-67557948D01*
X71447399Y-67587601D01*
X71417745Y-67596596D01*
X71373620Y-67620182D01*
X71334944Y-67651923D01*
X70946035Y-68040832D01*
X70914294Y-68079508D01*
X70890708Y-68123633D01*
X70876184Y-68171512D01*
X70871280Y-68221305D01*
X70876184Y-68271098D01*
X70890708Y-68318977D01*
X70914294Y-68363102D01*
X70946035Y-68401778D01*
X72077406Y-69533149D01*
X72116082Y-69564890D01*
X72119479Y-69566706D01*
X71894815Y-69791371D01*
X71572596Y-69791371D01*
X70564519Y-68783294D01*
X70525843Y-68751553D01*
X70481718Y-68727967D01*
X70433839Y-68713443D01*
X70384046Y-68708539D01*
X70334253Y-68713443D01*
X70295410Y-68725226D01*
X69989016Y-68418832D01*
X69977081Y-68404289D01*
X69919066Y-68356678D01*
X69899198Y-68346058D01*
X69717094Y-68163954D01*
X69656066Y-68113870D01*
X69586439Y-68076654D01*
X69510890Y-68053736D01*
X69432322Y-68045998D01*
X69353754Y-68053736D01*
X69278205Y-68076654D01*
X69208578Y-68113870D01*
X69147550Y-68163954D01*
X68938954Y-68372550D01*
X68888870Y-68433578D01*
X68851654Y-68503205D01*
X68828736Y-68578754D01*
X68820998Y-68657322D01*
X68828736Y-68735890D01*
X68851654Y-68811439D01*
X68888870Y-68881066D01*
X68938954Y-68942094D01*
X69182906Y-69186046D01*
X69243934Y-69236130D01*
X69313561Y-69273346D01*
X69389110Y-69296264D01*
X69467678Y-69304002D01*
X69546246Y-69296264D01*
X69621795Y-69273346D01*
X69691422Y-69236130D01*
X69711889Y-69219333D01*
X69756596Y-69264040D01*
X69744813Y-69302883D01*
X69739909Y-69352676D01*
X69744813Y-69402469D01*
X69759337Y-69450348D01*
X69782923Y-69494473D01*
X69814664Y-69533149D01*
X70946035Y-70664520D01*
X70984711Y-70696261D01*
X71028836Y-70719847D01*
X71076715Y-70734371D01*
X71126508Y-70739275D01*
X71176301Y-70734371D01*
X71224180Y-70719847D01*
X71268305Y-70696261D01*
X71306981Y-70664520D01*
X71418130Y-70553371D01*
X72033919Y-70553371D01*
X72052629Y-70555214D01*
X72071339Y-70553371D01*
X72071342Y-70553371D01*
X72127318Y-70547858D01*
X72199137Y-70526072D01*
X72265325Y-70490693D01*
X72323340Y-70443082D01*
X72335275Y-70428539D01*
X72759815Y-70004000D01*
X72829564Y-70004000D01*
X72936596Y-69982711D01*
X73037418Y-69940949D01*
X73128155Y-69880320D01*
X73205320Y-69803155D01*
X73265949Y-69712418D01*
X73307711Y-69611596D01*
X73329000Y-69504564D01*
X73329000Y-69395436D01*
X73307711Y-69288404D01*
X73265949Y-69187582D01*
X73205320Y-69096845D01*
X73128155Y-69019680D01*
X73037418Y-68959051D01*
X73019764Y-68951738D01*
X73392947Y-68578555D01*
X73424688Y-68539879D01*
X73448274Y-68495754D01*
X73457269Y-68466100D01*
X73486922Y-68457105D01*
X73531047Y-68433519D01*
X73569723Y-68401778D01*
X73958632Y-68012869D01*
X73990373Y-67974193D01*
X74013959Y-67930068D01*
X74028483Y-67882189D01*
X74033387Y-67832396D01*
X74028483Y-67782603D01*
X74013959Y-67734724D01*
X73990373Y-67690599D01*
X73958632Y-67651923D01*
X73399019Y-67092310D01*
X73399019Y-65786718D01*
X73400862Y-65768008D01*
X73397881Y-65737741D01*
X73393506Y-65693320D01*
X73371720Y-65621501D01*
X73358483Y-65596736D01*
X73336341Y-65555312D01*
X73312269Y-65525981D01*
X73304000Y-65515905D01*
X73304000Y-65445426D01*
X73282711Y-65338394D01*
X73240949Y-65237572D01*
X73180320Y-65146835D01*
X73110484Y-65076999D01*
X74839526Y-65076999D01*
X74769680Y-65146845D01*
X74709051Y-65237582D01*
X74667289Y-65338404D01*
X74646000Y-65445436D01*
X74646000Y-65554564D01*
X74667289Y-65661596D01*
X74709051Y-65762418D01*
X74769680Y-65853155D01*
X74819000Y-65902475D01*
X74819000Y-65905551D01*
X74817157Y-65924264D01*
X74819000Y-65942974D01*
X74819000Y-65942976D01*
X74824513Y-65998952D01*
X74846280Y-66070710D01*
X74846299Y-66070771D01*
X74881678Y-66136960D01*
X74897666Y-66156441D01*
X74929289Y-66194975D01*
X74943831Y-66206910D01*
X75258430Y-66521509D01*
X74128016Y-67651923D01*
X74096275Y-67690599D01*
X74072689Y-67734724D01*
X74058165Y-67782603D01*
X74053261Y-67832396D01*
X74058165Y-67882189D01*
X74069948Y-67921032D01*
X73657832Y-68333148D01*
X73643289Y-68345083D01*
X73615983Y-68378357D01*
X73595678Y-68403098D01*
X73564032Y-68462304D01*
X73560299Y-68469287D01*
X73538513Y-68541106D01*
X73534061Y-68586308D01*
X73531157Y-68615794D01*
X73533000Y-68634504D01*
X73533001Y-70354574D01*
X71795586Y-72091990D01*
X71725836Y-72091990D01*
X71618804Y-72113279D01*
X71517982Y-72155041D01*
X71427245Y-72215670D01*
X71368645Y-72274270D01*
X71330055Y-72235680D01*
X71239318Y-72175051D01*
X71138496Y-72133289D01*
X71031464Y-72112000D01*
X70922336Y-72112000D01*
X70815304Y-72133289D01*
X70714482Y-72175051D01*
X70623745Y-72235680D01*
X70585147Y-72274278D01*
X70582249Y-72267282D01*
X70521620Y-72176545D01*
X70444455Y-72099380D01*
X70353718Y-72038751D01*
X70252896Y-71996989D01*
X70145864Y-71975700D01*
X70036736Y-71975700D01*
X69985637Y-71985864D01*
X69998834Y-71972667D01*
X70030575Y-71933991D01*
X70054161Y-71889866D01*
X70063156Y-71860213D01*
X70092810Y-71851218D01*
X70136935Y-71827632D01*
X70175611Y-71795891D01*
X70564520Y-71406982D01*
X70596261Y-71368306D01*
X70619847Y-71324181D01*
X70634371Y-71276302D01*
X70639275Y-71226509D01*
X70634371Y-71176716D01*
X70619847Y-71128837D01*
X70596261Y-71084712D01*
X70564520Y-71046036D01*
X69433149Y-69914665D01*
X69394473Y-69882924D01*
X69350348Y-69859338D01*
X69302469Y-69844814D01*
X69252676Y-69839910D01*
X69202883Y-69844814D01*
X69155004Y-69859338D01*
X69110879Y-69882924D01*
X69097133Y-69894205D01*
X68915377Y-69712448D01*
X68910554Y-69663480D01*
X68896030Y-69615601D01*
X68872444Y-69571476D01*
X68840703Y-69532800D01*
X67497200Y-68189297D01*
X67458524Y-68157556D01*
X67414399Y-68133970D01*
X67366520Y-68119446D01*
X67316727Y-68114542D01*
X67266934Y-68119446D01*
X67219055Y-68133970D01*
X67174930Y-68157556D01*
X67136254Y-68189297D01*
X66853411Y-68472140D01*
X66821670Y-68510816D01*
X66798084Y-68554941D01*
X66783560Y-68602820D01*
X66778656Y-68652613D01*
X66783560Y-68702406D01*
X66798084Y-68750285D01*
X66821670Y-68794410D01*
X66853411Y-68833086D01*
X68196914Y-70176589D01*
X68235590Y-70208330D01*
X68279715Y-70231916D01*
X68327594Y-70246440D01*
X68376562Y-70251263D01*
X68563906Y-70438606D01*
X68545193Y-70448609D01*
X68506517Y-70480350D01*
X68117608Y-70869259D01*
X68085867Y-70907935D01*
X68062281Y-70952060D01*
X68047757Y-70999939D01*
X68042853Y-71049732D01*
X68047757Y-71099525D01*
X68062281Y-71147404D01*
X68085867Y-71191529D01*
X68117608Y-71230205D01*
X68231403Y-71344000D01*
X67208481Y-71344000D01*
X67198973Y-71312658D01*
X67175387Y-71268533D01*
X67143646Y-71229857D01*
X65800143Y-69886354D01*
X65761467Y-69854613D01*
X65717342Y-69831027D01*
X65669463Y-69816503D01*
X65619670Y-69811599D01*
X65569877Y-69816503D01*
X65521998Y-69831027D01*
X65477873Y-69854613D01*
X65439197Y-69886354D01*
X65156354Y-70169197D01*
X65124613Y-70207873D01*
X65101027Y-70251998D01*
X65086503Y-70299877D01*
X65081599Y-70349670D01*
X65086503Y-70399463D01*
X65101027Y-70447342D01*
X65124613Y-70491467D01*
X65156354Y-70530143D01*
X66499857Y-71873646D01*
X66538533Y-71905387D01*
X66582658Y-71928973D01*
X66630537Y-71943497D01*
X66679505Y-71948320D01*
X66712359Y-71981174D01*
X66724289Y-71995711D01*
X66738824Y-72007639D01*
X66782303Y-72043322D01*
X66796915Y-72051132D01*
X66848492Y-72078701D01*
X66920311Y-72100487D01*
X66976287Y-72106000D01*
X66976296Y-72106000D01*
X66994999Y-72107842D01*
X67013702Y-72106000D01*
X68735474Y-72106000D01*
X68754184Y-72107843D01*
X68772894Y-72106000D01*
X68772897Y-72106000D01*
X68828873Y-72100487D01*
X68900692Y-72078701D01*
X68943319Y-72055916D01*
X69248979Y-72361576D01*
X69287655Y-72393317D01*
X69331780Y-72416903D01*
X69379659Y-72431427D01*
X69429452Y-72436331D01*
X69479245Y-72431427D01*
X69527124Y-72416903D01*
X69551471Y-72403889D01*
X69537300Y-72475136D01*
X69537300Y-72481072D01*
X69527124Y-72475633D01*
X69479245Y-72461109D01*
X69429452Y-72456205D01*
X69379659Y-72461109D01*
X69331780Y-72475633D01*
X69287655Y-72499219D01*
X69248979Y-72530960D01*
X68117608Y-73662331D01*
X68085867Y-73701007D01*
X68062281Y-73745132D01*
X68053236Y-73774950D01*
X67616032Y-74212154D01*
X67599490Y-74207136D01*
X67520922Y-74199398D01*
X67442354Y-74207136D01*
X67366805Y-74230054D01*
X67297178Y-74267270D01*
X67236150Y-74317354D01*
X67027554Y-74525950D01*
X66977470Y-74586978D01*
X66940254Y-74656605D01*
X66917336Y-74732154D01*
X66909598Y-74810722D01*
X66917336Y-74889290D01*
X66918965Y-74894659D01*
X66913596Y-74893030D01*
X66835028Y-74885292D01*
X66756460Y-74893030D01*
X66680911Y-74915948D01*
X66611284Y-74953164D01*
X66550256Y-75003248D01*
X66341660Y-75211844D01*
X66291576Y-75272872D01*
X66254360Y-75342499D01*
X66231442Y-75418048D01*
X66223704Y-75496616D01*
X66231442Y-75575184D01*
X66236460Y-75591726D01*
X65783827Y-76044359D01*
X65769290Y-76056289D01*
X65757361Y-76070825D01*
X65721678Y-76114304D01*
X65686299Y-76180493D01*
X65664514Y-76252312D01*
X65658350Y-76314889D01*
X65640207Y-76316676D01*
X65592328Y-76331200D01*
X65548203Y-76354786D01*
X65515000Y-76382035D01*
X65481797Y-76354786D01*
X65437672Y-76331200D01*
X65389793Y-76316676D01*
X65340000Y-76311772D01*
X64640000Y-76311772D01*
X64590207Y-76316676D01*
X64542328Y-76331200D01*
X64498203Y-76354786D01*
X64459527Y-76386527D01*
X64427786Y-76425203D01*
X64404200Y-76469328D01*
X64389676Y-76517207D01*
X64384772Y-76567000D01*
X64384772Y-78069957D01*
X64081000Y-77766186D01*
X64081000Y-67630924D01*
X64136480Y-67713955D01*
X64213645Y-67791120D01*
X64237585Y-67807116D01*
X64248478Y-67827496D01*
X64262029Y-67844008D01*
X64296089Y-67885511D01*
X64310632Y-67897446D01*
X65931854Y-69518669D01*
X65935032Y-69550935D01*
X65949556Y-69598814D01*
X65973142Y-69642939D01*
X66004883Y-69681615D01*
X67348386Y-71025118D01*
X67387062Y-71056859D01*
X67431187Y-71080445D01*
X67479066Y-71094969D01*
X67528859Y-71099873D01*
X67578652Y-71094969D01*
X67626531Y-71080445D01*
X67670656Y-71056859D01*
X67709332Y-71025118D01*
X67992175Y-70742275D01*
X68023916Y-70703599D01*
X68047502Y-70659474D01*
X68062026Y-70611595D01*
X68066930Y-70561802D01*
X68062026Y-70512009D01*
X68047502Y-70464130D01*
X68023916Y-70420005D01*
X67992175Y-70381329D01*
X66648672Y-69037826D01*
X66609996Y-69006085D01*
X66565871Y-68982499D01*
X66517992Y-68967975D01*
X66468199Y-68963071D01*
X66455169Y-68964354D01*
X65074234Y-67583420D01*
X65099511Y-67522396D01*
X65120800Y-67415364D01*
X65120800Y-67378511D01*
X67318000Y-67378511D01*
X67318000Y-67497489D01*
X67341212Y-67614180D01*
X67386743Y-67724101D01*
X67452843Y-67823027D01*
X67536973Y-67907157D01*
X67635899Y-67973257D01*
X67745820Y-68018788D01*
X67862511Y-68042000D01*
X67981489Y-68042000D01*
X68098180Y-68018788D01*
X68208101Y-67973257D01*
X68307027Y-67907157D01*
X68391157Y-67823027D01*
X68457257Y-67724101D01*
X68502788Y-67614180D01*
X68526000Y-67497489D01*
X68526000Y-67378511D01*
X68502788Y-67261820D01*
X68457257Y-67151899D01*
X68391157Y-67052973D01*
X68307027Y-66968843D01*
X68208101Y-66902743D01*
X68098180Y-66857212D01*
X67981489Y-66834000D01*
X67862511Y-66834000D01*
X67745820Y-66857212D01*
X67635899Y-66902743D01*
X67536973Y-66968843D01*
X67452843Y-67052973D01*
X67386743Y-67151899D01*
X67341212Y-67261820D01*
X67318000Y-67378511D01*
X65120800Y-67378511D01*
X65120800Y-67306236D01*
X65099511Y-67199204D01*
X65057749Y-67098382D01*
X64997120Y-67007645D01*
X64919955Y-66930480D01*
X64829218Y-66869851D01*
X64728396Y-66828089D01*
X64713657Y-66825157D01*
X66461817Y-65076999D01*
X71635220Y-65076999D01*
X71569680Y-65142539D01*
M02*
