G04 #@! TF.GenerationSoftware,KiCad,Pcbnew,(5.1.6)-1*
G04 #@! TF.CreationDate,2020-12-13T19:26:13+01:00*
G04 #@! TF.ProjectId,ACM-pcb,41434d2d-7063-4622-9e6b-696361645f70,rev?*
G04 #@! TF.SameCoordinates,Original*
G04 #@! TF.FileFunction,Legend,Bot*
G04 #@! TF.FilePolarity,Positive*
%FSLAX46Y46*%
G04 Gerber Fmt 4.6, Leading zero omitted, Abs format (unit mm)*
G04 Created by KiCad (PCBNEW (5.1.6)-1) date 2020-12-13 19:26:13*
%MOMM*%
%LPD*%
G01*
G04 APERTURE LIST*
%ADD10C,0.150000*%
%ADD11C,0.100000*%
%ADD12C,0.120000*%
G04 APERTURE END LIST*
D10*
X67789469Y-70465848D02*
X67907320Y-70347997D01*
X67200213Y-69640890D01*
X67082362Y-69758741D01*
X66846660Y-70088724D02*
X66752379Y-70183005D01*
X66728809Y-70253716D01*
X66728809Y-70347997D01*
X66799519Y-70465848D01*
X66964511Y-70630839D01*
X67082362Y-70701550D01*
X67176643Y-70701550D01*
X67247354Y-70677980D01*
X67341634Y-70583699D01*
X67365205Y-70512988D01*
X67365205Y-70418707D01*
X67294494Y-70300856D01*
X67129502Y-70135865D01*
X67011651Y-70065154D01*
X66917370Y-70065154D01*
X66846660Y-70088724D01*
X66587387Y-70677980D02*
X67082362Y-71172955D01*
X66610957Y-70701550D02*
X66540247Y-70725120D01*
X66445966Y-70819401D01*
X66422396Y-70890112D01*
X66422396Y-70937252D01*
X66445966Y-71007963D01*
X66587387Y-71149384D01*
X66658098Y-71172955D01*
X66705238Y-71172955D01*
X66775949Y-71149384D01*
X66870230Y-71055103D01*
X66893800Y-70984393D01*
X66210264Y-71055103D02*
X66021702Y-71243665D01*
X65974561Y-70960822D02*
X66398825Y-71385087D01*
X66422396Y-71455797D01*
X66398825Y-71526508D01*
X66351685Y-71573648D01*
X66186693Y-71738640D02*
X65856710Y-71408657D01*
X65691719Y-71243665D02*
X65738859Y-71243665D01*
X65738859Y-71290806D01*
X65691719Y-71290806D01*
X65691719Y-71243665D01*
X65738859Y-71290806D01*
X65880280Y-72045053D02*
X65903851Y-71974342D01*
X65903851Y-71927202D01*
X65880280Y-71856491D01*
X65738859Y-71715070D01*
X65668148Y-71691500D01*
X65621008Y-71691500D01*
X65550297Y-71715070D01*
X65479587Y-71785780D01*
X65456016Y-71856491D01*
X65456016Y-71903632D01*
X65479587Y-71974342D01*
X65621008Y-72115764D01*
X65691719Y-72139334D01*
X65738859Y-72139334D01*
X65809570Y-72115764D01*
X65880280Y-72045053D01*
X65173174Y-72092193D02*
X65503157Y-72422177D01*
X65220314Y-72139334D02*
X65173174Y-72139334D01*
X65102463Y-72162904D01*
X65031752Y-72233615D01*
X65008182Y-72304325D01*
X65031752Y-72375036D01*
X65291025Y-72634309D01*
X64843190Y-73082143D02*
X64583918Y-72822870D01*
X64560348Y-72752160D01*
X64583918Y-72681449D01*
X64678199Y-72587168D01*
X64748910Y-72563598D01*
X64819620Y-73058573D02*
X64890331Y-73035002D01*
X65008182Y-72917151D01*
X65031752Y-72846441D01*
X65008182Y-72775730D01*
X64961042Y-72728589D01*
X64890331Y-72705019D01*
X64819620Y-72728589D01*
X64701769Y-72846441D01*
X64631058Y-72870011D01*
X64536778Y-73388556D02*
X64560348Y-73317845D01*
X64536778Y-73247134D01*
X64112513Y-72822870D01*
X64560348Y-73694969D02*
X64442497Y-73812820D01*
X63735390Y-73105713D01*
X63853241Y-72987862D01*
X80824438Y-90887419D02*
X80776819Y-90744561D01*
X80776819Y-90506466D01*
X80824438Y-90411228D01*
X80872057Y-90363609D01*
X80967295Y-90315990D01*
X81062533Y-90315990D01*
X81157771Y-90363609D01*
X81205390Y-90411228D01*
X81253009Y-90506466D01*
X81300628Y-90696942D01*
X81348247Y-90792180D01*
X81395866Y-90839800D01*
X81491104Y-90887419D01*
X81586342Y-90887419D01*
X81681580Y-90839800D01*
X81729200Y-90792180D01*
X81776819Y-90696942D01*
X81776819Y-90458847D01*
X81729200Y-90315990D01*
X80776819Y-89887419D02*
X81776819Y-89887419D01*
X80776819Y-89315990D01*
X81776819Y-89315990D01*
X80872057Y-88839800D02*
X80824438Y-88792180D01*
X80776819Y-88839800D01*
X80824438Y-88887419D01*
X80872057Y-88839800D01*
X80776819Y-88839800D01*
X81395866Y-88839800D02*
X81348247Y-88792180D01*
X81300628Y-88839800D01*
X81348247Y-88887419D01*
X81395866Y-88839800D01*
X81300628Y-88839800D01*
D11*
G36*
X82355200Y-88442800D02*
G01*
X79756000Y-88442800D01*
X79726400Y-78663800D01*
X82325600Y-78663800D01*
X82355200Y-88442800D01*
G37*
X82355200Y-88442800D02*
X79756000Y-88442800D01*
X79726400Y-78663800D01*
X82325600Y-78663800D01*
X82355200Y-88442800D01*
X76422000Y-67488000D02*
X77222000Y-67488000D01*
X77222000Y-67488000D02*
X77222000Y-69588000D01*
X71622000Y-68588000D02*
X71622000Y-70688000D01*
X71622000Y-70688000D02*
X72422000Y-70688000D01*
D12*
X74377800Y-83896300D02*
X74377800Y-83496300D01*
X74577800Y-83896300D02*
X74577800Y-83496300D01*
X78177800Y-83896300D02*
X78177800Y-83496300D01*
X74377800Y-85896300D02*
X74377800Y-83896300D01*
X75577800Y-83496300D02*
X75577800Y-83096300D01*
X75577800Y-83496300D02*
X74577800Y-83496300D01*
X74577800Y-83896300D02*
X74577800Y-85896300D01*
X74577800Y-85896300D02*
X75577800Y-85896300D01*
X77377800Y-85896300D02*
X78177800Y-85896300D01*
X78177800Y-85896300D02*
X78177800Y-83896300D01*
X78177800Y-83496300D02*
X77377800Y-83496300D01*
X75628500Y-82349500D02*
X72178500Y-82349500D01*
X75628500Y-82349500D02*
X77578500Y-82349500D01*
X75628500Y-73479500D02*
X73678500Y-73479500D01*
X75628500Y-73479500D02*
X77578500Y-73479500D01*
X76799000Y-85868000D02*
X76799000Y-87868000D01*
X76799000Y-87868000D02*
X72899000Y-87868000D01*
X76799000Y-85868000D02*
X72899000Y-85868000D01*
X68166727Y-72652478D02*
X67936522Y-72422273D01*
X67445478Y-73373727D02*
X67215273Y-73143522D01*
X75800000Y-89700000D02*
X77650000Y-89700000D01*
X75800000Y-88500000D02*
X77650000Y-88500000D01*
X77650000Y-88500000D02*
X77650000Y-89700000D01*
X65208673Y-67928078D02*
X65438878Y-67697873D01*
X65929922Y-68649327D02*
X66160127Y-68419122D01*
X65575500Y-78549500D02*
X65575500Y-76599500D01*
X65575500Y-78549500D02*
X65575500Y-80499500D01*
X70695500Y-78549500D02*
X70695500Y-76599500D01*
X70695500Y-78549500D02*
X70695500Y-81999500D01*
M02*
