G04 #@! TF.GenerationSoftware,KiCad,Pcbnew,(5.1.6)-1*
G04 #@! TF.CreationDate,2020-12-13T19:26:13+01:00*
G04 #@! TF.ProjectId,ACM-pcb,41434d2d-7063-4622-9e6b-696361645f70,rev?*
G04 #@! TF.SameCoordinates,Original*
G04 #@! TF.FileFunction,Legend,Top*
G04 #@! TF.FilePolarity,Positive*
%FSLAX46Y46*%
G04 Gerber Fmt 4.6, Leading zero omitted, Abs format (unit mm)*
G04 Created by KiCad (PCBNEW (5.1.6)-1) date 2020-12-13 19:26:13*
%MOMM*%
%LPD*%
G01*
G04 APERTURE LIST*
%ADD10C,0.150000*%
%ADD11C,0.100000*%
%ADD12C,0.200000*%
%ADD13C,0.120000*%
%ADD14C,0.254000*%
G04 APERTURE END LIST*
D10*
X75666790Y-90562180D02*
X76000123Y-91562180D01*
X76333457Y-90562180D01*
X76571552Y-90562180D02*
X77190600Y-90562180D01*
X76857266Y-90943133D01*
X77000123Y-90943133D01*
X77095361Y-90990752D01*
X77142980Y-91038371D01*
X77190600Y-91133609D01*
X77190600Y-91371704D01*
X77142980Y-91466942D01*
X77095361Y-91514561D01*
X77000123Y-91562180D01*
X76714409Y-91562180D01*
X76619171Y-91514561D01*
X76571552Y-91466942D01*
X77619171Y-91466942D02*
X77666790Y-91514561D01*
X77619171Y-91562180D01*
X77571552Y-91514561D01*
X77619171Y-91466942D01*
X77619171Y-91562180D01*
X78285838Y-90562180D02*
X78381076Y-90562180D01*
X78476314Y-90609800D01*
X78523933Y-90657419D01*
X78571552Y-90752657D01*
X78619171Y-90943133D01*
X78619171Y-91181228D01*
X78571552Y-91371704D01*
X78523933Y-91466942D01*
X78476314Y-91514561D01*
X78381076Y-91562180D01*
X78285838Y-91562180D01*
X78190600Y-91514561D01*
X78142980Y-91466942D01*
X78095361Y-91371704D01*
X78047742Y-91181228D01*
X78047742Y-90943133D01*
X78095361Y-90752657D01*
X78142980Y-90657419D01*
X78190600Y-90609800D01*
X78285838Y-90562180D01*
X71001576Y-79491866D02*
X71477766Y-79491866D01*
X70906338Y-79777580D02*
X71239671Y-78777580D01*
X71573004Y-79777580D01*
X72049195Y-79777580D02*
X71953957Y-79729961D01*
X71906338Y-79634723D01*
X71906338Y-78777580D01*
X72430147Y-79777580D02*
X72430147Y-79110914D01*
X72430147Y-78777580D02*
X72382528Y-78825200D01*
X72430147Y-78872819D01*
X72477766Y-78825200D01*
X72430147Y-78777580D01*
X72430147Y-78872819D01*
X73334909Y-79110914D02*
X73334909Y-79920438D01*
X73287290Y-80015676D01*
X73239671Y-80063295D01*
X73144433Y-80110914D01*
X73001576Y-80110914D01*
X72906338Y-80063295D01*
X73334909Y-79729961D02*
X73239671Y-79777580D01*
X73049195Y-79777580D01*
X72953957Y-79729961D01*
X72906338Y-79682342D01*
X72858719Y-79587104D01*
X72858719Y-79301390D01*
X72906338Y-79206152D01*
X72953957Y-79158533D01*
X73049195Y-79110914D01*
X73239671Y-79110914D01*
X73334909Y-79158533D01*
X73811100Y-79110914D02*
X73811100Y-79777580D01*
X73811100Y-79206152D02*
X73858719Y-79158533D01*
X73953957Y-79110914D01*
X74096814Y-79110914D01*
X74192052Y-79158533D01*
X74239671Y-79253771D01*
X74239671Y-79777580D01*
X71620623Y-81332342D02*
X71573004Y-81379961D01*
X71430147Y-81427580D01*
X71334909Y-81427580D01*
X71192052Y-81379961D01*
X71096814Y-81284723D01*
X71049195Y-81189485D01*
X71001576Y-80999009D01*
X71001576Y-80856152D01*
X71049195Y-80665676D01*
X71096814Y-80570438D01*
X71192052Y-80475200D01*
X71334909Y-80427580D01*
X71430147Y-80427580D01*
X71573004Y-80475200D01*
X71620623Y-80522819D01*
X72001576Y-81141866D02*
X72477766Y-81141866D01*
X71906338Y-81427580D02*
X72239671Y-80427580D01*
X72573004Y-81427580D01*
X72906338Y-81427580D02*
X72906338Y-80427580D01*
X73477766Y-81427580D01*
X73477766Y-80427580D01*
X71049195Y-83077580D02*
X71049195Y-82077580D01*
X71382528Y-82791866D01*
X71715861Y-82077580D01*
X71715861Y-83077580D01*
X72334909Y-83077580D02*
X72239671Y-83029961D01*
X72192052Y-82982342D01*
X72144433Y-82887104D01*
X72144433Y-82601390D01*
X72192052Y-82506152D01*
X72239671Y-82458533D01*
X72334909Y-82410914D01*
X72477766Y-82410914D01*
X72573004Y-82458533D01*
X72620623Y-82506152D01*
X72668242Y-82601390D01*
X72668242Y-82887104D01*
X72620623Y-82982342D01*
X72573004Y-83029961D01*
X72477766Y-83077580D01*
X72334909Y-83077580D01*
X73525385Y-83077580D02*
X73525385Y-82077580D01*
X73525385Y-83029961D02*
X73430147Y-83077580D01*
X73239671Y-83077580D01*
X73144433Y-83029961D01*
X73096814Y-82982342D01*
X73049195Y-82887104D01*
X73049195Y-82601390D01*
X73096814Y-82506152D01*
X73144433Y-82458533D01*
X73239671Y-82410914D01*
X73430147Y-82410914D01*
X73525385Y-82458533D01*
X74430147Y-82410914D02*
X74430147Y-83077580D01*
X74001576Y-82410914D02*
X74001576Y-82934723D01*
X74049195Y-83029961D01*
X74144433Y-83077580D01*
X74287290Y-83077580D01*
X74382528Y-83029961D01*
X74430147Y-82982342D01*
X75049195Y-83077580D02*
X74953957Y-83029961D01*
X74906338Y-82934723D01*
X74906338Y-82077580D01*
X75811100Y-83029961D02*
X75715861Y-83077580D01*
X75525385Y-83077580D01*
X75430147Y-83029961D01*
X75382528Y-82934723D01*
X75382528Y-82553771D01*
X75430147Y-82458533D01*
X75525385Y-82410914D01*
X75715861Y-82410914D01*
X75811100Y-82458533D01*
X75858719Y-82553771D01*
X75858719Y-82649009D01*
X75382528Y-82744247D01*
D11*
X67790000Y-77017000D02*
X67790000Y-80717000D01*
X64290000Y-77017000D02*
X64290000Y-80717000D01*
D12*
X67140000Y-76167000D02*
X67140000Y-76167000D01*
X66940000Y-76167000D02*
X66940000Y-76167000D01*
X66940000Y-76167000D02*
G75*
G03*
X67140000Y-76167000I100000J0D01*
G01*
X67140000Y-76167000D02*
G75*
G03*
X66940000Y-76167000I-100000J0D01*
G01*
D13*
X73970000Y-87632000D02*
X73040000Y-87632000D01*
X70810000Y-87632000D02*
X71740000Y-87632000D01*
X70810000Y-87632000D02*
X70810000Y-89792000D01*
X73970000Y-87632000D02*
X73970000Y-89092000D01*
X79085321Y-82497200D02*
X79410879Y-82497200D01*
X79085321Y-83517200D02*
X79410879Y-83517200D01*
X77837221Y-79010000D02*
X78162779Y-79010000D01*
X77837221Y-77990000D02*
X78162779Y-77990000D01*
D10*
X74043324Y-67319744D02*
X73884225Y-67478843D01*
X79169848Y-72446268D02*
X78940038Y-72676078D01*
X74043324Y-77572792D02*
X74273134Y-77342982D01*
X68916800Y-72446268D02*
X69146610Y-72216458D01*
X74043324Y-67319744D02*
X74273134Y-67549554D01*
X68916800Y-72446268D02*
X69146610Y-72676078D01*
X74043324Y-77572792D02*
X73813514Y-77342982D01*
X79169848Y-72446268D02*
X78940038Y-72216458D01*
X73884225Y-67478843D02*
X72876598Y-66471216D01*
D13*
X72865000Y-83350000D02*
X72865000Y-83985000D01*
X72230000Y-83350000D02*
X72865000Y-83350000D01*
D12*
X67210661Y-71799239D02*
X67210661Y-71799239D01*
X67069239Y-71940660D02*
X67069239Y-71940660D01*
D11*
X68589519Y-69359720D02*
X67670280Y-68440481D01*
X66326777Y-71622462D02*
X65407538Y-70703223D01*
D12*
X67069239Y-71940659D02*
G75*
G03*
X67210661Y-71799239I70711J70710D01*
G01*
X67210661Y-71799238D02*
G75*
G03*
X67069239Y-71940660I-70711J-70711D01*
G01*
D14*
X77999000Y-87695000D02*
G75*
G03*
X77999000Y-87695000I-125000J0D01*
G01*
D13*
X74750200Y-86548279D02*
X74750200Y-86222721D01*
X75770200Y-86548279D02*
X75770200Y-86222721D01*
X79610779Y-79984000D02*
X79285221Y-79984000D01*
X79610779Y-81004000D02*
X79285221Y-81004000D01*
X65090800Y-87188600D02*
X67090800Y-87188600D01*
X67090800Y-87188600D02*
X67090800Y-83288600D01*
X65090800Y-87188600D02*
X65090800Y-83288600D01*
M02*
