G04 #@! TF.GenerationSoftware,KiCad,Pcbnew,(5.1.2)-2*
G04 #@! TF.CreationDate,2020-03-09T10:51:38+01:00*
G04 #@! TF.ProjectId,Extension_PCB,45787465-6e73-4696-9f6e-5f5043422e6b,rev?*
G04 #@! TF.SameCoordinates,Original*
G04 #@! TF.FileFunction,Copper,L1,Top*
G04 #@! TF.FilePolarity,Positive*
%FSLAX46Y46*%
G04 Gerber Fmt 4.6, Leading zero omitted, Abs format (unit mm)*
G04 Created by KiCad (PCBNEW (5.1.2)-2) date 2020-03-09 10:51:38*
%MOMM*%
%LPD*%
G04 APERTURE LIST*
%ADD10C,1.800000*%
%ADD11C,4.875000*%
%ADD12R,1.050000X0.350000*%
%ADD13R,0.350000X1.050000*%
%ADD14R,4.200000X4.200000*%
%ADD15C,0.100000*%
%ADD16C,0.300000*%
%ADD17C,1.700000*%
%ADD18C,0.875000*%
%ADD19O,1.600000X1.600000*%
%ADD20R,1.600000X1.600000*%
%ADD21C,0.800000*%
%ADD22C,2.000000*%
%ADD23C,0.250000*%
%ADD24C,0.500000*%
%ADD25C,0.254000*%
G04 APERTURE END LIST*
D10*
X179050000Y-135500000D03*
X176550000Y-135500000D03*
X174050000Y-135500000D03*
X171550000Y-135500000D03*
X169050000Y-135500000D03*
X166550000Y-135500000D03*
X179050000Y-138500000D03*
X176550000Y-138500000D03*
X174050000Y-138500000D03*
X171550000Y-138500000D03*
X169050000Y-138500000D03*
X166550000Y-138500000D03*
D11*
X161050000Y-140000000D03*
X184550000Y-140000000D03*
D12*
X185050000Y-100150000D03*
X185050000Y-99500000D03*
X185050000Y-98850000D03*
X185050000Y-98200000D03*
X185050000Y-97550000D03*
X185050000Y-96900000D03*
X185050000Y-96250000D03*
D13*
X184150000Y-95350000D03*
X183500000Y-95350000D03*
X182850000Y-95350000D03*
X182200000Y-95350000D03*
X181550000Y-95350000D03*
X180900000Y-95350000D03*
X180250000Y-95350000D03*
D12*
X179350000Y-96250000D03*
X179350000Y-96900000D03*
X179350000Y-97550000D03*
X179350000Y-98200000D03*
X179350000Y-98850000D03*
X179350000Y-99500000D03*
X179350000Y-100150000D03*
D13*
X180250000Y-101050000D03*
X180900000Y-101050000D03*
X181550000Y-101050000D03*
X182200000Y-101050000D03*
X182850000Y-101050000D03*
X183500000Y-101050000D03*
X184150000Y-101050000D03*
D14*
X182200000Y-98200000D03*
D15*
G36*
X167110831Y-87107361D02*
G01*
X167118112Y-87108441D01*
X167125251Y-87110229D01*
X167132181Y-87112709D01*
X167138835Y-87115856D01*
X167145148Y-87119640D01*
X167151059Y-87124024D01*
X167156513Y-87128967D01*
X167161456Y-87134421D01*
X167165840Y-87140332D01*
X167169624Y-87146645D01*
X167172771Y-87153299D01*
X167175251Y-87160229D01*
X167177039Y-87167368D01*
X167178119Y-87174649D01*
X167178480Y-87182000D01*
X167178480Y-87332000D01*
X167178119Y-87339351D01*
X167177039Y-87346632D01*
X167175251Y-87353771D01*
X167172771Y-87360701D01*
X167169624Y-87367355D01*
X167165840Y-87373668D01*
X167161456Y-87379579D01*
X167156513Y-87385033D01*
X167151059Y-87389976D01*
X167145148Y-87394360D01*
X167138835Y-87398144D01*
X167132181Y-87401291D01*
X167125251Y-87403771D01*
X167118112Y-87405559D01*
X167110831Y-87406639D01*
X167103480Y-87407000D01*
X166453480Y-87407000D01*
X166446129Y-87406639D01*
X166438848Y-87405559D01*
X166431709Y-87403771D01*
X166424779Y-87401291D01*
X166418125Y-87398144D01*
X166411812Y-87394360D01*
X166405901Y-87389976D01*
X166400447Y-87385033D01*
X166395504Y-87379579D01*
X166391120Y-87373668D01*
X166387336Y-87367355D01*
X166384189Y-87360701D01*
X166381709Y-87353771D01*
X166379921Y-87346632D01*
X166378841Y-87339351D01*
X166378480Y-87332000D01*
X166378480Y-87182000D01*
X166378841Y-87174649D01*
X166379921Y-87167368D01*
X166381709Y-87160229D01*
X166384189Y-87153299D01*
X166387336Y-87146645D01*
X166391120Y-87140332D01*
X166395504Y-87134421D01*
X166400447Y-87128967D01*
X166405901Y-87124024D01*
X166411812Y-87119640D01*
X166418125Y-87115856D01*
X166424779Y-87112709D01*
X166431709Y-87110229D01*
X166438848Y-87108441D01*
X166446129Y-87107361D01*
X166453480Y-87107000D01*
X167103480Y-87107000D01*
X167110831Y-87107361D01*
X167110831Y-87107361D01*
G37*
D16*
X166778480Y-87257000D03*
D15*
G36*
X167110831Y-87757361D02*
G01*
X167118112Y-87758441D01*
X167125251Y-87760229D01*
X167132181Y-87762709D01*
X167138835Y-87765856D01*
X167145148Y-87769640D01*
X167151059Y-87774024D01*
X167156513Y-87778967D01*
X167161456Y-87784421D01*
X167165840Y-87790332D01*
X167169624Y-87796645D01*
X167172771Y-87803299D01*
X167175251Y-87810229D01*
X167177039Y-87817368D01*
X167178119Y-87824649D01*
X167178480Y-87832000D01*
X167178480Y-87982000D01*
X167178119Y-87989351D01*
X167177039Y-87996632D01*
X167175251Y-88003771D01*
X167172771Y-88010701D01*
X167169624Y-88017355D01*
X167165840Y-88023668D01*
X167161456Y-88029579D01*
X167156513Y-88035033D01*
X167151059Y-88039976D01*
X167145148Y-88044360D01*
X167138835Y-88048144D01*
X167132181Y-88051291D01*
X167125251Y-88053771D01*
X167118112Y-88055559D01*
X167110831Y-88056639D01*
X167103480Y-88057000D01*
X166453480Y-88057000D01*
X166446129Y-88056639D01*
X166438848Y-88055559D01*
X166431709Y-88053771D01*
X166424779Y-88051291D01*
X166418125Y-88048144D01*
X166411812Y-88044360D01*
X166405901Y-88039976D01*
X166400447Y-88035033D01*
X166395504Y-88029579D01*
X166391120Y-88023668D01*
X166387336Y-88017355D01*
X166384189Y-88010701D01*
X166381709Y-88003771D01*
X166379921Y-87996632D01*
X166378841Y-87989351D01*
X166378480Y-87982000D01*
X166378480Y-87832000D01*
X166378841Y-87824649D01*
X166379921Y-87817368D01*
X166381709Y-87810229D01*
X166384189Y-87803299D01*
X166387336Y-87796645D01*
X166391120Y-87790332D01*
X166395504Y-87784421D01*
X166400447Y-87778967D01*
X166405901Y-87774024D01*
X166411812Y-87769640D01*
X166418125Y-87765856D01*
X166424779Y-87762709D01*
X166431709Y-87760229D01*
X166438848Y-87758441D01*
X166446129Y-87757361D01*
X166453480Y-87757000D01*
X167103480Y-87757000D01*
X167110831Y-87757361D01*
X167110831Y-87757361D01*
G37*
D16*
X166778480Y-87907000D03*
D15*
G36*
X167110831Y-88407361D02*
G01*
X167118112Y-88408441D01*
X167125251Y-88410229D01*
X167132181Y-88412709D01*
X167138835Y-88415856D01*
X167145148Y-88419640D01*
X167151059Y-88424024D01*
X167156513Y-88428967D01*
X167161456Y-88434421D01*
X167165840Y-88440332D01*
X167169624Y-88446645D01*
X167172771Y-88453299D01*
X167175251Y-88460229D01*
X167177039Y-88467368D01*
X167178119Y-88474649D01*
X167178480Y-88482000D01*
X167178480Y-88632000D01*
X167178119Y-88639351D01*
X167177039Y-88646632D01*
X167175251Y-88653771D01*
X167172771Y-88660701D01*
X167169624Y-88667355D01*
X167165840Y-88673668D01*
X167161456Y-88679579D01*
X167156513Y-88685033D01*
X167151059Y-88689976D01*
X167145148Y-88694360D01*
X167138835Y-88698144D01*
X167132181Y-88701291D01*
X167125251Y-88703771D01*
X167118112Y-88705559D01*
X167110831Y-88706639D01*
X167103480Y-88707000D01*
X166453480Y-88707000D01*
X166446129Y-88706639D01*
X166438848Y-88705559D01*
X166431709Y-88703771D01*
X166424779Y-88701291D01*
X166418125Y-88698144D01*
X166411812Y-88694360D01*
X166405901Y-88689976D01*
X166400447Y-88685033D01*
X166395504Y-88679579D01*
X166391120Y-88673668D01*
X166387336Y-88667355D01*
X166384189Y-88660701D01*
X166381709Y-88653771D01*
X166379921Y-88646632D01*
X166378841Y-88639351D01*
X166378480Y-88632000D01*
X166378480Y-88482000D01*
X166378841Y-88474649D01*
X166379921Y-88467368D01*
X166381709Y-88460229D01*
X166384189Y-88453299D01*
X166387336Y-88446645D01*
X166391120Y-88440332D01*
X166395504Y-88434421D01*
X166400447Y-88428967D01*
X166405901Y-88424024D01*
X166411812Y-88419640D01*
X166418125Y-88415856D01*
X166424779Y-88412709D01*
X166431709Y-88410229D01*
X166438848Y-88408441D01*
X166446129Y-88407361D01*
X166453480Y-88407000D01*
X167103480Y-88407000D01*
X167110831Y-88407361D01*
X167110831Y-88407361D01*
G37*
D16*
X166778480Y-88557000D03*
D15*
G36*
X167110831Y-89057361D02*
G01*
X167118112Y-89058441D01*
X167125251Y-89060229D01*
X167132181Y-89062709D01*
X167138835Y-89065856D01*
X167145148Y-89069640D01*
X167151059Y-89074024D01*
X167156513Y-89078967D01*
X167161456Y-89084421D01*
X167165840Y-89090332D01*
X167169624Y-89096645D01*
X167172771Y-89103299D01*
X167175251Y-89110229D01*
X167177039Y-89117368D01*
X167178119Y-89124649D01*
X167178480Y-89132000D01*
X167178480Y-89282000D01*
X167178119Y-89289351D01*
X167177039Y-89296632D01*
X167175251Y-89303771D01*
X167172771Y-89310701D01*
X167169624Y-89317355D01*
X167165840Y-89323668D01*
X167161456Y-89329579D01*
X167156513Y-89335033D01*
X167151059Y-89339976D01*
X167145148Y-89344360D01*
X167138835Y-89348144D01*
X167132181Y-89351291D01*
X167125251Y-89353771D01*
X167118112Y-89355559D01*
X167110831Y-89356639D01*
X167103480Y-89357000D01*
X166453480Y-89357000D01*
X166446129Y-89356639D01*
X166438848Y-89355559D01*
X166431709Y-89353771D01*
X166424779Y-89351291D01*
X166418125Y-89348144D01*
X166411812Y-89344360D01*
X166405901Y-89339976D01*
X166400447Y-89335033D01*
X166395504Y-89329579D01*
X166391120Y-89323668D01*
X166387336Y-89317355D01*
X166384189Y-89310701D01*
X166381709Y-89303771D01*
X166379921Y-89296632D01*
X166378841Y-89289351D01*
X166378480Y-89282000D01*
X166378480Y-89132000D01*
X166378841Y-89124649D01*
X166379921Y-89117368D01*
X166381709Y-89110229D01*
X166384189Y-89103299D01*
X166387336Y-89096645D01*
X166391120Y-89090332D01*
X166395504Y-89084421D01*
X166400447Y-89078967D01*
X166405901Y-89074024D01*
X166411812Y-89069640D01*
X166418125Y-89065856D01*
X166424779Y-89062709D01*
X166431709Y-89060229D01*
X166438848Y-89058441D01*
X166446129Y-89057361D01*
X166453480Y-89057000D01*
X167103480Y-89057000D01*
X167110831Y-89057361D01*
X167110831Y-89057361D01*
G37*
D16*
X166778480Y-89207000D03*
D15*
G36*
X164210831Y-89057361D02*
G01*
X164218112Y-89058441D01*
X164225251Y-89060229D01*
X164232181Y-89062709D01*
X164238835Y-89065856D01*
X164245148Y-89069640D01*
X164251059Y-89074024D01*
X164256513Y-89078967D01*
X164261456Y-89084421D01*
X164265840Y-89090332D01*
X164269624Y-89096645D01*
X164272771Y-89103299D01*
X164275251Y-89110229D01*
X164277039Y-89117368D01*
X164278119Y-89124649D01*
X164278480Y-89132000D01*
X164278480Y-89282000D01*
X164278119Y-89289351D01*
X164277039Y-89296632D01*
X164275251Y-89303771D01*
X164272771Y-89310701D01*
X164269624Y-89317355D01*
X164265840Y-89323668D01*
X164261456Y-89329579D01*
X164256513Y-89335033D01*
X164251059Y-89339976D01*
X164245148Y-89344360D01*
X164238835Y-89348144D01*
X164232181Y-89351291D01*
X164225251Y-89353771D01*
X164218112Y-89355559D01*
X164210831Y-89356639D01*
X164203480Y-89357000D01*
X163553480Y-89357000D01*
X163546129Y-89356639D01*
X163538848Y-89355559D01*
X163531709Y-89353771D01*
X163524779Y-89351291D01*
X163518125Y-89348144D01*
X163511812Y-89344360D01*
X163505901Y-89339976D01*
X163500447Y-89335033D01*
X163495504Y-89329579D01*
X163491120Y-89323668D01*
X163487336Y-89317355D01*
X163484189Y-89310701D01*
X163481709Y-89303771D01*
X163479921Y-89296632D01*
X163478841Y-89289351D01*
X163478480Y-89282000D01*
X163478480Y-89132000D01*
X163478841Y-89124649D01*
X163479921Y-89117368D01*
X163481709Y-89110229D01*
X163484189Y-89103299D01*
X163487336Y-89096645D01*
X163491120Y-89090332D01*
X163495504Y-89084421D01*
X163500447Y-89078967D01*
X163505901Y-89074024D01*
X163511812Y-89069640D01*
X163518125Y-89065856D01*
X163524779Y-89062709D01*
X163531709Y-89060229D01*
X163538848Y-89058441D01*
X163546129Y-89057361D01*
X163553480Y-89057000D01*
X164203480Y-89057000D01*
X164210831Y-89057361D01*
X164210831Y-89057361D01*
G37*
D16*
X163878480Y-89207000D03*
D15*
G36*
X164210831Y-88407361D02*
G01*
X164218112Y-88408441D01*
X164225251Y-88410229D01*
X164232181Y-88412709D01*
X164238835Y-88415856D01*
X164245148Y-88419640D01*
X164251059Y-88424024D01*
X164256513Y-88428967D01*
X164261456Y-88434421D01*
X164265840Y-88440332D01*
X164269624Y-88446645D01*
X164272771Y-88453299D01*
X164275251Y-88460229D01*
X164277039Y-88467368D01*
X164278119Y-88474649D01*
X164278480Y-88482000D01*
X164278480Y-88632000D01*
X164278119Y-88639351D01*
X164277039Y-88646632D01*
X164275251Y-88653771D01*
X164272771Y-88660701D01*
X164269624Y-88667355D01*
X164265840Y-88673668D01*
X164261456Y-88679579D01*
X164256513Y-88685033D01*
X164251059Y-88689976D01*
X164245148Y-88694360D01*
X164238835Y-88698144D01*
X164232181Y-88701291D01*
X164225251Y-88703771D01*
X164218112Y-88705559D01*
X164210831Y-88706639D01*
X164203480Y-88707000D01*
X163553480Y-88707000D01*
X163546129Y-88706639D01*
X163538848Y-88705559D01*
X163531709Y-88703771D01*
X163524779Y-88701291D01*
X163518125Y-88698144D01*
X163511812Y-88694360D01*
X163505901Y-88689976D01*
X163500447Y-88685033D01*
X163495504Y-88679579D01*
X163491120Y-88673668D01*
X163487336Y-88667355D01*
X163484189Y-88660701D01*
X163481709Y-88653771D01*
X163479921Y-88646632D01*
X163478841Y-88639351D01*
X163478480Y-88632000D01*
X163478480Y-88482000D01*
X163478841Y-88474649D01*
X163479921Y-88467368D01*
X163481709Y-88460229D01*
X163484189Y-88453299D01*
X163487336Y-88446645D01*
X163491120Y-88440332D01*
X163495504Y-88434421D01*
X163500447Y-88428967D01*
X163505901Y-88424024D01*
X163511812Y-88419640D01*
X163518125Y-88415856D01*
X163524779Y-88412709D01*
X163531709Y-88410229D01*
X163538848Y-88408441D01*
X163546129Y-88407361D01*
X163553480Y-88407000D01*
X164203480Y-88407000D01*
X164210831Y-88407361D01*
X164210831Y-88407361D01*
G37*
D16*
X163878480Y-88557000D03*
D15*
G36*
X164210831Y-87757361D02*
G01*
X164218112Y-87758441D01*
X164225251Y-87760229D01*
X164232181Y-87762709D01*
X164238835Y-87765856D01*
X164245148Y-87769640D01*
X164251059Y-87774024D01*
X164256513Y-87778967D01*
X164261456Y-87784421D01*
X164265840Y-87790332D01*
X164269624Y-87796645D01*
X164272771Y-87803299D01*
X164275251Y-87810229D01*
X164277039Y-87817368D01*
X164278119Y-87824649D01*
X164278480Y-87832000D01*
X164278480Y-87982000D01*
X164278119Y-87989351D01*
X164277039Y-87996632D01*
X164275251Y-88003771D01*
X164272771Y-88010701D01*
X164269624Y-88017355D01*
X164265840Y-88023668D01*
X164261456Y-88029579D01*
X164256513Y-88035033D01*
X164251059Y-88039976D01*
X164245148Y-88044360D01*
X164238835Y-88048144D01*
X164232181Y-88051291D01*
X164225251Y-88053771D01*
X164218112Y-88055559D01*
X164210831Y-88056639D01*
X164203480Y-88057000D01*
X163553480Y-88057000D01*
X163546129Y-88056639D01*
X163538848Y-88055559D01*
X163531709Y-88053771D01*
X163524779Y-88051291D01*
X163518125Y-88048144D01*
X163511812Y-88044360D01*
X163505901Y-88039976D01*
X163500447Y-88035033D01*
X163495504Y-88029579D01*
X163491120Y-88023668D01*
X163487336Y-88017355D01*
X163484189Y-88010701D01*
X163481709Y-88003771D01*
X163479921Y-87996632D01*
X163478841Y-87989351D01*
X163478480Y-87982000D01*
X163478480Y-87832000D01*
X163478841Y-87824649D01*
X163479921Y-87817368D01*
X163481709Y-87810229D01*
X163484189Y-87803299D01*
X163487336Y-87796645D01*
X163491120Y-87790332D01*
X163495504Y-87784421D01*
X163500447Y-87778967D01*
X163505901Y-87774024D01*
X163511812Y-87769640D01*
X163518125Y-87765856D01*
X163524779Y-87762709D01*
X163531709Y-87760229D01*
X163538848Y-87758441D01*
X163546129Y-87757361D01*
X163553480Y-87757000D01*
X164203480Y-87757000D01*
X164210831Y-87757361D01*
X164210831Y-87757361D01*
G37*
D16*
X163878480Y-87907000D03*
D15*
G36*
X164210831Y-87107361D02*
G01*
X164218112Y-87108441D01*
X164225251Y-87110229D01*
X164232181Y-87112709D01*
X164238835Y-87115856D01*
X164245148Y-87119640D01*
X164251059Y-87124024D01*
X164256513Y-87128967D01*
X164261456Y-87134421D01*
X164265840Y-87140332D01*
X164269624Y-87146645D01*
X164272771Y-87153299D01*
X164275251Y-87160229D01*
X164277039Y-87167368D01*
X164278119Y-87174649D01*
X164278480Y-87182000D01*
X164278480Y-87332000D01*
X164278119Y-87339351D01*
X164277039Y-87346632D01*
X164275251Y-87353771D01*
X164272771Y-87360701D01*
X164269624Y-87367355D01*
X164265840Y-87373668D01*
X164261456Y-87379579D01*
X164256513Y-87385033D01*
X164251059Y-87389976D01*
X164245148Y-87394360D01*
X164238835Y-87398144D01*
X164232181Y-87401291D01*
X164225251Y-87403771D01*
X164218112Y-87405559D01*
X164210831Y-87406639D01*
X164203480Y-87407000D01*
X163553480Y-87407000D01*
X163546129Y-87406639D01*
X163538848Y-87405559D01*
X163531709Y-87403771D01*
X163524779Y-87401291D01*
X163518125Y-87398144D01*
X163511812Y-87394360D01*
X163505901Y-87389976D01*
X163500447Y-87385033D01*
X163495504Y-87379579D01*
X163491120Y-87373668D01*
X163487336Y-87367355D01*
X163484189Y-87360701D01*
X163481709Y-87353771D01*
X163479921Y-87346632D01*
X163478841Y-87339351D01*
X163478480Y-87332000D01*
X163478480Y-87182000D01*
X163478841Y-87174649D01*
X163479921Y-87167368D01*
X163481709Y-87160229D01*
X163484189Y-87153299D01*
X163487336Y-87146645D01*
X163491120Y-87140332D01*
X163495504Y-87134421D01*
X163500447Y-87128967D01*
X163505901Y-87124024D01*
X163511812Y-87119640D01*
X163518125Y-87115856D01*
X163524779Y-87112709D01*
X163531709Y-87110229D01*
X163538848Y-87108441D01*
X163546129Y-87107361D01*
X163553480Y-87107000D01*
X164203480Y-87107000D01*
X164210831Y-87107361D01*
X164210831Y-87107361D01*
G37*
D16*
X163878480Y-87257000D03*
D15*
G36*
X165952984Y-87208204D02*
G01*
X165977253Y-87211804D01*
X166001051Y-87217765D01*
X166024151Y-87226030D01*
X166046329Y-87236520D01*
X166067373Y-87249133D01*
X166087078Y-87263747D01*
X166105257Y-87280223D01*
X166121733Y-87298402D01*
X166136347Y-87318107D01*
X166148960Y-87339151D01*
X166159450Y-87361329D01*
X166167715Y-87384429D01*
X166173676Y-87408227D01*
X166177276Y-87432496D01*
X166178480Y-87457000D01*
X166178480Y-89007000D01*
X166177276Y-89031504D01*
X166173676Y-89055773D01*
X166167715Y-89079571D01*
X166159450Y-89102671D01*
X166148960Y-89124849D01*
X166136347Y-89145893D01*
X166121733Y-89165598D01*
X166105257Y-89183777D01*
X166087078Y-89200253D01*
X166067373Y-89214867D01*
X166046329Y-89227480D01*
X166024151Y-89237970D01*
X166001051Y-89246235D01*
X165977253Y-89252196D01*
X165952984Y-89255796D01*
X165928480Y-89257000D01*
X164728480Y-89257000D01*
X164703976Y-89255796D01*
X164679707Y-89252196D01*
X164655909Y-89246235D01*
X164632809Y-89237970D01*
X164610631Y-89227480D01*
X164589587Y-89214867D01*
X164569882Y-89200253D01*
X164551703Y-89183777D01*
X164535227Y-89165598D01*
X164520613Y-89145893D01*
X164508000Y-89124849D01*
X164497510Y-89102671D01*
X164489245Y-89079571D01*
X164483284Y-89055773D01*
X164479684Y-89031504D01*
X164478480Y-89007000D01*
X164478480Y-87457000D01*
X164479684Y-87432496D01*
X164483284Y-87408227D01*
X164489245Y-87384429D01*
X164497510Y-87361329D01*
X164508000Y-87339151D01*
X164520613Y-87318107D01*
X164535227Y-87298402D01*
X164551703Y-87280223D01*
X164569882Y-87263747D01*
X164589587Y-87249133D01*
X164610631Y-87236520D01*
X164632809Y-87226030D01*
X164655909Y-87217765D01*
X164679707Y-87211804D01*
X164703976Y-87208204D01*
X164728480Y-87207000D01*
X165928480Y-87207000D01*
X165952984Y-87208204D01*
X165952984Y-87208204D01*
G37*
D17*
X165328480Y-88232000D03*
D15*
G36*
X162142431Y-88659693D02*
G01*
X162163666Y-88662843D01*
X162184490Y-88668059D01*
X162204702Y-88675291D01*
X162224108Y-88684470D01*
X162242521Y-88695506D01*
X162259764Y-88708294D01*
X162275670Y-88722710D01*
X162290086Y-88738616D01*
X162302874Y-88755859D01*
X162313910Y-88774272D01*
X162323089Y-88793678D01*
X162330321Y-88813890D01*
X162335537Y-88834714D01*
X162338687Y-88855949D01*
X162339740Y-88877390D01*
X162339740Y-89314890D01*
X162338687Y-89336331D01*
X162335537Y-89357566D01*
X162330321Y-89378390D01*
X162323089Y-89398602D01*
X162313910Y-89418008D01*
X162302874Y-89436421D01*
X162290086Y-89453664D01*
X162275670Y-89469570D01*
X162259764Y-89483986D01*
X162242521Y-89496774D01*
X162224108Y-89507810D01*
X162204702Y-89516989D01*
X162184490Y-89524221D01*
X162163666Y-89529437D01*
X162142431Y-89532587D01*
X162120990Y-89533640D01*
X161608490Y-89533640D01*
X161587049Y-89532587D01*
X161565814Y-89529437D01*
X161544990Y-89524221D01*
X161524778Y-89516989D01*
X161505372Y-89507810D01*
X161486959Y-89496774D01*
X161469716Y-89483986D01*
X161453810Y-89469570D01*
X161439394Y-89453664D01*
X161426606Y-89436421D01*
X161415570Y-89418008D01*
X161406391Y-89398602D01*
X161399159Y-89378390D01*
X161393943Y-89357566D01*
X161390793Y-89336331D01*
X161389740Y-89314890D01*
X161389740Y-88877390D01*
X161390793Y-88855949D01*
X161393943Y-88834714D01*
X161399159Y-88813890D01*
X161406391Y-88793678D01*
X161415570Y-88774272D01*
X161426606Y-88755859D01*
X161439394Y-88738616D01*
X161453810Y-88722710D01*
X161469716Y-88708294D01*
X161486959Y-88695506D01*
X161505372Y-88684470D01*
X161524778Y-88675291D01*
X161544990Y-88668059D01*
X161565814Y-88662843D01*
X161587049Y-88659693D01*
X161608490Y-88658640D01*
X162120990Y-88658640D01*
X162142431Y-88659693D01*
X162142431Y-88659693D01*
G37*
D18*
X161864740Y-89096140D03*
D15*
G36*
X162142431Y-87084693D02*
G01*
X162163666Y-87087843D01*
X162184490Y-87093059D01*
X162204702Y-87100291D01*
X162224108Y-87109470D01*
X162242521Y-87120506D01*
X162259764Y-87133294D01*
X162275670Y-87147710D01*
X162290086Y-87163616D01*
X162302874Y-87180859D01*
X162313910Y-87199272D01*
X162323089Y-87218678D01*
X162330321Y-87238890D01*
X162335537Y-87259714D01*
X162338687Y-87280949D01*
X162339740Y-87302390D01*
X162339740Y-87739890D01*
X162338687Y-87761331D01*
X162335537Y-87782566D01*
X162330321Y-87803390D01*
X162323089Y-87823602D01*
X162313910Y-87843008D01*
X162302874Y-87861421D01*
X162290086Y-87878664D01*
X162275670Y-87894570D01*
X162259764Y-87908986D01*
X162242521Y-87921774D01*
X162224108Y-87932810D01*
X162204702Y-87941989D01*
X162184490Y-87949221D01*
X162163666Y-87954437D01*
X162142431Y-87957587D01*
X162120990Y-87958640D01*
X161608490Y-87958640D01*
X161587049Y-87957587D01*
X161565814Y-87954437D01*
X161544990Y-87949221D01*
X161524778Y-87941989D01*
X161505372Y-87932810D01*
X161486959Y-87921774D01*
X161469716Y-87908986D01*
X161453810Y-87894570D01*
X161439394Y-87878664D01*
X161426606Y-87861421D01*
X161415570Y-87843008D01*
X161406391Y-87823602D01*
X161399159Y-87803390D01*
X161393943Y-87782566D01*
X161390793Y-87761331D01*
X161389740Y-87739890D01*
X161389740Y-87302390D01*
X161390793Y-87280949D01*
X161393943Y-87259714D01*
X161399159Y-87238890D01*
X161406391Y-87218678D01*
X161415570Y-87199272D01*
X161426606Y-87180859D01*
X161439394Y-87163616D01*
X161453810Y-87147710D01*
X161469716Y-87133294D01*
X161486959Y-87120506D01*
X161505372Y-87109470D01*
X161524778Y-87100291D01*
X161544990Y-87093059D01*
X161565814Y-87087843D01*
X161587049Y-87084693D01*
X161608490Y-87083640D01*
X162120990Y-87083640D01*
X162142431Y-87084693D01*
X162142431Y-87084693D01*
G37*
D18*
X161864740Y-87521140D03*
D15*
G36*
X169277291Y-90615493D02*
G01*
X169298526Y-90618643D01*
X169319350Y-90623859D01*
X169339562Y-90631091D01*
X169358968Y-90640270D01*
X169377381Y-90651306D01*
X169394624Y-90664094D01*
X169410530Y-90678510D01*
X169424946Y-90694416D01*
X169437734Y-90711659D01*
X169448770Y-90730072D01*
X169457949Y-90749478D01*
X169465181Y-90769690D01*
X169470397Y-90790514D01*
X169473547Y-90811749D01*
X169474600Y-90833190D01*
X169474600Y-91270690D01*
X169473547Y-91292131D01*
X169470397Y-91313366D01*
X169465181Y-91334190D01*
X169457949Y-91354402D01*
X169448770Y-91373808D01*
X169437734Y-91392221D01*
X169424946Y-91409464D01*
X169410530Y-91425370D01*
X169394624Y-91439786D01*
X169377381Y-91452574D01*
X169358968Y-91463610D01*
X169339562Y-91472789D01*
X169319350Y-91480021D01*
X169298526Y-91485237D01*
X169277291Y-91488387D01*
X169255850Y-91489440D01*
X168743350Y-91489440D01*
X168721909Y-91488387D01*
X168700674Y-91485237D01*
X168679850Y-91480021D01*
X168659638Y-91472789D01*
X168640232Y-91463610D01*
X168621819Y-91452574D01*
X168604576Y-91439786D01*
X168588670Y-91425370D01*
X168574254Y-91409464D01*
X168561466Y-91392221D01*
X168550430Y-91373808D01*
X168541251Y-91354402D01*
X168534019Y-91334190D01*
X168528803Y-91313366D01*
X168525653Y-91292131D01*
X168524600Y-91270690D01*
X168524600Y-90833190D01*
X168525653Y-90811749D01*
X168528803Y-90790514D01*
X168534019Y-90769690D01*
X168541251Y-90749478D01*
X168550430Y-90730072D01*
X168561466Y-90711659D01*
X168574254Y-90694416D01*
X168588670Y-90678510D01*
X168604576Y-90664094D01*
X168621819Y-90651306D01*
X168640232Y-90640270D01*
X168659638Y-90631091D01*
X168679850Y-90623859D01*
X168700674Y-90618643D01*
X168721909Y-90615493D01*
X168743350Y-90614440D01*
X169255850Y-90614440D01*
X169277291Y-90615493D01*
X169277291Y-90615493D01*
G37*
D18*
X168999600Y-91051940D03*
D15*
G36*
X169277291Y-89040493D02*
G01*
X169298526Y-89043643D01*
X169319350Y-89048859D01*
X169339562Y-89056091D01*
X169358968Y-89065270D01*
X169377381Y-89076306D01*
X169394624Y-89089094D01*
X169410530Y-89103510D01*
X169424946Y-89119416D01*
X169437734Y-89136659D01*
X169448770Y-89155072D01*
X169457949Y-89174478D01*
X169465181Y-89194690D01*
X169470397Y-89215514D01*
X169473547Y-89236749D01*
X169474600Y-89258190D01*
X169474600Y-89695690D01*
X169473547Y-89717131D01*
X169470397Y-89738366D01*
X169465181Y-89759190D01*
X169457949Y-89779402D01*
X169448770Y-89798808D01*
X169437734Y-89817221D01*
X169424946Y-89834464D01*
X169410530Y-89850370D01*
X169394624Y-89864786D01*
X169377381Y-89877574D01*
X169358968Y-89888610D01*
X169339562Y-89897789D01*
X169319350Y-89905021D01*
X169298526Y-89910237D01*
X169277291Y-89913387D01*
X169255850Y-89914440D01*
X168743350Y-89914440D01*
X168721909Y-89913387D01*
X168700674Y-89910237D01*
X168679850Y-89905021D01*
X168659638Y-89897789D01*
X168640232Y-89888610D01*
X168621819Y-89877574D01*
X168604576Y-89864786D01*
X168588670Y-89850370D01*
X168574254Y-89834464D01*
X168561466Y-89817221D01*
X168550430Y-89798808D01*
X168541251Y-89779402D01*
X168534019Y-89759190D01*
X168528803Y-89738366D01*
X168525653Y-89717131D01*
X168524600Y-89695690D01*
X168524600Y-89258190D01*
X168525653Y-89236749D01*
X168528803Y-89215514D01*
X168534019Y-89194690D01*
X168541251Y-89174478D01*
X168550430Y-89155072D01*
X168561466Y-89136659D01*
X168574254Y-89119416D01*
X168588670Y-89103510D01*
X168604576Y-89089094D01*
X168621819Y-89076306D01*
X168640232Y-89065270D01*
X168659638Y-89056091D01*
X168679850Y-89048859D01*
X168700674Y-89043643D01*
X168721909Y-89040493D01*
X168743350Y-89039440D01*
X169255850Y-89039440D01*
X169277291Y-89040493D01*
X169277291Y-89040493D01*
G37*
D18*
X168999600Y-89476940D03*
D15*
G36*
X165162491Y-92357933D02*
G01*
X165183726Y-92361083D01*
X165204550Y-92366299D01*
X165224762Y-92373531D01*
X165244168Y-92382710D01*
X165262581Y-92393746D01*
X165279824Y-92406534D01*
X165295730Y-92420950D01*
X165310146Y-92436856D01*
X165322934Y-92454099D01*
X165333970Y-92472512D01*
X165343149Y-92491918D01*
X165350381Y-92512130D01*
X165355597Y-92532954D01*
X165358747Y-92554189D01*
X165359800Y-92575630D01*
X165359800Y-93013130D01*
X165358747Y-93034571D01*
X165355597Y-93055806D01*
X165350381Y-93076630D01*
X165343149Y-93096842D01*
X165333970Y-93116248D01*
X165322934Y-93134661D01*
X165310146Y-93151904D01*
X165295730Y-93167810D01*
X165279824Y-93182226D01*
X165262581Y-93195014D01*
X165244168Y-93206050D01*
X165224762Y-93215229D01*
X165204550Y-93222461D01*
X165183726Y-93227677D01*
X165162491Y-93230827D01*
X165141050Y-93231880D01*
X164628550Y-93231880D01*
X164607109Y-93230827D01*
X164585874Y-93227677D01*
X164565050Y-93222461D01*
X164544838Y-93215229D01*
X164525432Y-93206050D01*
X164507019Y-93195014D01*
X164489776Y-93182226D01*
X164473870Y-93167810D01*
X164459454Y-93151904D01*
X164446666Y-93134661D01*
X164435630Y-93116248D01*
X164426451Y-93096842D01*
X164419219Y-93076630D01*
X164414003Y-93055806D01*
X164410853Y-93034571D01*
X164409800Y-93013130D01*
X164409800Y-92575630D01*
X164410853Y-92554189D01*
X164414003Y-92532954D01*
X164419219Y-92512130D01*
X164426451Y-92491918D01*
X164435630Y-92472512D01*
X164446666Y-92454099D01*
X164459454Y-92436856D01*
X164473870Y-92420950D01*
X164489776Y-92406534D01*
X164507019Y-92393746D01*
X164525432Y-92382710D01*
X164544838Y-92373531D01*
X164565050Y-92366299D01*
X164585874Y-92361083D01*
X164607109Y-92357933D01*
X164628550Y-92356880D01*
X165141050Y-92356880D01*
X165162491Y-92357933D01*
X165162491Y-92357933D01*
G37*
D18*
X164884800Y-92794380D03*
D15*
G36*
X165162491Y-90782933D02*
G01*
X165183726Y-90786083D01*
X165204550Y-90791299D01*
X165224762Y-90798531D01*
X165244168Y-90807710D01*
X165262581Y-90818746D01*
X165279824Y-90831534D01*
X165295730Y-90845950D01*
X165310146Y-90861856D01*
X165322934Y-90879099D01*
X165333970Y-90897512D01*
X165343149Y-90916918D01*
X165350381Y-90937130D01*
X165355597Y-90957954D01*
X165358747Y-90979189D01*
X165359800Y-91000630D01*
X165359800Y-91438130D01*
X165358747Y-91459571D01*
X165355597Y-91480806D01*
X165350381Y-91501630D01*
X165343149Y-91521842D01*
X165333970Y-91541248D01*
X165322934Y-91559661D01*
X165310146Y-91576904D01*
X165295730Y-91592810D01*
X165279824Y-91607226D01*
X165262581Y-91620014D01*
X165244168Y-91631050D01*
X165224762Y-91640229D01*
X165204550Y-91647461D01*
X165183726Y-91652677D01*
X165162491Y-91655827D01*
X165141050Y-91656880D01*
X164628550Y-91656880D01*
X164607109Y-91655827D01*
X164585874Y-91652677D01*
X164565050Y-91647461D01*
X164544838Y-91640229D01*
X164525432Y-91631050D01*
X164507019Y-91620014D01*
X164489776Y-91607226D01*
X164473870Y-91592810D01*
X164459454Y-91576904D01*
X164446666Y-91559661D01*
X164435630Y-91541248D01*
X164426451Y-91521842D01*
X164419219Y-91501630D01*
X164414003Y-91480806D01*
X164410853Y-91459571D01*
X164409800Y-91438130D01*
X164409800Y-91000630D01*
X164410853Y-90979189D01*
X164414003Y-90957954D01*
X164419219Y-90937130D01*
X164426451Y-90916918D01*
X164435630Y-90897512D01*
X164446666Y-90879099D01*
X164459454Y-90861856D01*
X164473870Y-90845950D01*
X164489776Y-90831534D01*
X164507019Y-90818746D01*
X164525432Y-90807710D01*
X164544838Y-90798531D01*
X164565050Y-90791299D01*
X164585874Y-90786083D01*
X164607109Y-90782933D01*
X164628550Y-90781880D01*
X165141050Y-90781880D01*
X165162491Y-90782933D01*
X165162491Y-90782933D01*
G37*
D18*
X164884800Y-91219380D03*
D15*
G36*
X167113211Y-92330193D02*
G01*
X167134446Y-92333343D01*
X167155270Y-92338559D01*
X167175482Y-92345791D01*
X167194888Y-92354970D01*
X167213301Y-92366006D01*
X167230544Y-92378794D01*
X167246450Y-92393210D01*
X167260866Y-92409116D01*
X167273654Y-92426359D01*
X167284690Y-92444772D01*
X167293869Y-92464178D01*
X167301101Y-92484390D01*
X167306317Y-92505214D01*
X167309467Y-92526449D01*
X167310520Y-92547890D01*
X167310520Y-92985390D01*
X167309467Y-93006831D01*
X167306317Y-93028066D01*
X167301101Y-93048890D01*
X167293869Y-93069102D01*
X167284690Y-93088508D01*
X167273654Y-93106921D01*
X167260866Y-93124164D01*
X167246450Y-93140070D01*
X167230544Y-93154486D01*
X167213301Y-93167274D01*
X167194888Y-93178310D01*
X167175482Y-93187489D01*
X167155270Y-93194721D01*
X167134446Y-93199937D01*
X167113211Y-93203087D01*
X167091770Y-93204140D01*
X166579270Y-93204140D01*
X166557829Y-93203087D01*
X166536594Y-93199937D01*
X166515770Y-93194721D01*
X166495558Y-93187489D01*
X166476152Y-93178310D01*
X166457739Y-93167274D01*
X166440496Y-93154486D01*
X166424590Y-93140070D01*
X166410174Y-93124164D01*
X166397386Y-93106921D01*
X166386350Y-93088508D01*
X166377171Y-93069102D01*
X166369939Y-93048890D01*
X166364723Y-93028066D01*
X166361573Y-93006831D01*
X166360520Y-92985390D01*
X166360520Y-92547890D01*
X166361573Y-92526449D01*
X166364723Y-92505214D01*
X166369939Y-92484390D01*
X166377171Y-92464178D01*
X166386350Y-92444772D01*
X166397386Y-92426359D01*
X166410174Y-92409116D01*
X166424590Y-92393210D01*
X166440496Y-92378794D01*
X166457739Y-92366006D01*
X166476152Y-92354970D01*
X166495558Y-92345791D01*
X166515770Y-92338559D01*
X166536594Y-92333343D01*
X166557829Y-92330193D01*
X166579270Y-92329140D01*
X167091770Y-92329140D01*
X167113211Y-92330193D01*
X167113211Y-92330193D01*
G37*
D18*
X166835520Y-92766640D03*
D15*
G36*
X167113211Y-90755193D02*
G01*
X167134446Y-90758343D01*
X167155270Y-90763559D01*
X167175482Y-90770791D01*
X167194888Y-90779970D01*
X167213301Y-90791006D01*
X167230544Y-90803794D01*
X167246450Y-90818210D01*
X167260866Y-90834116D01*
X167273654Y-90851359D01*
X167284690Y-90869772D01*
X167293869Y-90889178D01*
X167301101Y-90909390D01*
X167306317Y-90930214D01*
X167309467Y-90951449D01*
X167310520Y-90972890D01*
X167310520Y-91410390D01*
X167309467Y-91431831D01*
X167306317Y-91453066D01*
X167301101Y-91473890D01*
X167293869Y-91494102D01*
X167284690Y-91513508D01*
X167273654Y-91531921D01*
X167260866Y-91549164D01*
X167246450Y-91565070D01*
X167230544Y-91579486D01*
X167213301Y-91592274D01*
X167194888Y-91603310D01*
X167175482Y-91612489D01*
X167155270Y-91619721D01*
X167134446Y-91624937D01*
X167113211Y-91628087D01*
X167091770Y-91629140D01*
X166579270Y-91629140D01*
X166557829Y-91628087D01*
X166536594Y-91624937D01*
X166515770Y-91619721D01*
X166495558Y-91612489D01*
X166476152Y-91603310D01*
X166457739Y-91592274D01*
X166440496Y-91579486D01*
X166424590Y-91565070D01*
X166410174Y-91549164D01*
X166397386Y-91531921D01*
X166386350Y-91513508D01*
X166377171Y-91494102D01*
X166369939Y-91473890D01*
X166364723Y-91453066D01*
X166361573Y-91431831D01*
X166360520Y-91410390D01*
X166360520Y-90972890D01*
X166361573Y-90951449D01*
X166364723Y-90930214D01*
X166369939Y-90909390D01*
X166377171Y-90889178D01*
X166386350Y-90869772D01*
X166397386Y-90851359D01*
X166410174Y-90834116D01*
X166424590Y-90818210D01*
X166440496Y-90803794D01*
X166457739Y-90791006D01*
X166476152Y-90779970D01*
X166495558Y-90770791D01*
X166515770Y-90763559D01*
X166536594Y-90758343D01*
X166557829Y-90755193D01*
X166579270Y-90754140D01*
X167091770Y-90754140D01*
X167113211Y-90755193D01*
X167113211Y-90755193D01*
G37*
D18*
X166835520Y-91191640D03*
D15*
G36*
X160041851Y-88647193D02*
G01*
X160063086Y-88650343D01*
X160083910Y-88655559D01*
X160104122Y-88662791D01*
X160123528Y-88671970D01*
X160141941Y-88683006D01*
X160159184Y-88695794D01*
X160175090Y-88710210D01*
X160189506Y-88726116D01*
X160202294Y-88743359D01*
X160213330Y-88761772D01*
X160222509Y-88781178D01*
X160229741Y-88801390D01*
X160234957Y-88822214D01*
X160238107Y-88843449D01*
X160239160Y-88864890D01*
X160239160Y-89302390D01*
X160238107Y-89323831D01*
X160234957Y-89345066D01*
X160229741Y-89365890D01*
X160222509Y-89386102D01*
X160213330Y-89405508D01*
X160202294Y-89423921D01*
X160189506Y-89441164D01*
X160175090Y-89457070D01*
X160159184Y-89471486D01*
X160141941Y-89484274D01*
X160123528Y-89495310D01*
X160104122Y-89504489D01*
X160083910Y-89511721D01*
X160063086Y-89516937D01*
X160041851Y-89520087D01*
X160020410Y-89521140D01*
X159507910Y-89521140D01*
X159486469Y-89520087D01*
X159465234Y-89516937D01*
X159444410Y-89511721D01*
X159424198Y-89504489D01*
X159404792Y-89495310D01*
X159386379Y-89484274D01*
X159369136Y-89471486D01*
X159353230Y-89457070D01*
X159338814Y-89441164D01*
X159326026Y-89423921D01*
X159314990Y-89405508D01*
X159305811Y-89386102D01*
X159298579Y-89365890D01*
X159293363Y-89345066D01*
X159290213Y-89323831D01*
X159289160Y-89302390D01*
X159289160Y-88864890D01*
X159290213Y-88843449D01*
X159293363Y-88822214D01*
X159298579Y-88801390D01*
X159305811Y-88781178D01*
X159314990Y-88761772D01*
X159326026Y-88743359D01*
X159338814Y-88726116D01*
X159353230Y-88710210D01*
X159369136Y-88695794D01*
X159386379Y-88683006D01*
X159404792Y-88671970D01*
X159424198Y-88662791D01*
X159444410Y-88655559D01*
X159465234Y-88650343D01*
X159486469Y-88647193D01*
X159507910Y-88646140D01*
X160020410Y-88646140D01*
X160041851Y-88647193D01*
X160041851Y-88647193D01*
G37*
D18*
X159764160Y-89083640D03*
D15*
G36*
X160041851Y-87072193D02*
G01*
X160063086Y-87075343D01*
X160083910Y-87080559D01*
X160104122Y-87087791D01*
X160123528Y-87096970D01*
X160141941Y-87108006D01*
X160159184Y-87120794D01*
X160175090Y-87135210D01*
X160189506Y-87151116D01*
X160202294Y-87168359D01*
X160213330Y-87186772D01*
X160222509Y-87206178D01*
X160229741Y-87226390D01*
X160234957Y-87247214D01*
X160238107Y-87268449D01*
X160239160Y-87289890D01*
X160239160Y-87727390D01*
X160238107Y-87748831D01*
X160234957Y-87770066D01*
X160229741Y-87790890D01*
X160222509Y-87811102D01*
X160213330Y-87830508D01*
X160202294Y-87848921D01*
X160189506Y-87866164D01*
X160175090Y-87882070D01*
X160159184Y-87896486D01*
X160141941Y-87909274D01*
X160123528Y-87920310D01*
X160104122Y-87929489D01*
X160083910Y-87936721D01*
X160063086Y-87941937D01*
X160041851Y-87945087D01*
X160020410Y-87946140D01*
X159507910Y-87946140D01*
X159486469Y-87945087D01*
X159465234Y-87941937D01*
X159444410Y-87936721D01*
X159424198Y-87929489D01*
X159404792Y-87920310D01*
X159386379Y-87909274D01*
X159369136Y-87896486D01*
X159353230Y-87882070D01*
X159338814Y-87866164D01*
X159326026Y-87848921D01*
X159314990Y-87830508D01*
X159305811Y-87811102D01*
X159298579Y-87790890D01*
X159293363Y-87770066D01*
X159290213Y-87748831D01*
X159289160Y-87727390D01*
X159289160Y-87289890D01*
X159290213Y-87268449D01*
X159293363Y-87247214D01*
X159298579Y-87226390D01*
X159305811Y-87206178D01*
X159314990Y-87186772D01*
X159326026Y-87168359D01*
X159338814Y-87151116D01*
X159353230Y-87135210D01*
X159369136Y-87120794D01*
X159386379Y-87108006D01*
X159404792Y-87096970D01*
X159424198Y-87087791D01*
X159444410Y-87080559D01*
X159465234Y-87075343D01*
X159486469Y-87072193D01*
X159507910Y-87071140D01*
X160020410Y-87071140D01*
X160041851Y-87072193D01*
X160041851Y-87072193D01*
G37*
D18*
X159764160Y-87508640D03*
D15*
G36*
X157936191Y-88662433D02*
G01*
X157957426Y-88665583D01*
X157978250Y-88670799D01*
X157998462Y-88678031D01*
X158017868Y-88687210D01*
X158036281Y-88698246D01*
X158053524Y-88711034D01*
X158069430Y-88725450D01*
X158083846Y-88741356D01*
X158096634Y-88758599D01*
X158107670Y-88777012D01*
X158116849Y-88796418D01*
X158124081Y-88816630D01*
X158129297Y-88837454D01*
X158132447Y-88858689D01*
X158133500Y-88880130D01*
X158133500Y-89317630D01*
X158132447Y-89339071D01*
X158129297Y-89360306D01*
X158124081Y-89381130D01*
X158116849Y-89401342D01*
X158107670Y-89420748D01*
X158096634Y-89439161D01*
X158083846Y-89456404D01*
X158069430Y-89472310D01*
X158053524Y-89486726D01*
X158036281Y-89499514D01*
X158017868Y-89510550D01*
X157998462Y-89519729D01*
X157978250Y-89526961D01*
X157957426Y-89532177D01*
X157936191Y-89535327D01*
X157914750Y-89536380D01*
X157402250Y-89536380D01*
X157380809Y-89535327D01*
X157359574Y-89532177D01*
X157338750Y-89526961D01*
X157318538Y-89519729D01*
X157299132Y-89510550D01*
X157280719Y-89499514D01*
X157263476Y-89486726D01*
X157247570Y-89472310D01*
X157233154Y-89456404D01*
X157220366Y-89439161D01*
X157209330Y-89420748D01*
X157200151Y-89401342D01*
X157192919Y-89381130D01*
X157187703Y-89360306D01*
X157184553Y-89339071D01*
X157183500Y-89317630D01*
X157183500Y-88880130D01*
X157184553Y-88858689D01*
X157187703Y-88837454D01*
X157192919Y-88816630D01*
X157200151Y-88796418D01*
X157209330Y-88777012D01*
X157220366Y-88758599D01*
X157233154Y-88741356D01*
X157247570Y-88725450D01*
X157263476Y-88711034D01*
X157280719Y-88698246D01*
X157299132Y-88687210D01*
X157318538Y-88678031D01*
X157338750Y-88670799D01*
X157359574Y-88665583D01*
X157380809Y-88662433D01*
X157402250Y-88661380D01*
X157914750Y-88661380D01*
X157936191Y-88662433D01*
X157936191Y-88662433D01*
G37*
D18*
X157658500Y-89098880D03*
D15*
G36*
X157936191Y-87087433D02*
G01*
X157957426Y-87090583D01*
X157978250Y-87095799D01*
X157998462Y-87103031D01*
X158017868Y-87112210D01*
X158036281Y-87123246D01*
X158053524Y-87136034D01*
X158069430Y-87150450D01*
X158083846Y-87166356D01*
X158096634Y-87183599D01*
X158107670Y-87202012D01*
X158116849Y-87221418D01*
X158124081Y-87241630D01*
X158129297Y-87262454D01*
X158132447Y-87283689D01*
X158133500Y-87305130D01*
X158133500Y-87742630D01*
X158132447Y-87764071D01*
X158129297Y-87785306D01*
X158124081Y-87806130D01*
X158116849Y-87826342D01*
X158107670Y-87845748D01*
X158096634Y-87864161D01*
X158083846Y-87881404D01*
X158069430Y-87897310D01*
X158053524Y-87911726D01*
X158036281Y-87924514D01*
X158017868Y-87935550D01*
X157998462Y-87944729D01*
X157978250Y-87951961D01*
X157957426Y-87957177D01*
X157936191Y-87960327D01*
X157914750Y-87961380D01*
X157402250Y-87961380D01*
X157380809Y-87960327D01*
X157359574Y-87957177D01*
X157338750Y-87951961D01*
X157318538Y-87944729D01*
X157299132Y-87935550D01*
X157280719Y-87924514D01*
X157263476Y-87911726D01*
X157247570Y-87897310D01*
X157233154Y-87881404D01*
X157220366Y-87864161D01*
X157209330Y-87845748D01*
X157200151Y-87826342D01*
X157192919Y-87806130D01*
X157187703Y-87785306D01*
X157184553Y-87764071D01*
X157183500Y-87742630D01*
X157183500Y-87305130D01*
X157184553Y-87283689D01*
X157187703Y-87262454D01*
X157192919Y-87241630D01*
X157200151Y-87221418D01*
X157209330Y-87202012D01*
X157220366Y-87183599D01*
X157233154Y-87166356D01*
X157247570Y-87150450D01*
X157263476Y-87136034D01*
X157280719Y-87123246D01*
X157299132Y-87112210D01*
X157318538Y-87103031D01*
X157338750Y-87095799D01*
X157359574Y-87090583D01*
X157380809Y-87087433D01*
X157402250Y-87086380D01*
X157914750Y-87086380D01*
X157936191Y-87087433D01*
X157936191Y-87087433D01*
G37*
D18*
X157658500Y-87523880D03*
D19*
X197020180Y-79839820D03*
X197020180Y-77299820D03*
X197020180Y-116919820D03*
X148760180Y-77299820D03*
X197020180Y-114379820D03*
X148760180Y-79839820D03*
X197020180Y-111839820D03*
X148760180Y-82379820D03*
X197020180Y-109299820D03*
X148760180Y-84919820D03*
X197020180Y-106759820D03*
X148760180Y-87459820D03*
X197020180Y-104219820D03*
X148760180Y-89999820D03*
X197020180Y-101679820D03*
X148760180Y-95079820D03*
X197020180Y-99139820D03*
X148760180Y-97619820D03*
X197020180Y-95079820D03*
X148760180Y-100159820D03*
X197020180Y-92539820D03*
X148760180Y-102699820D03*
X197020180Y-89999820D03*
X148760180Y-105239820D03*
X197020180Y-87459820D03*
X148760180Y-107779820D03*
X197020180Y-84919820D03*
X148760180Y-110319820D03*
X197020180Y-82379820D03*
D20*
X148760180Y-112859820D03*
D19*
X197020180Y-119459820D03*
X197020180Y-121999820D03*
D21*
X163800000Y-86000000D03*
D22*
X188200000Y-98800000D03*
X177400000Y-89200000D03*
D21*
X162878200Y-91194180D03*
D22*
X184600000Y-89400000D03*
D21*
X181400000Y-93600000D03*
X180400000Y-93600000D03*
D23*
X180250000Y-100150000D02*
X182200000Y-98200000D01*
X180250000Y-101050000D02*
X180250000Y-100150000D01*
X165653480Y-87907000D02*
X165328480Y-88232000D01*
X166778480Y-87907000D02*
X165653480Y-87907000D01*
X165003480Y-88557000D02*
X165328480Y-88232000D01*
X163878480Y-88557000D02*
X165003480Y-88557000D01*
D24*
X159776660Y-87521140D02*
X159764160Y-87508640D01*
X161864740Y-87521140D02*
X159776660Y-87521140D01*
X157673740Y-87508640D02*
X157658500Y-87523880D01*
X159764160Y-87508640D02*
X157673740Y-87508640D01*
D23*
X162128880Y-87257000D02*
X161864740Y-87521140D01*
X163878480Y-87257000D02*
X162128880Y-87257000D01*
X163878480Y-86078480D02*
X163800000Y-86000000D01*
X163878480Y-87257000D02*
X163878480Y-86078480D01*
D24*
X168986900Y-89464240D02*
X168999600Y-89476940D01*
D23*
X168999600Y-88939440D02*
X168999600Y-89476940D01*
X167317160Y-87257000D02*
X168999600Y-88939440D01*
X166778480Y-87257000D02*
X167317160Y-87257000D01*
X161975600Y-89207000D02*
X161864740Y-89096140D01*
X163878480Y-89207000D02*
X161975600Y-89207000D01*
D24*
X191223660Y-85636340D02*
X197020180Y-79839820D01*
X184060000Y-92800000D02*
X191223660Y-85636340D01*
D23*
X182850000Y-94010000D02*
X184530000Y-92330000D01*
X182850000Y-95350000D02*
X182850000Y-94010000D01*
X179350000Y-96900000D02*
X177700000Y-96900000D01*
X177700000Y-96900000D02*
X176600000Y-95800000D01*
X176600000Y-95800000D02*
X176600000Y-94200000D01*
D24*
X193500180Y-77299820D02*
X197020180Y-77299820D01*
X176600000Y-94200000D02*
X193500180Y-77299820D01*
X164859600Y-91194180D02*
X164884800Y-91219380D01*
X162878200Y-91194180D02*
X164859600Y-91194180D01*
X166807780Y-91219380D02*
X166835520Y-91191640D01*
X164884800Y-91219380D02*
X166807780Y-91219380D01*
X168859900Y-91191640D02*
X168999600Y-91051940D01*
X166835520Y-91191640D02*
X168859900Y-91191640D01*
D23*
X166778480Y-91134600D02*
X166835520Y-91191640D01*
X166778480Y-89207000D02*
X166778480Y-91134600D01*
X188150000Y-98850000D02*
X188200000Y-98800000D01*
X185050000Y-98850000D02*
X188150000Y-98850000D01*
X182200000Y-91800000D02*
X184600000Y-89400000D01*
X182200000Y-95350000D02*
X182200000Y-91800000D01*
X181600000Y-95300000D02*
X181550000Y-95350000D01*
X181400000Y-93600000D02*
X181600000Y-93800000D01*
X181600000Y-93800000D02*
X181600000Y-95300000D01*
X180900000Y-94665685D02*
X180900000Y-95350000D01*
X180400000Y-94165685D02*
X180900000Y-94665685D01*
X180400000Y-93600000D02*
X180400000Y-94165685D01*
D25*
G36*
X199315000Y-144315000D02*
G01*
X145685000Y-144315000D01*
X145685000Y-142158699D01*
X159070906Y-142158699D01*
X159339572Y-142570267D01*
X159873872Y-142854567D01*
X160453369Y-143029168D01*
X161055795Y-143087360D01*
X161657998Y-143026907D01*
X162236836Y-142850132D01*
X162760428Y-142570267D01*
X163029094Y-142158699D01*
X182570906Y-142158699D01*
X182839572Y-142570267D01*
X183373872Y-142854567D01*
X183953369Y-143029168D01*
X184555795Y-143087360D01*
X185157998Y-143026907D01*
X185736836Y-142850132D01*
X186260428Y-142570267D01*
X186529094Y-142158699D01*
X184550000Y-140179605D01*
X182570906Y-142158699D01*
X163029094Y-142158699D01*
X161050000Y-140179605D01*
X159070906Y-142158699D01*
X145685000Y-142158699D01*
X145685000Y-140005795D01*
X157962640Y-140005795D01*
X158023093Y-140607998D01*
X158199868Y-141186836D01*
X158479733Y-141710428D01*
X158891301Y-141979094D01*
X160870395Y-140000000D01*
X161229605Y-140000000D01*
X163208699Y-141979094D01*
X163620267Y-141710428D01*
X163904567Y-141176128D01*
X164079168Y-140596631D01*
X164137360Y-139994205D01*
X164076907Y-139392002D01*
X163900132Y-138813164D01*
X163620267Y-138289572D01*
X163208699Y-138020906D01*
X161229605Y-140000000D01*
X160870395Y-140000000D01*
X158891301Y-138020906D01*
X158479733Y-138289572D01*
X158195433Y-138823872D01*
X158020832Y-139403369D01*
X157962640Y-140005795D01*
X145685000Y-140005795D01*
X145685000Y-137841301D01*
X159070906Y-137841301D01*
X161050000Y-139820395D01*
X163029094Y-137841301D01*
X162760428Y-137429733D01*
X162226128Y-137145433D01*
X161646631Y-136970832D01*
X161044205Y-136912640D01*
X160442002Y-136973093D01*
X159863164Y-137149868D01*
X159339572Y-137429733D01*
X159070906Y-137841301D01*
X145685000Y-137841301D01*
X145685000Y-135348816D01*
X165015000Y-135348816D01*
X165015000Y-135651184D01*
X165073989Y-135947743D01*
X165189701Y-136227095D01*
X165357688Y-136478505D01*
X165571495Y-136692312D01*
X165822905Y-136860299D01*
X166102257Y-136976011D01*
X166222858Y-137000000D01*
X166102257Y-137023989D01*
X165822905Y-137139701D01*
X165571495Y-137307688D01*
X165357688Y-137521495D01*
X165189701Y-137772905D01*
X165073989Y-138052257D01*
X165015000Y-138348816D01*
X165015000Y-138651184D01*
X165073989Y-138947743D01*
X165189701Y-139227095D01*
X165357688Y-139478505D01*
X165571495Y-139692312D01*
X165822905Y-139860299D01*
X166102257Y-139976011D01*
X166398816Y-140035000D01*
X166701184Y-140035000D01*
X166997743Y-139976011D01*
X167277095Y-139860299D01*
X167528505Y-139692312D01*
X167656737Y-139564080D01*
X168165525Y-139564080D01*
X168249208Y-139818261D01*
X168521775Y-139949158D01*
X168814642Y-140024365D01*
X169116553Y-140040991D01*
X169415907Y-139998397D01*
X169701199Y-139898222D01*
X169850792Y-139818261D01*
X169934475Y-139564080D01*
X170665525Y-139564080D01*
X170749208Y-139818261D01*
X171021775Y-139949158D01*
X171314642Y-140024365D01*
X171616553Y-140040991D01*
X171915907Y-139998397D01*
X172201199Y-139898222D01*
X172350792Y-139818261D01*
X172434475Y-139564080D01*
X173165525Y-139564080D01*
X173249208Y-139818261D01*
X173521775Y-139949158D01*
X173814642Y-140024365D01*
X174116553Y-140040991D01*
X174415907Y-139998397D01*
X174701199Y-139898222D01*
X174850792Y-139818261D01*
X174934475Y-139564080D01*
X175665525Y-139564080D01*
X175749208Y-139818261D01*
X176021775Y-139949158D01*
X176314642Y-140024365D01*
X176616553Y-140040991D01*
X176915907Y-139998397D01*
X177201199Y-139898222D01*
X177350792Y-139818261D01*
X177434475Y-139564080D01*
X176550000Y-138679605D01*
X175665525Y-139564080D01*
X174934475Y-139564080D01*
X174050000Y-138679605D01*
X173165525Y-139564080D01*
X172434475Y-139564080D01*
X171550000Y-138679605D01*
X170665525Y-139564080D01*
X169934475Y-139564080D01*
X169050000Y-138679605D01*
X168165525Y-139564080D01*
X167656737Y-139564080D01*
X167742312Y-139478505D01*
X167837738Y-139335690D01*
X167985920Y-139384475D01*
X168870395Y-138500000D01*
X169229605Y-138500000D01*
X170114080Y-139384475D01*
X170300000Y-139323265D01*
X170485920Y-139384475D01*
X171370395Y-138500000D01*
X171729605Y-138500000D01*
X172614080Y-139384475D01*
X172800000Y-139323265D01*
X172985920Y-139384475D01*
X173870395Y-138500000D01*
X174229605Y-138500000D01*
X175114080Y-139384475D01*
X175300000Y-139323265D01*
X175485920Y-139384475D01*
X176370395Y-138500000D01*
X175485920Y-137615525D01*
X175300000Y-137676735D01*
X175114080Y-137615525D01*
X174229605Y-138500000D01*
X173870395Y-138500000D01*
X172985920Y-137615525D01*
X172800000Y-137676735D01*
X172614080Y-137615525D01*
X171729605Y-138500000D01*
X171370395Y-138500000D01*
X170485920Y-137615525D01*
X170300000Y-137676735D01*
X170114080Y-137615525D01*
X169229605Y-138500000D01*
X168870395Y-138500000D01*
X167985920Y-137615525D01*
X167837738Y-137664310D01*
X167742312Y-137521495D01*
X167528505Y-137307688D01*
X167277095Y-137139701D01*
X166997743Y-137023989D01*
X166877142Y-137000000D01*
X166997743Y-136976011D01*
X167277095Y-136860299D01*
X167528505Y-136692312D01*
X167742312Y-136478505D01*
X167800000Y-136392169D01*
X167857688Y-136478505D01*
X168071495Y-136692312D01*
X168322905Y-136860299D01*
X168602257Y-136976011D01*
X168711391Y-136997719D01*
X168684093Y-137001603D01*
X168398801Y-137101778D01*
X168249208Y-137181739D01*
X168165525Y-137435920D01*
X169050000Y-138320395D01*
X169934475Y-137435920D01*
X169850792Y-137181739D01*
X169578225Y-137050842D01*
X169378887Y-136999653D01*
X169497743Y-136976011D01*
X169777095Y-136860299D01*
X170028505Y-136692312D01*
X170242312Y-136478505D01*
X170300000Y-136392169D01*
X170357688Y-136478505D01*
X170571495Y-136692312D01*
X170822905Y-136860299D01*
X171102257Y-136976011D01*
X171211391Y-136997719D01*
X171184093Y-137001603D01*
X170898801Y-137101778D01*
X170749208Y-137181739D01*
X170665525Y-137435920D01*
X171550000Y-138320395D01*
X172434475Y-137435920D01*
X172350792Y-137181739D01*
X172078225Y-137050842D01*
X171878887Y-136999653D01*
X171997743Y-136976011D01*
X172277095Y-136860299D01*
X172528505Y-136692312D01*
X172742312Y-136478505D01*
X172800000Y-136392169D01*
X172857688Y-136478505D01*
X173071495Y-136692312D01*
X173322905Y-136860299D01*
X173602257Y-136976011D01*
X173711391Y-136997719D01*
X173684093Y-137001603D01*
X173398801Y-137101778D01*
X173249208Y-137181739D01*
X173165525Y-137435920D01*
X174050000Y-138320395D01*
X174934475Y-137435920D01*
X174850792Y-137181739D01*
X174578225Y-137050842D01*
X174378887Y-136999653D01*
X174497743Y-136976011D01*
X174777095Y-136860299D01*
X175028505Y-136692312D01*
X175242312Y-136478505D01*
X175300000Y-136392169D01*
X175357688Y-136478505D01*
X175571495Y-136692312D01*
X175822905Y-136860299D01*
X176102257Y-136976011D01*
X176211391Y-136997719D01*
X176184093Y-137001603D01*
X175898801Y-137101778D01*
X175749208Y-137181739D01*
X175665525Y-137435920D01*
X176550000Y-138320395D01*
X177434475Y-137435920D01*
X177350792Y-137181739D01*
X177078225Y-137050842D01*
X176878887Y-136999653D01*
X176997743Y-136976011D01*
X177277095Y-136860299D01*
X177528505Y-136692312D01*
X177742312Y-136478505D01*
X177800000Y-136392169D01*
X177857688Y-136478505D01*
X178071495Y-136692312D01*
X178322905Y-136860299D01*
X178602257Y-136976011D01*
X178722858Y-137000000D01*
X178602257Y-137023989D01*
X178322905Y-137139701D01*
X178071495Y-137307688D01*
X177857688Y-137521495D01*
X177762262Y-137664310D01*
X177614080Y-137615525D01*
X176729605Y-138500000D01*
X177614080Y-139384475D01*
X177762262Y-139335690D01*
X177857688Y-139478505D01*
X178071495Y-139692312D01*
X178322905Y-139860299D01*
X178602257Y-139976011D01*
X178898816Y-140035000D01*
X179201184Y-140035000D01*
X179348008Y-140005795D01*
X181462640Y-140005795D01*
X181523093Y-140607998D01*
X181699868Y-141186836D01*
X181979733Y-141710428D01*
X182391301Y-141979094D01*
X184370395Y-140000000D01*
X184729605Y-140000000D01*
X186708699Y-141979094D01*
X187120267Y-141710428D01*
X187404567Y-141176128D01*
X187579168Y-140596631D01*
X187637360Y-139994205D01*
X187576907Y-139392002D01*
X187400132Y-138813164D01*
X187120267Y-138289572D01*
X186708699Y-138020906D01*
X184729605Y-140000000D01*
X184370395Y-140000000D01*
X182391301Y-138020906D01*
X181979733Y-138289572D01*
X181695433Y-138823872D01*
X181520832Y-139403369D01*
X181462640Y-140005795D01*
X179348008Y-140005795D01*
X179497743Y-139976011D01*
X179777095Y-139860299D01*
X180028505Y-139692312D01*
X180242312Y-139478505D01*
X180410299Y-139227095D01*
X180526011Y-138947743D01*
X180585000Y-138651184D01*
X180585000Y-138348816D01*
X180526011Y-138052257D01*
X180438630Y-137841301D01*
X182570906Y-137841301D01*
X184550000Y-139820395D01*
X186529094Y-137841301D01*
X186260428Y-137429733D01*
X185726128Y-137145433D01*
X185146631Y-136970832D01*
X184544205Y-136912640D01*
X183942002Y-136973093D01*
X183363164Y-137149868D01*
X182839572Y-137429733D01*
X182570906Y-137841301D01*
X180438630Y-137841301D01*
X180410299Y-137772905D01*
X180242312Y-137521495D01*
X180028505Y-137307688D01*
X179777095Y-137139701D01*
X179497743Y-137023989D01*
X179377142Y-137000000D01*
X179497743Y-136976011D01*
X179777095Y-136860299D01*
X180028505Y-136692312D01*
X180242312Y-136478505D01*
X180410299Y-136227095D01*
X180526011Y-135947743D01*
X180585000Y-135651184D01*
X180585000Y-135348816D01*
X180526011Y-135052257D01*
X180410299Y-134772905D01*
X180242312Y-134521495D01*
X180028505Y-134307688D01*
X179777095Y-134139701D01*
X179497743Y-134023989D01*
X179201184Y-133965000D01*
X178898816Y-133965000D01*
X178602257Y-134023989D01*
X178322905Y-134139701D01*
X178071495Y-134307688D01*
X177857688Y-134521495D01*
X177800000Y-134607831D01*
X177742312Y-134521495D01*
X177528505Y-134307688D01*
X177277095Y-134139701D01*
X176997743Y-134023989D01*
X176701184Y-133965000D01*
X176398816Y-133965000D01*
X176102257Y-134023989D01*
X175822905Y-134139701D01*
X175571495Y-134307688D01*
X175357688Y-134521495D01*
X175300000Y-134607831D01*
X175242312Y-134521495D01*
X175028505Y-134307688D01*
X174777095Y-134139701D01*
X174497743Y-134023989D01*
X174201184Y-133965000D01*
X173898816Y-133965000D01*
X173602257Y-134023989D01*
X173322905Y-134139701D01*
X173071495Y-134307688D01*
X172857688Y-134521495D01*
X172800000Y-134607831D01*
X172742312Y-134521495D01*
X172528505Y-134307688D01*
X172277095Y-134139701D01*
X171997743Y-134023989D01*
X171701184Y-133965000D01*
X171398816Y-133965000D01*
X171102257Y-134023989D01*
X170822905Y-134139701D01*
X170571495Y-134307688D01*
X170357688Y-134521495D01*
X170300000Y-134607831D01*
X170242312Y-134521495D01*
X170028505Y-134307688D01*
X169777095Y-134139701D01*
X169497743Y-134023989D01*
X169201184Y-133965000D01*
X168898816Y-133965000D01*
X168602257Y-134023989D01*
X168322905Y-134139701D01*
X168071495Y-134307688D01*
X167857688Y-134521495D01*
X167800000Y-134607831D01*
X167742312Y-134521495D01*
X167528505Y-134307688D01*
X167277095Y-134139701D01*
X166997743Y-134023989D01*
X166701184Y-133965000D01*
X166398816Y-133965000D01*
X166102257Y-134023989D01*
X165822905Y-134139701D01*
X165571495Y-134307688D01*
X165357688Y-134521495D01*
X165189701Y-134772905D01*
X165073989Y-135052257D01*
X165015000Y-135348816D01*
X145685000Y-135348816D01*
X145685000Y-126609692D01*
X146525180Y-126609692D01*
X146525180Y-127049948D01*
X146611070Y-127481745D01*
X146779549Y-127888489D01*
X147024142Y-128254549D01*
X147335451Y-128565858D01*
X147701511Y-128810451D01*
X148108255Y-128978930D01*
X148540052Y-129064820D01*
X148980308Y-129064820D01*
X149412105Y-128978930D01*
X149818849Y-128810451D01*
X150184909Y-128565858D01*
X150496218Y-128254549D01*
X150740811Y-127888489D01*
X150909290Y-127481745D01*
X150995180Y-127049948D01*
X150995180Y-126609692D01*
X150909290Y-126177895D01*
X150740811Y-125771151D01*
X150496218Y-125405091D01*
X150430819Y-125339692D01*
X194785180Y-125339692D01*
X194785180Y-125779948D01*
X194871070Y-126211745D01*
X195039549Y-126618489D01*
X195284142Y-126984549D01*
X195595451Y-127295858D01*
X195961511Y-127540451D01*
X196368255Y-127708930D01*
X196800052Y-127794820D01*
X197240308Y-127794820D01*
X197672105Y-127708930D01*
X198078849Y-127540451D01*
X198444909Y-127295858D01*
X198756218Y-126984549D01*
X199000811Y-126618489D01*
X199169290Y-126211745D01*
X199255180Y-125779948D01*
X199255180Y-125339692D01*
X199169290Y-124907895D01*
X199000811Y-124501151D01*
X198756218Y-124135091D01*
X198444909Y-123823782D01*
X198078849Y-123579189D01*
X197672105Y-123410710D01*
X197454929Y-123367511D01*
X197571988Y-123332002D01*
X197821281Y-123198752D01*
X198039788Y-123019428D01*
X198219112Y-122800921D01*
X198352362Y-122551628D01*
X198434416Y-122281129D01*
X198462123Y-121999820D01*
X198434416Y-121718511D01*
X198352362Y-121448012D01*
X198219112Y-121198719D01*
X198039788Y-120980212D01*
X197821281Y-120800888D01*
X197688322Y-120729820D01*
X197821281Y-120658752D01*
X198039788Y-120479428D01*
X198219112Y-120260921D01*
X198352362Y-120011628D01*
X198434416Y-119741129D01*
X198462123Y-119459820D01*
X198434416Y-119178511D01*
X198352362Y-118908012D01*
X198219112Y-118658719D01*
X198039788Y-118440212D01*
X197821281Y-118260888D01*
X197688322Y-118189820D01*
X197821281Y-118118752D01*
X198039788Y-117939428D01*
X198219112Y-117720921D01*
X198352362Y-117471628D01*
X198434416Y-117201129D01*
X198462123Y-116919820D01*
X198434416Y-116638511D01*
X198352362Y-116368012D01*
X198219112Y-116118719D01*
X198039788Y-115900212D01*
X197821281Y-115720888D01*
X197683498Y-115647241D01*
X197875311Y-115532205D01*
X198083699Y-115343234D01*
X198251217Y-115117240D01*
X198371426Y-114862907D01*
X198412084Y-114728859D01*
X198290095Y-114506820D01*
X197147180Y-114506820D01*
X197147180Y-114526820D01*
X196893180Y-114526820D01*
X196893180Y-114506820D01*
X195750265Y-114506820D01*
X195628276Y-114728859D01*
X195668934Y-114862907D01*
X195789143Y-115117240D01*
X195956661Y-115343234D01*
X196165049Y-115532205D01*
X196356862Y-115647241D01*
X196219079Y-115720888D01*
X196000572Y-115900212D01*
X195821248Y-116118719D01*
X195687998Y-116368012D01*
X195605944Y-116638511D01*
X195578237Y-116919820D01*
X195605944Y-117201129D01*
X195687998Y-117471628D01*
X195821248Y-117720921D01*
X196000572Y-117939428D01*
X196219079Y-118118752D01*
X196352038Y-118189820D01*
X196219079Y-118260888D01*
X196000572Y-118440212D01*
X195821248Y-118658719D01*
X195687998Y-118908012D01*
X195605944Y-119178511D01*
X195578237Y-119459820D01*
X195605944Y-119741129D01*
X195687998Y-120011628D01*
X195821248Y-120260921D01*
X196000572Y-120479428D01*
X196219079Y-120658752D01*
X196352038Y-120729820D01*
X196219079Y-120800888D01*
X196000572Y-120980212D01*
X195821248Y-121198719D01*
X195687998Y-121448012D01*
X195605944Y-121718511D01*
X195578237Y-121999820D01*
X195605944Y-122281129D01*
X195687998Y-122551628D01*
X195821248Y-122800921D01*
X196000572Y-123019428D01*
X196219079Y-123198752D01*
X196468372Y-123332002D01*
X196585431Y-123367511D01*
X196368255Y-123410710D01*
X195961511Y-123579189D01*
X195595451Y-123823782D01*
X195284142Y-124135091D01*
X195039549Y-124501151D01*
X194871070Y-124907895D01*
X194785180Y-125339692D01*
X150430819Y-125339692D01*
X150184909Y-125093782D01*
X149818849Y-124849189D01*
X149412105Y-124680710D01*
X148980308Y-124594820D01*
X148540052Y-124594820D01*
X148108255Y-124680710D01*
X147701511Y-124849189D01*
X147335451Y-125093782D01*
X147024142Y-125405091D01*
X146779549Y-125771151D01*
X146611070Y-126177895D01*
X146525180Y-126609692D01*
X145685000Y-126609692D01*
X145685000Y-102699820D01*
X147318237Y-102699820D01*
X147345944Y-102981129D01*
X147427998Y-103251628D01*
X147561248Y-103500921D01*
X147740572Y-103719428D01*
X147959079Y-103898752D01*
X148092038Y-103969820D01*
X147959079Y-104040888D01*
X147740572Y-104220212D01*
X147561248Y-104438719D01*
X147427998Y-104688012D01*
X147345944Y-104958511D01*
X147318237Y-105239820D01*
X147345944Y-105521129D01*
X147427998Y-105791628D01*
X147561248Y-106040921D01*
X147740572Y-106259428D01*
X147959079Y-106438752D01*
X148092038Y-106509820D01*
X147959079Y-106580888D01*
X147740572Y-106760212D01*
X147561248Y-106978719D01*
X147427998Y-107228012D01*
X147345944Y-107498511D01*
X147318237Y-107779820D01*
X147345944Y-108061129D01*
X147427998Y-108331628D01*
X147561248Y-108580921D01*
X147740572Y-108799428D01*
X147959079Y-108978752D01*
X148092038Y-109049820D01*
X147959079Y-109120888D01*
X147740572Y-109300212D01*
X147561248Y-109518719D01*
X147427998Y-109768012D01*
X147345944Y-110038511D01*
X147318237Y-110319820D01*
X147345944Y-110601129D01*
X147427998Y-110871628D01*
X147561248Y-111120921D01*
X147740572Y-111339428D01*
X147853662Y-111432239D01*
X147835698Y-111434008D01*
X147716000Y-111470318D01*
X147605686Y-111529283D01*
X147508995Y-111608635D01*
X147429643Y-111705326D01*
X147370678Y-111815640D01*
X147334368Y-111935338D01*
X147322108Y-112059820D01*
X147322108Y-113659820D01*
X147334368Y-113784302D01*
X147370678Y-113904000D01*
X147429643Y-114014314D01*
X147508995Y-114111005D01*
X147605686Y-114190357D01*
X147716000Y-114249322D01*
X147835698Y-114285632D01*
X147960180Y-114297892D01*
X149560180Y-114297892D01*
X149684662Y-114285632D01*
X149804360Y-114249322D01*
X149914674Y-114190357D01*
X150011365Y-114111005D01*
X150090717Y-114014314D01*
X150149682Y-113904000D01*
X150185992Y-113784302D01*
X150198252Y-113659820D01*
X150198252Y-112059820D01*
X150185992Y-111935338D01*
X150149682Y-111815640D01*
X150090717Y-111705326D01*
X150011365Y-111608635D01*
X149914674Y-111529283D01*
X149804360Y-111470318D01*
X149684662Y-111434008D01*
X149666698Y-111432239D01*
X149779788Y-111339428D01*
X149959112Y-111120921D01*
X150092362Y-110871628D01*
X150174416Y-110601129D01*
X150202123Y-110319820D01*
X150174416Y-110038511D01*
X150092362Y-109768012D01*
X149959112Y-109518719D01*
X149779788Y-109300212D01*
X149561281Y-109120888D01*
X149428322Y-109049820D01*
X149561281Y-108978752D01*
X149779788Y-108799428D01*
X149959112Y-108580921D01*
X150092362Y-108331628D01*
X150174416Y-108061129D01*
X150202123Y-107779820D01*
X150174416Y-107498511D01*
X150092362Y-107228012D01*
X149959112Y-106978719D01*
X149779788Y-106760212D01*
X149561281Y-106580888D01*
X149428322Y-106509820D01*
X149561281Y-106438752D01*
X149779788Y-106259428D01*
X149959112Y-106040921D01*
X150092362Y-105791628D01*
X150174416Y-105521129D01*
X150202123Y-105239820D01*
X150174416Y-104958511D01*
X150092362Y-104688012D01*
X149959112Y-104438719D01*
X149779788Y-104220212D01*
X149561281Y-104040888D01*
X149428322Y-103969820D01*
X149561281Y-103898752D01*
X149779788Y-103719428D01*
X149959112Y-103500921D01*
X150092362Y-103251628D01*
X150174416Y-102981129D01*
X150202123Y-102699820D01*
X150174416Y-102418511D01*
X150092362Y-102148012D01*
X149959112Y-101898719D01*
X149779788Y-101680212D01*
X149561281Y-101500888D01*
X149423498Y-101427241D01*
X149615311Y-101312205D01*
X149823699Y-101123234D01*
X149991217Y-100897240D01*
X150111426Y-100642907D01*
X150152084Y-100508859D01*
X150030095Y-100286820D01*
X148887180Y-100286820D01*
X148887180Y-100306820D01*
X148633180Y-100306820D01*
X148633180Y-100286820D01*
X147490265Y-100286820D01*
X147368276Y-100508859D01*
X147408934Y-100642907D01*
X147529143Y-100897240D01*
X147696661Y-101123234D01*
X147905049Y-101312205D01*
X148096862Y-101427241D01*
X147959079Y-101500888D01*
X147740572Y-101680212D01*
X147561248Y-101898719D01*
X147427998Y-102148012D01*
X147345944Y-102418511D01*
X147318237Y-102699820D01*
X145685000Y-102699820D01*
X145685000Y-97968859D01*
X147368276Y-97968859D01*
X147408934Y-98102907D01*
X147529143Y-98357240D01*
X147696661Y-98583234D01*
X147905049Y-98772205D01*
X148101162Y-98889820D01*
X147905049Y-99007435D01*
X147696661Y-99196406D01*
X147529143Y-99422400D01*
X147408934Y-99676733D01*
X147368276Y-99810781D01*
X147490265Y-100032820D01*
X148633180Y-100032820D01*
X148633180Y-97746820D01*
X148887180Y-97746820D01*
X148887180Y-100032820D01*
X150030095Y-100032820D01*
X150152084Y-99810781D01*
X150111426Y-99676733D01*
X149991217Y-99422400D01*
X149823699Y-99196406D01*
X149615311Y-99007435D01*
X149419198Y-98889820D01*
X149615311Y-98772205D01*
X149823699Y-98583234D01*
X149991217Y-98357240D01*
X150111426Y-98102907D01*
X150152084Y-97968859D01*
X150030095Y-97746820D01*
X148887180Y-97746820D01*
X148633180Y-97746820D01*
X147490265Y-97746820D01*
X147368276Y-97968859D01*
X145685000Y-97968859D01*
X145685000Y-95079820D01*
X147318237Y-95079820D01*
X147345944Y-95361129D01*
X147427998Y-95631628D01*
X147561248Y-95880921D01*
X147740572Y-96099428D01*
X147959079Y-96278752D01*
X148096862Y-96352399D01*
X147905049Y-96467435D01*
X147696661Y-96656406D01*
X147529143Y-96882400D01*
X147408934Y-97136733D01*
X147368276Y-97270781D01*
X147490265Y-97492820D01*
X148633180Y-97492820D01*
X148633180Y-97472820D01*
X148887180Y-97472820D01*
X148887180Y-97492820D01*
X150030095Y-97492820D01*
X150152084Y-97270781D01*
X150111426Y-97136733D01*
X149991217Y-96882400D01*
X149823699Y-96656406D01*
X149615311Y-96467435D01*
X149423498Y-96352399D01*
X149561281Y-96278752D01*
X149779788Y-96099428D01*
X149959112Y-95880921D01*
X150092362Y-95631628D01*
X150174416Y-95361129D01*
X150202123Y-95079820D01*
X150174416Y-94798511D01*
X150092362Y-94528012D01*
X149959112Y-94278719D01*
X149894510Y-94200000D01*
X175710719Y-94200000D01*
X175727805Y-94373490D01*
X175778412Y-94540313D01*
X175840001Y-94655539D01*
X175840000Y-95762677D01*
X175836324Y-95800000D01*
X175840000Y-95837322D01*
X175840000Y-95837332D01*
X175850997Y-95948985D01*
X175885788Y-96063677D01*
X175894454Y-96092246D01*
X175965026Y-96224276D01*
X175998469Y-96265026D01*
X176059999Y-96340001D01*
X176089002Y-96363804D01*
X177136201Y-97411003D01*
X177159999Y-97440001D01*
X177188997Y-97463799D01*
X177275723Y-97534974D01*
X177348389Y-97573815D01*
X177407753Y-97605546D01*
X177551014Y-97649003D01*
X177662667Y-97660000D01*
X177662677Y-97660000D01*
X177700000Y-97663676D01*
X177737323Y-97660000D01*
X178186928Y-97660000D01*
X178186928Y-97725000D01*
X178199188Y-97849482D01*
X178206929Y-97875000D01*
X178199188Y-97900518D01*
X178186928Y-98025000D01*
X178186928Y-98375000D01*
X178199188Y-98499482D01*
X178206929Y-98525000D01*
X178199188Y-98550518D01*
X178186928Y-98675000D01*
X178186928Y-99025000D01*
X178199188Y-99149482D01*
X178206929Y-99175000D01*
X178199188Y-99200518D01*
X178186928Y-99325000D01*
X178186928Y-99675000D01*
X178199188Y-99799482D01*
X178206929Y-99825000D01*
X178199188Y-99850518D01*
X178186928Y-99975000D01*
X178186928Y-100325000D01*
X178199188Y-100449482D01*
X178235498Y-100569180D01*
X178294463Y-100679494D01*
X178373815Y-100776185D01*
X178470506Y-100855537D01*
X178580820Y-100914502D01*
X178700518Y-100950812D01*
X178825000Y-100963072D01*
X179875000Y-100963072D01*
X179999482Y-100950812D01*
X180055823Y-100933721D01*
X180086928Y-100936785D01*
X180086928Y-101177000D01*
X179598750Y-101177000D01*
X179440000Y-101335750D01*
X179437041Y-101562979D01*
X179446954Y-101687670D01*
X179481003Y-101808030D01*
X179537878Y-101919436D01*
X179615395Y-102017605D01*
X179710574Y-102098765D01*
X179819758Y-102159797D01*
X179938751Y-102198355D01*
X180043250Y-102210000D01*
X180202000Y-102051250D01*
X180202000Y-101938678D01*
X180273815Y-102026185D01*
X180298000Y-102046033D01*
X180298000Y-102051250D01*
X180456750Y-102210000D01*
X180561249Y-102198355D01*
X180576320Y-102193472D01*
X180600518Y-102200812D01*
X180725000Y-102213072D01*
X181075000Y-102213072D01*
X181199482Y-102200812D01*
X181225000Y-102193071D01*
X181250518Y-102200812D01*
X181375000Y-102213072D01*
X181725000Y-102213072D01*
X181849482Y-102200812D01*
X181875000Y-102193071D01*
X181900518Y-102200812D01*
X182025000Y-102213072D01*
X182375000Y-102213072D01*
X182499482Y-102200812D01*
X182525000Y-102193071D01*
X182550518Y-102200812D01*
X182675000Y-102213072D01*
X183025000Y-102213072D01*
X183149482Y-102200812D01*
X183175000Y-102193071D01*
X183200518Y-102200812D01*
X183325000Y-102213072D01*
X183675000Y-102213072D01*
X183799482Y-102200812D01*
X183825000Y-102193071D01*
X183850518Y-102200812D01*
X183975000Y-102213072D01*
X184325000Y-102213072D01*
X184449482Y-102200812D01*
X184569180Y-102164502D01*
X184679494Y-102105537D01*
X184776185Y-102026185D01*
X184855537Y-101929494D01*
X184914502Y-101819180D01*
X184950812Y-101699482D01*
X184963072Y-101575000D01*
X184963072Y-100963072D01*
X185575000Y-100963072D01*
X185699482Y-100950812D01*
X185819180Y-100914502D01*
X185929494Y-100855537D01*
X186026185Y-100776185D01*
X186105537Y-100679494D01*
X186164502Y-100569180D01*
X186200812Y-100449482D01*
X186213072Y-100325000D01*
X186213072Y-99975000D01*
X186200812Y-99850518D01*
X186193071Y-99825000D01*
X186200812Y-99799482D01*
X186213072Y-99675000D01*
X186213072Y-99610000D01*
X186774827Y-99610000D01*
X186930013Y-99842252D01*
X187157748Y-100069987D01*
X187425537Y-100248918D01*
X187723088Y-100372168D01*
X188038967Y-100435000D01*
X188361033Y-100435000D01*
X188676912Y-100372168D01*
X188974463Y-100248918D01*
X189242252Y-100069987D01*
X189469987Y-99842252D01*
X189648918Y-99574463D01*
X189772168Y-99276912D01*
X189799437Y-99139820D01*
X195578237Y-99139820D01*
X195605944Y-99421129D01*
X195687998Y-99691628D01*
X195821248Y-99940921D01*
X196000572Y-100159428D01*
X196219079Y-100338752D01*
X196352038Y-100409820D01*
X196219079Y-100480888D01*
X196000572Y-100660212D01*
X195821248Y-100878719D01*
X195687998Y-101128012D01*
X195605944Y-101398511D01*
X195578237Y-101679820D01*
X195605944Y-101961129D01*
X195687998Y-102231628D01*
X195821248Y-102480921D01*
X196000572Y-102699428D01*
X196219079Y-102878752D01*
X196352038Y-102949820D01*
X196219079Y-103020888D01*
X196000572Y-103200212D01*
X195821248Y-103418719D01*
X195687998Y-103668012D01*
X195605944Y-103938511D01*
X195578237Y-104219820D01*
X195605944Y-104501129D01*
X195687998Y-104771628D01*
X195821248Y-105020921D01*
X196000572Y-105239428D01*
X196219079Y-105418752D01*
X196352038Y-105489820D01*
X196219079Y-105560888D01*
X196000572Y-105740212D01*
X195821248Y-105958719D01*
X195687998Y-106208012D01*
X195605944Y-106478511D01*
X195578237Y-106759820D01*
X195605944Y-107041129D01*
X195687998Y-107311628D01*
X195821248Y-107560921D01*
X196000572Y-107779428D01*
X196219079Y-107958752D01*
X196352038Y-108029820D01*
X196219079Y-108100888D01*
X196000572Y-108280212D01*
X195821248Y-108498719D01*
X195687998Y-108748012D01*
X195605944Y-109018511D01*
X195578237Y-109299820D01*
X195605944Y-109581129D01*
X195687998Y-109851628D01*
X195821248Y-110100921D01*
X196000572Y-110319428D01*
X196219079Y-110498752D01*
X196352038Y-110569820D01*
X196219079Y-110640888D01*
X196000572Y-110820212D01*
X195821248Y-111038719D01*
X195687998Y-111288012D01*
X195605944Y-111558511D01*
X195578237Y-111839820D01*
X195605944Y-112121129D01*
X195687998Y-112391628D01*
X195821248Y-112640921D01*
X196000572Y-112859428D01*
X196219079Y-113038752D01*
X196356862Y-113112399D01*
X196165049Y-113227435D01*
X195956661Y-113416406D01*
X195789143Y-113642400D01*
X195668934Y-113896733D01*
X195628276Y-114030781D01*
X195750265Y-114252820D01*
X196893180Y-114252820D01*
X196893180Y-114232820D01*
X197147180Y-114232820D01*
X197147180Y-114252820D01*
X198290095Y-114252820D01*
X198412084Y-114030781D01*
X198371426Y-113896733D01*
X198251217Y-113642400D01*
X198083699Y-113416406D01*
X197875311Y-113227435D01*
X197683498Y-113112399D01*
X197821281Y-113038752D01*
X198039788Y-112859428D01*
X198219112Y-112640921D01*
X198352362Y-112391628D01*
X198434416Y-112121129D01*
X198462123Y-111839820D01*
X198434416Y-111558511D01*
X198352362Y-111288012D01*
X198219112Y-111038719D01*
X198039788Y-110820212D01*
X197821281Y-110640888D01*
X197688322Y-110569820D01*
X197821281Y-110498752D01*
X198039788Y-110319428D01*
X198219112Y-110100921D01*
X198352362Y-109851628D01*
X198434416Y-109581129D01*
X198462123Y-109299820D01*
X198434416Y-109018511D01*
X198352362Y-108748012D01*
X198219112Y-108498719D01*
X198039788Y-108280212D01*
X197821281Y-108100888D01*
X197688322Y-108029820D01*
X197821281Y-107958752D01*
X198039788Y-107779428D01*
X198219112Y-107560921D01*
X198352362Y-107311628D01*
X198434416Y-107041129D01*
X198462123Y-106759820D01*
X198434416Y-106478511D01*
X198352362Y-106208012D01*
X198219112Y-105958719D01*
X198039788Y-105740212D01*
X197821281Y-105560888D01*
X197688322Y-105489820D01*
X197821281Y-105418752D01*
X198039788Y-105239428D01*
X198219112Y-105020921D01*
X198352362Y-104771628D01*
X198434416Y-104501129D01*
X198462123Y-104219820D01*
X198434416Y-103938511D01*
X198352362Y-103668012D01*
X198219112Y-103418719D01*
X198039788Y-103200212D01*
X197821281Y-103020888D01*
X197688322Y-102949820D01*
X197821281Y-102878752D01*
X198039788Y-102699428D01*
X198219112Y-102480921D01*
X198352362Y-102231628D01*
X198434416Y-101961129D01*
X198462123Y-101679820D01*
X198434416Y-101398511D01*
X198352362Y-101128012D01*
X198219112Y-100878719D01*
X198039788Y-100660212D01*
X197821281Y-100480888D01*
X197688322Y-100409820D01*
X197821281Y-100338752D01*
X198039788Y-100159428D01*
X198219112Y-99940921D01*
X198352362Y-99691628D01*
X198434416Y-99421129D01*
X198462123Y-99139820D01*
X198434416Y-98858511D01*
X198352362Y-98588012D01*
X198219112Y-98338719D01*
X198039788Y-98120212D01*
X197821281Y-97940888D01*
X197571988Y-97807638D01*
X197301489Y-97725584D01*
X197090672Y-97704820D01*
X196949688Y-97704820D01*
X196738871Y-97725584D01*
X196468372Y-97807638D01*
X196219079Y-97940888D01*
X196000572Y-98120212D01*
X195821248Y-98338719D01*
X195687998Y-98588012D01*
X195605944Y-98858511D01*
X195578237Y-99139820D01*
X189799437Y-99139820D01*
X189835000Y-98961033D01*
X189835000Y-98638967D01*
X189772168Y-98323088D01*
X189648918Y-98025537D01*
X189469987Y-97757748D01*
X189242252Y-97530013D01*
X188974463Y-97351082D01*
X188676912Y-97227832D01*
X188361033Y-97165000D01*
X188038967Y-97165000D01*
X187723088Y-97227832D01*
X187425537Y-97351082D01*
X187157748Y-97530013D01*
X186930013Y-97757748D01*
X186751082Y-98025537D01*
X186724380Y-98090000D01*
X186213072Y-98090000D01*
X186213072Y-98025000D01*
X186200812Y-97900518D01*
X186193071Y-97875000D01*
X186200812Y-97849482D01*
X186213072Y-97725000D01*
X186213072Y-97375000D01*
X186200812Y-97250518D01*
X186193071Y-97225000D01*
X186200812Y-97199482D01*
X186213072Y-97075000D01*
X186213072Y-96725000D01*
X186200812Y-96600518D01*
X186193071Y-96575000D01*
X186200812Y-96549482D01*
X186213072Y-96425000D01*
X186213072Y-96075000D01*
X186200812Y-95950518D01*
X186164502Y-95830820D01*
X186105537Y-95720506D01*
X186026185Y-95623815D01*
X185929494Y-95544463D01*
X185819180Y-95485498D01*
X185699482Y-95449188D01*
X185575000Y-95436928D01*
X184963072Y-95436928D01*
X184963072Y-94825000D01*
X184950812Y-94700518D01*
X184914502Y-94580820D01*
X184855537Y-94470506D01*
X184776185Y-94373815D01*
X184679494Y-94294463D01*
X184569180Y-94235498D01*
X184449482Y-94199188D01*
X184325000Y-94186928D01*
X183975000Y-94186928D01*
X183850518Y-94199188D01*
X183825000Y-94206929D01*
X183799482Y-94199188D01*
X183741340Y-94193462D01*
X184275286Y-93659516D01*
X184400313Y-93621588D01*
X184554059Y-93539410D01*
X184655046Y-93456532D01*
X191880192Y-86231387D01*
X191880197Y-86231381D01*
X195592002Y-82519577D01*
X195605944Y-82661129D01*
X195687998Y-82931628D01*
X195821248Y-83180921D01*
X196000572Y-83399428D01*
X196219079Y-83578752D01*
X196352038Y-83649820D01*
X196219079Y-83720888D01*
X196000572Y-83900212D01*
X195821248Y-84118719D01*
X195687998Y-84368012D01*
X195605944Y-84638511D01*
X195578237Y-84919820D01*
X195605944Y-85201129D01*
X195687998Y-85471628D01*
X195821248Y-85720921D01*
X196000572Y-85939428D01*
X196219079Y-86118752D01*
X196352038Y-86189820D01*
X196219079Y-86260888D01*
X196000572Y-86440212D01*
X195821248Y-86658719D01*
X195687998Y-86908012D01*
X195605944Y-87178511D01*
X195578237Y-87459820D01*
X195605944Y-87741129D01*
X195687998Y-88011628D01*
X195821248Y-88260921D01*
X196000572Y-88479428D01*
X196219079Y-88658752D01*
X196352038Y-88729820D01*
X196219079Y-88800888D01*
X196000572Y-88980212D01*
X195821248Y-89198719D01*
X195687998Y-89448012D01*
X195605944Y-89718511D01*
X195578237Y-89999820D01*
X195605944Y-90281129D01*
X195687998Y-90551628D01*
X195821248Y-90800921D01*
X196000572Y-91019428D01*
X196219079Y-91198752D01*
X196352038Y-91269820D01*
X196219079Y-91340888D01*
X196000572Y-91520212D01*
X195821248Y-91738719D01*
X195687998Y-91988012D01*
X195605944Y-92258511D01*
X195578237Y-92539820D01*
X195605944Y-92821129D01*
X195687998Y-93091628D01*
X195821248Y-93340921D01*
X196000572Y-93559428D01*
X196219079Y-93738752D01*
X196352038Y-93809820D01*
X196219079Y-93880888D01*
X196000572Y-94060212D01*
X195821248Y-94278719D01*
X195687998Y-94528012D01*
X195605944Y-94798511D01*
X195578237Y-95079820D01*
X195605944Y-95361129D01*
X195687998Y-95631628D01*
X195821248Y-95880921D01*
X196000572Y-96099428D01*
X196219079Y-96278752D01*
X196468372Y-96412002D01*
X196738871Y-96494056D01*
X196949688Y-96514820D01*
X197090672Y-96514820D01*
X197301489Y-96494056D01*
X197571988Y-96412002D01*
X197821281Y-96278752D01*
X198039788Y-96099428D01*
X198219112Y-95880921D01*
X198352362Y-95631628D01*
X198434416Y-95361129D01*
X198462123Y-95079820D01*
X198434416Y-94798511D01*
X198352362Y-94528012D01*
X198219112Y-94278719D01*
X198039788Y-94060212D01*
X197821281Y-93880888D01*
X197688322Y-93809820D01*
X197821281Y-93738752D01*
X198039788Y-93559428D01*
X198219112Y-93340921D01*
X198352362Y-93091628D01*
X198434416Y-92821129D01*
X198462123Y-92539820D01*
X198434416Y-92258511D01*
X198352362Y-91988012D01*
X198219112Y-91738719D01*
X198039788Y-91520212D01*
X197821281Y-91340888D01*
X197688322Y-91269820D01*
X197821281Y-91198752D01*
X198039788Y-91019428D01*
X198219112Y-90800921D01*
X198352362Y-90551628D01*
X198434416Y-90281129D01*
X198462123Y-89999820D01*
X198434416Y-89718511D01*
X198352362Y-89448012D01*
X198219112Y-89198719D01*
X198039788Y-88980212D01*
X197821281Y-88800888D01*
X197688322Y-88729820D01*
X197821281Y-88658752D01*
X198039788Y-88479428D01*
X198219112Y-88260921D01*
X198352362Y-88011628D01*
X198434416Y-87741129D01*
X198462123Y-87459820D01*
X198434416Y-87178511D01*
X198352362Y-86908012D01*
X198219112Y-86658719D01*
X198039788Y-86440212D01*
X197821281Y-86260888D01*
X197688322Y-86189820D01*
X197821281Y-86118752D01*
X198039788Y-85939428D01*
X198219112Y-85720921D01*
X198352362Y-85471628D01*
X198434416Y-85201129D01*
X198462123Y-84919820D01*
X198434416Y-84638511D01*
X198352362Y-84368012D01*
X198219112Y-84118719D01*
X198039788Y-83900212D01*
X197821281Y-83720888D01*
X197688322Y-83649820D01*
X197821281Y-83578752D01*
X198039788Y-83399428D01*
X198219112Y-83180921D01*
X198352362Y-82931628D01*
X198434416Y-82661129D01*
X198462123Y-82379820D01*
X198434416Y-82098511D01*
X198352362Y-81828012D01*
X198219112Y-81578719D01*
X198039788Y-81360212D01*
X197821281Y-81180888D01*
X197688322Y-81109820D01*
X197821281Y-81038752D01*
X198039788Y-80859428D01*
X198219112Y-80640921D01*
X198352362Y-80391628D01*
X198434416Y-80121129D01*
X198462123Y-79839820D01*
X198434416Y-79558511D01*
X198352362Y-79288012D01*
X198219112Y-79038719D01*
X198039788Y-78820212D01*
X197821281Y-78640888D01*
X197688322Y-78569820D01*
X197821281Y-78498752D01*
X198039788Y-78319428D01*
X198219112Y-78100921D01*
X198352362Y-77851628D01*
X198434416Y-77581129D01*
X198462123Y-77299820D01*
X198434416Y-77018511D01*
X198352362Y-76748012D01*
X198219112Y-76498719D01*
X198039788Y-76280212D01*
X197821281Y-76100888D01*
X197571988Y-75967638D01*
X197301489Y-75885584D01*
X197090672Y-75864820D01*
X196949688Y-75864820D01*
X196738871Y-75885584D01*
X196468372Y-75967638D01*
X196219079Y-76100888D01*
X196000572Y-76280212D01*
X195890102Y-76414820D01*
X193543649Y-76414820D01*
X193500180Y-76410539D01*
X193456711Y-76414820D01*
X193456703Y-76414820D01*
X193326690Y-76427625D01*
X193159867Y-76478231D01*
X193006121Y-76560409D01*
X192905133Y-76643288D01*
X192905131Y-76643290D01*
X192871363Y-76671003D01*
X192843650Y-76704771D01*
X175943468Y-93604954D01*
X175860590Y-93705941D01*
X175778412Y-93859687D01*
X175727805Y-94026510D01*
X175710719Y-94200000D01*
X149894510Y-94200000D01*
X149779788Y-94060212D01*
X149561281Y-93880888D01*
X149311988Y-93747638D01*
X149041489Y-93665584D01*
X148830672Y-93644820D01*
X148689688Y-93644820D01*
X148478871Y-93665584D01*
X148208372Y-93747638D01*
X147959079Y-93880888D01*
X147740572Y-94060212D01*
X147561248Y-94278719D01*
X147427998Y-94528012D01*
X147345944Y-94798511D01*
X147318237Y-95079820D01*
X145685000Y-95079820D01*
X145685000Y-93231880D01*
X163771728Y-93231880D01*
X163783988Y-93356362D01*
X163820298Y-93476060D01*
X163879263Y-93586374D01*
X163958615Y-93683065D01*
X164055306Y-93762417D01*
X164165620Y-93821382D01*
X164285318Y-93857692D01*
X164409800Y-93869952D01*
X164599050Y-93866880D01*
X164757800Y-93708130D01*
X164757800Y-92921380D01*
X165011800Y-92921380D01*
X165011800Y-93708130D01*
X165170550Y-93866880D01*
X165359800Y-93869952D01*
X165484282Y-93857692D01*
X165603980Y-93821382D01*
X165714294Y-93762417D01*
X165810985Y-93683065D01*
X165871543Y-93609275D01*
X165909335Y-93655325D01*
X166006026Y-93734677D01*
X166116340Y-93793642D01*
X166236038Y-93829952D01*
X166360520Y-93842212D01*
X166549770Y-93839140D01*
X166708520Y-93680390D01*
X166708520Y-92893640D01*
X166962520Y-92893640D01*
X166962520Y-93680390D01*
X167121270Y-93839140D01*
X167310520Y-93842212D01*
X167435002Y-93829952D01*
X167554700Y-93793642D01*
X167665014Y-93734677D01*
X167761705Y-93655325D01*
X167841057Y-93558634D01*
X167900022Y-93448320D01*
X167936332Y-93328622D01*
X167948592Y-93204140D01*
X167945520Y-93052390D01*
X167786770Y-92893640D01*
X166962520Y-92893640D01*
X166708520Y-92893640D01*
X165884270Y-92893640D01*
X165846290Y-92931620D01*
X165836050Y-92921380D01*
X165011800Y-92921380D01*
X164757800Y-92921380D01*
X163933550Y-92921380D01*
X163774800Y-93080130D01*
X163771728Y-93231880D01*
X145685000Y-93231880D01*
X145685000Y-77299820D01*
X147318237Y-77299820D01*
X147345944Y-77581129D01*
X147427998Y-77851628D01*
X147561248Y-78100921D01*
X147740572Y-78319428D01*
X147959079Y-78498752D01*
X148092038Y-78569820D01*
X147959079Y-78640888D01*
X147740572Y-78820212D01*
X147561248Y-79038719D01*
X147427998Y-79288012D01*
X147345944Y-79558511D01*
X147318237Y-79839820D01*
X147345944Y-80121129D01*
X147427998Y-80391628D01*
X147561248Y-80640921D01*
X147740572Y-80859428D01*
X147959079Y-81038752D01*
X148092038Y-81109820D01*
X147959079Y-81180888D01*
X147740572Y-81360212D01*
X147561248Y-81578719D01*
X147427998Y-81828012D01*
X147345944Y-82098511D01*
X147318237Y-82379820D01*
X147345944Y-82661129D01*
X147427998Y-82931628D01*
X147561248Y-83180921D01*
X147740572Y-83399428D01*
X147959079Y-83578752D01*
X148092038Y-83649820D01*
X147959079Y-83720888D01*
X147740572Y-83900212D01*
X147561248Y-84118719D01*
X147427998Y-84368012D01*
X147345944Y-84638511D01*
X147318237Y-84919820D01*
X147345944Y-85201129D01*
X147427998Y-85471628D01*
X147561248Y-85720921D01*
X147740572Y-85939428D01*
X147959079Y-86118752D01*
X148092038Y-86189820D01*
X147959079Y-86260888D01*
X147740572Y-86440212D01*
X147561248Y-86658719D01*
X147427998Y-86908012D01*
X147345944Y-87178511D01*
X147318237Y-87459820D01*
X147345944Y-87741129D01*
X147427998Y-88011628D01*
X147561248Y-88260921D01*
X147740572Y-88479428D01*
X147959079Y-88658752D01*
X148092038Y-88729820D01*
X147959079Y-88800888D01*
X147740572Y-88980212D01*
X147561248Y-89198719D01*
X147427998Y-89448012D01*
X147345944Y-89718511D01*
X147318237Y-89999820D01*
X147345944Y-90281129D01*
X147427998Y-90551628D01*
X147561248Y-90800921D01*
X147740572Y-91019428D01*
X147959079Y-91198752D01*
X148208372Y-91332002D01*
X148478871Y-91414056D01*
X148689688Y-91434820D01*
X148830672Y-91434820D01*
X149041489Y-91414056D01*
X149311988Y-91332002D01*
X149561281Y-91198752D01*
X149691065Y-91092241D01*
X161843200Y-91092241D01*
X161843200Y-91296119D01*
X161882974Y-91496078D01*
X161960995Y-91684436D01*
X162074263Y-91853954D01*
X162218426Y-91998117D01*
X162387944Y-92111385D01*
X162576302Y-92189406D01*
X162776261Y-92229180D01*
X162980139Y-92229180D01*
X163180098Y-92189406D01*
X163368456Y-92111385D01*
X163416654Y-92079180D01*
X163838215Y-92079180D01*
X163820298Y-92112700D01*
X163783988Y-92232398D01*
X163771728Y-92356880D01*
X163774800Y-92508630D01*
X163933550Y-92667380D01*
X164757800Y-92667380D01*
X164757800Y-92647380D01*
X165011800Y-92647380D01*
X165011800Y-92667380D01*
X165836050Y-92667380D01*
X165874030Y-92629400D01*
X165884270Y-92639640D01*
X166708520Y-92639640D01*
X166708520Y-92619640D01*
X166962520Y-92619640D01*
X166962520Y-92639640D01*
X167786770Y-92639640D01*
X167945520Y-92480890D01*
X167948592Y-92329140D01*
X167936332Y-92204658D01*
X167900022Y-92084960D01*
X167895575Y-92076640D01*
X168462764Y-92076640D01*
X168576192Y-92111048D01*
X168743350Y-92127512D01*
X169255850Y-92127512D01*
X169423008Y-92111048D01*
X169583742Y-92062290D01*
X169731875Y-91983111D01*
X169861715Y-91876555D01*
X169968271Y-91746715D01*
X170047450Y-91598582D01*
X170096208Y-91437848D01*
X170112672Y-91270690D01*
X170112672Y-90833190D01*
X170096208Y-90666032D01*
X170047450Y-90505298D01*
X169968271Y-90357165D01*
X169892174Y-90264440D01*
X169968271Y-90171715D01*
X170047450Y-90023582D01*
X170096208Y-89862848D01*
X170112672Y-89695690D01*
X170112672Y-89258190D01*
X170096208Y-89091032D01*
X170080415Y-89038967D01*
X175765000Y-89038967D01*
X175765000Y-89361033D01*
X175827832Y-89676912D01*
X175951082Y-89974463D01*
X176130013Y-90242252D01*
X176357748Y-90469987D01*
X176625537Y-90648918D01*
X176923088Y-90772168D01*
X177238967Y-90835000D01*
X177561033Y-90835000D01*
X177876912Y-90772168D01*
X178174463Y-90648918D01*
X178442252Y-90469987D01*
X178669987Y-90242252D01*
X178848918Y-89974463D01*
X178972168Y-89676912D01*
X179035000Y-89361033D01*
X179035000Y-89038967D01*
X178972168Y-88723088D01*
X178848918Y-88425537D01*
X178669987Y-88157748D01*
X178442252Y-87930013D01*
X178174463Y-87751082D01*
X177876912Y-87627832D01*
X177561033Y-87565000D01*
X177238967Y-87565000D01*
X176923088Y-87627832D01*
X176625537Y-87751082D01*
X176357748Y-87930013D01*
X176130013Y-88157748D01*
X175951082Y-88425537D01*
X175827832Y-88723088D01*
X175765000Y-89038967D01*
X170080415Y-89038967D01*
X170047450Y-88930298D01*
X169968271Y-88782165D01*
X169861715Y-88652325D01*
X169731875Y-88545769D01*
X169603282Y-88477034D01*
X169600141Y-88473207D01*
X169563399Y-88428436D01*
X169563395Y-88428432D01*
X169539601Y-88399439D01*
X169510609Y-88375646D01*
X167880963Y-86746002D01*
X167857161Y-86716999D01*
X167741436Y-86622026D01*
X167609407Y-86551454D01*
X167466146Y-86507997D01*
X167354493Y-86497000D01*
X167354482Y-86497000D01*
X167317160Y-86493324D01*
X167287485Y-86496247D01*
X167242593Y-86482629D01*
X167103480Y-86468928D01*
X166453480Y-86468928D01*
X166314367Y-86482629D01*
X166180599Y-86523207D01*
X166094203Y-86569387D01*
X165614230Y-86572000D01*
X165455480Y-86730750D01*
X165455480Y-88105000D01*
X165475480Y-88105000D01*
X165475480Y-88359000D01*
X165455480Y-88359000D01*
X165455480Y-89733250D01*
X165614230Y-89892000D01*
X166018480Y-89894201D01*
X166018481Y-90330033D01*
X166013183Y-90334380D01*
X165673335Y-90334380D01*
X165617075Y-90288209D01*
X165468942Y-90209030D01*
X165308208Y-90160272D01*
X165141050Y-90143808D01*
X164628550Y-90143808D01*
X164461392Y-90160272D01*
X164300658Y-90209030D01*
X164152525Y-90288209D01*
X164126972Y-90309180D01*
X163416654Y-90309180D01*
X163368456Y-90276975D01*
X163180098Y-90198954D01*
X162980139Y-90159180D01*
X162776261Y-90159180D01*
X162576302Y-90198954D01*
X162387944Y-90276975D01*
X162218426Y-90390243D01*
X162074263Y-90534406D01*
X161960995Y-90703924D01*
X161882974Y-90892282D01*
X161843200Y-91092241D01*
X149691065Y-91092241D01*
X149779788Y-91019428D01*
X149959112Y-90800921D01*
X150092362Y-90551628D01*
X150174416Y-90281129D01*
X150202123Y-89999820D01*
X150174416Y-89718511D01*
X150119168Y-89536380D01*
X156545428Y-89536380D01*
X156557688Y-89660862D01*
X156593998Y-89780560D01*
X156652963Y-89890874D01*
X156732315Y-89987565D01*
X156829006Y-90066917D01*
X156939320Y-90125882D01*
X157059018Y-90162192D01*
X157183500Y-90174452D01*
X157372750Y-90171380D01*
X157531500Y-90012630D01*
X157531500Y-89225880D01*
X157785500Y-89225880D01*
X157785500Y-90012630D01*
X157944250Y-90171380D01*
X158133500Y-90174452D01*
X158257982Y-90162192D01*
X158377680Y-90125882D01*
X158487994Y-90066917D01*
X158584685Y-89987565D01*
X158664037Y-89890874D01*
X158715403Y-89794776D01*
X158758623Y-89875634D01*
X158837975Y-89972325D01*
X158934666Y-90051677D01*
X159044980Y-90110642D01*
X159164678Y-90146952D01*
X159289160Y-90159212D01*
X159478410Y-90156140D01*
X159637160Y-89997390D01*
X159637160Y-89210640D01*
X158812910Y-89210640D01*
X158703710Y-89319840D01*
X158609750Y-89225880D01*
X157785500Y-89225880D01*
X157531500Y-89225880D01*
X156707250Y-89225880D01*
X156548500Y-89384630D01*
X156545428Y-89536380D01*
X150119168Y-89536380D01*
X150092362Y-89448012D01*
X149959112Y-89198719D01*
X149779788Y-88980212D01*
X149561281Y-88800888D01*
X149428322Y-88729820D01*
X149561281Y-88658752D01*
X149779788Y-88479428D01*
X149959112Y-88260921D01*
X150092362Y-88011628D01*
X150174416Y-87741129D01*
X150202123Y-87459820D01*
X150186888Y-87305130D01*
X156545428Y-87305130D01*
X156545428Y-87742630D01*
X156561892Y-87909788D01*
X156610650Y-88070522D01*
X156689829Y-88218655D01*
X156707600Y-88240310D01*
X156652963Y-88306886D01*
X156593998Y-88417200D01*
X156557688Y-88536898D01*
X156545428Y-88661380D01*
X156548500Y-88813130D01*
X156707250Y-88971880D01*
X157531500Y-88971880D01*
X157531500Y-88951880D01*
X157785500Y-88951880D01*
X157785500Y-88971880D01*
X158609750Y-88971880D01*
X158718950Y-88862680D01*
X158812910Y-88956640D01*
X159637160Y-88956640D01*
X159637160Y-88936640D01*
X159891160Y-88936640D01*
X159891160Y-88956640D01*
X159911160Y-88956640D01*
X159911160Y-89210640D01*
X159891160Y-89210640D01*
X159891160Y-89997390D01*
X160049910Y-90156140D01*
X160239160Y-90159212D01*
X160363642Y-90146952D01*
X160483340Y-90110642D01*
X160593654Y-90051677D01*
X160690345Y-89972325D01*
X160769697Y-89875634D01*
X160828662Y-89765320D01*
X160848114Y-89701197D01*
X160896069Y-89790915D01*
X161002625Y-89920755D01*
X161132465Y-90027311D01*
X161280598Y-90106490D01*
X161441332Y-90155248D01*
X161608490Y-90171712D01*
X162120990Y-90171712D01*
X162288148Y-90155248D01*
X162448882Y-90106490D01*
X162597015Y-90027311D01*
X162670505Y-89967000D01*
X163366992Y-89967000D01*
X163414367Y-89981371D01*
X163553480Y-89995072D01*
X164203480Y-89995072D01*
X164342593Y-89981371D01*
X164476361Y-89940793D01*
X164562757Y-89894613D01*
X165042730Y-89892000D01*
X165201480Y-89733250D01*
X165201480Y-88359000D01*
X165181480Y-88359000D01*
X165181480Y-88105000D01*
X165201480Y-88105000D01*
X165201480Y-86730750D01*
X165042730Y-86572000D01*
X164663963Y-86569938D01*
X164717205Y-86490256D01*
X164795226Y-86301898D01*
X164835000Y-86101939D01*
X164835000Y-85898061D01*
X164795226Y-85698102D01*
X164717205Y-85509744D01*
X164603937Y-85340226D01*
X164459774Y-85196063D01*
X164290256Y-85082795D01*
X164101898Y-85004774D01*
X163901939Y-84965000D01*
X163698061Y-84965000D01*
X163498102Y-85004774D01*
X163309744Y-85082795D01*
X163140226Y-85196063D01*
X162996063Y-85340226D01*
X162882795Y-85509744D01*
X162804774Y-85698102D01*
X162765000Y-85898061D01*
X162765000Y-86101939D01*
X162804774Y-86301898D01*
X162882795Y-86490256D01*
X162887301Y-86497000D01*
X162403422Y-86497000D01*
X162288148Y-86462032D01*
X162120990Y-86445568D01*
X161608490Y-86445568D01*
X161441332Y-86462032D01*
X161280598Y-86510790D01*
X161132465Y-86589969D01*
X161076205Y-86636140D01*
X160567926Y-86636140D01*
X160496435Y-86577469D01*
X160348302Y-86498290D01*
X160187568Y-86449532D01*
X160020410Y-86433068D01*
X159507910Y-86433068D01*
X159340752Y-86449532D01*
X159180018Y-86498290D01*
X159031885Y-86577469D01*
X158975625Y-86623640D01*
X158428465Y-86623640D01*
X158390775Y-86592709D01*
X158242642Y-86513530D01*
X158081908Y-86464772D01*
X157914750Y-86448308D01*
X157402250Y-86448308D01*
X157235092Y-86464772D01*
X157074358Y-86513530D01*
X156926225Y-86592709D01*
X156796385Y-86699265D01*
X156689829Y-86829105D01*
X156610650Y-86977238D01*
X156561892Y-87137972D01*
X156545428Y-87305130D01*
X150186888Y-87305130D01*
X150174416Y-87178511D01*
X150092362Y-86908012D01*
X149959112Y-86658719D01*
X149779788Y-86440212D01*
X149561281Y-86260888D01*
X149428322Y-86189820D01*
X149561281Y-86118752D01*
X149779788Y-85939428D01*
X149959112Y-85720921D01*
X150092362Y-85471628D01*
X150174416Y-85201129D01*
X150202123Y-84919820D01*
X150174416Y-84638511D01*
X150092362Y-84368012D01*
X149959112Y-84118719D01*
X149779788Y-83900212D01*
X149561281Y-83720888D01*
X149428322Y-83649820D01*
X149561281Y-83578752D01*
X149779788Y-83399428D01*
X149959112Y-83180921D01*
X150092362Y-82931628D01*
X150174416Y-82661129D01*
X150202123Y-82379820D01*
X150174416Y-82098511D01*
X150092362Y-81828012D01*
X149959112Y-81578719D01*
X149779788Y-81360212D01*
X149561281Y-81180888D01*
X149428322Y-81109820D01*
X149561281Y-81038752D01*
X149779788Y-80859428D01*
X149959112Y-80640921D01*
X150092362Y-80391628D01*
X150174416Y-80121129D01*
X150202123Y-79839820D01*
X150174416Y-79558511D01*
X150092362Y-79288012D01*
X149959112Y-79038719D01*
X149779788Y-78820212D01*
X149561281Y-78640888D01*
X149428322Y-78569820D01*
X149561281Y-78498752D01*
X149779788Y-78319428D01*
X149959112Y-78100921D01*
X150092362Y-77851628D01*
X150174416Y-77581129D01*
X150202123Y-77299820D01*
X150174416Y-77018511D01*
X150092362Y-76748012D01*
X149959112Y-76498719D01*
X149779788Y-76280212D01*
X149561281Y-76100888D01*
X149311988Y-75967638D01*
X149041489Y-75885584D01*
X148830672Y-75864820D01*
X148689688Y-75864820D01*
X148478871Y-75885584D01*
X148208372Y-75967638D01*
X147959079Y-76100888D01*
X147740572Y-76280212D01*
X147561248Y-76498719D01*
X147427998Y-76748012D01*
X147345944Y-77018511D01*
X147318237Y-77299820D01*
X145685000Y-77299820D01*
X145685000Y-74539692D01*
X151605180Y-74539692D01*
X151605180Y-74979948D01*
X151691070Y-75411745D01*
X151859549Y-75818489D01*
X152104142Y-76184549D01*
X152415451Y-76495858D01*
X152781511Y-76740451D01*
X153188255Y-76908930D01*
X153620052Y-76994820D01*
X154060308Y-76994820D01*
X154492105Y-76908930D01*
X154898849Y-76740451D01*
X155264909Y-76495858D01*
X155576218Y-76184549D01*
X155820811Y-75818489D01*
X155989290Y-75411745D01*
X156075180Y-74979948D01*
X156075180Y-74539692D01*
X179545180Y-74539692D01*
X179545180Y-74979948D01*
X179631070Y-75411745D01*
X179799549Y-75818489D01*
X180044142Y-76184549D01*
X180355451Y-76495858D01*
X180721511Y-76740451D01*
X181128255Y-76908930D01*
X181560052Y-76994820D01*
X182000308Y-76994820D01*
X182432105Y-76908930D01*
X182838849Y-76740451D01*
X183204909Y-76495858D01*
X183516218Y-76184549D01*
X183760811Y-75818489D01*
X183929290Y-75411745D01*
X184015180Y-74979948D01*
X184015180Y-74539692D01*
X183929290Y-74107895D01*
X183760811Y-73701151D01*
X183516218Y-73335091D01*
X183204909Y-73023782D01*
X182838849Y-72779189D01*
X182432105Y-72610710D01*
X182000308Y-72524820D01*
X181560052Y-72524820D01*
X181128255Y-72610710D01*
X180721511Y-72779189D01*
X180355451Y-73023782D01*
X180044142Y-73335091D01*
X179799549Y-73701151D01*
X179631070Y-74107895D01*
X179545180Y-74539692D01*
X156075180Y-74539692D01*
X155989290Y-74107895D01*
X155820811Y-73701151D01*
X155576218Y-73335091D01*
X155264909Y-73023782D01*
X154898849Y-72779189D01*
X154492105Y-72610710D01*
X154060308Y-72524820D01*
X153620052Y-72524820D01*
X153188255Y-72610710D01*
X152781511Y-72779189D01*
X152415451Y-73023782D01*
X152104142Y-73335091D01*
X151859549Y-73701151D01*
X151691070Y-74107895D01*
X151605180Y-74539692D01*
X145685000Y-74539692D01*
X145685000Y-72185000D01*
X199315001Y-72185000D01*
X199315000Y-144315000D01*
X199315000Y-144315000D01*
G37*
X199315000Y-144315000D02*
X145685000Y-144315000D01*
X145685000Y-142158699D01*
X159070906Y-142158699D01*
X159339572Y-142570267D01*
X159873872Y-142854567D01*
X160453369Y-143029168D01*
X161055795Y-143087360D01*
X161657998Y-143026907D01*
X162236836Y-142850132D01*
X162760428Y-142570267D01*
X163029094Y-142158699D01*
X182570906Y-142158699D01*
X182839572Y-142570267D01*
X183373872Y-142854567D01*
X183953369Y-143029168D01*
X184555795Y-143087360D01*
X185157998Y-143026907D01*
X185736836Y-142850132D01*
X186260428Y-142570267D01*
X186529094Y-142158699D01*
X184550000Y-140179605D01*
X182570906Y-142158699D01*
X163029094Y-142158699D01*
X161050000Y-140179605D01*
X159070906Y-142158699D01*
X145685000Y-142158699D01*
X145685000Y-140005795D01*
X157962640Y-140005795D01*
X158023093Y-140607998D01*
X158199868Y-141186836D01*
X158479733Y-141710428D01*
X158891301Y-141979094D01*
X160870395Y-140000000D01*
X161229605Y-140000000D01*
X163208699Y-141979094D01*
X163620267Y-141710428D01*
X163904567Y-141176128D01*
X164079168Y-140596631D01*
X164137360Y-139994205D01*
X164076907Y-139392002D01*
X163900132Y-138813164D01*
X163620267Y-138289572D01*
X163208699Y-138020906D01*
X161229605Y-140000000D01*
X160870395Y-140000000D01*
X158891301Y-138020906D01*
X158479733Y-138289572D01*
X158195433Y-138823872D01*
X158020832Y-139403369D01*
X157962640Y-140005795D01*
X145685000Y-140005795D01*
X145685000Y-137841301D01*
X159070906Y-137841301D01*
X161050000Y-139820395D01*
X163029094Y-137841301D01*
X162760428Y-137429733D01*
X162226128Y-137145433D01*
X161646631Y-136970832D01*
X161044205Y-136912640D01*
X160442002Y-136973093D01*
X159863164Y-137149868D01*
X159339572Y-137429733D01*
X159070906Y-137841301D01*
X145685000Y-137841301D01*
X145685000Y-135348816D01*
X165015000Y-135348816D01*
X165015000Y-135651184D01*
X165073989Y-135947743D01*
X165189701Y-136227095D01*
X165357688Y-136478505D01*
X165571495Y-136692312D01*
X165822905Y-136860299D01*
X166102257Y-136976011D01*
X166222858Y-137000000D01*
X166102257Y-137023989D01*
X165822905Y-137139701D01*
X165571495Y-137307688D01*
X165357688Y-137521495D01*
X165189701Y-137772905D01*
X165073989Y-138052257D01*
X165015000Y-138348816D01*
X165015000Y-138651184D01*
X165073989Y-138947743D01*
X165189701Y-139227095D01*
X165357688Y-139478505D01*
X165571495Y-139692312D01*
X165822905Y-139860299D01*
X166102257Y-139976011D01*
X166398816Y-140035000D01*
X166701184Y-140035000D01*
X166997743Y-139976011D01*
X167277095Y-139860299D01*
X167528505Y-139692312D01*
X167656737Y-139564080D01*
X168165525Y-139564080D01*
X168249208Y-139818261D01*
X168521775Y-139949158D01*
X168814642Y-140024365D01*
X169116553Y-140040991D01*
X169415907Y-139998397D01*
X169701199Y-139898222D01*
X169850792Y-139818261D01*
X169934475Y-139564080D01*
X170665525Y-139564080D01*
X170749208Y-139818261D01*
X171021775Y-139949158D01*
X171314642Y-140024365D01*
X171616553Y-140040991D01*
X171915907Y-139998397D01*
X172201199Y-139898222D01*
X172350792Y-139818261D01*
X172434475Y-139564080D01*
X173165525Y-139564080D01*
X173249208Y-139818261D01*
X173521775Y-139949158D01*
X173814642Y-140024365D01*
X174116553Y-140040991D01*
X174415907Y-139998397D01*
X174701199Y-139898222D01*
X174850792Y-139818261D01*
X174934475Y-139564080D01*
X175665525Y-139564080D01*
X175749208Y-139818261D01*
X176021775Y-139949158D01*
X176314642Y-140024365D01*
X176616553Y-140040991D01*
X176915907Y-139998397D01*
X177201199Y-139898222D01*
X177350792Y-139818261D01*
X177434475Y-139564080D01*
X176550000Y-138679605D01*
X175665525Y-139564080D01*
X174934475Y-139564080D01*
X174050000Y-138679605D01*
X173165525Y-139564080D01*
X172434475Y-139564080D01*
X171550000Y-138679605D01*
X170665525Y-139564080D01*
X169934475Y-139564080D01*
X169050000Y-138679605D01*
X168165525Y-139564080D01*
X167656737Y-139564080D01*
X167742312Y-139478505D01*
X167837738Y-139335690D01*
X167985920Y-139384475D01*
X168870395Y-138500000D01*
X169229605Y-138500000D01*
X170114080Y-139384475D01*
X170300000Y-139323265D01*
X170485920Y-139384475D01*
X171370395Y-138500000D01*
X171729605Y-138500000D01*
X172614080Y-139384475D01*
X172800000Y-139323265D01*
X172985920Y-139384475D01*
X173870395Y-138500000D01*
X174229605Y-138500000D01*
X175114080Y-139384475D01*
X175300000Y-139323265D01*
X175485920Y-139384475D01*
X176370395Y-138500000D01*
X175485920Y-137615525D01*
X175300000Y-137676735D01*
X175114080Y-137615525D01*
X174229605Y-138500000D01*
X173870395Y-138500000D01*
X172985920Y-137615525D01*
X172800000Y-137676735D01*
X172614080Y-137615525D01*
X171729605Y-138500000D01*
X171370395Y-138500000D01*
X170485920Y-137615525D01*
X170300000Y-137676735D01*
X170114080Y-137615525D01*
X169229605Y-138500000D01*
X168870395Y-138500000D01*
X167985920Y-137615525D01*
X167837738Y-137664310D01*
X167742312Y-137521495D01*
X167528505Y-137307688D01*
X167277095Y-137139701D01*
X166997743Y-137023989D01*
X166877142Y-137000000D01*
X166997743Y-136976011D01*
X167277095Y-136860299D01*
X167528505Y-136692312D01*
X167742312Y-136478505D01*
X167800000Y-136392169D01*
X167857688Y-136478505D01*
X168071495Y-136692312D01*
X168322905Y-136860299D01*
X168602257Y-136976011D01*
X168711391Y-136997719D01*
X168684093Y-137001603D01*
X168398801Y-137101778D01*
X168249208Y-137181739D01*
X168165525Y-137435920D01*
X169050000Y-138320395D01*
X169934475Y-137435920D01*
X169850792Y-137181739D01*
X169578225Y-137050842D01*
X169378887Y-136999653D01*
X169497743Y-136976011D01*
X169777095Y-136860299D01*
X170028505Y-136692312D01*
X170242312Y-136478505D01*
X170300000Y-136392169D01*
X170357688Y-136478505D01*
X170571495Y-136692312D01*
X170822905Y-136860299D01*
X171102257Y-136976011D01*
X171211391Y-136997719D01*
X171184093Y-137001603D01*
X170898801Y-137101778D01*
X170749208Y-137181739D01*
X170665525Y-137435920D01*
X171550000Y-138320395D01*
X172434475Y-137435920D01*
X172350792Y-137181739D01*
X172078225Y-137050842D01*
X171878887Y-136999653D01*
X171997743Y-136976011D01*
X172277095Y-136860299D01*
X172528505Y-136692312D01*
X172742312Y-136478505D01*
X172800000Y-136392169D01*
X172857688Y-136478505D01*
X173071495Y-136692312D01*
X173322905Y-136860299D01*
X173602257Y-136976011D01*
X173711391Y-136997719D01*
X173684093Y-137001603D01*
X173398801Y-137101778D01*
X173249208Y-137181739D01*
X173165525Y-137435920D01*
X174050000Y-138320395D01*
X174934475Y-137435920D01*
X174850792Y-137181739D01*
X174578225Y-137050842D01*
X174378887Y-136999653D01*
X174497743Y-136976011D01*
X174777095Y-136860299D01*
X175028505Y-136692312D01*
X175242312Y-136478505D01*
X175300000Y-136392169D01*
X175357688Y-136478505D01*
X175571495Y-136692312D01*
X175822905Y-136860299D01*
X176102257Y-136976011D01*
X176211391Y-136997719D01*
X176184093Y-137001603D01*
X175898801Y-137101778D01*
X175749208Y-137181739D01*
X175665525Y-137435920D01*
X176550000Y-138320395D01*
X177434475Y-137435920D01*
X177350792Y-137181739D01*
X177078225Y-137050842D01*
X176878887Y-136999653D01*
X176997743Y-136976011D01*
X177277095Y-136860299D01*
X177528505Y-136692312D01*
X177742312Y-136478505D01*
X177800000Y-136392169D01*
X177857688Y-136478505D01*
X178071495Y-136692312D01*
X178322905Y-136860299D01*
X178602257Y-136976011D01*
X178722858Y-137000000D01*
X178602257Y-137023989D01*
X178322905Y-137139701D01*
X178071495Y-137307688D01*
X177857688Y-137521495D01*
X177762262Y-137664310D01*
X177614080Y-137615525D01*
X176729605Y-138500000D01*
X177614080Y-139384475D01*
X177762262Y-139335690D01*
X177857688Y-139478505D01*
X178071495Y-139692312D01*
X178322905Y-139860299D01*
X178602257Y-139976011D01*
X178898816Y-140035000D01*
X179201184Y-140035000D01*
X179348008Y-140005795D01*
X181462640Y-140005795D01*
X181523093Y-140607998D01*
X181699868Y-141186836D01*
X181979733Y-141710428D01*
X182391301Y-141979094D01*
X184370395Y-140000000D01*
X184729605Y-140000000D01*
X186708699Y-141979094D01*
X187120267Y-141710428D01*
X187404567Y-141176128D01*
X187579168Y-140596631D01*
X187637360Y-139994205D01*
X187576907Y-139392002D01*
X187400132Y-138813164D01*
X187120267Y-138289572D01*
X186708699Y-138020906D01*
X184729605Y-140000000D01*
X184370395Y-140000000D01*
X182391301Y-138020906D01*
X181979733Y-138289572D01*
X181695433Y-138823872D01*
X181520832Y-139403369D01*
X181462640Y-140005795D01*
X179348008Y-140005795D01*
X179497743Y-139976011D01*
X179777095Y-139860299D01*
X180028505Y-139692312D01*
X180242312Y-139478505D01*
X180410299Y-139227095D01*
X180526011Y-138947743D01*
X180585000Y-138651184D01*
X180585000Y-138348816D01*
X180526011Y-138052257D01*
X180438630Y-137841301D01*
X182570906Y-137841301D01*
X184550000Y-139820395D01*
X186529094Y-137841301D01*
X186260428Y-137429733D01*
X185726128Y-137145433D01*
X185146631Y-136970832D01*
X184544205Y-136912640D01*
X183942002Y-136973093D01*
X183363164Y-137149868D01*
X182839572Y-137429733D01*
X182570906Y-137841301D01*
X180438630Y-137841301D01*
X180410299Y-137772905D01*
X180242312Y-137521495D01*
X180028505Y-137307688D01*
X179777095Y-137139701D01*
X179497743Y-137023989D01*
X179377142Y-137000000D01*
X179497743Y-136976011D01*
X179777095Y-136860299D01*
X180028505Y-136692312D01*
X180242312Y-136478505D01*
X180410299Y-136227095D01*
X180526011Y-135947743D01*
X180585000Y-135651184D01*
X180585000Y-135348816D01*
X180526011Y-135052257D01*
X180410299Y-134772905D01*
X180242312Y-134521495D01*
X180028505Y-134307688D01*
X179777095Y-134139701D01*
X179497743Y-134023989D01*
X179201184Y-133965000D01*
X178898816Y-133965000D01*
X178602257Y-134023989D01*
X178322905Y-134139701D01*
X178071495Y-134307688D01*
X177857688Y-134521495D01*
X177800000Y-134607831D01*
X177742312Y-134521495D01*
X177528505Y-134307688D01*
X177277095Y-134139701D01*
X176997743Y-134023989D01*
X176701184Y-133965000D01*
X176398816Y-133965000D01*
X176102257Y-134023989D01*
X175822905Y-134139701D01*
X175571495Y-134307688D01*
X175357688Y-134521495D01*
X175300000Y-134607831D01*
X175242312Y-134521495D01*
X175028505Y-134307688D01*
X174777095Y-134139701D01*
X174497743Y-134023989D01*
X174201184Y-133965000D01*
X173898816Y-133965000D01*
X173602257Y-134023989D01*
X173322905Y-134139701D01*
X173071495Y-134307688D01*
X172857688Y-134521495D01*
X172800000Y-134607831D01*
X172742312Y-134521495D01*
X172528505Y-134307688D01*
X172277095Y-134139701D01*
X171997743Y-134023989D01*
X171701184Y-133965000D01*
X171398816Y-133965000D01*
X171102257Y-134023989D01*
X170822905Y-134139701D01*
X170571495Y-134307688D01*
X170357688Y-134521495D01*
X170300000Y-134607831D01*
X170242312Y-134521495D01*
X170028505Y-134307688D01*
X169777095Y-134139701D01*
X169497743Y-134023989D01*
X169201184Y-133965000D01*
X168898816Y-133965000D01*
X168602257Y-134023989D01*
X168322905Y-134139701D01*
X168071495Y-134307688D01*
X167857688Y-134521495D01*
X167800000Y-134607831D01*
X167742312Y-134521495D01*
X167528505Y-134307688D01*
X167277095Y-134139701D01*
X166997743Y-134023989D01*
X166701184Y-133965000D01*
X166398816Y-133965000D01*
X166102257Y-134023989D01*
X165822905Y-134139701D01*
X165571495Y-134307688D01*
X165357688Y-134521495D01*
X165189701Y-134772905D01*
X165073989Y-135052257D01*
X165015000Y-135348816D01*
X145685000Y-135348816D01*
X145685000Y-126609692D01*
X146525180Y-126609692D01*
X146525180Y-127049948D01*
X146611070Y-127481745D01*
X146779549Y-127888489D01*
X147024142Y-128254549D01*
X147335451Y-128565858D01*
X147701511Y-128810451D01*
X148108255Y-128978930D01*
X148540052Y-129064820D01*
X148980308Y-129064820D01*
X149412105Y-128978930D01*
X149818849Y-128810451D01*
X150184909Y-128565858D01*
X150496218Y-128254549D01*
X150740811Y-127888489D01*
X150909290Y-127481745D01*
X150995180Y-127049948D01*
X150995180Y-126609692D01*
X150909290Y-126177895D01*
X150740811Y-125771151D01*
X150496218Y-125405091D01*
X150430819Y-125339692D01*
X194785180Y-125339692D01*
X194785180Y-125779948D01*
X194871070Y-126211745D01*
X195039549Y-126618489D01*
X195284142Y-126984549D01*
X195595451Y-127295858D01*
X195961511Y-127540451D01*
X196368255Y-127708930D01*
X196800052Y-127794820D01*
X197240308Y-127794820D01*
X197672105Y-127708930D01*
X198078849Y-127540451D01*
X198444909Y-127295858D01*
X198756218Y-126984549D01*
X199000811Y-126618489D01*
X199169290Y-126211745D01*
X199255180Y-125779948D01*
X199255180Y-125339692D01*
X199169290Y-124907895D01*
X199000811Y-124501151D01*
X198756218Y-124135091D01*
X198444909Y-123823782D01*
X198078849Y-123579189D01*
X197672105Y-123410710D01*
X197454929Y-123367511D01*
X197571988Y-123332002D01*
X197821281Y-123198752D01*
X198039788Y-123019428D01*
X198219112Y-122800921D01*
X198352362Y-122551628D01*
X198434416Y-122281129D01*
X198462123Y-121999820D01*
X198434416Y-121718511D01*
X198352362Y-121448012D01*
X198219112Y-121198719D01*
X198039788Y-120980212D01*
X197821281Y-120800888D01*
X197688322Y-120729820D01*
X197821281Y-120658752D01*
X198039788Y-120479428D01*
X198219112Y-120260921D01*
X198352362Y-120011628D01*
X198434416Y-119741129D01*
X198462123Y-119459820D01*
X198434416Y-119178511D01*
X198352362Y-118908012D01*
X198219112Y-118658719D01*
X198039788Y-118440212D01*
X197821281Y-118260888D01*
X197688322Y-118189820D01*
X197821281Y-118118752D01*
X198039788Y-117939428D01*
X198219112Y-117720921D01*
X198352362Y-117471628D01*
X198434416Y-117201129D01*
X198462123Y-116919820D01*
X198434416Y-116638511D01*
X198352362Y-116368012D01*
X198219112Y-116118719D01*
X198039788Y-115900212D01*
X197821281Y-115720888D01*
X197683498Y-115647241D01*
X197875311Y-115532205D01*
X198083699Y-115343234D01*
X198251217Y-115117240D01*
X198371426Y-114862907D01*
X198412084Y-114728859D01*
X198290095Y-114506820D01*
X197147180Y-114506820D01*
X197147180Y-114526820D01*
X196893180Y-114526820D01*
X196893180Y-114506820D01*
X195750265Y-114506820D01*
X195628276Y-114728859D01*
X195668934Y-114862907D01*
X195789143Y-115117240D01*
X195956661Y-115343234D01*
X196165049Y-115532205D01*
X196356862Y-115647241D01*
X196219079Y-115720888D01*
X196000572Y-115900212D01*
X195821248Y-116118719D01*
X195687998Y-116368012D01*
X195605944Y-116638511D01*
X195578237Y-116919820D01*
X195605944Y-117201129D01*
X195687998Y-117471628D01*
X195821248Y-117720921D01*
X196000572Y-117939428D01*
X196219079Y-118118752D01*
X196352038Y-118189820D01*
X196219079Y-118260888D01*
X196000572Y-118440212D01*
X195821248Y-118658719D01*
X195687998Y-118908012D01*
X195605944Y-119178511D01*
X195578237Y-119459820D01*
X195605944Y-119741129D01*
X195687998Y-120011628D01*
X195821248Y-120260921D01*
X196000572Y-120479428D01*
X196219079Y-120658752D01*
X196352038Y-120729820D01*
X196219079Y-120800888D01*
X196000572Y-120980212D01*
X195821248Y-121198719D01*
X195687998Y-121448012D01*
X195605944Y-121718511D01*
X195578237Y-121999820D01*
X195605944Y-122281129D01*
X195687998Y-122551628D01*
X195821248Y-122800921D01*
X196000572Y-123019428D01*
X196219079Y-123198752D01*
X196468372Y-123332002D01*
X196585431Y-123367511D01*
X196368255Y-123410710D01*
X195961511Y-123579189D01*
X195595451Y-123823782D01*
X195284142Y-124135091D01*
X195039549Y-124501151D01*
X194871070Y-124907895D01*
X194785180Y-125339692D01*
X150430819Y-125339692D01*
X150184909Y-125093782D01*
X149818849Y-124849189D01*
X149412105Y-124680710D01*
X148980308Y-124594820D01*
X148540052Y-124594820D01*
X148108255Y-124680710D01*
X147701511Y-124849189D01*
X147335451Y-125093782D01*
X147024142Y-125405091D01*
X146779549Y-125771151D01*
X146611070Y-126177895D01*
X146525180Y-126609692D01*
X145685000Y-126609692D01*
X145685000Y-102699820D01*
X147318237Y-102699820D01*
X147345944Y-102981129D01*
X147427998Y-103251628D01*
X147561248Y-103500921D01*
X147740572Y-103719428D01*
X147959079Y-103898752D01*
X148092038Y-103969820D01*
X147959079Y-104040888D01*
X147740572Y-104220212D01*
X147561248Y-104438719D01*
X147427998Y-104688012D01*
X147345944Y-104958511D01*
X147318237Y-105239820D01*
X147345944Y-105521129D01*
X147427998Y-105791628D01*
X147561248Y-106040921D01*
X147740572Y-106259428D01*
X147959079Y-106438752D01*
X148092038Y-106509820D01*
X147959079Y-106580888D01*
X147740572Y-106760212D01*
X147561248Y-106978719D01*
X147427998Y-107228012D01*
X147345944Y-107498511D01*
X147318237Y-107779820D01*
X147345944Y-108061129D01*
X147427998Y-108331628D01*
X147561248Y-108580921D01*
X147740572Y-108799428D01*
X147959079Y-108978752D01*
X148092038Y-109049820D01*
X147959079Y-109120888D01*
X147740572Y-109300212D01*
X147561248Y-109518719D01*
X147427998Y-109768012D01*
X147345944Y-110038511D01*
X147318237Y-110319820D01*
X147345944Y-110601129D01*
X147427998Y-110871628D01*
X147561248Y-111120921D01*
X147740572Y-111339428D01*
X147853662Y-111432239D01*
X147835698Y-111434008D01*
X147716000Y-111470318D01*
X147605686Y-111529283D01*
X147508995Y-111608635D01*
X147429643Y-111705326D01*
X147370678Y-111815640D01*
X147334368Y-111935338D01*
X147322108Y-112059820D01*
X147322108Y-113659820D01*
X147334368Y-113784302D01*
X147370678Y-113904000D01*
X147429643Y-114014314D01*
X147508995Y-114111005D01*
X147605686Y-114190357D01*
X147716000Y-114249322D01*
X147835698Y-114285632D01*
X147960180Y-114297892D01*
X149560180Y-114297892D01*
X149684662Y-114285632D01*
X149804360Y-114249322D01*
X149914674Y-114190357D01*
X150011365Y-114111005D01*
X150090717Y-114014314D01*
X150149682Y-113904000D01*
X150185992Y-113784302D01*
X150198252Y-113659820D01*
X150198252Y-112059820D01*
X150185992Y-111935338D01*
X150149682Y-111815640D01*
X150090717Y-111705326D01*
X150011365Y-111608635D01*
X149914674Y-111529283D01*
X149804360Y-111470318D01*
X149684662Y-111434008D01*
X149666698Y-111432239D01*
X149779788Y-111339428D01*
X149959112Y-111120921D01*
X150092362Y-110871628D01*
X150174416Y-110601129D01*
X150202123Y-110319820D01*
X150174416Y-110038511D01*
X150092362Y-109768012D01*
X149959112Y-109518719D01*
X149779788Y-109300212D01*
X149561281Y-109120888D01*
X149428322Y-109049820D01*
X149561281Y-108978752D01*
X149779788Y-108799428D01*
X149959112Y-108580921D01*
X150092362Y-108331628D01*
X150174416Y-108061129D01*
X150202123Y-107779820D01*
X150174416Y-107498511D01*
X150092362Y-107228012D01*
X149959112Y-106978719D01*
X149779788Y-106760212D01*
X149561281Y-106580888D01*
X149428322Y-106509820D01*
X149561281Y-106438752D01*
X149779788Y-106259428D01*
X149959112Y-106040921D01*
X150092362Y-105791628D01*
X150174416Y-105521129D01*
X150202123Y-105239820D01*
X150174416Y-104958511D01*
X150092362Y-104688012D01*
X149959112Y-104438719D01*
X149779788Y-104220212D01*
X149561281Y-104040888D01*
X149428322Y-103969820D01*
X149561281Y-103898752D01*
X149779788Y-103719428D01*
X149959112Y-103500921D01*
X150092362Y-103251628D01*
X150174416Y-102981129D01*
X150202123Y-102699820D01*
X150174416Y-102418511D01*
X150092362Y-102148012D01*
X149959112Y-101898719D01*
X149779788Y-101680212D01*
X149561281Y-101500888D01*
X149423498Y-101427241D01*
X149615311Y-101312205D01*
X149823699Y-101123234D01*
X149991217Y-100897240D01*
X150111426Y-100642907D01*
X150152084Y-100508859D01*
X150030095Y-100286820D01*
X148887180Y-100286820D01*
X148887180Y-100306820D01*
X148633180Y-100306820D01*
X148633180Y-100286820D01*
X147490265Y-100286820D01*
X147368276Y-100508859D01*
X147408934Y-100642907D01*
X147529143Y-100897240D01*
X147696661Y-101123234D01*
X147905049Y-101312205D01*
X148096862Y-101427241D01*
X147959079Y-101500888D01*
X147740572Y-101680212D01*
X147561248Y-101898719D01*
X147427998Y-102148012D01*
X147345944Y-102418511D01*
X147318237Y-102699820D01*
X145685000Y-102699820D01*
X145685000Y-97968859D01*
X147368276Y-97968859D01*
X147408934Y-98102907D01*
X147529143Y-98357240D01*
X147696661Y-98583234D01*
X147905049Y-98772205D01*
X148101162Y-98889820D01*
X147905049Y-99007435D01*
X147696661Y-99196406D01*
X147529143Y-99422400D01*
X147408934Y-99676733D01*
X147368276Y-99810781D01*
X147490265Y-100032820D01*
X148633180Y-100032820D01*
X148633180Y-97746820D01*
X148887180Y-97746820D01*
X148887180Y-100032820D01*
X150030095Y-100032820D01*
X150152084Y-99810781D01*
X150111426Y-99676733D01*
X149991217Y-99422400D01*
X149823699Y-99196406D01*
X149615311Y-99007435D01*
X149419198Y-98889820D01*
X149615311Y-98772205D01*
X149823699Y-98583234D01*
X149991217Y-98357240D01*
X150111426Y-98102907D01*
X150152084Y-97968859D01*
X150030095Y-97746820D01*
X148887180Y-97746820D01*
X148633180Y-97746820D01*
X147490265Y-97746820D01*
X147368276Y-97968859D01*
X145685000Y-97968859D01*
X145685000Y-95079820D01*
X147318237Y-95079820D01*
X147345944Y-95361129D01*
X147427998Y-95631628D01*
X147561248Y-95880921D01*
X147740572Y-96099428D01*
X147959079Y-96278752D01*
X148096862Y-96352399D01*
X147905049Y-96467435D01*
X147696661Y-96656406D01*
X147529143Y-96882400D01*
X147408934Y-97136733D01*
X147368276Y-97270781D01*
X147490265Y-97492820D01*
X148633180Y-97492820D01*
X148633180Y-97472820D01*
X148887180Y-97472820D01*
X148887180Y-97492820D01*
X150030095Y-97492820D01*
X150152084Y-97270781D01*
X150111426Y-97136733D01*
X149991217Y-96882400D01*
X149823699Y-96656406D01*
X149615311Y-96467435D01*
X149423498Y-96352399D01*
X149561281Y-96278752D01*
X149779788Y-96099428D01*
X149959112Y-95880921D01*
X150092362Y-95631628D01*
X150174416Y-95361129D01*
X150202123Y-95079820D01*
X150174416Y-94798511D01*
X150092362Y-94528012D01*
X149959112Y-94278719D01*
X149894510Y-94200000D01*
X175710719Y-94200000D01*
X175727805Y-94373490D01*
X175778412Y-94540313D01*
X175840001Y-94655539D01*
X175840000Y-95762677D01*
X175836324Y-95800000D01*
X175840000Y-95837322D01*
X175840000Y-95837332D01*
X175850997Y-95948985D01*
X175885788Y-96063677D01*
X175894454Y-96092246D01*
X175965026Y-96224276D01*
X175998469Y-96265026D01*
X176059999Y-96340001D01*
X176089002Y-96363804D01*
X177136201Y-97411003D01*
X177159999Y-97440001D01*
X177188997Y-97463799D01*
X177275723Y-97534974D01*
X177348389Y-97573815D01*
X177407753Y-97605546D01*
X177551014Y-97649003D01*
X177662667Y-97660000D01*
X177662677Y-97660000D01*
X177700000Y-97663676D01*
X177737323Y-97660000D01*
X178186928Y-97660000D01*
X178186928Y-97725000D01*
X178199188Y-97849482D01*
X178206929Y-97875000D01*
X178199188Y-97900518D01*
X178186928Y-98025000D01*
X178186928Y-98375000D01*
X178199188Y-98499482D01*
X178206929Y-98525000D01*
X178199188Y-98550518D01*
X178186928Y-98675000D01*
X178186928Y-99025000D01*
X178199188Y-99149482D01*
X178206929Y-99175000D01*
X178199188Y-99200518D01*
X178186928Y-99325000D01*
X178186928Y-99675000D01*
X178199188Y-99799482D01*
X178206929Y-99825000D01*
X178199188Y-99850518D01*
X178186928Y-99975000D01*
X178186928Y-100325000D01*
X178199188Y-100449482D01*
X178235498Y-100569180D01*
X178294463Y-100679494D01*
X178373815Y-100776185D01*
X178470506Y-100855537D01*
X178580820Y-100914502D01*
X178700518Y-100950812D01*
X178825000Y-100963072D01*
X179875000Y-100963072D01*
X179999482Y-100950812D01*
X180055823Y-100933721D01*
X180086928Y-100936785D01*
X180086928Y-101177000D01*
X179598750Y-101177000D01*
X179440000Y-101335750D01*
X179437041Y-101562979D01*
X179446954Y-101687670D01*
X179481003Y-101808030D01*
X179537878Y-101919436D01*
X179615395Y-102017605D01*
X179710574Y-102098765D01*
X179819758Y-102159797D01*
X179938751Y-102198355D01*
X180043250Y-102210000D01*
X180202000Y-102051250D01*
X180202000Y-101938678D01*
X180273815Y-102026185D01*
X180298000Y-102046033D01*
X180298000Y-102051250D01*
X180456750Y-102210000D01*
X180561249Y-102198355D01*
X180576320Y-102193472D01*
X180600518Y-102200812D01*
X180725000Y-102213072D01*
X181075000Y-102213072D01*
X181199482Y-102200812D01*
X181225000Y-102193071D01*
X181250518Y-102200812D01*
X181375000Y-102213072D01*
X181725000Y-102213072D01*
X181849482Y-102200812D01*
X181875000Y-102193071D01*
X181900518Y-102200812D01*
X182025000Y-102213072D01*
X182375000Y-102213072D01*
X182499482Y-102200812D01*
X182525000Y-102193071D01*
X182550518Y-102200812D01*
X182675000Y-102213072D01*
X183025000Y-102213072D01*
X183149482Y-102200812D01*
X183175000Y-102193071D01*
X183200518Y-102200812D01*
X183325000Y-102213072D01*
X183675000Y-102213072D01*
X183799482Y-102200812D01*
X183825000Y-102193071D01*
X183850518Y-102200812D01*
X183975000Y-102213072D01*
X184325000Y-102213072D01*
X184449482Y-102200812D01*
X184569180Y-102164502D01*
X184679494Y-102105537D01*
X184776185Y-102026185D01*
X184855537Y-101929494D01*
X184914502Y-101819180D01*
X184950812Y-101699482D01*
X184963072Y-101575000D01*
X184963072Y-100963072D01*
X185575000Y-100963072D01*
X185699482Y-100950812D01*
X185819180Y-100914502D01*
X185929494Y-100855537D01*
X186026185Y-100776185D01*
X186105537Y-100679494D01*
X186164502Y-100569180D01*
X186200812Y-100449482D01*
X186213072Y-100325000D01*
X186213072Y-99975000D01*
X186200812Y-99850518D01*
X186193071Y-99825000D01*
X186200812Y-99799482D01*
X186213072Y-99675000D01*
X186213072Y-99610000D01*
X186774827Y-99610000D01*
X186930013Y-99842252D01*
X187157748Y-100069987D01*
X187425537Y-100248918D01*
X187723088Y-100372168D01*
X188038967Y-100435000D01*
X188361033Y-100435000D01*
X188676912Y-100372168D01*
X188974463Y-100248918D01*
X189242252Y-100069987D01*
X189469987Y-99842252D01*
X189648918Y-99574463D01*
X189772168Y-99276912D01*
X189799437Y-99139820D01*
X195578237Y-99139820D01*
X195605944Y-99421129D01*
X195687998Y-99691628D01*
X195821248Y-99940921D01*
X196000572Y-100159428D01*
X196219079Y-100338752D01*
X196352038Y-100409820D01*
X196219079Y-100480888D01*
X196000572Y-100660212D01*
X195821248Y-100878719D01*
X195687998Y-101128012D01*
X195605944Y-101398511D01*
X195578237Y-101679820D01*
X195605944Y-101961129D01*
X195687998Y-102231628D01*
X195821248Y-102480921D01*
X196000572Y-102699428D01*
X196219079Y-102878752D01*
X196352038Y-102949820D01*
X196219079Y-103020888D01*
X196000572Y-103200212D01*
X195821248Y-103418719D01*
X195687998Y-103668012D01*
X195605944Y-103938511D01*
X195578237Y-104219820D01*
X195605944Y-104501129D01*
X195687998Y-104771628D01*
X195821248Y-105020921D01*
X196000572Y-105239428D01*
X196219079Y-105418752D01*
X196352038Y-105489820D01*
X196219079Y-105560888D01*
X196000572Y-105740212D01*
X195821248Y-105958719D01*
X195687998Y-106208012D01*
X195605944Y-106478511D01*
X195578237Y-106759820D01*
X195605944Y-107041129D01*
X195687998Y-107311628D01*
X195821248Y-107560921D01*
X196000572Y-107779428D01*
X196219079Y-107958752D01*
X196352038Y-108029820D01*
X196219079Y-108100888D01*
X196000572Y-108280212D01*
X195821248Y-108498719D01*
X195687998Y-108748012D01*
X195605944Y-109018511D01*
X195578237Y-109299820D01*
X195605944Y-109581129D01*
X195687998Y-109851628D01*
X195821248Y-110100921D01*
X196000572Y-110319428D01*
X196219079Y-110498752D01*
X196352038Y-110569820D01*
X196219079Y-110640888D01*
X196000572Y-110820212D01*
X195821248Y-111038719D01*
X195687998Y-111288012D01*
X195605944Y-111558511D01*
X195578237Y-111839820D01*
X195605944Y-112121129D01*
X195687998Y-112391628D01*
X195821248Y-112640921D01*
X196000572Y-112859428D01*
X196219079Y-113038752D01*
X196356862Y-113112399D01*
X196165049Y-113227435D01*
X195956661Y-113416406D01*
X195789143Y-113642400D01*
X195668934Y-113896733D01*
X195628276Y-114030781D01*
X195750265Y-114252820D01*
X196893180Y-114252820D01*
X196893180Y-114232820D01*
X197147180Y-114232820D01*
X197147180Y-114252820D01*
X198290095Y-114252820D01*
X198412084Y-114030781D01*
X198371426Y-113896733D01*
X198251217Y-113642400D01*
X198083699Y-113416406D01*
X197875311Y-113227435D01*
X197683498Y-113112399D01*
X197821281Y-113038752D01*
X198039788Y-112859428D01*
X198219112Y-112640921D01*
X198352362Y-112391628D01*
X198434416Y-112121129D01*
X198462123Y-111839820D01*
X198434416Y-111558511D01*
X198352362Y-111288012D01*
X198219112Y-111038719D01*
X198039788Y-110820212D01*
X197821281Y-110640888D01*
X197688322Y-110569820D01*
X197821281Y-110498752D01*
X198039788Y-110319428D01*
X198219112Y-110100921D01*
X198352362Y-109851628D01*
X198434416Y-109581129D01*
X198462123Y-109299820D01*
X198434416Y-109018511D01*
X198352362Y-108748012D01*
X198219112Y-108498719D01*
X198039788Y-108280212D01*
X197821281Y-108100888D01*
X197688322Y-108029820D01*
X197821281Y-107958752D01*
X198039788Y-107779428D01*
X198219112Y-107560921D01*
X198352362Y-107311628D01*
X198434416Y-107041129D01*
X198462123Y-106759820D01*
X198434416Y-106478511D01*
X198352362Y-106208012D01*
X198219112Y-105958719D01*
X198039788Y-105740212D01*
X197821281Y-105560888D01*
X197688322Y-105489820D01*
X197821281Y-105418752D01*
X198039788Y-105239428D01*
X198219112Y-105020921D01*
X198352362Y-104771628D01*
X198434416Y-104501129D01*
X198462123Y-104219820D01*
X198434416Y-103938511D01*
X198352362Y-103668012D01*
X198219112Y-103418719D01*
X198039788Y-103200212D01*
X197821281Y-103020888D01*
X197688322Y-102949820D01*
X197821281Y-102878752D01*
X198039788Y-102699428D01*
X198219112Y-102480921D01*
X198352362Y-102231628D01*
X198434416Y-101961129D01*
X198462123Y-101679820D01*
X198434416Y-101398511D01*
X198352362Y-101128012D01*
X198219112Y-100878719D01*
X198039788Y-100660212D01*
X197821281Y-100480888D01*
X197688322Y-100409820D01*
X197821281Y-100338752D01*
X198039788Y-100159428D01*
X198219112Y-99940921D01*
X198352362Y-99691628D01*
X198434416Y-99421129D01*
X198462123Y-99139820D01*
X198434416Y-98858511D01*
X198352362Y-98588012D01*
X198219112Y-98338719D01*
X198039788Y-98120212D01*
X197821281Y-97940888D01*
X197571988Y-97807638D01*
X197301489Y-97725584D01*
X197090672Y-97704820D01*
X196949688Y-97704820D01*
X196738871Y-97725584D01*
X196468372Y-97807638D01*
X196219079Y-97940888D01*
X196000572Y-98120212D01*
X195821248Y-98338719D01*
X195687998Y-98588012D01*
X195605944Y-98858511D01*
X195578237Y-99139820D01*
X189799437Y-99139820D01*
X189835000Y-98961033D01*
X189835000Y-98638967D01*
X189772168Y-98323088D01*
X189648918Y-98025537D01*
X189469987Y-97757748D01*
X189242252Y-97530013D01*
X188974463Y-97351082D01*
X188676912Y-97227832D01*
X188361033Y-97165000D01*
X188038967Y-97165000D01*
X187723088Y-97227832D01*
X187425537Y-97351082D01*
X187157748Y-97530013D01*
X186930013Y-97757748D01*
X186751082Y-98025537D01*
X186724380Y-98090000D01*
X186213072Y-98090000D01*
X186213072Y-98025000D01*
X186200812Y-97900518D01*
X186193071Y-97875000D01*
X186200812Y-97849482D01*
X186213072Y-97725000D01*
X186213072Y-97375000D01*
X186200812Y-97250518D01*
X186193071Y-97225000D01*
X186200812Y-97199482D01*
X186213072Y-97075000D01*
X186213072Y-96725000D01*
X186200812Y-96600518D01*
X186193071Y-96575000D01*
X186200812Y-96549482D01*
X186213072Y-96425000D01*
X186213072Y-96075000D01*
X186200812Y-95950518D01*
X186164502Y-95830820D01*
X186105537Y-95720506D01*
X186026185Y-95623815D01*
X185929494Y-95544463D01*
X185819180Y-95485498D01*
X185699482Y-95449188D01*
X185575000Y-95436928D01*
X184963072Y-95436928D01*
X184963072Y-94825000D01*
X184950812Y-94700518D01*
X184914502Y-94580820D01*
X184855537Y-94470506D01*
X184776185Y-94373815D01*
X184679494Y-94294463D01*
X184569180Y-94235498D01*
X184449482Y-94199188D01*
X184325000Y-94186928D01*
X183975000Y-94186928D01*
X183850518Y-94199188D01*
X183825000Y-94206929D01*
X183799482Y-94199188D01*
X183741340Y-94193462D01*
X184275286Y-93659516D01*
X184400313Y-93621588D01*
X184554059Y-93539410D01*
X184655046Y-93456532D01*
X191880192Y-86231387D01*
X191880197Y-86231381D01*
X195592002Y-82519577D01*
X195605944Y-82661129D01*
X195687998Y-82931628D01*
X195821248Y-83180921D01*
X196000572Y-83399428D01*
X196219079Y-83578752D01*
X196352038Y-83649820D01*
X196219079Y-83720888D01*
X196000572Y-83900212D01*
X195821248Y-84118719D01*
X195687998Y-84368012D01*
X195605944Y-84638511D01*
X195578237Y-84919820D01*
X195605944Y-85201129D01*
X195687998Y-85471628D01*
X195821248Y-85720921D01*
X196000572Y-85939428D01*
X196219079Y-86118752D01*
X196352038Y-86189820D01*
X196219079Y-86260888D01*
X196000572Y-86440212D01*
X195821248Y-86658719D01*
X195687998Y-86908012D01*
X195605944Y-87178511D01*
X195578237Y-87459820D01*
X195605944Y-87741129D01*
X195687998Y-88011628D01*
X195821248Y-88260921D01*
X196000572Y-88479428D01*
X196219079Y-88658752D01*
X196352038Y-88729820D01*
X196219079Y-88800888D01*
X196000572Y-88980212D01*
X195821248Y-89198719D01*
X195687998Y-89448012D01*
X195605944Y-89718511D01*
X195578237Y-89999820D01*
X195605944Y-90281129D01*
X195687998Y-90551628D01*
X195821248Y-90800921D01*
X196000572Y-91019428D01*
X196219079Y-91198752D01*
X196352038Y-91269820D01*
X196219079Y-91340888D01*
X196000572Y-91520212D01*
X195821248Y-91738719D01*
X195687998Y-91988012D01*
X195605944Y-92258511D01*
X195578237Y-92539820D01*
X195605944Y-92821129D01*
X195687998Y-93091628D01*
X195821248Y-93340921D01*
X196000572Y-93559428D01*
X196219079Y-93738752D01*
X196352038Y-93809820D01*
X196219079Y-93880888D01*
X196000572Y-94060212D01*
X195821248Y-94278719D01*
X195687998Y-94528012D01*
X195605944Y-94798511D01*
X195578237Y-95079820D01*
X195605944Y-95361129D01*
X195687998Y-95631628D01*
X195821248Y-95880921D01*
X196000572Y-96099428D01*
X196219079Y-96278752D01*
X196468372Y-96412002D01*
X196738871Y-96494056D01*
X196949688Y-96514820D01*
X197090672Y-96514820D01*
X197301489Y-96494056D01*
X197571988Y-96412002D01*
X197821281Y-96278752D01*
X198039788Y-96099428D01*
X198219112Y-95880921D01*
X198352362Y-95631628D01*
X198434416Y-95361129D01*
X198462123Y-95079820D01*
X198434416Y-94798511D01*
X198352362Y-94528012D01*
X198219112Y-94278719D01*
X198039788Y-94060212D01*
X197821281Y-93880888D01*
X197688322Y-93809820D01*
X197821281Y-93738752D01*
X198039788Y-93559428D01*
X198219112Y-93340921D01*
X198352362Y-93091628D01*
X198434416Y-92821129D01*
X198462123Y-92539820D01*
X198434416Y-92258511D01*
X198352362Y-91988012D01*
X198219112Y-91738719D01*
X198039788Y-91520212D01*
X197821281Y-91340888D01*
X197688322Y-91269820D01*
X197821281Y-91198752D01*
X198039788Y-91019428D01*
X198219112Y-90800921D01*
X198352362Y-90551628D01*
X198434416Y-90281129D01*
X198462123Y-89999820D01*
X198434416Y-89718511D01*
X198352362Y-89448012D01*
X198219112Y-89198719D01*
X198039788Y-88980212D01*
X197821281Y-88800888D01*
X197688322Y-88729820D01*
X197821281Y-88658752D01*
X198039788Y-88479428D01*
X198219112Y-88260921D01*
X198352362Y-88011628D01*
X198434416Y-87741129D01*
X198462123Y-87459820D01*
X198434416Y-87178511D01*
X198352362Y-86908012D01*
X198219112Y-86658719D01*
X198039788Y-86440212D01*
X197821281Y-86260888D01*
X197688322Y-86189820D01*
X197821281Y-86118752D01*
X198039788Y-85939428D01*
X198219112Y-85720921D01*
X198352362Y-85471628D01*
X198434416Y-85201129D01*
X198462123Y-84919820D01*
X198434416Y-84638511D01*
X198352362Y-84368012D01*
X198219112Y-84118719D01*
X198039788Y-83900212D01*
X197821281Y-83720888D01*
X197688322Y-83649820D01*
X197821281Y-83578752D01*
X198039788Y-83399428D01*
X198219112Y-83180921D01*
X198352362Y-82931628D01*
X198434416Y-82661129D01*
X198462123Y-82379820D01*
X198434416Y-82098511D01*
X198352362Y-81828012D01*
X198219112Y-81578719D01*
X198039788Y-81360212D01*
X197821281Y-81180888D01*
X197688322Y-81109820D01*
X197821281Y-81038752D01*
X198039788Y-80859428D01*
X198219112Y-80640921D01*
X198352362Y-80391628D01*
X198434416Y-80121129D01*
X198462123Y-79839820D01*
X198434416Y-79558511D01*
X198352362Y-79288012D01*
X198219112Y-79038719D01*
X198039788Y-78820212D01*
X197821281Y-78640888D01*
X197688322Y-78569820D01*
X197821281Y-78498752D01*
X198039788Y-78319428D01*
X198219112Y-78100921D01*
X198352362Y-77851628D01*
X198434416Y-77581129D01*
X198462123Y-77299820D01*
X198434416Y-77018511D01*
X198352362Y-76748012D01*
X198219112Y-76498719D01*
X198039788Y-76280212D01*
X197821281Y-76100888D01*
X197571988Y-75967638D01*
X197301489Y-75885584D01*
X197090672Y-75864820D01*
X196949688Y-75864820D01*
X196738871Y-75885584D01*
X196468372Y-75967638D01*
X196219079Y-76100888D01*
X196000572Y-76280212D01*
X195890102Y-76414820D01*
X193543649Y-76414820D01*
X193500180Y-76410539D01*
X193456711Y-76414820D01*
X193456703Y-76414820D01*
X193326690Y-76427625D01*
X193159867Y-76478231D01*
X193006121Y-76560409D01*
X192905133Y-76643288D01*
X192905131Y-76643290D01*
X192871363Y-76671003D01*
X192843650Y-76704771D01*
X175943468Y-93604954D01*
X175860590Y-93705941D01*
X175778412Y-93859687D01*
X175727805Y-94026510D01*
X175710719Y-94200000D01*
X149894510Y-94200000D01*
X149779788Y-94060212D01*
X149561281Y-93880888D01*
X149311988Y-93747638D01*
X149041489Y-93665584D01*
X148830672Y-93644820D01*
X148689688Y-93644820D01*
X148478871Y-93665584D01*
X148208372Y-93747638D01*
X147959079Y-93880888D01*
X147740572Y-94060212D01*
X147561248Y-94278719D01*
X147427998Y-94528012D01*
X147345944Y-94798511D01*
X147318237Y-95079820D01*
X145685000Y-95079820D01*
X145685000Y-93231880D01*
X163771728Y-93231880D01*
X163783988Y-93356362D01*
X163820298Y-93476060D01*
X163879263Y-93586374D01*
X163958615Y-93683065D01*
X164055306Y-93762417D01*
X164165620Y-93821382D01*
X164285318Y-93857692D01*
X164409800Y-93869952D01*
X164599050Y-93866880D01*
X164757800Y-93708130D01*
X164757800Y-92921380D01*
X165011800Y-92921380D01*
X165011800Y-93708130D01*
X165170550Y-93866880D01*
X165359800Y-93869952D01*
X165484282Y-93857692D01*
X165603980Y-93821382D01*
X165714294Y-93762417D01*
X165810985Y-93683065D01*
X165871543Y-93609275D01*
X165909335Y-93655325D01*
X166006026Y-93734677D01*
X166116340Y-93793642D01*
X166236038Y-93829952D01*
X166360520Y-93842212D01*
X166549770Y-93839140D01*
X166708520Y-93680390D01*
X166708520Y-92893640D01*
X166962520Y-92893640D01*
X166962520Y-93680390D01*
X167121270Y-93839140D01*
X167310520Y-93842212D01*
X167435002Y-93829952D01*
X167554700Y-93793642D01*
X167665014Y-93734677D01*
X167761705Y-93655325D01*
X167841057Y-93558634D01*
X167900022Y-93448320D01*
X167936332Y-93328622D01*
X167948592Y-93204140D01*
X167945520Y-93052390D01*
X167786770Y-92893640D01*
X166962520Y-92893640D01*
X166708520Y-92893640D01*
X165884270Y-92893640D01*
X165846290Y-92931620D01*
X165836050Y-92921380D01*
X165011800Y-92921380D01*
X164757800Y-92921380D01*
X163933550Y-92921380D01*
X163774800Y-93080130D01*
X163771728Y-93231880D01*
X145685000Y-93231880D01*
X145685000Y-77299820D01*
X147318237Y-77299820D01*
X147345944Y-77581129D01*
X147427998Y-77851628D01*
X147561248Y-78100921D01*
X147740572Y-78319428D01*
X147959079Y-78498752D01*
X148092038Y-78569820D01*
X147959079Y-78640888D01*
X147740572Y-78820212D01*
X147561248Y-79038719D01*
X147427998Y-79288012D01*
X147345944Y-79558511D01*
X147318237Y-79839820D01*
X147345944Y-80121129D01*
X147427998Y-80391628D01*
X147561248Y-80640921D01*
X147740572Y-80859428D01*
X147959079Y-81038752D01*
X148092038Y-81109820D01*
X147959079Y-81180888D01*
X147740572Y-81360212D01*
X147561248Y-81578719D01*
X147427998Y-81828012D01*
X147345944Y-82098511D01*
X147318237Y-82379820D01*
X147345944Y-82661129D01*
X147427998Y-82931628D01*
X147561248Y-83180921D01*
X147740572Y-83399428D01*
X147959079Y-83578752D01*
X148092038Y-83649820D01*
X147959079Y-83720888D01*
X147740572Y-83900212D01*
X147561248Y-84118719D01*
X147427998Y-84368012D01*
X147345944Y-84638511D01*
X147318237Y-84919820D01*
X147345944Y-85201129D01*
X147427998Y-85471628D01*
X147561248Y-85720921D01*
X147740572Y-85939428D01*
X147959079Y-86118752D01*
X148092038Y-86189820D01*
X147959079Y-86260888D01*
X147740572Y-86440212D01*
X147561248Y-86658719D01*
X147427998Y-86908012D01*
X147345944Y-87178511D01*
X147318237Y-87459820D01*
X147345944Y-87741129D01*
X147427998Y-88011628D01*
X147561248Y-88260921D01*
X147740572Y-88479428D01*
X147959079Y-88658752D01*
X148092038Y-88729820D01*
X147959079Y-88800888D01*
X147740572Y-88980212D01*
X147561248Y-89198719D01*
X147427998Y-89448012D01*
X147345944Y-89718511D01*
X147318237Y-89999820D01*
X147345944Y-90281129D01*
X147427998Y-90551628D01*
X147561248Y-90800921D01*
X147740572Y-91019428D01*
X147959079Y-91198752D01*
X148208372Y-91332002D01*
X148478871Y-91414056D01*
X148689688Y-91434820D01*
X148830672Y-91434820D01*
X149041489Y-91414056D01*
X149311988Y-91332002D01*
X149561281Y-91198752D01*
X149691065Y-91092241D01*
X161843200Y-91092241D01*
X161843200Y-91296119D01*
X161882974Y-91496078D01*
X161960995Y-91684436D01*
X162074263Y-91853954D01*
X162218426Y-91998117D01*
X162387944Y-92111385D01*
X162576302Y-92189406D01*
X162776261Y-92229180D01*
X162980139Y-92229180D01*
X163180098Y-92189406D01*
X163368456Y-92111385D01*
X163416654Y-92079180D01*
X163838215Y-92079180D01*
X163820298Y-92112700D01*
X163783988Y-92232398D01*
X163771728Y-92356880D01*
X163774800Y-92508630D01*
X163933550Y-92667380D01*
X164757800Y-92667380D01*
X164757800Y-92647380D01*
X165011800Y-92647380D01*
X165011800Y-92667380D01*
X165836050Y-92667380D01*
X165874030Y-92629400D01*
X165884270Y-92639640D01*
X166708520Y-92639640D01*
X166708520Y-92619640D01*
X166962520Y-92619640D01*
X166962520Y-92639640D01*
X167786770Y-92639640D01*
X167945520Y-92480890D01*
X167948592Y-92329140D01*
X167936332Y-92204658D01*
X167900022Y-92084960D01*
X167895575Y-92076640D01*
X168462764Y-92076640D01*
X168576192Y-92111048D01*
X168743350Y-92127512D01*
X169255850Y-92127512D01*
X169423008Y-92111048D01*
X169583742Y-92062290D01*
X169731875Y-91983111D01*
X169861715Y-91876555D01*
X169968271Y-91746715D01*
X170047450Y-91598582D01*
X170096208Y-91437848D01*
X170112672Y-91270690D01*
X170112672Y-90833190D01*
X170096208Y-90666032D01*
X170047450Y-90505298D01*
X169968271Y-90357165D01*
X169892174Y-90264440D01*
X169968271Y-90171715D01*
X170047450Y-90023582D01*
X170096208Y-89862848D01*
X170112672Y-89695690D01*
X170112672Y-89258190D01*
X170096208Y-89091032D01*
X170080415Y-89038967D01*
X175765000Y-89038967D01*
X175765000Y-89361033D01*
X175827832Y-89676912D01*
X175951082Y-89974463D01*
X176130013Y-90242252D01*
X176357748Y-90469987D01*
X176625537Y-90648918D01*
X176923088Y-90772168D01*
X177238967Y-90835000D01*
X177561033Y-90835000D01*
X177876912Y-90772168D01*
X178174463Y-90648918D01*
X178442252Y-90469987D01*
X178669987Y-90242252D01*
X178848918Y-89974463D01*
X178972168Y-89676912D01*
X179035000Y-89361033D01*
X179035000Y-89038967D01*
X178972168Y-88723088D01*
X178848918Y-88425537D01*
X178669987Y-88157748D01*
X178442252Y-87930013D01*
X178174463Y-87751082D01*
X177876912Y-87627832D01*
X177561033Y-87565000D01*
X177238967Y-87565000D01*
X176923088Y-87627832D01*
X176625537Y-87751082D01*
X176357748Y-87930013D01*
X176130013Y-88157748D01*
X175951082Y-88425537D01*
X175827832Y-88723088D01*
X175765000Y-89038967D01*
X170080415Y-89038967D01*
X170047450Y-88930298D01*
X169968271Y-88782165D01*
X169861715Y-88652325D01*
X169731875Y-88545769D01*
X169603282Y-88477034D01*
X169600141Y-88473207D01*
X169563399Y-88428436D01*
X169563395Y-88428432D01*
X169539601Y-88399439D01*
X169510609Y-88375646D01*
X167880963Y-86746002D01*
X167857161Y-86716999D01*
X167741436Y-86622026D01*
X167609407Y-86551454D01*
X167466146Y-86507997D01*
X167354493Y-86497000D01*
X167354482Y-86497000D01*
X167317160Y-86493324D01*
X167287485Y-86496247D01*
X167242593Y-86482629D01*
X167103480Y-86468928D01*
X166453480Y-86468928D01*
X166314367Y-86482629D01*
X166180599Y-86523207D01*
X166094203Y-86569387D01*
X165614230Y-86572000D01*
X165455480Y-86730750D01*
X165455480Y-88105000D01*
X165475480Y-88105000D01*
X165475480Y-88359000D01*
X165455480Y-88359000D01*
X165455480Y-89733250D01*
X165614230Y-89892000D01*
X166018480Y-89894201D01*
X166018481Y-90330033D01*
X166013183Y-90334380D01*
X165673335Y-90334380D01*
X165617075Y-90288209D01*
X165468942Y-90209030D01*
X165308208Y-90160272D01*
X165141050Y-90143808D01*
X164628550Y-90143808D01*
X164461392Y-90160272D01*
X164300658Y-90209030D01*
X164152525Y-90288209D01*
X164126972Y-90309180D01*
X163416654Y-90309180D01*
X163368456Y-90276975D01*
X163180098Y-90198954D01*
X162980139Y-90159180D01*
X162776261Y-90159180D01*
X162576302Y-90198954D01*
X162387944Y-90276975D01*
X162218426Y-90390243D01*
X162074263Y-90534406D01*
X161960995Y-90703924D01*
X161882974Y-90892282D01*
X161843200Y-91092241D01*
X149691065Y-91092241D01*
X149779788Y-91019428D01*
X149959112Y-90800921D01*
X150092362Y-90551628D01*
X150174416Y-90281129D01*
X150202123Y-89999820D01*
X150174416Y-89718511D01*
X150119168Y-89536380D01*
X156545428Y-89536380D01*
X156557688Y-89660862D01*
X156593998Y-89780560D01*
X156652963Y-89890874D01*
X156732315Y-89987565D01*
X156829006Y-90066917D01*
X156939320Y-90125882D01*
X157059018Y-90162192D01*
X157183500Y-90174452D01*
X157372750Y-90171380D01*
X157531500Y-90012630D01*
X157531500Y-89225880D01*
X157785500Y-89225880D01*
X157785500Y-90012630D01*
X157944250Y-90171380D01*
X158133500Y-90174452D01*
X158257982Y-90162192D01*
X158377680Y-90125882D01*
X158487994Y-90066917D01*
X158584685Y-89987565D01*
X158664037Y-89890874D01*
X158715403Y-89794776D01*
X158758623Y-89875634D01*
X158837975Y-89972325D01*
X158934666Y-90051677D01*
X159044980Y-90110642D01*
X159164678Y-90146952D01*
X159289160Y-90159212D01*
X159478410Y-90156140D01*
X159637160Y-89997390D01*
X159637160Y-89210640D01*
X158812910Y-89210640D01*
X158703710Y-89319840D01*
X158609750Y-89225880D01*
X157785500Y-89225880D01*
X157531500Y-89225880D01*
X156707250Y-89225880D01*
X156548500Y-89384630D01*
X156545428Y-89536380D01*
X150119168Y-89536380D01*
X150092362Y-89448012D01*
X149959112Y-89198719D01*
X149779788Y-88980212D01*
X149561281Y-88800888D01*
X149428322Y-88729820D01*
X149561281Y-88658752D01*
X149779788Y-88479428D01*
X149959112Y-88260921D01*
X150092362Y-88011628D01*
X150174416Y-87741129D01*
X150202123Y-87459820D01*
X150186888Y-87305130D01*
X156545428Y-87305130D01*
X156545428Y-87742630D01*
X156561892Y-87909788D01*
X156610650Y-88070522D01*
X156689829Y-88218655D01*
X156707600Y-88240310D01*
X156652963Y-88306886D01*
X156593998Y-88417200D01*
X156557688Y-88536898D01*
X156545428Y-88661380D01*
X156548500Y-88813130D01*
X156707250Y-88971880D01*
X157531500Y-88971880D01*
X157531500Y-88951880D01*
X157785500Y-88951880D01*
X157785500Y-88971880D01*
X158609750Y-88971880D01*
X158718950Y-88862680D01*
X158812910Y-88956640D01*
X159637160Y-88956640D01*
X159637160Y-88936640D01*
X159891160Y-88936640D01*
X159891160Y-88956640D01*
X159911160Y-88956640D01*
X159911160Y-89210640D01*
X159891160Y-89210640D01*
X159891160Y-89997390D01*
X160049910Y-90156140D01*
X160239160Y-90159212D01*
X160363642Y-90146952D01*
X160483340Y-90110642D01*
X160593654Y-90051677D01*
X160690345Y-89972325D01*
X160769697Y-89875634D01*
X160828662Y-89765320D01*
X160848114Y-89701197D01*
X160896069Y-89790915D01*
X161002625Y-89920755D01*
X161132465Y-90027311D01*
X161280598Y-90106490D01*
X161441332Y-90155248D01*
X161608490Y-90171712D01*
X162120990Y-90171712D01*
X162288148Y-90155248D01*
X162448882Y-90106490D01*
X162597015Y-90027311D01*
X162670505Y-89967000D01*
X163366992Y-89967000D01*
X163414367Y-89981371D01*
X163553480Y-89995072D01*
X164203480Y-89995072D01*
X164342593Y-89981371D01*
X164476361Y-89940793D01*
X164562757Y-89894613D01*
X165042730Y-89892000D01*
X165201480Y-89733250D01*
X165201480Y-88359000D01*
X165181480Y-88359000D01*
X165181480Y-88105000D01*
X165201480Y-88105000D01*
X165201480Y-86730750D01*
X165042730Y-86572000D01*
X164663963Y-86569938D01*
X164717205Y-86490256D01*
X164795226Y-86301898D01*
X164835000Y-86101939D01*
X164835000Y-85898061D01*
X164795226Y-85698102D01*
X164717205Y-85509744D01*
X164603937Y-85340226D01*
X164459774Y-85196063D01*
X164290256Y-85082795D01*
X164101898Y-85004774D01*
X163901939Y-84965000D01*
X163698061Y-84965000D01*
X163498102Y-85004774D01*
X163309744Y-85082795D01*
X163140226Y-85196063D01*
X162996063Y-85340226D01*
X162882795Y-85509744D01*
X162804774Y-85698102D01*
X162765000Y-85898061D01*
X162765000Y-86101939D01*
X162804774Y-86301898D01*
X162882795Y-86490256D01*
X162887301Y-86497000D01*
X162403422Y-86497000D01*
X162288148Y-86462032D01*
X162120990Y-86445568D01*
X161608490Y-86445568D01*
X161441332Y-86462032D01*
X161280598Y-86510790D01*
X161132465Y-86589969D01*
X161076205Y-86636140D01*
X160567926Y-86636140D01*
X160496435Y-86577469D01*
X160348302Y-86498290D01*
X160187568Y-86449532D01*
X160020410Y-86433068D01*
X159507910Y-86433068D01*
X159340752Y-86449532D01*
X159180018Y-86498290D01*
X159031885Y-86577469D01*
X158975625Y-86623640D01*
X158428465Y-86623640D01*
X158390775Y-86592709D01*
X158242642Y-86513530D01*
X158081908Y-86464772D01*
X157914750Y-86448308D01*
X157402250Y-86448308D01*
X157235092Y-86464772D01*
X157074358Y-86513530D01*
X156926225Y-86592709D01*
X156796385Y-86699265D01*
X156689829Y-86829105D01*
X156610650Y-86977238D01*
X156561892Y-87137972D01*
X156545428Y-87305130D01*
X150186888Y-87305130D01*
X150174416Y-87178511D01*
X150092362Y-86908012D01*
X149959112Y-86658719D01*
X149779788Y-86440212D01*
X149561281Y-86260888D01*
X149428322Y-86189820D01*
X149561281Y-86118752D01*
X149779788Y-85939428D01*
X149959112Y-85720921D01*
X150092362Y-85471628D01*
X150174416Y-85201129D01*
X150202123Y-84919820D01*
X150174416Y-84638511D01*
X150092362Y-84368012D01*
X149959112Y-84118719D01*
X149779788Y-83900212D01*
X149561281Y-83720888D01*
X149428322Y-83649820D01*
X149561281Y-83578752D01*
X149779788Y-83399428D01*
X149959112Y-83180921D01*
X150092362Y-82931628D01*
X150174416Y-82661129D01*
X150202123Y-82379820D01*
X150174416Y-82098511D01*
X150092362Y-81828012D01*
X149959112Y-81578719D01*
X149779788Y-81360212D01*
X149561281Y-81180888D01*
X149428322Y-81109820D01*
X149561281Y-81038752D01*
X149779788Y-80859428D01*
X149959112Y-80640921D01*
X150092362Y-80391628D01*
X150174416Y-80121129D01*
X150202123Y-79839820D01*
X150174416Y-79558511D01*
X150092362Y-79288012D01*
X149959112Y-79038719D01*
X149779788Y-78820212D01*
X149561281Y-78640888D01*
X149428322Y-78569820D01*
X149561281Y-78498752D01*
X149779788Y-78319428D01*
X149959112Y-78100921D01*
X150092362Y-77851628D01*
X150174416Y-77581129D01*
X150202123Y-77299820D01*
X150174416Y-77018511D01*
X150092362Y-76748012D01*
X149959112Y-76498719D01*
X149779788Y-76280212D01*
X149561281Y-76100888D01*
X149311988Y-75967638D01*
X149041489Y-75885584D01*
X148830672Y-75864820D01*
X148689688Y-75864820D01*
X148478871Y-75885584D01*
X148208372Y-75967638D01*
X147959079Y-76100888D01*
X147740572Y-76280212D01*
X147561248Y-76498719D01*
X147427998Y-76748012D01*
X147345944Y-77018511D01*
X147318237Y-77299820D01*
X145685000Y-77299820D01*
X145685000Y-74539692D01*
X151605180Y-74539692D01*
X151605180Y-74979948D01*
X151691070Y-75411745D01*
X151859549Y-75818489D01*
X152104142Y-76184549D01*
X152415451Y-76495858D01*
X152781511Y-76740451D01*
X153188255Y-76908930D01*
X153620052Y-76994820D01*
X154060308Y-76994820D01*
X154492105Y-76908930D01*
X154898849Y-76740451D01*
X155264909Y-76495858D01*
X155576218Y-76184549D01*
X155820811Y-75818489D01*
X155989290Y-75411745D01*
X156075180Y-74979948D01*
X156075180Y-74539692D01*
X179545180Y-74539692D01*
X179545180Y-74979948D01*
X179631070Y-75411745D01*
X179799549Y-75818489D01*
X180044142Y-76184549D01*
X180355451Y-76495858D01*
X180721511Y-76740451D01*
X181128255Y-76908930D01*
X181560052Y-76994820D01*
X182000308Y-76994820D01*
X182432105Y-76908930D01*
X182838849Y-76740451D01*
X183204909Y-76495858D01*
X183516218Y-76184549D01*
X183760811Y-75818489D01*
X183929290Y-75411745D01*
X184015180Y-74979948D01*
X184015180Y-74539692D01*
X183929290Y-74107895D01*
X183760811Y-73701151D01*
X183516218Y-73335091D01*
X183204909Y-73023782D01*
X182838849Y-72779189D01*
X182432105Y-72610710D01*
X182000308Y-72524820D01*
X181560052Y-72524820D01*
X181128255Y-72610710D01*
X180721511Y-72779189D01*
X180355451Y-73023782D01*
X180044142Y-73335091D01*
X179799549Y-73701151D01*
X179631070Y-74107895D01*
X179545180Y-74539692D01*
X156075180Y-74539692D01*
X155989290Y-74107895D01*
X155820811Y-73701151D01*
X155576218Y-73335091D01*
X155264909Y-73023782D01*
X154898849Y-72779189D01*
X154492105Y-72610710D01*
X154060308Y-72524820D01*
X153620052Y-72524820D01*
X153188255Y-72610710D01*
X152781511Y-72779189D01*
X152415451Y-73023782D01*
X152104142Y-73335091D01*
X151859549Y-73701151D01*
X151691070Y-74107895D01*
X151605180Y-74539692D01*
X145685000Y-74539692D01*
X145685000Y-72185000D01*
X199315001Y-72185000D01*
X199315000Y-144315000D01*
G36*
X182327000Y-98073000D02*
G01*
X182347000Y-98073000D01*
X182347000Y-98327000D01*
X182327000Y-98327000D01*
X182327000Y-98347000D01*
X182073000Y-98347000D01*
X182073000Y-98327000D01*
X182053000Y-98327000D01*
X182053000Y-98073000D01*
X182073000Y-98073000D01*
X182073000Y-98053000D01*
X182327000Y-98053000D01*
X182327000Y-98073000D01*
X182327000Y-98073000D01*
G37*
X182327000Y-98073000D02*
X182347000Y-98073000D01*
X182347000Y-98327000D01*
X182327000Y-98327000D01*
X182327000Y-98347000D01*
X182073000Y-98347000D01*
X182073000Y-98327000D01*
X182053000Y-98327000D01*
X182053000Y-98073000D01*
X182073000Y-98073000D01*
X182073000Y-98053000D01*
X182327000Y-98053000D01*
X182327000Y-98073000D01*
M02*
