G04 #@! TF.GenerationSoftware,KiCad,Pcbnew,(5.1.2)-2*
G04 #@! TF.CreationDate,2020-03-09T10:51:38+01:00*
G04 #@! TF.ProjectId,Extension_PCB,45787465-6e73-4696-9f6e-5f5043422e6b,rev?*
G04 #@! TF.SameCoordinates,Original*
G04 #@! TF.FileFunction,Paste,Top*
G04 #@! TF.FilePolarity,Positive*
%FSLAX46Y46*%
G04 Gerber Fmt 4.6, Leading zero omitted, Abs format (unit mm)*
G04 Created by KiCad (PCBNEW (5.1.2)-2) date 2020-03-09 10:51:38*
%MOMM*%
%LPD*%
G04 APERTURE LIST*
%ADD10R,1.050000X0.350000*%
%ADD11R,0.350000X1.050000*%
%ADD12R,4.200000X4.200000*%
%ADD13C,0.100000*%
%ADD14C,0.300000*%
%ADD15C,0.690000*%
%ADD16C,0.875000*%
G04 APERTURE END LIST*
D10*
X185050000Y-100150000D03*
X185050000Y-99500000D03*
X185050000Y-98850000D03*
X185050000Y-98200000D03*
X185050000Y-97550000D03*
X185050000Y-96900000D03*
X185050000Y-96250000D03*
D11*
X184150000Y-95350000D03*
X183500000Y-95350000D03*
X182850000Y-95350000D03*
X182200000Y-95350000D03*
X181550000Y-95350000D03*
X180900000Y-95350000D03*
X180250000Y-95350000D03*
D10*
X179350000Y-96250000D03*
X179350000Y-96900000D03*
X179350000Y-97550000D03*
X179350000Y-98200000D03*
X179350000Y-98850000D03*
X179350000Y-99500000D03*
X179350000Y-100150000D03*
D11*
X180250000Y-101050000D03*
X180900000Y-101050000D03*
X181550000Y-101050000D03*
X182200000Y-101050000D03*
X182850000Y-101050000D03*
X183500000Y-101050000D03*
X184150000Y-101050000D03*
D12*
X182200000Y-98200000D03*
D13*
G36*
X167110831Y-87107361D02*
G01*
X167118112Y-87108441D01*
X167125251Y-87110229D01*
X167132181Y-87112709D01*
X167138835Y-87115856D01*
X167145148Y-87119640D01*
X167151059Y-87124024D01*
X167156513Y-87128967D01*
X167161456Y-87134421D01*
X167165840Y-87140332D01*
X167169624Y-87146645D01*
X167172771Y-87153299D01*
X167175251Y-87160229D01*
X167177039Y-87167368D01*
X167178119Y-87174649D01*
X167178480Y-87182000D01*
X167178480Y-87332000D01*
X167178119Y-87339351D01*
X167177039Y-87346632D01*
X167175251Y-87353771D01*
X167172771Y-87360701D01*
X167169624Y-87367355D01*
X167165840Y-87373668D01*
X167161456Y-87379579D01*
X167156513Y-87385033D01*
X167151059Y-87389976D01*
X167145148Y-87394360D01*
X167138835Y-87398144D01*
X167132181Y-87401291D01*
X167125251Y-87403771D01*
X167118112Y-87405559D01*
X167110831Y-87406639D01*
X167103480Y-87407000D01*
X166453480Y-87407000D01*
X166446129Y-87406639D01*
X166438848Y-87405559D01*
X166431709Y-87403771D01*
X166424779Y-87401291D01*
X166418125Y-87398144D01*
X166411812Y-87394360D01*
X166405901Y-87389976D01*
X166400447Y-87385033D01*
X166395504Y-87379579D01*
X166391120Y-87373668D01*
X166387336Y-87367355D01*
X166384189Y-87360701D01*
X166381709Y-87353771D01*
X166379921Y-87346632D01*
X166378841Y-87339351D01*
X166378480Y-87332000D01*
X166378480Y-87182000D01*
X166378841Y-87174649D01*
X166379921Y-87167368D01*
X166381709Y-87160229D01*
X166384189Y-87153299D01*
X166387336Y-87146645D01*
X166391120Y-87140332D01*
X166395504Y-87134421D01*
X166400447Y-87128967D01*
X166405901Y-87124024D01*
X166411812Y-87119640D01*
X166418125Y-87115856D01*
X166424779Y-87112709D01*
X166431709Y-87110229D01*
X166438848Y-87108441D01*
X166446129Y-87107361D01*
X166453480Y-87107000D01*
X167103480Y-87107000D01*
X167110831Y-87107361D01*
X167110831Y-87107361D01*
G37*
D14*
X166778480Y-87257000D03*
D13*
G36*
X167110831Y-87757361D02*
G01*
X167118112Y-87758441D01*
X167125251Y-87760229D01*
X167132181Y-87762709D01*
X167138835Y-87765856D01*
X167145148Y-87769640D01*
X167151059Y-87774024D01*
X167156513Y-87778967D01*
X167161456Y-87784421D01*
X167165840Y-87790332D01*
X167169624Y-87796645D01*
X167172771Y-87803299D01*
X167175251Y-87810229D01*
X167177039Y-87817368D01*
X167178119Y-87824649D01*
X167178480Y-87832000D01*
X167178480Y-87982000D01*
X167178119Y-87989351D01*
X167177039Y-87996632D01*
X167175251Y-88003771D01*
X167172771Y-88010701D01*
X167169624Y-88017355D01*
X167165840Y-88023668D01*
X167161456Y-88029579D01*
X167156513Y-88035033D01*
X167151059Y-88039976D01*
X167145148Y-88044360D01*
X167138835Y-88048144D01*
X167132181Y-88051291D01*
X167125251Y-88053771D01*
X167118112Y-88055559D01*
X167110831Y-88056639D01*
X167103480Y-88057000D01*
X166453480Y-88057000D01*
X166446129Y-88056639D01*
X166438848Y-88055559D01*
X166431709Y-88053771D01*
X166424779Y-88051291D01*
X166418125Y-88048144D01*
X166411812Y-88044360D01*
X166405901Y-88039976D01*
X166400447Y-88035033D01*
X166395504Y-88029579D01*
X166391120Y-88023668D01*
X166387336Y-88017355D01*
X166384189Y-88010701D01*
X166381709Y-88003771D01*
X166379921Y-87996632D01*
X166378841Y-87989351D01*
X166378480Y-87982000D01*
X166378480Y-87832000D01*
X166378841Y-87824649D01*
X166379921Y-87817368D01*
X166381709Y-87810229D01*
X166384189Y-87803299D01*
X166387336Y-87796645D01*
X166391120Y-87790332D01*
X166395504Y-87784421D01*
X166400447Y-87778967D01*
X166405901Y-87774024D01*
X166411812Y-87769640D01*
X166418125Y-87765856D01*
X166424779Y-87762709D01*
X166431709Y-87760229D01*
X166438848Y-87758441D01*
X166446129Y-87757361D01*
X166453480Y-87757000D01*
X167103480Y-87757000D01*
X167110831Y-87757361D01*
X167110831Y-87757361D01*
G37*
D14*
X166778480Y-87907000D03*
D13*
G36*
X167110831Y-88407361D02*
G01*
X167118112Y-88408441D01*
X167125251Y-88410229D01*
X167132181Y-88412709D01*
X167138835Y-88415856D01*
X167145148Y-88419640D01*
X167151059Y-88424024D01*
X167156513Y-88428967D01*
X167161456Y-88434421D01*
X167165840Y-88440332D01*
X167169624Y-88446645D01*
X167172771Y-88453299D01*
X167175251Y-88460229D01*
X167177039Y-88467368D01*
X167178119Y-88474649D01*
X167178480Y-88482000D01*
X167178480Y-88632000D01*
X167178119Y-88639351D01*
X167177039Y-88646632D01*
X167175251Y-88653771D01*
X167172771Y-88660701D01*
X167169624Y-88667355D01*
X167165840Y-88673668D01*
X167161456Y-88679579D01*
X167156513Y-88685033D01*
X167151059Y-88689976D01*
X167145148Y-88694360D01*
X167138835Y-88698144D01*
X167132181Y-88701291D01*
X167125251Y-88703771D01*
X167118112Y-88705559D01*
X167110831Y-88706639D01*
X167103480Y-88707000D01*
X166453480Y-88707000D01*
X166446129Y-88706639D01*
X166438848Y-88705559D01*
X166431709Y-88703771D01*
X166424779Y-88701291D01*
X166418125Y-88698144D01*
X166411812Y-88694360D01*
X166405901Y-88689976D01*
X166400447Y-88685033D01*
X166395504Y-88679579D01*
X166391120Y-88673668D01*
X166387336Y-88667355D01*
X166384189Y-88660701D01*
X166381709Y-88653771D01*
X166379921Y-88646632D01*
X166378841Y-88639351D01*
X166378480Y-88632000D01*
X166378480Y-88482000D01*
X166378841Y-88474649D01*
X166379921Y-88467368D01*
X166381709Y-88460229D01*
X166384189Y-88453299D01*
X166387336Y-88446645D01*
X166391120Y-88440332D01*
X166395504Y-88434421D01*
X166400447Y-88428967D01*
X166405901Y-88424024D01*
X166411812Y-88419640D01*
X166418125Y-88415856D01*
X166424779Y-88412709D01*
X166431709Y-88410229D01*
X166438848Y-88408441D01*
X166446129Y-88407361D01*
X166453480Y-88407000D01*
X167103480Y-88407000D01*
X167110831Y-88407361D01*
X167110831Y-88407361D01*
G37*
D14*
X166778480Y-88557000D03*
D13*
G36*
X167110831Y-89057361D02*
G01*
X167118112Y-89058441D01*
X167125251Y-89060229D01*
X167132181Y-89062709D01*
X167138835Y-89065856D01*
X167145148Y-89069640D01*
X167151059Y-89074024D01*
X167156513Y-89078967D01*
X167161456Y-89084421D01*
X167165840Y-89090332D01*
X167169624Y-89096645D01*
X167172771Y-89103299D01*
X167175251Y-89110229D01*
X167177039Y-89117368D01*
X167178119Y-89124649D01*
X167178480Y-89132000D01*
X167178480Y-89282000D01*
X167178119Y-89289351D01*
X167177039Y-89296632D01*
X167175251Y-89303771D01*
X167172771Y-89310701D01*
X167169624Y-89317355D01*
X167165840Y-89323668D01*
X167161456Y-89329579D01*
X167156513Y-89335033D01*
X167151059Y-89339976D01*
X167145148Y-89344360D01*
X167138835Y-89348144D01*
X167132181Y-89351291D01*
X167125251Y-89353771D01*
X167118112Y-89355559D01*
X167110831Y-89356639D01*
X167103480Y-89357000D01*
X166453480Y-89357000D01*
X166446129Y-89356639D01*
X166438848Y-89355559D01*
X166431709Y-89353771D01*
X166424779Y-89351291D01*
X166418125Y-89348144D01*
X166411812Y-89344360D01*
X166405901Y-89339976D01*
X166400447Y-89335033D01*
X166395504Y-89329579D01*
X166391120Y-89323668D01*
X166387336Y-89317355D01*
X166384189Y-89310701D01*
X166381709Y-89303771D01*
X166379921Y-89296632D01*
X166378841Y-89289351D01*
X166378480Y-89282000D01*
X166378480Y-89132000D01*
X166378841Y-89124649D01*
X166379921Y-89117368D01*
X166381709Y-89110229D01*
X166384189Y-89103299D01*
X166387336Y-89096645D01*
X166391120Y-89090332D01*
X166395504Y-89084421D01*
X166400447Y-89078967D01*
X166405901Y-89074024D01*
X166411812Y-89069640D01*
X166418125Y-89065856D01*
X166424779Y-89062709D01*
X166431709Y-89060229D01*
X166438848Y-89058441D01*
X166446129Y-89057361D01*
X166453480Y-89057000D01*
X167103480Y-89057000D01*
X167110831Y-89057361D01*
X167110831Y-89057361D01*
G37*
D14*
X166778480Y-89207000D03*
D13*
G36*
X164210831Y-89057361D02*
G01*
X164218112Y-89058441D01*
X164225251Y-89060229D01*
X164232181Y-89062709D01*
X164238835Y-89065856D01*
X164245148Y-89069640D01*
X164251059Y-89074024D01*
X164256513Y-89078967D01*
X164261456Y-89084421D01*
X164265840Y-89090332D01*
X164269624Y-89096645D01*
X164272771Y-89103299D01*
X164275251Y-89110229D01*
X164277039Y-89117368D01*
X164278119Y-89124649D01*
X164278480Y-89132000D01*
X164278480Y-89282000D01*
X164278119Y-89289351D01*
X164277039Y-89296632D01*
X164275251Y-89303771D01*
X164272771Y-89310701D01*
X164269624Y-89317355D01*
X164265840Y-89323668D01*
X164261456Y-89329579D01*
X164256513Y-89335033D01*
X164251059Y-89339976D01*
X164245148Y-89344360D01*
X164238835Y-89348144D01*
X164232181Y-89351291D01*
X164225251Y-89353771D01*
X164218112Y-89355559D01*
X164210831Y-89356639D01*
X164203480Y-89357000D01*
X163553480Y-89357000D01*
X163546129Y-89356639D01*
X163538848Y-89355559D01*
X163531709Y-89353771D01*
X163524779Y-89351291D01*
X163518125Y-89348144D01*
X163511812Y-89344360D01*
X163505901Y-89339976D01*
X163500447Y-89335033D01*
X163495504Y-89329579D01*
X163491120Y-89323668D01*
X163487336Y-89317355D01*
X163484189Y-89310701D01*
X163481709Y-89303771D01*
X163479921Y-89296632D01*
X163478841Y-89289351D01*
X163478480Y-89282000D01*
X163478480Y-89132000D01*
X163478841Y-89124649D01*
X163479921Y-89117368D01*
X163481709Y-89110229D01*
X163484189Y-89103299D01*
X163487336Y-89096645D01*
X163491120Y-89090332D01*
X163495504Y-89084421D01*
X163500447Y-89078967D01*
X163505901Y-89074024D01*
X163511812Y-89069640D01*
X163518125Y-89065856D01*
X163524779Y-89062709D01*
X163531709Y-89060229D01*
X163538848Y-89058441D01*
X163546129Y-89057361D01*
X163553480Y-89057000D01*
X164203480Y-89057000D01*
X164210831Y-89057361D01*
X164210831Y-89057361D01*
G37*
D14*
X163878480Y-89207000D03*
D13*
G36*
X164210831Y-88407361D02*
G01*
X164218112Y-88408441D01*
X164225251Y-88410229D01*
X164232181Y-88412709D01*
X164238835Y-88415856D01*
X164245148Y-88419640D01*
X164251059Y-88424024D01*
X164256513Y-88428967D01*
X164261456Y-88434421D01*
X164265840Y-88440332D01*
X164269624Y-88446645D01*
X164272771Y-88453299D01*
X164275251Y-88460229D01*
X164277039Y-88467368D01*
X164278119Y-88474649D01*
X164278480Y-88482000D01*
X164278480Y-88632000D01*
X164278119Y-88639351D01*
X164277039Y-88646632D01*
X164275251Y-88653771D01*
X164272771Y-88660701D01*
X164269624Y-88667355D01*
X164265840Y-88673668D01*
X164261456Y-88679579D01*
X164256513Y-88685033D01*
X164251059Y-88689976D01*
X164245148Y-88694360D01*
X164238835Y-88698144D01*
X164232181Y-88701291D01*
X164225251Y-88703771D01*
X164218112Y-88705559D01*
X164210831Y-88706639D01*
X164203480Y-88707000D01*
X163553480Y-88707000D01*
X163546129Y-88706639D01*
X163538848Y-88705559D01*
X163531709Y-88703771D01*
X163524779Y-88701291D01*
X163518125Y-88698144D01*
X163511812Y-88694360D01*
X163505901Y-88689976D01*
X163500447Y-88685033D01*
X163495504Y-88679579D01*
X163491120Y-88673668D01*
X163487336Y-88667355D01*
X163484189Y-88660701D01*
X163481709Y-88653771D01*
X163479921Y-88646632D01*
X163478841Y-88639351D01*
X163478480Y-88632000D01*
X163478480Y-88482000D01*
X163478841Y-88474649D01*
X163479921Y-88467368D01*
X163481709Y-88460229D01*
X163484189Y-88453299D01*
X163487336Y-88446645D01*
X163491120Y-88440332D01*
X163495504Y-88434421D01*
X163500447Y-88428967D01*
X163505901Y-88424024D01*
X163511812Y-88419640D01*
X163518125Y-88415856D01*
X163524779Y-88412709D01*
X163531709Y-88410229D01*
X163538848Y-88408441D01*
X163546129Y-88407361D01*
X163553480Y-88407000D01*
X164203480Y-88407000D01*
X164210831Y-88407361D01*
X164210831Y-88407361D01*
G37*
D14*
X163878480Y-88557000D03*
D13*
G36*
X164210831Y-87757361D02*
G01*
X164218112Y-87758441D01*
X164225251Y-87760229D01*
X164232181Y-87762709D01*
X164238835Y-87765856D01*
X164245148Y-87769640D01*
X164251059Y-87774024D01*
X164256513Y-87778967D01*
X164261456Y-87784421D01*
X164265840Y-87790332D01*
X164269624Y-87796645D01*
X164272771Y-87803299D01*
X164275251Y-87810229D01*
X164277039Y-87817368D01*
X164278119Y-87824649D01*
X164278480Y-87832000D01*
X164278480Y-87982000D01*
X164278119Y-87989351D01*
X164277039Y-87996632D01*
X164275251Y-88003771D01*
X164272771Y-88010701D01*
X164269624Y-88017355D01*
X164265840Y-88023668D01*
X164261456Y-88029579D01*
X164256513Y-88035033D01*
X164251059Y-88039976D01*
X164245148Y-88044360D01*
X164238835Y-88048144D01*
X164232181Y-88051291D01*
X164225251Y-88053771D01*
X164218112Y-88055559D01*
X164210831Y-88056639D01*
X164203480Y-88057000D01*
X163553480Y-88057000D01*
X163546129Y-88056639D01*
X163538848Y-88055559D01*
X163531709Y-88053771D01*
X163524779Y-88051291D01*
X163518125Y-88048144D01*
X163511812Y-88044360D01*
X163505901Y-88039976D01*
X163500447Y-88035033D01*
X163495504Y-88029579D01*
X163491120Y-88023668D01*
X163487336Y-88017355D01*
X163484189Y-88010701D01*
X163481709Y-88003771D01*
X163479921Y-87996632D01*
X163478841Y-87989351D01*
X163478480Y-87982000D01*
X163478480Y-87832000D01*
X163478841Y-87824649D01*
X163479921Y-87817368D01*
X163481709Y-87810229D01*
X163484189Y-87803299D01*
X163487336Y-87796645D01*
X163491120Y-87790332D01*
X163495504Y-87784421D01*
X163500447Y-87778967D01*
X163505901Y-87774024D01*
X163511812Y-87769640D01*
X163518125Y-87765856D01*
X163524779Y-87762709D01*
X163531709Y-87760229D01*
X163538848Y-87758441D01*
X163546129Y-87757361D01*
X163553480Y-87757000D01*
X164203480Y-87757000D01*
X164210831Y-87757361D01*
X164210831Y-87757361D01*
G37*
D14*
X163878480Y-87907000D03*
D13*
G36*
X164210831Y-87107361D02*
G01*
X164218112Y-87108441D01*
X164225251Y-87110229D01*
X164232181Y-87112709D01*
X164238835Y-87115856D01*
X164245148Y-87119640D01*
X164251059Y-87124024D01*
X164256513Y-87128967D01*
X164261456Y-87134421D01*
X164265840Y-87140332D01*
X164269624Y-87146645D01*
X164272771Y-87153299D01*
X164275251Y-87160229D01*
X164277039Y-87167368D01*
X164278119Y-87174649D01*
X164278480Y-87182000D01*
X164278480Y-87332000D01*
X164278119Y-87339351D01*
X164277039Y-87346632D01*
X164275251Y-87353771D01*
X164272771Y-87360701D01*
X164269624Y-87367355D01*
X164265840Y-87373668D01*
X164261456Y-87379579D01*
X164256513Y-87385033D01*
X164251059Y-87389976D01*
X164245148Y-87394360D01*
X164238835Y-87398144D01*
X164232181Y-87401291D01*
X164225251Y-87403771D01*
X164218112Y-87405559D01*
X164210831Y-87406639D01*
X164203480Y-87407000D01*
X163553480Y-87407000D01*
X163546129Y-87406639D01*
X163538848Y-87405559D01*
X163531709Y-87403771D01*
X163524779Y-87401291D01*
X163518125Y-87398144D01*
X163511812Y-87394360D01*
X163505901Y-87389976D01*
X163500447Y-87385033D01*
X163495504Y-87379579D01*
X163491120Y-87373668D01*
X163487336Y-87367355D01*
X163484189Y-87360701D01*
X163481709Y-87353771D01*
X163479921Y-87346632D01*
X163478841Y-87339351D01*
X163478480Y-87332000D01*
X163478480Y-87182000D01*
X163478841Y-87174649D01*
X163479921Y-87167368D01*
X163481709Y-87160229D01*
X163484189Y-87153299D01*
X163487336Y-87146645D01*
X163491120Y-87140332D01*
X163495504Y-87134421D01*
X163500447Y-87128967D01*
X163505901Y-87124024D01*
X163511812Y-87119640D01*
X163518125Y-87115856D01*
X163524779Y-87112709D01*
X163531709Y-87110229D01*
X163538848Y-87108441D01*
X163546129Y-87107361D01*
X163553480Y-87107000D01*
X164203480Y-87107000D01*
X164210831Y-87107361D01*
X164210831Y-87107361D01*
G37*
D14*
X163878480Y-87257000D03*
D13*
G36*
X165942888Y-88327831D02*
G01*
X165959633Y-88330315D01*
X165976054Y-88334428D01*
X165991993Y-88340131D01*
X166007296Y-88347369D01*
X166021816Y-88356071D01*
X166035413Y-88366156D01*
X166047956Y-88377524D01*
X166059324Y-88390067D01*
X166069409Y-88403664D01*
X166078111Y-88418184D01*
X166085349Y-88433487D01*
X166091052Y-88449426D01*
X166095165Y-88465847D01*
X166097649Y-88482592D01*
X166098480Y-88499500D01*
X166098480Y-88984500D01*
X166097649Y-89001408D01*
X166095165Y-89018153D01*
X166091052Y-89034574D01*
X166085349Y-89050513D01*
X166078111Y-89065816D01*
X166069409Y-89080336D01*
X166059324Y-89093933D01*
X166047956Y-89106476D01*
X166035413Y-89117844D01*
X166021816Y-89127929D01*
X166007296Y-89136631D01*
X165991993Y-89143869D01*
X165976054Y-89149572D01*
X165959633Y-89153685D01*
X165942888Y-89156169D01*
X165925980Y-89157000D01*
X165580980Y-89157000D01*
X165564072Y-89156169D01*
X165547327Y-89153685D01*
X165530906Y-89149572D01*
X165514967Y-89143869D01*
X165499664Y-89136631D01*
X165485144Y-89127929D01*
X165471547Y-89117844D01*
X165459004Y-89106476D01*
X165447636Y-89093933D01*
X165437551Y-89080336D01*
X165428849Y-89065816D01*
X165421611Y-89050513D01*
X165415908Y-89034574D01*
X165411795Y-89018153D01*
X165409311Y-89001408D01*
X165408480Y-88984500D01*
X165408480Y-88499500D01*
X165409311Y-88482592D01*
X165411795Y-88465847D01*
X165415908Y-88449426D01*
X165421611Y-88433487D01*
X165428849Y-88418184D01*
X165437551Y-88403664D01*
X165447636Y-88390067D01*
X165459004Y-88377524D01*
X165471547Y-88366156D01*
X165485144Y-88356071D01*
X165499664Y-88347369D01*
X165514967Y-88340131D01*
X165530906Y-88334428D01*
X165547327Y-88330315D01*
X165564072Y-88327831D01*
X165580980Y-88327000D01*
X165925980Y-88327000D01*
X165942888Y-88327831D01*
X165942888Y-88327831D01*
G37*
D15*
X165753480Y-88742000D03*
D13*
G36*
X165942888Y-87307831D02*
G01*
X165959633Y-87310315D01*
X165976054Y-87314428D01*
X165991993Y-87320131D01*
X166007296Y-87327369D01*
X166021816Y-87336071D01*
X166035413Y-87346156D01*
X166047956Y-87357524D01*
X166059324Y-87370067D01*
X166069409Y-87383664D01*
X166078111Y-87398184D01*
X166085349Y-87413487D01*
X166091052Y-87429426D01*
X166095165Y-87445847D01*
X166097649Y-87462592D01*
X166098480Y-87479500D01*
X166098480Y-87964500D01*
X166097649Y-87981408D01*
X166095165Y-87998153D01*
X166091052Y-88014574D01*
X166085349Y-88030513D01*
X166078111Y-88045816D01*
X166069409Y-88060336D01*
X166059324Y-88073933D01*
X166047956Y-88086476D01*
X166035413Y-88097844D01*
X166021816Y-88107929D01*
X166007296Y-88116631D01*
X165991993Y-88123869D01*
X165976054Y-88129572D01*
X165959633Y-88133685D01*
X165942888Y-88136169D01*
X165925980Y-88137000D01*
X165580980Y-88137000D01*
X165564072Y-88136169D01*
X165547327Y-88133685D01*
X165530906Y-88129572D01*
X165514967Y-88123869D01*
X165499664Y-88116631D01*
X165485144Y-88107929D01*
X165471547Y-88097844D01*
X165459004Y-88086476D01*
X165447636Y-88073933D01*
X165437551Y-88060336D01*
X165428849Y-88045816D01*
X165421611Y-88030513D01*
X165415908Y-88014574D01*
X165411795Y-87998153D01*
X165409311Y-87981408D01*
X165408480Y-87964500D01*
X165408480Y-87479500D01*
X165409311Y-87462592D01*
X165411795Y-87445847D01*
X165415908Y-87429426D01*
X165421611Y-87413487D01*
X165428849Y-87398184D01*
X165437551Y-87383664D01*
X165447636Y-87370067D01*
X165459004Y-87357524D01*
X165471547Y-87346156D01*
X165485144Y-87336071D01*
X165499664Y-87327369D01*
X165514967Y-87320131D01*
X165530906Y-87314428D01*
X165547327Y-87310315D01*
X165564072Y-87307831D01*
X165580980Y-87307000D01*
X165925980Y-87307000D01*
X165942888Y-87307831D01*
X165942888Y-87307831D01*
G37*
D15*
X165753480Y-87722000D03*
D13*
G36*
X165092888Y-88327831D02*
G01*
X165109633Y-88330315D01*
X165126054Y-88334428D01*
X165141993Y-88340131D01*
X165157296Y-88347369D01*
X165171816Y-88356071D01*
X165185413Y-88366156D01*
X165197956Y-88377524D01*
X165209324Y-88390067D01*
X165219409Y-88403664D01*
X165228111Y-88418184D01*
X165235349Y-88433487D01*
X165241052Y-88449426D01*
X165245165Y-88465847D01*
X165247649Y-88482592D01*
X165248480Y-88499500D01*
X165248480Y-88984500D01*
X165247649Y-89001408D01*
X165245165Y-89018153D01*
X165241052Y-89034574D01*
X165235349Y-89050513D01*
X165228111Y-89065816D01*
X165219409Y-89080336D01*
X165209324Y-89093933D01*
X165197956Y-89106476D01*
X165185413Y-89117844D01*
X165171816Y-89127929D01*
X165157296Y-89136631D01*
X165141993Y-89143869D01*
X165126054Y-89149572D01*
X165109633Y-89153685D01*
X165092888Y-89156169D01*
X165075980Y-89157000D01*
X164730980Y-89157000D01*
X164714072Y-89156169D01*
X164697327Y-89153685D01*
X164680906Y-89149572D01*
X164664967Y-89143869D01*
X164649664Y-89136631D01*
X164635144Y-89127929D01*
X164621547Y-89117844D01*
X164609004Y-89106476D01*
X164597636Y-89093933D01*
X164587551Y-89080336D01*
X164578849Y-89065816D01*
X164571611Y-89050513D01*
X164565908Y-89034574D01*
X164561795Y-89018153D01*
X164559311Y-89001408D01*
X164558480Y-88984500D01*
X164558480Y-88499500D01*
X164559311Y-88482592D01*
X164561795Y-88465847D01*
X164565908Y-88449426D01*
X164571611Y-88433487D01*
X164578849Y-88418184D01*
X164587551Y-88403664D01*
X164597636Y-88390067D01*
X164609004Y-88377524D01*
X164621547Y-88366156D01*
X164635144Y-88356071D01*
X164649664Y-88347369D01*
X164664967Y-88340131D01*
X164680906Y-88334428D01*
X164697327Y-88330315D01*
X164714072Y-88327831D01*
X164730980Y-88327000D01*
X165075980Y-88327000D01*
X165092888Y-88327831D01*
X165092888Y-88327831D01*
G37*
D15*
X164903480Y-88742000D03*
D13*
G36*
X165092888Y-87307831D02*
G01*
X165109633Y-87310315D01*
X165126054Y-87314428D01*
X165141993Y-87320131D01*
X165157296Y-87327369D01*
X165171816Y-87336071D01*
X165185413Y-87346156D01*
X165197956Y-87357524D01*
X165209324Y-87370067D01*
X165219409Y-87383664D01*
X165228111Y-87398184D01*
X165235349Y-87413487D01*
X165241052Y-87429426D01*
X165245165Y-87445847D01*
X165247649Y-87462592D01*
X165248480Y-87479500D01*
X165248480Y-87964500D01*
X165247649Y-87981408D01*
X165245165Y-87998153D01*
X165241052Y-88014574D01*
X165235349Y-88030513D01*
X165228111Y-88045816D01*
X165219409Y-88060336D01*
X165209324Y-88073933D01*
X165197956Y-88086476D01*
X165185413Y-88097844D01*
X165171816Y-88107929D01*
X165157296Y-88116631D01*
X165141993Y-88123869D01*
X165126054Y-88129572D01*
X165109633Y-88133685D01*
X165092888Y-88136169D01*
X165075980Y-88137000D01*
X164730980Y-88137000D01*
X164714072Y-88136169D01*
X164697327Y-88133685D01*
X164680906Y-88129572D01*
X164664967Y-88123869D01*
X164649664Y-88116631D01*
X164635144Y-88107929D01*
X164621547Y-88097844D01*
X164609004Y-88086476D01*
X164597636Y-88073933D01*
X164587551Y-88060336D01*
X164578849Y-88045816D01*
X164571611Y-88030513D01*
X164565908Y-88014574D01*
X164561795Y-87998153D01*
X164559311Y-87981408D01*
X164558480Y-87964500D01*
X164558480Y-87479500D01*
X164559311Y-87462592D01*
X164561795Y-87445847D01*
X164565908Y-87429426D01*
X164571611Y-87413487D01*
X164578849Y-87398184D01*
X164587551Y-87383664D01*
X164597636Y-87370067D01*
X164609004Y-87357524D01*
X164621547Y-87346156D01*
X164635144Y-87336071D01*
X164649664Y-87327369D01*
X164664967Y-87320131D01*
X164680906Y-87314428D01*
X164697327Y-87310315D01*
X164714072Y-87307831D01*
X164730980Y-87307000D01*
X165075980Y-87307000D01*
X165092888Y-87307831D01*
X165092888Y-87307831D01*
G37*
D15*
X164903480Y-87722000D03*
D13*
G36*
X162142431Y-88659693D02*
G01*
X162163666Y-88662843D01*
X162184490Y-88668059D01*
X162204702Y-88675291D01*
X162224108Y-88684470D01*
X162242521Y-88695506D01*
X162259764Y-88708294D01*
X162275670Y-88722710D01*
X162290086Y-88738616D01*
X162302874Y-88755859D01*
X162313910Y-88774272D01*
X162323089Y-88793678D01*
X162330321Y-88813890D01*
X162335537Y-88834714D01*
X162338687Y-88855949D01*
X162339740Y-88877390D01*
X162339740Y-89314890D01*
X162338687Y-89336331D01*
X162335537Y-89357566D01*
X162330321Y-89378390D01*
X162323089Y-89398602D01*
X162313910Y-89418008D01*
X162302874Y-89436421D01*
X162290086Y-89453664D01*
X162275670Y-89469570D01*
X162259764Y-89483986D01*
X162242521Y-89496774D01*
X162224108Y-89507810D01*
X162204702Y-89516989D01*
X162184490Y-89524221D01*
X162163666Y-89529437D01*
X162142431Y-89532587D01*
X162120990Y-89533640D01*
X161608490Y-89533640D01*
X161587049Y-89532587D01*
X161565814Y-89529437D01*
X161544990Y-89524221D01*
X161524778Y-89516989D01*
X161505372Y-89507810D01*
X161486959Y-89496774D01*
X161469716Y-89483986D01*
X161453810Y-89469570D01*
X161439394Y-89453664D01*
X161426606Y-89436421D01*
X161415570Y-89418008D01*
X161406391Y-89398602D01*
X161399159Y-89378390D01*
X161393943Y-89357566D01*
X161390793Y-89336331D01*
X161389740Y-89314890D01*
X161389740Y-88877390D01*
X161390793Y-88855949D01*
X161393943Y-88834714D01*
X161399159Y-88813890D01*
X161406391Y-88793678D01*
X161415570Y-88774272D01*
X161426606Y-88755859D01*
X161439394Y-88738616D01*
X161453810Y-88722710D01*
X161469716Y-88708294D01*
X161486959Y-88695506D01*
X161505372Y-88684470D01*
X161524778Y-88675291D01*
X161544990Y-88668059D01*
X161565814Y-88662843D01*
X161587049Y-88659693D01*
X161608490Y-88658640D01*
X162120990Y-88658640D01*
X162142431Y-88659693D01*
X162142431Y-88659693D01*
G37*
D16*
X161864740Y-89096140D03*
D13*
G36*
X162142431Y-87084693D02*
G01*
X162163666Y-87087843D01*
X162184490Y-87093059D01*
X162204702Y-87100291D01*
X162224108Y-87109470D01*
X162242521Y-87120506D01*
X162259764Y-87133294D01*
X162275670Y-87147710D01*
X162290086Y-87163616D01*
X162302874Y-87180859D01*
X162313910Y-87199272D01*
X162323089Y-87218678D01*
X162330321Y-87238890D01*
X162335537Y-87259714D01*
X162338687Y-87280949D01*
X162339740Y-87302390D01*
X162339740Y-87739890D01*
X162338687Y-87761331D01*
X162335537Y-87782566D01*
X162330321Y-87803390D01*
X162323089Y-87823602D01*
X162313910Y-87843008D01*
X162302874Y-87861421D01*
X162290086Y-87878664D01*
X162275670Y-87894570D01*
X162259764Y-87908986D01*
X162242521Y-87921774D01*
X162224108Y-87932810D01*
X162204702Y-87941989D01*
X162184490Y-87949221D01*
X162163666Y-87954437D01*
X162142431Y-87957587D01*
X162120990Y-87958640D01*
X161608490Y-87958640D01*
X161587049Y-87957587D01*
X161565814Y-87954437D01*
X161544990Y-87949221D01*
X161524778Y-87941989D01*
X161505372Y-87932810D01*
X161486959Y-87921774D01*
X161469716Y-87908986D01*
X161453810Y-87894570D01*
X161439394Y-87878664D01*
X161426606Y-87861421D01*
X161415570Y-87843008D01*
X161406391Y-87823602D01*
X161399159Y-87803390D01*
X161393943Y-87782566D01*
X161390793Y-87761331D01*
X161389740Y-87739890D01*
X161389740Y-87302390D01*
X161390793Y-87280949D01*
X161393943Y-87259714D01*
X161399159Y-87238890D01*
X161406391Y-87218678D01*
X161415570Y-87199272D01*
X161426606Y-87180859D01*
X161439394Y-87163616D01*
X161453810Y-87147710D01*
X161469716Y-87133294D01*
X161486959Y-87120506D01*
X161505372Y-87109470D01*
X161524778Y-87100291D01*
X161544990Y-87093059D01*
X161565814Y-87087843D01*
X161587049Y-87084693D01*
X161608490Y-87083640D01*
X162120990Y-87083640D01*
X162142431Y-87084693D01*
X162142431Y-87084693D01*
G37*
D16*
X161864740Y-87521140D03*
D13*
G36*
X169277291Y-90615493D02*
G01*
X169298526Y-90618643D01*
X169319350Y-90623859D01*
X169339562Y-90631091D01*
X169358968Y-90640270D01*
X169377381Y-90651306D01*
X169394624Y-90664094D01*
X169410530Y-90678510D01*
X169424946Y-90694416D01*
X169437734Y-90711659D01*
X169448770Y-90730072D01*
X169457949Y-90749478D01*
X169465181Y-90769690D01*
X169470397Y-90790514D01*
X169473547Y-90811749D01*
X169474600Y-90833190D01*
X169474600Y-91270690D01*
X169473547Y-91292131D01*
X169470397Y-91313366D01*
X169465181Y-91334190D01*
X169457949Y-91354402D01*
X169448770Y-91373808D01*
X169437734Y-91392221D01*
X169424946Y-91409464D01*
X169410530Y-91425370D01*
X169394624Y-91439786D01*
X169377381Y-91452574D01*
X169358968Y-91463610D01*
X169339562Y-91472789D01*
X169319350Y-91480021D01*
X169298526Y-91485237D01*
X169277291Y-91488387D01*
X169255850Y-91489440D01*
X168743350Y-91489440D01*
X168721909Y-91488387D01*
X168700674Y-91485237D01*
X168679850Y-91480021D01*
X168659638Y-91472789D01*
X168640232Y-91463610D01*
X168621819Y-91452574D01*
X168604576Y-91439786D01*
X168588670Y-91425370D01*
X168574254Y-91409464D01*
X168561466Y-91392221D01*
X168550430Y-91373808D01*
X168541251Y-91354402D01*
X168534019Y-91334190D01*
X168528803Y-91313366D01*
X168525653Y-91292131D01*
X168524600Y-91270690D01*
X168524600Y-90833190D01*
X168525653Y-90811749D01*
X168528803Y-90790514D01*
X168534019Y-90769690D01*
X168541251Y-90749478D01*
X168550430Y-90730072D01*
X168561466Y-90711659D01*
X168574254Y-90694416D01*
X168588670Y-90678510D01*
X168604576Y-90664094D01*
X168621819Y-90651306D01*
X168640232Y-90640270D01*
X168659638Y-90631091D01*
X168679850Y-90623859D01*
X168700674Y-90618643D01*
X168721909Y-90615493D01*
X168743350Y-90614440D01*
X169255850Y-90614440D01*
X169277291Y-90615493D01*
X169277291Y-90615493D01*
G37*
D16*
X168999600Y-91051940D03*
D13*
G36*
X169277291Y-89040493D02*
G01*
X169298526Y-89043643D01*
X169319350Y-89048859D01*
X169339562Y-89056091D01*
X169358968Y-89065270D01*
X169377381Y-89076306D01*
X169394624Y-89089094D01*
X169410530Y-89103510D01*
X169424946Y-89119416D01*
X169437734Y-89136659D01*
X169448770Y-89155072D01*
X169457949Y-89174478D01*
X169465181Y-89194690D01*
X169470397Y-89215514D01*
X169473547Y-89236749D01*
X169474600Y-89258190D01*
X169474600Y-89695690D01*
X169473547Y-89717131D01*
X169470397Y-89738366D01*
X169465181Y-89759190D01*
X169457949Y-89779402D01*
X169448770Y-89798808D01*
X169437734Y-89817221D01*
X169424946Y-89834464D01*
X169410530Y-89850370D01*
X169394624Y-89864786D01*
X169377381Y-89877574D01*
X169358968Y-89888610D01*
X169339562Y-89897789D01*
X169319350Y-89905021D01*
X169298526Y-89910237D01*
X169277291Y-89913387D01*
X169255850Y-89914440D01*
X168743350Y-89914440D01*
X168721909Y-89913387D01*
X168700674Y-89910237D01*
X168679850Y-89905021D01*
X168659638Y-89897789D01*
X168640232Y-89888610D01*
X168621819Y-89877574D01*
X168604576Y-89864786D01*
X168588670Y-89850370D01*
X168574254Y-89834464D01*
X168561466Y-89817221D01*
X168550430Y-89798808D01*
X168541251Y-89779402D01*
X168534019Y-89759190D01*
X168528803Y-89738366D01*
X168525653Y-89717131D01*
X168524600Y-89695690D01*
X168524600Y-89258190D01*
X168525653Y-89236749D01*
X168528803Y-89215514D01*
X168534019Y-89194690D01*
X168541251Y-89174478D01*
X168550430Y-89155072D01*
X168561466Y-89136659D01*
X168574254Y-89119416D01*
X168588670Y-89103510D01*
X168604576Y-89089094D01*
X168621819Y-89076306D01*
X168640232Y-89065270D01*
X168659638Y-89056091D01*
X168679850Y-89048859D01*
X168700674Y-89043643D01*
X168721909Y-89040493D01*
X168743350Y-89039440D01*
X169255850Y-89039440D01*
X169277291Y-89040493D01*
X169277291Y-89040493D01*
G37*
D16*
X168999600Y-89476940D03*
D13*
G36*
X165162491Y-92357933D02*
G01*
X165183726Y-92361083D01*
X165204550Y-92366299D01*
X165224762Y-92373531D01*
X165244168Y-92382710D01*
X165262581Y-92393746D01*
X165279824Y-92406534D01*
X165295730Y-92420950D01*
X165310146Y-92436856D01*
X165322934Y-92454099D01*
X165333970Y-92472512D01*
X165343149Y-92491918D01*
X165350381Y-92512130D01*
X165355597Y-92532954D01*
X165358747Y-92554189D01*
X165359800Y-92575630D01*
X165359800Y-93013130D01*
X165358747Y-93034571D01*
X165355597Y-93055806D01*
X165350381Y-93076630D01*
X165343149Y-93096842D01*
X165333970Y-93116248D01*
X165322934Y-93134661D01*
X165310146Y-93151904D01*
X165295730Y-93167810D01*
X165279824Y-93182226D01*
X165262581Y-93195014D01*
X165244168Y-93206050D01*
X165224762Y-93215229D01*
X165204550Y-93222461D01*
X165183726Y-93227677D01*
X165162491Y-93230827D01*
X165141050Y-93231880D01*
X164628550Y-93231880D01*
X164607109Y-93230827D01*
X164585874Y-93227677D01*
X164565050Y-93222461D01*
X164544838Y-93215229D01*
X164525432Y-93206050D01*
X164507019Y-93195014D01*
X164489776Y-93182226D01*
X164473870Y-93167810D01*
X164459454Y-93151904D01*
X164446666Y-93134661D01*
X164435630Y-93116248D01*
X164426451Y-93096842D01*
X164419219Y-93076630D01*
X164414003Y-93055806D01*
X164410853Y-93034571D01*
X164409800Y-93013130D01*
X164409800Y-92575630D01*
X164410853Y-92554189D01*
X164414003Y-92532954D01*
X164419219Y-92512130D01*
X164426451Y-92491918D01*
X164435630Y-92472512D01*
X164446666Y-92454099D01*
X164459454Y-92436856D01*
X164473870Y-92420950D01*
X164489776Y-92406534D01*
X164507019Y-92393746D01*
X164525432Y-92382710D01*
X164544838Y-92373531D01*
X164565050Y-92366299D01*
X164585874Y-92361083D01*
X164607109Y-92357933D01*
X164628550Y-92356880D01*
X165141050Y-92356880D01*
X165162491Y-92357933D01*
X165162491Y-92357933D01*
G37*
D16*
X164884800Y-92794380D03*
D13*
G36*
X165162491Y-90782933D02*
G01*
X165183726Y-90786083D01*
X165204550Y-90791299D01*
X165224762Y-90798531D01*
X165244168Y-90807710D01*
X165262581Y-90818746D01*
X165279824Y-90831534D01*
X165295730Y-90845950D01*
X165310146Y-90861856D01*
X165322934Y-90879099D01*
X165333970Y-90897512D01*
X165343149Y-90916918D01*
X165350381Y-90937130D01*
X165355597Y-90957954D01*
X165358747Y-90979189D01*
X165359800Y-91000630D01*
X165359800Y-91438130D01*
X165358747Y-91459571D01*
X165355597Y-91480806D01*
X165350381Y-91501630D01*
X165343149Y-91521842D01*
X165333970Y-91541248D01*
X165322934Y-91559661D01*
X165310146Y-91576904D01*
X165295730Y-91592810D01*
X165279824Y-91607226D01*
X165262581Y-91620014D01*
X165244168Y-91631050D01*
X165224762Y-91640229D01*
X165204550Y-91647461D01*
X165183726Y-91652677D01*
X165162491Y-91655827D01*
X165141050Y-91656880D01*
X164628550Y-91656880D01*
X164607109Y-91655827D01*
X164585874Y-91652677D01*
X164565050Y-91647461D01*
X164544838Y-91640229D01*
X164525432Y-91631050D01*
X164507019Y-91620014D01*
X164489776Y-91607226D01*
X164473870Y-91592810D01*
X164459454Y-91576904D01*
X164446666Y-91559661D01*
X164435630Y-91541248D01*
X164426451Y-91521842D01*
X164419219Y-91501630D01*
X164414003Y-91480806D01*
X164410853Y-91459571D01*
X164409800Y-91438130D01*
X164409800Y-91000630D01*
X164410853Y-90979189D01*
X164414003Y-90957954D01*
X164419219Y-90937130D01*
X164426451Y-90916918D01*
X164435630Y-90897512D01*
X164446666Y-90879099D01*
X164459454Y-90861856D01*
X164473870Y-90845950D01*
X164489776Y-90831534D01*
X164507019Y-90818746D01*
X164525432Y-90807710D01*
X164544838Y-90798531D01*
X164565050Y-90791299D01*
X164585874Y-90786083D01*
X164607109Y-90782933D01*
X164628550Y-90781880D01*
X165141050Y-90781880D01*
X165162491Y-90782933D01*
X165162491Y-90782933D01*
G37*
D16*
X164884800Y-91219380D03*
D13*
G36*
X167113211Y-92330193D02*
G01*
X167134446Y-92333343D01*
X167155270Y-92338559D01*
X167175482Y-92345791D01*
X167194888Y-92354970D01*
X167213301Y-92366006D01*
X167230544Y-92378794D01*
X167246450Y-92393210D01*
X167260866Y-92409116D01*
X167273654Y-92426359D01*
X167284690Y-92444772D01*
X167293869Y-92464178D01*
X167301101Y-92484390D01*
X167306317Y-92505214D01*
X167309467Y-92526449D01*
X167310520Y-92547890D01*
X167310520Y-92985390D01*
X167309467Y-93006831D01*
X167306317Y-93028066D01*
X167301101Y-93048890D01*
X167293869Y-93069102D01*
X167284690Y-93088508D01*
X167273654Y-93106921D01*
X167260866Y-93124164D01*
X167246450Y-93140070D01*
X167230544Y-93154486D01*
X167213301Y-93167274D01*
X167194888Y-93178310D01*
X167175482Y-93187489D01*
X167155270Y-93194721D01*
X167134446Y-93199937D01*
X167113211Y-93203087D01*
X167091770Y-93204140D01*
X166579270Y-93204140D01*
X166557829Y-93203087D01*
X166536594Y-93199937D01*
X166515770Y-93194721D01*
X166495558Y-93187489D01*
X166476152Y-93178310D01*
X166457739Y-93167274D01*
X166440496Y-93154486D01*
X166424590Y-93140070D01*
X166410174Y-93124164D01*
X166397386Y-93106921D01*
X166386350Y-93088508D01*
X166377171Y-93069102D01*
X166369939Y-93048890D01*
X166364723Y-93028066D01*
X166361573Y-93006831D01*
X166360520Y-92985390D01*
X166360520Y-92547890D01*
X166361573Y-92526449D01*
X166364723Y-92505214D01*
X166369939Y-92484390D01*
X166377171Y-92464178D01*
X166386350Y-92444772D01*
X166397386Y-92426359D01*
X166410174Y-92409116D01*
X166424590Y-92393210D01*
X166440496Y-92378794D01*
X166457739Y-92366006D01*
X166476152Y-92354970D01*
X166495558Y-92345791D01*
X166515770Y-92338559D01*
X166536594Y-92333343D01*
X166557829Y-92330193D01*
X166579270Y-92329140D01*
X167091770Y-92329140D01*
X167113211Y-92330193D01*
X167113211Y-92330193D01*
G37*
D16*
X166835520Y-92766640D03*
D13*
G36*
X167113211Y-90755193D02*
G01*
X167134446Y-90758343D01*
X167155270Y-90763559D01*
X167175482Y-90770791D01*
X167194888Y-90779970D01*
X167213301Y-90791006D01*
X167230544Y-90803794D01*
X167246450Y-90818210D01*
X167260866Y-90834116D01*
X167273654Y-90851359D01*
X167284690Y-90869772D01*
X167293869Y-90889178D01*
X167301101Y-90909390D01*
X167306317Y-90930214D01*
X167309467Y-90951449D01*
X167310520Y-90972890D01*
X167310520Y-91410390D01*
X167309467Y-91431831D01*
X167306317Y-91453066D01*
X167301101Y-91473890D01*
X167293869Y-91494102D01*
X167284690Y-91513508D01*
X167273654Y-91531921D01*
X167260866Y-91549164D01*
X167246450Y-91565070D01*
X167230544Y-91579486D01*
X167213301Y-91592274D01*
X167194888Y-91603310D01*
X167175482Y-91612489D01*
X167155270Y-91619721D01*
X167134446Y-91624937D01*
X167113211Y-91628087D01*
X167091770Y-91629140D01*
X166579270Y-91629140D01*
X166557829Y-91628087D01*
X166536594Y-91624937D01*
X166515770Y-91619721D01*
X166495558Y-91612489D01*
X166476152Y-91603310D01*
X166457739Y-91592274D01*
X166440496Y-91579486D01*
X166424590Y-91565070D01*
X166410174Y-91549164D01*
X166397386Y-91531921D01*
X166386350Y-91513508D01*
X166377171Y-91494102D01*
X166369939Y-91473890D01*
X166364723Y-91453066D01*
X166361573Y-91431831D01*
X166360520Y-91410390D01*
X166360520Y-90972890D01*
X166361573Y-90951449D01*
X166364723Y-90930214D01*
X166369939Y-90909390D01*
X166377171Y-90889178D01*
X166386350Y-90869772D01*
X166397386Y-90851359D01*
X166410174Y-90834116D01*
X166424590Y-90818210D01*
X166440496Y-90803794D01*
X166457739Y-90791006D01*
X166476152Y-90779970D01*
X166495558Y-90770791D01*
X166515770Y-90763559D01*
X166536594Y-90758343D01*
X166557829Y-90755193D01*
X166579270Y-90754140D01*
X167091770Y-90754140D01*
X167113211Y-90755193D01*
X167113211Y-90755193D01*
G37*
D16*
X166835520Y-91191640D03*
D13*
G36*
X160041851Y-88647193D02*
G01*
X160063086Y-88650343D01*
X160083910Y-88655559D01*
X160104122Y-88662791D01*
X160123528Y-88671970D01*
X160141941Y-88683006D01*
X160159184Y-88695794D01*
X160175090Y-88710210D01*
X160189506Y-88726116D01*
X160202294Y-88743359D01*
X160213330Y-88761772D01*
X160222509Y-88781178D01*
X160229741Y-88801390D01*
X160234957Y-88822214D01*
X160238107Y-88843449D01*
X160239160Y-88864890D01*
X160239160Y-89302390D01*
X160238107Y-89323831D01*
X160234957Y-89345066D01*
X160229741Y-89365890D01*
X160222509Y-89386102D01*
X160213330Y-89405508D01*
X160202294Y-89423921D01*
X160189506Y-89441164D01*
X160175090Y-89457070D01*
X160159184Y-89471486D01*
X160141941Y-89484274D01*
X160123528Y-89495310D01*
X160104122Y-89504489D01*
X160083910Y-89511721D01*
X160063086Y-89516937D01*
X160041851Y-89520087D01*
X160020410Y-89521140D01*
X159507910Y-89521140D01*
X159486469Y-89520087D01*
X159465234Y-89516937D01*
X159444410Y-89511721D01*
X159424198Y-89504489D01*
X159404792Y-89495310D01*
X159386379Y-89484274D01*
X159369136Y-89471486D01*
X159353230Y-89457070D01*
X159338814Y-89441164D01*
X159326026Y-89423921D01*
X159314990Y-89405508D01*
X159305811Y-89386102D01*
X159298579Y-89365890D01*
X159293363Y-89345066D01*
X159290213Y-89323831D01*
X159289160Y-89302390D01*
X159289160Y-88864890D01*
X159290213Y-88843449D01*
X159293363Y-88822214D01*
X159298579Y-88801390D01*
X159305811Y-88781178D01*
X159314990Y-88761772D01*
X159326026Y-88743359D01*
X159338814Y-88726116D01*
X159353230Y-88710210D01*
X159369136Y-88695794D01*
X159386379Y-88683006D01*
X159404792Y-88671970D01*
X159424198Y-88662791D01*
X159444410Y-88655559D01*
X159465234Y-88650343D01*
X159486469Y-88647193D01*
X159507910Y-88646140D01*
X160020410Y-88646140D01*
X160041851Y-88647193D01*
X160041851Y-88647193D01*
G37*
D16*
X159764160Y-89083640D03*
D13*
G36*
X160041851Y-87072193D02*
G01*
X160063086Y-87075343D01*
X160083910Y-87080559D01*
X160104122Y-87087791D01*
X160123528Y-87096970D01*
X160141941Y-87108006D01*
X160159184Y-87120794D01*
X160175090Y-87135210D01*
X160189506Y-87151116D01*
X160202294Y-87168359D01*
X160213330Y-87186772D01*
X160222509Y-87206178D01*
X160229741Y-87226390D01*
X160234957Y-87247214D01*
X160238107Y-87268449D01*
X160239160Y-87289890D01*
X160239160Y-87727390D01*
X160238107Y-87748831D01*
X160234957Y-87770066D01*
X160229741Y-87790890D01*
X160222509Y-87811102D01*
X160213330Y-87830508D01*
X160202294Y-87848921D01*
X160189506Y-87866164D01*
X160175090Y-87882070D01*
X160159184Y-87896486D01*
X160141941Y-87909274D01*
X160123528Y-87920310D01*
X160104122Y-87929489D01*
X160083910Y-87936721D01*
X160063086Y-87941937D01*
X160041851Y-87945087D01*
X160020410Y-87946140D01*
X159507910Y-87946140D01*
X159486469Y-87945087D01*
X159465234Y-87941937D01*
X159444410Y-87936721D01*
X159424198Y-87929489D01*
X159404792Y-87920310D01*
X159386379Y-87909274D01*
X159369136Y-87896486D01*
X159353230Y-87882070D01*
X159338814Y-87866164D01*
X159326026Y-87848921D01*
X159314990Y-87830508D01*
X159305811Y-87811102D01*
X159298579Y-87790890D01*
X159293363Y-87770066D01*
X159290213Y-87748831D01*
X159289160Y-87727390D01*
X159289160Y-87289890D01*
X159290213Y-87268449D01*
X159293363Y-87247214D01*
X159298579Y-87226390D01*
X159305811Y-87206178D01*
X159314990Y-87186772D01*
X159326026Y-87168359D01*
X159338814Y-87151116D01*
X159353230Y-87135210D01*
X159369136Y-87120794D01*
X159386379Y-87108006D01*
X159404792Y-87096970D01*
X159424198Y-87087791D01*
X159444410Y-87080559D01*
X159465234Y-87075343D01*
X159486469Y-87072193D01*
X159507910Y-87071140D01*
X160020410Y-87071140D01*
X160041851Y-87072193D01*
X160041851Y-87072193D01*
G37*
D16*
X159764160Y-87508640D03*
D13*
G36*
X157936191Y-88662433D02*
G01*
X157957426Y-88665583D01*
X157978250Y-88670799D01*
X157998462Y-88678031D01*
X158017868Y-88687210D01*
X158036281Y-88698246D01*
X158053524Y-88711034D01*
X158069430Y-88725450D01*
X158083846Y-88741356D01*
X158096634Y-88758599D01*
X158107670Y-88777012D01*
X158116849Y-88796418D01*
X158124081Y-88816630D01*
X158129297Y-88837454D01*
X158132447Y-88858689D01*
X158133500Y-88880130D01*
X158133500Y-89317630D01*
X158132447Y-89339071D01*
X158129297Y-89360306D01*
X158124081Y-89381130D01*
X158116849Y-89401342D01*
X158107670Y-89420748D01*
X158096634Y-89439161D01*
X158083846Y-89456404D01*
X158069430Y-89472310D01*
X158053524Y-89486726D01*
X158036281Y-89499514D01*
X158017868Y-89510550D01*
X157998462Y-89519729D01*
X157978250Y-89526961D01*
X157957426Y-89532177D01*
X157936191Y-89535327D01*
X157914750Y-89536380D01*
X157402250Y-89536380D01*
X157380809Y-89535327D01*
X157359574Y-89532177D01*
X157338750Y-89526961D01*
X157318538Y-89519729D01*
X157299132Y-89510550D01*
X157280719Y-89499514D01*
X157263476Y-89486726D01*
X157247570Y-89472310D01*
X157233154Y-89456404D01*
X157220366Y-89439161D01*
X157209330Y-89420748D01*
X157200151Y-89401342D01*
X157192919Y-89381130D01*
X157187703Y-89360306D01*
X157184553Y-89339071D01*
X157183500Y-89317630D01*
X157183500Y-88880130D01*
X157184553Y-88858689D01*
X157187703Y-88837454D01*
X157192919Y-88816630D01*
X157200151Y-88796418D01*
X157209330Y-88777012D01*
X157220366Y-88758599D01*
X157233154Y-88741356D01*
X157247570Y-88725450D01*
X157263476Y-88711034D01*
X157280719Y-88698246D01*
X157299132Y-88687210D01*
X157318538Y-88678031D01*
X157338750Y-88670799D01*
X157359574Y-88665583D01*
X157380809Y-88662433D01*
X157402250Y-88661380D01*
X157914750Y-88661380D01*
X157936191Y-88662433D01*
X157936191Y-88662433D01*
G37*
D16*
X157658500Y-89098880D03*
D13*
G36*
X157936191Y-87087433D02*
G01*
X157957426Y-87090583D01*
X157978250Y-87095799D01*
X157998462Y-87103031D01*
X158017868Y-87112210D01*
X158036281Y-87123246D01*
X158053524Y-87136034D01*
X158069430Y-87150450D01*
X158083846Y-87166356D01*
X158096634Y-87183599D01*
X158107670Y-87202012D01*
X158116849Y-87221418D01*
X158124081Y-87241630D01*
X158129297Y-87262454D01*
X158132447Y-87283689D01*
X158133500Y-87305130D01*
X158133500Y-87742630D01*
X158132447Y-87764071D01*
X158129297Y-87785306D01*
X158124081Y-87806130D01*
X158116849Y-87826342D01*
X158107670Y-87845748D01*
X158096634Y-87864161D01*
X158083846Y-87881404D01*
X158069430Y-87897310D01*
X158053524Y-87911726D01*
X158036281Y-87924514D01*
X158017868Y-87935550D01*
X157998462Y-87944729D01*
X157978250Y-87951961D01*
X157957426Y-87957177D01*
X157936191Y-87960327D01*
X157914750Y-87961380D01*
X157402250Y-87961380D01*
X157380809Y-87960327D01*
X157359574Y-87957177D01*
X157338750Y-87951961D01*
X157318538Y-87944729D01*
X157299132Y-87935550D01*
X157280719Y-87924514D01*
X157263476Y-87911726D01*
X157247570Y-87897310D01*
X157233154Y-87881404D01*
X157220366Y-87864161D01*
X157209330Y-87845748D01*
X157200151Y-87826342D01*
X157192919Y-87806130D01*
X157187703Y-87785306D01*
X157184553Y-87764071D01*
X157183500Y-87742630D01*
X157183500Y-87305130D01*
X157184553Y-87283689D01*
X157187703Y-87262454D01*
X157192919Y-87241630D01*
X157200151Y-87221418D01*
X157209330Y-87202012D01*
X157220366Y-87183599D01*
X157233154Y-87166356D01*
X157247570Y-87150450D01*
X157263476Y-87136034D01*
X157280719Y-87123246D01*
X157299132Y-87112210D01*
X157318538Y-87103031D01*
X157338750Y-87095799D01*
X157359574Y-87090583D01*
X157380809Y-87087433D01*
X157402250Y-87086380D01*
X157914750Y-87086380D01*
X157936191Y-87087433D01*
X157936191Y-87087433D01*
G37*
D16*
X157658500Y-87523880D03*
M02*
