G04 #@! TF.GenerationSoftware,KiCad,Pcbnew,(5.1.2)-2*
G04 #@! TF.CreationDate,2020-03-09T10:51:38+01:00*
G04 #@! TF.ProjectId,Extension_PCB,45787465-6e73-4696-9f6e-5f5043422e6b,rev?*
G04 #@! TF.SameCoordinates,Original*
G04 #@! TF.FileFunction,Legend,Bot*
G04 #@! TF.FilePolarity,Positive*
%FSLAX46Y46*%
G04 Gerber Fmt 4.6, Leading zero omitted, Abs format (unit mm)*
G04 Created by KiCad (PCBNEW (5.1.2)-2) date 2020-03-09 10:51:38*
%MOMM*%
%LPD*%
G04 APERTURE LIST*
%ADD10C,0.150000*%
G04 APERTURE END LIST*
D10*
X193216666Y-136421547D02*
X193216666Y-135469166D01*
X192645238Y-136612023D02*
X194645238Y-135945357D01*
X192645238Y-135278690D01*
X192645238Y-134326309D02*
X192740476Y-134516785D01*
X192930952Y-134612023D01*
X194645238Y-134612023D01*
X192645238Y-133564404D02*
X193978571Y-133564404D01*
X194645238Y-133564404D02*
X194550000Y-133659642D01*
X194454761Y-133564404D01*
X194550000Y-133469166D01*
X194645238Y-133564404D01*
X194454761Y-133564404D01*
X193978571Y-131754880D02*
X192359523Y-131754880D01*
X192169047Y-131850119D01*
X192073809Y-131945357D01*
X191978571Y-132135833D01*
X191978571Y-132421547D01*
X192073809Y-132612023D01*
X192740476Y-131754880D02*
X192645238Y-131945357D01*
X192645238Y-132326309D01*
X192740476Y-132516785D01*
X192835714Y-132612023D01*
X193026190Y-132707261D01*
X193597619Y-132707261D01*
X193788095Y-132612023D01*
X193883333Y-132516785D01*
X193978571Y-132326309D01*
X193978571Y-131945357D01*
X193883333Y-131754880D01*
X193978571Y-130802500D02*
X192645238Y-130802500D01*
X193788095Y-130802500D02*
X193883333Y-130707261D01*
X193978571Y-130516785D01*
X193978571Y-130231071D01*
X193883333Y-130040595D01*
X193692857Y-129945357D01*
X192645238Y-129945357D01*
X192645238Y-126326309D02*
X193597619Y-126992976D01*
X192645238Y-127469166D02*
X194645238Y-127469166D01*
X194645238Y-126707261D01*
X194550000Y-126516785D01*
X194454761Y-126421547D01*
X194264285Y-126326309D01*
X193978571Y-126326309D01*
X193788095Y-126421547D01*
X193692857Y-126516785D01*
X193597619Y-126707261D01*
X193597619Y-127469166D01*
X192645238Y-124612023D02*
X193692857Y-124612023D01*
X193883333Y-124707261D01*
X193978571Y-124897738D01*
X193978571Y-125278690D01*
X193883333Y-125469166D01*
X192740476Y-124612023D02*
X192645238Y-124802500D01*
X192645238Y-125278690D01*
X192740476Y-125469166D01*
X192930952Y-125564404D01*
X193121428Y-125564404D01*
X193311904Y-125469166D01*
X193407142Y-125278690D01*
X193407142Y-124802500D01*
X193502380Y-124612023D01*
X192740476Y-122802500D02*
X192645238Y-122992976D01*
X192645238Y-123373928D01*
X192740476Y-123564404D01*
X192835714Y-123659642D01*
X193026190Y-123754880D01*
X193597619Y-123754880D01*
X193788095Y-123659642D01*
X193883333Y-123564404D01*
X193978571Y-123373928D01*
X193978571Y-122992976D01*
X193883333Y-122802500D01*
X192645238Y-121945357D02*
X193978571Y-121945357D01*
X194645238Y-121945357D02*
X194550000Y-122040595D01*
X194454761Y-121945357D01*
X194550000Y-121850119D01*
X194645238Y-121945357D01*
X194454761Y-121945357D01*
X193978571Y-120992976D02*
X192645238Y-120992976D01*
X193788095Y-120992976D02*
X193883333Y-120897738D01*
X193978571Y-120707261D01*
X193978571Y-120421547D01*
X193883333Y-120231071D01*
X193692857Y-120135833D01*
X192645238Y-120135833D01*
X193978571Y-118326309D02*
X192359523Y-118326309D01*
X192169047Y-118421547D01*
X192073809Y-118516785D01*
X191978571Y-118707261D01*
X191978571Y-118992976D01*
X192073809Y-119183452D01*
X192740476Y-118326309D02*
X192645238Y-118516785D01*
X192645238Y-118897738D01*
X192740476Y-119088214D01*
X192835714Y-119183452D01*
X193026190Y-119278690D01*
X193597619Y-119278690D01*
X193788095Y-119183452D01*
X193883333Y-119088214D01*
X193978571Y-118897738D01*
X193978571Y-118516785D01*
X193883333Y-118326309D01*
X194454761Y-115945357D02*
X194550000Y-115850119D01*
X194645238Y-115659642D01*
X194645238Y-115183452D01*
X194550000Y-114992976D01*
X194454761Y-114897738D01*
X194264285Y-114802500D01*
X194073809Y-114802500D01*
X193788095Y-114897738D01*
X192645238Y-116040595D01*
X192645238Y-114802500D01*
X194645238Y-113564404D02*
X194645238Y-113373928D01*
X194550000Y-113183452D01*
X194454761Y-113088214D01*
X194264285Y-112992976D01*
X193883333Y-112897738D01*
X193407142Y-112897738D01*
X193026190Y-112992976D01*
X192835714Y-113088214D01*
X192740476Y-113183452D01*
X192645238Y-113373928D01*
X192645238Y-113564404D01*
X192740476Y-113754880D01*
X192835714Y-113850119D01*
X193026190Y-113945357D01*
X193407142Y-114040595D01*
X193883333Y-114040595D01*
X194264285Y-113945357D01*
X194454761Y-113850119D01*
X194550000Y-113754880D01*
X194645238Y-113564404D01*
X194454761Y-112135833D02*
X194550000Y-112040595D01*
X194645238Y-111850119D01*
X194645238Y-111373928D01*
X194550000Y-111183452D01*
X194454761Y-111088214D01*
X194264285Y-110992976D01*
X194073809Y-110992976D01*
X193788095Y-111088214D01*
X192645238Y-112231071D01*
X192645238Y-110992976D01*
X194645238Y-109754880D02*
X194645238Y-109564404D01*
X194550000Y-109373928D01*
X194454761Y-109278690D01*
X194264285Y-109183452D01*
X193883333Y-109088214D01*
X193407142Y-109088214D01*
X193026190Y-109183452D01*
X192835714Y-109278690D01*
X192740476Y-109373928D01*
X192645238Y-109564404D01*
X192645238Y-109754880D01*
X192740476Y-109945357D01*
X192835714Y-110040595D01*
X193026190Y-110135833D01*
X193407142Y-110231071D01*
X193883333Y-110231071D01*
X194264285Y-110135833D01*
X194454761Y-110040595D01*
X194550000Y-109945357D01*
X194645238Y-109754880D01*
X191495238Y-136612023D02*
X191495238Y-135469166D01*
X189495238Y-136040595D02*
X191495238Y-136040595D01*
X189590476Y-134040595D02*
X189495238Y-134231071D01*
X189495238Y-134612023D01*
X189590476Y-134802500D01*
X189780952Y-134897738D01*
X190542857Y-134897738D01*
X190733333Y-134802500D01*
X190828571Y-134612023D01*
X190828571Y-134231071D01*
X190733333Y-134040595D01*
X190542857Y-133945357D01*
X190352380Y-133945357D01*
X190161904Y-134897738D01*
X189495238Y-132802500D02*
X189590476Y-132992976D01*
X189780952Y-133088214D01*
X191495238Y-133088214D01*
X189590476Y-131278690D02*
X189495238Y-131469166D01*
X189495238Y-131850119D01*
X189590476Y-132040595D01*
X189780952Y-132135833D01*
X190542857Y-132135833D01*
X190733333Y-132040595D01*
X190828571Y-131850119D01*
X190828571Y-131469166D01*
X190733333Y-131278690D01*
X190542857Y-131183452D01*
X190352380Y-131183452D01*
X190161904Y-132135833D01*
X189495238Y-130326309D02*
X190828571Y-130326309D01*
X190638095Y-130326309D02*
X190733333Y-130231071D01*
X190828571Y-130040595D01*
X190828571Y-129754880D01*
X190733333Y-129564404D01*
X190542857Y-129469166D01*
X189495238Y-129469166D01*
X190542857Y-129469166D02*
X190733333Y-129373928D01*
X190828571Y-129183452D01*
X190828571Y-128897738D01*
X190733333Y-128707261D01*
X190542857Y-128612023D01*
X189495238Y-128612023D01*
X189590476Y-126897738D02*
X189495238Y-127088214D01*
X189495238Y-127469166D01*
X189590476Y-127659642D01*
X189780952Y-127754880D01*
X190542857Y-127754880D01*
X190733333Y-127659642D01*
X190828571Y-127469166D01*
X190828571Y-127088214D01*
X190733333Y-126897738D01*
X190542857Y-126802500D01*
X190352380Y-126802500D01*
X190161904Y-127754880D01*
X190828571Y-126231071D02*
X190828571Y-125469166D01*
X191495238Y-125945357D02*
X189780952Y-125945357D01*
X189590476Y-125850119D01*
X189495238Y-125659642D01*
X189495238Y-125469166D01*
X189495238Y-124802500D02*
X190828571Y-124802500D01*
X190447619Y-124802500D02*
X190638095Y-124707261D01*
X190733333Y-124612023D01*
X190828571Y-124421547D01*
X190828571Y-124231071D01*
X190828571Y-123754880D02*
X189495238Y-123278690D01*
X190828571Y-122802500D02*
X189495238Y-123278690D01*
X189019047Y-123469166D01*
X188923809Y-123564404D01*
X188828571Y-123754880D01*
X190542857Y-120516785D02*
X190542857Y-119850119D01*
X189495238Y-119564404D02*
X189495238Y-120516785D01*
X191495238Y-120516785D01*
X191495238Y-119564404D01*
X189495238Y-118897738D02*
X190828571Y-117850119D01*
X190828571Y-118897738D02*
X189495238Y-117850119D01*
X190828571Y-117373928D02*
X190828571Y-116612023D01*
X191495238Y-117088214D02*
X189780952Y-117088214D01*
X189590476Y-116992976D01*
X189495238Y-116802500D01*
X189495238Y-116612023D01*
X189590476Y-115183452D02*
X189495238Y-115373928D01*
X189495238Y-115754880D01*
X189590476Y-115945357D01*
X189780952Y-116040595D01*
X190542857Y-116040595D01*
X190733333Y-115945357D01*
X190828571Y-115754880D01*
X190828571Y-115373928D01*
X190733333Y-115183452D01*
X190542857Y-115088214D01*
X190352380Y-115088214D01*
X190161904Y-116040595D01*
X190828571Y-114231071D02*
X189495238Y-114231071D01*
X190638095Y-114231071D02*
X190733333Y-114135833D01*
X190828571Y-113945357D01*
X190828571Y-113659642D01*
X190733333Y-113469166D01*
X190542857Y-113373928D01*
X189495238Y-113373928D01*
X190828571Y-112707261D02*
X190828571Y-111945357D01*
X191495238Y-112421547D02*
X189780952Y-112421547D01*
X189590476Y-112326309D01*
X189495238Y-112135833D01*
X189495238Y-111945357D01*
X189495238Y-111278690D02*
X190828571Y-111278690D01*
X191495238Y-111278690D02*
X191400000Y-111373928D01*
X191304761Y-111278690D01*
X191400000Y-111183452D01*
X191495238Y-111278690D01*
X191304761Y-111278690D01*
X189495238Y-110040595D02*
X189590476Y-110231071D01*
X189685714Y-110326309D01*
X189876190Y-110421547D01*
X190447619Y-110421547D01*
X190638095Y-110326309D01*
X190733333Y-110231071D01*
X190828571Y-110040595D01*
X190828571Y-109754880D01*
X190733333Y-109564404D01*
X190638095Y-109469166D01*
X190447619Y-109373928D01*
X189876190Y-109373928D01*
X189685714Y-109469166D01*
X189590476Y-109564404D01*
X189495238Y-109754880D01*
X189495238Y-110040595D01*
X190828571Y-108516785D02*
X189495238Y-108516785D01*
X190638095Y-108516785D02*
X190733333Y-108421547D01*
X190828571Y-108231071D01*
X190828571Y-107945357D01*
X190733333Y-107754880D01*
X190542857Y-107659642D01*
X189495238Y-107659642D01*
X189495238Y-105183452D02*
X191495238Y-105183452D01*
X190066666Y-104516785D01*
X191495238Y-103850119D01*
X189495238Y-103850119D01*
X189495238Y-102612023D02*
X189590476Y-102802500D01*
X189685714Y-102897738D01*
X189876190Y-102992976D01*
X190447619Y-102992976D01*
X190638095Y-102897738D01*
X190733333Y-102802500D01*
X190828571Y-102612023D01*
X190828571Y-102326309D01*
X190733333Y-102135833D01*
X190638095Y-102040595D01*
X190447619Y-101945357D01*
X189876190Y-101945357D01*
X189685714Y-102040595D01*
X189590476Y-102135833D01*
X189495238Y-102326309D01*
X189495238Y-102612023D01*
X189495238Y-100231071D02*
X191495238Y-100231071D01*
X189590476Y-100231071D02*
X189495238Y-100421547D01*
X189495238Y-100802500D01*
X189590476Y-100992976D01*
X189685714Y-101088214D01*
X189876190Y-101183452D01*
X190447619Y-101183452D01*
X190638095Y-101088214D01*
X190733333Y-100992976D01*
X190828571Y-100802500D01*
X190828571Y-100421547D01*
X190733333Y-100231071D01*
X190828571Y-98421547D02*
X189495238Y-98421547D01*
X190828571Y-99278690D02*
X189780952Y-99278690D01*
X189590476Y-99183452D01*
X189495238Y-98992976D01*
X189495238Y-98707261D01*
X189590476Y-98516785D01*
X189685714Y-98421547D01*
X189495238Y-97183452D02*
X189590476Y-97373928D01*
X189780952Y-97469166D01*
X191495238Y-97469166D01*
X189590476Y-95659642D02*
X189495238Y-95850119D01*
X189495238Y-96231071D01*
X189590476Y-96421547D01*
X189780952Y-96516785D01*
X190542857Y-96516785D01*
X190733333Y-96421547D01*
X190828571Y-96231071D01*
X190828571Y-95850119D01*
X190733333Y-95659642D01*
X190542857Y-95564404D01*
X190352380Y-95564404D01*
X190161904Y-96516785D01*
X188345238Y-136612023D02*
X186345238Y-135945357D01*
X188345238Y-135278690D01*
X186345238Y-133564404D02*
X186345238Y-134707261D01*
X186345238Y-134135833D02*
X188345238Y-134135833D01*
X188059523Y-134326309D01*
X187869047Y-134516785D01*
X187773809Y-134707261D01*
X186535714Y-132707261D02*
X186440476Y-132612023D01*
X186345238Y-132707261D01*
X186440476Y-132802500D01*
X186535714Y-132707261D01*
X186345238Y-132707261D01*
X188345238Y-131373928D02*
X188345238Y-131183452D01*
X188250000Y-130992976D01*
X188154761Y-130897738D01*
X187964285Y-130802500D01*
X187583333Y-130707261D01*
X187107142Y-130707261D01*
X186726190Y-130802500D01*
X186535714Y-130897738D01*
X186440476Y-130992976D01*
X186345238Y-131183452D01*
X186345238Y-131373928D01*
X186440476Y-131564404D01*
X186535714Y-131659642D01*
X186726190Y-131754880D01*
X187107142Y-131850119D01*
X187583333Y-131850119D01*
X187964285Y-131754880D01*
X188154761Y-131659642D01*
X188250000Y-131564404D01*
X188345238Y-131373928D01*
M02*
