G04 #@! TF.GenerationSoftware,KiCad,Pcbnew,(5.1.2)-2*
G04 #@! TF.CreationDate,2020-03-09T10:51:38+01:00*
G04 #@! TF.ProjectId,Extension_PCB,45787465-6e73-4696-9f6e-5f5043422e6b,rev?*
G04 #@! TF.SameCoordinates,Original*
G04 #@! TF.FileFunction,Legend,Top*
G04 #@! TF.FilePolarity,Positive*
%FSLAX46Y46*%
G04 Gerber Fmt 4.6, Leading zero omitted, Abs format (unit mm)*
G04 Created by KiCad (PCBNEW (5.1.2)-2) date 2020-03-09 10:51:38*
%MOMM*%
%LPD*%
G04 APERTURE LIST*
%ADD10C,0.150000*%
%ADD11C,0.120000*%
%ADD12C,0.100000*%
%ADD13C,0.200000*%
%ADD14C,0.325000*%
%ADD15C,0.254000*%
G04 APERTURE END LIST*
D10*
X168880952Y-125782380D02*
X168404761Y-125782380D01*
X168357142Y-126258571D01*
X168404761Y-126210952D01*
X168500000Y-126163333D01*
X168738095Y-126163333D01*
X168833333Y-126210952D01*
X168880952Y-126258571D01*
X168928571Y-126353809D01*
X168928571Y-126591904D01*
X168880952Y-126687142D01*
X168833333Y-126734761D01*
X168738095Y-126782380D01*
X168500000Y-126782380D01*
X168404761Y-126734761D01*
X168357142Y-126687142D01*
X169833333Y-125782380D02*
X169357142Y-125782380D01*
X169309523Y-126258571D01*
X169357142Y-126210952D01*
X169452380Y-126163333D01*
X169690476Y-126163333D01*
X169785714Y-126210952D01*
X169833333Y-126258571D01*
X169880952Y-126353809D01*
X169880952Y-126591904D01*
X169833333Y-126687142D01*
X169785714Y-126734761D01*
X169690476Y-126782380D01*
X169452380Y-126782380D01*
X169357142Y-126734761D01*
X169309523Y-126687142D01*
X170357142Y-126734761D02*
X170357142Y-126782380D01*
X170309523Y-126877619D01*
X170261904Y-126925238D01*
X170976190Y-125782380D02*
X171071428Y-125782380D01*
X171166666Y-125830000D01*
X171214285Y-125877619D01*
X171261904Y-125972857D01*
X171309523Y-126163333D01*
X171309523Y-126401428D01*
X171261904Y-126591904D01*
X171214285Y-126687142D01*
X171166666Y-126734761D01*
X171071428Y-126782380D01*
X170976190Y-126782380D01*
X170880952Y-126734761D01*
X170833333Y-126687142D01*
X170785714Y-126591904D01*
X170738095Y-126401428D01*
X170738095Y-126163333D01*
X170785714Y-125972857D01*
X170833333Y-125877619D01*
X170880952Y-125830000D01*
X170976190Y-125782380D01*
X171928571Y-125782380D02*
X172023809Y-125782380D01*
X172119047Y-125830000D01*
X172166666Y-125877619D01*
X172214285Y-125972857D01*
X172261904Y-126163333D01*
X172261904Y-126401428D01*
X172214285Y-126591904D01*
X172166666Y-126687142D01*
X172119047Y-126734761D01*
X172023809Y-126782380D01*
X171928571Y-126782380D01*
X171833333Y-126734761D01*
X171785714Y-126687142D01*
X171738095Y-126591904D01*
X171690476Y-126401428D01*
X171690476Y-126163333D01*
X171738095Y-125972857D01*
X171785714Y-125877619D01*
X171833333Y-125830000D01*
X171928571Y-125782380D01*
X172880952Y-125782380D02*
X172976190Y-125782380D01*
X173071428Y-125830000D01*
X173119047Y-125877619D01*
X173166666Y-125972857D01*
X173214285Y-126163333D01*
X173214285Y-126401428D01*
X173166666Y-126591904D01*
X173119047Y-126687142D01*
X173071428Y-126734761D01*
X172976190Y-126782380D01*
X172880952Y-126782380D01*
X172785714Y-126734761D01*
X172738095Y-126687142D01*
X172690476Y-126591904D01*
X172642857Y-126401428D01*
X172642857Y-126163333D01*
X172690476Y-125972857D01*
X172738095Y-125877619D01*
X172785714Y-125830000D01*
X172880952Y-125782380D01*
X174404761Y-126782380D02*
X174404761Y-126115714D01*
X174404761Y-126210952D02*
X174452380Y-126163333D01*
X174547619Y-126115714D01*
X174690476Y-126115714D01*
X174785714Y-126163333D01*
X174833333Y-126258571D01*
X174833333Y-126782380D01*
X174833333Y-126258571D02*
X174880952Y-126163333D01*
X174976190Y-126115714D01*
X175119047Y-126115714D01*
X175214285Y-126163333D01*
X175261904Y-126258571D01*
X175261904Y-126782380D01*
X175738095Y-126782380D02*
X175738095Y-126115714D01*
X175738095Y-126210952D02*
X175785714Y-126163333D01*
X175880952Y-126115714D01*
X176023809Y-126115714D01*
X176119047Y-126163333D01*
X176166666Y-126258571D01*
X176166666Y-126782380D01*
X176166666Y-126258571D02*
X176214285Y-126163333D01*
X176309523Y-126115714D01*
X176452380Y-126115714D01*
X176547619Y-126163333D01*
X176595238Y-126258571D01*
X176595238Y-126782380D01*
D11*
X200000000Y-127600000D02*
X145000000Y-127600000D01*
X200000000Y-127600000D02*
X200000000Y-127013579D01*
X145000000Y-127600000D02*
X145000000Y-127013579D01*
X145000000Y-127600000D02*
X146126504Y-127013579D01*
X145000000Y-127600000D02*
X146126504Y-128186421D01*
X200000000Y-127600000D02*
X198873496Y-127013579D01*
X200000000Y-127600000D02*
X198873496Y-128186421D01*
D10*
X182414313Y-125851440D02*
X182413174Y-126422867D01*
X182413743Y-126137153D02*
X181413745Y-126135161D01*
X181556413Y-126230684D01*
X181651461Y-126326111D01*
X181698890Y-126421444D01*
X181415548Y-125230401D02*
X181415737Y-125135163D01*
X181463546Y-125040020D01*
X181511260Y-124992496D01*
X181606593Y-124945067D01*
X181797163Y-124897827D01*
X182035258Y-124898302D01*
X182225639Y-124946300D01*
X182320782Y-124994109D01*
X182368306Y-125041823D01*
X182415735Y-125137155D01*
X182415546Y-125232393D01*
X182367737Y-125327536D01*
X182320023Y-125375060D01*
X182224690Y-125422490D01*
X182034120Y-125469729D01*
X181796025Y-125469255D01*
X181605644Y-125421256D01*
X181510501Y-125373448D01*
X181462977Y-125325734D01*
X181415548Y-125230401D01*
X181417445Y-124278022D02*
X181417635Y-124182784D01*
X181465443Y-124087641D01*
X181513157Y-124040117D01*
X181608490Y-123992688D01*
X181799061Y-123945448D01*
X182037155Y-123945923D01*
X182227536Y-123993921D01*
X182322679Y-124041730D01*
X182370203Y-124089444D01*
X182417633Y-124184776D01*
X182417443Y-124280014D01*
X182369634Y-124375157D01*
X182321920Y-124422681D01*
X182226588Y-124470111D01*
X182036017Y-124517350D01*
X181797922Y-124516876D01*
X181607541Y-124468877D01*
X181512398Y-124421069D01*
X181464874Y-124373355D01*
X181417445Y-124278022D01*
X182371437Y-123470397D02*
X182419056Y-123470492D01*
X182514199Y-123518301D01*
X182561723Y-123566014D01*
X181754098Y-122612023D02*
X182420763Y-122613351D01*
X181372672Y-122849359D02*
X182086482Y-123088876D01*
X182087715Y-122469830D01*
X181422188Y-121897075D02*
X181422378Y-121801837D01*
X181470186Y-121706694D01*
X181517900Y-121659169D01*
X181613233Y-121611740D01*
X181803803Y-121564501D01*
X182041898Y-121564975D01*
X182232279Y-121612973D01*
X182327422Y-121660782D01*
X182374946Y-121708496D01*
X182422376Y-121803829D01*
X182422186Y-121899067D01*
X182374377Y-121994210D01*
X182326663Y-122041734D01*
X182231331Y-122089163D01*
X182040760Y-122136402D01*
X181802665Y-122135928D01*
X181612284Y-122087930D01*
X181517141Y-122040121D01*
X181469617Y-121992407D01*
X181422188Y-121897075D01*
X181424085Y-120944695D02*
X181424275Y-120849458D01*
X181472083Y-120754315D01*
X181519797Y-120706790D01*
X181615130Y-120659361D01*
X181805701Y-120612122D01*
X182043795Y-120612596D01*
X182234176Y-120660594D01*
X182329319Y-120708403D01*
X182376843Y-120756117D01*
X182424273Y-120851450D01*
X182424083Y-120946687D01*
X182376274Y-121041831D01*
X182328561Y-121089355D01*
X182233228Y-121136784D01*
X182042657Y-121184023D01*
X181804562Y-121183549D01*
X181614181Y-121135551D01*
X181519038Y-121087742D01*
X181471514Y-121040028D01*
X181424085Y-120944695D01*
X182427118Y-119422881D02*
X181760453Y-119421553D01*
X181855691Y-119421743D02*
X181808167Y-119374029D01*
X181760738Y-119278696D01*
X181761022Y-119135839D01*
X181808831Y-119040696D01*
X181904164Y-118993267D01*
X182427972Y-118994310D01*
X181904164Y-118993267D02*
X181809021Y-118945458D01*
X181761591Y-118850126D01*
X181761876Y-118707269D01*
X181809685Y-118612126D01*
X181905017Y-118564696D01*
X182428826Y-118565740D01*
X182429775Y-118089550D02*
X181763109Y-118088222D01*
X181858347Y-118088412D02*
X181810823Y-118040698D01*
X181763394Y-117945365D01*
X181763678Y-117802509D01*
X181811487Y-117707366D01*
X181906820Y-117659936D01*
X182430628Y-117660980D01*
X181906820Y-117659936D02*
X181811677Y-117612128D01*
X181764247Y-117516795D01*
X181764532Y-117373938D01*
X181812341Y-117278795D01*
X181907673Y-117231366D01*
X182431482Y-117232409D01*
D11*
X180799999Y-71600398D02*
X180599999Y-172000398D01*
X180600000Y-71600000D02*
X181386418Y-71601567D01*
X180400000Y-172000000D02*
X181186418Y-172001567D01*
X180599999Y-172000398D02*
X180015823Y-170872728D01*
X180599999Y-172000398D02*
X181188663Y-170875065D01*
X180799999Y-71600398D02*
X180211335Y-72725731D01*
X180799999Y-71600398D02*
X181384175Y-72728068D01*
D12*
X165300000Y-135000000D02*
X157550000Y-135000000D01*
X157550000Y-135000000D02*
X157550000Y-168300000D01*
X157550000Y-168300000D02*
X188050000Y-168300000D01*
X188050000Y-168300000D02*
X188050000Y-135000000D01*
X188050000Y-135000000D02*
X180300000Y-135000000D01*
D13*
X178900000Y-134200000D02*
X178900000Y-134200000D01*
X179100000Y-134200000D02*
X179100000Y-134200000D01*
X179100000Y-134200000D02*
G75*
G03X178900000Y-134200000I-100000J0D01*
G01*
X178900000Y-134200000D02*
G75*
G03X179100000Y-134200000I100000J0D01*
G01*
D14*
X185737000Y-101125000D02*
G75*
G03X185737000Y-101125000I-162500J0D01*
G01*
D11*
X163828480Y-89842000D02*
X166828480Y-89842000D01*
X165328480Y-86622000D02*
X166828480Y-86622000D01*
X161354740Y-88145861D02*
X161354740Y-88471419D01*
X162374740Y-88145861D02*
X162374740Y-88471419D01*
X168489600Y-90101661D02*
X168489600Y-90427219D01*
X169509600Y-90101661D02*
X169509600Y-90427219D01*
X164374800Y-91844101D02*
X164374800Y-92169659D01*
X165394800Y-91844101D02*
X165394800Y-92169659D01*
X166325520Y-91816361D02*
X166325520Y-92141919D01*
X167345520Y-91816361D02*
X167345520Y-92141919D01*
X159254160Y-88133361D02*
X159254160Y-88458919D01*
X160274160Y-88133361D02*
X160274160Y-88458919D01*
X157148500Y-88148601D02*
X157148500Y-88474159D01*
X158168500Y-88148601D02*
X158168500Y-88474159D01*
D15*
X172376666Y-150504523D02*
X172376666Y-151411666D01*
X172316190Y-151593095D01*
X172195238Y-151714047D01*
X172013809Y-151774523D01*
X171892857Y-151774523D01*
X173646666Y-151774523D02*
X172920952Y-151774523D01*
X173283809Y-151774523D02*
X173283809Y-150504523D01*
X173162857Y-150685952D01*
X173041904Y-150806904D01*
X172920952Y-150867380D01*
X180960238Y-98774523D02*
X180960238Y-97504523D01*
X182290714Y-98653571D02*
X182230238Y-98714047D01*
X182048809Y-98774523D01*
X181927857Y-98774523D01*
X181746428Y-98714047D01*
X181625476Y-98593095D01*
X181565000Y-98472142D01*
X181504523Y-98230238D01*
X181504523Y-98048809D01*
X181565000Y-97806904D01*
X181625476Y-97685952D01*
X181746428Y-97565000D01*
X181927857Y-97504523D01*
X182048809Y-97504523D01*
X182230238Y-97565000D01*
X182290714Y-97625476D01*
X183500238Y-98774523D02*
X182774523Y-98774523D01*
X183137380Y-98774523D02*
X183137380Y-97504523D01*
X183016428Y-97685952D01*
X182895476Y-97806904D01*
X182774523Y-97867380D01*
D10*
X161852380Y-84204761D02*
X161995238Y-84252380D01*
X162233333Y-84252380D01*
X162328571Y-84204761D01*
X162376190Y-84157142D01*
X162423809Y-84061904D01*
X162423809Y-83966666D01*
X162376190Y-83871428D01*
X162328571Y-83823809D01*
X162233333Y-83776190D01*
X162042857Y-83728571D01*
X161947619Y-83680952D01*
X161900000Y-83633333D01*
X161852380Y-83538095D01*
X161852380Y-83442857D01*
X161900000Y-83347619D01*
X161947619Y-83300000D01*
X162042857Y-83252380D01*
X162280952Y-83252380D01*
X162423809Y-83300000D01*
X162757142Y-83252380D02*
X162995238Y-84252380D01*
X163185714Y-83538095D01*
X163376190Y-84252380D01*
X163614285Y-83252380D01*
X164566666Y-84252380D02*
X164233333Y-83776190D01*
X163995238Y-84252380D02*
X163995238Y-83252380D01*
X164376190Y-83252380D01*
X164471428Y-83300000D01*
X164519047Y-83347619D01*
X164566666Y-83442857D01*
X164566666Y-83585714D01*
X164519047Y-83680952D01*
X164471428Y-83728571D01*
X164376190Y-83776190D01*
X163995238Y-83776190D01*
X165376190Y-84204761D02*
X165280952Y-84252380D01*
X165090476Y-84252380D01*
X164995238Y-84204761D01*
X164947619Y-84109523D01*
X164947619Y-83728571D01*
X164995238Y-83633333D01*
X165090476Y-83585714D01*
X165280952Y-83585714D01*
X165376190Y-83633333D01*
X165423809Y-83728571D01*
X165423809Y-83823809D01*
X164947619Y-83919047D01*
X166280952Y-83585714D02*
X166280952Y-84395238D01*
X166233333Y-84490476D01*
X166185714Y-84538095D01*
X166090476Y-84585714D01*
X165947619Y-84585714D01*
X165852380Y-84538095D01*
X166280952Y-84204761D02*
X166185714Y-84252380D01*
X165995238Y-84252380D01*
X165900000Y-84204761D01*
X165852380Y-84157142D01*
X165804761Y-84061904D01*
X165804761Y-83776190D01*
X165852380Y-83680952D01*
X165900000Y-83633333D01*
X165995238Y-83585714D01*
X166185714Y-83585714D01*
X166280952Y-83633333D01*
X166519047Y-84347619D02*
X167280952Y-84347619D01*
X167519047Y-84252380D02*
X167519047Y-83252380D01*
X168090476Y-84252380D01*
X168090476Y-83252380D01*
X168423809Y-83252380D02*
X168757142Y-84252380D01*
X169090476Y-83252380D01*
X169995238Y-84157142D02*
X169947619Y-84204761D01*
X169804761Y-84252380D01*
X169709523Y-84252380D01*
X169566666Y-84204761D01*
X169471428Y-84109523D01*
X169423809Y-84014285D01*
X169376190Y-83823809D01*
X169376190Y-83680952D01*
X169423809Y-83490476D01*
X169471428Y-83395238D01*
X169566666Y-83300000D01*
X169709523Y-83252380D01*
X169804761Y-83252380D01*
X169947619Y-83300000D01*
X169995238Y-83347619D01*
X170947619Y-84252380D02*
X170376190Y-84252380D01*
X170661904Y-84252380D02*
X170661904Y-83252380D01*
X170566666Y-83395238D01*
X170471428Y-83490476D01*
X170376190Y-83538095D01*
X161852380Y-91466666D02*
X161376190Y-91800000D01*
X161852380Y-92038095D02*
X160852380Y-92038095D01*
X160852380Y-91657142D01*
X160900000Y-91561904D01*
X160947619Y-91514285D01*
X161042857Y-91466666D01*
X161185714Y-91466666D01*
X161280952Y-91514285D01*
X161328571Y-91561904D01*
X161376190Y-91657142D01*
X161376190Y-92038095D01*
X161852380Y-90514285D02*
X161852380Y-91085714D01*
X161852380Y-90800000D02*
X160852380Y-90800000D01*
X160995238Y-90895238D01*
X161090476Y-90990476D01*
X161138095Y-91085714D01*
X171352380Y-90466666D02*
X171352380Y-90942857D01*
X170352380Y-90942857D01*
X171352380Y-89609523D02*
X171352380Y-90180952D01*
X171352380Y-89895238D02*
X170352380Y-89895238D01*
X170495238Y-89990476D01*
X170590476Y-90085714D01*
X170638095Y-90180952D01*
X166357142Y-95366666D02*
X166404761Y-95414285D01*
X166452380Y-95557142D01*
X166452380Y-95652380D01*
X166404761Y-95795238D01*
X166309523Y-95890476D01*
X166214285Y-95938095D01*
X166023809Y-95985714D01*
X165880952Y-95985714D01*
X165690476Y-95938095D01*
X165595238Y-95890476D01*
X165500000Y-95795238D01*
X165452380Y-95652380D01*
X165452380Y-95557142D01*
X165500000Y-95414285D01*
X165547619Y-95366666D01*
X165785714Y-94509523D02*
X166452380Y-94509523D01*
X165404761Y-94747619D02*
X166119047Y-94985714D01*
X166119047Y-94366666D01*
X168157142Y-95366666D02*
X168204761Y-95414285D01*
X168252380Y-95557142D01*
X168252380Y-95652380D01*
X168204761Y-95795238D01*
X168109523Y-95890476D01*
X168014285Y-95938095D01*
X167823809Y-95985714D01*
X167680952Y-95985714D01*
X167490476Y-95938095D01*
X167395238Y-95890476D01*
X167300000Y-95795238D01*
X167252380Y-95652380D01*
X167252380Y-95557142D01*
X167300000Y-95414285D01*
X167347619Y-95366666D01*
X167252380Y-95033333D02*
X167252380Y-94414285D01*
X167633333Y-94747619D01*
X167633333Y-94604761D01*
X167680952Y-94509523D01*
X167728571Y-94461904D01*
X167823809Y-94414285D01*
X168061904Y-94414285D01*
X168157142Y-94461904D01*
X168204761Y-94509523D01*
X168252380Y-94604761D01*
X168252380Y-94890476D01*
X168204761Y-94985714D01*
X168157142Y-95033333D01*
X159757142Y-91466666D02*
X159804761Y-91514285D01*
X159852380Y-91657142D01*
X159852380Y-91752380D01*
X159804761Y-91895238D01*
X159709523Y-91990476D01*
X159614285Y-92038095D01*
X159423809Y-92085714D01*
X159280952Y-92085714D01*
X159090476Y-92038095D01*
X158995238Y-91990476D01*
X158900000Y-91895238D01*
X158852380Y-91752380D01*
X158852380Y-91657142D01*
X158900000Y-91514285D01*
X158947619Y-91466666D01*
X158947619Y-91085714D02*
X158900000Y-91038095D01*
X158852380Y-90942857D01*
X158852380Y-90704761D01*
X158900000Y-90609523D01*
X158947619Y-90561904D01*
X159042857Y-90514285D01*
X159138095Y-90514285D01*
X159280952Y-90561904D01*
X159852380Y-91133333D01*
X159852380Y-90514285D01*
X157757142Y-91466666D02*
X157804761Y-91514285D01*
X157852380Y-91657142D01*
X157852380Y-91752380D01*
X157804761Y-91895238D01*
X157709523Y-91990476D01*
X157614285Y-92038095D01*
X157423809Y-92085714D01*
X157280952Y-92085714D01*
X157090476Y-92038095D01*
X156995238Y-91990476D01*
X156900000Y-91895238D01*
X156852380Y-91752380D01*
X156852380Y-91657142D01*
X156900000Y-91514285D01*
X156947619Y-91466666D01*
X157852380Y-90514285D02*
X157852380Y-91085714D01*
X157852380Y-90800000D02*
X156852380Y-90800000D01*
X156995238Y-90895238D01*
X157090476Y-90990476D01*
X157138095Y-91085714D01*
X169356066Y-97711805D02*
X169356066Y-97235615D01*
X169641780Y-97807043D02*
X168641780Y-97473710D01*
X169641780Y-97140377D01*
X169641780Y-96283234D02*
X169641780Y-96854662D01*
X169641780Y-96568948D02*
X168641780Y-96568948D01*
X168784638Y-96664186D01*
X168879876Y-96759424D01*
X168927495Y-96854662D01*
M02*
