M48
; DRILL file {KiCad (5.1.2)-2} date 09-Mar-20 10:51:42 AM
; FORMAT={-:-/ absolute / inch / decimal}
; #@! TF.CreationDate,2020-03-09T10:51:42+01:00
; #@! TF.GenerationSoftware,Kicad,Pcbnew,(5.1.2)-2
; #@! TF.FileFunction,Plated,1,2,PTH
FMAT,2
INCH
T1C0.0157
T2C0.0315
T3C0.0394
T4C0.0472
T5C0.1280
%
G90
G05
T1
X6.4125Y-3.5903
X6.4488Y-3.3858
X7.1024Y-3.685
X7.1417Y-3.685
T2
X5.8567Y-3.0433
X5.8567Y-3.1433
X5.8567Y-3.2433
X5.8567Y-3.3433
X5.8567Y-3.4433
X5.8567Y-3.5433
X5.8567Y-3.7433
X5.8567Y-3.8433
X5.8567Y-3.9433
X5.8567Y-4.0433
X5.8567Y-4.1433
X5.8567Y-4.2433
X5.8567Y-4.3433
X5.8567Y-4.4433
X7.7567Y-3.0433
X7.7567Y-3.1433
X7.7567Y-3.2433
X7.7567Y-3.3433
X7.7567Y-3.4433
X7.7567Y-3.5433
X7.7567Y-3.6433
X7.7567Y-3.7433
X7.7567Y-3.9031
X7.7567Y-4.0031
X7.7567Y-4.1031
X7.7567Y-4.2031
X7.7567Y-4.3031
X7.7567Y-4.4031
X7.7567Y-4.5031
X7.7567Y-4.6031
X7.7567Y-4.7031
X7.7567Y-4.8031
T3
X6.9843Y-3.5118
X7.2677Y-3.5197
X7.4094Y-3.8898
T4
X6.5571Y-5.3346
X6.5571Y-5.4528
X6.6555Y-5.3346
X6.6555Y-5.4528
X6.7539Y-5.3346
X6.7539Y-5.4528
X6.8524Y-5.3346
X6.8524Y-5.4528
X6.9508Y-5.3346
X6.9508Y-5.4528
X7.0492Y-5.3346
X7.0492Y-5.4528
T5
X6.3406Y-5.5118
X7.2657Y-5.5118
T0
M30
