M48
; DRILL file {KiCad (5.1.4)-1} date 11/11/19 21:43:08
; FORMAT={-:-/ absolute / metric / decimal}
; #@! TF.CreationDate,2019-11-11T21:43:08+01:00
; #@! TF.GenerationSoftware,Kicad,Pcbnew,(5.1.4)-1
; #@! TF.FileFunction,Plated,1,2,PTH
FMAT,2
METRIC
T1C0.800
T2C1.000
%
G90
G05
T1
X190.5Y-180.34
X190.5Y-182.88
X190.5Y-185.42
X190.5Y-187.96
X190.5Y-190.5
X190.5Y-193.04
X190.5Y-195.58
X190.5Y-198.12
X198.12Y-180.34
X198.12Y-182.88
X198.12Y-185.42
X198.12Y-187.96
X198.12Y-190.5
X198.12Y-193.04
X198.12Y-195.58
X198.12Y-198.12
T2
X209.55Y-176.53
X209.55Y-179.07
X209.55Y-181.61
X209.55Y-184.15
X209.55Y-186.69
X209.55Y-189.23
X209.55Y-191.77
X209.55Y-194.31
X209.55Y-196.85
X209.55Y-199.39
X184.15Y-180.34
X184.15Y-185.34
X204.47Y-175.26
X204.47Y-180.26
X191.77Y-175.26
X196.77Y-175.26
X184.15Y-189.23
X184.15Y-194.23
X181.69Y-199.39
X186.69Y-199.39
T0
M30
