G04 #@! TF.GenerationSoftware,KiCad,Pcbnew,(5.1.4)-1*
G04 #@! TF.CreationDate,2019-11-18T21:48:27+01:00*
G04 #@! TF.ProjectId,UART_RS232,55415254-5f52-4533-9233-322e6b696361,rev?*
G04 #@! TF.SameCoordinates,Original*
G04 #@! TF.FileFunction,Copper,L1,Top*
G04 #@! TF.FilePolarity,Positive*
%FSLAX46Y46*%
G04 Gerber Fmt 4.6, Leading zero omitted, Abs format (unit mm)*
G04 Created by KiCad (PCBNEW (5.1.4)-1) date 2019-11-18 21:48:27*
%MOMM*%
%LPD*%
G04 APERTURE LIST*
%ADD10O,1.600000X1.600000*%
%ADD11R,1.600000X1.600000*%
%ADD12C,2.000000*%
%ADD13R,1.700000X1.700000*%
%ADD14O,1.700000X1.700000*%
%ADD15C,0.500000*%
G04 APERTURE END LIST*
D10*
X122580400Y-84226400D03*
X114960400Y-102006400D03*
X122580400Y-86766400D03*
X114960400Y-99466400D03*
X122580400Y-89306400D03*
X114960400Y-96926400D03*
X122580400Y-91846400D03*
X114960400Y-94386400D03*
X122580400Y-94386400D03*
X114960400Y-91846400D03*
X122580400Y-96926400D03*
X114960400Y-89306400D03*
X122580400Y-99466400D03*
X114960400Y-86766400D03*
X122580400Y-102006400D03*
D11*
X114960400Y-84226400D03*
D12*
X108610400Y-93116400D03*
X108610400Y-98116400D03*
X128930400Y-79146400D03*
X128930400Y-84146400D03*
D13*
X134010400Y-80416400D03*
D14*
X134010400Y-82956400D03*
X134010400Y-85496400D03*
X134010400Y-88036400D03*
X134010400Y-90576400D03*
X134010400Y-93116400D03*
X134010400Y-95656400D03*
X134010400Y-98196400D03*
X134010400Y-100736400D03*
X134010400Y-103276400D03*
D12*
X108610400Y-89226400D03*
X108610400Y-84226400D03*
X116230400Y-79146400D03*
X121230400Y-79146400D03*
X106150400Y-103276400D03*
X111150400Y-103276400D03*
D15*
X114880400Y-89226400D02*
X114960400Y-89306400D01*
X108610400Y-89226400D02*
X114880400Y-89226400D01*
X108610400Y-84226400D02*
X114960400Y-84226400D01*
X108610400Y-93116400D02*
X109880400Y-93116400D01*
X111150400Y-91846400D02*
X114960400Y-91846400D01*
X109880400Y-93116400D02*
X111150400Y-91846400D01*
X108610400Y-98116400D02*
X108610400Y-96926400D01*
X111150400Y-94386400D02*
X114960400Y-94386400D01*
X108610400Y-96926400D02*
X111150400Y-94386400D01*
X114960400Y-86766400D02*
X117500400Y-86766400D01*
X117500400Y-86766400D02*
X117500400Y-80416400D01*
X117500400Y-80416400D02*
X116230400Y-79146400D01*
X111150400Y-103276400D02*
X111150400Y-99974400D01*
X114960400Y-96926400D02*
X113436400Y-96926400D01*
X111150400Y-99212400D02*
X111150400Y-99974400D01*
X113436400Y-96926400D02*
X111150400Y-99212400D01*
X125120400Y-96926400D02*
X122580400Y-96926400D01*
X134010400Y-85496400D02*
X131470400Y-85496400D01*
X131470400Y-85496400D02*
X125120400Y-91846400D01*
X125120400Y-91846400D02*
X125120400Y-96926400D01*
X125120400Y-99466400D02*
X122580400Y-99466400D01*
X125120400Y-99466400D02*
X131470400Y-93116400D01*
X131470400Y-93116400D02*
X131470400Y-88036400D01*
X131470400Y-88036400D02*
X134010400Y-88036400D01*
X125120400Y-102006400D02*
X122580400Y-102006400D01*
X125120400Y-102006400D02*
X134010400Y-93116400D01*
X114960400Y-99466400D02*
X117500400Y-99466400D01*
X125120400Y-104546400D02*
X118770400Y-104546400D01*
X118770400Y-104546400D02*
X118770400Y-99466400D01*
X118770400Y-99466400D02*
X114960400Y-99466400D01*
X125120400Y-104546400D02*
X131470400Y-98196400D01*
X131470400Y-98196400D02*
X134010400Y-98196400D01*
X114960400Y-102006400D02*
X114960400Y-105816400D01*
X114960400Y-105816400D02*
X134010400Y-105816400D01*
X134010400Y-105816400D02*
X134010400Y-103276400D01*
X122580400Y-84226400D02*
X123930400Y-84226400D01*
X128850400Y-84226400D02*
X128930400Y-84146400D01*
X122580400Y-84226400D02*
X128850400Y-84226400D01*
X130120400Y-82956400D02*
X128930400Y-84146400D01*
X134010400Y-82956400D02*
X130200400Y-82956400D01*
M02*
