M48
; DRILL file {KiCad (5.1.4)-1} date 18.11.2019 21:48:30
; FORMAT={-:-/ absolute / metric / decimal}
; #@! TF.CreationDate,2019-11-18T21:48:30+01:00
; #@! TF.GenerationSoftware,Kicad,Pcbnew,(5.1.4)-1
; #@! TF.FileFunction,Plated,1,2,PTH
FMAT,2
METRIC
T1C0.800
T2C1.000
%
G90
G05
T1
X114.96Y-84.226
X114.96Y-86.766
X114.96Y-89.306
X114.96Y-91.846
X114.96Y-94.386
X114.96Y-96.926
X114.96Y-99.466
X114.96Y-102.006
X122.58Y-84.226
X122.58Y-86.766
X122.58Y-89.306
X122.58Y-91.846
X122.58Y-94.386
X122.58Y-96.926
X122.58Y-99.466
X122.58Y-102.006
T2
X108.61Y-93.116
X108.61Y-98.116
X128.93Y-79.146
X128.93Y-84.146
X134.01Y-80.416
X134.01Y-82.956
X134.01Y-85.496
X134.01Y-88.036
X134.01Y-90.576
X134.01Y-93.116
X134.01Y-95.656
X134.01Y-98.196
X134.01Y-100.736
X134.01Y-103.276
X108.61Y-84.226
X108.61Y-89.226
X106.15Y-103.276
X111.15Y-103.276
X116.23Y-79.146
X121.23Y-79.146
T0
M30
