G04 #@! TF.GenerationSoftware,KiCad,Pcbnew,(5.1.6)-1*
G04 #@! TF.CreationDate,2020-12-13T19:23:20+01:00*
G04 #@! TF.ProjectId,ACM Breakout,41434d20-4272-4656-916b-6f75742e6b69,rev?*
G04 #@! TF.SameCoordinates,Original*
G04 #@! TF.FileFunction,Legend,Top*
G04 #@! TF.FilePolarity,Positive*
%FSLAX46Y46*%
G04 Gerber Fmt 4.6, Leading zero omitted, Abs format (unit mm)*
G04 Created by KiCad (PCBNEW (5.1.6)-1) date 2020-12-13 19:23:20*
%MOMM*%
%LPD*%
G01*
G04 APERTURE LIST*
%ADD10C,0.150000*%
%ADD11C,0.120000*%
G04 APERTURE END LIST*
D10*
X-10464568Y-2097004D02*
X-10525602Y-2125464D01*
X-10676130Y-2121352D01*
X-10765625Y-2088778D01*
X-10883580Y-1995171D01*
X-10940501Y-1873103D01*
X-10952675Y-1767322D01*
X-10932275Y-1572046D01*
X-10883415Y-1437804D01*
X-10773521Y-1275102D01*
X-10696201Y-1201894D01*
X-10574133Y-1144973D01*
X-10423604Y-1149086D01*
X-10334110Y-1181659D01*
X-10216155Y-1275266D01*
X-10187694Y-1336300D01*
X-10041443Y-2048308D02*
X-9593970Y-2211175D01*
X-10228657Y-2284218D02*
X-9573406Y-1458532D01*
X-9602196Y-2512232D01*
X-9288965Y-2626239D02*
X-8946945Y-1686546D01*
X-8751997Y-2821679D01*
X-8409977Y-1881986D01*
X-7141096Y-3407999D02*
X-7588569Y-3245132D01*
X-7246548Y-2305439D01*
X-10576436Y-4306287D02*
X-10637470Y-4334748D01*
X-10787998Y-4330635D01*
X-10877493Y-4298062D01*
X-10995448Y-4204454D01*
X-11052369Y-4082386D01*
X-11064543Y-3976605D01*
X-11044144Y-3781329D01*
X-10995283Y-3647088D01*
X-10885390Y-3484385D01*
X-10808069Y-3411177D01*
X-10686001Y-3354256D01*
X-10535473Y-3358369D01*
X-10445978Y-3390942D01*
X-10328023Y-3484550D01*
X-10299562Y-3545584D01*
X-10153311Y-4257591D02*
X-9705838Y-4420458D01*
X-10340525Y-4493502D02*
X-9685274Y-3667816D01*
X-9714064Y-4721515D01*
X-9400833Y-4835522D02*
X-9058813Y-3895829D01*
X-8863866Y-5030962D01*
X-8521846Y-4091269D01*
X-7700437Y-5454415D02*
X-7358417Y-4514723D01*
X-7521283Y-4962195D02*
X-6984316Y-5157636D01*
X-7163469Y-5649856D02*
X-6821449Y-4710163D01*
X-10419047Y-7152380D02*
X-10419047Y-6152380D01*
X-10180952Y-6152380D01*
X-10038095Y-6200000D01*
X-9942857Y-6295238D01*
X-9895238Y-6390476D01*
X-9847619Y-6580952D01*
X-9847619Y-6723809D01*
X-9895238Y-6914285D01*
X-9942857Y-7009523D01*
X-10038095Y-7104761D01*
X-10180952Y-7152380D01*
X-10419047Y-7152380D01*
X-8942857Y-6152380D02*
X-9419047Y-6152380D01*
X-9466666Y-6628571D01*
X-9419047Y-6580952D01*
X-9323809Y-6533333D01*
X-9085714Y-6533333D01*
X-8990476Y-6580952D01*
X-8942857Y-6628571D01*
X-8895238Y-6723809D01*
X-8895238Y-6961904D01*
X-8942857Y-7057142D01*
X-8990476Y-7104761D01*
X-9085714Y-7152380D01*
X-9323809Y-7152380D01*
X-9419047Y-7104761D01*
X-9466666Y-7057142D01*
X-7752380Y-6104761D02*
X-8609523Y-7390476D01*
X-6895238Y-6200000D02*
X-6990476Y-6152380D01*
X-7133333Y-6152380D01*
X-7276190Y-6200000D01*
X-7371428Y-6295238D01*
X-7419047Y-6390476D01*
X-7466666Y-6580952D01*
X-7466666Y-6723809D01*
X-7419047Y-6914285D01*
X-7371428Y-7009523D01*
X-7276190Y-7104761D01*
X-7133333Y-7152380D01*
X-7038095Y-7152380D01*
X-6895238Y-7104761D01*
X-6847619Y-7057142D01*
X-6847619Y-6723809D01*
X-7038095Y-6723809D01*
X-6419047Y-7152380D02*
X-6419047Y-6485714D01*
X-6419047Y-6676190D02*
X-6371428Y-6580952D01*
X-6323809Y-6533333D01*
X-6228571Y-6485714D01*
X-6133333Y-6485714D01*
X-5419047Y-7104761D02*
X-5514285Y-7152380D01*
X-5704761Y-7152380D01*
X-5800000Y-7104761D01*
X-5847619Y-7009523D01*
X-5847619Y-6628571D01*
X-5800000Y-6533333D01*
X-5704761Y-6485714D01*
X-5514285Y-6485714D01*
X-5419047Y-6533333D01*
X-5371428Y-6628571D01*
X-5371428Y-6723809D01*
X-5847619Y-6819047D01*
X-4561904Y-7104761D02*
X-4657142Y-7152380D01*
X-4847619Y-7152380D01*
X-4942857Y-7104761D01*
X-4990476Y-7009523D01*
X-4990476Y-6628571D01*
X-4942857Y-6533333D01*
X-4847619Y-6485714D01*
X-4657142Y-6485714D01*
X-4561904Y-6533333D01*
X-4514285Y-6628571D01*
X-4514285Y-6723809D01*
X-4990476Y-6819047D01*
X-4085714Y-6485714D02*
X-4085714Y-7152380D01*
X-4085714Y-6580952D02*
X-4038095Y-6533333D01*
X-3942857Y-6485714D01*
X-3800000Y-6485714D01*
X-3704761Y-6533333D01*
X-3657142Y-6628571D01*
X-3657142Y-7152380D01*
X-1942857Y-7152380D02*
X-2419047Y-7152380D01*
X-2419047Y-6152380D01*
X-1609523Y-6628571D02*
X-1276190Y-6628571D01*
X-1133333Y-7152380D02*
X-1609523Y-7152380D01*
X-1609523Y-6152380D01*
X-1133333Y-6152380D01*
X-704761Y-7152380D02*
X-704761Y-6152380D01*
X-466666Y-6152380D01*
X-323809Y-6200000D01*
X-228571Y-6295238D01*
X-180952Y-6390476D01*
X-133333Y-6580952D01*
X-133333Y-6723809D01*
X-180952Y-6914285D01*
X-228571Y-7009523D01*
X-323809Y-7104761D01*
X-466666Y-7152380D01*
X-704761Y-7152380D01*
X-10438095Y-9452380D02*
X-10438095Y-8452380D01*
X-10200000Y-8452380D01*
X-10057142Y-8500000D01*
X-9961904Y-8595238D01*
X-9914285Y-8690476D01*
X-9866666Y-8880952D01*
X-9866666Y-9023809D01*
X-9914285Y-9214285D01*
X-9961904Y-9309523D01*
X-10057142Y-9404761D01*
X-10200000Y-9452380D01*
X-10438095Y-9452380D01*
X-9009523Y-8452380D02*
X-9200000Y-8452380D01*
X-9295238Y-8500000D01*
X-9342857Y-8547619D01*
X-9438095Y-8690476D01*
X-9485714Y-8880952D01*
X-9485714Y-9261904D01*
X-9438095Y-9357142D01*
X-9390476Y-9404761D01*
X-9295238Y-9452380D01*
X-9104761Y-9452380D01*
X-9009523Y-9404761D01*
X-8961904Y-9357142D01*
X-8914285Y-9261904D01*
X-8914285Y-9023809D01*
X-8961904Y-8928571D01*
X-9009523Y-8880952D01*
X-9104761Y-8833333D01*
X-9295238Y-8833333D01*
X-9390476Y-8880952D01*
X-9438095Y-8928571D01*
X-9485714Y-9023809D01*
X-10619047Y-17202380D02*
X-10619047Y-16202380D01*
X-10380952Y-16202380D01*
X-10238095Y-16250000D01*
X-10142857Y-16345238D01*
X-10095238Y-16440476D01*
X-10047619Y-16630952D01*
X-10047619Y-16773809D01*
X-10095238Y-16964285D01*
X-10142857Y-17059523D01*
X-10238095Y-17154761D01*
X-10380952Y-17202380D01*
X-10619047Y-17202380D01*
X-9095238Y-17202380D02*
X-9666666Y-17202380D01*
X-9380952Y-17202380D02*
X-9380952Y-16202380D01*
X-9476190Y-16345238D01*
X-9571428Y-16440476D01*
X-9666666Y-16488095D01*
X-8476190Y-16202380D02*
X-8380952Y-16202380D01*
X-8285714Y-16250000D01*
X-8238095Y-16297619D01*
X-8190476Y-16392857D01*
X-8142857Y-16583333D01*
X-8142857Y-16821428D01*
X-8190476Y-17011904D01*
X-8238095Y-17107142D01*
X-8285714Y-17154761D01*
X-8380952Y-17202380D01*
X-8476190Y-17202380D01*
X-8571428Y-17154761D01*
X-8619047Y-17107142D01*
X-8666666Y-17011904D01*
X-8714285Y-16821428D01*
X-8714285Y-16583333D01*
X-8666666Y-16392857D01*
X-8619047Y-16297619D01*
X-8571428Y-16250000D01*
X-8476190Y-16202380D01*
X-7000000Y-16154761D02*
X-7857142Y-17440476D01*
X-6333333Y-16678571D02*
X-6190476Y-16726190D01*
X-6142857Y-16773809D01*
X-6095238Y-16869047D01*
X-6095238Y-17011904D01*
X-6142857Y-17107142D01*
X-6190476Y-17154761D01*
X-6285714Y-17202380D01*
X-6666666Y-17202380D01*
X-6666666Y-16202380D01*
X-6333333Y-16202380D01*
X-6238095Y-16250000D01*
X-6190476Y-16297619D01*
X-6142857Y-16392857D01*
X-6142857Y-16488095D01*
X-6190476Y-16583333D01*
X-6238095Y-16630952D01*
X-6333333Y-16678571D01*
X-6666666Y-16678571D01*
X-5523809Y-17202380D02*
X-5619047Y-17154761D01*
X-5666666Y-17059523D01*
X-5666666Y-16202380D01*
X-4714285Y-16535714D02*
X-4714285Y-17202380D01*
X-5142857Y-16535714D02*
X-5142857Y-17059523D01*
X-5095238Y-17154761D01*
X-5000000Y-17202380D01*
X-4857142Y-17202380D01*
X-4761904Y-17154761D01*
X-4714285Y-17107142D01*
X-3857142Y-17154761D02*
X-3952380Y-17202380D01*
X-4142857Y-17202380D01*
X-4238095Y-17154761D01*
X-4285714Y-17059523D01*
X-4285714Y-16678571D01*
X-4238095Y-16583333D01*
X-4142857Y-16535714D01*
X-3952380Y-16535714D01*
X-3857142Y-16583333D01*
X-3809523Y-16678571D01*
X-3809523Y-16773809D01*
X-4285714Y-16869047D01*
X-2142857Y-17202380D02*
X-2619047Y-17202380D01*
X-2619047Y-16202380D01*
X-1809523Y-16678571D02*
X-1476190Y-16678571D01*
X-1333333Y-17202380D02*
X-1809523Y-17202380D01*
X-1809523Y-16202380D01*
X-1333333Y-16202380D01*
X-904761Y-17202380D02*
X-904761Y-16202380D01*
X-666666Y-16202380D01*
X-523809Y-16250000D01*
X-428571Y-16345238D01*
X-380952Y-16440476D01*
X-333333Y-16630952D01*
X-333333Y-16773809D01*
X-380952Y-16964285D01*
X-428571Y-17059523D01*
X-523809Y-17154761D01*
X-666666Y-17202380D01*
X-904761Y-17202380D01*
X3452380Y-16952380D02*
X3452380Y-15952380D01*
X3785714Y-16666666D01*
X4119047Y-15952380D01*
X4119047Y-16952380D01*
X4785714Y-15952380D02*
X4976190Y-15952380D01*
X5071428Y-16000000D01*
X5166666Y-16095238D01*
X5214285Y-16285714D01*
X5214285Y-16619047D01*
X5166666Y-16809523D01*
X5071428Y-16904761D01*
X4976190Y-16952380D01*
X4785714Y-16952380D01*
X4690476Y-16904761D01*
X4595238Y-16809523D01*
X4547619Y-16619047D01*
X4547619Y-16285714D01*
X4595238Y-16095238D01*
X4690476Y-16000000D01*
X4785714Y-15952380D01*
X5595238Y-16904761D02*
X5738095Y-16952380D01*
X5976190Y-16952380D01*
X6071428Y-16904761D01*
X6119047Y-16857142D01*
X6166666Y-16761904D01*
X6166666Y-16666666D01*
X6119047Y-16571428D01*
X6071428Y-16523809D01*
X5976190Y-16476190D01*
X5785714Y-16428571D01*
X5690476Y-16380952D01*
X5642857Y-16333333D01*
X5595238Y-16238095D01*
X5595238Y-16142857D01*
X5642857Y-16047619D01*
X5690476Y-16000000D01*
X5785714Y-15952380D01*
X6023809Y-15952380D01*
X6166666Y-16000000D01*
X6595238Y-16952380D02*
X6595238Y-15952380D01*
X7785714Y-15904761D02*
X6928571Y-17190476D01*
X8119047Y-16952380D02*
X8119047Y-15952380D01*
X8357142Y-15952380D01*
X8500000Y-16000000D01*
X8595238Y-16095238D01*
X8642857Y-16190476D01*
X8690476Y-16380952D01*
X8690476Y-16523809D01*
X8642857Y-16714285D01*
X8595238Y-16809523D01*
X8500000Y-16904761D01*
X8357142Y-16952380D01*
X8119047Y-16952380D01*
X9642857Y-16952380D02*
X9071428Y-16952380D01*
X9357142Y-16952380D02*
X9357142Y-15952380D01*
X9261904Y-16095238D01*
X9166666Y-16190476D01*
X9071428Y-16238095D01*
X10595238Y-16952380D02*
X10023809Y-16952380D01*
X10309523Y-16952380D02*
X10309523Y-15952380D01*
X10214285Y-16095238D01*
X10119047Y-16190476D01*
X10023809Y-16238095D01*
X3452380Y-14452380D02*
X3452380Y-13452380D01*
X3785714Y-14166666D01*
X4119047Y-13452380D01*
X4119047Y-14452380D01*
X4595238Y-14452380D02*
X4595238Y-13452380D01*
X5023809Y-14404761D02*
X5166666Y-14452380D01*
X5404761Y-14452380D01*
X5500000Y-14404761D01*
X5547619Y-14357142D01*
X5595238Y-14261904D01*
X5595238Y-14166666D01*
X5547619Y-14071428D01*
X5500000Y-14023809D01*
X5404761Y-13976190D01*
X5214285Y-13928571D01*
X5119047Y-13880952D01*
X5071428Y-13833333D01*
X5023809Y-13738095D01*
X5023809Y-13642857D01*
X5071428Y-13547619D01*
X5119047Y-13500000D01*
X5214285Y-13452380D01*
X5452380Y-13452380D01*
X5595238Y-13500000D01*
X6214285Y-13452380D02*
X6404761Y-13452380D01*
X6500000Y-13500000D01*
X6595238Y-13595238D01*
X6642857Y-13785714D01*
X6642857Y-14119047D01*
X6595238Y-14309523D01*
X6500000Y-14404761D01*
X6404761Y-14452380D01*
X6214285Y-14452380D01*
X6119047Y-14404761D01*
X6023809Y-14309523D01*
X5976190Y-14119047D01*
X5976190Y-13785714D01*
X6023809Y-13595238D01*
X6119047Y-13500000D01*
X6214285Y-13452380D01*
X7785714Y-13404761D02*
X6928571Y-14690476D01*
X8119047Y-14452380D02*
X8119047Y-13452380D01*
X8357142Y-13452380D01*
X8500000Y-13500000D01*
X8595238Y-13595238D01*
X8642857Y-13690476D01*
X8690476Y-13880952D01*
X8690476Y-14023809D01*
X8642857Y-14214285D01*
X8595238Y-14309523D01*
X8500000Y-14404761D01*
X8357142Y-14452380D01*
X8119047Y-14452380D01*
X9642857Y-14452380D02*
X9071428Y-14452380D01*
X9357142Y-14452380D02*
X9357142Y-13452380D01*
X9261904Y-13595238D01*
X9166666Y-13690476D01*
X9071428Y-13738095D01*
X10023809Y-13547619D02*
X10071428Y-13500000D01*
X10166666Y-13452380D01*
X10404761Y-13452380D01*
X10500000Y-13500000D01*
X10547619Y-13547619D01*
X10595238Y-13642857D01*
X10595238Y-13738095D01*
X10547619Y-13880952D01*
X9976190Y-14452380D01*
X10595238Y-14452380D01*
X8035714Y-11952380D02*
X8035714Y-10952380D01*
X8273809Y-10952380D01*
X8416666Y-11000000D01*
X8511904Y-11095238D01*
X8559523Y-11190476D01*
X8607142Y-11380952D01*
X8607142Y-11523809D01*
X8559523Y-11714285D01*
X8511904Y-11809523D01*
X8416666Y-11904761D01*
X8273809Y-11952380D01*
X8035714Y-11952380D01*
X9559523Y-11952380D02*
X8988095Y-11952380D01*
X9273809Y-11952380D02*
X9273809Y-10952380D01*
X9178571Y-11095238D01*
X9083333Y-11190476D01*
X8988095Y-11238095D01*
X9892857Y-10952380D02*
X10511904Y-10952380D01*
X10178571Y-11333333D01*
X10321428Y-11333333D01*
X10416666Y-11380952D01*
X10464285Y-11428571D01*
X10511904Y-11523809D01*
X10511904Y-11761904D01*
X10464285Y-11857142D01*
X10416666Y-11904761D01*
X10321428Y-11952380D01*
X10035714Y-11952380D01*
X9940476Y-11904761D01*
X9892857Y-11857142D01*
X9035714Y-6416666D02*
X9511904Y-6416666D01*
X8940476Y-6702380D02*
X9273809Y-5702380D01*
X9607142Y-6702380D01*
X10369047Y-5702380D02*
X10178571Y-5702380D01*
X10083333Y-5750000D01*
X10035714Y-5797619D01*
X9940476Y-5940476D01*
X9892857Y-6130952D01*
X9892857Y-6511904D01*
X9940476Y-6607142D01*
X9988095Y-6654761D01*
X10083333Y-6702380D01*
X10273809Y-6702380D01*
X10369047Y-6654761D01*
X10416666Y-6607142D01*
X10464285Y-6511904D01*
X10464285Y-6273809D01*
X10416666Y-6178571D01*
X10369047Y-6130952D01*
X10273809Y-6083333D01*
X10083333Y-6083333D01*
X9988095Y-6130952D01*
X9940476Y-6178571D01*
X9892857Y-6273809D01*
X9035714Y-4166666D02*
X9511904Y-4166666D01*
X8940476Y-4452380D02*
X9273809Y-3452380D01*
X9607142Y-4452380D01*
X9845238Y-3452380D02*
X10511904Y-3452380D01*
X10083333Y-4452380D01*
X9035714Y-1416666D02*
X9511904Y-1416666D01*
X8940476Y-1702380D02*
X9273809Y-702380D01*
X9607142Y-1702380D01*
X10464285Y-1702380D02*
X9892857Y-1702380D01*
X10178571Y-1702380D02*
X10178571Y-702380D01*
X10083333Y-845238D01*
X9988095Y-940476D01*
X9892857Y-988095D01*
X9035714Y1083333D02*
X9511904Y1083333D01*
X8940476Y797619D02*
X9273809Y1797619D01*
X9607142Y797619D01*
X10130952Y1797619D02*
X10226190Y1797619D01*
X10321428Y1750000D01*
X10369047Y1702380D01*
X10416666Y1607142D01*
X10464285Y1416666D01*
X10464285Y1178571D01*
X10416666Y988095D01*
X10369047Y892857D01*
X10321428Y845238D01*
X10226190Y797619D01*
X10130952Y797619D01*
X10035714Y845238D01*
X9988095Y892857D01*
X9940476Y988095D01*
X9892857Y1178571D01*
X9892857Y1416666D01*
X9940476Y1607142D01*
X9988095Y1702380D01*
X10035714Y1750000D01*
X10130952Y1797619D01*
X9035714Y3833333D02*
X9511904Y3833333D01*
X8940476Y3547619D02*
X9273809Y4547619D01*
X9607142Y3547619D01*
X9892857Y4452380D02*
X9940476Y4500000D01*
X10035714Y4547619D01*
X10273809Y4547619D01*
X10369047Y4500000D01*
X10416666Y4452380D01*
X10464285Y4357142D01*
X10464285Y4261904D01*
X10416666Y4119047D01*
X9845238Y3547619D01*
X10464285Y3547619D01*
X9035714Y6083333D02*
X9511904Y6083333D01*
X8940476Y5797619D02*
X9273809Y6797619D01*
X9607142Y5797619D01*
X9845238Y6797619D02*
X10464285Y6797619D01*
X10130952Y6416666D01*
X10273809Y6416666D01*
X10369047Y6369047D01*
X10416666Y6321428D01*
X10464285Y6226190D01*
X10464285Y5988095D01*
X10416666Y5892857D01*
X10369047Y5845238D01*
X10273809Y5797619D01*
X9988095Y5797619D01*
X9892857Y5845238D01*
X9845238Y5892857D01*
X9035714Y8583333D02*
X9511904Y8583333D01*
X8940476Y8297619D02*
X9273809Y9297619D01*
X9607142Y8297619D01*
X10369047Y8964285D02*
X10369047Y8297619D01*
X10130952Y9345238D02*
X9892857Y8630952D01*
X10511904Y8630952D01*
X9035714Y11333333D02*
X9511904Y11333333D01*
X8940476Y11047619D02*
X9273809Y12047619D01*
X9607142Y11047619D01*
X10416666Y12047619D02*
X9940476Y12047619D01*
X9892857Y11571428D01*
X9940476Y11619047D01*
X10035714Y11666666D01*
X10273809Y11666666D01*
X10369047Y11619047D01*
X10416666Y11571428D01*
X10464285Y11476190D01*
X10464285Y11238095D01*
X10416666Y11142857D01*
X10369047Y11095238D01*
X10273809Y11047619D01*
X10035714Y11047619D01*
X9940476Y11095238D01*
X9892857Y11142857D01*
X2976190Y13547619D02*
X2976190Y14547619D01*
X3357142Y14547619D01*
X3452380Y14500000D01*
X3499999Y14452380D01*
X3547619Y14357142D01*
X3547619Y14214285D01*
X3499999Y14119047D01*
X3452380Y14071428D01*
X3357142Y14023809D01*
X2976190Y14023809D01*
X4547619Y13642857D02*
X4499999Y13595238D01*
X4357142Y13547619D01*
X4261904Y13547619D01*
X4119047Y13595238D01*
X4023809Y13690476D01*
X3976190Y13785714D01*
X3928571Y13976190D01*
X3928571Y14119047D01*
X3976190Y14309523D01*
X4023809Y14404761D01*
X4119047Y14500000D01*
X4261904Y14547619D01*
X4357142Y14547619D01*
X4499999Y14500000D01*
X4547619Y14452380D01*
X5404761Y14547619D02*
X5214285Y14547619D01*
X5119047Y14500000D01*
X5071428Y14452380D01*
X4976190Y14309523D01*
X4928571Y14119047D01*
X4928571Y13738095D01*
X4976190Y13642857D01*
X5023809Y13595238D01*
X5119047Y13547619D01*
X5309523Y13547619D01*
X5404761Y13595238D01*
X5452380Y13642857D01*
X5499999Y13738095D01*
X5499999Y13976190D01*
X5452380Y14071428D01*
X5404761Y14119047D01*
X5309523Y14166666D01*
X5119047Y14166666D01*
X5023809Y14119047D01*
X4976190Y14071428D01*
X4928571Y13976190D01*
X6642857Y14595238D02*
X5785714Y13309523D01*
X7547619Y13547619D02*
X7214285Y14023809D01*
X6976190Y13547619D02*
X6976190Y14547619D01*
X7357142Y14547619D01*
X7452380Y14500000D01*
X7499999Y14452380D01*
X7547619Y14357142D01*
X7547619Y14214285D01*
X7499999Y14119047D01*
X7452380Y14071428D01*
X7357142Y14023809D01*
X6976190Y14023809D01*
X7976190Y14071428D02*
X8309523Y14071428D01*
X8452380Y13547619D02*
X7976190Y13547619D01*
X7976190Y14547619D01*
X8452380Y14547619D01*
X8833333Y13595238D02*
X8976190Y13547619D01*
X9214285Y13547619D01*
X9309523Y13595238D01*
X9357142Y13642857D01*
X9404761Y13738095D01*
X9404761Y13833333D01*
X9357142Y13928571D01*
X9309523Y13976190D01*
X9214285Y14023809D01*
X9023809Y14071428D01*
X8928571Y14119047D01*
X8880952Y14166666D01*
X8833333Y14261904D01*
X8833333Y14357142D01*
X8880952Y14452380D01*
X8928571Y14500000D01*
X9023809Y14547619D01*
X9261904Y14547619D01*
X9404761Y14500000D01*
X9833333Y14071428D02*
X10166666Y14071428D01*
X10309523Y13547619D02*
X9833333Y13547619D01*
X9833333Y14547619D01*
X10309523Y14547619D01*
X10595238Y14547619D02*
X11166666Y14547619D01*
X10880952Y13547619D02*
X10880952Y14547619D01*
X9011904Y16047619D02*
X9011904Y17047619D01*
X9250000Y17047619D01*
X9392857Y17000000D01*
X9488095Y16904761D01*
X9535714Y16809523D01*
X9583333Y16619047D01*
X9583333Y16476190D01*
X9535714Y16285714D01*
X9488095Y16190476D01*
X9392857Y16095238D01*
X9250000Y16047619D01*
X9011904Y16047619D01*
X10202380Y17047619D02*
X10297619Y17047619D01*
X10392857Y17000000D01*
X10440476Y16952380D01*
X10488095Y16857142D01*
X10535714Y16666666D01*
X10535714Y16428571D01*
X10488095Y16238095D01*
X10440476Y16142857D01*
X10392857Y16095238D01*
X10297619Y16047619D01*
X10202380Y16047619D01*
X10107142Y16095238D01*
X10059523Y16142857D01*
X10011904Y16238095D01*
X9964285Y16428571D01*
X9964285Y16666666D01*
X10011904Y16857142D01*
X10059523Y16952380D01*
X10107142Y17000000D01*
X10202380Y17047619D01*
X9011904Y18547619D02*
X9011904Y19547619D01*
X9250000Y19547619D01*
X9392857Y19500000D01*
X9488095Y19404761D01*
X9535714Y19309523D01*
X9583333Y19119047D01*
X9583333Y18976190D01*
X9535714Y18785714D01*
X9488095Y18690476D01*
X9392857Y18595238D01*
X9250000Y18547619D01*
X9011904Y18547619D01*
X10535714Y18547619D02*
X9964285Y18547619D01*
X10250000Y18547619D02*
X10250000Y19547619D01*
X10154761Y19404761D01*
X10059523Y19309523D01*
X9964285Y19261904D01*
X-10011904Y-13500000D02*
X-10107142Y-13452380D01*
X-10250000Y-13452380D01*
X-10392857Y-13500000D01*
X-10488095Y-13595238D01*
X-10535714Y-13690476D01*
X-10583333Y-13880952D01*
X-10583333Y-14023809D01*
X-10535714Y-14214285D01*
X-10488095Y-14309523D01*
X-10392857Y-14404761D01*
X-10250000Y-14452380D01*
X-10154761Y-14452380D01*
X-10011904Y-14404761D01*
X-9964285Y-14357142D01*
X-9964285Y-14023809D01*
X-10154761Y-14023809D01*
X-9535714Y-14452380D02*
X-9535714Y-13452380D01*
X-8964285Y-14452380D01*
X-8964285Y-13452380D01*
X-8488095Y-14452380D02*
X-8488095Y-13452380D01*
X-8250000Y-13452380D01*
X-8107142Y-13500000D01*
X-8011904Y-13595238D01*
X-7964285Y-13690476D01*
X-7916666Y-13880952D01*
X-7916666Y-14023809D01*
X-7964285Y-14214285D01*
X-8011904Y-14309523D01*
X-8107142Y-14404761D01*
X-8250000Y-14452380D01*
X-8488095Y-14452380D01*
X8488095Y-8250000D02*
X8392857Y-8202380D01*
X8249999Y-8202380D01*
X8107142Y-8250000D01*
X8011904Y-8345238D01*
X7964285Y-8440476D01*
X7916666Y-8630952D01*
X7916666Y-8773809D01*
X7964285Y-8964285D01*
X8011904Y-9059523D01*
X8107142Y-9154761D01*
X8249999Y-9202380D01*
X8345238Y-9202380D01*
X8488095Y-9154761D01*
X8535714Y-9107142D01*
X8535714Y-8773809D01*
X8345238Y-8773809D01*
X8964285Y-9202380D02*
X8964285Y-8202380D01*
X9535714Y-9202380D01*
X9535714Y-8202380D01*
X10011904Y-9202380D02*
X10011904Y-8202380D01*
X10250000Y-8202380D01*
X10392857Y-8250000D01*
X10488095Y-8345238D01*
X10535714Y-8440476D01*
X10583333Y-8630952D01*
X10583333Y-8773809D01*
X10535714Y-8964285D01*
X10488095Y-9059523D01*
X10392857Y-9154761D01*
X10250000Y-9202380D01*
X10011904Y-9202380D01*
X-10011904Y-11000000D02*
X-10107142Y-10952380D01*
X-10250000Y-10952380D01*
X-10392857Y-11000000D01*
X-10488095Y-11095238D01*
X-10535714Y-11190476D01*
X-10583333Y-11380952D01*
X-10583333Y-11523809D01*
X-10535714Y-11714285D01*
X-10488095Y-11809523D01*
X-10392857Y-11904761D01*
X-10250000Y-11952380D01*
X-10154761Y-11952380D01*
X-10011904Y-11904761D01*
X-9964285Y-11857142D01*
X-9964285Y-11523809D01*
X-10154761Y-11523809D01*
X-9535714Y-11952380D02*
X-9535714Y-10952380D01*
X-8964285Y-11952380D01*
X-8964285Y-10952380D01*
X-8488095Y-11952380D02*
X-8488095Y-10952380D01*
X-8250000Y-10952380D01*
X-8107142Y-11000000D01*
X-8011904Y-11095238D01*
X-7964285Y-11190476D01*
X-7916666Y-11380952D01*
X-7916666Y-11523809D01*
X-7964285Y-11714285D01*
X-8011904Y-11809523D01*
X-8107142Y-11904761D01*
X-8250000Y-11952380D01*
X-8488095Y-11952380D01*
X-10261904Y17000000D02*
X-10357142Y17047619D01*
X-10500000Y17047619D01*
X-10642857Y17000000D01*
X-10738095Y16904761D01*
X-10785714Y16809523D01*
X-10833333Y16619047D01*
X-10833333Y16476190D01*
X-10785714Y16285714D01*
X-10738095Y16190476D01*
X-10642857Y16095238D01*
X-10500000Y16047619D01*
X-10404761Y16047619D01*
X-10261904Y16095238D01*
X-10214285Y16142857D01*
X-10214285Y16476190D01*
X-10404761Y16476190D01*
X-9785714Y16047619D02*
X-9785714Y17047619D01*
X-9214285Y16047619D01*
X-9214285Y17047619D01*
X-8738095Y16047619D02*
X-8738095Y17047619D01*
X-8500000Y17047619D01*
X-8357142Y17000000D01*
X-8261904Y16904761D01*
X-8214285Y16809523D01*
X-8166666Y16619047D01*
X-8166666Y16476190D01*
X-8214285Y16285714D01*
X-8261904Y16190476D01*
X-8357142Y16095238D01*
X-8500000Y16047619D01*
X-8738095Y16047619D01*
X-10261904Y19500000D02*
X-10357142Y19547619D01*
X-10500000Y19547619D01*
X-10642857Y19500000D01*
X-10738095Y19404761D01*
X-10785714Y19309523D01*
X-10833333Y19119047D01*
X-10833333Y18976190D01*
X-10785714Y18785714D01*
X-10738095Y18690476D01*
X-10642857Y18595238D01*
X-10500000Y18547619D01*
X-10404761Y18547619D01*
X-10261904Y18595238D01*
X-10214285Y18642857D01*
X-10214285Y18976190D01*
X-10404761Y18976190D01*
X-9785714Y18547619D02*
X-9785714Y19547619D01*
X-9214285Y18547619D01*
X-9214285Y19547619D01*
X-8738095Y18547619D02*
X-8738095Y19547619D01*
X-8500000Y19547619D01*
X-8357142Y19500000D01*
X-8261904Y19404761D01*
X-8214285Y19309523D01*
X-8166666Y19119047D01*
X-8166666Y18976190D01*
X-8214285Y18785714D01*
X-8261904Y18690476D01*
X-8357142Y18595238D01*
X-8500000Y18547619D01*
X-8738095Y18547619D01*
X-10238095Y13297619D02*
X-10238095Y14297619D01*
X-10000000Y14297619D01*
X-9857142Y14250000D01*
X-9761904Y14154761D01*
X-9714285Y14059523D01*
X-9666666Y13869047D01*
X-9666666Y13726190D01*
X-9714285Y13535714D01*
X-9761904Y13440476D01*
X-9857142Y13345238D01*
X-10000000Y13297619D01*
X-10238095Y13297619D01*
X-9333333Y14297619D02*
X-8714285Y14297619D01*
X-9047619Y13916666D01*
X-8904761Y13916666D01*
X-8809523Y13869047D01*
X-8761904Y13821428D01*
X-8714285Y13726190D01*
X-8714285Y13488095D01*
X-8761904Y13392857D01*
X-8809523Y13345238D01*
X-8904761Y13297619D01*
X-9190476Y13297619D01*
X-9285714Y13345238D01*
X-9333333Y13392857D01*
X-10238095Y10797619D02*
X-10238095Y11797619D01*
X-10000000Y11797619D01*
X-9857142Y11750000D01*
X-9761904Y11654761D01*
X-9714285Y11559523D01*
X-9666666Y11369047D01*
X-9666666Y11226190D01*
X-9714285Y11035714D01*
X-9761904Y10940476D01*
X-9857142Y10845238D01*
X-10000000Y10797619D01*
X-10238095Y10797619D01*
X-8809523Y11464285D02*
X-8809523Y10797619D01*
X-9047619Y11845238D02*
X-9285714Y11130952D01*
X-8666666Y11130952D01*
X-10785714Y8678571D02*
X-10023809Y8678571D01*
X-10404761Y8297619D02*
X-10404761Y9059523D01*
X-9071428Y9297619D02*
X-9547619Y9297619D01*
X-9595238Y8821428D01*
X-9547619Y8869047D01*
X-9452380Y8916666D01*
X-9214285Y8916666D01*
X-9119047Y8869047D01*
X-9071428Y8821428D01*
X-9023809Y8726190D01*
X-9023809Y8488095D01*
X-9071428Y8392857D01*
X-9119047Y8345238D01*
X-9214285Y8297619D01*
X-9452380Y8297619D01*
X-9547619Y8345238D01*
X-9595238Y8392857D01*
X-8738095Y9297619D02*
X-8404761Y8297619D01*
X-8071428Y9297619D01*
X-10785714Y6178571D02*
X-10023809Y6178571D01*
X-10404761Y5797619D02*
X-10404761Y6559523D01*
X-9071428Y6797619D02*
X-9547619Y6797619D01*
X-9595238Y6321428D01*
X-9547619Y6369047D01*
X-9452380Y6416666D01*
X-9214285Y6416666D01*
X-9119047Y6369047D01*
X-9071428Y6321428D01*
X-9023809Y6226190D01*
X-9023809Y5988095D01*
X-9071428Y5892857D01*
X-9119047Y5845238D01*
X-9214285Y5797619D01*
X-9452380Y5797619D01*
X-9547619Y5845238D01*
X-9595238Y5892857D01*
X-8738095Y6797619D02*
X-8404761Y5797619D01*
X-8071428Y6797619D01*
X-11011904Y1178571D02*
X-10250000Y1178571D01*
X-10630952Y797619D02*
X-10630952Y1559523D01*
X-9250000Y797619D02*
X-9821428Y797619D01*
X-9535714Y797619D02*
X-9535714Y1797619D01*
X-9630952Y1654761D01*
X-9726190Y1559523D01*
X-9821428Y1511904D01*
X-8869047Y1702380D02*
X-8821428Y1750000D01*
X-8726190Y1797619D01*
X-8488095Y1797619D01*
X-8392857Y1750000D01*
X-8345238Y1702380D01*
X-8297619Y1607142D01*
X-8297619Y1511904D01*
X-8345238Y1369047D01*
X-8916666Y797619D01*
X-8297619Y797619D01*
X-8011904Y1797619D02*
X-7678571Y797619D01*
X-7345238Y1797619D01*
D11*
X-14030000Y20330000D02*
X-12700000Y20330000D01*
X-14030000Y19000000D02*
X-14030000Y20330000D01*
X-14030000Y17730000D02*
X-11370000Y17730000D01*
X-11370000Y17730000D02*
X-11370000Y-17890000D01*
X-14030000Y17730000D02*
X-14030000Y-17890000D01*
X-14030000Y-17890000D02*
X-11370000Y-17890000D01*
X14030000Y20430000D02*
X11370000Y20430000D01*
X14030000Y-15190000D02*
X14030000Y20430000D01*
X11370000Y-15190000D02*
X11370000Y20430000D01*
X14030000Y-15190000D02*
X11370000Y-15190000D01*
X14030000Y-16460000D02*
X14030000Y-17790000D01*
X14030000Y-17790000D02*
X12700000Y-17790000D01*
M02*
