M48
; DRILL file {KiCad (5.1.2)-2} date 13-Jan-20 05:53:06 PM
; FORMAT={-:-/ absolute / inch / decimal}
; #@! TF.CreationDate,2020-01-13T17:53:06+01:00
; #@! TF.GenerationSoftware,Kicad,Pcbnew,(5.1.2)-2
; #@! TF.FileFunction,Plated,1,2,PTH
FMAT,2
INCH
T1C0.0394
T2C0.0866
%
G90
G05
T1
X0.5Y0.752
X0.5Y0.652
X0.5Y0.552
X0.5Y0.452
X0.5Y0.352
X0.5Y0.252
X0.5Y0.152
X0.5Y0.052
X0.5Y-0.048
X0.5Y-0.148
X0.5Y-0.248
X0.5Y-0.348
X0.5Y-0.448
X0.5Y-0.548
X0.5Y-0.648
X-0.5Y0.748
X-0.5Y0.648
X-0.5Y0.548
X-0.5Y0.448
X-0.5Y0.348
X-0.5Y0.248
X-0.5Y0.148
X-0.5Y0.048
X-0.5Y-0.052
X-0.5Y-0.152
X-0.5Y-0.252
X-0.5Y-0.352
X-0.5Y-0.452
X-0.5Y-0.552
X-0.5Y-0.652
T2
X-0.3316Y-0.7839
T0
M30
