G04 #@! TF.GenerationSoftware,KiCad,Pcbnew,(5.1.6)-1*
G04 #@! TF.CreationDate,2020-12-13T19:23:20+01:00*
G04 #@! TF.ProjectId,ACM Breakout,41434d20-4272-4656-916b-6f75742e6b69,rev?*
G04 #@! TF.SameCoordinates,Original*
G04 #@! TF.FileFunction,Copper,L1,Top*
G04 #@! TF.FilePolarity,Positive*
%FSLAX46Y46*%
G04 Gerber Fmt 4.6, Leading zero omitted, Abs format (unit mm)*
G04 Created by KiCad (PCBNEW (5.1.6)-1) date 2020-12-13 19:23:20*
%MOMM*%
%LPD*%
G01*
G04 APERTURE LIST*
G04 #@! TA.AperFunction,SMDPad,CuDef*
%ADD10R,0.550000X1.500000*%
G04 #@! TD*
G04 #@! TA.AperFunction,ComponentPad*
%ADD11R,1.700000X1.700000*%
G04 #@! TD*
G04 #@! TA.AperFunction,ComponentPad*
%ADD12O,1.700000X1.700000*%
G04 #@! TD*
G04 #@! TA.AperFunction,Conductor*
%ADD13C,0.254000*%
G04 #@! TD*
G04 #@! TA.AperFunction,Conductor*
%ADD14C,0.500000*%
G04 #@! TD*
G04 APERTURE END LIST*
D10*
X-5600000Y1900000D03*
X-5574600Y-1900000D03*
X-4800000Y1900000D03*
X-4774600Y-1900000D03*
X-4000000Y1900000D03*
X-3974600Y-1900000D03*
X-3200000Y1900000D03*
X-3174600Y-1900000D03*
X-2400000Y1900000D03*
X-2374600Y-1900000D03*
X-1600000Y1900000D03*
X-1574600Y-1900000D03*
X-800000Y1900000D03*
X-774600Y-1900000D03*
X0Y1900000D03*
X25400Y-1900000D03*
X800000Y1900000D03*
X825400Y-1900000D03*
X1600000Y1900000D03*
X1625400Y-1900000D03*
X2400000Y1900000D03*
X2425400Y-1900000D03*
X3200000Y1900000D03*
X3225400Y-1900000D03*
X4000000Y1900000D03*
X4025400Y-1900000D03*
X4800000Y1900000D03*
X4825400Y-1900000D03*
X5600000Y1900000D03*
X5625400Y-1900000D03*
D11*
X-12700000Y19000000D03*
D12*
X-12700000Y16460000D03*
X-12700000Y13920000D03*
X-12700000Y11380000D03*
X-12700000Y8840000D03*
X-12700000Y6300000D03*
X-12700000Y3760000D03*
X-12700000Y1220000D03*
X-12700000Y-1320000D03*
X-12700000Y-3860000D03*
X-12700000Y-6400000D03*
X-12700000Y-8940000D03*
X-12700000Y-11480000D03*
X-12700000Y-14020000D03*
X-12700000Y-16560000D03*
X12700000Y19100000D03*
X12700000Y16560000D03*
X12700000Y14020000D03*
X12700000Y11480000D03*
X12700000Y8940000D03*
X12700000Y6400000D03*
X12700000Y3860000D03*
X12700000Y1320000D03*
X12700000Y-1220000D03*
X12700000Y-3760000D03*
X12700000Y-6300000D03*
X12700000Y-8840000D03*
X12700000Y-11380000D03*
X12700000Y-13920000D03*
D11*
X12700000Y-16460000D03*
D13*
X11850001Y470001D02*
X12700000Y1320000D01*
X9407599Y-1972401D02*
X11850001Y470001D01*
X6453639Y-1972401D02*
X9407599Y-1972401D01*
X6381238Y-1900000D02*
X6453639Y-1972401D01*
X5752400Y-1900000D02*
X6381238Y-1900000D01*
X11850001Y-2069999D02*
X12700000Y-1220000D01*
X10681500Y-3238500D02*
X11850001Y-2069999D01*
X5159900Y-3238500D02*
X10681500Y-3238500D01*
X4825400Y-2904000D02*
X5159900Y-3238500D01*
X4825400Y-1900000D02*
X4825400Y-2904000D01*
X11497919Y-3760000D02*
X12700000Y-3760000D01*
X5008400Y-3760000D02*
X11497919Y-3760000D01*
X4152400Y-2904000D02*
X5008400Y-3760000D01*
X4152400Y-1900000D02*
X4152400Y-2904000D01*
X11497919Y-6300000D02*
X12700000Y-6300000D01*
X6173000Y-6300000D02*
X11497919Y-6300000D01*
X3352400Y-1900000D02*
X3352400Y-3479400D01*
X3352400Y-3479400D02*
X6173000Y-6300000D01*
D14*
X11497919Y-8840000D02*
X12700000Y-8840000D01*
X7316000Y-8840000D02*
X11497919Y-8840000D01*
X2552400Y-1900000D02*
X2552400Y-4076400D01*
X2552400Y-4076400D02*
X7316000Y-8840000D01*
D13*
X11497919Y-11380000D02*
X12700000Y-11380000D01*
X7570000Y-11380000D02*
X11497919Y-11380000D01*
X1752400Y-1900000D02*
X1752400Y-5562400D01*
X1752400Y-5562400D02*
X7570000Y-11380000D01*
X7697000Y-13920000D02*
X12700000Y-13920000D01*
X952400Y-1900000D02*
X952400Y-7175400D01*
X952400Y-7175400D02*
X7697000Y-13920000D01*
X8205000Y-16460000D02*
X12700000Y-16460000D01*
X152400Y-1900000D02*
X152400Y-8407400D01*
X152400Y-8407400D02*
X8205000Y-16460000D01*
X-8686000Y-16560000D02*
X-12700000Y-16560000D01*
X-647600Y-1900000D02*
X-647600Y-8521600D01*
X-647600Y-8521600D02*
X-8686000Y-16560000D01*
D14*
X-8178000Y-14020000D02*
X-12700000Y-14020000D01*
X-1447600Y-1900000D02*
X-1447600Y-7289600D01*
X-1447600Y-7289600D02*
X-8178000Y-14020000D01*
X-11497919Y-11480000D02*
X-12700000Y-11480000D01*
X-8178000Y-11480000D02*
X-11497919Y-11480000D01*
X-2247600Y-1900000D02*
X-2247600Y-5549600D01*
X-2247600Y-5549600D02*
X-8178000Y-11480000D01*
D13*
X-11497919Y-8940000D02*
X-12700000Y-8940000D01*
X-7924000Y-8940000D02*
X-11497919Y-8940000D01*
X-3047600Y-1900000D02*
X-3047600Y-4063600D01*
X-3047600Y-4063600D02*
X-7924000Y-8940000D01*
X-11497919Y-6400000D02*
X-12700000Y-6400000D01*
X-7035000Y-6400000D02*
X-11497919Y-6400000D01*
X-3847600Y-1900000D02*
X-3847600Y-3212600D01*
X-3847600Y-3212600D02*
X-7035000Y-6400000D01*
X-11497919Y-3860000D02*
X-12700000Y-3860000D01*
X-5793998Y-3860000D02*
X-11497919Y-3860000D01*
X-4647600Y-2713602D02*
X-5793998Y-3860000D01*
X-4647600Y-1900000D02*
X-4647600Y-2713602D01*
X-5574600Y-2336100D02*
X-5574600Y-1900000D01*
X-6489700Y-3251200D02*
X-5574600Y-2336100D01*
X-12700000Y-1320000D02*
X-10768800Y-3251200D01*
X-10768800Y-3251200D02*
X-6489700Y-3251200D01*
X12623000Y3937000D02*
X12700000Y3860000D01*
X5727000Y1900000D02*
X7764000Y3937000D01*
X7764000Y3937000D02*
X12623000Y3937000D01*
X11497919Y6400000D02*
X12700000Y6400000D01*
X8165300Y6400000D02*
X11497919Y6400000D01*
X4787900Y3022600D02*
X8165300Y6400000D01*
X4927000Y1900000D02*
X4787900Y2039100D01*
X4787900Y2039100D02*
X4787900Y3022600D01*
X11497919Y8940000D02*
X12700000Y8940000D01*
X9194000Y8940000D02*
X11497919Y8940000D01*
X4127000Y1900000D02*
X4127000Y3873000D01*
X4127000Y3873000D02*
X9194000Y8940000D01*
X9956000Y11480000D02*
X12700000Y11480000D01*
X3327000Y1900000D02*
X3327000Y4851000D01*
X3327000Y4851000D02*
X9956000Y11480000D01*
X9702000Y14020000D02*
X12700000Y14020000D01*
X2527000Y1900000D02*
X2527000Y6845000D01*
X2527000Y6845000D02*
X9702000Y14020000D01*
X9321000Y16560000D02*
X12700000Y16560000D01*
X1727000Y1900000D02*
X1727000Y8966000D01*
X1727000Y8966000D02*
X9321000Y16560000D01*
X8432000Y19100000D02*
X12700000Y19100000D01*
X927000Y1900000D02*
X927000Y11595000D01*
X927000Y11595000D02*
X8432000Y19100000D01*
D14*
X-7697000Y19000000D02*
X-12700000Y19000000D01*
X74999Y11228001D02*
X-7697000Y19000000D01*
X0Y1900000D02*
X74999Y1974999D01*
X74999Y1974999D02*
X74999Y11228001D01*
X-11850001Y15610001D02*
X-12700000Y16460000D01*
X-7609001Y15610001D02*
X-11850001Y15610001D01*
X-725001Y8726001D02*
X-7609001Y15610001D01*
X-800000Y1900000D02*
X-725001Y1974999D01*
X-725001Y1974999D02*
X-725001Y8726001D01*
D13*
X-11850001Y13070001D02*
X-12700000Y13920000D01*
X-7990001Y13070001D02*
X-11850001Y13070001D01*
X-1473000Y1900000D02*
X-1473000Y6553000D01*
X-1473000Y6553000D02*
X-7990001Y13070001D01*
X-11497919Y11380000D02*
X-12700000Y11380000D01*
X-9221000Y11380000D02*
X-11497919Y11380000D01*
X-2273000Y1900000D02*
X-2273000Y4432000D01*
X-2273000Y4432000D02*
X-9221000Y11380000D01*
D14*
X-11497919Y8840000D02*
X-12700000Y8840000D01*
X-8459000Y8840000D02*
X-11497919Y8840000D01*
X-3200000Y1900000D02*
X-3200000Y3581000D01*
X-3200000Y3581000D02*
X-8459000Y8840000D01*
X-7426933Y6300000D02*
X-11497919Y6300000D01*
X-11497919Y6300000D02*
X-12700000Y6300000D01*
X-4000000Y1900000D02*
X-4000000Y2873067D01*
X-4000000Y2873067D02*
X-7426933Y6300000D01*
D13*
X-4800000Y1900000D02*
X-4800000Y2790500D01*
X-11497919Y3760000D02*
X-12700000Y3760000D01*
X-5769500Y3760000D02*
X-11497919Y3760000D01*
X-4800000Y2790500D02*
X-5769500Y3760000D01*
D14*
X-11380000Y2540000D02*
X-12700000Y1220000D01*
X-5600000Y1900000D02*
X-6240000Y2540000D01*
X-6240000Y2540000D02*
X-11380000Y2540000D01*
M02*
