G04 #@! TF.GenerationSoftware,KiCad,Pcbnew,(5.1.6)-1*
G04 #@! TF.CreationDate,2020-12-13T19:23:20+01:00*
G04 #@! TF.ProjectId,ACM Breakout,41434d20-4272-4656-916b-6f75742e6b69,rev?*
G04 #@! TF.SameCoordinates,Original*
G04 #@! TF.FileFunction,Soldermask,Top*
G04 #@! TF.FilePolarity,Negative*
%FSLAX46Y46*%
G04 Gerber Fmt 4.6, Leading zero omitted, Abs format (unit mm)*
G04 Created by KiCad (PCBNEW (5.1.6)-1) date 2020-12-13 19:23:20*
%MOMM*%
%LPD*%
G01*
G04 APERTURE LIST*
%ADD10C,0.100000*%
G04 APERTURE END LIST*
D10*
G36*
X-8197451Y-18783116D02*
G01*
X-8086266Y-18805232D01*
X-7876797Y-18891997D01*
X-7688280Y-19017960D01*
X-7527960Y-19178280D01*
X-7401997Y-19366797D01*
X-7315232Y-19576266D01*
X-7271000Y-19798636D01*
X-7271000Y-20025364D01*
X-7315232Y-20247734D01*
X-7401997Y-20457203D01*
X-7527960Y-20645720D01*
X-7688280Y-20806040D01*
X-7876797Y-20932003D01*
X-8086266Y-21018768D01*
X-8197451Y-21040884D01*
X-8308635Y-21063000D01*
X-8535365Y-21063000D01*
X-8646549Y-21040884D01*
X-8757734Y-21018768D01*
X-8967203Y-20932003D01*
X-9155720Y-20806040D01*
X-9316040Y-20645720D01*
X-9442003Y-20457203D01*
X-9528768Y-20247734D01*
X-9573000Y-20025364D01*
X-9573000Y-19798636D01*
X-9528768Y-19576266D01*
X-9442003Y-19366797D01*
X-9316040Y-19178280D01*
X-9155720Y-19017960D01*
X-8967203Y-18891997D01*
X-8757734Y-18805232D01*
X-8646549Y-18783116D01*
X-8535365Y-18761000D01*
X-8308635Y-18761000D01*
X-8197451Y-18783116D01*
G37*
G36*
X-12586488Y-15663927D02*
G01*
X-12437188Y-15693624D01*
X-12273216Y-15761544D01*
X-12125646Y-15860147D01*
X-12000147Y-15985646D01*
X-11901544Y-16133216D01*
X-11833624Y-16297188D01*
X-11799000Y-16471259D01*
X-11799000Y-16648741D01*
X-11833624Y-16822812D01*
X-11901544Y-16986784D01*
X-12000147Y-17134354D01*
X-12125646Y-17259853D01*
X-12273216Y-17358456D01*
X-12437188Y-17426376D01*
X-12586488Y-17456073D01*
X-12611258Y-17461000D01*
X-12788742Y-17461000D01*
X-12813512Y-17456073D01*
X-12962812Y-17426376D01*
X-13126784Y-17358456D01*
X-13274354Y-17259853D01*
X-13399853Y-17134354D01*
X-13498456Y-16986784D01*
X-13566376Y-16822812D01*
X-13601000Y-16648741D01*
X-13601000Y-16471259D01*
X-13566376Y-16297188D01*
X-13498456Y-16133216D01*
X-13399853Y-15985646D01*
X-13274354Y-15860147D01*
X-13126784Y-15761544D01*
X-12962812Y-15693624D01*
X-12813512Y-15663927D01*
X-12788742Y-15659000D01*
X-12611258Y-15659000D01*
X-12586488Y-15663927D01*
G37*
G36*
X13601000Y-17361000D02*
G01*
X11799000Y-17361000D01*
X11799000Y-15559000D01*
X13601000Y-15559000D01*
X13601000Y-17361000D01*
G37*
G36*
X-12598469Y-13121544D02*
G01*
X-12437188Y-13153624D01*
X-12273216Y-13221544D01*
X-12125646Y-13320147D01*
X-12000147Y-13445646D01*
X-11901544Y-13593216D01*
X-11833624Y-13757188D01*
X-11799000Y-13931259D01*
X-11799000Y-14108741D01*
X-11833624Y-14282812D01*
X-11901544Y-14446784D01*
X-12000147Y-14594354D01*
X-12125646Y-14719853D01*
X-12273216Y-14818456D01*
X-12437188Y-14886376D01*
X-12586488Y-14916073D01*
X-12611258Y-14921000D01*
X-12788742Y-14921000D01*
X-12813512Y-14916073D01*
X-12962812Y-14886376D01*
X-13126784Y-14818456D01*
X-13274354Y-14719853D01*
X-13399853Y-14594354D01*
X-13498456Y-14446784D01*
X-13566376Y-14282812D01*
X-13601000Y-14108741D01*
X-13601000Y-13931259D01*
X-13566376Y-13757188D01*
X-13498456Y-13593216D01*
X-13399853Y-13445646D01*
X-13274354Y-13320147D01*
X-13126784Y-13221544D01*
X-12962812Y-13153624D01*
X-12801531Y-13121544D01*
X-12788742Y-13119000D01*
X-12611258Y-13119000D01*
X-12598469Y-13121544D01*
G37*
G36*
X12813512Y-13023927D02*
G01*
X12962812Y-13053624D01*
X13126784Y-13121544D01*
X13274354Y-13220147D01*
X13399853Y-13345646D01*
X13498456Y-13493216D01*
X13566376Y-13657188D01*
X13601000Y-13831259D01*
X13601000Y-14008741D01*
X13566376Y-14182812D01*
X13498456Y-14346784D01*
X13399853Y-14494354D01*
X13274354Y-14619853D01*
X13126784Y-14718456D01*
X12962812Y-14786376D01*
X12813512Y-14816073D01*
X12788742Y-14821000D01*
X12611258Y-14821000D01*
X12586488Y-14816073D01*
X12437188Y-14786376D01*
X12273216Y-14718456D01*
X12125646Y-14619853D01*
X12000147Y-14494354D01*
X11901544Y-14346784D01*
X11833624Y-14182812D01*
X11799000Y-14008741D01*
X11799000Y-13831259D01*
X11833624Y-13657188D01*
X11901544Y-13493216D01*
X12000147Y-13345646D01*
X12125646Y-13220147D01*
X12273216Y-13121544D01*
X12437188Y-13053624D01*
X12586488Y-13023927D01*
X12611258Y-13019000D01*
X12788742Y-13019000D01*
X12813512Y-13023927D01*
G37*
G36*
X-12598469Y-10581544D02*
G01*
X-12437188Y-10613624D01*
X-12273216Y-10681544D01*
X-12125646Y-10780147D01*
X-12000147Y-10905646D01*
X-11901544Y-11053216D01*
X-11833624Y-11217188D01*
X-11799000Y-11391259D01*
X-11799000Y-11568741D01*
X-11833624Y-11742812D01*
X-11901544Y-11906784D01*
X-12000147Y-12054354D01*
X-12125646Y-12179853D01*
X-12273216Y-12278456D01*
X-12437188Y-12346376D01*
X-12586488Y-12376073D01*
X-12611258Y-12381000D01*
X-12788742Y-12381000D01*
X-12813512Y-12376073D01*
X-12962812Y-12346376D01*
X-13126784Y-12278456D01*
X-13274354Y-12179853D01*
X-13399853Y-12054354D01*
X-13498456Y-11906784D01*
X-13566376Y-11742812D01*
X-13601000Y-11568741D01*
X-13601000Y-11391259D01*
X-13566376Y-11217188D01*
X-13498456Y-11053216D01*
X-13399853Y-10905646D01*
X-13274354Y-10780147D01*
X-13126784Y-10681544D01*
X-12962812Y-10613624D01*
X-12801531Y-10581544D01*
X-12788742Y-10579000D01*
X-12611258Y-10579000D01*
X-12598469Y-10581544D01*
G37*
G36*
X12813512Y-10483927D02*
G01*
X12962812Y-10513624D01*
X13126784Y-10581544D01*
X13274354Y-10680147D01*
X13399853Y-10805646D01*
X13498456Y-10953216D01*
X13566376Y-11117188D01*
X13601000Y-11291259D01*
X13601000Y-11468741D01*
X13566376Y-11642812D01*
X13498456Y-11806784D01*
X13399853Y-11954354D01*
X13274354Y-12079853D01*
X13126784Y-12178456D01*
X12962812Y-12246376D01*
X12813512Y-12276073D01*
X12788742Y-12281000D01*
X12611258Y-12281000D01*
X12586488Y-12276073D01*
X12437188Y-12246376D01*
X12273216Y-12178456D01*
X12125646Y-12079853D01*
X12000147Y-11954354D01*
X11901544Y-11806784D01*
X11833624Y-11642812D01*
X11799000Y-11468741D01*
X11799000Y-11291259D01*
X11833624Y-11117188D01*
X11901544Y-10953216D01*
X12000147Y-10805646D01*
X12125646Y-10680147D01*
X12273216Y-10581544D01*
X12437188Y-10513624D01*
X12586488Y-10483927D01*
X12611258Y-10479000D01*
X12788742Y-10479000D01*
X12813512Y-10483927D01*
G37*
G36*
X-12598469Y-8041544D02*
G01*
X-12437188Y-8073624D01*
X-12273216Y-8141544D01*
X-12125646Y-8240147D01*
X-12000147Y-8365646D01*
X-11901544Y-8513216D01*
X-11833624Y-8677188D01*
X-11799000Y-8851259D01*
X-11799000Y-9028741D01*
X-11833624Y-9202812D01*
X-11901544Y-9366784D01*
X-12000147Y-9514354D01*
X-12125646Y-9639853D01*
X-12273216Y-9738456D01*
X-12437188Y-9806376D01*
X-12586488Y-9836073D01*
X-12611258Y-9841000D01*
X-12788742Y-9841000D01*
X-12813512Y-9836073D01*
X-12962812Y-9806376D01*
X-13126784Y-9738456D01*
X-13274354Y-9639853D01*
X-13399853Y-9514354D01*
X-13498456Y-9366784D01*
X-13566376Y-9202812D01*
X-13601000Y-9028741D01*
X-13601000Y-8851259D01*
X-13566376Y-8677188D01*
X-13498456Y-8513216D01*
X-13399853Y-8365646D01*
X-13274354Y-8240147D01*
X-13126784Y-8141544D01*
X-12962812Y-8073624D01*
X-12801531Y-8041544D01*
X-12788742Y-8039000D01*
X-12611258Y-8039000D01*
X-12598469Y-8041544D01*
G37*
G36*
X12813512Y-7943927D02*
G01*
X12962812Y-7973624D01*
X13126784Y-8041544D01*
X13274354Y-8140147D01*
X13399853Y-8265646D01*
X13498456Y-8413216D01*
X13566376Y-8577188D01*
X13601000Y-8751259D01*
X13601000Y-8928741D01*
X13566376Y-9102812D01*
X13498456Y-9266784D01*
X13399853Y-9414354D01*
X13274354Y-9539853D01*
X13126784Y-9638456D01*
X12962812Y-9706376D01*
X12813512Y-9736073D01*
X12788742Y-9741000D01*
X12611258Y-9741000D01*
X12586488Y-9736073D01*
X12437188Y-9706376D01*
X12273216Y-9638456D01*
X12125646Y-9539853D01*
X12000147Y-9414354D01*
X11901544Y-9266784D01*
X11833624Y-9102812D01*
X11799000Y-8928741D01*
X11799000Y-8751259D01*
X11833624Y-8577188D01*
X11901544Y-8413216D01*
X12000147Y-8265646D01*
X12125646Y-8140147D01*
X12273216Y-8041544D01*
X12437188Y-7973624D01*
X12586488Y-7943927D01*
X12611258Y-7939000D01*
X12788742Y-7939000D01*
X12813512Y-7943927D01*
G37*
G36*
X-12598469Y-5501544D02*
G01*
X-12437188Y-5533624D01*
X-12273216Y-5601544D01*
X-12125646Y-5700147D01*
X-12000147Y-5825646D01*
X-11901544Y-5973216D01*
X-11833624Y-6137188D01*
X-11799000Y-6311259D01*
X-11799000Y-6488741D01*
X-11833624Y-6662812D01*
X-11901544Y-6826784D01*
X-12000147Y-6974354D01*
X-12125646Y-7099853D01*
X-12273216Y-7198456D01*
X-12437188Y-7266376D01*
X-12586488Y-7296073D01*
X-12611258Y-7301000D01*
X-12788742Y-7301000D01*
X-12813512Y-7296073D01*
X-12962812Y-7266376D01*
X-13126784Y-7198456D01*
X-13274354Y-7099853D01*
X-13399853Y-6974354D01*
X-13498456Y-6826784D01*
X-13566376Y-6662812D01*
X-13601000Y-6488741D01*
X-13601000Y-6311259D01*
X-13566376Y-6137188D01*
X-13498456Y-5973216D01*
X-13399853Y-5825646D01*
X-13274354Y-5700147D01*
X-13126784Y-5601544D01*
X-12962812Y-5533624D01*
X-12801531Y-5501544D01*
X-12788742Y-5499000D01*
X-12611258Y-5499000D01*
X-12598469Y-5501544D01*
G37*
G36*
X12813512Y-5403927D02*
G01*
X12962812Y-5433624D01*
X13126784Y-5501544D01*
X13274354Y-5600147D01*
X13399853Y-5725646D01*
X13498456Y-5873216D01*
X13566376Y-6037188D01*
X13601000Y-6211259D01*
X13601000Y-6388741D01*
X13566376Y-6562812D01*
X13498456Y-6726784D01*
X13399853Y-6874354D01*
X13274354Y-6999853D01*
X13126784Y-7098456D01*
X12962812Y-7166376D01*
X12813512Y-7196073D01*
X12788742Y-7201000D01*
X12611258Y-7201000D01*
X12586488Y-7196073D01*
X12437188Y-7166376D01*
X12273216Y-7098456D01*
X12125646Y-6999853D01*
X12000147Y-6874354D01*
X11901544Y-6726784D01*
X11833624Y-6562812D01*
X11799000Y-6388741D01*
X11799000Y-6211259D01*
X11833624Y-6037188D01*
X11901544Y-5873216D01*
X12000147Y-5725646D01*
X12125646Y-5600147D01*
X12273216Y-5501544D01*
X12437188Y-5433624D01*
X12586488Y-5403927D01*
X12611258Y-5399000D01*
X12788742Y-5399000D01*
X12813512Y-5403927D01*
G37*
G36*
X-12598469Y-2961544D02*
G01*
X-12437188Y-2993624D01*
X-12273216Y-3061544D01*
X-12125646Y-3160147D01*
X-12000147Y-3285646D01*
X-11901544Y-3433216D01*
X-11833624Y-3597188D01*
X-11799000Y-3771259D01*
X-11799000Y-3948741D01*
X-11833624Y-4122812D01*
X-11901544Y-4286784D01*
X-12000147Y-4434354D01*
X-12125646Y-4559853D01*
X-12273216Y-4658456D01*
X-12437188Y-4726376D01*
X-12586488Y-4756073D01*
X-12611258Y-4761000D01*
X-12788742Y-4761000D01*
X-12813512Y-4756073D01*
X-12962812Y-4726376D01*
X-13126784Y-4658456D01*
X-13274354Y-4559853D01*
X-13399853Y-4434354D01*
X-13498456Y-4286784D01*
X-13566376Y-4122812D01*
X-13601000Y-3948741D01*
X-13601000Y-3771259D01*
X-13566376Y-3597188D01*
X-13498456Y-3433216D01*
X-13399853Y-3285646D01*
X-13274354Y-3160147D01*
X-13126784Y-3061544D01*
X-12962812Y-2993624D01*
X-12801531Y-2961544D01*
X-12788742Y-2959000D01*
X-12611258Y-2959000D01*
X-12598469Y-2961544D01*
G37*
G36*
X12813512Y-2863927D02*
G01*
X12962812Y-2893624D01*
X13126784Y-2961544D01*
X13274354Y-3060147D01*
X13399853Y-3185646D01*
X13498456Y-3333216D01*
X13566376Y-3497188D01*
X13601000Y-3671259D01*
X13601000Y-3848741D01*
X13566376Y-4022812D01*
X13498456Y-4186784D01*
X13399853Y-4334354D01*
X13274354Y-4459853D01*
X13126784Y-4558456D01*
X12962812Y-4626376D01*
X12813512Y-4656073D01*
X12788742Y-4661000D01*
X12611258Y-4661000D01*
X12586488Y-4656073D01*
X12437188Y-4626376D01*
X12273216Y-4558456D01*
X12125646Y-4459853D01*
X12000147Y-4334354D01*
X11901544Y-4186784D01*
X11833624Y-4022812D01*
X11799000Y-3848741D01*
X11799000Y-3671259D01*
X11833624Y-3497188D01*
X11901544Y-3333216D01*
X12000147Y-3185646D01*
X12125646Y-3060147D01*
X12273216Y-2961544D01*
X12437188Y-2893624D01*
X12586488Y-2863927D01*
X12611258Y-2859000D01*
X12788742Y-2859000D01*
X12813512Y-2863927D01*
G37*
G36*
X-6421769Y-906705D02*
G01*
X-6383033Y-914410D01*
X-6352805Y-926931D01*
X-6310056Y-944638D01*
X-6244378Y-988523D01*
X-6188523Y-1044378D01*
X-6144639Y-1110055D01*
X-6141083Y-1118640D01*
X-6129531Y-1140250D01*
X-6113986Y-1159192D01*
X-6095044Y-1174737D01*
X-6073433Y-1186288D01*
X-6049984Y-1193401D01*
X-6025598Y-1195803D01*
X-6001212Y-1193401D01*
X-5977763Y-1186288D01*
X-5956153Y-1174736D01*
X-5937211Y-1159191D01*
X-5921666Y-1140249D01*
X-5910115Y-1118638D01*
X-5904158Y-1099000D01*
X5951400Y-1099000D01*
X5951400Y-2701000D01*
X-5900600Y-2701000D01*
X-5900600Y-1529196D01*
X-5903002Y-1504810D01*
X-5910115Y-1481361D01*
X-5921666Y-1459750D01*
X-5937211Y-1440808D01*
X-5956153Y-1425263D01*
X-5977764Y-1413712D01*
X-6001213Y-1406599D01*
X-6025599Y-1404197D01*
X-6049985Y-1406599D01*
X-6073434Y-1413712D01*
X-6095045Y-1425263D01*
X-6113987Y-1440808D01*
X-6129532Y-1459750D01*
X-6141083Y-1481360D01*
X-6144639Y-1489945D01*
X-6188523Y-1555622D01*
X-6244378Y-1611477D01*
X-6310056Y-1655362D01*
X-6352805Y-1673069D01*
X-6383033Y-1685590D01*
X-6421769Y-1693295D01*
X-6460504Y-1701000D01*
X-6539496Y-1701000D01*
X-6578231Y-1693295D01*
X-6616967Y-1685590D01*
X-6647195Y-1673069D01*
X-6689944Y-1655362D01*
X-6755622Y-1611477D01*
X-6811477Y-1555622D01*
X-6855362Y-1489944D01*
X-6873069Y-1447195D01*
X-6885590Y-1416967D01*
X-6901000Y-1339495D01*
X-6901000Y-1260505D01*
X-6895182Y-1231258D01*
X-6885590Y-1183034D01*
X-6882153Y-1174737D01*
X-6873069Y-1152805D01*
X-6855362Y-1110056D01*
X-6811477Y-1044378D01*
X-6755622Y-988523D01*
X-6689944Y-944638D01*
X-6647195Y-926931D01*
X-6616967Y-914410D01*
X-6578231Y-906705D01*
X-6539496Y-899000D01*
X-6460504Y-899000D01*
X-6421769Y-906705D01*
G37*
G36*
X-12598469Y-421544D02*
G01*
X-12437188Y-453624D01*
X-12273216Y-521544D01*
X-12125646Y-620147D01*
X-12000147Y-745646D01*
X-11901544Y-893216D01*
X-11833624Y-1057188D01*
X-11799000Y-1231259D01*
X-11799000Y-1408741D01*
X-11833624Y-1582812D01*
X-11901544Y-1746784D01*
X-12000147Y-1894354D01*
X-12125646Y-2019853D01*
X-12273216Y-2118456D01*
X-12437188Y-2186376D01*
X-12586488Y-2216073D01*
X-12611258Y-2221000D01*
X-12788742Y-2221000D01*
X-12813512Y-2216073D01*
X-12962812Y-2186376D01*
X-13126784Y-2118456D01*
X-13274354Y-2019853D01*
X-13399853Y-1894354D01*
X-13498456Y-1746784D01*
X-13566376Y-1582812D01*
X-13601000Y-1408741D01*
X-13601000Y-1231259D01*
X-13566376Y-1057188D01*
X-13498456Y-893216D01*
X-13399853Y-745646D01*
X-13274354Y-620147D01*
X-13126784Y-521544D01*
X-12962812Y-453624D01*
X-12801531Y-421544D01*
X-12788742Y-419000D01*
X-12611258Y-419000D01*
X-12598469Y-421544D01*
G37*
G36*
X12813512Y-323927D02*
G01*
X12962812Y-353624D01*
X13126784Y-421544D01*
X13274354Y-520147D01*
X13399853Y-645646D01*
X13498456Y-793216D01*
X13566376Y-957188D01*
X13601000Y-1131259D01*
X13601000Y-1308741D01*
X13566376Y-1482812D01*
X13498456Y-1646784D01*
X13399853Y-1794354D01*
X13274354Y-1919853D01*
X13126784Y-2018456D01*
X12962812Y-2086376D01*
X12813512Y-2116073D01*
X12788742Y-2121000D01*
X12611258Y-2121000D01*
X12586488Y-2116073D01*
X12437188Y-2086376D01*
X12273216Y-2018456D01*
X12125646Y-1919853D01*
X12000147Y-1794354D01*
X11901544Y-1646784D01*
X11833624Y-1482812D01*
X11799000Y-1308741D01*
X11799000Y-1131259D01*
X11833624Y-957188D01*
X11901544Y-793216D01*
X12000147Y-645646D01*
X12125646Y-520147D01*
X12273216Y-421544D01*
X12437188Y-353624D01*
X12586488Y-323927D01*
X12611258Y-319000D01*
X12788742Y-319000D01*
X12813512Y-323927D01*
G37*
G36*
X-12598469Y2118456D02*
G01*
X-12437188Y2086376D01*
X-12273216Y2018456D01*
X-12125646Y1919853D01*
X-12000147Y1794354D01*
X-11901544Y1646784D01*
X-11833624Y1482812D01*
X-11799000Y1308741D01*
X-11799000Y1131259D01*
X-11833624Y957188D01*
X-11901544Y793216D01*
X-12000147Y645646D01*
X-12125646Y520147D01*
X-12273216Y421544D01*
X-12437188Y353624D01*
X-12586488Y323927D01*
X-12611258Y319000D01*
X-12788742Y319000D01*
X-12813512Y323927D01*
X-12962812Y353624D01*
X-13126784Y421544D01*
X-13274354Y520147D01*
X-13399853Y645646D01*
X-13498456Y793216D01*
X-13566376Y957188D01*
X-13601000Y1131259D01*
X-13601000Y1308741D01*
X-13566376Y1482812D01*
X-13498456Y1646784D01*
X-13399853Y1794354D01*
X-13274354Y1919853D01*
X-13126784Y2018456D01*
X-12962812Y2086376D01*
X-12801531Y2118456D01*
X-12788742Y2121000D01*
X-12611258Y2121000D01*
X-12598469Y2118456D01*
G37*
G36*
X12813512Y2216073D02*
G01*
X12962812Y2186376D01*
X13126784Y2118456D01*
X13274354Y2019853D01*
X13399853Y1894354D01*
X13498456Y1746784D01*
X13566376Y1582812D01*
X13601000Y1408741D01*
X13601000Y1231259D01*
X13566376Y1057188D01*
X13498456Y893216D01*
X13399853Y745646D01*
X13274354Y620147D01*
X13126784Y521544D01*
X12962812Y453624D01*
X12813512Y423927D01*
X12788742Y419000D01*
X12611258Y419000D01*
X12586488Y423927D01*
X12437188Y453624D01*
X12273216Y521544D01*
X12125646Y620147D01*
X12000147Y745646D01*
X11901544Y893216D01*
X11833624Y1057188D01*
X11799000Y1231259D01*
X11799000Y1408741D01*
X11833624Y1582812D01*
X11901544Y1746784D01*
X12000147Y1894354D01*
X12125646Y2019853D01*
X12273216Y2118456D01*
X12437188Y2186376D01*
X12586488Y2216073D01*
X12611258Y2221000D01*
X12788742Y2221000D01*
X12813512Y2216073D01*
G37*
G36*
X5926000Y1574795D02*
G01*
X5928402Y1550409D01*
X5935515Y1526960D01*
X5947066Y1505349D01*
X5962611Y1486407D01*
X5981553Y1470862D01*
X6003164Y1459311D01*
X6026613Y1452198D01*
X6050999Y1449796D01*
X6075385Y1452198D01*
X6098834Y1459311D01*
X6120445Y1470862D01*
X6139387Y1486407D01*
X6154932Y1505350D01*
X6188521Y1555620D01*
X6244378Y1611477D01*
X6310056Y1655362D01*
X6352805Y1673069D01*
X6383033Y1685590D01*
X6421769Y1693295D01*
X6460504Y1701000D01*
X6539496Y1701000D01*
X6578231Y1693295D01*
X6616967Y1685590D01*
X6647195Y1673069D01*
X6689944Y1655362D01*
X6755622Y1611477D01*
X6811477Y1555622D01*
X6855362Y1489944D01*
X6885590Y1416966D01*
X6901000Y1339496D01*
X6901000Y1260504D01*
X6885590Y1183034D01*
X6855362Y1110056D01*
X6811477Y1044378D01*
X6755622Y988523D01*
X6689944Y944638D01*
X6647195Y926931D01*
X6616967Y914410D01*
X6578231Y906705D01*
X6539496Y899000D01*
X6460504Y899000D01*
X6421769Y906705D01*
X6383033Y914410D01*
X6352805Y926931D01*
X6310056Y944638D01*
X6244378Y988523D01*
X6188521Y1044380D01*
X6154932Y1094650D01*
X6139387Y1113592D01*
X6120445Y1129137D01*
X6098835Y1140689D01*
X6075386Y1147802D01*
X6051000Y1150204D01*
X6026614Y1147802D01*
X6003165Y1140689D01*
X5981554Y1129138D01*
X5962612Y1113593D01*
X5950636Y1099000D01*
X-5926000Y1099000D01*
X-5926000Y2701000D01*
X5926000Y2701000D01*
X5926000Y1574795D01*
G37*
G36*
X-12598469Y4658456D02*
G01*
X-12437188Y4626376D01*
X-12273216Y4558456D01*
X-12125646Y4459853D01*
X-12000147Y4334354D01*
X-11901544Y4186784D01*
X-11833624Y4022812D01*
X-11799000Y3848741D01*
X-11799000Y3671259D01*
X-11833624Y3497188D01*
X-11901544Y3333216D01*
X-12000147Y3185646D01*
X-12125646Y3060147D01*
X-12273216Y2961544D01*
X-12437188Y2893624D01*
X-12586488Y2863927D01*
X-12611258Y2859000D01*
X-12788742Y2859000D01*
X-12813512Y2863927D01*
X-12962812Y2893624D01*
X-13126784Y2961544D01*
X-13274354Y3060147D01*
X-13399853Y3185646D01*
X-13498456Y3333216D01*
X-13566376Y3497188D01*
X-13601000Y3671259D01*
X-13601000Y3848741D01*
X-13566376Y4022812D01*
X-13498456Y4186784D01*
X-13399853Y4334354D01*
X-13274354Y4459853D01*
X-13126784Y4558456D01*
X-12962812Y4626376D01*
X-12801531Y4658456D01*
X-12788742Y4661000D01*
X-12611258Y4661000D01*
X-12598469Y4658456D01*
G37*
G36*
X12813512Y4756073D02*
G01*
X12962812Y4726376D01*
X13126784Y4658456D01*
X13274354Y4559853D01*
X13399853Y4434354D01*
X13498456Y4286784D01*
X13566376Y4122812D01*
X13601000Y3948741D01*
X13601000Y3771259D01*
X13566376Y3597188D01*
X13498456Y3433216D01*
X13399853Y3285646D01*
X13274354Y3160147D01*
X13126784Y3061544D01*
X12962812Y2993624D01*
X12813512Y2963927D01*
X12788742Y2959000D01*
X12611258Y2959000D01*
X12586488Y2963927D01*
X12437188Y2993624D01*
X12273216Y3061544D01*
X12125646Y3160147D01*
X12000147Y3285646D01*
X11901544Y3433216D01*
X11833624Y3597188D01*
X11799000Y3771259D01*
X11799000Y3948741D01*
X11833624Y4122812D01*
X11901544Y4286784D01*
X12000147Y4434354D01*
X12125646Y4559853D01*
X12273216Y4658456D01*
X12437188Y4726376D01*
X12586488Y4756073D01*
X12611258Y4761000D01*
X12788742Y4761000D01*
X12813512Y4756073D01*
G37*
G36*
X-12598469Y7198456D02*
G01*
X-12437188Y7166376D01*
X-12273216Y7098456D01*
X-12125646Y6999853D01*
X-12000147Y6874354D01*
X-11901544Y6726784D01*
X-11833624Y6562812D01*
X-11799000Y6388741D01*
X-11799000Y6211259D01*
X-11833624Y6037188D01*
X-11901544Y5873216D01*
X-12000147Y5725646D01*
X-12125646Y5600147D01*
X-12273216Y5501544D01*
X-12437188Y5433624D01*
X-12586488Y5403927D01*
X-12611258Y5399000D01*
X-12788742Y5399000D01*
X-12813512Y5403927D01*
X-12962812Y5433624D01*
X-13126784Y5501544D01*
X-13274354Y5600147D01*
X-13399853Y5725646D01*
X-13498456Y5873216D01*
X-13566376Y6037188D01*
X-13601000Y6211259D01*
X-13601000Y6388741D01*
X-13566376Y6562812D01*
X-13498456Y6726784D01*
X-13399853Y6874354D01*
X-13274354Y6999853D01*
X-13126784Y7098456D01*
X-12962812Y7166376D01*
X-12801531Y7198456D01*
X-12788742Y7201000D01*
X-12611258Y7201000D01*
X-12598469Y7198456D01*
G37*
G36*
X12813512Y7296073D02*
G01*
X12962812Y7266376D01*
X13126784Y7198456D01*
X13274354Y7099853D01*
X13399853Y6974354D01*
X13498456Y6826784D01*
X13566376Y6662812D01*
X13601000Y6488741D01*
X13601000Y6311259D01*
X13566376Y6137188D01*
X13498456Y5973216D01*
X13399853Y5825646D01*
X13274354Y5700147D01*
X13126784Y5601544D01*
X12962812Y5533624D01*
X12813512Y5503927D01*
X12788742Y5499000D01*
X12611258Y5499000D01*
X12586488Y5503927D01*
X12437188Y5533624D01*
X12273216Y5601544D01*
X12125646Y5700147D01*
X12000147Y5825646D01*
X11901544Y5973216D01*
X11833624Y6137188D01*
X11799000Y6311259D01*
X11799000Y6488741D01*
X11833624Y6662812D01*
X11901544Y6826784D01*
X12000147Y6974354D01*
X12125646Y7099853D01*
X12273216Y7198456D01*
X12437188Y7266376D01*
X12586488Y7296073D01*
X12611258Y7301000D01*
X12788742Y7301000D01*
X12813512Y7296073D01*
G37*
G36*
X-12598469Y9738456D02*
G01*
X-12437188Y9706376D01*
X-12273216Y9638456D01*
X-12125646Y9539853D01*
X-12000147Y9414354D01*
X-11901544Y9266784D01*
X-11833624Y9102812D01*
X-11799000Y8928741D01*
X-11799000Y8751259D01*
X-11833624Y8577188D01*
X-11901544Y8413216D01*
X-12000147Y8265646D01*
X-12125646Y8140147D01*
X-12273216Y8041544D01*
X-12437188Y7973624D01*
X-12586488Y7943927D01*
X-12611258Y7939000D01*
X-12788742Y7939000D01*
X-12813512Y7943927D01*
X-12962812Y7973624D01*
X-13126784Y8041544D01*
X-13274354Y8140147D01*
X-13399853Y8265646D01*
X-13498456Y8413216D01*
X-13566376Y8577188D01*
X-13601000Y8751259D01*
X-13601000Y8928741D01*
X-13566376Y9102812D01*
X-13498456Y9266784D01*
X-13399853Y9414354D01*
X-13274354Y9539853D01*
X-13126784Y9638456D01*
X-12962812Y9706376D01*
X-12801531Y9738456D01*
X-12788742Y9741000D01*
X-12611258Y9741000D01*
X-12598469Y9738456D01*
G37*
G36*
X12813512Y9836073D02*
G01*
X12962812Y9806376D01*
X13126784Y9738456D01*
X13274354Y9639853D01*
X13399853Y9514354D01*
X13498456Y9366784D01*
X13566376Y9202812D01*
X13601000Y9028741D01*
X13601000Y8851259D01*
X13566376Y8677188D01*
X13498456Y8513216D01*
X13399853Y8365646D01*
X13274354Y8240147D01*
X13126784Y8141544D01*
X12962812Y8073624D01*
X12813512Y8043927D01*
X12788742Y8039000D01*
X12611258Y8039000D01*
X12586488Y8043927D01*
X12437188Y8073624D01*
X12273216Y8141544D01*
X12125646Y8240147D01*
X12000147Y8365646D01*
X11901544Y8513216D01*
X11833624Y8677188D01*
X11799000Y8851259D01*
X11799000Y9028741D01*
X11833624Y9202812D01*
X11901544Y9366784D01*
X12000147Y9514354D01*
X12125646Y9639853D01*
X12273216Y9738456D01*
X12437188Y9806376D01*
X12586488Y9836073D01*
X12611258Y9841000D01*
X12788742Y9841000D01*
X12813512Y9836073D01*
G37*
G36*
X-12598469Y12278456D02*
G01*
X-12437188Y12246376D01*
X-12273216Y12178456D01*
X-12125646Y12079853D01*
X-12000147Y11954354D01*
X-11901544Y11806784D01*
X-11833624Y11642812D01*
X-11799000Y11468741D01*
X-11799000Y11291259D01*
X-11833624Y11117188D01*
X-11901544Y10953216D01*
X-12000147Y10805646D01*
X-12125646Y10680147D01*
X-12273216Y10581544D01*
X-12437188Y10513624D01*
X-12586488Y10483927D01*
X-12611258Y10479000D01*
X-12788742Y10479000D01*
X-12813512Y10483927D01*
X-12962812Y10513624D01*
X-13126784Y10581544D01*
X-13274354Y10680147D01*
X-13399853Y10805646D01*
X-13498456Y10953216D01*
X-13566376Y11117188D01*
X-13601000Y11291259D01*
X-13601000Y11468741D01*
X-13566376Y11642812D01*
X-13498456Y11806784D01*
X-13399853Y11954354D01*
X-13274354Y12079853D01*
X-13126784Y12178456D01*
X-12962812Y12246376D01*
X-12801531Y12278456D01*
X-12788742Y12281000D01*
X-12611258Y12281000D01*
X-12598469Y12278456D01*
G37*
G36*
X12813512Y12376073D02*
G01*
X12962812Y12346376D01*
X13126784Y12278456D01*
X13274354Y12179853D01*
X13399853Y12054354D01*
X13498456Y11906784D01*
X13566376Y11742812D01*
X13601000Y11568741D01*
X13601000Y11391259D01*
X13566376Y11217188D01*
X13498456Y11053216D01*
X13399853Y10905646D01*
X13274354Y10780147D01*
X13126784Y10681544D01*
X12962812Y10613624D01*
X12813512Y10583927D01*
X12788742Y10579000D01*
X12611258Y10579000D01*
X12586488Y10583927D01*
X12437188Y10613624D01*
X12273216Y10681544D01*
X12125646Y10780147D01*
X12000147Y10905646D01*
X11901544Y11053216D01*
X11833624Y11217188D01*
X11799000Y11391259D01*
X11799000Y11568741D01*
X11833624Y11742812D01*
X11901544Y11906784D01*
X12000147Y12054354D01*
X12125646Y12179853D01*
X12273216Y12278456D01*
X12437188Y12346376D01*
X12586488Y12376073D01*
X12611258Y12381000D01*
X12788742Y12381000D01*
X12813512Y12376073D01*
G37*
G36*
X-12598469Y14818456D02*
G01*
X-12437188Y14786376D01*
X-12273216Y14718456D01*
X-12125646Y14619853D01*
X-12000147Y14494354D01*
X-11901544Y14346784D01*
X-11833624Y14182812D01*
X-11799000Y14008741D01*
X-11799000Y13831259D01*
X-11833624Y13657188D01*
X-11901544Y13493216D01*
X-12000147Y13345646D01*
X-12125646Y13220147D01*
X-12273216Y13121544D01*
X-12437188Y13053624D01*
X-12586488Y13023927D01*
X-12611258Y13019000D01*
X-12788742Y13019000D01*
X-12813512Y13023927D01*
X-12962812Y13053624D01*
X-13126784Y13121544D01*
X-13274354Y13220147D01*
X-13399853Y13345646D01*
X-13498456Y13493216D01*
X-13566376Y13657188D01*
X-13601000Y13831259D01*
X-13601000Y14008741D01*
X-13566376Y14182812D01*
X-13498456Y14346784D01*
X-13399853Y14494354D01*
X-13274354Y14619853D01*
X-13126784Y14718456D01*
X-12962812Y14786376D01*
X-12801531Y14818456D01*
X-12788742Y14821000D01*
X-12611258Y14821000D01*
X-12598469Y14818456D01*
G37*
G36*
X12813512Y14916073D02*
G01*
X12962812Y14886376D01*
X13126784Y14818456D01*
X13274354Y14719853D01*
X13399853Y14594354D01*
X13498456Y14446784D01*
X13566376Y14282812D01*
X13601000Y14108741D01*
X13601000Y13931259D01*
X13566376Y13757188D01*
X13498456Y13593216D01*
X13399853Y13445646D01*
X13274354Y13320147D01*
X13126784Y13221544D01*
X12962812Y13153624D01*
X12813512Y13123927D01*
X12788742Y13119000D01*
X12611258Y13119000D01*
X12586488Y13123927D01*
X12437188Y13153624D01*
X12273216Y13221544D01*
X12125646Y13320147D01*
X12000147Y13445646D01*
X11901544Y13593216D01*
X11833624Y13757188D01*
X11799000Y13931259D01*
X11799000Y14108741D01*
X11833624Y14282812D01*
X11901544Y14446784D01*
X12000147Y14594354D01*
X12125646Y14719853D01*
X12273216Y14818456D01*
X12437188Y14886376D01*
X12586488Y14916073D01*
X12611258Y14921000D01*
X12788742Y14921000D01*
X12813512Y14916073D01*
G37*
G36*
X-12598469Y17358456D02*
G01*
X-12437188Y17326376D01*
X-12273216Y17258456D01*
X-12125646Y17159853D01*
X-12000147Y17034354D01*
X-11901544Y16886784D01*
X-11833624Y16722812D01*
X-11799000Y16548741D01*
X-11799000Y16371259D01*
X-11833624Y16197188D01*
X-11901544Y16033216D01*
X-12000147Y15885646D01*
X-12125646Y15760147D01*
X-12273216Y15661544D01*
X-12437188Y15593624D01*
X-12586488Y15563927D01*
X-12611258Y15559000D01*
X-12788742Y15559000D01*
X-12813512Y15563927D01*
X-12962812Y15593624D01*
X-13126784Y15661544D01*
X-13274354Y15760147D01*
X-13399853Y15885646D01*
X-13498456Y16033216D01*
X-13566376Y16197188D01*
X-13601000Y16371259D01*
X-13601000Y16548741D01*
X-13566376Y16722812D01*
X-13498456Y16886784D01*
X-13399853Y17034354D01*
X-13274354Y17159853D01*
X-13126784Y17258456D01*
X-12962812Y17326376D01*
X-12801531Y17358456D01*
X-12788742Y17361000D01*
X-12611258Y17361000D01*
X-12598469Y17358456D01*
G37*
G36*
X12813512Y17456073D02*
G01*
X12962812Y17426376D01*
X13126784Y17358456D01*
X13274354Y17259853D01*
X13399853Y17134354D01*
X13498456Y16986784D01*
X13566376Y16822812D01*
X13601000Y16648741D01*
X13601000Y16471259D01*
X13566376Y16297188D01*
X13498456Y16133216D01*
X13399853Y15985646D01*
X13274354Y15860147D01*
X13126784Y15761544D01*
X12962812Y15693624D01*
X12813512Y15663927D01*
X12788742Y15659000D01*
X12611258Y15659000D01*
X12586488Y15663927D01*
X12437188Y15693624D01*
X12273216Y15761544D01*
X12125646Y15860147D01*
X12000147Y15985646D01*
X11901544Y16133216D01*
X11833624Y16297188D01*
X11799000Y16471259D01*
X11799000Y16648741D01*
X11833624Y16822812D01*
X11901544Y16986784D01*
X12000147Y17134354D01*
X12125646Y17259853D01*
X12273216Y17358456D01*
X12437188Y17426376D01*
X12586488Y17456073D01*
X12611258Y17461000D01*
X12788742Y17461000D01*
X12813512Y17456073D01*
G37*
G36*
X-11799000Y18099000D02*
G01*
X-13601000Y18099000D01*
X-13601000Y19901000D01*
X-11799000Y19901000D01*
X-11799000Y18099000D01*
G37*
G36*
X12813512Y19996073D02*
G01*
X12962812Y19966376D01*
X13126784Y19898456D01*
X13274354Y19799853D01*
X13399853Y19674354D01*
X13498456Y19526784D01*
X13566376Y19362812D01*
X13601000Y19188741D01*
X13601000Y19011259D01*
X13566376Y18837188D01*
X13498456Y18673216D01*
X13399853Y18525646D01*
X13274354Y18400147D01*
X13126784Y18301544D01*
X12962812Y18233624D01*
X12813512Y18203927D01*
X12788742Y18199000D01*
X12611258Y18199000D01*
X12586488Y18203927D01*
X12437188Y18233624D01*
X12273216Y18301544D01*
X12125646Y18400147D01*
X12000147Y18525646D01*
X11901544Y18673216D01*
X11833624Y18837188D01*
X11799000Y19011259D01*
X11799000Y19188741D01*
X11833624Y19362812D01*
X11901544Y19526784D01*
X12000147Y19674354D01*
X12125646Y19799853D01*
X12273216Y19898456D01*
X12437188Y19966376D01*
X12586488Y19996073D01*
X12611258Y20001000D01*
X12788742Y20001000D01*
X12813512Y19996073D01*
G37*
M02*
