G04 #@! TF.GenerationSoftware,KiCad,Pcbnew,(5.1.2)-2*
G04 #@! TF.CreationDate,2020-01-30T13:06:46+01:00*
G04 #@! TF.ProjectId,Pedalbox Extenion Board,50656461-6c62-46f7-9820-457874656e69,rev?*
G04 #@! TF.SameCoordinates,Original*
G04 #@! TF.FileFunction,Soldermask,Top*
G04 #@! TF.FilePolarity,Negative*
%FSLAX46Y46*%
G04 Gerber Fmt 4.6, Leading zero omitted, Abs format (unit mm)*
G04 Created by KiCad (PCBNEW (5.1.2)-2) date 2020-01-30 13:06:46*
%MOMM*%
%LPD*%
G04 APERTURE LIST*
%ADD10R,1.500000X0.550000*%
%ADD11C,0.700000*%
%ADD12C,2.200000*%
%ADD13C,0.100000*%
%ADD14C,0.950000*%
%ADD15C,1.650000*%
%ADD16C,3.200000*%
%ADD17R,1.650000X1.650000*%
%ADD18C,0.600000*%
G04 APERTURE END LIST*
D10*
X141100000Y-137600000D03*
X144900000Y-137574600D03*
X141100000Y-136800000D03*
X144900000Y-136774600D03*
X141100000Y-136000000D03*
X144900000Y-135974600D03*
X141100000Y-135200000D03*
X144900000Y-135174600D03*
X141100000Y-134400000D03*
X144900000Y-134374600D03*
X141100000Y-133600000D03*
X144900000Y-133574600D03*
X141100000Y-132800000D03*
X144900000Y-132774600D03*
X141100000Y-132000000D03*
X144900000Y-131974600D03*
X141100000Y-131200000D03*
X144900000Y-131174600D03*
X141100000Y-130400000D03*
X144900000Y-130374600D03*
X141100000Y-129600000D03*
X144900000Y-129574600D03*
X141100000Y-128800000D03*
X144900000Y-128774600D03*
X141100000Y-128000000D03*
X144900000Y-127974600D03*
X141100000Y-127200000D03*
X144900000Y-127174600D03*
X141100000Y-126400000D03*
X144900000Y-126374600D03*
D11*
X144300000Y-138500000D03*
X141700000Y-125500000D03*
D12*
X162912000Y-140422000D03*
X166712900Y-123215400D03*
D13*
G36*
X148088779Y-128938644D02*
G01*
X148111834Y-128942063D01*
X148134443Y-128947727D01*
X148156387Y-128955579D01*
X148177457Y-128965544D01*
X148197448Y-128977526D01*
X148216168Y-128991410D01*
X148233438Y-129007062D01*
X148249090Y-129024332D01*
X148262974Y-129043052D01*
X148274956Y-129063043D01*
X148284921Y-129084113D01*
X148292773Y-129106057D01*
X148298437Y-129128666D01*
X148301856Y-129151721D01*
X148303000Y-129175000D01*
X148303000Y-129750000D01*
X148301856Y-129773279D01*
X148298437Y-129796334D01*
X148292773Y-129818943D01*
X148284921Y-129840887D01*
X148274956Y-129861957D01*
X148262974Y-129881948D01*
X148249090Y-129900668D01*
X148233438Y-129917938D01*
X148216168Y-129933590D01*
X148197448Y-129947474D01*
X148177457Y-129959456D01*
X148156387Y-129969421D01*
X148134443Y-129977273D01*
X148111834Y-129982937D01*
X148088779Y-129986356D01*
X148065500Y-129987500D01*
X147590500Y-129987500D01*
X147567221Y-129986356D01*
X147544166Y-129982937D01*
X147521557Y-129977273D01*
X147499613Y-129969421D01*
X147478543Y-129959456D01*
X147458552Y-129947474D01*
X147439832Y-129933590D01*
X147422562Y-129917938D01*
X147406910Y-129900668D01*
X147393026Y-129881948D01*
X147381044Y-129861957D01*
X147371079Y-129840887D01*
X147363227Y-129818943D01*
X147357563Y-129796334D01*
X147354144Y-129773279D01*
X147353000Y-129750000D01*
X147353000Y-129175000D01*
X147354144Y-129151721D01*
X147357563Y-129128666D01*
X147363227Y-129106057D01*
X147371079Y-129084113D01*
X147381044Y-129063043D01*
X147393026Y-129043052D01*
X147406910Y-129024332D01*
X147422562Y-129007062D01*
X147439832Y-128991410D01*
X147458552Y-128977526D01*
X147478543Y-128965544D01*
X147499613Y-128955579D01*
X147521557Y-128947727D01*
X147544166Y-128942063D01*
X147567221Y-128938644D01*
X147590500Y-128937500D01*
X148065500Y-128937500D01*
X148088779Y-128938644D01*
X148088779Y-128938644D01*
G37*
D14*
X147828000Y-129462500D03*
D13*
G36*
X148088779Y-127188644D02*
G01*
X148111834Y-127192063D01*
X148134443Y-127197727D01*
X148156387Y-127205579D01*
X148177457Y-127215544D01*
X148197448Y-127227526D01*
X148216168Y-127241410D01*
X148233438Y-127257062D01*
X148249090Y-127274332D01*
X148262974Y-127293052D01*
X148274956Y-127313043D01*
X148284921Y-127334113D01*
X148292773Y-127356057D01*
X148298437Y-127378666D01*
X148301856Y-127401721D01*
X148303000Y-127425000D01*
X148303000Y-128000000D01*
X148301856Y-128023279D01*
X148298437Y-128046334D01*
X148292773Y-128068943D01*
X148284921Y-128090887D01*
X148274956Y-128111957D01*
X148262974Y-128131948D01*
X148249090Y-128150668D01*
X148233438Y-128167938D01*
X148216168Y-128183590D01*
X148197448Y-128197474D01*
X148177457Y-128209456D01*
X148156387Y-128219421D01*
X148134443Y-128227273D01*
X148111834Y-128232937D01*
X148088779Y-128236356D01*
X148065500Y-128237500D01*
X147590500Y-128237500D01*
X147567221Y-128236356D01*
X147544166Y-128232937D01*
X147521557Y-128227273D01*
X147499613Y-128219421D01*
X147478543Y-128209456D01*
X147458552Y-128197474D01*
X147439832Y-128183590D01*
X147422562Y-128167938D01*
X147406910Y-128150668D01*
X147393026Y-128131948D01*
X147381044Y-128111957D01*
X147371079Y-128090887D01*
X147363227Y-128068943D01*
X147357563Y-128046334D01*
X147354144Y-128023279D01*
X147353000Y-128000000D01*
X147353000Y-127425000D01*
X147354144Y-127401721D01*
X147357563Y-127378666D01*
X147363227Y-127356057D01*
X147371079Y-127334113D01*
X147381044Y-127313043D01*
X147393026Y-127293052D01*
X147406910Y-127274332D01*
X147422562Y-127257062D01*
X147439832Y-127241410D01*
X147458552Y-127227526D01*
X147478543Y-127215544D01*
X147499613Y-127205579D01*
X147521557Y-127197727D01*
X147544166Y-127192063D01*
X147567221Y-127188644D01*
X147590500Y-127187500D01*
X148065500Y-127187500D01*
X148088779Y-127188644D01*
X148088779Y-127188644D01*
G37*
D14*
X147828000Y-127712500D03*
D13*
G36*
X151530479Y-128951344D02*
G01*
X151553534Y-128954763D01*
X151576143Y-128960427D01*
X151598087Y-128968279D01*
X151619157Y-128978244D01*
X151639148Y-128990226D01*
X151657868Y-129004110D01*
X151675138Y-129019762D01*
X151690790Y-129037032D01*
X151704674Y-129055752D01*
X151716656Y-129075743D01*
X151726621Y-129096813D01*
X151734473Y-129118757D01*
X151740137Y-129141366D01*
X151743556Y-129164421D01*
X151744700Y-129187700D01*
X151744700Y-129762700D01*
X151743556Y-129785979D01*
X151740137Y-129809034D01*
X151734473Y-129831643D01*
X151726621Y-129853587D01*
X151716656Y-129874657D01*
X151704674Y-129894648D01*
X151690790Y-129913368D01*
X151675138Y-129930638D01*
X151657868Y-129946290D01*
X151639148Y-129960174D01*
X151619157Y-129972156D01*
X151598087Y-129982121D01*
X151576143Y-129989973D01*
X151553534Y-129995637D01*
X151530479Y-129999056D01*
X151507200Y-130000200D01*
X151032200Y-130000200D01*
X151008921Y-129999056D01*
X150985866Y-129995637D01*
X150963257Y-129989973D01*
X150941313Y-129982121D01*
X150920243Y-129972156D01*
X150900252Y-129960174D01*
X150881532Y-129946290D01*
X150864262Y-129930638D01*
X150848610Y-129913368D01*
X150834726Y-129894648D01*
X150822744Y-129874657D01*
X150812779Y-129853587D01*
X150804927Y-129831643D01*
X150799263Y-129809034D01*
X150795844Y-129785979D01*
X150794700Y-129762700D01*
X150794700Y-129187700D01*
X150795844Y-129164421D01*
X150799263Y-129141366D01*
X150804927Y-129118757D01*
X150812779Y-129096813D01*
X150822744Y-129075743D01*
X150834726Y-129055752D01*
X150848610Y-129037032D01*
X150864262Y-129019762D01*
X150881532Y-129004110D01*
X150900252Y-128990226D01*
X150920243Y-128978244D01*
X150941313Y-128968279D01*
X150963257Y-128960427D01*
X150985866Y-128954763D01*
X151008921Y-128951344D01*
X151032200Y-128950200D01*
X151507200Y-128950200D01*
X151530479Y-128951344D01*
X151530479Y-128951344D01*
G37*
D14*
X151269700Y-129475200D03*
D13*
G36*
X151530479Y-127201344D02*
G01*
X151553534Y-127204763D01*
X151576143Y-127210427D01*
X151598087Y-127218279D01*
X151619157Y-127228244D01*
X151639148Y-127240226D01*
X151657868Y-127254110D01*
X151675138Y-127269762D01*
X151690790Y-127287032D01*
X151704674Y-127305752D01*
X151716656Y-127325743D01*
X151726621Y-127346813D01*
X151734473Y-127368757D01*
X151740137Y-127391366D01*
X151743556Y-127414421D01*
X151744700Y-127437700D01*
X151744700Y-128012700D01*
X151743556Y-128035979D01*
X151740137Y-128059034D01*
X151734473Y-128081643D01*
X151726621Y-128103587D01*
X151716656Y-128124657D01*
X151704674Y-128144648D01*
X151690790Y-128163368D01*
X151675138Y-128180638D01*
X151657868Y-128196290D01*
X151639148Y-128210174D01*
X151619157Y-128222156D01*
X151598087Y-128232121D01*
X151576143Y-128239973D01*
X151553534Y-128245637D01*
X151530479Y-128249056D01*
X151507200Y-128250200D01*
X151032200Y-128250200D01*
X151008921Y-128249056D01*
X150985866Y-128245637D01*
X150963257Y-128239973D01*
X150941313Y-128232121D01*
X150920243Y-128222156D01*
X150900252Y-128210174D01*
X150881532Y-128196290D01*
X150864262Y-128180638D01*
X150848610Y-128163368D01*
X150834726Y-128144648D01*
X150822744Y-128124657D01*
X150812779Y-128103587D01*
X150804927Y-128081643D01*
X150799263Y-128059034D01*
X150795844Y-128035979D01*
X150794700Y-128012700D01*
X150794700Y-127437700D01*
X150795844Y-127414421D01*
X150799263Y-127391366D01*
X150804927Y-127368757D01*
X150812779Y-127346813D01*
X150822744Y-127325743D01*
X150834726Y-127305752D01*
X150848610Y-127287032D01*
X150864262Y-127269762D01*
X150881532Y-127254110D01*
X150900252Y-127240226D01*
X150920243Y-127228244D01*
X150941313Y-127218279D01*
X150963257Y-127210427D01*
X150985866Y-127204763D01*
X151008921Y-127201344D01*
X151032200Y-127200200D01*
X151507200Y-127200200D01*
X151530479Y-127201344D01*
X151530479Y-127201344D01*
G37*
D14*
X151269700Y-127725200D03*
D13*
G36*
X149879479Y-128964044D02*
G01*
X149902534Y-128967463D01*
X149925143Y-128973127D01*
X149947087Y-128980979D01*
X149968157Y-128990944D01*
X149988148Y-129002926D01*
X150006868Y-129016810D01*
X150024138Y-129032462D01*
X150039790Y-129049732D01*
X150053674Y-129068452D01*
X150065656Y-129088443D01*
X150075621Y-129109513D01*
X150083473Y-129131457D01*
X150089137Y-129154066D01*
X150092556Y-129177121D01*
X150093700Y-129200400D01*
X150093700Y-129775400D01*
X150092556Y-129798679D01*
X150089137Y-129821734D01*
X150083473Y-129844343D01*
X150075621Y-129866287D01*
X150065656Y-129887357D01*
X150053674Y-129907348D01*
X150039790Y-129926068D01*
X150024138Y-129943338D01*
X150006868Y-129958990D01*
X149988148Y-129972874D01*
X149968157Y-129984856D01*
X149947087Y-129994821D01*
X149925143Y-130002673D01*
X149902534Y-130008337D01*
X149879479Y-130011756D01*
X149856200Y-130012900D01*
X149381200Y-130012900D01*
X149357921Y-130011756D01*
X149334866Y-130008337D01*
X149312257Y-130002673D01*
X149290313Y-129994821D01*
X149269243Y-129984856D01*
X149249252Y-129972874D01*
X149230532Y-129958990D01*
X149213262Y-129943338D01*
X149197610Y-129926068D01*
X149183726Y-129907348D01*
X149171744Y-129887357D01*
X149161779Y-129866287D01*
X149153927Y-129844343D01*
X149148263Y-129821734D01*
X149144844Y-129798679D01*
X149143700Y-129775400D01*
X149143700Y-129200400D01*
X149144844Y-129177121D01*
X149148263Y-129154066D01*
X149153927Y-129131457D01*
X149161779Y-129109513D01*
X149171744Y-129088443D01*
X149183726Y-129068452D01*
X149197610Y-129049732D01*
X149213262Y-129032462D01*
X149230532Y-129016810D01*
X149249252Y-129002926D01*
X149269243Y-128990944D01*
X149290313Y-128980979D01*
X149312257Y-128973127D01*
X149334866Y-128967463D01*
X149357921Y-128964044D01*
X149381200Y-128962900D01*
X149856200Y-128962900D01*
X149879479Y-128964044D01*
X149879479Y-128964044D01*
G37*
D14*
X149618700Y-129487900D03*
D13*
G36*
X149879479Y-127214044D02*
G01*
X149902534Y-127217463D01*
X149925143Y-127223127D01*
X149947087Y-127230979D01*
X149968157Y-127240944D01*
X149988148Y-127252926D01*
X150006868Y-127266810D01*
X150024138Y-127282462D01*
X150039790Y-127299732D01*
X150053674Y-127318452D01*
X150065656Y-127338443D01*
X150075621Y-127359513D01*
X150083473Y-127381457D01*
X150089137Y-127404066D01*
X150092556Y-127427121D01*
X150093700Y-127450400D01*
X150093700Y-128025400D01*
X150092556Y-128048679D01*
X150089137Y-128071734D01*
X150083473Y-128094343D01*
X150075621Y-128116287D01*
X150065656Y-128137357D01*
X150053674Y-128157348D01*
X150039790Y-128176068D01*
X150024138Y-128193338D01*
X150006868Y-128208990D01*
X149988148Y-128222874D01*
X149968157Y-128234856D01*
X149947087Y-128244821D01*
X149925143Y-128252673D01*
X149902534Y-128258337D01*
X149879479Y-128261756D01*
X149856200Y-128262900D01*
X149381200Y-128262900D01*
X149357921Y-128261756D01*
X149334866Y-128258337D01*
X149312257Y-128252673D01*
X149290313Y-128244821D01*
X149269243Y-128234856D01*
X149249252Y-128222874D01*
X149230532Y-128208990D01*
X149213262Y-128193338D01*
X149197610Y-128176068D01*
X149183726Y-128157348D01*
X149171744Y-128137357D01*
X149161779Y-128116287D01*
X149153927Y-128094343D01*
X149148263Y-128071734D01*
X149144844Y-128048679D01*
X149143700Y-128025400D01*
X149143700Y-127450400D01*
X149144844Y-127427121D01*
X149148263Y-127404066D01*
X149153927Y-127381457D01*
X149161779Y-127359513D01*
X149171744Y-127338443D01*
X149183726Y-127318452D01*
X149197610Y-127299732D01*
X149213262Y-127282462D01*
X149230532Y-127266810D01*
X149249252Y-127252926D01*
X149269243Y-127240944D01*
X149290313Y-127230979D01*
X149312257Y-127223127D01*
X149334866Y-127217463D01*
X149357921Y-127214044D01*
X149381200Y-127212900D01*
X149856200Y-127212900D01*
X149879479Y-127214044D01*
X149879479Y-127214044D01*
G37*
D14*
X149618700Y-127737900D03*
D13*
G36*
X137115979Y-135833444D02*
G01*
X137139034Y-135836863D01*
X137161643Y-135842527D01*
X137183587Y-135850379D01*
X137204657Y-135860344D01*
X137224648Y-135872326D01*
X137243368Y-135886210D01*
X137260638Y-135901862D01*
X137276290Y-135919132D01*
X137290174Y-135937852D01*
X137302156Y-135957843D01*
X137312121Y-135978913D01*
X137319973Y-136000857D01*
X137325637Y-136023466D01*
X137329056Y-136046521D01*
X137330200Y-136069800D01*
X137330200Y-136644800D01*
X137329056Y-136668079D01*
X137325637Y-136691134D01*
X137319973Y-136713743D01*
X137312121Y-136735687D01*
X137302156Y-136756757D01*
X137290174Y-136776748D01*
X137276290Y-136795468D01*
X137260638Y-136812738D01*
X137243368Y-136828390D01*
X137224648Y-136842274D01*
X137204657Y-136854256D01*
X137183587Y-136864221D01*
X137161643Y-136872073D01*
X137139034Y-136877737D01*
X137115979Y-136881156D01*
X137092700Y-136882300D01*
X136617700Y-136882300D01*
X136594421Y-136881156D01*
X136571366Y-136877737D01*
X136548757Y-136872073D01*
X136526813Y-136864221D01*
X136505743Y-136854256D01*
X136485752Y-136842274D01*
X136467032Y-136828390D01*
X136449762Y-136812738D01*
X136434110Y-136795468D01*
X136420226Y-136776748D01*
X136408244Y-136756757D01*
X136398279Y-136735687D01*
X136390427Y-136713743D01*
X136384763Y-136691134D01*
X136381344Y-136668079D01*
X136380200Y-136644800D01*
X136380200Y-136069800D01*
X136381344Y-136046521D01*
X136384763Y-136023466D01*
X136390427Y-136000857D01*
X136398279Y-135978913D01*
X136408244Y-135957843D01*
X136420226Y-135937852D01*
X136434110Y-135919132D01*
X136449762Y-135901862D01*
X136467032Y-135886210D01*
X136485752Y-135872326D01*
X136505743Y-135860344D01*
X136526813Y-135850379D01*
X136548757Y-135842527D01*
X136571366Y-135836863D01*
X136594421Y-135833444D01*
X136617700Y-135832300D01*
X137092700Y-135832300D01*
X137115979Y-135833444D01*
X137115979Y-135833444D01*
G37*
D14*
X136855200Y-136357300D03*
D13*
G36*
X137115979Y-134083444D02*
G01*
X137139034Y-134086863D01*
X137161643Y-134092527D01*
X137183587Y-134100379D01*
X137204657Y-134110344D01*
X137224648Y-134122326D01*
X137243368Y-134136210D01*
X137260638Y-134151862D01*
X137276290Y-134169132D01*
X137290174Y-134187852D01*
X137302156Y-134207843D01*
X137312121Y-134228913D01*
X137319973Y-134250857D01*
X137325637Y-134273466D01*
X137329056Y-134296521D01*
X137330200Y-134319800D01*
X137330200Y-134894800D01*
X137329056Y-134918079D01*
X137325637Y-134941134D01*
X137319973Y-134963743D01*
X137312121Y-134985687D01*
X137302156Y-135006757D01*
X137290174Y-135026748D01*
X137276290Y-135045468D01*
X137260638Y-135062738D01*
X137243368Y-135078390D01*
X137224648Y-135092274D01*
X137204657Y-135104256D01*
X137183587Y-135114221D01*
X137161643Y-135122073D01*
X137139034Y-135127737D01*
X137115979Y-135131156D01*
X137092700Y-135132300D01*
X136617700Y-135132300D01*
X136594421Y-135131156D01*
X136571366Y-135127737D01*
X136548757Y-135122073D01*
X136526813Y-135114221D01*
X136505743Y-135104256D01*
X136485752Y-135092274D01*
X136467032Y-135078390D01*
X136449762Y-135062738D01*
X136434110Y-135045468D01*
X136420226Y-135026748D01*
X136408244Y-135006757D01*
X136398279Y-134985687D01*
X136390427Y-134963743D01*
X136384763Y-134941134D01*
X136381344Y-134918079D01*
X136380200Y-134894800D01*
X136380200Y-134319800D01*
X136381344Y-134296521D01*
X136384763Y-134273466D01*
X136390427Y-134250857D01*
X136398279Y-134228913D01*
X136408244Y-134207843D01*
X136420226Y-134187852D01*
X136434110Y-134169132D01*
X136449762Y-134151862D01*
X136467032Y-134136210D01*
X136485752Y-134122326D01*
X136505743Y-134110344D01*
X136526813Y-134100379D01*
X136548757Y-134092527D01*
X136571366Y-134086863D01*
X136594421Y-134083444D01*
X136617700Y-134082300D01*
X137092700Y-134082300D01*
X137115979Y-134083444D01*
X137115979Y-134083444D01*
G37*
D14*
X136855200Y-134607300D03*
D13*
G36*
X137382679Y-123378644D02*
G01*
X137405734Y-123382063D01*
X137428343Y-123387727D01*
X137450287Y-123395579D01*
X137471357Y-123405544D01*
X137491348Y-123417526D01*
X137510068Y-123431410D01*
X137527338Y-123447062D01*
X137542990Y-123464332D01*
X137556874Y-123483052D01*
X137568856Y-123503043D01*
X137578821Y-123524113D01*
X137586673Y-123546057D01*
X137592337Y-123568666D01*
X137595756Y-123591721D01*
X137596900Y-123615000D01*
X137596900Y-124190000D01*
X137595756Y-124213279D01*
X137592337Y-124236334D01*
X137586673Y-124258943D01*
X137578821Y-124280887D01*
X137568856Y-124301957D01*
X137556874Y-124321948D01*
X137542990Y-124340668D01*
X137527338Y-124357938D01*
X137510068Y-124373590D01*
X137491348Y-124387474D01*
X137471357Y-124399456D01*
X137450287Y-124409421D01*
X137428343Y-124417273D01*
X137405734Y-124422937D01*
X137382679Y-124426356D01*
X137359400Y-124427500D01*
X136884400Y-124427500D01*
X136861121Y-124426356D01*
X136838066Y-124422937D01*
X136815457Y-124417273D01*
X136793513Y-124409421D01*
X136772443Y-124399456D01*
X136752452Y-124387474D01*
X136733732Y-124373590D01*
X136716462Y-124357938D01*
X136700810Y-124340668D01*
X136686926Y-124321948D01*
X136674944Y-124301957D01*
X136664979Y-124280887D01*
X136657127Y-124258943D01*
X136651463Y-124236334D01*
X136648044Y-124213279D01*
X136646900Y-124190000D01*
X136646900Y-123615000D01*
X136648044Y-123591721D01*
X136651463Y-123568666D01*
X136657127Y-123546057D01*
X136664979Y-123524113D01*
X136674944Y-123503043D01*
X136686926Y-123483052D01*
X136700810Y-123464332D01*
X136716462Y-123447062D01*
X136733732Y-123431410D01*
X136752452Y-123417526D01*
X136772443Y-123405544D01*
X136793513Y-123395579D01*
X136815457Y-123387727D01*
X136838066Y-123382063D01*
X136861121Y-123378644D01*
X136884400Y-123377500D01*
X137359400Y-123377500D01*
X137382679Y-123378644D01*
X137382679Y-123378644D01*
G37*
D14*
X137121900Y-123902500D03*
D13*
G36*
X137382679Y-125128644D02*
G01*
X137405734Y-125132063D01*
X137428343Y-125137727D01*
X137450287Y-125145579D01*
X137471357Y-125155544D01*
X137491348Y-125167526D01*
X137510068Y-125181410D01*
X137527338Y-125197062D01*
X137542990Y-125214332D01*
X137556874Y-125233052D01*
X137568856Y-125253043D01*
X137578821Y-125274113D01*
X137586673Y-125296057D01*
X137592337Y-125318666D01*
X137595756Y-125341721D01*
X137596900Y-125365000D01*
X137596900Y-125940000D01*
X137595756Y-125963279D01*
X137592337Y-125986334D01*
X137586673Y-126008943D01*
X137578821Y-126030887D01*
X137568856Y-126051957D01*
X137556874Y-126071948D01*
X137542990Y-126090668D01*
X137527338Y-126107938D01*
X137510068Y-126123590D01*
X137491348Y-126137474D01*
X137471357Y-126149456D01*
X137450287Y-126159421D01*
X137428343Y-126167273D01*
X137405734Y-126172937D01*
X137382679Y-126176356D01*
X137359400Y-126177500D01*
X136884400Y-126177500D01*
X136861121Y-126176356D01*
X136838066Y-126172937D01*
X136815457Y-126167273D01*
X136793513Y-126159421D01*
X136772443Y-126149456D01*
X136752452Y-126137474D01*
X136733732Y-126123590D01*
X136716462Y-126107938D01*
X136700810Y-126090668D01*
X136686926Y-126071948D01*
X136674944Y-126051957D01*
X136664979Y-126030887D01*
X136657127Y-126008943D01*
X136651463Y-125986334D01*
X136648044Y-125963279D01*
X136646900Y-125940000D01*
X136646900Y-125365000D01*
X136648044Y-125341721D01*
X136651463Y-125318666D01*
X136657127Y-125296057D01*
X136664979Y-125274113D01*
X136674944Y-125253043D01*
X136686926Y-125233052D01*
X136700810Y-125214332D01*
X136716462Y-125197062D01*
X136733732Y-125181410D01*
X136752452Y-125167526D01*
X136772443Y-125155544D01*
X136793513Y-125145579D01*
X136815457Y-125137727D01*
X136838066Y-125132063D01*
X136861121Y-125128644D01*
X136884400Y-125127500D01*
X137359400Y-125127500D01*
X137382679Y-125128644D01*
X137382679Y-125128644D01*
G37*
D14*
X137121900Y-125652500D03*
D13*
G36*
X147898279Y-123327844D02*
G01*
X147921334Y-123331263D01*
X147943943Y-123336927D01*
X147965887Y-123344779D01*
X147986957Y-123354744D01*
X148006948Y-123366726D01*
X148025668Y-123380610D01*
X148042938Y-123396262D01*
X148058590Y-123413532D01*
X148072474Y-123432252D01*
X148084456Y-123452243D01*
X148094421Y-123473313D01*
X148102273Y-123495257D01*
X148107937Y-123517866D01*
X148111356Y-123540921D01*
X148112500Y-123564200D01*
X148112500Y-124139200D01*
X148111356Y-124162479D01*
X148107937Y-124185534D01*
X148102273Y-124208143D01*
X148094421Y-124230087D01*
X148084456Y-124251157D01*
X148072474Y-124271148D01*
X148058590Y-124289868D01*
X148042938Y-124307138D01*
X148025668Y-124322790D01*
X148006948Y-124336674D01*
X147986957Y-124348656D01*
X147965887Y-124358621D01*
X147943943Y-124366473D01*
X147921334Y-124372137D01*
X147898279Y-124375556D01*
X147875000Y-124376700D01*
X147400000Y-124376700D01*
X147376721Y-124375556D01*
X147353666Y-124372137D01*
X147331057Y-124366473D01*
X147309113Y-124358621D01*
X147288043Y-124348656D01*
X147268052Y-124336674D01*
X147249332Y-124322790D01*
X147232062Y-124307138D01*
X147216410Y-124289868D01*
X147202526Y-124271148D01*
X147190544Y-124251157D01*
X147180579Y-124230087D01*
X147172727Y-124208143D01*
X147167063Y-124185534D01*
X147163644Y-124162479D01*
X147162500Y-124139200D01*
X147162500Y-123564200D01*
X147163644Y-123540921D01*
X147167063Y-123517866D01*
X147172727Y-123495257D01*
X147180579Y-123473313D01*
X147190544Y-123452243D01*
X147202526Y-123432252D01*
X147216410Y-123413532D01*
X147232062Y-123396262D01*
X147249332Y-123380610D01*
X147268052Y-123366726D01*
X147288043Y-123354744D01*
X147309113Y-123344779D01*
X147331057Y-123336927D01*
X147353666Y-123331263D01*
X147376721Y-123327844D01*
X147400000Y-123326700D01*
X147875000Y-123326700D01*
X147898279Y-123327844D01*
X147898279Y-123327844D01*
G37*
D14*
X147637500Y-123851700D03*
D13*
G36*
X147898279Y-125077844D02*
G01*
X147921334Y-125081263D01*
X147943943Y-125086927D01*
X147965887Y-125094779D01*
X147986957Y-125104744D01*
X148006948Y-125116726D01*
X148025668Y-125130610D01*
X148042938Y-125146262D01*
X148058590Y-125163532D01*
X148072474Y-125182252D01*
X148084456Y-125202243D01*
X148094421Y-125223313D01*
X148102273Y-125245257D01*
X148107937Y-125267866D01*
X148111356Y-125290921D01*
X148112500Y-125314200D01*
X148112500Y-125889200D01*
X148111356Y-125912479D01*
X148107937Y-125935534D01*
X148102273Y-125958143D01*
X148094421Y-125980087D01*
X148084456Y-126001157D01*
X148072474Y-126021148D01*
X148058590Y-126039868D01*
X148042938Y-126057138D01*
X148025668Y-126072790D01*
X148006948Y-126086674D01*
X147986957Y-126098656D01*
X147965887Y-126108621D01*
X147943943Y-126116473D01*
X147921334Y-126122137D01*
X147898279Y-126125556D01*
X147875000Y-126126700D01*
X147400000Y-126126700D01*
X147376721Y-126125556D01*
X147353666Y-126122137D01*
X147331057Y-126116473D01*
X147309113Y-126108621D01*
X147288043Y-126098656D01*
X147268052Y-126086674D01*
X147249332Y-126072790D01*
X147232062Y-126057138D01*
X147216410Y-126039868D01*
X147202526Y-126021148D01*
X147190544Y-126001157D01*
X147180579Y-125980087D01*
X147172727Y-125958143D01*
X147167063Y-125935534D01*
X147163644Y-125912479D01*
X147162500Y-125889200D01*
X147162500Y-125314200D01*
X147163644Y-125290921D01*
X147167063Y-125267866D01*
X147172727Y-125245257D01*
X147180579Y-125223313D01*
X147190544Y-125202243D01*
X147202526Y-125182252D01*
X147216410Y-125163532D01*
X147232062Y-125146262D01*
X147249332Y-125130610D01*
X147268052Y-125116726D01*
X147288043Y-125104744D01*
X147309113Y-125094779D01*
X147331057Y-125086927D01*
X147353666Y-125081263D01*
X147376721Y-125077844D01*
X147400000Y-125076700D01*
X147875000Y-125076700D01*
X147898279Y-125077844D01*
X147898279Y-125077844D01*
G37*
D14*
X147637500Y-125601700D03*
D13*
G36*
X137192179Y-130119744D02*
G01*
X137215234Y-130123163D01*
X137237843Y-130128827D01*
X137259787Y-130136679D01*
X137280857Y-130146644D01*
X137300848Y-130158626D01*
X137319568Y-130172510D01*
X137336838Y-130188162D01*
X137352490Y-130205432D01*
X137366374Y-130224152D01*
X137378356Y-130244143D01*
X137388321Y-130265213D01*
X137396173Y-130287157D01*
X137401837Y-130309766D01*
X137405256Y-130332821D01*
X137406400Y-130356100D01*
X137406400Y-130931100D01*
X137405256Y-130954379D01*
X137401837Y-130977434D01*
X137396173Y-131000043D01*
X137388321Y-131021987D01*
X137378356Y-131043057D01*
X137366374Y-131063048D01*
X137352490Y-131081768D01*
X137336838Y-131099038D01*
X137319568Y-131114690D01*
X137300848Y-131128574D01*
X137280857Y-131140556D01*
X137259787Y-131150521D01*
X137237843Y-131158373D01*
X137215234Y-131164037D01*
X137192179Y-131167456D01*
X137168900Y-131168600D01*
X136693900Y-131168600D01*
X136670621Y-131167456D01*
X136647566Y-131164037D01*
X136624957Y-131158373D01*
X136603013Y-131150521D01*
X136581943Y-131140556D01*
X136561952Y-131128574D01*
X136543232Y-131114690D01*
X136525962Y-131099038D01*
X136510310Y-131081768D01*
X136496426Y-131063048D01*
X136484444Y-131043057D01*
X136474479Y-131021987D01*
X136466627Y-131000043D01*
X136460963Y-130977434D01*
X136457544Y-130954379D01*
X136456400Y-130931100D01*
X136456400Y-130356100D01*
X136457544Y-130332821D01*
X136460963Y-130309766D01*
X136466627Y-130287157D01*
X136474479Y-130265213D01*
X136484444Y-130244143D01*
X136496426Y-130224152D01*
X136510310Y-130205432D01*
X136525962Y-130188162D01*
X136543232Y-130172510D01*
X136561952Y-130158626D01*
X136581943Y-130146644D01*
X136603013Y-130136679D01*
X136624957Y-130128827D01*
X136647566Y-130123163D01*
X136670621Y-130119744D01*
X136693900Y-130118600D01*
X137168900Y-130118600D01*
X137192179Y-130119744D01*
X137192179Y-130119744D01*
G37*
D14*
X136931400Y-130643600D03*
D13*
G36*
X137192179Y-128369744D02*
G01*
X137215234Y-128373163D01*
X137237843Y-128378827D01*
X137259787Y-128386679D01*
X137280857Y-128396644D01*
X137300848Y-128408626D01*
X137319568Y-128422510D01*
X137336838Y-128438162D01*
X137352490Y-128455432D01*
X137366374Y-128474152D01*
X137378356Y-128494143D01*
X137388321Y-128515213D01*
X137396173Y-128537157D01*
X137401837Y-128559766D01*
X137405256Y-128582821D01*
X137406400Y-128606100D01*
X137406400Y-129181100D01*
X137405256Y-129204379D01*
X137401837Y-129227434D01*
X137396173Y-129250043D01*
X137388321Y-129271987D01*
X137378356Y-129293057D01*
X137366374Y-129313048D01*
X137352490Y-129331768D01*
X137336838Y-129349038D01*
X137319568Y-129364690D01*
X137300848Y-129378574D01*
X137280857Y-129390556D01*
X137259787Y-129400521D01*
X137237843Y-129408373D01*
X137215234Y-129414037D01*
X137192179Y-129417456D01*
X137168900Y-129418600D01*
X136693900Y-129418600D01*
X136670621Y-129417456D01*
X136647566Y-129414037D01*
X136624957Y-129408373D01*
X136603013Y-129400521D01*
X136581943Y-129390556D01*
X136561952Y-129378574D01*
X136543232Y-129364690D01*
X136525962Y-129349038D01*
X136510310Y-129331768D01*
X136496426Y-129313048D01*
X136484444Y-129293057D01*
X136474479Y-129271987D01*
X136466627Y-129250043D01*
X136460963Y-129227434D01*
X136457544Y-129204379D01*
X136456400Y-129181100D01*
X136456400Y-128606100D01*
X136457544Y-128582821D01*
X136460963Y-128559766D01*
X136466627Y-128537157D01*
X136474479Y-128515213D01*
X136484444Y-128494143D01*
X136496426Y-128474152D01*
X136510310Y-128455432D01*
X136525962Y-128438162D01*
X136543232Y-128422510D01*
X136561952Y-128408626D01*
X136581943Y-128396644D01*
X136603013Y-128386679D01*
X136624957Y-128378827D01*
X136647566Y-128373163D01*
X136670621Y-128369744D01*
X136693900Y-128368600D01*
X137168900Y-128368600D01*
X137192179Y-128369744D01*
X137192179Y-128369744D01*
G37*
D14*
X136931400Y-128893600D03*
D13*
G36*
X133623479Y-135872844D02*
G01*
X133646534Y-135876263D01*
X133669143Y-135881927D01*
X133691087Y-135889779D01*
X133712157Y-135899744D01*
X133732148Y-135911726D01*
X133750868Y-135925610D01*
X133768138Y-135941262D01*
X133783790Y-135958532D01*
X133797674Y-135977252D01*
X133809656Y-135997243D01*
X133819621Y-136018313D01*
X133827473Y-136040257D01*
X133833137Y-136062866D01*
X133836556Y-136085921D01*
X133837700Y-136109200D01*
X133837700Y-136684200D01*
X133836556Y-136707479D01*
X133833137Y-136730534D01*
X133827473Y-136753143D01*
X133819621Y-136775087D01*
X133809656Y-136796157D01*
X133797674Y-136816148D01*
X133783790Y-136834868D01*
X133768138Y-136852138D01*
X133750868Y-136867790D01*
X133732148Y-136881674D01*
X133712157Y-136893656D01*
X133691087Y-136903621D01*
X133669143Y-136911473D01*
X133646534Y-136917137D01*
X133623479Y-136920556D01*
X133600200Y-136921700D01*
X133125200Y-136921700D01*
X133101921Y-136920556D01*
X133078866Y-136917137D01*
X133056257Y-136911473D01*
X133034313Y-136903621D01*
X133013243Y-136893656D01*
X132993252Y-136881674D01*
X132974532Y-136867790D01*
X132957262Y-136852138D01*
X132941610Y-136834868D01*
X132927726Y-136816148D01*
X132915744Y-136796157D01*
X132905779Y-136775087D01*
X132897927Y-136753143D01*
X132892263Y-136730534D01*
X132888844Y-136707479D01*
X132887700Y-136684200D01*
X132887700Y-136109200D01*
X132888844Y-136085921D01*
X132892263Y-136062866D01*
X132897927Y-136040257D01*
X132905779Y-136018313D01*
X132915744Y-135997243D01*
X132927726Y-135977252D01*
X132941610Y-135958532D01*
X132957262Y-135941262D01*
X132974532Y-135925610D01*
X132993252Y-135911726D01*
X133013243Y-135899744D01*
X133034313Y-135889779D01*
X133056257Y-135881927D01*
X133078866Y-135876263D01*
X133101921Y-135872844D01*
X133125200Y-135871700D01*
X133600200Y-135871700D01*
X133623479Y-135872844D01*
X133623479Y-135872844D01*
G37*
D14*
X133362700Y-136396700D03*
D13*
G36*
X133623479Y-134122844D02*
G01*
X133646534Y-134126263D01*
X133669143Y-134131927D01*
X133691087Y-134139779D01*
X133712157Y-134149744D01*
X133732148Y-134161726D01*
X133750868Y-134175610D01*
X133768138Y-134191262D01*
X133783790Y-134208532D01*
X133797674Y-134227252D01*
X133809656Y-134247243D01*
X133819621Y-134268313D01*
X133827473Y-134290257D01*
X133833137Y-134312866D01*
X133836556Y-134335921D01*
X133837700Y-134359200D01*
X133837700Y-134934200D01*
X133836556Y-134957479D01*
X133833137Y-134980534D01*
X133827473Y-135003143D01*
X133819621Y-135025087D01*
X133809656Y-135046157D01*
X133797674Y-135066148D01*
X133783790Y-135084868D01*
X133768138Y-135102138D01*
X133750868Y-135117790D01*
X133732148Y-135131674D01*
X133712157Y-135143656D01*
X133691087Y-135153621D01*
X133669143Y-135161473D01*
X133646534Y-135167137D01*
X133623479Y-135170556D01*
X133600200Y-135171700D01*
X133125200Y-135171700D01*
X133101921Y-135170556D01*
X133078866Y-135167137D01*
X133056257Y-135161473D01*
X133034313Y-135153621D01*
X133013243Y-135143656D01*
X132993252Y-135131674D01*
X132974532Y-135117790D01*
X132957262Y-135102138D01*
X132941610Y-135084868D01*
X132927726Y-135066148D01*
X132915744Y-135046157D01*
X132905779Y-135025087D01*
X132897927Y-135003143D01*
X132892263Y-134980534D01*
X132888844Y-134957479D01*
X132887700Y-134934200D01*
X132887700Y-134359200D01*
X132888844Y-134335921D01*
X132892263Y-134312866D01*
X132897927Y-134290257D01*
X132905779Y-134268313D01*
X132915744Y-134247243D01*
X132927726Y-134227252D01*
X132941610Y-134208532D01*
X132957262Y-134191262D01*
X132974532Y-134175610D01*
X132993252Y-134161726D01*
X133013243Y-134149744D01*
X133034313Y-134139779D01*
X133056257Y-134131927D01*
X133078866Y-134126263D01*
X133101921Y-134122844D01*
X133125200Y-134121700D01*
X133600200Y-134121700D01*
X133623479Y-134122844D01*
X133623479Y-134122844D01*
G37*
D14*
X133362700Y-134646700D03*
D13*
G36*
X133826679Y-123340544D02*
G01*
X133849734Y-123343963D01*
X133872343Y-123349627D01*
X133894287Y-123357479D01*
X133915357Y-123367444D01*
X133935348Y-123379426D01*
X133954068Y-123393310D01*
X133971338Y-123408962D01*
X133986990Y-123426232D01*
X134000874Y-123444952D01*
X134012856Y-123464943D01*
X134022821Y-123486013D01*
X134030673Y-123507957D01*
X134036337Y-123530566D01*
X134039756Y-123553621D01*
X134040900Y-123576900D01*
X134040900Y-124151900D01*
X134039756Y-124175179D01*
X134036337Y-124198234D01*
X134030673Y-124220843D01*
X134022821Y-124242787D01*
X134012856Y-124263857D01*
X134000874Y-124283848D01*
X133986990Y-124302568D01*
X133971338Y-124319838D01*
X133954068Y-124335490D01*
X133935348Y-124349374D01*
X133915357Y-124361356D01*
X133894287Y-124371321D01*
X133872343Y-124379173D01*
X133849734Y-124384837D01*
X133826679Y-124388256D01*
X133803400Y-124389400D01*
X133328400Y-124389400D01*
X133305121Y-124388256D01*
X133282066Y-124384837D01*
X133259457Y-124379173D01*
X133237513Y-124371321D01*
X133216443Y-124361356D01*
X133196452Y-124349374D01*
X133177732Y-124335490D01*
X133160462Y-124319838D01*
X133144810Y-124302568D01*
X133130926Y-124283848D01*
X133118944Y-124263857D01*
X133108979Y-124242787D01*
X133101127Y-124220843D01*
X133095463Y-124198234D01*
X133092044Y-124175179D01*
X133090900Y-124151900D01*
X133090900Y-123576900D01*
X133092044Y-123553621D01*
X133095463Y-123530566D01*
X133101127Y-123507957D01*
X133108979Y-123486013D01*
X133118944Y-123464943D01*
X133130926Y-123444952D01*
X133144810Y-123426232D01*
X133160462Y-123408962D01*
X133177732Y-123393310D01*
X133196452Y-123379426D01*
X133216443Y-123367444D01*
X133237513Y-123357479D01*
X133259457Y-123349627D01*
X133282066Y-123343963D01*
X133305121Y-123340544D01*
X133328400Y-123339400D01*
X133803400Y-123339400D01*
X133826679Y-123340544D01*
X133826679Y-123340544D01*
G37*
D14*
X133565900Y-123864400D03*
D13*
G36*
X133826679Y-125090544D02*
G01*
X133849734Y-125093963D01*
X133872343Y-125099627D01*
X133894287Y-125107479D01*
X133915357Y-125117444D01*
X133935348Y-125129426D01*
X133954068Y-125143310D01*
X133971338Y-125158962D01*
X133986990Y-125176232D01*
X134000874Y-125194952D01*
X134012856Y-125214943D01*
X134022821Y-125236013D01*
X134030673Y-125257957D01*
X134036337Y-125280566D01*
X134039756Y-125303621D01*
X134040900Y-125326900D01*
X134040900Y-125901900D01*
X134039756Y-125925179D01*
X134036337Y-125948234D01*
X134030673Y-125970843D01*
X134022821Y-125992787D01*
X134012856Y-126013857D01*
X134000874Y-126033848D01*
X133986990Y-126052568D01*
X133971338Y-126069838D01*
X133954068Y-126085490D01*
X133935348Y-126099374D01*
X133915357Y-126111356D01*
X133894287Y-126121321D01*
X133872343Y-126129173D01*
X133849734Y-126134837D01*
X133826679Y-126138256D01*
X133803400Y-126139400D01*
X133328400Y-126139400D01*
X133305121Y-126138256D01*
X133282066Y-126134837D01*
X133259457Y-126129173D01*
X133237513Y-126121321D01*
X133216443Y-126111356D01*
X133196452Y-126099374D01*
X133177732Y-126085490D01*
X133160462Y-126069838D01*
X133144810Y-126052568D01*
X133130926Y-126033848D01*
X133118944Y-126013857D01*
X133108979Y-125992787D01*
X133101127Y-125970843D01*
X133095463Y-125948234D01*
X133092044Y-125925179D01*
X133090900Y-125901900D01*
X133090900Y-125326900D01*
X133092044Y-125303621D01*
X133095463Y-125280566D01*
X133101127Y-125257957D01*
X133108979Y-125236013D01*
X133118944Y-125214943D01*
X133130926Y-125194952D01*
X133144810Y-125176232D01*
X133160462Y-125158962D01*
X133177732Y-125143310D01*
X133196452Y-125129426D01*
X133216443Y-125117444D01*
X133237513Y-125107479D01*
X133259457Y-125099627D01*
X133282066Y-125093963D01*
X133305121Y-125090544D01*
X133328400Y-125089400D01*
X133803400Y-125089400D01*
X133826679Y-125090544D01*
X133826679Y-125090544D01*
G37*
D14*
X133565900Y-125614400D03*
D13*
G36*
X133598079Y-130107044D02*
G01*
X133621134Y-130110463D01*
X133643743Y-130116127D01*
X133665687Y-130123979D01*
X133686757Y-130133944D01*
X133706748Y-130145926D01*
X133725468Y-130159810D01*
X133742738Y-130175462D01*
X133758390Y-130192732D01*
X133772274Y-130211452D01*
X133784256Y-130231443D01*
X133794221Y-130252513D01*
X133802073Y-130274457D01*
X133807737Y-130297066D01*
X133811156Y-130320121D01*
X133812300Y-130343400D01*
X133812300Y-130918400D01*
X133811156Y-130941679D01*
X133807737Y-130964734D01*
X133802073Y-130987343D01*
X133794221Y-131009287D01*
X133784256Y-131030357D01*
X133772274Y-131050348D01*
X133758390Y-131069068D01*
X133742738Y-131086338D01*
X133725468Y-131101990D01*
X133706748Y-131115874D01*
X133686757Y-131127856D01*
X133665687Y-131137821D01*
X133643743Y-131145673D01*
X133621134Y-131151337D01*
X133598079Y-131154756D01*
X133574800Y-131155900D01*
X133099800Y-131155900D01*
X133076521Y-131154756D01*
X133053466Y-131151337D01*
X133030857Y-131145673D01*
X133008913Y-131137821D01*
X132987843Y-131127856D01*
X132967852Y-131115874D01*
X132949132Y-131101990D01*
X132931862Y-131086338D01*
X132916210Y-131069068D01*
X132902326Y-131050348D01*
X132890344Y-131030357D01*
X132880379Y-131009287D01*
X132872527Y-130987343D01*
X132866863Y-130964734D01*
X132863444Y-130941679D01*
X132862300Y-130918400D01*
X132862300Y-130343400D01*
X132863444Y-130320121D01*
X132866863Y-130297066D01*
X132872527Y-130274457D01*
X132880379Y-130252513D01*
X132890344Y-130231443D01*
X132902326Y-130211452D01*
X132916210Y-130192732D01*
X132931862Y-130175462D01*
X132949132Y-130159810D01*
X132967852Y-130145926D01*
X132987843Y-130133944D01*
X133008913Y-130123979D01*
X133030857Y-130116127D01*
X133053466Y-130110463D01*
X133076521Y-130107044D01*
X133099800Y-130105900D01*
X133574800Y-130105900D01*
X133598079Y-130107044D01*
X133598079Y-130107044D01*
G37*
D14*
X133337300Y-130630900D03*
D13*
G36*
X133598079Y-128357044D02*
G01*
X133621134Y-128360463D01*
X133643743Y-128366127D01*
X133665687Y-128373979D01*
X133686757Y-128383944D01*
X133706748Y-128395926D01*
X133725468Y-128409810D01*
X133742738Y-128425462D01*
X133758390Y-128442732D01*
X133772274Y-128461452D01*
X133784256Y-128481443D01*
X133794221Y-128502513D01*
X133802073Y-128524457D01*
X133807737Y-128547066D01*
X133811156Y-128570121D01*
X133812300Y-128593400D01*
X133812300Y-129168400D01*
X133811156Y-129191679D01*
X133807737Y-129214734D01*
X133802073Y-129237343D01*
X133794221Y-129259287D01*
X133784256Y-129280357D01*
X133772274Y-129300348D01*
X133758390Y-129319068D01*
X133742738Y-129336338D01*
X133725468Y-129351990D01*
X133706748Y-129365874D01*
X133686757Y-129377856D01*
X133665687Y-129387821D01*
X133643743Y-129395673D01*
X133621134Y-129401337D01*
X133598079Y-129404756D01*
X133574800Y-129405900D01*
X133099800Y-129405900D01*
X133076521Y-129404756D01*
X133053466Y-129401337D01*
X133030857Y-129395673D01*
X133008913Y-129387821D01*
X132987843Y-129377856D01*
X132967852Y-129365874D01*
X132949132Y-129351990D01*
X132931862Y-129336338D01*
X132916210Y-129319068D01*
X132902326Y-129300348D01*
X132890344Y-129280357D01*
X132880379Y-129259287D01*
X132872527Y-129237343D01*
X132866863Y-129214734D01*
X132863444Y-129191679D01*
X132862300Y-129168400D01*
X132862300Y-128593400D01*
X132863444Y-128570121D01*
X132866863Y-128547066D01*
X132872527Y-128524457D01*
X132880379Y-128502513D01*
X132890344Y-128481443D01*
X132902326Y-128461452D01*
X132916210Y-128442732D01*
X132931862Y-128425462D01*
X132949132Y-128409810D01*
X132967852Y-128395926D01*
X132987843Y-128383944D01*
X133008913Y-128373979D01*
X133030857Y-128366127D01*
X133053466Y-128360463D01*
X133076521Y-128357044D01*
X133099800Y-128355900D01*
X133574800Y-128355900D01*
X133598079Y-128357044D01*
X133598079Y-128357044D01*
G37*
D14*
X133337300Y-128880900D03*
D13*
G36*
X151378079Y-123378644D02*
G01*
X151401134Y-123382063D01*
X151423743Y-123387727D01*
X151445687Y-123395579D01*
X151466757Y-123405544D01*
X151486748Y-123417526D01*
X151505468Y-123431410D01*
X151522738Y-123447062D01*
X151538390Y-123464332D01*
X151552274Y-123483052D01*
X151564256Y-123503043D01*
X151574221Y-123524113D01*
X151582073Y-123546057D01*
X151587737Y-123568666D01*
X151591156Y-123591721D01*
X151592300Y-123615000D01*
X151592300Y-124190000D01*
X151591156Y-124213279D01*
X151587737Y-124236334D01*
X151582073Y-124258943D01*
X151574221Y-124280887D01*
X151564256Y-124301957D01*
X151552274Y-124321948D01*
X151538390Y-124340668D01*
X151522738Y-124357938D01*
X151505468Y-124373590D01*
X151486748Y-124387474D01*
X151466757Y-124399456D01*
X151445687Y-124409421D01*
X151423743Y-124417273D01*
X151401134Y-124422937D01*
X151378079Y-124426356D01*
X151354800Y-124427500D01*
X150879800Y-124427500D01*
X150856521Y-124426356D01*
X150833466Y-124422937D01*
X150810857Y-124417273D01*
X150788913Y-124409421D01*
X150767843Y-124399456D01*
X150747852Y-124387474D01*
X150729132Y-124373590D01*
X150711862Y-124357938D01*
X150696210Y-124340668D01*
X150682326Y-124321948D01*
X150670344Y-124301957D01*
X150660379Y-124280887D01*
X150652527Y-124258943D01*
X150646863Y-124236334D01*
X150643444Y-124213279D01*
X150642300Y-124190000D01*
X150642300Y-123615000D01*
X150643444Y-123591721D01*
X150646863Y-123568666D01*
X150652527Y-123546057D01*
X150660379Y-123524113D01*
X150670344Y-123503043D01*
X150682326Y-123483052D01*
X150696210Y-123464332D01*
X150711862Y-123447062D01*
X150729132Y-123431410D01*
X150747852Y-123417526D01*
X150767843Y-123405544D01*
X150788913Y-123395579D01*
X150810857Y-123387727D01*
X150833466Y-123382063D01*
X150856521Y-123378644D01*
X150879800Y-123377500D01*
X151354800Y-123377500D01*
X151378079Y-123378644D01*
X151378079Y-123378644D01*
G37*
D14*
X151117300Y-123902500D03*
D13*
G36*
X151378079Y-125128644D02*
G01*
X151401134Y-125132063D01*
X151423743Y-125137727D01*
X151445687Y-125145579D01*
X151466757Y-125155544D01*
X151486748Y-125167526D01*
X151505468Y-125181410D01*
X151522738Y-125197062D01*
X151538390Y-125214332D01*
X151552274Y-125233052D01*
X151564256Y-125253043D01*
X151574221Y-125274113D01*
X151582073Y-125296057D01*
X151587737Y-125318666D01*
X151591156Y-125341721D01*
X151592300Y-125365000D01*
X151592300Y-125940000D01*
X151591156Y-125963279D01*
X151587737Y-125986334D01*
X151582073Y-126008943D01*
X151574221Y-126030887D01*
X151564256Y-126051957D01*
X151552274Y-126071948D01*
X151538390Y-126090668D01*
X151522738Y-126107938D01*
X151505468Y-126123590D01*
X151486748Y-126137474D01*
X151466757Y-126149456D01*
X151445687Y-126159421D01*
X151423743Y-126167273D01*
X151401134Y-126172937D01*
X151378079Y-126176356D01*
X151354800Y-126177500D01*
X150879800Y-126177500D01*
X150856521Y-126176356D01*
X150833466Y-126172937D01*
X150810857Y-126167273D01*
X150788913Y-126159421D01*
X150767843Y-126149456D01*
X150747852Y-126137474D01*
X150729132Y-126123590D01*
X150711862Y-126107938D01*
X150696210Y-126090668D01*
X150682326Y-126071948D01*
X150670344Y-126051957D01*
X150660379Y-126030887D01*
X150652527Y-126008943D01*
X150646863Y-125986334D01*
X150643444Y-125963279D01*
X150642300Y-125940000D01*
X150642300Y-125365000D01*
X150643444Y-125341721D01*
X150646863Y-125318666D01*
X150652527Y-125296057D01*
X150660379Y-125274113D01*
X150670344Y-125253043D01*
X150682326Y-125233052D01*
X150696210Y-125214332D01*
X150711862Y-125197062D01*
X150729132Y-125181410D01*
X150747852Y-125167526D01*
X150767843Y-125155544D01*
X150788913Y-125145579D01*
X150810857Y-125137727D01*
X150833466Y-125132063D01*
X150856521Y-125128644D01*
X150879800Y-125127500D01*
X151354800Y-125127500D01*
X151378079Y-125128644D01*
X151378079Y-125128644D01*
G37*
D14*
X151117300Y-125652500D03*
D13*
G36*
X135426879Y-135822044D02*
G01*
X135449934Y-135825463D01*
X135472543Y-135831127D01*
X135494487Y-135838979D01*
X135515557Y-135848944D01*
X135535548Y-135860926D01*
X135554268Y-135874810D01*
X135571538Y-135890462D01*
X135587190Y-135907732D01*
X135601074Y-135926452D01*
X135613056Y-135946443D01*
X135623021Y-135967513D01*
X135630873Y-135989457D01*
X135636537Y-136012066D01*
X135639956Y-136035121D01*
X135641100Y-136058400D01*
X135641100Y-136633400D01*
X135639956Y-136656679D01*
X135636537Y-136679734D01*
X135630873Y-136702343D01*
X135623021Y-136724287D01*
X135613056Y-136745357D01*
X135601074Y-136765348D01*
X135587190Y-136784068D01*
X135571538Y-136801338D01*
X135554268Y-136816990D01*
X135535548Y-136830874D01*
X135515557Y-136842856D01*
X135494487Y-136852821D01*
X135472543Y-136860673D01*
X135449934Y-136866337D01*
X135426879Y-136869756D01*
X135403600Y-136870900D01*
X134928600Y-136870900D01*
X134905321Y-136869756D01*
X134882266Y-136866337D01*
X134859657Y-136860673D01*
X134837713Y-136852821D01*
X134816643Y-136842856D01*
X134796652Y-136830874D01*
X134777932Y-136816990D01*
X134760662Y-136801338D01*
X134745010Y-136784068D01*
X134731126Y-136765348D01*
X134719144Y-136745357D01*
X134709179Y-136724287D01*
X134701327Y-136702343D01*
X134695663Y-136679734D01*
X134692244Y-136656679D01*
X134691100Y-136633400D01*
X134691100Y-136058400D01*
X134692244Y-136035121D01*
X134695663Y-136012066D01*
X134701327Y-135989457D01*
X134709179Y-135967513D01*
X134719144Y-135946443D01*
X134731126Y-135926452D01*
X134745010Y-135907732D01*
X134760662Y-135890462D01*
X134777932Y-135874810D01*
X134796652Y-135860926D01*
X134816643Y-135848944D01*
X134837713Y-135838979D01*
X134859657Y-135831127D01*
X134882266Y-135825463D01*
X134905321Y-135822044D01*
X134928600Y-135820900D01*
X135403600Y-135820900D01*
X135426879Y-135822044D01*
X135426879Y-135822044D01*
G37*
D14*
X135166100Y-136345900D03*
D13*
G36*
X135426879Y-134072044D02*
G01*
X135449934Y-134075463D01*
X135472543Y-134081127D01*
X135494487Y-134088979D01*
X135515557Y-134098944D01*
X135535548Y-134110926D01*
X135554268Y-134124810D01*
X135571538Y-134140462D01*
X135587190Y-134157732D01*
X135601074Y-134176452D01*
X135613056Y-134196443D01*
X135623021Y-134217513D01*
X135630873Y-134239457D01*
X135636537Y-134262066D01*
X135639956Y-134285121D01*
X135641100Y-134308400D01*
X135641100Y-134883400D01*
X135639956Y-134906679D01*
X135636537Y-134929734D01*
X135630873Y-134952343D01*
X135623021Y-134974287D01*
X135613056Y-134995357D01*
X135601074Y-135015348D01*
X135587190Y-135034068D01*
X135571538Y-135051338D01*
X135554268Y-135066990D01*
X135535548Y-135080874D01*
X135515557Y-135092856D01*
X135494487Y-135102821D01*
X135472543Y-135110673D01*
X135449934Y-135116337D01*
X135426879Y-135119756D01*
X135403600Y-135120900D01*
X134928600Y-135120900D01*
X134905321Y-135119756D01*
X134882266Y-135116337D01*
X134859657Y-135110673D01*
X134837713Y-135102821D01*
X134816643Y-135092856D01*
X134796652Y-135080874D01*
X134777932Y-135066990D01*
X134760662Y-135051338D01*
X134745010Y-135034068D01*
X134731126Y-135015348D01*
X134719144Y-134995357D01*
X134709179Y-134974287D01*
X134701327Y-134952343D01*
X134695663Y-134929734D01*
X134692244Y-134906679D01*
X134691100Y-134883400D01*
X134691100Y-134308400D01*
X134692244Y-134285121D01*
X134695663Y-134262066D01*
X134701327Y-134239457D01*
X134709179Y-134217513D01*
X134719144Y-134196443D01*
X134731126Y-134176452D01*
X134745010Y-134157732D01*
X134760662Y-134140462D01*
X134777932Y-134124810D01*
X134796652Y-134110926D01*
X134816643Y-134098944D01*
X134837713Y-134088979D01*
X134859657Y-134081127D01*
X134882266Y-134075463D01*
X134905321Y-134072044D01*
X134928600Y-134070900D01*
X135403600Y-134070900D01*
X135426879Y-134072044D01*
X135426879Y-134072044D01*
G37*
D14*
X135166100Y-134595900D03*
D13*
G36*
X135617379Y-123353244D02*
G01*
X135640434Y-123356663D01*
X135663043Y-123362327D01*
X135684987Y-123370179D01*
X135706057Y-123380144D01*
X135726048Y-123392126D01*
X135744768Y-123406010D01*
X135762038Y-123421662D01*
X135777690Y-123438932D01*
X135791574Y-123457652D01*
X135803556Y-123477643D01*
X135813521Y-123498713D01*
X135821373Y-123520657D01*
X135827037Y-123543266D01*
X135830456Y-123566321D01*
X135831600Y-123589600D01*
X135831600Y-124164600D01*
X135830456Y-124187879D01*
X135827037Y-124210934D01*
X135821373Y-124233543D01*
X135813521Y-124255487D01*
X135803556Y-124276557D01*
X135791574Y-124296548D01*
X135777690Y-124315268D01*
X135762038Y-124332538D01*
X135744768Y-124348190D01*
X135726048Y-124362074D01*
X135706057Y-124374056D01*
X135684987Y-124384021D01*
X135663043Y-124391873D01*
X135640434Y-124397537D01*
X135617379Y-124400956D01*
X135594100Y-124402100D01*
X135119100Y-124402100D01*
X135095821Y-124400956D01*
X135072766Y-124397537D01*
X135050157Y-124391873D01*
X135028213Y-124384021D01*
X135007143Y-124374056D01*
X134987152Y-124362074D01*
X134968432Y-124348190D01*
X134951162Y-124332538D01*
X134935510Y-124315268D01*
X134921626Y-124296548D01*
X134909644Y-124276557D01*
X134899679Y-124255487D01*
X134891827Y-124233543D01*
X134886163Y-124210934D01*
X134882744Y-124187879D01*
X134881600Y-124164600D01*
X134881600Y-123589600D01*
X134882744Y-123566321D01*
X134886163Y-123543266D01*
X134891827Y-123520657D01*
X134899679Y-123498713D01*
X134909644Y-123477643D01*
X134921626Y-123457652D01*
X134935510Y-123438932D01*
X134951162Y-123421662D01*
X134968432Y-123406010D01*
X134987152Y-123392126D01*
X135007143Y-123380144D01*
X135028213Y-123370179D01*
X135050157Y-123362327D01*
X135072766Y-123356663D01*
X135095821Y-123353244D01*
X135119100Y-123352100D01*
X135594100Y-123352100D01*
X135617379Y-123353244D01*
X135617379Y-123353244D01*
G37*
D14*
X135356600Y-123877100D03*
D13*
G36*
X135617379Y-125103244D02*
G01*
X135640434Y-125106663D01*
X135663043Y-125112327D01*
X135684987Y-125120179D01*
X135706057Y-125130144D01*
X135726048Y-125142126D01*
X135744768Y-125156010D01*
X135762038Y-125171662D01*
X135777690Y-125188932D01*
X135791574Y-125207652D01*
X135803556Y-125227643D01*
X135813521Y-125248713D01*
X135821373Y-125270657D01*
X135827037Y-125293266D01*
X135830456Y-125316321D01*
X135831600Y-125339600D01*
X135831600Y-125914600D01*
X135830456Y-125937879D01*
X135827037Y-125960934D01*
X135821373Y-125983543D01*
X135813521Y-126005487D01*
X135803556Y-126026557D01*
X135791574Y-126046548D01*
X135777690Y-126065268D01*
X135762038Y-126082538D01*
X135744768Y-126098190D01*
X135726048Y-126112074D01*
X135706057Y-126124056D01*
X135684987Y-126134021D01*
X135663043Y-126141873D01*
X135640434Y-126147537D01*
X135617379Y-126150956D01*
X135594100Y-126152100D01*
X135119100Y-126152100D01*
X135095821Y-126150956D01*
X135072766Y-126147537D01*
X135050157Y-126141873D01*
X135028213Y-126134021D01*
X135007143Y-126124056D01*
X134987152Y-126112074D01*
X134968432Y-126098190D01*
X134951162Y-126082538D01*
X134935510Y-126065268D01*
X134921626Y-126046548D01*
X134909644Y-126026557D01*
X134899679Y-126005487D01*
X134891827Y-125983543D01*
X134886163Y-125960934D01*
X134882744Y-125937879D01*
X134881600Y-125914600D01*
X134881600Y-125339600D01*
X134882744Y-125316321D01*
X134886163Y-125293266D01*
X134891827Y-125270657D01*
X134899679Y-125248713D01*
X134909644Y-125227643D01*
X134921626Y-125207652D01*
X134935510Y-125188932D01*
X134951162Y-125171662D01*
X134968432Y-125156010D01*
X134987152Y-125142126D01*
X135007143Y-125130144D01*
X135028213Y-125120179D01*
X135050157Y-125112327D01*
X135072766Y-125106663D01*
X135095821Y-125103244D01*
X135119100Y-125102100D01*
X135594100Y-125102100D01*
X135617379Y-125103244D01*
X135617379Y-125103244D01*
G37*
D14*
X135356600Y-125627100D03*
D13*
G36*
X135388779Y-130094344D02*
G01*
X135411834Y-130097763D01*
X135434443Y-130103427D01*
X135456387Y-130111279D01*
X135477457Y-130121244D01*
X135497448Y-130133226D01*
X135516168Y-130147110D01*
X135533438Y-130162762D01*
X135549090Y-130180032D01*
X135562974Y-130198752D01*
X135574956Y-130218743D01*
X135584921Y-130239813D01*
X135592773Y-130261757D01*
X135598437Y-130284366D01*
X135601856Y-130307421D01*
X135603000Y-130330700D01*
X135603000Y-130905700D01*
X135601856Y-130928979D01*
X135598437Y-130952034D01*
X135592773Y-130974643D01*
X135584921Y-130996587D01*
X135574956Y-131017657D01*
X135562974Y-131037648D01*
X135549090Y-131056368D01*
X135533438Y-131073638D01*
X135516168Y-131089290D01*
X135497448Y-131103174D01*
X135477457Y-131115156D01*
X135456387Y-131125121D01*
X135434443Y-131132973D01*
X135411834Y-131138637D01*
X135388779Y-131142056D01*
X135365500Y-131143200D01*
X134890500Y-131143200D01*
X134867221Y-131142056D01*
X134844166Y-131138637D01*
X134821557Y-131132973D01*
X134799613Y-131125121D01*
X134778543Y-131115156D01*
X134758552Y-131103174D01*
X134739832Y-131089290D01*
X134722562Y-131073638D01*
X134706910Y-131056368D01*
X134693026Y-131037648D01*
X134681044Y-131017657D01*
X134671079Y-130996587D01*
X134663227Y-130974643D01*
X134657563Y-130952034D01*
X134654144Y-130928979D01*
X134653000Y-130905700D01*
X134653000Y-130330700D01*
X134654144Y-130307421D01*
X134657563Y-130284366D01*
X134663227Y-130261757D01*
X134671079Y-130239813D01*
X134681044Y-130218743D01*
X134693026Y-130198752D01*
X134706910Y-130180032D01*
X134722562Y-130162762D01*
X134739832Y-130147110D01*
X134758552Y-130133226D01*
X134778543Y-130121244D01*
X134799613Y-130111279D01*
X134821557Y-130103427D01*
X134844166Y-130097763D01*
X134867221Y-130094344D01*
X134890500Y-130093200D01*
X135365500Y-130093200D01*
X135388779Y-130094344D01*
X135388779Y-130094344D01*
G37*
D14*
X135128000Y-130618200D03*
D13*
G36*
X135388779Y-128344344D02*
G01*
X135411834Y-128347763D01*
X135434443Y-128353427D01*
X135456387Y-128361279D01*
X135477457Y-128371244D01*
X135497448Y-128383226D01*
X135516168Y-128397110D01*
X135533438Y-128412762D01*
X135549090Y-128430032D01*
X135562974Y-128448752D01*
X135574956Y-128468743D01*
X135584921Y-128489813D01*
X135592773Y-128511757D01*
X135598437Y-128534366D01*
X135601856Y-128557421D01*
X135603000Y-128580700D01*
X135603000Y-129155700D01*
X135601856Y-129178979D01*
X135598437Y-129202034D01*
X135592773Y-129224643D01*
X135584921Y-129246587D01*
X135574956Y-129267657D01*
X135562974Y-129287648D01*
X135549090Y-129306368D01*
X135533438Y-129323638D01*
X135516168Y-129339290D01*
X135497448Y-129353174D01*
X135477457Y-129365156D01*
X135456387Y-129375121D01*
X135434443Y-129382973D01*
X135411834Y-129388637D01*
X135388779Y-129392056D01*
X135365500Y-129393200D01*
X134890500Y-129393200D01*
X134867221Y-129392056D01*
X134844166Y-129388637D01*
X134821557Y-129382973D01*
X134799613Y-129375121D01*
X134778543Y-129365156D01*
X134758552Y-129353174D01*
X134739832Y-129339290D01*
X134722562Y-129323638D01*
X134706910Y-129306368D01*
X134693026Y-129287648D01*
X134681044Y-129267657D01*
X134671079Y-129246587D01*
X134663227Y-129224643D01*
X134657563Y-129202034D01*
X134654144Y-129178979D01*
X134653000Y-129155700D01*
X134653000Y-128580700D01*
X134654144Y-128557421D01*
X134657563Y-128534366D01*
X134663227Y-128511757D01*
X134671079Y-128489813D01*
X134681044Y-128468743D01*
X134693026Y-128448752D01*
X134706910Y-128430032D01*
X134722562Y-128412762D01*
X134739832Y-128397110D01*
X134758552Y-128383226D01*
X134778543Y-128371244D01*
X134799613Y-128361279D01*
X134821557Y-128353427D01*
X134844166Y-128347763D01*
X134867221Y-128344344D01*
X134890500Y-128343200D01*
X135365500Y-128343200D01*
X135388779Y-128344344D01*
X135388779Y-128344344D01*
G37*
D14*
X135128000Y-128868200D03*
D13*
G36*
X149663579Y-123353244D02*
G01*
X149686634Y-123356663D01*
X149709243Y-123362327D01*
X149731187Y-123370179D01*
X149752257Y-123380144D01*
X149772248Y-123392126D01*
X149790968Y-123406010D01*
X149808238Y-123421662D01*
X149823890Y-123438932D01*
X149837774Y-123457652D01*
X149849756Y-123477643D01*
X149859721Y-123498713D01*
X149867573Y-123520657D01*
X149873237Y-123543266D01*
X149876656Y-123566321D01*
X149877800Y-123589600D01*
X149877800Y-124164600D01*
X149876656Y-124187879D01*
X149873237Y-124210934D01*
X149867573Y-124233543D01*
X149859721Y-124255487D01*
X149849756Y-124276557D01*
X149837774Y-124296548D01*
X149823890Y-124315268D01*
X149808238Y-124332538D01*
X149790968Y-124348190D01*
X149772248Y-124362074D01*
X149752257Y-124374056D01*
X149731187Y-124384021D01*
X149709243Y-124391873D01*
X149686634Y-124397537D01*
X149663579Y-124400956D01*
X149640300Y-124402100D01*
X149165300Y-124402100D01*
X149142021Y-124400956D01*
X149118966Y-124397537D01*
X149096357Y-124391873D01*
X149074413Y-124384021D01*
X149053343Y-124374056D01*
X149033352Y-124362074D01*
X149014632Y-124348190D01*
X148997362Y-124332538D01*
X148981710Y-124315268D01*
X148967826Y-124296548D01*
X148955844Y-124276557D01*
X148945879Y-124255487D01*
X148938027Y-124233543D01*
X148932363Y-124210934D01*
X148928944Y-124187879D01*
X148927800Y-124164600D01*
X148927800Y-123589600D01*
X148928944Y-123566321D01*
X148932363Y-123543266D01*
X148938027Y-123520657D01*
X148945879Y-123498713D01*
X148955844Y-123477643D01*
X148967826Y-123457652D01*
X148981710Y-123438932D01*
X148997362Y-123421662D01*
X149014632Y-123406010D01*
X149033352Y-123392126D01*
X149053343Y-123380144D01*
X149074413Y-123370179D01*
X149096357Y-123362327D01*
X149118966Y-123356663D01*
X149142021Y-123353244D01*
X149165300Y-123352100D01*
X149640300Y-123352100D01*
X149663579Y-123353244D01*
X149663579Y-123353244D01*
G37*
D14*
X149402800Y-123877100D03*
D13*
G36*
X149663579Y-125103244D02*
G01*
X149686634Y-125106663D01*
X149709243Y-125112327D01*
X149731187Y-125120179D01*
X149752257Y-125130144D01*
X149772248Y-125142126D01*
X149790968Y-125156010D01*
X149808238Y-125171662D01*
X149823890Y-125188932D01*
X149837774Y-125207652D01*
X149849756Y-125227643D01*
X149859721Y-125248713D01*
X149867573Y-125270657D01*
X149873237Y-125293266D01*
X149876656Y-125316321D01*
X149877800Y-125339600D01*
X149877800Y-125914600D01*
X149876656Y-125937879D01*
X149873237Y-125960934D01*
X149867573Y-125983543D01*
X149859721Y-126005487D01*
X149849756Y-126026557D01*
X149837774Y-126046548D01*
X149823890Y-126065268D01*
X149808238Y-126082538D01*
X149790968Y-126098190D01*
X149772248Y-126112074D01*
X149752257Y-126124056D01*
X149731187Y-126134021D01*
X149709243Y-126141873D01*
X149686634Y-126147537D01*
X149663579Y-126150956D01*
X149640300Y-126152100D01*
X149165300Y-126152100D01*
X149142021Y-126150956D01*
X149118966Y-126147537D01*
X149096357Y-126141873D01*
X149074413Y-126134021D01*
X149053343Y-126124056D01*
X149033352Y-126112074D01*
X149014632Y-126098190D01*
X148997362Y-126082538D01*
X148981710Y-126065268D01*
X148967826Y-126046548D01*
X148955844Y-126026557D01*
X148945879Y-126005487D01*
X148938027Y-125983543D01*
X148932363Y-125960934D01*
X148928944Y-125937879D01*
X148927800Y-125914600D01*
X148927800Y-125339600D01*
X148928944Y-125316321D01*
X148932363Y-125293266D01*
X148938027Y-125270657D01*
X148945879Y-125248713D01*
X148955844Y-125227643D01*
X148967826Y-125207652D01*
X148981710Y-125188932D01*
X148997362Y-125171662D01*
X149014632Y-125156010D01*
X149033352Y-125142126D01*
X149053343Y-125130144D01*
X149074413Y-125120179D01*
X149096357Y-125112327D01*
X149118966Y-125106663D01*
X149142021Y-125103244D01*
X149165300Y-125102100D01*
X149640300Y-125102100D01*
X149663579Y-125103244D01*
X149663579Y-125103244D01*
G37*
D14*
X149402800Y-125627100D03*
D13*
G36*
X163341479Y-124280344D02*
G01*
X163364534Y-124283763D01*
X163387143Y-124289427D01*
X163409087Y-124297279D01*
X163430157Y-124307244D01*
X163450148Y-124319226D01*
X163468868Y-124333110D01*
X163486138Y-124348762D01*
X163501790Y-124366032D01*
X163515674Y-124384752D01*
X163527656Y-124404743D01*
X163537621Y-124425813D01*
X163545473Y-124447757D01*
X163551137Y-124470366D01*
X163554556Y-124493421D01*
X163555700Y-124516700D01*
X163555700Y-125091700D01*
X163554556Y-125114979D01*
X163551137Y-125138034D01*
X163545473Y-125160643D01*
X163537621Y-125182587D01*
X163527656Y-125203657D01*
X163515674Y-125223648D01*
X163501790Y-125242368D01*
X163486138Y-125259638D01*
X163468868Y-125275290D01*
X163450148Y-125289174D01*
X163430157Y-125301156D01*
X163409087Y-125311121D01*
X163387143Y-125318973D01*
X163364534Y-125324637D01*
X163341479Y-125328056D01*
X163318200Y-125329200D01*
X162843200Y-125329200D01*
X162819921Y-125328056D01*
X162796866Y-125324637D01*
X162774257Y-125318973D01*
X162752313Y-125311121D01*
X162731243Y-125301156D01*
X162711252Y-125289174D01*
X162692532Y-125275290D01*
X162675262Y-125259638D01*
X162659610Y-125242368D01*
X162645726Y-125223648D01*
X162633744Y-125203657D01*
X162623779Y-125182587D01*
X162615927Y-125160643D01*
X162610263Y-125138034D01*
X162606844Y-125114979D01*
X162605700Y-125091700D01*
X162605700Y-124516700D01*
X162606844Y-124493421D01*
X162610263Y-124470366D01*
X162615927Y-124447757D01*
X162623779Y-124425813D01*
X162633744Y-124404743D01*
X162645726Y-124384752D01*
X162659610Y-124366032D01*
X162675262Y-124348762D01*
X162692532Y-124333110D01*
X162711252Y-124319226D01*
X162731243Y-124307244D01*
X162752313Y-124297279D01*
X162774257Y-124289427D01*
X162796866Y-124283763D01*
X162819921Y-124280344D01*
X162843200Y-124279200D01*
X163318200Y-124279200D01*
X163341479Y-124280344D01*
X163341479Y-124280344D01*
G37*
D14*
X163080700Y-124804200D03*
D13*
G36*
X163341479Y-126030344D02*
G01*
X163364534Y-126033763D01*
X163387143Y-126039427D01*
X163409087Y-126047279D01*
X163430157Y-126057244D01*
X163450148Y-126069226D01*
X163468868Y-126083110D01*
X163486138Y-126098762D01*
X163501790Y-126116032D01*
X163515674Y-126134752D01*
X163527656Y-126154743D01*
X163537621Y-126175813D01*
X163545473Y-126197757D01*
X163551137Y-126220366D01*
X163554556Y-126243421D01*
X163555700Y-126266700D01*
X163555700Y-126841700D01*
X163554556Y-126864979D01*
X163551137Y-126888034D01*
X163545473Y-126910643D01*
X163537621Y-126932587D01*
X163527656Y-126953657D01*
X163515674Y-126973648D01*
X163501790Y-126992368D01*
X163486138Y-127009638D01*
X163468868Y-127025290D01*
X163450148Y-127039174D01*
X163430157Y-127051156D01*
X163409087Y-127061121D01*
X163387143Y-127068973D01*
X163364534Y-127074637D01*
X163341479Y-127078056D01*
X163318200Y-127079200D01*
X162843200Y-127079200D01*
X162819921Y-127078056D01*
X162796866Y-127074637D01*
X162774257Y-127068973D01*
X162752313Y-127061121D01*
X162731243Y-127051156D01*
X162711252Y-127039174D01*
X162692532Y-127025290D01*
X162675262Y-127009638D01*
X162659610Y-126992368D01*
X162645726Y-126973648D01*
X162633744Y-126953657D01*
X162623779Y-126932587D01*
X162615927Y-126910643D01*
X162610263Y-126888034D01*
X162606844Y-126864979D01*
X162605700Y-126841700D01*
X162605700Y-126266700D01*
X162606844Y-126243421D01*
X162610263Y-126220366D01*
X162615927Y-126197757D01*
X162623779Y-126175813D01*
X162633744Y-126154743D01*
X162645726Y-126134752D01*
X162659610Y-126116032D01*
X162675262Y-126098762D01*
X162692532Y-126083110D01*
X162711252Y-126069226D01*
X162731243Y-126057244D01*
X162752313Y-126047279D01*
X162774257Y-126039427D01*
X162796866Y-126033763D01*
X162819921Y-126030344D01*
X162843200Y-126029200D01*
X163318200Y-126029200D01*
X163341479Y-126030344D01*
X163341479Y-126030344D01*
G37*
D14*
X163080700Y-126554200D03*
D13*
G36*
X154248279Y-124331144D02*
G01*
X154271334Y-124334563D01*
X154293943Y-124340227D01*
X154315887Y-124348079D01*
X154336957Y-124358044D01*
X154356948Y-124370026D01*
X154375668Y-124383910D01*
X154392938Y-124399562D01*
X154408590Y-124416832D01*
X154422474Y-124435552D01*
X154434456Y-124455543D01*
X154444421Y-124476613D01*
X154452273Y-124498557D01*
X154457937Y-124521166D01*
X154461356Y-124544221D01*
X154462500Y-124567500D01*
X154462500Y-125142500D01*
X154461356Y-125165779D01*
X154457937Y-125188834D01*
X154452273Y-125211443D01*
X154444421Y-125233387D01*
X154434456Y-125254457D01*
X154422474Y-125274448D01*
X154408590Y-125293168D01*
X154392938Y-125310438D01*
X154375668Y-125326090D01*
X154356948Y-125339974D01*
X154336957Y-125351956D01*
X154315887Y-125361921D01*
X154293943Y-125369773D01*
X154271334Y-125375437D01*
X154248279Y-125378856D01*
X154225000Y-125380000D01*
X153750000Y-125380000D01*
X153726721Y-125378856D01*
X153703666Y-125375437D01*
X153681057Y-125369773D01*
X153659113Y-125361921D01*
X153638043Y-125351956D01*
X153618052Y-125339974D01*
X153599332Y-125326090D01*
X153582062Y-125310438D01*
X153566410Y-125293168D01*
X153552526Y-125274448D01*
X153540544Y-125254457D01*
X153530579Y-125233387D01*
X153522727Y-125211443D01*
X153517063Y-125188834D01*
X153513644Y-125165779D01*
X153512500Y-125142500D01*
X153512500Y-124567500D01*
X153513644Y-124544221D01*
X153517063Y-124521166D01*
X153522727Y-124498557D01*
X153530579Y-124476613D01*
X153540544Y-124455543D01*
X153552526Y-124435552D01*
X153566410Y-124416832D01*
X153582062Y-124399562D01*
X153599332Y-124383910D01*
X153618052Y-124370026D01*
X153638043Y-124358044D01*
X153659113Y-124348079D01*
X153681057Y-124340227D01*
X153703666Y-124334563D01*
X153726721Y-124331144D01*
X153750000Y-124330000D01*
X154225000Y-124330000D01*
X154248279Y-124331144D01*
X154248279Y-124331144D01*
G37*
D14*
X153987500Y-124855000D03*
D13*
G36*
X154248279Y-126081144D02*
G01*
X154271334Y-126084563D01*
X154293943Y-126090227D01*
X154315887Y-126098079D01*
X154336957Y-126108044D01*
X154356948Y-126120026D01*
X154375668Y-126133910D01*
X154392938Y-126149562D01*
X154408590Y-126166832D01*
X154422474Y-126185552D01*
X154434456Y-126205543D01*
X154444421Y-126226613D01*
X154452273Y-126248557D01*
X154457937Y-126271166D01*
X154461356Y-126294221D01*
X154462500Y-126317500D01*
X154462500Y-126892500D01*
X154461356Y-126915779D01*
X154457937Y-126938834D01*
X154452273Y-126961443D01*
X154444421Y-126983387D01*
X154434456Y-127004457D01*
X154422474Y-127024448D01*
X154408590Y-127043168D01*
X154392938Y-127060438D01*
X154375668Y-127076090D01*
X154356948Y-127089974D01*
X154336957Y-127101956D01*
X154315887Y-127111921D01*
X154293943Y-127119773D01*
X154271334Y-127125437D01*
X154248279Y-127128856D01*
X154225000Y-127130000D01*
X153750000Y-127130000D01*
X153726721Y-127128856D01*
X153703666Y-127125437D01*
X153681057Y-127119773D01*
X153659113Y-127111921D01*
X153638043Y-127101956D01*
X153618052Y-127089974D01*
X153599332Y-127076090D01*
X153582062Y-127060438D01*
X153566410Y-127043168D01*
X153552526Y-127024448D01*
X153540544Y-127004457D01*
X153530579Y-126983387D01*
X153522727Y-126961443D01*
X153517063Y-126938834D01*
X153513644Y-126915779D01*
X153512500Y-126892500D01*
X153512500Y-126317500D01*
X153513644Y-126294221D01*
X153517063Y-126271166D01*
X153522727Y-126248557D01*
X153530579Y-126226613D01*
X153540544Y-126205543D01*
X153552526Y-126185552D01*
X153566410Y-126166832D01*
X153582062Y-126149562D01*
X153599332Y-126133910D01*
X153618052Y-126120026D01*
X153638043Y-126108044D01*
X153659113Y-126098079D01*
X153681057Y-126090227D01*
X153703666Y-126084563D01*
X153726721Y-126081144D01*
X153750000Y-126080000D01*
X154225000Y-126080000D01*
X154248279Y-126081144D01*
X154248279Y-126081144D01*
G37*
D14*
X153987500Y-126605000D03*
D13*
G36*
X163531979Y-132344844D02*
G01*
X163555034Y-132348263D01*
X163577643Y-132353927D01*
X163599587Y-132361779D01*
X163620657Y-132371744D01*
X163640648Y-132383726D01*
X163659368Y-132397610D01*
X163676638Y-132413262D01*
X163692290Y-132430532D01*
X163706174Y-132449252D01*
X163718156Y-132469243D01*
X163728121Y-132490313D01*
X163735973Y-132512257D01*
X163741637Y-132534866D01*
X163745056Y-132557921D01*
X163746200Y-132581200D01*
X163746200Y-133156200D01*
X163745056Y-133179479D01*
X163741637Y-133202534D01*
X163735973Y-133225143D01*
X163728121Y-133247087D01*
X163718156Y-133268157D01*
X163706174Y-133288148D01*
X163692290Y-133306868D01*
X163676638Y-133324138D01*
X163659368Y-133339790D01*
X163640648Y-133353674D01*
X163620657Y-133365656D01*
X163599587Y-133375621D01*
X163577643Y-133383473D01*
X163555034Y-133389137D01*
X163531979Y-133392556D01*
X163508700Y-133393700D01*
X163033700Y-133393700D01*
X163010421Y-133392556D01*
X162987366Y-133389137D01*
X162964757Y-133383473D01*
X162942813Y-133375621D01*
X162921743Y-133365656D01*
X162901752Y-133353674D01*
X162883032Y-133339790D01*
X162865762Y-133324138D01*
X162850110Y-133306868D01*
X162836226Y-133288148D01*
X162824244Y-133268157D01*
X162814279Y-133247087D01*
X162806427Y-133225143D01*
X162800763Y-133202534D01*
X162797344Y-133179479D01*
X162796200Y-133156200D01*
X162796200Y-132581200D01*
X162797344Y-132557921D01*
X162800763Y-132534866D01*
X162806427Y-132512257D01*
X162814279Y-132490313D01*
X162824244Y-132469243D01*
X162836226Y-132449252D01*
X162850110Y-132430532D01*
X162865762Y-132413262D01*
X162883032Y-132397610D01*
X162901752Y-132383726D01*
X162921743Y-132371744D01*
X162942813Y-132361779D01*
X162964757Y-132353927D01*
X162987366Y-132348263D01*
X163010421Y-132344844D01*
X163033700Y-132343700D01*
X163508700Y-132343700D01*
X163531979Y-132344844D01*
X163531979Y-132344844D01*
G37*
D14*
X163271200Y-132868700D03*
D13*
G36*
X163531979Y-134094844D02*
G01*
X163555034Y-134098263D01*
X163577643Y-134103927D01*
X163599587Y-134111779D01*
X163620657Y-134121744D01*
X163640648Y-134133726D01*
X163659368Y-134147610D01*
X163676638Y-134163262D01*
X163692290Y-134180532D01*
X163706174Y-134199252D01*
X163718156Y-134219243D01*
X163728121Y-134240313D01*
X163735973Y-134262257D01*
X163741637Y-134284866D01*
X163745056Y-134307921D01*
X163746200Y-134331200D01*
X163746200Y-134906200D01*
X163745056Y-134929479D01*
X163741637Y-134952534D01*
X163735973Y-134975143D01*
X163728121Y-134997087D01*
X163718156Y-135018157D01*
X163706174Y-135038148D01*
X163692290Y-135056868D01*
X163676638Y-135074138D01*
X163659368Y-135089790D01*
X163640648Y-135103674D01*
X163620657Y-135115656D01*
X163599587Y-135125621D01*
X163577643Y-135133473D01*
X163555034Y-135139137D01*
X163531979Y-135142556D01*
X163508700Y-135143700D01*
X163033700Y-135143700D01*
X163010421Y-135142556D01*
X162987366Y-135139137D01*
X162964757Y-135133473D01*
X162942813Y-135125621D01*
X162921743Y-135115656D01*
X162901752Y-135103674D01*
X162883032Y-135089790D01*
X162865762Y-135074138D01*
X162850110Y-135056868D01*
X162836226Y-135038148D01*
X162824244Y-135018157D01*
X162814279Y-134997087D01*
X162806427Y-134975143D01*
X162800763Y-134952534D01*
X162797344Y-134929479D01*
X162796200Y-134906200D01*
X162796200Y-134331200D01*
X162797344Y-134307921D01*
X162800763Y-134284866D01*
X162806427Y-134262257D01*
X162814279Y-134240313D01*
X162824244Y-134219243D01*
X162836226Y-134199252D01*
X162850110Y-134180532D01*
X162865762Y-134163262D01*
X162883032Y-134147610D01*
X162901752Y-134133726D01*
X162921743Y-134121744D01*
X162942813Y-134111779D01*
X162964757Y-134103927D01*
X162987366Y-134098263D01*
X163010421Y-134094844D01*
X163033700Y-134093700D01*
X163508700Y-134093700D01*
X163531979Y-134094844D01*
X163531979Y-134094844D01*
G37*
D14*
X163271200Y-134618700D03*
D13*
G36*
X154362579Y-132370244D02*
G01*
X154385634Y-132373663D01*
X154408243Y-132379327D01*
X154430187Y-132387179D01*
X154451257Y-132397144D01*
X154471248Y-132409126D01*
X154489968Y-132423010D01*
X154507238Y-132438662D01*
X154522890Y-132455932D01*
X154536774Y-132474652D01*
X154548756Y-132494643D01*
X154558721Y-132515713D01*
X154566573Y-132537657D01*
X154572237Y-132560266D01*
X154575656Y-132583321D01*
X154576800Y-132606600D01*
X154576800Y-133181600D01*
X154575656Y-133204879D01*
X154572237Y-133227934D01*
X154566573Y-133250543D01*
X154558721Y-133272487D01*
X154548756Y-133293557D01*
X154536774Y-133313548D01*
X154522890Y-133332268D01*
X154507238Y-133349538D01*
X154489968Y-133365190D01*
X154471248Y-133379074D01*
X154451257Y-133391056D01*
X154430187Y-133401021D01*
X154408243Y-133408873D01*
X154385634Y-133414537D01*
X154362579Y-133417956D01*
X154339300Y-133419100D01*
X153864300Y-133419100D01*
X153841021Y-133417956D01*
X153817966Y-133414537D01*
X153795357Y-133408873D01*
X153773413Y-133401021D01*
X153752343Y-133391056D01*
X153732352Y-133379074D01*
X153713632Y-133365190D01*
X153696362Y-133349538D01*
X153680710Y-133332268D01*
X153666826Y-133313548D01*
X153654844Y-133293557D01*
X153644879Y-133272487D01*
X153637027Y-133250543D01*
X153631363Y-133227934D01*
X153627944Y-133204879D01*
X153626800Y-133181600D01*
X153626800Y-132606600D01*
X153627944Y-132583321D01*
X153631363Y-132560266D01*
X153637027Y-132537657D01*
X153644879Y-132515713D01*
X153654844Y-132494643D01*
X153666826Y-132474652D01*
X153680710Y-132455932D01*
X153696362Y-132438662D01*
X153713632Y-132423010D01*
X153732352Y-132409126D01*
X153752343Y-132397144D01*
X153773413Y-132387179D01*
X153795357Y-132379327D01*
X153817966Y-132373663D01*
X153841021Y-132370244D01*
X153864300Y-132369100D01*
X154339300Y-132369100D01*
X154362579Y-132370244D01*
X154362579Y-132370244D01*
G37*
D14*
X154101800Y-132894100D03*
D13*
G36*
X154362579Y-134120244D02*
G01*
X154385634Y-134123663D01*
X154408243Y-134129327D01*
X154430187Y-134137179D01*
X154451257Y-134147144D01*
X154471248Y-134159126D01*
X154489968Y-134173010D01*
X154507238Y-134188662D01*
X154522890Y-134205932D01*
X154536774Y-134224652D01*
X154548756Y-134244643D01*
X154558721Y-134265713D01*
X154566573Y-134287657D01*
X154572237Y-134310266D01*
X154575656Y-134333321D01*
X154576800Y-134356600D01*
X154576800Y-134931600D01*
X154575656Y-134954879D01*
X154572237Y-134977934D01*
X154566573Y-135000543D01*
X154558721Y-135022487D01*
X154548756Y-135043557D01*
X154536774Y-135063548D01*
X154522890Y-135082268D01*
X154507238Y-135099538D01*
X154489968Y-135115190D01*
X154471248Y-135129074D01*
X154451257Y-135141056D01*
X154430187Y-135151021D01*
X154408243Y-135158873D01*
X154385634Y-135164537D01*
X154362579Y-135167956D01*
X154339300Y-135169100D01*
X153864300Y-135169100D01*
X153841021Y-135167956D01*
X153817966Y-135164537D01*
X153795357Y-135158873D01*
X153773413Y-135151021D01*
X153752343Y-135141056D01*
X153732352Y-135129074D01*
X153713632Y-135115190D01*
X153696362Y-135099538D01*
X153680710Y-135082268D01*
X153666826Y-135063548D01*
X153654844Y-135043557D01*
X153644879Y-135022487D01*
X153637027Y-135000543D01*
X153631363Y-134977934D01*
X153627944Y-134954879D01*
X153626800Y-134931600D01*
X153626800Y-134356600D01*
X153627944Y-134333321D01*
X153631363Y-134310266D01*
X153637027Y-134287657D01*
X153644879Y-134265713D01*
X153654844Y-134244643D01*
X153666826Y-134224652D01*
X153680710Y-134205932D01*
X153696362Y-134188662D01*
X153713632Y-134173010D01*
X153732352Y-134159126D01*
X153752343Y-134147144D01*
X153773413Y-134137179D01*
X153795357Y-134129327D01*
X153817966Y-134123663D01*
X153841021Y-134120244D01*
X153864300Y-134119100D01*
X154339300Y-134119100D01*
X154362579Y-134120244D01*
X154362579Y-134120244D01*
G37*
D14*
X154101800Y-134644100D03*
D15*
X140000000Y-148500000D03*
X142500000Y-148500000D03*
X145000000Y-148500000D03*
X147500000Y-148500000D03*
X150000000Y-148500000D03*
X152500000Y-148500000D03*
D16*
X165500000Y-150000000D03*
X134500000Y-150000000D03*
D15*
X155000000Y-148500000D03*
X157500000Y-148500000D03*
X160000000Y-148500000D03*
X140000000Y-145500000D03*
X142500000Y-145500000D03*
X145000000Y-145500000D03*
X147500000Y-145500000D03*
X150000000Y-145500000D03*
X152500000Y-145500000D03*
X155000000Y-145500000D03*
X157500000Y-145500000D03*
D17*
X160000000Y-145500000D03*
D13*
G36*
X161988503Y-134346122D02*
G01*
X162003064Y-134348282D01*
X162017343Y-134351859D01*
X162031203Y-134356818D01*
X162044510Y-134363112D01*
X162057136Y-134370680D01*
X162068959Y-134379448D01*
X162079866Y-134389334D01*
X162089752Y-134400241D01*
X162098520Y-134412064D01*
X162106088Y-134424690D01*
X162112382Y-134437997D01*
X162117341Y-134451857D01*
X162120918Y-134466136D01*
X162123078Y-134480697D01*
X162123800Y-134495400D01*
X162123800Y-134795400D01*
X162123078Y-134810103D01*
X162120918Y-134824664D01*
X162117341Y-134838943D01*
X162112382Y-134852803D01*
X162106088Y-134866110D01*
X162098520Y-134878736D01*
X162089752Y-134890559D01*
X162079866Y-134901466D01*
X162068959Y-134911352D01*
X162057136Y-134920120D01*
X162044510Y-134927688D01*
X162031203Y-134933982D01*
X162017343Y-134938941D01*
X162003064Y-134942518D01*
X161988503Y-134944678D01*
X161973800Y-134945400D01*
X160323800Y-134945400D01*
X160309097Y-134944678D01*
X160294536Y-134942518D01*
X160280257Y-134938941D01*
X160266397Y-134933982D01*
X160253090Y-134927688D01*
X160240464Y-134920120D01*
X160228641Y-134911352D01*
X160217734Y-134901466D01*
X160207848Y-134890559D01*
X160199080Y-134878736D01*
X160191512Y-134866110D01*
X160185218Y-134852803D01*
X160180259Y-134838943D01*
X160176682Y-134824664D01*
X160174522Y-134810103D01*
X160173800Y-134795400D01*
X160173800Y-134495400D01*
X160174522Y-134480697D01*
X160176682Y-134466136D01*
X160180259Y-134451857D01*
X160185218Y-134437997D01*
X160191512Y-134424690D01*
X160199080Y-134412064D01*
X160207848Y-134400241D01*
X160217734Y-134389334D01*
X160228641Y-134379448D01*
X160240464Y-134370680D01*
X160253090Y-134363112D01*
X160266397Y-134356818D01*
X160280257Y-134351859D01*
X160294536Y-134348282D01*
X160309097Y-134346122D01*
X160323800Y-134345400D01*
X161973800Y-134345400D01*
X161988503Y-134346122D01*
X161988503Y-134346122D01*
G37*
D18*
X161148800Y-134645400D03*
D13*
G36*
X161988503Y-133076122D02*
G01*
X162003064Y-133078282D01*
X162017343Y-133081859D01*
X162031203Y-133086818D01*
X162044510Y-133093112D01*
X162057136Y-133100680D01*
X162068959Y-133109448D01*
X162079866Y-133119334D01*
X162089752Y-133130241D01*
X162098520Y-133142064D01*
X162106088Y-133154690D01*
X162112382Y-133167997D01*
X162117341Y-133181857D01*
X162120918Y-133196136D01*
X162123078Y-133210697D01*
X162123800Y-133225400D01*
X162123800Y-133525400D01*
X162123078Y-133540103D01*
X162120918Y-133554664D01*
X162117341Y-133568943D01*
X162112382Y-133582803D01*
X162106088Y-133596110D01*
X162098520Y-133608736D01*
X162089752Y-133620559D01*
X162079866Y-133631466D01*
X162068959Y-133641352D01*
X162057136Y-133650120D01*
X162044510Y-133657688D01*
X162031203Y-133663982D01*
X162017343Y-133668941D01*
X162003064Y-133672518D01*
X161988503Y-133674678D01*
X161973800Y-133675400D01*
X160323800Y-133675400D01*
X160309097Y-133674678D01*
X160294536Y-133672518D01*
X160280257Y-133668941D01*
X160266397Y-133663982D01*
X160253090Y-133657688D01*
X160240464Y-133650120D01*
X160228641Y-133641352D01*
X160217734Y-133631466D01*
X160207848Y-133620559D01*
X160199080Y-133608736D01*
X160191512Y-133596110D01*
X160185218Y-133582803D01*
X160180259Y-133568943D01*
X160176682Y-133554664D01*
X160174522Y-133540103D01*
X160173800Y-133525400D01*
X160173800Y-133225400D01*
X160174522Y-133210697D01*
X160176682Y-133196136D01*
X160180259Y-133181857D01*
X160185218Y-133167997D01*
X160191512Y-133154690D01*
X160199080Y-133142064D01*
X160207848Y-133130241D01*
X160217734Y-133119334D01*
X160228641Y-133109448D01*
X160240464Y-133100680D01*
X160253090Y-133093112D01*
X160266397Y-133086818D01*
X160280257Y-133081859D01*
X160294536Y-133078282D01*
X160309097Y-133076122D01*
X160323800Y-133075400D01*
X161973800Y-133075400D01*
X161988503Y-133076122D01*
X161988503Y-133076122D01*
G37*
D18*
X161148800Y-133375400D03*
D13*
G36*
X161988503Y-131806122D02*
G01*
X162003064Y-131808282D01*
X162017343Y-131811859D01*
X162031203Y-131816818D01*
X162044510Y-131823112D01*
X162057136Y-131830680D01*
X162068959Y-131839448D01*
X162079866Y-131849334D01*
X162089752Y-131860241D01*
X162098520Y-131872064D01*
X162106088Y-131884690D01*
X162112382Y-131897997D01*
X162117341Y-131911857D01*
X162120918Y-131926136D01*
X162123078Y-131940697D01*
X162123800Y-131955400D01*
X162123800Y-132255400D01*
X162123078Y-132270103D01*
X162120918Y-132284664D01*
X162117341Y-132298943D01*
X162112382Y-132312803D01*
X162106088Y-132326110D01*
X162098520Y-132338736D01*
X162089752Y-132350559D01*
X162079866Y-132361466D01*
X162068959Y-132371352D01*
X162057136Y-132380120D01*
X162044510Y-132387688D01*
X162031203Y-132393982D01*
X162017343Y-132398941D01*
X162003064Y-132402518D01*
X161988503Y-132404678D01*
X161973800Y-132405400D01*
X160323800Y-132405400D01*
X160309097Y-132404678D01*
X160294536Y-132402518D01*
X160280257Y-132398941D01*
X160266397Y-132393982D01*
X160253090Y-132387688D01*
X160240464Y-132380120D01*
X160228641Y-132371352D01*
X160217734Y-132361466D01*
X160207848Y-132350559D01*
X160199080Y-132338736D01*
X160191512Y-132326110D01*
X160185218Y-132312803D01*
X160180259Y-132298943D01*
X160176682Y-132284664D01*
X160174522Y-132270103D01*
X160173800Y-132255400D01*
X160173800Y-131955400D01*
X160174522Y-131940697D01*
X160176682Y-131926136D01*
X160180259Y-131911857D01*
X160185218Y-131897997D01*
X160191512Y-131884690D01*
X160199080Y-131872064D01*
X160207848Y-131860241D01*
X160217734Y-131849334D01*
X160228641Y-131839448D01*
X160240464Y-131830680D01*
X160253090Y-131823112D01*
X160266397Y-131816818D01*
X160280257Y-131811859D01*
X160294536Y-131808282D01*
X160309097Y-131806122D01*
X160323800Y-131805400D01*
X161973800Y-131805400D01*
X161988503Y-131806122D01*
X161988503Y-131806122D01*
G37*
D18*
X161148800Y-132105400D03*
D13*
G36*
X161988503Y-130536122D02*
G01*
X162003064Y-130538282D01*
X162017343Y-130541859D01*
X162031203Y-130546818D01*
X162044510Y-130553112D01*
X162057136Y-130560680D01*
X162068959Y-130569448D01*
X162079866Y-130579334D01*
X162089752Y-130590241D01*
X162098520Y-130602064D01*
X162106088Y-130614690D01*
X162112382Y-130627997D01*
X162117341Y-130641857D01*
X162120918Y-130656136D01*
X162123078Y-130670697D01*
X162123800Y-130685400D01*
X162123800Y-130985400D01*
X162123078Y-131000103D01*
X162120918Y-131014664D01*
X162117341Y-131028943D01*
X162112382Y-131042803D01*
X162106088Y-131056110D01*
X162098520Y-131068736D01*
X162089752Y-131080559D01*
X162079866Y-131091466D01*
X162068959Y-131101352D01*
X162057136Y-131110120D01*
X162044510Y-131117688D01*
X162031203Y-131123982D01*
X162017343Y-131128941D01*
X162003064Y-131132518D01*
X161988503Y-131134678D01*
X161973800Y-131135400D01*
X160323800Y-131135400D01*
X160309097Y-131134678D01*
X160294536Y-131132518D01*
X160280257Y-131128941D01*
X160266397Y-131123982D01*
X160253090Y-131117688D01*
X160240464Y-131110120D01*
X160228641Y-131101352D01*
X160217734Y-131091466D01*
X160207848Y-131080559D01*
X160199080Y-131068736D01*
X160191512Y-131056110D01*
X160185218Y-131042803D01*
X160180259Y-131028943D01*
X160176682Y-131014664D01*
X160174522Y-131000103D01*
X160173800Y-130985400D01*
X160173800Y-130685400D01*
X160174522Y-130670697D01*
X160176682Y-130656136D01*
X160180259Y-130641857D01*
X160185218Y-130627997D01*
X160191512Y-130614690D01*
X160199080Y-130602064D01*
X160207848Y-130590241D01*
X160217734Y-130579334D01*
X160228641Y-130569448D01*
X160240464Y-130560680D01*
X160253090Y-130553112D01*
X160266397Y-130546818D01*
X160280257Y-130541859D01*
X160294536Y-130538282D01*
X160309097Y-130536122D01*
X160323800Y-130535400D01*
X161973800Y-130535400D01*
X161988503Y-130536122D01*
X161988503Y-130536122D01*
G37*
D18*
X161148800Y-130835400D03*
D13*
G36*
X157038503Y-130536122D02*
G01*
X157053064Y-130538282D01*
X157067343Y-130541859D01*
X157081203Y-130546818D01*
X157094510Y-130553112D01*
X157107136Y-130560680D01*
X157118959Y-130569448D01*
X157129866Y-130579334D01*
X157139752Y-130590241D01*
X157148520Y-130602064D01*
X157156088Y-130614690D01*
X157162382Y-130627997D01*
X157167341Y-130641857D01*
X157170918Y-130656136D01*
X157173078Y-130670697D01*
X157173800Y-130685400D01*
X157173800Y-130985400D01*
X157173078Y-131000103D01*
X157170918Y-131014664D01*
X157167341Y-131028943D01*
X157162382Y-131042803D01*
X157156088Y-131056110D01*
X157148520Y-131068736D01*
X157139752Y-131080559D01*
X157129866Y-131091466D01*
X157118959Y-131101352D01*
X157107136Y-131110120D01*
X157094510Y-131117688D01*
X157081203Y-131123982D01*
X157067343Y-131128941D01*
X157053064Y-131132518D01*
X157038503Y-131134678D01*
X157023800Y-131135400D01*
X155373800Y-131135400D01*
X155359097Y-131134678D01*
X155344536Y-131132518D01*
X155330257Y-131128941D01*
X155316397Y-131123982D01*
X155303090Y-131117688D01*
X155290464Y-131110120D01*
X155278641Y-131101352D01*
X155267734Y-131091466D01*
X155257848Y-131080559D01*
X155249080Y-131068736D01*
X155241512Y-131056110D01*
X155235218Y-131042803D01*
X155230259Y-131028943D01*
X155226682Y-131014664D01*
X155224522Y-131000103D01*
X155223800Y-130985400D01*
X155223800Y-130685400D01*
X155224522Y-130670697D01*
X155226682Y-130656136D01*
X155230259Y-130641857D01*
X155235218Y-130627997D01*
X155241512Y-130614690D01*
X155249080Y-130602064D01*
X155257848Y-130590241D01*
X155267734Y-130579334D01*
X155278641Y-130569448D01*
X155290464Y-130560680D01*
X155303090Y-130553112D01*
X155316397Y-130546818D01*
X155330257Y-130541859D01*
X155344536Y-130538282D01*
X155359097Y-130536122D01*
X155373800Y-130535400D01*
X157023800Y-130535400D01*
X157038503Y-130536122D01*
X157038503Y-130536122D01*
G37*
D18*
X156198800Y-130835400D03*
D13*
G36*
X157038503Y-131806122D02*
G01*
X157053064Y-131808282D01*
X157067343Y-131811859D01*
X157081203Y-131816818D01*
X157094510Y-131823112D01*
X157107136Y-131830680D01*
X157118959Y-131839448D01*
X157129866Y-131849334D01*
X157139752Y-131860241D01*
X157148520Y-131872064D01*
X157156088Y-131884690D01*
X157162382Y-131897997D01*
X157167341Y-131911857D01*
X157170918Y-131926136D01*
X157173078Y-131940697D01*
X157173800Y-131955400D01*
X157173800Y-132255400D01*
X157173078Y-132270103D01*
X157170918Y-132284664D01*
X157167341Y-132298943D01*
X157162382Y-132312803D01*
X157156088Y-132326110D01*
X157148520Y-132338736D01*
X157139752Y-132350559D01*
X157129866Y-132361466D01*
X157118959Y-132371352D01*
X157107136Y-132380120D01*
X157094510Y-132387688D01*
X157081203Y-132393982D01*
X157067343Y-132398941D01*
X157053064Y-132402518D01*
X157038503Y-132404678D01*
X157023800Y-132405400D01*
X155373800Y-132405400D01*
X155359097Y-132404678D01*
X155344536Y-132402518D01*
X155330257Y-132398941D01*
X155316397Y-132393982D01*
X155303090Y-132387688D01*
X155290464Y-132380120D01*
X155278641Y-132371352D01*
X155267734Y-132361466D01*
X155257848Y-132350559D01*
X155249080Y-132338736D01*
X155241512Y-132326110D01*
X155235218Y-132312803D01*
X155230259Y-132298943D01*
X155226682Y-132284664D01*
X155224522Y-132270103D01*
X155223800Y-132255400D01*
X155223800Y-131955400D01*
X155224522Y-131940697D01*
X155226682Y-131926136D01*
X155230259Y-131911857D01*
X155235218Y-131897997D01*
X155241512Y-131884690D01*
X155249080Y-131872064D01*
X155257848Y-131860241D01*
X155267734Y-131849334D01*
X155278641Y-131839448D01*
X155290464Y-131830680D01*
X155303090Y-131823112D01*
X155316397Y-131816818D01*
X155330257Y-131811859D01*
X155344536Y-131808282D01*
X155359097Y-131806122D01*
X155373800Y-131805400D01*
X157023800Y-131805400D01*
X157038503Y-131806122D01*
X157038503Y-131806122D01*
G37*
D18*
X156198800Y-132105400D03*
D13*
G36*
X157038503Y-133076122D02*
G01*
X157053064Y-133078282D01*
X157067343Y-133081859D01*
X157081203Y-133086818D01*
X157094510Y-133093112D01*
X157107136Y-133100680D01*
X157118959Y-133109448D01*
X157129866Y-133119334D01*
X157139752Y-133130241D01*
X157148520Y-133142064D01*
X157156088Y-133154690D01*
X157162382Y-133167997D01*
X157167341Y-133181857D01*
X157170918Y-133196136D01*
X157173078Y-133210697D01*
X157173800Y-133225400D01*
X157173800Y-133525400D01*
X157173078Y-133540103D01*
X157170918Y-133554664D01*
X157167341Y-133568943D01*
X157162382Y-133582803D01*
X157156088Y-133596110D01*
X157148520Y-133608736D01*
X157139752Y-133620559D01*
X157129866Y-133631466D01*
X157118959Y-133641352D01*
X157107136Y-133650120D01*
X157094510Y-133657688D01*
X157081203Y-133663982D01*
X157067343Y-133668941D01*
X157053064Y-133672518D01*
X157038503Y-133674678D01*
X157023800Y-133675400D01*
X155373800Y-133675400D01*
X155359097Y-133674678D01*
X155344536Y-133672518D01*
X155330257Y-133668941D01*
X155316397Y-133663982D01*
X155303090Y-133657688D01*
X155290464Y-133650120D01*
X155278641Y-133641352D01*
X155267734Y-133631466D01*
X155257848Y-133620559D01*
X155249080Y-133608736D01*
X155241512Y-133596110D01*
X155235218Y-133582803D01*
X155230259Y-133568943D01*
X155226682Y-133554664D01*
X155224522Y-133540103D01*
X155223800Y-133525400D01*
X155223800Y-133225400D01*
X155224522Y-133210697D01*
X155226682Y-133196136D01*
X155230259Y-133181857D01*
X155235218Y-133167997D01*
X155241512Y-133154690D01*
X155249080Y-133142064D01*
X155257848Y-133130241D01*
X155267734Y-133119334D01*
X155278641Y-133109448D01*
X155290464Y-133100680D01*
X155303090Y-133093112D01*
X155316397Y-133086818D01*
X155330257Y-133081859D01*
X155344536Y-133078282D01*
X155359097Y-133076122D01*
X155373800Y-133075400D01*
X157023800Y-133075400D01*
X157038503Y-133076122D01*
X157038503Y-133076122D01*
G37*
D18*
X156198800Y-133375400D03*
D13*
G36*
X157038503Y-134346122D02*
G01*
X157053064Y-134348282D01*
X157067343Y-134351859D01*
X157081203Y-134356818D01*
X157094510Y-134363112D01*
X157107136Y-134370680D01*
X157118959Y-134379448D01*
X157129866Y-134389334D01*
X157139752Y-134400241D01*
X157148520Y-134412064D01*
X157156088Y-134424690D01*
X157162382Y-134437997D01*
X157167341Y-134451857D01*
X157170918Y-134466136D01*
X157173078Y-134480697D01*
X157173800Y-134495400D01*
X157173800Y-134795400D01*
X157173078Y-134810103D01*
X157170918Y-134824664D01*
X157167341Y-134838943D01*
X157162382Y-134852803D01*
X157156088Y-134866110D01*
X157148520Y-134878736D01*
X157139752Y-134890559D01*
X157129866Y-134901466D01*
X157118959Y-134911352D01*
X157107136Y-134920120D01*
X157094510Y-134927688D01*
X157081203Y-134933982D01*
X157067343Y-134938941D01*
X157053064Y-134942518D01*
X157038503Y-134944678D01*
X157023800Y-134945400D01*
X155373800Y-134945400D01*
X155359097Y-134944678D01*
X155344536Y-134942518D01*
X155330257Y-134938941D01*
X155316397Y-134933982D01*
X155303090Y-134927688D01*
X155290464Y-134920120D01*
X155278641Y-134911352D01*
X155267734Y-134901466D01*
X155257848Y-134890559D01*
X155249080Y-134878736D01*
X155241512Y-134866110D01*
X155235218Y-134852803D01*
X155230259Y-134838943D01*
X155226682Y-134824664D01*
X155224522Y-134810103D01*
X155223800Y-134795400D01*
X155223800Y-134495400D01*
X155224522Y-134480697D01*
X155226682Y-134466136D01*
X155230259Y-134451857D01*
X155235218Y-134437997D01*
X155241512Y-134424690D01*
X155249080Y-134412064D01*
X155257848Y-134400241D01*
X155267734Y-134389334D01*
X155278641Y-134379448D01*
X155290464Y-134370680D01*
X155303090Y-134363112D01*
X155316397Y-134356818D01*
X155330257Y-134351859D01*
X155344536Y-134348282D01*
X155359097Y-134346122D01*
X155373800Y-134345400D01*
X157023800Y-134345400D01*
X157038503Y-134346122D01*
X157038503Y-134346122D01*
G37*
D18*
X156198800Y-134645400D03*
D13*
G36*
X156898803Y-126281622D02*
G01*
X156913364Y-126283782D01*
X156927643Y-126287359D01*
X156941503Y-126292318D01*
X156954810Y-126298612D01*
X156967436Y-126306180D01*
X156979259Y-126314948D01*
X156990166Y-126324834D01*
X157000052Y-126335741D01*
X157008820Y-126347564D01*
X157016388Y-126360190D01*
X157022682Y-126373497D01*
X157027641Y-126387357D01*
X157031218Y-126401636D01*
X157033378Y-126416197D01*
X157034100Y-126430900D01*
X157034100Y-126730900D01*
X157033378Y-126745603D01*
X157031218Y-126760164D01*
X157027641Y-126774443D01*
X157022682Y-126788303D01*
X157016388Y-126801610D01*
X157008820Y-126814236D01*
X157000052Y-126826059D01*
X156990166Y-126836966D01*
X156979259Y-126846852D01*
X156967436Y-126855620D01*
X156954810Y-126863188D01*
X156941503Y-126869482D01*
X156927643Y-126874441D01*
X156913364Y-126878018D01*
X156898803Y-126880178D01*
X156884100Y-126880900D01*
X155234100Y-126880900D01*
X155219397Y-126880178D01*
X155204836Y-126878018D01*
X155190557Y-126874441D01*
X155176697Y-126869482D01*
X155163390Y-126863188D01*
X155150764Y-126855620D01*
X155138941Y-126846852D01*
X155128034Y-126836966D01*
X155118148Y-126826059D01*
X155109380Y-126814236D01*
X155101812Y-126801610D01*
X155095518Y-126788303D01*
X155090559Y-126774443D01*
X155086982Y-126760164D01*
X155084822Y-126745603D01*
X155084100Y-126730900D01*
X155084100Y-126430900D01*
X155084822Y-126416197D01*
X155086982Y-126401636D01*
X155090559Y-126387357D01*
X155095518Y-126373497D01*
X155101812Y-126360190D01*
X155109380Y-126347564D01*
X155118148Y-126335741D01*
X155128034Y-126324834D01*
X155138941Y-126314948D01*
X155150764Y-126306180D01*
X155163390Y-126298612D01*
X155176697Y-126292318D01*
X155190557Y-126287359D01*
X155204836Y-126283782D01*
X155219397Y-126281622D01*
X155234100Y-126280900D01*
X156884100Y-126280900D01*
X156898803Y-126281622D01*
X156898803Y-126281622D01*
G37*
D18*
X156059100Y-126580900D03*
D13*
G36*
X156898803Y-125011622D02*
G01*
X156913364Y-125013782D01*
X156927643Y-125017359D01*
X156941503Y-125022318D01*
X156954810Y-125028612D01*
X156967436Y-125036180D01*
X156979259Y-125044948D01*
X156990166Y-125054834D01*
X157000052Y-125065741D01*
X157008820Y-125077564D01*
X157016388Y-125090190D01*
X157022682Y-125103497D01*
X157027641Y-125117357D01*
X157031218Y-125131636D01*
X157033378Y-125146197D01*
X157034100Y-125160900D01*
X157034100Y-125460900D01*
X157033378Y-125475603D01*
X157031218Y-125490164D01*
X157027641Y-125504443D01*
X157022682Y-125518303D01*
X157016388Y-125531610D01*
X157008820Y-125544236D01*
X157000052Y-125556059D01*
X156990166Y-125566966D01*
X156979259Y-125576852D01*
X156967436Y-125585620D01*
X156954810Y-125593188D01*
X156941503Y-125599482D01*
X156927643Y-125604441D01*
X156913364Y-125608018D01*
X156898803Y-125610178D01*
X156884100Y-125610900D01*
X155234100Y-125610900D01*
X155219397Y-125610178D01*
X155204836Y-125608018D01*
X155190557Y-125604441D01*
X155176697Y-125599482D01*
X155163390Y-125593188D01*
X155150764Y-125585620D01*
X155138941Y-125576852D01*
X155128034Y-125566966D01*
X155118148Y-125556059D01*
X155109380Y-125544236D01*
X155101812Y-125531610D01*
X155095518Y-125518303D01*
X155090559Y-125504443D01*
X155086982Y-125490164D01*
X155084822Y-125475603D01*
X155084100Y-125460900D01*
X155084100Y-125160900D01*
X155084822Y-125146197D01*
X155086982Y-125131636D01*
X155090559Y-125117357D01*
X155095518Y-125103497D01*
X155101812Y-125090190D01*
X155109380Y-125077564D01*
X155118148Y-125065741D01*
X155128034Y-125054834D01*
X155138941Y-125044948D01*
X155150764Y-125036180D01*
X155163390Y-125028612D01*
X155176697Y-125022318D01*
X155190557Y-125017359D01*
X155204836Y-125013782D01*
X155219397Y-125011622D01*
X155234100Y-125010900D01*
X156884100Y-125010900D01*
X156898803Y-125011622D01*
X156898803Y-125011622D01*
G37*
D18*
X156059100Y-125310900D03*
D13*
G36*
X156898803Y-123741622D02*
G01*
X156913364Y-123743782D01*
X156927643Y-123747359D01*
X156941503Y-123752318D01*
X156954810Y-123758612D01*
X156967436Y-123766180D01*
X156979259Y-123774948D01*
X156990166Y-123784834D01*
X157000052Y-123795741D01*
X157008820Y-123807564D01*
X157016388Y-123820190D01*
X157022682Y-123833497D01*
X157027641Y-123847357D01*
X157031218Y-123861636D01*
X157033378Y-123876197D01*
X157034100Y-123890900D01*
X157034100Y-124190900D01*
X157033378Y-124205603D01*
X157031218Y-124220164D01*
X157027641Y-124234443D01*
X157022682Y-124248303D01*
X157016388Y-124261610D01*
X157008820Y-124274236D01*
X157000052Y-124286059D01*
X156990166Y-124296966D01*
X156979259Y-124306852D01*
X156967436Y-124315620D01*
X156954810Y-124323188D01*
X156941503Y-124329482D01*
X156927643Y-124334441D01*
X156913364Y-124338018D01*
X156898803Y-124340178D01*
X156884100Y-124340900D01*
X155234100Y-124340900D01*
X155219397Y-124340178D01*
X155204836Y-124338018D01*
X155190557Y-124334441D01*
X155176697Y-124329482D01*
X155163390Y-124323188D01*
X155150764Y-124315620D01*
X155138941Y-124306852D01*
X155128034Y-124296966D01*
X155118148Y-124286059D01*
X155109380Y-124274236D01*
X155101812Y-124261610D01*
X155095518Y-124248303D01*
X155090559Y-124234443D01*
X155086982Y-124220164D01*
X155084822Y-124205603D01*
X155084100Y-124190900D01*
X155084100Y-123890900D01*
X155084822Y-123876197D01*
X155086982Y-123861636D01*
X155090559Y-123847357D01*
X155095518Y-123833497D01*
X155101812Y-123820190D01*
X155109380Y-123807564D01*
X155118148Y-123795741D01*
X155128034Y-123784834D01*
X155138941Y-123774948D01*
X155150764Y-123766180D01*
X155163390Y-123758612D01*
X155176697Y-123752318D01*
X155190557Y-123747359D01*
X155204836Y-123743782D01*
X155219397Y-123741622D01*
X155234100Y-123740900D01*
X156884100Y-123740900D01*
X156898803Y-123741622D01*
X156898803Y-123741622D01*
G37*
D18*
X156059100Y-124040900D03*
D13*
G36*
X156898803Y-122471622D02*
G01*
X156913364Y-122473782D01*
X156927643Y-122477359D01*
X156941503Y-122482318D01*
X156954810Y-122488612D01*
X156967436Y-122496180D01*
X156979259Y-122504948D01*
X156990166Y-122514834D01*
X157000052Y-122525741D01*
X157008820Y-122537564D01*
X157016388Y-122550190D01*
X157022682Y-122563497D01*
X157027641Y-122577357D01*
X157031218Y-122591636D01*
X157033378Y-122606197D01*
X157034100Y-122620900D01*
X157034100Y-122920900D01*
X157033378Y-122935603D01*
X157031218Y-122950164D01*
X157027641Y-122964443D01*
X157022682Y-122978303D01*
X157016388Y-122991610D01*
X157008820Y-123004236D01*
X157000052Y-123016059D01*
X156990166Y-123026966D01*
X156979259Y-123036852D01*
X156967436Y-123045620D01*
X156954810Y-123053188D01*
X156941503Y-123059482D01*
X156927643Y-123064441D01*
X156913364Y-123068018D01*
X156898803Y-123070178D01*
X156884100Y-123070900D01*
X155234100Y-123070900D01*
X155219397Y-123070178D01*
X155204836Y-123068018D01*
X155190557Y-123064441D01*
X155176697Y-123059482D01*
X155163390Y-123053188D01*
X155150764Y-123045620D01*
X155138941Y-123036852D01*
X155128034Y-123026966D01*
X155118148Y-123016059D01*
X155109380Y-123004236D01*
X155101812Y-122991610D01*
X155095518Y-122978303D01*
X155090559Y-122964443D01*
X155086982Y-122950164D01*
X155084822Y-122935603D01*
X155084100Y-122920900D01*
X155084100Y-122620900D01*
X155084822Y-122606197D01*
X155086982Y-122591636D01*
X155090559Y-122577357D01*
X155095518Y-122563497D01*
X155101812Y-122550190D01*
X155109380Y-122537564D01*
X155118148Y-122525741D01*
X155128034Y-122514834D01*
X155138941Y-122504948D01*
X155150764Y-122496180D01*
X155163390Y-122488612D01*
X155176697Y-122482318D01*
X155190557Y-122477359D01*
X155204836Y-122473782D01*
X155219397Y-122471622D01*
X155234100Y-122470900D01*
X156884100Y-122470900D01*
X156898803Y-122471622D01*
X156898803Y-122471622D01*
G37*
D18*
X156059100Y-122770900D03*
D13*
G36*
X161848803Y-122471622D02*
G01*
X161863364Y-122473782D01*
X161877643Y-122477359D01*
X161891503Y-122482318D01*
X161904810Y-122488612D01*
X161917436Y-122496180D01*
X161929259Y-122504948D01*
X161940166Y-122514834D01*
X161950052Y-122525741D01*
X161958820Y-122537564D01*
X161966388Y-122550190D01*
X161972682Y-122563497D01*
X161977641Y-122577357D01*
X161981218Y-122591636D01*
X161983378Y-122606197D01*
X161984100Y-122620900D01*
X161984100Y-122920900D01*
X161983378Y-122935603D01*
X161981218Y-122950164D01*
X161977641Y-122964443D01*
X161972682Y-122978303D01*
X161966388Y-122991610D01*
X161958820Y-123004236D01*
X161950052Y-123016059D01*
X161940166Y-123026966D01*
X161929259Y-123036852D01*
X161917436Y-123045620D01*
X161904810Y-123053188D01*
X161891503Y-123059482D01*
X161877643Y-123064441D01*
X161863364Y-123068018D01*
X161848803Y-123070178D01*
X161834100Y-123070900D01*
X160184100Y-123070900D01*
X160169397Y-123070178D01*
X160154836Y-123068018D01*
X160140557Y-123064441D01*
X160126697Y-123059482D01*
X160113390Y-123053188D01*
X160100764Y-123045620D01*
X160088941Y-123036852D01*
X160078034Y-123026966D01*
X160068148Y-123016059D01*
X160059380Y-123004236D01*
X160051812Y-122991610D01*
X160045518Y-122978303D01*
X160040559Y-122964443D01*
X160036982Y-122950164D01*
X160034822Y-122935603D01*
X160034100Y-122920900D01*
X160034100Y-122620900D01*
X160034822Y-122606197D01*
X160036982Y-122591636D01*
X160040559Y-122577357D01*
X160045518Y-122563497D01*
X160051812Y-122550190D01*
X160059380Y-122537564D01*
X160068148Y-122525741D01*
X160078034Y-122514834D01*
X160088941Y-122504948D01*
X160100764Y-122496180D01*
X160113390Y-122488612D01*
X160126697Y-122482318D01*
X160140557Y-122477359D01*
X160154836Y-122473782D01*
X160169397Y-122471622D01*
X160184100Y-122470900D01*
X161834100Y-122470900D01*
X161848803Y-122471622D01*
X161848803Y-122471622D01*
G37*
D18*
X161009100Y-122770900D03*
D13*
G36*
X161848803Y-123741622D02*
G01*
X161863364Y-123743782D01*
X161877643Y-123747359D01*
X161891503Y-123752318D01*
X161904810Y-123758612D01*
X161917436Y-123766180D01*
X161929259Y-123774948D01*
X161940166Y-123784834D01*
X161950052Y-123795741D01*
X161958820Y-123807564D01*
X161966388Y-123820190D01*
X161972682Y-123833497D01*
X161977641Y-123847357D01*
X161981218Y-123861636D01*
X161983378Y-123876197D01*
X161984100Y-123890900D01*
X161984100Y-124190900D01*
X161983378Y-124205603D01*
X161981218Y-124220164D01*
X161977641Y-124234443D01*
X161972682Y-124248303D01*
X161966388Y-124261610D01*
X161958820Y-124274236D01*
X161950052Y-124286059D01*
X161940166Y-124296966D01*
X161929259Y-124306852D01*
X161917436Y-124315620D01*
X161904810Y-124323188D01*
X161891503Y-124329482D01*
X161877643Y-124334441D01*
X161863364Y-124338018D01*
X161848803Y-124340178D01*
X161834100Y-124340900D01*
X160184100Y-124340900D01*
X160169397Y-124340178D01*
X160154836Y-124338018D01*
X160140557Y-124334441D01*
X160126697Y-124329482D01*
X160113390Y-124323188D01*
X160100764Y-124315620D01*
X160088941Y-124306852D01*
X160078034Y-124296966D01*
X160068148Y-124286059D01*
X160059380Y-124274236D01*
X160051812Y-124261610D01*
X160045518Y-124248303D01*
X160040559Y-124234443D01*
X160036982Y-124220164D01*
X160034822Y-124205603D01*
X160034100Y-124190900D01*
X160034100Y-123890900D01*
X160034822Y-123876197D01*
X160036982Y-123861636D01*
X160040559Y-123847357D01*
X160045518Y-123833497D01*
X160051812Y-123820190D01*
X160059380Y-123807564D01*
X160068148Y-123795741D01*
X160078034Y-123784834D01*
X160088941Y-123774948D01*
X160100764Y-123766180D01*
X160113390Y-123758612D01*
X160126697Y-123752318D01*
X160140557Y-123747359D01*
X160154836Y-123743782D01*
X160169397Y-123741622D01*
X160184100Y-123740900D01*
X161834100Y-123740900D01*
X161848803Y-123741622D01*
X161848803Y-123741622D01*
G37*
D18*
X161009100Y-124040900D03*
D13*
G36*
X161848803Y-125011622D02*
G01*
X161863364Y-125013782D01*
X161877643Y-125017359D01*
X161891503Y-125022318D01*
X161904810Y-125028612D01*
X161917436Y-125036180D01*
X161929259Y-125044948D01*
X161940166Y-125054834D01*
X161950052Y-125065741D01*
X161958820Y-125077564D01*
X161966388Y-125090190D01*
X161972682Y-125103497D01*
X161977641Y-125117357D01*
X161981218Y-125131636D01*
X161983378Y-125146197D01*
X161984100Y-125160900D01*
X161984100Y-125460900D01*
X161983378Y-125475603D01*
X161981218Y-125490164D01*
X161977641Y-125504443D01*
X161972682Y-125518303D01*
X161966388Y-125531610D01*
X161958820Y-125544236D01*
X161950052Y-125556059D01*
X161940166Y-125566966D01*
X161929259Y-125576852D01*
X161917436Y-125585620D01*
X161904810Y-125593188D01*
X161891503Y-125599482D01*
X161877643Y-125604441D01*
X161863364Y-125608018D01*
X161848803Y-125610178D01*
X161834100Y-125610900D01*
X160184100Y-125610900D01*
X160169397Y-125610178D01*
X160154836Y-125608018D01*
X160140557Y-125604441D01*
X160126697Y-125599482D01*
X160113390Y-125593188D01*
X160100764Y-125585620D01*
X160088941Y-125576852D01*
X160078034Y-125566966D01*
X160068148Y-125556059D01*
X160059380Y-125544236D01*
X160051812Y-125531610D01*
X160045518Y-125518303D01*
X160040559Y-125504443D01*
X160036982Y-125490164D01*
X160034822Y-125475603D01*
X160034100Y-125460900D01*
X160034100Y-125160900D01*
X160034822Y-125146197D01*
X160036982Y-125131636D01*
X160040559Y-125117357D01*
X160045518Y-125103497D01*
X160051812Y-125090190D01*
X160059380Y-125077564D01*
X160068148Y-125065741D01*
X160078034Y-125054834D01*
X160088941Y-125044948D01*
X160100764Y-125036180D01*
X160113390Y-125028612D01*
X160126697Y-125022318D01*
X160140557Y-125017359D01*
X160154836Y-125013782D01*
X160169397Y-125011622D01*
X160184100Y-125010900D01*
X161834100Y-125010900D01*
X161848803Y-125011622D01*
X161848803Y-125011622D01*
G37*
D18*
X161009100Y-125310900D03*
D13*
G36*
X161848803Y-126281622D02*
G01*
X161863364Y-126283782D01*
X161877643Y-126287359D01*
X161891503Y-126292318D01*
X161904810Y-126298612D01*
X161917436Y-126306180D01*
X161929259Y-126314948D01*
X161940166Y-126324834D01*
X161950052Y-126335741D01*
X161958820Y-126347564D01*
X161966388Y-126360190D01*
X161972682Y-126373497D01*
X161977641Y-126387357D01*
X161981218Y-126401636D01*
X161983378Y-126416197D01*
X161984100Y-126430900D01*
X161984100Y-126730900D01*
X161983378Y-126745603D01*
X161981218Y-126760164D01*
X161977641Y-126774443D01*
X161972682Y-126788303D01*
X161966388Y-126801610D01*
X161958820Y-126814236D01*
X161950052Y-126826059D01*
X161940166Y-126836966D01*
X161929259Y-126846852D01*
X161917436Y-126855620D01*
X161904810Y-126863188D01*
X161891503Y-126869482D01*
X161877643Y-126874441D01*
X161863364Y-126878018D01*
X161848803Y-126880178D01*
X161834100Y-126880900D01*
X160184100Y-126880900D01*
X160169397Y-126880178D01*
X160154836Y-126878018D01*
X160140557Y-126874441D01*
X160126697Y-126869482D01*
X160113390Y-126863188D01*
X160100764Y-126855620D01*
X160088941Y-126846852D01*
X160078034Y-126836966D01*
X160068148Y-126826059D01*
X160059380Y-126814236D01*
X160051812Y-126801610D01*
X160045518Y-126788303D01*
X160040559Y-126774443D01*
X160036982Y-126760164D01*
X160034822Y-126745603D01*
X160034100Y-126730900D01*
X160034100Y-126430900D01*
X160034822Y-126416197D01*
X160036982Y-126401636D01*
X160040559Y-126387357D01*
X160045518Y-126373497D01*
X160051812Y-126360190D01*
X160059380Y-126347564D01*
X160068148Y-126335741D01*
X160078034Y-126324834D01*
X160088941Y-126314948D01*
X160100764Y-126306180D01*
X160113390Y-126298612D01*
X160126697Y-126292318D01*
X160140557Y-126287359D01*
X160154836Y-126283782D01*
X160169397Y-126281622D01*
X160184100Y-126280900D01*
X161834100Y-126280900D01*
X161848803Y-126281622D01*
X161848803Y-126281622D01*
G37*
D18*
X161009100Y-126580900D03*
M02*
