G04 #@! TF.GenerationSoftware,KiCad,Pcbnew,(5.1.2)-2*
G04 #@! TF.CreationDate,2020-01-30T13:06:46+01:00*
G04 #@! TF.ProjectId,Pedalbox Extenion Board,50656461-6c62-46f7-9820-457874656e69,rev?*
G04 #@! TF.SameCoordinates,Original*
G04 #@! TF.FileFunction,Legend,Bot*
G04 #@! TF.FilePolarity,Positive*
%FSLAX46Y46*%
G04 Gerber Fmt 4.6, Leading zero omitted, Abs format (unit mm)*
G04 Created by KiCad (PCBNEW (5.1.2)-2) date 2020-01-30 13:06:46*
%MOMM*%
%LPD*%
G04 APERTURE LIST*
%ADD10C,0.300000*%
G04 APERTURE END LIST*
D10*
X164370057Y-122474271D02*
X164370057Y-120974271D01*
X163798628Y-120974271D01*
X163655771Y-121045700D01*
X163584342Y-121117128D01*
X163512914Y-121259985D01*
X163512914Y-121474271D01*
X163584342Y-121617128D01*
X163655771Y-121688557D01*
X163798628Y-121759985D01*
X164370057Y-121759985D01*
X162298628Y-122402842D02*
X162441485Y-122474271D01*
X162727200Y-122474271D01*
X162870057Y-122402842D01*
X162941485Y-122259985D01*
X162941485Y-121688557D01*
X162870057Y-121545700D01*
X162727200Y-121474271D01*
X162441485Y-121474271D01*
X162298628Y-121545700D01*
X162227200Y-121688557D01*
X162227200Y-121831414D01*
X162941485Y-121974271D01*
X160941485Y-122474271D02*
X160941485Y-120974271D01*
X160941485Y-122402842D02*
X161084342Y-122474271D01*
X161370057Y-122474271D01*
X161512914Y-122402842D01*
X161584342Y-122331414D01*
X161655771Y-122188557D01*
X161655771Y-121759985D01*
X161584342Y-121617128D01*
X161512914Y-121545700D01*
X161370057Y-121474271D01*
X161084342Y-121474271D01*
X160941485Y-121545700D01*
X159584342Y-122474271D02*
X159584342Y-121688557D01*
X159655771Y-121545700D01*
X159798628Y-121474271D01*
X160084342Y-121474271D01*
X160227200Y-121545700D01*
X159584342Y-122402842D02*
X159727200Y-122474271D01*
X160084342Y-122474271D01*
X160227200Y-122402842D01*
X160298628Y-122259985D01*
X160298628Y-122117128D01*
X160227200Y-121974271D01*
X160084342Y-121902842D01*
X159727200Y-121902842D01*
X159584342Y-121831414D01*
X158655771Y-122474271D02*
X158798628Y-122402842D01*
X158870057Y-122259985D01*
X158870057Y-120974271D01*
X158084342Y-122474271D02*
X158084342Y-120974271D01*
X158084342Y-121545700D02*
X157941485Y-121474271D01*
X157655771Y-121474271D01*
X157512914Y-121545700D01*
X157441485Y-121617128D01*
X157370057Y-121759985D01*
X157370057Y-122188557D01*
X157441485Y-122331414D01*
X157512914Y-122402842D01*
X157655771Y-122474271D01*
X157941485Y-122474271D01*
X158084342Y-122402842D01*
X156512914Y-122474271D02*
X156655771Y-122402842D01*
X156727200Y-122331414D01*
X156798628Y-122188557D01*
X156798628Y-121759985D01*
X156727200Y-121617128D01*
X156655771Y-121545700D01*
X156512914Y-121474271D01*
X156298628Y-121474271D01*
X156155771Y-121545700D01*
X156084342Y-121617128D01*
X156012914Y-121759985D01*
X156012914Y-122188557D01*
X156084342Y-122331414D01*
X156155771Y-122402842D01*
X156298628Y-122474271D01*
X156512914Y-122474271D01*
X155512914Y-122474271D02*
X154727200Y-121474271D01*
X155512914Y-121474271D02*
X154727200Y-122474271D01*
X153012914Y-121688557D02*
X152512914Y-121688557D01*
X152298628Y-122474271D02*
X153012914Y-122474271D01*
X153012914Y-120974271D01*
X152298628Y-120974271D01*
X151798628Y-122474271D02*
X151012914Y-121474271D01*
X151798628Y-121474271D02*
X151012914Y-122474271D01*
X150655771Y-121474271D02*
X150084342Y-121474271D01*
X150441485Y-120974271D02*
X150441485Y-122259985D01*
X150370057Y-122402842D01*
X150227200Y-122474271D01*
X150084342Y-122474271D01*
X149012914Y-122402842D02*
X149155771Y-122474271D01*
X149441485Y-122474271D01*
X149584342Y-122402842D01*
X149655771Y-122259985D01*
X149655771Y-121688557D01*
X149584342Y-121545700D01*
X149441485Y-121474271D01*
X149155771Y-121474271D01*
X149012914Y-121545700D01*
X148941485Y-121688557D01*
X148941485Y-121831414D01*
X149655771Y-121974271D01*
X148298628Y-121474271D02*
X148298628Y-122474271D01*
X148298628Y-121617128D02*
X148227200Y-121545700D01*
X148084342Y-121474271D01*
X147870057Y-121474271D01*
X147727200Y-121545700D01*
X147655771Y-121688557D01*
X147655771Y-122474271D01*
X147155771Y-121474271D02*
X146584342Y-121474271D01*
X146941485Y-120974271D02*
X146941485Y-122259985D01*
X146870057Y-122402842D01*
X146727200Y-122474271D01*
X146584342Y-122474271D01*
X146084342Y-122474271D02*
X146084342Y-121474271D01*
X146084342Y-120974271D02*
X146155771Y-121045700D01*
X146084342Y-121117128D01*
X146012914Y-121045700D01*
X146084342Y-120974271D01*
X146084342Y-121117128D01*
X145155771Y-122474271D02*
X145298628Y-122402842D01*
X145370057Y-122331414D01*
X145441485Y-122188557D01*
X145441485Y-121759985D01*
X145370057Y-121617128D01*
X145298628Y-121545700D01*
X145155771Y-121474271D01*
X144941485Y-121474271D01*
X144798628Y-121545700D01*
X144727200Y-121617128D01*
X144655771Y-121759985D01*
X144655771Y-122188557D01*
X144727200Y-122331414D01*
X144798628Y-122402842D01*
X144941485Y-122474271D01*
X145155771Y-122474271D01*
X144012914Y-121474271D02*
X144012914Y-122474271D01*
X144012914Y-121617128D02*
X143941485Y-121545700D01*
X143798628Y-121474271D01*
X143584342Y-121474271D01*
X143441485Y-121545700D01*
X143370057Y-121688557D01*
X143370057Y-122474271D01*
X141512914Y-122474271D02*
X141512914Y-120974271D01*
X141512914Y-121545700D02*
X141370057Y-121474271D01*
X141084342Y-121474271D01*
X140941485Y-121545700D01*
X140870057Y-121617128D01*
X140798628Y-121759985D01*
X140798628Y-122188557D01*
X140870057Y-122331414D01*
X140941485Y-122402842D01*
X141084342Y-122474271D01*
X141370057Y-122474271D01*
X141512914Y-122402842D01*
X139941485Y-122474271D02*
X140084342Y-122402842D01*
X140155771Y-122331414D01*
X140227200Y-122188557D01*
X140227200Y-121759985D01*
X140155771Y-121617128D01*
X140084342Y-121545700D01*
X139941485Y-121474271D01*
X139727200Y-121474271D01*
X139584342Y-121545700D01*
X139512914Y-121617128D01*
X139441485Y-121759985D01*
X139441485Y-122188557D01*
X139512914Y-122331414D01*
X139584342Y-122402842D01*
X139727200Y-122474271D01*
X139941485Y-122474271D01*
X138155771Y-122474271D02*
X138155771Y-121688557D01*
X138227200Y-121545700D01*
X138370057Y-121474271D01*
X138655771Y-121474271D01*
X138798628Y-121545700D01*
X138155771Y-122402842D02*
X138298628Y-122474271D01*
X138655771Y-122474271D01*
X138798628Y-122402842D01*
X138870057Y-122259985D01*
X138870057Y-122117128D01*
X138798628Y-121974271D01*
X138655771Y-121902842D01*
X138298628Y-121902842D01*
X138155771Y-121831414D01*
X137441485Y-122474271D02*
X137441485Y-121474271D01*
X137441485Y-121759985D02*
X137370057Y-121617128D01*
X137298628Y-121545700D01*
X137155771Y-121474271D01*
X137012914Y-121474271D01*
X135870057Y-122474271D02*
X135870057Y-120974271D01*
X135870057Y-122402842D02*
X136012914Y-122474271D01*
X136298628Y-122474271D01*
X136441485Y-122402842D01*
X136512914Y-122331414D01*
X136584342Y-122188557D01*
X136584342Y-121759985D01*
X136512914Y-121617128D01*
X136441485Y-121545700D01*
X136298628Y-121474271D01*
X136012914Y-121474271D01*
X135870057Y-121545700D01*
X164370057Y-125024271D02*
X164370057Y-123524271D01*
X163798628Y-123524271D01*
X163655771Y-123595700D01*
X163584342Y-123667128D01*
X163512914Y-123809985D01*
X163512914Y-124024271D01*
X163584342Y-124167128D01*
X163655771Y-124238557D01*
X163798628Y-124309985D01*
X164370057Y-124309985D01*
X162298628Y-124952842D02*
X162441485Y-125024271D01*
X162727200Y-125024271D01*
X162870057Y-124952842D01*
X162941485Y-124809985D01*
X162941485Y-124238557D01*
X162870057Y-124095700D01*
X162727200Y-124024271D01*
X162441485Y-124024271D01*
X162298628Y-124095700D01*
X162227200Y-124238557D01*
X162227200Y-124381414D01*
X162941485Y-124524271D01*
X160941485Y-125024271D02*
X160941485Y-123524271D01*
X160941485Y-124952842D02*
X161084342Y-125024271D01*
X161370057Y-125024271D01*
X161512914Y-124952842D01*
X161584342Y-124881414D01*
X161655771Y-124738557D01*
X161655771Y-124309985D01*
X161584342Y-124167128D01*
X161512914Y-124095700D01*
X161370057Y-124024271D01*
X161084342Y-124024271D01*
X160941485Y-124095700D01*
X159584342Y-125024271D02*
X159584342Y-124238557D01*
X159655771Y-124095700D01*
X159798628Y-124024271D01*
X160084342Y-124024271D01*
X160227200Y-124095700D01*
X159584342Y-124952842D02*
X159727200Y-125024271D01*
X160084342Y-125024271D01*
X160227200Y-124952842D01*
X160298628Y-124809985D01*
X160298628Y-124667128D01*
X160227200Y-124524271D01*
X160084342Y-124452842D01*
X159727200Y-124452842D01*
X159584342Y-124381414D01*
X158655771Y-125024271D02*
X158798628Y-124952842D01*
X158870057Y-124809985D01*
X158870057Y-123524271D01*
X158084342Y-125024271D02*
X158084342Y-123524271D01*
X158084342Y-124095700D02*
X157941485Y-124024271D01*
X157655771Y-124024271D01*
X157512914Y-124095700D01*
X157441485Y-124167128D01*
X157370057Y-124309985D01*
X157370057Y-124738557D01*
X157441485Y-124881414D01*
X157512914Y-124952842D01*
X157655771Y-125024271D01*
X157941485Y-125024271D01*
X158084342Y-124952842D01*
X156512914Y-125024271D02*
X156655771Y-124952842D01*
X156727200Y-124881414D01*
X156798628Y-124738557D01*
X156798628Y-124309985D01*
X156727200Y-124167128D01*
X156655771Y-124095700D01*
X156512914Y-124024271D01*
X156298628Y-124024271D01*
X156155771Y-124095700D01*
X156084342Y-124167128D01*
X156012914Y-124309985D01*
X156012914Y-124738557D01*
X156084342Y-124881414D01*
X156155771Y-124952842D01*
X156298628Y-125024271D01*
X156512914Y-125024271D01*
X155512914Y-125024271D02*
X154727200Y-124024271D01*
X155512914Y-124024271D02*
X154727200Y-125024271D01*
X152512914Y-124238557D02*
X152298628Y-124309985D01*
X152227200Y-124381414D01*
X152155771Y-124524271D01*
X152155771Y-124738557D01*
X152227200Y-124881414D01*
X152298628Y-124952842D01*
X152441485Y-125024271D01*
X153012914Y-125024271D01*
X153012914Y-123524271D01*
X152512914Y-123524271D01*
X152370057Y-123595700D01*
X152298628Y-123667128D01*
X152227200Y-123809985D01*
X152227200Y-123952842D01*
X152298628Y-124095700D01*
X152370057Y-124167128D01*
X152512914Y-124238557D01*
X153012914Y-124238557D01*
X150870057Y-125024271D02*
X150870057Y-124238557D01*
X150941485Y-124095700D01*
X151084342Y-124024271D01*
X151370057Y-124024271D01*
X151512914Y-124095700D01*
X150870057Y-124952842D02*
X151012914Y-125024271D01*
X151370057Y-125024271D01*
X151512914Y-124952842D01*
X151584342Y-124809985D01*
X151584342Y-124667128D01*
X151512914Y-124524271D01*
X151370057Y-124452842D01*
X151012914Y-124452842D01*
X150870057Y-124381414D01*
X149512914Y-124952842D02*
X149655771Y-125024271D01*
X149941485Y-125024271D01*
X150084342Y-124952842D01*
X150155771Y-124881414D01*
X150227200Y-124738557D01*
X150227200Y-124309985D01*
X150155771Y-124167128D01*
X150084342Y-124095700D01*
X149941485Y-124024271D01*
X149655771Y-124024271D01*
X149512914Y-124095700D01*
X148870057Y-125024271D02*
X148870057Y-123524271D01*
X148227200Y-125024271D02*
X148227200Y-124238557D01*
X148298628Y-124095700D01*
X148441485Y-124024271D01*
X148655771Y-124024271D01*
X148798628Y-124095700D01*
X148870057Y-124167128D01*
X146941485Y-124952842D02*
X147084342Y-125024271D01*
X147370057Y-125024271D01*
X147512914Y-124952842D01*
X147584342Y-124809985D01*
X147584342Y-124238557D01*
X147512914Y-124095700D01*
X147370057Y-124024271D01*
X147084342Y-124024271D01*
X146941485Y-124095700D01*
X146870057Y-124238557D01*
X146870057Y-124381414D01*
X147584342Y-124524271D01*
X146012914Y-125024271D02*
X146155771Y-124952842D01*
X146227200Y-124809985D01*
X146227200Y-123524271D01*
X145227200Y-125024271D02*
X145370057Y-124952842D01*
X145441485Y-124881414D01*
X145512914Y-124738557D01*
X145512914Y-124309985D01*
X145441485Y-124167128D01*
X145370057Y-124095700D01*
X145227200Y-124024271D01*
X145012914Y-124024271D01*
X144870057Y-124095700D01*
X144798628Y-124167128D01*
X144727200Y-124309985D01*
X144727200Y-124738557D01*
X144798628Y-124881414D01*
X144870057Y-124952842D01*
X145012914Y-125024271D01*
X145227200Y-125024271D01*
X144084342Y-125024271D02*
X144084342Y-124024271D01*
X144084342Y-124309985D02*
X144012914Y-124167128D01*
X143941485Y-124095700D01*
X143798628Y-124024271D01*
X143655771Y-124024271D01*
X142227200Y-123524271D02*
X141370057Y-123524271D01*
X141798628Y-125024271D02*
X141798628Y-123524271D01*
X140870057Y-125024271D02*
X140870057Y-123524271D01*
X140227200Y-125024271D02*
X140227200Y-124238557D01*
X140298628Y-124095700D01*
X140441485Y-124024271D01*
X140655771Y-124024271D01*
X140798628Y-124095700D01*
X140870057Y-124167128D01*
X138941485Y-124952842D02*
X139084342Y-125024271D01*
X139370057Y-125024271D01*
X139512914Y-124952842D01*
X139584342Y-124809985D01*
X139584342Y-124238557D01*
X139512914Y-124095700D01*
X139370057Y-124024271D01*
X139084342Y-124024271D01*
X138941485Y-124095700D01*
X138870057Y-124238557D01*
X138870057Y-124381414D01*
X139584342Y-124524271D01*
X138298628Y-124952842D02*
X138155771Y-125024271D01*
X137870057Y-125024271D01*
X137727200Y-124952842D01*
X137655771Y-124809985D01*
X137655771Y-124738557D01*
X137727200Y-124595700D01*
X137870057Y-124524271D01*
X138084342Y-124524271D01*
X138227200Y-124452842D01*
X138298628Y-124309985D01*
X138298628Y-124238557D01*
X138227200Y-124095700D01*
X138084342Y-124024271D01*
X137870057Y-124024271D01*
X137727200Y-124095700D01*
X137012914Y-125024271D02*
X137012914Y-124024271D01*
X137012914Y-123524271D02*
X137084342Y-123595700D01*
X137012914Y-123667128D01*
X136941485Y-123595700D01*
X137012914Y-123524271D01*
X137012914Y-123667128D01*
X136370057Y-124952842D02*
X136227200Y-125024271D01*
X135941485Y-125024271D01*
X135798628Y-124952842D01*
X135727200Y-124809985D01*
X135727200Y-124738557D01*
X135798628Y-124595700D01*
X135941485Y-124524271D01*
X136155771Y-124524271D01*
X136298628Y-124452842D01*
X136370057Y-124309985D01*
X136370057Y-124238557D01*
X136298628Y-124095700D01*
X136155771Y-124024271D01*
X135941485Y-124024271D01*
X135798628Y-124095700D01*
X134012914Y-123667128D02*
X133941485Y-123595700D01*
X133798628Y-123524271D01*
X133441485Y-123524271D01*
X133298628Y-123595700D01*
X133227199Y-123667128D01*
X133155771Y-123809985D01*
X133155771Y-123952842D01*
X133227199Y-124167128D01*
X134084342Y-125024271D01*
X133155771Y-125024271D01*
X132227199Y-123524271D02*
X132084342Y-123524271D01*
X131941485Y-123595700D01*
X131870057Y-123667128D01*
X131798628Y-123809985D01*
X131727199Y-124095700D01*
X131727199Y-124452842D01*
X131798628Y-124738557D01*
X131870057Y-124881414D01*
X131941485Y-124952842D01*
X132084342Y-125024271D01*
X132227199Y-125024271D01*
X132370057Y-124952842D01*
X132441485Y-124881414D01*
X132512914Y-124738557D01*
X132584342Y-124452842D01*
X132584342Y-124095700D01*
X132512914Y-123809985D01*
X132441485Y-123667128D01*
X132370057Y-123595700D01*
X132227199Y-123524271D01*
X131155771Y-123667128D02*
X131084342Y-123595700D01*
X130941485Y-123524271D01*
X130584342Y-123524271D01*
X130441485Y-123595700D01*
X130370057Y-123667128D01*
X130298628Y-123809985D01*
X130298628Y-123952842D01*
X130370057Y-124167128D01*
X131227199Y-125024271D01*
X130298628Y-125024271D01*
X129370057Y-123524271D02*
X129227199Y-123524271D01*
X129084342Y-123595700D01*
X129012914Y-123667128D01*
X128941485Y-123809985D01*
X128870057Y-124095700D01*
X128870057Y-124452842D01*
X128941485Y-124738557D01*
X129012914Y-124881414D01*
X129084342Y-124952842D01*
X129227199Y-125024271D01*
X129370057Y-125024271D01*
X129512914Y-124952842D01*
X129584342Y-124881414D01*
X129655771Y-124738557D01*
X129727199Y-124452842D01*
X129727199Y-124095700D01*
X129655771Y-123809985D01*
X129584342Y-123667128D01*
X129512914Y-123595700D01*
X129370057Y-123524271D01*
X164584342Y-126074271D02*
X164084342Y-127574271D01*
X163584342Y-126074271D01*
X163084342Y-127431414D02*
X163012914Y-127502842D01*
X163084342Y-127574271D01*
X163155771Y-127502842D01*
X163084342Y-127431414D01*
X163084342Y-127574271D01*
X160441485Y-127574271D02*
X161298628Y-127574271D01*
X160870057Y-127574271D02*
X160870057Y-126074271D01*
X161012914Y-126288557D01*
X161155771Y-126431414D01*
X161298628Y-126502842D01*
X159798628Y-127431414D02*
X159727200Y-127502842D01*
X159798628Y-127574271D01*
X159870057Y-127502842D01*
X159798628Y-127431414D01*
X159798628Y-127574271D01*
X158798628Y-126074271D02*
X158655771Y-126074271D01*
X158512914Y-126145700D01*
X158441485Y-126217128D01*
X158370057Y-126359985D01*
X158298628Y-126645700D01*
X158298628Y-127002842D01*
X158370057Y-127288557D01*
X158441485Y-127431414D01*
X158512914Y-127502842D01*
X158655771Y-127574271D01*
X158798628Y-127574271D01*
X158941485Y-127502842D01*
X159012914Y-127431414D01*
X159084342Y-127288557D01*
X159155771Y-127002842D01*
X159155771Y-126645700D01*
X159084342Y-126359985D01*
X159012914Y-126217128D01*
X158941485Y-126145700D01*
X158798628Y-126074271D01*
M02*
