G04 #@! TF.GenerationSoftware,KiCad,Pcbnew,(5.1.2)-2*
G04 #@! TF.CreationDate,2020-01-30T13:06:46+01:00*
G04 #@! TF.ProjectId,Pedalbox Extenion Board,50656461-6c62-46f7-9820-457874656e69,rev?*
G04 #@! TF.SameCoordinates,Original*
G04 #@! TF.FileFunction,Legend,Top*
G04 #@! TF.FilePolarity,Positive*
%FSLAX46Y46*%
G04 Gerber Fmt 4.6, Leading zero omitted, Abs format (unit mm)*
G04 Created by KiCad (PCBNEW (5.1.2)-2) date 2020-01-30 13:06:46*
%MOMM*%
%LPD*%
G04 APERTURE LIST*
%ADD10C,0.150000*%
%ADD11C,0.120000*%
%ADD12C,0.254000*%
%ADD13C,0.015000*%
G04 APERTURE END LIST*
D10*
X156394423Y-129490766D02*
X156870614Y-129490766D01*
X156299185Y-129776480D02*
X156632519Y-128776480D01*
X156965852Y-129776480D01*
X157299185Y-129776480D02*
X157299185Y-128776480D01*
X157680138Y-128776480D01*
X157775376Y-128824100D01*
X157822995Y-128871719D01*
X157870614Y-128966957D01*
X157870614Y-129109814D01*
X157822995Y-129205052D01*
X157775376Y-129252671D01*
X157680138Y-129300290D01*
X157299185Y-129300290D01*
X158299185Y-129776480D02*
X158299185Y-128776480D01*
X158680138Y-128776480D01*
X158775376Y-128824100D01*
X158822995Y-128871719D01*
X158870614Y-128966957D01*
X158870614Y-129109814D01*
X158822995Y-129205052D01*
X158775376Y-129252671D01*
X158680138Y-129300290D01*
X158299185Y-129300290D01*
X159251566Y-129728861D02*
X159394423Y-129776480D01*
X159632519Y-129776480D01*
X159727757Y-129728861D01*
X159775376Y-129681242D01*
X159822995Y-129586004D01*
X159822995Y-129490766D01*
X159775376Y-129395528D01*
X159727757Y-129347909D01*
X159632519Y-129300290D01*
X159442042Y-129252671D01*
X159346804Y-129205052D01*
X159299185Y-129157433D01*
X159251566Y-129062195D01*
X159251566Y-128966957D01*
X159299185Y-128871719D01*
X159346804Y-128824100D01*
X159442042Y-128776480D01*
X159680138Y-128776480D01*
X159822995Y-128824100D01*
X160203947Y-128871719D02*
X160251566Y-128824100D01*
X160346804Y-128776480D01*
X160584900Y-128776480D01*
X160680138Y-128824100D01*
X160727757Y-128871719D01*
X160775376Y-128966957D01*
X160775376Y-129062195D01*
X160727757Y-129205052D01*
X160156328Y-129776480D01*
X160775376Y-129776480D01*
X156457923Y-137682266D02*
X156934114Y-137682266D01*
X156362685Y-137967980D02*
X156696019Y-136967980D01*
X157029352Y-137967980D01*
X157362685Y-137967980D02*
X157362685Y-136967980D01*
X157743638Y-136967980D01*
X157838876Y-137015600D01*
X157886495Y-137063219D01*
X157934114Y-137158457D01*
X157934114Y-137301314D01*
X157886495Y-137396552D01*
X157838876Y-137444171D01*
X157743638Y-137491790D01*
X157362685Y-137491790D01*
X158362685Y-137967980D02*
X158362685Y-136967980D01*
X158743638Y-136967980D01*
X158838876Y-137015600D01*
X158886495Y-137063219D01*
X158934114Y-137158457D01*
X158934114Y-137301314D01*
X158886495Y-137396552D01*
X158838876Y-137444171D01*
X158743638Y-137491790D01*
X158362685Y-137491790D01*
X159315066Y-137920361D02*
X159457923Y-137967980D01*
X159696019Y-137967980D01*
X159791257Y-137920361D01*
X159838876Y-137872742D01*
X159886495Y-137777504D01*
X159886495Y-137682266D01*
X159838876Y-137587028D01*
X159791257Y-137539409D01*
X159696019Y-137491790D01*
X159505542Y-137444171D01*
X159410304Y-137396552D01*
X159362685Y-137348933D01*
X159315066Y-137253695D01*
X159315066Y-137158457D01*
X159362685Y-137063219D01*
X159410304Y-137015600D01*
X159505542Y-136967980D01*
X159743638Y-136967980D01*
X159886495Y-137015600D01*
X160838876Y-137967980D02*
X160267447Y-137967980D01*
X160553161Y-137967980D02*
X160553161Y-136967980D01*
X160457923Y-137110838D01*
X160362685Y-137206076D01*
X160267447Y-137253695D01*
D11*
X147318000Y-128416233D02*
X147318000Y-128758767D01*
X148338000Y-128416233D02*
X148338000Y-128758767D01*
X150759700Y-128428933D02*
X150759700Y-128771467D01*
X151779700Y-128428933D02*
X151779700Y-128771467D01*
X149108700Y-128441633D02*
X149108700Y-128784167D01*
X150128700Y-128441633D02*
X150128700Y-128784167D01*
X136345200Y-135311033D02*
X136345200Y-135653567D01*
X137365200Y-135311033D02*
X137365200Y-135653567D01*
X137631900Y-124948767D02*
X137631900Y-124606233D01*
X136611900Y-124948767D02*
X136611900Y-124606233D01*
X148147500Y-124897967D02*
X148147500Y-124555433D01*
X147127500Y-124897967D02*
X147127500Y-124555433D01*
X136421400Y-129597333D02*
X136421400Y-129939867D01*
X137441400Y-129597333D02*
X137441400Y-129939867D01*
X132852700Y-135350433D02*
X132852700Y-135692967D01*
X133872700Y-135350433D02*
X133872700Y-135692967D01*
X134075900Y-124910667D02*
X134075900Y-124568133D01*
X133055900Y-124910667D02*
X133055900Y-124568133D01*
X132827300Y-129584633D02*
X132827300Y-129927167D01*
X133847300Y-129584633D02*
X133847300Y-129927167D01*
X151627300Y-124948767D02*
X151627300Y-124606233D01*
X150607300Y-124948767D02*
X150607300Y-124606233D01*
X134656100Y-135299633D02*
X134656100Y-135642167D01*
X135676100Y-135299633D02*
X135676100Y-135642167D01*
X135866600Y-124923367D02*
X135866600Y-124580833D01*
X134846600Y-124923367D02*
X134846600Y-124580833D01*
X134618000Y-129571933D02*
X134618000Y-129914467D01*
X135638000Y-129571933D02*
X135638000Y-129914467D01*
X149912800Y-124923367D02*
X149912800Y-124580833D01*
X148892800Y-124923367D02*
X148892800Y-124580833D01*
X163590700Y-125850467D02*
X163590700Y-125507933D01*
X162570700Y-125850467D02*
X162570700Y-125507933D01*
X154497500Y-125901267D02*
X154497500Y-125558733D01*
X153477500Y-125901267D02*
X153477500Y-125558733D01*
X163781200Y-133914967D02*
X163781200Y-133572433D01*
X162761200Y-133914967D02*
X162761200Y-133572433D01*
X154611800Y-133940367D02*
X154611800Y-133597833D01*
X153591800Y-133940367D02*
X153591800Y-133597833D01*
D12*
X166000000Y-163300000D02*
X166000000Y-155200000D01*
X134000000Y-163300000D02*
X134000000Y-155200000D01*
X134000000Y-156000000D02*
X166000000Y-156000000D01*
X166000000Y-178300000D02*
X166000000Y-183300000D01*
X134000000Y-178300000D02*
X134000000Y-183300000D01*
X166000000Y-183300000D02*
X134000000Y-183300000D01*
X166000000Y-163300000D02*
X134000000Y-163300000D01*
X136750000Y-155200000D02*
X132000000Y-155200000D01*
X163250000Y-155200000D02*
X136750000Y-155200000D01*
X168000000Y-155200000D02*
X163250000Y-155200000D01*
X132000000Y-155200000D02*
X132000000Y-145000000D01*
X134000000Y-178300000D02*
X134000000Y-163300000D01*
X166000000Y-178300000D02*
X134000000Y-178300000D01*
X166000000Y-163300000D02*
X166000000Y-178300000D01*
X168000000Y-145000000D02*
X168000000Y-155200000D01*
D11*
X158673800Y-130180400D02*
X156723800Y-130180400D01*
X158673800Y-130180400D02*
X160623800Y-130180400D01*
X158673800Y-135300400D02*
X156723800Y-135300400D01*
X158673800Y-135300400D02*
X162123800Y-135300400D01*
X158534100Y-127235900D02*
X161984100Y-127235900D01*
X158534100Y-127235900D02*
X156584100Y-127235900D01*
X158534100Y-122115900D02*
X160484100Y-122115900D01*
X158534100Y-122115900D02*
X156584100Y-122115900D01*
D10*
X167208295Y-119235480D02*
X167208295Y-118235480D01*
X167208295Y-118711671D02*
X167779723Y-118711671D01*
X167779723Y-119235480D02*
X167779723Y-118235480D01*
X168779723Y-119235480D02*
X168208295Y-119235480D01*
X168494009Y-119235480D02*
X168494009Y-118235480D01*
X168398771Y-118378338D01*
X168303533Y-118473576D01*
X168208295Y-118521195D01*
X147775633Y-131440180D02*
X147442300Y-130963990D01*
X147204204Y-131440180D02*
X147204204Y-130440180D01*
X147585157Y-130440180D01*
X147680395Y-130487800D01*
X147728014Y-130535419D01*
X147775633Y-130630657D01*
X147775633Y-130773514D01*
X147728014Y-130868752D01*
X147680395Y-130916371D01*
X147585157Y-130963990D01*
X147204204Y-130963990D01*
X148251823Y-131440180D02*
X148442300Y-131440180D01*
X148537538Y-131392561D01*
X148585157Y-131344942D01*
X148680395Y-131202085D01*
X148728014Y-131011609D01*
X148728014Y-130630657D01*
X148680395Y-130535419D01*
X148632776Y-130487800D01*
X148537538Y-130440180D01*
X148347061Y-130440180D01*
X148251823Y-130487800D01*
X148204204Y-130535419D01*
X148156585Y-130630657D01*
X148156585Y-130868752D01*
X148204204Y-130963990D01*
X148251823Y-131011609D01*
X148347061Y-131059228D01*
X148537538Y-131059228D01*
X148632776Y-131011609D01*
X148680395Y-130963990D01*
X148728014Y-130868752D01*
X151471333Y-131503680D02*
X151138000Y-131027490D01*
X150899904Y-131503680D02*
X150899904Y-130503680D01*
X151280857Y-130503680D01*
X151376095Y-130551300D01*
X151423714Y-130598919D01*
X151471333Y-130694157D01*
X151471333Y-130837014D01*
X151423714Y-130932252D01*
X151376095Y-130979871D01*
X151280857Y-131027490D01*
X150899904Y-131027490D01*
X152328476Y-130837014D02*
X152328476Y-131503680D01*
X152090380Y-130456061D02*
X151852285Y-131170347D01*
X152471333Y-131170347D01*
X149579033Y-131357642D02*
X149531414Y-131405261D01*
X149388557Y-131452880D01*
X149293319Y-131452880D01*
X149150461Y-131405261D01*
X149055223Y-131310023D01*
X149007604Y-131214785D01*
X148959985Y-131024309D01*
X148959985Y-130881452D01*
X149007604Y-130690976D01*
X149055223Y-130595738D01*
X149150461Y-130500500D01*
X149293319Y-130452880D01*
X149388557Y-130452880D01*
X149531414Y-130500500D01*
X149579033Y-130548119D01*
X150150461Y-130881452D02*
X150055223Y-130833833D01*
X150007604Y-130786214D01*
X149959985Y-130690976D01*
X149959985Y-130643357D01*
X150007604Y-130548119D01*
X150055223Y-130500500D01*
X150150461Y-130452880D01*
X150340938Y-130452880D01*
X150436176Y-130500500D01*
X150483795Y-130548119D01*
X150531414Y-130643357D01*
X150531414Y-130690976D01*
X150483795Y-130786214D01*
X150436176Y-130833833D01*
X150340938Y-130881452D01*
X150150461Y-130881452D01*
X150055223Y-130929071D01*
X150007604Y-130976690D01*
X149959985Y-131071928D01*
X149959985Y-131262404D01*
X150007604Y-131357642D01*
X150055223Y-131405261D01*
X150150461Y-131452880D01*
X150340938Y-131452880D01*
X150436176Y-131405261D01*
X150483795Y-131357642D01*
X150531414Y-131262404D01*
X150531414Y-131071928D01*
X150483795Y-130976690D01*
X150436176Y-130929071D01*
X150340938Y-130881452D01*
X137345680Y-139517357D02*
X136869490Y-139850690D01*
X137345680Y-140088785D02*
X136345680Y-140088785D01*
X136345680Y-139707833D01*
X136393300Y-139612595D01*
X136440919Y-139564976D01*
X136536157Y-139517357D01*
X136679014Y-139517357D01*
X136774252Y-139564976D01*
X136821871Y-139612595D01*
X136869490Y-139707833D01*
X136869490Y-140088785D01*
X137345680Y-138564976D02*
X137345680Y-139136404D01*
X137345680Y-138850690D02*
X136345680Y-138850690D01*
X136488538Y-138945928D01*
X136583776Y-139041166D01*
X136631395Y-139136404D01*
X136345680Y-137945928D02*
X136345680Y-137850690D01*
X136393300Y-137755452D01*
X136440919Y-137707833D01*
X136536157Y-137660214D01*
X136726633Y-137612595D01*
X136964728Y-137612595D01*
X137155204Y-137660214D01*
X137250442Y-137707833D01*
X137298061Y-137755452D01*
X137345680Y-137850690D01*
X137345680Y-137945928D01*
X137298061Y-138041166D01*
X137250442Y-138088785D01*
X137155204Y-138136404D01*
X136964728Y-138184023D01*
X136726633Y-138184023D01*
X136536157Y-138136404D01*
X136440919Y-138088785D01*
X136393300Y-138041166D01*
X136345680Y-137945928D01*
X137006033Y-122867680D02*
X136672700Y-122391490D01*
X136434604Y-122867680D02*
X136434604Y-121867680D01*
X136815557Y-121867680D01*
X136910795Y-121915300D01*
X136958414Y-121962919D01*
X137006033Y-122058157D01*
X137006033Y-122201014D01*
X136958414Y-122296252D01*
X136910795Y-122343871D01*
X136815557Y-122391490D01*
X136434604Y-122391490D01*
X137577461Y-122296252D02*
X137482223Y-122248633D01*
X137434604Y-122201014D01*
X137386985Y-122105776D01*
X137386985Y-122058157D01*
X137434604Y-121962919D01*
X137482223Y-121915300D01*
X137577461Y-121867680D01*
X137767938Y-121867680D01*
X137863176Y-121915300D01*
X137910795Y-121962919D01*
X137958414Y-122058157D01*
X137958414Y-122105776D01*
X137910795Y-122201014D01*
X137863176Y-122248633D01*
X137767938Y-122296252D01*
X137577461Y-122296252D01*
X137482223Y-122343871D01*
X137434604Y-122391490D01*
X137386985Y-122486728D01*
X137386985Y-122677204D01*
X137434604Y-122772442D01*
X137482223Y-122820061D01*
X137577461Y-122867680D01*
X137767938Y-122867680D01*
X137863176Y-122820061D01*
X137910795Y-122772442D01*
X137958414Y-122677204D01*
X137958414Y-122486728D01*
X137910795Y-122391490D01*
X137863176Y-122343871D01*
X137767938Y-122296252D01*
X147432733Y-122829580D02*
X147099400Y-122353390D01*
X146861304Y-122829580D02*
X146861304Y-121829580D01*
X147242257Y-121829580D01*
X147337495Y-121877200D01*
X147385114Y-121924819D01*
X147432733Y-122020057D01*
X147432733Y-122162914D01*
X147385114Y-122258152D01*
X147337495Y-122305771D01*
X147242257Y-122353390D01*
X146861304Y-122353390D01*
X147766066Y-121829580D02*
X148432733Y-121829580D01*
X148004161Y-122829580D01*
X137459980Y-132576866D02*
X136983790Y-132910200D01*
X137459980Y-133148295D02*
X136459980Y-133148295D01*
X136459980Y-132767342D01*
X136507600Y-132672104D01*
X136555219Y-132624485D01*
X136650457Y-132576866D01*
X136793314Y-132576866D01*
X136888552Y-132624485D01*
X136936171Y-132672104D01*
X136983790Y-132767342D01*
X136983790Y-133148295D01*
X136459980Y-131719723D02*
X136459980Y-131910200D01*
X136507600Y-132005438D01*
X136555219Y-132053057D01*
X136698076Y-132148295D01*
X136888552Y-132195914D01*
X137269504Y-132195914D01*
X137364742Y-132148295D01*
X137412361Y-132100676D01*
X137459980Y-132005438D01*
X137459980Y-131814961D01*
X137412361Y-131719723D01*
X137364742Y-131672104D01*
X137269504Y-131624485D01*
X137031409Y-131624485D01*
X136936171Y-131672104D01*
X136888552Y-131719723D01*
X136840933Y-131814961D01*
X136840933Y-132005438D01*
X136888552Y-132100676D01*
X136936171Y-132148295D01*
X137031409Y-132195914D01*
X133878580Y-138279166D02*
X133402390Y-138612500D01*
X133878580Y-138850595D02*
X132878580Y-138850595D01*
X132878580Y-138469642D01*
X132926200Y-138374404D01*
X132973819Y-138326785D01*
X133069057Y-138279166D01*
X133211914Y-138279166D01*
X133307152Y-138326785D01*
X133354771Y-138374404D01*
X133402390Y-138469642D01*
X133402390Y-138850595D01*
X132878580Y-137374404D02*
X132878580Y-137850595D01*
X133354771Y-137898214D01*
X133307152Y-137850595D01*
X133259533Y-137755357D01*
X133259533Y-137517261D01*
X133307152Y-137422023D01*
X133354771Y-137374404D01*
X133450009Y-137326785D01*
X133688104Y-137326785D01*
X133783342Y-137374404D01*
X133830961Y-137422023D01*
X133878580Y-137517261D01*
X133878580Y-137755357D01*
X133830961Y-137850595D01*
X133783342Y-137898214D01*
X133564333Y-122842280D02*
X133231000Y-122366090D01*
X132992904Y-122842280D02*
X132992904Y-121842280D01*
X133373857Y-121842280D01*
X133469095Y-121889900D01*
X133516714Y-121937519D01*
X133564333Y-122032757D01*
X133564333Y-122175614D01*
X133516714Y-122270852D01*
X133469095Y-122318471D01*
X133373857Y-122366090D01*
X132992904Y-122366090D01*
X133897666Y-121842280D02*
X134516714Y-121842280D01*
X134183380Y-122223233D01*
X134326238Y-122223233D01*
X134421476Y-122270852D01*
X134469095Y-122318471D01*
X134516714Y-122413709D01*
X134516714Y-122651804D01*
X134469095Y-122747042D01*
X134421476Y-122794661D01*
X134326238Y-122842280D01*
X134040523Y-122842280D01*
X133945285Y-122794661D01*
X133897666Y-122747042D01*
X133827780Y-132551466D02*
X133351590Y-132884800D01*
X133827780Y-133122895D02*
X132827780Y-133122895D01*
X132827780Y-132741942D01*
X132875400Y-132646704D01*
X132923019Y-132599085D01*
X133018257Y-132551466D01*
X133161114Y-132551466D01*
X133256352Y-132599085D01*
X133303971Y-132646704D01*
X133351590Y-132741942D01*
X133351590Y-133122895D01*
X132923019Y-132170514D02*
X132875400Y-132122895D01*
X132827780Y-132027657D01*
X132827780Y-131789561D01*
X132875400Y-131694323D01*
X132923019Y-131646704D01*
X133018257Y-131599085D01*
X133113495Y-131599085D01*
X133256352Y-131646704D01*
X133827780Y-132218133D01*
X133827780Y-131599085D01*
X150912533Y-122854980D02*
X150579200Y-122378790D01*
X150341104Y-122854980D02*
X150341104Y-121854980D01*
X150722057Y-121854980D01*
X150817295Y-121902600D01*
X150864914Y-121950219D01*
X150912533Y-122045457D01*
X150912533Y-122188314D01*
X150864914Y-122283552D01*
X150817295Y-122331171D01*
X150722057Y-122378790D01*
X150341104Y-122378790D01*
X151864914Y-122854980D02*
X151293485Y-122854980D01*
X151579200Y-122854980D02*
X151579200Y-121854980D01*
X151483961Y-121997838D01*
X151388723Y-122093076D01*
X151293485Y-122140695D01*
X135624842Y-138444266D02*
X135672461Y-138491885D01*
X135720080Y-138634742D01*
X135720080Y-138729980D01*
X135672461Y-138872838D01*
X135577223Y-138968076D01*
X135481985Y-139015695D01*
X135291509Y-139063314D01*
X135148652Y-139063314D01*
X134958176Y-139015695D01*
X134862938Y-138968076D01*
X134767700Y-138872838D01*
X134720080Y-138729980D01*
X134720080Y-138634742D01*
X134767700Y-138491885D01*
X134815319Y-138444266D01*
X135720080Y-137968076D02*
X135720080Y-137777600D01*
X135672461Y-137682361D01*
X135624842Y-137634742D01*
X135481985Y-137539504D01*
X135291509Y-137491885D01*
X134910557Y-137491885D01*
X134815319Y-137539504D01*
X134767700Y-137587123D01*
X134720080Y-137682361D01*
X134720080Y-137872838D01*
X134767700Y-137968076D01*
X134815319Y-138015695D01*
X134910557Y-138063314D01*
X135148652Y-138063314D01*
X135243890Y-138015695D01*
X135291509Y-137968076D01*
X135339128Y-137872838D01*
X135339128Y-137682361D01*
X135291509Y-137587123D01*
X135243890Y-137539504D01*
X135148652Y-137491885D01*
X135291533Y-122710242D02*
X135243914Y-122757861D01*
X135101057Y-122805480D01*
X135005819Y-122805480D01*
X134862961Y-122757861D01*
X134767723Y-122662623D01*
X134720104Y-122567385D01*
X134672485Y-122376909D01*
X134672485Y-122234052D01*
X134720104Y-122043576D01*
X134767723Y-121948338D01*
X134862961Y-121853100D01*
X135005819Y-121805480D01*
X135101057Y-121805480D01*
X135243914Y-121853100D01*
X135291533Y-121900719D01*
X135624866Y-121805480D02*
X136291533Y-121805480D01*
X135862961Y-122805480D01*
X135548642Y-132513366D02*
X135596261Y-132560985D01*
X135643880Y-132703842D01*
X135643880Y-132799080D01*
X135596261Y-132941938D01*
X135501023Y-133037176D01*
X135405785Y-133084795D01*
X135215309Y-133132414D01*
X135072452Y-133132414D01*
X134881976Y-133084795D01*
X134786738Y-133037176D01*
X134691500Y-132941938D01*
X134643880Y-132799080D01*
X134643880Y-132703842D01*
X134691500Y-132560985D01*
X134739119Y-132513366D01*
X134643880Y-131656223D02*
X134643880Y-131846700D01*
X134691500Y-131941938D01*
X134739119Y-131989557D01*
X134881976Y-132084795D01*
X135072452Y-132132414D01*
X135453404Y-132132414D01*
X135548642Y-132084795D01*
X135596261Y-132037176D01*
X135643880Y-131941938D01*
X135643880Y-131751461D01*
X135596261Y-131656223D01*
X135548642Y-131608604D01*
X135453404Y-131560985D01*
X135215309Y-131560985D01*
X135120071Y-131608604D01*
X135072452Y-131656223D01*
X135024833Y-131751461D01*
X135024833Y-131941938D01*
X135072452Y-132037176D01*
X135120071Y-132084795D01*
X135215309Y-132132414D01*
X149058333Y-122708942D02*
X149010714Y-122756561D01*
X148867857Y-122804180D01*
X148772619Y-122804180D01*
X148629761Y-122756561D01*
X148534523Y-122661323D01*
X148486904Y-122566085D01*
X148439285Y-122375609D01*
X148439285Y-122232752D01*
X148486904Y-122042276D01*
X148534523Y-121947038D01*
X148629761Y-121851800D01*
X148772619Y-121804180D01*
X148867857Y-121804180D01*
X149010714Y-121851800D01*
X149058333Y-121899419D01*
X149963095Y-121804180D02*
X149486904Y-121804180D01*
X149439285Y-122280371D01*
X149486904Y-122232752D01*
X149582142Y-122185133D01*
X149820238Y-122185133D01*
X149915476Y-122232752D01*
X149963095Y-122280371D01*
X150010714Y-122375609D01*
X150010714Y-122613704D01*
X149963095Y-122708942D01*
X149915476Y-122756561D01*
X149820238Y-122804180D01*
X149582142Y-122804180D01*
X149486904Y-122756561D01*
X149439285Y-122708942D01*
X163425142Y-123064566D02*
X163472761Y-123112185D01*
X163520380Y-123255042D01*
X163520380Y-123350280D01*
X163472761Y-123493138D01*
X163377523Y-123588376D01*
X163282285Y-123635995D01*
X163091809Y-123683614D01*
X162948952Y-123683614D01*
X162758476Y-123635995D01*
X162663238Y-123588376D01*
X162568000Y-123493138D01*
X162520380Y-123350280D01*
X162520380Y-123255042D01*
X162568000Y-123112185D01*
X162615619Y-123064566D01*
X162853714Y-122207423D02*
X163520380Y-122207423D01*
X162472761Y-122445519D02*
X163187047Y-122683614D01*
X163187047Y-122064566D01*
X154268442Y-123267766D02*
X154316061Y-123315385D01*
X154363680Y-123458242D01*
X154363680Y-123553480D01*
X154316061Y-123696338D01*
X154220823Y-123791576D01*
X154125585Y-123839195D01*
X153935109Y-123886814D01*
X153792252Y-123886814D01*
X153601776Y-123839195D01*
X153506538Y-123791576D01*
X153411300Y-123696338D01*
X153363680Y-123553480D01*
X153363680Y-123458242D01*
X153411300Y-123315385D01*
X153458919Y-123267766D01*
X153363680Y-122934433D02*
X153363680Y-122315385D01*
X153744633Y-122648719D01*
X153744633Y-122505861D01*
X153792252Y-122410623D01*
X153839871Y-122363004D01*
X153935109Y-122315385D01*
X154173204Y-122315385D01*
X154268442Y-122363004D01*
X154316061Y-122410623D01*
X154363680Y-122505861D01*
X154363680Y-122791576D01*
X154316061Y-122886814D01*
X154268442Y-122934433D01*
X163666442Y-131217966D02*
X163714061Y-131265585D01*
X163761680Y-131408442D01*
X163761680Y-131503680D01*
X163714061Y-131646538D01*
X163618823Y-131741776D01*
X163523585Y-131789395D01*
X163333109Y-131837014D01*
X163190252Y-131837014D01*
X162999776Y-131789395D01*
X162904538Y-131741776D01*
X162809300Y-131646538D01*
X162761680Y-131503680D01*
X162761680Y-131408442D01*
X162809300Y-131265585D01*
X162856919Y-131217966D01*
X162856919Y-130837014D02*
X162809300Y-130789395D01*
X162761680Y-130694157D01*
X162761680Y-130456061D01*
X162809300Y-130360823D01*
X162856919Y-130313204D01*
X162952157Y-130265585D01*
X163047395Y-130265585D01*
X163190252Y-130313204D01*
X163761680Y-130884633D01*
X163761680Y-130265585D01*
X154319242Y-131103666D02*
X154366861Y-131151285D01*
X154414480Y-131294142D01*
X154414480Y-131389380D01*
X154366861Y-131532238D01*
X154271623Y-131627476D01*
X154176385Y-131675095D01*
X153985909Y-131722714D01*
X153843052Y-131722714D01*
X153652576Y-131675095D01*
X153557338Y-131627476D01*
X153462100Y-131532238D01*
X153414480Y-131389380D01*
X153414480Y-131294142D01*
X153462100Y-131151285D01*
X153509719Y-131103666D01*
X154414480Y-130151285D02*
X154414480Y-130722714D01*
X154414480Y-130437000D02*
X153414480Y-130437000D01*
X153557338Y-130532238D01*
X153652576Y-130627476D01*
X153700195Y-130722714D01*
D13*
X136421548Y-143810395D02*
X136421548Y-142809269D01*
X136802930Y-142809269D01*
X136898275Y-142856942D01*
X136945948Y-142904614D01*
X136993620Y-142999960D01*
X136993620Y-143142978D01*
X136945948Y-143238323D01*
X136898275Y-143285996D01*
X136802930Y-143333668D01*
X136421548Y-143333668D01*
X137947074Y-143810395D02*
X137375002Y-143810395D01*
X137661038Y-143810395D02*
X137661038Y-142809269D01*
X137565692Y-142952287D01*
X137470347Y-143047632D01*
X137375002Y-143095305D01*
D10*
X157911895Y-135592780D02*
X157911895Y-136402304D01*
X157959514Y-136497542D01*
X158007133Y-136545161D01*
X158102371Y-136592780D01*
X158292847Y-136592780D01*
X158388085Y-136545161D01*
X158435704Y-136497542D01*
X158483323Y-136402304D01*
X158483323Y-135592780D01*
X158911895Y-135688019D02*
X158959514Y-135640400D01*
X159054752Y-135592780D01*
X159292847Y-135592780D01*
X159388085Y-135640400D01*
X159435704Y-135688019D01*
X159483323Y-135783257D01*
X159483323Y-135878495D01*
X159435704Y-136021352D01*
X158864276Y-136592780D01*
X159483323Y-136592780D01*
X157772195Y-127528280D02*
X157772195Y-128337804D01*
X157819814Y-128433042D01*
X157867433Y-128480661D01*
X157962671Y-128528280D01*
X158153147Y-128528280D01*
X158248385Y-128480661D01*
X158296004Y-128433042D01*
X158343623Y-128337804D01*
X158343623Y-127528280D01*
X158724576Y-127528280D02*
X159343623Y-127528280D01*
X159010290Y-127909233D01*
X159153147Y-127909233D01*
X159248385Y-127956852D01*
X159296004Y-128004471D01*
X159343623Y-128099709D01*
X159343623Y-128337804D01*
X159296004Y-128433042D01*
X159248385Y-128480661D01*
X159153147Y-128528280D01*
X158867433Y-128528280D01*
X158772195Y-128480661D01*
X158724576Y-128433042D01*
M02*
