M48
; DRILL file {KiCad (5.1.2)-2} date 30-Jan-20 01:06:48 PM
; FORMAT={-:-/ absolute / inch / decimal}
; #@! TF.CreationDate,2020-01-30T13:06:48+01:00
; #@! TF.GenerationSoftware,Kicad,Pcbnew,(5.1.2)-2
FMAT,2
INCH
T1C0.0157
T2C0.0433
T3C0.0276
T4C0.0866
T5C0.1260
%
G90
G05
T1
X5.125Y-5.6375
X5.1405Y-4.882
X5.2065Y-5.007
X5.29Y-5.225
X5.3335Y-5.445
X5.469Y-5.291
X5.4845Y-5.5445
X5.4925Y-5.3875
X5.5035Y-4.8445
X5.618Y-4.843
X5.732Y-4.846
X5.875Y-5.2215
X5.877Y-5.304
X5.879Y-5.42
X6.0625Y-5.044
X6.065Y-5.371
X6.108Y-5.047
X6.1195Y-5.418
X6.2205Y-5.563
X6.356Y-5.415
X6.4475Y-5.069
T2
X5.5118Y-5.7283
X5.5118Y-5.8465
X5.6102Y-5.7283
X5.6102Y-5.8465
X5.7087Y-5.7283
X5.7087Y-5.8465
X5.8071Y-5.7283
X5.8071Y-5.8465
X5.9055Y-5.7283
X5.9055Y-5.8465
X6.0039Y-5.7283
X6.0039Y-5.8465
X6.1024Y-5.7283
X6.1024Y-5.8465
X6.2008Y-5.7283
X6.2008Y-5.8465
X6.2992Y-5.7283
X6.2992Y-5.8465
T3
X5.5787Y-4.9409
X5.6811Y-5.4528
T4
X6.4139Y-5.5284
X6.5635Y-4.851
T5
X5.2953Y-5.9055
X6.5157Y-5.9055
T0
M30
