G04 #@! TF.GenerationSoftware,KiCad,Pcbnew,(5.1.2)-2*
G04 #@! TF.CreationDate,2020-01-13T15:56:56+01:00*
G04 #@! TF.ProjectId,SteeringAngleSensor,53746565-7269-46e6-9741-6e676c655365,rev?*
G04 #@! TF.SameCoordinates,Original*
G04 #@! TF.FileFunction,Legend,Top*
G04 #@! TF.FilePolarity,Positive*
%FSLAX46Y46*%
G04 Gerber Fmt 4.6, Leading zero omitted, Abs format (unit mm)*
G04 Created by KiCad (PCBNEW (5.1.2)-2) date 2020-01-13 15:56:56*
%MOMM*%
%LPD*%
G04 APERTURE LIST*
%ADD10C,0.120000*%
%ADD11C,0.150000*%
G04 APERTURE END LIST*
D10*
X135810000Y-86440000D02*
X142650000Y-86440000D01*
X135810000Y-93680000D02*
X142650000Y-93680000D01*
X142650000Y-89350000D02*
X142650000Y-86440000D01*
X142650000Y-93680000D02*
X142650000Y-90650000D01*
X135810000Y-89350000D02*
X135810000Y-86440000D01*
X135810000Y-93680000D02*
X135810000Y-90650000D01*
X133830000Y-107630000D02*
X133830000Y-101320000D01*
X133830000Y-101320000D02*
X145550000Y-101320000D01*
X145550000Y-101320000D02*
X145550000Y-102740000D01*
X145550000Y-102740000D02*
X141050000Y-102740000D01*
X141050000Y-102740000D02*
X141050000Y-107630000D01*
X133830000Y-107630000D02*
X133830000Y-113940000D01*
X133830000Y-113940000D02*
X145550000Y-113940000D01*
X145550000Y-113940000D02*
X145550000Y-112520000D01*
X145550000Y-112520000D02*
X141050000Y-112520000D01*
X141050000Y-112520000D02*
X141050000Y-107630000D01*
X139940000Y-103630000D02*
X134440000Y-103630000D01*
X134440000Y-103630000D02*
X134440000Y-104130000D01*
X134440000Y-104130000D02*
X139940000Y-104130000D01*
X139940000Y-104130000D02*
X139940000Y-103630000D01*
X139940000Y-106130000D02*
X134440000Y-106130000D01*
X134440000Y-106130000D02*
X134440000Y-106630000D01*
X134440000Y-106630000D02*
X139940000Y-106630000D01*
X139940000Y-106630000D02*
X139940000Y-106130000D01*
X139940000Y-108630000D02*
X134440000Y-108630000D01*
X134440000Y-108630000D02*
X134440000Y-109130000D01*
X134440000Y-109130000D02*
X139940000Y-109130000D01*
X139940000Y-109130000D02*
X139940000Y-108630000D01*
X139940000Y-111130000D02*
X134440000Y-111130000D01*
X134440000Y-111130000D02*
X134440000Y-111630000D01*
X134440000Y-111630000D02*
X139940000Y-111630000D01*
X139940000Y-111630000D02*
X139940000Y-111130000D01*
X144640000Y-103880000D02*
X145240000Y-103580000D01*
X145240000Y-103580000D02*
X145240000Y-104180000D01*
X145240000Y-104180000D02*
X144640000Y-103880000D01*
D11*
X135132380Y-90655238D02*
X134656190Y-90988571D01*
X135132380Y-91226666D02*
X134132380Y-91226666D01*
X134132380Y-90845714D01*
X134180000Y-90750476D01*
X134227619Y-90702857D01*
X134322857Y-90655238D01*
X134465714Y-90655238D01*
X134560952Y-90702857D01*
X134608571Y-90750476D01*
X134656190Y-90845714D01*
X134656190Y-91226666D01*
X134132380Y-90369523D02*
X135132380Y-90036190D01*
X134132380Y-89702857D01*
X135132380Y-88845714D02*
X135132380Y-89417142D01*
X135132380Y-89131428D02*
X134132380Y-89131428D01*
X134275238Y-89226666D01*
X134370476Y-89321904D01*
X134418095Y-89417142D01*
X157238095Y-86252380D02*
X157238095Y-85252380D01*
X157238095Y-85728571D02*
X157809523Y-85728571D01*
X157809523Y-86252380D02*
X157809523Y-85252380D01*
X158238095Y-85347619D02*
X158285714Y-85300000D01*
X158380952Y-85252380D01*
X158619047Y-85252380D01*
X158714285Y-85300000D01*
X158761904Y-85347619D01*
X158809523Y-85442857D01*
X158809523Y-85538095D01*
X158761904Y-85680952D01*
X158190476Y-86252380D01*
X158809523Y-86252380D01*
X119238095Y-86252380D02*
X119238095Y-85252380D01*
X119238095Y-85728571D02*
X119809523Y-85728571D01*
X119809523Y-86252380D02*
X119809523Y-85252380D01*
X120809523Y-86252380D02*
X120238095Y-86252380D01*
X120523809Y-86252380D02*
X120523809Y-85252380D01*
X120428571Y-85395238D01*
X120333333Y-85490476D01*
X120238095Y-85538095D01*
X146092380Y-107963333D02*
X146806666Y-107963333D01*
X146949523Y-108010952D01*
X147044761Y-108106190D01*
X147092380Y-108249047D01*
X147092380Y-108344285D01*
X147092380Y-106963333D02*
X147092380Y-107534761D01*
X147092380Y-107249047D02*
X146092380Y-107249047D01*
X146235238Y-107344285D01*
X146330476Y-107439523D01*
X146378095Y-107534761D01*
M02*
