G04 #@! TF.GenerationSoftware,KiCad,Pcbnew,(5.1.2)-2*
G04 #@! TF.CreationDate,2020-01-13T16:00:13+01:00*
G04 #@! TF.ProjectId,SteeringAngleSensor,53746565-7269-46e6-9741-6e676c655365,rev?*
G04 #@! TF.SameCoordinates,Original*
G04 #@! TF.FileFunction,Soldermask,Bot*
G04 #@! TF.FilePolarity,Negative*
%FSLAX45Y45*%
G04 Gerber Fmt 4.5, Leading zero omitted, Abs format (unit mm)*
G04 Created by KiCad (PCBNEW (5.1.2)-2) date 2020-01-13 16:00:13*
%MOMM*%
%LPD*%
G04 APERTURE LIST*
%ADD10C,0.100000*%
G04 APERTURE END LIST*
D10*
G36*
X14337544Y-11048552D02*
G01*
X14344163Y-11049204D01*
X14361147Y-11054356D01*
X14376799Y-11062722D01*
X14380373Y-11065655D01*
X14390519Y-11073981D01*
X14398845Y-11084127D01*
X14401778Y-11087701D01*
X14410144Y-11103353D01*
X14415296Y-11120337D01*
X14417036Y-11138000D01*
X14415296Y-11155663D01*
X14410144Y-11172647D01*
X14401778Y-11188299D01*
X14398845Y-11191873D01*
X14390519Y-11202019D01*
X14380373Y-11210345D01*
X14376799Y-11213278D01*
X14361147Y-11221644D01*
X14344163Y-11226796D01*
X14337544Y-11227448D01*
X14330926Y-11228100D01*
X14297074Y-11228100D01*
X14290456Y-11227448D01*
X14283837Y-11226796D01*
X14266853Y-11221644D01*
X14251201Y-11213278D01*
X14247627Y-11210345D01*
X14237481Y-11202019D01*
X14229155Y-11191873D01*
X14226222Y-11188299D01*
X14217856Y-11172647D01*
X14212704Y-11155663D01*
X14210964Y-11138000D01*
X14212704Y-11120337D01*
X14217856Y-11103353D01*
X14226222Y-11087701D01*
X14229155Y-11084127D01*
X14237481Y-11073981D01*
X14247627Y-11065655D01*
X14251201Y-11062722D01*
X14266853Y-11054356D01*
X14283837Y-11049204D01*
X14290456Y-11048552D01*
X14297074Y-11047900D01*
X14330926Y-11047900D01*
X14337544Y-11048552D01*
X14337544Y-11048552D01*
G37*
G36*
X14337544Y-10798552D02*
G01*
X14344163Y-10799204D01*
X14361147Y-10804356D01*
X14376799Y-10812722D01*
X14380373Y-10815655D01*
X14390519Y-10823981D01*
X14398845Y-10834127D01*
X14401778Y-10837701D01*
X14410144Y-10853353D01*
X14415296Y-10870337D01*
X14417036Y-10888000D01*
X14415296Y-10905663D01*
X14410144Y-10922647D01*
X14401778Y-10938299D01*
X14398845Y-10941873D01*
X14390519Y-10952019D01*
X14380373Y-10960345D01*
X14376799Y-10963278D01*
X14361147Y-10971644D01*
X14344163Y-10976796D01*
X14337544Y-10977448D01*
X14330926Y-10978100D01*
X14297074Y-10978100D01*
X14290456Y-10977448D01*
X14283837Y-10976796D01*
X14266853Y-10971644D01*
X14251201Y-10963278D01*
X14247627Y-10960345D01*
X14237481Y-10952019D01*
X14229155Y-10941873D01*
X14226222Y-10938299D01*
X14217856Y-10922647D01*
X14212704Y-10905663D01*
X14210964Y-10888000D01*
X14212704Y-10870337D01*
X14217856Y-10853353D01*
X14226222Y-10837701D01*
X14229155Y-10834127D01*
X14237481Y-10823981D01*
X14247627Y-10815655D01*
X14251201Y-10812722D01*
X14266853Y-10804356D01*
X14283837Y-10799204D01*
X14290456Y-10798552D01*
X14297074Y-10797900D01*
X14330926Y-10797900D01*
X14337544Y-10798552D01*
X14337544Y-10798552D01*
G37*
G36*
X14337544Y-10548552D02*
G01*
X14344163Y-10549204D01*
X14361147Y-10554356D01*
X14376799Y-10562722D01*
X14380373Y-10565655D01*
X14390519Y-10573981D01*
X14398845Y-10584127D01*
X14401778Y-10587701D01*
X14410144Y-10603353D01*
X14415296Y-10620337D01*
X14417036Y-10638000D01*
X14415296Y-10655663D01*
X14410144Y-10672647D01*
X14401778Y-10688299D01*
X14398845Y-10691873D01*
X14390519Y-10702019D01*
X14380373Y-10710345D01*
X14376799Y-10713278D01*
X14361147Y-10721644D01*
X14344163Y-10726796D01*
X14337544Y-10727448D01*
X14330926Y-10728100D01*
X14297074Y-10728100D01*
X14290456Y-10727448D01*
X14283837Y-10726796D01*
X14266853Y-10721644D01*
X14251201Y-10713278D01*
X14247627Y-10710345D01*
X14237481Y-10702019D01*
X14229155Y-10691873D01*
X14226222Y-10688299D01*
X14217856Y-10672647D01*
X14212704Y-10655663D01*
X14210964Y-10638000D01*
X14212704Y-10620337D01*
X14217856Y-10603353D01*
X14226222Y-10587701D01*
X14229155Y-10584127D01*
X14237481Y-10573981D01*
X14247627Y-10565655D01*
X14251201Y-10562722D01*
X14266853Y-10554356D01*
X14283837Y-10549204D01*
X14290456Y-10548552D01*
X14297074Y-10547900D01*
X14330926Y-10547900D01*
X14337544Y-10548552D01*
X14337544Y-10548552D01*
G37*
G36*
X14402360Y-10298299D02*
G01*
X14405665Y-10299302D01*
X14408710Y-10300929D01*
X14411380Y-10303120D01*
X14413571Y-10305790D01*
X14415198Y-10308835D01*
X14416201Y-10312140D01*
X14416600Y-10316190D01*
X14416600Y-10459810D01*
X14416201Y-10463860D01*
X14415198Y-10467165D01*
X14413571Y-10470210D01*
X14411380Y-10472880D01*
X14408710Y-10475071D01*
X14405665Y-10476699D01*
X14402360Y-10477701D01*
X14398310Y-10478100D01*
X14229690Y-10478100D01*
X14225640Y-10477701D01*
X14222335Y-10476699D01*
X14219290Y-10475071D01*
X14216620Y-10472880D01*
X14214429Y-10470210D01*
X14212801Y-10467165D01*
X14211799Y-10463860D01*
X14211400Y-10459810D01*
X14211400Y-10316190D01*
X14211799Y-10312140D01*
X14212801Y-10308835D01*
X14214429Y-10305790D01*
X14216620Y-10303120D01*
X14219290Y-10300929D01*
X14222335Y-10299302D01*
X14225640Y-10298299D01*
X14229690Y-10297900D01*
X14398310Y-10297900D01*
X14402360Y-10298299D01*
X14402360Y-10298299D01*
G37*
G36*
X15837526Y-8839130D02*
G01*
X15848158Y-8841245D01*
X15878204Y-8853690D01*
X15905245Y-8871759D01*
X15928241Y-8894755D01*
X15946310Y-8921796D01*
X15958345Y-8950852D01*
X15958755Y-8951842D01*
X15965100Y-8983739D01*
X15965100Y-9016261D01*
X15963861Y-9022489D01*
X15958755Y-9048158D01*
X15946310Y-9078204D01*
X15928241Y-9105245D01*
X15905245Y-9128242D01*
X15878204Y-9146310D01*
X15848158Y-9158755D01*
X15837526Y-9160870D01*
X15816261Y-9165100D01*
X15783739Y-9165100D01*
X15762474Y-9160870D01*
X15751842Y-9158755D01*
X15721796Y-9146310D01*
X15694755Y-9128242D01*
X15671758Y-9105245D01*
X15653690Y-9078204D01*
X15641245Y-9048158D01*
X15636139Y-9022489D01*
X15634900Y-9016261D01*
X15634900Y-8983739D01*
X15641245Y-8951842D01*
X15641655Y-8950852D01*
X15653690Y-8921796D01*
X15671758Y-8894755D01*
X15694755Y-8871759D01*
X15721796Y-8853690D01*
X15751842Y-8841245D01*
X15762474Y-8839130D01*
X15783739Y-8834900D01*
X15816261Y-8834900D01*
X15837526Y-8839130D01*
X15837526Y-8839130D01*
G37*
G36*
X12037526Y-8839130D02*
G01*
X12048158Y-8841245D01*
X12078204Y-8853690D01*
X12105245Y-8871759D01*
X12128241Y-8894755D01*
X12146310Y-8921796D01*
X12158345Y-8950852D01*
X12158755Y-8951842D01*
X12165100Y-8983739D01*
X12165100Y-9016261D01*
X12163861Y-9022489D01*
X12158755Y-9048158D01*
X12146310Y-9078204D01*
X12128241Y-9105245D01*
X12105245Y-9128242D01*
X12078204Y-9146310D01*
X12048158Y-9158755D01*
X12037526Y-9160870D01*
X12016261Y-9165100D01*
X11983739Y-9165100D01*
X11962474Y-9160870D01*
X11951842Y-9158755D01*
X11921796Y-9146310D01*
X11894755Y-9128242D01*
X11871758Y-9105245D01*
X11853690Y-9078204D01*
X11841245Y-9048158D01*
X11836139Y-9022489D01*
X11834900Y-9016261D01*
X11834900Y-8983739D01*
X11841245Y-8951842D01*
X11841655Y-8950852D01*
X11853690Y-8921796D01*
X11871758Y-8894755D01*
X11894755Y-8871759D01*
X11921796Y-8853690D01*
X11951842Y-8841245D01*
X11962474Y-8839130D01*
X11983739Y-8834900D01*
X12016261Y-8834900D01*
X12037526Y-8839130D01*
X12037526Y-8839130D01*
G37*
G36*
X14189559Y-8923888D02*
G01*
X14199489Y-8925863D01*
X14213521Y-8931675D01*
X14226148Y-8940113D01*
X14236887Y-8950852D01*
X14245325Y-8963479D01*
X14251137Y-8977511D01*
X14254100Y-8992406D01*
X14254100Y-9007594D01*
X14251137Y-9022489D01*
X14245325Y-9036521D01*
X14236887Y-9049148D01*
X14226148Y-9059888D01*
X14213521Y-9068325D01*
X14199489Y-9074137D01*
X14189559Y-9076112D01*
X14184594Y-9077100D01*
X14169406Y-9077100D01*
X14164441Y-9076112D01*
X14154511Y-9074137D01*
X14140479Y-9068325D01*
X14127852Y-9059888D01*
X14117112Y-9049148D01*
X14108675Y-9036521D01*
X14102863Y-9022489D01*
X14099900Y-9007594D01*
X14099900Y-8992406D01*
X14102863Y-8977511D01*
X14108675Y-8963479D01*
X14117112Y-8950852D01*
X14127852Y-8940113D01*
X14140479Y-8931675D01*
X14154511Y-8925863D01*
X14164441Y-8923888D01*
X14169406Y-8922900D01*
X14184594Y-8922900D01*
X14189559Y-8923888D01*
X14189559Y-8923888D01*
G37*
G36*
X13681559Y-8923888D02*
G01*
X13691489Y-8925863D01*
X13705521Y-8931675D01*
X13718148Y-8940113D01*
X13728887Y-8950852D01*
X13737325Y-8963479D01*
X13743137Y-8977511D01*
X13746100Y-8992406D01*
X13746100Y-9007594D01*
X13743137Y-9022489D01*
X13737325Y-9036521D01*
X13728887Y-9049148D01*
X13718148Y-9059888D01*
X13705521Y-9068325D01*
X13691489Y-9074137D01*
X13681559Y-9076112D01*
X13676594Y-9077100D01*
X13661406Y-9077100D01*
X13656441Y-9076112D01*
X13646511Y-9074137D01*
X13632479Y-9068325D01*
X13619852Y-9059888D01*
X13609112Y-9049148D01*
X13600675Y-9036521D01*
X13594863Y-9022489D01*
X13591900Y-9007594D01*
X13591900Y-8992406D01*
X13594863Y-8977511D01*
X13600675Y-8963479D01*
X13609112Y-8950852D01*
X13619852Y-8940113D01*
X13632479Y-8931675D01*
X13646511Y-8925863D01*
X13656441Y-8923888D01*
X13661406Y-8922900D01*
X13676594Y-8922900D01*
X13681559Y-8923888D01*
X13681559Y-8923888D01*
G37*
G36*
X13935559Y-8669888D02*
G01*
X13945489Y-8671863D01*
X13959521Y-8677675D01*
X13972148Y-8686113D01*
X13982887Y-8696852D01*
X13991325Y-8709479D01*
X13997137Y-8723511D01*
X14000100Y-8738406D01*
X14000100Y-8753594D01*
X13997137Y-8768489D01*
X13991325Y-8782521D01*
X13982887Y-8795148D01*
X13972148Y-8805888D01*
X13959521Y-8814325D01*
X13945489Y-8820137D01*
X13935559Y-8822112D01*
X13930594Y-8823100D01*
X13915406Y-8823100D01*
X13910441Y-8822112D01*
X13900511Y-8820137D01*
X13886479Y-8814325D01*
X13873852Y-8805888D01*
X13863112Y-8795148D01*
X13854675Y-8782521D01*
X13848863Y-8768489D01*
X13845900Y-8753594D01*
X13845900Y-8738406D01*
X13848863Y-8723511D01*
X13854675Y-8709479D01*
X13863112Y-8696852D01*
X13873852Y-8686113D01*
X13886479Y-8677675D01*
X13900511Y-8671863D01*
X13910441Y-8669888D01*
X13915406Y-8668900D01*
X13930594Y-8668900D01*
X13935559Y-8669888D01*
X13935559Y-8669888D01*
G37*
M02*
