G04 #@! TF.GenerationSoftware,KiCad,Pcbnew,(5.1.2)-2*
G04 #@! TF.CreationDate,2020-01-13T16:00:13+01:00*
G04 #@! TF.ProjectId,SteeringAngleSensor,53746565-7269-46e6-9741-6e676c655365,rev?*
G04 #@! TF.SameCoordinates,Original*
G04 #@! TF.FileFunction,Copper,L1,Top*
G04 #@! TF.FilePolarity,Positive*
%FSLAX45Y45*%
G04 Gerber Fmt 4.5, Leading zero omitted, Abs format (unit mm)*
G04 Created by KiCad (PCBNEW (5.1.2)-2) date 2020-01-13 16:00:13*
%MOMM*%
%LPD*%
G04 APERTURE LIST*
%ADD10C,1.440000*%
%ADD11C,0.100000*%
%ADD12C,1.700000*%
%ADD13O,1.950000X1.700000*%
%ADD14C,1.270000*%
%ADD15C,0.254000*%
G04 APERTURE END LIST*
D10*
X14177000Y-9000000D03*
X13923000Y-8746000D03*
X13669000Y-9000000D03*
D11*
G36*
X14388950Y-10303120D02*
G01*
X14391377Y-10303480D01*
X14393757Y-10304077D01*
X14396067Y-10304903D01*
X14398285Y-10305952D01*
X14400389Y-10307213D01*
X14402360Y-10308675D01*
X14404178Y-10310322D01*
X14405825Y-10312140D01*
X14407287Y-10314111D01*
X14408548Y-10316215D01*
X14409597Y-10318433D01*
X14410423Y-10320743D01*
X14411020Y-10323123D01*
X14411380Y-10325550D01*
X14411500Y-10328000D01*
X14411500Y-10448000D01*
X14411380Y-10450450D01*
X14411020Y-10452877D01*
X14410423Y-10455257D01*
X14409597Y-10457567D01*
X14408548Y-10459785D01*
X14407287Y-10461889D01*
X14405825Y-10463860D01*
X14404178Y-10465678D01*
X14402360Y-10467325D01*
X14400389Y-10468787D01*
X14398285Y-10470048D01*
X14396067Y-10471097D01*
X14393757Y-10471924D01*
X14391377Y-10472520D01*
X14388950Y-10472880D01*
X14386500Y-10473000D01*
X14241500Y-10473000D01*
X14239050Y-10472880D01*
X14236623Y-10472520D01*
X14234243Y-10471924D01*
X14231933Y-10471097D01*
X14229715Y-10470048D01*
X14227611Y-10468787D01*
X14225640Y-10467325D01*
X14223822Y-10465678D01*
X14222175Y-10463860D01*
X14220713Y-10461889D01*
X14219452Y-10459785D01*
X14218403Y-10457567D01*
X14217576Y-10455257D01*
X14216980Y-10452877D01*
X14216620Y-10450450D01*
X14216500Y-10448000D01*
X14216500Y-10328000D01*
X14216620Y-10325550D01*
X14216980Y-10323123D01*
X14217576Y-10320743D01*
X14218403Y-10318433D01*
X14219452Y-10316215D01*
X14220713Y-10314111D01*
X14222175Y-10312140D01*
X14223822Y-10310322D01*
X14225640Y-10308675D01*
X14227611Y-10307213D01*
X14229715Y-10305952D01*
X14231933Y-10304903D01*
X14234243Y-10304077D01*
X14236623Y-10303480D01*
X14239050Y-10303120D01*
X14241500Y-10303000D01*
X14386500Y-10303000D01*
X14388950Y-10303120D01*
X14388950Y-10303120D01*
G37*
D12*
X14314000Y-10388000D03*
D13*
X14314000Y-10638000D03*
X14314000Y-10888000D03*
X14314000Y-11138000D03*
D14*
X14536000Y-10638000D02*
X14314000Y-10638000D01*
X14695000Y-10479000D02*
X14536000Y-10638000D01*
X14695000Y-9106000D02*
X14695000Y-10479000D01*
X14263000Y-8674000D02*
X14695000Y-9106000D01*
X13923000Y-8746000D02*
X13995000Y-8674000D01*
X13995000Y-8674000D02*
X14263000Y-8674000D01*
D15*
G36*
X16317000Y-9625951D02*
G01*
X14584355Y-11479000D01*
X13370135Y-11479000D01*
X13025532Y-11138000D01*
X14152281Y-11138000D01*
X14155149Y-11167111D01*
X14163640Y-11195103D01*
X14177429Y-11220901D01*
X14195987Y-11243513D01*
X14218599Y-11262071D01*
X14244397Y-11275860D01*
X14272389Y-11284351D01*
X14294205Y-11286500D01*
X14333795Y-11286500D01*
X14355611Y-11284351D01*
X14383603Y-11275860D01*
X14409401Y-11262071D01*
X14432013Y-11243513D01*
X14450571Y-11220901D01*
X14464360Y-11195103D01*
X14472851Y-11167111D01*
X14475718Y-11138000D01*
X14472851Y-11108889D01*
X14464360Y-11080897D01*
X14450571Y-11055099D01*
X14432013Y-11032487D01*
X14409401Y-11013929D01*
X14406828Y-11012554D01*
X14427443Y-10996905D01*
X14446750Y-10975119D01*
X14461435Y-10949986D01*
X14470648Y-10923689D01*
X14458515Y-10900700D01*
X14326700Y-10900700D01*
X14326700Y-10902700D01*
X14301300Y-10902700D01*
X14301300Y-10900700D01*
X14169484Y-10900700D01*
X14157352Y-10923689D01*
X14166565Y-10949986D01*
X14181250Y-10975119D01*
X14200557Y-10996905D01*
X14221172Y-11012554D01*
X14218599Y-11013929D01*
X14195987Y-11032487D01*
X14177429Y-11055099D01*
X14163640Y-11080897D01*
X14155149Y-11108889D01*
X14152281Y-11138000D01*
X13025532Y-11138000D01*
X11496000Y-9624459D01*
X11496000Y-8977987D01*
X11776500Y-8977987D01*
X11776500Y-9022013D01*
X11785089Y-9065193D01*
X11801937Y-9105867D01*
X11826396Y-9142473D01*
X11857527Y-9173604D01*
X11894133Y-9198063D01*
X11934807Y-9214911D01*
X11977987Y-9223500D01*
X12022013Y-9223500D01*
X12065192Y-9214911D01*
X12105867Y-9198063D01*
X12142473Y-9173604D01*
X12173604Y-9142473D01*
X12198063Y-9105867D01*
X12214911Y-9065193D01*
X12223500Y-9022013D01*
X12223500Y-8986654D01*
X13533500Y-8986654D01*
X13533500Y-9013346D01*
X13538707Y-9039524D01*
X13548921Y-9064183D01*
X13563750Y-9086376D01*
X13582624Y-9105250D01*
X13604817Y-9120079D01*
X13629476Y-9130293D01*
X13655654Y-9135500D01*
X13682346Y-9135500D01*
X13708524Y-9130293D01*
X13733183Y-9120079D01*
X13755376Y-9105250D01*
X13767070Y-9093556D01*
X14101404Y-9093556D01*
X14107593Y-9117137D01*
X14131779Y-9128427D01*
X14157703Y-9134781D01*
X14184368Y-9135956D01*
X14210750Y-9131906D01*
X14235835Y-9122788D01*
X14246407Y-9117137D01*
X14252595Y-9093556D01*
X14177000Y-9017961D01*
X14101404Y-9093556D01*
X13767070Y-9093556D01*
X13774250Y-9086376D01*
X13789078Y-9064183D01*
X13799293Y-9039524D01*
X13804500Y-9013346D01*
X13804500Y-9007368D01*
X14041044Y-9007368D01*
X14045094Y-9033750D01*
X14054212Y-9058835D01*
X14059863Y-9069407D01*
X14083444Y-9075596D01*
X14159039Y-9000000D01*
X14194960Y-9000000D01*
X14270556Y-9075596D01*
X14294137Y-9069407D01*
X14305427Y-9045221D01*
X14311781Y-9019297D01*
X14312956Y-8992632D01*
X14308906Y-8966250D01*
X14299787Y-8941165D01*
X14294137Y-8930593D01*
X14270556Y-8924405D01*
X14194960Y-9000000D01*
X14159039Y-9000000D01*
X14083444Y-8924405D01*
X14059863Y-8930593D01*
X14048573Y-8954779D01*
X14042219Y-8980703D01*
X14041044Y-9007368D01*
X13804500Y-9007368D01*
X13804500Y-8986654D01*
X13799293Y-8960476D01*
X13789078Y-8935817D01*
X13774250Y-8913624D01*
X13767070Y-8906444D01*
X14101404Y-8906444D01*
X14177000Y-8982040D01*
X14252595Y-8906444D01*
X14246407Y-8882863D01*
X14222221Y-8871573D01*
X14196297Y-8865219D01*
X14169632Y-8864044D01*
X14143250Y-8868094D01*
X14118165Y-8877213D01*
X14107593Y-8882863D01*
X14101404Y-8906444D01*
X13767070Y-8906444D01*
X13755376Y-8894750D01*
X13733183Y-8879922D01*
X13708524Y-8869707D01*
X13682346Y-8864500D01*
X13655654Y-8864500D01*
X13629476Y-8869707D01*
X13604817Y-8879922D01*
X13582624Y-8894750D01*
X13563750Y-8913624D01*
X13548921Y-8935817D01*
X13538707Y-8960476D01*
X13533500Y-8986654D01*
X12223500Y-8986654D01*
X12223500Y-8977987D01*
X12214911Y-8934808D01*
X12198063Y-8894133D01*
X12173604Y-8857527D01*
X12142473Y-8826396D01*
X12105867Y-8801937D01*
X12065192Y-8785089D01*
X12022013Y-8776500D01*
X11977987Y-8776500D01*
X11934807Y-8785089D01*
X11894133Y-8801937D01*
X11857527Y-8826396D01*
X11826396Y-8857527D01*
X11801937Y-8894133D01*
X11785089Y-8934808D01*
X11776500Y-8977987D01*
X11496000Y-8977987D01*
X11496000Y-8732654D01*
X13787500Y-8732654D01*
X13787500Y-8759346D01*
X13792707Y-8785524D01*
X13802921Y-8810183D01*
X13817750Y-8832376D01*
X13836624Y-8851250D01*
X13858817Y-8866079D01*
X13883476Y-8876293D01*
X13909654Y-8881500D01*
X13936346Y-8881500D01*
X13962524Y-8876293D01*
X13987183Y-8866079D01*
X14009376Y-8851250D01*
X14028250Y-8832376D01*
X14043078Y-8810183D01*
X14046371Y-8802234D01*
X14047605Y-8801000D01*
X14210395Y-8801000D01*
X14568000Y-9158605D01*
X14568000Y-10426395D01*
X14483395Y-10511000D01*
X14449048Y-10511000D01*
X14449296Y-10510796D01*
X14460340Y-10497339D01*
X14468547Y-10481985D01*
X14473601Y-10465325D01*
X14475307Y-10448000D01*
X14475307Y-10328000D01*
X14473601Y-10310675D01*
X14468547Y-10294015D01*
X14460340Y-10278661D01*
X14449296Y-10265204D01*
X14435839Y-10254160D01*
X14420485Y-10245953D01*
X14403825Y-10240899D01*
X14386500Y-10239193D01*
X14241500Y-10239193D01*
X14224175Y-10240899D01*
X14207515Y-10245953D01*
X14192161Y-10254160D01*
X14178704Y-10265204D01*
X14167659Y-10278661D01*
X14159453Y-10294015D01*
X14154399Y-10310675D01*
X14152693Y-10328000D01*
X14152693Y-10448000D01*
X14154399Y-10465325D01*
X14159453Y-10481985D01*
X14167659Y-10497339D01*
X14178704Y-10510796D01*
X14192161Y-10521841D01*
X14202334Y-10527278D01*
X14195987Y-10532487D01*
X14177429Y-10555099D01*
X14163640Y-10580897D01*
X14155149Y-10608889D01*
X14152281Y-10638000D01*
X14155149Y-10667111D01*
X14163640Y-10695103D01*
X14177429Y-10720901D01*
X14195987Y-10743513D01*
X14218599Y-10762071D01*
X14221172Y-10763446D01*
X14200557Y-10779095D01*
X14181250Y-10800881D01*
X14166565Y-10826014D01*
X14157352Y-10852311D01*
X14169484Y-10875300D01*
X14301300Y-10875300D01*
X14301300Y-10873300D01*
X14326700Y-10873300D01*
X14326700Y-10875300D01*
X14458515Y-10875300D01*
X14470648Y-10852311D01*
X14461435Y-10826014D01*
X14446750Y-10800881D01*
X14427443Y-10779095D01*
X14408875Y-10765000D01*
X14529763Y-10765000D01*
X14536000Y-10765614D01*
X14542237Y-10765000D01*
X14542238Y-10765000D01*
X14560896Y-10763162D01*
X14584836Y-10755900D01*
X14606899Y-10744108D01*
X14626237Y-10728237D01*
X14630214Y-10723391D01*
X14780391Y-10573214D01*
X14785237Y-10569237D01*
X14801107Y-10549899D01*
X14812900Y-10527836D01*
X14820162Y-10503896D01*
X14822000Y-10485238D01*
X14822614Y-10479000D01*
X14822000Y-10472762D01*
X14822000Y-9112237D01*
X14822614Y-9106000D01*
X14822000Y-9099763D01*
X14822000Y-9099762D01*
X14820162Y-9081104D01*
X14812900Y-9057164D01*
X14801107Y-9035101D01*
X14785237Y-9015763D01*
X14780391Y-9011786D01*
X14746592Y-8977987D01*
X15576500Y-8977987D01*
X15576500Y-9022013D01*
X15585089Y-9065193D01*
X15601937Y-9105867D01*
X15626396Y-9142473D01*
X15657527Y-9173604D01*
X15694133Y-9198063D01*
X15734807Y-9214911D01*
X15777987Y-9223500D01*
X15822013Y-9223500D01*
X15865192Y-9214911D01*
X15905867Y-9198063D01*
X15942473Y-9173604D01*
X15973604Y-9142473D01*
X15998063Y-9105867D01*
X16014911Y-9065193D01*
X16023500Y-9022013D01*
X16023500Y-8977987D01*
X16014911Y-8934808D01*
X15998063Y-8894133D01*
X15973604Y-8857527D01*
X15942473Y-8826396D01*
X15905867Y-8801937D01*
X15865192Y-8785089D01*
X15822013Y-8776500D01*
X15777987Y-8776500D01*
X15734807Y-8785089D01*
X15694133Y-8801937D01*
X15657527Y-8826396D01*
X15626396Y-8857527D01*
X15601937Y-8894133D01*
X15585089Y-8934808D01*
X15576500Y-8977987D01*
X14746592Y-8977987D01*
X14357214Y-8588609D01*
X14353237Y-8583763D01*
X14333899Y-8567893D01*
X14311836Y-8556100D01*
X14287896Y-8548838D01*
X14269238Y-8547000D01*
X14269237Y-8547000D01*
X14263000Y-8546386D01*
X14256763Y-8547000D01*
X14001237Y-8547000D01*
X13995000Y-8546386D01*
X13988762Y-8547000D01*
X13988762Y-8547000D01*
X13972675Y-8548585D01*
X13970103Y-8548838D01*
X13962841Y-8551041D01*
X13946164Y-8556100D01*
X13924101Y-8567893D01*
X13904763Y-8583763D01*
X13900786Y-8588609D01*
X13866766Y-8622629D01*
X13858817Y-8625922D01*
X13836624Y-8640750D01*
X13817750Y-8659624D01*
X13802921Y-8681817D01*
X13792707Y-8706476D01*
X13787500Y-8732654D01*
X11496000Y-8732654D01*
X11496000Y-8448000D01*
X16317000Y-8448000D01*
X16317000Y-9625951D01*
X16317000Y-9625951D01*
G37*
X16317000Y-9625951D02*
X14584355Y-11479000D01*
X13370135Y-11479000D01*
X13025532Y-11138000D01*
X14152281Y-11138000D01*
X14155149Y-11167111D01*
X14163640Y-11195103D01*
X14177429Y-11220901D01*
X14195987Y-11243513D01*
X14218599Y-11262071D01*
X14244397Y-11275860D01*
X14272389Y-11284351D01*
X14294205Y-11286500D01*
X14333795Y-11286500D01*
X14355611Y-11284351D01*
X14383603Y-11275860D01*
X14409401Y-11262071D01*
X14432013Y-11243513D01*
X14450571Y-11220901D01*
X14464360Y-11195103D01*
X14472851Y-11167111D01*
X14475718Y-11138000D01*
X14472851Y-11108889D01*
X14464360Y-11080897D01*
X14450571Y-11055099D01*
X14432013Y-11032487D01*
X14409401Y-11013929D01*
X14406828Y-11012554D01*
X14427443Y-10996905D01*
X14446750Y-10975119D01*
X14461435Y-10949986D01*
X14470648Y-10923689D01*
X14458515Y-10900700D01*
X14326700Y-10900700D01*
X14326700Y-10902700D01*
X14301300Y-10902700D01*
X14301300Y-10900700D01*
X14169484Y-10900700D01*
X14157352Y-10923689D01*
X14166565Y-10949986D01*
X14181250Y-10975119D01*
X14200557Y-10996905D01*
X14221172Y-11012554D01*
X14218599Y-11013929D01*
X14195987Y-11032487D01*
X14177429Y-11055099D01*
X14163640Y-11080897D01*
X14155149Y-11108889D01*
X14152281Y-11138000D01*
X13025532Y-11138000D01*
X11496000Y-9624459D01*
X11496000Y-8977987D01*
X11776500Y-8977987D01*
X11776500Y-9022013D01*
X11785089Y-9065193D01*
X11801937Y-9105867D01*
X11826396Y-9142473D01*
X11857527Y-9173604D01*
X11894133Y-9198063D01*
X11934807Y-9214911D01*
X11977987Y-9223500D01*
X12022013Y-9223500D01*
X12065192Y-9214911D01*
X12105867Y-9198063D01*
X12142473Y-9173604D01*
X12173604Y-9142473D01*
X12198063Y-9105867D01*
X12214911Y-9065193D01*
X12223500Y-9022013D01*
X12223500Y-8986654D01*
X13533500Y-8986654D01*
X13533500Y-9013346D01*
X13538707Y-9039524D01*
X13548921Y-9064183D01*
X13563750Y-9086376D01*
X13582624Y-9105250D01*
X13604817Y-9120079D01*
X13629476Y-9130293D01*
X13655654Y-9135500D01*
X13682346Y-9135500D01*
X13708524Y-9130293D01*
X13733183Y-9120079D01*
X13755376Y-9105250D01*
X13767070Y-9093556D01*
X14101404Y-9093556D01*
X14107593Y-9117137D01*
X14131779Y-9128427D01*
X14157703Y-9134781D01*
X14184368Y-9135956D01*
X14210750Y-9131906D01*
X14235835Y-9122788D01*
X14246407Y-9117137D01*
X14252595Y-9093556D01*
X14177000Y-9017961D01*
X14101404Y-9093556D01*
X13767070Y-9093556D01*
X13774250Y-9086376D01*
X13789078Y-9064183D01*
X13799293Y-9039524D01*
X13804500Y-9013346D01*
X13804500Y-9007368D01*
X14041044Y-9007368D01*
X14045094Y-9033750D01*
X14054212Y-9058835D01*
X14059863Y-9069407D01*
X14083444Y-9075596D01*
X14159039Y-9000000D01*
X14194960Y-9000000D01*
X14270556Y-9075596D01*
X14294137Y-9069407D01*
X14305427Y-9045221D01*
X14311781Y-9019297D01*
X14312956Y-8992632D01*
X14308906Y-8966250D01*
X14299787Y-8941165D01*
X14294137Y-8930593D01*
X14270556Y-8924405D01*
X14194960Y-9000000D01*
X14159039Y-9000000D01*
X14083444Y-8924405D01*
X14059863Y-8930593D01*
X14048573Y-8954779D01*
X14042219Y-8980703D01*
X14041044Y-9007368D01*
X13804500Y-9007368D01*
X13804500Y-8986654D01*
X13799293Y-8960476D01*
X13789078Y-8935817D01*
X13774250Y-8913624D01*
X13767070Y-8906444D01*
X14101404Y-8906444D01*
X14177000Y-8982040D01*
X14252595Y-8906444D01*
X14246407Y-8882863D01*
X14222221Y-8871573D01*
X14196297Y-8865219D01*
X14169632Y-8864044D01*
X14143250Y-8868094D01*
X14118165Y-8877213D01*
X14107593Y-8882863D01*
X14101404Y-8906444D01*
X13767070Y-8906444D01*
X13755376Y-8894750D01*
X13733183Y-8879922D01*
X13708524Y-8869707D01*
X13682346Y-8864500D01*
X13655654Y-8864500D01*
X13629476Y-8869707D01*
X13604817Y-8879922D01*
X13582624Y-8894750D01*
X13563750Y-8913624D01*
X13548921Y-8935817D01*
X13538707Y-8960476D01*
X13533500Y-8986654D01*
X12223500Y-8986654D01*
X12223500Y-8977987D01*
X12214911Y-8934808D01*
X12198063Y-8894133D01*
X12173604Y-8857527D01*
X12142473Y-8826396D01*
X12105867Y-8801937D01*
X12065192Y-8785089D01*
X12022013Y-8776500D01*
X11977987Y-8776500D01*
X11934807Y-8785089D01*
X11894133Y-8801937D01*
X11857527Y-8826396D01*
X11826396Y-8857527D01*
X11801937Y-8894133D01*
X11785089Y-8934808D01*
X11776500Y-8977987D01*
X11496000Y-8977987D01*
X11496000Y-8732654D01*
X13787500Y-8732654D01*
X13787500Y-8759346D01*
X13792707Y-8785524D01*
X13802921Y-8810183D01*
X13817750Y-8832376D01*
X13836624Y-8851250D01*
X13858817Y-8866079D01*
X13883476Y-8876293D01*
X13909654Y-8881500D01*
X13936346Y-8881500D01*
X13962524Y-8876293D01*
X13987183Y-8866079D01*
X14009376Y-8851250D01*
X14028250Y-8832376D01*
X14043078Y-8810183D01*
X14046371Y-8802234D01*
X14047605Y-8801000D01*
X14210395Y-8801000D01*
X14568000Y-9158605D01*
X14568000Y-10426395D01*
X14483395Y-10511000D01*
X14449048Y-10511000D01*
X14449296Y-10510796D01*
X14460340Y-10497339D01*
X14468547Y-10481985D01*
X14473601Y-10465325D01*
X14475307Y-10448000D01*
X14475307Y-10328000D01*
X14473601Y-10310675D01*
X14468547Y-10294015D01*
X14460340Y-10278661D01*
X14449296Y-10265204D01*
X14435839Y-10254160D01*
X14420485Y-10245953D01*
X14403825Y-10240899D01*
X14386500Y-10239193D01*
X14241500Y-10239193D01*
X14224175Y-10240899D01*
X14207515Y-10245953D01*
X14192161Y-10254160D01*
X14178704Y-10265204D01*
X14167659Y-10278661D01*
X14159453Y-10294015D01*
X14154399Y-10310675D01*
X14152693Y-10328000D01*
X14152693Y-10448000D01*
X14154399Y-10465325D01*
X14159453Y-10481985D01*
X14167659Y-10497339D01*
X14178704Y-10510796D01*
X14192161Y-10521841D01*
X14202334Y-10527278D01*
X14195987Y-10532487D01*
X14177429Y-10555099D01*
X14163640Y-10580897D01*
X14155149Y-10608889D01*
X14152281Y-10638000D01*
X14155149Y-10667111D01*
X14163640Y-10695103D01*
X14177429Y-10720901D01*
X14195987Y-10743513D01*
X14218599Y-10762071D01*
X14221172Y-10763446D01*
X14200557Y-10779095D01*
X14181250Y-10800881D01*
X14166565Y-10826014D01*
X14157352Y-10852311D01*
X14169484Y-10875300D01*
X14301300Y-10875300D01*
X14301300Y-10873300D01*
X14326700Y-10873300D01*
X14326700Y-10875300D01*
X14458515Y-10875300D01*
X14470648Y-10852311D01*
X14461435Y-10826014D01*
X14446750Y-10800881D01*
X14427443Y-10779095D01*
X14408875Y-10765000D01*
X14529763Y-10765000D01*
X14536000Y-10765614D01*
X14542237Y-10765000D01*
X14542238Y-10765000D01*
X14560896Y-10763162D01*
X14584836Y-10755900D01*
X14606899Y-10744108D01*
X14626237Y-10728237D01*
X14630214Y-10723391D01*
X14780391Y-10573214D01*
X14785237Y-10569237D01*
X14801107Y-10549899D01*
X14812900Y-10527836D01*
X14820162Y-10503896D01*
X14822000Y-10485238D01*
X14822614Y-10479000D01*
X14822000Y-10472762D01*
X14822000Y-9112237D01*
X14822614Y-9106000D01*
X14822000Y-9099763D01*
X14822000Y-9099762D01*
X14820162Y-9081104D01*
X14812900Y-9057164D01*
X14801107Y-9035101D01*
X14785237Y-9015763D01*
X14780391Y-9011786D01*
X14746592Y-8977987D01*
X15576500Y-8977987D01*
X15576500Y-9022013D01*
X15585089Y-9065193D01*
X15601937Y-9105867D01*
X15626396Y-9142473D01*
X15657527Y-9173604D01*
X15694133Y-9198063D01*
X15734807Y-9214911D01*
X15777987Y-9223500D01*
X15822013Y-9223500D01*
X15865192Y-9214911D01*
X15905867Y-9198063D01*
X15942473Y-9173604D01*
X15973604Y-9142473D01*
X15998063Y-9105867D01*
X16014911Y-9065193D01*
X16023500Y-9022013D01*
X16023500Y-8977987D01*
X16014911Y-8934808D01*
X15998063Y-8894133D01*
X15973604Y-8857527D01*
X15942473Y-8826396D01*
X15905867Y-8801937D01*
X15865192Y-8785089D01*
X15822013Y-8776500D01*
X15777987Y-8776500D01*
X15734807Y-8785089D01*
X15694133Y-8801937D01*
X15657527Y-8826396D01*
X15626396Y-8857527D01*
X15601937Y-8894133D01*
X15585089Y-8934808D01*
X15576500Y-8977987D01*
X14746592Y-8977987D01*
X14357214Y-8588609D01*
X14353237Y-8583763D01*
X14333899Y-8567893D01*
X14311836Y-8556100D01*
X14287896Y-8548838D01*
X14269238Y-8547000D01*
X14269237Y-8547000D01*
X14263000Y-8546386D01*
X14256763Y-8547000D01*
X14001237Y-8547000D01*
X13995000Y-8546386D01*
X13988762Y-8547000D01*
X13988762Y-8547000D01*
X13972675Y-8548585D01*
X13970103Y-8548838D01*
X13962841Y-8551041D01*
X13946164Y-8556100D01*
X13924101Y-8567893D01*
X13904763Y-8583763D01*
X13900786Y-8588609D01*
X13866766Y-8622629D01*
X13858817Y-8625922D01*
X13836624Y-8640750D01*
X13817750Y-8659624D01*
X13802921Y-8681817D01*
X13792707Y-8706476D01*
X13787500Y-8732654D01*
X11496000Y-8732654D01*
X11496000Y-8448000D01*
X16317000Y-8448000D01*
X16317000Y-9625951D01*
M02*
