G04 #@! TF.GenerationSoftware,KiCad,Pcbnew,(5.1.2)-2*
G04 #@! TF.CreationDate,2020-01-30T12:43:26+01:00*
G04 #@! TF.ProjectId,SteeringAngleSensor,53746565-7269-46e6-9741-6e676c655365,rev?*
G04 #@! TF.SameCoordinates,Original*
G04 #@! TF.FileFunction,Soldermask,Bot*
G04 #@! TF.FilePolarity,Negative*
%FSLAX45Y45*%
G04 Gerber Fmt 4.5, Leading zero omitted, Abs format (unit mm)*
G04 Created by KiCad (PCBNEW (5.1.2)-2) date 2020-01-30 12:43:26*
%MOMM*%
%LPD*%
G04 APERTURE LIST*
%ADD10C,0.100000*%
G04 APERTURE END LIST*
D10*
G36*
X15837526Y-8839130D02*
G01*
X15848158Y-8841245D01*
X15878204Y-8853690D01*
X15905245Y-8871759D01*
X15928241Y-8894755D01*
X15946310Y-8921796D01*
X15958345Y-8950852D01*
X15958755Y-8951842D01*
X15965100Y-8983739D01*
X15965100Y-9016261D01*
X15963861Y-9022489D01*
X15958755Y-9048158D01*
X15946310Y-9078204D01*
X15928241Y-9105245D01*
X15905245Y-9128242D01*
X15878204Y-9146310D01*
X15848158Y-9158755D01*
X15837526Y-9160870D01*
X15816261Y-9165100D01*
X15783739Y-9165100D01*
X15762474Y-9160870D01*
X15751842Y-9158755D01*
X15721796Y-9146310D01*
X15694755Y-9128242D01*
X15671758Y-9105245D01*
X15653690Y-9078204D01*
X15641245Y-9048158D01*
X15636139Y-9022489D01*
X15634900Y-9016261D01*
X15634900Y-8983739D01*
X15641245Y-8951842D01*
X15641655Y-8950852D01*
X15653690Y-8921796D01*
X15671758Y-8894755D01*
X15694755Y-8871759D01*
X15721796Y-8853690D01*
X15751842Y-8841245D01*
X15762474Y-8839130D01*
X15783739Y-8834900D01*
X15816261Y-8834900D01*
X15837526Y-8839130D01*
X15837526Y-8839130D01*
G37*
G36*
X12037526Y-8839130D02*
G01*
X12048158Y-8841245D01*
X12078204Y-8853690D01*
X12105245Y-8871759D01*
X12128241Y-8894755D01*
X12146310Y-8921796D01*
X12158345Y-8950852D01*
X12158755Y-8951842D01*
X12165100Y-8983739D01*
X12165100Y-9016261D01*
X12163861Y-9022489D01*
X12158755Y-9048158D01*
X12146310Y-9078204D01*
X12128241Y-9105245D01*
X12105245Y-9128242D01*
X12078204Y-9146310D01*
X12048158Y-9158755D01*
X12037526Y-9160870D01*
X12016261Y-9165100D01*
X11983739Y-9165100D01*
X11962474Y-9160870D01*
X11951842Y-9158755D01*
X11921796Y-9146310D01*
X11894755Y-9128242D01*
X11871758Y-9105245D01*
X11853690Y-9078204D01*
X11841245Y-9048158D01*
X11836139Y-9022489D01*
X11834900Y-9016261D01*
X11834900Y-8983739D01*
X11841245Y-8951842D01*
X11841655Y-8950852D01*
X11853690Y-8921796D01*
X11871758Y-8894755D01*
X11894755Y-8871759D01*
X11921796Y-8853690D01*
X11951842Y-8841245D01*
X11962474Y-8839130D01*
X11983739Y-8834900D01*
X12016261Y-8834900D01*
X12037526Y-8839130D01*
X12037526Y-8839130D01*
G37*
G36*
X14189559Y-8923888D02*
G01*
X14199489Y-8925863D01*
X14213521Y-8931675D01*
X14226148Y-8940113D01*
X14236887Y-8950852D01*
X14245325Y-8963479D01*
X14251137Y-8977511D01*
X14254100Y-8992406D01*
X14254100Y-9007594D01*
X14251137Y-9022489D01*
X14245325Y-9036521D01*
X14236887Y-9049148D01*
X14226148Y-9059888D01*
X14213521Y-9068325D01*
X14199489Y-9074137D01*
X14189559Y-9076112D01*
X14184594Y-9077100D01*
X14169406Y-9077100D01*
X14164441Y-9076112D01*
X14154511Y-9074137D01*
X14140479Y-9068325D01*
X14127852Y-9059888D01*
X14117112Y-9049148D01*
X14108675Y-9036521D01*
X14102863Y-9022489D01*
X14099900Y-9007594D01*
X14099900Y-8992406D01*
X14102863Y-8977511D01*
X14108675Y-8963479D01*
X14117112Y-8950852D01*
X14127852Y-8940113D01*
X14140479Y-8931675D01*
X14154511Y-8925863D01*
X14164441Y-8923888D01*
X14169406Y-8922900D01*
X14184594Y-8922900D01*
X14189559Y-8923888D01*
X14189559Y-8923888D01*
G37*
G36*
X13681559Y-8923888D02*
G01*
X13691489Y-8925863D01*
X13705521Y-8931675D01*
X13718148Y-8940113D01*
X13728887Y-8950852D01*
X13737325Y-8963479D01*
X13743137Y-8977511D01*
X13746100Y-8992406D01*
X13746100Y-9007594D01*
X13743137Y-9022489D01*
X13737325Y-9036521D01*
X13728887Y-9049148D01*
X13718148Y-9059888D01*
X13705521Y-9068325D01*
X13691489Y-9074137D01*
X13681559Y-9076112D01*
X13676594Y-9077100D01*
X13661406Y-9077100D01*
X13656441Y-9076112D01*
X13646511Y-9074137D01*
X13632479Y-9068325D01*
X13619852Y-9059888D01*
X13609112Y-9049148D01*
X13600675Y-9036521D01*
X13594863Y-9022489D01*
X13591900Y-9007594D01*
X13591900Y-8992406D01*
X13594863Y-8977511D01*
X13600675Y-8963479D01*
X13609112Y-8950852D01*
X13619852Y-8940113D01*
X13632479Y-8931675D01*
X13646511Y-8925863D01*
X13656441Y-8923888D01*
X13661406Y-8922900D01*
X13676594Y-8922900D01*
X13681559Y-8923888D01*
X13681559Y-8923888D01*
G37*
G36*
X13935559Y-8669888D02*
G01*
X13945489Y-8671863D01*
X13959521Y-8677675D01*
X13972148Y-8686113D01*
X13982887Y-8696852D01*
X13991325Y-8709479D01*
X13997137Y-8723511D01*
X14000100Y-8738406D01*
X14000100Y-8753594D01*
X13997137Y-8768489D01*
X13991325Y-8782521D01*
X13982887Y-8795148D01*
X13972148Y-8805888D01*
X13959521Y-8814325D01*
X13945489Y-8820137D01*
X13935559Y-8822112D01*
X13930594Y-8823100D01*
X13915406Y-8823100D01*
X13910441Y-8822112D01*
X13900511Y-8820137D01*
X13886479Y-8814325D01*
X13873852Y-8805888D01*
X13863112Y-8795148D01*
X13854675Y-8782521D01*
X13848863Y-8768489D01*
X13845900Y-8753594D01*
X13845900Y-8738406D01*
X13848863Y-8723511D01*
X13854675Y-8709479D01*
X13863112Y-8696852D01*
X13873852Y-8686113D01*
X13886479Y-8677675D01*
X13900511Y-8671863D01*
X13910441Y-8669888D01*
X13915406Y-8668900D01*
X13930594Y-8668900D01*
X13935559Y-8669888D01*
X13935559Y-8669888D01*
G37*
M02*
