G04 #@! TF.GenerationSoftware,KiCad,Pcbnew,(5.1.2)-2*
G04 #@! TF.CreationDate,2020-01-13T15:56:56+01:00*
G04 #@! TF.ProjectId,SteeringAngleSensor,53746565-7269-46e6-9741-6e676c655365,rev?*
G04 #@! TF.SameCoordinates,Original*
G04 #@! TF.FileFunction,Copper,L1,Top*
G04 #@! TF.FilePolarity,Positive*
%FSLAX46Y46*%
G04 Gerber Fmt 4.6, Leading zero omitted, Abs format (unit mm)*
G04 Created by KiCad (PCBNEW (5.1.2)-2) date 2020-01-13 15:56:56*
%MOMM*%
%LPD*%
G04 APERTURE LIST*
%ADD10C,1.440000*%
%ADD11C,0.100000*%
%ADD12C,1.700000*%
%ADD13O,1.950000X1.700000*%
%ADD14C,1.270000*%
%ADD15C,0.254000*%
G04 APERTURE END LIST*
D10*
X141770000Y-90000000D03*
X139230000Y-87460000D03*
X136690000Y-90000000D03*
D11*
G36*
X143889504Y-103031204D02*
G01*
X143913773Y-103034804D01*
X143937571Y-103040765D01*
X143960671Y-103049030D01*
X143982849Y-103059520D01*
X144003893Y-103072133D01*
X144023598Y-103086747D01*
X144041777Y-103103223D01*
X144058253Y-103121402D01*
X144072867Y-103141107D01*
X144085480Y-103162151D01*
X144095970Y-103184329D01*
X144104235Y-103207429D01*
X144110196Y-103231227D01*
X144113796Y-103255496D01*
X144115000Y-103280000D01*
X144115000Y-104480000D01*
X144113796Y-104504504D01*
X144110196Y-104528773D01*
X144104235Y-104552571D01*
X144095970Y-104575671D01*
X144085480Y-104597849D01*
X144072867Y-104618893D01*
X144058253Y-104638598D01*
X144041777Y-104656777D01*
X144023598Y-104673253D01*
X144003893Y-104687867D01*
X143982849Y-104700480D01*
X143960671Y-104710970D01*
X143937571Y-104719235D01*
X143913773Y-104725196D01*
X143889504Y-104728796D01*
X143865000Y-104730000D01*
X142415000Y-104730000D01*
X142390496Y-104728796D01*
X142366227Y-104725196D01*
X142342429Y-104719235D01*
X142319329Y-104710970D01*
X142297151Y-104700480D01*
X142276107Y-104687867D01*
X142256402Y-104673253D01*
X142238223Y-104656777D01*
X142221747Y-104638598D01*
X142207133Y-104618893D01*
X142194520Y-104597849D01*
X142184030Y-104575671D01*
X142175765Y-104552571D01*
X142169804Y-104528773D01*
X142166204Y-104504504D01*
X142165000Y-104480000D01*
X142165000Y-103280000D01*
X142166204Y-103255496D01*
X142169804Y-103231227D01*
X142175765Y-103207429D01*
X142184030Y-103184329D01*
X142194520Y-103162151D01*
X142207133Y-103141107D01*
X142221747Y-103121402D01*
X142238223Y-103103223D01*
X142256402Y-103086747D01*
X142276107Y-103072133D01*
X142297151Y-103059520D01*
X142319329Y-103049030D01*
X142342429Y-103040765D01*
X142366227Y-103034804D01*
X142390496Y-103031204D01*
X142415000Y-103030000D01*
X143865000Y-103030000D01*
X143889504Y-103031204D01*
X143889504Y-103031204D01*
G37*
D12*
X143140000Y-103880000D03*
D13*
X143140000Y-106380000D03*
X143140000Y-108880000D03*
X143140000Y-111380000D03*
D14*
X145360000Y-106380000D02*
X143140000Y-106380000D01*
X146950000Y-104790000D02*
X145360000Y-106380000D01*
X146950000Y-91060000D02*
X146950000Y-104790000D01*
X142630001Y-86740001D02*
X146950000Y-91060000D01*
X139230000Y-87460000D02*
X139949999Y-86740001D01*
X139949999Y-86740001D02*
X142630001Y-86740001D01*
D15*
G36*
X163170001Y-96259507D02*
G01*
X145843550Y-114790000D01*
X133701352Y-114790000D01*
X130255325Y-111380000D01*
X141522815Y-111380000D01*
X141551487Y-111671111D01*
X141636401Y-111951034D01*
X141774294Y-112209014D01*
X141959866Y-112435134D01*
X142185986Y-112620706D01*
X142443966Y-112758599D01*
X142723889Y-112843513D01*
X142942050Y-112865000D01*
X143337950Y-112865000D01*
X143556111Y-112843513D01*
X143836034Y-112758599D01*
X144094014Y-112620706D01*
X144320134Y-112435134D01*
X144505706Y-112209014D01*
X144643599Y-111951034D01*
X144728513Y-111671111D01*
X144757185Y-111380000D01*
X144728513Y-111088889D01*
X144643599Y-110808966D01*
X144505706Y-110550986D01*
X144320134Y-110324866D01*
X144094014Y-110139294D01*
X144068278Y-110125538D01*
X144274429Y-109969049D01*
X144467496Y-109751193D01*
X144614352Y-109499858D01*
X144706476Y-109236890D01*
X144585155Y-109007000D01*
X143267000Y-109007000D01*
X143267000Y-109027000D01*
X143013000Y-109027000D01*
X143013000Y-109007000D01*
X141694845Y-109007000D01*
X141573524Y-109236890D01*
X141665648Y-109499858D01*
X141812504Y-109751193D01*
X142005571Y-109969049D01*
X142211722Y-110125538D01*
X142185986Y-110139294D01*
X141959866Y-110324866D01*
X141774294Y-110550986D01*
X141636401Y-110808966D01*
X141551487Y-111088889D01*
X141522815Y-111380000D01*
X130255325Y-111380000D01*
X114960000Y-96244586D01*
X114960000Y-89779872D01*
X117765000Y-89779872D01*
X117765000Y-90220128D01*
X117850890Y-90651925D01*
X118019369Y-91058669D01*
X118263962Y-91424729D01*
X118575271Y-91736038D01*
X118941331Y-91980631D01*
X119348075Y-92149110D01*
X119779872Y-92235000D01*
X120220128Y-92235000D01*
X120651925Y-92149110D01*
X121058669Y-91980631D01*
X121424729Y-91736038D01*
X121736038Y-91424729D01*
X121980631Y-91058669D01*
X122149110Y-90651925D01*
X122235000Y-90220128D01*
X122235000Y-89866544D01*
X135335000Y-89866544D01*
X135335000Y-90133456D01*
X135387072Y-90395239D01*
X135489215Y-90641833D01*
X135637503Y-90863762D01*
X135826238Y-91052497D01*
X136048167Y-91200785D01*
X136294761Y-91302928D01*
X136556544Y-91355000D01*
X136823456Y-91355000D01*
X137085239Y-91302928D01*
X137331833Y-91200785D01*
X137553762Y-91052497D01*
X137670699Y-90935560D01*
X141014045Y-90935560D01*
X141075932Y-91171368D01*
X141317790Y-91284266D01*
X141577027Y-91347811D01*
X141843680Y-91359561D01*
X142107501Y-91319063D01*
X142358353Y-91227875D01*
X142464068Y-91171368D01*
X142525955Y-90935560D01*
X141770000Y-90179605D01*
X141014045Y-90935560D01*
X137670699Y-90935560D01*
X137742497Y-90863762D01*
X137890785Y-90641833D01*
X137992928Y-90395239D01*
X138045000Y-90133456D01*
X138045000Y-90073680D01*
X140410439Y-90073680D01*
X140450937Y-90337501D01*
X140542125Y-90588353D01*
X140598632Y-90694068D01*
X140834440Y-90755955D01*
X141590395Y-90000000D01*
X141949605Y-90000000D01*
X142705560Y-90755955D01*
X142941368Y-90694068D01*
X143054266Y-90452210D01*
X143117811Y-90192973D01*
X143129561Y-89926320D01*
X143089063Y-89662499D01*
X142997875Y-89411647D01*
X142941368Y-89305932D01*
X142705560Y-89244045D01*
X141949605Y-90000000D01*
X141590395Y-90000000D01*
X140834440Y-89244045D01*
X140598632Y-89305932D01*
X140485734Y-89547790D01*
X140422189Y-89807027D01*
X140410439Y-90073680D01*
X138045000Y-90073680D01*
X138045000Y-89866544D01*
X137992928Y-89604761D01*
X137890785Y-89358167D01*
X137742497Y-89136238D01*
X137670699Y-89064440D01*
X141014045Y-89064440D01*
X141770000Y-89820395D01*
X142525955Y-89064440D01*
X142464068Y-88828632D01*
X142222210Y-88715734D01*
X141962973Y-88652189D01*
X141696320Y-88640439D01*
X141432499Y-88680937D01*
X141181647Y-88772125D01*
X141075932Y-88828632D01*
X141014045Y-89064440D01*
X137670699Y-89064440D01*
X137553762Y-88947503D01*
X137331833Y-88799215D01*
X137085239Y-88697072D01*
X136823456Y-88645000D01*
X136556544Y-88645000D01*
X136294761Y-88697072D01*
X136048167Y-88799215D01*
X135826238Y-88947503D01*
X135637503Y-89136238D01*
X135489215Y-89358167D01*
X135387072Y-89604761D01*
X135335000Y-89866544D01*
X122235000Y-89866544D01*
X122235000Y-89779872D01*
X122149110Y-89348075D01*
X121980631Y-88941331D01*
X121736038Y-88575271D01*
X121424729Y-88263962D01*
X121058669Y-88019369D01*
X120651925Y-87850890D01*
X120220128Y-87765000D01*
X119779872Y-87765000D01*
X119348075Y-87850890D01*
X118941331Y-88019369D01*
X118575271Y-88263962D01*
X118263962Y-88575271D01*
X118019369Y-88941331D01*
X117850890Y-89348075D01*
X117765000Y-89779872D01*
X114960000Y-89779872D01*
X114960000Y-87326544D01*
X137875000Y-87326544D01*
X137875000Y-87593456D01*
X137927072Y-87855239D01*
X138029215Y-88101833D01*
X138177503Y-88323762D01*
X138366238Y-88512497D01*
X138588167Y-88660785D01*
X138834761Y-88762928D01*
X139096544Y-88815000D01*
X139363456Y-88815000D01*
X139625239Y-88762928D01*
X139871833Y-88660785D01*
X140093762Y-88512497D01*
X140282497Y-88323762D01*
X140430785Y-88101833D01*
X140463714Y-88022336D01*
X140476049Y-88010001D01*
X142103951Y-88010001D01*
X145680000Y-91586051D01*
X145680001Y-104263948D01*
X144833950Y-105110000D01*
X144490479Y-105110000D01*
X144492962Y-105107962D01*
X144603405Y-104973386D01*
X144685472Y-104819850D01*
X144736008Y-104653254D01*
X144753072Y-104480000D01*
X144753072Y-103280000D01*
X144736008Y-103106746D01*
X144685472Y-102940150D01*
X144603405Y-102786614D01*
X144492962Y-102652038D01*
X144358386Y-102541595D01*
X144204850Y-102459528D01*
X144038254Y-102408992D01*
X143865000Y-102391928D01*
X142415000Y-102391928D01*
X142241746Y-102408992D01*
X142075150Y-102459528D01*
X141921614Y-102541595D01*
X141787038Y-102652038D01*
X141676595Y-102786614D01*
X141594528Y-102940150D01*
X141543992Y-103106746D01*
X141526928Y-103280000D01*
X141526928Y-104480000D01*
X141543992Y-104653254D01*
X141594528Y-104819850D01*
X141676595Y-104973386D01*
X141787038Y-105107962D01*
X141921614Y-105218405D01*
X142023337Y-105272777D01*
X141959866Y-105324866D01*
X141774294Y-105550986D01*
X141636401Y-105808966D01*
X141551487Y-106088889D01*
X141522815Y-106380000D01*
X141551487Y-106671111D01*
X141636401Y-106951034D01*
X141774294Y-107209014D01*
X141959866Y-107435134D01*
X142185986Y-107620706D01*
X142211722Y-107634462D01*
X142005571Y-107790951D01*
X141812504Y-108008807D01*
X141665648Y-108260142D01*
X141573524Y-108523110D01*
X141694845Y-108753000D01*
X143013000Y-108753000D01*
X143013000Y-108733000D01*
X143267000Y-108733000D01*
X143267000Y-108753000D01*
X144585155Y-108753000D01*
X144706476Y-108523110D01*
X144614352Y-108260142D01*
X144467496Y-108008807D01*
X144274429Y-107790951D01*
X144088747Y-107650000D01*
X145297627Y-107650000D01*
X145360000Y-107656143D01*
X145422373Y-107650000D01*
X145422380Y-107650000D01*
X145608963Y-107631623D01*
X145848359Y-107559003D01*
X146068988Y-107441075D01*
X146262370Y-107282370D01*
X146302141Y-107233909D01*
X147803914Y-105732137D01*
X147852370Y-105692370D01*
X148011075Y-105498988D01*
X148129003Y-105278359D01*
X148201623Y-105038963D01*
X148220000Y-104852380D01*
X148226144Y-104790000D01*
X148220000Y-104727620D01*
X148220000Y-91122372D01*
X148226143Y-91059999D01*
X148220000Y-90997626D01*
X148220000Y-90997620D01*
X148201623Y-90811037D01*
X148129003Y-90571641D01*
X148011075Y-90351012D01*
X147852370Y-90157630D01*
X147803915Y-90117864D01*
X147465923Y-89779872D01*
X155765000Y-89779872D01*
X155765000Y-90220128D01*
X155850890Y-90651925D01*
X156019369Y-91058669D01*
X156263962Y-91424729D01*
X156575271Y-91736038D01*
X156941331Y-91980631D01*
X157348075Y-92149110D01*
X157779872Y-92235000D01*
X158220128Y-92235000D01*
X158651925Y-92149110D01*
X159058669Y-91980631D01*
X159424729Y-91736038D01*
X159736038Y-91424729D01*
X159980631Y-91058669D01*
X160149110Y-90651925D01*
X160235000Y-90220128D01*
X160235000Y-89779872D01*
X160149110Y-89348075D01*
X159980631Y-88941331D01*
X159736038Y-88575271D01*
X159424729Y-88263962D01*
X159058669Y-88019369D01*
X158651925Y-87850890D01*
X158220128Y-87765000D01*
X157779872Y-87765000D01*
X157348075Y-87850890D01*
X156941331Y-88019369D01*
X156575271Y-88263962D01*
X156263962Y-88575271D01*
X156019369Y-88941331D01*
X155850890Y-89348075D01*
X155765000Y-89779872D01*
X147465923Y-89779872D01*
X143572142Y-85886092D01*
X143532371Y-85837631D01*
X143338989Y-85678926D01*
X143118360Y-85560998D01*
X142878964Y-85488378D01*
X142692381Y-85470001D01*
X142692374Y-85470001D01*
X142630001Y-85463858D01*
X142567628Y-85470001D01*
X140012371Y-85470001D01*
X139949998Y-85463858D01*
X139887625Y-85470001D01*
X139887619Y-85470001D01*
X139726754Y-85485845D01*
X139701035Y-85488378D01*
X139628415Y-85510407D01*
X139461640Y-85560998D01*
X139241011Y-85678926D01*
X139047629Y-85837631D01*
X139007858Y-85886092D01*
X138667664Y-86226286D01*
X138588167Y-86259215D01*
X138366238Y-86407503D01*
X138177503Y-86596238D01*
X138029215Y-86818167D01*
X137927072Y-87064761D01*
X137875000Y-87326544D01*
X114960000Y-87326544D01*
X114960000Y-84480000D01*
X163170000Y-84480000D01*
X163170001Y-96259507D01*
X163170001Y-96259507D01*
G37*
X163170001Y-96259507D02*
X145843550Y-114790000D01*
X133701352Y-114790000D01*
X130255325Y-111380000D01*
X141522815Y-111380000D01*
X141551487Y-111671111D01*
X141636401Y-111951034D01*
X141774294Y-112209014D01*
X141959866Y-112435134D01*
X142185986Y-112620706D01*
X142443966Y-112758599D01*
X142723889Y-112843513D01*
X142942050Y-112865000D01*
X143337950Y-112865000D01*
X143556111Y-112843513D01*
X143836034Y-112758599D01*
X144094014Y-112620706D01*
X144320134Y-112435134D01*
X144505706Y-112209014D01*
X144643599Y-111951034D01*
X144728513Y-111671111D01*
X144757185Y-111380000D01*
X144728513Y-111088889D01*
X144643599Y-110808966D01*
X144505706Y-110550986D01*
X144320134Y-110324866D01*
X144094014Y-110139294D01*
X144068278Y-110125538D01*
X144274429Y-109969049D01*
X144467496Y-109751193D01*
X144614352Y-109499858D01*
X144706476Y-109236890D01*
X144585155Y-109007000D01*
X143267000Y-109007000D01*
X143267000Y-109027000D01*
X143013000Y-109027000D01*
X143013000Y-109007000D01*
X141694845Y-109007000D01*
X141573524Y-109236890D01*
X141665648Y-109499858D01*
X141812504Y-109751193D01*
X142005571Y-109969049D01*
X142211722Y-110125538D01*
X142185986Y-110139294D01*
X141959866Y-110324866D01*
X141774294Y-110550986D01*
X141636401Y-110808966D01*
X141551487Y-111088889D01*
X141522815Y-111380000D01*
X130255325Y-111380000D01*
X114960000Y-96244586D01*
X114960000Y-89779872D01*
X117765000Y-89779872D01*
X117765000Y-90220128D01*
X117850890Y-90651925D01*
X118019369Y-91058669D01*
X118263962Y-91424729D01*
X118575271Y-91736038D01*
X118941331Y-91980631D01*
X119348075Y-92149110D01*
X119779872Y-92235000D01*
X120220128Y-92235000D01*
X120651925Y-92149110D01*
X121058669Y-91980631D01*
X121424729Y-91736038D01*
X121736038Y-91424729D01*
X121980631Y-91058669D01*
X122149110Y-90651925D01*
X122235000Y-90220128D01*
X122235000Y-89866544D01*
X135335000Y-89866544D01*
X135335000Y-90133456D01*
X135387072Y-90395239D01*
X135489215Y-90641833D01*
X135637503Y-90863762D01*
X135826238Y-91052497D01*
X136048167Y-91200785D01*
X136294761Y-91302928D01*
X136556544Y-91355000D01*
X136823456Y-91355000D01*
X137085239Y-91302928D01*
X137331833Y-91200785D01*
X137553762Y-91052497D01*
X137670699Y-90935560D01*
X141014045Y-90935560D01*
X141075932Y-91171368D01*
X141317790Y-91284266D01*
X141577027Y-91347811D01*
X141843680Y-91359561D01*
X142107501Y-91319063D01*
X142358353Y-91227875D01*
X142464068Y-91171368D01*
X142525955Y-90935560D01*
X141770000Y-90179605D01*
X141014045Y-90935560D01*
X137670699Y-90935560D01*
X137742497Y-90863762D01*
X137890785Y-90641833D01*
X137992928Y-90395239D01*
X138045000Y-90133456D01*
X138045000Y-90073680D01*
X140410439Y-90073680D01*
X140450937Y-90337501D01*
X140542125Y-90588353D01*
X140598632Y-90694068D01*
X140834440Y-90755955D01*
X141590395Y-90000000D01*
X141949605Y-90000000D01*
X142705560Y-90755955D01*
X142941368Y-90694068D01*
X143054266Y-90452210D01*
X143117811Y-90192973D01*
X143129561Y-89926320D01*
X143089063Y-89662499D01*
X142997875Y-89411647D01*
X142941368Y-89305932D01*
X142705560Y-89244045D01*
X141949605Y-90000000D01*
X141590395Y-90000000D01*
X140834440Y-89244045D01*
X140598632Y-89305932D01*
X140485734Y-89547790D01*
X140422189Y-89807027D01*
X140410439Y-90073680D01*
X138045000Y-90073680D01*
X138045000Y-89866544D01*
X137992928Y-89604761D01*
X137890785Y-89358167D01*
X137742497Y-89136238D01*
X137670699Y-89064440D01*
X141014045Y-89064440D01*
X141770000Y-89820395D01*
X142525955Y-89064440D01*
X142464068Y-88828632D01*
X142222210Y-88715734D01*
X141962973Y-88652189D01*
X141696320Y-88640439D01*
X141432499Y-88680937D01*
X141181647Y-88772125D01*
X141075932Y-88828632D01*
X141014045Y-89064440D01*
X137670699Y-89064440D01*
X137553762Y-88947503D01*
X137331833Y-88799215D01*
X137085239Y-88697072D01*
X136823456Y-88645000D01*
X136556544Y-88645000D01*
X136294761Y-88697072D01*
X136048167Y-88799215D01*
X135826238Y-88947503D01*
X135637503Y-89136238D01*
X135489215Y-89358167D01*
X135387072Y-89604761D01*
X135335000Y-89866544D01*
X122235000Y-89866544D01*
X122235000Y-89779872D01*
X122149110Y-89348075D01*
X121980631Y-88941331D01*
X121736038Y-88575271D01*
X121424729Y-88263962D01*
X121058669Y-88019369D01*
X120651925Y-87850890D01*
X120220128Y-87765000D01*
X119779872Y-87765000D01*
X119348075Y-87850890D01*
X118941331Y-88019369D01*
X118575271Y-88263962D01*
X118263962Y-88575271D01*
X118019369Y-88941331D01*
X117850890Y-89348075D01*
X117765000Y-89779872D01*
X114960000Y-89779872D01*
X114960000Y-87326544D01*
X137875000Y-87326544D01*
X137875000Y-87593456D01*
X137927072Y-87855239D01*
X138029215Y-88101833D01*
X138177503Y-88323762D01*
X138366238Y-88512497D01*
X138588167Y-88660785D01*
X138834761Y-88762928D01*
X139096544Y-88815000D01*
X139363456Y-88815000D01*
X139625239Y-88762928D01*
X139871833Y-88660785D01*
X140093762Y-88512497D01*
X140282497Y-88323762D01*
X140430785Y-88101833D01*
X140463714Y-88022336D01*
X140476049Y-88010001D01*
X142103951Y-88010001D01*
X145680000Y-91586051D01*
X145680001Y-104263948D01*
X144833950Y-105110000D01*
X144490479Y-105110000D01*
X144492962Y-105107962D01*
X144603405Y-104973386D01*
X144685472Y-104819850D01*
X144736008Y-104653254D01*
X144753072Y-104480000D01*
X144753072Y-103280000D01*
X144736008Y-103106746D01*
X144685472Y-102940150D01*
X144603405Y-102786614D01*
X144492962Y-102652038D01*
X144358386Y-102541595D01*
X144204850Y-102459528D01*
X144038254Y-102408992D01*
X143865000Y-102391928D01*
X142415000Y-102391928D01*
X142241746Y-102408992D01*
X142075150Y-102459528D01*
X141921614Y-102541595D01*
X141787038Y-102652038D01*
X141676595Y-102786614D01*
X141594528Y-102940150D01*
X141543992Y-103106746D01*
X141526928Y-103280000D01*
X141526928Y-104480000D01*
X141543992Y-104653254D01*
X141594528Y-104819850D01*
X141676595Y-104973386D01*
X141787038Y-105107962D01*
X141921614Y-105218405D01*
X142023337Y-105272777D01*
X141959866Y-105324866D01*
X141774294Y-105550986D01*
X141636401Y-105808966D01*
X141551487Y-106088889D01*
X141522815Y-106380000D01*
X141551487Y-106671111D01*
X141636401Y-106951034D01*
X141774294Y-107209014D01*
X141959866Y-107435134D01*
X142185986Y-107620706D01*
X142211722Y-107634462D01*
X142005571Y-107790951D01*
X141812504Y-108008807D01*
X141665648Y-108260142D01*
X141573524Y-108523110D01*
X141694845Y-108753000D01*
X143013000Y-108753000D01*
X143013000Y-108733000D01*
X143267000Y-108733000D01*
X143267000Y-108753000D01*
X144585155Y-108753000D01*
X144706476Y-108523110D01*
X144614352Y-108260142D01*
X144467496Y-108008807D01*
X144274429Y-107790951D01*
X144088747Y-107650000D01*
X145297627Y-107650000D01*
X145360000Y-107656143D01*
X145422373Y-107650000D01*
X145422380Y-107650000D01*
X145608963Y-107631623D01*
X145848359Y-107559003D01*
X146068988Y-107441075D01*
X146262370Y-107282370D01*
X146302141Y-107233909D01*
X147803914Y-105732137D01*
X147852370Y-105692370D01*
X148011075Y-105498988D01*
X148129003Y-105278359D01*
X148201623Y-105038963D01*
X148220000Y-104852380D01*
X148226144Y-104790000D01*
X148220000Y-104727620D01*
X148220000Y-91122372D01*
X148226143Y-91059999D01*
X148220000Y-90997626D01*
X148220000Y-90997620D01*
X148201623Y-90811037D01*
X148129003Y-90571641D01*
X148011075Y-90351012D01*
X147852370Y-90157630D01*
X147803915Y-90117864D01*
X147465923Y-89779872D01*
X155765000Y-89779872D01*
X155765000Y-90220128D01*
X155850890Y-90651925D01*
X156019369Y-91058669D01*
X156263962Y-91424729D01*
X156575271Y-91736038D01*
X156941331Y-91980631D01*
X157348075Y-92149110D01*
X157779872Y-92235000D01*
X158220128Y-92235000D01*
X158651925Y-92149110D01*
X159058669Y-91980631D01*
X159424729Y-91736038D01*
X159736038Y-91424729D01*
X159980631Y-91058669D01*
X160149110Y-90651925D01*
X160235000Y-90220128D01*
X160235000Y-89779872D01*
X160149110Y-89348075D01*
X159980631Y-88941331D01*
X159736038Y-88575271D01*
X159424729Y-88263962D01*
X159058669Y-88019369D01*
X158651925Y-87850890D01*
X158220128Y-87765000D01*
X157779872Y-87765000D01*
X157348075Y-87850890D01*
X156941331Y-88019369D01*
X156575271Y-88263962D01*
X156263962Y-88575271D01*
X156019369Y-88941331D01*
X155850890Y-89348075D01*
X155765000Y-89779872D01*
X147465923Y-89779872D01*
X143572142Y-85886092D01*
X143532371Y-85837631D01*
X143338989Y-85678926D01*
X143118360Y-85560998D01*
X142878964Y-85488378D01*
X142692381Y-85470001D01*
X142692374Y-85470001D01*
X142630001Y-85463858D01*
X142567628Y-85470001D01*
X140012371Y-85470001D01*
X139949998Y-85463858D01*
X139887625Y-85470001D01*
X139887619Y-85470001D01*
X139726754Y-85485845D01*
X139701035Y-85488378D01*
X139628415Y-85510407D01*
X139461640Y-85560998D01*
X139241011Y-85678926D01*
X139047629Y-85837631D01*
X139007858Y-85886092D01*
X138667664Y-86226286D01*
X138588167Y-86259215D01*
X138366238Y-86407503D01*
X138177503Y-86596238D01*
X138029215Y-86818167D01*
X137927072Y-87064761D01*
X137875000Y-87326544D01*
X114960000Y-87326544D01*
X114960000Y-84480000D01*
X163170000Y-84480000D01*
X163170001Y-96259507D01*
M02*
