G04 #@! TF.GenerationSoftware,KiCad,Pcbnew,(5.1.2)-2*
G04 #@! TF.CreationDate,2020-01-13T16:00:13+01:00*
G04 #@! TF.ProjectId,SteeringAngleSensor,53746565-7269-46e6-9741-6e676c655365,rev?*
G04 #@! TF.SameCoordinates,Original*
G04 #@! TF.FileFunction,Copper,L2,Bot*
G04 #@! TF.FilePolarity,Positive*
%FSLAX45Y45*%
G04 Gerber Fmt 4.5, Leading zero omitted, Abs format (unit mm)*
G04 Created by KiCad (PCBNEW (5.1.2)-2) date 2020-01-13 16:00:13*
%MOMM*%
%LPD*%
G04 APERTURE LIST*
%ADD10C,1.440000*%
%ADD11C,0.100000*%
%ADD12C,1.700000*%
%ADD13O,1.950000X1.700000*%
%ADD14C,0.254000*%
G04 APERTURE END LIST*
D10*
X14177000Y-9000000D03*
X13923000Y-8746000D03*
X13669000Y-9000000D03*
D11*
G36*
X14388950Y-10303120D02*
G01*
X14391377Y-10303480D01*
X14393757Y-10304077D01*
X14396067Y-10304903D01*
X14398285Y-10305952D01*
X14400389Y-10307213D01*
X14402360Y-10308675D01*
X14404178Y-10310322D01*
X14405825Y-10312140D01*
X14407287Y-10314111D01*
X14408548Y-10316215D01*
X14409597Y-10318433D01*
X14410423Y-10320743D01*
X14411020Y-10323123D01*
X14411380Y-10325550D01*
X14411500Y-10328000D01*
X14411500Y-10448000D01*
X14411380Y-10450450D01*
X14411020Y-10452877D01*
X14410423Y-10455257D01*
X14409597Y-10457567D01*
X14408548Y-10459785D01*
X14407287Y-10461889D01*
X14405825Y-10463860D01*
X14404178Y-10465678D01*
X14402360Y-10467325D01*
X14400389Y-10468787D01*
X14398285Y-10470048D01*
X14396067Y-10471097D01*
X14393757Y-10471924D01*
X14391377Y-10472520D01*
X14388950Y-10472880D01*
X14386500Y-10473000D01*
X14241500Y-10473000D01*
X14239050Y-10472880D01*
X14236623Y-10472520D01*
X14234243Y-10471924D01*
X14231933Y-10471097D01*
X14229715Y-10470048D01*
X14227611Y-10468787D01*
X14225640Y-10467325D01*
X14223822Y-10465678D01*
X14222175Y-10463860D01*
X14220713Y-10461889D01*
X14219452Y-10459785D01*
X14218403Y-10457567D01*
X14217576Y-10455257D01*
X14216980Y-10452877D01*
X14216620Y-10450450D01*
X14216500Y-10448000D01*
X14216500Y-10328000D01*
X14216620Y-10325550D01*
X14216980Y-10323123D01*
X14217576Y-10320743D01*
X14218403Y-10318433D01*
X14219452Y-10316215D01*
X14220713Y-10314111D01*
X14222175Y-10312140D01*
X14223822Y-10310322D01*
X14225640Y-10308675D01*
X14227611Y-10307213D01*
X14229715Y-10305952D01*
X14231933Y-10304903D01*
X14234243Y-10304077D01*
X14236623Y-10303480D01*
X14239050Y-10303120D01*
X14241500Y-10303000D01*
X14386500Y-10303000D01*
X14388950Y-10303120D01*
X14388950Y-10303120D01*
G37*
D12*
X14314000Y-10388000D03*
D13*
X14314000Y-10638000D03*
X14314000Y-10888000D03*
X14314000Y-11138000D03*
D14*
G36*
X16317000Y-9625951D02*
G01*
X14584355Y-11479000D01*
X13370135Y-11479000D01*
X12520250Y-10638000D01*
X14152281Y-10638000D01*
X14155149Y-10667111D01*
X14163640Y-10695103D01*
X14177429Y-10720901D01*
X14195987Y-10743513D01*
X14218599Y-10762071D01*
X14220337Y-10763000D01*
X14218599Y-10763929D01*
X14195987Y-10782487D01*
X14177429Y-10805099D01*
X14163640Y-10830897D01*
X14155149Y-10858889D01*
X14152281Y-10888000D01*
X14155149Y-10917111D01*
X14163640Y-10945103D01*
X14177429Y-10970901D01*
X14195987Y-10993513D01*
X14218599Y-11012071D01*
X14220337Y-11013000D01*
X14218599Y-11013929D01*
X14195987Y-11032487D01*
X14177429Y-11055099D01*
X14163640Y-11080897D01*
X14155149Y-11108889D01*
X14152281Y-11138000D01*
X14155149Y-11167111D01*
X14163640Y-11195103D01*
X14177429Y-11220901D01*
X14195987Y-11243513D01*
X14218599Y-11262071D01*
X14244397Y-11275860D01*
X14272389Y-11284351D01*
X14294205Y-11286500D01*
X14333795Y-11286500D01*
X14355611Y-11284351D01*
X14383603Y-11275860D01*
X14409401Y-11262071D01*
X14432013Y-11243513D01*
X14450571Y-11220901D01*
X14464360Y-11195103D01*
X14472851Y-11167111D01*
X14475718Y-11138000D01*
X14472851Y-11108889D01*
X14464360Y-11080897D01*
X14450571Y-11055099D01*
X14432013Y-11032487D01*
X14409401Y-11013929D01*
X14407663Y-11013000D01*
X14409401Y-11012071D01*
X14432013Y-10993513D01*
X14450571Y-10970901D01*
X14464360Y-10945103D01*
X14472851Y-10917111D01*
X14475718Y-10888000D01*
X14472851Y-10858889D01*
X14464360Y-10830897D01*
X14450571Y-10805099D01*
X14432013Y-10782487D01*
X14409401Y-10763929D01*
X14407663Y-10763000D01*
X14409401Y-10762071D01*
X14432013Y-10743513D01*
X14450571Y-10720901D01*
X14464360Y-10695103D01*
X14472851Y-10667111D01*
X14475718Y-10638000D01*
X14472851Y-10608889D01*
X14464360Y-10580897D01*
X14450571Y-10555099D01*
X14432439Y-10533006D01*
X14435918Y-10531950D01*
X14446949Y-10526054D01*
X14456618Y-10518119D01*
X14464554Y-10508449D01*
X14470450Y-10497418D01*
X14474081Y-10485448D01*
X14475307Y-10473000D01*
X14475000Y-10416575D01*
X14459125Y-10400700D01*
X14326700Y-10400700D01*
X14326700Y-10402700D01*
X14301300Y-10402700D01*
X14301300Y-10400700D01*
X14168875Y-10400700D01*
X14153000Y-10416575D01*
X14152693Y-10473000D01*
X14153919Y-10485448D01*
X14157550Y-10497418D01*
X14163446Y-10508449D01*
X14171381Y-10518119D01*
X14181051Y-10526054D01*
X14192082Y-10531950D01*
X14195561Y-10533006D01*
X14177429Y-10555099D01*
X14163640Y-10580897D01*
X14155149Y-10608889D01*
X14152281Y-10638000D01*
X12520250Y-10638000D01*
X12181710Y-10303000D01*
X14152693Y-10303000D01*
X14153000Y-10359425D01*
X14168875Y-10375300D01*
X14301300Y-10375300D01*
X14301300Y-10255375D01*
X14326700Y-10255375D01*
X14326700Y-10375300D01*
X14459125Y-10375300D01*
X14475000Y-10359425D01*
X14475307Y-10303000D01*
X14474081Y-10290552D01*
X14470450Y-10278582D01*
X14464554Y-10267551D01*
X14456618Y-10257882D01*
X14446949Y-10249946D01*
X14435918Y-10244050D01*
X14423948Y-10240419D01*
X14411500Y-10239193D01*
X14342575Y-10239500D01*
X14326700Y-10255375D01*
X14301300Y-10255375D01*
X14285425Y-10239500D01*
X14216500Y-10239193D01*
X14204052Y-10240419D01*
X14192082Y-10244050D01*
X14181051Y-10249946D01*
X14171381Y-10257882D01*
X14163446Y-10267551D01*
X14157550Y-10278582D01*
X14153919Y-10290552D01*
X14152693Y-10303000D01*
X12181710Y-10303000D01*
X11496000Y-9624459D01*
X11496000Y-8977987D01*
X11776500Y-8977987D01*
X11776500Y-9022013D01*
X11785089Y-9065193D01*
X11801937Y-9105867D01*
X11826396Y-9142473D01*
X11857527Y-9173604D01*
X11894133Y-9198063D01*
X11934807Y-9214911D01*
X11977987Y-9223500D01*
X12022013Y-9223500D01*
X12065192Y-9214911D01*
X12105867Y-9198063D01*
X12142473Y-9173604D01*
X12173604Y-9142473D01*
X12198063Y-9105867D01*
X12203162Y-9093556D01*
X13593404Y-9093556D01*
X13599593Y-9117137D01*
X13623779Y-9128427D01*
X13649703Y-9134781D01*
X13676368Y-9135956D01*
X13702750Y-9131906D01*
X13727835Y-9122788D01*
X13738407Y-9117137D01*
X13744595Y-9093556D01*
X13669000Y-9017961D01*
X13593404Y-9093556D01*
X12203162Y-9093556D01*
X12214911Y-9065193D01*
X12223500Y-9022013D01*
X12223500Y-9007368D01*
X13533044Y-9007368D01*
X13537094Y-9033750D01*
X13546212Y-9058835D01*
X13551863Y-9069407D01*
X13575444Y-9075596D01*
X13651039Y-9000000D01*
X13686960Y-9000000D01*
X13762556Y-9075596D01*
X13786137Y-9069407D01*
X13797427Y-9045221D01*
X13803781Y-9019297D01*
X13804956Y-8992632D01*
X13804039Y-8986654D01*
X14041500Y-8986654D01*
X14041500Y-9013346D01*
X14046707Y-9039524D01*
X14056921Y-9064183D01*
X14071750Y-9086376D01*
X14090624Y-9105250D01*
X14112817Y-9120079D01*
X14137476Y-9130293D01*
X14163654Y-9135500D01*
X14190346Y-9135500D01*
X14216524Y-9130293D01*
X14241183Y-9120079D01*
X14263376Y-9105250D01*
X14282250Y-9086376D01*
X14297078Y-9064183D01*
X14307293Y-9039524D01*
X14312500Y-9013346D01*
X14312500Y-8986654D01*
X14310776Y-8977987D01*
X15576500Y-8977987D01*
X15576500Y-9022013D01*
X15585089Y-9065193D01*
X15601937Y-9105867D01*
X15626396Y-9142473D01*
X15657527Y-9173604D01*
X15694133Y-9198063D01*
X15734807Y-9214911D01*
X15777987Y-9223500D01*
X15822013Y-9223500D01*
X15865192Y-9214911D01*
X15905867Y-9198063D01*
X15942473Y-9173604D01*
X15973604Y-9142473D01*
X15998063Y-9105867D01*
X16014911Y-9065193D01*
X16023500Y-9022013D01*
X16023500Y-8977987D01*
X16014911Y-8934808D01*
X15998063Y-8894133D01*
X15973604Y-8857527D01*
X15942473Y-8826396D01*
X15905867Y-8801937D01*
X15865192Y-8785089D01*
X15822013Y-8776500D01*
X15777987Y-8776500D01*
X15734807Y-8785089D01*
X15694133Y-8801937D01*
X15657527Y-8826396D01*
X15626396Y-8857527D01*
X15601937Y-8894133D01*
X15585089Y-8934808D01*
X15576500Y-8977987D01*
X14310776Y-8977987D01*
X14307293Y-8960476D01*
X14297078Y-8935817D01*
X14282250Y-8913624D01*
X14263376Y-8894750D01*
X14241183Y-8879922D01*
X14216524Y-8869707D01*
X14190346Y-8864500D01*
X14163654Y-8864500D01*
X14137476Y-8869707D01*
X14112817Y-8879922D01*
X14090624Y-8894750D01*
X14071750Y-8913624D01*
X14056921Y-8935817D01*
X14046707Y-8960476D01*
X14041500Y-8986654D01*
X13804039Y-8986654D01*
X13800906Y-8966250D01*
X13791787Y-8941165D01*
X13786137Y-8930593D01*
X13762556Y-8924405D01*
X13686960Y-9000000D01*
X13651039Y-9000000D01*
X13575444Y-8924405D01*
X13551863Y-8930593D01*
X13540573Y-8954779D01*
X13534219Y-8980703D01*
X13533044Y-9007368D01*
X12223500Y-9007368D01*
X12223500Y-8977987D01*
X12214911Y-8934808D01*
X12203162Y-8906444D01*
X13593404Y-8906444D01*
X13669000Y-8982040D01*
X13744595Y-8906444D01*
X13738407Y-8882863D01*
X13714221Y-8871573D01*
X13688297Y-8865219D01*
X13661632Y-8864044D01*
X13635250Y-8868094D01*
X13610165Y-8877213D01*
X13599593Y-8882863D01*
X13593404Y-8906444D01*
X12203162Y-8906444D01*
X12198063Y-8894133D01*
X12173604Y-8857527D01*
X12142473Y-8826396D01*
X12105867Y-8801937D01*
X12065192Y-8785089D01*
X12022013Y-8776500D01*
X11977987Y-8776500D01*
X11934807Y-8785089D01*
X11894133Y-8801937D01*
X11857527Y-8826396D01*
X11826396Y-8857527D01*
X11801937Y-8894133D01*
X11785089Y-8934808D01*
X11776500Y-8977987D01*
X11496000Y-8977987D01*
X11496000Y-8732654D01*
X13787500Y-8732654D01*
X13787500Y-8759346D01*
X13792707Y-8785524D01*
X13802921Y-8810183D01*
X13817750Y-8832376D01*
X13836624Y-8851250D01*
X13858817Y-8866079D01*
X13883476Y-8876293D01*
X13909654Y-8881500D01*
X13936346Y-8881500D01*
X13962524Y-8876293D01*
X13987183Y-8866079D01*
X14009376Y-8851250D01*
X14028250Y-8832376D01*
X14043078Y-8810183D01*
X14053293Y-8785524D01*
X14058500Y-8759346D01*
X14058500Y-8732654D01*
X14053293Y-8706476D01*
X14043078Y-8681817D01*
X14028250Y-8659624D01*
X14009376Y-8640750D01*
X13987183Y-8625922D01*
X13962524Y-8615707D01*
X13936346Y-8610500D01*
X13909654Y-8610500D01*
X13883476Y-8615707D01*
X13858817Y-8625922D01*
X13836624Y-8640750D01*
X13817750Y-8659624D01*
X13802921Y-8681817D01*
X13792707Y-8706476D01*
X13787500Y-8732654D01*
X11496000Y-8732654D01*
X11496000Y-8448000D01*
X16317000Y-8448000D01*
X16317000Y-9625951D01*
X16317000Y-9625951D01*
G37*
X16317000Y-9625951D02*
X14584355Y-11479000D01*
X13370135Y-11479000D01*
X12520250Y-10638000D01*
X14152281Y-10638000D01*
X14155149Y-10667111D01*
X14163640Y-10695103D01*
X14177429Y-10720901D01*
X14195987Y-10743513D01*
X14218599Y-10762071D01*
X14220337Y-10763000D01*
X14218599Y-10763929D01*
X14195987Y-10782487D01*
X14177429Y-10805099D01*
X14163640Y-10830897D01*
X14155149Y-10858889D01*
X14152281Y-10888000D01*
X14155149Y-10917111D01*
X14163640Y-10945103D01*
X14177429Y-10970901D01*
X14195987Y-10993513D01*
X14218599Y-11012071D01*
X14220337Y-11013000D01*
X14218599Y-11013929D01*
X14195987Y-11032487D01*
X14177429Y-11055099D01*
X14163640Y-11080897D01*
X14155149Y-11108889D01*
X14152281Y-11138000D01*
X14155149Y-11167111D01*
X14163640Y-11195103D01*
X14177429Y-11220901D01*
X14195987Y-11243513D01*
X14218599Y-11262071D01*
X14244397Y-11275860D01*
X14272389Y-11284351D01*
X14294205Y-11286500D01*
X14333795Y-11286500D01*
X14355611Y-11284351D01*
X14383603Y-11275860D01*
X14409401Y-11262071D01*
X14432013Y-11243513D01*
X14450571Y-11220901D01*
X14464360Y-11195103D01*
X14472851Y-11167111D01*
X14475718Y-11138000D01*
X14472851Y-11108889D01*
X14464360Y-11080897D01*
X14450571Y-11055099D01*
X14432013Y-11032487D01*
X14409401Y-11013929D01*
X14407663Y-11013000D01*
X14409401Y-11012071D01*
X14432013Y-10993513D01*
X14450571Y-10970901D01*
X14464360Y-10945103D01*
X14472851Y-10917111D01*
X14475718Y-10888000D01*
X14472851Y-10858889D01*
X14464360Y-10830897D01*
X14450571Y-10805099D01*
X14432013Y-10782487D01*
X14409401Y-10763929D01*
X14407663Y-10763000D01*
X14409401Y-10762071D01*
X14432013Y-10743513D01*
X14450571Y-10720901D01*
X14464360Y-10695103D01*
X14472851Y-10667111D01*
X14475718Y-10638000D01*
X14472851Y-10608889D01*
X14464360Y-10580897D01*
X14450571Y-10555099D01*
X14432439Y-10533006D01*
X14435918Y-10531950D01*
X14446949Y-10526054D01*
X14456618Y-10518119D01*
X14464554Y-10508449D01*
X14470450Y-10497418D01*
X14474081Y-10485448D01*
X14475307Y-10473000D01*
X14475000Y-10416575D01*
X14459125Y-10400700D01*
X14326700Y-10400700D01*
X14326700Y-10402700D01*
X14301300Y-10402700D01*
X14301300Y-10400700D01*
X14168875Y-10400700D01*
X14153000Y-10416575D01*
X14152693Y-10473000D01*
X14153919Y-10485448D01*
X14157550Y-10497418D01*
X14163446Y-10508449D01*
X14171381Y-10518119D01*
X14181051Y-10526054D01*
X14192082Y-10531950D01*
X14195561Y-10533006D01*
X14177429Y-10555099D01*
X14163640Y-10580897D01*
X14155149Y-10608889D01*
X14152281Y-10638000D01*
X12520250Y-10638000D01*
X12181710Y-10303000D01*
X14152693Y-10303000D01*
X14153000Y-10359425D01*
X14168875Y-10375300D01*
X14301300Y-10375300D01*
X14301300Y-10255375D01*
X14326700Y-10255375D01*
X14326700Y-10375300D01*
X14459125Y-10375300D01*
X14475000Y-10359425D01*
X14475307Y-10303000D01*
X14474081Y-10290552D01*
X14470450Y-10278582D01*
X14464554Y-10267551D01*
X14456618Y-10257882D01*
X14446949Y-10249946D01*
X14435918Y-10244050D01*
X14423948Y-10240419D01*
X14411500Y-10239193D01*
X14342575Y-10239500D01*
X14326700Y-10255375D01*
X14301300Y-10255375D01*
X14285425Y-10239500D01*
X14216500Y-10239193D01*
X14204052Y-10240419D01*
X14192082Y-10244050D01*
X14181051Y-10249946D01*
X14171381Y-10257882D01*
X14163446Y-10267551D01*
X14157550Y-10278582D01*
X14153919Y-10290552D01*
X14152693Y-10303000D01*
X12181710Y-10303000D01*
X11496000Y-9624459D01*
X11496000Y-8977987D01*
X11776500Y-8977987D01*
X11776500Y-9022013D01*
X11785089Y-9065193D01*
X11801937Y-9105867D01*
X11826396Y-9142473D01*
X11857527Y-9173604D01*
X11894133Y-9198063D01*
X11934807Y-9214911D01*
X11977987Y-9223500D01*
X12022013Y-9223500D01*
X12065192Y-9214911D01*
X12105867Y-9198063D01*
X12142473Y-9173604D01*
X12173604Y-9142473D01*
X12198063Y-9105867D01*
X12203162Y-9093556D01*
X13593404Y-9093556D01*
X13599593Y-9117137D01*
X13623779Y-9128427D01*
X13649703Y-9134781D01*
X13676368Y-9135956D01*
X13702750Y-9131906D01*
X13727835Y-9122788D01*
X13738407Y-9117137D01*
X13744595Y-9093556D01*
X13669000Y-9017961D01*
X13593404Y-9093556D01*
X12203162Y-9093556D01*
X12214911Y-9065193D01*
X12223500Y-9022013D01*
X12223500Y-9007368D01*
X13533044Y-9007368D01*
X13537094Y-9033750D01*
X13546212Y-9058835D01*
X13551863Y-9069407D01*
X13575444Y-9075596D01*
X13651039Y-9000000D01*
X13686960Y-9000000D01*
X13762556Y-9075596D01*
X13786137Y-9069407D01*
X13797427Y-9045221D01*
X13803781Y-9019297D01*
X13804956Y-8992632D01*
X13804039Y-8986654D01*
X14041500Y-8986654D01*
X14041500Y-9013346D01*
X14046707Y-9039524D01*
X14056921Y-9064183D01*
X14071750Y-9086376D01*
X14090624Y-9105250D01*
X14112817Y-9120079D01*
X14137476Y-9130293D01*
X14163654Y-9135500D01*
X14190346Y-9135500D01*
X14216524Y-9130293D01*
X14241183Y-9120079D01*
X14263376Y-9105250D01*
X14282250Y-9086376D01*
X14297078Y-9064183D01*
X14307293Y-9039524D01*
X14312500Y-9013346D01*
X14312500Y-8986654D01*
X14310776Y-8977987D01*
X15576500Y-8977987D01*
X15576500Y-9022013D01*
X15585089Y-9065193D01*
X15601937Y-9105867D01*
X15626396Y-9142473D01*
X15657527Y-9173604D01*
X15694133Y-9198063D01*
X15734807Y-9214911D01*
X15777987Y-9223500D01*
X15822013Y-9223500D01*
X15865192Y-9214911D01*
X15905867Y-9198063D01*
X15942473Y-9173604D01*
X15973604Y-9142473D01*
X15998063Y-9105867D01*
X16014911Y-9065193D01*
X16023500Y-9022013D01*
X16023500Y-8977987D01*
X16014911Y-8934808D01*
X15998063Y-8894133D01*
X15973604Y-8857527D01*
X15942473Y-8826396D01*
X15905867Y-8801937D01*
X15865192Y-8785089D01*
X15822013Y-8776500D01*
X15777987Y-8776500D01*
X15734807Y-8785089D01*
X15694133Y-8801937D01*
X15657527Y-8826396D01*
X15626396Y-8857527D01*
X15601937Y-8894133D01*
X15585089Y-8934808D01*
X15576500Y-8977987D01*
X14310776Y-8977987D01*
X14307293Y-8960476D01*
X14297078Y-8935817D01*
X14282250Y-8913624D01*
X14263376Y-8894750D01*
X14241183Y-8879922D01*
X14216524Y-8869707D01*
X14190346Y-8864500D01*
X14163654Y-8864500D01*
X14137476Y-8869707D01*
X14112817Y-8879922D01*
X14090624Y-8894750D01*
X14071750Y-8913624D01*
X14056921Y-8935817D01*
X14046707Y-8960476D01*
X14041500Y-8986654D01*
X13804039Y-8986654D01*
X13800906Y-8966250D01*
X13791787Y-8941165D01*
X13786137Y-8930593D01*
X13762556Y-8924405D01*
X13686960Y-9000000D01*
X13651039Y-9000000D01*
X13575444Y-8924405D01*
X13551863Y-8930593D01*
X13540573Y-8954779D01*
X13534219Y-8980703D01*
X13533044Y-9007368D01*
X12223500Y-9007368D01*
X12223500Y-8977987D01*
X12214911Y-8934808D01*
X12203162Y-8906444D01*
X13593404Y-8906444D01*
X13669000Y-8982040D01*
X13744595Y-8906444D01*
X13738407Y-8882863D01*
X13714221Y-8871573D01*
X13688297Y-8865219D01*
X13661632Y-8864044D01*
X13635250Y-8868094D01*
X13610165Y-8877213D01*
X13599593Y-8882863D01*
X13593404Y-8906444D01*
X12203162Y-8906444D01*
X12198063Y-8894133D01*
X12173604Y-8857527D01*
X12142473Y-8826396D01*
X12105867Y-8801937D01*
X12065192Y-8785089D01*
X12022013Y-8776500D01*
X11977987Y-8776500D01*
X11934807Y-8785089D01*
X11894133Y-8801937D01*
X11857527Y-8826396D01*
X11826396Y-8857527D01*
X11801937Y-8894133D01*
X11785089Y-8934808D01*
X11776500Y-8977987D01*
X11496000Y-8977987D01*
X11496000Y-8732654D01*
X13787500Y-8732654D01*
X13787500Y-8759346D01*
X13792707Y-8785524D01*
X13802921Y-8810183D01*
X13817750Y-8832376D01*
X13836624Y-8851250D01*
X13858817Y-8866079D01*
X13883476Y-8876293D01*
X13909654Y-8881500D01*
X13936346Y-8881500D01*
X13962524Y-8876293D01*
X13987183Y-8866079D01*
X14009376Y-8851250D01*
X14028250Y-8832376D01*
X14043078Y-8810183D01*
X14053293Y-8785524D01*
X14058500Y-8759346D01*
X14058500Y-8732654D01*
X14053293Y-8706476D01*
X14043078Y-8681817D01*
X14028250Y-8659624D01*
X14009376Y-8640750D01*
X13987183Y-8625922D01*
X13962524Y-8615707D01*
X13936346Y-8610500D01*
X13909654Y-8610500D01*
X13883476Y-8615707D01*
X13858817Y-8625922D01*
X13836624Y-8640750D01*
X13817750Y-8659624D01*
X13802921Y-8681817D01*
X13792707Y-8706476D01*
X13787500Y-8732654D01*
X11496000Y-8732654D01*
X11496000Y-8448000D01*
X16317000Y-8448000D01*
X16317000Y-9625951D01*
M02*
