G04 #@! TF.GenerationSoftware,KiCad,Pcbnew,(5.1.2)-2*
G04 #@! TF.CreationDate,2020-01-28T18:24:32+01:00*
G04 #@! TF.ProjectId,SteeringAngleSensor,53746565-7269-46e6-9741-6e676c655365,rev?*
G04 #@! TF.SameCoordinates,Original*
G04 #@! TF.FileFunction,Copper,L2,Bot*
G04 #@! TF.FilePolarity,Positive*
%FSLAX45Y45*%
G04 Gerber Fmt 4.5, Leading zero omitted, Abs format (unit mm)*
G04 Created by KiCad (PCBNEW (5.1.2)-2) date 2020-01-28 18:24:32*
%MOMM*%
%LPD*%
G04 APERTURE LIST*
%ADD10C,1.440000*%
%ADD11C,1.000000*%
%ADD12C,0.254000*%
G04 APERTURE END LIST*
D10*
X14177000Y-9000000D03*
X13923000Y-8746000D03*
X13669000Y-9000000D03*
D11*
X14272260Y-10495280D03*
D12*
G36*
X16317000Y-9625951D02*
G01*
X14584355Y-11479000D01*
X13370135Y-11479000D01*
X11496000Y-9624459D01*
X11496000Y-8977987D01*
X11776500Y-8977987D01*
X11776500Y-9022013D01*
X11785089Y-9065193D01*
X11801937Y-9105867D01*
X11826396Y-9142473D01*
X11857527Y-9173604D01*
X11894133Y-9198063D01*
X11934807Y-9214911D01*
X11977987Y-9223500D01*
X12022013Y-9223500D01*
X12065192Y-9214911D01*
X12105867Y-9198063D01*
X12142473Y-9173604D01*
X12173604Y-9142473D01*
X12198063Y-9105867D01*
X12214911Y-9065193D01*
X12223500Y-9022013D01*
X12223500Y-8986654D01*
X13533500Y-8986654D01*
X13533500Y-9013346D01*
X13538707Y-9039524D01*
X13548921Y-9064183D01*
X13563750Y-9086376D01*
X13582624Y-9105250D01*
X13604817Y-9120079D01*
X13629476Y-9130293D01*
X13655654Y-9135500D01*
X13682346Y-9135500D01*
X13708524Y-9130293D01*
X13733183Y-9120079D01*
X13755376Y-9105250D01*
X13767070Y-9093556D01*
X14101404Y-9093556D01*
X14107593Y-9117137D01*
X14131779Y-9128427D01*
X14157703Y-9134781D01*
X14184368Y-9135956D01*
X14210750Y-9131906D01*
X14235835Y-9122788D01*
X14246407Y-9117137D01*
X14252595Y-9093556D01*
X14177000Y-9017961D01*
X14101404Y-9093556D01*
X13767070Y-9093556D01*
X13774250Y-9086376D01*
X13789078Y-9064183D01*
X13799293Y-9039524D01*
X13804500Y-9013346D01*
X13804500Y-9007368D01*
X14041044Y-9007368D01*
X14045094Y-9033750D01*
X14054212Y-9058835D01*
X14059863Y-9069407D01*
X14083444Y-9075596D01*
X14159039Y-9000000D01*
X14194960Y-9000000D01*
X14270556Y-9075596D01*
X14294137Y-9069407D01*
X14305427Y-9045221D01*
X14311781Y-9019297D01*
X14312956Y-8992632D01*
X14310708Y-8977987D01*
X15576500Y-8977987D01*
X15576500Y-9022013D01*
X15585089Y-9065193D01*
X15601937Y-9105867D01*
X15626396Y-9142473D01*
X15657527Y-9173604D01*
X15694133Y-9198063D01*
X15734807Y-9214911D01*
X15777987Y-9223500D01*
X15822013Y-9223500D01*
X15865192Y-9214911D01*
X15905867Y-9198063D01*
X15942473Y-9173604D01*
X15973604Y-9142473D01*
X15998063Y-9105867D01*
X16014911Y-9065193D01*
X16023500Y-9022013D01*
X16023500Y-8977987D01*
X16014911Y-8934808D01*
X15998063Y-8894133D01*
X15973604Y-8857527D01*
X15942473Y-8826396D01*
X15905867Y-8801937D01*
X15865192Y-8785089D01*
X15822013Y-8776500D01*
X15777987Y-8776500D01*
X15734807Y-8785089D01*
X15694133Y-8801937D01*
X15657527Y-8826396D01*
X15626396Y-8857527D01*
X15601937Y-8894133D01*
X15585089Y-8934808D01*
X15576500Y-8977987D01*
X14310708Y-8977987D01*
X14308906Y-8966250D01*
X14299787Y-8941165D01*
X14294137Y-8930593D01*
X14270556Y-8924405D01*
X14194960Y-9000000D01*
X14159039Y-9000000D01*
X14083444Y-8924405D01*
X14059863Y-8930593D01*
X14048573Y-8954779D01*
X14042219Y-8980703D01*
X14041044Y-9007368D01*
X13804500Y-9007368D01*
X13804500Y-8986654D01*
X13799293Y-8960476D01*
X13789078Y-8935817D01*
X13774250Y-8913624D01*
X13767070Y-8906444D01*
X14101404Y-8906444D01*
X14177000Y-8982040D01*
X14252595Y-8906444D01*
X14246407Y-8882863D01*
X14222221Y-8871573D01*
X14196297Y-8865219D01*
X14169632Y-8864044D01*
X14143250Y-8868094D01*
X14118165Y-8877213D01*
X14107593Y-8882863D01*
X14101404Y-8906444D01*
X13767070Y-8906444D01*
X13755376Y-8894750D01*
X13733183Y-8879922D01*
X13708524Y-8869707D01*
X13682346Y-8864500D01*
X13655654Y-8864500D01*
X13629476Y-8869707D01*
X13604817Y-8879922D01*
X13582624Y-8894750D01*
X13563750Y-8913624D01*
X13548921Y-8935817D01*
X13538707Y-8960476D01*
X13533500Y-8986654D01*
X12223500Y-8986654D01*
X12223500Y-8977987D01*
X12214911Y-8934808D01*
X12198063Y-8894133D01*
X12173604Y-8857527D01*
X12142473Y-8826396D01*
X12105867Y-8801937D01*
X12065192Y-8785089D01*
X12022013Y-8776500D01*
X11977987Y-8776500D01*
X11934807Y-8785089D01*
X11894133Y-8801937D01*
X11857527Y-8826396D01*
X11826396Y-8857527D01*
X11801937Y-8894133D01*
X11785089Y-8934808D01*
X11776500Y-8977987D01*
X11496000Y-8977987D01*
X11496000Y-8732654D01*
X13787500Y-8732654D01*
X13787500Y-8759346D01*
X13792707Y-8785524D01*
X13802921Y-8810183D01*
X13817750Y-8832376D01*
X13836624Y-8851250D01*
X13858817Y-8866079D01*
X13883476Y-8876293D01*
X13909654Y-8881500D01*
X13936346Y-8881500D01*
X13962524Y-8876293D01*
X13987183Y-8866079D01*
X14009376Y-8851250D01*
X14028250Y-8832376D01*
X14043078Y-8810183D01*
X14053293Y-8785524D01*
X14058500Y-8759346D01*
X14058500Y-8732654D01*
X14053293Y-8706476D01*
X14043078Y-8681817D01*
X14028250Y-8659624D01*
X14009376Y-8640750D01*
X13987183Y-8625922D01*
X13962524Y-8615707D01*
X13936346Y-8610500D01*
X13909654Y-8610500D01*
X13883476Y-8615707D01*
X13858817Y-8625922D01*
X13836624Y-8640750D01*
X13817750Y-8659624D01*
X13802921Y-8681817D01*
X13792707Y-8706476D01*
X13787500Y-8732654D01*
X11496000Y-8732654D01*
X11496000Y-8448000D01*
X16317000Y-8448000D01*
X16317000Y-9625951D01*
X16317000Y-9625951D01*
G37*
X16317000Y-9625951D02*
X14584355Y-11479000D01*
X13370135Y-11479000D01*
X11496000Y-9624459D01*
X11496000Y-8977987D01*
X11776500Y-8977987D01*
X11776500Y-9022013D01*
X11785089Y-9065193D01*
X11801937Y-9105867D01*
X11826396Y-9142473D01*
X11857527Y-9173604D01*
X11894133Y-9198063D01*
X11934807Y-9214911D01*
X11977987Y-9223500D01*
X12022013Y-9223500D01*
X12065192Y-9214911D01*
X12105867Y-9198063D01*
X12142473Y-9173604D01*
X12173604Y-9142473D01*
X12198063Y-9105867D01*
X12214911Y-9065193D01*
X12223500Y-9022013D01*
X12223500Y-8986654D01*
X13533500Y-8986654D01*
X13533500Y-9013346D01*
X13538707Y-9039524D01*
X13548921Y-9064183D01*
X13563750Y-9086376D01*
X13582624Y-9105250D01*
X13604817Y-9120079D01*
X13629476Y-9130293D01*
X13655654Y-9135500D01*
X13682346Y-9135500D01*
X13708524Y-9130293D01*
X13733183Y-9120079D01*
X13755376Y-9105250D01*
X13767070Y-9093556D01*
X14101404Y-9093556D01*
X14107593Y-9117137D01*
X14131779Y-9128427D01*
X14157703Y-9134781D01*
X14184368Y-9135956D01*
X14210750Y-9131906D01*
X14235835Y-9122788D01*
X14246407Y-9117137D01*
X14252595Y-9093556D01*
X14177000Y-9017961D01*
X14101404Y-9093556D01*
X13767070Y-9093556D01*
X13774250Y-9086376D01*
X13789078Y-9064183D01*
X13799293Y-9039524D01*
X13804500Y-9013346D01*
X13804500Y-9007368D01*
X14041044Y-9007368D01*
X14045094Y-9033750D01*
X14054212Y-9058835D01*
X14059863Y-9069407D01*
X14083444Y-9075596D01*
X14159039Y-9000000D01*
X14194960Y-9000000D01*
X14270556Y-9075596D01*
X14294137Y-9069407D01*
X14305427Y-9045221D01*
X14311781Y-9019297D01*
X14312956Y-8992632D01*
X14310708Y-8977987D01*
X15576500Y-8977987D01*
X15576500Y-9022013D01*
X15585089Y-9065193D01*
X15601937Y-9105867D01*
X15626396Y-9142473D01*
X15657527Y-9173604D01*
X15694133Y-9198063D01*
X15734807Y-9214911D01*
X15777987Y-9223500D01*
X15822013Y-9223500D01*
X15865192Y-9214911D01*
X15905867Y-9198063D01*
X15942473Y-9173604D01*
X15973604Y-9142473D01*
X15998063Y-9105867D01*
X16014911Y-9065193D01*
X16023500Y-9022013D01*
X16023500Y-8977987D01*
X16014911Y-8934808D01*
X15998063Y-8894133D01*
X15973604Y-8857527D01*
X15942473Y-8826396D01*
X15905867Y-8801937D01*
X15865192Y-8785089D01*
X15822013Y-8776500D01*
X15777987Y-8776500D01*
X15734807Y-8785089D01*
X15694133Y-8801937D01*
X15657527Y-8826396D01*
X15626396Y-8857527D01*
X15601937Y-8894133D01*
X15585089Y-8934808D01*
X15576500Y-8977987D01*
X14310708Y-8977987D01*
X14308906Y-8966250D01*
X14299787Y-8941165D01*
X14294137Y-8930593D01*
X14270556Y-8924405D01*
X14194960Y-9000000D01*
X14159039Y-9000000D01*
X14083444Y-8924405D01*
X14059863Y-8930593D01*
X14048573Y-8954779D01*
X14042219Y-8980703D01*
X14041044Y-9007368D01*
X13804500Y-9007368D01*
X13804500Y-8986654D01*
X13799293Y-8960476D01*
X13789078Y-8935817D01*
X13774250Y-8913624D01*
X13767070Y-8906444D01*
X14101404Y-8906444D01*
X14177000Y-8982040D01*
X14252595Y-8906444D01*
X14246407Y-8882863D01*
X14222221Y-8871573D01*
X14196297Y-8865219D01*
X14169632Y-8864044D01*
X14143250Y-8868094D01*
X14118165Y-8877213D01*
X14107593Y-8882863D01*
X14101404Y-8906444D01*
X13767070Y-8906444D01*
X13755376Y-8894750D01*
X13733183Y-8879922D01*
X13708524Y-8869707D01*
X13682346Y-8864500D01*
X13655654Y-8864500D01*
X13629476Y-8869707D01*
X13604817Y-8879922D01*
X13582624Y-8894750D01*
X13563750Y-8913624D01*
X13548921Y-8935817D01*
X13538707Y-8960476D01*
X13533500Y-8986654D01*
X12223500Y-8986654D01*
X12223500Y-8977987D01*
X12214911Y-8934808D01*
X12198063Y-8894133D01*
X12173604Y-8857527D01*
X12142473Y-8826396D01*
X12105867Y-8801937D01*
X12065192Y-8785089D01*
X12022013Y-8776500D01*
X11977987Y-8776500D01*
X11934807Y-8785089D01*
X11894133Y-8801937D01*
X11857527Y-8826396D01*
X11826396Y-8857527D01*
X11801937Y-8894133D01*
X11785089Y-8934808D01*
X11776500Y-8977987D01*
X11496000Y-8977987D01*
X11496000Y-8732654D01*
X13787500Y-8732654D01*
X13787500Y-8759346D01*
X13792707Y-8785524D01*
X13802921Y-8810183D01*
X13817750Y-8832376D01*
X13836624Y-8851250D01*
X13858817Y-8866079D01*
X13883476Y-8876293D01*
X13909654Y-8881500D01*
X13936346Y-8881500D01*
X13962524Y-8876293D01*
X13987183Y-8866079D01*
X14009376Y-8851250D01*
X14028250Y-8832376D01*
X14043078Y-8810183D01*
X14053293Y-8785524D01*
X14058500Y-8759346D01*
X14058500Y-8732654D01*
X14053293Y-8706476D01*
X14043078Y-8681817D01*
X14028250Y-8659624D01*
X14009376Y-8640750D01*
X13987183Y-8625922D01*
X13962524Y-8615707D01*
X13936346Y-8610500D01*
X13909654Y-8610500D01*
X13883476Y-8615707D01*
X13858817Y-8625922D01*
X13836624Y-8640750D01*
X13817750Y-8659624D01*
X13802921Y-8681817D01*
X13792707Y-8706476D01*
X13787500Y-8732654D01*
X11496000Y-8732654D01*
X11496000Y-8448000D01*
X16317000Y-8448000D01*
X16317000Y-9625951D01*
M02*
