G04 #@! TF.GenerationSoftware,KiCad,Pcbnew,(5.1.6)-1*
G04 #@! TF.CreationDate,2020-12-13T22:38:14+01:00*
G04 #@! TF.ProjectId,RS485,52533438-352e-46b6-9963-61645f706362,rev?*
G04 #@! TF.SameCoordinates,Original*
G04 #@! TF.FileFunction,Paste,Top*
G04 #@! TF.FilePolarity,Positive*
%FSLAX46Y46*%
G04 Gerber Fmt 4.6, Leading zero omitted, Abs format (unit mm)*
G04 Created by KiCad (PCBNEW (5.1.6)-1) date 2020-12-13 22:38:14*
%MOMM*%
%LPD*%
G01*
G04 APERTURE LIST*
%ADD10R,1.200000X0.900000*%
%ADD11R,0.431000X0.973699*%
%ADD12R,0.450000X0.600000*%
%ADD13R,0.900000X0.800000*%
G04 APERTURE END LIST*
D10*
X150250000Y-84350000D03*
X150250000Y-87650000D03*
D11*
X156525001Y-88136851D03*
X157174999Y-88136851D03*
X157825001Y-88136851D03*
X158474999Y-88136851D03*
X158474999Y-90863149D03*
X157825001Y-90863149D03*
X157174999Y-90863149D03*
X156525001Y-90863149D03*
D12*
X153500000Y-88450000D03*
X153500000Y-90550000D03*
G36*
G01*
X151993750Y-84775000D02*
X152506250Y-84775000D01*
G75*
G02*
X152725000Y-84993750I0J-218750D01*
G01*
X152725000Y-85431250D01*
G75*
G02*
X152506250Y-85650000I-218750J0D01*
G01*
X151993750Y-85650000D01*
G75*
G02*
X151775000Y-85431250I0J218750D01*
G01*
X151775000Y-84993750D01*
G75*
G02*
X151993750Y-84775000I218750J0D01*
G01*
G37*
G36*
G01*
X151993750Y-86350000D02*
X152506250Y-86350000D01*
G75*
G02*
X152725000Y-86568750I0J-218750D01*
G01*
X152725000Y-87006250D01*
G75*
G02*
X152506250Y-87225000I-218750J0D01*
G01*
X151993750Y-87225000D01*
G75*
G02*
X151775000Y-87006250I0J218750D01*
G01*
X151775000Y-86568750D01*
G75*
G02*
X151993750Y-86350000I218750J0D01*
G01*
G37*
D13*
X149375000Y-89425000D03*
X149375000Y-91325000D03*
X151375000Y-90375000D03*
G36*
G01*
X157178684Y-85433708D02*
X156816291Y-85071316D01*
G75*
G02*
X156816291Y-84761956I154680J154680D01*
G01*
X157125650Y-84452597D01*
G75*
G02*
X157435010Y-84452597I154680J-154680D01*
G01*
X157797403Y-84814990D01*
G75*
G02*
X157797403Y-85124350I-154680J-154680D01*
G01*
X157488044Y-85433709D01*
G75*
G02*
X157178684Y-85433709I-154680J154680D01*
G01*
G37*
G36*
G01*
X156064990Y-86547402D02*
X155702597Y-86185010D01*
G75*
G02*
X155702597Y-85875650I154680J154680D01*
G01*
X156011956Y-85566291D01*
G75*
G02*
X156321316Y-85566291I154680J-154680D01*
G01*
X156683709Y-85928684D01*
G75*
G02*
X156683709Y-86238044I-154680J-154680D01*
G01*
X156374350Y-86547403D01*
G75*
G02*
X156064990Y-86547403I-154680J154680D01*
G01*
G37*
G36*
G01*
X154827500Y-88690000D02*
X155172500Y-88690000D01*
G75*
G02*
X155320000Y-88837500I0J-147500D01*
G01*
X155320000Y-89132500D01*
G75*
G02*
X155172500Y-89280000I-147500J0D01*
G01*
X154827500Y-89280000D01*
G75*
G02*
X154680000Y-89132500I0J147500D01*
G01*
X154680000Y-88837500D01*
G75*
G02*
X154827500Y-88690000I147500J0D01*
G01*
G37*
G36*
G01*
X154827500Y-87720000D02*
X155172500Y-87720000D01*
G75*
G02*
X155320000Y-87867500I0J-147500D01*
G01*
X155320000Y-88162500D01*
G75*
G02*
X155172500Y-88310000I-147500J0D01*
G01*
X154827500Y-88310000D01*
G75*
G02*
X154680000Y-88162500I0J147500D01*
G01*
X154680000Y-87867500D01*
G75*
G02*
X154827500Y-87720000I147500J0D01*
G01*
G37*
M02*
