M48
; DRILL file {KiCad (5.1.8)-1} date 01/17/21 18:29:55
; FORMAT={-:-/ absolute / inch / decimal}
; #@! TF.CreationDate,2021-01-17T18:29:55+01:00
; #@! TF.GenerationSoftware,Kicad,Pcbnew,(5.1.8)-1
FMAT,2
INCH
T1C0.0118
T2C0.0197
T3C0.0295
T4C0.0394
T5C0.0472
T6C0.1260
T7C0.0394
%
G90
G05
T1
X2.918Y-2.95
X3.0161Y-2.173
X4.1679Y-1.4689
X4.195Y-1.446
X4.257Y-1.286
X4.307Y-3.87
X4.451Y-1.354
X4.467Y-1.39
X4.654Y-1.24
X4.689Y-3.45
X5.002Y-2.93
X5.147Y-3.523
X5.665Y-3.483
X6.112Y-4.213
X6.21Y-2.409
X6.21Y-4.1735
X6.213Y-2.672
X6.2765Y-4.2195
X6.349Y-4.365
X7.02Y-1.388
X7.467Y-1.873
X7.788Y-3.501
X7.821Y-3.541
X8.405Y-3.695
T2
X7.004Y-2.042
X8.2285Y-3.834
X8.281Y-3.834
X8.351Y-1.908
T3
X7.65Y-1.543
X7.65Y-2.143
X7.75Y-1.543
X7.75Y-2.143
X8.35Y-1.543
X8.55Y-1.543
X8.55Y-2.143
T4
X2.2778Y-1.5966
X2.2778Y-4.0966
X2.3778Y-1.5966
X2.3778Y-4.0966
X3.3778Y-1.5966
X3.3778Y-1.6966
X3.3778Y-3.9966
X3.3778Y-4.0966
X3.4278Y-1.8966
X3.4278Y-1.9966
X3.4778Y-1.5966
X3.4778Y-1.6966
X3.4778Y-3.9966
X3.4778Y-4.0966
X3.5278Y-1.8966
X3.5278Y-1.9966
X3.5778Y-1.5966
X3.5778Y-1.6966
X3.5778Y-3.9966
X3.5778Y-4.0966
X3.6278Y-1.8966
X3.6278Y-1.9966
X3.6778Y-1.5966
X3.6778Y-1.6966
X3.6778Y-3.9966
X3.6778Y-4.0966
X3.7278Y-1.8966
X3.7278Y-1.9966
X3.7778Y-1.5966
X3.7778Y-1.6966
X3.7778Y-3.6966
X3.7778Y-3.7966
X3.7778Y-3.9966
X3.7778Y-4.0966
X3.8278Y-1.8966
X3.8278Y-1.9966
X3.8778Y-1.5966
X3.8778Y-1.6966
X3.8778Y-3.6966
X3.8778Y-3.7966
X3.8778Y-3.9966
X3.8778Y-4.0966
X3.9278Y-1.8966
X3.9278Y-1.9966
X3.9778Y-1.5966
X3.9778Y-1.6966
X3.9778Y-3.6966
X3.9778Y-3.7966
X3.9778Y-3.9966
X3.9778Y-4.0966
X4.0278Y-1.8966
X4.0278Y-1.9966
X4.0778Y-1.5966
X4.0778Y-1.6966
X4.0778Y-3.6966
X4.0778Y-3.7966
X4.0778Y-3.9966
X4.0778Y-4.0966
X4.1278Y-1.8966
X4.1278Y-1.9966
X4.1778Y-1.5966
X4.1778Y-1.6966
X4.1778Y-3.6966
X4.1778Y-3.7966
X4.1778Y-3.9966
X4.1778Y-4.0966
X4.2278Y-1.8966
X4.2278Y-1.9966
X4.2778Y-1.5966
X4.2778Y-1.6966
X4.2778Y-3.6966
X4.2778Y-3.7966
X4.2778Y-3.9966
X4.2778Y-4.0966
X4.3278Y-1.8966
X4.3278Y-1.9966
X4.3778Y-1.5966
X4.3778Y-1.6966
X4.3778Y-3.6966
X4.3778Y-3.7966
X4.3778Y-3.9966
X4.3778Y-4.0966
X4.4778Y-1.5966
X4.4778Y-1.6966
X4.4778Y-1.8966
X4.4778Y-1.9966
X4.4778Y-3.6966
X4.4778Y-3.7966
X4.4778Y-3.9966
X4.4778Y-4.0966
X4.5778Y-1.5966
X4.5778Y-1.6966
X4.5778Y-1.8966
X4.5778Y-1.9966
X4.5778Y-3.9966
X4.5778Y-4.0966
X4.6778Y-1.5966
X4.6778Y-1.6966
X4.6778Y-1.8966
X4.6778Y-1.9966
X4.6778Y-3.6966
X4.6778Y-3.7966
X4.6778Y-3.9966
X4.6778Y-4.0966
X4.7778Y-1.5966
X4.7778Y-1.6966
X4.7778Y-1.8966
X4.7778Y-1.9966
X4.7778Y-3.6966
X4.7778Y-3.7966
X4.7778Y-3.9966
X4.7778Y-4.0966
X4.8778Y-1.5966
X4.8778Y-1.6966
X4.8778Y-1.8966
X4.8778Y-1.9966
X4.8778Y-3.6966
X4.8778Y-3.7966
X4.8778Y-3.9966
X4.8778Y-4.0966
X4.9778Y-1.5966
X4.9778Y-1.6966
X4.9778Y-1.8966
X4.9778Y-1.9966
X4.9778Y-3.6966
X4.9778Y-3.7966
X4.9778Y-3.9966
X4.9778Y-4.0966
X5.0778Y-1.5966
X5.0778Y-1.6966
X5.0778Y-1.8966
X5.0778Y-1.9966
X5.0778Y-3.6966
X5.0778Y-3.7966
X5.0778Y-3.9966
X5.0778Y-4.0966
X5.1778Y-1.5966
X5.1778Y-1.6966
X5.1778Y-1.8966
X5.1778Y-1.9966
X5.1778Y-3.6966
X5.1778Y-3.7966
X5.1778Y-3.9966
X5.1778Y-4.0966
X5.2778Y-1.5966
X5.2778Y-1.6966
X5.2778Y-1.8966
X5.2778Y-1.9966
X5.2778Y-3.6966
X5.2778Y-3.7966
X5.2778Y-3.9966
X5.2778Y-4.0966
X5.3778Y-1.5966
X5.3778Y-1.6966
X5.3778Y-1.8966
X5.3778Y-1.9966
X5.3778Y-3.6966
X5.3778Y-3.7966
X5.3778Y-3.9966
X5.3778Y-4.0966
X5.4778Y-1.5966
X5.4778Y-1.6966
X5.4778Y-1.8966
X5.4778Y-1.9966
X5.4778Y-3.6966
X5.4778Y-3.7966
X5.4778Y-3.9966
X5.4778Y-4.0966
X5.5778Y-1.5966
X5.5778Y-1.6966
X5.5778Y-1.8966
X5.5778Y-1.9966
X5.5778Y-3.6966
X5.5778Y-3.7966
X5.5778Y-3.9966
X5.5778Y-4.0966
X5.6778Y-1.5966
X5.6778Y-1.6966
X5.6778Y-1.8966
X5.6778Y-1.9966
X5.6778Y-3.6966
X5.6778Y-3.7966
X5.6778Y-3.9966
X5.6778Y-4.0966
X5.7778Y-1.5966
X5.7778Y-1.6966
X5.7778Y-1.8966
X5.7778Y-1.9966
X5.7778Y-3.6966
X5.7778Y-3.7966
X5.7778Y-3.9966
X5.7778Y-4.0966
X5.8778Y-1.5966
X5.8778Y-1.6966
X5.8778Y-1.8966
X5.8778Y-1.9966
X5.8778Y-3.6966
X5.8778Y-3.7966
X5.8778Y-3.9966
X5.8778Y-4.0966
X5.9778Y-1.5966
X5.9778Y-1.6966
X5.9778Y-1.8966
X5.9778Y-1.9966
X5.9778Y-3.6966
X5.9778Y-3.7966
X5.9778Y-3.9966
X5.9778Y-4.0966
X6.0778Y-1.5966
X6.0778Y-1.6966
X6.0778Y-1.8966
X6.0778Y-1.9966
X6.0778Y-3.6966
X6.0778Y-3.7966
X6.0778Y-3.9966
X6.0778Y-4.0966
X6.1778Y-1.5966
X6.1778Y-1.6966
X6.1778Y-3.9966
X6.1778Y-4.0966
X6.2778Y-1.5966
X6.2778Y-1.6966
X6.2778Y-3.9966
X6.2778Y-4.0966
X6.3778Y-1.5966
X6.3778Y-1.6966
X6.3778Y-3.9966
X6.3778Y-4.0966
X6.4778Y-1.5966
X6.4778Y-1.6966
X6.4778Y-3.9966
X6.4778Y-4.0966
X6.5778Y-1.5966
X6.5778Y-1.6966
X6.5778Y-3.9966
X6.5778Y-4.0966
X6.6778Y-1.5966
X6.6778Y-1.6966
X6.6778Y-3.9966
X6.6778Y-4.0966
X6.7778Y-1.5966
X6.7778Y-1.6966
X6.7778Y-3.9966
X6.7778Y-4.0966
X6.8778Y-1.5966
X6.8778Y-1.6966
X6.8778Y-3.9966
X6.8778Y-4.0966
T5
X8.4347Y-2.316
X8.4347Y-4.186
X8.5075Y-2.316
X8.5075Y-4.186
X8.5804Y-2.316
X8.5804Y-4.186
T6
X8.5405Y-1.3111
X2.2807Y-4.382
X2.2807Y-1.3111
X8.5405Y-4.382
T7
X3.2278Y-3.7966
X6.2278Y-1.9466
T0
M30
