%TF.GenerationSoftware,KiCad,Pcbnew,(5.1.8)-1*%
%TF.CreationDate,2021-01-17T18:30:32+01:00*%
%TF.ProjectId,teensy4_header_breakout,7465656e-7379-4345-9f68-65616465725f,rev?*%
%TF.SameCoordinates,Original*%
%TF.FileFunction,Paste,Bot*%
%TF.FilePolarity,Positive*%
%FSLAX46Y46*%
G04 Gerber Fmt 4.6, Leading zero omitted, Abs format (unit mm)*
G04 Created by KiCad (PCBNEW (5.1.8)-1) date 2021-01-17 18:30:32*
%MOMM*%
%LPD*%
G01*
G04 APERTURE LIST*
%ADD10R,0.450000X0.600000*%
%ADD11R,4.000000X4.000000*%
%ADD12R,5.500000X5.500000*%
%ADD13R,0.350000X0.650000*%
%ADD14R,1.000000X0.600000*%
%ADD15R,1.680000X0.800000*%
%ADD16R,1.500000X1.600000*%
%ADD17R,1.300000X1.290000*%
%ADD18R,1.400000X1.290000*%
%ADD19R,1.700000X1.500000*%
%ADD20R,1.500000X1.700000*%
G04 APERTURE END LIST*
%TO.C,C10*%
G36*
G01*
X109733200Y-33125600D02*
X109733200Y-33625600D01*
G75*
G02*
X109508200Y-33850600I-225000J0D01*
G01*
X109058200Y-33850600D01*
G75*
G02*
X108833200Y-33625600I0J225000D01*
G01*
X108833200Y-33125600D01*
G75*
G02*
X109058200Y-32900600I225000J0D01*
G01*
X109508200Y-32900600D01*
G75*
G02*
X109733200Y-33125600I0J-225000D01*
G01*
G37*
G36*
G01*
X111283200Y-33125600D02*
X111283200Y-33625600D01*
G75*
G02*
X111058200Y-33850600I-225000J0D01*
G01*
X110608200Y-33850600D01*
G75*
G02*
X110383200Y-33625600I0J225000D01*
G01*
X110383200Y-33125600D01*
G75*
G02*
X110608200Y-32900600I225000J0D01*
G01*
X111058200Y-32900600D01*
G75*
G02*
X111283200Y-33125600I0J-225000D01*
G01*
G37*
%TD*%
D10*
%TO.C,D3*%
X109524800Y-87689400D03*
X109524800Y-85589400D03*
%TD*%
%TO.C,R1*%
G36*
G01*
X115640400Y-87905000D02*
X115640400Y-87355000D01*
G75*
G02*
X115840400Y-87155000I200000J0D01*
G01*
X116240400Y-87155000D01*
G75*
G02*
X116440400Y-87355000I0J-200000D01*
G01*
X116440400Y-87905000D01*
G75*
G02*
X116240400Y-88105000I-200000J0D01*
G01*
X115840400Y-88105000D01*
G75*
G02*
X115640400Y-87905000I0J200000D01*
G01*
G37*
G36*
G01*
X117290400Y-87905000D02*
X117290400Y-87355000D01*
G75*
G02*
X117490400Y-87155000I200000J0D01*
G01*
X117890400Y-87155000D01*
G75*
G02*
X118090400Y-87355000I0J-200000D01*
G01*
X118090400Y-87905000D01*
G75*
G02*
X117890400Y-88105000I-200000J0D01*
G01*
X117490400Y-88105000D01*
G75*
G02*
X117290400Y-87905000I0J200000D01*
G01*
G37*
%TD*%
%TO.C,C1*%
G36*
G01*
X113178400Y-86517600D02*
X112678400Y-86517600D01*
G75*
G02*
X112453400Y-86292600I0J225000D01*
G01*
X112453400Y-85842600D01*
G75*
G02*
X112678400Y-85617600I225000J0D01*
G01*
X113178400Y-85617600D01*
G75*
G02*
X113403400Y-85842600I0J-225000D01*
G01*
X113403400Y-86292600D01*
G75*
G02*
X113178400Y-86517600I-225000J0D01*
G01*
G37*
G36*
G01*
X113178400Y-88067600D02*
X112678400Y-88067600D01*
G75*
G02*
X112453400Y-87842600I0J225000D01*
G01*
X112453400Y-87392600D01*
G75*
G02*
X112678400Y-87167600I225000J0D01*
G01*
X113178400Y-87167600D01*
G75*
G02*
X113403400Y-87392600I0J-225000D01*
G01*
X113403400Y-87842600D01*
G75*
G02*
X113178400Y-88067600I-225000J0D01*
G01*
G37*
%TD*%
%TO.C,R4*%
G36*
G01*
X140608600Y-88743200D02*
X140608600Y-88193200D01*
G75*
G02*
X140808600Y-87993200I200000J0D01*
G01*
X141208600Y-87993200D01*
G75*
G02*
X141408600Y-88193200I0J-200000D01*
G01*
X141408600Y-88743200D01*
G75*
G02*
X141208600Y-88943200I-200000J0D01*
G01*
X140808600Y-88943200D01*
G75*
G02*
X140608600Y-88743200I0J200000D01*
G01*
G37*
G36*
G01*
X142258600Y-88743200D02*
X142258600Y-88193200D01*
G75*
G02*
X142458600Y-87993200I200000J0D01*
G01*
X142858600Y-87993200D01*
G75*
G02*
X143058600Y-88193200I0J-200000D01*
G01*
X143058600Y-88743200D01*
G75*
G02*
X142858600Y-88943200I-200000J0D01*
G01*
X142458600Y-88943200D01*
G75*
G02*
X142258600Y-88743200I0J200000D01*
G01*
G37*
%TD*%
%TO.C,C6*%
G36*
G01*
X75942000Y-73436600D02*
X75442000Y-73436600D01*
G75*
G02*
X75217000Y-73211600I0J225000D01*
G01*
X75217000Y-72761600D01*
G75*
G02*
X75442000Y-72536600I225000J0D01*
G01*
X75942000Y-72536600D01*
G75*
G02*
X76167000Y-72761600I0J-225000D01*
G01*
X76167000Y-73211600D01*
G75*
G02*
X75942000Y-73436600I-225000J0D01*
G01*
G37*
G36*
G01*
X75942000Y-74986600D02*
X75442000Y-74986600D01*
G75*
G02*
X75217000Y-74761600I0J225000D01*
G01*
X75217000Y-74311600D01*
G75*
G02*
X75442000Y-74086600I225000J0D01*
G01*
X75942000Y-74086600D01*
G75*
G02*
X76167000Y-74311600I0J-225000D01*
G01*
X76167000Y-74761600D01*
G75*
G02*
X75942000Y-74986600I-225000J0D01*
G01*
G37*
%TD*%
%TO.C,D6*%
X134569200Y-88527600D03*
X134569200Y-86427600D03*
%TD*%
%TO.C,D5*%
X148158200Y-68004400D03*
X148158200Y-65904400D03*
%TD*%
%TO.C,D4*%
X148158200Y-61375000D03*
X148158200Y-59275000D03*
%TD*%
%TO.C,D2*%
X121107200Y-85793000D03*
X121107200Y-83693000D03*
%TD*%
D11*
%TO.C,U4*%
X89966800Y-71755000D03*
D12*
X89966800Y-59005000D03*
X89966800Y-84505000D03*
%TD*%
D13*
%TO.C,U3*%
X155158800Y-108965400D03*
X155808800Y-108965400D03*
X156458800Y-108965400D03*
X157108800Y-108965400D03*
X157108800Y-112065400D03*
X156458800Y-112065400D03*
X155808800Y-112065400D03*
X155158800Y-112065400D03*
D14*
X156733800Y-110127900D03*
X156733800Y-110902900D03*
X155533800Y-110902900D03*
X155533800Y-110127900D03*
%TD*%
D15*
%TO.C,SDcard1*%
X71077200Y-76039400D03*
X71077200Y-74939400D03*
X71077200Y-73839400D03*
X71077200Y-72739400D03*
X71077200Y-71639400D03*
X71077200Y-70539400D03*
X71077200Y-69439400D03*
X71077200Y-68339400D03*
D16*
X71167200Y-66939400D03*
D17*
X69517200Y-66284400D03*
D18*
X62117200Y-66284400D03*
D19*
X56317200Y-66389400D03*
X56317200Y-79889400D03*
D20*
X71167200Y-79589400D03*
%TD*%
%TO.C,R8*%
G36*
G01*
X164067500Y-111409300D02*
X163592500Y-111409300D01*
G75*
G02*
X163355000Y-111171800I0J237500D01*
G01*
X163355000Y-110671800D01*
G75*
G02*
X163592500Y-110434300I237500J0D01*
G01*
X164067500Y-110434300D01*
G75*
G02*
X164305000Y-110671800I0J-237500D01*
G01*
X164305000Y-111171800D01*
G75*
G02*
X164067500Y-111409300I-237500J0D01*
G01*
G37*
G36*
G01*
X164067500Y-113234300D02*
X163592500Y-113234300D01*
G75*
G02*
X163355000Y-112996800I0J237500D01*
G01*
X163355000Y-112496800D01*
G75*
G02*
X163592500Y-112259300I237500J0D01*
G01*
X164067500Y-112259300D01*
G75*
G02*
X164305000Y-112496800I0J-237500D01*
G01*
X164305000Y-112996800D01*
G75*
G02*
X164067500Y-113234300I-237500J0D01*
G01*
G37*
%TD*%
%TO.C,R6*%
G36*
G01*
X127910000Y-84524800D02*
X127360000Y-84524800D01*
G75*
G02*
X127160000Y-84324800I0J200000D01*
G01*
X127160000Y-83924800D01*
G75*
G02*
X127360000Y-83724800I200000J0D01*
G01*
X127910000Y-83724800D01*
G75*
G02*
X128110000Y-83924800I0J-200000D01*
G01*
X128110000Y-84324800D01*
G75*
G02*
X127910000Y-84524800I-200000J0D01*
G01*
G37*
G36*
G01*
X127910000Y-86174800D02*
X127360000Y-86174800D01*
G75*
G02*
X127160000Y-85974800I0J200000D01*
G01*
X127160000Y-85574800D01*
G75*
G02*
X127360000Y-85374800I200000J0D01*
G01*
X127910000Y-85374800D01*
G75*
G02*
X128110000Y-85574800I0J-200000D01*
G01*
X128110000Y-85974800D01*
G75*
G02*
X127910000Y-86174800I-200000J0D01*
G01*
G37*
%TD*%
%TO.C,R5*%
G36*
G01*
X127910000Y-89883200D02*
X127360000Y-89883200D01*
G75*
G02*
X127160000Y-89683200I0J200000D01*
G01*
X127160000Y-89283200D01*
G75*
G02*
X127360000Y-89083200I200000J0D01*
G01*
X127910000Y-89083200D01*
G75*
G02*
X128110000Y-89283200I0J-200000D01*
G01*
X128110000Y-89683200D01*
G75*
G02*
X127910000Y-89883200I-200000J0D01*
G01*
G37*
G36*
G01*
X127910000Y-88233200D02*
X127360000Y-88233200D01*
G75*
G02*
X127160000Y-88033200I0J200000D01*
G01*
X127160000Y-87633200D01*
G75*
G02*
X127360000Y-87433200I200000J0D01*
G01*
X127910000Y-87433200D01*
G75*
G02*
X128110000Y-87633200I0J-200000D01*
G01*
X128110000Y-88033200D01*
G75*
G02*
X127910000Y-88233200I-200000J0D01*
G01*
G37*
%TD*%
%TO.C,R3*%
G36*
G01*
X155161800Y-61463600D02*
X155161800Y-60913600D01*
G75*
G02*
X155361800Y-60713600I200000J0D01*
G01*
X155761800Y-60713600D01*
G75*
G02*
X155961800Y-60913600I0J-200000D01*
G01*
X155961800Y-61463600D01*
G75*
G02*
X155761800Y-61663600I-200000J0D01*
G01*
X155361800Y-61663600D01*
G75*
G02*
X155161800Y-61463600I0J200000D01*
G01*
G37*
G36*
G01*
X153511800Y-61463600D02*
X153511800Y-60913600D01*
G75*
G02*
X153711800Y-60713600I200000J0D01*
G01*
X154111800Y-60713600D01*
G75*
G02*
X154311800Y-60913600I0J-200000D01*
G01*
X154311800Y-61463600D01*
G75*
G02*
X154111800Y-61663600I-200000J0D01*
G01*
X153711800Y-61663600D01*
G75*
G02*
X153511800Y-61463600I0J200000D01*
G01*
G37*
%TD*%
%TO.C,R2*%
G36*
G01*
X153740400Y-68143800D02*
X153740400Y-67593800D01*
G75*
G02*
X153940400Y-67393800I200000J0D01*
G01*
X154340400Y-67393800D01*
G75*
G02*
X154540400Y-67593800I0J-200000D01*
G01*
X154540400Y-68143800D01*
G75*
G02*
X154340400Y-68343800I-200000J0D01*
G01*
X153940400Y-68343800D01*
G75*
G02*
X153740400Y-68143800I0J200000D01*
G01*
G37*
G36*
G01*
X155390400Y-68143800D02*
X155390400Y-67593800D01*
G75*
G02*
X155590400Y-67393800I200000J0D01*
G01*
X155990400Y-67393800D01*
G75*
G02*
X156190400Y-67593800I0J-200000D01*
G01*
X156190400Y-68143800D01*
G75*
G02*
X155990400Y-68343800I-200000J0D01*
G01*
X155590400Y-68343800D01*
G75*
G02*
X155390400Y-68143800I0J200000D01*
G01*
G37*
%TD*%
%TO.C,C11*%
G36*
G01*
X110408600Y-36572000D02*
X110408600Y-36072000D01*
G75*
G02*
X110633600Y-35847000I225000J0D01*
G01*
X111083600Y-35847000D01*
G75*
G02*
X111308600Y-36072000I0J-225000D01*
G01*
X111308600Y-36572000D01*
G75*
G02*
X111083600Y-36797000I-225000J0D01*
G01*
X110633600Y-36797000D01*
G75*
G02*
X110408600Y-36572000I0J225000D01*
G01*
G37*
G36*
G01*
X108858600Y-36572000D02*
X108858600Y-36072000D01*
G75*
G02*
X109083600Y-35847000I225000J0D01*
G01*
X109533600Y-35847000D01*
G75*
G02*
X109758600Y-36072000I0J-225000D01*
G01*
X109758600Y-36572000D01*
G75*
G02*
X109533600Y-36797000I-225000J0D01*
G01*
X109083600Y-36797000D01*
G75*
G02*
X108858600Y-36572000I0J225000D01*
G01*
G37*
%TD*%
%TO.C,C9*%
G36*
G01*
X156764800Y-106456600D02*
X156264800Y-106456600D01*
G75*
G02*
X156039800Y-106231600I0J225000D01*
G01*
X156039800Y-105781600D01*
G75*
G02*
X156264800Y-105556600I225000J0D01*
G01*
X156764800Y-105556600D01*
G75*
G02*
X156989800Y-105781600I0J-225000D01*
G01*
X156989800Y-106231600D01*
G75*
G02*
X156764800Y-106456600I-225000J0D01*
G01*
G37*
G36*
G01*
X156764800Y-108006600D02*
X156264800Y-108006600D01*
G75*
G02*
X156039800Y-107781600I0J225000D01*
G01*
X156039800Y-107331600D01*
G75*
G02*
X156264800Y-107106600I225000J0D01*
G01*
X156764800Y-107106600D01*
G75*
G02*
X156989800Y-107331600I0J-225000D01*
G01*
X156989800Y-107781600D01*
G75*
G02*
X156764800Y-108006600I-225000J0D01*
G01*
G37*
%TD*%
%TO.C,C8*%
G36*
G01*
X158754000Y-110421000D02*
X159254000Y-110421000D01*
G75*
G02*
X159479000Y-110646000I0J-225000D01*
G01*
X159479000Y-111096000D01*
G75*
G02*
X159254000Y-111321000I-225000J0D01*
G01*
X158754000Y-111321000D01*
G75*
G02*
X158529000Y-111096000I0J225000D01*
G01*
X158529000Y-110646000D01*
G75*
G02*
X158754000Y-110421000I225000J0D01*
G01*
G37*
G36*
G01*
X158754000Y-108871000D02*
X159254000Y-108871000D01*
G75*
G02*
X159479000Y-109096000I0J-225000D01*
G01*
X159479000Y-109546000D01*
G75*
G02*
X159254000Y-109771000I-225000J0D01*
G01*
X158754000Y-109771000D01*
G75*
G02*
X158529000Y-109546000I0J225000D01*
G01*
X158529000Y-109096000D01*
G75*
G02*
X158754000Y-108871000I225000J0D01*
G01*
G37*
%TD*%
%TO.C,C5*%
G36*
G01*
X124735400Y-84574800D02*
X124235400Y-84574800D01*
G75*
G02*
X124010400Y-84349800I0J225000D01*
G01*
X124010400Y-83899800D01*
G75*
G02*
X124235400Y-83674800I225000J0D01*
G01*
X124735400Y-83674800D01*
G75*
G02*
X124960400Y-83899800I0J-225000D01*
G01*
X124960400Y-84349800D01*
G75*
G02*
X124735400Y-84574800I-225000J0D01*
G01*
G37*
G36*
G01*
X124735400Y-86124800D02*
X124235400Y-86124800D01*
G75*
G02*
X124010400Y-85899800I0J225000D01*
G01*
X124010400Y-85449800D01*
G75*
G02*
X124235400Y-85224800I225000J0D01*
G01*
X124735400Y-85224800D01*
G75*
G02*
X124960400Y-85449800I0J-225000D01*
G01*
X124960400Y-85899800D01*
G75*
G02*
X124735400Y-86124800I-225000J0D01*
G01*
G37*
%TD*%
%TO.C,C4*%
G36*
G01*
X138248200Y-87330400D02*
X137748200Y-87330400D01*
G75*
G02*
X137523200Y-87105400I0J225000D01*
G01*
X137523200Y-86655400D01*
G75*
G02*
X137748200Y-86430400I225000J0D01*
G01*
X138248200Y-86430400D01*
G75*
G02*
X138473200Y-86655400I0J-225000D01*
G01*
X138473200Y-87105400D01*
G75*
G02*
X138248200Y-87330400I-225000J0D01*
G01*
G37*
G36*
G01*
X138248200Y-88880400D02*
X137748200Y-88880400D01*
G75*
G02*
X137523200Y-88655400I0J225000D01*
G01*
X137523200Y-88205400D01*
G75*
G02*
X137748200Y-87980400I225000J0D01*
G01*
X138248200Y-87980400D01*
G75*
G02*
X138473200Y-88205400I0J-225000D01*
G01*
X138473200Y-88655400D01*
G75*
G02*
X138248200Y-88880400I-225000J0D01*
G01*
G37*
%TD*%
%TO.C,C3*%
G36*
G01*
X151557800Y-60076200D02*
X151057800Y-60076200D01*
G75*
G02*
X150832800Y-59851200I0J225000D01*
G01*
X150832800Y-59401200D01*
G75*
G02*
X151057800Y-59176200I225000J0D01*
G01*
X151557800Y-59176200D01*
G75*
G02*
X151782800Y-59401200I0J-225000D01*
G01*
X151782800Y-59851200D01*
G75*
G02*
X151557800Y-60076200I-225000J0D01*
G01*
G37*
G36*
G01*
X151557800Y-61626200D02*
X151057800Y-61626200D01*
G75*
G02*
X150832800Y-61401200I0J225000D01*
G01*
X150832800Y-60951200D01*
G75*
G02*
X151057800Y-60726200I225000J0D01*
G01*
X151557800Y-60726200D01*
G75*
G02*
X151782800Y-60951200I0J-225000D01*
G01*
X151782800Y-61401200D01*
G75*
G02*
X151557800Y-61626200I-225000J0D01*
G01*
G37*
%TD*%
%TO.C,C2*%
G36*
G01*
X151583200Y-66756400D02*
X151083200Y-66756400D01*
G75*
G02*
X150858200Y-66531400I0J225000D01*
G01*
X150858200Y-66081400D01*
G75*
G02*
X151083200Y-65856400I225000J0D01*
G01*
X151583200Y-65856400D01*
G75*
G02*
X151808200Y-66081400I0J-225000D01*
G01*
X151808200Y-66531400D01*
G75*
G02*
X151583200Y-66756400I-225000J0D01*
G01*
G37*
G36*
G01*
X151583200Y-68306400D02*
X151083200Y-68306400D01*
G75*
G02*
X150858200Y-68081400I0J225000D01*
G01*
X150858200Y-67631400D01*
G75*
G02*
X151083200Y-67406400I225000J0D01*
G01*
X151583200Y-67406400D01*
G75*
G02*
X151808200Y-67631400I0J-225000D01*
G01*
X151808200Y-68081400D01*
G75*
G02*
X151583200Y-68306400I-225000J0D01*
G01*
G37*
%TD*%
M02*
