%TF.GenerationSoftware,KiCad,Pcbnew,(5.1.8)-1*%
%TF.CreationDate,2021-01-17T18:30:32+01:00*%
%TF.ProjectId,teensy4_header_breakout,7465656e-7379-4345-9f68-65616465725f,rev?*%
%TF.SameCoordinates,Original*%
%TF.FileFunction,Copper,L1,Top*%
%TF.FilePolarity,Positive*%
%FSLAX46Y46*%
G04 Gerber Fmt 4.6, Leading zero omitted, Abs format (unit mm)*
G04 Created by KiCad (PCBNEW (5.1.8)-1) date 2021-01-17 18:30:32*
%MOMM*%
%LPD*%
G01*
G04 APERTURE LIST*
%TA.AperFunction,ComponentPad*%
%ADD10R,1.800000X1.800000*%
%TD*%
%TA.AperFunction,ComponentPad*%
%ADD11C,1.800000*%
%TD*%
%TA.AperFunction,WasherPad*%
%ADD12C,3.500000*%
%TD*%
%TA.AperFunction,ComponentPad*%
%ADD13C,3.600000*%
%TD*%
%TA.AperFunction,ConnectorPad*%
%ADD14C,5.500000*%
%TD*%
%TA.AperFunction,SMDPad,CuDef*%
%ADD15R,2.250000X2.150000*%
%TD*%
%TA.AperFunction,SMDPad,CuDef*%
%ADD16R,0.350000X0.650000*%
%TD*%
%TA.AperFunction,SMDPad,CuDef*%
%ADD17R,2.400000X1.550000*%
%TD*%
%TA.AperFunction,ComponentPad*%
%ADD18C,1.250000*%
%TD*%
%TA.AperFunction,SMDPad,CuDef*%
%ADD19R,4.800000X0.700000*%
%TD*%
%TA.AperFunction,ComponentPad*%
%ADD20C,1.524000*%
%TD*%
%TA.AperFunction,SMDPad,CuDef*%
%ADD21R,0.900000X1.200000*%
%TD*%
%TA.AperFunction,ViaPad*%
%ADD22C,0.600000*%
%TD*%
%TA.AperFunction,ViaPad*%
%ADD23C,1.000000*%
%TD*%
%TA.AperFunction,Conductor*%
%ADD24C,0.200000*%
%TD*%
%TA.AperFunction,Conductor*%
%ADD25C,1.000000*%
%TD*%
%TA.AperFunction,Conductor*%
%ADD26C,0.250000*%
%TD*%
%TA.AperFunction,Conductor*%
%ADD27C,0.750000*%
%TD*%
%TA.AperFunction,Conductor*%
%ADD28C,0.700000*%
%TD*%
%TA.AperFunction,Conductor*%
%ADD29C,0.500000*%
%TD*%
G04 APERTURE END LIST*
D10*
%TO.P,U2,CN11_1*%
%TO.N,VN-TX*%
X85796200Y-104052800D03*
D11*
%TO.P,U2,CN11_2*%
%TO.N,VN-RX*%
X85796200Y-101512800D03*
%TO.P,U2,CN11_3*%
%TO.N,4G-TX*%
X88336200Y-104052800D03*
%TO.P,U2,CN11_4*%
%TO.N,4G-RX*%
X88336200Y-101512800D03*
%TO.P,U2,CN11_5*%
%TO.N,N/C*%
X90876200Y-104052800D03*
%TO.P,U2,CN11_6*%
%TO.N,+5V*%
X90876200Y-101512800D03*
%TO.P,U2,CN11_7*%
%TO.N,N/C*%
X93416200Y-104052800D03*
%TO.P,U2,CN11_8*%
%TO.N,GND*%
X93416200Y-101512800D03*
%TO.P,U2,CN11_9*%
%TO.N,Servo-RX*%
X95956200Y-104052800D03*
%TO.P,U2,CN11_10*%
%TO.N,N/C*%
X95956200Y-101512800D03*
%TO.P,U2,CN11_11*%
%TO.N,Servo-TX*%
X98496200Y-104052800D03*
%TO.P,U2,CN11_12*%
%TO.N,N/C*%
X98496200Y-101512800D03*
%TO.P,U2,CN11_13*%
X101036200Y-104052800D03*
%TO.P,U2,CN11_14*%
X101036200Y-101512800D03*
%TO.P,U2,CN11_15*%
X103576200Y-104052800D03*
%TO.P,U2,CN11_16*%
%TO.N,+3V3*%
X103576200Y-101512800D03*
%TO.P,U2,CN11_17*%
%TO.N,N/C*%
X106116200Y-104052800D03*
%TO.P,U2,CN11_18*%
X106116200Y-101512800D03*
%TO.P,U2,CN11_19*%
X108656200Y-104052800D03*
%TO.P,U2,CN11_20*%
X108656200Y-101512800D03*
%TO.P,U2,CN11_21*%
%TO.N,I2C1-SDA*%
X111196200Y-104052800D03*
%TO.P,U2,CN11_22*%
%TO.N,N/C*%
X111196200Y-101512800D03*
%TO.P,U2,CN11_23*%
X113736200Y-104052800D03*
%TO.P,U2,CN11_24*%
X113736200Y-101512800D03*
%TO.P,U2,CN11_25*%
X116276200Y-104052800D03*
%TO.P,U2,CN11_26*%
X116276200Y-101512800D03*
%TO.P,U2,CN11_27*%
X118816200Y-104052800D03*
%TO.P,U2,CN11_28*%
%TO.N,SusDipsFiltered-FR*%
X118816200Y-101512800D03*
%TO.P,U2,CN11_29*%
%TO.N,N/C*%
X121356200Y-104052800D03*
%TO.P,U2,CN11_30*%
%TO.N,WSHE-RL*%
X121356200Y-101512800D03*
%TO.P,U2,CN11_31*%
%TO.N,N/C*%
X123896200Y-104052800D03*
%TO.P,U2,CN11_32*%
%TO.N,ClutchPSFiltered*%
X123896200Y-101512800D03*
%TO.P,U2,CN11_33*%
%TO.N,Net-(U2-PadCN11_33)*%
X126436200Y-104052800D03*
%TO.P,U2,CN11_34*%
%TO.N,N/C*%
X126436200Y-101512800D03*
%TO.P,U2,CN11_35*%
X128976200Y-104052800D03*
%TO.P,U2,CN11_36*%
X128976200Y-101512800D03*
%TO.P,U2,CN11_37*%
X131516200Y-104052800D03*
%TO.P,U2,CN11_38*%
%TO.N,SusDipsFiltered-RL*%
X131516200Y-101512800D03*
%TO.P,U2,CN11_39*%
%TO.N,N/C*%
X134056200Y-104052800D03*
%TO.P,U2,CN11_40*%
X134056200Y-101512800D03*
%TO.P,U2,CN11_41*%
X136596200Y-104052800D03*
%TO.P,U2,CN11_42*%
X136596200Y-101512800D03*
%TO.P,U2,CN11_43*%
X139136200Y-104052800D03*
%TO.P,U2,CN11_44*%
X139136200Y-101512800D03*
%TO.P,U2,CN11_45*%
%TO.N,GearPS-MOSI*%
X141676200Y-104052800D03*
%TO.P,U2,CN11_46*%
%TO.N,SD-SCK*%
X141676200Y-101512800D03*
%TO.P,U2,CN11_47*%
%TO.N,N/C*%
X144216200Y-104052800D03*
%TO.P,U2,CN11_48*%
X144216200Y-101512800D03*
%TO.P,U2,CN11_49*%
X146756200Y-104052800D03*
%TO.P,U2,CN11_50*%
%TO.N,SD-MISO*%
X146756200Y-101512800D03*
%TO.P,U2,CN11_51*%
%TO.N,N/C*%
X149296200Y-104052800D03*
%TO.P,U2,CN11_52*%
X149296200Y-101512800D03*
%TO.P,U2,CN11_53*%
X151836200Y-104052800D03*
%TO.P,U2,CN11_54*%
X151836200Y-101512800D03*
%TO.P,U2,CN11_55*%
%TO.N,CANFD-TX*%
X154376200Y-104052800D03*
%TO.P,U2,CN11_56*%
%TO.N,Servo-IO*%
X154376200Y-101512800D03*
%TO.P,U2,CN11_57*%
%TO.N,CANFD-RX*%
X156916200Y-104052800D03*
%TO.P,U2,CN11_58*%
%TO.N,N/C*%
X156916200Y-101512800D03*
%TO.P,U2,CN11_59*%
X159456200Y-104052800D03*
%TO.P,U2,CN11_60*%
X159456200Y-101512800D03*
%TO.P,U2,CN11_61*%
X161996200Y-104052800D03*
%TO.P,U2,CN11_62*%
%TO.N,SD-MOSI*%
X161996200Y-101512800D03*
%TO.P,U2,CN11_63*%
%TO.N,GearPS-MISO*%
X164536200Y-104052800D03*
%TO.P,U2,CN11_64*%
%TO.N,N/C*%
X164536200Y-101512800D03*
%TO.P,U2,CN11_65*%
X167076200Y-104052800D03*
%TO.P,U2,CN11_66*%
X167076200Y-101512800D03*
%TO.P,U2,CN11_67*%
X169616200Y-104052800D03*
%TO.P,U2,CN11_68*%
X169616200Y-101512800D03*
%TO.P,U2,CN11_69*%
X172156200Y-104052800D03*
%TO.P,U2,CN11_70*%
X172156200Y-101512800D03*
%TO.P,U2,CN11_71*%
X174696200Y-104052800D03*
%TO.P,U2,CN11_72*%
%TO.N,GND*%
X174696200Y-101512800D03*
D10*
%TO.P,U2,CN8_1*%
%TO.N,N/C*%
X95956200Y-96432800D03*
D11*
%TO.P,U2,CN8_2*%
X95956200Y-93892800D03*
%TO.P,U2,CN8_3*%
X98496200Y-96432800D03*
%TO.P,U2,CN8_4*%
X98496200Y-93892800D03*
%TO.P,U2,CN8_5*%
X101036200Y-96432800D03*
%TO.P,U2,CN8_6*%
X101036200Y-93892800D03*
%TO.P,U2,CN8_7*%
X103576200Y-96432800D03*
%TO.P,U2,CN8_8*%
X103576200Y-93892800D03*
%TO.P,U2,CN8_9*%
X106116200Y-96432800D03*
%TO.P,U2,CN8_10*%
X106116200Y-93892800D03*
%TO.P,U2,CN8_11*%
X108656200Y-96432800D03*
%TO.P,U2,CN8_12*%
X108656200Y-93892800D03*
%TO.P,U2,CN8_13*%
X111196200Y-96432800D03*
%TO.P,U2,CN8_14*%
X111196200Y-93892800D03*
%TO.P,U2,CN8_15*%
X113736200Y-96432800D03*
%TO.P,U2,CN8_16*%
X113736200Y-93892800D03*
D10*
%TO.P,U2,CN9_1*%
X118816200Y-96432800D03*
D11*
%TO.P,U2,CN9_2*%
X118816200Y-93892800D03*
%TO.P,U2,CN9_3*%
X121356200Y-96432800D03*
%TO.P,U2,CN9_4*%
X121356200Y-93892800D03*
%TO.P,U2,CN9_5*%
X123896200Y-96432800D03*
%TO.P,U2,CN9_6*%
X123896200Y-93892800D03*
%TO.P,U2,CN9_7*%
X126436200Y-96432800D03*
%TO.P,U2,CN9_8*%
X126436200Y-93892800D03*
%TO.P,U2,CN9_9*%
X128976200Y-96432800D03*
%TO.P,U2,CN9_10*%
X128976200Y-93892800D03*
%TO.P,U2,CN9_11*%
X131516200Y-96432800D03*
%TO.P,U2,CN9_12*%
X131516200Y-93892800D03*
%TO.P,U2,CN9_13*%
X134056200Y-96432800D03*
%TO.P,U2,CN9_14*%
X134056200Y-93892800D03*
%TO.P,U2,CN9_15*%
X136596200Y-96432800D03*
%TO.P,U2,CN9_16*%
X136596200Y-93892800D03*
%TO.P,U2,CN9_17*%
X139136200Y-96432800D03*
%TO.P,U2,CN9_18*%
X139136200Y-93892800D03*
%TO.P,U2,CN9_19*%
X141676200Y-96432800D03*
%TO.P,U2,CN9_20*%
X141676200Y-93892800D03*
%TO.P,U2,CN9_21*%
X144216200Y-96432800D03*
%TO.P,U2,CN9_22*%
X144216200Y-93892800D03*
%TO.P,U2,CN9_23*%
X146756200Y-96432800D03*
%TO.P,U2,CN9_24*%
X146756200Y-93892800D03*
%TO.P,U2,CN9_25*%
X149296200Y-96432800D03*
%TO.P,U2,CN9_26*%
X149296200Y-93892800D03*
%TO.P,U2,CN9_27*%
X151836200Y-96432800D03*
%TO.P,U2,CN9_28*%
X151836200Y-93892800D03*
%TO.P,U2,CN9_29*%
X154376200Y-96432800D03*
%TO.P,U2,CN9_30*%
X154376200Y-93892800D03*
D10*
%TO.P,U2,CN7_1*%
X87066200Y-50712800D03*
D11*
%TO.P,U2,CN7_2*%
X87066200Y-48172800D03*
%TO.P,U2,CN7_3*%
X89606200Y-50712800D03*
%TO.P,U2,CN7_4*%
X89606200Y-48172800D03*
%TO.P,U2,CN7_5*%
X92146200Y-50712800D03*
%TO.P,U2,CN7_6*%
X92146200Y-48172800D03*
%TO.P,U2,CN7_7*%
X94686200Y-50712800D03*
%TO.P,U2,CN7_8*%
X94686200Y-48172800D03*
%TO.P,U2,CN7_9*%
X97226200Y-50712800D03*
%TO.P,U2,CN7_10*%
X97226200Y-48172800D03*
%TO.P,U2,CN7_11*%
X99766200Y-50712800D03*
%TO.P,U2,CN7_12*%
X99766200Y-48172800D03*
%TO.P,U2,CN7_13*%
X102306200Y-50712800D03*
%TO.P,U2,CN7_14*%
X102306200Y-48172800D03*
%TO.P,U2,CN7_15*%
X104846200Y-50712800D03*
%TO.P,U2,CN7_16*%
X104846200Y-48172800D03*
%TO.P,U2,CN7_17*%
X107386200Y-50712800D03*
%TO.P,U2,CN7_18*%
X107386200Y-48172800D03*
%TO.P,U2,CN7_19*%
X109926200Y-50712800D03*
%TO.P,U2,CN7_20*%
X109926200Y-48172800D03*
D10*
%TO.P,U2,CN10_1*%
X113736200Y-50712800D03*
D11*
%TO.P,U2,CN10_2*%
X113736200Y-48172800D03*
%TO.P,U2,CN10_3*%
X116276200Y-50712800D03*
%TO.P,U2,CN10_4*%
X116276200Y-48172800D03*
%TO.P,U2,CN10_5*%
X118816200Y-50712800D03*
%TO.P,U2,CN10_6*%
X118816200Y-48172800D03*
%TO.P,U2,CN10_7*%
X121356200Y-50712800D03*
%TO.P,U2,CN10_8*%
X121356200Y-48172800D03*
%TO.P,U2,CN10_9*%
X123896200Y-50712800D03*
%TO.P,U2,CN10_10*%
X123896200Y-48172800D03*
%TO.P,U2,CN10_11*%
X126436200Y-50712800D03*
%TO.P,U2,CN10_12*%
X126436200Y-48172800D03*
%TO.P,U2,CN10_13*%
X128976200Y-50712800D03*
%TO.P,U2,CN10_14*%
X128976200Y-48172800D03*
%TO.P,U2,CN10_15*%
X131516200Y-50712800D03*
%TO.P,U2,CN10_16*%
X131516200Y-48172800D03*
%TO.P,U2,CN10_17*%
X134056200Y-50712800D03*
%TO.P,U2,CN10_18*%
X134056200Y-48172800D03*
%TO.P,U2,CN10_19*%
X136596200Y-50712800D03*
%TO.P,U2,CN10_20*%
X136596200Y-48172800D03*
%TO.P,U2,CN10_21*%
X139136200Y-50712800D03*
%TO.P,U2,CN10_22*%
X139136200Y-48172800D03*
%TO.P,U2,CN10_23*%
X141676200Y-50712800D03*
%TO.P,U2,CN10_24*%
X141676200Y-48172800D03*
%TO.P,U2,CN10_25*%
X144216200Y-50712800D03*
%TO.P,U2,CN10_26*%
X144216200Y-48172800D03*
%TO.P,U2,CN10_27*%
X146756200Y-50712800D03*
%TO.P,U2,CN10_28*%
X146756200Y-48172800D03*
%TO.P,U2,CN10_29*%
X149296200Y-50712800D03*
%TO.P,U2,CN10_30*%
X149296200Y-48172800D03*
%TO.P,U2,CN10_31*%
X151836200Y-50712800D03*
%TO.P,U2,CN10_32*%
X151836200Y-48172800D03*
%TO.P,U2,CN10_33*%
X154376200Y-50712800D03*
%TO.P,U2,CN10_34*%
X154376200Y-48172800D03*
D10*
%TO.P,U2,CN12_1*%
X85796200Y-43092800D03*
D11*
%TO.P,U2,CN12_2*%
X85796200Y-40552800D03*
%TO.P,U2,CN12_3*%
%TO.N,I2C1-SCL*%
X88336200Y-43092800D03*
%TO.P,U2,CN12_4*%
%TO.N,N/C*%
X88336200Y-40552800D03*
%TO.P,U2,CN12_5*%
X90876200Y-43092800D03*
%TO.P,U2,CN12_6*%
X90876200Y-40552800D03*
%TO.P,U2,CN12_7*%
X93416200Y-43092800D03*
%TO.P,U2,CN12_8*%
X93416200Y-40552800D03*
%TO.P,U2,CN12_9*%
X95956200Y-43092800D03*
%TO.P,U2,CN12_10*%
X95956200Y-40552800D03*
%TO.P,U2,CN12_11*%
%TO.N,GearPS-SCK*%
X98496200Y-43092800D03*
%TO.P,U2,CN12_12*%
%TO.N,N/C*%
X98496200Y-40552800D03*
%TO.P,U2,CN12_13*%
%TO.N,SusDipsFiltered-FL*%
X101036200Y-43092800D03*
%TO.P,U2,CN12_14*%
%TO.N,N/C*%
X101036200Y-40552800D03*
%TO.P,U2,CN12_15*%
X103576200Y-43092800D03*
%TO.P,U2,CN12_16*%
%TO.N,CAN2.0-RX*%
X103576200Y-40552800D03*
%TO.P,U2,CN12_17*%
%TO.N,CAN2.0-TX*%
X106116200Y-43092800D03*
%TO.P,U2,CN12_18*%
%TO.N,N/C*%
X106116200Y-40552800D03*
%TO.P,U2,CN12_19*%
%TO.N,WSHE-FL*%
X108656200Y-43092800D03*
%TO.P,U2,CN12_20*%
%TO.N,N/C*%
X108656200Y-40552800D03*
%TO.P,U2,CN12_21*%
X111196200Y-43092800D03*
%TO.P,U2,CN12_22*%
%TO.N,GPIO-digital1*%
X111196200Y-40552800D03*
%TO.P,U2,CN12_23*%
%TO.N,N/C*%
X113736200Y-43092800D03*
%TO.P,U2,CN12_24*%
%TO.N,SusDipsFiltered-RR*%
X113736200Y-40552800D03*
%TO.P,U2,CN12_25*%
%TO.N,WSHE-FR*%
X116276200Y-43092800D03*
%TO.P,U2,CN12_26*%
%TO.N,N/C*%
X116276200Y-40552800D03*
%TO.P,U2,CN12_27*%
X118816200Y-43092800D03*
%TO.P,U2,CN12_28*%
X118816200Y-40552800D03*
%TO.P,U2,CN12_29*%
X121356200Y-43092800D03*
%TO.P,U2,CN12_30*%
X121356200Y-40552800D03*
%TO.P,U2,CN12_31*%
X123896200Y-43092800D03*
%TO.P,U2,CN12_32*%
X123896200Y-40552800D03*
%TO.P,U2,CN12_33*%
X126436200Y-43092800D03*
%TO.P,U2,CN12_34*%
%TO.N,StearingAS*%
X126436200Y-40552800D03*
%TO.P,U2,CN12_35*%
%TO.N,N/C*%
X128976200Y-43092800D03*
%TO.P,U2,CN12_36*%
X128976200Y-40552800D03*
%TO.P,U2,CN12_37*%
X131516200Y-43092800D03*
%TO.P,U2,CN12_38*%
X131516200Y-40552800D03*
%TO.P,U2,CN12_39*%
X134056200Y-43092800D03*
%TO.P,U2,CN12_40*%
%TO.N,GearPS-CS*%
X134056200Y-40552800D03*
%TO.P,U2,CN12_41*%
%TO.N,WSHE-RR*%
X136596200Y-43092800D03*
%TO.P,U2,CN12_42*%
%TO.N,N/C*%
X136596200Y-40552800D03*
%TO.P,U2,CN12_43*%
X139136200Y-43092800D03*
%TO.P,U2,CN12_44*%
%TO.N,SD-CS*%
X139136200Y-40552800D03*
%TO.P,U2,CN12_45*%
%TO.N,N/C*%
X141676200Y-43092800D03*
%TO.P,U2,CN12_46*%
X141676200Y-40552800D03*
%TO.P,U2,CN12_47*%
X144216200Y-43092800D03*
%TO.P,U2,CN12_48*%
X144216200Y-40552800D03*
%TO.P,U2,CN12_49*%
X146756200Y-43092800D03*
%TO.P,U2,CN12_50*%
%TO.N,GPIO-analog-ut1*%
X146756200Y-40552800D03*
%TO.P,U2,CN12_51*%
%TO.N,N/C*%
X149296200Y-43092800D03*
%TO.P,U2,CN12_52*%
X149296200Y-40552800D03*
%TO.P,U2,CN12_53*%
X151836200Y-43092800D03*
%TO.P,U2,CN12_54*%
X151836200Y-40552800D03*
%TO.P,U2,CN12_55*%
X154376200Y-43092800D03*
%TO.P,U2,CN12_56*%
X154376200Y-40552800D03*
%TO.P,U2,CN12_57*%
X156916200Y-43092800D03*
%TO.P,U2,CN12_58*%
X156916200Y-40552800D03*
%TO.P,U2,CN12_59*%
X159456200Y-43092800D03*
%TO.P,U2,CN12_60*%
%TO.N,GPIO-analog-ut2*%
X159456200Y-40552800D03*
%TO.P,U2,CN12_61*%
%TO.N,N/C*%
X161996200Y-43092800D03*
%TO.P,U2,CN12_62*%
%TO.N,GPIO-digital2*%
X161996200Y-40552800D03*
%TO.P,U2,CN12_63*%
%TO.N,N/C*%
X164536200Y-43092800D03*
%TO.P,U2,CN12_64*%
X164536200Y-40552800D03*
%TO.P,U2,CN12_65*%
X167076200Y-43092800D03*
%TO.P,U2,CN12_66*%
X167076200Y-40552800D03*
%TO.P,U2,CN12_67*%
X169616200Y-43092800D03*
%TO.P,U2,CN12_68*%
X169616200Y-40552800D03*
%TO.P,U2,CN12_69*%
X172156200Y-43092800D03*
%TO.P,U2,CN12_70*%
X172156200Y-40552800D03*
%TO.P,U2,CN12_71*%
X174696200Y-43092800D03*
%TO.P,U2,CN12_72*%
%TO.N,GND*%
X174696200Y-40552800D03*
%TO.P,U2,GND*%
%TO.N,N/C*%
X60396200Y-104052800D03*
D10*
X57856200Y-104052800D03*
X57856200Y-40552800D03*
D11*
X60396200Y-40552800D03*
D12*
%TO.P,U2,*%
%TO.N,*%
X81986200Y-96432800D03*
X158186200Y-49442800D03*
%TD*%
D13*
%TO.P,H4,1*%
%TO.N,N/C*%
X57929200Y-33302800D03*
D14*
X57929200Y-33302800D03*
%TD*%
D13*
%TO.P,H3,1*%
%TO.N,N/C*%
X216929200Y-33302800D03*
D14*
X216929200Y-33302800D03*
%TD*%
D13*
%TO.P,H2,1*%
%TO.N,N/C*%
X57929200Y-111302800D03*
D14*
X57929200Y-111302800D03*
%TD*%
D13*
%TO.P,H1,1*%
%TO.N,N/C*%
X216929200Y-111302800D03*
D14*
X216929200Y-111302800D03*
%TD*%
D15*
%TO.P,Z1,1*%
%TO.N,12V_safe*%
X191856000Y-33883600D03*
%TO.P,Z1,2*%
%TO.N,12V_GND*%
X196256000Y-33883600D03*
%TD*%
D16*
%TO.P,U1,1*%
%TO.N,CAN2.0-TX*%
X105349400Y-35763800D03*
%TO.P,U1,2*%
%TO.N,GND*%
X105999400Y-35763800D03*
%TO.P,U1,3*%
%TO.N,+5V*%
X106649400Y-35763800D03*
%TO.P,U1,4*%
%TO.N,CAN2.0-RX*%
X107299400Y-35763800D03*
%TO.P,U1,5*%
%TO.N,+3V3*%
X107299400Y-32663800D03*
%TO.P,U1,6*%
%TO.N,CAN2.0-CANL*%
X106649400Y-32663800D03*
%TO.P,U1,7*%
%TO.N,CAN2.0-CANH*%
X105999400Y-32663800D03*
%TO.P,U1,8*%
%TO.N,GND*%
X105349400Y-32663800D03*
D17*
%TO.P,U1,9*%
X106324400Y-34213800D03*
%TD*%
%TO.P,R7,2*%
%TO.N,CAN2.0-CANL*%
%TA.AperFunction,SMDPad,CuDef*%
G36*
G01*
X116678700Y-33853300D02*
X117153700Y-33853300D01*
G75*
G02*
X117391200Y-34090800I0J-237500D01*
G01*
X117391200Y-34590800D01*
G75*
G02*
X117153700Y-34828300I-237500J0D01*
G01*
X116678700Y-34828300D01*
G75*
G02*
X116441200Y-34590800I0J237500D01*
G01*
X116441200Y-34090800D01*
G75*
G02*
X116678700Y-33853300I237500J0D01*
G01*
G37*
%TD.AperFunction*%
%TO.P,R7,1*%
%TO.N,CAN2.0-CANH*%
%TA.AperFunction,SMDPad,CuDef*%
G36*
G01*
X116678700Y-32028300D02*
X117153700Y-32028300D01*
G75*
G02*
X117391200Y-32265800I0J-237500D01*
G01*
X117391200Y-32765800D01*
G75*
G02*
X117153700Y-33003300I-237500J0D01*
G01*
X116678700Y-33003300D01*
G75*
G02*
X116441200Y-32765800I0J237500D01*
G01*
X116441200Y-32265800D01*
G75*
G02*
X116678700Y-32028300I237500J0D01*
G01*
G37*
%TD.AperFunction*%
%TD*%
D18*
%TO.P,PS1,2*%
%TO.N,12V_GND*%
X194310000Y-54432200D03*
%TO.P,PS1,3*%
X196850000Y-54432200D03*
%TO.P,PS1,11*%
%TO.N,N/C*%
X217170000Y-54432200D03*
%TO.P,PS1,14*%
%TO.N,+5V*%
X217170000Y-39192200D03*
%TO.P,PS1,16*%
%TO.N,GND*%
X212090000Y-39192200D03*
%TO.P,PS1,22*%
%TO.N,12V_safe*%
X196850000Y-39192200D03*
%TO.P,PS1,23*%
X194310000Y-39192200D03*
%TD*%
D19*
%TO.P,MX1,36*%
%TO.N,12V_IN*%
X203888340Y-63333680D03*
%TO.P,MX1,35*%
%TO.N,12V_GND*%
X203888340Y-64433680D03*
%TO.P,MX1,34*%
%TO.N,I2C1-SCL*%
X203888340Y-65533680D03*
%TO.P,MX1,33*%
%TO.N,CAN2.0-CANH*%
X203888340Y-66633680D03*
%TO.P,MX1,32*%
%TO.N,CAN2.0-CANL*%
X203888340Y-67733680D03*
%TO.P,MX1,31*%
%TO.N,GPIO-digital1*%
X203888340Y-68833680D03*
%TO.P,MX1,30*%
%TO.N,GPIO-analog-ut1*%
X203888340Y-69933680D03*
%TO.P,MX1,29*%
%TO.N,GPIO-analog-ut2*%
X203888340Y-71033680D03*
%TO.P,MX1,28*%
%TO.N,GPIO-digital2*%
X203888340Y-72133680D03*
%TO.P,MX1,27*%
%TO.N,WSHE-RR*%
X203888340Y-73233680D03*
%TO.P,MX1,26*%
%TO.N,GearPS-CS*%
X203888340Y-74333680D03*
%TO.P,MX1,25*%
%TO.N,StearingAS*%
X203888340Y-75433680D03*
%TO.P,MX1,24*%
%TO.N,WSHE-FR*%
X203888340Y-76533680D03*
%TO.P,MX1,23*%
%TO.N,WSHE-FL*%
X203888340Y-77633680D03*
%TO.P,MX1,22*%
%TO.N,+5V*%
X203888340Y-78733680D03*
%TO.P,MX1,21*%
%TO.N,SusDips-RR*%
X203888340Y-79833680D03*
%TO.P,MX1,20*%
%TO.N,SusDips-FL*%
X203888340Y-80933680D03*
%TO.P,MX1,19*%
%TO.N,GearPS-SCK*%
X203888340Y-82033680D03*
%TO.P,MX1,18*%
%TO.N,SusDips-FR*%
X203888340Y-83133680D03*
%TO.P,MX1,17*%
%TO.N,SusDips-RL*%
X203888340Y-84233680D03*
%TO.P,MX1,16*%
%TO.N,ClutchPS*%
X203888340Y-85333680D03*
%TO.P,MX1,15*%
%TO.N,I2C1-SDA*%
X203888340Y-86433680D03*
%TO.P,MX1,14*%
%TO.N,CANFD-CANL*%
X203888340Y-87533680D03*
%TO.P,MX1,13*%
%TO.N,CANFD-CANH*%
X203888340Y-88633680D03*
%TO.P,MX1,12*%
%TO.N,WSHE-RL*%
X203888340Y-89733680D03*
%TO.P,MX1,11*%
%TO.N,GearPS-MISO*%
X203888340Y-90833680D03*
%TO.P,MX1,10*%
%TO.N,Servo-IO*%
X203888340Y-91933680D03*
%TO.P,MX1,9*%
%TO.N,GearPS-MOSI*%
X203888340Y-93033680D03*
%TO.P,MX1,8*%
%TO.N,+3V3*%
X203888340Y-94133680D03*
%TO.P,MX1,7*%
%TO.N,Servo-TX*%
X203888340Y-95233680D03*
%TO.P,MX1,6*%
%TO.N,Servo-RX*%
X203888340Y-96333680D03*
%TO.P,MX1,5*%
%TO.N,GND*%
X203888340Y-97433680D03*
%TO.P,MX1,4*%
%TO.N,4G-TX*%
X203888340Y-98533680D03*
%TO.P,MX1,3*%
%TO.N,VN-TX*%
X203888340Y-99633680D03*
%TO.P,MX1,2*%
%TO.N,VN-RX*%
X203888340Y-100733680D03*
%TO.P,MX1,1*%
%TO.N,4G-RX*%
X203888340Y-101833680D03*
D20*
%TO.P,MX1,60*%
%TO.N,N/C*%
X214241180Y-106325400D03*
%TO.P,MX1,90*%
X214241180Y-58825400D03*
%TO.P,MX1,70*%
X216091180Y-106325400D03*
%TO.P,MX1,100*%
X216091180Y-58825400D03*
%TO.P,MX1,80*%
X217941180Y-106325400D03*
%TO.P,MX1,110*%
X217941180Y-58825400D03*
%TD*%
%TO.P,F1,2*%
%TO.N,Net-(D1-Pad2)*%
%TA.AperFunction,SMDPad,CuDef*%
G36*
G01*
X206719600Y-33113400D02*
X206719600Y-35263400D01*
G75*
G02*
X206469600Y-35513400I-250000J0D01*
G01*
X205669600Y-35513400D01*
G75*
G02*
X205419600Y-35263400I0J250000D01*
G01*
X205419600Y-33113400D01*
G75*
G02*
X205669600Y-32863400I250000J0D01*
G01*
X206469600Y-32863400D01*
G75*
G02*
X206719600Y-33113400I0J-250000D01*
G01*
G37*
%TD.AperFunction*%
%TO.P,F1,1*%
%TO.N,12V_IN*%
%TA.AperFunction,SMDPad,CuDef*%
G36*
G01*
X209819600Y-33113400D02*
X209819600Y-35263400D01*
G75*
G02*
X209569600Y-35513400I-250000J0D01*
G01*
X208769600Y-35513400D01*
G75*
G02*
X208519600Y-35263400I0J250000D01*
G01*
X208519600Y-33113400D01*
G75*
G02*
X208769600Y-32863400I250000J0D01*
G01*
X209569600Y-32863400D01*
G75*
G02*
X209819600Y-33113400I0J-250000D01*
G01*
G37*
%TD.AperFunction*%
%TD*%
D21*
%TO.P,D1,1*%
%TO.N,12V_safe*%
X199645000Y-34213800D03*
%TO.P,D1,2*%
%TO.N,Net-(D1-Pad2)*%
X202945000Y-34213800D03*
%TD*%
%TO.P,C7,1*%
%TO.N,12V_GND*%
%TA.AperFunction,SMDPad,CuDef*%
G36*
G01*
X188741600Y-39315200D02*
X188741600Y-38815200D01*
G75*
G02*
X188966600Y-38590200I225000J0D01*
G01*
X189416600Y-38590200D01*
G75*
G02*
X189641600Y-38815200I0J-225000D01*
G01*
X189641600Y-39315200D01*
G75*
G02*
X189416600Y-39540200I-225000J0D01*
G01*
X188966600Y-39540200D01*
G75*
G02*
X188741600Y-39315200I0J225000D01*
G01*
G37*
%TD.AperFunction*%
%TO.P,C7,2*%
%TO.N,12V_safe*%
%TA.AperFunction,SMDPad,CuDef*%
G36*
G01*
X190291600Y-39315200D02*
X190291600Y-38815200D01*
G75*
G02*
X190516600Y-38590200I225000J0D01*
G01*
X190966600Y-38590200D01*
G75*
G02*
X191191600Y-38815200I0J-225000D01*
G01*
X191191600Y-39315200D01*
G75*
G02*
X190966600Y-39540200I-225000J0D01*
G01*
X190516600Y-39540200D01*
G75*
G02*
X190291600Y-39315200I0J225000D01*
G01*
G37*
%TD.AperFunction*%
%TD*%
D22*
%TO.N,GND*%
X105864600Y-37311120D03*
D23*
X212115400Y-48463200D03*
X210337400Y-97383600D03*
D22*
X118211594Y-31496000D03*
X157734000Y-106006900D03*
X159423100Y-107175300D03*
D23*
X209003900Y-97383600D03*
D22*
%TO.N,+3V3*%
X108127800Y-32664400D03*
X161264600Y-110871000D03*
X113055400Y-34391600D03*
X213487000Y-93853000D03*
X178308000Y-35255200D03*
%TO.N,+5V*%
X106552535Y-36727935D03*
D23*
X177901600Y-51866800D03*
D22*
X113461800Y-35306000D03*
X189661800Y-47574200D03*
X155244800Y-107010200D03*
%TO.N,CANFD-CANL*%
X197815200Y-88925400D03*
%TO.N,CANFD-CANH*%
X198653400Y-89941400D03*
%TO.N,SD-CS*%
X74117200Y-74930000D03*
X76608602Y-55194200D03*
%TO.N,SusDips-FR*%
X119100600Y-87630000D03*
%TO.N,SusDips-FL*%
X157810200Y-67868800D03*
%TO.N,SusDips-RR*%
X157734000Y-61188600D03*
%TO.N,SusDips-RL*%
X143891000Y-88468200D03*
%TO.N,ClutchPS*%
X130733800Y-89484200D03*
%TO.N,GearPS-SCK*%
X127050800Y-74422000D03*
%TO.N,I2C1-SDA*%
X109397800Y-98298000D03*
%TD*%
D24*
%TO.N,GND*%
X105864600Y-35898600D02*
X105864600Y-37311120D01*
X105999400Y-35763800D02*
X105864600Y-35898600D01*
X93416200Y-101512800D02*
X92652202Y-101512800D01*
D25*
X212090000Y-48437800D02*
X212115400Y-48463200D01*
X212090000Y-39192200D02*
X212090000Y-48437800D01*
X210337400Y-97383600D02*
X209003900Y-97383600D01*
X208381600Y-97383600D02*
X208229200Y-97383600D01*
D26*
X203938420Y-97383600D02*
X203888340Y-97433680D01*
D24*
X117805194Y-31089600D02*
X118211594Y-31496000D01*
X106398600Y-31089600D02*
X117805194Y-31089600D01*
X105349400Y-32663800D02*
X105349400Y-32138800D01*
X105349400Y-32138800D02*
X106398600Y-31089600D01*
X157734000Y-106006900D02*
X158254700Y-106006900D01*
X158254700Y-106006900D02*
X159423100Y-107175300D01*
D27*
X208381600Y-97383600D02*
X208330800Y-97434400D01*
D28*
X208330800Y-97434400D02*
X203989220Y-97434400D01*
D25*
X209003900Y-97383600D02*
X208381600Y-97383600D01*
%TO.N,12V_IN*%
X204165200Y-57099200D02*
X200609200Y-60655200D01*
X204216000Y-57099200D02*
X204165200Y-57099200D01*
X209169600Y-52145600D02*
X204216000Y-57099200D01*
X209169600Y-34188400D02*
X209169600Y-52145600D01*
X200609200Y-60655200D02*
X199948800Y-61315600D01*
X199948800Y-61315600D02*
X199948800Y-62230000D01*
X199948800Y-62230000D02*
X199948800Y-62280800D01*
X199948800Y-62280800D02*
X200406000Y-62738000D01*
D26*
X200406000Y-62738000D02*
X200406000Y-62814200D01*
D28*
X200925480Y-63333680D02*
X203888340Y-63333680D01*
X200406000Y-62814200D02*
X200925480Y-63333680D01*
D24*
%TO.N,+3V3*%
X108127200Y-32663800D02*
X108127800Y-32664400D01*
X107299400Y-32663800D02*
X108127200Y-32663800D01*
X103576200Y-101512800D02*
X103576200Y-102276798D01*
D26*
X103576200Y-101512800D02*
X103576200Y-102239798D01*
X103576200Y-102239798D02*
X102285800Y-103530198D01*
X102285800Y-110845600D02*
X103167910Y-111727710D01*
X102285800Y-103530198D02*
X102285800Y-110845600D01*
D24*
X161264600Y-111720820D02*
X161271490Y-111727710D01*
X161264600Y-110871000D02*
X161264600Y-111720820D01*
D26*
X103167910Y-111727710D02*
X161271490Y-111727710D01*
X198184140Y-96633660D02*
X200684120Y-94133680D01*
X198184140Y-102488912D02*
X198184140Y-96633660D01*
X188945342Y-111727710D02*
X198184140Y-102488912D01*
X200684120Y-94133680D02*
X203888340Y-94133680D01*
X161271490Y-111727710D02*
X188945342Y-111727710D01*
D24*
X213487000Y-93853000D02*
X213182200Y-94157800D01*
X203912460Y-94157800D02*
X203888340Y-94133680D01*
X213182200Y-94157800D02*
X203912460Y-94157800D01*
X114858800Y-35534600D02*
X177901600Y-35534600D01*
X113715800Y-34391600D02*
X114858800Y-35534600D01*
X113055400Y-34391600D02*
X113715800Y-34391600D01*
X178028600Y-35534600D02*
X178308000Y-35255200D01*
X177901600Y-35534600D02*
X178028600Y-35534600D01*
%TO.N,+5V*%
X106649400Y-36631070D02*
X106552535Y-36727935D01*
X106649400Y-35763800D02*
X106649400Y-36631070D01*
D25*
X119557800Y-56159400D02*
X90876200Y-84841000D01*
X162864800Y-56159400D02*
X119557800Y-56159400D01*
X167157400Y-51866800D02*
X162864800Y-56159400D01*
X177901600Y-51866800D02*
X167157400Y-51866800D01*
X90876200Y-99258200D02*
X90876200Y-101512800D01*
X90876200Y-84841000D02*
X90876200Y-99258200D01*
D24*
X122250200Y-107010200D02*
X155244800Y-107010200D01*
X120091200Y-104851200D02*
X122250200Y-107010200D01*
X120091200Y-100482400D02*
X120091200Y-104851200D01*
X118867000Y-99258200D02*
X120091200Y-100482400D01*
X90876200Y-99258200D02*
X118867000Y-99258200D01*
D29*
X177901600Y-69291200D02*
X181844080Y-73233680D01*
X177901600Y-51866800D02*
X177901600Y-69291200D01*
D24*
X189331600Y-47244000D02*
X189661800Y-47574200D01*
X178104800Y-36017200D02*
X189331600Y-47244000D01*
X114173000Y-36017200D02*
X178104800Y-36017200D01*
X113461800Y-35306000D02*
X114173000Y-36017200D01*
X203805820Y-78816200D02*
X203888340Y-78733680D01*
D29*
X181844080Y-73233680D02*
X182651400Y-74041000D01*
X182651400Y-74041000D02*
X187452000Y-78841600D01*
X187452000Y-78841600D02*
X200533000Y-78841600D01*
D26*
X203780420Y-78841600D02*
X203888340Y-78733680D01*
D29*
X200533000Y-78841600D02*
X203780420Y-78841600D01*
D24*
%TO.N,Net-(D1-Pad2)*%
X205714600Y-34543400D02*
X206069600Y-34188400D01*
D25*
X202970400Y-34188400D02*
X202945000Y-34213800D01*
X206069600Y-34188400D02*
X202970400Y-34188400D01*
%TO.N,12V_safe*%
X199645000Y-36397200D02*
X196850000Y-39192200D01*
X199645000Y-34213800D02*
X199645000Y-36397200D01*
X196850000Y-39192200D02*
X194310000Y-39192200D01*
X191856000Y-36738200D02*
X194310000Y-39192200D01*
X191856000Y-33883600D02*
X191856000Y-36738200D01*
X194183000Y-39065200D02*
X194310000Y-39192200D01*
X190741600Y-39065200D02*
X194183000Y-39065200D01*
D24*
%TO.N,4G-RX*%
X88336200Y-101512800D02*
X88336200Y-102276798D01*
X191169240Y-114552780D02*
X203888340Y-101833680D01*
X84199780Y-114552780D02*
X191169240Y-114552780D01*
X83921600Y-114274600D02*
X84199780Y-114552780D01*
X83921600Y-102844600D02*
X83921600Y-114274600D01*
X85293200Y-100152200D02*
X83921600Y-101523800D01*
X87909400Y-100152200D02*
X85293200Y-100152200D01*
X83921600Y-101523800D02*
X83921600Y-102821701D01*
X88336200Y-100579000D02*
X87909400Y-100152200D01*
X88336200Y-101512800D02*
X88336200Y-100579000D01*
%TO.N,4G-TX*%
X200322720Y-98533680D02*
X203888340Y-98533680D01*
X199809180Y-99047220D02*
X200322720Y-98533680D01*
X199809180Y-103162020D02*
X199809180Y-99047220D01*
X189618450Y-113352750D02*
X199809180Y-103162020D01*
X89857750Y-113352750D02*
X189618450Y-113352750D01*
X88336200Y-111831200D02*
X89857750Y-113352750D01*
X88336200Y-104052800D02*
X88336200Y-111831200D01*
%TO.N,VN-RX*%
X200609200Y-101219000D02*
X201094520Y-100733680D01*
X200609200Y-103530400D02*
X200609200Y-101219000D01*
X189986830Y-114152770D02*
X200609200Y-103530400D01*
X85145970Y-114152770D02*
X189986830Y-114152770D01*
X201094520Y-100733680D02*
X203888340Y-100733680D01*
X84321610Y-113328410D02*
X85145970Y-114152770D01*
X84321610Y-102987390D02*
X84321610Y-113328410D01*
X85796200Y-101512800D02*
X84321610Y-102987390D01*
%TO.N,VN-TX*%
X200594320Y-99633680D02*
X203888340Y-99633680D01*
X200209190Y-100018810D02*
X200594320Y-99633680D01*
X200209190Y-103346210D02*
X200209190Y-100018810D01*
X189802640Y-113752760D02*
X200209190Y-103346210D01*
X87031960Y-113752760D02*
X189802640Y-113752760D01*
X85796200Y-112517000D02*
X87031960Y-113752760D01*
X85796200Y-104052800D02*
X85796200Y-112517000D01*
%TO.N,GearPS-MISO*%
X196957990Y-101949210D02*
X196957990Y-94583210D01*
X196957990Y-94583210D02*
X200707520Y-90833680D01*
X170980080Y-110502680D02*
X188404520Y-110502680D01*
X200707520Y-90833680D02*
X203888340Y-90833680D01*
X170033600Y-109556200D02*
X170980080Y-110502680D01*
X170033600Y-109550200D02*
X170033600Y-109556200D01*
X188404520Y-110502680D02*
X196957990Y-101949210D01*
X164536200Y-104052800D02*
X170033600Y-109550200D01*
%TO.N,GearPS-MOSI*%
X200514120Y-93033680D02*
X203888340Y-93033680D01*
X188769298Y-111302700D02*
X197759130Y-102312868D01*
X163271100Y-111302700D02*
X188769298Y-111302700D01*
X141676200Y-104052800D02*
X143973200Y-106349800D01*
X197759130Y-102312868D02*
X197759130Y-95788670D01*
X143973200Y-106349800D02*
X156337000Y-106349800D01*
X156337000Y-106349800D02*
X159918400Y-109931200D01*
X197759130Y-95788670D02*
X200514120Y-93033680D01*
X159918400Y-109931200D02*
X161899600Y-109931200D01*
X161899600Y-109931200D02*
X163271100Y-111302700D01*
%TO.N,CAN2.0-CANL*%
X115366800Y-34340800D02*
X116916200Y-34340800D01*
X106984800Y-31927800D02*
X112953800Y-31927800D01*
X106824399Y-32088201D02*
X106984800Y-31927800D01*
X106824399Y-32663800D02*
X106824399Y-32088201D01*
X112953800Y-31927800D02*
X115366800Y-34340800D01*
X106649400Y-32663800D02*
X106824399Y-32663800D01*
D29*
X203804020Y-67818000D02*
X203888340Y-67733680D01*
D24*
X199051680Y-67733680D02*
X203888340Y-67733680D01*
X190423800Y-59105800D02*
X199051680Y-67733680D01*
X190423800Y-46355000D02*
X190423800Y-59105800D01*
X178409600Y-34340800D02*
X190423800Y-46355000D01*
X116916200Y-34340800D02*
X178409600Y-34340800D01*
%TO.N,CAN2.0-CANH*%
X203878860Y-66624200D02*
X203888340Y-66633680D01*
X116916200Y-32028300D02*
X116916200Y-32515800D01*
X116377511Y-31489611D02*
X116916200Y-32028300D01*
X106648589Y-31489611D02*
X116377511Y-31489611D01*
X105999400Y-32138800D02*
X106648589Y-31489611D01*
X105999400Y-32663800D02*
X105999400Y-32138800D01*
X198942280Y-66633680D02*
X203888340Y-66633680D01*
X190830200Y-58521600D02*
X198942280Y-66633680D01*
X190830200Y-46151800D02*
X190830200Y-58521600D01*
X177190400Y-32512000D02*
X190830200Y-46151800D01*
X134899400Y-32512000D02*
X177190400Y-32512000D01*
X134895600Y-32515800D02*
X134899400Y-32512000D01*
X116916200Y-32515800D02*
X134895600Y-32515800D01*
%TO.N,CANFD-CANL*%
X203883060Y-87528400D02*
X203888340Y-87533680D01*
X199212200Y-87528400D02*
X203883060Y-87528400D01*
X197815200Y-88925400D02*
X199212200Y-87528400D01*
%TO.N,CANFD-CANH*%
X203825220Y-88696800D02*
X203888340Y-88633680D01*
X199898000Y-88696800D02*
X203825220Y-88696800D01*
X198653400Y-89941400D02*
X199898000Y-88696800D01*
%TO.N,Servo-IO*%
X197358000Y-95250000D02*
X200674320Y-91933680D01*
X197358000Y-95621861D02*
X197358000Y-95250000D01*
X197359120Y-95622981D02*
X197358000Y-95621861D01*
X164530088Y-110902690D02*
X188603610Y-110902690D01*
X197359120Y-102147180D02*
X197359120Y-95622981D01*
X158191200Y-104563802D02*
X164530088Y-110902690D01*
X188603610Y-110902690D02*
X197359120Y-102147180D01*
X158191200Y-103551798D02*
X158191200Y-104563802D01*
X157433202Y-102793800D02*
X158191200Y-103551798D01*
X200674320Y-91933680D02*
X203888340Y-91933680D01*
X156421198Y-102793800D02*
X157433202Y-102793800D01*
X155140198Y-101512800D02*
X156421198Y-102793800D01*
X154376200Y-101512800D02*
X155140198Y-101512800D01*
%TO.N,Servo-RX*%
X199009160Y-97256440D02*
X199931920Y-96333680D01*
X199009160Y-102830644D02*
X199009160Y-97256440D01*
X189287074Y-112552730D02*
X199009160Y-102830644D01*
X97642930Y-112552730D02*
X189287074Y-112552730D01*
X95956200Y-110866000D02*
X97642930Y-112552730D01*
X199931920Y-96333680D02*
X203888340Y-96333680D01*
X95956200Y-104052800D02*
X95956200Y-110866000D01*
%TO.N,Servo-TX*%
X200466221Y-95233680D02*
X203888340Y-95233680D01*
X198609150Y-97090751D02*
X200466221Y-95233680D01*
X198609150Y-102664956D02*
X198609150Y-97090751D01*
X189121386Y-112152720D02*
X198609150Y-102664956D01*
X99859120Y-112152720D02*
X189121386Y-112152720D01*
X98496200Y-110789800D02*
X99859120Y-112152720D01*
X98496200Y-104052800D02*
X98496200Y-110789800D01*
%TO.N,SD-CS*%
X76606400Y-55196402D02*
X76608602Y-55194200D01*
X76606400Y-72440800D02*
X76606400Y-55196402D01*
X74117200Y-74930000D02*
X76606400Y-72440800D01*
%TO.N,CAN2.0-RX*%
X107299400Y-36829600D02*
X103576200Y-40552800D01*
X107299400Y-35763800D02*
X107299400Y-36829600D01*
%TO.N,CAN2.0-TX*%
X104831800Y-41808400D02*
X106116200Y-43092800D01*
X103055798Y-41808400D02*
X104831800Y-41808400D01*
X102311200Y-41063802D02*
X103055798Y-41808400D01*
X102311200Y-40041798D02*
X102311200Y-41063802D01*
X105349400Y-37003598D02*
X102311200Y-40041798D01*
X105349400Y-35763800D02*
X105349400Y-37003598D01*
D25*
%TO.N,12V_GND*%
X189191600Y-39065200D02*
X189191600Y-31026400D01*
X189191600Y-31026400D02*
X189763400Y-30454600D01*
X196256000Y-33791800D02*
X199593200Y-30454600D01*
X196256000Y-33883600D02*
X196256000Y-33791800D01*
X189763400Y-30454600D02*
X199593200Y-30454600D01*
X194310000Y-54432200D02*
X196850000Y-54432200D01*
D26*
X204009220Y-64312800D02*
X203888340Y-64433680D01*
D25*
X199129880Y-64433680D02*
X200177400Y-64433680D01*
X196850000Y-62153800D02*
X199129880Y-64433680D01*
X196850000Y-54432200D02*
X196850000Y-62153800D01*
D28*
X200177400Y-64433680D02*
X203888340Y-64433680D01*
D25*
X208534000Y-63347600D02*
X207518000Y-64363600D01*
X208534000Y-57912000D02*
X208534000Y-63347600D01*
X214706200Y-51739800D02*
X208534000Y-57912000D01*
X214706200Y-37795200D02*
X214706200Y-51739800D01*
X212521800Y-35610800D02*
X214706200Y-37795200D01*
X212521800Y-32004000D02*
X212521800Y-35610800D01*
X210972400Y-30454600D02*
X212521800Y-32004000D01*
X199593200Y-30454600D02*
X210972400Y-30454600D01*
D26*
X203958420Y-64363600D02*
X203888340Y-64433680D01*
D28*
X207518000Y-64363600D02*
X207446592Y-64435008D01*
X207446592Y-64435008D02*
X204029828Y-64435008D01*
D24*
%TO.N,SusDips-FR*%
X152756120Y-83133680D02*
X203888340Y-83133680D01*
X148259800Y-87630000D02*
X152756120Y-83133680D01*
X119100600Y-87630000D02*
X148259800Y-87630000D01*
%TO.N,SusDips-FL*%
X164617400Y-67868800D02*
X157810200Y-67868800D01*
X177682280Y-80933680D02*
X164617400Y-67868800D01*
X203888340Y-80933680D02*
X177682280Y-80933680D01*
%TO.N,SusDips-RR*%
X203864420Y-79857600D02*
X203888340Y-79833680D01*
X158927800Y-61188600D02*
X157734000Y-61188600D01*
X177571400Y-79832200D02*
X158927800Y-61188600D01*
X187664769Y-79832200D02*
X177571400Y-79832200D01*
X187666249Y-79833680D02*
X187664769Y-79832200D01*
X203888340Y-79833680D02*
X187666249Y-79833680D01*
%TO.N,SusDips-RL*%
X143891000Y-88468200D02*
X149910800Y-88468200D01*
X154145320Y-84233680D02*
X203888340Y-84233680D01*
X149910800Y-88468200D02*
X154145320Y-84233680D01*
%TO.N,ClutchPS*%
X203878020Y-85344000D02*
X203888340Y-85333680D01*
X149631400Y-90043000D02*
X154330400Y-85344000D01*
X154330400Y-85344000D02*
X203878020Y-85344000D01*
X131292600Y-90043000D02*
X149631400Y-90043000D01*
X130733800Y-89484200D02*
X131292600Y-90043000D01*
%TO.N,WSHE-RL*%
X121356200Y-101512800D02*
X121356200Y-102276798D01*
X200639120Y-89733680D02*
X203888340Y-89733680D01*
X193751200Y-96621600D02*
X200639120Y-89733680D01*
X160070800Y-96621600D02*
X193751200Y-96621600D01*
X158419800Y-98272600D02*
X160070800Y-96621600D01*
X123317000Y-98272600D02*
X158419800Y-98272600D01*
X121356200Y-100233400D02*
X123317000Y-98272600D01*
X121356200Y-101512800D02*
X121356200Y-100233400D01*
%TO.N,GearPS-SCK*%
X127050800Y-74422000D02*
X129159000Y-76530200D01*
X203888340Y-82033680D02*
X161459480Y-82033680D01*
X155956000Y-76530200D02*
X129159000Y-76530200D01*
X161459480Y-82033680D02*
X155956000Y-76530200D01*
%TO.N,WSHE-FL*%
X203888340Y-77633680D02*
X203848820Y-77673200D01*
X173431200Y-45974000D02*
X111537400Y-45974000D01*
X179273200Y-51816000D02*
X173431200Y-45974000D01*
X179273200Y-61112400D02*
X179273200Y-51816000D01*
X111537400Y-45974000D02*
X108656200Y-43092800D01*
X195794480Y-77633680D02*
X179273200Y-61112400D01*
X203888340Y-77633680D02*
X195794480Y-77633680D01*
%TO.N,WSHE-FR*%
X203884860Y-76530200D02*
X203888340Y-76533680D01*
X118757389Y-45573989D02*
X116276200Y-43092800D01*
X179705000Y-51682100D02*
X173596889Y-45573989D01*
X179705000Y-60502800D02*
X179705000Y-51682100D01*
X195735880Y-76533680D02*
X179705000Y-60502800D01*
X173596889Y-45573989D02*
X118757389Y-45573989D01*
X203888340Y-76533680D02*
X195735880Y-76533680D01*
%TO.N,StearingAS*%
X203888340Y-75433680D02*
X203737720Y-75433680D01*
X127685800Y-43578402D02*
X127685800Y-41802400D01*
X129281376Y-45173978D02*
X127685800Y-43578402D01*
X173762578Y-45173978D02*
X129281376Y-45173978D01*
X180136800Y-51548200D02*
X173762578Y-45173978D01*
X180136800Y-60096400D02*
X180136800Y-51548200D01*
X127685800Y-41802400D02*
X126436200Y-40552800D01*
X195474080Y-75433680D02*
X180136800Y-60096400D01*
X203888340Y-75433680D02*
X195474080Y-75433680D01*
%TO.N,GearPS-CS*%
X195339280Y-74333680D02*
X203888340Y-74333680D01*
X180543200Y-59537600D02*
X195339280Y-74333680D01*
X173928267Y-44773967D02*
X180543200Y-51388900D01*
X180543200Y-51388900D02*
X180543200Y-59537600D01*
X135909167Y-44773967D02*
X173928267Y-44773967D01*
X135331200Y-44196000D02*
X135909167Y-44773967D01*
X135331200Y-41827800D02*
X135331200Y-44196000D01*
X134056200Y-40552800D02*
X135331200Y-41827800D01*
%TO.N,WSHE-RR*%
X203868420Y-73253600D02*
X203888340Y-73233680D01*
X195128280Y-73233680D02*
X203888340Y-73233680D01*
X181000400Y-59105800D02*
X195128280Y-73233680D01*
X181000400Y-51280400D02*
X181000400Y-59105800D01*
X174093956Y-44373956D02*
X181000400Y-51280400D01*
X137877356Y-44373956D02*
X174093956Y-44373956D01*
X136596200Y-43092800D02*
X137877356Y-44373956D01*
%TO.N,I2C1-SDA*%
X203888340Y-86433680D02*
X154764720Y-86433680D01*
X154764720Y-86433680D02*
X149783800Y-91414600D01*
X149783800Y-91414600D02*
X118211600Y-91414600D01*
X118211600Y-91414600D02*
X116306600Y-93319600D01*
X116306600Y-93319600D02*
X116306600Y-96545400D01*
X116306600Y-96545400D02*
X114554000Y-98298000D01*
X114554000Y-98298000D02*
X109397800Y-98298000D01*
%TO.N,I2C1-SCL*%
X203839220Y-65582800D02*
X203888340Y-65533680D01*
X89536201Y-41892799D02*
X89536201Y-39777601D01*
X88336200Y-43092800D02*
X89536201Y-41892799D01*
X89536201Y-39777601D02*
X98757602Y-30556200D01*
X141960600Y-30556200D02*
X141986000Y-30581600D01*
X98757602Y-30556200D02*
X141960600Y-30556200D01*
X141986000Y-30581600D02*
X176606200Y-30581600D01*
X176606200Y-30581600D02*
X176784000Y-30581600D01*
X198477280Y-65533680D02*
X203888340Y-65533680D01*
X191922400Y-58978800D02*
X198477280Y-65533680D01*
X191922400Y-45516800D02*
X191922400Y-58978800D01*
X176987200Y-30581600D02*
X191922400Y-45516800D01*
X176606200Y-30581600D02*
X176987200Y-30581600D01*
%TO.N,GPIO-digital2*%
X203733620Y-72288400D02*
X203888340Y-72133680D01*
X199463880Y-72133680D02*
X203888340Y-72133680D01*
X186410600Y-59080400D02*
X199463880Y-72133680D01*
X186410600Y-49606200D02*
X186410600Y-59080400D01*
X163499800Y-39039800D02*
X175844200Y-39039800D01*
X175844200Y-39039800D02*
X186410600Y-49606200D01*
X163280600Y-39259000D02*
X163499800Y-39039800D01*
X163280600Y-39268400D02*
X163280600Y-39259000D01*
X161996200Y-40552800D02*
X163280600Y-39268400D01*
%TO.N,GPIO-digital1*%
X203863260Y-68808600D02*
X203888340Y-68833680D01*
X199313480Y-68833680D02*
X203888340Y-68833680D01*
X188544200Y-58064400D02*
X199313480Y-68833680D01*
X188544200Y-47752000D02*
X188544200Y-58064400D01*
X177723800Y-36931600D02*
X188544200Y-47752000D01*
X113995200Y-36931600D02*
X177723800Y-36931600D01*
X111196200Y-39730600D02*
X113995200Y-36931600D01*
X111196200Y-40552800D02*
X111196200Y-39730600D01*
%TO.N,GPIO-analog-ut2*%
X203751220Y-71170800D02*
X203888340Y-71033680D01*
X199176680Y-71033680D02*
X203888340Y-71033680D01*
X186944000Y-58801000D02*
X199176680Y-71033680D01*
X175996600Y-38481000D02*
X186944000Y-49428400D01*
X186944000Y-49428400D02*
X186944000Y-58801000D01*
X161528000Y-38481000D02*
X175996600Y-38481000D01*
X159456200Y-40552800D02*
X161528000Y-38481000D01*
%TO.N,GPIO-analog-ut1*%
X203830060Y-69875400D02*
X203888340Y-69933680D01*
X199346680Y-69933680D02*
X203888340Y-69933680D01*
X187807600Y-58394600D02*
X199346680Y-69933680D01*
X187807600Y-48056800D02*
X187807600Y-58394600D01*
X177495200Y-37744400D02*
X187807600Y-48056800D01*
X148945600Y-38354000D02*
X149555200Y-37744400D01*
X149555200Y-37744400D02*
X177495200Y-37744400D01*
X148945600Y-38363400D02*
X148945600Y-38354000D01*
X146756200Y-40552800D02*
X148945600Y-38363400D01*
%TD*%
M02*
