%TF.GenerationSoftware,KiCad,Pcbnew,(5.1.8)-1*%
%TF.CreationDate,2021-01-17T18:30:32+01:00*%
%TF.ProjectId,teensy4_header_breakout,7465656e-7379-4345-9f68-65616465725f,rev?*%
%TF.SameCoordinates,Original*%
%TF.FileFunction,Paste,Top*%
%TF.FilePolarity,Positive*%
%FSLAX46Y46*%
G04 Gerber Fmt 4.6, Leading zero omitted, Abs format (unit mm)*
G04 Created by KiCad (PCBNEW (5.1.8)-1) date 2021-01-17 18:30:32*
%MOMM*%
%LPD*%
G01*
G04 APERTURE LIST*
%ADD10R,2.250000X2.150000*%
%ADD11R,0.350000X0.650000*%
%ADD12R,1.000000X0.600000*%
%ADD13R,4.800000X0.700000*%
%ADD14R,0.900000X1.200000*%
G04 APERTURE END LIST*
D10*
%TO.C,Z1*%
X191856000Y-33883600D03*
X196256000Y-33883600D03*
%TD*%
D11*
%TO.C,U1*%
X105349400Y-35763800D03*
X105999400Y-35763800D03*
X106649400Y-35763800D03*
X107299400Y-35763800D03*
X107299400Y-32663800D03*
X106649400Y-32663800D03*
X105999400Y-32663800D03*
X105349400Y-32663800D03*
D12*
X106924400Y-34601300D03*
X106924400Y-33826300D03*
X105724400Y-33826300D03*
X105724400Y-34601300D03*
%TD*%
%TO.C,R7*%
G36*
G01*
X116678700Y-33853300D02*
X117153700Y-33853300D01*
G75*
G02*
X117391200Y-34090800I0J-237500D01*
G01*
X117391200Y-34590800D01*
G75*
G02*
X117153700Y-34828300I-237500J0D01*
G01*
X116678700Y-34828300D01*
G75*
G02*
X116441200Y-34590800I0J237500D01*
G01*
X116441200Y-34090800D01*
G75*
G02*
X116678700Y-33853300I237500J0D01*
G01*
G37*
G36*
G01*
X116678700Y-32028300D02*
X117153700Y-32028300D01*
G75*
G02*
X117391200Y-32265800I0J-237500D01*
G01*
X117391200Y-32765800D01*
G75*
G02*
X117153700Y-33003300I-237500J0D01*
G01*
X116678700Y-33003300D01*
G75*
G02*
X116441200Y-32765800I0J237500D01*
G01*
X116441200Y-32265800D01*
G75*
G02*
X116678700Y-32028300I237500J0D01*
G01*
G37*
%TD*%
D13*
%TO.C,MX1*%
X203888340Y-63333680D03*
X203888340Y-64433680D03*
X203888340Y-65533680D03*
X203888340Y-66633680D03*
X203888340Y-67733680D03*
X203888340Y-68833680D03*
X203888340Y-69933680D03*
X203888340Y-71033680D03*
X203888340Y-72133680D03*
X203888340Y-73233680D03*
X203888340Y-74333680D03*
X203888340Y-75433680D03*
X203888340Y-76533680D03*
X203888340Y-77633680D03*
X203888340Y-78733680D03*
X203888340Y-79833680D03*
X203888340Y-80933680D03*
X203888340Y-82033680D03*
X203888340Y-83133680D03*
X203888340Y-84233680D03*
X203888340Y-85333680D03*
X203888340Y-86433680D03*
X203888340Y-87533680D03*
X203888340Y-88633680D03*
X203888340Y-89733680D03*
X203888340Y-90833680D03*
X203888340Y-91933680D03*
X203888340Y-93033680D03*
X203888340Y-94133680D03*
X203888340Y-95233680D03*
X203888340Y-96333680D03*
X203888340Y-97433680D03*
X203888340Y-98533680D03*
X203888340Y-99633680D03*
X203888340Y-100733680D03*
X203888340Y-101833680D03*
%TD*%
%TO.C,F1*%
G36*
G01*
X206719600Y-33113400D02*
X206719600Y-35263400D01*
G75*
G02*
X206469600Y-35513400I-250000J0D01*
G01*
X205669600Y-35513400D01*
G75*
G02*
X205419600Y-35263400I0J250000D01*
G01*
X205419600Y-33113400D01*
G75*
G02*
X205669600Y-32863400I250000J0D01*
G01*
X206469600Y-32863400D01*
G75*
G02*
X206719600Y-33113400I0J-250000D01*
G01*
G37*
G36*
G01*
X209819600Y-33113400D02*
X209819600Y-35263400D01*
G75*
G02*
X209569600Y-35513400I-250000J0D01*
G01*
X208769600Y-35513400D01*
G75*
G02*
X208519600Y-35263400I0J250000D01*
G01*
X208519600Y-33113400D01*
G75*
G02*
X208769600Y-32863400I250000J0D01*
G01*
X209569600Y-32863400D01*
G75*
G02*
X209819600Y-33113400I0J-250000D01*
G01*
G37*
%TD*%
D14*
%TO.C,D1*%
X199645000Y-34213800D03*
X202945000Y-34213800D03*
%TD*%
%TO.C,C7*%
G36*
G01*
X188741600Y-39315200D02*
X188741600Y-38815200D01*
G75*
G02*
X188966600Y-38590200I225000J0D01*
G01*
X189416600Y-38590200D01*
G75*
G02*
X189641600Y-38815200I0J-225000D01*
G01*
X189641600Y-39315200D01*
G75*
G02*
X189416600Y-39540200I-225000J0D01*
G01*
X188966600Y-39540200D01*
G75*
G02*
X188741600Y-39315200I0J225000D01*
G01*
G37*
G36*
G01*
X190291600Y-39315200D02*
X190291600Y-38815200D01*
G75*
G02*
X190516600Y-38590200I225000J0D01*
G01*
X190966600Y-38590200D01*
G75*
G02*
X191191600Y-38815200I0J-225000D01*
G01*
X191191600Y-39315200D01*
G75*
G02*
X190966600Y-39540200I-225000J0D01*
G01*
X190516600Y-39540200D01*
G75*
G02*
X190291600Y-39315200I0J225000D01*
G01*
G37*
%TD*%
M02*
