%TF.GenerationSoftware,KiCad,Pcbnew,(5.1.8)-1*%
%TF.CreationDate,2021-01-17T18:30:32+01:00*%
%TF.ProjectId,teensy4_header_breakout,7465656e-7379-4345-9f68-65616465725f,rev?*%
%TF.SameCoordinates,Original*%
%TF.FileFunction,Soldermask,Bot*%
%TF.FilePolarity,Negative*%
%FSLAX46Y46*%
G04 Gerber Fmt 4.6, Leading zero omitted, Abs format (unit mm)*
G04 Created by KiCad (PCBNEW (5.1.8)-1) date 2021-01-17 18:30:32*
%MOMM*%
%LPD*%
G01*
G04 APERTURE LIST*
%ADD10C,1.901600*%
%ADD11C,3.601600*%
%ADD12C,3.701600*%
%ADD13C,5.601600*%
%ADD14C,1.351600*%
%ADD15C,1.625600*%
%ADD16C,0.100000*%
G04 APERTURE END LIST*
%TO.C,C10*%
G36*
G01*
X109784000Y-33100200D02*
X109784000Y-33651000D01*
G75*
G02*
X109533600Y-33901400I-250400J0D01*
G01*
X109032800Y-33901400D01*
G75*
G02*
X108782400Y-33651000I0J250400D01*
G01*
X108782400Y-33100200D01*
G75*
G02*
X109032800Y-32849800I250400J0D01*
G01*
X109533600Y-32849800D01*
G75*
G02*
X109784000Y-33100200I0J-250400D01*
G01*
G37*
G36*
G01*
X111334000Y-33100200D02*
X111334000Y-33651000D01*
G75*
G02*
X111083600Y-33901400I-250400J0D01*
G01*
X110582800Y-33901400D01*
G75*
G02*
X110332400Y-33651000I0J250400D01*
G01*
X110332400Y-33100200D01*
G75*
G02*
X110582800Y-32849800I250400J0D01*
G01*
X111083600Y-32849800D01*
G75*
G02*
X111334000Y-33100200I0J-250400D01*
G01*
G37*
%TD*%
%TO.C,D3*%
G36*
G01*
X109749800Y-88040200D02*
X109299800Y-88040200D01*
G75*
G02*
X109249000Y-87989400I0J50800D01*
G01*
X109249000Y-87389400D01*
G75*
G02*
X109299800Y-87338600I50800J0D01*
G01*
X109749800Y-87338600D01*
G75*
G02*
X109800600Y-87389400I0J-50800D01*
G01*
X109800600Y-87989400D01*
G75*
G02*
X109749800Y-88040200I-50800J0D01*
G01*
G37*
G36*
G01*
X109749800Y-85940200D02*
X109299800Y-85940200D01*
G75*
G02*
X109249000Y-85889400I0J50800D01*
G01*
X109249000Y-85289400D01*
G75*
G02*
X109299800Y-85238600I50800J0D01*
G01*
X109749800Y-85238600D01*
G75*
G02*
X109800600Y-85289400I0J-50800D01*
G01*
X109800600Y-85889400D01*
G75*
G02*
X109749800Y-85940200I-50800J0D01*
G01*
G37*
%TD*%
%TO.C,R1*%
G36*
G01*
X115589600Y-87930400D02*
X115589600Y-87329600D01*
G75*
G02*
X115815000Y-87104200I225400J0D01*
G01*
X116265800Y-87104200D01*
G75*
G02*
X116491200Y-87329600I0J-225400D01*
G01*
X116491200Y-87930400D01*
G75*
G02*
X116265800Y-88155800I-225400J0D01*
G01*
X115815000Y-88155800D01*
G75*
G02*
X115589600Y-87930400I0J225400D01*
G01*
G37*
G36*
G01*
X117239600Y-87930400D02*
X117239600Y-87329600D01*
G75*
G02*
X117465000Y-87104200I225400J0D01*
G01*
X117915800Y-87104200D01*
G75*
G02*
X118141200Y-87329600I0J-225400D01*
G01*
X118141200Y-87930400D01*
G75*
G02*
X117915800Y-88155800I-225400J0D01*
G01*
X117465000Y-88155800D01*
G75*
G02*
X117239600Y-87930400I0J225400D01*
G01*
G37*
%TD*%
%TO.C,C1*%
G36*
G01*
X113203800Y-86568400D02*
X112653000Y-86568400D01*
G75*
G02*
X112402600Y-86318000I0J250400D01*
G01*
X112402600Y-85817200D01*
G75*
G02*
X112653000Y-85566800I250400J0D01*
G01*
X113203800Y-85566800D01*
G75*
G02*
X113454200Y-85817200I0J-250400D01*
G01*
X113454200Y-86318000D01*
G75*
G02*
X113203800Y-86568400I-250400J0D01*
G01*
G37*
G36*
G01*
X113203800Y-88118400D02*
X112653000Y-88118400D01*
G75*
G02*
X112402600Y-87868000I0J250400D01*
G01*
X112402600Y-87367200D01*
G75*
G02*
X112653000Y-87116800I250400J0D01*
G01*
X113203800Y-87116800D01*
G75*
G02*
X113454200Y-87367200I0J-250400D01*
G01*
X113454200Y-87868000D01*
G75*
G02*
X113203800Y-88118400I-250400J0D01*
G01*
G37*
%TD*%
%TO.C,R4*%
G36*
G01*
X140557800Y-88768600D02*
X140557800Y-88167800D01*
G75*
G02*
X140783200Y-87942400I225400J0D01*
G01*
X141234000Y-87942400D01*
G75*
G02*
X141459400Y-88167800I0J-225400D01*
G01*
X141459400Y-88768600D01*
G75*
G02*
X141234000Y-88994000I-225400J0D01*
G01*
X140783200Y-88994000D01*
G75*
G02*
X140557800Y-88768600I0J225400D01*
G01*
G37*
G36*
G01*
X142207800Y-88768600D02*
X142207800Y-88167800D01*
G75*
G02*
X142433200Y-87942400I225400J0D01*
G01*
X142884000Y-87942400D01*
G75*
G02*
X143109400Y-88167800I0J-225400D01*
G01*
X143109400Y-88768600D01*
G75*
G02*
X142884000Y-88994000I-225400J0D01*
G01*
X142433200Y-88994000D01*
G75*
G02*
X142207800Y-88768600I0J225400D01*
G01*
G37*
%TD*%
%TO.C,U2*%
G36*
G01*
X86696200Y-105003600D02*
X84896200Y-105003600D01*
G75*
G02*
X84845400Y-104952800I0J50800D01*
G01*
X84845400Y-103152800D01*
G75*
G02*
X84896200Y-103102000I50800J0D01*
G01*
X86696200Y-103102000D01*
G75*
G02*
X86747000Y-103152800I0J-50800D01*
G01*
X86747000Y-104952800D01*
G75*
G02*
X86696200Y-105003600I-50800J0D01*
G01*
G37*
D10*
X85796200Y-101512800D03*
X88336200Y-104052800D03*
X88336200Y-101512800D03*
X90876200Y-104052800D03*
X90876200Y-101512800D03*
X93416200Y-104052800D03*
X93416200Y-101512800D03*
X95956200Y-104052800D03*
X95956200Y-101512800D03*
X98496200Y-104052800D03*
X98496200Y-101512800D03*
X101036200Y-104052800D03*
X101036200Y-101512800D03*
X103576200Y-104052800D03*
X103576200Y-101512800D03*
X106116200Y-104052800D03*
X106116200Y-101512800D03*
X108656200Y-104052800D03*
X108656200Y-101512800D03*
X111196200Y-104052800D03*
X111196200Y-101512800D03*
X113736200Y-104052800D03*
X113736200Y-101512800D03*
X116276200Y-104052800D03*
X116276200Y-101512800D03*
X118816200Y-104052800D03*
X118816200Y-101512800D03*
X121356200Y-104052800D03*
X121356200Y-101512800D03*
X123896200Y-104052800D03*
X123896200Y-101512800D03*
X126436200Y-104052800D03*
X126436200Y-101512800D03*
X128976200Y-104052800D03*
X128976200Y-101512800D03*
X131516200Y-104052800D03*
X131516200Y-101512800D03*
X134056200Y-104052800D03*
X134056200Y-101512800D03*
X136596200Y-104052800D03*
X136596200Y-101512800D03*
X139136200Y-104052800D03*
X139136200Y-101512800D03*
X141676200Y-104052800D03*
X141676200Y-101512800D03*
X144216200Y-104052800D03*
X144216200Y-101512800D03*
X146756200Y-104052800D03*
X146756200Y-101512800D03*
X149296200Y-104052800D03*
X149296200Y-101512800D03*
X151836200Y-104052800D03*
X151836200Y-101512800D03*
X154376200Y-104052800D03*
X154376200Y-101512800D03*
X156916200Y-104052800D03*
X156916200Y-101512800D03*
X159456200Y-104052800D03*
X159456200Y-101512800D03*
X161996200Y-104052800D03*
X161996200Y-101512800D03*
X164536200Y-104052800D03*
X164536200Y-101512800D03*
X167076200Y-104052800D03*
X167076200Y-101512800D03*
X169616200Y-104052800D03*
X169616200Y-101512800D03*
X172156200Y-104052800D03*
X172156200Y-101512800D03*
X174696200Y-104052800D03*
X174696200Y-101512800D03*
G36*
G01*
X96856200Y-97383600D02*
X95056200Y-97383600D01*
G75*
G02*
X95005400Y-97332800I0J50800D01*
G01*
X95005400Y-95532800D01*
G75*
G02*
X95056200Y-95482000I50800J0D01*
G01*
X96856200Y-95482000D01*
G75*
G02*
X96907000Y-95532800I0J-50800D01*
G01*
X96907000Y-97332800D01*
G75*
G02*
X96856200Y-97383600I-50800J0D01*
G01*
G37*
X95956200Y-93892800D03*
X98496200Y-96432800D03*
X98496200Y-93892800D03*
X101036200Y-96432800D03*
X101036200Y-93892800D03*
X103576200Y-96432800D03*
X103576200Y-93892800D03*
X106116200Y-96432800D03*
X106116200Y-93892800D03*
X108656200Y-96432800D03*
X108656200Y-93892800D03*
X111196200Y-96432800D03*
X111196200Y-93892800D03*
X113736200Y-96432800D03*
X113736200Y-93892800D03*
G36*
G01*
X119716200Y-97383600D02*
X117916200Y-97383600D01*
G75*
G02*
X117865400Y-97332800I0J50800D01*
G01*
X117865400Y-95532800D01*
G75*
G02*
X117916200Y-95482000I50800J0D01*
G01*
X119716200Y-95482000D01*
G75*
G02*
X119767000Y-95532800I0J-50800D01*
G01*
X119767000Y-97332800D01*
G75*
G02*
X119716200Y-97383600I-50800J0D01*
G01*
G37*
X118816200Y-93892800D03*
X121356200Y-96432800D03*
X121356200Y-93892800D03*
X123896200Y-96432800D03*
X123896200Y-93892800D03*
X126436200Y-96432800D03*
X126436200Y-93892800D03*
X128976200Y-96432800D03*
X128976200Y-93892800D03*
X131516200Y-96432800D03*
X131516200Y-93892800D03*
X134056200Y-96432800D03*
X134056200Y-93892800D03*
X136596200Y-96432800D03*
X136596200Y-93892800D03*
X139136200Y-96432800D03*
X139136200Y-93892800D03*
X141676200Y-96432800D03*
X141676200Y-93892800D03*
X144216200Y-96432800D03*
X144216200Y-93892800D03*
X146756200Y-96432800D03*
X146756200Y-93892800D03*
X149296200Y-96432800D03*
X149296200Y-93892800D03*
X151836200Y-96432800D03*
X151836200Y-93892800D03*
X154376200Y-96432800D03*
X154376200Y-93892800D03*
G36*
G01*
X87966200Y-51663600D02*
X86166200Y-51663600D01*
G75*
G02*
X86115400Y-51612800I0J50800D01*
G01*
X86115400Y-49812800D01*
G75*
G02*
X86166200Y-49762000I50800J0D01*
G01*
X87966200Y-49762000D01*
G75*
G02*
X88017000Y-49812800I0J-50800D01*
G01*
X88017000Y-51612800D01*
G75*
G02*
X87966200Y-51663600I-50800J0D01*
G01*
G37*
X87066200Y-48172800D03*
X89606200Y-50712800D03*
X89606200Y-48172800D03*
X92146200Y-50712800D03*
X92146200Y-48172800D03*
X94686200Y-50712800D03*
X94686200Y-48172800D03*
X97226200Y-50712800D03*
X97226200Y-48172800D03*
X99766200Y-50712800D03*
X99766200Y-48172800D03*
X102306200Y-50712800D03*
X102306200Y-48172800D03*
X104846200Y-50712800D03*
X104846200Y-48172800D03*
X107386200Y-50712800D03*
X107386200Y-48172800D03*
X109926200Y-50712800D03*
X109926200Y-48172800D03*
G36*
G01*
X114636200Y-51663600D02*
X112836200Y-51663600D01*
G75*
G02*
X112785400Y-51612800I0J50800D01*
G01*
X112785400Y-49812800D01*
G75*
G02*
X112836200Y-49762000I50800J0D01*
G01*
X114636200Y-49762000D01*
G75*
G02*
X114687000Y-49812800I0J-50800D01*
G01*
X114687000Y-51612800D01*
G75*
G02*
X114636200Y-51663600I-50800J0D01*
G01*
G37*
X113736200Y-48172800D03*
X116276200Y-50712800D03*
X116276200Y-48172800D03*
X118816200Y-50712800D03*
X118816200Y-48172800D03*
X121356200Y-50712800D03*
X121356200Y-48172800D03*
X123896200Y-50712800D03*
X123896200Y-48172800D03*
X126436200Y-50712800D03*
X126436200Y-48172800D03*
X128976200Y-50712800D03*
X128976200Y-48172800D03*
X131516200Y-50712800D03*
X131516200Y-48172800D03*
X134056200Y-50712800D03*
X134056200Y-48172800D03*
X136596200Y-50712800D03*
X136596200Y-48172800D03*
X139136200Y-50712800D03*
X139136200Y-48172800D03*
X141676200Y-50712800D03*
X141676200Y-48172800D03*
X144216200Y-50712800D03*
X144216200Y-48172800D03*
X146756200Y-50712800D03*
X146756200Y-48172800D03*
X149296200Y-50712800D03*
X149296200Y-48172800D03*
X151836200Y-50712800D03*
X151836200Y-48172800D03*
X154376200Y-50712800D03*
X154376200Y-48172800D03*
G36*
G01*
X86696200Y-44043600D02*
X84896200Y-44043600D01*
G75*
G02*
X84845400Y-43992800I0J50800D01*
G01*
X84845400Y-42192800D01*
G75*
G02*
X84896200Y-42142000I50800J0D01*
G01*
X86696200Y-42142000D01*
G75*
G02*
X86747000Y-42192800I0J-50800D01*
G01*
X86747000Y-43992800D01*
G75*
G02*
X86696200Y-44043600I-50800J0D01*
G01*
G37*
X85796200Y-40552800D03*
X88336200Y-43092800D03*
X88336200Y-40552800D03*
X90876200Y-43092800D03*
X90876200Y-40552800D03*
X93416200Y-43092800D03*
X93416200Y-40552800D03*
X95956200Y-43092800D03*
X95956200Y-40552800D03*
X98496200Y-43092800D03*
X98496200Y-40552800D03*
X101036200Y-43092800D03*
X101036200Y-40552800D03*
X103576200Y-43092800D03*
X103576200Y-40552800D03*
X106116200Y-43092800D03*
X106116200Y-40552800D03*
X108656200Y-43092800D03*
X108656200Y-40552800D03*
X111196200Y-43092800D03*
X111196200Y-40552800D03*
X113736200Y-43092800D03*
X113736200Y-40552800D03*
X116276200Y-43092800D03*
X116276200Y-40552800D03*
X118816200Y-43092800D03*
X118816200Y-40552800D03*
X121356200Y-43092800D03*
X121356200Y-40552800D03*
X123896200Y-43092800D03*
X123896200Y-40552800D03*
X126436200Y-43092800D03*
X126436200Y-40552800D03*
X128976200Y-43092800D03*
X128976200Y-40552800D03*
X131516200Y-43092800D03*
X131516200Y-40552800D03*
X134056200Y-43092800D03*
X134056200Y-40552800D03*
X136596200Y-43092800D03*
X136596200Y-40552800D03*
X139136200Y-43092800D03*
X139136200Y-40552800D03*
X141676200Y-43092800D03*
X141676200Y-40552800D03*
X144216200Y-43092800D03*
X144216200Y-40552800D03*
X146756200Y-43092800D03*
X146756200Y-40552800D03*
X149296200Y-43092800D03*
X149296200Y-40552800D03*
X151836200Y-43092800D03*
X151836200Y-40552800D03*
X154376200Y-43092800D03*
X154376200Y-40552800D03*
X156916200Y-43092800D03*
X156916200Y-40552800D03*
X159456200Y-43092800D03*
X159456200Y-40552800D03*
X161996200Y-43092800D03*
X161996200Y-40552800D03*
X164536200Y-43092800D03*
X164536200Y-40552800D03*
X167076200Y-43092800D03*
X167076200Y-40552800D03*
X169616200Y-43092800D03*
X169616200Y-40552800D03*
X172156200Y-43092800D03*
X172156200Y-40552800D03*
X174696200Y-43092800D03*
X174696200Y-40552800D03*
X60396200Y-104052800D03*
G36*
G01*
X58756200Y-105003600D02*
X56956200Y-105003600D01*
G75*
G02*
X56905400Y-104952800I0J50800D01*
G01*
X56905400Y-103152800D01*
G75*
G02*
X56956200Y-103102000I50800J0D01*
G01*
X58756200Y-103102000D01*
G75*
G02*
X58807000Y-103152800I0J-50800D01*
G01*
X58807000Y-104952800D01*
G75*
G02*
X58756200Y-105003600I-50800J0D01*
G01*
G37*
G36*
G01*
X58756200Y-41503600D02*
X56956200Y-41503600D01*
G75*
G02*
X56905400Y-41452800I0J50800D01*
G01*
X56905400Y-39652800D01*
G75*
G02*
X56956200Y-39602000I50800J0D01*
G01*
X58756200Y-39602000D01*
G75*
G02*
X58807000Y-39652800I0J-50800D01*
G01*
X58807000Y-41452800D01*
G75*
G02*
X58756200Y-41503600I-50800J0D01*
G01*
G37*
X60396200Y-40552800D03*
D11*
X81986200Y-96432800D03*
X158186200Y-49442800D03*
%TD*%
%TO.C,C6*%
G36*
G01*
X75967400Y-73487400D02*
X75416600Y-73487400D01*
G75*
G02*
X75166200Y-73237000I0J250400D01*
G01*
X75166200Y-72736200D01*
G75*
G02*
X75416600Y-72485800I250400J0D01*
G01*
X75967400Y-72485800D01*
G75*
G02*
X76217800Y-72736200I0J-250400D01*
G01*
X76217800Y-73237000D01*
G75*
G02*
X75967400Y-73487400I-250400J0D01*
G01*
G37*
G36*
G01*
X75967400Y-75037400D02*
X75416600Y-75037400D01*
G75*
G02*
X75166200Y-74787000I0J250400D01*
G01*
X75166200Y-74286200D01*
G75*
G02*
X75416600Y-74035800I250400J0D01*
G01*
X75967400Y-74035800D01*
G75*
G02*
X76217800Y-74286200I0J-250400D01*
G01*
X76217800Y-74787000D01*
G75*
G02*
X75967400Y-75037400I-250400J0D01*
G01*
G37*
%TD*%
%TO.C,D6*%
G36*
G01*
X134794200Y-88878400D02*
X134344200Y-88878400D01*
G75*
G02*
X134293400Y-88827600I0J50800D01*
G01*
X134293400Y-88227600D01*
G75*
G02*
X134344200Y-88176800I50800J0D01*
G01*
X134794200Y-88176800D01*
G75*
G02*
X134845000Y-88227600I0J-50800D01*
G01*
X134845000Y-88827600D01*
G75*
G02*
X134794200Y-88878400I-50800J0D01*
G01*
G37*
G36*
G01*
X134794200Y-86778400D02*
X134344200Y-86778400D01*
G75*
G02*
X134293400Y-86727600I0J50800D01*
G01*
X134293400Y-86127600D01*
G75*
G02*
X134344200Y-86076800I50800J0D01*
G01*
X134794200Y-86076800D01*
G75*
G02*
X134845000Y-86127600I0J-50800D01*
G01*
X134845000Y-86727600D01*
G75*
G02*
X134794200Y-86778400I-50800J0D01*
G01*
G37*
%TD*%
%TO.C,D5*%
G36*
G01*
X148383200Y-68355200D02*
X147933200Y-68355200D01*
G75*
G02*
X147882400Y-68304400I0J50800D01*
G01*
X147882400Y-67704400D01*
G75*
G02*
X147933200Y-67653600I50800J0D01*
G01*
X148383200Y-67653600D01*
G75*
G02*
X148434000Y-67704400I0J-50800D01*
G01*
X148434000Y-68304400D01*
G75*
G02*
X148383200Y-68355200I-50800J0D01*
G01*
G37*
G36*
G01*
X148383200Y-66255200D02*
X147933200Y-66255200D01*
G75*
G02*
X147882400Y-66204400I0J50800D01*
G01*
X147882400Y-65604400D01*
G75*
G02*
X147933200Y-65553600I50800J0D01*
G01*
X148383200Y-65553600D01*
G75*
G02*
X148434000Y-65604400I0J-50800D01*
G01*
X148434000Y-66204400D01*
G75*
G02*
X148383200Y-66255200I-50800J0D01*
G01*
G37*
%TD*%
%TO.C,D4*%
G36*
G01*
X148383200Y-61725800D02*
X147933200Y-61725800D01*
G75*
G02*
X147882400Y-61675000I0J50800D01*
G01*
X147882400Y-61075000D01*
G75*
G02*
X147933200Y-61024200I50800J0D01*
G01*
X148383200Y-61024200D01*
G75*
G02*
X148434000Y-61075000I0J-50800D01*
G01*
X148434000Y-61675000D01*
G75*
G02*
X148383200Y-61725800I-50800J0D01*
G01*
G37*
G36*
G01*
X148383200Y-59625800D02*
X147933200Y-59625800D01*
G75*
G02*
X147882400Y-59575000I0J50800D01*
G01*
X147882400Y-58975000D01*
G75*
G02*
X147933200Y-58924200I50800J0D01*
G01*
X148383200Y-58924200D01*
G75*
G02*
X148434000Y-58975000I0J-50800D01*
G01*
X148434000Y-59575000D01*
G75*
G02*
X148383200Y-59625800I-50800J0D01*
G01*
G37*
%TD*%
%TO.C,D2*%
G36*
G01*
X121332200Y-86143800D02*
X120882200Y-86143800D01*
G75*
G02*
X120831400Y-86093000I0J50800D01*
G01*
X120831400Y-85493000D01*
G75*
G02*
X120882200Y-85442200I50800J0D01*
G01*
X121332200Y-85442200D01*
G75*
G02*
X121383000Y-85493000I0J-50800D01*
G01*
X121383000Y-86093000D01*
G75*
G02*
X121332200Y-86143800I-50800J0D01*
G01*
G37*
G36*
G01*
X121332200Y-84043800D02*
X120882200Y-84043800D01*
G75*
G02*
X120831400Y-83993000I0J50800D01*
G01*
X120831400Y-83393000D01*
G75*
G02*
X120882200Y-83342200I50800J0D01*
G01*
X121332200Y-83342200D01*
G75*
G02*
X121383000Y-83393000I0J-50800D01*
G01*
X121383000Y-83993000D01*
G75*
G02*
X121332200Y-84043800I-50800J0D01*
G01*
G37*
%TD*%
D12*
%TO.C,H4*%
X57929200Y-33302800D03*
D13*
X57929200Y-33302800D03*
%TD*%
D12*
%TO.C,H3*%
X216929200Y-33302800D03*
D13*
X216929200Y-33302800D03*
%TD*%
D12*
%TO.C,H2*%
X57929200Y-111302800D03*
D13*
X57929200Y-111302800D03*
%TD*%
D12*
%TO.C,H1*%
X216929200Y-111302800D03*
D13*
X216929200Y-111302800D03*
%TD*%
%TO.C,U4*%
G36*
G01*
X87916000Y-73755000D02*
X87916000Y-69755000D01*
G75*
G02*
X87966800Y-69704200I50800J0D01*
G01*
X91966800Y-69704200D01*
G75*
G02*
X92017600Y-69755000I0J-50800D01*
G01*
X92017600Y-73755000D01*
G75*
G02*
X91966800Y-73805800I-50800J0D01*
G01*
X87966800Y-73805800D01*
G75*
G02*
X87916000Y-73755000I0J50800D01*
G01*
G37*
G36*
G01*
X87166000Y-61755000D02*
X87166000Y-56255000D01*
G75*
G02*
X87216800Y-56204200I50800J0D01*
G01*
X92716800Y-56204200D01*
G75*
G02*
X92767600Y-56255000I0J-50800D01*
G01*
X92767600Y-61755000D01*
G75*
G02*
X92716800Y-61805800I-50800J0D01*
G01*
X87216800Y-61805800D01*
G75*
G02*
X87166000Y-61755000I0J50800D01*
G01*
G37*
G36*
G01*
X87166000Y-87255000D02*
X87166000Y-81755000D01*
G75*
G02*
X87216800Y-81704200I50800J0D01*
G01*
X92716800Y-81704200D01*
G75*
G02*
X92767600Y-81755000I0J-50800D01*
G01*
X92767600Y-87255000D01*
G75*
G02*
X92716800Y-87305800I-50800J0D01*
G01*
X87216800Y-87305800D01*
G75*
G02*
X87166000Y-87255000I0J50800D01*
G01*
G37*
%TD*%
%TO.C,U3*%
G36*
G01*
X154983800Y-108589600D02*
X155333800Y-108589600D01*
G75*
G02*
X155384600Y-108640400I0J-50800D01*
G01*
X155384600Y-109290400D01*
G75*
G02*
X155333800Y-109341200I-50800J0D01*
G01*
X154983800Y-109341200D01*
G75*
G02*
X154933000Y-109290400I0J50800D01*
G01*
X154933000Y-108640400D01*
G75*
G02*
X154983800Y-108589600I50800J0D01*
G01*
G37*
G36*
G01*
X155633800Y-108589600D02*
X155983800Y-108589600D01*
G75*
G02*
X156034600Y-108640400I0J-50800D01*
G01*
X156034600Y-109290400D01*
G75*
G02*
X155983800Y-109341200I-50800J0D01*
G01*
X155633800Y-109341200D01*
G75*
G02*
X155583000Y-109290400I0J50800D01*
G01*
X155583000Y-108640400D01*
G75*
G02*
X155633800Y-108589600I50800J0D01*
G01*
G37*
G36*
G01*
X156283800Y-108589600D02*
X156633800Y-108589600D01*
G75*
G02*
X156684600Y-108640400I0J-50800D01*
G01*
X156684600Y-109290400D01*
G75*
G02*
X156633800Y-109341200I-50800J0D01*
G01*
X156283800Y-109341200D01*
G75*
G02*
X156233000Y-109290400I0J50800D01*
G01*
X156233000Y-108640400D01*
G75*
G02*
X156283800Y-108589600I50800J0D01*
G01*
G37*
G36*
G01*
X156933800Y-108589600D02*
X157283800Y-108589600D01*
G75*
G02*
X157334600Y-108640400I0J-50800D01*
G01*
X157334600Y-109290400D01*
G75*
G02*
X157283800Y-109341200I-50800J0D01*
G01*
X156933800Y-109341200D01*
G75*
G02*
X156883000Y-109290400I0J50800D01*
G01*
X156883000Y-108640400D01*
G75*
G02*
X156933800Y-108589600I50800J0D01*
G01*
G37*
G36*
G01*
X156933800Y-111689600D02*
X157283800Y-111689600D01*
G75*
G02*
X157334600Y-111740400I0J-50800D01*
G01*
X157334600Y-112390400D01*
G75*
G02*
X157283800Y-112441200I-50800J0D01*
G01*
X156933800Y-112441200D01*
G75*
G02*
X156883000Y-112390400I0J50800D01*
G01*
X156883000Y-111740400D01*
G75*
G02*
X156933800Y-111689600I50800J0D01*
G01*
G37*
G36*
G01*
X156283800Y-111689600D02*
X156633800Y-111689600D01*
G75*
G02*
X156684600Y-111740400I0J-50800D01*
G01*
X156684600Y-112390400D01*
G75*
G02*
X156633800Y-112441200I-50800J0D01*
G01*
X156283800Y-112441200D01*
G75*
G02*
X156233000Y-112390400I0J50800D01*
G01*
X156233000Y-111740400D01*
G75*
G02*
X156283800Y-111689600I50800J0D01*
G01*
G37*
G36*
G01*
X155633800Y-111689600D02*
X155983800Y-111689600D01*
G75*
G02*
X156034600Y-111740400I0J-50800D01*
G01*
X156034600Y-112390400D01*
G75*
G02*
X155983800Y-112441200I-50800J0D01*
G01*
X155633800Y-112441200D01*
G75*
G02*
X155583000Y-112390400I0J50800D01*
G01*
X155583000Y-111740400D01*
G75*
G02*
X155633800Y-111689600I50800J0D01*
G01*
G37*
G36*
G01*
X154983800Y-111689600D02*
X155333800Y-111689600D01*
G75*
G02*
X155384600Y-111740400I0J-50800D01*
G01*
X155384600Y-112390400D01*
G75*
G02*
X155333800Y-112441200I-50800J0D01*
G01*
X154983800Y-112441200D01*
G75*
G02*
X154933000Y-112390400I0J50800D01*
G01*
X154933000Y-111740400D01*
G75*
G02*
X154983800Y-111689600I50800J0D01*
G01*
G37*
G36*
G01*
X154933800Y-109689600D02*
X157333800Y-109689600D01*
G75*
G02*
X157384600Y-109740400I0J-50800D01*
G01*
X157384600Y-111290400D01*
G75*
G02*
X157333800Y-111341200I-50800J0D01*
G01*
X154933800Y-111341200D01*
G75*
G02*
X154883000Y-111290400I0J50800D01*
G01*
X154883000Y-109740400D01*
G75*
G02*
X154933800Y-109689600I50800J0D01*
G01*
G37*
%TD*%
%TO.C,SDcard1*%
G36*
G01*
X70237200Y-75588600D02*
X71917200Y-75588600D01*
G75*
G02*
X71968000Y-75639400I0J-50800D01*
G01*
X71968000Y-76439400D01*
G75*
G02*
X71917200Y-76490200I-50800J0D01*
G01*
X70237200Y-76490200D01*
G75*
G02*
X70186400Y-76439400I0J50800D01*
G01*
X70186400Y-75639400D01*
G75*
G02*
X70237200Y-75588600I50800J0D01*
G01*
G37*
G36*
G01*
X70237200Y-74488600D02*
X71917200Y-74488600D01*
G75*
G02*
X71968000Y-74539400I0J-50800D01*
G01*
X71968000Y-75339400D01*
G75*
G02*
X71917200Y-75390200I-50800J0D01*
G01*
X70237200Y-75390200D01*
G75*
G02*
X70186400Y-75339400I0J50800D01*
G01*
X70186400Y-74539400D01*
G75*
G02*
X70237200Y-74488600I50800J0D01*
G01*
G37*
G36*
G01*
X70237200Y-73388600D02*
X71917200Y-73388600D01*
G75*
G02*
X71968000Y-73439400I0J-50800D01*
G01*
X71968000Y-74239400D01*
G75*
G02*
X71917200Y-74290200I-50800J0D01*
G01*
X70237200Y-74290200D01*
G75*
G02*
X70186400Y-74239400I0J50800D01*
G01*
X70186400Y-73439400D01*
G75*
G02*
X70237200Y-73388600I50800J0D01*
G01*
G37*
G36*
G01*
X70237200Y-72288600D02*
X71917200Y-72288600D01*
G75*
G02*
X71968000Y-72339400I0J-50800D01*
G01*
X71968000Y-73139400D01*
G75*
G02*
X71917200Y-73190200I-50800J0D01*
G01*
X70237200Y-73190200D01*
G75*
G02*
X70186400Y-73139400I0J50800D01*
G01*
X70186400Y-72339400D01*
G75*
G02*
X70237200Y-72288600I50800J0D01*
G01*
G37*
G36*
G01*
X70237200Y-71188600D02*
X71917200Y-71188600D01*
G75*
G02*
X71968000Y-71239400I0J-50800D01*
G01*
X71968000Y-72039400D01*
G75*
G02*
X71917200Y-72090200I-50800J0D01*
G01*
X70237200Y-72090200D01*
G75*
G02*
X70186400Y-72039400I0J50800D01*
G01*
X70186400Y-71239400D01*
G75*
G02*
X70237200Y-71188600I50800J0D01*
G01*
G37*
G36*
G01*
X70237200Y-70088600D02*
X71917200Y-70088600D01*
G75*
G02*
X71968000Y-70139400I0J-50800D01*
G01*
X71968000Y-70939400D01*
G75*
G02*
X71917200Y-70990200I-50800J0D01*
G01*
X70237200Y-70990200D01*
G75*
G02*
X70186400Y-70939400I0J50800D01*
G01*
X70186400Y-70139400D01*
G75*
G02*
X70237200Y-70088600I50800J0D01*
G01*
G37*
G36*
G01*
X70237200Y-68988600D02*
X71917200Y-68988600D01*
G75*
G02*
X71968000Y-69039400I0J-50800D01*
G01*
X71968000Y-69839400D01*
G75*
G02*
X71917200Y-69890200I-50800J0D01*
G01*
X70237200Y-69890200D01*
G75*
G02*
X70186400Y-69839400I0J50800D01*
G01*
X70186400Y-69039400D01*
G75*
G02*
X70237200Y-68988600I50800J0D01*
G01*
G37*
G36*
G01*
X70237200Y-67888600D02*
X71917200Y-67888600D01*
G75*
G02*
X71968000Y-67939400I0J-50800D01*
G01*
X71968000Y-68739400D01*
G75*
G02*
X71917200Y-68790200I-50800J0D01*
G01*
X70237200Y-68790200D01*
G75*
G02*
X70186400Y-68739400I0J50800D01*
G01*
X70186400Y-67939400D01*
G75*
G02*
X70237200Y-67888600I50800J0D01*
G01*
G37*
G36*
G01*
X71968000Y-66139400D02*
X71968000Y-67739400D01*
G75*
G02*
X71917200Y-67790200I-50800J0D01*
G01*
X70417200Y-67790200D01*
G75*
G02*
X70366400Y-67739400I0J50800D01*
G01*
X70366400Y-66139400D01*
G75*
G02*
X70417200Y-66088600I50800J0D01*
G01*
X71917200Y-66088600D01*
G75*
G02*
X71968000Y-66139400I0J-50800D01*
G01*
G37*
G36*
G01*
X68867200Y-65588600D02*
X70167200Y-65588600D01*
G75*
G02*
X70218000Y-65639400I0J-50800D01*
G01*
X70218000Y-66929400D01*
G75*
G02*
X70167200Y-66980200I-50800J0D01*
G01*
X68867200Y-66980200D01*
G75*
G02*
X68816400Y-66929400I0J50800D01*
G01*
X68816400Y-65639400D01*
G75*
G02*
X68867200Y-65588600I50800J0D01*
G01*
G37*
G36*
G01*
X61417200Y-65588600D02*
X62817200Y-65588600D01*
G75*
G02*
X62868000Y-65639400I0J-50800D01*
G01*
X62868000Y-66929400D01*
G75*
G02*
X62817200Y-66980200I-50800J0D01*
G01*
X61417200Y-66980200D01*
G75*
G02*
X61366400Y-66929400I0J50800D01*
G01*
X61366400Y-65639400D01*
G75*
G02*
X61417200Y-65588600I50800J0D01*
G01*
G37*
G36*
G01*
X55467200Y-65588600D02*
X57167200Y-65588600D01*
G75*
G02*
X57218000Y-65639400I0J-50800D01*
G01*
X57218000Y-67139400D01*
G75*
G02*
X57167200Y-67190200I-50800J0D01*
G01*
X55467200Y-67190200D01*
G75*
G02*
X55416400Y-67139400I0J50800D01*
G01*
X55416400Y-65639400D01*
G75*
G02*
X55467200Y-65588600I50800J0D01*
G01*
G37*
G36*
G01*
X55467200Y-79088600D02*
X57167200Y-79088600D01*
G75*
G02*
X57218000Y-79139400I0J-50800D01*
G01*
X57218000Y-80639400D01*
G75*
G02*
X57167200Y-80690200I-50800J0D01*
G01*
X55467200Y-80690200D01*
G75*
G02*
X55416400Y-80639400I0J50800D01*
G01*
X55416400Y-79139400D01*
G75*
G02*
X55467200Y-79088600I50800J0D01*
G01*
G37*
G36*
G01*
X71968000Y-78739400D02*
X71968000Y-80439400D01*
G75*
G02*
X71917200Y-80490200I-50800J0D01*
G01*
X70417200Y-80490200D01*
G75*
G02*
X70366400Y-80439400I0J50800D01*
G01*
X70366400Y-78739400D01*
G75*
G02*
X70417200Y-78688600I50800J0D01*
G01*
X71917200Y-78688600D01*
G75*
G02*
X71968000Y-78739400I0J-50800D01*
G01*
G37*
%TD*%
%TO.C,R8*%
G36*
G01*
X164092900Y-111460100D02*
X163567100Y-111460100D01*
G75*
G02*
X163304200Y-111197200I0J262900D01*
G01*
X163304200Y-110646400D01*
G75*
G02*
X163567100Y-110383500I262900J0D01*
G01*
X164092900Y-110383500D01*
G75*
G02*
X164355800Y-110646400I0J-262900D01*
G01*
X164355800Y-111197200D01*
G75*
G02*
X164092900Y-111460100I-262900J0D01*
G01*
G37*
G36*
G01*
X164092900Y-113285100D02*
X163567100Y-113285100D01*
G75*
G02*
X163304200Y-113022200I0J262900D01*
G01*
X163304200Y-112471400D01*
G75*
G02*
X163567100Y-112208500I262900J0D01*
G01*
X164092900Y-112208500D01*
G75*
G02*
X164355800Y-112471400I0J-262900D01*
G01*
X164355800Y-113022200D01*
G75*
G02*
X164092900Y-113285100I-262900J0D01*
G01*
G37*
%TD*%
%TO.C,R6*%
G36*
G01*
X127935400Y-84575600D02*
X127334600Y-84575600D01*
G75*
G02*
X127109200Y-84350200I0J225400D01*
G01*
X127109200Y-83899400D01*
G75*
G02*
X127334600Y-83674000I225400J0D01*
G01*
X127935400Y-83674000D01*
G75*
G02*
X128160800Y-83899400I0J-225400D01*
G01*
X128160800Y-84350200D01*
G75*
G02*
X127935400Y-84575600I-225400J0D01*
G01*
G37*
G36*
G01*
X127935400Y-86225600D02*
X127334600Y-86225600D01*
G75*
G02*
X127109200Y-86000200I0J225400D01*
G01*
X127109200Y-85549400D01*
G75*
G02*
X127334600Y-85324000I225400J0D01*
G01*
X127935400Y-85324000D01*
G75*
G02*
X128160800Y-85549400I0J-225400D01*
G01*
X128160800Y-86000200D01*
G75*
G02*
X127935400Y-86225600I-225400J0D01*
G01*
G37*
%TD*%
%TO.C,R5*%
G36*
G01*
X127935400Y-89934000D02*
X127334600Y-89934000D01*
G75*
G02*
X127109200Y-89708600I0J225400D01*
G01*
X127109200Y-89257800D01*
G75*
G02*
X127334600Y-89032400I225400J0D01*
G01*
X127935400Y-89032400D01*
G75*
G02*
X128160800Y-89257800I0J-225400D01*
G01*
X128160800Y-89708600D01*
G75*
G02*
X127935400Y-89934000I-225400J0D01*
G01*
G37*
G36*
G01*
X127935400Y-88284000D02*
X127334600Y-88284000D01*
G75*
G02*
X127109200Y-88058600I0J225400D01*
G01*
X127109200Y-87607800D01*
G75*
G02*
X127334600Y-87382400I225400J0D01*
G01*
X127935400Y-87382400D01*
G75*
G02*
X128160800Y-87607800I0J-225400D01*
G01*
X128160800Y-88058600D01*
G75*
G02*
X127935400Y-88284000I-225400J0D01*
G01*
G37*
%TD*%
%TO.C,R3*%
G36*
G01*
X155111000Y-61489000D02*
X155111000Y-60888200D01*
G75*
G02*
X155336400Y-60662800I225400J0D01*
G01*
X155787200Y-60662800D01*
G75*
G02*
X156012600Y-60888200I0J-225400D01*
G01*
X156012600Y-61489000D01*
G75*
G02*
X155787200Y-61714400I-225400J0D01*
G01*
X155336400Y-61714400D01*
G75*
G02*
X155111000Y-61489000I0J225400D01*
G01*
G37*
G36*
G01*
X153461000Y-61489000D02*
X153461000Y-60888200D01*
G75*
G02*
X153686400Y-60662800I225400J0D01*
G01*
X154137200Y-60662800D01*
G75*
G02*
X154362600Y-60888200I0J-225400D01*
G01*
X154362600Y-61489000D01*
G75*
G02*
X154137200Y-61714400I-225400J0D01*
G01*
X153686400Y-61714400D01*
G75*
G02*
X153461000Y-61489000I0J225400D01*
G01*
G37*
%TD*%
%TO.C,R2*%
G36*
G01*
X153689600Y-68169200D02*
X153689600Y-67568400D01*
G75*
G02*
X153915000Y-67343000I225400J0D01*
G01*
X154365800Y-67343000D01*
G75*
G02*
X154591200Y-67568400I0J-225400D01*
G01*
X154591200Y-68169200D01*
G75*
G02*
X154365800Y-68394600I-225400J0D01*
G01*
X153915000Y-68394600D01*
G75*
G02*
X153689600Y-68169200I0J225400D01*
G01*
G37*
G36*
G01*
X155339600Y-68169200D02*
X155339600Y-67568400D01*
G75*
G02*
X155565000Y-67343000I225400J0D01*
G01*
X156015800Y-67343000D01*
G75*
G02*
X156241200Y-67568400I0J-225400D01*
G01*
X156241200Y-68169200D01*
G75*
G02*
X156015800Y-68394600I-225400J0D01*
G01*
X155565000Y-68394600D01*
G75*
G02*
X155339600Y-68169200I0J225400D01*
G01*
G37*
%TD*%
D14*
%TO.C,PS1*%
X194310000Y-54432200D03*
X196850000Y-54432200D03*
X217170000Y-54432200D03*
X217170000Y-39192200D03*
X212090000Y-39192200D03*
X196850000Y-39192200D03*
X194310000Y-39192200D03*
%TD*%
D15*
%TO.C,MX1*%
X214241180Y-106325400D03*
X214241180Y-58825400D03*
X216091180Y-106325400D03*
X216091180Y-58825400D03*
X217941180Y-106325400D03*
X217941180Y-58825400D03*
%TD*%
%TO.C,C11*%
G36*
G01*
X110357800Y-36597400D02*
X110357800Y-36046600D01*
G75*
G02*
X110608200Y-35796200I250400J0D01*
G01*
X111109000Y-35796200D01*
G75*
G02*
X111359400Y-36046600I0J-250400D01*
G01*
X111359400Y-36597400D01*
G75*
G02*
X111109000Y-36847800I-250400J0D01*
G01*
X110608200Y-36847800D01*
G75*
G02*
X110357800Y-36597400I0J250400D01*
G01*
G37*
G36*
G01*
X108807800Y-36597400D02*
X108807800Y-36046600D01*
G75*
G02*
X109058200Y-35796200I250400J0D01*
G01*
X109559000Y-35796200D01*
G75*
G02*
X109809400Y-36046600I0J-250400D01*
G01*
X109809400Y-36597400D01*
G75*
G02*
X109559000Y-36847800I-250400J0D01*
G01*
X109058200Y-36847800D01*
G75*
G02*
X108807800Y-36597400I0J250400D01*
G01*
G37*
%TD*%
%TO.C,C9*%
G36*
G01*
X156790200Y-106507400D02*
X156239400Y-106507400D01*
G75*
G02*
X155989000Y-106257000I0J250400D01*
G01*
X155989000Y-105756200D01*
G75*
G02*
X156239400Y-105505800I250400J0D01*
G01*
X156790200Y-105505800D01*
G75*
G02*
X157040600Y-105756200I0J-250400D01*
G01*
X157040600Y-106257000D01*
G75*
G02*
X156790200Y-106507400I-250400J0D01*
G01*
G37*
G36*
G01*
X156790200Y-108057400D02*
X156239400Y-108057400D01*
G75*
G02*
X155989000Y-107807000I0J250400D01*
G01*
X155989000Y-107306200D01*
G75*
G02*
X156239400Y-107055800I250400J0D01*
G01*
X156790200Y-107055800D01*
G75*
G02*
X157040600Y-107306200I0J-250400D01*
G01*
X157040600Y-107807000D01*
G75*
G02*
X156790200Y-108057400I-250400J0D01*
G01*
G37*
%TD*%
%TO.C,C8*%
G36*
G01*
X158728600Y-110370200D02*
X159279400Y-110370200D01*
G75*
G02*
X159529800Y-110620600I0J-250400D01*
G01*
X159529800Y-111121400D01*
G75*
G02*
X159279400Y-111371800I-250400J0D01*
G01*
X158728600Y-111371800D01*
G75*
G02*
X158478200Y-111121400I0J250400D01*
G01*
X158478200Y-110620600D01*
G75*
G02*
X158728600Y-110370200I250400J0D01*
G01*
G37*
G36*
G01*
X158728600Y-108820200D02*
X159279400Y-108820200D01*
G75*
G02*
X159529800Y-109070600I0J-250400D01*
G01*
X159529800Y-109571400D01*
G75*
G02*
X159279400Y-109821800I-250400J0D01*
G01*
X158728600Y-109821800D01*
G75*
G02*
X158478200Y-109571400I0J250400D01*
G01*
X158478200Y-109070600D01*
G75*
G02*
X158728600Y-108820200I250400J0D01*
G01*
G37*
%TD*%
%TO.C,C5*%
G36*
G01*
X124760800Y-84625600D02*
X124210000Y-84625600D01*
G75*
G02*
X123959600Y-84375200I0J250400D01*
G01*
X123959600Y-83874400D01*
G75*
G02*
X124210000Y-83624000I250400J0D01*
G01*
X124760800Y-83624000D01*
G75*
G02*
X125011200Y-83874400I0J-250400D01*
G01*
X125011200Y-84375200D01*
G75*
G02*
X124760800Y-84625600I-250400J0D01*
G01*
G37*
G36*
G01*
X124760800Y-86175600D02*
X124210000Y-86175600D01*
G75*
G02*
X123959600Y-85925200I0J250400D01*
G01*
X123959600Y-85424400D01*
G75*
G02*
X124210000Y-85174000I250400J0D01*
G01*
X124760800Y-85174000D01*
G75*
G02*
X125011200Y-85424400I0J-250400D01*
G01*
X125011200Y-85925200D01*
G75*
G02*
X124760800Y-86175600I-250400J0D01*
G01*
G37*
%TD*%
%TO.C,C4*%
G36*
G01*
X138273600Y-87381200D02*
X137722800Y-87381200D01*
G75*
G02*
X137472400Y-87130800I0J250400D01*
G01*
X137472400Y-86630000D01*
G75*
G02*
X137722800Y-86379600I250400J0D01*
G01*
X138273600Y-86379600D01*
G75*
G02*
X138524000Y-86630000I0J-250400D01*
G01*
X138524000Y-87130800D01*
G75*
G02*
X138273600Y-87381200I-250400J0D01*
G01*
G37*
G36*
G01*
X138273600Y-88931200D02*
X137722800Y-88931200D01*
G75*
G02*
X137472400Y-88680800I0J250400D01*
G01*
X137472400Y-88180000D01*
G75*
G02*
X137722800Y-87929600I250400J0D01*
G01*
X138273600Y-87929600D01*
G75*
G02*
X138524000Y-88180000I0J-250400D01*
G01*
X138524000Y-88680800D01*
G75*
G02*
X138273600Y-88931200I-250400J0D01*
G01*
G37*
%TD*%
%TO.C,C3*%
G36*
G01*
X151583200Y-60127000D02*
X151032400Y-60127000D01*
G75*
G02*
X150782000Y-59876600I0J250400D01*
G01*
X150782000Y-59375800D01*
G75*
G02*
X151032400Y-59125400I250400J0D01*
G01*
X151583200Y-59125400D01*
G75*
G02*
X151833600Y-59375800I0J-250400D01*
G01*
X151833600Y-59876600D01*
G75*
G02*
X151583200Y-60127000I-250400J0D01*
G01*
G37*
G36*
G01*
X151583200Y-61677000D02*
X151032400Y-61677000D01*
G75*
G02*
X150782000Y-61426600I0J250400D01*
G01*
X150782000Y-60925800D01*
G75*
G02*
X151032400Y-60675400I250400J0D01*
G01*
X151583200Y-60675400D01*
G75*
G02*
X151833600Y-60925800I0J-250400D01*
G01*
X151833600Y-61426600D01*
G75*
G02*
X151583200Y-61677000I-250400J0D01*
G01*
G37*
%TD*%
%TO.C,C2*%
G36*
G01*
X151608600Y-66807200D02*
X151057800Y-66807200D01*
G75*
G02*
X150807400Y-66556800I0J250400D01*
G01*
X150807400Y-66056000D01*
G75*
G02*
X151057800Y-65805600I250400J0D01*
G01*
X151608600Y-65805600D01*
G75*
G02*
X151859000Y-66056000I0J-250400D01*
G01*
X151859000Y-66556800D01*
G75*
G02*
X151608600Y-66807200I-250400J0D01*
G01*
G37*
G36*
G01*
X151608600Y-68357200D02*
X151057800Y-68357200D01*
G75*
G02*
X150807400Y-68106800I0J250400D01*
G01*
X150807400Y-67606000D01*
G75*
G02*
X151057800Y-67355600I250400J0D01*
G01*
X151608600Y-67355600D01*
G75*
G02*
X151859000Y-67606000I0J-250400D01*
G01*
X151859000Y-68106800D01*
G75*
G02*
X151608600Y-68357200I-250400J0D01*
G01*
G37*
%TD*%
D16*
G36*
X156884732Y-111688600D02*
G01*
X156885000Y-111689600D01*
X156885000Y-112441200D01*
X156884000Y-112442932D01*
X156883000Y-112443200D01*
X156684600Y-112443200D01*
X156682868Y-112442200D01*
X156682600Y-112441200D01*
X156682600Y-111691600D01*
X156235000Y-111691600D01*
X156235000Y-112441200D01*
X156234000Y-112442932D01*
X156233000Y-112443200D01*
X156034600Y-112443200D01*
X156032868Y-112442200D01*
X156032600Y-112441200D01*
X156032600Y-111691600D01*
X155585000Y-111691600D01*
X155585000Y-112441200D01*
X155584000Y-112442932D01*
X155583000Y-112443200D01*
X155384600Y-112443200D01*
X155382868Y-112442200D01*
X155382600Y-112441200D01*
X155382600Y-111689600D01*
X155383600Y-111687868D01*
X155384600Y-111687600D01*
X156883000Y-111687600D01*
X156884732Y-111688600D01*
G37*
G36*
X156884732Y-108588600D02*
G01*
X156885000Y-108589600D01*
X156885000Y-109341200D01*
X156884000Y-109342932D01*
X156883000Y-109343200D01*
X156684600Y-109343200D01*
X156682868Y-109342200D01*
X156682600Y-109341200D01*
X156682600Y-108591600D01*
X156235000Y-108591600D01*
X156235000Y-109341200D01*
X156234000Y-109342932D01*
X156233000Y-109343200D01*
X156034600Y-109343200D01*
X156032868Y-109342200D01*
X156032600Y-109341200D01*
X156032600Y-108591600D01*
X155585000Y-108591600D01*
X155585000Y-109341200D01*
X155584000Y-109342932D01*
X155583000Y-109343200D01*
X155384600Y-109343200D01*
X155382868Y-109342200D01*
X155382600Y-109341200D01*
X155382600Y-108589600D01*
X155383600Y-108587868D01*
X155384600Y-108587600D01*
X156883000Y-108587600D01*
X156884732Y-108588600D01*
G37*
G36*
X215288455Y-106220733D02*
G01*
X215288957Y-106222490D01*
X215284294Y-106245931D01*
X215284294Y-106404869D01*
X215288957Y-106428311D01*
X215288314Y-106430205D01*
X215286352Y-106430595D01*
X215285081Y-106429282D01*
X215279807Y-106411896D01*
X215268442Y-106390633D01*
X215253147Y-106371996D01*
X215234510Y-106356700D01*
X215213247Y-106345335D01*
X215190172Y-106338335D01*
X215166181Y-106335972D01*
X215142189Y-106338335D01*
X215119114Y-106345335D01*
X215097851Y-106356700D01*
X215079214Y-106371995D01*
X215063918Y-106390632D01*
X215052553Y-106411895D01*
X215047279Y-106429281D01*
X215045819Y-106430648D01*
X215043905Y-106430067D01*
X215043403Y-106428310D01*
X215048066Y-106404869D01*
X215048066Y-106245931D01*
X215043403Y-106222489D01*
X215044046Y-106220595D01*
X215046008Y-106220205D01*
X215047279Y-106221518D01*
X215052553Y-106238904D01*
X215063918Y-106260167D01*
X215079213Y-106278804D01*
X215097850Y-106294100D01*
X215119113Y-106305465D01*
X215142188Y-106312465D01*
X215166179Y-106314828D01*
X215190171Y-106312465D01*
X215213246Y-106305465D01*
X215234509Y-106294100D01*
X215253146Y-106278805D01*
X215268442Y-106260168D01*
X215279807Y-106238905D01*
X215285081Y-106221519D01*
X215286541Y-106220152D01*
X215288455Y-106220733D01*
G37*
G36*
X217138455Y-106220733D02*
G01*
X217138957Y-106222490D01*
X217134294Y-106245931D01*
X217134294Y-106404869D01*
X217138957Y-106428311D01*
X217138314Y-106430205D01*
X217136352Y-106430595D01*
X217135081Y-106429282D01*
X217129807Y-106411896D01*
X217118442Y-106390633D01*
X217103147Y-106371996D01*
X217084510Y-106356700D01*
X217063247Y-106345335D01*
X217040172Y-106338335D01*
X217016181Y-106335972D01*
X216992189Y-106338335D01*
X216969114Y-106345335D01*
X216947851Y-106356700D01*
X216929214Y-106371995D01*
X216913918Y-106390632D01*
X216902553Y-106411895D01*
X216897279Y-106429281D01*
X216895819Y-106430648D01*
X216893905Y-106430067D01*
X216893403Y-106428310D01*
X216898066Y-106404869D01*
X216898066Y-106245931D01*
X216893403Y-106222489D01*
X216894046Y-106220595D01*
X216896008Y-106220205D01*
X216897279Y-106221518D01*
X216902553Y-106238904D01*
X216913918Y-106260167D01*
X216929213Y-106278804D01*
X216947850Y-106294100D01*
X216969113Y-106305465D01*
X216992188Y-106312465D01*
X217016179Y-106314828D01*
X217040171Y-106312465D01*
X217063246Y-106305465D01*
X217084509Y-106294100D01*
X217103146Y-106278805D01*
X217118442Y-106260168D01*
X217129807Y-106238905D01*
X217135081Y-106221519D01*
X217136541Y-106220152D01*
X217138455Y-106220733D01*
G37*
G36*
X71969732Y-75389200D02*
G01*
X71970000Y-75390200D01*
X71970000Y-75588600D01*
X71969000Y-75590332D01*
X71968000Y-75590600D01*
X70186400Y-75590600D01*
X70184668Y-75589600D01*
X70184400Y-75588600D01*
X70184400Y-75390200D01*
X70185400Y-75388468D01*
X70186400Y-75388200D01*
X71968000Y-75388200D01*
X71969732Y-75389200D01*
G37*
G36*
X71969732Y-74289200D02*
G01*
X71970000Y-74290200D01*
X71970000Y-74488600D01*
X71969000Y-74490332D01*
X71968000Y-74490600D01*
X70186400Y-74490600D01*
X70184668Y-74489600D01*
X70184400Y-74488600D01*
X70184400Y-74290200D01*
X70185400Y-74288468D01*
X70186400Y-74288200D01*
X71968000Y-74288200D01*
X71969732Y-74289200D01*
G37*
G36*
X71969732Y-73189200D02*
G01*
X71970000Y-73190200D01*
X71970000Y-73388600D01*
X71969000Y-73390332D01*
X71968000Y-73390600D01*
X70186400Y-73390600D01*
X70184668Y-73389600D01*
X70184400Y-73388600D01*
X70184400Y-73190200D01*
X70185400Y-73188468D01*
X70186400Y-73188200D01*
X71968000Y-73188200D01*
X71969732Y-73189200D01*
G37*
G36*
X71969732Y-72089200D02*
G01*
X71970000Y-72090200D01*
X71970000Y-72288600D01*
X71969000Y-72290332D01*
X71968000Y-72290600D01*
X70186400Y-72290600D01*
X70184668Y-72289600D01*
X70184400Y-72288600D01*
X70184400Y-72090200D01*
X70185400Y-72088468D01*
X70186400Y-72088200D01*
X71968000Y-72088200D01*
X71969732Y-72089200D01*
G37*
G36*
X71969732Y-70989200D02*
G01*
X71970000Y-70990200D01*
X71970000Y-71188600D01*
X71969000Y-71190332D01*
X71968000Y-71190600D01*
X70186400Y-71190600D01*
X70184668Y-71189600D01*
X70184400Y-71188600D01*
X70184400Y-70990200D01*
X70185400Y-70988468D01*
X70186400Y-70988200D01*
X71968000Y-70988200D01*
X71969732Y-70989200D01*
G37*
G36*
X71969732Y-69889200D02*
G01*
X71970000Y-69890200D01*
X71970000Y-70088600D01*
X71969000Y-70090332D01*
X71968000Y-70090600D01*
X70186400Y-70090600D01*
X70184668Y-70089600D01*
X70184400Y-70088600D01*
X70184400Y-69890200D01*
X70185400Y-69888468D01*
X70186400Y-69888200D01*
X71968000Y-69888200D01*
X71969732Y-69889200D01*
G37*
G36*
X71969732Y-68789200D02*
G01*
X71970000Y-68790200D01*
X71970000Y-68988600D01*
X71969000Y-68990332D01*
X71968000Y-68990600D01*
X70186400Y-68990600D01*
X70184668Y-68989600D01*
X70184400Y-68988600D01*
X70184400Y-68790200D01*
X70185400Y-68788468D01*
X70186400Y-68788200D01*
X71968000Y-68788200D01*
X71969732Y-68789200D01*
G37*
G36*
X70367565Y-67761975D02*
G01*
X70368400Y-67763601D01*
X70368400Y-67788200D01*
X71968000Y-67788200D01*
X71969732Y-67789200D01*
X71970000Y-67790200D01*
X71970000Y-67888600D01*
X71969000Y-67890332D01*
X71968000Y-67890600D01*
X70241401Y-67890600D01*
X70239669Y-67889600D01*
X70239669Y-67887600D01*
X70241205Y-67886610D01*
X70265392Y-67884228D01*
X70288467Y-67877228D01*
X70309731Y-67865863D01*
X70328368Y-67850568D01*
X70343663Y-67831931D01*
X70355028Y-67810667D01*
X70362028Y-67787592D01*
X70364410Y-67763405D01*
X70365575Y-67761779D01*
X70367565Y-67761975D01*
G37*
G36*
X70219990Y-65963405D02*
G01*
X70222372Y-65987592D01*
X70229372Y-66010667D01*
X70240737Y-66031931D01*
X70256032Y-66050568D01*
X70274669Y-66065863D01*
X70295933Y-66077228D01*
X70319008Y-66084228D01*
X70343093Y-66086600D01*
X70366400Y-66086600D01*
X70368132Y-66087600D01*
X70368400Y-66088600D01*
X70368400Y-67105199D01*
X70367400Y-67106931D01*
X70365400Y-67106931D01*
X70364410Y-67105395D01*
X70362028Y-67081208D01*
X70355028Y-67058133D01*
X70343663Y-67036869D01*
X70328368Y-67018232D01*
X70309731Y-67002937D01*
X70288467Y-66991572D01*
X70265392Y-66984572D01*
X70241307Y-66982200D01*
X70218000Y-66982200D01*
X70216268Y-66981200D01*
X70216000Y-66980200D01*
X70216000Y-65963601D01*
X70217000Y-65961869D01*
X70219000Y-65961869D01*
X70219990Y-65963405D01*
G37*
G36*
X215288455Y-58720733D02*
G01*
X215288957Y-58722490D01*
X215284294Y-58745931D01*
X215284294Y-58904869D01*
X215288957Y-58928311D01*
X215288314Y-58930205D01*
X215286352Y-58930595D01*
X215285081Y-58929282D01*
X215279807Y-58911896D01*
X215268442Y-58890633D01*
X215253147Y-58871996D01*
X215234510Y-58856700D01*
X215213247Y-58845335D01*
X215190172Y-58838335D01*
X215166181Y-58835972D01*
X215142189Y-58838335D01*
X215119114Y-58845335D01*
X215097851Y-58856700D01*
X215079214Y-58871995D01*
X215063918Y-58890632D01*
X215052553Y-58911895D01*
X215047279Y-58929281D01*
X215045819Y-58930648D01*
X215043905Y-58930067D01*
X215043403Y-58928310D01*
X215048066Y-58904869D01*
X215048066Y-58745931D01*
X215043403Y-58722489D01*
X215044046Y-58720595D01*
X215046008Y-58720205D01*
X215047279Y-58721518D01*
X215052553Y-58738904D01*
X215063918Y-58760167D01*
X215079213Y-58778804D01*
X215097850Y-58794100D01*
X215119113Y-58805465D01*
X215142188Y-58812465D01*
X215166179Y-58814828D01*
X215190171Y-58812465D01*
X215213246Y-58805465D01*
X215234509Y-58794100D01*
X215253146Y-58778805D01*
X215268442Y-58760168D01*
X215279807Y-58738905D01*
X215285081Y-58721519D01*
X215286541Y-58720152D01*
X215288455Y-58720733D01*
G37*
G36*
X217138455Y-58720733D02*
G01*
X217138957Y-58722490D01*
X217134294Y-58745931D01*
X217134294Y-58904869D01*
X217138957Y-58928311D01*
X217138314Y-58930205D01*
X217136352Y-58930595D01*
X217135081Y-58929282D01*
X217129807Y-58911896D01*
X217118442Y-58890633D01*
X217103147Y-58871996D01*
X217084510Y-58856700D01*
X217063247Y-58845335D01*
X217040172Y-58838335D01*
X217016181Y-58835972D01*
X216992189Y-58838335D01*
X216969114Y-58845335D01*
X216947851Y-58856700D01*
X216929214Y-58871995D01*
X216913918Y-58890632D01*
X216902553Y-58911895D01*
X216897279Y-58929281D01*
X216895819Y-58930648D01*
X216893905Y-58930067D01*
X216893403Y-58928310D01*
X216898066Y-58904869D01*
X216898066Y-58745931D01*
X216893403Y-58722489D01*
X216894046Y-58720595D01*
X216896008Y-58720205D01*
X216897279Y-58721518D01*
X216902553Y-58738904D01*
X216913918Y-58760167D01*
X216929213Y-58778804D01*
X216947850Y-58794100D01*
X216969113Y-58805465D01*
X216992188Y-58812465D01*
X217016179Y-58814828D01*
X217040171Y-58812465D01*
X217063246Y-58805465D01*
X217084509Y-58794100D01*
X217103146Y-58778805D01*
X217118442Y-58760168D01*
X217129807Y-58738905D01*
X217135081Y-58721519D01*
X217136541Y-58720152D01*
X217138455Y-58720733D01*
G37*
M02*
