G04 #@! TF.GenerationSoftware,KiCad,Pcbnew,(5.1.2)-2*
G04 #@! TF.CreationDate,2020-01-30T12:23:50+01:00*
G04 #@! TF.ProjectId,ACM-pcb,41434d2d-7063-4622-9e6b-696361645f70,rev?*
G04 #@! TF.SameCoordinates,Original*
G04 #@! TF.FileFunction,Copper,L2,Bot*
G04 #@! TF.FilePolarity,Positive*
%FSLAX46Y46*%
G04 Gerber Fmt 4.6, Leading zero omitted, Abs format (unit mm)*
G04 Created by KiCad (PCBNEW (5.1.2)-2) date 2020-01-30 12:23:50*
%MOMM*%
%LPD*%
G04 APERTURE LIST*
%ADD10R,0.550000X1.500000*%
%ADD11C,0.100000*%
%ADD12C,4.800000*%
%ADD13C,0.300000*%
%ADD14R,0.600000X0.700000*%
%ADD15C,0.590000*%
%ADD16R,0.900000X0.800000*%
%ADD17C,0.875000*%
%ADD18R,0.700000X0.600000*%
%ADD19C,0.600000*%
%ADD20C,1.000000*%
%ADD21C,0.254000*%
G04 APERTURE END LIST*
D10*
X80022000Y-70988000D03*
X80022000Y-67188000D03*
X79222000Y-70988000D03*
X79222000Y-67188000D03*
X78422000Y-70988000D03*
X78422000Y-67188000D03*
X77622000Y-70988000D03*
X77622000Y-67188000D03*
X76822000Y-70988000D03*
X76822000Y-67188000D03*
X76022000Y-70988000D03*
X76022000Y-67188000D03*
X75222000Y-70988000D03*
X75222000Y-67188000D03*
X74422000Y-70988000D03*
X74422000Y-67188000D03*
X73622000Y-70988000D03*
X73622000Y-67188000D03*
X72822000Y-70988000D03*
X72822000Y-67188000D03*
X72022000Y-70988000D03*
X72022000Y-67188000D03*
X71222000Y-70988000D03*
X71222000Y-67188000D03*
X70422000Y-70988000D03*
X70422000Y-67188000D03*
X69622000Y-70988000D03*
X69622000Y-67188000D03*
X68822000Y-70988000D03*
X68822000Y-67188000D03*
D11*
G36*
X73992504Y-75150644D02*
G01*
X74016772Y-75154244D01*
X74040571Y-75160205D01*
X74063670Y-75168470D01*
X74085848Y-75178959D01*
X74106891Y-75191572D01*
X74126597Y-75206187D01*
X74144775Y-75222663D01*
X77185337Y-78263225D01*
X77201813Y-78281403D01*
X77216428Y-78301109D01*
X77229041Y-78322152D01*
X77239530Y-78344330D01*
X77247795Y-78367429D01*
X77253756Y-78391228D01*
X77257356Y-78415496D01*
X77258560Y-78440000D01*
X77257356Y-78464504D01*
X77253756Y-78488772D01*
X77247795Y-78512571D01*
X77239530Y-78535670D01*
X77229041Y-78557848D01*
X77216428Y-78578891D01*
X77201813Y-78598597D01*
X77185337Y-78616775D01*
X74144775Y-81657337D01*
X74126597Y-81673813D01*
X74106891Y-81688428D01*
X74085848Y-81701041D01*
X74063670Y-81711530D01*
X74040571Y-81719795D01*
X74016772Y-81725756D01*
X73992504Y-81729356D01*
X73968000Y-81730560D01*
X73943496Y-81729356D01*
X73919228Y-81725756D01*
X73895429Y-81719795D01*
X73872330Y-81711530D01*
X73850152Y-81701041D01*
X73829109Y-81688428D01*
X73809403Y-81673813D01*
X73791225Y-81657337D01*
X70750663Y-78616775D01*
X70734187Y-78598597D01*
X70719572Y-78578891D01*
X70706959Y-78557848D01*
X70696470Y-78535670D01*
X70688205Y-78512571D01*
X70682244Y-78488772D01*
X70678644Y-78464504D01*
X70677440Y-78440000D01*
X70678644Y-78415496D01*
X70682244Y-78391228D01*
X70688205Y-78367429D01*
X70696470Y-78344330D01*
X70706959Y-78322152D01*
X70719572Y-78301109D01*
X70734187Y-78281403D01*
X70750663Y-78263225D01*
X73791225Y-75222663D01*
X73809403Y-75206187D01*
X73829109Y-75191572D01*
X73850152Y-75178959D01*
X73872330Y-75168470D01*
X73895429Y-75160205D01*
X73919228Y-75154244D01*
X73943496Y-75150644D01*
X73968000Y-75149440D01*
X73992504Y-75150644D01*
X73992504Y-75150644D01*
G37*
D12*
X73968000Y-78440000D03*
D11*
G36*
X73409666Y-81582697D02*
G01*
X73416947Y-81583777D01*
X73424086Y-81585565D01*
X73431016Y-81588045D01*
X73437670Y-81591192D01*
X73443983Y-81594976D01*
X73449894Y-81599360D01*
X73455348Y-81604303D01*
X73561414Y-81710369D01*
X73566357Y-81715823D01*
X73570741Y-81721734D01*
X73574525Y-81728047D01*
X73577672Y-81734701D01*
X73580152Y-81741631D01*
X73581940Y-81748770D01*
X73583020Y-81756051D01*
X73583381Y-81763402D01*
X73583020Y-81770753D01*
X73581940Y-81778034D01*
X73580152Y-81785173D01*
X73577672Y-81792103D01*
X73574525Y-81798757D01*
X73570741Y-81805070D01*
X73566357Y-81810981D01*
X73561414Y-81816435D01*
X73119472Y-82258377D01*
X73114018Y-82263320D01*
X73108107Y-82267704D01*
X73101794Y-82271488D01*
X73095140Y-82274635D01*
X73088210Y-82277115D01*
X73081071Y-82278903D01*
X73073790Y-82279983D01*
X73066439Y-82280344D01*
X73059088Y-82279983D01*
X73051807Y-82278903D01*
X73044668Y-82277115D01*
X73037738Y-82274635D01*
X73031084Y-82271488D01*
X73024771Y-82267704D01*
X73018860Y-82263320D01*
X73013406Y-82258377D01*
X72907340Y-82152311D01*
X72902397Y-82146857D01*
X72898013Y-82140946D01*
X72894229Y-82134633D01*
X72891082Y-82127979D01*
X72888602Y-82121049D01*
X72886814Y-82113910D01*
X72885734Y-82106629D01*
X72885373Y-82099278D01*
X72885734Y-82091927D01*
X72886814Y-82084646D01*
X72888602Y-82077507D01*
X72891082Y-82070577D01*
X72894229Y-82063923D01*
X72898013Y-82057610D01*
X72902397Y-82051699D01*
X72907340Y-82046245D01*
X73349282Y-81604303D01*
X73354736Y-81599360D01*
X73360647Y-81594976D01*
X73366960Y-81591192D01*
X73373614Y-81588045D01*
X73380544Y-81585565D01*
X73387683Y-81583777D01*
X73394964Y-81582697D01*
X73402315Y-81582336D01*
X73409666Y-81582697D01*
X73409666Y-81582697D01*
G37*
D13*
X73234377Y-81931340D03*
D11*
G36*
X72950046Y-81123077D02*
G01*
X72957327Y-81124157D01*
X72964466Y-81125945D01*
X72971396Y-81128425D01*
X72978050Y-81131572D01*
X72984363Y-81135356D01*
X72990274Y-81139740D01*
X72995728Y-81144683D01*
X73101794Y-81250749D01*
X73106737Y-81256203D01*
X73111121Y-81262114D01*
X73114905Y-81268427D01*
X73118052Y-81275081D01*
X73120532Y-81282011D01*
X73122320Y-81289150D01*
X73123400Y-81296431D01*
X73123761Y-81303782D01*
X73123400Y-81311133D01*
X73122320Y-81318414D01*
X73120532Y-81325553D01*
X73118052Y-81332483D01*
X73114905Y-81339137D01*
X73111121Y-81345450D01*
X73106737Y-81351361D01*
X73101794Y-81356815D01*
X72659852Y-81798757D01*
X72654398Y-81803700D01*
X72648487Y-81808084D01*
X72642174Y-81811868D01*
X72635520Y-81815015D01*
X72628590Y-81817495D01*
X72621451Y-81819283D01*
X72614170Y-81820363D01*
X72606819Y-81820724D01*
X72599468Y-81820363D01*
X72592187Y-81819283D01*
X72585048Y-81817495D01*
X72578118Y-81815015D01*
X72571464Y-81811868D01*
X72565151Y-81808084D01*
X72559240Y-81803700D01*
X72553786Y-81798757D01*
X72447720Y-81692691D01*
X72442777Y-81687237D01*
X72438393Y-81681326D01*
X72434609Y-81675013D01*
X72431462Y-81668359D01*
X72428982Y-81661429D01*
X72427194Y-81654290D01*
X72426114Y-81647009D01*
X72425753Y-81639658D01*
X72426114Y-81632307D01*
X72427194Y-81625026D01*
X72428982Y-81617887D01*
X72431462Y-81610957D01*
X72434609Y-81604303D01*
X72438393Y-81597990D01*
X72442777Y-81592079D01*
X72447720Y-81586625D01*
X72889662Y-81144683D01*
X72895116Y-81139740D01*
X72901027Y-81135356D01*
X72907340Y-81131572D01*
X72913994Y-81128425D01*
X72920924Y-81125945D01*
X72928063Y-81124157D01*
X72935344Y-81123077D01*
X72942695Y-81122716D01*
X72950046Y-81123077D01*
X72950046Y-81123077D01*
G37*
D13*
X72774757Y-81471720D03*
D11*
G36*
X72490427Y-80663458D02*
G01*
X72497708Y-80664538D01*
X72504847Y-80666326D01*
X72511777Y-80668806D01*
X72518431Y-80671953D01*
X72524744Y-80675737D01*
X72530655Y-80680121D01*
X72536109Y-80685064D01*
X72642175Y-80791130D01*
X72647118Y-80796584D01*
X72651502Y-80802495D01*
X72655286Y-80808808D01*
X72658433Y-80815462D01*
X72660913Y-80822392D01*
X72662701Y-80829531D01*
X72663781Y-80836812D01*
X72664142Y-80844163D01*
X72663781Y-80851514D01*
X72662701Y-80858795D01*
X72660913Y-80865934D01*
X72658433Y-80872864D01*
X72655286Y-80879518D01*
X72651502Y-80885831D01*
X72647118Y-80891742D01*
X72642175Y-80897196D01*
X72200233Y-81339138D01*
X72194779Y-81344081D01*
X72188868Y-81348465D01*
X72182555Y-81352249D01*
X72175901Y-81355396D01*
X72168971Y-81357876D01*
X72161832Y-81359664D01*
X72154551Y-81360744D01*
X72147200Y-81361105D01*
X72139849Y-81360744D01*
X72132568Y-81359664D01*
X72125429Y-81357876D01*
X72118499Y-81355396D01*
X72111845Y-81352249D01*
X72105532Y-81348465D01*
X72099621Y-81344081D01*
X72094167Y-81339138D01*
X71988101Y-81233072D01*
X71983158Y-81227618D01*
X71978774Y-81221707D01*
X71974990Y-81215394D01*
X71971843Y-81208740D01*
X71969363Y-81201810D01*
X71967575Y-81194671D01*
X71966495Y-81187390D01*
X71966134Y-81180039D01*
X71966495Y-81172688D01*
X71967575Y-81165407D01*
X71969363Y-81158268D01*
X71971843Y-81151338D01*
X71974990Y-81144684D01*
X71978774Y-81138371D01*
X71983158Y-81132460D01*
X71988101Y-81127006D01*
X72430043Y-80685064D01*
X72435497Y-80680121D01*
X72441408Y-80675737D01*
X72447721Y-80671953D01*
X72454375Y-80668806D01*
X72461305Y-80666326D01*
X72468444Y-80664538D01*
X72475725Y-80663458D01*
X72483076Y-80663097D01*
X72490427Y-80663458D01*
X72490427Y-80663458D01*
G37*
D13*
X72315138Y-81012101D03*
D11*
G36*
X72030807Y-80203839D02*
G01*
X72038088Y-80204919D01*
X72045227Y-80206707D01*
X72052157Y-80209187D01*
X72058811Y-80212334D01*
X72065124Y-80216118D01*
X72071035Y-80220502D01*
X72076489Y-80225445D01*
X72182555Y-80331511D01*
X72187498Y-80336965D01*
X72191882Y-80342876D01*
X72195666Y-80349189D01*
X72198813Y-80355843D01*
X72201293Y-80362773D01*
X72203081Y-80369912D01*
X72204161Y-80377193D01*
X72204522Y-80384544D01*
X72204161Y-80391895D01*
X72203081Y-80399176D01*
X72201293Y-80406315D01*
X72198813Y-80413245D01*
X72195666Y-80419899D01*
X72191882Y-80426212D01*
X72187498Y-80432123D01*
X72182555Y-80437577D01*
X71740613Y-80879519D01*
X71735159Y-80884462D01*
X71729248Y-80888846D01*
X71722935Y-80892630D01*
X71716281Y-80895777D01*
X71709351Y-80898257D01*
X71702212Y-80900045D01*
X71694931Y-80901125D01*
X71687580Y-80901486D01*
X71680229Y-80901125D01*
X71672948Y-80900045D01*
X71665809Y-80898257D01*
X71658879Y-80895777D01*
X71652225Y-80892630D01*
X71645912Y-80888846D01*
X71640001Y-80884462D01*
X71634547Y-80879519D01*
X71528481Y-80773453D01*
X71523538Y-80767999D01*
X71519154Y-80762088D01*
X71515370Y-80755775D01*
X71512223Y-80749121D01*
X71509743Y-80742191D01*
X71507955Y-80735052D01*
X71506875Y-80727771D01*
X71506514Y-80720420D01*
X71506875Y-80713069D01*
X71507955Y-80705788D01*
X71509743Y-80698649D01*
X71512223Y-80691719D01*
X71515370Y-80685065D01*
X71519154Y-80678752D01*
X71523538Y-80672841D01*
X71528481Y-80667387D01*
X71970423Y-80225445D01*
X71975877Y-80220502D01*
X71981788Y-80216118D01*
X71988101Y-80212334D01*
X71994755Y-80209187D01*
X72001685Y-80206707D01*
X72008824Y-80204919D01*
X72016105Y-80203839D01*
X72023456Y-80203478D01*
X72030807Y-80203839D01*
X72030807Y-80203839D01*
G37*
D13*
X71855518Y-80552482D03*
D11*
G36*
X71571188Y-79744219D02*
G01*
X71578469Y-79745299D01*
X71585608Y-79747087D01*
X71592538Y-79749567D01*
X71599192Y-79752714D01*
X71605505Y-79756498D01*
X71611416Y-79760882D01*
X71616870Y-79765825D01*
X71722936Y-79871891D01*
X71727879Y-79877345D01*
X71732263Y-79883256D01*
X71736047Y-79889569D01*
X71739194Y-79896223D01*
X71741674Y-79903153D01*
X71743462Y-79910292D01*
X71744542Y-79917573D01*
X71744903Y-79924924D01*
X71744542Y-79932275D01*
X71743462Y-79939556D01*
X71741674Y-79946695D01*
X71739194Y-79953625D01*
X71736047Y-79960279D01*
X71732263Y-79966592D01*
X71727879Y-79972503D01*
X71722936Y-79977957D01*
X71280994Y-80419899D01*
X71275540Y-80424842D01*
X71269629Y-80429226D01*
X71263316Y-80433010D01*
X71256662Y-80436157D01*
X71249732Y-80438637D01*
X71242593Y-80440425D01*
X71235312Y-80441505D01*
X71227961Y-80441866D01*
X71220610Y-80441505D01*
X71213329Y-80440425D01*
X71206190Y-80438637D01*
X71199260Y-80436157D01*
X71192606Y-80433010D01*
X71186293Y-80429226D01*
X71180382Y-80424842D01*
X71174928Y-80419899D01*
X71068862Y-80313833D01*
X71063919Y-80308379D01*
X71059535Y-80302468D01*
X71055751Y-80296155D01*
X71052604Y-80289501D01*
X71050124Y-80282571D01*
X71048336Y-80275432D01*
X71047256Y-80268151D01*
X71046895Y-80260800D01*
X71047256Y-80253449D01*
X71048336Y-80246168D01*
X71050124Y-80239029D01*
X71052604Y-80232099D01*
X71055751Y-80225445D01*
X71059535Y-80219132D01*
X71063919Y-80213221D01*
X71068862Y-80207767D01*
X71510804Y-79765825D01*
X71516258Y-79760882D01*
X71522169Y-79756498D01*
X71528482Y-79752714D01*
X71535136Y-79749567D01*
X71542066Y-79747087D01*
X71549205Y-79745299D01*
X71556486Y-79744219D01*
X71563837Y-79743858D01*
X71571188Y-79744219D01*
X71571188Y-79744219D01*
G37*
D13*
X71395899Y-80092862D03*
D11*
G36*
X71111569Y-79284600D02*
G01*
X71118850Y-79285680D01*
X71125989Y-79287468D01*
X71132919Y-79289948D01*
X71139573Y-79293095D01*
X71145886Y-79296879D01*
X71151797Y-79301263D01*
X71157251Y-79306206D01*
X71263317Y-79412272D01*
X71268260Y-79417726D01*
X71272644Y-79423637D01*
X71276428Y-79429950D01*
X71279575Y-79436604D01*
X71282055Y-79443534D01*
X71283843Y-79450673D01*
X71284923Y-79457954D01*
X71285284Y-79465305D01*
X71284923Y-79472656D01*
X71283843Y-79479937D01*
X71282055Y-79487076D01*
X71279575Y-79494006D01*
X71276428Y-79500660D01*
X71272644Y-79506973D01*
X71268260Y-79512884D01*
X71263317Y-79518338D01*
X70821375Y-79960280D01*
X70815921Y-79965223D01*
X70810010Y-79969607D01*
X70803697Y-79973391D01*
X70797043Y-79976538D01*
X70790113Y-79979018D01*
X70782974Y-79980806D01*
X70775693Y-79981886D01*
X70768342Y-79982247D01*
X70760991Y-79981886D01*
X70753710Y-79980806D01*
X70746571Y-79979018D01*
X70739641Y-79976538D01*
X70732987Y-79973391D01*
X70726674Y-79969607D01*
X70720763Y-79965223D01*
X70715309Y-79960280D01*
X70609243Y-79854214D01*
X70604300Y-79848760D01*
X70599916Y-79842849D01*
X70596132Y-79836536D01*
X70592985Y-79829882D01*
X70590505Y-79822952D01*
X70588717Y-79815813D01*
X70587637Y-79808532D01*
X70587276Y-79801181D01*
X70587637Y-79793830D01*
X70588717Y-79786549D01*
X70590505Y-79779410D01*
X70592985Y-79772480D01*
X70596132Y-79765826D01*
X70599916Y-79759513D01*
X70604300Y-79753602D01*
X70609243Y-79748148D01*
X71051185Y-79306206D01*
X71056639Y-79301263D01*
X71062550Y-79296879D01*
X71068863Y-79293095D01*
X71075517Y-79289948D01*
X71082447Y-79287468D01*
X71089586Y-79285680D01*
X71096867Y-79284600D01*
X71104218Y-79284239D01*
X71111569Y-79284600D01*
X71111569Y-79284600D01*
G37*
D13*
X70936280Y-79633243D03*
D11*
G36*
X70651949Y-78824980D02*
G01*
X70659230Y-78826060D01*
X70666369Y-78827848D01*
X70673299Y-78830328D01*
X70679953Y-78833475D01*
X70686266Y-78837259D01*
X70692177Y-78841643D01*
X70697631Y-78846586D01*
X70803697Y-78952652D01*
X70808640Y-78958106D01*
X70813024Y-78964017D01*
X70816808Y-78970330D01*
X70819955Y-78976984D01*
X70822435Y-78983914D01*
X70824223Y-78991053D01*
X70825303Y-78998334D01*
X70825664Y-79005685D01*
X70825303Y-79013036D01*
X70824223Y-79020317D01*
X70822435Y-79027456D01*
X70819955Y-79034386D01*
X70816808Y-79041040D01*
X70813024Y-79047353D01*
X70808640Y-79053264D01*
X70803697Y-79058718D01*
X70361755Y-79500660D01*
X70356301Y-79505603D01*
X70350390Y-79509987D01*
X70344077Y-79513771D01*
X70337423Y-79516918D01*
X70330493Y-79519398D01*
X70323354Y-79521186D01*
X70316073Y-79522266D01*
X70308722Y-79522627D01*
X70301371Y-79522266D01*
X70294090Y-79521186D01*
X70286951Y-79519398D01*
X70280021Y-79516918D01*
X70273367Y-79513771D01*
X70267054Y-79509987D01*
X70261143Y-79505603D01*
X70255689Y-79500660D01*
X70149623Y-79394594D01*
X70144680Y-79389140D01*
X70140296Y-79383229D01*
X70136512Y-79376916D01*
X70133365Y-79370262D01*
X70130885Y-79363332D01*
X70129097Y-79356193D01*
X70128017Y-79348912D01*
X70127656Y-79341561D01*
X70128017Y-79334210D01*
X70129097Y-79326929D01*
X70130885Y-79319790D01*
X70133365Y-79312860D01*
X70136512Y-79306206D01*
X70140296Y-79299893D01*
X70144680Y-79293982D01*
X70149623Y-79288528D01*
X70591565Y-78846586D01*
X70597019Y-78841643D01*
X70602930Y-78837259D01*
X70609243Y-78833475D01*
X70615897Y-78830328D01*
X70622827Y-78827848D01*
X70629966Y-78826060D01*
X70637247Y-78824980D01*
X70644598Y-78824619D01*
X70651949Y-78824980D01*
X70651949Y-78824980D01*
G37*
D13*
X70476660Y-79173623D03*
D11*
G36*
X70316073Y-77357734D02*
G01*
X70323354Y-77358814D01*
X70330493Y-77360602D01*
X70337423Y-77363082D01*
X70344077Y-77366229D01*
X70350390Y-77370013D01*
X70356301Y-77374397D01*
X70361755Y-77379340D01*
X70803697Y-77821282D01*
X70808640Y-77826736D01*
X70813024Y-77832647D01*
X70816808Y-77838960D01*
X70819955Y-77845614D01*
X70822435Y-77852544D01*
X70824223Y-77859683D01*
X70825303Y-77866964D01*
X70825664Y-77874315D01*
X70825303Y-77881666D01*
X70824223Y-77888947D01*
X70822435Y-77896086D01*
X70819955Y-77903016D01*
X70816808Y-77909670D01*
X70813024Y-77915983D01*
X70808640Y-77921894D01*
X70803697Y-77927348D01*
X70697631Y-78033414D01*
X70692177Y-78038357D01*
X70686266Y-78042741D01*
X70679953Y-78046525D01*
X70673299Y-78049672D01*
X70666369Y-78052152D01*
X70659230Y-78053940D01*
X70651949Y-78055020D01*
X70644598Y-78055381D01*
X70637247Y-78055020D01*
X70629966Y-78053940D01*
X70622827Y-78052152D01*
X70615897Y-78049672D01*
X70609243Y-78046525D01*
X70602930Y-78042741D01*
X70597019Y-78038357D01*
X70591565Y-78033414D01*
X70149623Y-77591472D01*
X70144680Y-77586018D01*
X70140296Y-77580107D01*
X70136512Y-77573794D01*
X70133365Y-77567140D01*
X70130885Y-77560210D01*
X70129097Y-77553071D01*
X70128017Y-77545790D01*
X70127656Y-77538439D01*
X70128017Y-77531088D01*
X70129097Y-77523807D01*
X70130885Y-77516668D01*
X70133365Y-77509738D01*
X70136512Y-77503084D01*
X70140296Y-77496771D01*
X70144680Y-77490860D01*
X70149623Y-77485406D01*
X70255689Y-77379340D01*
X70261143Y-77374397D01*
X70267054Y-77370013D01*
X70273367Y-77366229D01*
X70280021Y-77363082D01*
X70286951Y-77360602D01*
X70294090Y-77358814D01*
X70301371Y-77357734D01*
X70308722Y-77357373D01*
X70316073Y-77357734D01*
X70316073Y-77357734D01*
G37*
D13*
X70476660Y-77706377D03*
D11*
G36*
X70775693Y-76898114D02*
G01*
X70782974Y-76899194D01*
X70790113Y-76900982D01*
X70797043Y-76903462D01*
X70803697Y-76906609D01*
X70810010Y-76910393D01*
X70815921Y-76914777D01*
X70821375Y-76919720D01*
X71263317Y-77361662D01*
X71268260Y-77367116D01*
X71272644Y-77373027D01*
X71276428Y-77379340D01*
X71279575Y-77385994D01*
X71282055Y-77392924D01*
X71283843Y-77400063D01*
X71284923Y-77407344D01*
X71285284Y-77414695D01*
X71284923Y-77422046D01*
X71283843Y-77429327D01*
X71282055Y-77436466D01*
X71279575Y-77443396D01*
X71276428Y-77450050D01*
X71272644Y-77456363D01*
X71268260Y-77462274D01*
X71263317Y-77467728D01*
X71157251Y-77573794D01*
X71151797Y-77578737D01*
X71145886Y-77583121D01*
X71139573Y-77586905D01*
X71132919Y-77590052D01*
X71125989Y-77592532D01*
X71118850Y-77594320D01*
X71111569Y-77595400D01*
X71104218Y-77595761D01*
X71096867Y-77595400D01*
X71089586Y-77594320D01*
X71082447Y-77592532D01*
X71075517Y-77590052D01*
X71068863Y-77586905D01*
X71062550Y-77583121D01*
X71056639Y-77578737D01*
X71051185Y-77573794D01*
X70609243Y-77131852D01*
X70604300Y-77126398D01*
X70599916Y-77120487D01*
X70596132Y-77114174D01*
X70592985Y-77107520D01*
X70590505Y-77100590D01*
X70588717Y-77093451D01*
X70587637Y-77086170D01*
X70587276Y-77078819D01*
X70587637Y-77071468D01*
X70588717Y-77064187D01*
X70590505Y-77057048D01*
X70592985Y-77050118D01*
X70596132Y-77043464D01*
X70599916Y-77037151D01*
X70604300Y-77031240D01*
X70609243Y-77025786D01*
X70715309Y-76919720D01*
X70720763Y-76914777D01*
X70726674Y-76910393D01*
X70732987Y-76906609D01*
X70739641Y-76903462D01*
X70746571Y-76900982D01*
X70753710Y-76899194D01*
X70760991Y-76898114D01*
X70768342Y-76897753D01*
X70775693Y-76898114D01*
X70775693Y-76898114D01*
G37*
D13*
X70936280Y-77246757D03*
D11*
G36*
X71235312Y-76438495D02*
G01*
X71242593Y-76439575D01*
X71249732Y-76441363D01*
X71256662Y-76443843D01*
X71263316Y-76446990D01*
X71269629Y-76450774D01*
X71275540Y-76455158D01*
X71280994Y-76460101D01*
X71722936Y-76902043D01*
X71727879Y-76907497D01*
X71732263Y-76913408D01*
X71736047Y-76919721D01*
X71739194Y-76926375D01*
X71741674Y-76933305D01*
X71743462Y-76940444D01*
X71744542Y-76947725D01*
X71744903Y-76955076D01*
X71744542Y-76962427D01*
X71743462Y-76969708D01*
X71741674Y-76976847D01*
X71739194Y-76983777D01*
X71736047Y-76990431D01*
X71732263Y-76996744D01*
X71727879Y-77002655D01*
X71722936Y-77008109D01*
X71616870Y-77114175D01*
X71611416Y-77119118D01*
X71605505Y-77123502D01*
X71599192Y-77127286D01*
X71592538Y-77130433D01*
X71585608Y-77132913D01*
X71578469Y-77134701D01*
X71571188Y-77135781D01*
X71563837Y-77136142D01*
X71556486Y-77135781D01*
X71549205Y-77134701D01*
X71542066Y-77132913D01*
X71535136Y-77130433D01*
X71528482Y-77127286D01*
X71522169Y-77123502D01*
X71516258Y-77119118D01*
X71510804Y-77114175D01*
X71068862Y-76672233D01*
X71063919Y-76666779D01*
X71059535Y-76660868D01*
X71055751Y-76654555D01*
X71052604Y-76647901D01*
X71050124Y-76640971D01*
X71048336Y-76633832D01*
X71047256Y-76626551D01*
X71046895Y-76619200D01*
X71047256Y-76611849D01*
X71048336Y-76604568D01*
X71050124Y-76597429D01*
X71052604Y-76590499D01*
X71055751Y-76583845D01*
X71059535Y-76577532D01*
X71063919Y-76571621D01*
X71068862Y-76566167D01*
X71174928Y-76460101D01*
X71180382Y-76455158D01*
X71186293Y-76450774D01*
X71192606Y-76446990D01*
X71199260Y-76443843D01*
X71206190Y-76441363D01*
X71213329Y-76439575D01*
X71220610Y-76438495D01*
X71227961Y-76438134D01*
X71235312Y-76438495D01*
X71235312Y-76438495D01*
G37*
D13*
X71395899Y-76787138D03*
D11*
G36*
X71694931Y-75978875D02*
G01*
X71702212Y-75979955D01*
X71709351Y-75981743D01*
X71716281Y-75984223D01*
X71722935Y-75987370D01*
X71729248Y-75991154D01*
X71735159Y-75995538D01*
X71740613Y-76000481D01*
X72182555Y-76442423D01*
X72187498Y-76447877D01*
X72191882Y-76453788D01*
X72195666Y-76460101D01*
X72198813Y-76466755D01*
X72201293Y-76473685D01*
X72203081Y-76480824D01*
X72204161Y-76488105D01*
X72204522Y-76495456D01*
X72204161Y-76502807D01*
X72203081Y-76510088D01*
X72201293Y-76517227D01*
X72198813Y-76524157D01*
X72195666Y-76530811D01*
X72191882Y-76537124D01*
X72187498Y-76543035D01*
X72182555Y-76548489D01*
X72076489Y-76654555D01*
X72071035Y-76659498D01*
X72065124Y-76663882D01*
X72058811Y-76667666D01*
X72052157Y-76670813D01*
X72045227Y-76673293D01*
X72038088Y-76675081D01*
X72030807Y-76676161D01*
X72023456Y-76676522D01*
X72016105Y-76676161D01*
X72008824Y-76675081D01*
X72001685Y-76673293D01*
X71994755Y-76670813D01*
X71988101Y-76667666D01*
X71981788Y-76663882D01*
X71975877Y-76659498D01*
X71970423Y-76654555D01*
X71528481Y-76212613D01*
X71523538Y-76207159D01*
X71519154Y-76201248D01*
X71515370Y-76194935D01*
X71512223Y-76188281D01*
X71509743Y-76181351D01*
X71507955Y-76174212D01*
X71506875Y-76166931D01*
X71506514Y-76159580D01*
X71506875Y-76152229D01*
X71507955Y-76144948D01*
X71509743Y-76137809D01*
X71512223Y-76130879D01*
X71515370Y-76124225D01*
X71519154Y-76117912D01*
X71523538Y-76112001D01*
X71528481Y-76106547D01*
X71634547Y-76000481D01*
X71640001Y-75995538D01*
X71645912Y-75991154D01*
X71652225Y-75987370D01*
X71658879Y-75984223D01*
X71665809Y-75981743D01*
X71672948Y-75979955D01*
X71680229Y-75978875D01*
X71687580Y-75978514D01*
X71694931Y-75978875D01*
X71694931Y-75978875D01*
G37*
D13*
X71855518Y-76327518D03*
D11*
G36*
X72154551Y-75519256D02*
G01*
X72161832Y-75520336D01*
X72168971Y-75522124D01*
X72175901Y-75524604D01*
X72182555Y-75527751D01*
X72188868Y-75531535D01*
X72194779Y-75535919D01*
X72200233Y-75540862D01*
X72642175Y-75982804D01*
X72647118Y-75988258D01*
X72651502Y-75994169D01*
X72655286Y-76000482D01*
X72658433Y-76007136D01*
X72660913Y-76014066D01*
X72662701Y-76021205D01*
X72663781Y-76028486D01*
X72664142Y-76035837D01*
X72663781Y-76043188D01*
X72662701Y-76050469D01*
X72660913Y-76057608D01*
X72658433Y-76064538D01*
X72655286Y-76071192D01*
X72651502Y-76077505D01*
X72647118Y-76083416D01*
X72642175Y-76088870D01*
X72536109Y-76194936D01*
X72530655Y-76199879D01*
X72524744Y-76204263D01*
X72518431Y-76208047D01*
X72511777Y-76211194D01*
X72504847Y-76213674D01*
X72497708Y-76215462D01*
X72490427Y-76216542D01*
X72483076Y-76216903D01*
X72475725Y-76216542D01*
X72468444Y-76215462D01*
X72461305Y-76213674D01*
X72454375Y-76211194D01*
X72447721Y-76208047D01*
X72441408Y-76204263D01*
X72435497Y-76199879D01*
X72430043Y-76194936D01*
X71988101Y-75752994D01*
X71983158Y-75747540D01*
X71978774Y-75741629D01*
X71974990Y-75735316D01*
X71971843Y-75728662D01*
X71969363Y-75721732D01*
X71967575Y-75714593D01*
X71966495Y-75707312D01*
X71966134Y-75699961D01*
X71966495Y-75692610D01*
X71967575Y-75685329D01*
X71969363Y-75678190D01*
X71971843Y-75671260D01*
X71974990Y-75664606D01*
X71978774Y-75658293D01*
X71983158Y-75652382D01*
X71988101Y-75646928D01*
X72094167Y-75540862D01*
X72099621Y-75535919D01*
X72105532Y-75531535D01*
X72111845Y-75527751D01*
X72118499Y-75524604D01*
X72125429Y-75522124D01*
X72132568Y-75520336D01*
X72139849Y-75519256D01*
X72147200Y-75518895D01*
X72154551Y-75519256D01*
X72154551Y-75519256D01*
G37*
D13*
X72315138Y-75867899D03*
D11*
G36*
X72614170Y-75059637D02*
G01*
X72621451Y-75060717D01*
X72628590Y-75062505D01*
X72635520Y-75064985D01*
X72642174Y-75068132D01*
X72648487Y-75071916D01*
X72654398Y-75076300D01*
X72659852Y-75081243D01*
X73101794Y-75523185D01*
X73106737Y-75528639D01*
X73111121Y-75534550D01*
X73114905Y-75540863D01*
X73118052Y-75547517D01*
X73120532Y-75554447D01*
X73122320Y-75561586D01*
X73123400Y-75568867D01*
X73123761Y-75576218D01*
X73123400Y-75583569D01*
X73122320Y-75590850D01*
X73120532Y-75597989D01*
X73118052Y-75604919D01*
X73114905Y-75611573D01*
X73111121Y-75617886D01*
X73106737Y-75623797D01*
X73101794Y-75629251D01*
X72995728Y-75735317D01*
X72990274Y-75740260D01*
X72984363Y-75744644D01*
X72978050Y-75748428D01*
X72971396Y-75751575D01*
X72964466Y-75754055D01*
X72957327Y-75755843D01*
X72950046Y-75756923D01*
X72942695Y-75757284D01*
X72935344Y-75756923D01*
X72928063Y-75755843D01*
X72920924Y-75754055D01*
X72913994Y-75751575D01*
X72907340Y-75748428D01*
X72901027Y-75744644D01*
X72895116Y-75740260D01*
X72889662Y-75735317D01*
X72447720Y-75293375D01*
X72442777Y-75287921D01*
X72438393Y-75282010D01*
X72434609Y-75275697D01*
X72431462Y-75269043D01*
X72428982Y-75262113D01*
X72427194Y-75254974D01*
X72426114Y-75247693D01*
X72425753Y-75240342D01*
X72426114Y-75232991D01*
X72427194Y-75225710D01*
X72428982Y-75218571D01*
X72431462Y-75211641D01*
X72434609Y-75204987D01*
X72438393Y-75198674D01*
X72442777Y-75192763D01*
X72447720Y-75187309D01*
X72553786Y-75081243D01*
X72559240Y-75076300D01*
X72565151Y-75071916D01*
X72571464Y-75068132D01*
X72578118Y-75064985D01*
X72585048Y-75062505D01*
X72592187Y-75060717D01*
X72599468Y-75059637D01*
X72606819Y-75059276D01*
X72614170Y-75059637D01*
X72614170Y-75059637D01*
G37*
D13*
X72774757Y-75408280D03*
D11*
G36*
X73073790Y-74600017D02*
G01*
X73081071Y-74601097D01*
X73088210Y-74602885D01*
X73095140Y-74605365D01*
X73101794Y-74608512D01*
X73108107Y-74612296D01*
X73114018Y-74616680D01*
X73119472Y-74621623D01*
X73561414Y-75063565D01*
X73566357Y-75069019D01*
X73570741Y-75074930D01*
X73574525Y-75081243D01*
X73577672Y-75087897D01*
X73580152Y-75094827D01*
X73581940Y-75101966D01*
X73583020Y-75109247D01*
X73583381Y-75116598D01*
X73583020Y-75123949D01*
X73581940Y-75131230D01*
X73580152Y-75138369D01*
X73577672Y-75145299D01*
X73574525Y-75151953D01*
X73570741Y-75158266D01*
X73566357Y-75164177D01*
X73561414Y-75169631D01*
X73455348Y-75275697D01*
X73449894Y-75280640D01*
X73443983Y-75285024D01*
X73437670Y-75288808D01*
X73431016Y-75291955D01*
X73424086Y-75294435D01*
X73416947Y-75296223D01*
X73409666Y-75297303D01*
X73402315Y-75297664D01*
X73394964Y-75297303D01*
X73387683Y-75296223D01*
X73380544Y-75294435D01*
X73373614Y-75291955D01*
X73366960Y-75288808D01*
X73360647Y-75285024D01*
X73354736Y-75280640D01*
X73349282Y-75275697D01*
X72907340Y-74833755D01*
X72902397Y-74828301D01*
X72898013Y-74822390D01*
X72894229Y-74816077D01*
X72891082Y-74809423D01*
X72888602Y-74802493D01*
X72886814Y-74795354D01*
X72885734Y-74788073D01*
X72885373Y-74780722D01*
X72885734Y-74773371D01*
X72886814Y-74766090D01*
X72888602Y-74758951D01*
X72891082Y-74752021D01*
X72894229Y-74745367D01*
X72898013Y-74739054D01*
X72902397Y-74733143D01*
X72907340Y-74727689D01*
X73013406Y-74621623D01*
X73018860Y-74616680D01*
X73024771Y-74612296D01*
X73031084Y-74608512D01*
X73037738Y-74605365D01*
X73044668Y-74602885D01*
X73051807Y-74601097D01*
X73059088Y-74600017D01*
X73066439Y-74599656D01*
X73073790Y-74600017D01*
X73073790Y-74600017D01*
G37*
D13*
X73234377Y-74948660D03*
D11*
G36*
X74876912Y-74600017D02*
G01*
X74884193Y-74601097D01*
X74891332Y-74602885D01*
X74898262Y-74605365D01*
X74904916Y-74608512D01*
X74911229Y-74612296D01*
X74917140Y-74616680D01*
X74922594Y-74621623D01*
X75028660Y-74727689D01*
X75033603Y-74733143D01*
X75037987Y-74739054D01*
X75041771Y-74745367D01*
X75044918Y-74752021D01*
X75047398Y-74758951D01*
X75049186Y-74766090D01*
X75050266Y-74773371D01*
X75050627Y-74780722D01*
X75050266Y-74788073D01*
X75049186Y-74795354D01*
X75047398Y-74802493D01*
X75044918Y-74809423D01*
X75041771Y-74816077D01*
X75037987Y-74822390D01*
X75033603Y-74828301D01*
X75028660Y-74833755D01*
X74586718Y-75275697D01*
X74581264Y-75280640D01*
X74575353Y-75285024D01*
X74569040Y-75288808D01*
X74562386Y-75291955D01*
X74555456Y-75294435D01*
X74548317Y-75296223D01*
X74541036Y-75297303D01*
X74533685Y-75297664D01*
X74526334Y-75297303D01*
X74519053Y-75296223D01*
X74511914Y-75294435D01*
X74504984Y-75291955D01*
X74498330Y-75288808D01*
X74492017Y-75285024D01*
X74486106Y-75280640D01*
X74480652Y-75275697D01*
X74374586Y-75169631D01*
X74369643Y-75164177D01*
X74365259Y-75158266D01*
X74361475Y-75151953D01*
X74358328Y-75145299D01*
X74355848Y-75138369D01*
X74354060Y-75131230D01*
X74352980Y-75123949D01*
X74352619Y-75116598D01*
X74352980Y-75109247D01*
X74354060Y-75101966D01*
X74355848Y-75094827D01*
X74358328Y-75087897D01*
X74361475Y-75081243D01*
X74365259Y-75074930D01*
X74369643Y-75069019D01*
X74374586Y-75063565D01*
X74816528Y-74621623D01*
X74821982Y-74616680D01*
X74827893Y-74612296D01*
X74834206Y-74608512D01*
X74840860Y-74605365D01*
X74847790Y-74602885D01*
X74854929Y-74601097D01*
X74862210Y-74600017D01*
X74869561Y-74599656D01*
X74876912Y-74600017D01*
X74876912Y-74600017D01*
G37*
D13*
X74701623Y-74948660D03*
D11*
G36*
X75336532Y-75059637D02*
G01*
X75343813Y-75060717D01*
X75350952Y-75062505D01*
X75357882Y-75064985D01*
X75364536Y-75068132D01*
X75370849Y-75071916D01*
X75376760Y-75076300D01*
X75382214Y-75081243D01*
X75488280Y-75187309D01*
X75493223Y-75192763D01*
X75497607Y-75198674D01*
X75501391Y-75204987D01*
X75504538Y-75211641D01*
X75507018Y-75218571D01*
X75508806Y-75225710D01*
X75509886Y-75232991D01*
X75510247Y-75240342D01*
X75509886Y-75247693D01*
X75508806Y-75254974D01*
X75507018Y-75262113D01*
X75504538Y-75269043D01*
X75501391Y-75275697D01*
X75497607Y-75282010D01*
X75493223Y-75287921D01*
X75488280Y-75293375D01*
X75046338Y-75735317D01*
X75040884Y-75740260D01*
X75034973Y-75744644D01*
X75028660Y-75748428D01*
X75022006Y-75751575D01*
X75015076Y-75754055D01*
X75007937Y-75755843D01*
X75000656Y-75756923D01*
X74993305Y-75757284D01*
X74985954Y-75756923D01*
X74978673Y-75755843D01*
X74971534Y-75754055D01*
X74964604Y-75751575D01*
X74957950Y-75748428D01*
X74951637Y-75744644D01*
X74945726Y-75740260D01*
X74940272Y-75735317D01*
X74834206Y-75629251D01*
X74829263Y-75623797D01*
X74824879Y-75617886D01*
X74821095Y-75611573D01*
X74817948Y-75604919D01*
X74815468Y-75597989D01*
X74813680Y-75590850D01*
X74812600Y-75583569D01*
X74812239Y-75576218D01*
X74812600Y-75568867D01*
X74813680Y-75561586D01*
X74815468Y-75554447D01*
X74817948Y-75547517D01*
X74821095Y-75540863D01*
X74824879Y-75534550D01*
X74829263Y-75528639D01*
X74834206Y-75523185D01*
X75276148Y-75081243D01*
X75281602Y-75076300D01*
X75287513Y-75071916D01*
X75293826Y-75068132D01*
X75300480Y-75064985D01*
X75307410Y-75062505D01*
X75314549Y-75060717D01*
X75321830Y-75059637D01*
X75329181Y-75059276D01*
X75336532Y-75059637D01*
X75336532Y-75059637D01*
G37*
D13*
X75161243Y-75408280D03*
D11*
G36*
X75796151Y-75519256D02*
G01*
X75803432Y-75520336D01*
X75810571Y-75522124D01*
X75817501Y-75524604D01*
X75824155Y-75527751D01*
X75830468Y-75531535D01*
X75836379Y-75535919D01*
X75841833Y-75540862D01*
X75947899Y-75646928D01*
X75952842Y-75652382D01*
X75957226Y-75658293D01*
X75961010Y-75664606D01*
X75964157Y-75671260D01*
X75966637Y-75678190D01*
X75968425Y-75685329D01*
X75969505Y-75692610D01*
X75969866Y-75699961D01*
X75969505Y-75707312D01*
X75968425Y-75714593D01*
X75966637Y-75721732D01*
X75964157Y-75728662D01*
X75961010Y-75735316D01*
X75957226Y-75741629D01*
X75952842Y-75747540D01*
X75947899Y-75752994D01*
X75505957Y-76194936D01*
X75500503Y-76199879D01*
X75494592Y-76204263D01*
X75488279Y-76208047D01*
X75481625Y-76211194D01*
X75474695Y-76213674D01*
X75467556Y-76215462D01*
X75460275Y-76216542D01*
X75452924Y-76216903D01*
X75445573Y-76216542D01*
X75438292Y-76215462D01*
X75431153Y-76213674D01*
X75424223Y-76211194D01*
X75417569Y-76208047D01*
X75411256Y-76204263D01*
X75405345Y-76199879D01*
X75399891Y-76194936D01*
X75293825Y-76088870D01*
X75288882Y-76083416D01*
X75284498Y-76077505D01*
X75280714Y-76071192D01*
X75277567Y-76064538D01*
X75275087Y-76057608D01*
X75273299Y-76050469D01*
X75272219Y-76043188D01*
X75271858Y-76035837D01*
X75272219Y-76028486D01*
X75273299Y-76021205D01*
X75275087Y-76014066D01*
X75277567Y-76007136D01*
X75280714Y-76000482D01*
X75284498Y-75994169D01*
X75288882Y-75988258D01*
X75293825Y-75982804D01*
X75735767Y-75540862D01*
X75741221Y-75535919D01*
X75747132Y-75531535D01*
X75753445Y-75527751D01*
X75760099Y-75524604D01*
X75767029Y-75522124D01*
X75774168Y-75520336D01*
X75781449Y-75519256D01*
X75788800Y-75518895D01*
X75796151Y-75519256D01*
X75796151Y-75519256D01*
G37*
D13*
X75620862Y-75867899D03*
D11*
G36*
X76255771Y-75978875D02*
G01*
X76263052Y-75979955D01*
X76270191Y-75981743D01*
X76277121Y-75984223D01*
X76283775Y-75987370D01*
X76290088Y-75991154D01*
X76295999Y-75995538D01*
X76301453Y-76000481D01*
X76407519Y-76106547D01*
X76412462Y-76112001D01*
X76416846Y-76117912D01*
X76420630Y-76124225D01*
X76423777Y-76130879D01*
X76426257Y-76137809D01*
X76428045Y-76144948D01*
X76429125Y-76152229D01*
X76429486Y-76159580D01*
X76429125Y-76166931D01*
X76428045Y-76174212D01*
X76426257Y-76181351D01*
X76423777Y-76188281D01*
X76420630Y-76194935D01*
X76416846Y-76201248D01*
X76412462Y-76207159D01*
X76407519Y-76212613D01*
X75965577Y-76654555D01*
X75960123Y-76659498D01*
X75954212Y-76663882D01*
X75947899Y-76667666D01*
X75941245Y-76670813D01*
X75934315Y-76673293D01*
X75927176Y-76675081D01*
X75919895Y-76676161D01*
X75912544Y-76676522D01*
X75905193Y-76676161D01*
X75897912Y-76675081D01*
X75890773Y-76673293D01*
X75883843Y-76670813D01*
X75877189Y-76667666D01*
X75870876Y-76663882D01*
X75864965Y-76659498D01*
X75859511Y-76654555D01*
X75753445Y-76548489D01*
X75748502Y-76543035D01*
X75744118Y-76537124D01*
X75740334Y-76530811D01*
X75737187Y-76524157D01*
X75734707Y-76517227D01*
X75732919Y-76510088D01*
X75731839Y-76502807D01*
X75731478Y-76495456D01*
X75731839Y-76488105D01*
X75732919Y-76480824D01*
X75734707Y-76473685D01*
X75737187Y-76466755D01*
X75740334Y-76460101D01*
X75744118Y-76453788D01*
X75748502Y-76447877D01*
X75753445Y-76442423D01*
X76195387Y-76000481D01*
X76200841Y-75995538D01*
X76206752Y-75991154D01*
X76213065Y-75987370D01*
X76219719Y-75984223D01*
X76226649Y-75981743D01*
X76233788Y-75979955D01*
X76241069Y-75978875D01*
X76248420Y-75978514D01*
X76255771Y-75978875D01*
X76255771Y-75978875D01*
G37*
D13*
X76080482Y-76327518D03*
D11*
G36*
X76715390Y-76438495D02*
G01*
X76722671Y-76439575D01*
X76729810Y-76441363D01*
X76736740Y-76443843D01*
X76743394Y-76446990D01*
X76749707Y-76450774D01*
X76755618Y-76455158D01*
X76761072Y-76460101D01*
X76867138Y-76566167D01*
X76872081Y-76571621D01*
X76876465Y-76577532D01*
X76880249Y-76583845D01*
X76883396Y-76590499D01*
X76885876Y-76597429D01*
X76887664Y-76604568D01*
X76888744Y-76611849D01*
X76889105Y-76619200D01*
X76888744Y-76626551D01*
X76887664Y-76633832D01*
X76885876Y-76640971D01*
X76883396Y-76647901D01*
X76880249Y-76654555D01*
X76876465Y-76660868D01*
X76872081Y-76666779D01*
X76867138Y-76672233D01*
X76425196Y-77114175D01*
X76419742Y-77119118D01*
X76413831Y-77123502D01*
X76407518Y-77127286D01*
X76400864Y-77130433D01*
X76393934Y-77132913D01*
X76386795Y-77134701D01*
X76379514Y-77135781D01*
X76372163Y-77136142D01*
X76364812Y-77135781D01*
X76357531Y-77134701D01*
X76350392Y-77132913D01*
X76343462Y-77130433D01*
X76336808Y-77127286D01*
X76330495Y-77123502D01*
X76324584Y-77119118D01*
X76319130Y-77114175D01*
X76213064Y-77008109D01*
X76208121Y-77002655D01*
X76203737Y-76996744D01*
X76199953Y-76990431D01*
X76196806Y-76983777D01*
X76194326Y-76976847D01*
X76192538Y-76969708D01*
X76191458Y-76962427D01*
X76191097Y-76955076D01*
X76191458Y-76947725D01*
X76192538Y-76940444D01*
X76194326Y-76933305D01*
X76196806Y-76926375D01*
X76199953Y-76919721D01*
X76203737Y-76913408D01*
X76208121Y-76907497D01*
X76213064Y-76902043D01*
X76655006Y-76460101D01*
X76660460Y-76455158D01*
X76666371Y-76450774D01*
X76672684Y-76446990D01*
X76679338Y-76443843D01*
X76686268Y-76441363D01*
X76693407Y-76439575D01*
X76700688Y-76438495D01*
X76708039Y-76438134D01*
X76715390Y-76438495D01*
X76715390Y-76438495D01*
G37*
D13*
X76540101Y-76787138D03*
D11*
G36*
X77175009Y-76898114D02*
G01*
X77182290Y-76899194D01*
X77189429Y-76900982D01*
X77196359Y-76903462D01*
X77203013Y-76906609D01*
X77209326Y-76910393D01*
X77215237Y-76914777D01*
X77220691Y-76919720D01*
X77326757Y-77025786D01*
X77331700Y-77031240D01*
X77336084Y-77037151D01*
X77339868Y-77043464D01*
X77343015Y-77050118D01*
X77345495Y-77057048D01*
X77347283Y-77064187D01*
X77348363Y-77071468D01*
X77348724Y-77078819D01*
X77348363Y-77086170D01*
X77347283Y-77093451D01*
X77345495Y-77100590D01*
X77343015Y-77107520D01*
X77339868Y-77114174D01*
X77336084Y-77120487D01*
X77331700Y-77126398D01*
X77326757Y-77131852D01*
X76884815Y-77573794D01*
X76879361Y-77578737D01*
X76873450Y-77583121D01*
X76867137Y-77586905D01*
X76860483Y-77590052D01*
X76853553Y-77592532D01*
X76846414Y-77594320D01*
X76839133Y-77595400D01*
X76831782Y-77595761D01*
X76824431Y-77595400D01*
X76817150Y-77594320D01*
X76810011Y-77592532D01*
X76803081Y-77590052D01*
X76796427Y-77586905D01*
X76790114Y-77583121D01*
X76784203Y-77578737D01*
X76778749Y-77573794D01*
X76672683Y-77467728D01*
X76667740Y-77462274D01*
X76663356Y-77456363D01*
X76659572Y-77450050D01*
X76656425Y-77443396D01*
X76653945Y-77436466D01*
X76652157Y-77429327D01*
X76651077Y-77422046D01*
X76650716Y-77414695D01*
X76651077Y-77407344D01*
X76652157Y-77400063D01*
X76653945Y-77392924D01*
X76656425Y-77385994D01*
X76659572Y-77379340D01*
X76663356Y-77373027D01*
X76667740Y-77367116D01*
X76672683Y-77361662D01*
X77114625Y-76919720D01*
X77120079Y-76914777D01*
X77125990Y-76910393D01*
X77132303Y-76906609D01*
X77138957Y-76903462D01*
X77145887Y-76900982D01*
X77153026Y-76899194D01*
X77160307Y-76898114D01*
X77167658Y-76897753D01*
X77175009Y-76898114D01*
X77175009Y-76898114D01*
G37*
D13*
X76999720Y-77246757D03*
D11*
G36*
X77634629Y-77357734D02*
G01*
X77641910Y-77358814D01*
X77649049Y-77360602D01*
X77655979Y-77363082D01*
X77662633Y-77366229D01*
X77668946Y-77370013D01*
X77674857Y-77374397D01*
X77680311Y-77379340D01*
X77786377Y-77485406D01*
X77791320Y-77490860D01*
X77795704Y-77496771D01*
X77799488Y-77503084D01*
X77802635Y-77509738D01*
X77805115Y-77516668D01*
X77806903Y-77523807D01*
X77807983Y-77531088D01*
X77808344Y-77538439D01*
X77807983Y-77545790D01*
X77806903Y-77553071D01*
X77805115Y-77560210D01*
X77802635Y-77567140D01*
X77799488Y-77573794D01*
X77795704Y-77580107D01*
X77791320Y-77586018D01*
X77786377Y-77591472D01*
X77344435Y-78033414D01*
X77338981Y-78038357D01*
X77333070Y-78042741D01*
X77326757Y-78046525D01*
X77320103Y-78049672D01*
X77313173Y-78052152D01*
X77306034Y-78053940D01*
X77298753Y-78055020D01*
X77291402Y-78055381D01*
X77284051Y-78055020D01*
X77276770Y-78053940D01*
X77269631Y-78052152D01*
X77262701Y-78049672D01*
X77256047Y-78046525D01*
X77249734Y-78042741D01*
X77243823Y-78038357D01*
X77238369Y-78033414D01*
X77132303Y-77927348D01*
X77127360Y-77921894D01*
X77122976Y-77915983D01*
X77119192Y-77909670D01*
X77116045Y-77903016D01*
X77113565Y-77896086D01*
X77111777Y-77888947D01*
X77110697Y-77881666D01*
X77110336Y-77874315D01*
X77110697Y-77866964D01*
X77111777Y-77859683D01*
X77113565Y-77852544D01*
X77116045Y-77845614D01*
X77119192Y-77838960D01*
X77122976Y-77832647D01*
X77127360Y-77826736D01*
X77132303Y-77821282D01*
X77574245Y-77379340D01*
X77579699Y-77374397D01*
X77585610Y-77370013D01*
X77591923Y-77366229D01*
X77598577Y-77363082D01*
X77605507Y-77360602D01*
X77612646Y-77358814D01*
X77619927Y-77357734D01*
X77627278Y-77357373D01*
X77634629Y-77357734D01*
X77634629Y-77357734D01*
G37*
D13*
X77459340Y-77706377D03*
D11*
G36*
X77298753Y-78824980D02*
G01*
X77306034Y-78826060D01*
X77313173Y-78827848D01*
X77320103Y-78830328D01*
X77326757Y-78833475D01*
X77333070Y-78837259D01*
X77338981Y-78841643D01*
X77344435Y-78846586D01*
X77786377Y-79288528D01*
X77791320Y-79293982D01*
X77795704Y-79299893D01*
X77799488Y-79306206D01*
X77802635Y-79312860D01*
X77805115Y-79319790D01*
X77806903Y-79326929D01*
X77807983Y-79334210D01*
X77808344Y-79341561D01*
X77807983Y-79348912D01*
X77806903Y-79356193D01*
X77805115Y-79363332D01*
X77802635Y-79370262D01*
X77799488Y-79376916D01*
X77795704Y-79383229D01*
X77791320Y-79389140D01*
X77786377Y-79394594D01*
X77680311Y-79500660D01*
X77674857Y-79505603D01*
X77668946Y-79509987D01*
X77662633Y-79513771D01*
X77655979Y-79516918D01*
X77649049Y-79519398D01*
X77641910Y-79521186D01*
X77634629Y-79522266D01*
X77627278Y-79522627D01*
X77619927Y-79522266D01*
X77612646Y-79521186D01*
X77605507Y-79519398D01*
X77598577Y-79516918D01*
X77591923Y-79513771D01*
X77585610Y-79509987D01*
X77579699Y-79505603D01*
X77574245Y-79500660D01*
X77132303Y-79058718D01*
X77127360Y-79053264D01*
X77122976Y-79047353D01*
X77119192Y-79041040D01*
X77116045Y-79034386D01*
X77113565Y-79027456D01*
X77111777Y-79020317D01*
X77110697Y-79013036D01*
X77110336Y-79005685D01*
X77110697Y-78998334D01*
X77111777Y-78991053D01*
X77113565Y-78983914D01*
X77116045Y-78976984D01*
X77119192Y-78970330D01*
X77122976Y-78964017D01*
X77127360Y-78958106D01*
X77132303Y-78952652D01*
X77238369Y-78846586D01*
X77243823Y-78841643D01*
X77249734Y-78837259D01*
X77256047Y-78833475D01*
X77262701Y-78830328D01*
X77269631Y-78827848D01*
X77276770Y-78826060D01*
X77284051Y-78824980D01*
X77291402Y-78824619D01*
X77298753Y-78824980D01*
X77298753Y-78824980D01*
G37*
D13*
X77459340Y-79173623D03*
D11*
G36*
X76839133Y-79284600D02*
G01*
X76846414Y-79285680D01*
X76853553Y-79287468D01*
X76860483Y-79289948D01*
X76867137Y-79293095D01*
X76873450Y-79296879D01*
X76879361Y-79301263D01*
X76884815Y-79306206D01*
X77326757Y-79748148D01*
X77331700Y-79753602D01*
X77336084Y-79759513D01*
X77339868Y-79765826D01*
X77343015Y-79772480D01*
X77345495Y-79779410D01*
X77347283Y-79786549D01*
X77348363Y-79793830D01*
X77348724Y-79801181D01*
X77348363Y-79808532D01*
X77347283Y-79815813D01*
X77345495Y-79822952D01*
X77343015Y-79829882D01*
X77339868Y-79836536D01*
X77336084Y-79842849D01*
X77331700Y-79848760D01*
X77326757Y-79854214D01*
X77220691Y-79960280D01*
X77215237Y-79965223D01*
X77209326Y-79969607D01*
X77203013Y-79973391D01*
X77196359Y-79976538D01*
X77189429Y-79979018D01*
X77182290Y-79980806D01*
X77175009Y-79981886D01*
X77167658Y-79982247D01*
X77160307Y-79981886D01*
X77153026Y-79980806D01*
X77145887Y-79979018D01*
X77138957Y-79976538D01*
X77132303Y-79973391D01*
X77125990Y-79969607D01*
X77120079Y-79965223D01*
X77114625Y-79960280D01*
X76672683Y-79518338D01*
X76667740Y-79512884D01*
X76663356Y-79506973D01*
X76659572Y-79500660D01*
X76656425Y-79494006D01*
X76653945Y-79487076D01*
X76652157Y-79479937D01*
X76651077Y-79472656D01*
X76650716Y-79465305D01*
X76651077Y-79457954D01*
X76652157Y-79450673D01*
X76653945Y-79443534D01*
X76656425Y-79436604D01*
X76659572Y-79429950D01*
X76663356Y-79423637D01*
X76667740Y-79417726D01*
X76672683Y-79412272D01*
X76778749Y-79306206D01*
X76784203Y-79301263D01*
X76790114Y-79296879D01*
X76796427Y-79293095D01*
X76803081Y-79289948D01*
X76810011Y-79287468D01*
X76817150Y-79285680D01*
X76824431Y-79284600D01*
X76831782Y-79284239D01*
X76839133Y-79284600D01*
X76839133Y-79284600D01*
G37*
D13*
X76999720Y-79633243D03*
D11*
G36*
X76379514Y-79744219D02*
G01*
X76386795Y-79745299D01*
X76393934Y-79747087D01*
X76400864Y-79749567D01*
X76407518Y-79752714D01*
X76413831Y-79756498D01*
X76419742Y-79760882D01*
X76425196Y-79765825D01*
X76867138Y-80207767D01*
X76872081Y-80213221D01*
X76876465Y-80219132D01*
X76880249Y-80225445D01*
X76883396Y-80232099D01*
X76885876Y-80239029D01*
X76887664Y-80246168D01*
X76888744Y-80253449D01*
X76889105Y-80260800D01*
X76888744Y-80268151D01*
X76887664Y-80275432D01*
X76885876Y-80282571D01*
X76883396Y-80289501D01*
X76880249Y-80296155D01*
X76876465Y-80302468D01*
X76872081Y-80308379D01*
X76867138Y-80313833D01*
X76761072Y-80419899D01*
X76755618Y-80424842D01*
X76749707Y-80429226D01*
X76743394Y-80433010D01*
X76736740Y-80436157D01*
X76729810Y-80438637D01*
X76722671Y-80440425D01*
X76715390Y-80441505D01*
X76708039Y-80441866D01*
X76700688Y-80441505D01*
X76693407Y-80440425D01*
X76686268Y-80438637D01*
X76679338Y-80436157D01*
X76672684Y-80433010D01*
X76666371Y-80429226D01*
X76660460Y-80424842D01*
X76655006Y-80419899D01*
X76213064Y-79977957D01*
X76208121Y-79972503D01*
X76203737Y-79966592D01*
X76199953Y-79960279D01*
X76196806Y-79953625D01*
X76194326Y-79946695D01*
X76192538Y-79939556D01*
X76191458Y-79932275D01*
X76191097Y-79924924D01*
X76191458Y-79917573D01*
X76192538Y-79910292D01*
X76194326Y-79903153D01*
X76196806Y-79896223D01*
X76199953Y-79889569D01*
X76203737Y-79883256D01*
X76208121Y-79877345D01*
X76213064Y-79871891D01*
X76319130Y-79765825D01*
X76324584Y-79760882D01*
X76330495Y-79756498D01*
X76336808Y-79752714D01*
X76343462Y-79749567D01*
X76350392Y-79747087D01*
X76357531Y-79745299D01*
X76364812Y-79744219D01*
X76372163Y-79743858D01*
X76379514Y-79744219D01*
X76379514Y-79744219D01*
G37*
D13*
X76540101Y-80092862D03*
D11*
G36*
X75919895Y-80203839D02*
G01*
X75927176Y-80204919D01*
X75934315Y-80206707D01*
X75941245Y-80209187D01*
X75947899Y-80212334D01*
X75954212Y-80216118D01*
X75960123Y-80220502D01*
X75965577Y-80225445D01*
X76407519Y-80667387D01*
X76412462Y-80672841D01*
X76416846Y-80678752D01*
X76420630Y-80685065D01*
X76423777Y-80691719D01*
X76426257Y-80698649D01*
X76428045Y-80705788D01*
X76429125Y-80713069D01*
X76429486Y-80720420D01*
X76429125Y-80727771D01*
X76428045Y-80735052D01*
X76426257Y-80742191D01*
X76423777Y-80749121D01*
X76420630Y-80755775D01*
X76416846Y-80762088D01*
X76412462Y-80767999D01*
X76407519Y-80773453D01*
X76301453Y-80879519D01*
X76295999Y-80884462D01*
X76290088Y-80888846D01*
X76283775Y-80892630D01*
X76277121Y-80895777D01*
X76270191Y-80898257D01*
X76263052Y-80900045D01*
X76255771Y-80901125D01*
X76248420Y-80901486D01*
X76241069Y-80901125D01*
X76233788Y-80900045D01*
X76226649Y-80898257D01*
X76219719Y-80895777D01*
X76213065Y-80892630D01*
X76206752Y-80888846D01*
X76200841Y-80884462D01*
X76195387Y-80879519D01*
X75753445Y-80437577D01*
X75748502Y-80432123D01*
X75744118Y-80426212D01*
X75740334Y-80419899D01*
X75737187Y-80413245D01*
X75734707Y-80406315D01*
X75732919Y-80399176D01*
X75731839Y-80391895D01*
X75731478Y-80384544D01*
X75731839Y-80377193D01*
X75732919Y-80369912D01*
X75734707Y-80362773D01*
X75737187Y-80355843D01*
X75740334Y-80349189D01*
X75744118Y-80342876D01*
X75748502Y-80336965D01*
X75753445Y-80331511D01*
X75859511Y-80225445D01*
X75864965Y-80220502D01*
X75870876Y-80216118D01*
X75877189Y-80212334D01*
X75883843Y-80209187D01*
X75890773Y-80206707D01*
X75897912Y-80204919D01*
X75905193Y-80203839D01*
X75912544Y-80203478D01*
X75919895Y-80203839D01*
X75919895Y-80203839D01*
G37*
D13*
X76080482Y-80552482D03*
D11*
G36*
X75460275Y-80663458D02*
G01*
X75467556Y-80664538D01*
X75474695Y-80666326D01*
X75481625Y-80668806D01*
X75488279Y-80671953D01*
X75494592Y-80675737D01*
X75500503Y-80680121D01*
X75505957Y-80685064D01*
X75947899Y-81127006D01*
X75952842Y-81132460D01*
X75957226Y-81138371D01*
X75961010Y-81144684D01*
X75964157Y-81151338D01*
X75966637Y-81158268D01*
X75968425Y-81165407D01*
X75969505Y-81172688D01*
X75969866Y-81180039D01*
X75969505Y-81187390D01*
X75968425Y-81194671D01*
X75966637Y-81201810D01*
X75964157Y-81208740D01*
X75961010Y-81215394D01*
X75957226Y-81221707D01*
X75952842Y-81227618D01*
X75947899Y-81233072D01*
X75841833Y-81339138D01*
X75836379Y-81344081D01*
X75830468Y-81348465D01*
X75824155Y-81352249D01*
X75817501Y-81355396D01*
X75810571Y-81357876D01*
X75803432Y-81359664D01*
X75796151Y-81360744D01*
X75788800Y-81361105D01*
X75781449Y-81360744D01*
X75774168Y-81359664D01*
X75767029Y-81357876D01*
X75760099Y-81355396D01*
X75753445Y-81352249D01*
X75747132Y-81348465D01*
X75741221Y-81344081D01*
X75735767Y-81339138D01*
X75293825Y-80897196D01*
X75288882Y-80891742D01*
X75284498Y-80885831D01*
X75280714Y-80879518D01*
X75277567Y-80872864D01*
X75275087Y-80865934D01*
X75273299Y-80858795D01*
X75272219Y-80851514D01*
X75271858Y-80844163D01*
X75272219Y-80836812D01*
X75273299Y-80829531D01*
X75275087Y-80822392D01*
X75277567Y-80815462D01*
X75280714Y-80808808D01*
X75284498Y-80802495D01*
X75288882Y-80796584D01*
X75293825Y-80791130D01*
X75399891Y-80685064D01*
X75405345Y-80680121D01*
X75411256Y-80675737D01*
X75417569Y-80671953D01*
X75424223Y-80668806D01*
X75431153Y-80666326D01*
X75438292Y-80664538D01*
X75445573Y-80663458D01*
X75452924Y-80663097D01*
X75460275Y-80663458D01*
X75460275Y-80663458D01*
G37*
D13*
X75620862Y-81012101D03*
D11*
G36*
X75000656Y-81123077D02*
G01*
X75007937Y-81124157D01*
X75015076Y-81125945D01*
X75022006Y-81128425D01*
X75028660Y-81131572D01*
X75034973Y-81135356D01*
X75040884Y-81139740D01*
X75046338Y-81144683D01*
X75488280Y-81586625D01*
X75493223Y-81592079D01*
X75497607Y-81597990D01*
X75501391Y-81604303D01*
X75504538Y-81610957D01*
X75507018Y-81617887D01*
X75508806Y-81625026D01*
X75509886Y-81632307D01*
X75510247Y-81639658D01*
X75509886Y-81647009D01*
X75508806Y-81654290D01*
X75507018Y-81661429D01*
X75504538Y-81668359D01*
X75501391Y-81675013D01*
X75497607Y-81681326D01*
X75493223Y-81687237D01*
X75488280Y-81692691D01*
X75382214Y-81798757D01*
X75376760Y-81803700D01*
X75370849Y-81808084D01*
X75364536Y-81811868D01*
X75357882Y-81815015D01*
X75350952Y-81817495D01*
X75343813Y-81819283D01*
X75336532Y-81820363D01*
X75329181Y-81820724D01*
X75321830Y-81820363D01*
X75314549Y-81819283D01*
X75307410Y-81817495D01*
X75300480Y-81815015D01*
X75293826Y-81811868D01*
X75287513Y-81808084D01*
X75281602Y-81803700D01*
X75276148Y-81798757D01*
X74834206Y-81356815D01*
X74829263Y-81351361D01*
X74824879Y-81345450D01*
X74821095Y-81339137D01*
X74817948Y-81332483D01*
X74815468Y-81325553D01*
X74813680Y-81318414D01*
X74812600Y-81311133D01*
X74812239Y-81303782D01*
X74812600Y-81296431D01*
X74813680Y-81289150D01*
X74815468Y-81282011D01*
X74817948Y-81275081D01*
X74821095Y-81268427D01*
X74824879Y-81262114D01*
X74829263Y-81256203D01*
X74834206Y-81250749D01*
X74940272Y-81144683D01*
X74945726Y-81139740D01*
X74951637Y-81135356D01*
X74957950Y-81131572D01*
X74964604Y-81128425D01*
X74971534Y-81125945D01*
X74978673Y-81124157D01*
X74985954Y-81123077D01*
X74993305Y-81122716D01*
X75000656Y-81123077D01*
X75000656Y-81123077D01*
G37*
D13*
X75161243Y-81471720D03*
D11*
G36*
X74541036Y-81582697D02*
G01*
X74548317Y-81583777D01*
X74555456Y-81585565D01*
X74562386Y-81588045D01*
X74569040Y-81591192D01*
X74575353Y-81594976D01*
X74581264Y-81599360D01*
X74586718Y-81604303D01*
X75028660Y-82046245D01*
X75033603Y-82051699D01*
X75037987Y-82057610D01*
X75041771Y-82063923D01*
X75044918Y-82070577D01*
X75047398Y-82077507D01*
X75049186Y-82084646D01*
X75050266Y-82091927D01*
X75050627Y-82099278D01*
X75050266Y-82106629D01*
X75049186Y-82113910D01*
X75047398Y-82121049D01*
X75044918Y-82127979D01*
X75041771Y-82134633D01*
X75037987Y-82140946D01*
X75033603Y-82146857D01*
X75028660Y-82152311D01*
X74922594Y-82258377D01*
X74917140Y-82263320D01*
X74911229Y-82267704D01*
X74904916Y-82271488D01*
X74898262Y-82274635D01*
X74891332Y-82277115D01*
X74884193Y-82278903D01*
X74876912Y-82279983D01*
X74869561Y-82280344D01*
X74862210Y-82279983D01*
X74854929Y-82278903D01*
X74847790Y-82277115D01*
X74840860Y-82274635D01*
X74834206Y-82271488D01*
X74827893Y-82267704D01*
X74821982Y-82263320D01*
X74816528Y-82258377D01*
X74374586Y-81816435D01*
X74369643Y-81810981D01*
X74365259Y-81805070D01*
X74361475Y-81798757D01*
X74358328Y-81792103D01*
X74355848Y-81785173D01*
X74354060Y-81778034D01*
X74352980Y-81770753D01*
X74352619Y-81763402D01*
X74352980Y-81756051D01*
X74354060Y-81748770D01*
X74355848Y-81741631D01*
X74358328Y-81734701D01*
X74361475Y-81728047D01*
X74365259Y-81721734D01*
X74369643Y-81715823D01*
X74374586Y-81710369D01*
X74480652Y-81604303D01*
X74486106Y-81599360D01*
X74492017Y-81594976D01*
X74498330Y-81591192D01*
X74504984Y-81588045D01*
X74511914Y-81585565D01*
X74519053Y-81583777D01*
X74526334Y-81582697D01*
X74533685Y-81582336D01*
X74541036Y-81582697D01*
X74541036Y-81582697D01*
G37*
D13*
X74701623Y-81931340D03*
D14*
X77200000Y-89100000D03*
X75800000Y-89100000D03*
D11*
G36*
X74694958Y-88780710D02*
G01*
X74709276Y-88782834D01*
X74723317Y-88786351D01*
X74736946Y-88791228D01*
X74750031Y-88797417D01*
X74762447Y-88804858D01*
X74774073Y-88813481D01*
X74784798Y-88823202D01*
X74794519Y-88833927D01*
X74803142Y-88845553D01*
X74810583Y-88857969D01*
X74816772Y-88871054D01*
X74821649Y-88884683D01*
X74825166Y-88898724D01*
X74827290Y-88913042D01*
X74828000Y-88927500D01*
X74828000Y-89272500D01*
X74827290Y-89286958D01*
X74825166Y-89301276D01*
X74821649Y-89315317D01*
X74816772Y-89328946D01*
X74810583Y-89342031D01*
X74803142Y-89354447D01*
X74794519Y-89366073D01*
X74784798Y-89376798D01*
X74774073Y-89386519D01*
X74762447Y-89395142D01*
X74750031Y-89402583D01*
X74736946Y-89408772D01*
X74723317Y-89413649D01*
X74709276Y-89417166D01*
X74694958Y-89419290D01*
X74680500Y-89420000D01*
X74385500Y-89420000D01*
X74371042Y-89419290D01*
X74356724Y-89417166D01*
X74342683Y-89413649D01*
X74329054Y-89408772D01*
X74315969Y-89402583D01*
X74303553Y-89395142D01*
X74291927Y-89386519D01*
X74281202Y-89376798D01*
X74271481Y-89366073D01*
X74262858Y-89354447D01*
X74255417Y-89342031D01*
X74249228Y-89328946D01*
X74244351Y-89315317D01*
X74240834Y-89301276D01*
X74238710Y-89286958D01*
X74238000Y-89272500D01*
X74238000Y-88927500D01*
X74238710Y-88913042D01*
X74240834Y-88898724D01*
X74244351Y-88884683D01*
X74249228Y-88871054D01*
X74255417Y-88857969D01*
X74262858Y-88845553D01*
X74271481Y-88833927D01*
X74281202Y-88823202D01*
X74291927Y-88813481D01*
X74303553Y-88804858D01*
X74315969Y-88797417D01*
X74329054Y-88791228D01*
X74342683Y-88786351D01*
X74356724Y-88782834D01*
X74371042Y-88780710D01*
X74385500Y-88780000D01*
X74680500Y-88780000D01*
X74694958Y-88780710D01*
X74694958Y-88780710D01*
G37*
D15*
X74533000Y-89100000D03*
D11*
G36*
X73724958Y-88780710D02*
G01*
X73739276Y-88782834D01*
X73753317Y-88786351D01*
X73766946Y-88791228D01*
X73780031Y-88797417D01*
X73792447Y-88804858D01*
X73804073Y-88813481D01*
X73814798Y-88823202D01*
X73824519Y-88833927D01*
X73833142Y-88845553D01*
X73840583Y-88857969D01*
X73846772Y-88871054D01*
X73851649Y-88884683D01*
X73855166Y-88898724D01*
X73857290Y-88913042D01*
X73858000Y-88927500D01*
X73858000Y-89272500D01*
X73857290Y-89286958D01*
X73855166Y-89301276D01*
X73851649Y-89315317D01*
X73846772Y-89328946D01*
X73840583Y-89342031D01*
X73833142Y-89354447D01*
X73824519Y-89366073D01*
X73814798Y-89376798D01*
X73804073Y-89386519D01*
X73792447Y-89395142D01*
X73780031Y-89402583D01*
X73766946Y-89408772D01*
X73753317Y-89413649D01*
X73739276Y-89417166D01*
X73724958Y-89419290D01*
X73710500Y-89420000D01*
X73415500Y-89420000D01*
X73401042Y-89419290D01*
X73386724Y-89417166D01*
X73372683Y-89413649D01*
X73359054Y-89408772D01*
X73345969Y-89402583D01*
X73333553Y-89395142D01*
X73321927Y-89386519D01*
X73311202Y-89376798D01*
X73301481Y-89366073D01*
X73292858Y-89354447D01*
X73285417Y-89342031D01*
X73279228Y-89328946D01*
X73274351Y-89315317D01*
X73270834Y-89301276D01*
X73268710Y-89286958D01*
X73268000Y-89272500D01*
X73268000Y-88927500D01*
X73268710Y-88913042D01*
X73270834Y-88898724D01*
X73274351Y-88884683D01*
X73279228Y-88871054D01*
X73285417Y-88857969D01*
X73292858Y-88845553D01*
X73301481Y-88833927D01*
X73311202Y-88823202D01*
X73321927Y-88813481D01*
X73333553Y-88804858D01*
X73345969Y-88797417D01*
X73359054Y-88791228D01*
X73372683Y-88786351D01*
X73386724Y-88782834D01*
X73401042Y-88780710D01*
X73415500Y-88780000D01*
X73710500Y-88780000D01*
X73724958Y-88780710D01*
X73724958Y-88780710D01*
G37*
D15*
X73563000Y-89100000D03*
D16*
X77080000Y-86600000D03*
X75080000Y-85650000D03*
X75080000Y-87550000D03*
D11*
G36*
X78897691Y-84613553D02*
G01*
X78918926Y-84616703D01*
X78939750Y-84621919D01*
X78959962Y-84629151D01*
X78979368Y-84638330D01*
X78997781Y-84649366D01*
X79015024Y-84662154D01*
X79030930Y-84676570D01*
X79045346Y-84692476D01*
X79058134Y-84709719D01*
X79069170Y-84728132D01*
X79078349Y-84747538D01*
X79085581Y-84767750D01*
X79090797Y-84788574D01*
X79093947Y-84809809D01*
X79095000Y-84831250D01*
X79095000Y-85268750D01*
X79093947Y-85290191D01*
X79090797Y-85311426D01*
X79085581Y-85332250D01*
X79078349Y-85352462D01*
X79069170Y-85371868D01*
X79058134Y-85390281D01*
X79045346Y-85407524D01*
X79030930Y-85423430D01*
X79015024Y-85437846D01*
X78997781Y-85450634D01*
X78979368Y-85461670D01*
X78959962Y-85470849D01*
X78939750Y-85478081D01*
X78918926Y-85483297D01*
X78897691Y-85486447D01*
X78876250Y-85487500D01*
X78363750Y-85487500D01*
X78342309Y-85486447D01*
X78321074Y-85483297D01*
X78300250Y-85478081D01*
X78280038Y-85470849D01*
X78260632Y-85461670D01*
X78242219Y-85450634D01*
X78224976Y-85437846D01*
X78209070Y-85423430D01*
X78194654Y-85407524D01*
X78181866Y-85390281D01*
X78170830Y-85371868D01*
X78161651Y-85352462D01*
X78154419Y-85332250D01*
X78149203Y-85311426D01*
X78146053Y-85290191D01*
X78145000Y-85268750D01*
X78145000Y-84831250D01*
X78146053Y-84809809D01*
X78149203Y-84788574D01*
X78154419Y-84767750D01*
X78161651Y-84747538D01*
X78170830Y-84728132D01*
X78181866Y-84709719D01*
X78194654Y-84692476D01*
X78209070Y-84676570D01*
X78224976Y-84662154D01*
X78242219Y-84649366D01*
X78260632Y-84638330D01*
X78280038Y-84629151D01*
X78300250Y-84621919D01*
X78321074Y-84616703D01*
X78342309Y-84613553D01*
X78363750Y-84612500D01*
X78876250Y-84612500D01*
X78897691Y-84613553D01*
X78897691Y-84613553D01*
G37*
D17*
X78620000Y-85050000D03*
D11*
G36*
X78897691Y-86188553D02*
G01*
X78918926Y-86191703D01*
X78939750Y-86196919D01*
X78959962Y-86204151D01*
X78979368Y-86213330D01*
X78997781Y-86224366D01*
X79015024Y-86237154D01*
X79030930Y-86251570D01*
X79045346Y-86267476D01*
X79058134Y-86284719D01*
X79069170Y-86303132D01*
X79078349Y-86322538D01*
X79085581Y-86342750D01*
X79090797Y-86363574D01*
X79093947Y-86384809D01*
X79095000Y-86406250D01*
X79095000Y-86843750D01*
X79093947Y-86865191D01*
X79090797Y-86886426D01*
X79085581Y-86907250D01*
X79078349Y-86927462D01*
X79069170Y-86946868D01*
X79058134Y-86965281D01*
X79045346Y-86982524D01*
X79030930Y-86998430D01*
X79015024Y-87012846D01*
X78997781Y-87025634D01*
X78979368Y-87036670D01*
X78959962Y-87045849D01*
X78939750Y-87053081D01*
X78918926Y-87058297D01*
X78897691Y-87061447D01*
X78876250Y-87062500D01*
X78363750Y-87062500D01*
X78342309Y-87061447D01*
X78321074Y-87058297D01*
X78300250Y-87053081D01*
X78280038Y-87045849D01*
X78260632Y-87036670D01*
X78242219Y-87025634D01*
X78224976Y-87012846D01*
X78209070Y-86998430D01*
X78194654Y-86982524D01*
X78181866Y-86965281D01*
X78170830Y-86946868D01*
X78161651Y-86927462D01*
X78154419Y-86907250D01*
X78149203Y-86886426D01*
X78146053Y-86865191D01*
X78145000Y-86843750D01*
X78145000Y-86406250D01*
X78146053Y-86384809D01*
X78149203Y-86363574D01*
X78154419Y-86342750D01*
X78161651Y-86322538D01*
X78170830Y-86303132D01*
X78181866Y-86284719D01*
X78194654Y-86267476D01*
X78209070Y-86251570D01*
X78224976Y-86237154D01*
X78242219Y-86224366D01*
X78260632Y-86213330D01*
X78280038Y-86204151D01*
X78300250Y-86196919D01*
X78321074Y-86191703D01*
X78342309Y-86188553D01*
X78363750Y-86187500D01*
X78876250Y-86187500D01*
X78897691Y-86188553D01*
X78897691Y-86188553D01*
G37*
D17*
X78620000Y-86625000D03*
D18*
X73540000Y-85874000D03*
X73540000Y-87274000D03*
D11*
G36*
X69951111Y-80609580D02*
G01*
X69972346Y-80612730D01*
X69993170Y-80617946D01*
X70013382Y-80625178D01*
X70032788Y-80634357D01*
X70051201Y-80645393D01*
X70068444Y-80658181D01*
X70084350Y-80672597D01*
X70393709Y-80981956D01*
X70408125Y-80997862D01*
X70420913Y-81015105D01*
X70431949Y-81033518D01*
X70441128Y-81052924D01*
X70448360Y-81073136D01*
X70453576Y-81093960D01*
X70456726Y-81115195D01*
X70457779Y-81136636D01*
X70456726Y-81158077D01*
X70453576Y-81179312D01*
X70448360Y-81200136D01*
X70441128Y-81220348D01*
X70431949Y-81239754D01*
X70420913Y-81258167D01*
X70408125Y-81275410D01*
X70393709Y-81291316D01*
X70031316Y-81653709D01*
X70015410Y-81668125D01*
X69998167Y-81680913D01*
X69979754Y-81691949D01*
X69960348Y-81701128D01*
X69940136Y-81708360D01*
X69919312Y-81713576D01*
X69898077Y-81716726D01*
X69876636Y-81717779D01*
X69855195Y-81716726D01*
X69833960Y-81713576D01*
X69813136Y-81708360D01*
X69792924Y-81701128D01*
X69773518Y-81691949D01*
X69755105Y-81680913D01*
X69737862Y-81668125D01*
X69721956Y-81653709D01*
X69412597Y-81344350D01*
X69398181Y-81328444D01*
X69385393Y-81311201D01*
X69374357Y-81292788D01*
X69365178Y-81273382D01*
X69357946Y-81253170D01*
X69352730Y-81232346D01*
X69349580Y-81211111D01*
X69348527Y-81189670D01*
X69349580Y-81168229D01*
X69352730Y-81146994D01*
X69357946Y-81126170D01*
X69365178Y-81105958D01*
X69374357Y-81086552D01*
X69385393Y-81068139D01*
X69398181Y-81050896D01*
X69412597Y-81034990D01*
X69774990Y-80672597D01*
X69790896Y-80658181D01*
X69808139Y-80645393D01*
X69826552Y-80634357D01*
X69845958Y-80625178D01*
X69866170Y-80617946D01*
X69886994Y-80612730D01*
X69908229Y-80609580D01*
X69929670Y-80608527D01*
X69951111Y-80609580D01*
X69951111Y-80609580D01*
G37*
D17*
X69903153Y-81163153D03*
D11*
G36*
X71064805Y-81723274D02*
G01*
X71086040Y-81726424D01*
X71106864Y-81731640D01*
X71127076Y-81738872D01*
X71146482Y-81748051D01*
X71164895Y-81759087D01*
X71182138Y-81771875D01*
X71198044Y-81786291D01*
X71507403Y-82095650D01*
X71521819Y-82111556D01*
X71534607Y-82128799D01*
X71545643Y-82147212D01*
X71554822Y-82166618D01*
X71562054Y-82186830D01*
X71567270Y-82207654D01*
X71570420Y-82228889D01*
X71571473Y-82250330D01*
X71570420Y-82271771D01*
X71567270Y-82293006D01*
X71562054Y-82313830D01*
X71554822Y-82334042D01*
X71545643Y-82353448D01*
X71534607Y-82371861D01*
X71521819Y-82389104D01*
X71507403Y-82405010D01*
X71145010Y-82767403D01*
X71129104Y-82781819D01*
X71111861Y-82794607D01*
X71093448Y-82805643D01*
X71074042Y-82814822D01*
X71053830Y-82822054D01*
X71033006Y-82827270D01*
X71011771Y-82830420D01*
X70990330Y-82831473D01*
X70968889Y-82830420D01*
X70947654Y-82827270D01*
X70926830Y-82822054D01*
X70906618Y-82814822D01*
X70887212Y-82805643D01*
X70868799Y-82794607D01*
X70851556Y-82781819D01*
X70835650Y-82767403D01*
X70526291Y-82458044D01*
X70511875Y-82442138D01*
X70499087Y-82424895D01*
X70488051Y-82406482D01*
X70478872Y-82387076D01*
X70471640Y-82366864D01*
X70466424Y-82346040D01*
X70463274Y-82324805D01*
X70462221Y-82303364D01*
X70463274Y-82281923D01*
X70466424Y-82260688D01*
X70471640Y-82239864D01*
X70478872Y-82219652D01*
X70488051Y-82200246D01*
X70499087Y-82181833D01*
X70511875Y-82164590D01*
X70526291Y-82148684D01*
X70888684Y-81786291D01*
X70904590Y-81771875D01*
X70921833Y-81759087D01*
X70940246Y-81748051D01*
X70959652Y-81738872D01*
X70979864Y-81731640D01*
X71000688Y-81726424D01*
X71021923Y-81723274D01*
X71043364Y-81722221D01*
X71064805Y-81723274D01*
X71064805Y-81723274D01*
G37*
D17*
X71016847Y-82276847D03*
D11*
G36*
X72339727Y-82453989D02*
G01*
X72354045Y-82456113D01*
X72368086Y-82459630D01*
X72381715Y-82464507D01*
X72394800Y-82470696D01*
X72407216Y-82478137D01*
X72418842Y-82486760D01*
X72429567Y-82496481D01*
X72673519Y-82740433D01*
X72683240Y-82751158D01*
X72691863Y-82762784D01*
X72699304Y-82775200D01*
X72705493Y-82788285D01*
X72710370Y-82801914D01*
X72713887Y-82815955D01*
X72716011Y-82830273D01*
X72716721Y-82844731D01*
X72716011Y-82859189D01*
X72713887Y-82873507D01*
X72710370Y-82887548D01*
X72705493Y-82901177D01*
X72699304Y-82914262D01*
X72691863Y-82926678D01*
X72683240Y-82938304D01*
X72673519Y-82949029D01*
X72464923Y-83157625D01*
X72454198Y-83167346D01*
X72442572Y-83175969D01*
X72430156Y-83183410D01*
X72417071Y-83189599D01*
X72403442Y-83194476D01*
X72389401Y-83197993D01*
X72375083Y-83200117D01*
X72360625Y-83200827D01*
X72346167Y-83200117D01*
X72331849Y-83197993D01*
X72317808Y-83194476D01*
X72304179Y-83189599D01*
X72291094Y-83183410D01*
X72278678Y-83175969D01*
X72267052Y-83167346D01*
X72256327Y-83157625D01*
X72012375Y-82913673D01*
X72002654Y-82902948D01*
X71994031Y-82891322D01*
X71986590Y-82878906D01*
X71980401Y-82865821D01*
X71975524Y-82852192D01*
X71972007Y-82838151D01*
X71969883Y-82823833D01*
X71969173Y-82809375D01*
X71969883Y-82794917D01*
X71972007Y-82780599D01*
X71975524Y-82766558D01*
X71980401Y-82752929D01*
X71986590Y-82739844D01*
X71994031Y-82727428D01*
X72002654Y-82715802D01*
X72012375Y-82705077D01*
X72220971Y-82496481D01*
X72231696Y-82486760D01*
X72243322Y-82478137D01*
X72255738Y-82470696D01*
X72268823Y-82464507D01*
X72282452Y-82459630D01*
X72296493Y-82456113D01*
X72310811Y-82453989D01*
X72325269Y-82453279D01*
X72339727Y-82453989D01*
X72339727Y-82453989D01*
G37*
D15*
X72342947Y-82827053D03*
D11*
G36*
X71653833Y-83139883D02*
G01*
X71668151Y-83142007D01*
X71682192Y-83145524D01*
X71695821Y-83150401D01*
X71708906Y-83156590D01*
X71721322Y-83164031D01*
X71732948Y-83172654D01*
X71743673Y-83182375D01*
X71987625Y-83426327D01*
X71997346Y-83437052D01*
X72005969Y-83448678D01*
X72013410Y-83461094D01*
X72019599Y-83474179D01*
X72024476Y-83487808D01*
X72027993Y-83501849D01*
X72030117Y-83516167D01*
X72030827Y-83530625D01*
X72030117Y-83545083D01*
X72027993Y-83559401D01*
X72024476Y-83573442D01*
X72019599Y-83587071D01*
X72013410Y-83600156D01*
X72005969Y-83612572D01*
X71997346Y-83624198D01*
X71987625Y-83634923D01*
X71779029Y-83843519D01*
X71768304Y-83853240D01*
X71756678Y-83861863D01*
X71744262Y-83869304D01*
X71731177Y-83875493D01*
X71717548Y-83880370D01*
X71703507Y-83883887D01*
X71689189Y-83886011D01*
X71674731Y-83886721D01*
X71660273Y-83886011D01*
X71645955Y-83883887D01*
X71631914Y-83880370D01*
X71618285Y-83875493D01*
X71605200Y-83869304D01*
X71592784Y-83861863D01*
X71581158Y-83853240D01*
X71570433Y-83843519D01*
X71326481Y-83599567D01*
X71316760Y-83588842D01*
X71308137Y-83577216D01*
X71300696Y-83564800D01*
X71294507Y-83551715D01*
X71289630Y-83538086D01*
X71286113Y-83524045D01*
X71283989Y-83509727D01*
X71283279Y-83495269D01*
X71283989Y-83480811D01*
X71286113Y-83466493D01*
X71289630Y-83452452D01*
X71294507Y-83438823D01*
X71300696Y-83425738D01*
X71308137Y-83413322D01*
X71316760Y-83401696D01*
X71326481Y-83390971D01*
X71535077Y-83182375D01*
X71545802Y-83172654D01*
X71557428Y-83164031D01*
X71569844Y-83156590D01*
X71582929Y-83150401D01*
X71596558Y-83145524D01*
X71610599Y-83142007D01*
X71624917Y-83139883D01*
X71639375Y-83139173D01*
X71653833Y-83139883D01*
X71653833Y-83139883D01*
G37*
D15*
X71657053Y-83512947D03*
D11*
G36*
X77796780Y-75826936D02*
G01*
X77811098Y-75829060D01*
X77825139Y-75832577D01*
X77838768Y-75837454D01*
X77851853Y-75843643D01*
X77864269Y-75851084D01*
X77875895Y-75859707D01*
X77886620Y-75869428D01*
X78130572Y-76113380D01*
X78140293Y-76124105D01*
X78148916Y-76135731D01*
X78156357Y-76148147D01*
X78162546Y-76161232D01*
X78167423Y-76174861D01*
X78170940Y-76188902D01*
X78173064Y-76203220D01*
X78173774Y-76217678D01*
X78173064Y-76232136D01*
X78170940Y-76246454D01*
X78167423Y-76260495D01*
X78162546Y-76274124D01*
X78156357Y-76287209D01*
X78148916Y-76299625D01*
X78140293Y-76311251D01*
X78130572Y-76321976D01*
X77921976Y-76530572D01*
X77911251Y-76540293D01*
X77899625Y-76548916D01*
X77887209Y-76556357D01*
X77874124Y-76562546D01*
X77860495Y-76567423D01*
X77846454Y-76570940D01*
X77832136Y-76573064D01*
X77817678Y-76573774D01*
X77803220Y-76573064D01*
X77788902Y-76570940D01*
X77774861Y-76567423D01*
X77761232Y-76562546D01*
X77748147Y-76556357D01*
X77735731Y-76548916D01*
X77724105Y-76540293D01*
X77713380Y-76530572D01*
X77469428Y-76286620D01*
X77459707Y-76275895D01*
X77451084Y-76264269D01*
X77443643Y-76251853D01*
X77437454Y-76238768D01*
X77432577Y-76225139D01*
X77429060Y-76211098D01*
X77426936Y-76196780D01*
X77426226Y-76182322D01*
X77426936Y-76167864D01*
X77429060Y-76153546D01*
X77432577Y-76139505D01*
X77437454Y-76125876D01*
X77443643Y-76112791D01*
X77451084Y-76100375D01*
X77459707Y-76088749D01*
X77469428Y-76078024D01*
X77678024Y-75869428D01*
X77688749Y-75859707D01*
X77700375Y-75851084D01*
X77712791Y-75843643D01*
X77725876Y-75837454D01*
X77739505Y-75832577D01*
X77753546Y-75829060D01*
X77767864Y-75826936D01*
X77782322Y-75826226D01*
X77796780Y-75826936D01*
X77796780Y-75826936D01*
G37*
D15*
X77800000Y-76200000D03*
D11*
G36*
X78482674Y-75141042D02*
G01*
X78496992Y-75143166D01*
X78511033Y-75146683D01*
X78524662Y-75151560D01*
X78537747Y-75157749D01*
X78550163Y-75165190D01*
X78561789Y-75173813D01*
X78572514Y-75183534D01*
X78816466Y-75427486D01*
X78826187Y-75438211D01*
X78834810Y-75449837D01*
X78842251Y-75462253D01*
X78848440Y-75475338D01*
X78853317Y-75488967D01*
X78856834Y-75503008D01*
X78858958Y-75517326D01*
X78859668Y-75531784D01*
X78858958Y-75546242D01*
X78856834Y-75560560D01*
X78853317Y-75574601D01*
X78848440Y-75588230D01*
X78842251Y-75601315D01*
X78834810Y-75613731D01*
X78826187Y-75625357D01*
X78816466Y-75636082D01*
X78607870Y-75844678D01*
X78597145Y-75854399D01*
X78585519Y-75863022D01*
X78573103Y-75870463D01*
X78560018Y-75876652D01*
X78546389Y-75881529D01*
X78532348Y-75885046D01*
X78518030Y-75887170D01*
X78503572Y-75887880D01*
X78489114Y-75887170D01*
X78474796Y-75885046D01*
X78460755Y-75881529D01*
X78447126Y-75876652D01*
X78434041Y-75870463D01*
X78421625Y-75863022D01*
X78409999Y-75854399D01*
X78399274Y-75844678D01*
X78155322Y-75600726D01*
X78145601Y-75590001D01*
X78136978Y-75578375D01*
X78129537Y-75565959D01*
X78123348Y-75552874D01*
X78118471Y-75539245D01*
X78114954Y-75525204D01*
X78112830Y-75510886D01*
X78112120Y-75496428D01*
X78112830Y-75481970D01*
X78114954Y-75467652D01*
X78118471Y-75453611D01*
X78123348Y-75439982D01*
X78129537Y-75426897D01*
X78136978Y-75414481D01*
X78145601Y-75402855D01*
X78155322Y-75392130D01*
X78363918Y-75183534D01*
X78374643Y-75173813D01*
X78386269Y-75165190D01*
X78398685Y-75157749D01*
X78411770Y-75151560D01*
X78425399Y-75146683D01*
X78439440Y-75143166D01*
X78453758Y-75141042D01*
X78468216Y-75140332D01*
X78482674Y-75141042D01*
X78482674Y-75141042D01*
G37*
D15*
X78485894Y-75514106D03*
D11*
G36*
X76718030Y-82712830D02*
G01*
X76732348Y-82714954D01*
X76746389Y-82718471D01*
X76760018Y-82723348D01*
X76773103Y-82729537D01*
X76785519Y-82736978D01*
X76797145Y-82745601D01*
X76807870Y-82755322D01*
X77016466Y-82963918D01*
X77026187Y-82974643D01*
X77034810Y-82986269D01*
X77042251Y-82998685D01*
X77048440Y-83011770D01*
X77053317Y-83025399D01*
X77056834Y-83039440D01*
X77058958Y-83053758D01*
X77059668Y-83068216D01*
X77058958Y-83082674D01*
X77056834Y-83096992D01*
X77053317Y-83111033D01*
X77048440Y-83124662D01*
X77042251Y-83137747D01*
X77034810Y-83150163D01*
X77026187Y-83161789D01*
X77016466Y-83172514D01*
X76772514Y-83416466D01*
X76761789Y-83426187D01*
X76750163Y-83434810D01*
X76737747Y-83442251D01*
X76724662Y-83448440D01*
X76711033Y-83453317D01*
X76696992Y-83456834D01*
X76682674Y-83458958D01*
X76668216Y-83459668D01*
X76653758Y-83458958D01*
X76639440Y-83456834D01*
X76625399Y-83453317D01*
X76611770Y-83448440D01*
X76598685Y-83442251D01*
X76586269Y-83434810D01*
X76574643Y-83426187D01*
X76563918Y-83416466D01*
X76355322Y-83207870D01*
X76345601Y-83197145D01*
X76336978Y-83185519D01*
X76329537Y-83173103D01*
X76323348Y-83160018D01*
X76318471Y-83146389D01*
X76314954Y-83132348D01*
X76312830Y-83118030D01*
X76312120Y-83103572D01*
X76312830Y-83089114D01*
X76314954Y-83074796D01*
X76318471Y-83060755D01*
X76323348Y-83047126D01*
X76329537Y-83034041D01*
X76336978Y-83021625D01*
X76345601Y-83009999D01*
X76355322Y-82999274D01*
X76599274Y-82755322D01*
X76609999Y-82745601D01*
X76621625Y-82736978D01*
X76634041Y-82729537D01*
X76647126Y-82723348D01*
X76660755Y-82718471D01*
X76674796Y-82714954D01*
X76689114Y-82712830D01*
X76703572Y-82712120D01*
X76718030Y-82712830D01*
X76718030Y-82712830D01*
G37*
D15*
X76685894Y-83085894D03*
D11*
G36*
X76032136Y-82026936D02*
G01*
X76046454Y-82029060D01*
X76060495Y-82032577D01*
X76074124Y-82037454D01*
X76087209Y-82043643D01*
X76099625Y-82051084D01*
X76111251Y-82059707D01*
X76121976Y-82069428D01*
X76330572Y-82278024D01*
X76340293Y-82288749D01*
X76348916Y-82300375D01*
X76356357Y-82312791D01*
X76362546Y-82325876D01*
X76367423Y-82339505D01*
X76370940Y-82353546D01*
X76373064Y-82367864D01*
X76373774Y-82382322D01*
X76373064Y-82396780D01*
X76370940Y-82411098D01*
X76367423Y-82425139D01*
X76362546Y-82438768D01*
X76356357Y-82451853D01*
X76348916Y-82464269D01*
X76340293Y-82475895D01*
X76330572Y-82486620D01*
X76086620Y-82730572D01*
X76075895Y-82740293D01*
X76064269Y-82748916D01*
X76051853Y-82756357D01*
X76038768Y-82762546D01*
X76025139Y-82767423D01*
X76011098Y-82770940D01*
X75996780Y-82773064D01*
X75982322Y-82773774D01*
X75967864Y-82773064D01*
X75953546Y-82770940D01*
X75939505Y-82767423D01*
X75925876Y-82762546D01*
X75912791Y-82756357D01*
X75900375Y-82748916D01*
X75888749Y-82740293D01*
X75878024Y-82730572D01*
X75669428Y-82521976D01*
X75659707Y-82511251D01*
X75651084Y-82499625D01*
X75643643Y-82487209D01*
X75637454Y-82474124D01*
X75632577Y-82460495D01*
X75629060Y-82446454D01*
X75626936Y-82432136D01*
X75626226Y-82417678D01*
X75626936Y-82403220D01*
X75629060Y-82388902D01*
X75632577Y-82374861D01*
X75637454Y-82361232D01*
X75643643Y-82348147D01*
X75651084Y-82335731D01*
X75659707Y-82324105D01*
X75669428Y-82313380D01*
X75913380Y-82069428D01*
X75924105Y-82059707D01*
X75935731Y-82051084D01*
X75948147Y-82043643D01*
X75961232Y-82037454D01*
X75974861Y-82032577D01*
X75988902Y-82029060D01*
X76003220Y-82026936D01*
X76017678Y-82026226D01*
X76032136Y-82026936D01*
X76032136Y-82026936D01*
G37*
D15*
X76000000Y-82400000D03*
D11*
G36*
X78489189Y-73583989D02*
G01*
X78503507Y-73586113D01*
X78517548Y-73589630D01*
X78531177Y-73594507D01*
X78544262Y-73600696D01*
X78556678Y-73608137D01*
X78568304Y-73616760D01*
X78579029Y-73626481D01*
X78787625Y-73835077D01*
X78797346Y-73845802D01*
X78805969Y-73857428D01*
X78813410Y-73869844D01*
X78819599Y-73882929D01*
X78824476Y-73896558D01*
X78827993Y-73910599D01*
X78830117Y-73924917D01*
X78830827Y-73939375D01*
X78830117Y-73953833D01*
X78827993Y-73968151D01*
X78824476Y-73982192D01*
X78819599Y-73995821D01*
X78813410Y-74008906D01*
X78805969Y-74021322D01*
X78797346Y-74032948D01*
X78787625Y-74043673D01*
X78543673Y-74287625D01*
X78532948Y-74297346D01*
X78521322Y-74305969D01*
X78508906Y-74313410D01*
X78495821Y-74319599D01*
X78482192Y-74324476D01*
X78468151Y-74327993D01*
X78453833Y-74330117D01*
X78439375Y-74330827D01*
X78424917Y-74330117D01*
X78410599Y-74327993D01*
X78396558Y-74324476D01*
X78382929Y-74319599D01*
X78369844Y-74313410D01*
X78357428Y-74305969D01*
X78345802Y-74297346D01*
X78335077Y-74287625D01*
X78126481Y-74079029D01*
X78116760Y-74068304D01*
X78108137Y-74056678D01*
X78100696Y-74044262D01*
X78094507Y-74031177D01*
X78089630Y-74017548D01*
X78086113Y-74003507D01*
X78083989Y-73989189D01*
X78083279Y-73974731D01*
X78083989Y-73960273D01*
X78086113Y-73945955D01*
X78089630Y-73931914D01*
X78094507Y-73918285D01*
X78100696Y-73905200D01*
X78108137Y-73892784D01*
X78116760Y-73881158D01*
X78126481Y-73870433D01*
X78370433Y-73626481D01*
X78381158Y-73616760D01*
X78392784Y-73608137D01*
X78405200Y-73600696D01*
X78418285Y-73594507D01*
X78431914Y-73589630D01*
X78445955Y-73586113D01*
X78460273Y-73583989D01*
X78474731Y-73583279D01*
X78489189Y-73583989D01*
X78489189Y-73583989D01*
G37*
D15*
X78457053Y-73957053D03*
D11*
G36*
X79175083Y-74269883D02*
G01*
X79189401Y-74272007D01*
X79203442Y-74275524D01*
X79217071Y-74280401D01*
X79230156Y-74286590D01*
X79242572Y-74294031D01*
X79254198Y-74302654D01*
X79264923Y-74312375D01*
X79473519Y-74520971D01*
X79483240Y-74531696D01*
X79491863Y-74543322D01*
X79499304Y-74555738D01*
X79505493Y-74568823D01*
X79510370Y-74582452D01*
X79513887Y-74596493D01*
X79516011Y-74610811D01*
X79516721Y-74625269D01*
X79516011Y-74639727D01*
X79513887Y-74654045D01*
X79510370Y-74668086D01*
X79505493Y-74681715D01*
X79499304Y-74694800D01*
X79491863Y-74707216D01*
X79483240Y-74718842D01*
X79473519Y-74729567D01*
X79229567Y-74973519D01*
X79218842Y-74983240D01*
X79207216Y-74991863D01*
X79194800Y-74999304D01*
X79181715Y-75005493D01*
X79168086Y-75010370D01*
X79154045Y-75013887D01*
X79139727Y-75016011D01*
X79125269Y-75016721D01*
X79110811Y-75016011D01*
X79096493Y-75013887D01*
X79082452Y-75010370D01*
X79068823Y-75005493D01*
X79055738Y-74999304D01*
X79043322Y-74991863D01*
X79031696Y-74983240D01*
X79020971Y-74973519D01*
X78812375Y-74764923D01*
X78802654Y-74754198D01*
X78794031Y-74742572D01*
X78786590Y-74730156D01*
X78780401Y-74717071D01*
X78775524Y-74703442D01*
X78772007Y-74689401D01*
X78769883Y-74675083D01*
X78769173Y-74660625D01*
X78769883Y-74646167D01*
X78772007Y-74631849D01*
X78775524Y-74617808D01*
X78780401Y-74604179D01*
X78786590Y-74591094D01*
X78794031Y-74578678D01*
X78802654Y-74567052D01*
X78812375Y-74556327D01*
X79056327Y-74312375D01*
X79067052Y-74302654D01*
X79078678Y-74294031D01*
X79091094Y-74286590D01*
X79104179Y-74280401D01*
X79117808Y-74275524D01*
X79131849Y-74272007D01*
X79146167Y-74269883D01*
X79160625Y-74269173D01*
X79175083Y-74269883D01*
X79175083Y-74269883D01*
G37*
D15*
X79142947Y-74642947D03*
D11*
G36*
X76896780Y-75126936D02*
G01*
X76911098Y-75129060D01*
X76925139Y-75132577D01*
X76938768Y-75137454D01*
X76951853Y-75143643D01*
X76964269Y-75151084D01*
X76975895Y-75159707D01*
X76986620Y-75169428D01*
X77230572Y-75413380D01*
X77240293Y-75424105D01*
X77248916Y-75435731D01*
X77256357Y-75448147D01*
X77262546Y-75461232D01*
X77267423Y-75474861D01*
X77270940Y-75488902D01*
X77273064Y-75503220D01*
X77273774Y-75517678D01*
X77273064Y-75532136D01*
X77270940Y-75546454D01*
X77267423Y-75560495D01*
X77262546Y-75574124D01*
X77256357Y-75587209D01*
X77248916Y-75599625D01*
X77240293Y-75611251D01*
X77230572Y-75621976D01*
X77021976Y-75830572D01*
X77011251Y-75840293D01*
X76999625Y-75848916D01*
X76987209Y-75856357D01*
X76974124Y-75862546D01*
X76960495Y-75867423D01*
X76946454Y-75870940D01*
X76932136Y-75873064D01*
X76917678Y-75873774D01*
X76903220Y-75873064D01*
X76888902Y-75870940D01*
X76874861Y-75867423D01*
X76861232Y-75862546D01*
X76848147Y-75856357D01*
X76835731Y-75848916D01*
X76824105Y-75840293D01*
X76813380Y-75830572D01*
X76569428Y-75586620D01*
X76559707Y-75575895D01*
X76551084Y-75564269D01*
X76543643Y-75551853D01*
X76537454Y-75538768D01*
X76532577Y-75525139D01*
X76529060Y-75511098D01*
X76526936Y-75496780D01*
X76526226Y-75482322D01*
X76526936Y-75467864D01*
X76529060Y-75453546D01*
X76532577Y-75439505D01*
X76537454Y-75425876D01*
X76543643Y-75412791D01*
X76551084Y-75400375D01*
X76559707Y-75388749D01*
X76569428Y-75378024D01*
X76778024Y-75169428D01*
X76788749Y-75159707D01*
X76800375Y-75151084D01*
X76812791Y-75143643D01*
X76825876Y-75137454D01*
X76839505Y-75132577D01*
X76853546Y-75129060D01*
X76867864Y-75126936D01*
X76882322Y-75126226D01*
X76896780Y-75126936D01*
X76896780Y-75126936D01*
G37*
D15*
X76900000Y-75500000D03*
D11*
G36*
X77582674Y-74441042D02*
G01*
X77596992Y-74443166D01*
X77611033Y-74446683D01*
X77624662Y-74451560D01*
X77637747Y-74457749D01*
X77650163Y-74465190D01*
X77661789Y-74473813D01*
X77672514Y-74483534D01*
X77916466Y-74727486D01*
X77926187Y-74738211D01*
X77934810Y-74749837D01*
X77942251Y-74762253D01*
X77948440Y-74775338D01*
X77953317Y-74788967D01*
X77956834Y-74803008D01*
X77958958Y-74817326D01*
X77959668Y-74831784D01*
X77958958Y-74846242D01*
X77956834Y-74860560D01*
X77953317Y-74874601D01*
X77948440Y-74888230D01*
X77942251Y-74901315D01*
X77934810Y-74913731D01*
X77926187Y-74925357D01*
X77916466Y-74936082D01*
X77707870Y-75144678D01*
X77697145Y-75154399D01*
X77685519Y-75163022D01*
X77673103Y-75170463D01*
X77660018Y-75176652D01*
X77646389Y-75181529D01*
X77632348Y-75185046D01*
X77618030Y-75187170D01*
X77603572Y-75187880D01*
X77589114Y-75187170D01*
X77574796Y-75185046D01*
X77560755Y-75181529D01*
X77547126Y-75176652D01*
X77534041Y-75170463D01*
X77521625Y-75163022D01*
X77509999Y-75154399D01*
X77499274Y-75144678D01*
X77255322Y-74900726D01*
X77245601Y-74890001D01*
X77236978Y-74878375D01*
X77229537Y-74865959D01*
X77223348Y-74852874D01*
X77218471Y-74839245D01*
X77214954Y-74825204D01*
X77212830Y-74810886D01*
X77212120Y-74796428D01*
X77212830Y-74781970D01*
X77214954Y-74767652D01*
X77218471Y-74753611D01*
X77223348Y-74739982D01*
X77229537Y-74726897D01*
X77236978Y-74714481D01*
X77245601Y-74702855D01*
X77255322Y-74692130D01*
X77463918Y-74483534D01*
X77474643Y-74473813D01*
X77486269Y-74465190D01*
X77498685Y-74457749D01*
X77511770Y-74451560D01*
X77525399Y-74446683D01*
X77539440Y-74443166D01*
X77553758Y-74441042D01*
X77568216Y-74440332D01*
X77582674Y-74441042D01*
X77582674Y-74441042D01*
G37*
D15*
X77585894Y-74814106D03*
D19*
X73600000Y-66000000D03*
X74400000Y-66000000D03*
X81500000Y-86400000D03*
X76400000Y-84840900D03*
X77450000Y-85100000D03*
X77625000Y-81700000D03*
X80950000Y-75500000D03*
X72775000Y-69450000D03*
X68950000Y-69075000D03*
X69675000Y-86100000D03*
X71900000Y-72200000D03*
X65925000Y-68899998D03*
X76800000Y-66000000D03*
X74464799Y-72264808D03*
X74025000Y-74099998D03*
X75868189Y-72218370D03*
X71200000Y-66000000D03*
X75300000Y-82700000D03*
X69600000Y-66000000D03*
X79625000Y-75300000D03*
X65225002Y-66675000D03*
X65950002Y-65900000D03*
X65100000Y-65025000D03*
X64375000Y-65775000D03*
X70400000Y-66000000D03*
X65900000Y-78950000D03*
X64525000Y-77049998D03*
X73200000Y-83050000D03*
X74100000Y-83675000D03*
X75160110Y-72239899D03*
X77500000Y-80800000D03*
X78715910Y-79500000D03*
X75967701Y-73467701D03*
X72600000Y-72200000D03*
X68800000Y-66000000D03*
D20*
X71700000Y-73750000D03*
D19*
X70385196Y-72185196D03*
X73465910Y-73078848D03*
X77600000Y-66000000D03*
X76000000Y-66000000D03*
X75200000Y-66000000D03*
X72800000Y-66000000D03*
X72000000Y-66000000D03*
X80000000Y-66000000D03*
X79200000Y-66000000D03*
X78400000Y-66000000D03*
X73758098Y-69849098D03*
X77600042Y-72500000D03*
X71200000Y-72200000D03*
X79900000Y-72500000D03*
X79100000Y-72500000D03*
X72375000Y-87025000D03*
X78288917Y-72493330D03*
D21*
X78485894Y-75514106D02*
X78500000Y-75500000D01*
X74400000Y-67166000D02*
X74422000Y-67188000D01*
X74400000Y-66000000D02*
X74400000Y-67166000D01*
X73600000Y-67166000D02*
X73622000Y-67188000D01*
X73600000Y-66000000D02*
X73600000Y-67166000D01*
X74422000Y-67188000D02*
X73622000Y-67188000D01*
X74400000Y-66000000D02*
X73600000Y-66000000D01*
X79142947Y-74857053D02*
X78485894Y-75514106D01*
X79142947Y-74642947D02*
X79142947Y-74857053D01*
X77200736Y-81700000D02*
X77625000Y-81700000D01*
X76325000Y-81700000D02*
X77200736Y-81700000D01*
X75620862Y-81012101D02*
X75637101Y-81012101D01*
X75637101Y-81012101D02*
X76325000Y-81700000D01*
X77625000Y-82100000D02*
X77625000Y-81700000D01*
X76685894Y-83085894D02*
X76685894Y-83039106D01*
X76685894Y-83039106D02*
X77625000Y-82100000D01*
X71900000Y-71110000D02*
X72022000Y-70988000D01*
X71900000Y-72200000D02*
X71900000Y-71110000D01*
X76800000Y-71010000D02*
X76822000Y-70988000D01*
X76822000Y-66022000D02*
X76800000Y-66000000D01*
X76822000Y-67188000D02*
X76822000Y-66022000D01*
X74422000Y-70988000D02*
X74422000Y-72222009D01*
X74422000Y-72222009D02*
X74464799Y-72264808D01*
X74464799Y-72289799D02*
X74464799Y-72264808D01*
X74900000Y-72725000D02*
X74464799Y-72289799D01*
X74701623Y-74948660D02*
X74900000Y-74750283D01*
X74900000Y-74750283D02*
X74900000Y-72725000D01*
X74025000Y-74158037D02*
X74025000Y-74099998D01*
X73234377Y-74948660D02*
X74025000Y-74158037D01*
X76022000Y-70988000D02*
X76022000Y-72064559D01*
X76022000Y-72064559D02*
X75868189Y-72218370D01*
X71200000Y-67166000D02*
X71222000Y-67188000D01*
X78442947Y-73957053D02*
X77585894Y-74814106D01*
X78457053Y-73957053D02*
X78442947Y-73957053D01*
X77427968Y-76200000D02*
X77800000Y-76200000D01*
X77339371Y-76200000D02*
X77427968Y-76200000D01*
X76752233Y-76787138D02*
X77339371Y-76200000D01*
X76540101Y-76787138D02*
X76752233Y-76787138D01*
X72285894Y-82714106D02*
X72291788Y-82720000D01*
X72291788Y-82720000D02*
X72310000Y-82720000D01*
X73234377Y-81935623D02*
X72342947Y-82827053D01*
X73234377Y-81931340D02*
X73234377Y-81935623D01*
X75161243Y-81561243D02*
X75161243Y-81471720D01*
X76000000Y-82400000D02*
X75161243Y-81561243D01*
X77585894Y-75985894D02*
X77800000Y-76200000D01*
X77585894Y-74814106D02*
X77585894Y-75985894D01*
X75600000Y-82400000D02*
X75300000Y-82700000D01*
X76000000Y-82400000D02*
X75600000Y-82400000D01*
X69600000Y-67166000D02*
X69622000Y-67188000D01*
X69600000Y-66000000D02*
X69600000Y-67166000D01*
X78725000Y-76200000D02*
X79625000Y-75300000D01*
X77800000Y-76200000D02*
X78725000Y-76200000D01*
X65100000Y-65049998D02*
X65100000Y-65025000D01*
X65950002Y-65900000D02*
X65100000Y-65049998D01*
X65225002Y-66675000D02*
X64375000Y-65824998D01*
X64375000Y-65824998D02*
X64375000Y-65775000D01*
X70400000Y-67166000D02*
X70422000Y-67188000D01*
X70400000Y-66000000D02*
X70400000Y-67166000D01*
X71222000Y-66022000D02*
X71200000Y-66000000D01*
X71222000Y-67188000D02*
X71222000Y-66022000D01*
X71200000Y-66000000D02*
X70400000Y-66000000D01*
X70400000Y-66000000D02*
X69600000Y-66000000D01*
X64525000Y-77575000D02*
X64525000Y-77049998D01*
X65900000Y-78950000D02*
X64525000Y-77575000D01*
X72342947Y-82827053D02*
X72977053Y-82827053D01*
X72977053Y-82827053D02*
X73200000Y-83050000D01*
X73200000Y-83050000D02*
X73475000Y-83050000D01*
X73475000Y-83050000D02*
X74100000Y-83675000D01*
X75161243Y-75196148D02*
X75325000Y-75032391D01*
X75222000Y-72178009D02*
X75160110Y-72239899D01*
X75222000Y-70988000D02*
X75222000Y-72178009D01*
X75325000Y-72404789D02*
X75160110Y-72239899D01*
X75161243Y-75408280D02*
X75161243Y-75196148D01*
X75325000Y-75032391D02*
X75325000Y-72404789D01*
X77035107Y-80800000D02*
X77500000Y-80800000D01*
X76540101Y-80092862D02*
X76540101Y-80304994D01*
X76540101Y-80304994D02*
X77035107Y-80800000D01*
X78715910Y-79075736D02*
X78715910Y-79500000D01*
X77003243Y-77246757D02*
X77108537Y-77141463D01*
X77747780Y-77141463D02*
X78715910Y-78109593D01*
X76999720Y-77246757D02*
X77003243Y-77246757D01*
X77108537Y-77141463D02*
X77747780Y-77141463D01*
X78715910Y-78109593D02*
X78715910Y-79075736D01*
X75750000Y-83950000D02*
X74701623Y-82901623D01*
X78200000Y-78447037D02*
X78200000Y-81386466D01*
X78290901Y-83009099D02*
X77350000Y-83950000D01*
X78200000Y-81386466D02*
X78290901Y-81477367D01*
X77350000Y-83950000D02*
X75750000Y-83950000D01*
X74701623Y-82143472D02*
X74701623Y-81931340D01*
X74701623Y-82901623D02*
X74701623Y-82143472D01*
X78290901Y-81477367D02*
X78290901Y-83009099D01*
X77459340Y-77706377D02*
X78200000Y-78447037D01*
X75967701Y-75532299D02*
X75967701Y-73467701D01*
X75620862Y-75867899D02*
X75632101Y-75867899D01*
X75632101Y-75867899D02*
X75967701Y-75532299D01*
X72774757Y-75196148D02*
X72665901Y-75087292D01*
X72774757Y-75408280D02*
X72774757Y-75196148D01*
X72950000Y-74107534D02*
X72950000Y-72850000D01*
X72665901Y-74391633D02*
X72950000Y-74107534D01*
X72665901Y-75087292D02*
X72665901Y-74391633D01*
X72950000Y-72850000D02*
X72600000Y-72500000D01*
X72600000Y-72500000D02*
X72600000Y-72200000D01*
X68800000Y-67166000D02*
X68822000Y-67188000D01*
X68822000Y-66022000D02*
X68800000Y-66000000D01*
X68822000Y-67188000D02*
X68822000Y-66022000D01*
X79400000Y-85830000D02*
X78620000Y-85050000D01*
X79400000Y-89000000D02*
X79400000Y-85830000D01*
X78369700Y-90030300D02*
X79400000Y-89000000D01*
X68800000Y-66000000D02*
X68500001Y-65700001D01*
X67599999Y-65700001D02*
X63700000Y-69600000D01*
X63700000Y-69600000D02*
X63700000Y-82236920D01*
X68500001Y-65700001D02*
X67599999Y-65700001D01*
X63700000Y-82236920D02*
X71493380Y-90030300D01*
X71493380Y-90030300D02*
X78369700Y-90030300D01*
X70724148Y-77246757D02*
X70100000Y-76622609D01*
X70100000Y-75350000D02*
X71100001Y-74349999D01*
X71100001Y-74349999D02*
X71700000Y-73750000D01*
X70100000Y-76622609D02*
X70100000Y-75350000D01*
X70936280Y-77246757D02*
X70724148Y-77246757D01*
X70422000Y-70988000D02*
X70422000Y-72148392D01*
X70422000Y-72148392D02*
X70385196Y-72185196D01*
X73622000Y-70988000D02*
X73622000Y-72922758D01*
X73622000Y-72922758D02*
X73465910Y-73078848D01*
X77622000Y-66022000D02*
X77600000Y-66000000D01*
X77622000Y-67188000D02*
X77622000Y-66022000D01*
X76022000Y-66022000D02*
X76000000Y-66000000D01*
X76022000Y-67188000D02*
X76022000Y-66022000D01*
X75200000Y-67166000D02*
X75222000Y-67188000D01*
X75200000Y-66000000D02*
X75200000Y-67166000D01*
X72822000Y-66022000D02*
X72800000Y-66000000D01*
X72822000Y-67188000D02*
X72822000Y-66022000D01*
X72022000Y-66022000D02*
X72000000Y-66000000D01*
X72022000Y-67188000D02*
X72022000Y-66022000D01*
X77105000Y-86625000D02*
X77080000Y-86600000D01*
X78620000Y-86625000D02*
X77105000Y-86625000D01*
X77920000Y-89100000D02*
X77200000Y-89100000D01*
X78620000Y-86625000D02*
X78620000Y-88400000D01*
X78620000Y-88400000D02*
X77920000Y-89100000D01*
X73544000Y-87270000D02*
X73540000Y-87274000D01*
X73563000Y-87297000D02*
X73540000Y-87274000D01*
X73563000Y-89100000D02*
X73563000Y-87297000D01*
X74804000Y-87274000D02*
X75080000Y-87550000D01*
X73540000Y-87274000D02*
X74804000Y-87274000D01*
X80000000Y-67166000D02*
X80022000Y-67188000D01*
X80000000Y-66000000D02*
X80000000Y-67166000D01*
X79200000Y-67166000D02*
X79222000Y-67188000D01*
X79200000Y-66000000D02*
X79200000Y-67166000D01*
X78422000Y-66022000D02*
X78400000Y-66000000D01*
X78422000Y-67188000D02*
X78422000Y-66022000D01*
X77700000Y-71066000D02*
X77622000Y-70988000D01*
X74182362Y-69849098D02*
X74191460Y-69840000D01*
X73758098Y-69849098D02*
X74182362Y-69849098D01*
X77622000Y-70111000D02*
X77622000Y-70988000D01*
X77351000Y-69840000D02*
X77622000Y-70111000D01*
X74191460Y-69840000D02*
X77351000Y-69840000D01*
X77550000Y-71060000D02*
X77622000Y-70988000D01*
X77622000Y-72478042D02*
X77600042Y-72500000D01*
X77622000Y-70988000D02*
X77622000Y-72478042D01*
X71400000Y-71166000D02*
X71222000Y-70988000D01*
X71222000Y-72178000D02*
X71200000Y-72200000D01*
X71222000Y-70988000D02*
X71222000Y-72178000D01*
X80000000Y-71010000D02*
X80022000Y-70988000D01*
X79900000Y-71110000D02*
X79900000Y-72500000D01*
X80022000Y-70988000D02*
X79900000Y-71110000D01*
X79200000Y-71010000D02*
X79222000Y-70988000D01*
X79222000Y-70988000D02*
X79222000Y-71532000D01*
X79100000Y-71110000D02*
X79100000Y-72500000D01*
X79222000Y-70988000D02*
X79100000Y-71110000D01*
X73589000Y-85825000D02*
X73540000Y-85874000D01*
X75080000Y-85650000D02*
X74905000Y-85825000D01*
X74905000Y-85825000D02*
X73589000Y-85825000D01*
X73540000Y-85874000D02*
X72936000Y-85874000D01*
X72375000Y-86435000D02*
X72375000Y-87025000D01*
X72936000Y-85874000D02*
X72375000Y-86435000D01*
X76900000Y-75508000D02*
X76080482Y-76327518D01*
X76900000Y-75500000D02*
X76900000Y-75508000D01*
X78275000Y-72479413D02*
X78288917Y-72493330D01*
X78422000Y-70988000D02*
X78275000Y-71135000D01*
X78275000Y-71135000D02*
X78275000Y-72479413D01*
X71318000Y-81090000D02*
X71855518Y-80552482D01*
X71310000Y-81090000D02*
X71318000Y-81090000D01*
X69900000Y-81200000D02*
X71200000Y-81200000D01*
X71200000Y-81200000D02*
X71310000Y-81090000D01*
X69593794Y-71016206D02*
X69622000Y-70988000D01*
X69622000Y-71678000D02*
X69622000Y-70988000D01*
X68500000Y-72800000D02*
X69622000Y-71678000D01*
X68500000Y-76389220D02*
X68500000Y-72800000D01*
X68486020Y-76403200D02*
X68500000Y-76389220D01*
X69903153Y-81163153D02*
X68486020Y-79746020D01*
X68486020Y-79746020D02*
X68486020Y-76403200D01*
X72315138Y-81012250D02*
X72315138Y-81012101D01*
X71013694Y-82313694D02*
X72315138Y-81012250D01*
X68476847Y-82276847D02*
X70464833Y-82276847D01*
X70464833Y-82276847D02*
X71016847Y-82276847D01*
X67700000Y-81500000D02*
X68476847Y-82276847D01*
X68822000Y-70988000D02*
X67700000Y-72110000D01*
X67700000Y-72110000D02*
X67700000Y-81500000D01*
G36*
X82530084Y-90377010D02*
G01*
X81197282Y-91709813D01*
X65316969Y-91733621D01*
X64894687Y-91674156D01*
X64499171Y-91536301D01*
X64137964Y-91324250D01*
X63824823Y-91046078D01*
X63571678Y-90712382D01*
X63388168Y-90335870D01*
X63279715Y-89924936D01*
X63255756Y-89700454D01*
X63255537Y-88866643D01*
X64646000Y-88866643D01*
X64646000Y-89133357D01*
X64698034Y-89394947D01*
X64800101Y-89641359D01*
X64948280Y-89863124D01*
X65136876Y-90051720D01*
X65358641Y-90199899D01*
X65605053Y-90301966D01*
X65866643Y-90354000D01*
X66133357Y-90354000D01*
X66394947Y-90301966D01*
X66641359Y-90199899D01*
X66863124Y-90051720D01*
X67051720Y-89863124D01*
X67199899Y-89641359D01*
X67301966Y-89394947D01*
X67354000Y-89133357D01*
X67354000Y-88866643D01*
X67301966Y-88605053D01*
X67199899Y-88358641D01*
X67051720Y-88136876D01*
X66863124Y-87948280D01*
X66641359Y-87800101D01*
X66394947Y-87698034D01*
X66133357Y-87646000D01*
X65866643Y-87646000D01*
X65605053Y-87698034D01*
X65358641Y-87800101D01*
X65136876Y-87948280D01*
X64948280Y-88136876D01*
X64800101Y-88358641D01*
X64698034Y-88605053D01*
X64646000Y-88866643D01*
X63255537Y-88866643D01*
X63250472Y-69600000D01*
X63317157Y-69600000D01*
X63319000Y-69618710D01*
X63319001Y-82218200D01*
X63317157Y-82236920D01*
X63322384Y-82289980D01*
X63324514Y-82311609D01*
X63328671Y-82325312D01*
X63346299Y-82383427D01*
X63381678Y-82449616D01*
X63406548Y-82479919D01*
X63429290Y-82507631D01*
X63443827Y-82519561D01*
X71210739Y-90286474D01*
X71222669Y-90301011D01*
X71237204Y-90312939D01*
X71280683Y-90348622D01*
X71306312Y-90362321D01*
X71346872Y-90384001D01*
X71418691Y-90405787D01*
X71474667Y-90411300D01*
X71474670Y-90411300D01*
X71493380Y-90413143D01*
X71512090Y-90411300D01*
X78350990Y-90411300D01*
X78369700Y-90413143D01*
X78388410Y-90411300D01*
X78388413Y-90411300D01*
X78444389Y-90405787D01*
X78516208Y-90384001D01*
X78582396Y-90348622D01*
X78640411Y-90301011D01*
X78652346Y-90286468D01*
X79656175Y-89282640D01*
X79670711Y-89270711D01*
X79694250Y-89242028D01*
X79718322Y-89212697D01*
X79753701Y-89146508D01*
X79767809Y-89100000D01*
X79775487Y-89074689D01*
X79781000Y-89018713D01*
X79781000Y-89018711D01*
X79782843Y-89000001D01*
X79781000Y-88981291D01*
X79781000Y-85848710D01*
X79782843Y-85830000D01*
X79781000Y-85811287D01*
X79775487Y-85755311D01*
X79753701Y-85683492D01*
X79741841Y-85661304D01*
X79718322Y-85617303D01*
X79682640Y-85573824D01*
X79682637Y-85573821D01*
X79670711Y-85559289D01*
X79656179Y-85547363D01*
X79350228Y-85241413D01*
X79350228Y-84831250D01*
X79341121Y-84738781D01*
X79314149Y-84649866D01*
X79270348Y-84567922D01*
X79211403Y-84496097D01*
X79139578Y-84437152D01*
X79057634Y-84393351D01*
X78968719Y-84366379D01*
X78876250Y-84357272D01*
X78363750Y-84357272D01*
X78271281Y-84366379D01*
X78182366Y-84393351D01*
X78100422Y-84437152D01*
X78028597Y-84496097D01*
X77969652Y-84567922D01*
X77925851Y-84649866D01*
X77898879Y-84738781D01*
X77889772Y-84831250D01*
X77889772Y-85268750D01*
X77898879Y-85361219D01*
X77925851Y-85450134D01*
X77969652Y-85532078D01*
X78028597Y-85603903D01*
X78100422Y-85662848D01*
X78182366Y-85706649D01*
X78271281Y-85733621D01*
X78363750Y-85742728D01*
X78773913Y-85742728D01*
X78974237Y-85943053D01*
X78968719Y-85941379D01*
X78876250Y-85932272D01*
X78363750Y-85932272D01*
X78271281Y-85941379D01*
X78182366Y-85968351D01*
X78100422Y-86012152D01*
X78028597Y-86071097D01*
X77969652Y-86142922D01*
X77925851Y-86224866D01*
X77920047Y-86244000D01*
X77785228Y-86244000D01*
X77785228Y-86200000D01*
X77780324Y-86150207D01*
X77765800Y-86102328D01*
X77742214Y-86058203D01*
X77710473Y-86019527D01*
X77671797Y-85987786D01*
X77627672Y-85964200D01*
X77579793Y-85949676D01*
X77530000Y-85944772D01*
X76630000Y-85944772D01*
X76580207Y-85949676D01*
X76532328Y-85964200D01*
X76488203Y-85987786D01*
X76449527Y-86019527D01*
X76417786Y-86058203D01*
X76394200Y-86102328D01*
X76379676Y-86150207D01*
X76374772Y-86200000D01*
X76374772Y-87000000D01*
X76379676Y-87049793D01*
X76394200Y-87097672D01*
X76417786Y-87141797D01*
X76449527Y-87180473D01*
X76488203Y-87212214D01*
X76532328Y-87235800D01*
X76580207Y-87250324D01*
X76630000Y-87255228D01*
X77530000Y-87255228D01*
X77579793Y-87250324D01*
X77627672Y-87235800D01*
X77671797Y-87212214D01*
X77710473Y-87180473D01*
X77742214Y-87141797D01*
X77765800Y-87097672D01*
X77780324Y-87049793D01*
X77784637Y-87006000D01*
X77920047Y-87006000D01*
X77925851Y-87025134D01*
X77969652Y-87107078D01*
X78028597Y-87178903D01*
X78100422Y-87237848D01*
X78182366Y-87281649D01*
X78239000Y-87298829D01*
X78239001Y-88242184D01*
X77762186Y-88719000D01*
X77752175Y-88719000D01*
X77750324Y-88700207D01*
X77735800Y-88652328D01*
X77712214Y-88608203D01*
X77680473Y-88569527D01*
X77641797Y-88537786D01*
X77597672Y-88514200D01*
X77549793Y-88499676D01*
X77500000Y-88494772D01*
X76900000Y-88494772D01*
X76850207Y-88499676D01*
X76802328Y-88514200D01*
X76758203Y-88537786D01*
X76719527Y-88569527D01*
X76711715Y-88579046D01*
X76689502Y-88505820D01*
X76630537Y-88395506D01*
X76551185Y-88298815D01*
X76454494Y-88219463D01*
X76344180Y-88160498D01*
X76224482Y-88124188D01*
X76100000Y-88111928D01*
X76085750Y-88115000D01*
X75927000Y-88273750D01*
X75927000Y-88973000D01*
X75947000Y-88973000D01*
X75947000Y-89227000D01*
X75927000Y-89227000D01*
X75927000Y-89247000D01*
X75673000Y-89247000D01*
X75673000Y-89227000D01*
X74660000Y-89227000D01*
X74660000Y-89247000D01*
X74406000Y-89247000D01*
X74406000Y-89227000D01*
X74386000Y-89227000D01*
X74386000Y-88973000D01*
X74406000Y-88973000D01*
X74406000Y-88953000D01*
X74660000Y-88953000D01*
X74660000Y-88973000D01*
X75673000Y-88973000D01*
X75673000Y-88273750D01*
X75594970Y-88195720D01*
X75627672Y-88185800D01*
X75671797Y-88162214D01*
X75710473Y-88130473D01*
X75742214Y-88091797D01*
X75765800Y-88047672D01*
X75780324Y-87999793D01*
X75785228Y-87950000D01*
X75785228Y-87150000D01*
X75780324Y-87100207D01*
X75765800Y-87052328D01*
X75742214Y-87008203D01*
X75710473Y-86969527D01*
X75671797Y-86937786D01*
X75627672Y-86914200D01*
X75579793Y-86899676D01*
X75530000Y-86894772D01*
X74840705Y-86894772D01*
X74822713Y-86893000D01*
X74822710Y-86893000D01*
X74804000Y-86891157D01*
X74785290Y-86893000D01*
X74130857Y-86893000D01*
X74125800Y-86876328D01*
X74102214Y-86832203D01*
X74070473Y-86793527D01*
X74031797Y-86761786D01*
X73987672Y-86738200D01*
X73939793Y-86723676D01*
X73890000Y-86718772D01*
X73190000Y-86718772D01*
X73140207Y-86723676D01*
X73092328Y-86738200D01*
X73048203Y-86761786D01*
X73009527Y-86793527D01*
X72977786Y-86832203D01*
X72954200Y-86876328D01*
X72939676Y-86924207D01*
X72934772Y-86974000D01*
X72934772Y-87574000D01*
X72939676Y-87623793D01*
X72954200Y-87671672D01*
X72977786Y-87715797D01*
X73009527Y-87754473D01*
X73048203Y-87786214D01*
X73092328Y-87809800D01*
X73140207Y-87824324D01*
X73182001Y-87828440D01*
X73182000Y-88600650D01*
X73130728Y-88642728D01*
X73080644Y-88703756D01*
X73043428Y-88773383D01*
X73020510Y-88848932D01*
X73012772Y-88927500D01*
X73012772Y-89272500D01*
X73020510Y-89351068D01*
X73043428Y-89426617D01*
X73080644Y-89496244D01*
X73130728Y-89557272D01*
X73191756Y-89607356D01*
X73261383Y-89644572D01*
X73276969Y-89649300D01*
X71651195Y-89649300D01*
X68387195Y-86385300D01*
X68493800Y-86385300D01*
X68638563Y-86356505D01*
X68774927Y-86300021D01*
X68897651Y-86218020D01*
X69002020Y-86113651D01*
X69084021Y-85990927D01*
X69140505Y-85854563D01*
X69169300Y-85709800D01*
X69169300Y-85562200D01*
X69140505Y-85417437D01*
X69084021Y-85281073D01*
X69002020Y-85158349D01*
X68897651Y-85053980D01*
X68774927Y-84971979D01*
X68638563Y-84915495D01*
X68493800Y-84886700D01*
X68346200Y-84886700D01*
X68201437Y-84915495D01*
X68065073Y-84971979D01*
X67942349Y-85053980D01*
X67837980Y-85158349D01*
X67755979Y-85281073D01*
X67699495Y-85417437D01*
X67670700Y-85562200D01*
X67670700Y-85668806D01*
X65532094Y-83530200D01*
X67670700Y-83530200D01*
X67670700Y-83677800D01*
X67699495Y-83822563D01*
X67755979Y-83958927D01*
X67837980Y-84081651D01*
X67942349Y-84186020D01*
X68065073Y-84268021D01*
X68201437Y-84324505D01*
X68346200Y-84353300D01*
X68493800Y-84353300D01*
X68638563Y-84324505D01*
X68774927Y-84268021D01*
X68897651Y-84186020D01*
X68935565Y-84148106D01*
X71201499Y-84148106D01*
X71201499Y-84372612D01*
X71223546Y-84399003D01*
X71320237Y-84478356D01*
X71430551Y-84537320D01*
X71550249Y-84573629D01*
X71674731Y-84585890D01*
X71799212Y-84573629D01*
X71918910Y-84537320D01*
X72029225Y-84478356D01*
X72125916Y-84399003D01*
X72130284Y-84390290D01*
X72130284Y-84165783D01*
X71657053Y-83692552D01*
X71201499Y-84148106D01*
X68935565Y-84148106D01*
X69002020Y-84081651D01*
X69084021Y-83958927D01*
X69140505Y-83822563D01*
X69169300Y-83677800D01*
X69169300Y-83530200D01*
X69140505Y-83385437D01*
X69084021Y-83249073D01*
X69002020Y-83126349D01*
X68897651Y-83021980D01*
X68774927Y-82939979D01*
X68638563Y-82883495D01*
X68493800Y-82854700D01*
X68346200Y-82854700D01*
X68201437Y-82883495D01*
X68065073Y-82939979D01*
X67942349Y-83021980D01*
X67837980Y-83126349D01*
X67755979Y-83249073D01*
X67699495Y-83385437D01*
X67670700Y-83530200D01*
X65532094Y-83530200D01*
X64081000Y-82079106D01*
X64081000Y-77382680D01*
X64094680Y-77403153D01*
X64144000Y-77452473D01*
X64144000Y-77556289D01*
X64142157Y-77575000D01*
X64144000Y-77593710D01*
X64144000Y-77593712D01*
X64149513Y-77649688D01*
X64171299Y-77721507D01*
X64206678Y-77787696D01*
X64220977Y-77805119D01*
X64254289Y-77845711D01*
X64268832Y-77857646D01*
X65346000Y-78934816D01*
X65346000Y-79004564D01*
X65367289Y-79111596D01*
X65409051Y-79212418D01*
X65469680Y-79303155D01*
X65546845Y-79380320D01*
X65637582Y-79440949D01*
X65738404Y-79482711D01*
X65845436Y-79504000D01*
X65954564Y-79504000D01*
X66061596Y-79482711D01*
X66162418Y-79440949D01*
X66253155Y-79380320D01*
X66330320Y-79303155D01*
X66390949Y-79212418D01*
X66432711Y-79111596D01*
X66454000Y-79004564D01*
X66454000Y-78895436D01*
X66432711Y-78788404D01*
X66390949Y-78687582D01*
X66330320Y-78596845D01*
X66253155Y-78519680D01*
X66162418Y-78459051D01*
X66061596Y-78417289D01*
X65954564Y-78396000D01*
X65884816Y-78396000D01*
X64923644Y-77434829D01*
X64955320Y-77403153D01*
X65015949Y-77312416D01*
X65057711Y-77211594D01*
X65079000Y-77104562D01*
X65079000Y-76995434D01*
X65057711Y-76888402D01*
X65015949Y-76787580D01*
X64955320Y-76696843D01*
X64878155Y-76619678D01*
X64787418Y-76559049D01*
X64686596Y-76517287D01*
X64579564Y-76495998D01*
X64470436Y-76495998D01*
X64363404Y-76517287D01*
X64262582Y-76559049D01*
X64171845Y-76619678D01*
X64094680Y-76696843D01*
X64081000Y-76717316D01*
X64081000Y-72110000D01*
X67317157Y-72110000D01*
X67319000Y-72128710D01*
X67319001Y-81481280D01*
X67317157Y-81500000D01*
X67320830Y-81537288D01*
X67324514Y-81574689D01*
X67329521Y-81591196D01*
X67346299Y-81646507D01*
X67381678Y-81712696D01*
X67410715Y-81748077D01*
X67429290Y-81770711D01*
X67443827Y-81782641D01*
X68194210Y-82533026D01*
X68206136Y-82547558D01*
X68220668Y-82559484D01*
X68220671Y-82559487D01*
X68252348Y-82585483D01*
X68264151Y-82595169D01*
X68330339Y-82630548D01*
X68402158Y-82652334D01*
X68458134Y-82657847D01*
X68458137Y-82657847D01*
X68476847Y-82659690D01*
X68495557Y-82657847D01*
X70365148Y-82657847D01*
X70655177Y-82947876D01*
X70727002Y-83006821D01*
X70788543Y-83039716D01*
X70779710Y-83039716D01*
X70770997Y-83044084D01*
X70691644Y-83140775D01*
X70632680Y-83251090D01*
X70596371Y-83370788D01*
X70584110Y-83495269D01*
X70596371Y-83619751D01*
X70632680Y-83739449D01*
X70691644Y-83849763D01*
X70770997Y-83946454D01*
X70797388Y-83968501D01*
X71021894Y-83968501D01*
X71477448Y-83512947D01*
X71463306Y-83498805D01*
X71642911Y-83319200D01*
X71657053Y-83333342D01*
X71671196Y-83319200D01*
X71850801Y-83498805D01*
X71836658Y-83512947D01*
X72309889Y-83986178D01*
X72534396Y-83986178D01*
X72543109Y-83981810D01*
X72622462Y-83885119D01*
X72681426Y-83774804D01*
X72717735Y-83655106D01*
X72729996Y-83530625D01*
X72717735Y-83406143D01*
X72685063Y-83298433D01*
X72697929Y-83285567D01*
X72709051Y-83312418D01*
X72769680Y-83403155D01*
X72846845Y-83480320D01*
X72937582Y-83540949D01*
X73038404Y-83582711D01*
X73145436Y-83604000D01*
X73254564Y-83604000D01*
X73361596Y-83582711D01*
X73437469Y-83551283D01*
X73546000Y-83659815D01*
X73546000Y-83729564D01*
X73567289Y-83836596D01*
X73582099Y-83872351D01*
X73573800Y-83870700D01*
X73426200Y-83870700D01*
X73281437Y-83899495D01*
X73145073Y-83955979D01*
X73022349Y-84037980D01*
X72917980Y-84142349D01*
X72835979Y-84265073D01*
X72779495Y-84401437D01*
X72750700Y-84546200D01*
X72750700Y-84693800D01*
X72779495Y-84838563D01*
X72835979Y-84974927D01*
X72917980Y-85097651D01*
X73022349Y-85202020D01*
X73145073Y-85284021D01*
X73228969Y-85318772D01*
X73190000Y-85318772D01*
X73140207Y-85323676D01*
X73092328Y-85338200D01*
X73048203Y-85361786D01*
X73009527Y-85393527D01*
X72977786Y-85432203D01*
X72954200Y-85476328D01*
X72949304Y-85492467D01*
X72936000Y-85491157D01*
X72917290Y-85493000D01*
X72917287Y-85493000D01*
X72861311Y-85498513D01*
X72789492Y-85520299D01*
X72723303Y-85555678D01*
X72693972Y-85579750D01*
X72665289Y-85603289D01*
X72653360Y-85617825D01*
X72118832Y-86152354D01*
X72104289Y-86164289D01*
X72081284Y-86192322D01*
X72056678Y-86222304D01*
X72030290Y-86271672D01*
X72021299Y-86288493D01*
X71999513Y-86360312D01*
X71994000Y-86416287D01*
X71992157Y-86435000D01*
X71994000Y-86453711D01*
X71994000Y-86622525D01*
X71944680Y-86671845D01*
X71884051Y-86762582D01*
X71842289Y-86863404D01*
X71821000Y-86970436D01*
X71821000Y-87079564D01*
X71842289Y-87186596D01*
X71884051Y-87287418D01*
X71944680Y-87378155D01*
X72021845Y-87455320D01*
X72112582Y-87515949D01*
X72213404Y-87557711D01*
X72320436Y-87579000D01*
X72429564Y-87579000D01*
X72536596Y-87557711D01*
X72637418Y-87515949D01*
X72728155Y-87455320D01*
X72805320Y-87378155D01*
X72865949Y-87287418D01*
X72907711Y-87186596D01*
X72929000Y-87079564D01*
X72929000Y-86970436D01*
X72907711Y-86863404D01*
X72865949Y-86762582D01*
X72805320Y-86671845D01*
X72756000Y-86622525D01*
X72756000Y-86592814D01*
X73002682Y-86346133D01*
X73009527Y-86354473D01*
X73048203Y-86386214D01*
X73092328Y-86409800D01*
X73140207Y-86424324D01*
X73190000Y-86429228D01*
X73890000Y-86429228D01*
X73939793Y-86424324D01*
X73987672Y-86409800D01*
X74031797Y-86386214D01*
X74070473Y-86354473D01*
X74102214Y-86315797D01*
X74125800Y-86271672D01*
X74140324Y-86223793D01*
X74142076Y-86206000D01*
X74429442Y-86206000D01*
X74449527Y-86230473D01*
X74488203Y-86262214D01*
X74532328Y-86285800D01*
X74580207Y-86300324D01*
X74630000Y-86305228D01*
X75530000Y-86305228D01*
X75579793Y-86300324D01*
X75627672Y-86285800D01*
X75671797Y-86262214D01*
X75710473Y-86230473D01*
X75742214Y-86191797D01*
X75765800Y-86147672D01*
X75780324Y-86099793D01*
X75785228Y-86050000D01*
X75785228Y-85250000D01*
X75780324Y-85200207D01*
X75765800Y-85152328D01*
X75742214Y-85108203D01*
X75710473Y-85069527D01*
X75671797Y-85037786D01*
X75627672Y-85014200D01*
X75579793Y-84999676D01*
X75530000Y-84994772D01*
X74630000Y-84994772D01*
X74580207Y-84999676D01*
X74532328Y-85014200D01*
X74488203Y-85037786D01*
X74449527Y-85069527D01*
X74417786Y-85108203D01*
X74394200Y-85152328D01*
X74379676Y-85200207D01*
X74374772Y-85250000D01*
X74374772Y-85444000D01*
X74108520Y-85444000D01*
X74102214Y-85432203D01*
X74070473Y-85393527D01*
X74031797Y-85361786D01*
X73987672Y-85338200D01*
X73939793Y-85323676D01*
X73890000Y-85318772D01*
X73771031Y-85318772D01*
X73854927Y-85284021D01*
X73977651Y-85202020D01*
X74082020Y-85097651D01*
X74164021Y-84974927D01*
X74220505Y-84838563D01*
X74249300Y-84693800D01*
X74249300Y-84546200D01*
X74220505Y-84401437D01*
X74164021Y-84265073D01*
X74139918Y-84229000D01*
X74154564Y-84229000D01*
X74261596Y-84207711D01*
X74362418Y-84165949D01*
X74453155Y-84105320D01*
X74530320Y-84028155D01*
X74590949Y-83937418D01*
X74632711Y-83836596D01*
X74654000Y-83729564D01*
X74654000Y-83620436D01*
X74632711Y-83513404D01*
X74590949Y-83412582D01*
X74530320Y-83321845D01*
X74453155Y-83244680D01*
X74362418Y-83184051D01*
X74261596Y-83142289D01*
X74154564Y-83121000D01*
X74084815Y-83121000D01*
X73757646Y-82793832D01*
X73745711Y-82779289D01*
X73687696Y-82731678D01*
X73634648Y-82703323D01*
X73630320Y-82696845D01*
X73553155Y-82619680D01*
X73462418Y-82559051D01*
X73361596Y-82517289D01*
X73254564Y-82496000D01*
X73219818Y-82496000D01*
X73249904Y-82479919D01*
X73299945Y-82438850D01*
X73741887Y-81996908D01*
X73780998Y-81949253D01*
X73869435Y-81976080D01*
X73968000Y-81985788D01*
X74066565Y-81976080D01*
X74155002Y-81949253D01*
X74194113Y-81996908D01*
X74320623Y-82123418D01*
X74320623Y-82162184D01*
X74320624Y-82162194D01*
X74320623Y-82882912D01*
X74318780Y-82901623D01*
X74320623Y-82920333D01*
X74320623Y-82920335D01*
X74326136Y-82976311D01*
X74344947Y-83038322D01*
X74347922Y-83048130D01*
X74383301Y-83114319D01*
X74396433Y-83130320D01*
X74430912Y-83172334D01*
X74445455Y-83184269D01*
X75467359Y-84206174D01*
X75479289Y-84220711D01*
X75493824Y-84232639D01*
X75537303Y-84268322D01*
X75603492Y-84303701D01*
X75675311Y-84325487D01*
X75731287Y-84331000D01*
X75731290Y-84331000D01*
X75750000Y-84332843D01*
X75768710Y-84331000D01*
X77331290Y-84331000D01*
X77350000Y-84332843D01*
X77368710Y-84331000D01*
X77368713Y-84331000D01*
X77424689Y-84325487D01*
X77496508Y-84303701D01*
X77562696Y-84268322D01*
X77620711Y-84220711D01*
X77632646Y-84206168D01*
X78547075Y-83291740D01*
X78561612Y-83279810D01*
X78600265Y-83232711D01*
X78609223Y-83221796D01*
X78644602Y-83155607D01*
X78649101Y-83140775D01*
X78666388Y-83083788D01*
X78671901Y-83027812D01*
X78671901Y-83027809D01*
X78673744Y-83009099D01*
X78671901Y-82990389D01*
X78671901Y-81496069D01*
X78673743Y-81477366D01*
X78671901Y-81458663D01*
X78671901Y-81458654D01*
X78666388Y-81402678D01*
X78644602Y-81330859D01*
X78609223Y-81264671D01*
X78581000Y-81230281D01*
X78581000Y-80038019D01*
X78661346Y-80054000D01*
X78770474Y-80054000D01*
X78877506Y-80032711D01*
X78978328Y-79990949D01*
X79069065Y-79930320D01*
X79146230Y-79853155D01*
X79206859Y-79762418D01*
X79248621Y-79661596D01*
X79269910Y-79554564D01*
X79269910Y-79445436D01*
X79248621Y-79338404D01*
X79206859Y-79237582D01*
X79146230Y-79146845D01*
X79096910Y-79097525D01*
X79096910Y-78128303D01*
X79098753Y-78109593D01*
X79095006Y-78071550D01*
X79091397Y-78034904D01*
X79069611Y-77963085D01*
X79034233Y-77896898D01*
X79034232Y-77896896D01*
X78998550Y-77853417D01*
X78998547Y-77853414D01*
X78986621Y-77838882D01*
X78972090Y-77826957D01*
X78030426Y-76885294D01*
X78018491Y-76870752D01*
X77960476Y-76823141D01*
X77934981Y-76809514D01*
X77971795Y-76798346D01*
X78041422Y-76761130D01*
X78102450Y-76711046D01*
X78232496Y-76581000D01*
X78442158Y-76581000D01*
X78503572Y-76587049D01*
X78564985Y-76581000D01*
X78706290Y-76581000D01*
X78725000Y-76582843D01*
X78743710Y-76581000D01*
X78743713Y-76581000D01*
X78799689Y-76575487D01*
X78871508Y-76553701D01*
X78937696Y-76518322D01*
X78995711Y-76470711D01*
X79007646Y-76456168D01*
X79609815Y-75854000D01*
X79679564Y-75854000D01*
X79786596Y-75832711D01*
X79887418Y-75790949D01*
X79978155Y-75730320D01*
X80055320Y-75653155D01*
X80115949Y-75562418D01*
X80157711Y-75461596D01*
X80179000Y-75354564D01*
X80179000Y-75245436D01*
X80157711Y-75138404D01*
X80115949Y-75037582D01*
X80091246Y-75000612D01*
X80108356Y-74979763D01*
X80167320Y-74869449D01*
X80203629Y-74749751D01*
X80215890Y-74625269D01*
X80203629Y-74500788D01*
X80167320Y-74381090D01*
X80108356Y-74270775D01*
X80029003Y-74174084D01*
X80020290Y-74169716D01*
X79795783Y-74169716D01*
X79322552Y-74642947D01*
X79336695Y-74657090D01*
X79157090Y-74836695D01*
X79142947Y-74822552D01*
X79126253Y-74839247D01*
X79053699Y-74766693D01*
X78941448Y-74878944D01*
X78941448Y-74664841D01*
X78963342Y-74642947D01*
X78949200Y-74628805D01*
X79128805Y-74449200D01*
X79142947Y-74463342D01*
X79616178Y-73990111D01*
X79616178Y-73765604D01*
X79611810Y-73756891D01*
X79515119Y-73677538D01*
X79404804Y-73618574D01*
X79285106Y-73582265D01*
X79160625Y-73570004D01*
X79036143Y-73582265D01*
X78928433Y-73614937D01*
X78759503Y-73446007D01*
X78698475Y-73395923D01*
X78628848Y-73358707D01*
X78553299Y-73335789D01*
X78474731Y-73328051D01*
X78396163Y-73335789D01*
X78320614Y-73358707D01*
X78250987Y-73395923D01*
X78189959Y-73446007D01*
X77946007Y-73689959D01*
X77895923Y-73750987D01*
X77858707Y-73820614D01*
X77835789Y-73896163D01*
X77828051Y-73974731D01*
X77833287Y-74027898D01*
X77663326Y-74197860D01*
X77646784Y-74192842D01*
X77568216Y-74185104D01*
X77489648Y-74192842D01*
X77414099Y-74215760D01*
X77344472Y-74252976D01*
X77283444Y-74303060D01*
X77074848Y-74511656D01*
X77024764Y-74572684D01*
X76987548Y-74642311D01*
X76964630Y-74717860D01*
X76956892Y-74796428D01*
X76964630Y-74874996D01*
X76966259Y-74880365D01*
X76960890Y-74878736D01*
X76882322Y-74870998D01*
X76803754Y-74878736D01*
X76728205Y-74901654D01*
X76658578Y-74938870D01*
X76597550Y-74988954D01*
X76388954Y-75197550D01*
X76348701Y-75246599D01*
X76348701Y-73870176D01*
X76398021Y-73820856D01*
X76458650Y-73730119D01*
X76500412Y-73629297D01*
X76521701Y-73522265D01*
X76521701Y-73413137D01*
X76500412Y-73306105D01*
X76458650Y-73205283D01*
X76398021Y-73114546D01*
X76320856Y-73037381D01*
X76230119Y-72976752D01*
X76129297Y-72934990D01*
X76022265Y-72913701D01*
X75913137Y-72913701D01*
X75806105Y-72934990D01*
X75706000Y-72976455D01*
X75706000Y-72750835D01*
X75706593Y-72751081D01*
X75813625Y-72772370D01*
X75922753Y-72772370D01*
X76029785Y-72751081D01*
X76130607Y-72709319D01*
X76221344Y-72648690D01*
X76298509Y-72571525D01*
X76359138Y-72480788D01*
X76400900Y-72379966D01*
X76405115Y-72358775D01*
X76419369Y-72363177D01*
X76536250Y-72373000D01*
X76695000Y-72214250D01*
X76695000Y-71115000D01*
X76675000Y-71115000D01*
X76675000Y-70861000D01*
X76695000Y-70861000D01*
X76695000Y-70841000D01*
X76949000Y-70841000D01*
X76949000Y-70861000D01*
X76969000Y-70861000D01*
X76969000Y-71115000D01*
X76949000Y-71115000D01*
X76949000Y-72214250D01*
X77069037Y-72334287D01*
X77067331Y-72338404D01*
X77046042Y-72445436D01*
X77046042Y-72554564D01*
X77067331Y-72661596D01*
X77109093Y-72762418D01*
X77169722Y-72853155D01*
X77246887Y-72930320D01*
X77337624Y-72990949D01*
X77438446Y-73032711D01*
X77545478Y-73054000D01*
X77654606Y-73054000D01*
X77761638Y-73032711D01*
X77862460Y-72990949D01*
X77949471Y-72932810D01*
X78026499Y-72984279D01*
X78127321Y-73026041D01*
X78234353Y-73047330D01*
X78343481Y-73047330D01*
X78450513Y-73026041D01*
X78551335Y-72984279D01*
X78642072Y-72923650D01*
X78691124Y-72874599D01*
X78746845Y-72930320D01*
X78837582Y-72990949D01*
X78938404Y-73032711D01*
X79045436Y-73054000D01*
X79154564Y-73054000D01*
X79261596Y-73032711D01*
X79362418Y-72990949D01*
X79453155Y-72930320D01*
X79500000Y-72883475D01*
X79546845Y-72930320D01*
X79637582Y-72990949D01*
X79738404Y-73032711D01*
X79845436Y-73054000D01*
X79954564Y-73054000D01*
X80061596Y-73032711D01*
X80162418Y-72990949D01*
X80253155Y-72930320D01*
X80330320Y-72853155D01*
X80390949Y-72762418D01*
X80432711Y-72661596D01*
X80454000Y-72554564D01*
X80454000Y-72445436D01*
X80432711Y-72338404D01*
X80390949Y-72237582D01*
X80330320Y-72146845D01*
X80281000Y-72097525D01*
X80281000Y-71993228D01*
X80297000Y-71993228D01*
X80346793Y-71988324D01*
X80394672Y-71973800D01*
X80438797Y-71950214D01*
X80477473Y-71918473D01*
X80509214Y-71879797D01*
X80532800Y-71835672D01*
X80547324Y-71787793D01*
X80552228Y-71738000D01*
X80552228Y-70867350D01*
X80635899Y-70923257D01*
X80745820Y-70968788D01*
X80862511Y-70992000D01*
X80981489Y-70992000D01*
X81098180Y-70968788D01*
X81208101Y-70923257D01*
X81307027Y-70857157D01*
X81391157Y-70773027D01*
X81457257Y-70674101D01*
X81502788Y-70564180D01*
X81526000Y-70447489D01*
X81526000Y-70328511D01*
X81502788Y-70211820D01*
X81457257Y-70101899D01*
X81391157Y-70002973D01*
X81307027Y-69918843D01*
X81208101Y-69852743D01*
X81098180Y-69807212D01*
X80981489Y-69784000D01*
X80862511Y-69784000D01*
X80745820Y-69807212D01*
X80635899Y-69852743D01*
X80536973Y-69918843D01*
X80452843Y-70002973D01*
X80437915Y-70025315D01*
X80394672Y-70002200D01*
X80346793Y-69987676D01*
X80297000Y-69982772D01*
X79747000Y-69982772D01*
X79697207Y-69987676D01*
X79649328Y-70002200D01*
X79622000Y-70016808D01*
X79594672Y-70002200D01*
X79546793Y-69987676D01*
X79497000Y-69982772D01*
X78947000Y-69982772D01*
X78897207Y-69987676D01*
X78849328Y-70002200D01*
X78822000Y-70016808D01*
X78794672Y-70002200D01*
X78746793Y-69987676D01*
X78697000Y-69982772D01*
X78147000Y-69982772D01*
X78097207Y-69987676D01*
X78049328Y-70002200D01*
X78022000Y-70016808D01*
X77994672Y-70002200D01*
X77986376Y-69999683D01*
X77975701Y-69964492D01*
X77969933Y-69953701D01*
X77940322Y-69898303D01*
X77904639Y-69854824D01*
X77892711Y-69840289D01*
X77878174Y-69828360D01*
X77633645Y-69583831D01*
X77621711Y-69569289D01*
X77563696Y-69521678D01*
X77497508Y-69486299D01*
X77425689Y-69464513D01*
X77369713Y-69459000D01*
X77369710Y-69459000D01*
X77351000Y-69457157D01*
X77332290Y-69459000D01*
X74210170Y-69459000D01*
X74191460Y-69457157D01*
X74172750Y-69459000D01*
X74172747Y-69459000D01*
X74153382Y-69460907D01*
X74111253Y-69418778D01*
X74020516Y-69358149D01*
X73919694Y-69316387D01*
X73812662Y-69295098D01*
X73703534Y-69295098D01*
X73596502Y-69316387D01*
X73495680Y-69358149D01*
X73404943Y-69418778D01*
X73327778Y-69495943D01*
X73267149Y-69586680D01*
X73252726Y-69621500D01*
X73224631Y-69612823D01*
X73107750Y-69603000D01*
X72949000Y-69761750D01*
X72949000Y-70861000D01*
X72969000Y-70861000D01*
X72969000Y-71115000D01*
X72949000Y-71115000D01*
X72949000Y-71135000D01*
X72793250Y-71135000D01*
X72773250Y-71115000D01*
X72070750Y-71115000D01*
X71912000Y-71273750D01*
X71908936Y-71734787D01*
X71920570Y-71859329D01*
X71956276Y-71979208D01*
X72014684Y-72089818D01*
X72048727Y-72131728D01*
X72046000Y-72145436D01*
X72046000Y-72254564D01*
X72067289Y-72361596D01*
X72109051Y-72462418D01*
X72169680Y-72553155D01*
X72239013Y-72622488D01*
X72241389Y-72630320D01*
X72246299Y-72646507D01*
X72281678Y-72712696D01*
X72285955Y-72717907D01*
X72329289Y-72770711D01*
X72343831Y-72782645D01*
X72569001Y-73007816D01*
X72569000Y-73949719D01*
X72409727Y-74108993D01*
X72395191Y-74120922D01*
X72383262Y-74135458D01*
X72347579Y-74178937D01*
X72312200Y-74245126D01*
X72307839Y-74259503D01*
X72290415Y-74316944D01*
X72290091Y-74320230D01*
X72283058Y-74391633D01*
X72284902Y-74410353D01*
X72284901Y-74989182D01*
X72267247Y-75006836D01*
X72226178Y-75056877D01*
X72195662Y-75113969D01*
X72176870Y-75175918D01*
X72170525Y-75240342D01*
X72173073Y-75266215D01*
X72147200Y-75263667D01*
X72082776Y-75270012D01*
X72020827Y-75288804D01*
X71963735Y-75319320D01*
X71913694Y-75360389D01*
X71807628Y-75466455D01*
X71766559Y-75516496D01*
X71736043Y-75573588D01*
X71717251Y-75635537D01*
X71710906Y-75699961D01*
X71713454Y-75725834D01*
X71687580Y-75723286D01*
X71623156Y-75729631D01*
X71561207Y-75748423D01*
X71504115Y-75778939D01*
X71460216Y-75814967D01*
X71366500Y-75784218D01*
X71242325Y-75769157D01*
X71117599Y-75778613D01*
X70997115Y-75812219D01*
X70885500Y-75868685D01*
X70801399Y-75935605D01*
X70801399Y-76160111D01*
X71322360Y-76681072D01*
X71410042Y-76593391D01*
X71589647Y-76772996D01*
X71501965Y-76860677D01*
X71516108Y-76874820D01*
X71483581Y-76907347D01*
X71469438Y-76893204D01*
X71381757Y-76980886D01*
X71202152Y-76801281D01*
X71289833Y-76713599D01*
X70768872Y-76192638D01*
X70544366Y-76192638D01*
X70481000Y-76272273D01*
X70481000Y-75507814D01*
X71382640Y-74606175D01*
X71382644Y-74606170D01*
X71508195Y-74480619D01*
X71625738Y-74504000D01*
X71774262Y-74504000D01*
X71919934Y-74475024D01*
X72057153Y-74418186D01*
X72180647Y-74335670D01*
X72285670Y-74230647D01*
X72368186Y-74107153D01*
X72425024Y-73969934D01*
X72454000Y-73824262D01*
X72454000Y-73675738D01*
X72425024Y-73530066D01*
X72368186Y-73392847D01*
X72285670Y-73269353D01*
X72180647Y-73164330D01*
X72057153Y-73081814D01*
X71919934Y-73024976D01*
X71774262Y-72996000D01*
X71625738Y-72996000D01*
X71480066Y-73024976D01*
X71342847Y-73081814D01*
X71219353Y-73164330D01*
X71114330Y-73269353D01*
X71031814Y-73392847D01*
X70974976Y-73530066D01*
X70946000Y-73675738D01*
X70946000Y-73824262D01*
X70969381Y-73941805D01*
X70843830Y-74067356D01*
X70843825Y-74067360D01*
X69843827Y-75067359D01*
X69829290Y-75079289D01*
X69813523Y-75098501D01*
X69781678Y-75137304D01*
X69746299Y-75203493D01*
X69735122Y-75240342D01*
X69725872Y-75270836D01*
X69724514Y-75275312D01*
X69717157Y-75350000D01*
X69719001Y-75368720D01*
X69719000Y-76603899D01*
X69717157Y-76622609D01*
X69719000Y-76641319D01*
X69719000Y-76641321D01*
X69724513Y-76697297D01*
X69745347Y-76765977D01*
X69746299Y-76769116D01*
X69781678Y-76835305D01*
X69789892Y-76845313D01*
X69829289Y-76893320D01*
X69843831Y-76905254D01*
X70109393Y-77170817D01*
X70075216Y-77198867D01*
X69969150Y-77304933D01*
X69928081Y-77354974D01*
X69897565Y-77412066D01*
X69878773Y-77474015D01*
X69872428Y-77538439D01*
X69878773Y-77602863D01*
X69897565Y-77664812D01*
X69928081Y-77721904D01*
X69969150Y-77771945D01*
X70411092Y-78213887D01*
X70458747Y-78252998D01*
X70431920Y-78341435D01*
X70422212Y-78440000D01*
X70431920Y-78538565D01*
X70458747Y-78627002D01*
X70411092Y-78666113D01*
X69969150Y-79108055D01*
X69928081Y-79158096D01*
X69897565Y-79215188D01*
X69878773Y-79277137D01*
X69872428Y-79341561D01*
X69878773Y-79405985D01*
X69897565Y-79467934D01*
X69928081Y-79525026D01*
X69969150Y-79575067D01*
X70075216Y-79681133D01*
X70125257Y-79722202D01*
X70182349Y-79752718D01*
X70244298Y-79771510D01*
X70308722Y-79777855D01*
X70334596Y-79775307D01*
X70332048Y-79801181D01*
X70338393Y-79865605D01*
X70357185Y-79927554D01*
X70387701Y-79984646D01*
X70423728Y-80028544D01*
X70392979Y-80122261D01*
X70377918Y-80246436D01*
X70387374Y-80371162D01*
X70420980Y-80491646D01*
X70477446Y-80603261D01*
X70544366Y-80687362D01*
X70768872Y-80687362D01*
X71289833Y-80166401D01*
X71202152Y-80078720D01*
X71381757Y-79899115D01*
X71469438Y-79986796D01*
X71483581Y-79972654D01*
X71516108Y-80005181D01*
X71501965Y-80019323D01*
X71589647Y-80107005D01*
X71410042Y-80286610D01*
X71322360Y-80198928D01*
X70801399Y-80719889D01*
X70801399Y-80819000D01*
X70588558Y-80819000D01*
X70574182Y-80801483D01*
X70264823Y-80492124D01*
X70192998Y-80433179D01*
X70111054Y-80389378D01*
X70022139Y-80362406D01*
X69929670Y-80353299D01*
X69837201Y-80362406D01*
X69748286Y-80389378D01*
X69696092Y-80417277D01*
X68867020Y-79588206D01*
X68867020Y-76491821D01*
X68875487Y-76463909D01*
X68881000Y-76407933D01*
X68881000Y-76407930D01*
X68882843Y-76389220D01*
X68881000Y-76370510D01*
X68881000Y-72957814D01*
X69845588Y-71993228D01*
X69865066Y-71993228D01*
X69852485Y-72023600D01*
X69831196Y-72130632D01*
X69831196Y-72239760D01*
X69852485Y-72346792D01*
X69894247Y-72447614D01*
X69954876Y-72538351D01*
X70032041Y-72615516D01*
X70122778Y-72676145D01*
X70223600Y-72717907D01*
X70330632Y-72739196D01*
X70439760Y-72739196D01*
X70546792Y-72717907D01*
X70647614Y-72676145D01*
X70738351Y-72615516D01*
X70785196Y-72568671D01*
X70846845Y-72630320D01*
X70937582Y-72690949D01*
X71038404Y-72732711D01*
X71145436Y-72754000D01*
X71254564Y-72754000D01*
X71361596Y-72732711D01*
X71462418Y-72690949D01*
X71553155Y-72630320D01*
X71630320Y-72553155D01*
X71690949Y-72462418D01*
X71728265Y-72372329D01*
X71736250Y-72373000D01*
X71895000Y-72214250D01*
X71895000Y-71115000D01*
X71875000Y-71115000D01*
X71875000Y-70861000D01*
X71895000Y-70861000D01*
X71895000Y-70241213D01*
X71908936Y-70241213D01*
X71912000Y-70702250D01*
X72070750Y-70861000D01*
X72773250Y-70861000D01*
X72932000Y-70702250D01*
X72935064Y-70241213D01*
X72923430Y-70116671D01*
X72887724Y-69996792D01*
X72829316Y-69886182D01*
X72750451Y-69789092D01*
X72654161Y-69709254D01*
X72628764Y-69695514D01*
X72536250Y-69603000D01*
X72422000Y-69612602D01*
X72307750Y-69603000D01*
X72215236Y-69695514D01*
X72189839Y-69709254D01*
X72093549Y-69789092D01*
X72014684Y-69886182D01*
X71956276Y-69996792D01*
X71920570Y-70116671D01*
X71908936Y-70241213D01*
X71895000Y-70241213D01*
X71895000Y-69761750D01*
X71736250Y-69603000D01*
X71619369Y-69612823D01*
X71499855Y-69649735D01*
X71389839Y-69709254D01*
X71293549Y-69789092D01*
X71214684Y-69886182D01*
X71163679Y-69982772D01*
X70947000Y-69982772D01*
X70897207Y-69987676D01*
X70849328Y-70002200D01*
X70822000Y-70016808D01*
X70794672Y-70002200D01*
X70746793Y-69987676D01*
X70697000Y-69982772D01*
X70147000Y-69982772D01*
X70097207Y-69987676D01*
X70049328Y-70002200D01*
X70022000Y-70016808D01*
X69994672Y-70002200D01*
X69946793Y-69987676D01*
X69897000Y-69982772D01*
X69347000Y-69982772D01*
X69297207Y-69987676D01*
X69249328Y-70002200D01*
X69222000Y-70016808D01*
X69194672Y-70002200D01*
X69146793Y-69987676D01*
X69097000Y-69982772D01*
X68547000Y-69982772D01*
X68497207Y-69987676D01*
X68449328Y-70002200D01*
X68405203Y-70025786D01*
X68366527Y-70057527D01*
X68334786Y-70096203D01*
X68311200Y-70140328D01*
X68296676Y-70188207D01*
X68291772Y-70238000D01*
X68291772Y-70979412D01*
X67443832Y-71827354D01*
X67429289Y-71839289D01*
X67397782Y-71877681D01*
X67381678Y-71897304D01*
X67354200Y-71948711D01*
X67346299Y-71963493D01*
X67324513Y-72035312D01*
X67319475Y-72086467D01*
X67317157Y-72110000D01*
X64081000Y-72110000D01*
X64081000Y-69757814D01*
X67757814Y-66081001D01*
X68251258Y-66081001D01*
X68267289Y-66161596D01*
X68309051Y-66262418D01*
X68333381Y-66298831D01*
X68311200Y-66340328D01*
X68296676Y-66388207D01*
X68291772Y-66438000D01*
X68291772Y-67308650D01*
X68208101Y-67252743D01*
X68098180Y-67207212D01*
X67981489Y-67184000D01*
X67862511Y-67184000D01*
X67745820Y-67207212D01*
X67635899Y-67252743D01*
X67536973Y-67318843D01*
X67452843Y-67402973D01*
X67386743Y-67501899D01*
X67341212Y-67611820D01*
X67318000Y-67728511D01*
X67318000Y-67847489D01*
X67341212Y-67964180D01*
X67386743Y-68074101D01*
X67452843Y-68173027D01*
X67536973Y-68257157D01*
X67635899Y-68323257D01*
X67745820Y-68368788D01*
X67862511Y-68392000D01*
X67981489Y-68392000D01*
X68098180Y-68368788D01*
X68208101Y-68323257D01*
X68307027Y-68257157D01*
X68391157Y-68173027D01*
X68406085Y-68150685D01*
X68449328Y-68173800D01*
X68497207Y-68188324D01*
X68547000Y-68193228D01*
X69097000Y-68193228D01*
X69146793Y-68188324D01*
X69194672Y-68173800D01*
X69222000Y-68159192D01*
X69249328Y-68173800D01*
X69297207Y-68188324D01*
X69347000Y-68193228D01*
X69897000Y-68193228D01*
X69946793Y-68188324D01*
X69994672Y-68173800D01*
X70022000Y-68159192D01*
X70049328Y-68173800D01*
X70097207Y-68188324D01*
X70147000Y-68193228D01*
X70697000Y-68193228D01*
X70746793Y-68188324D01*
X70794672Y-68173800D01*
X70822000Y-68159192D01*
X70849328Y-68173800D01*
X70897207Y-68188324D01*
X70947000Y-68193228D01*
X71497000Y-68193228D01*
X71546793Y-68188324D01*
X71594672Y-68173800D01*
X71622000Y-68159192D01*
X71649328Y-68173800D01*
X71697207Y-68188324D01*
X71747000Y-68193228D01*
X72297000Y-68193228D01*
X72346793Y-68188324D01*
X72394672Y-68173800D01*
X72422000Y-68159192D01*
X72449328Y-68173800D01*
X72497207Y-68188324D01*
X72547000Y-68193228D01*
X72763679Y-68193228D01*
X72814684Y-68289818D01*
X72893549Y-68386908D01*
X72989839Y-68466746D01*
X73099855Y-68526265D01*
X73219369Y-68563177D01*
X73336250Y-68573000D01*
X73495000Y-68414250D01*
X73495000Y-67934787D01*
X73508936Y-67934787D01*
X73520570Y-68059329D01*
X73556276Y-68179208D01*
X73614684Y-68289818D01*
X73693549Y-68386908D01*
X73789839Y-68466746D01*
X73815236Y-68480486D01*
X73907750Y-68573000D01*
X74022000Y-68563398D01*
X74136250Y-68573000D01*
X74228764Y-68480486D01*
X74254161Y-68466746D01*
X74350451Y-68386908D01*
X74429316Y-68289818D01*
X74487724Y-68179208D01*
X74523430Y-68059329D01*
X74535064Y-67934787D01*
X74532000Y-67473750D01*
X74373250Y-67315000D01*
X73670750Y-67315000D01*
X73512000Y-67473750D01*
X73508936Y-67934787D01*
X73495000Y-67934787D01*
X73495000Y-67315000D01*
X73475000Y-67315000D01*
X73475000Y-67061000D01*
X73495000Y-67061000D01*
X73495000Y-66441213D01*
X73508936Y-66441213D01*
X73512000Y-66902250D01*
X73670750Y-67061000D01*
X74373250Y-67061000D01*
X74532000Y-66902250D01*
X74535064Y-66441213D01*
X74523430Y-66316671D01*
X74487724Y-66196792D01*
X74429316Y-66086182D01*
X74350451Y-65989092D01*
X74317475Y-65961750D01*
X74549000Y-65961750D01*
X74549000Y-67061000D01*
X74569000Y-67061000D01*
X74569000Y-67315000D01*
X74549000Y-67315000D01*
X74549000Y-68414250D01*
X74707750Y-68573000D01*
X74824631Y-68563177D01*
X74944145Y-68526265D01*
X75054161Y-68466746D01*
X75150451Y-68386908D01*
X75229316Y-68289818D01*
X75280321Y-68193228D01*
X75497000Y-68193228D01*
X75546793Y-68188324D01*
X75594672Y-68173800D01*
X75622000Y-68159192D01*
X75649328Y-68173800D01*
X75697207Y-68188324D01*
X75747000Y-68193228D01*
X76297000Y-68193228D01*
X76346793Y-68188324D01*
X76394672Y-68173800D01*
X76422000Y-68159192D01*
X76449328Y-68173800D01*
X76497207Y-68188324D01*
X76547000Y-68193228D01*
X77097000Y-68193228D01*
X77146793Y-68188324D01*
X77194672Y-68173800D01*
X77222000Y-68159192D01*
X77249328Y-68173800D01*
X77297207Y-68188324D01*
X77347000Y-68193228D01*
X77897000Y-68193228D01*
X77946793Y-68188324D01*
X77994672Y-68173800D01*
X78022000Y-68159192D01*
X78049328Y-68173800D01*
X78097207Y-68188324D01*
X78147000Y-68193228D01*
X78697000Y-68193228D01*
X78746793Y-68188324D01*
X78794672Y-68173800D01*
X78822000Y-68159192D01*
X78849328Y-68173800D01*
X78897207Y-68188324D01*
X78947000Y-68193228D01*
X79497000Y-68193228D01*
X79546793Y-68188324D01*
X79594672Y-68173800D01*
X79622000Y-68159192D01*
X79649328Y-68173800D01*
X79697207Y-68188324D01*
X79747000Y-68193228D01*
X80297000Y-68193228D01*
X80346793Y-68188324D01*
X80394672Y-68173800D01*
X80438797Y-68150214D01*
X80477473Y-68118473D01*
X80509214Y-68079797D01*
X80532800Y-68035672D01*
X80547324Y-67987793D01*
X80552228Y-67938000D01*
X80552228Y-66438000D01*
X80547324Y-66388207D01*
X80532800Y-66340328D01*
X80509214Y-66296203D01*
X80486703Y-66268773D01*
X80490949Y-66262418D01*
X80532711Y-66161596D01*
X80554000Y-66054564D01*
X80554000Y-65945436D01*
X80532711Y-65838404D01*
X80490949Y-65737582D01*
X80430320Y-65646845D01*
X80353155Y-65569680D01*
X80262418Y-65509051D01*
X80161596Y-65467289D01*
X80054564Y-65446000D01*
X79945436Y-65446000D01*
X79838404Y-65467289D01*
X79737582Y-65509051D01*
X79646845Y-65569680D01*
X79600000Y-65616525D01*
X79553155Y-65569680D01*
X79462418Y-65509051D01*
X79361596Y-65467289D01*
X79254564Y-65446000D01*
X79145436Y-65446000D01*
X79038404Y-65467289D01*
X78937582Y-65509051D01*
X78846845Y-65569680D01*
X78800000Y-65616525D01*
X78753155Y-65569680D01*
X78662418Y-65509051D01*
X78561596Y-65467289D01*
X78454564Y-65446000D01*
X78345436Y-65446000D01*
X78238404Y-65467289D01*
X78137582Y-65509051D01*
X78046845Y-65569680D01*
X78000000Y-65616525D01*
X77953155Y-65569680D01*
X77862418Y-65509051D01*
X77761596Y-65467289D01*
X77654564Y-65446000D01*
X77545436Y-65446000D01*
X77438404Y-65467289D01*
X77337582Y-65509051D01*
X77246845Y-65569680D01*
X77200000Y-65616525D01*
X77153155Y-65569680D01*
X77062418Y-65509051D01*
X76961596Y-65467289D01*
X76854564Y-65446000D01*
X76745436Y-65446000D01*
X76638404Y-65467289D01*
X76537582Y-65509051D01*
X76446845Y-65569680D01*
X76400000Y-65616525D01*
X76353155Y-65569680D01*
X76262418Y-65509051D01*
X76161596Y-65467289D01*
X76054564Y-65446000D01*
X75945436Y-65446000D01*
X75838404Y-65467289D01*
X75737582Y-65509051D01*
X75646845Y-65569680D01*
X75600000Y-65616525D01*
X75553155Y-65569680D01*
X75462418Y-65509051D01*
X75361596Y-65467289D01*
X75254564Y-65446000D01*
X75145436Y-65446000D01*
X75038404Y-65467289D01*
X74937582Y-65509051D01*
X74846845Y-65569680D01*
X74769680Y-65646845D01*
X74709051Y-65737582D01*
X74667289Y-65838404D01*
X74666033Y-65844717D01*
X74549000Y-65961750D01*
X74317475Y-65961750D01*
X74254161Y-65909254D01*
X74228764Y-65895514D01*
X74136250Y-65803000D01*
X74022000Y-65812602D01*
X73907750Y-65803000D01*
X73815236Y-65895514D01*
X73789839Y-65909254D01*
X73693549Y-65989092D01*
X73614684Y-66086182D01*
X73556276Y-66196792D01*
X73520570Y-66316671D01*
X73508936Y-66441213D01*
X73495000Y-66441213D01*
X73495000Y-65961750D01*
X73336250Y-65803000D01*
X73318659Y-65804478D01*
X73290949Y-65737582D01*
X73230320Y-65646845D01*
X73153155Y-65569680D01*
X73062418Y-65509051D01*
X72961596Y-65467289D01*
X72854564Y-65446000D01*
X72745436Y-65446000D01*
X72638404Y-65467289D01*
X72537582Y-65509051D01*
X72446845Y-65569680D01*
X72400000Y-65616525D01*
X72353155Y-65569680D01*
X72262418Y-65509051D01*
X72161596Y-65467289D01*
X72054564Y-65446000D01*
X71945436Y-65446000D01*
X71838404Y-65467289D01*
X71737582Y-65509051D01*
X71646845Y-65569680D01*
X71600000Y-65616525D01*
X71553155Y-65569680D01*
X71462418Y-65509051D01*
X71361596Y-65467289D01*
X71254564Y-65446000D01*
X71145436Y-65446000D01*
X71038404Y-65467289D01*
X70937582Y-65509051D01*
X70846845Y-65569680D01*
X70800000Y-65616525D01*
X70753155Y-65569680D01*
X70662418Y-65509051D01*
X70561596Y-65467289D01*
X70454564Y-65446000D01*
X70345436Y-65446000D01*
X70238404Y-65467289D01*
X70137582Y-65509051D01*
X70046845Y-65569680D01*
X70000000Y-65616525D01*
X69953155Y-65569680D01*
X69862418Y-65509051D01*
X69761596Y-65467289D01*
X69654564Y-65446000D01*
X69545436Y-65446000D01*
X69438404Y-65467289D01*
X69337582Y-65509051D01*
X69246845Y-65569680D01*
X69200000Y-65616525D01*
X69153155Y-65569680D01*
X69062418Y-65509051D01*
X68961596Y-65467289D01*
X68854564Y-65446000D01*
X68784814Y-65446000D01*
X68782646Y-65443832D01*
X68770712Y-65429290D01*
X68712697Y-65381679D01*
X68646509Y-65346300D01*
X68574690Y-65324514D01*
X68518714Y-65319001D01*
X68518711Y-65319001D01*
X68500001Y-65317158D01*
X68481291Y-65319001D01*
X67618701Y-65319001D01*
X67599998Y-65317159D01*
X67581295Y-65319001D01*
X67581286Y-65319001D01*
X67525310Y-65324514D01*
X67453491Y-65346300D01*
X67414224Y-65367289D01*
X67387302Y-65381679D01*
X67374535Y-65392157D01*
X67329288Y-65429290D01*
X67317358Y-65443827D01*
X63443832Y-69317354D01*
X63429289Y-69329289D01*
X63405605Y-69358149D01*
X63381678Y-69387304D01*
X63364855Y-69418778D01*
X63346299Y-69453493D01*
X63324513Y-69525312D01*
X63321357Y-69557360D01*
X63317157Y-69600000D01*
X63250472Y-69600000D01*
X63249453Y-65720436D01*
X63821000Y-65720436D01*
X63821000Y-65829564D01*
X63842289Y-65936596D01*
X63884051Y-66037418D01*
X63944680Y-66128155D01*
X64021845Y-66205320D01*
X64112582Y-66265949D01*
X64213404Y-66307711D01*
X64320436Y-66329000D01*
X64340188Y-66329000D01*
X64671002Y-66659815D01*
X64671002Y-66729564D01*
X64692291Y-66836596D01*
X64734053Y-66937418D01*
X64794682Y-67028155D01*
X64871847Y-67105320D01*
X64962584Y-67165949D01*
X65063406Y-67207711D01*
X65170438Y-67229000D01*
X65279566Y-67229000D01*
X65386598Y-67207711D01*
X65487420Y-67165949D01*
X65578157Y-67105320D01*
X65655322Y-67028155D01*
X65715951Y-66937418D01*
X65757713Y-66836596D01*
X65779002Y-66729564D01*
X65779002Y-66620436D01*
X65757713Y-66513404D01*
X65715951Y-66412582D01*
X65706820Y-66398917D01*
X65788406Y-66432711D01*
X65895438Y-66454000D01*
X66004566Y-66454000D01*
X66111598Y-66432711D01*
X66212420Y-66390949D01*
X66303157Y-66330320D01*
X66380322Y-66253155D01*
X66440951Y-66162418D01*
X66482713Y-66061596D01*
X66504002Y-65954564D01*
X66504002Y-65845436D01*
X66482713Y-65738404D01*
X66440951Y-65637582D01*
X66380322Y-65546845D01*
X66303157Y-65469680D01*
X66212420Y-65409051D01*
X66111598Y-65367289D01*
X66004566Y-65346000D01*
X65934817Y-65346000D01*
X65654000Y-65065184D01*
X65654000Y-64970436D01*
X65632711Y-64863404D01*
X65590949Y-64762582D01*
X65530320Y-64671845D01*
X65453155Y-64594680D01*
X65362418Y-64534051D01*
X65261596Y-64492289D01*
X65154564Y-64471000D01*
X65045436Y-64471000D01*
X64938404Y-64492289D01*
X64837582Y-64534051D01*
X64746845Y-64594680D01*
X64669680Y-64671845D01*
X64609051Y-64762582D01*
X64567289Y-64863404D01*
X64546000Y-64970436D01*
X64546000Y-65079564D01*
X64567289Y-65186596D01*
X64601492Y-65269170D01*
X64536596Y-65242289D01*
X64429564Y-65221000D01*
X64320436Y-65221000D01*
X64213404Y-65242289D01*
X64112582Y-65284051D01*
X64021845Y-65344680D01*
X63944680Y-65421845D01*
X63884051Y-65512582D01*
X63842289Y-65613404D01*
X63821000Y-65720436D01*
X63249453Y-65720436D01*
X63249073Y-64278718D01*
X82530991Y-64259281D01*
X82530084Y-90377010D01*
X82530084Y-90377010D01*
G37*
X82530084Y-90377010D02*
X81197282Y-91709813D01*
X65316969Y-91733621D01*
X64894687Y-91674156D01*
X64499171Y-91536301D01*
X64137964Y-91324250D01*
X63824823Y-91046078D01*
X63571678Y-90712382D01*
X63388168Y-90335870D01*
X63279715Y-89924936D01*
X63255756Y-89700454D01*
X63255537Y-88866643D01*
X64646000Y-88866643D01*
X64646000Y-89133357D01*
X64698034Y-89394947D01*
X64800101Y-89641359D01*
X64948280Y-89863124D01*
X65136876Y-90051720D01*
X65358641Y-90199899D01*
X65605053Y-90301966D01*
X65866643Y-90354000D01*
X66133357Y-90354000D01*
X66394947Y-90301966D01*
X66641359Y-90199899D01*
X66863124Y-90051720D01*
X67051720Y-89863124D01*
X67199899Y-89641359D01*
X67301966Y-89394947D01*
X67354000Y-89133357D01*
X67354000Y-88866643D01*
X67301966Y-88605053D01*
X67199899Y-88358641D01*
X67051720Y-88136876D01*
X66863124Y-87948280D01*
X66641359Y-87800101D01*
X66394947Y-87698034D01*
X66133357Y-87646000D01*
X65866643Y-87646000D01*
X65605053Y-87698034D01*
X65358641Y-87800101D01*
X65136876Y-87948280D01*
X64948280Y-88136876D01*
X64800101Y-88358641D01*
X64698034Y-88605053D01*
X64646000Y-88866643D01*
X63255537Y-88866643D01*
X63250472Y-69600000D01*
X63317157Y-69600000D01*
X63319000Y-69618710D01*
X63319001Y-82218200D01*
X63317157Y-82236920D01*
X63322384Y-82289980D01*
X63324514Y-82311609D01*
X63328671Y-82325312D01*
X63346299Y-82383427D01*
X63381678Y-82449616D01*
X63406548Y-82479919D01*
X63429290Y-82507631D01*
X63443827Y-82519561D01*
X71210739Y-90286474D01*
X71222669Y-90301011D01*
X71237204Y-90312939D01*
X71280683Y-90348622D01*
X71306312Y-90362321D01*
X71346872Y-90384001D01*
X71418691Y-90405787D01*
X71474667Y-90411300D01*
X71474670Y-90411300D01*
X71493380Y-90413143D01*
X71512090Y-90411300D01*
X78350990Y-90411300D01*
X78369700Y-90413143D01*
X78388410Y-90411300D01*
X78388413Y-90411300D01*
X78444389Y-90405787D01*
X78516208Y-90384001D01*
X78582396Y-90348622D01*
X78640411Y-90301011D01*
X78652346Y-90286468D01*
X79656175Y-89282640D01*
X79670711Y-89270711D01*
X79694250Y-89242028D01*
X79718322Y-89212697D01*
X79753701Y-89146508D01*
X79767809Y-89100000D01*
X79775487Y-89074689D01*
X79781000Y-89018713D01*
X79781000Y-89018711D01*
X79782843Y-89000001D01*
X79781000Y-88981291D01*
X79781000Y-85848710D01*
X79782843Y-85830000D01*
X79781000Y-85811287D01*
X79775487Y-85755311D01*
X79753701Y-85683492D01*
X79741841Y-85661304D01*
X79718322Y-85617303D01*
X79682640Y-85573824D01*
X79682637Y-85573821D01*
X79670711Y-85559289D01*
X79656179Y-85547363D01*
X79350228Y-85241413D01*
X79350228Y-84831250D01*
X79341121Y-84738781D01*
X79314149Y-84649866D01*
X79270348Y-84567922D01*
X79211403Y-84496097D01*
X79139578Y-84437152D01*
X79057634Y-84393351D01*
X78968719Y-84366379D01*
X78876250Y-84357272D01*
X78363750Y-84357272D01*
X78271281Y-84366379D01*
X78182366Y-84393351D01*
X78100422Y-84437152D01*
X78028597Y-84496097D01*
X77969652Y-84567922D01*
X77925851Y-84649866D01*
X77898879Y-84738781D01*
X77889772Y-84831250D01*
X77889772Y-85268750D01*
X77898879Y-85361219D01*
X77925851Y-85450134D01*
X77969652Y-85532078D01*
X78028597Y-85603903D01*
X78100422Y-85662848D01*
X78182366Y-85706649D01*
X78271281Y-85733621D01*
X78363750Y-85742728D01*
X78773913Y-85742728D01*
X78974237Y-85943053D01*
X78968719Y-85941379D01*
X78876250Y-85932272D01*
X78363750Y-85932272D01*
X78271281Y-85941379D01*
X78182366Y-85968351D01*
X78100422Y-86012152D01*
X78028597Y-86071097D01*
X77969652Y-86142922D01*
X77925851Y-86224866D01*
X77920047Y-86244000D01*
X77785228Y-86244000D01*
X77785228Y-86200000D01*
X77780324Y-86150207D01*
X77765800Y-86102328D01*
X77742214Y-86058203D01*
X77710473Y-86019527D01*
X77671797Y-85987786D01*
X77627672Y-85964200D01*
X77579793Y-85949676D01*
X77530000Y-85944772D01*
X76630000Y-85944772D01*
X76580207Y-85949676D01*
X76532328Y-85964200D01*
X76488203Y-85987786D01*
X76449527Y-86019527D01*
X76417786Y-86058203D01*
X76394200Y-86102328D01*
X76379676Y-86150207D01*
X76374772Y-86200000D01*
X76374772Y-87000000D01*
X76379676Y-87049793D01*
X76394200Y-87097672D01*
X76417786Y-87141797D01*
X76449527Y-87180473D01*
X76488203Y-87212214D01*
X76532328Y-87235800D01*
X76580207Y-87250324D01*
X76630000Y-87255228D01*
X77530000Y-87255228D01*
X77579793Y-87250324D01*
X77627672Y-87235800D01*
X77671797Y-87212214D01*
X77710473Y-87180473D01*
X77742214Y-87141797D01*
X77765800Y-87097672D01*
X77780324Y-87049793D01*
X77784637Y-87006000D01*
X77920047Y-87006000D01*
X77925851Y-87025134D01*
X77969652Y-87107078D01*
X78028597Y-87178903D01*
X78100422Y-87237848D01*
X78182366Y-87281649D01*
X78239000Y-87298829D01*
X78239001Y-88242184D01*
X77762186Y-88719000D01*
X77752175Y-88719000D01*
X77750324Y-88700207D01*
X77735800Y-88652328D01*
X77712214Y-88608203D01*
X77680473Y-88569527D01*
X77641797Y-88537786D01*
X77597672Y-88514200D01*
X77549793Y-88499676D01*
X77500000Y-88494772D01*
X76900000Y-88494772D01*
X76850207Y-88499676D01*
X76802328Y-88514200D01*
X76758203Y-88537786D01*
X76719527Y-88569527D01*
X76711715Y-88579046D01*
X76689502Y-88505820D01*
X76630537Y-88395506D01*
X76551185Y-88298815D01*
X76454494Y-88219463D01*
X76344180Y-88160498D01*
X76224482Y-88124188D01*
X76100000Y-88111928D01*
X76085750Y-88115000D01*
X75927000Y-88273750D01*
X75927000Y-88973000D01*
X75947000Y-88973000D01*
X75947000Y-89227000D01*
X75927000Y-89227000D01*
X75927000Y-89247000D01*
X75673000Y-89247000D01*
X75673000Y-89227000D01*
X74660000Y-89227000D01*
X74660000Y-89247000D01*
X74406000Y-89247000D01*
X74406000Y-89227000D01*
X74386000Y-89227000D01*
X74386000Y-88973000D01*
X74406000Y-88973000D01*
X74406000Y-88953000D01*
X74660000Y-88953000D01*
X74660000Y-88973000D01*
X75673000Y-88973000D01*
X75673000Y-88273750D01*
X75594970Y-88195720D01*
X75627672Y-88185800D01*
X75671797Y-88162214D01*
X75710473Y-88130473D01*
X75742214Y-88091797D01*
X75765800Y-88047672D01*
X75780324Y-87999793D01*
X75785228Y-87950000D01*
X75785228Y-87150000D01*
X75780324Y-87100207D01*
X75765800Y-87052328D01*
X75742214Y-87008203D01*
X75710473Y-86969527D01*
X75671797Y-86937786D01*
X75627672Y-86914200D01*
X75579793Y-86899676D01*
X75530000Y-86894772D01*
X74840705Y-86894772D01*
X74822713Y-86893000D01*
X74822710Y-86893000D01*
X74804000Y-86891157D01*
X74785290Y-86893000D01*
X74130857Y-86893000D01*
X74125800Y-86876328D01*
X74102214Y-86832203D01*
X74070473Y-86793527D01*
X74031797Y-86761786D01*
X73987672Y-86738200D01*
X73939793Y-86723676D01*
X73890000Y-86718772D01*
X73190000Y-86718772D01*
X73140207Y-86723676D01*
X73092328Y-86738200D01*
X73048203Y-86761786D01*
X73009527Y-86793527D01*
X72977786Y-86832203D01*
X72954200Y-86876328D01*
X72939676Y-86924207D01*
X72934772Y-86974000D01*
X72934772Y-87574000D01*
X72939676Y-87623793D01*
X72954200Y-87671672D01*
X72977786Y-87715797D01*
X73009527Y-87754473D01*
X73048203Y-87786214D01*
X73092328Y-87809800D01*
X73140207Y-87824324D01*
X73182001Y-87828440D01*
X73182000Y-88600650D01*
X73130728Y-88642728D01*
X73080644Y-88703756D01*
X73043428Y-88773383D01*
X73020510Y-88848932D01*
X73012772Y-88927500D01*
X73012772Y-89272500D01*
X73020510Y-89351068D01*
X73043428Y-89426617D01*
X73080644Y-89496244D01*
X73130728Y-89557272D01*
X73191756Y-89607356D01*
X73261383Y-89644572D01*
X73276969Y-89649300D01*
X71651195Y-89649300D01*
X68387195Y-86385300D01*
X68493800Y-86385300D01*
X68638563Y-86356505D01*
X68774927Y-86300021D01*
X68897651Y-86218020D01*
X69002020Y-86113651D01*
X69084021Y-85990927D01*
X69140505Y-85854563D01*
X69169300Y-85709800D01*
X69169300Y-85562200D01*
X69140505Y-85417437D01*
X69084021Y-85281073D01*
X69002020Y-85158349D01*
X68897651Y-85053980D01*
X68774927Y-84971979D01*
X68638563Y-84915495D01*
X68493800Y-84886700D01*
X68346200Y-84886700D01*
X68201437Y-84915495D01*
X68065073Y-84971979D01*
X67942349Y-85053980D01*
X67837980Y-85158349D01*
X67755979Y-85281073D01*
X67699495Y-85417437D01*
X67670700Y-85562200D01*
X67670700Y-85668806D01*
X65532094Y-83530200D01*
X67670700Y-83530200D01*
X67670700Y-83677800D01*
X67699495Y-83822563D01*
X67755979Y-83958927D01*
X67837980Y-84081651D01*
X67942349Y-84186020D01*
X68065073Y-84268021D01*
X68201437Y-84324505D01*
X68346200Y-84353300D01*
X68493800Y-84353300D01*
X68638563Y-84324505D01*
X68774927Y-84268021D01*
X68897651Y-84186020D01*
X68935565Y-84148106D01*
X71201499Y-84148106D01*
X71201499Y-84372612D01*
X71223546Y-84399003D01*
X71320237Y-84478356D01*
X71430551Y-84537320D01*
X71550249Y-84573629D01*
X71674731Y-84585890D01*
X71799212Y-84573629D01*
X71918910Y-84537320D01*
X72029225Y-84478356D01*
X72125916Y-84399003D01*
X72130284Y-84390290D01*
X72130284Y-84165783D01*
X71657053Y-83692552D01*
X71201499Y-84148106D01*
X68935565Y-84148106D01*
X69002020Y-84081651D01*
X69084021Y-83958927D01*
X69140505Y-83822563D01*
X69169300Y-83677800D01*
X69169300Y-83530200D01*
X69140505Y-83385437D01*
X69084021Y-83249073D01*
X69002020Y-83126349D01*
X68897651Y-83021980D01*
X68774927Y-82939979D01*
X68638563Y-82883495D01*
X68493800Y-82854700D01*
X68346200Y-82854700D01*
X68201437Y-82883495D01*
X68065073Y-82939979D01*
X67942349Y-83021980D01*
X67837980Y-83126349D01*
X67755979Y-83249073D01*
X67699495Y-83385437D01*
X67670700Y-83530200D01*
X65532094Y-83530200D01*
X64081000Y-82079106D01*
X64081000Y-77382680D01*
X64094680Y-77403153D01*
X64144000Y-77452473D01*
X64144000Y-77556289D01*
X64142157Y-77575000D01*
X64144000Y-77593710D01*
X64144000Y-77593712D01*
X64149513Y-77649688D01*
X64171299Y-77721507D01*
X64206678Y-77787696D01*
X64220977Y-77805119D01*
X64254289Y-77845711D01*
X64268832Y-77857646D01*
X65346000Y-78934816D01*
X65346000Y-79004564D01*
X65367289Y-79111596D01*
X65409051Y-79212418D01*
X65469680Y-79303155D01*
X65546845Y-79380320D01*
X65637582Y-79440949D01*
X65738404Y-79482711D01*
X65845436Y-79504000D01*
X65954564Y-79504000D01*
X66061596Y-79482711D01*
X66162418Y-79440949D01*
X66253155Y-79380320D01*
X66330320Y-79303155D01*
X66390949Y-79212418D01*
X66432711Y-79111596D01*
X66454000Y-79004564D01*
X66454000Y-78895436D01*
X66432711Y-78788404D01*
X66390949Y-78687582D01*
X66330320Y-78596845D01*
X66253155Y-78519680D01*
X66162418Y-78459051D01*
X66061596Y-78417289D01*
X65954564Y-78396000D01*
X65884816Y-78396000D01*
X64923644Y-77434829D01*
X64955320Y-77403153D01*
X65015949Y-77312416D01*
X65057711Y-77211594D01*
X65079000Y-77104562D01*
X65079000Y-76995434D01*
X65057711Y-76888402D01*
X65015949Y-76787580D01*
X64955320Y-76696843D01*
X64878155Y-76619678D01*
X64787418Y-76559049D01*
X64686596Y-76517287D01*
X64579564Y-76495998D01*
X64470436Y-76495998D01*
X64363404Y-76517287D01*
X64262582Y-76559049D01*
X64171845Y-76619678D01*
X64094680Y-76696843D01*
X64081000Y-76717316D01*
X64081000Y-72110000D01*
X67317157Y-72110000D01*
X67319000Y-72128710D01*
X67319001Y-81481280D01*
X67317157Y-81500000D01*
X67320830Y-81537288D01*
X67324514Y-81574689D01*
X67329521Y-81591196D01*
X67346299Y-81646507D01*
X67381678Y-81712696D01*
X67410715Y-81748077D01*
X67429290Y-81770711D01*
X67443827Y-81782641D01*
X68194210Y-82533026D01*
X68206136Y-82547558D01*
X68220668Y-82559484D01*
X68220671Y-82559487D01*
X68252348Y-82585483D01*
X68264151Y-82595169D01*
X68330339Y-82630548D01*
X68402158Y-82652334D01*
X68458134Y-82657847D01*
X68458137Y-82657847D01*
X68476847Y-82659690D01*
X68495557Y-82657847D01*
X70365148Y-82657847D01*
X70655177Y-82947876D01*
X70727002Y-83006821D01*
X70788543Y-83039716D01*
X70779710Y-83039716D01*
X70770997Y-83044084D01*
X70691644Y-83140775D01*
X70632680Y-83251090D01*
X70596371Y-83370788D01*
X70584110Y-83495269D01*
X70596371Y-83619751D01*
X70632680Y-83739449D01*
X70691644Y-83849763D01*
X70770997Y-83946454D01*
X70797388Y-83968501D01*
X71021894Y-83968501D01*
X71477448Y-83512947D01*
X71463306Y-83498805D01*
X71642911Y-83319200D01*
X71657053Y-83333342D01*
X71671196Y-83319200D01*
X71850801Y-83498805D01*
X71836658Y-83512947D01*
X72309889Y-83986178D01*
X72534396Y-83986178D01*
X72543109Y-83981810D01*
X72622462Y-83885119D01*
X72681426Y-83774804D01*
X72717735Y-83655106D01*
X72729996Y-83530625D01*
X72717735Y-83406143D01*
X72685063Y-83298433D01*
X72697929Y-83285567D01*
X72709051Y-83312418D01*
X72769680Y-83403155D01*
X72846845Y-83480320D01*
X72937582Y-83540949D01*
X73038404Y-83582711D01*
X73145436Y-83604000D01*
X73254564Y-83604000D01*
X73361596Y-83582711D01*
X73437469Y-83551283D01*
X73546000Y-83659815D01*
X73546000Y-83729564D01*
X73567289Y-83836596D01*
X73582099Y-83872351D01*
X73573800Y-83870700D01*
X73426200Y-83870700D01*
X73281437Y-83899495D01*
X73145073Y-83955979D01*
X73022349Y-84037980D01*
X72917980Y-84142349D01*
X72835979Y-84265073D01*
X72779495Y-84401437D01*
X72750700Y-84546200D01*
X72750700Y-84693800D01*
X72779495Y-84838563D01*
X72835979Y-84974927D01*
X72917980Y-85097651D01*
X73022349Y-85202020D01*
X73145073Y-85284021D01*
X73228969Y-85318772D01*
X73190000Y-85318772D01*
X73140207Y-85323676D01*
X73092328Y-85338200D01*
X73048203Y-85361786D01*
X73009527Y-85393527D01*
X72977786Y-85432203D01*
X72954200Y-85476328D01*
X72949304Y-85492467D01*
X72936000Y-85491157D01*
X72917290Y-85493000D01*
X72917287Y-85493000D01*
X72861311Y-85498513D01*
X72789492Y-85520299D01*
X72723303Y-85555678D01*
X72693972Y-85579750D01*
X72665289Y-85603289D01*
X72653360Y-85617825D01*
X72118832Y-86152354D01*
X72104289Y-86164289D01*
X72081284Y-86192322D01*
X72056678Y-86222304D01*
X72030290Y-86271672D01*
X72021299Y-86288493D01*
X71999513Y-86360312D01*
X71994000Y-86416287D01*
X71992157Y-86435000D01*
X71994000Y-86453711D01*
X71994000Y-86622525D01*
X71944680Y-86671845D01*
X71884051Y-86762582D01*
X71842289Y-86863404D01*
X71821000Y-86970436D01*
X71821000Y-87079564D01*
X71842289Y-87186596D01*
X71884051Y-87287418D01*
X71944680Y-87378155D01*
X72021845Y-87455320D01*
X72112582Y-87515949D01*
X72213404Y-87557711D01*
X72320436Y-87579000D01*
X72429564Y-87579000D01*
X72536596Y-87557711D01*
X72637418Y-87515949D01*
X72728155Y-87455320D01*
X72805320Y-87378155D01*
X72865949Y-87287418D01*
X72907711Y-87186596D01*
X72929000Y-87079564D01*
X72929000Y-86970436D01*
X72907711Y-86863404D01*
X72865949Y-86762582D01*
X72805320Y-86671845D01*
X72756000Y-86622525D01*
X72756000Y-86592814D01*
X73002682Y-86346133D01*
X73009527Y-86354473D01*
X73048203Y-86386214D01*
X73092328Y-86409800D01*
X73140207Y-86424324D01*
X73190000Y-86429228D01*
X73890000Y-86429228D01*
X73939793Y-86424324D01*
X73987672Y-86409800D01*
X74031797Y-86386214D01*
X74070473Y-86354473D01*
X74102214Y-86315797D01*
X74125800Y-86271672D01*
X74140324Y-86223793D01*
X74142076Y-86206000D01*
X74429442Y-86206000D01*
X74449527Y-86230473D01*
X74488203Y-86262214D01*
X74532328Y-86285800D01*
X74580207Y-86300324D01*
X74630000Y-86305228D01*
X75530000Y-86305228D01*
X75579793Y-86300324D01*
X75627672Y-86285800D01*
X75671797Y-86262214D01*
X75710473Y-86230473D01*
X75742214Y-86191797D01*
X75765800Y-86147672D01*
X75780324Y-86099793D01*
X75785228Y-86050000D01*
X75785228Y-85250000D01*
X75780324Y-85200207D01*
X75765800Y-85152328D01*
X75742214Y-85108203D01*
X75710473Y-85069527D01*
X75671797Y-85037786D01*
X75627672Y-85014200D01*
X75579793Y-84999676D01*
X75530000Y-84994772D01*
X74630000Y-84994772D01*
X74580207Y-84999676D01*
X74532328Y-85014200D01*
X74488203Y-85037786D01*
X74449527Y-85069527D01*
X74417786Y-85108203D01*
X74394200Y-85152328D01*
X74379676Y-85200207D01*
X74374772Y-85250000D01*
X74374772Y-85444000D01*
X74108520Y-85444000D01*
X74102214Y-85432203D01*
X74070473Y-85393527D01*
X74031797Y-85361786D01*
X73987672Y-85338200D01*
X73939793Y-85323676D01*
X73890000Y-85318772D01*
X73771031Y-85318772D01*
X73854927Y-85284021D01*
X73977651Y-85202020D01*
X74082020Y-85097651D01*
X74164021Y-84974927D01*
X74220505Y-84838563D01*
X74249300Y-84693800D01*
X74249300Y-84546200D01*
X74220505Y-84401437D01*
X74164021Y-84265073D01*
X74139918Y-84229000D01*
X74154564Y-84229000D01*
X74261596Y-84207711D01*
X74362418Y-84165949D01*
X74453155Y-84105320D01*
X74530320Y-84028155D01*
X74590949Y-83937418D01*
X74632711Y-83836596D01*
X74654000Y-83729564D01*
X74654000Y-83620436D01*
X74632711Y-83513404D01*
X74590949Y-83412582D01*
X74530320Y-83321845D01*
X74453155Y-83244680D01*
X74362418Y-83184051D01*
X74261596Y-83142289D01*
X74154564Y-83121000D01*
X74084815Y-83121000D01*
X73757646Y-82793832D01*
X73745711Y-82779289D01*
X73687696Y-82731678D01*
X73634648Y-82703323D01*
X73630320Y-82696845D01*
X73553155Y-82619680D01*
X73462418Y-82559051D01*
X73361596Y-82517289D01*
X73254564Y-82496000D01*
X73219818Y-82496000D01*
X73249904Y-82479919D01*
X73299945Y-82438850D01*
X73741887Y-81996908D01*
X73780998Y-81949253D01*
X73869435Y-81976080D01*
X73968000Y-81985788D01*
X74066565Y-81976080D01*
X74155002Y-81949253D01*
X74194113Y-81996908D01*
X74320623Y-82123418D01*
X74320623Y-82162184D01*
X74320624Y-82162194D01*
X74320623Y-82882912D01*
X74318780Y-82901623D01*
X74320623Y-82920333D01*
X74320623Y-82920335D01*
X74326136Y-82976311D01*
X74344947Y-83038322D01*
X74347922Y-83048130D01*
X74383301Y-83114319D01*
X74396433Y-83130320D01*
X74430912Y-83172334D01*
X74445455Y-83184269D01*
X75467359Y-84206174D01*
X75479289Y-84220711D01*
X75493824Y-84232639D01*
X75537303Y-84268322D01*
X75603492Y-84303701D01*
X75675311Y-84325487D01*
X75731287Y-84331000D01*
X75731290Y-84331000D01*
X75750000Y-84332843D01*
X75768710Y-84331000D01*
X77331290Y-84331000D01*
X77350000Y-84332843D01*
X77368710Y-84331000D01*
X77368713Y-84331000D01*
X77424689Y-84325487D01*
X77496508Y-84303701D01*
X77562696Y-84268322D01*
X77620711Y-84220711D01*
X77632646Y-84206168D01*
X78547075Y-83291740D01*
X78561612Y-83279810D01*
X78600265Y-83232711D01*
X78609223Y-83221796D01*
X78644602Y-83155607D01*
X78649101Y-83140775D01*
X78666388Y-83083788D01*
X78671901Y-83027812D01*
X78671901Y-83027809D01*
X78673744Y-83009099D01*
X78671901Y-82990389D01*
X78671901Y-81496069D01*
X78673743Y-81477366D01*
X78671901Y-81458663D01*
X78671901Y-81458654D01*
X78666388Y-81402678D01*
X78644602Y-81330859D01*
X78609223Y-81264671D01*
X78581000Y-81230281D01*
X78581000Y-80038019D01*
X78661346Y-80054000D01*
X78770474Y-80054000D01*
X78877506Y-80032711D01*
X78978328Y-79990949D01*
X79069065Y-79930320D01*
X79146230Y-79853155D01*
X79206859Y-79762418D01*
X79248621Y-79661596D01*
X79269910Y-79554564D01*
X79269910Y-79445436D01*
X79248621Y-79338404D01*
X79206859Y-79237582D01*
X79146230Y-79146845D01*
X79096910Y-79097525D01*
X79096910Y-78128303D01*
X79098753Y-78109593D01*
X79095006Y-78071550D01*
X79091397Y-78034904D01*
X79069611Y-77963085D01*
X79034233Y-77896898D01*
X79034232Y-77896896D01*
X78998550Y-77853417D01*
X78998547Y-77853414D01*
X78986621Y-77838882D01*
X78972090Y-77826957D01*
X78030426Y-76885294D01*
X78018491Y-76870752D01*
X77960476Y-76823141D01*
X77934981Y-76809514D01*
X77971795Y-76798346D01*
X78041422Y-76761130D01*
X78102450Y-76711046D01*
X78232496Y-76581000D01*
X78442158Y-76581000D01*
X78503572Y-76587049D01*
X78564985Y-76581000D01*
X78706290Y-76581000D01*
X78725000Y-76582843D01*
X78743710Y-76581000D01*
X78743713Y-76581000D01*
X78799689Y-76575487D01*
X78871508Y-76553701D01*
X78937696Y-76518322D01*
X78995711Y-76470711D01*
X79007646Y-76456168D01*
X79609815Y-75854000D01*
X79679564Y-75854000D01*
X79786596Y-75832711D01*
X79887418Y-75790949D01*
X79978155Y-75730320D01*
X80055320Y-75653155D01*
X80115949Y-75562418D01*
X80157711Y-75461596D01*
X80179000Y-75354564D01*
X80179000Y-75245436D01*
X80157711Y-75138404D01*
X80115949Y-75037582D01*
X80091246Y-75000612D01*
X80108356Y-74979763D01*
X80167320Y-74869449D01*
X80203629Y-74749751D01*
X80215890Y-74625269D01*
X80203629Y-74500788D01*
X80167320Y-74381090D01*
X80108356Y-74270775D01*
X80029003Y-74174084D01*
X80020290Y-74169716D01*
X79795783Y-74169716D01*
X79322552Y-74642947D01*
X79336695Y-74657090D01*
X79157090Y-74836695D01*
X79142947Y-74822552D01*
X79126253Y-74839247D01*
X79053699Y-74766693D01*
X78941448Y-74878944D01*
X78941448Y-74664841D01*
X78963342Y-74642947D01*
X78949200Y-74628805D01*
X79128805Y-74449200D01*
X79142947Y-74463342D01*
X79616178Y-73990111D01*
X79616178Y-73765604D01*
X79611810Y-73756891D01*
X79515119Y-73677538D01*
X79404804Y-73618574D01*
X79285106Y-73582265D01*
X79160625Y-73570004D01*
X79036143Y-73582265D01*
X78928433Y-73614937D01*
X78759503Y-73446007D01*
X78698475Y-73395923D01*
X78628848Y-73358707D01*
X78553299Y-73335789D01*
X78474731Y-73328051D01*
X78396163Y-73335789D01*
X78320614Y-73358707D01*
X78250987Y-73395923D01*
X78189959Y-73446007D01*
X77946007Y-73689959D01*
X77895923Y-73750987D01*
X77858707Y-73820614D01*
X77835789Y-73896163D01*
X77828051Y-73974731D01*
X77833287Y-74027898D01*
X77663326Y-74197860D01*
X77646784Y-74192842D01*
X77568216Y-74185104D01*
X77489648Y-74192842D01*
X77414099Y-74215760D01*
X77344472Y-74252976D01*
X77283444Y-74303060D01*
X77074848Y-74511656D01*
X77024764Y-74572684D01*
X76987548Y-74642311D01*
X76964630Y-74717860D01*
X76956892Y-74796428D01*
X76964630Y-74874996D01*
X76966259Y-74880365D01*
X76960890Y-74878736D01*
X76882322Y-74870998D01*
X76803754Y-74878736D01*
X76728205Y-74901654D01*
X76658578Y-74938870D01*
X76597550Y-74988954D01*
X76388954Y-75197550D01*
X76348701Y-75246599D01*
X76348701Y-73870176D01*
X76398021Y-73820856D01*
X76458650Y-73730119D01*
X76500412Y-73629297D01*
X76521701Y-73522265D01*
X76521701Y-73413137D01*
X76500412Y-73306105D01*
X76458650Y-73205283D01*
X76398021Y-73114546D01*
X76320856Y-73037381D01*
X76230119Y-72976752D01*
X76129297Y-72934990D01*
X76022265Y-72913701D01*
X75913137Y-72913701D01*
X75806105Y-72934990D01*
X75706000Y-72976455D01*
X75706000Y-72750835D01*
X75706593Y-72751081D01*
X75813625Y-72772370D01*
X75922753Y-72772370D01*
X76029785Y-72751081D01*
X76130607Y-72709319D01*
X76221344Y-72648690D01*
X76298509Y-72571525D01*
X76359138Y-72480788D01*
X76400900Y-72379966D01*
X76405115Y-72358775D01*
X76419369Y-72363177D01*
X76536250Y-72373000D01*
X76695000Y-72214250D01*
X76695000Y-71115000D01*
X76675000Y-71115000D01*
X76675000Y-70861000D01*
X76695000Y-70861000D01*
X76695000Y-70841000D01*
X76949000Y-70841000D01*
X76949000Y-70861000D01*
X76969000Y-70861000D01*
X76969000Y-71115000D01*
X76949000Y-71115000D01*
X76949000Y-72214250D01*
X77069037Y-72334287D01*
X77067331Y-72338404D01*
X77046042Y-72445436D01*
X77046042Y-72554564D01*
X77067331Y-72661596D01*
X77109093Y-72762418D01*
X77169722Y-72853155D01*
X77246887Y-72930320D01*
X77337624Y-72990949D01*
X77438446Y-73032711D01*
X77545478Y-73054000D01*
X77654606Y-73054000D01*
X77761638Y-73032711D01*
X77862460Y-72990949D01*
X77949471Y-72932810D01*
X78026499Y-72984279D01*
X78127321Y-73026041D01*
X78234353Y-73047330D01*
X78343481Y-73047330D01*
X78450513Y-73026041D01*
X78551335Y-72984279D01*
X78642072Y-72923650D01*
X78691124Y-72874599D01*
X78746845Y-72930320D01*
X78837582Y-72990949D01*
X78938404Y-73032711D01*
X79045436Y-73054000D01*
X79154564Y-73054000D01*
X79261596Y-73032711D01*
X79362418Y-72990949D01*
X79453155Y-72930320D01*
X79500000Y-72883475D01*
X79546845Y-72930320D01*
X79637582Y-72990949D01*
X79738404Y-73032711D01*
X79845436Y-73054000D01*
X79954564Y-73054000D01*
X80061596Y-73032711D01*
X80162418Y-72990949D01*
X80253155Y-72930320D01*
X80330320Y-72853155D01*
X80390949Y-72762418D01*
X80432711Y-72661596D01*
X80454000Y-72554564D01*
X80454000Y-72445436D01*
X80432711Y-72338404D01*
X80390949Y-72237582D01*
X80330320Y-72146845D01*
X80281000Y-72097525D01*
X80281000Y-71993228D01*
X80297000Y-71993228D01*
X80346793Y-71988324D01*
X80394672Y-71973800D01*
X80438797Y-71950214D01*
X80477473Y-71918473D01*
X80509214Y-71879797D01*
X80532800Y-71835672D01*
X80547324Y-71787793D01*
X80552228Y-71738000D01*
X80552228Y-70867350D01*
X80635899Y-70923257D01*
X80745820Y-70968788D01*
X80862511Y-70992000D01*
X80981489Y-70992000D01*
X81098180Y-70968788D01*
X81208101Y-70923257D01*
X81307027Y-70857157D01*
X81391157Y-70773027D01*
X81457257Y-70674101D01*
X81502788Y-70564180D01*
X81526000Y-70447489D01*
X81526000Y-70328511D01*
X81502788Y-70211820D01*
X81457257Y-70101899D01*
X81391157Y-70002973D01*
X81307027Y-69918843D01*
X81208101Y-69852743D01*
X81098180Y-69807212D01*
X80981489Y-69784000D01*
X80862511Y-69784000D01*
X80745820Y-69807212D01*
X80635899Y-69852743D01*
X80536973Y-69918843D01*
X80452843Y-70002973D01*
X80437915Y-70025315D01*
X80394672Y-70002200D01*
X80346793Y-69987676D01*
X80297000Y-69982772D01*
X79747000Y-69982772D01*
X79697207Y-69987676D01*
X79649328Y-70002200D01*
X79622000Y-70016808D01*
X79594672Y-70002200D01*
X79546793Y-69987676D01*
X79497000Y-69982772D01*
X78947000Y-69982772D01*
X78897207Y-69987676D01*
X78849328Y-70002200D01*
X78822000Y-70016808D01*
X78794672Y-70002200D01*
X78746793Y-69987676D01*
X78697000Y-69982772D01*
X78147000Y-69982772D01*
X78097207Y-69987676D01*
X78049328Y-70002200D01*
X78022000Y-70016808D01*
X77994672Y-70002200D01*
X77986376Y-69999683D01*
X77975701Y-69964492D01*
X77969933Y-69953701D01*
X77940322Y-69898303D01*
X77904639Y-69854824D01*
X77892711Y-69840289D01*
X77878174Y-69828360D01*
X77633645Y-69583831D01*
X77621711Y-69569289D01*
X77563696Y-69521678D01*
X77497508Y-69486299D01*
X77425689Y-69464513D01*
X77369713Y-69459000D01*
X77369710Y-69459000D01*
X77351000Y-69457157D01*
X77332290Y-69459000D01*
X74210170Y-69459000D01*
X74191460Y-69457157D01*
X74172750Y-69459000D01*
X74172747Y-69459000D01*
X74153382Y-69460907D01*
X74111253Y-69418778D01*
X74020516Y-69358149D01*
X73919694Y-69316387D01*
X73812662Y-69295098D01*
X73703534Y-69295098D01*
X73596502Y-69316387D01*
X73495680Y-69358149D01*
X73404943Y-69418778D01*
X73327778Y-69495943D01*
X73267149Y-69586680D01*
X73252726Y-69621500D01*
X73224631Y-69612823D01*
X73107750Y-69603000D01*
X72949000Y-69761750D01*
X72949000Y-70861000D01*
X72969000Y-70861000D01*
X72969000Y-71115000D01*
X72949000Y-71115000D01*
X72949000Y-71135000D01*
X72793250Y-71135000D01*
X72773250Y-71115000D01*
X72070750Y-71115000D01*
X71912000Y-71273750D01*
X71908936Y-71734787D01*
X71920570Y-71859329D01*
X71956276Y-71979208D01*
X72014684Y-72089818D01*
X72048727Y-72131728D01*
X72046000Y-72145436D01*
X72046000Y-72254564D01*
X72067289Y-72361596D01*
X72109051Y-72462418D01*
X72169680Y-72553155D01*
X72239013Y-72622488D01*
X72241389Y-72630320D01*
X72246299Y-72646507D01*
X72281678Y-72712696D01*
X72285955Y-72717907D01*
X72329289Y-72770711D01*
X72343831Y-72782645D01*
X72569001Y-73007816D01*
X72569000Y-73949719D01*
X72409727Y-74108993D01*
X72395191Y-74120922D01*
X72383262Y-74135458D01*
X72347579Y-74178937D01*
X72312200Y-74245126D01*
X72307839Y-74259503D01*
X72290415Y-74316944D01*
X72290091Y-74320230D01*
X72283058Y-74391633D01*
X72284902Y-74410353D01*
X72284901Y-74989182D01*
X72267247Y-75006836D01*
X72226178Y-75056877D01*
X72195662Y-75113969D01*
X72176870Y-75175918D01*
X72170525Y-75240342D01*
X72173073Y-75266215D01*
X72147200Y-75263667D01*
X72082776Y-75270012D01*
X72020827Y-75288804D01*
X71963735Y-75319320D01*
X71913694Y-75360389D01*
X71807628Y-75466455D01*
X71766559Y-75516496D01*
X71736043Y-75573588D01*
X71717251Y-75635537D01*
X71710906Y-75699961D01*
X71713454Y-75725834D01*
X71687580Y-75723286D01*
X71623156Y-75729631D01*
X71561207Y-75748423D01*
X71504115Y-75778939D01*
X71460216Y-75814967D01*
X71366500Y-75784218D01*
X71242325Y-75769157D01*
X71117599Y-75778613D01*
X70997115Y-75812219D01*
X70885500Y-75868685D01*
X70801399Y-75935605D01*
X70801399Y-76160111D01*
X71322360Y-76681072D01*
X71410042Y-76593391D01*
X71589647Y-76772996D01*
X71501965Y-76860677D01*
X71516108Y-76874820D01*
X71483581Y-76907347D01*
X71469438Y-76893204D01*
X71381757Y-76980886D01*
X71202152Y-76801281D01*
X71289833Y-76713599D01*
X70768872Y-76192638D01*
X70544366Y-76192638D01*
X70481000Y-76272273D01*
X70481000Y-75507814D01*
X71382640Y-74606175D01*
X71382644Y-74606170D01*
X71508195Y-74480619D01*
X71625738Y-74504000D01*
X71774262Y-74504000D01*
X71919934Y-74475024D01*
X72057153Y-74418186D01*
X72180647Y-74335670D01*
X72285670Y-74230647D01*
X72368186Y-74107153D01*
X72425024Y-73969934D01*
X72454000Y-73824262D01*
X72454000Y-73675738D01*
X72425024Y-73530066D01*
X72368186Y-73392847D01*
X72285670Y-73269353D01*
X72180647Y-73164330D01*
X72057153Y-73081814D01*
X71919934Y-73024976D01*
X71774262Y-72996000D01*
X71625738Y-72996000D01*
X71480066Y-73024976D01*
X71342847Y-73081814D01*
X71219353Y-73164330D01*
X71114330Y-73269353D01*
X71031814Y-73392847D01*
X70974976Y-73530066D01*
X70946000Y-73675738D01*
X70946000Y-73824262D01*
X70969381Y-73941805D01*
X70843830Y-74067356D01*
X70843825Y-74067360D01*
X69843827Y-75067359D01*
X69829290Y-75079289D01*
X69813523Y-75098501D01*
X69781678Y-75137304D01*
X69746299Y-75203493D01*
X69735122Y-75240342D01*
X69725872Y-75270836D01*
X69724514Y-75275312D01*
X69717157Y-75350000D01*
X69719001Y-75368720D01*
X69719000Y-76603899D01*
X69717157Y-76622609D01*
X69719000Y-76641319D01*
X69719000Y-76641321D01*
X69724513Y-76697297D01*
X69745347Y-76765977D01*
X69746299Y-76769116D01*
X69781678Y-76835305D01*
X69789892Y-76845313D01*
X69829289Y-76893320D01*
X69843831Y-76905254D01*
X70109393Y-77170817D01*
X70075216Y-77198867D01*
X69969150Y-77304933D01*
X69928081Y-77354974D01*
X69897565Y-77412066D01*
X69878773Y-77474015D01*
X69872428Y-77538439D01*
X69878773Y-77602863D01*
X69897565Y-77664812D01*
X69928081Y-77721904D01*
X69969150Y-77771945D01*
X70411092Y-78213887D01*
X70458747Y-78252998D01*
X70431920Y-78341435D01*
X70422212Y-78440000D01*
X70431920Y-78538565D01*
X70458747Y-78627002D01*
X70411092Y-78666113D01*
X69969150Y-79108055D01*
X69928081Y-79158096D01*
X69897565Y-79215188D01*
X69878773Y-79277137D01*
X69872428Y-79341561D01*
X69878773Y-79405985D01*
X69897565Y-79467934D01*
X69928081Y-79525026D01*
X69969150Y-79575067D01*
X70075216Y-79681133D01*
X70125257Y-79722202D01*
X70182349Y-79752718D01*
X70244298Y-79771510D01*
X70308722Y-79777855D01*
X70334596Y-79775307D01*
X70332048Y-79801181D01*
X70338393Y-79865605D01*
X70357185Y-79927554D01*
X70387701Y-79984646D01*
X70423728Y-80028544D01*
X70392979Y-80122261D01*
X70377918Y-80246436D01*
X70387374Y-80371162D01*
X70420980Y-80491646D01*
X70477446Y-80603261D01*
X70544366Y-80687362D01*
X70768872Y-80687362D01*
X71289833Y-80166401D01*
X71202152Y-80078720D01*
X71381757Y-79899115D01*
X71469438Y-79986796D01*
X71483581Y-79972654D01*
X71516108Y-80005181D01*
X71501965Y-80019323D01*
X71589647Y-80107005D01*
X71410042Y-80286610D01*
X71322360Y-80198928D01*
X70801399Y-80719889D01*
X70801399Y-80819000D01*
X70588558Y-80819000D01*
X70574182Y-80801483D01*
X70264823Y-80492124D01*
X70192998Y-80433179D01*
X70111054Y-80389378D01*
X70022139Y-80362406D01*
X69929670Y-80353299D01*
X69837201Y-80362406D01*
X69748286Y-80389378D01*
X69696092Y-80417277D01*
X68867020Y-79588206D01*
X68867020Y-76491821D01*
X68875487Y-76463909D01*
X68881000Y-76407933D01*
X68881000Y-76407930D01*
X68882843Y-76389220D01*
X68881000Y-76370510D01*
X68881000Y-72957814D01*
X69845588Y-71993228D01*
X69865066Y-71993228D01*
X69852485Y-72023600D01*
X69831196Y-72130632D01*
X69831196Y-72239760D01*
X69852485Y-72346792D01*
X69894247Y-72447614D01*
X69954876Y-72538351D01*
X70032041Y-72615516D01*
X70122778Y-72676145D01*
X70223600Y-72717907D01*
X70330632Y-72739196D01*
X70439760Y-72739196D01*
X70546792Y-72717907D01*
X70647614Y-72676145D01*
X70738351Y-72615516D01*
X70785196Y-72568671D01*
X70846845Y-72630320D01*
X70937582Y-72690949D01*
X71038404Y-72732711D01*
X71145436Y-72754000D01*
X71254564Y-72754000D01*
X71361596Y-72732711D01*
X71462418Y-72690949D01*
X71553155Y-72630320D01*
X71630320Y-72553155D01*
X71690949Y-72462418D01*
X71728265Y-72372329D01*
X71736250Y-72373000D01*
X71895000Y-72214250D01*
X71895000Y-71115000D01*
X71875000Y-71115000D01*
X71875000Y-70861000D01*
X71895000Y-70861000D01*
X71895000Y-70241213D01*
X71908936Y-70241213D01*
X71912000Y-70702250D01*
X72070750Y-70861000D01*
X72773250Y-70861000D01*
X72932000Y-70702250D01*
X72935064Y-70241213D01*
X72923430Y-70116671D01*
X72887724Y-69996792D01*
X72829316Y-69886182D01*
X72750451Y-69789092D01*
X72654161Y-69709254D01*
X72628764Y-69695514D01*
X72536250Y-69603000D01*
X72422000Y-69612602D01*
X72307750Y-69603000D01*
X72215236Y-69695514D01*
X72189839Y-69709254D01*
X72093549Y-69789092D01*
X72014684Y-69886182D01*
X71956276Y-69996792D01*
X71920570Y-70116671D01*
X71908936Y-70241213D01*
X71895000Y-70241213D01*
X71895000Y-69761750D01*
X71736250Y-69603000D01*
X71619369Y-69612823D01*
X71499855Y-69649735D01*
X71389839Y-69709254D01*
X71293549Y-69789092D01*
X71214684Y-69886182D01*
X71163679Y-69982772D01*
X70947000Y-69982772D01*
X70897207Y-69987676D01*
X70849328Y-70002200D01*
X70822000Y-70016808D01*
X70794672Y-70002200D01*
X70746793Y-69987676D01*
X70697000Y-69982772D01*
X70147000Y-69982772D01*
X70097207Y-69987676D01*
X70049328Y-70002200D01*
X70022000Y-70016808D01*
X69994672Y-70002200D01*
X69946793Y-69987676D01*
X69897000Y-69982772D01*
X69347000Y-69982772D01*
X69297207Y-69987676D01*
X69249328Y-70002200D01*
X69222000Y-70016808D01*
X69194672Y-70002200D01*
X69146793Y-69987676D01*
X69097000Y-69982772D01*
X68547000Y-69982772D01*
X68497207Y-69987676D01*
X68449328Y-70002200D01*
X68405203Y-70025786D01*
X68366527Y-70057527D01*
X68334786Y-70096203D01*
X68311200Y-70140328D01*
X68296676Y-70188207D01*
X68291772Y-70238000D01*
X68291772Y-70979412D01*
X67443832Y-71827354D01*
X67429289Y-71839289D01*
X67397782Y-71877681D01*
X67381678Y-71897304D01*
X67354200Y-71948711D01*
X67346299Y-71963493D01*
X67324513Y-72035312D01*
X67319475Y-72086467D01*
X67317157Y-72110000D01*
X64081000Y-72110000D01*
X64081000Y-69757814D01*
X67757814Y-66081001D01*
X68251258Y-66081001D01*
X68267289Y-66161596D01*
X68309051Y-66262418D01*
X68333381Y-66298831D01*
X68311200Y-66340328D01*
X68296676Y-66388207D01*
X68291772Y-66438000D01*
X68291772Y-67308650D01*
X68208101Y-67252743D01*
X68098180Y-67207212D01*
X67981489Y-67184000D01*
X67862511Y-67184000D01*
X67745820Y-67207212D01*
X67635899Y-67252743D01*
X67536973Y-67318843D01*
X67452843Y-67402973D01*
X67386743Y-67501899D01*
X67341212Y-67611820D01*
X67318000Y-67728511D01*
X67318000Y-67847489D01*
X67341212Y-67964180D01*
X67386743Y-68074101D01*
X67452843Y-68173027D01*
X67536973Y-68257157D01*
X67635899Y-68323257D01*
X67745820Y-68368788D01*
X67862511Y-68392000D01*
X67981489Y-68392000D01*
X68098180Y-68368788D01*
X68208101Y-68323257D01*
X68307027Y-68257157D01*
X68391157Y-68173027D01*
X68406085Y-68150685D01*
X68449328Y-68173800D01*
X68497207Y-68188324D01*
X68547000Y-68193228D01*
X69097000Y-68193228D01*
X69146793Y-68188324D01*
X69194672Y-68173800D01*
X69222000Y-68159192D01*
X69249328Y-68173800D01*
X69297207Y-68188324D01*
X69347000Y-68193228D01*
X69897000Y-68193228D01*
X69946793Y-68188324D01*
X69994672Y-68173800D01*
X70022000Y-68159192D01*
X70049328Y-68173800D01*
X70097207Y-68188324D01*
X70147000Y-68193228D01*
X70697000Y-68193228D01*
X70746793Y-68188324D01*
X70794672Y-68173800D01*
X70822000Y-68159192D01*
X70849328Y-68173800D01*
X70897207Y-68188324D01*
X70947000Y-68193228D01*
X71497000Y-68193228D01*
X71546793Y-68188324D01*
X71594672Y-68173800D01*
X71622000Y-68159192D01*
X71649328Y-68173800D01*
X71697207Y-68188324D01*
X71747000Y-68193228D01*
X72297000Y-68193228D01*
X72346793Y-68188324D01*
X72394672Y-68173800D01*
X72422000Y-68159192D01*
X72449328Y-68173800D01*
X72497207Y-68188324D01*
X72547000Y-68193228D01*
X72763679Y-68193228D01*
X72814684Y-68289818D01*
X72893549Y-68386908D01*
X72989839Y-68466746D01*
X73099855Y-68526265D01*
X73219369Y-68563177D01*
X73336250Y-68573000D01*
X73495000Y-68414250D01*
X73495000Y-67934787D01*
X73508936Y-67934787D01*
X73520570Y-68059329D01*
X73556276Y-68179208D01*
X73614684Y-68289818D01*
X73693549Y-68386908D01*
X73789839Y-68466746D01*
X73815236Y-68480486D01*
X73907750Y-68573000D01*
X74022000Y-68563398D01*
X74136250Y-68573000D01*
X74228764Y-68480486D01*
X74254161Y-68466746D01*
X74350451Y-68386908D01*
X74429316Y-68289818D01*
X74487724Y-68179208D01*
X74523430Y-68059329D01*
X74535064Y-67934787D01*
X74532000Y-67473750D01*
X74373250Y-67315000D01*
X73670750Y-67315000D01*
X73512000Y-67473750D01*
X73508936Y-67934787D01*
X73495000Y-67934787D01*
X73495000Y-67315000D01*
X73475000Y-67315000D01*
X73475000Y-67061000D01*
X73495000Y-67061000D01*
X73495000Y-66441213D01*
X73508936Y-66441213D01*
X73512000Y-66902250D01*
X73670750Y-67061000D01*
X74373250Y-67061000D01*
X74532000Y-66902250D01*
X74535064Y-66441213D01*
X74523430Y-66316671D01*
X74487724Y-66196792D01*
X74429316Y-66086182D01*
X74350451Y-65989092D01*
X74317475Y-65961750D01*
X74549000Y-65961750D01*
X74549000Y-67061000D01*
X74569000Y-67061000D01*
X74569000Y-67315000D01*
X74549000Y-67315000D01*
X74549000Y-68414250D01*
X74707750Y-68573000D01*
X74824631Y-68563177D01*
X74944145Y-68526265D01*
X75054161Y-68466746D01*
X75150451Y-68386908D01*
X75229316Y-68289818D01*
X75280321Y-68193228D01*
X75497000Y-68193228D01*
X75546793Y-68188324D01*
X75594672Y-68173800D01*
X75622000Y-68159192D01*
X75649328Y-68173800D01*
X75697207Y-68188324D01*
X75747000Y-68193228D01*
X76297000Y-68193228D01*
X76346793Y-68188324D01*
X76394672Y-68173800D01*
X76422000Y-68159192D01*
X76449328Y-68173800D01*
X76497207Y-68188324D01*
X76547000Y-68193228D01*
X77097000Y-68193228D01*
X77146793Y-68188324D01*
X77194672Y-68173800D01*
X77222000Y-68159192D01*
X77249328Y-68173800D01*
X77297207Y-68188324D01*
X77347000Y-68193228D01*
X77897000Y-68193228D01*
X77946793Y-68188324D01*
X77994672Y-68173800D01*
X78022000Y-68159192D01*
X78049328Y-68173800D01*
X78097207Y-68188324D01*
X78147000Y-68193228D01*
X78697000Y-68193228D01*
X78746793Y-68188324D01*
X78794672Y-68173800D01*
X78822000Y-68159192D01*
X78849328Y-68173800D01*
X78897207Y-68188324D01*
X78947000Y-68193228D01*
X79497000Y-68193228D01*
X79546793Y-68188324D01*
X79594672Y-68173800D01*
X79622000Y-68159192D01*
X79649328Y-68173800D01*
X79697207Y-68188324D01*
X79747000Y-68193228D01*
X80297000Y-68193228D01*
X80346793Y-68188324D01*
X80394672Y-68173800D01*
X80438797Y-68150214D01*
X80477473Y-68118473D01*
X80509214Y-68079797D01*
X80532800Y-68035672D01*
X80547324Y-67987793D01*
X80552228Y-67938000D01*
X80552228Y-66438000D01*
X80547324Y-66388207D01*
X80532800Y-66340328D01*
X80509214Y-66296203D01*
X80486703Y-66268773D01*
X80490949Y-66262418D01*
X80532711Y-66161596D01*
X80554000Y-66054564D01*
X80554000Y-65945436D01*
X80532711Y-65838404D01*
X80490949Y-65737582D01*
X80430320Y-65646845D01*
X80353155Y-65569680D01*
X80262418Y-65509051D01*
X80161596Y-65467289D01*
X80054564Y-65446000D01*
X79945436Y-65446000D01*
X79838404Y-65467289D01*
X79737582Y-65509051D01*
X79646845Y-65569680D01*
X79600000Y-65616525D01*
X79553155Y-65569680D01*
X79462418Y-65509051D01*
X79361596Y-65467289D01*
X79254564Y-65446000D01*
X79145436Y-65446000D01*
X79038404Y-65467289D01*
X78937582Y-65509051D01*
X78846845Y-65569680D01*
X78800000Y-65616525D01*
X78753155Y-65569680D01*
X78662418Y-65509051D01*
X78561596Y-65467289D01*
X78454564Y-65446000D01*
X78345436Y-65446000D01*
X78238404Y-65467289D01*
X78137582Y-65509051D01*
X78046845Y-65569680D01*
X78000000Y-65616525D01*
X77953155Y-65569680D01*
X77862418Y-65509051D01*
X77761596Y-65467289D01*
X77654564Y-65446000D01*
X77545436Y-65446000D01*
X77438404Y-65467289D01*
X77337582Y-65509051D01*
X77246845Y-65569680D01*
X77200000Y-65616525D01*
X77153155Y-65569680D01*
X77062418Y-65509051D01*
X76961596Y-65467289D01*
X76854564Y-65446000D01*
X76745436Y-65446000D01*
X76638404Y-65467289D01*
X76537582Y-65509051D01*
X76446845Y-65569680D01*
X76400000Y-65616525D01*
X76353155Y-65569680D01*
X76262418Y-65509051D01*
X76161596Y-65467289D01*
X76054564Y-65446000D01*
X75945436Y-65446000D01*
X75838404Y-65467289D01*
X75737582Y-65509051D01*
X75646845Y-65569680D01*
X75600000Y-65616525D01*
X75553155Y-65569680D01*
X75462418Y-65509051D01*
X75361596Y-65467289D01*
X75254564Y-65446000D01*
X75145436Y-65446000D01*
X75038404Y-65467289D01*
X74937582Y-65509051D01*
X74846845Y-65569680D01*
X74769680Y-65646845D01*
X74709051Y-65737582D01*
X74667289Y-65838404D01*
X74666033Y-65844717D01*
X74549000Y-65961750D01*
X74317475Y-65961750D01*
X74254161Y-65909254D01*
X74228764Y-65895514D01*
X74136250Y-65803000D01*
X74022000Y-65812602D01*
X73907750Y-65803000D01*
X73815236Y-65895514D01*
X73789839Y-65909254D01*
X73693549Y-65989092D01*
X73614684Y-66086182D01*
X73556276Y-66196792D01*
X73520570Y-66316671D01*
X73508936Y-66441213D01*
X73495000Y-66441213D01*
X73495000Y-65961750D01*
X73336250Y-65803000D01*
X73318659Y-65804478D01*
X73290949Y-65737582D01*
X73230320Y-65646845D01*
X73153155Y-65569680D01*
X73062418Y-65509051D01*
X72961596Y-65467289D01*
X72854564Y-65446000D01*
X72745436Y-65446000D01*
X72638404Y-65467289D01*
X72537582Y-65509051D01*
X72446845Y-65569680D01*
X72400000Y-65616525D01*
X72353155Y-65569680D01*
X72262418Y-65509051D01*
X72161596Y-65467289D01*
X72054564Y-65446000D01*
X71945436Y-65446000D01*
X71838404Y-65467289D01*
X71737582Y-65509051D01*
X71646845Y-65569680D01*
X71600000Y-65616525D01*
X71553155Y-65569680D01*
X71462418Y-65509051D01*
X71361596Y-65467289D01*
X71254564Y-65446000D01*
X71145436Y-65446000D01*
X71038404Y-65467289D01*
X70937582Y-65509051D01*
X70846845Y-65569680D01*
X70800000Y-65616525D01*
X70753155Y-65569680D01*
X70662418Y-65509051D01*
X70561596Y-65467289D01*
X70454564Y-65446000D01*
X70345436Y-65446000D01*
X70238404Y-65467289D01*
X70137582Y-65509051D01*
X70046845Y-65569680D01*
X70000000Y-65616525D01*
X69953155Y-65569680D01*
X69862418Y-65509051D01*
X69761596Y-65467289D01*
X69654564Y-65446000D01*
X69545436Y-65446000D01*
X69438404Y-65467289D01*
X69337582Y-65509051D01*
X69246845Y-65569680D01*
X69200000Y-65616525D01*
X69153155Y-65569680D01*
X69062418Y-65509051D01*
X68961596Y-65467289D01*
X68854564Y-65446000D01*
X68784814Y-65446000D01*
X68782646Y-65443832D01*
X68770712Y-65429290D01*
X68712697Y-65381679D01*
X68646509Y-65346300D01*
X68574690Y-65324514D01*
X68518714Y-65319001D01*
X68518711Y-65319001D01*
X68500001Y-65317158D01*
X68481291Y-65319001D01*
X67618701Y-65319001D01*
X67599998Y-65317159D01*
X67581295Y-65319001D01*
X67581286Y-65319001D01*
X67525310Y-65324514D01*
X67453491Y-65346300D01*
X67414224Y-65367289D01*
X67387302Y-65381679D01*
X67374535Y-65392157D01*
X67329288Y-65429290D01*
X67317358Y-65443827D01*
X63443832Y-69317354D01*
X63429289Y-69329289D01*
X63405605Y-69358149D01*
X63381678Y-69387304D01*
X63364855Y-69418778D01*
X63346299Y-69453493D01*
X63324513Y-69525312D01*
X63321357Y-69557360D01*
X63317157Y-69600000D01*
X63250472Y-69600000D01*
X63249453Y-65720436D01*
X63821000Y-65720436D01*
X63821000Y-65829564D01*
X63842289Y-65936596D01*
X63884051Y-66037418D01*
X63944680Y-66128155D01*
X64021845Y-66205320D01*
X64112582Y-66265949D01*
X64213404Y-66307711D01*
X64320436Y-66329000D01*
X64340188Y-66329000D01*
X64671002Y-66659815D01*
X64671002Y-66729564D01*
X64692291Y-66836596D01*
X64734053Y-66937418D01*
X64794682Y-67028155D01*
X64871847Y-67105320D01*
X64962584Y-67165949D01*
X65063406Y-67207711D01*
X65170438Y-67229000D01*
X65279566Y-67229000D01*
X65386598Y-67207711D01*
X65487420Y-67165949D01*
X65578157Y-67105320D01*
X65655322Y-67028155D01*
X65715951Y-66937418D01*
X65757713Y-66836596D01*
X65779002Y-66729564D01*
X65779002Y-66620436D01*
X65757713Y-66513404D01*
X65715951Y-66412582D01*
X65706820Y-66398917D01*
X65788406Y-66432711D01*
X65895438Y-66454000D01*
X66004566Y-66454000D01*
X66111598Y-66432711D01*
X66212420Y-66390949D01*
X66303157Y-66330320D01*
X66380322Y-66253155D01*
X66440951Y-66162418D01*
X66482713Y-66061596D01*
X66504002Y-65954564D01*
X66504002Y-65845436D01*
X66482713Y-65738404D01*
X66440951Y-65637582D01*
X66380322Y-65546845D01*
X66303157Y-65469680D01*
X66212420Y-65409051D01*
X66111598Y-65367289D01*
X66004566Y-65346000D01*
X65934817Y-65346000D01*
X65654000Y-65065184D01*
X65654000Y-64970436D01*
X65632711Y-64863404D01*
X65590949Y-64762582D01*
X65530320Y-64671845D01*
X65453155Y-64594680D01*
X65362418Y-64534051D01*
X65261596Y-64492289D01*
X65154564Y-64471000D01*
X65045436Y-64471000D01*
X64938404Y-64492289D01*
X64837582Y-64534051D01*
X64746845Y-64594680D01*
X64669680Y-64671845D01*
X64609051Y-64762582D01*
X64567289Y-64863404D01*
X64546000Y-64970436D01*
X64546000Y-65079564D01*
X64567289Y-65186596D01*
X64601492Y-65269170D01*
X64536596Y-65242289D01*
X64429564Y-65221000D01*
X64320436Y-65221000D01*
X64213404Y-65242289D01*
X64112582Y-65284051D01*
X64021845Y-65344680D01*
X63944680Y-65421845D01*
X63884051Y-65512582D01*
X63842289Y-65613404D01*
X63821000Y-65720436D01*
X63249453Y-65720436D01*
X63249073Y-64278718D01*
X82530991Y-64259281D01*
X82530084Y-90377010D01*
G36*
X75814610Y-80997959D02*
G01*
X75726928Y-81085640D01*
X76247889Y-81606601D01*
X76472395Y-81606601D01*
X76539315Y-81522500D01*
X76595781Y-81410885D01*
X76629387Y-81290401D01*
X76638843Y-81165675D01*
X76623782Y-81041500D01*
X76593033Y-80947784D01*
X76616041Y-80919749D01*
X76752466Y-81056174D01*
X76764396Y-81070711D01*
X76786532Y-81088877D01*
X76822410Y-81118322D01*
X76856673Y-81136636D01*
X76888599Y-81153701D01*
X76960418Y-81175487D01*
X77016394Y-81181000D01*
X77016396Y-81181000D01*
X77035106Y-81182843D01*
X77053816Y-81181000D01*
X77097525Y-81181000D01*
X77146845Y-81230320D01*
X77237582Y-81290949D01*
X77338404Y-81332711D01*
X77445436Y-81354000D01*
X77554564Y-81354000D01*
X77661596Y-81332711D01*
X77762418Y-81290949D01*
X77819001Y-81253141D01*
X77819001Y-81367746D01*
X77817157Y-81386466D01*
X77823712Y-81453008D01*
X77824514Y-81461155D01*
X77827740Y-81471789D01*
X77846299Y-81532973D01*
X77881678Y-81599162D01*
X77896565Y-81617301D01*
X77909901Y-81633551D01*
X77909902Y-82851283D01*
X77752931Y-83008254D01*
X77746576Y-82943735D01*
X77710267Y-82824037D01*
X77651303Y-82713722D01*
X77571950Y-82617031D01*
X77563237Y-82612663D01*
X77338730Y-82612663D01*
X76865499Y-83085894D01*
X76879642Y-83100037D01*
X76700037Y-83279642D01*
X76685894Y-83265499D01*
X76671752Y-83279642D01*
X76492147Y-83100037D01*
X76506289Y-83085894D01*
X76492147Y-83071752D01*
X76671752Y-82892147D01*
X76685894Y-82906289D01*
X77159125Y-82433058D01*
X77159125Y-82208551D01*
X77154757Y-82199838D01*
X77058066Y-82120485D01*
X76947751Y-82061521D01*
X76828053Y-82025212D01*
X76703572Y-82012951D01*
X76579090Y-82025212D01*
X76471380Y-82057884D01*
X76302450Y-81888954D01*
X76241422Y-81838870D01*
X76215362Y-81824941D01*
X76215362Y-81639128D01*
X75694401Y-81118167D01*
X75606720Y-81205849D01*
X75427115Y-81026244D01*
X75514796Y-80938562D01*
X75500654Y-80924420D01*
X75533181Y-80891893D01*
X75547323Y-80906035D01*
X75635005Y-80818354D01*
X75814610Y-80997959D01*
X75814610Y-80997959D01*
G37*
X75814610Y-80997959D02*
X75726928Y-81085640D01*
X76247889Y-81606601D01*
X76472395Y-81606601D01*
X76539315Y-81522500D01*
X76595781Y-81410885D01*
X76629387Y-81290401D01*
X76638843Y-81165675D01*
X76623782Y-81041500D01*
X76593033Y-80947784D01*
X76616041Y-80919749D01*
X76752466Y-81056174D01*
X76764396Y-81070711D01*
X76786532Y-81088877D01*
X76822410Y-81118322D01*
X76856673Y-81136636D01*
X76888599Y-81153701D01*
X76960418Y-81175487D01*
X77016394Y-81181000D01*
X77016396Y-81181000D01*
X77035106Y-81182843D01*
X77053816Y-81181000D01*
X77097525Y-81181000D01*
X77146845Y-81230320D01*
X77237582Y-81290949D01*
X77338404Y-81332711D01*
X77445436Y-81354000D01*
X77554564Y-81354000D01*
X77661596Y-81332711D01*
X77762418Y-81290949D01*
X77819001Y-81253141D01*
X77819001Y-81367746D01*
X77817157Y-81386466D01*
X77823712Y-81453008D01*
X77824514Y-81461155D01*
X77827740Y-81471789D01*
X77846299Y-81532973D01*
X77881678Y-81599162D01*
X77896565Y-81617301D01*
X77909901Y-81633551D01*
X77909902Y-82851283D01*
X77752931Y-83008254D01*
X77746576Y-82943735D01*
X77710267Y-82824037D01*
X77651303Y-82713722D01*
X77571950Y-82617031D01*
X77563237Y-82612663D01*
X77338730Y-82612663D01*
X76865499Y-83085894D01*
X76879642Y-83100037D01*
X76700037Y-83279642D01*
X76685894Y-83265499D01*
X76671752Y-83279642D01*
X76492147Y-83100037D01*
X76506289Y-83085894D01*
X76492147Y-83071752D01*
X76671752Y-82892147D01*
X76685894Y-82906289D01*
X77159125Y-82433058D01*
X77159125Y-82208551D01*
X77154757Y-82199838D01*
X77058066Y-82120485D01*
X76947751Y-82061521D01*
X76828053Y-82025212D01*
X76703572Y-82012951D01*
X76579090Y-82025212D01*
X76471380Y-82057884D01*
X76302450Y-81888954D01*
X76241422Y-81838870D01*
X76215362Y-81824941D01*
X76215362Y-81639128D01*
X75694401Y-81118167D01*
X75606720Y-81205849D01*
X75427115Y-81026244D01*
X75514796Y-80938562D01*
X75500654Y-80924420D01*
X75533181Y-80891893D01*
X75547323Y-80906035D01*
X75635005Y-80818354D01*
X75814610Y-80997959D01*
G36*
X78669716Y-75490038D02*
G01*
X78669716Y-75509889D01*
X78665499Y-75514106D01*
X78669716Y-75518323D01*
X78669716Y-75520290D01*
X78674084Y-75529003D01*
X78676722Y-75531168D01*
X78500037Y-75707854D01*
X78485894Y-75693711D01*
X78471752Y-75707854D01*
X78292147Y-75528249D01*
X78306289Y-75514106D01*
X78292147Y-75499964D01*
X78471752Y-75320359D01*
X78485894Y-75334501D01*
X78500037Y-75320359D01*
X78669716Y-75490038D01*
X78669716Y-75490038D01*
G37*
X78669716Y-75490038D02*
X78669716Y-75509889D01*
X78665499Y-75514106D01*
X78669716Y-75518323D01*
X78669716Y-75520290D01*
X78674084Y-75529003D01*
X78676722Y-75531168D01*
X78500037Y-75707854D01*
X78485894Y-75693711D01*
X78471752Y-75707854D01*
X78292147Y-75528249D01*
X78306289Y-75514106D01*
X78292147Y-75499964D01*
X78471752Y-75320359D01*
X78485894Y-75334501D01*
X78500037Y-75320359D01*
X78669716Y-75490038D01*
M02*
