G04 #@! TF.GenerationSoftware,KiCad,Pcbnew,(5.1.2)-2*
G04 #@! TF.CreationDate,2020-01-30T12:23:50+01:00*
G04 #@! TF.ProjectId,ACM-pcb,41434d2d-7063-4622-9e6b-696361645f70,rev?*
G04 #@! TF.SameCoordinates,Original*
G04 #@! TF.FileFunction,Legend,Bot*
G04 #@! TF.FilePolarity,Positive*
%FSLAX46Y46*%
G04 Gerber Fmt 4.6, Leading zero omitted, Abs format (unit mm)*
G04 Created by KiCad (PCBNEW (5.1.2)-2) date 2020-01-30 12:23:50*
%MOMM*%
%LPD*%
G04 APERTURE LIST*
%ADD10C,0.150000*%
%ADD11C,0.100000*%
%ADD12C,0.120000*%
%ADD13C,0.250000*%
%ADD14C,0.254000*%
G04 APERTURE END LIST*
D10*
X64895238Y-81177619D02*
X64847619Y-81034761D01*
X64847619Y-80796666D01*
X64895238Y-80701428D01*
X64942857Y-80653809D01*
X65038095Y-80606190D01*
X65133333Y-80606190D01*
X65228571Y-80653809D01*
X65276190Y-80701428D01*
X65323809Y-80796666D01*
X65371428Y-80987142D01*
X65419047Y-81082380D01*
X65466666Y-81130000D01*
X65561904Y-81177619D01*
X65657142Y-81177619D01*
X65752380Y-81130000D01*
X65800000Y-81082380D01*
X65847619Y-80987142D01*
X65847619Y-80749047D01*
X65800000Y-80606190D01*
X64847619Y-80177619D02*
X65847619Y-80177619D01*
X64847619Y-79606190D01*
X65847619Y-79606190D01*
X64942857Y-79130000D02*
X64895238Y-79082380D01*
X64847619Y-79130000D01*
X64895238Y-79177619D01*
X64942857Y-79130000D01*
X64847619Y-79130000D01*
X65466666Y-79130000D02*
X65419047Y-79082380D01*
X65371428Y-79130000D01*
X65419047Y-79177619D01*
X65466666Y-79130000D01*
X65371428Y-79130000D01*
D11*
G36*
X66060000Y-78710000D02*
G01*
X64460000Y-78710000D01*
X64460000Y-71710000D01*
X66060000Y-71710000D01*
X66060000Y-78710000D01*
G37*
X66060000Y-78710000D02*
X64460000Y-78710000D01*
X64460000Y-71710000D01*
X66060000Y-71710000D01*
X66060000Y-78710000D01*
D10*
X67236530Y-81304348D02*
X67118679Y-81186497D01*
X67825786Y-80479390D01*
X67943637Y-80597241D01*
X68179339Y-80927224D02*
X68273620Y-81021505D01*
X68297190Y-81092216D01*
X68297190Y-81186497D01*
X68226480Y-81304348D01*
X68061488Y-81469339D01*
X67943637Y-81540050D01*
X67849356Y-81540050D01*
X67778645Y-81516480D01*
X67684365Y-81422199D01*
X67660794Y-81351488D01*
X67660794Y-81257207D01*
X67731505Y-81139356D01*
X67896497Y-80974365D01*
X68014348Y-80903654D01*
X68108629Y-80903654D01*
X68179339Y-80927224D01*
X68438612Y-81516480D02*
X67943637Y-82011455D01*
X68415042Y-81540050D02*
X68485752Y-81563620D01*
X68580033Y-81657901D01*
X68603603Y-81728612D01*
X68603603Y-81775752D01*
X68580033Y-81846463D01*
X68438612Y-81987884D01*
X68367901Y-82011455D01*
X68320761Y-82011455D01*
X68250050Y-81987884D01*
X68155769Y-81893603D01*
X68132199Y-81822893D01*
X68815735Y-81893603D02*
X69004297Y-82082165D01*
X69051438Y-81799322D02*
X68627174Y-82223587D01*
X68603603Y-82294297D01*
X68627174Y-82365008D01*
X68674314Y-82412148D01*
X68839306Y-82577140D02*
X69169289Y-82247157D01*
X69334280Y-82082165D02*
X69287140Y-82082165D01*
X69287140Y-82129306D01*
X69334280Y-82129306D01*
X69334280Y-82082165D01*
X69287140Y-82129306D01*
X69145719Y-82883553D02*
X69122148Y-82812842D01*
X69122148Y-82765702D01*
X69145719Y-82694991D01*
X69287140Y-82553570D01*
X69357851Y-82530000D01*
X69404991Y-82530000D01*
X69475702Y-82553570D01*
X69546412Y-82624280D01*
X69569983Y-82694991D01*
X69569983Y-82742132D01*
X69546412Y-82812842D01*
X69404991Y-82954264D01*
X69334280Y-82977834D01*
X69287140Y-82977834D01*
X69216429Y-82954264D01*
X69145719Y-82883553D01*
X69852825Y-82930693D02*
X69522842Y-83260677D01*
X69805685Y-82977834D02*
X69852825Y-82977834D01*
X69923536Y-83001404D01*
X69994247Y-83072115D01*
X70017817Y-83142825D01*
X69994247Y-83213536D01*
X69734974Y-83472809D01*
X70182809Y-83920643D02*
X70442081Y-83661370D01*
X70465651Y-83590660D01*
X70442081Y-83519949D01*
X70347800Y-83425668D01*
X70277089Y-83402098D01*
X70206379Y-83897073D02*
X70135668Y-83873502D01*
X70017817Y-83755651D01*
X69994247Y-83684941D01*
X70017817Y-83614230D01*
X70064957Y-83567089D01*
X70135668Y-83543519D01*
X70206379Y-83567089D01*
X70324230Y-83684941D01*
X70394941Y-83708511D01*
X70489221Y-84227056D02*
X70465651Y-84156345D01*
X70489221Y-84085634D01*
X70913486Y-83661370D01*
X70465651Y-84533469D02*
X70583502Y-84651320D01*
X71290609Y-83944213D01*
X71172758Y-83826362D01*
D11*
X71622000Y-70688000D02*
X72422000Y-70688000D01*
X71622000Y-68588000D02*
X71622000Y-70688000D01*
X77222000Y-67488000D02*
X77222000Y-69588000D01*
X76422000Y-67488000D02*
X77222000Y-67488000D01*
D12*
X77835874Y-78970330D02*
X78366204Y-78440000D01*
X78366204Y-78440000D02*
X77835874Y-77909670D01*
X70100126Y-77909670D02*
X69569796Y-78440000D01*
X69569796Y-78440000D02*
X70100126Y-78970330D01*
X73437670Y-74572126D02*
X73968000Y-74041796D01*
X73968000Y-74041796D02*
X74498330Y-74572126D01*
X74498330Y-82307874D02*
X73968000Y-82838204D01*
D13*
X74068000Y-82852346D02*
G75*
G03X74068000Y-82852346I-100000J0D01*
G01*
D12*
X75800000Y-89700000D02*
X77650000Y-89700000D01*
X75800000Y-88500000D02*
X77650000Y-88500000D01*
X77650000Y-88500000D02*
X77650000Y-89700000D01*
X76840000Y-85020000D02*
X75380000Y-85020000D01*
X76840000Y-88180000D02*
X74680000Y-88180000D01*
X76840000Y-88180000D02*
X76840000Y-87250000D01*
X76840000Y-85020000D02*
X76840000Y-85950000D01*
X78110000Y-86000279D02*
X78110000Y-85674721D01*
X79130000Y-86000279D02*
X79130000Y-85674721D01*
X74140000Y-87274000D02*
X74140000Y-85424000D01*
X72940000Y-87274000D02*
X72940000Y-85424000D01*
X72940000Y-85424000D02*
X74140000Y-85424000D01*
X69984273Y-81965522D02*
X70214478Y-82195727D01*
X70705522Y-81244273D02*
X70935727Y-81474478D01*
D14*
X75887380Y-69574523D02*
X75887380Y-68304523D01*
X75403571Y-68304523D01*
X75282619Y-68365000D01*
X75222142Y-68425476D01*
X75161666Y-68546428D01*
X75161666Y-68727857D01*
X75222142Y-68848809D01*
X75282619Y-68909285D01*
X75403571Y-68969761D01*
X75887380Y-68969761D01*
X73952142Y-69574523D02*
X74677857Y-69574523D01*
X74315000Y-69574523D02*
X74315000Y-68304523D01*
X74435952Y-68485952D01*
X74556904Y-68606904D01*
X74677857Y-68667380D01*
D10*
X74861905Y-77952380D02*
X74861905Y-78761904D01*
X74814286Y-78857142D01*
X74766667Y-78904761D01*
X74671429Y-78952380D01*
X74480953Y-78952380D01*
X74385715Y-78904761D01*
X74338096Y-78857142D01*
X74290477Y-78761904D01*
X74290477Y-77952380D01*
X73861905Y-78047619D02*
X73814286Y-78000000D01*
X73719048Y-77952380D01*
X73480953Y-77952380D01*
X73385715Y-78000000D01*
X73338096Y-78047619D01*
X73290477Y-78142857D01*
X73290477Y-78238095D01*
X73338096Y-78380952D01*
X73909524Y-78952380D01*
X73290477Y-78952380D01*
X77053980Y-90114504D02*
X76053980Y-90114504D01*
X76053980Y-90352600D01*
X76101600Y-90495457D01*
X76196838Y-90590695D01*
X76292076Y-90638314D01*
X76482552Y-90685933D01*
X76625409Y-90685933D01*
X76815885Y-90638314D01*
X76911123Y-90590695D01*
X77006361Y-90495457D01*
X77053980Y-90352600D01*
X77053980Y-90114504D01*
X77053980Y-91638314D02*
X77053980Y-91066885D01*
X77053980Y-91352600D02*
X76053980Y-91352600D01*
X76196838Y-91257361D01*
X76292076Y-91162123D01*
X76339695Y-91066885D01*
X74552380Y-90433333D02*
X74076190Y-90100000D01*
X74552380Y-89861904D02*
X73552380Y-89861904D01*
X73552380Y-90242857D01*
X73600000Y-90338095D01*
X73647619Y-90385714D01*
X73742857Y-90433333D01*
X73885714Y-90433333D01*
X73980952Y-90385714D01*
X74028571Y-90338095D01*
X74076190Y-90242857D01*
X74076190Y-89861904D01*
X73647619Y-90814285D02*
X73600000Y-90861904D01*
X73552380Y-90957142D01*
X73552380Y-91195238D01*
X73600000Y-91290476D01*
X73647619Y-91338095D01*
X73742857Y-91385714D01*
X73838095Y-91385714D01*
X73980952Y-91338095D01*
X74552380Y-90766666D01*
X74552380Y-91385714D01*
X79495238Y-89017619D02*
X79590476Y-88970000D01*
X79685714Y-88874761D01*
X79828571Y-88731904D01*
X79923809Y-88684285D01*
X80019047Y-88684285D01*
X79971428Y-88922380D02*
X80066666Y-88874761D01*
X80161904Y-88779523D01*
X80209523Y-88589047D01*
X80209523Y-88255714D01*
X80161904Y-88065238D01*
X80066666Y-87970000D01*
X79971428Y-87922380D01*
X79780952Y-87922380D01*
X79685714Y-87970000D01*
X79590476Y-88065238D01*
X79542857Y-88255714D01*
X79542857Y-88589047D01*
X79590476Y-88779523D01*
X79685714Y-88874761D01*
X79780952Y-88922380D01*
X79971428Y-88922380D01*
X78590476Y-88922380D02*
X79161904Y-88922380D01*
X78876190Y-88922380D02*
X78876190Y-87922380D01*
X78971428Y-88065238D01*
X79066666Y-88160476D01*
X79161904Y-88208095D01*
X80533333Y-85828571D02*
X80866666Y-85828571D01*
X80866666Y-86352380D02*
X80866666Y-85352380D01*
X80390476Y-85352380D01*
X79485714Y-86352380D02*
X80057142Y-86352380D01*
X79771428Y-86352380D02*
X79771428Y-85352380D01*
X79866666Y-85495238D01*
X79961904Y-85590476D01*
X80057142Y-85638095D01*
X72652380Y-86361904D02*
X71652380Y-86361904D01*
X71652380Y-86600000D01*
X71700000Y-86742857D01*
X71795238Y-86838095D01*
X71890476Y-86885714D01*
X72080952Y-86933333D01*
X72223809Y-86933333D01*
X72414285Y-86885714D01*
X72509523Y-86838095D01*
X72604761Y-86742857D01*
X72652380Y-86600000D01*
X72652380Y-86361904D01*
X71747619Y-87314285D02*
X71700000Y-87361904D01*
X71652380Y-87457142D01*
X71652380Y-87695238D01*
X71700000Y-87790476D01*
X71747619Y-87838095D01*
X71842857Y-87885714D01*
X71938095Y-87885714D01*
X72080952Y-87838095D01*
X72652380Y-87266666D01*
X72652380Y-87885714D01*
X68447969Y-80407732D02*
X69020389Y-80306717D01*
X68852030Y-80811793D02*
X69559137Y-80104687D01*
X69289763Y-79835312D01*
X69188748Y-79801641D01*
X69121404Y-79801641D01*
X69020389Y-79835312D01*
X68919374Y-79936328D01*
X68885702Y-80037343D01*
X68885702Y-80104687D01*
X68919374Y-80205702D01*
X69188748Y-80475076D01*
X68919374Y-79464923D02*
X68447969Y-78993519D01*
X68043908Y-80003671D01*
X72047442Y-85187635D02*
X72114785Y-85187635D01*
X72249472Y-85120291D01*
X72316816Y-85052948D01*
X72384159Y-84918260D01*
X72384159Y-84783573D01*
X72350488Y-84682558D01*
X72249472Y-84514199D01*
X72148457Y-84413184D01*
X71980098Y-84312169D01*
X71879083Y-84278497D01*
X71744396Y-84278497D01*
X71609709Y-84345841D01*
X71542365Y-84413184D01*
X71475022Y-84547871D01*
X71475022Y-84615215D01*
X71171976Y-84783573D02*
X70700572Y-85254978D01*
X71710724Y-85659039D01*
X81396389Y-74048687D02*
X81463732Y-74048687D01*
X81598419Y-73981343D01*
X81665763Y-73914000D01*
X81733106Y-73779312D01*
X81733106Y-73644625D01*
X81699435Y-73543610D01*
X81598419Y-73375251D01*
X81497404Y-73274236D01*
X81329045Y-73173221D01*
X81228030Y-73139549D01*
X81093343Y-73139549D01*
X80958656Y-73206893D01*
X80891312Y-73274236D01*
X80823969Y-73408923D01*
X80823969Y-73476267D01*
X80655610Y-74116030D02*
X80689282Y-74015015D01*
X80689282Y-73947671D01*
X80655610Y-73846656D01*
X80621938Y-73812984D01*
X80520923Y-73779312D01*
X80453580Y-73779312D01*
X80352564Y-73812984D01*
X80217877Y-73947671D01*
X80184206Y-74048687D01*
X80184206Y-74116030D01*
X80217877Y-74217045D01*
X80251549Y-74250717D01*
X80352564Y-74284389D01*
X80419908Y-74284389D01*
X80520923Y-74250717D01*
X80655610Y-74116030D01*
X80756625Y-74082358D01*
X80823969Y-74082358D01*
X80924984Y-74116030D01*
X81059671Y-74250717D01*
X81093343Y-74351732D01*
X81093343Y-74419076D01*
X81059671Y-74520091D01*
X80924984Y-74654778D01*
X80823969Y-74688450D01*
X80756625Y-74688450D01*
X80655610Y-74654778D01*
X80520923Y-74520091D01*
X80487251Y-74419076D01*
X80487251Y-74351732D01*
X80520923Y-74250717D01*
X76766665Y-85057142D02*
X76814284Y-85104761D01*
X76957141Y-85152380D01*
X77052379Y-85152380D01*
X77195237Y-85104761D01*
X77290475Y-85009523D01*
X77338094Y-84914285D01*
X77385713Y-84723809D01*
X77385713Y-84580952D01*
X77338094Y-84390476D01*
X77290475Y-84295238D01*
X77195237Y-84200000D01*
X77052379Y-84152380D01*
X76957141Y-84152380D01*
X76814284Y-84200000D01*
X76766665Y-84247619D01*
X76290475Y-85152380D02*
X76099999Y-85152380D01*
X76004760Y-85104761D01*
X75957141Y-85057142D01*
X75861903Y-84914285D01*
X75814284Y-84723809D01*
X75814284Y-84342857D01*
X75861903Y-84247619D01*
X75909522Y-84200000D01*
X76004760Y-84152380D01*
X76195237Y-84152380D01*
X76290475Y-84200000D01*
X76338094Y-84247619D01*
X76385713Y-84342857D01*
X76385713Y-84580952D01*
X76338094Y-84676190D01*
X76290475Y-84723809D01*
X76195237Y-84771428D01*
X76004760Y-84771428D01*
X75909522Y-84723809D01*
X75861903Y-84676190D01*
X75814284Y-84580952D01*
X78765312Y-74670389D02*
X78765312Y-74737732D01*
X78832656Y-74872419D01*
X78900000Y-74939763D01*
X79034687Y-75007106D01*
X79169374Y-75007106D01*
X79270389Y-74973435D01*
X79438748Y-74872419D01*
X79539763Y-74771404D01*
X79640778Y-74603045D01*
X79674450Y-74502030D01*
X79674450Y-74367343D01*
X79607106Y-74232656D01*
X79539763Y-74165312D01*
X79405076Y-74097969D01*
X79337732Y-74097969D01*
X78798984Y-73424534D02*
X78933671Y-73559221D01*
X78967343Y-73660236D01*
X78967343Y-73727580D01*
X78933671Y-73895938D01*
X78832656Y-74064297D01*
X78563282Y-74333671D01*
X78462267Y-74367343D01*
X78394923Y-74367343D01*
X78293908Y-74333671D01*
X78159221Y-74198984D01*
X78125549Y-74097969D01*
X78125549Y-74030625D01*
X78159221Y-73929610D01*
X78327580Y-73761251D01*
X78428595Y-73727580D01*
X78495938Y-73727580D01*
X78596954Y-73761251D01*
X78731641Y-73895938D01*
X78765312Y-73996954D01*
X78765312Y-74064297D01*
X78731641Y-74165312D01*
X76910679Y-74579083D02*
X76809664Y-74006663D01*
X77314740Y-74175022D02*
X76607634Y-73467915D01*
X76338259Y-73737289D01*
X76304588Y-73838304D01*
X76304588Y-73905648D01*
X76338259Y-74006663D01*
X76439275Y-74107678D01*
X76540290Y-74141350D01*
X76607634Y-74141350D01*
X76708649Y-74107678D01*
X76978023Y-73838304D01*
X75597481Y-74478068D02*
X75732168Y-74343381D01*
X75833183Y-74309709D01*
X75900527Y-74309709D01*
X76068885Y-74343381D01*
X76237244Y-74444396D01*
X76506618Y-74713770D01*
X76540290Y-74814785D01*
X76540290Y-74882129D01*
X76506618Y-74983144D01*
X76371931Y-75117831D01*
X76270916Y-75151503D01*
X76203572Y-75151503D01*
X76102557Y-75117831D01*
X75934198Y-74949472D01*
X75900527Y-74848457D01*
X75900527Y-74781114D01*
X75934198Y-74680098D01*
X76068885Y-74545411D01*
X76169901Y-74511740D01*
X76237244Y-74511740D01*
X76338259Y-74545411D01*
X66771904Y-89402380D02*
X66771904Y-88402380D01*
X66771904Y-88878571D02*
X66200476Y-88878571D01*
X66200476Y-89402380D02*
X66200476Y-88402380D01*
X65200476Y-89402380D02*
X65771904Y-89402380D01*
X65486190Y-89402380D02*
X65486190Y-88402380D01*
X65581428Y-88545238D01*
X65676666Y-88640476D01*
X65771904Y-88688095D01*
M02*
