M48
; DRILL file {KiCad (5.1.2)-2} date 30-Jan-20 12:24:13 PM
; FORMAT={-:-/ absolute / inch / decimal}
; #@! TF.CreationDate,2020-01-30T12:24:13+01:00
; #@! TF.GenerationSoftware,Kicad,Pcbnew,(5.1.2)-2
FMAT,2
INCH
T1C0.0118
T2C0.0197
T3C0.0276
T4C0.0390
T5C0.0866
%
G90
G05
T1
X2.5344Y-2.5896
X2.5404Y-3.0335
X2.563Y-2.56
X2.5679Y-2.625
X2.5945Y-3.1083
X2.5955Y-2.7126
X2.5965Y-2.5945
X2.7087Y-2.5984
X2.7146Y-2.7195
X2.7402Y-2.5984
X2.7431Y-3.3898
X2.7711Y-2.8419
X2.7717Y-2.5984
X2.8031Y-2.5984
X2.8031Y-2.8425
X2.8307Y-2.8425
X2.8346Y-2.5984
X2.8494Y-3.4262
X2.8583Y-2.8425
X2.8652Y-2.7343
X2.8661Y-2.5984
X2.8819Y-3.2697
X2.8924Y-2.8771
X2.8976Y-2.5984
X2.9039Y-2.75
X2.9144Y-2.9173
X2.9173Y-3.2943
X2.9291Y-2.5984
X2.9317Y-2.8451
X2.9591Y-2.8441
X2.9606Y-2.5984
X2.9646Y-3.2559
X2.9869Y-2.8432
X2.9909Y-2.8924
X2.9921Y-2.5984
X3.0079Y-3.3402
X3.0236Y-2.5984
X3.0492Y-3.3504
X3.0512Y-3.1811
X3.0551Y-2.5984
X3.0551Y-2.8543
X3.0561Y-3.2165
X3.0822Y-2.8541
X3.0866Y-2.5984
X3.0991Y-3.1299
X3.1142Y-2.8543
X3.1181Y-2.5984
X3.1348Y-2.9646
X3.1457Y-2.8543
X3.1496Y-2.5984
X3.187Y-2.9724
X3.2087Y-3.4016
T2
X2.8228Y-2.9035
T3
X2.6741Y-2.6688
X3.1859Y-2.7712
T4
X2.6937Y-3.2915
X2.6937Y-3.3715
X2.8937Y-3.3315
T5
X2.5984Y-3.5039
T0
M30
