G04 #@! TF.GenerationSoftware,KiCad,Pcbnew,(5.1.6)-1*
G04 #@! TF.CreationDate,2020-12-13T22:16:35+01:00*
G04 #@! TF.ProjectId,ETBC_2020,45544243-5f32-4303-9230-2e6b69636164,rev?*
G04 #@! TF.SameCoordinates,Original*
G04 #@! TF.FileFunction,Soldermask,Top*
G04 #@! TF.FilePolarity,Negative*
%FSLAX46Y46*%
G04 Gerber Fmt 4.6, Leading zero omitted, Abs format (unit mm)*
G04 Created by KiCad (PCBNEW (5.1.6)-1) date 2020-12-13 22:16:35*
%MOMM*%
%LPD*%
G01*
G04 APERTURE LIST*
%ADD10C,0.100000*%
%ADD11O,1.700000X1.700000*%
%ADD12R,1.700000X1.700000*%
%ADD13R,1.500000X0.550000*%
%ADD14C,0.700000*%
%ADD15C,2.200000*%
%ADD16R,1.650000X1.650000*%
%ADD17C,1.650000*%
%ADD18C,3.200000*%
%ADD19C,0.800000*%
%ADD20C,6.400000*%
%ADD21R,6.000000X5.000000*%
%ADD22R,0.800000X0.900000*%
%ADD23R,0.500000X0.500000*%
%ADD24R,1.650000X0.450000*%
%ADD25R,4.800000X5.900000*%
G04 APERTURE END LIST*
D10*
G36*
X96350000Y-68100000D02*
G01*
X93950000Y-68100000D01*
X93950000Y-86725000D01*
X91550000Y-86725000D01*
X91550000Y-67075000D01*
X96350000Y-67075000D01*
X96350000Y-68100000D01*
G37*
X96350000Y-68100000D02*
X93950000Y-68100000D01*
X93950000Y-86725000D01*
X91550000Y-86725000D01*
X91550000Y-67075000D01*
X96350000Y-67075000D01*
X96350000Y-68100000D01*
G36*
X105550000Y-57650000D02*
G01*
X103175000Y-60100000D01*
X102700000Y-60125000D01*
X102700000Y-71425000D01*
X103875000Y-71425000D01*
X103875000Y-70300000D01*
X105825000Y-70300000D01*
X105825000Y-80450000D01*
X94425000Y-80450000D01*
X94425000Y-70325000D01*
X96350000Y-70325000D01*
X96350000Y-71425000D01*
X97550000Y-71425000D01*
X97550000Y-60043750D01*
X96350000Y-58925000D01*
X94925000Y-58875000D01*
X94425000Y-58325000D01*
X94300000Y-57950000D01*
X90825000Y-54475000D01*
X105550000Y-54475000D01*
X105550000Y-57650000D01*
G37*
X105550000Y-57650000D02*
X103175000Y-60100000D01*
X102700000Y-60125000D01*
X102700000Y-71425000D01*
X103875000Y-71425000D01*
X103875000Y-70300000D01*
X105825000Y-70300000D01*
X105825000Y-80450000D01*
X94425000Y-80450000D01*
X94425000Y-70325000D01*
X96350000Y-70325000D01*
X96350000Y-71425000D01*
X97550000Y-71425000D01*
X97550000Y-60043750D01*
X96350000Y-58925000D01*
X94925000Y-58875000D01*
X94425000Y-58325000D01*
X94300000Y-57950000D01*
X90825000Y-54475000D01*
X105550000Y-54475000D01*
X105550000Y-57650000D01*
G36*
X90875000Y-96750000D02*
G01*
X90875000Y-102050000D01*
X87150000Y-102050000D01*
X86700000Y-100475000D01*
X76200000Y-100475000D01*
X76175000Y-96200000D01*
X91200000Y-96200000D01*
X90875000Y-96750000D01*
G37*
X90875000Y-96750000D02*
X90875000Y-102050000D01*
X87150000Y-102050000D01*
X86700000Y-100475000D01*
X76200000Y-100475000D01*
X76175000Y-96200000D01*
X91200000Y-96200000D01*
X90875000Y-96750000D01*
G36*
X108700000Y-86670000D02*
G01*
X106300000Y-86670000D01*
X106300000Y-68080000D01*
X103990000Y-68080000D01*
X103990000Y-67070000D01*
X108690000Y-67070000D01*
X108700000Y-86670000D01*
G37*
X108700000Y-86670000D02*
X106300000Y-86670000D01*
X106300000Y-68080000D01*
X103990000Y-68080000D01*
X103990000Y-67070000D01*
X108690000Y-67070000D01*
X108700000Y-86670000D01*
G36*
X108600000Y-65730000D02*
G01*
X114100000Y-65730000D01*
X114100000Y-65045000D01*
X119290000Y-65040000D01*
X119290000Y-67960000D01*
X109050000Y-67960000D01*
X109050000Y-66750000D01*
X105970000Y-66750000D01*
X105970000Y-66140000D01*
X103920000Y-66140000D01*
X103920000Y-65115000D01*
X106460000Y-65120000D01*
X108135000Y-63720000D01*
X108600000Y-63720000D01*
X108600000Y-65730000D01*
G37*
X108600000Y-65730000D02*
X114100000Y-65730000D01*
X114100000Y-65045000D01*
X119290000Y-65040000D01*
X119290000Y-67960000D01*
X109050000Y-67960000D01*
X109050000Y-66750000D01*
X105970000Y-66750000D01*
X105970000Y-66140000D01*
X103920000Y-66140000D01*
X103920000Y-65115000D01*
X106460000Y-65120000D01*
X108135000Y-63720000D01*
X108600000Y-63720000D01*
X108600000Y-65730000D01*
G36*
X93060000Y-65100000D02*
G01*
X96320000Y-65100000D01*
X96320000Y-66130000D01*
X94280000Y-66127500D01*
X94280000Y-66752500D01*
X91200000Y-66750000D01*
X91200000Y-67170000D01*
X76200000Y-67168750D01*
X76200000Y-64900000D01*
X89990000Y-64900000D01*
X89990000Y-62990000D01*
X90980000Y-62990000D01*
X93060000Y-65100000D01*
G37*
X93060000Y-65100000D02*
X96320000Y-65100000D01*
X96320000Y-66130000D01*
X94280000Y-66127500D01*
X94280000Y-66752500D01*
X91200000Y-66750000D01*
X91200000Y-67170000D01*
X76200000Y-67168750D01*
X76200000Y-64900000D01*
X89990000Y-64900000D01*
X89990000Y-62990000D01*
X90980000Y-62990000D01*
X93060000Y-65100000D01*
G36*
G01*
X111925000Y-53025000D02*
X111925000Y-54125000D01*
G75*
G02*
X111675000Y-54375000I-250000J0D01*
G01*
X108675000Y-54375000D01*
G75*
G02*
X108425000Y-54125000I0J250000D01*
G01*
X108425000Y-53025000D01*
G75*
G02*
X108675000Y-52775000I250000J0D01*
G01*
X111675000Y-52775000D01*
G75*
G02*
X111925000Y-53025000I0J-250000D01*
G01*
G37*
G36*
G01*
X117325000Y-53025000D02*
X117325000Y-54125000D01*
G75*
G02*
X117075000Y-54375000I-250000J0D01*
G01*
X114075000Y-54375000D01*
G75*
G02*
X113825000Y-54125000I0J250000D01*
G01*
X113825000Y-53025000D01*
G75*
G02*
X114075000Y-52775000I250000J0D01*
G01*
X117075000Y-52775000D01*
G75*
G02*
X117325000Y-53025000I0J-250000D01*
G01*
G37*
D11*
X82115000Y-46135000D03*
X79575000Y-46135000D03*
X82115000Y-43595000D03*
X79575000Y-43595000D03*
X82115000Y-41055000D03*
X79575000Y-41055000D03*
X82115000Y-38515000D03*
X79575000Y-38515000D03*
X82115000Y-35975000D03*
D12*
X79575000Y-35975000D03*
D13*
X109175000Y-32074600D03*
X105375000Y-32100000D03*
X109175000Y-32874600D03*
X105375000Y-32900000D03*
X109175000Y-33674600D03*
X105375000Y-33700000D03*
X109175000Y-34474600D03*
X105375000Y-34500000D03*
X109175000Y-35274600D03*
X105375000Y-35300000D03*
X109175000Y-36074600D03*
X105375000Y-36100000D03*
X109175000Y-36874600D03*
X105375000Y-36900000D03*
X109175000Y-37674600D03*
X105375000Y-37700000D03*
X109175000Y-38474600D03*
X105375000Y-38500000D03*
X109175000Y-39274600D03*
X105375000Y-39300000D03*
X109175000Y-40074600D03*
X105375000Y-40100000D03*
X109175000Y-40874600D03*
X105375000Y-40900000D03*
X109175000Y-41674600D03*
X105375000Y-41700000D03*
X109175000Y-42474600D03*
X105375000Y-42500000D03*
X109175000Y-43274600D03*
X105375000Y-43300000D03*
D14*
X105975000Y-31174600D03*
X108575000Y-44174600D03*
D15*
X87363000Y-29252600D03*
G36*
G01*
X114449900Y-37302500D02*
X113974900Y-37302500D01*
G75*
G02*
X113737400Y-37065000I0J237500D01*
G01*
X113737400Y-36490000D01*
G75*
G02*
X113974900Y-36252500I237500J0D01*
G01*
X114449900Y-36252500D01*
G75*
G02*
X114687400Y-36490000I0J-237500D01*
G01*
X114687400Y-37065000D01*
G75*
G02*
X114449900Y-37302500I-237500J0D01*
G01*
G37*
G36*
G01*
X114449900Y-39052500D02*
X113974900Y-39052500D01*
G75*
G02*
X113737400Y-38815000I0J237500D01*
G01*
X113737400Y-38240000D01*
G75*
G02*
X113974900Y-38002500I237500J0D01*
G01*
X114449900Y-38002500D01*
G75*
G02*
X114687400Y-38240000I0J-237500D01*
G01*
X114687400Y-38815000D01*
G75*
G02*
X114449900Y-39052500I-237500J0D01*
G01*
G37*
D16*
X109825000Y-97975000D03*
D17*
X107325000Y-97975000D03*
X104825000Y-97975000D03*
X102325000Y-97975000D03*
X99825000Y-97975000D03*
X97325000Y-97975000D03*
X94825000Y-97975000D03*
X92325000Y-97975000D03*
X89825000Y-97975000D03*
X109825000Y-100975000D03*
X107325000Y-100975000D03*
X104825000Y-100975000D03*
D18*
X84325000Y-102475000D03*
X115325000Y-102475000D03*
D17*
X102325000Y-100975000D03*
X99825000Y-100975000D03*
X97325000Y-100975000D03*
X94825000Y-100975000D03*
X92325000Y-100975000D03*
X89825000Y-100975000D03*
D19*
X101697056Y-86302944D03*
X100000000Y-85600000D03*
X98302944Y-86302944D03*
X97600000Y-88000000D03*
X98302944Y-89697056D03*
X100000000Y-90400000D03*
X101697056Y-89697056D03*
X102400000Y-88000000D03*
D20*
X100000000Y-88000000D03*
D21*
X82200000Y-78575000D03*
X114200000Y-78575000D03*
D19*
X121997056Y-26802944D03*
X120300000Y-26100000D03*
X118602944Y-26802944D03*
X117900000Y-28500000D03*
X118602944Y-30197056D03*
X120300000Y-30900000D03*
X121997056Y-30197056D03*
X122700000Y-28500000D03*
D20*
X120300000Y-28500000D03*
D19*
X81397056Y-26802944D03*
X79700000Y-26100000D03*
X78002944Y-26802944D03*
X77300000Y-28500000D03*
X78002944Y-30197056D03*
X79700000Y-30900000D03*
X81397056Y-30197056D03*
X82100000Y-28500000D03*
D20*
X79700000Y-28500000D03*
G36*
G01*
X100537500Y-34900000D02*
X100062500Y-34900000D01*
G75*
G02*
X99825000Y-34662500I0J237500D01*
G01*
X99825000Y-34087500D01*
G75*
G02*
X100062500Y-33850000I237500J0D01*
G01*
X100537500Y-33850000D01*
G75*
G02*
X100775000Y-34087500I0J-237500D01*
G01*
X100775000Y-34662500D01*
G75*
G02*
X100537500Y-34900000I-237500J0D01*
G01*
G37*
G36*
G01*
X100537500Y-36650000D02*
X100062500Y-36650000D01*
G75*
G02*
X99825000Y-36412500I0J237500D01*
G01*
X99825000Y-35837500D01*
G75*
G02*
X100062500Y-35600000I237500J0D01*
G01*
X100537500Y-35600000D01*
G75*
G02*
X100775000Y-35837500I0J-237500D01*
G01*
X100775000Y-36412500D01*
G75*
G02*
X100537500Y-36650000I-237500J0D01*
G01*
G37*
G36*
G01*
X98962500Y-34900000D02*
X98487500Y-34900000D01*
G75*
G02*
X98250000Y-34662500I0J237500D01*
G01*
X98250000Y-34087500D01*
G75*
G02*
X98487500Y-33850000I237500J0D01*
G01*
X98962500Y-33850000D01*
G75*
G02*
X99200000Y-34087500I0J-237500D01*
G01*
X99200000Y-34662500D01*
G75*
G02*
X98962500Y-34900000I-237500J0D01*
G01*
G37*
G36*
G01*
X98962500Y-36650000D02*
X98487500Y-36650000D01*
G75*
G02*
X98250000Y-36412500I0J237500D01*
G01*
X98250000Y-35837500D01*
G75*
G02*
X98487500Y-35600000I237500J0D01*
G01*
X98962500Y-35600000D01*
G75*
G02*
X99200000Y-35837500I0J-237500D01*
G01*
X99200000Y-36412500D01*
G75*
G02*
X98962500Y-36650000I-237500J0D01*
G01*
G37*
G36*
G01*
X113350001Y-62575000D02*
X112499999Y-62575000D01*
G75*
G02*
X112250000Y-62325001I0J249999D01*
G01*
X112250000Y-61249999D01*
G75*
G02*
X112499999Y-61000000I249999J0D01*
G01*
X113350001Y-61000000D01*
G75*
G02*
X113600000Y-61249999I0J-249999D01*
G01*
X113600000Y-62325001D01*
G75*
G02*
X113350001Y-62575000I-249999J0D01*
G01*
G37*
G36*
G01*
X113350001Y-65450000D02*
X112499999Y-65450000D01*
G75*
G02*
X112250000Y-65200001I0J249999D01*
G01*
X112250000Y-64124999D01*
G75*
G02*
X112499999Y-63875000I249999J0D01*
G01*
X113350001Y-63875000D01*
G75*
G02*
X113600000Y-64124999I0J-249999D01*
G01*
X113600000Y-65200001D01*
G75*
G02*
X113350001Y-65450000I-249999J0D01*
G01*
G37*
G36*
G01*
X87380001Y-61850000D02*
X86529999Y-61850000D01*
G75*
G02*
X86280000Y-61600001I0J249999D01*
G01*
X86280000Y-60524999D01*
G75*
G02*
X86529999Y-60275000I249999J0D01*
G01*
X87380001Y-60275000D01*
G75*
G02*
X87630000Y-60524999I0J-249999D01*
G01*
X87630000Y-61600001D01*
G75*
G02*
X87380001Y-61850000I-249999J0D01*
G01*
G37*
G36*
G01*
X87380001Y-64725000D02*
X86529999Y-64725000D01*
G75*
G02*
X86280000Y-64475001I0J249999D01*
G01*
X86280000Y-63399999D01*
G75*
G02*
X86529999Y-63150000I249999J0D01*
G01*
X87380001Y-63150000D01*
G75*
G02*
X87630000Y-63399999I0J-249999D01*
G01*
X87630000Y-64475001D01*
G75*
G02*
X87380001Y-64725000I-249999J0D01*
G01*
G37*
G36*
G01*
X80400000Y-52950000D02*
X79300000Y-52950000D01*
G75*
G02*
X79050000Y-52700000I0J250000D01*
G01*
X79050000Y-49700000D01*
G75*
G02*
X79300000Y-49450000I250000J0D01*
G01*
X80400000Y-49450000D01*
G75*
G02*
X80650000Y-49700000I0J-250000D01*
G01*
X80650000Y-52700000D01*
G75*
G02*
X80400000Y-52950000I-250000J0D01*
G01*
G37*
G36*
G01*
X80400000Y-58350000D02*
X79300000Y-58350000D01*
G75*
G02*
X79050000Y-58100000I0J250000D01*
G01*
X79050000Y-55100000D01*
G75*
G02*
X79300000Y-54850000I250000J0D01*
G01*
X80400000Y-54850000D01*
G75*
G02*
X80650000Y-55100000I0J-250000D01*
G01*
X80650000Y-58100000D01*
G75*
G02*
X80400000Y-58350000I-250000J0D01*
G01*
G37*
G36*
G01*
X95925000Y-50900000D02*
X94675000Y-50900000D01*
G75*
G02*
X94425000Y-50650000I0J250000D01*
G01*
X94425000Y-49725000D01*
G75*
G02*
X94675000Y-49475000I250000J0D01*
G01*
X95925000Y-49475000D01*
G75*
G02*
X96175000Y-49725000I0J-250000D01*
G01*
X96175000Y-50650000D01*
G75*
G02*
X95925000Y-50900000I-250000J0D01*
G01*
G37*
G36*
G01*
X95925000Y-53875000D02*
X94675000Y-53875000D01*
G75*
G02*
X94425000Y-53625000I0J250000D01*
G01*
X94425000Y-52700000D01*
G75*
G02*
X94675000Y-52450000I250000J0D01*
G01*
X95925000Y-52450000D01*
G75*
G02*
X96175000Y-52700000I0J-250000D01*
G01*
X96175000Y-53625000D01*
G75*
G02*
X95925000Y-53875000I-250000J0D01*
G01*
G37*
G36*
G01*
X100927200Y-52450000D02*
X102177200Y-52450000D01*
G75*
G02*
X102427200Y-52700000I0J-250000D01*
G01*
X102427200Y-53625000D01*
G75*
G02*
X102177200Y-53875000I-250000J0D01*
G01*
X100927200Y-53875000D01*
G75*
G02*
X100677200Y-53625000I0J250000D01*
G01*
X100677200Y-52700000D01*
G75*
G02*
X100927200Y-52450000I250000J0D01*
G01*
G37*
G36*
G01*
X100927200Y-49475000D02*
X102177200Y-49475000D01*
G75*
G02*
X102427200Y-49725000I0J-250000D01*
G01*
X102427200Y-50650000D01*
G75*
G02*
X102177200Y-50900000I-250000J0D01*
G01*
X100927200Y-50900000D01*
G75*
G02*
X100677200Y-50650000I0J250000D01*
G01*
X100677200Y-49725000D01*
G75*
G02*
X100927200Y-49475000I250000J0D01*
G01*
G37*
G36*
G01*
X98075000Y-52450000D02*
X99325000Y-52450000D01*
G75*
G02*
X99575000Y-52700000I0J-250000D01*
G01*
X99575000Y-53625000D01*
G75*
G02*
X99325000Y-53875000I-250000J0D01*
G01*
X98075000Y-53875000D01*
G75*
G02*
X97825000Y-53625000I0J250000D01*
G01*
X97825000Y-52700000D01*
G75*
G02*
X98075000Y-52450000I250000J0D01*
G01*
G37*
G36*
G01*
X98075000Y-49475000D02*
X99325000Y-49475000D01*
G75*
G02*
X99575000Y-49725000I0J-250000D01*
G01*
X99575000Y-50650000D01*
G75*
G02*
X99325000Y-50900000I-250000J0D01*
G01*
X98075000Y-50900000D01*
G75*
G02*
X97825000Y-50650000I0J250000D01*
G01*
X97825000Y-49725000D01*
G75*
G02*
X98075000Y-49475000I250000J0D01*
G01*
G37*
G36*
G01*
X91837500Y-47650000D02*
X92312500Y-47650000D01*
G75*
G02*
X92550000Y-47887500I0J-237500D01*
G01*
X92550000Y-48462500D01*
G75*
G02*
X92312500Y-48700000I-237500J0D01*
G01*
X91837500Y-48700000D01*
G75*
G02*
X91600000Y-48462500I0J237500D01*
G01*
X91600000Y-47887500D01*
G75*
G02*
X91837500Y-47650000I237500J0D01*
G01*
G37*
G36*
G01*
X91837500Y-45900000D02*
X92312500Y-45900000D01*
G75*
G02*
X92550000Y-46137500I0J-237500D01*
G01*
X92550000Y-46712500D01*
G75*
G02*
X92312500Y-46950000I-237500J0D01*
G01*
X91837500Y-46950000D01*
G75*
G02*
X91600000Y-46712500I0J237500D01*
G01*
X91600000Y-46137500D01*
G75*
G02*
X91837500Y-45900000I237500J0D01*
G01*
G37*
D22*
X90975000Y-44800000D03*
X90025000Y-42800000D03*
X91925000Y-42800000D03*
D23*
X96725000Y-42875000D03*
X94525000Y-42875000D03*
X99400000Y-42925000D03*
X101600000Y-42925000D03*
D24*
X95350000Y-61400000D03*
X95350000Y-62050000D03*
X95350000Y-62700000D03*
X95350000Y-63350000D03*
X95350000Y-64000000D03*
X95350000Y-64650000D03*
X95350000Y-65300000D03*
X95350000Y-65950000D03*
X95350000Y-66600000D03*
X95350000Y-67250000D03*
X95350000Y-67900000D03*
X95350000Y-68550000D03*
X95350000Y-69200000D03*
X95350000Y-69850000D03*
X95350000Y-70500000D03*
X95350000Y-71150000D03*
X104900000Y-71150000D03*
X104900000Y-70500000D03*
X104900000Y-69850000D03*
X104900000Y-69200000D03*
X104900000Y-68550000D03*
X104900000Y-67900000D03*
X104900000Y-67250000D03*
X104900000Y-66600000D03*
X104900000Y-65950000D03*
X104900000Y-65300000D03*
X104900000Y-64650000D03*
X104900000Y-64000000D03*
X104900000Y-63350000D03*
X104900000Y-62700000D03*
X104900000Y-62050000D03*
X104900000Y-61400000D03*
D25*
X100125000Y-66275000D03*
G36*
G01*
X116037500Y-37300000D02*
X115562500Y-37300000D01*
G75*
G02*
X115325000Y-37062500I0J237500D01*
G01*
X115325000Y-36487500D01*
G75*
G02*
X115562500Y-36250000I237500J0D01*
G01*
X116037500Y-36250000D01*
G75*
G02*
X116275000Y-36487500I0J-237500D01*
G01*
X116275000Y-37062500D01*
G75*
G02*
X116037500Y-37300000I-237500J0D01*
G01*
G37*
G36*
G01*
X116037500Y-39050000D02*
X115562500Y-39050000D01*
G75*
G02*
X115325000Y-38812500I0J237500D01*
G01*
X115325000Y-38237500D01*
G75*
G02*
X115562500Y-38000000I237500J0D01*
G01*
X116037500Y-38000000D01*
G75*
G02*
X116275000Y-38237500I0J-237500D01*
G01*
X116275000Y-38812500D01*
G75*
G02*
X116037500Y-39050000I-237500J0D01*
G01*
G37*
G36*
G01*
X95350000Y-44537500D02*
X95350000Y-45012500D01*
G75*
G02*
X95112500Y-45250000I-237500J0D01*
G01*
X94537500Y-45250000D01*
G75*
G02*
X94300000Y-45012500I0J237500D01*
G01*
X94300000Y-44537500D01*
G75*
G02*
X94537500Y-44300000I237500J0D01*
G01*
X95112500Y-44300000D01*
G75*
G02*
X95350000Y-44537500I0J-237500D01*
G01*
G37*
G36*
G01*
X97100000Y-44537500D02*
X97100000Y-45012500D01*
G75*
G02*
X96862500Y-45250000I-237500J0D01*
G01*
X96287500Y-45250000D01*
G75*
G02*
X96050000Y-45012500I0J237500D01*
G01*
X96050000Y-44537500D01*
G75*
G02*
X96287500Y-44300000I237500J0D01*
G01*
X96862500Y-44300000D01*
G75*
G02*
X97100000Y-44537500I0J-237500D01*
G01*
G37*
G36*
G01*
X100900000Y-44987500D02*
X100900000Y-44512500D01*
G75*
G02*
X101137500Y-44275000I237500J0D01*
G01*
X101712500Y-44275000D01*
G75*
G02*
X101950000Y-44512500I0J-237500D01*
G01*
X101950000Y-44987500D01*
G75*
G02*
X101712500Y-45225000I-237500J0D01*
G01*
X101137500Y-45225000D01*
G75*
G02*
X100900000Y-44987500I0J237500D01*
G01*
G37*
G36*
G01*
X99150000Y-44987500D02*
X99150000Y-44512500D01*
G75*
G02*
X99387500Y-44275000I237500J0D01*
G01*
X99962500Y-44275000D01*
G75*
G02*
X100200000Y-44512500I0J-237500D01*
G01*
X100200000Y-44987500D01*
G75*
G02*
X99962500Y-45225000I-237500J0D01*
G01*
X99387500Y-45225000D01*
G75*
G02*
X99150000Y-44987500I0J237500D01*
G01*
G37*
G36*
G01*
X116116000Y-48916400D02*
X116591000Y-48916400D01*
G75*
G02*
X116828500Y-49153900I0J-237500D01*
G01*
X116828500Y-49728900D01*
G75*
G02*
X116591000Y-49966400I-237500J0D01*
G01*
X116116000Y-49966400D01*
G75*
G02*
X115878500Y-49728900I0J237500D01*
G01*
X115878500Y-49153900D01*
G75*
G02*
X116116000Y-48916400I237500J0D01*
G01*
G37*
G36*
G01*
X116116000Y-47166400D02*
X116591000Y-47166400D01*
G75*
G02*
X116828500Y-47403900I0J-237500D01*
G01*
X116828500Y-47978900D01*
G75*
G02*
X116591000Y-48216400I-237500J0D01*
G01*
X116116000Y-48216400D01*
G75*
G02*
X115878500Y-47978900I0J237500D01*
G01*
X115878500Y-47403900D01*
G75*
G02*
X116116000Y-47166400I237500J0D01*
G01*
G37*
G36*
G01*
X120012500Y-48975000D02*
X120487500Y-48975000D01*
G75*
G02*
X120725000Y-49212500I0J-237500D01*
G01*
X120725000Y-49787500D01*
G75*
G02*
X120487500Y-50025000I-237500J0D01*
G01*
X120012500Y-50025000D01*
G75*
G02*
X119775000Y-49787500I0J237500D01*
G01*
X119775000Y-49212500D01*
G75*
G02*
X120012500Y-48975000I237500J0D01*
G01*
G37*
G36*
G01*
X120012500Y-47225000D02*
X120487500Y-47225000D01*
G75*
G02*
X120725000Y-47462500I0J-237500D01*
G01*
X120725000Y-48037500D01*
G75*
G02*
X120487500Y-48275000I-237500J0D01*
G01*
X120012500Y-48275000D01*
G75*
G02*
X119775000Y-48037500I0J237500D01*
G01*
X119775000Y-47462500D01*
G75*
G02*
X120012500Y-47225000I237500J0D01*
G01*
G37*
G36*
G01*
X111287500Y-63175000D02*
X110812500Y-63175000D01*
G75*
G02*
X110575000Y-62937500I0J237500D01*
G01*
X110575000Y-62362500D01*
G75*
G02*
X110812500Y-62125000I237500J0D01*
G01*
X111287500Y-62125000D01*
G75*
G02*
X111525000Y-62362500I0J-237500D01*
G01*
X111525000Y-62937500D01*
G75*
G02*
X111287500Y-63175000I-237500J0D01*
G01*
G37*
G36*
G01*
X111287500Y-64925000D02*
X110812500Y-64925000D01*
G75*
G02*
X110575000Y-64687500I0J237500D01*
G01*
X110575000Y-64112500D01*
G75*
G02*
X110812500Y-63875000I237500J0D01*
G01*
X111287500Y-63875000D01*
G75*
G02*
X111525000Y-64112500I0J-237500D01*
G01*
X111525000Y-64687500D01*
G75*
G02*
X111287500Y-64925000I-237500J0D01*
G01*
G37*
G36*
G01*
X109737500Y-63175000D02*
X109262500Y-63175000D01*
G75*
G02*
X109025000Y-62937500I0J237500D01*
G01*
X109025000Y-62362500D01*
G75*
G02*
X109262500Y-62125000I237500J0D01*
G01*
X109737500Y-62125000D01*
G75*
G02*
X109975000Y-62362500I0J-237500D01*
G01*
X109975000Y-62937500D01*
G75*
G02*
X109737500Y-63175000I-237500J0D01*
G01*
G37*
G36*
G01*
X109737500Y-64925000D02*
X109262500Y-64925000D01*
G75*
G02*
X109025000Y-64687500I0J237500D01*
G01*
X109025000Y-64112500D01*
G75*
G02*
X109262500Y-63875000I237500J0D01*
G01*
X109737500Y-63875000D01*
G75*
G02*
X109975000Y-64112500I0J-237500D01*
G01*
X109975000Y-64687500D01*
G75*
G02*
X109737500Y-64925000I-237500J0D01*
G01*
G37*
G36*
G01*
X105775000Y-87337500D02*
X105775000Y-87812500D01*
G75*
G02*
X105537500Y-88050000I-237500J0D01*
G01*
X104962500Y-88050000D01*
G75*
G02*
X104725000Y-87812500I0J237500D01*
G01*
X104725000Y-87337500D01*
G75*
G02*
X104962500Y-87100000I237500J0D01*
G01*
X105537500Y-87100000D01*
G75*
G02*
X105775000Y-87337500I0J-237500D01*
G01*
G37*
G36*
G01*
X107525000Y-87337500D02*
X107525000Y-87812500D01*
G75*
G02*
X107287500Y-88050000I-237500J0D01*
G01*
X106712500Y-88050000D01*
G75*
G02*
X106475000Y-87812500I0J237500D01*
G01*
X106475000Y-87337500D01*
G75*
G02*
X106712500Y-87100000I237500J0D01*
G01*
X107287500Y-87100000D01*
G75*
G02*
X107525000Y-87337500I0J-237500D01*
G01*
G37*
G36*
G01*
X94475000Y-87837500D02*
X94475000Y-87362500D01*
G75*
G02*
X94712500Y-87125000I237500J0D01*
G01*
X95287500Y-87125000D01*
G75*
G02*
X95525000Y-87362500I0J-237500D01*
G01*
X95525000Y-87837500D01*
G75*
G02*
X95287500Y-88075000I-237500J0D01*
G01*
X94712500Y-88075000D01*
G75*
G02*
X94475000Y-87837500I0J237500D01*
G01*
G37*
G36*
G01*
X92725000Y-87837500D02*
X92725000Y-87362500D01*
G75*
G02*
X92962500Y-87125000I237500J0D01*
G01*
X93537500Y-87125000D01*
G75*
G02*
X93775000Y-87362500I0J-237500D01*
G01*
X93775000Y-87837500D01*
G75*
G02*
X93537500Y-88075000I-237500J0D01*
G01*
X92962500Y-88075000D01*
G75*
G02*
X92725000Y-87837500I0J237500D01*
G01*
G37*
G36*
G01*
X89192500Y-62450000D02*
X88717500Y-62450000D01*
G75*
G02*
X88480000Y-62212500I0J237500D01*
G01*
X88480000Y-61637500D01*
G75*
G02*
X88717500Y-61400000I237500J0D01*
G01*
X89192500Y-61400000D01*
G75*
G02*
X89430000Y-61637500I0J-237500D01*
G01*
X89430000Y-62212500D01*
G75*
G02*
X89192500Y-62450000I-237500J0D01*
G01*
G37*
G36*
G01*
X89192500Y-64200000D02*
X88717500Y-64200000D01*
G75*
G02*
X88480000Y-63962500I0J237500D01*
G01*
X88480000Y-63387500D01*
G75*
G02*
X88717500Y-63150000I237500J0D01*
G01*
X89192500Y-63150000D01*
G75*
G02*
X89430000Y-63387500I0J-237500D01*
G01*
X89430000Y-63962500D01*
G75*
G02*
X89192500Y-64200000I-237500J0D01*
G01*
G37*
G36*
G01*
X112862400Y-37301200D02*
X112387400Y-37301200D01*
G75*
G02*
X112149900Y-37063700I0J237500D01*
G01*
X112149900Y-36488700D01*
G75*
G02*
X112387400Y-36251200I237500J0D01*
G01*
X112862400Y-36251200D01*
G75*
G02*
X113099900Y-36488700I0J-237500D01*
G01*
X113099900Y-37063700D01*
G75*
G02*
X112862400Y-37301200I-237500J0D01*
G01*
G37*
G36*
G01*
X112862400Y-39051200D02*
X112387400Y-39051200D01*
G75*
G02*
X112149900Y-38813700I0J237500D01*
G01*
X112149900Y-38238700D01*
G75*
G02*
X112387400Y-38001200I237500J0D01*
G01*
X112862400Y-38001200D01*
G75*
G02*
X113099900Y-38238700I0J-237500D01*
G01*
X113099900Y-38813700D01*
G75*
G02*
X112862400Y-39051200I-237500J0D01*
G01*
G37*
G36*
G01*
X115100500Y-45877800D02*
X115100500Y-46352800D01*
G75*
G02*
X114863000Y-46590300I-237500J0D01*
G01*
X114288000Y-46590300D01*
G75*
G02*
X114050500Y-46352800I0J237500D01*
G01*
X114050500Y-45877800D01*
G75*
G02*
X114288000Y-45640300I237500J0D01*
G01*
X114863000Y-45640300D01*
G75*
G02*
X115100500Y-45877800I0J-237500D01*
G01*
G37*
G36*
G01*
X116850500Y-45877800D02*
X116850500Y-46352800D01*
G75*
G02*
X116613000Y-46590300I-237500J0D01*
G01*
X116038000Y-46590300D01*
G75*
G02*
X115800500Y-46352800I0J237500D01*
G01*
X115800500Y-45877800D01*
G75*
G02*
X116038000Y-45640300I237500J0D01*
G01*
X116613000Y-45640300D01*
G75*
G02*
X116850500Y-45877800I0J-237500D01*
G01*
G37*
G36*
G01*
X118982200Y-45903200D02*
X118982200Y-46378200D01*
G75*
G02*
X118744700Y-46615700I-237500J0D01*
G01*
X118169700Y-46615700D01*
G75*
G02*
X117932200Y-46378200I0J237500D01*
G01*
X117932200Y-45903200D01*
G75*
G02*
X118169700Y-45665700I237500J0D01*
G01*
X118744700Y-45665700D01*
G75*
G02*
X118982200Y-45903200I0J-237500D01*
G01*
G37*
G36*
G01*
X120732200Y-45903200D02*
X120732200Y-46378200D01*
G75*
G02*
X120494700Y-46615700I-237500J0D01*
G01*
X119919700Y-46615700D01*
G75*
G02*
X119682200Y-46378200I0J237500D01*
G01*
X119682200Y-45903200D01*
G75*
G02*
X119919700Y-45665700I237500J0D01*
G01*
X120494700Y-45665700D01*
G75*
G02*
X120732200Y-45903200I0J-237500D01*
G01*
G37*
M02*
