M48
; DRILL file {KiCad (5.1.2)-2} date 09-Mar-20 10:31:16 AM
; FORMAT={-:-/ absolute / inch / decimal}
; #@! TF.CreationDate,2020-03-09T10:31:16+01:00
; #@! TF.GenerationSoftware,Kicad,Pcbnew,(5.1.2)-2
; #@! TF.FileFunction,Plated,1,2,PTH
FMAT,2
INCH
T1C0.0157
T2C0.0197
T3C0.0394
T4C0.0433
T5C0.1260
%
G90
G05
T1
X3.595Y-2.113
X3.68Y-2.24
X3.685Y-2.712
X3.6855Y-2.6805
X3.716Y-2.68
X3.717Y-2.712
X3.7315Y-2.5465
X3.789Y-2.032
X3.86Y-2.172
X3.8805Y-2.449
X3.936Y-2.4485
X4.0975Y-1.577
X4.105Y-2.362
X4.106Y-1.6385
X4.1085Y-1.504
X4.115Y-1.453
X4.142Y-1.3115
X4.144Y-1.3535
X4.1525Y-2.342
X4.1555Y-2.9185
X4.2565Y-1.8445
X4.2745Y-2.674
X4.2755Y-2.706
X4.299Y-1.883
X4.3015Y-3.4175
X4.3075Y-2.674
X4.308Y-2.7075
X4.413Y-1.6555
X4.4165Y-1.7131
X4.4165Y-1.7525
X4.434Y-1.313
X4.444Y-1.3835
X4.445Y-1.5855
X4.472Y-1.469
X4.5125Y-1.657
X4.5155Y-1.712
X4.552Y-2.8285
X4.5575Y-1.538
X4.6005Y-1.8395
X4.603Y-2.1325
X4.67Y-2.0005
X4.81Y-2.1325
T2
X3.3701Y-3.2283
X3.3978Y-3.1615
X3.3978Y-3.2952
X3.4646Y-3.1339
X3.4646Y-3.3228
X3.5314Y-3.1615
X3.5314Y-3.2952
X3.5591Y-3.2283
X4.5906Y-1.1811
X4.6182Y-1.1143
X4.6182Y-1.2479
X4.685Y-1.0866
X4.685Y-1.2756
X4.7519Y-1.1143
X4.7519Y-1.2479
X4.7795Y-1.1811
T3
X4.752Y-3.3496
X3.1496Y-2.1024
X4.752Y-3.1496
X3.1496Y-1.7024
X4.749Y-1.489
X4.752Y-1.689
X3.1496Y-1.5024
X3.1496Y-1.1024
X3.1496Y-1.9024
X3.1496Y-1.3024
T4
X3.5433Y-3.7598
X3.5433Y-3.878
X3.6417Y-3.7598
X3.6417Y-3.878
X3.7402Y-3.7598
X3.7402Y-3.878
X3.8386Y-3.7598
X3.8386Y-3.878
X3.937Y-3.7598
X3.937Y-3.878
X4.0354Y-3.7598
X4.0354Y-3.878
X4.1339Y-3.7598
X4.1339Y-3.878
X4.2323Y-3.7598
X4.2323Y-3.878
X4.3307Y-3.7598
X4.3307Y-3.878
T5
X3.4646Y-3.2283
X4.685Y-1.1811
T0
M30
