M48
; DRILL file {KiCad (5.1.6)-1} date 12/13/20 22:16:38
; FORMAT={-:-/ absolute / inch / decimal}
; #@! TF.CreationDate,2020-12-13T22:16:38+01:00
; #@! TF.GenerationSoftware,Kicad,Pcbnew,(5.1.6)-1
; #@! TF.FileFunction,Plated,1,2,PTH
FMAT,2
INCH
T1C0.0118
T2C0.0157
T3C0.0197
T4C0.0394
T5C0.0433
T6C0.1260
%
G90
G05
T1
X3.4508Y-1.5837
X3.8189Y-1.4685
X3.8533Y-1.4803
X4.3917Y-1.1506
X4.5984Y-1.6323
X4.6073Y-1.7037
T2
X3.2057Y-2.0157
X3.25Y-2.0157
X3.3031Y-2.0157
X3.4311Y-2.2539
X3.4311Y-2.2933
X3.4311Y-2.3317
X3.4931Y-1.873
X3.4937Y-1.9449
X3.4941Y-1.7648
X3.5846Y-2.0659
X3.5846Y-2.1171
X3.6358Y-2.0659
X3.6358Y-2.1171
X3.6358Y-2.1683
X3.687Y-2.0659
X3.687Y-2.1171
X3.687Y-2.1683
X3.687Y-2.2195
X3.7352Y-2.8386
X3.7352Y-2.8976
X3.7352Y-2.9567
X3.7352Y-3.0157
X3.7352Y-3.0748
X3.7352Y-3.1339
X3.7352Y-3.1929
X3.7352Y-3.252
X3.7352Y-3.311
X3.7352Y-3.3701
X3.7382Y-2.1683
X3.7382Y-2.2195
X3.7382Y-2.2707
X3.7461Y-2.377
X3.7815Y-1.5846
X3.7894Y-2.1683
X3.7894Y-2.2195
X3.7894Y-2.2707
X3.7943Y-2.8386
X3.7943Y-2.8976
X3.7943Y-2.9567
X3.7943Y-3.0157
X3.7943Y-3.0748
X3.7943Y-3.1339
X3.7943Y-3.1929
X3.7943Y-3.252
X3.7943Y-3.311
X3.8297Y-1.3573
X3.8406Y-2.1683
X3.8406Y-2.2195
X3.8406Y-2.2707
X3.8406Y-2.3219
X3.8533Y-2.8386
X3.8533Y-2.8976
X3.8533Y-2.9567
X3.8533Y-3.0157
X3.8533Y-3.0748
X3.8533Y-3.1339
X3.8533Y-3.1929
X3.8533Y-3.252
X3.8652Y-2.374
X3.8652Y-2.4252
X3.8652Y-2.4764
X3.8652Y-2.5276
X3.8652Y-2.5787
X3.8652Y-2.6299
X3.8652Y-2.6811
X3.8652Y-2.7323
X3.8652Y-2.7835
X3.8917Y-2.1683
X3.8917Y-2.2195
X3.8917Y-2.2707
X3.8917Y-2.3219
X3.9124Y-2.8386
X3.9124Y-2.8976
X3.9124Y-2.9567
X3.9124Y-3.0157
X3.9124Y-3.0748
X3.9124Y-3.1339
X3.9124Y-3.1929
X3.9124Y-3.252
X3.9163Y-2.374
X3.9163Y-2.4252
X3.9163Y-2.4764
X3.9163Y-2.5276
X3.9163Y-2.5787
X3.9163Y-2.6299
X3.9163Y-2.6811
X3.9163Y-2.7323
X3.9163Y-2.7835
X3.937Y-1.4734
X3.9429Y-2.1683
X3.9429Y-2.2195
X3.9429Y-2.2707
X3.9429Y-2.3219
X3.9675Y-2.374
X3.9675Y-2.4252
X3.9675Y-2.4764
X3.9675Y-2.5276
X3.9675Y-2.5787
X3.9675Y-2.6299
X3.9675Y-2.6811
X3.9675Y-2.7323
X3.9675Y-2.7835
X3.9715Y-2.8386
X3.9715Y-2.8976
X3.9715Y-2.9567
X3.9715Y-3.0157
X3.9715Y-3.0748
X3.9715Y-3.1339
X3.9715Y-3.1929
X3.9715Y-3.252
X3.9941Y-2.1683
X3.9941Y-2.2195
X3.9941Y-2.2707
X3.9941Y-2.3219
X4.0Y-1.5561
X4.0187Y-2.374
X4.0187Y-2.4252
X4.0187Y-2.4764
X4.0187Y-2.5276
X4.0187Y-2.5787
X4.0187Y-2.6299
X4.0187Y-2.6811
X4.0187Y-2.7323
X4.0187Y-2.7835
X4.0305Y-1.5187
X4.0305Y-2.8386
X4.0305Y-2.8976
X4.0305Y-2.9567
X4.0305Y-3.0157
X4.0305Y-3.0748
X4.0305Y-3.1339
X4.0305Y-3.1929
X4.0305Y-3.252
X4.0453Y-2.1683
X4.0453Y-2.2195
X4.0453Y-2.2707
X4.0453Y-2.3219
X4.0669Y-1.2785
X4.0758Y-1.5866
X4.0817Y-1.3573
X4.0896Y-2.8386
X4.0896Y-2.8976
X4.0896Y-2.9567
X4.0896Y-3.0157
X4.0896Y-3.0748
X4.0896Y-3.1339
X4.0896Y-3.1929
X4.0896Y-3.252
X4.0896Y-3.311
X4.0965Y-2.1171
X4.0965Y-2.1683
X4.0965Y-2.2195
X4.0965Y-2.2707
X4.1378Y-1.7795
X4.1486Y-2.8386
X4.1486Y-2.8976
X4.1486Y-2.9567
X4.1486Y-3.0157
X4.1486Y-3.0748
X4.1486Y-3.1339
X4.1486Y-3.1929
X4.1486Y-3.252
X4.1486Y-3.311
X4.1486Y-3.3701
X4.2077Y-1.2953
X4.2156Y-1.2461
X4.2224Y-1.4124
X4.3533Y-1.813
X4.3593Y-2.2037
X4.3593Y-2.2746
X4.3666Y-2.3282
X4.3711Y-1.3947
X4.3829Y-1.5866
X4.4035Y-1.6299
X4.4045Y-2.3701
X4.4498Y-1.251
X4.4616Y-1.3819
X4.5108Y-1.8829
X4.6644Y-1.8829
X4.7431Y-1.3829
X4.7884Y-1.3819
T3
X3.0433Y-1.122
X3.071Y-1.0552
X3.071Y-1.1889
X3.1378Y-1.0276
X3.1378Y-1.2165
X3.2046Y-1.0552
X3.2046Y-1.1889
X3.2323Y-1.122
X3.8425Y-3.4646
X3.8702Y-3.3978
X3.8702Y-3.5314
X3.937Y-3.3701
X3.937Y-3.5591
X4.0038Y-3.3978
X4.0038Y-3.5314
X4.0315Y-3.4646
X4.6417Y-1.122
X4.6694Y-1.0552
X4.6694Y-1.1889
X4.7362Y-1.0276
X4.7362Y-1.2165
X4.803Y-1.0552
X4.803Y-1.1889
X4.8307Y-1.122
T4
X3.1329Y-1.4163
X3.1329Y-1.5163
X3.1329Y-1.6163
X3.1329Y-1.7163
X3.1329Y-1.8163
X3.2329Y-1.4163
X3.2329Y-1.5163
X3.2329Y-1.6163
X3.2329Y-1.7163
X3.2329Y-1.8163
T5
X3.5364Y-3.8573
X3.5364Y-3.9754
X3.6348Y-3.8573
X3.6348Y-3.9754
X3.7333Y-3.8573
X3.7333Y-3.9754
X3.8317Y-3.8573
X3.8317Y-3.9754
X3.9301Y-3.8573
X3.9301Y-3.9754
X4.0285Y-3.8573
X4.0285Y-3.9754
X4.127Y-3.8573
X4.127Y-3.9754
X4.2254Y-3.8573
X4.2254Y-3.9754
X4.3238Y-3.8573
X4.3238Y-3.9754
T6
X3.1378Y-1.122
X3.937Y-3.4646
X4.7362Y-1.122
T0
M30
