G04 #@! TF.GenerationSoftware,KiCad,Pcbnew,(5.1.6)-1*
G04 #@! TF.CreationDate,2020-12-13T22:16:35+01:00*
G04 #@! TF.ProjectId,ETBC_2020,45544243-5f32-4303-9230-2e6b69636164,rev?*
G04 #@! TF.SameCoordinates,Original*
G04 #@! TF.FileFunction,Soldermask,Bot*
G04 #@! TF.FilePolarity,Negative*
%FSLAX46Y46*%
G04 Gerber Fmt 4.6, Leading zero omitted, Abs format (unit mm)*
G04 Created by KiCad (PCBNEW (5.1.6)-1) date 2020-12-13 22:16:35*
%MOMM*%
%LPD*%
G01*
G04 APERTURE LIST*
%ADD10C,0.100000*%
%ADD11O,1.700000X1.700000*%
%ADD12R,1.700000X1.700000*%
%ADD13C,0.700000*%
%ADD14C,2.200000*%
%ADD15R,1.650000X1.650000*%
%ADD16C,1.650000*%
%ADD17C,3.200000*%
%ADD18C,0.800000*%
%ADD19C,6.400000*%
G04 APERTURE END LIST*
D10*
G36*
X96025000Y-99650000D02*
G01*
X91050000Y-99650000D01*
X91050000Y-94000000D01*
X96025000Y-94000000D01*
X96025000Y-99650000D01*
G37*
X96025000Y-99650000D02*
X91050000Y-99650000D01*
X91050000Y-94000000D01*
X96025000Y-94000000D01*
X96025000Y-99650000D01*
G36*
X105975000Y-104475000D02*
G01*
X98675000Y-104475000D01*
X98675000Y-99600000D01*
X105975000Y-99600000D01*
X105975000Y-104475000D01*
G37*
X105975000Y-104475000D02*
X98675000Y-104475000D01*
X98675000Y-99600000D01*
X105975000Y-99600000D01*
X105975000Y-104475000D01*
G36*
X128487500Y-83356250D02*
G01*
X71212500Y-83343750D01*
X72125000Y-55837500D01*
X126600000Y-55812500D01*
X128487500Y-83356250D01*
G37*
X128487500Y-83356250D02*
X71212500Y-83343750D01*
X72125000Y-55837500D01*
X126600000Y-55812500D01*
X128487500Y-83356250D01*
D11*
X82115000Y-46135000D03*
X79575000Y-46135000D03*
X82115000Y-43595000D03*
X79575000Y-43595000D03*
X82115000Y-41055000D03*
X79575000Y-41055000D03*
X82115000Y-38515000D03*
X79575000Y-38515000D03*
X82115000Y-35975000D03*
D12*
X79575000Y-35975000D03*
D13*
X105975000Y-31174600D03*
X108575000Y-44174600D03*
D14*
X87363000Y-29252600D03*
D15*
X109825000Y-97975000D03*
D16*
X107325000Y-97975000D03*
X104825000Y-97975000D03*
X102325000Y-97975000D03*
X99825000Y-97975000D03*
X97325000Y-97975000D03*
X94825000Y-97975000D03*
X92325000Y-97975000D03*
X89825000Y-97975000D03*
X109825000Y-100975000D03*
X107325000Y-100975000D03*
X104825000Y-100975000D03*
D17*
X84325000Y-102475000D03*
X115325000Y-102475000D03*
D16*
X102325000Y-100975000D03*
X99825000Y-100975000D03*
X97325000Y-100975000D03*
X94825000Y-100975000D03*
X92325000Y-100975000D03*
X89825000Y-100975000D03*
D18*
X101697056Y-86302944D03*
X100000000Y-85600000D03*
X98302944Y-86302944D03*
X97600000Y-88000000D03*
X98302944Y-89697056D03*
X100000000Y-90400000D03*
X101697056Y-89697056D03*
X102400000Y-88000000D03*
D19*
X100000000Y-88000000D03*
D18*
X121997056Y-26802944D03*
X120300000Y-26100000D03*
X118602944Y-26802944D03*
X117900000Y-28500000D03*
X118602944Y-30197056D03*
X120300000Y-30900000D03*
X121997056Y-30197056D03*
X122700000Y-28500000D03*
D19*
X120300000Y-28500000D03*
D18*
X81397056Y-26802944D03*
X79700000Y-26100000D03*
X78002944Y-26802944D03*
X77300000Y-28500000D03*
X78002944Y-30197056D03*
X79700000Y-30900000D03*
X81397056Y-30197056D03*
X82100000Y-28500000D03*
D19*
X79700000Y-28500000D03*
M02*
