G04 #@! TF.GenerationSoftware,KiCad,Pcbnew,(5.1.4)-1*
G04 #@! TF.CreationDate,2019-12-10T17:27:58+01:00*
G04 #@! TF.ProjectId,teensy4_header_breakout,7465656e-7379-4345-9f68-65616465725f,rev?*
G04 #@! TF.SameCoordinates,Original*
G04 #@! TF.FileFunction,Copper,L3,Inr*
G04 #@! TF.FilePolarity,Positive*
%FSLAX46Y46*%
G04 Gerber Fmt 4.6, Leading zero omitted, Abs format (unit mm)*
G04 Created by KiCad (PCBNEW (5.1.4)-1) date 2019-12-10 17:27:58*
%MOMM*%
%LPD*%
G04 APERTURE LIST*
%ADD10C,0.300000*%
%ADD11C,1.524000*%
%ADD12C,4.000000*%
%ADD13C,1.500000*%
%ADD14C,0.800000*%
%ADD15C,2.000000*%
%ADD16C,1.000000*%
%ADD17C,1.000000*%
%ADD18C,0.500000*%
%ADD19C,0.254000*%
G04 APERTURE END LIST*
D10*
X116750000Y-146178571D02*
X117678571Y-146178571D01*
X117178571Y-146750000D01*
X117392857Y-146750000D01*
X117535714Y-146821428D01*
X117607142Y-146892857D01*
X117678571Y-147035714D01*
X117678571Y-147392857D01*
X117607142Y-147535714D01*
X117535714Y-147607142D01*
X117392857Y-147678571D01*
X116964285Y-147678571D01*
X116821428Y-147607142D01*
X116750000Y-147535714D01*
D11*
X166809900Y-144121160D03*
X119309900Y-144121160D03*
X166809900Y-142271160D03*
X119309900Y-142271160D03*
X166809900Y-140421160D03*
X119309900Y-140421160D03*
X151795480Y-105722420D03*
X151795480Y-108262420D03*
X151795480Y-110802420D03*
X151795480Y-113342420D03*
X151795480Y-115882420D03*
X154335480Y-105722420D03*
X154395480Y-108262420D03*
X154395480Y-110802420D03*
X154395480Y-113342420D03*
X154395480Y-115882420D03*
X159415480Y-105722420D03*
X159415480Y-108262420D03*
X159415480Y-110802420D03*
X159415480Y-113342420D03*
X159415480Y-115882420D03*
X159415480Y-103182420D03*
X159415480Y-118422420D03*
X156875480Y-103182420D03*
X156875480Y-118422420D03*
X154335480Y-103182420D03*
X154335480Y-118422420D03*
X151795480Y-103182420D03*
X151795480Y-118422420D03*
X149255480Y-103182420D03*
X149255480Y-118422420D03*
X146715480Y-103182420D03*
X146715480Y-118422420D03*
X144175480Y-103182420D03*
X144175480Y-118422420D03*
X141635480Y-103182420D03*
X141635480Y-118422420D03*
X139095480Y-103182420D03*
X139095480Y-118422420D03*
X136555480Y-103182420D03*
X136555480Y-118422420D03*
X134015480Y-103182420D03*
X134015480Y-118422420D03*
X131475480Y-103182420D03*
X131475480Y-118422420D03*
X128935480Y-103182420D03*
X128935480Y-118422420D03*
X126395480Y-103182420D03*
X126395480Y-118422420D03*
D12*
X172580090Y-142643600D03*
X113596680Y-142643600D03*
X172580090Y-74643240D03*
X113596680Y-74643240D03*
D13*
X172054520Y-106004360D03*
X172054520Y-108544360D03*
X172054520Y-103464360D03*
D14*
X114823240Y-119872760D03*
X158551880Y-96799400D03*
X154655520Y-92704920D03*
X156530040Y-77271880D03*
X160101280Y-77378560D03*
X166004240Y-77962760D03*
X172653960Y-79928720D03*
X173893480Y-84175600D03*
X166999920Y-96596200D03*
X166502080Y-99954080D03*
X167497760Y-101925120D03*
X173908720Y-114310160D03*
X173847760Y-118587520D03*
X173126400Y-124444760D03*
X172440600Y-129260600D03*
X169382440Y-125069600D03*
X172745400Y-134325360D03*
X113583720Y-132237480D03*
X118165880Y-129199640D03*
X114081560Y-127934720D03*
X116500000Y-105250000D03*
X125877320Y-78577440D03*
X126365000Y-80751680D03*
X131536440Y-73461880D03*
X154818080Y-74716640D03*
X164500560Y-74767440D03*
X134426272Y-101439080D03*
X154411680Y-78750160D03*
X144531080Y-87858600D03*
X153482040Y-88153240D03*
X170205400Y-88158320D03*
X114912140Y-82928460D03*
X128849120Y-98163190D03*
D15*
X162570160Y-83972400D03*
D14*
X132420360Y-100589080D03*
X129984500Y-75890120D03*
D16*
X170522900Y-115717320D03*
D15*
X164807900Y-116400020D03*
X118353840Y-111589820D03*
X135377353Y-93703280D03*
X161764158Y-96102679D03*
D16*
X165346956Y-118012294D03*
X121113209Y-102225070D03*
X121315480Y-106288840D03*
X161536380Y-108112560D03*
D14*
X116227860Y-82331560D03*
D16*
X122063219Y-88484419D03*
D14*
X115041680Y-92583000D03*
D16*
X146827240Y-114818160D03*
X143819880Y-114815620D03*
D14*
X114167392Y-93088753D03*
X142417800Y-95813880D03*
X144109452Y-97153360D03*
D16*
X145140730Y-98003360D03*
X138181080Y-97033080D03*
D15*
X160947100Y-125006100D03*
X113477040Y-123291600D03*
D16*
X141480540Y-126206100D03*
X149250400Y-112059720D03*
D14*
X130228340Y-100525580D03*
X132741670Y-105817670D03*
X149138640Y-126207520D03*
X127706120Y-87299800D03*
X125984000Y-92242640D03*
X153228040Y-126492000D03*
X146537680Y-94284800D03*
X154564080Y-126405640D03*
X155666440Y-126492000D03*
X150520400Y-91013280D03*
D16*
X161693860Y-85575140D03*
X149216446Y-96618126D03*
D14*
X156845000Y-127050800D03*
X151739600Y-90901520D03*
X154396440Y-96413320D03*
X157843504Y-126996088D03*
X159024320Y-126949200D03*
X169621200Y-97475040D03*
X160136840Y-127086360D03*
X173283880Y-95437960D03*
X125750000Y-115250000D03*
X131364007Y-95726343D03*
X130472180Y-97962720D03*
D16*
X113750000Y-106500000D03*
D17*
X163570159Y-111709841D02*
X159420000Y-115860000D01*
X162570160Y-83972400D02*
X163570159Y-84972399D01*
X163570159Y-84972399D02*
X163570159Y-111709841D01*
D18*
X132420360Y-78325980D02*
X130384499Y-76290119D01*
X130384499Y-76290119D02*
X129984500Y-75890120D01*
X132420360Y-100589080D02*
X132420360Y-78325980D01*
X144109452Y-96961972D02*
X144109452Y-97153360D01*
X142417800Y-95813880D02*
X142961360Y-95813880D01*
X142961360Y-95813880D02*
X144109452Y-96961972D01*
X123023389Y-122129309D02*
X123023389Y-91982531D01*
X127306121Y-87699799D02*
X127706120Y-87299800D01*
X125740160Y-124846080D02*
X123023389Y-122129309D01*
X147777201Y-124846081D02*
X125740160Y-124846080D01*
X149138640Y-126207520D02*
X147777201Y-124846081D01*
X123023389Y-91982531D02*
X127306121Y-87699799D01*
X150882110Y-124146070D02*
X153228040Y-126492000D01*
X126071390Y-124146070D02*
X150882110Y-124146070D01*
X123723400Y-121798080D02*
X126071390Y-124146070D01*
X125984000Y-92242640D02*
X123723400Y-94503240D01*
X123723400Y-94503240D02*
X123723400Y-121798080D01*
X148015960Y-119857520D02*
X154564080Y-126405640D01*
X146537680Y-94284800D02*
X148015960Y-95763080D01*
X148015960Y-95763080D02*
X148015960Y-119857520D01*
X155663479Y-126489039D02*
X155666440Y-126492000D01*
X150520400Y-120736360D02*
X150520400Y-91578965D01*
X155666440Y-126492000D02*
X155666440Y-125882400D01*
X150520400Y-91578965D02*
X150520400Y-91013280D01*
X155666440Y-125882400D02*
X150520400Y-120736360D01*
X151719280Y-90901520D02*
X151739600Y-90901520D01*
X151719280Y-99004120D02*
X151719280Y-90901520D01*
X153062940Y-100347780D02*
X151719280Y-99004120D01*
X153062940Y-120733820D02*
X153062940Y-100347780D01*
X156845000Y-127050800D02*
X156845000Y-124515880D01*
X156845000Y-124515880D02*
X153062940Y-120733820D01*
X157843504Y-121184206D02*
X157843504Y-126996088D01*
X155615640Y-118956342D02*
X157843504Y-121184206D01*
X155615640Y-98198205D02*
X155615640Y-118956342D01*
X154396440Y-96413320D02*
X154396440Y-96979005D01*
X154396440Y-96979005D02*
X155615640Y-98198205D01*
X169621200Y-107002316D02*
X169621200Y-97475040D01*
X163357899Y-113265617D02*
X169621200Y-107002316D01*
X163357899Y-116273763D02*
X163357899Y-113265617D01*
X159024320Y-126949200D02*
X159024320Y-120607342D01*
X159024320Y-120607342D02*
X163357899Y-116273763D01*
X170471201Y-108351677D02*
X170471201Y-98453839D01*
X169572899Y-109249979D02*
X170471201Y-108351677D01*
X169572899Y-118526303D02*
X169572899Y-109249979D01*
X160136840Y-127086360D02*
X161012842Y-127086360D01*
X161012842Y-127086360D02*
X169572899Y-118526303D01*
X170471201Y-98453839D02*
X170471201Y-98250639D01*
X170471201Y-98250639D02*
X173283880Y-95437960D01*
D17*
X131475480Y-103182420D02*
X131475480Y-109524520D01*
X131475480Y-109524520D02*
X125750000Y-115250000D01*
D18*
X131364007Y-95726343D02*
X131364007Y-97070893D01*
X131364007Y-97070893D02*
X130872179Y-97562721D01*
X130872179Y-97562721D02*
X130472180Y-97962720D01*
D19*
G36*
X170151191Y-72649894D02*
G01*
X169808979Y-73162050D01*
X169573259Y-73731128D01*
X169453090Y-74335257D01*
X169453090Y-74951223D01*
X169573259Y-75555352D01*
X169808979Y-76124430D01*
X170151191Y-76636586D01*
X170586744Y-77072139D01*
X171098900Y-77414351D01*
X171667978Y-77650071D01*
X172272107Y-77770240D01*
X172888073Y-77770240D01*
X173492202Y-77650071D01*
X174061280Y-77414351D01*
X174573436Y-77072139D01*
X174890001Y-76755574D01*
X174890001Y-83880212D01*
X174888706Y-83873702D01*
X174810685Y-83685344D01*
X174697417Y-83515826D01*
X174553254Y-83371663D01*
X174383736Y-83258395D01*
X174195378Y-83180374D01*
X173995419Y-83140600D01*
X173791541Y-83140600D01*
X173591582Y-83180374D01*
X173403224Y-83258395D01*
X173233706Y-83371663D01*
X173089543Y-83515826D01*
X172976275Y-83685344D01*
X172898254Y-83873702D01*
X172858480Y-84073661D01*
X172858480Y-84277539D01*
X172898254Y-84477498D01*
X172976275Y-84665856D01*
X173089543Y-84835374D01*
X173233706Y-84979537D01*
X173403224Y-85092805D01*
X173591582Y-85170826D01*
X173791541Y-85210600D01*
X173995419Y-85210600D01*
X174195378Y-85170826D01*
X174383736Y-85092805D01*
X174553254Y-84979537D01*
X174697417Y-84835374D01*
X174810685Y-84665856D01*
X174888706Y-84477498D01*
X174890001Y-84470988D01*
X174890000Y-113974595D01*
X174825925Y-113819904D01*
X174712657Y-113650386D01*
X174568494Y-113506223D01*
X174398976Y-113392955D01*
X174210618Y-113314934D01*
X174010659Y-113275160D01*
X173806781Y-113275160D01*
X173606822Y-113314934D01*
X173418464Y-113392955D01*
X173248946Y-113506223D01*
X173104783Y-113650386D01*
X172991515Y-113819904D01*
X172913494Y-114008262D01*
X172873720Y-114208221D01*
X172873720Y-114412099D01*
X172913494Y-114612058D01*
X172991515Y-114800416D01*
X173104783Y-114969934D01*
X173248946Y-115114097D01*
X173418464Y-115227365D01*
X173606822Y-115305386D01*
X173806781Y-115345160D01*
X174010659Y-115345160D01*
X174210618Y-115305386D01*
X174398976Y-115227365D01*
X174568494Y-115114097D01*
X174712657Y-114969934D01*
X174825925Y-114800416D01*
X174890000Y-114645725D01*
X174890000Y-140531265D01*
X174573436Y-140214701D01*
X174061280Y-139872489D01*
X173492202Y-139636769D01*
X172888073Y-139516600D01*
X172272107Y-139516600D01*
X171667978Y-139636769D01*
X171098900Y-139872489D01*
X170586744Y-140214701D01*
X170151191Y-140650254D01*
X169808979Y-141162410D01*
X169573259Y-141731488D01*
X169453090Y-142335617D01*
X169453090Y-142951583D01*
X169573259Y-143555712D01*
X169808979Y-144124790D01*
X170151191Y-144636946D01*
X170586744Y-145072499D01*
X171098900Y-145414711D01*
X171667978Y-145650431D01*
X172272107Y-145770600D01*
X172888073Y-145770600D01*
X173492202Y-145650431D01*
X174061280Y-145414711D01*
X174573436Y-145072499D01*
X174890000Y-144755935D01*
X174890000Y-147958240D01*
X118749286Y-147958240D01*
X118749286Y-145401048D01*
X118902410Y-145464474D01*
X119172308Y-145518160D01*
X119447492Y-145518160D01*
X119717390Y-145464474D01*
X119971627Y-145359165D01*
X120200435Y-145206280D01*
X120395020Y-145011695D01*
X120547905Y-144782887D01*
X120653214Y-144528650D01*
X120706900Y-144258752D01*
X120706900Y-143983568D01*
X120653214Y-143713670D01*
X120547905Y-143459433D01*
X120395020Y-143230625D01*
X120360555Y-143196160D01*
X120395020Y-143161695D01*
X120547905Y-142932887D01*
X120653214Y-142678650D01*
X120706900Y-142408752D01*
X120706900Y-142133568D01*
X120653214Y-141863670D01*
X120547905Y-141609433D01*
X120395020Y-141380625D01*
X120360555Y-141346160D01*
X120395020Y-141311695D01*
X120547905Y-141082887D01*
X120653214Y-140828650D01*
X120706900Y-140558752D01*
X120706900Y-140283568D01*
X165412900Y-140283568D01*
X165412900Y-140558752D01*
X165466586Y-140828650D01*
X165571895Y-141082887D01*
X165724780Y-141311695D01*
X165759245Y-141346160D01*
X165724780Y-141380625D01*
X165571895Y-141609433D01*
X165466586Y-141863670D01*
X165412900Y-142133568D01*
X165412900Y-142408752D01*
X165466586Y-142678650D01*
X165571895Y-142932887D01*
X165724780Y-143161695D01*
X165759245Y-143196160D01*
X165724780Y-143230625D01*
X165571895Y-143459433D01*
X165466586Y-143713670D01*
X165412900Y-143983568D01*
X165412900Y-144258752D01*
X165466586Y-144528650D01*
X165571895Y-144782887D01*
X165724780Y-145011695D01*
X165919365Y-145206280D01*
X166148173Y-145359165D01*
X166402410Y-145464474D01*
X166672308Y-145518160D01*
X166947492Y-145518160D01*
X167217390Y-145464474D01*
X167471627Y-145359165D01*
X167700435Y-145206280D01*
X167895020Y-145011695D01*
X168047905Y-144782887D01*
X168153214Y-144528650D01*
X168206900Y-144258752D01*
X168206900Y-143983568D01*
X168153214Y-143713670D01*
X168047905Y-143459433D01*
X167895020Y-143230625D01*
X167860555Y-143196160D01*
X167895020Y-143161695D01*
X168047905Y-142932887D01*
X168153214Y-142678650D01*
X168206900Y-142408752D01*
X168206900Y-142133568D01*
X168153214Y-141863670D01*
X168047905Y-141609433D01*
X167895020Y-141380625D01*
X167860555Y-141346160D01*
X167895020Y-141311695D01*
X168047905Y-141082887D01*
X168153214Y-140828650D01*
X168206900Y-140558752D01*
X168206900Y-140283568D01*
X168153214Y-140013670D01*
X168047905Y-139759433D01*
X167895020Y-139530625D01*
X167700435Y-139336040D01*
X167471627Y-139183155D01*
X167217390Y-139077846D01*
X166947492Y-139024160D01*
X166672308Y-139024160D01*
X166402410Y-139077846D01*
X166148173Y-139183155D01*
X165919365Y-139336040D01*
X165724780Y-139530625D01*
X165571895Y-139759433D01*
X165466586Y-140013670D01*
X165412900Y-140283568D01*
X120706900Y-140283568D01*
X120653214Y-140013670D01*
X120547905Y-139759433D01*
X120395020Y-139530625D01*
X120200435Y-139336040D01*
X119971627Y-139183155D01*
X119717390Y-139077846D01*
X119447492Y-139024160D01*
X119172308Y-139024160D01*
X118902410Y-139077846D01*
X118648173Y-139183155D01*
X118419365Y-139336040D01*
X118224780Y-139530625D01*
X118071895Y-139759433D01*
X117966586Y-140013670D01*
X117912900Y-140283568D01*
X117912900Y-140558752D01*
X117966586Y-140828650D01*
X118071895Y-141082887D01*
X118224780Y-141311695D01*
X118259245Y-141346160D01*
X118224780Y-141380625D01*
X118071895Y-141609433D01*
X117966586Y-141863670D01*
X117912900Y-142133568D01*
X117912900Y-142408752D01*
X117966586Y-142678650D01*
X118071895Y-142932887D01*
X118224780Y-143161695D01*
X118259245Y-143196160D01*
X118224780Y-143230625D01*
X118071895Y-143459433D01*
X117966586Y-143713670D01*
X117912900Y-143983568D01*
X117912900Y-144258752D01*
X117966586Y-144528650D01*
X118071895Y-144782887D01*
X118224780Y-145011695D01*
X118419365Y-145206280D01*
X118424932Y-145210000D01*
X115750715Y-145210000D01*
X115750715Y-147958240D01*
X111253880Y-147958240D01*
X111253880Y-144723045D01*
X111603334Y-145072499D01*
X112115490Y-145414711D01*
X112684568Y-145650431D01*
X113288697Y-145770600D01*
X113904663Y-145770600D01*
X114508792Y-145650431D01*
X115077870Y-145414711D01*
X115590026Y-145072499D01*
X116025579Y-144636946D01*
X116367791Y-144124790D01*
X116603511Y-143555712D01*
X116723680Y-142951583D01*
X116723680Y-142335617D01*
X116603511Y-141731488D01*
X116367791Y-141162410D01*
X116025579Y-140650254D01*
X115590026Y-140214701D01*
X115077870Y-139872489D01*
X114508792Y-139636769D01*
X113904663Y-139516600D01*
X113288697Y-139516600D01*
X112684568Y-139636769D01*
X112115490Y-139872489D01*
X111603334Y-140214701D01*
X111253880Y-140564155D01*
X111253880Y-134223421D01*
X171710400Y-134223421D01*
X171710400Y-134427299D01*
X171750174Y-134627258D01*
X171828195Y-134815616D01*
X171941463Y-134985134D01*
X172085626Y-135129297D01*
X172255144Y-135242565D01*
X172443502Y-135320586D01*
X172643461Y-135360360D01*
X172847339Y-135360360D01*
X173047298Y-135320586D01*
X173235656Y-135242565D01*
X173405174Y-135129297D01*
X173549337Y-134985134D01*
X173662605Y-134815616D01*
X173740626Y-134627258D01*
X173780400Y-134427299D01*
X173780400Y-134223421D01*
X173740626Y-134023462D01*
X173662605Y-133835104D01*
X173549337Y-133665586D01*
X173405174Y-133521423D01*
X173235656Y-133408155D01*
X173047298Y-133330134D01*
X172847339Y-133290360D01*
X172643461Y-133290360D01*
X172443502Y-133330134D01*
X172255144Y-133408155D01*
X172085626Y-133521423D01*
X171941463Y-133665586D01*
X171828195Y-133835104D01*
X171750174Y-134023462D01*
X171710400Y-134223421D01*
X111253880Y-134223421D01*
X111253880Y-132135541D01*
X112548720Y-132135541D01*
X112548720Y-132339419D01*
X112588494Y-132539378D01*
X112666515Y-132727736D01*
X112779783Y-132897254D01*
X112923946Y-133041417D01*
X113093464Y-133154685D01*
X113281822Y-133232706D01*
X113481781Y-133272480D01*
X113685659Y-133272480D01*
X113885618Y-133232706D01*
X114073976Y-133154685D01*
X114243494Y-133041417D01*
X114387657Y-132897254D01*
X114500925Y-132727736D01*
X114578946Y-132539378D01*
X114618720Y-132339419D01*
X114618720Y-132135541D01*
X114578946Y-131935582D01*
X114500925Y-131747224D01*
X114387657Y-131577706D01*
X114243494Y-131433543D01*
X114073976Y-131320275D01*
X113885618Y-131242254D01*
X113685659Y-131202480D01*
X113481781Y-131202480D01*
X113281822Y-131242254D01*
X113093464Y-131320275D01*
X112923946Y-131433543D01*
X112779783Y-131577706D01*
X112666515Y-131747224D01*
X112588494Y-131935582D01*
X112548720Y-132135541D01*
X111253880Y-132135541D01*
X111253880Y-129097701D01*
X117130880Y-129097701D01*
X117130880Y-129301579D01*
X117170654Y-129501538D01*
X117248675Y-129689896D01*
X117361943Y-129859414D01*
X117506106Y-130003577D01*
X117675624Y-130116845D01*
X117863982Y-130194866D01*
X118063941Y-130234640D01*
X118267819Y-130234640D01*
X118467778Y-130194866D01*
X118656136Y-130116845D01*
X118825654Y-130003577D01*
X118969817Y-129859414D01*
X119083085Y-129689896D01*
X119161106Y-129501538D01*
X119200880Y-129301579D01*
X119200880Y-129158661D01*
X171405600Y-129158661D01*
X171405600Y-129362539D01*
X171445374Y-129562498D01*
X171523395Y-129750856D01*
X171636663Y-129920374D01*
X171780826Y-130064537D01*
X171950344Y-130177805D01*
X172138702Y-130255826D01*
X172338661Y-130295600D01*
X172542539Y-130295600D01*
X172742498Y-130255826D01*
X172930856Y-130177805D01*
X173100374Y-130064537D01*
X173244537Y-129920374D01*
X173357805Y-129750856D01*
X173435826Y-129562498D01*
X173475600Y-129362539D01*
X173475600Y-129158661D01*
X173435826Y-128958702D01*
X173357805Y-128770344D01*
X173244537Y-128600826D01*
X173100374Y-128456663D01*
X172930856Y-128343395D01*
X172742498Y-128265374D01*
X172542539Y-128225600D01*
X172338661Y-128225600D01*
X172138702Y-128265374D01*
X171950344Y-128343395D01*
X171780826Y-128456663D01*
X171636663Y-128600826D01*
X171523395Y-128770344D01*
X171445374Y-128958702D01*
X171405600Y-129158661D01*
X119200880Y-129158661D01*
X119200880Y-129097701D01*
X119161106Y-128897742D01*
X119083085Y-128709384D01*
X118969817Y-128539866D01*
X118825654Y-128395703D01*
X118656136Y-128282435D01*
X118467778Y-128204414D01*
X118267819Y-128164640D01*
X118063941Y-128164640D01*
X117863982Y-128204414D01*
X117675624Y-128282435D01*
X117506106Y-128395703D01*
X117361943Y-128539866D01*
X117248675Y-128709384D01*
X117170654Y-128897742D01*
X117130880Y-129097701D01*
X111253880Y-129097701D01*
X111253880Y-127832781D01*
X113046560Y-127832781D01*
X113046560Y-128036659D01*
X113086334Y-128236618D01*
X113164355Y-128424976D01*
X113277623Y-128594494D01*
X113421786Y-128738657D01*
X113591304Y-128851925D01*
X113779662Y-128929946D01*
X113979621Y-128969720D01*
X114183499Y-128969720D01*
X114383458Y-128929946D01*
X114571816Y-128851925D01*
X114741334Y-128738657D01*
X114885497Y-128594494D01*
X114998765Y-128424976D01*
X115076786Y-128236618D01*
X115116560Y-128036659D01*
X115116560Y-127832781D01*
X115076786Y-127632822D01*
X114998765Y-127444464D01*
X114885497Y-127274946D01*
X114741334Y-127130783D01*
X114571816Y-127017515D01*
X114383458Y-126939494D01*
X114183499Y-126899720D01*
X113979621Y-126899720D01*
X113779662Y-126939494D01*
X113591304Y-127017515D01*
X113421786Y-127130783D01*
X113277623Y-127274946D01*
X113164355Y-127444464D01*
X113086334Y-127632822D01*
X113046560Y-127832781D01*
X111253880Y-127832781D01*
X111253880Y-123130567D01*
X111842040Y-123130567D01*
X111842040Y-123452633D01*
X111904872Y-123768512D01*
X112028122Y-124066063D01*
X112207053Y-124333852D01*
X112434788Y-124561587D01*
X112702577Y-124740518D01*
X113000128Y-124863768D01*
X113316007Y-124926600D01*
X113638073Y-124926600D01*
X113953952Y-124863768D01*
X114251503Y-124740518D01*
X114519292Y-124561587D01*
X114747027Y-124333852D01*
X114925958Y-124066063D01*
X115049208Y-123768512D01*
X115112040Y-123452633D01*
X115112040Y-123130567D01*
X115049208Y-122814688D01*
X114925958Y-122517137D01*
X114747027Y-122249348D01*
X114519292Y-122021613D01*
X114251503Y-121842682D01*
X113953952Y-121719432D01*
X113638073Y-121656600D01*
X113316007Y-121656600D01*
X113000128Y-121719432D01*
X112702577Y-121842682D01*
X112434788Y-122021613D01*
X112207053Y-122249348D01*
X112028122Y-122517137D01*
X111904872Y-122814688D01*
X111842040Y-123130567D01*
X111253880Y-123130567D01*
X111253880Y-119770821D01*
X113788240Y-119770821D01*
X113788240Y-119974699D01*
X113828014Y-120174658D01*
X113906035Y-120363016D01*
X114019303Y-120532534D01*
X114163466Y-120676697D01*
X114332984Y-120789965D01*
X114521342Y-120867986D01*
X114721301Y-120907760D01*
X114925179Y-120907760D01*
X115125138Y-120867986D01*
X115313496Y-120789965D01*
X115483014Y-120676697D01*
X115627177Y-120532534D01*
X115740445Y-120363016D01*
X115818466Y-120174658D01*
X115858240Y-119974699D01*
X115858240Y-119770821D01*
X115818466Y-119570862D01*
X115740445Y-119382504D01*
X115627177Y-119212986D01*
X115483014Y-119068823D01*
X115313496Y-118955555D01*
X115125138Y-118877534D01*
X114925179Y-118837760D01*
X114721301Y-118837760D01*
X114521342Y-118877534D01*
X114332984Y-118955555D01*
X114163466Y-119068823D01*
X114019303Y-119212986D01*
X113906035Y-119382504D01*
X113828014Y-119570862D01*
X113788240Y-119770821D01*
X111253880Y-119770821D01*
X111253880Y-111428787D01*
X116718840Y-111428787D01*
X116718840Y-111750853D01*
X116781672Y-112066732D01*
X116904922Y-112364283D01*
X117083853Y-112632072D01*
X117311588Y-112859807D01*
X117579377Y-113038738D01*
X117876928Y-113161988D01*
X118192807Y-113224820D01*
X118514873Y-113224820D01*
X118830752Y-113161988D01*
X119128303Y-113038738D01*
X119396092Y-112859807D01*
X119623827Y-112632072D01*
X119802758Y-112364283D01*
X119926008Y-112066732D01*
X119988840Y-111750853D01*
X119988840Y-111428787D01*
X119926008Y-111112908D01*
X119802758Y-110815357D01*
X119623827Y-110547568D01*
X119396092Y-110319833D01*
X119128303Y-110140902D01*
X118830752Y-110017652D01*
X118514873Y-109954820D01*
X118192807Y-109954820D01*
X117876928Y-110017652D01*
X117579377Y-110140902D01*
X117311588Y-110319833D01*
X117083853Y-110547568D01*
X116904922Y-110815357D01*
X116781672Y-111112908D01*
X116718840Y-111428787D01*
X111253880Y-111428787D01*
X111253880Y-105148061D01*
X115465000Y-105148061D01*
X115465000Y-105351939D01*
X115504774Y-105551898D01*
X115582795Y-105740256D01*
X115696063Y-105909774D01*
X115840226Y-106053937D01*
X116009744Y-106167205D01*
X116198102Y-106245226D01*
X116398061Y-106285000D01*
X116601939Y-106285000D01*
X116801898Y-106245226D01*
X116990256Y-106167205D01*
X117159774Y-106053937D01*
X117303937Y-105909774D01*
X117417205Y-105740256D01*
X117495226Y-105551898D01*
X117535000Y-105351939D01*
X117535000Y-105148061D01*
X117495226Y-104948102D01*
X117417205Y-104759744D01*
X117303937Y-104590226D01*
X117159774Y-104446063D01*
X116990256Y-104332795D01*
X116801898Y-104254774D01*
X116601939Y-104215000D01*
X116398061Y-104215000D01*
X116198102Y-104254774D01*
X116009744Y-104332795D01*
X115840226Y-104446063D01*
X115696063Y-104590226D01*
X115582795Y-104759744D01*
X115504774Y-104948102D01*
X115465000Y-105148061D01*
X111253880Y-105148061D01*
X111253880Y-102113282D01*
X119978209Y-102113282D01*
X119978209Y-102336858D01*
X120021826Y-102556137D01*
X120107385Y-102762694D01*
X120231597Y-102948590D01*
X120389689Y-103106682D01*
X120575585Y-103230894D01*
X120782142Y-103316453D01*
X121001421Y-103360070D01*
X121224997Y-103360070D01*
X121444276Y-103316453D01*
X121650833Y-103230894D01*
X121836729Y-103106682D01*
X121994821Y-102948590D01*
X122119033Y-102762694D01*
X122138390Y-102715963D01*
X122138390Y-105506618D01*
X122039000Y-105407228D01*
X121853104Y-105283016D01*
X121646547Y-105197457D01*
X121427268Y-105153840D01*
X121203692Y-105153840D01*
X120984413Y-105197457D01*
X120777856Y-105283016D01*
X120591960Y-105407228D01*
X120433868Y-105565320D01*
X120309656Y-105751216D01*
X120224097Y-105957773D01*
X120180480Y-106177052D01*
X120180480Y-106400628D01*
X120224097Y-106619907D01*
X120309656Y-106826464D01*
X120433868Y-107012360D01*
X120591960Y-107170452D01*
X120777856Y-107294664D01*
X120984413Y-107380223D01*
X121203692Y-107423840D01*
X121427268Y-107423840D01*
X121646547Y-107380223D01*
X121853104Y-107294664D01*
X122039000Y-107170452D01*
X122138389Y-107071063D01*
X122138389Y-122085840D01*
X122134108Y-122129309D01*
X122138389Y-122172778D01*
X122138389Y-122172785D01*
X122151194Y-122302798D01*
X122201800Y-122469621D01*
X122283978Y-122623367D01*
X122394572Y-122758126D01*
X122428345Y-122785843D01*
X125083635Y-125441134D01*
X125111343Y-125474896D01*
X125145105Y-125502604D01*
X125145113Y-125502612D01*
X125246100Y-125585490D01*
X125399846Y-125667668D01*
X125566669Y-125718274D01*
X125740159Y-125735361D01*
X125783635Y-125731079D01*
X140448784Y-125731080D01*
X140389157Y-125875033D01*
X140345540Y-126094312D01*
X140345540Y-126317888D01*
X140389157Y-126537167D01*
X140474716Y-126743724D01*
X140598928Y-126929620D01*
X140757020Y-127087712D01*
X140942916Y-127211924D01*
X141149473Y-127297483D01*
X141368752Y-127341100D01*
X141592328Y-127341100D01*
X141811607Y-127297483D01*
X142018164Y-127211924D01*
X142204060Y-127087712D01*
X142362152Y-126929620D01*
X142486364Y-126743724D01*
X142571923Y-126537167D01*
X142615540Y-126317888D01*
X142615540Y-126094312D01*
X142571923Y-125875033D01*
X142512296Y-125731081D01*
X147410623Y-125731081D01*
X148132105Y-126452564D01*
X148143414Y-126509418D01*
X148221435Y-126697776D01*
X148334703Y-126867294D01*
X148478866Y-127011457D01*
X148648384Y-127124725D01*
X148836742Y-127202746D01*
X149036701Y-127242520D01*
X149240579Y-127242520D01*
X149440538Y-127202746D01*
X149628896Y-127124725D01*
X149798414Y-127011457D01*
X149942577Y-126867294D01*
X150055845Y-126697776D01*
X150133866Y-126509418D01*
X150173640Y-126309459D01*
X150173640Y-126105581D01*
X150133866Y-125905622D01*
X150055845Y-125717264D01*
X149942577Y-125547746D01*
X149798414Y-125403583D01*
X149628896Y-125290315D01*
X149440538Y-125212294D01*
X149383684Y-125200985D01*
X149213769Y-125031070D01*
X150515532Y-125031070D01*
X152221505Y-126737044D01*
X152232814Y-126793898D01*
X152310835Y-126982256D01*
X152424103Y-127151774D01*
X152568266Y-127295937D01*
X152737784Y-127409205D01*
X152926142Y-127487226D01*
X153126101Y-127527000D01*
X153329979Y-127527000D01*
X153529938Y-127487226D01*
X153718296Y-127409205D01*
X153887814Y-127295937D01*
X153946189Y-127237562D01*
X154073824Y-127322845D01*
X154262182Y-127400866D01*
X154462141Y-127440640D01*
X154666019Y-127440640D01*
X154865978Y-127400866D01*
X155049768Y-127324737D01*
X155176184Y-127409205D01*
X155364542Y-127487226D01*
X155564501Y-127527000D01*
X155768379Y-127527000D01*
X155910281Y-127498774D01*
X155927795Y-127541056D01*
X156041063Y-127710574D01*
X156185226Y-127854737D01*
X156354744Y-127968005D01*
X156543102Y-128046026D01*
X156743061Y-128085800D01*
X156946939Y-128085800D01*
X157146898Y-128046026D01*
X157335256Y-127968005D01*
X157392689Y-127929630D01*
X157541606Y-127991314D01*
X157741565Y-128031088D01*
X157945443Y-128031088D01*
X158145402Y-127991314D01*
X158333760Y-127913293D01*
X158468999Y-127822930D01*
X158534064Y-127866405D01*
X158722422Y-127944426D01*
X158922381Y-127984200D01*
X159126259Y-127984200D01*
X159326218Y-127944426D01*
X159471158Y-127884389D01*
X159477066Y-127890297D01*
X159646584Y-128003565D01*
X159834942Y-128081586D01*
X160034901Y-128121360D01*
X160238779Y-128121360D01*
X160438738Y-128081586D01*
X160627096Y-128003565D01*
X160675294Y-127971360D01*
X160969373Y-127971360D01*
X161012842Y-127975641D01*
X161056311Y-127971360D01*
X161056319Y-127971360D01*
X161186332Y-127958555D01*
X161353155Y-127907949D01*
X161506901Y-127825771D01*
X161641659Y-127715177D01*
X161669376Y-127681404D01*
X164383119Y-124967661D01*
X168347440Y-124967661D01*
X168347440Y-125171539D01*
X168387214Y-125371498D01*
X168465235Y-125559856D01*
X168578503Y-125729374D01*
X168722666Y-125873537D01*
X168892184Y-125986805D01*
X169080542Y-126064826D01*
X169280501Y-126104600D01*
X169484379Y-126104600D01*
X169684338Y-126064826D01*
X169872696Y-125986805D01*
X170042214Y-125873537D01*
X170186377Y-125729374D01*
X170299645Y-125559856D01*
X170377666Y-125371498D01*
X170417440Y-125171539D01*
X170417440Y-124967661D01*
X170377666Y-124767702D01*
X170299645Y-124579344D01*
X170186377Y-124409826D01*
X170119372Y-124342821D01*
X172091400Y-124342821D01*
X172091400Y-124546699D01*
X172131174Y-124746658D01*
X172209195Y-124935016D01*
X172322463Y-125104534D01*
X172466626Y-125248697D01*
X172636144Y-125361965D01*
X172824502Y-125439986D01*
X173024461Y-125479760D01*
X173228339Y-125479760D01*
X173428298Y-125439986D01*
X173616656Y-125361965D01*
X173786174Y-125248697D01*
X173930337Y-125104534D01*
X174043605Y-124935016D01*
X174121626Y-124746658D01*
X174161400Y-124546699D01*
X174161400Y-124342821D01*
X174121626Y-124142862D01*
X174043605Y-123954504D01*
X173930337Y-123784986D01*
X173786174Y-123640823D01*
X173616656Y-123527555D01*
X173428298Y-123449534D01*
X173228339Y-123409760D01*
X173024461Y-123409760D01*
X172824502Y-123449534D01*
X172636144Y-123527555D01*
X172466626Y-123640823D01*
X172322463Y-123784986D01*
X172209195Y-123954504D01*
X172131174Y-124142862D01*
X172091400Y-124342821D01*
X170119372Y-124342821D01*
X170042214Y-124265663D01*
X169872696Y-124152395D01*
X169684338Y-124074374D01*
X169484379Y-124034600D01*
X169280501Y-124034600D01*
X169080542Y-124074374D01*
X168892184Y-124152395D01*
X168722666Y-124265663D01*
X168578503Y-124409826D01*
X168465235Y-124579344D01*
X168387214Y-124767702D01*
X168347440Y-124967661D01*
X164383119Y-124967661D01*
X170167950Y-119182831D01*
X170201716Y-119155120D01*
X170312310Y-119020362D01*
X170394488Y-118866616D01*
X170445094Y-118699793D01*
X170457899Y-118569780D01*
X170457899Y-118569772D01*
X170462180Y-118526303D01*
X170458170Y-118485581D01*
X172812760Y-118485581D01*
X172812760Y-118689459D01*
X172852534Y-118889418D01*
X172930555Y-119077776D01*
X173043823Y-119247294D01*
X173187986Y-119391457D01*
X173357504Y-119504725D01*
X173545862Y-119582746D01*
X173745821Y-119622520D01*
X173949699Y-119622520D01*
X174149658Y-119582746D01*
X174338016Y-119504725D01*
X174507534Y-119391457D01*
X174651697Y-119247294D01*
X174764965Y-119077776D01*
X174842986Y-118889418D01*
X174882760Y-118689459D01*
X174882760Y-118485581D01*
X174842986Y-118285622D01*
X174764965Y-118097264D01*
X174651697Y-117927746D01*
X174507534Y-117783583D01*
X174338016Y-117670315D01*
X174149658Y-117592294D01*
X173949699Y-117552520D01*
X173745821Y-117552520D01*
X173545862Y-117592294D01*
X173357504Y-117670315D01*
X173187986Y-117783583D01*
X173043823Y-117927746D01*
X172930555Y-118097264D01*
X172852534Y-118285622D01*
X172812760Y-118485581D01*
X170458170Y-118485581D01*
X170457899Y-118482834D01*
X170457899Y-116852320D01*
X170634688Y-116852320D01*
X170853967Y-116808703D01*
X171060524Y-116723144D01*
X171246420Y-116598932D01*
X171404512Y-116440840D01*
X171528724Y-116254944D01*
X171614283Y-116048387D01*
X171657900Y-115829108D01*
X171657900Y-115605532D01*
X171614283Y-115386253D01*
X171528724Y-115179696D01*
X171404512Y-114993800D01*
X171246420Y-114835708D01*
X171060524Y-114711496D01*
X170853967Y-114625937D01*
X170634688Y-114582320D01*
X170457899Y-114582320D01*
X170457899Y-109616557D01*
X170845936Y-109228520D01*
X170978721Y-109427246D01*
X171171634Y-109620159D01*
X171398477Y-109771731D01*
X171650531Y-109876135D01*
X171918109Y-109929360D01*
X172190931Y-109929360D01*
X172458509Y-109876135D01*
X172710563Y-109771731D01*
X172937406Y-109620159D01*
X173130319Y-109427246D01*
X173281891Y-109200403D01*
X173386295Y-108948349D01*
X173439520Y-108680771D01*
X173439520Y-108407949D01*
X173386295Y-108140371D01*
X173281891Y-107888317D01*
X173130319Y-107661474D01*
X172937406Y-107468561D01*
X172710563Y-107316989D01*
X172607647Y-107274360D01*
X172710563Y-107231731D01*
X172937406Y-107080159D01*
X173130319Y-106887246D01*
X173281891Y-106660403D01*
X173386295Y-106408349D01*
X173439520Y-106140771D01*
X173439520Y-105867949D01*
X173386295Y-105600371D01*
X173281891Y-105348317D01*
X173130319Y-105121474D01*
X172937406Y-104928561D01*
X172710563Y-104776989D01*
X172607647Y-104734360D01*
X172710563Y-104691731D01*
X172937406Y-104540159D01*
X173130319Y-104347246D01*
X173281891Y-104120403D01*
X173386295Y-103868349D01*
X173439520Y-103600771D01*
X173439520Y-103327949D01*
X173386295Y-103060371D01*
X173281891Y-102808317D01*
X173130319Y-102581474D01*
X172937406Y-102388561D01*
X172710563Y-102236989D01*
X172458509Y-102132585D01*
X172190931Y-102079360D01*
X171918109Y-102079360D01*
X171650531Y-102132585D01*
X171398477Y-102236989D01*
X171356201Y-102265237D01*
X171356201Y-98617217D01*
X173528924Y-96444495D01*
X173585778Y-96433186D01*
X173774136Y-96355165D01*
X173943654Y-96241897D01*
X174087817Y-96097734D01*
X174201085Y-95928216D01*
X174279106Y-95739858D01*
X174318880Y-95539899D01*
X174318880Y-95336021D01*
X174279106Y-95136062D01*
X174201085Y-94947704D01*
X174087817Y-94778186D01*
X173943654Y-94634023D01*
X173774136Y-94520755D01*
X173585778Y-94442734D01*
X173385819Y-94402960D01*
X173181941Y-94402960D01*
X172981982Y-94442734D01*
X172793624Y-94520755D01*
X172624106Y-94634023D01*
X172479943Y-94778186D01*
X172366675Y-94947704D01*
X172288654Y-95136062D01*
X172277345Y-95192916D01*
X170517205Y-96953056D01*
X170425137Y-96815266D01*
X170280974Y-96671103D01*
X170111456Y-96557835D01*
X169923098Y-96479814D01*
X169723139Y-96440040D01*
X169519261Y-96440040D01*
X169319302Y-96479814D01*
X169130944Y-96557835D01*
X168961426Y-96671103D01*
X168817263Y-96815266D01*
X168703995Y-96984784D01*
X168625974Y-97173142D01*
X168586200Y-97373101D01*
X168586200Y-97576979D01*
X168625974Y-97776938D01*
X168703995Y-97965296D01*
X168736201Y-98013496D01*
X168736200Y-106635737D01*
X164705159Y-110666779D01*
X164705159Y-101823181D01*
X166462760Y-101823181D01*
X166462760Y-102027059D01*
X166502534Y-102227018D01*
X166580555Y-102415376D01*
X166693823Y-102584894D01*
X166837986Y-102729057D01*
X167007504Y-102842325D01*
X167195862Y-102920346D01*
X167395821Y-102960120D01*
X167599699Y-102960120D01*
X167799658Y-102920346D01*
X167988016Y-102842325D01*
X168157534Y-102729057D01*
X168301697Y-102584894D01*
X168414965Y-102415376D01*
X168492986Y-102227018D01*
X168532760Y-102027059D01*
X168532760Y-101823181D01*
X168492986Y-101623222D01*
X168414965Y-101434864D01*
X168301697Y-101265346D01*
X168157534Y-101121183D01*
X167988016Y-101007915D01*
X167799658Y-100929894D01*
X167599699Y-100890120D01*
X167395821Y-100890120D01*
X167195862Y-100929894D01*
X167007504Y-101007915D01*
X166837986Y-101121183D01*
X166693823Y-101265346D01*
X166580555Y-101434864D01*
X166502534Y-101623222D01*
X166462760Y-101823181D01*
X164705159Y-101823181D01*
X164705159Y-99852141D01*
X165467080Y-99852141D01*
X165467080Y-100056019D01*
X165506854Y-100255978D01*
X165584875Y-100444336D01*
X165698143Y-100613854D01*
X165842306Y-100758017D01*
X166011824Y-100871285D01*
X166200182Y-100949306D01*
X166400141Y-100989080D01*
X166604019Y-100989080D01*
X166803978Y-100949306D01*
X166992336Y-100871285D01*
X167161854Y-100758017D01*
X167306017Y-100613854D01*
X167419285Y-100444336D01*
X167497306Y-100255978D01*
X167537080Y-100056019D01*
X167537080Y-99852141D01*
X167497306Y-99652182D01*
X167419285Y-99463824D01*
X167306017Y-99294306D01*
X167161854Y-99150143D01*
X166992336Y-99036875D01*
X166803978Y-98958854D01*
X166604019Y-98919080D01*
X166400141Y-98919080D01*
X166200182Y-98958854D01*
X166011824Y-99036875D01*
X165842306Y-99150143D01*
X165698143Y-99294306D01*
X165584875Y-99463824D01*
X165506854Y-99652182D01*
X165467080Y-99852141D01*
X164705159Y-99852141D01*
X164705159Y-96494261D01*
X165964920Y-96494261D01*
X165964920Y-96698139D01*
X166004694Y-96898098D01*
X166082715Y-97086456D01*
X166195983Y-97255974D01*
X166340146Y-97400137D01*
X166509664Y-97513405D01*
X166698022Y-97591426D01*
X166897981Y-97631200D01*
X167101859Y-97631200D01*
X167301818Y-97591426D01*
X167490176Y-97513405D01*
X167659694Y-97400137D01*
X167803857Y-97255974D01*
X167917125Y-97086456D01*
X167995146Y-96898098D01*
X168034920Y-96698139D01*
X168034920Y-96494261D01*
X167995146Y-96294302D01*
X167917125Y-96105944D01*
X167803857Y-95936426D01*
X167659694Y-95792263D01*
X167490176Y-95678995D01*
X167301818Y-95600974D01*
X167101859Y-95561200D01*
X166897981Y-95561200D01*
X166698022Y-95600974D01*
X166509664Y-95678995D01*
X166340146Y-95792263D01*
X166195983Y-95936426D01*
X166082715Y-96105944D01*
X166004694Y-96294302D01*
X165964920Y-96494261D01*
X164705159Y-96494261D01*
X164705159Y-88056381D01*
X169170400Y-88056381D01*
X169170400Y-88260259D01*
X169210174Y-88460218D01*
X169288195Y-88648576D01*
X169401463Y-88818094D01*
X169545626Y-88962257D01*
X169715144Y-89075525D01*
X169903502Y-89153546D01*
X170103461Y-89193320D01*
X170307339Y-89193320D01*
X170507298Y-89153546D01*
X170695656Y-89075525D01*
X170865174Y-88962257D01*
X171009337Y-88818094D01*
X171122605Y-88648576D01*
X171200626Y-88460218D01*
X171240400Y-88260259D01*
X171240400Y-88056381D01*
X171200626Y-87856422D01*
X171122605Y-87668064D01*
X171009337Y-87498546D01*
X170865174Y-87354383D01*
X170695656Y-87241115D01*
X170507298Y-87163094D01*
X170307339Y-87123320D01*
X170103461Y-87123320D01*
X169903502Y-87163094D01*
X169715144Y-87241115D01*
X169545626Y-87354383D01*
X169401463Y-87498546D01*
X169288195Y-87668064D01*
X169210174Y-87856422D01*
X169170400Y-88056381D01*
X164705159Y-88056381D01*
X164705159Y-85028150D01*
X164710650Y-84972398D01*
X164688736Y-84749899D01*
X164663241Y-84665856D01*
X164623835Y-84535952D01*
X164518443Y-84338776D01*
X164376608Y-84165950D01*
X164333299Y-84130407D01*
X164205160Y-84002268D01*
X164205160Y-83811367D01*
X164142328Y-83495488D01*
X164019078Y-83197937D01*
X163840147Y-82930148D01*
X163612412Y-82702413D01*
X163344623Y-82523482D01*
X163047072Y-82400232D01*
X162731193Y-82337400D01*
X162409127Y-82337400D01*
X162093248Y-82400232D01*
X161795697Y-82523482D01*
X161527908Y-82702413D01*
X161300173Y-82930148D01*
X161121242Y-83197937D01*
X160997992Y-83495488D01*
X160935160Y-83811367D01*
X160935160Y-84133433D01*
X160997992Y-84449312D01*
X161071227Y-84626117D01*
X160970340Y-84693528D01*
X160812248Y-84851620D01*
X160688036Y-85037516D01*
X160602477Y-85244073D01*
X160558860Y-85463352D01*
X160558860Y-85686928D01*
X160602477Y-85906207D01*
X160688036Y-86112764D01*
X160812248Y-86298660D01*
X160970340Y-86456752D01*
X161156236Y-86580964D01*
X161362793Y-86666523D01*
X161582072Y-86710140D01*
X161805648Y-86710140D01*
X162024927Y-86666523D01*
X162231484Y-86580964D01*
X162417380Y-86456752D01*
X162435159Y-86438973D01*
X162435159Y-94610906D01*
X162241070Y-94530511D01*
X161925191Y-94467679D01*
X161603125Y-94467679D01*
X161287246Y-94530511D01*
X160989695Y-94653761D01*
X160721906Y-94832692D01*
X160494171Y-95060427D01*
X160315240Y-95328216D01*
X160191990Y-95625767D01*
X160129158Y-95941646D01*
X160129158Y-96263712D01*
X160191990Y-96579591D01*
X160315240Y-96877142D01*
X160494171Y-97144931D01*
X160721906Y-97372666D01*
X160989695Y-97551597D01*
X161287246Y-97674847D01*
X161603125Y-97737679D01*
X161925191Y-97737679D01*
X162241070Y-97674847D01*
X162435159Y-97594452D01*
X162435160Y-107414733D01*
X162417992Y-107389040D01*
X162259900Y-107230948D01*
X162074004Y-107106736D01*
X161867447Y-107021177D01*
X161648168Y-106977560D01*
X161424592Y-106977560D01*
X161205313Y-107021177D01*
X160998756Y-107106736D01*
X160812860Y-107230948D01*
X160654768Y-107389040D01*
X160583415Y-107495827D01*
X160500600Y-107371885D01*
X160306015Y-107177300D01*
X160077207Y-107024415D01*
X159999965Y-106992420D01*
X160077207Y-106960425D01*
X160306015Y-106807540D01*
X160500600Y-106612955D01*
X160653485Y-106384147D01*
X160758794Y-106129910D01*
X160812480Y-105860012D01*
X160812480Y-105584828D01*
X160758794Y-105314930D01*
X160653485Y-105060693D01*
X160500600Y-104831885D01*
X160306015Y-104637300D01*
X160077207Y-104484415D01*
X159999965Y-104452420D01*
X160077207Y-104420425D01*
X160306015Y-104267540D01*
X160500600Y-104072955D01*
X160653485Y-103844147D01*
X160758794Y-103589910D01*
X160812480Y-103320012D01*
X160812480Y-103044828D01*
X160758794Y-102774930D01*
X160653485Y-102520693D01*
X160500600Y-102291885D01*
X160306015Y-102097300D01*
X160077207Y-101944415D01*
X159822970Y-101839106D01*
X159553072Y-101785420D01*
X159277888Y-101785420D01*
X159007990Y-101839106D01*
X158753753Y-101944415D01*
X158524945Y-102097300D01*
X158330360Y-102291885D01*
X158177475Y-102520693D01*
X158145480Y-102597935D01*
X158113485Y-102520693D01*
X157960600Y-102291885D01*
X157766015Y-102097300D01*
X157537207Y-101944415D01*
X157282970Y-101839106D01*
X157013072Y-101785420D01*
X156737888Y-101785420D01*
X156500640Y-101832612D01*
X156500640Y-98241670D01*
X156504921Y-98198204D01*
X156500640Y-98154738D01*
X156500640Y-98154728D01*
X156487835Y-98024715D01*
X156437229Y-97857892D01*
X156355051Y-97704146D01*
X156296047Y-97632250D01*
X156272172Y-97603158D01*
X156272170Y-97603156D01*
X156244457Y-97569388D01*
X156210690Y-97541676D01*
X155389488Y-96720475D01*
X155391666Y-96715218D01*
X155395198Y-96697461D01*
X157516880Y-96697461D01*
X157516880Y-96901339D01*
X157556654Y-97101298D01*
X157634675Y-97289656D01*
X157747943Y-97459174D01*
X157892106Y-97603337D01*
X158061624Y-97716605D01*
X158249982Y-97794626D01*
X158449941Y-97834400D01*
X158653819Y-97834400D01*
X158853778Y-97794626D01*
X159042136Y-97716605D01*
X159211654Y-97603337D01*
X159355817Y-97459174D01*
X159469085Y-97289656D01*
X159547106Y-97101298D01*
X159586880Y-96901339D01*
X159586880Y-96697461D01*
X159547106Y-96497502D01*
X159469085Y-96309144D01*
X159355817Y-96139626D01*
X159211654Y-95995463D01*
X159042136Y-95882195D01*
X158853778Y-95804174D01*
X158653819Y-95764400D01*
X158449941Y-95764400D01*
X158249982Y-95804174D01*
X158061624Y-95882195D01*
X157892106Y-95995463D01*
X157747943Y-96139626D01*
X157634675Y-96309144D01*
X157556654Y-96497502D01*
X157516880Y-96697461D01*
X155395198Y-96697461D01*
X155431440Y-96515259D01*
X155431440Y-96311381D01*
X155391666Y-96111422D01*
X155313645Y-95923064D01*
X155200377Y-95753546D01*
X155056214Y-95609383D01*
X154886696Y-95496115D01*
X154698338Y-95418094D01*
X154498379Y-95378320D01*
X154294501Y-95378320D01*
X154094542Y-95418094D01*
X153906184Y-95496115D01*
X153736666Y-95609383D01*
X153592503Y-95753546D01*
X153479235Y-95923064D01*
X153401214Y-96111422D01*
X153361440Y-96311381D01*
X153361440Y-96515259D01*
X153401214Y-96715218D01*
X153479235Y-96903576D01*
X153510046Y-96949688D01*
X153507159Y-96979005D01*
X153511440Y-97022474D01*
X153511440Y-97022482D01*
X153524245Y-97152495D01*
X153574851Y-97319318D01*
X153647925Y-97456030D01*
X153657030Y-97473064D01*
X153739908Y-97574051D01*
X153739911Y-97574054D01*
X153767624Y-97607822D01*
X153801391Y-97635534D01*
X154730640Y-98564784D01*
X154730640Y-101836653D01*
X154473072Y-101785420D01*
X154197888Y-101785420D01*
X153947940Y-101835138D01*
X153947940Y-100391245D01*
X153952221Y-100347779D01*
X153947940Y-100304313D01*
X153947940Y-100304303D01*
X153935135Y-100174290D01*
X153884529Y-100007467D01*
X153802351Y-99853721D01*
X153691757Y-99718963D01*
X153657989Y-99691250D01*
X152604280Y-98637542D01*
X152604280Y-92602981D01*
X153620520Y-92602981D01*
X153620520Y-92806859D01*
X153660294Y-93006818D01*
X153738315Y-93195176D01*
X153851583Y-93364694D01*
X153995746Y-93508857D01*
X154165264Y-93622125D01*
X154353622Y-93700146D01*
X154553581Y-93739920D01*
X154757459Y-93739920D01*
X154957418Y-93700146D01*
X155145776Y-93622125D01*
X155315294Y-93508857D01*
X155459457Y-93364694D01*
X155572725Y-93195176D01*
X155650746Y-93006818D01*
X155690520Y-92806859D01*
X155690520Y-92602981D01*
X155650746Y-92403022D01*
X155572725Y-92214664D01*
X155459457Y-92045146D01*
X155315294Y-91900983D01*
X155145776Y-91787715D01*
X154957418Y-91709694D01*
X154757459Y-91669920D01*
X154553581Y-91669920D01*
X154353622Y-91709694D01*
X154165264Y-91787715D01*
X153995746Y-91900983D01*
X153851583Y-92045146D01*
X153738315Y-92214664D01*
X153660294Y-92403022D01*
X153620520Y-92602981D01*
X152604280Y-92602981D01*
X152604280Y-91470385D01*
X152656805Y-91391776D01*
X152734826Y-91203418D01*
X152774600Y-91003459D01*
X152774600Y-90799581D01*
X152734826Y-90599622D01*
X152656805Y-90411264D01*
X152543537Y-90241746D01*
X152399374Y-90097583D01*
X152229856Y-89984315D01*
X152041498Y-89906294D01*
X151841539Y-89866520D01*
X151637661Y-89866520D01*
X151437702Y-89906294D01*
X151249344Y-89984315D01*
X151079826Y-90097583D01*
X151053024Y-90124385D01*
X151010656Y-90096075D01*
X150822298Y-90018054D01*
X150622339Y-89978280D01*
X150418461Y-89978280D01*
X150218502Y-90018054D01*
X150030144Y-90096075D01*
X149860626Y-90209343D01*
X149716463Y-90353506D01*
X149603195Y-90523024D01*
X149525174Y-90711382D01*
X149485400Y-90911341D01*
X149485400Y-91115219D01*
X149525174Y-91315178D01*
X149603195Y-91503536D01*
X149635400Y-91551734D01*
X149635400Y-91622441D01*
X149635401Y-91622451D01*
X149635401Y-95563147D01*
X149547513Y-95526743D01*
X149328234Y-95483126D01*
X149104658Y-95483126D01*
X148885379Y-95526743D01*
X148870909Y-95532737D01*
X148838058Y-95424445D01*
X148837549Y-95422766D01*
X148755371Y-95269021D01*
X148672492Y-95168033D01*
X148672490Y-95168031D01*
X148644777Y-95134263D01*
X148611010Y-95106551D01*
X147544215Y-94039757D01*
X147532906Y-93982902D01*
X147454885Y-93794544D01*
X147341617Y-93625026D01*
X147197454Y-93480863D01*
X147027936Y-93367595D01*
X146839578Y-93289574D01*
X146639619Y-93249800D01*
X146435741Y-93249800D01*
X146235782Y-93289574D01*
X146047424Y-93367595D01*
X145877906Y-93480863D01*
X145733743Y-93625026D01*
X145620475Y-93794544D01*
X145542454Y-93982902D01*
X145502680Y-94182861D01*
X145502680Y-94386739D01*
X145542454Y-94586698D01*
X145620475Y-94775056D01*
X145733743Y-94944574D01*
X145877906Y-95088737D01*
X146047424Y-95202005D01*
X146235782Y-95280026D01*
X146292637Y-95291335D01*
X147130960Y-96129659D01*
X147130960Y-101842416D01*
X147122970Y-101839106D01*
X146853072Y-101785420D01*
X146577888Y-101785420D01*
X146307990Y-101839106D01*
X146053753Y-101944415D01*
X145824945Y-102097300D01*
X145630360Y-102291885D01*
X145477475Y-102520693D01*
X145445480Y-102597935D01*
X145413485Y-102520693D01*
X145260600Y-102291885D01*
X145066015Y-102097300D01*
X144837207Y-101944415D01*
X144582970Y-101839106D01*
X144313072Y-101785420D01*
X144037888Y-101785420D01*
X143767990Y-101839106D01*
X143513753Y-101944415D01*
X143284945Y-102097300D01*
X143090360Y-102291885D01*
X142937475Y-102520693D01*
X142905480Y-102597935D01*
X142873485Y-102520693D01*
X142720600Y-102291885D01*
X142526015Y-102097300D01*
X142297207Y-101944415D01*
X142042970Y-101839106D01*
X141773072Y-101785420D01*
X141497888Y-101785420D01*
X141227990Y-101839106D01*
X140973753Y-101944415D01*
X140744945Y-102097300D01*
X140550360Y-102291885D01*
X140397475Y-102520693D01*
X140365480Y-102597935D01*
X140333485Y-102520693D01*
X140180600Y-102291885D01*
X139986015Y-102097300D01*
X139757207Y-101944415D01*
X139502970Y-101839106D01*
X139233072Y-101785420D01*
X138957888Y-101785420D01*
X138687990Y-101839106D01*
X138433753Y-101944415D01*
X138204945Y-102097300D01*
X138010360Y-102291885D01*
X137857475Y-102520693D01*
X137825480Y-102597935D01*
X137793485Y-102520693D01*
X137640600Y-102291885D01*
X137446015Y-102097300D01*
X137217207Y-101944415D01*
X136962970Y-101839106D01*
X136693072Y-101785420D01*
X136417888Y-101785420D01*
X136147990Y-101839106D01*
X135893753Y-101944415D01*
X135664945Y-102097300D01*
X135470360Y-102291885D01*
X135317475Y-102520693D01*
X135285480Y-102597935D01*
X135253485Y-102520693D01*
X135100600Y-102291885D01*
X135065476Y-102256761D01*
X135086046Y-102243017D01*
X135230209Y-102098854D01*
X135343477Y-101929336D01*
X135421498Y-101740978D01*
X135461272Y-101541019D01*
X135461272Y-101337141D01*
X135421498Y-101137182D01*
X135343477Y-100948824D01*
X135230209Y-100779306D01*
X135086046Y-100635143D01*
X134916528Y-100521875D01*
X134728170Y-100443854D01*
X134528211Y-100404080D01*
X134324333Y-100404080D01*
X134124374Y-100443854D01*
X133936016Y-100521875D01*
X133766498Y-100635143D01*
X133622335Y-100779306D01*
X133509067Y-100948824D01*
X133431046Y-101137182D01*
X133391272Y-101337141D01*
X133391272Y-101541019D01*
X133431046Y-101740978D01*
X133491653Y-101887295D01*
X133353753Y-101944415D01*
X133124945Y-102097300D01*
X132930360Y-102291885D01*
X132777475Y-102520693D01*
X132745480Y-102597935D01*
X132713485Y-102520693D01*
X132560600Y-102291885D01*
X132366015Y-102097300D01*
X132137207Y-101944415D01*
X131882970Y-101839106D01*
X131613072Y-101785420D01*
X131337888Y-101785420D01*
X131067990Y-101839106D01*
X130813753Y-101944415D01*
X130584945Y-102097300D01*
X130390360Y-102291885D01*
X130237475Y-102520693D01*
X130205480Y-102597935D01*
X130173485Y-102520693D01*
X130020600Y-102291885D01*
X129826015Y-102097300D01*
X129597207Y-101944415D01*
X129342970Y-101839106D01*
X129073072Y-101785420D01*
X128797888Y-101785420D01*
X128527990Y-101839106D01*
X128273753Y-101944415D01*
X128044945Y-102097300D01*
X127850360Y-102291885D01*
X127697475Y-102520693D01*
X127665480Y-102597935D01*
X127633485Y-102520693D01*
X127480600Y-102291885D01*
X127286015Y-102097300D01*
X127057207Y-101944415D01*
X126802970Y-101839106D01*
X126533072Y-101785420D01*
X126257888Y-101785420D01*
X125987990Y-101839106D01*
X125733753Y-101944415D01*
X125504945Y-102097300D01*
X125310360Y-102291885D01*
X125157475Y-102520693D01*
X125052166Y-102774930D01*
X124998480Y-103044828D01*
X124998480Y-103320012D01*
X125052166Y-103589910D01*
X125157475Y-103844147D01*
X125310360Y-104072955D01*
X125504945Y-104267540D01*
X125733753Y-104420425D01*
X125987990Y-104525734D01*
X126257888Y-104579420D01*
X126533072Y-104579420D01*
X126802970Y-104525734D01*
X127057207Y-104420425D01*
X127286015Y-104267540D01*
X127480600Y-104072955D01*
X127633485Y-103844147D01*
X127665480Y-103766905D01*
X127697475Y-103844147D01*
X127850360Y-104072955D01*
X128044945Y-104267540D01*
X128273753Y-104420425D01*
X128527990Y-104525734D01*
X128797888Y-104579420D01*
X129073072Y-104579420D01*
X129342970Y-104525734D01*
X129597207Y-104420425D01*
X129826015Y-104267540D01*
X130020600Y-104072955D01*
X130173485Y-103844147D01*
X130205480Y-103766905D01*
X130237475Y-103844147D01*
X130340480Y-103998305D01*
X130340481Y-109054387D01*
X124908012Y-114486857D01*
X124801717Y-114616378D01*
X124696324Y-114813554D01*
X124631423Y-115027502D01*
X124609509Y-115250000D01*
X124631423Y-115472498D01*
X124696324Y-115686446D01*
X124801717Y-115883622D01*
X124943552Y-116056448D01*
X125116378Y-116198283D01*
X125313554Y-116303676D01*
X125527502Y-116368577D01*
X125750000Y-116390491D01*
X125972498Y-116368577D01*
X126186446Y-116303676D01*
X126383622Y-116198283D01*
X126513143Y-116091988D01*
X127901299Y-114703832D01*
X142684880Y-114703832D01*
X142684880Y-114927408D01*
X142728497Y-115146687D01*
X142814056Y-115353244D01*
X142938268Y-115539140D01*
X143096360Y-115697232D01*
X143282256Y-115821444D01*
X143488813Y-115907003D01*
X143708092Y-115950620D01*
X143931668Y-115950620D01*
X144150947Y-115907003D01*
X144357504Y-115821444D01*
X144543400Y-115697232D01*
X144701492Y-115539140D01*
X144825704Y-115353244D01*
X144911263Y-115146687D01*
X144954880Y-114927408D01*
X144954880Y-114703832D01*
X144911263Y-114484553D01*
X144825704Y-114277996D01*
X144701492Y-114092100D01*
X144543400Y-113934008D01*
X144357504Y-113809796D01*
X144150947Y-113724237D01*
X143931668Y-113680620D01*
X143708092Y-113680620D01*
X143488813Y-113724237D01*
X143282256Y-113809796D01*
X143096360Y-113934008D01*
X142938268Y-114092100D01*
X142814056Y-114277996D01*
X142728497Y-114484553D01*
X142684880Y-114703832D01*
X127901299Y-114703832D01*
X132238621Y-110366511D01*
X132281929Y-110330969D01*
X132423764Y-110158143D01*
X132529156Y-109960967D01*
X132594057Y-109747019D01*
X132610480Y-109580272D01*
X132610480Y-109580263D01*
X132615970Y-109524521D01*
X132610480Y-109468779D01*
X132610480Y-106846852D01*
X132639731Y-106852670D01*
X132843609Y-106852670D01*
X133043568Y-106812896D01*
X133231926Y-106734875D01*
X133401444Y-106621607D01*
X133545607Y-106477444D01*
X133658875Y-106307926D01*
X133736896Y-106119568D01*
X133776670Y-105919609D01*
X133776670Y-105715731D01*
X133736896Y-105515772D01*
X133658875Y-105327414D01*
X133545607Y-105157896D01*
X133401444Y-105013733D01*
X133231926Y-104900465D01*
X133043568Y-104822444D01*
X132843609Y-104782670D01*
X132639731Y-104782670D01*
X132610480Y-104788488D01*
X132610480Y-103998304D01*
X132713485Y-103844147D01*
X132745480Y-103766905D01*
X132777475Y-103844147D01*
X132930360Y-104072955D01*
X133124945Y-104267540D01*
X133353753Y-104420425D01*
X133607990Y-104525734D01*
X133877888Y-104579420D01*
X134153072Y-104579420D01*
X134422970Y-104525734D01*
X134677207Y-104420425D01*
X134906015Y-104267540D01*
X135100600Y-104072955D01*
X135253485Y-103844147D01*
X135285480Y-103766905D01*
X135317475Y-103844147D01*
X135470360Y-104072955D01*
X135664945Y-104267540D01*
X135893753Y-104420425D01*
X136147990Y-104525734D01*
X136417888Y-104579420D01*
X136693072Y-104579420D01*
X136962970Y-104525734D01*
X137217207Y-104420425D01*
X137446015Y-104267540D01*
X137640600Y-104072955D01*
X137793485Y-103844147D01*
X137825480Y-103766905D01*
X137857475Y-103844147D01*
X138010360Y-104072955D01*
X138204945Y-104267540D01*
X138433753Y-104420425D01*
X138687990Y-104525734D01*
X138957888Y-104579420D01*
X139233072Y-104579420D01*
X139502970Y-104525734D01*
X139757207Y-104420425D01*
X139986015Y-104267540D01*
X140180600Y-104072955D01*
X140333485Y-103844147D01*
X140365480Y-103766905D01*
X140397475Y-103844147D01*
X140550360Y-104072955D01*
X140744945Y-104267540D01*
X140973753Y-104420425D01*
X141227990Y-104525734D01*
X141497888Y-104579420D01*
X141773072Y-104579420D01*
X142042970Y-104525734D01*
X142297207Y-104420425D01*
X142526015Y-104267540D01*
X142720600Y-104072955D01*
X142873485Y-103844147D01*
X142905480Y-103766905D01*
X142937475Y-103844147D01*
X143090360Y-104072955D01*
X143284945Y-104267540D01*
X143513753Y-104420425D01*
X143767990Y-104525734D01*
X144037888Y-104579420D01*
X144313072Y-104579420D01*
X144582970Y-104525734D01*
X144837207Y-104420425D01*
X145066015Y-104267540D01*
X145260600Y-104072955D01*
X145413485Y-103844147D01*
X145445480Y-103766905D01*
X145477475Y-103844147D01*
X145630360Y-104072955D01*
X145824945Y-104267540D01*
X146053753Y-104420425D01*
X146307990Y-104525734D01*
X146577888Y-104579420D01*
X146853072Y-104579420D01*
X147122970Y-104525734D01*
X147130960Y-104522424D01*
X147130961Y-113721338D01*
X146939028Y-113683160D01*
X146715452Y-113683160D01*
X146496173Y-113726777D01*
X146289616Y-113812336D01*
X146103720Y-113936548D01*
X145945628Y-114094640D01*
X145821416Y-114280536D01*
X145735857Y-114487093D01*
X145692240Y-114706372D01*
X145692240Y-114929948D01*
X145735857Y-115149227D01*
X145821416Y-115355784D01*
X145945628Y-115541680D01*
X146103720Y-115699772D01*
X146289616Y-115823984D01*
X146496173Y-115909543D01*
X146715452Y-115953160D01*
X146939028Y-115953160D01*
X147130961Y-115914982D01*
X147130961Y-117082416D01*
X147122970Y-117079106D01*
X146853072Y-117025420D01*
X146577888Y-117025420D01*
X146307990Y-117079106D01*
X146053753Y-117184415D01*
X145824945Y-117337300D01*
X145630360Y-117531885D01*
X145477475Y-117760693D01*
X145445480Y-117837935D01*
X145413485Y-117760693D01*
X145260600Y-117531885D01*
X145066015Y-117337300D01*
X144837207Y-117184415D01*
X144582970Y-117079106D01*
X144313072Y-117025420D01*
X144037888Y-117025420D01*
X143767990Y-117079106D01*
X143513753Y-117184415D01*
X143284945Y-117337300D01*
X143090360Y-117531885D01*
X142937475Y-117760693D01*
X142905480Y-117837935D01*
X142873485Y-117760693D01*
X142720600Y-117531885D01*
X142526015Y-117337300D01*
X142297207Y-117184415D01*
X142042970Y-117079106D01*
X141773072Y-117025420D01*
X141497888Y-117025420D01*
X141227990Y-117079106D01*
X140973753Y-117184415D01*
X140744945Y-117337300D01*
X140550360Y-117531885D01*
X140397475Y-117760693D01*
X140365480Y-117837935D01*
X140333485Y-117760693D01*
X140180600Y-117531885D01*
X139986015Y-117337300D01*
X139757207Y-117184415D01*
X139502970Y-117079106D01*
X139233072Y-117025420D01*
X138957888Y-117025420D01*
X138687990Y-117079106D01*
X138433753Y-117184415D01*
X138204945Y-117337300D01*
X138010360Y-117531885D01*
X137857475Y-117760693D01*
X137825480Y-117837935D01*
X137793485Y-117760693D01*
X137640600Y-117531885D01*
X137446015Y-117337300D01*
X137217207Y-117184415D01*
X136962970Y-117079106D01*
X136693072Y-117025420D01*
X136417888Y-117025420D01*
X136147990Y-117079106D01*
X135893753Y-117184415D01*
X135664945Y-117337300D01*
X135470360Y-117531885D01*
X135317475Y-117760693D01*
X135285480Y-117837935D01*
X135253485Y-117760693D01*
X135100600Y-117531885D01*
X134906015Y-117337300D01*
X134677207Y-117184415D01*
X134422970Y-117079106D01*
X134153072Y-117025420D01*
X133877888Y-117025420D01*
X133607990Y-117079106D01*
X133353753Y-117184415D01*
X133124945Y-117337300D01*
X132930360Y-117531885D01*
X132777475Y-117760693D01*
X132745480Y-117837935D01*
X132713485Y-117760693D01*
X132560600Y-117531885D01*
X132366015Y-117337300D01*
X132137207Y-117184415D01*
X131882970Y-117079106D01*
X131613072Y-117025420D01*
X131337888Y-117025420D01*
X131067990Y-117079106D01*
X130813753Y-117184415D01*
X130584945Y-117337300D01*
X130390360Y-117531885D01*
X130237475Y-117760693D01*
X130205480Y-117837935D01*
X130173485Y-117760693D01*
X130020600Y-117531885D01*
X129826015Y-117337300D01*
X129597207Y-117184415D01*
X129342970Y-117079106D01*
X129073072Y-117025420D01*
X128797888Y-117025420D01*
X128527990Y-117079106D01*
X128273753Y-117184415D01*
X128044945Y-117337300D01*
X127850360Y-117531885D01*
X127697475Y-117760693D01*
X127665480Y-117837935D01*
X127633485Y-117760693D01*
X127480600Y-117531885D01*
X127286015Y-117337300D01*
X127057207Y-117184415D01*
X126802970Y-117079106D01*
X126533072Y-117025420D01*
X126257888Y-117025420D01*
X125987990Y-117079106D01*
X125733753Y-117184415D01*
X125504945Y-117337300D01*
X125310360Y-117531885D01*
X125157475Y-117760693D01*
X125052166Y-118014930D01*
X124998480Y-118284828D01*
X124998480Y-118560012D01*
X125052166Y-118829910D01*
X125157475Y-119084147D01*
X125310360Y-119312955D01*
X125504945Y-119507540D01*
X125733753Y-119660425D01*
X125987990Y-119765734D01*
X126257888Y-119819420D01*
X126533072Y-119819420D01*
X126802970Y-119765734D01*
X127057207Y-119660425D01*
X127286015Y-119507540D01*
X127480600Y-119312955D01*
X127633485Y-119084147D01*
X127665480Y-119006905D01*
X127697475Y-119084147D01*
X127850360Y-119312955D01*
X128044945Y-119507540D01*
X128273753Y-119660425D01*
X128527990Y-119765734D01*
X128797888Y-119819420D01*
X129073072Y-119819420D01*
X129342970Y-119765734D01*
X129597207Y-119660425D01*
X129826015Y-119507540D01*
X130020600Y-119312955D01*
X130173485Y-119084147D01*
X130205480Y-119006905D01*
X130237475Y-119084147D01*
X130390360Y-119312955D01*
X130584945Y-119507540D01*
X130813753Y-119660425D01*
X131067990Y-119765734D01*
X131337888Y-119819420D01*
X131613072Y-119819420D01*
X131882970Y-119765734D01*
X132137207Y-119660425D01*
X132366015Y-119507540D01*
X132560600Y-119312955D01*
X132713485Y-119084147D01*
X132745480Y-119006905D01*
X132777475Y-119084147D01*
X132930360Y-119312955D01*
X133124945Y-119507540D01*
X133353753Y-119660425D01*
X133607990Y-119765734D01*
X133877888Y-119819420D01*
X134153072Y-119819420D01*
X134422970Y-119765734D01*
X134677207Y-119660425D01*
X134906015Y-119507540D01*
X135100600Y-119312955D01*
X135253485Y-119084147D01*
X135285480Y-119006905D01*
X135317475Y-119084147D01*
X135470360Y-119312955D01*
X135664945Y-119507540D01*
X135893753Y-119660425D01*
X136147990Y-119765734D01*
X136417888Y-119819420D01*
X136693072Y-119819420D01*
X136962970Y-119765734D01*
X137217207Y-119660425D01*
X137446015Y-119507540D01*
X137640600Y-119312955D01*
X137793485Y-119084147D01*
X137825480Y-119006905D01*
X137857475Y-119084147D01*
X138010360Y-119312955D01*
X138204945Y-119507540D01*
X138433753Y-119660425D01*
X138687990Y-119765734D01*
X138957888Y-119819420D01*
X139233072Y-119819420D01*
X139502970Y-119765734D01*
X139757207Y-119660425D01*
X139986015Y-119507540D01*
X140180600Y-119312955D01*
X140333485Y-119084147D01*
X140365480Y-119006905D01*
X140397475Y-119084147D01*
X140550360Y-119312955D01*
X140744945Y-119507540D01*
X140973753Y-119660425D01*
X141227990Y-119765734D01*
X141497888Y-119819420D01*
X141773072Y-119819420D01*
X142042970Y-119765734D01*
X142297207Y-119660425D01*
X142526015Y-119507540D01*
X142720600Y-119312955D01*
X142873485Y-119084147D01*
X142905480Y-119006905D01*
X142937475Y-119084147D01*
X143090360Y-119312955D01*
X143284945Y-119507540D01*
X143513753Y-119660425D01*
X143767990Y-119765734D01*
X144037888Y-119819420D01*
X144313072Y-119819420D01*
X144582970Y-119765734D01*
X144837207Y-119660425D01*
X145066015Y-119507540D01*
X145260600Y-119312955D01*
X145413485Y-119084147D01*
X145445480Y-119006905D01*
X145477475Y-119084147D01*
X145630360Y-119312955D01*
X145824945Y-119507540D01*
X146053753Y-119660425D01*
X146307990Y-119765734D01*
X146577888Y-119819420D01*
X146853072Y-119819420D01*
X147122970Y-119765734D01*
X147130961Y-119762424D01*
X147130961Y-119814041D01*
X147126679Y-119857520D01*
X147143765Y-120031010D01*
X147194372Y-120197833D01*
X147276550Y-120351579D01*
X147359428Y-120452566D01*
X147359431Y-120452569D01*
X147387144Y-120486337D01*
X147420912Y-120514050D01*
X150167932Y-123261070D01*
X126437969Y-123261070D01*
X124608400Y-121431502D01*
X124608400Y-100423641D01*
X129193340Y-100423641D01*
X129193340Y-100627519D01*
X129233114Y-100827478D01*
X129311135Y-101015836D01*
X129424403Y-101185354D01*
X129568566Y-101329517D01*
X129738084Y-101442785D01*
X129926442Y-101520806D01*
X130126401Y-101560580D01*
X130330279Y-101560580D01*
X130530238Y-101520806D01*
X130718596Y-101442785D01*
X130888114Y-101329517D01*
X131032277Y-101185354D01*
X131145545Y-101015836D01*
X131223566Y-100827478D01*
X131263340Y-100627519D01*
X131263340Y-100423641D01*
X131223566Y-100223682D01*
X131145545Y-100035324D01*
X131032277Y-99865806D01*
X130888114Y-99721643D01*
X130718596Y-99608375D01*
X130530238Y-99530354D01*
X130330279Y-99490580D01*
X130126401Y-99490580D01*
X129926442Y-99530354D01*
X129738084Y-99608375D01*
X129568566Y-99721643D01*
X129424403Y-99865806D01*
X129311135Y-100035324D01*
X129233114Y-100223682D01*
X129193340Y-100423641D01*
X124608400Y-100423641D01*
X124608400Y-98061251D01*
X127814120Y-98061251D01*
X127814120Y-98265129D01*
X127853894Y-98465088D01*
X127931915Y-98653446D01*
X128045183Y-98822964D01*
X128189346Y-98967127D01*
X128358864Y-99080395D01*
X128547222Y-99158416D01*
X128747181Y-99198190D01*
X128951059Y-99198190D01*
X129151018Y-99158416D01*
X129339376Y-99080395D01*
X129508894Y-98967127D01*
X129653057Y-98822964D01*
X129739437Y-98693688D01*
X129812406Y-98766657D01*
X129981924Y-98879925D01*
X130170282Y-98957946D01*
X130370241Y-98997720D01*
X130574119Y-98997720D01*
X130774078Y-98957946D01*
X130962436Y-98879925D01*
X131131954Y-98766657D01*
X131276117Y-98622494D01*
X131389385Y-98452976D01*
X131467406Y-98264618D01*
X131478715Y-98207763D01*
X131535360Y-98151118D01*
X131535360Y-100050626D01*
X131503155Y-100098824D01*
X131425134Y-100287182D01*
X131385360Y-100487141D01*
X131385360Y-100691019D01*
X131425134Y-100890978D01*
X131503155Y-101079336D01*
X131616423Y-101248854D01*
X131760586Y-101393017D01*
X131930104Y-101506285D01*
X132118462Y-101584306D01*
X132318421Y-101624080D01*
X132522299Y-101624080D01*
X132722258Y-101584306D01*
X132910616Y-101506285D01*
X133080134Y-101393017D01*
X133224297Y-101248854D01*
X133337565Y-101079336D01*
X133415586Y-100890978D01*
X133455360Y-100691019D01*
X133455360Y-100487141D01*
X133415586Y-100287182D01*
X133337565Y-100098824D01*
X133305360Y-100050626D01*
X133305360Y-96921292D01*
X137046080Y-96921292D01*
X137046080Y-97144868D01*
X137089697Y-97364147D01*
X137175256Y-97570704D01*
X137299468Y-97756600D01*
X137457560Y-97914692D01*
X137643456Y-98038904D01*
X137850013Y-98124463D01*
X138069292Y-98168080D01*
X138292868Y-98168080D01*
X138512147Y-98124463D01*
X138718704Y-98038904D01*
X138904600Y-97914692D01*
X139062692Y-97756600D01*
X139186904Y-97570704D01*
X139272463Y-97364147D01*
X139316080Y-97144868D01*
X139316080Y-96921292D01*
X139272463Y-96702013D01*
X139186904Y-96495456D01*
X139062692Y-96309560D01*
X138904600Y-96151468D01*
X138718704Y-96027256D01*
X138512147Y-95941697D01*
X138292868Y-95898080D01*
X138069292Y-95898080D01*
X137850013Y-95941697D01*
X137643456Y-96027256D01*
X137457560Y-96151468D01*
X137299468Y-96309560D01*
X137175256Y-96495456D01*
X137089697Y-96702013D01*
X137046080Y-96921292D01*
X133305360Y-96921292D01*
X133305360Y-95711941D01*
X141382800Y-95711941D01*
X141382800Y-95915819D01*
X141422574Y-96115778D01*
X141500595Y-96304136D01*
X141613863Y-96473654D01*
X141758026Y-96617817D01*
X141927544Y-96731085D01*
X142115902Y-96809106D01*
X142315861Y-96848880D01*
X142519739Y-96848880D01*
X142707445Y-96811543D01*
X143074452Y-97178551D01*
X143074452Y-97255299D01*
X143114226Y-97455258D01*
X143192247Y-97643616D01*
X143305515Y-97813134D01*
X143449678Y-97957297D01*
X143619196Y-98070565D01*
X143807554Y-98148586D01*
X144007513Y-98188360D01*
X144020293Y-98188360D01*
X144049347Y-98334427D01*
X144134906Y-98540984D01*
X144259118Y-98726880D01*
X144417210Y-98884972D01*
X144603106Y-99009184D01*
X144809663Y-99094743D01*
X145028942Y-99138360D01*
X145252518Y-99138360D01*
X145471797Y-99094743D01*
X145678354Y-99009184D01*
X145864250Y-98884972D01*
X146022342Y-98726880D01*
X146146554Y-98540984D01*
X146232113Y-98334427D01*
X146275730Y-98115148D01*
X146275730Y-97891572D01*
X146232113Y-97672293D01*
X146146554Y-97465736D01*
X146022342Y-97279840D01*
X145864250Y-97121748D01*
X145678354Y-96997536D01*
X145471797Y-96911977D01*
X145252518Y-96868360D01*
X145108039Y-96868360D01*
X145104678Y-96851462D01*
X145026657Y-96663104D01*
X144913389Y-96493586D01*
X144769226Y-96349423D01*
X144709307Y-96309387D01*
X144704502Y-96305443D01*
X143617894Y-95218836D01*
X143590177Y-95185063D01*
X143455419Y-95074469D01*
X143301673Y-94992291D01*
X143134850Y-94941685D01*
X143004837Y-94928880D01*
X143004829Y-94928880D01*
X142961360Y-94924599D01*
X142951326Y-94925587D01*
X142908056Y-94896675D01*
X142719698Y-94818654D01*
X142519739Y-94778880D01*
X142315861Y-94778880D01*
X142115902Y-94818654D01*
X141927544Y-94896675D01*
X141758026Y-95009943D01*
X141613863Y-95154106D01*
X141500595Y-95323624D01*
X141422574Y-95511982D01*
X141382800Y-95711941D01*
X133305360Y-95711941D01*
X133305360Y-93542247D01*
X133742353Y-93542247D01*
X133742353Y-93864313D01*
X133805185Y-94180192D01*
X133928435Y-94477743D01*
X134107366Y-94745532D01*
X134335101Y-94973267D01*
X134602890Y-95152198D01*
X134900441Y-95275448D01*
X135216320Y-95338280D01*
X135538386Y-95338280D01*
X135854265Y-95275448D01*
X136151816Y-95152198D01*
X136419605Y-94973267D01*
X136647340Y-94745532D01*
X136826271Y-94477743D01*
X136949521Y-94180192D01*
X137012353Y-93864313D01*
X137012353Y-93542247D01*
X136949521Y-93226368D01*
X136826271Y-92928817D01*
X136647340Y-92661028D01*
X136419605Y-92433293D01*
X136151816Y-92254362D01*
X135854265Y-92131112D01*
X135538386Y-92068280D01*
X135216320Y-92068280D01*
X134900441Y-92131112D01*
X134602890Y-92254362D01*
X134335101Y-92433293D01*
X134107366Y-92661028D01*
X133928435Y-92928817D01*
X133805185Y-93226368D01*
X133742353Y-93542247D01*
X133305360Y-93542247D01*
X133305360Y-87756661D01*
X143496080Y-87756661D01*
X143496080Y-87960539D01*
X143535854Y-88160498D01*
X143613875Y-88348856D01*
X143727143Y-88518374D01*
X143871306Y-88662537D01*
X144040824Y-88775805D01*
X144229182Y-88853826D01*
X144429141Y-88893600D01*
X144633019Y-88893600D01*
X144832978Y-88853826D01*
X145021336Y-88775805D01*
X145190854Y-88662537D01*
X145335017Y-88518374D01*
X145448285Y-88348856D01*
X145526306Y-88160498D01*
X145548026Y-88051301D01*
X152447040Y-88051301D01*
X152447040Y-88255179D01*
X152486814Y-88455138D01*
X152564835Y-88643496D01*
X152678103Y-88813014D01*
X152822266Y-88957177D01*
X152991784Y-89070445D01*
X153180142Y-89148466D01*
X153380101Y-89188240D01*
X153583979Y-89188240D01*
X153783938Y-89148466D01*
X153972296Y-89070445D01*
X154141814Y-88957177D01*
X154285977Y-88813014D01*
X154399245Y-88643496D01*
X154477266Y-88455138D01*
X154517040Y-88255179D01*
X154517040Y-88051301D01*
X154477266Y-87851342D01*
X154399245Y-87662984D01*
X154285977Y-87493466D01*
X154141814Y-87349303D01*
X153972296Y-87236035D01*
X153783938Y-87158014D01*
X153583979Y-87118240D01*
X153380101Y-87118240D01*
X153180142Y-87158014D01*
X152991784Y-87236035D01*
X152822266Y-87349303D01*
X152678103Y-87493466D01*
X152564835Y-87662984D01*
X152486814Y-87851342D01*
X152447040Y-88051301D01*
X145548026Y-88051301D01*
X145566080Y-87960539D01*
X145566080Y-87756661D01*
X145526306Y-87556702D01*
X145448285Y-87368344D01*
X145335017Y-87198826D01*
X145190854Y-87054663D01*
X145021336Y-86941395D01*
X144832978Y-86863374D01*
X144633019Y-86823600D01*
X144429141Y-86823600D01*
X144229182Y-86863374D01*
X144040824Y-86941395D01*
X143871306Y-87054663D01*
X143727143Y-87198826D01*
X143613875Y-87368344D01*
X143535854Y-87556702D01*
X143496080Y-87756661D01*
X133305360Y-87756661D01*
X133305360Y-79826781D01*
X171618960Y-79826781D01*
X171618960Y-80030659D01*
X171658734Y-80230618D01*
X171736755Y-80418976D01*
X171850023Y-80588494D01*
X171994186Y-80732657D01*
X172163704Y-80845925D01*
X172352062Y-80923946D01*
X172552021Y-80963720D01*
X172755899Y-80963720D01*
X172955858Y-80923946D01*
X173144216Y-80845925D01*
X173313734Y-80732657D01*
X173457897Y-80588494D01*
X173571165Y-80418976D01*
X173649186Y-80230618D01*
X173688960Y-80030659D01*
X173688960Y-79826781D01*
X173649186Y-79626822D01*
X173571165Y-79438464D01*
X173457897Y-79268946D01*
X173313734Y-79124783D01*
X173144216Y-79011515D01*
X172955858Y-78933494D01*
X172755899Y-78893720D01*
X172552021Y-78893720D01*
X172352062Y-78933494D01*
X172163704Y-79011515D01*
X171994186Y-79124783D01*
X171850023Y-79268946D01*
X171736755Y-79438464D01*
X171658734Y-79626822D01*
X171618960Y-79826781D01*
X133305360Y-79826781D01*
X133305360Y-78648221D01*
X153376680Y-78648221D01*
X153376680Y-78852099D01*
X153416454Y-79052058D01*
X153494475Y-79240416D01*
X153607743Y-79409934D01*
X153751906Y-79554097D01*
X153921424Y-79667365D01*
X154109782Y-79745386D01*
X154309741Y-79785160D01*
X154513619Y-79785160D01*
X154713578Y-79745386D01*
X154901936Y-79667365D01*
X155071454Y-79554097D01*
X155215617Y-79409934D01*
X155328885Y-79240416D01*
X155406906Y-79052058D01*
X155446680Y-78852099D01*
X155446680Y-78648221D01*
X155406906Y-78448262D01*
X155328885Y-78259904D01*
X155215617Y-78090386D01*
X155071454Y-77946223D01*
X154901936Y-77832955D01*
X154713578Y-77754934D01*
X154513619Y-77715160D01*
X154309741Y-77715160D01*
X154109782Y-77754934D01*
X153921424Y-77832955D01*
X153751906Y-77946223D01*
X153607743Y-78090386D01*
X153494475Y-78259904D01*
X153416454Y-78448262D01*
X153376680Y-78648221D01*
X133305360Y-78648221D01*
X133305360Y-78369445D01*
X133309641Y-78325979D01*
X133305360Y-78282513D01*
X133305360Y-78282503D01*
X133292555Y-78152490D01*
X133241949Y-77985667D01*
X133159771Y-77831921D01*
X133109150Y-77770240D01*
X133076892Y-77730933D01*
X133076890Y-77730931D01*
X133049177Y-77697163D01*
X133015409Y-77669450D01*
X132515900Y-77169941D01*
X155495040Y-77169941D01*
X155495040Y-77373819D01*
X155534814Y-77573778D01*
X155612835Y-77762136D01*
X155726103Y-77931654D01*
X155870266Y-78075817D01*
X156039784Y-78189085D01*
X156228142Y-78267106D01*
X156428101Y-78306880D01*
X156631979Y-78306880D01*
X156831938Y-78267106D01*
X157020296Y-78189085D01*
X157189814Y-78075817D01*
X157333977Y-77931654D01*
X157447245Y-77762136D01*
X157525266Y-77573778D01*
X157565040Y-77373819D01*
X157565040Y-77276621D01*
X159066280Y-77276621D01*
X159066280Y-77480499D01*
X159106054Y-77680458D01*
X159184075Y-77868816D01*
X159297343Y-78038334D01*
X159441506Y-78182497D01*
X159611024Y-78295765D01*
X159799382Y-78373786D01*
X159999341Y-78413560D01*
X160203219Y-78413560D01*
X160403178Y-78373786D01*
X160591536Y-78295765D01*
X160761054Y-78182497D01*
X160905217Y-78038334D01*
X161018485Y-77868816D01*
X161021796Y-77860821D01*
X164969240Y-77860821D01*
X164969240Y-78064699D01*
X165009014Y-78264658D01*
X165087035Y-78453016D01*
X165200303Y-78622534D01*
X165344466Y-78766697D01*
X165513984Y-78879965D01*
X165702342Y-78957986D01*
X165902301Y-78997760D01*
X166106179Y-78997760D01*
X166306138Y-78957986D01*
X166494496Y-78879965D01*
X166664014Y-78766697D01*
X166808177Y-78622534D01*
X166921445Y-78453016D01*
X166999466Y-78264658D01*
X167039240Y-78064699D01*
X167039240Y-77860821D01*
X166999466Y-77660862D01*
X166921445Y-77472504D01*
X166808177Y-77302986D01*
X166664014Y-77158823D01*
X166494496Y-77045555D01*
X166306138Y-76967534D01*
X166106179Y-76927760D01*
X165902301Y-76927760D01*
X165702342Y-76967534D01*
X165513984Y-77045555D01*
X165344466Y-77158823D01*
X165200303Y-77302986D01*
X165087035Y-77472504D01*
X165009014Y-77660862D01*
X164969240Y-77860821D01*
X161021796Y-77860821D01*
X161096506Y-77680458D01*
X161136280Y-77480499D01*
X161136280Y-77276621D01*
X161096506Y-77076662D01*
X161018485Y-76888304D01*
X160905217Y-76718786D01*
X160761054Y-76574623D01*
X160591536Y-76461355D01*
X160403178Y-76383334D01*
X160203219Y-76343560D01*
X159999341Y-76343560D01*
X159799382Y-76383334D01*
X159611024Y-76461355D01*
X159441506Y-76574623D01*
X159297343Y-76718786D01*
X159184075Y-76888304D01*
X159106054Y-77076662D01*
X159066280Y-77276621D01*
X157565040Y-77276621D01*
X157565040Y-77169941D01*
X157525266Y-76969982D01*
X157447245Y-76781624D01*
X157333977Y-76612106D01*
X157189814Y-76467943D01*
X157020296Y-76354675D01*
X156831938Y-76276654D01*
X156631979Y-76236880D01*
X156428101Y-76236880D01*
X156228142Y-76276654D01*
X156039784Y-76354675D01*
X155870266Y-76467943D01*
X155726103Y-76612106D01*
X155612835Y-76781624D01*
X155534814Y-76969982D01*
X155495040Y-77169941D01*
X132515900Y-77169941D01*
X130991035Y-75645077D01*
X130979726Y-75588222D01*
X130901705Y-75399864D01*
X130788437Y-75230346D01*
X130644274Y-75086183D01*
X130474756Y-74972915D01*
X130286398Y-74894894D01*
X130086439Y-74855120D01*
X129882561Y-74855120D01*
X129682602Y-74894894D01*
X129494244Y-74972915D01*
X129324726Y-75086183D01*
X129180563Y-75230346D01*
X129067295Y-75399864D01*
X128989274Y-75588222D01*
X128949500Y-75788181D01*
X128949500Y-75992059D01*
X128989274Y-76192018D01*
X129067295Y-76380376D01*
X129180563Y-76549894D01*
X129324726Y-76694057D01*
X129494244Y-76807325D01*
X129682602Y-76885346D01*
X129739457Y-76896655D01*
X131535361Y-78692560D01*
X131535360Y-94705150D01*
X131465946Y-94691343D01*
X131262068Y-94691343D01*
X131062109Y-94731117D01*
X130873751Y-94809138D01*
X130704233Y-94922406D01*
X130560070Y-95066569D01*
X130446802Y-95236087D01*
X130368781Y-95424445D01*
X130329007Y-95624404D01*
X130329007Y-95828282D01*
X130368781Y-96028241D01*
X130446802Y-96216599D01*
X130479007Y-96264798D01*
X130479008Y-96704314D01*
X130227137Y-96956185D01*
X130170282Y-96967494D01*
X129981924Y-97045515D01*
X129812406Y-97158783D01*
X129668243Y-97302946D01*
X129581863Y-97432222D01*
X129508894Y-97359253D01*
X129339376Y-97245985D01*
X129151018Y-97167964D01*
X128951059Y-97128190D01*
X128747181Y-97128190D01*
X128547222Y-97167964D01*
X128358864Y-97245985D01*
X128189346Y-97359253D01*
X128045183Y-97503416D01*
X127931915Y-97672934D01*
X127853894Y-97861292D01*
X127814120Y-98061251D01*
X124608400Y-98061251D01*
X124608400Y-94869818D01*
X126229044Y-93249175D01*
X126285898Y-93237866D01*
X126474256Y-93159845D01*
X126643774Y-93046577D01*
X126787937Y-92902414D01*
X126901205Y-92732896D01*
X126979226Y-92544538D01*
X127019000Y-92344579D01*
X127019000Y-92140701D01*
X126979226Y-91940742D01*
X126901205Y-91752384D01*
X126787937Y-91582866D01*
X126643774Y-91438703D01*
X126474256Y-91325435D01*
X126285898Y-91247414D01*
X126085939Y-91207640D01*
X125882061Y-91207640D01*
X125682102Y-91247414D01*
X125493744Y-91325435D01*
X125324226Y-91438703D01*
X125180063Y-91582866D01*
X125066795Y-91752384D01*
X124988774Y-91940742D01*
X124977465Y-91997596D01*
X123908389Y-93066673D01*
X123908389Y-92349109D01*
X127951164Y-88306335D01*
X128008018Y-88295026D01*
X128196376Y-88217005D01*
X128365894Y-88103737D01*
X128510057Y-87959574D01*
X128623325Y-87790056D01*
X128701346Y-87601698D01*
X128741120Y-87401739D01*
X128741120Y-87197861D01*
X128701346Y-86997902D01*
X128623325Y-86809544D01*
X128510057Y-86640026D01*
X128365894Y-86495863D01*
X128196376Y-86382595D01*
X128008018Y-86304574D01*
X127808059Y-86264800D01*
X127604181Y-86264800D01*
X127404222Y-86304574D01*
X127215864Y-86382595D01*
X127046346Y-86495863D01*
X126902183Y-86640026D01*
X126788915Y-86809544D01*
X126710894Y-86997902D01*
X126699585Y-87054756D01*
X122428340Y-91326001D01*
X122394573Y-91353714D01*
X122366860Y-91387482D01*
X122366857Y-91387485D01*
X122283979Y-91488472D01*
X122201801Y-91642218D01*
X122151194Y-91809041D01*
X122134108Y-91982531D01*
X122138390Y-92026010D01*
X122138390Y-101734177D01*
X122119033Y-101687446D01*
X121994821Y-101501550D01*
X121836729Y-101343458D01*
X121650833Y-101219246D01*
X121444276Y-101133687D01*
X121224997Y-101090070D01*
X121001421Y-101090070D01*
X120782142Y-101133687D01*
X120575585Y-101219246D01*
X120389689Y-101343458D01*
X120231597Y-101501550D01*
X120107385Y-101687446D01*
X120021826Y-101894003D01*
X119978209Y-102113282D01*
X111253880Y-102113282D01*
X111253880Y-92986814D01*
X113132392Y-92986814D01*
X113132392Y-93190692D01*
X113172166Y-93390651D01*
X113250187Y-93579009D01*
X113363455Y-93748527D01*
X113507618Y-93892690D01*
X113677136Y-94005958D01*
X113865494Y-94083979D01*
X114065453Y-94123753D01*
X114269331Y-94123753D01*
X114469290Y-94083979D01*
X114657648Y-94005958D01*
X114827166Y-93892690D01*
X114971329Y-93748527D01*
X115058544Y-93618000D01*
X115143619Y-93618000D01*
X115343578Y-93578226D01*
X115531936Y-93500205D01*
X115701454Y-93386937D01*
X115845617Y-93242774D01*
X115958885Y-93073256D01*
X116036906Y-92884898D01*
X116076680Y-92684939D01*
X116076680Y-92481061D01*
X116036906Y-92281102D01*
X115958885Y-92092744D01*
X115845617Y-91923226D01*
X115701454Y-91779063D01*
X115531936Y-91665795D01*
X115343578Y-91587774D01*
X115143619Y-91548000D01*
X114939741Y-91548000D01*
X114739782Y-91587774D01*
X114551424Y-91665795D01*
X114381906Y-91779063D01*
X114237743Y-91923226D01*
X114150528Y-92053753D01*
X114065453Y-92053753D01*
X113865494Y-92093527D01*
X113677136Y-92171548D01*
X113507618Y-92284816D01*
X113363455Y-92428979D01*
X113250187Y-92598497D01*
X113172166Y-92786855D01*
X113132392Y-92986814D01*
X111253880Y-92986814D01*
X111253880Y-88372631D01*
X120928219Y-88372631D01*
X120928219Y-88596207D01*
X120971836Y-88815486D01*
X121057395Y-89022043D01*
X121181607Y-89207939D01*
X121339699Y-89366031D01*
X121525595Y-89490243D01*
X121732152Y-89575802D01*
X121951431Y-89619419D01*
X122175007Y-89619419D01*
X122394286Y-89575802D01*
X122600843Y-89490243D01*
X122786739Y-89366031D01*
X122944831Y-89207939D01*
X123069043Y-89022043D01*
X123154602Y-88815486D01*
X123198219Y-88596207D01*
X123198219Y-88372631D01*
X123154602Y-88153352D01*
X123069043Y-87946795D01*
X122944831Y-87760899D01*
X122786739Y-87602807D01*
X122600843Y-87478595D01*
X122394286Y-87393036D01*
X122175007Y-87349419D01*
X121951431Y-87349419D01*
X121732152Y-87393036D01*
X121525595Y-87478595D01*
X121339699Y-87602807D01*
X121181607Y-87760899D01*
X121057395Y-87946795D01*
X120971836Y-88153352D01*
X120928219Y-88372631D01*
X111253880Y-88372631D01*
X111253880Y-82826521D01*
X113877140Y-82826521D01*
X113877140Y-83030399D01*
X113916914Y-83230358D01*
X113994935Y-83418716D01*
X114108203Y-83588234D01*
X114252366Y-83732397D01*
X114421884Y-83845665D01*
X114610242Y-83923686D01*
X114810201Y-83963460D01*
X115014079Y-83963460D01*
X115214038Y-83923686D01*
X115402396Y-83845665D01*
X115571914Y-83732397D01*
X115716077Y-83588234D01*
X115829345Y-83418716D01*
X115875997Y-83306090D01*
X115925962Y-83326786D01*
X116125921Y-83366560D01*
X116329799Y-83366560D01*
X116529758Y-83326786D01*
X116718116Y-83248765D01*
X116887634Y-83135497D01*
X117031797Y-82991334D01*
X117145065Y-82821816D01*
X117223086Y-82633458D01*
X117262860Y-82433499D01*
X117262860Y-82229621D01*
X117223086Y-82029662D01*
X117145065Y-81841304D01*
X117031797Y-81671786D01*
X116887634Y-81527623D01*
X116718116Y-81414355D01*
X116529758Y-81336334D01*
X116329799Y-81296560D01*
X116125921Y-81296560D01*
X115925962Y-81336334D01*
X115737604Y-81414355D01*
X115568086Y-81527623D01*
X115423923Y-81671786D01*
X115310655Y-81841304D01*
X115264003Y-81953930D01*
X115214038Y-81933234D01*
X115014079Y-81893460D01*
X114810201Y-81893460D01*
X114610242Y-81933234D01*
X114421884Y-82011255D01*
X114252366Y-82124523D01*
X114108203Y-82268686D01*
X113994935Y-82438204D01*
X113916914Y-82626562D01*
X113877140Y-82826521D01*
X111253880Y-82826521D01*
X111253880Y-80649741D01*
X125330000Y-80649741D01*
X125330000Y-80853619D01*
X125369774Y-81053578D01*
X125447795Y-81241936D01*
X125561063Y-81411454D01*
X125705226Y-81555617D01*
X125874744Y-81668885D01*
X126063102Y-81746906D01*
X126263061Y-81786680D01*
X126466939Y-81786680D01*
X126666898Y-81746906D01*
X126855256Y-81668885D01*
X127024774Y-81555617D01*
X127168937Y-81411454D01*
X127282205Y-81241936D01*
X127360226Y-81053578D01*
X127400000Y-80853619D01*
X127400000Y-80649741D01*
X127360226Y-80449782D01*
X127282205Y-80261424D01*
X127168937Y-80091906D01*
X127024774Y-79947743D01*
X126855256Y-79834475D01*
X126666898Y-79756454D01*
X126466939Y-79716680D01*
X126263061Y-79716680D01*
X126063102Y-79756454D01*
X125874744Y-79834475D01*
X125705226Y-79947743D01*
X125561063Y-80091906D01*
X125447795Y-80261424D01*
X125369774Y-80449782D01*
X125330000Y-80649741D01*
X111253880Y-80649741D01*
X111253880Y-78475501D01*
X124842320Y-78475501D01*
X124842320Y-78679379D01*
X124882094Y-78879338D01*
X124960115Y-79067696D01*
X125073383Y-79237214D01*
X125217546Y-79381377D01*
X125387064Y-79494645D01*
X125575422Y-79572666D01*
X125775381Y-79612440D01*
X125979259Y-79612440D01*
X126179218Y-79572666D01*
X126367576Y-79494645D01*
X126537094Y-79381377D01*
X126681257Y-79237214D01*
X126794525Y-79067696D01*
X126872546Y-78879338D01*
X126912320Y-78679379D01*
X126912320Y-78475501D01*
X126872546Y-78275542D01*
X126794525Y-78087184D01*
X126681257Y-77917666D01*
X126537094Y-77773503D01*
X126367576Y-77660235D01*
X126179218Y-77582214D01*
X125979259Y-77542440D01*
X125775381Y-77542440D01*
X125575422Y-77582214D01*
X125387064Y-77660235D01*
X125217546Y-77773503D01*
X125073383Y-77917666D01*
X124960115Y-78087184D01*
X124882094Y-78275542D01*
X124842320Y-78475501D01*
X111253880Y-78475501D01*
X111253880Y-76722685D01*
X111603334Y-77072139D01*
X112115490Y-77414351D01*
X112684568Y-77650071D01*
X113288697Y-77770240D01*
X113904663Y-77770240D01*
X114508792Y-77650071D01*
X115077870Y-77414351D01*
X115590026Y-77072139D01*
X116025579Y-76636586D01*
X116367791Y-76124430D01*
X116603511Y-75555352D01*
X116723680Y-74951223D01*
X116723680Y-74614701D01*
X153783080Y-74614701D01*
X153783080Y-74818579D01*
X153822854Y-75018538D01*
X153900875Y-75206896D01*
X154014143Y-75376414D01*
X154158306Y-75520577D01*
X154327824Y-75633845D01*
X154516182Y-75711866D01*
X154716141Y-75751640D01*
X154920019Y-75751640D01*
X155119978Y-75711866D01*
X155308336Y-75633845D01*
X155477854Y-75520577D01*
X155622017Y-75376414D01*
X155735285Y-75206896D01*
X155813306Y-75018538D01*
X155853080Y-74818579D01*
X155853080Y-74665501D01*
X163465560Y-74665501D01*
X163465560Y-74869379D01*
X163505334Y-75069338D01*
X163583355Y-75257696D01*
X163696623Y-75427214D01*
X163840786Y-75571377D01*
X164010304Y-75684645D01*
X164198662Y-75762666D01*
X164398621Y-75802440D01*
X164602499Y-75802440D01*
X164802458Y-75762666D01*
X164990816Y-75684645D01*
X165160334Y-75571377D01*
X165304497Y-75427214D01*
X165417765Y-75257696D01*
X165495786Y-75069338D01*
X165535560Y-74869379D01*
X165535560Y-74665501D01*
X165495786Y-74465542D01*
X165417765Y-74277184D01*
X165304497Y-74107666D01*
X165160334Y-73963503D01*
X164990816Y-73850235D01*
X164802458Y-73772214D01*
X164602499Y-73732440D01*
X164398621Y-73732440D01*
X164198662Y-73772214D01*
X164010304Y-73850235D01*
X163840786Y-73963503D01*
X163696623Y-74107666D01*
X163583355Y-74277184D01*
X163505334Y-74465542D01*
X163465560Y-74665501D01*
X155853080Y-74665501D01*
X155853080Y-74614701D01*
X155813306Y-74414742D01*
X155735285Y-74226384D01*
X155622017Y-74056866D01*
X155477854Y-73912703D01*
X155308336Y-73799435D01*
X155119978Y-73721414D01*
X154920019Y-73681640D01*
X154716141Y-73681640D01*
X154516182Y-73721414D01*
X154327824Y-73799435D01*
X154158306Y-73912703D01*
X154014143Y-74056866D01*
X153900875Y-74226384D01*
X153822854Y-74414742D01*
X153783080Y-74614701D01*
X116723680Y-74614701D01*
X116723680Y-74335257D01*
X116603511Y-73731128D01*
X116449761Y-73359941D01*
X130501440Y-73359941D01*
X130501440Y-73563819D01*
X130541214Y-73763778D01*
X130619235Y-73952136D01*
X130732503Y-74121654D01*
X130876666Y-74265817D01*
X131046184Y-74379085D01*
X131234542Y-74457106D01*
X131434501Y-74496880D01*
X131638379Y-74496880D01*
X131838338Y-74457106D01*
X132026696Y-74379085D01*
X132196214Y-74265817D01*
X132340377Y-74121654D01*
X132453645Y-73952136D01*
X132531666Y-73763778D01*
X132571440Y-73563819D01*
X132571440Y-73359941D01*
X132531666Y-73159982D01*
X132453645Y-72971624D01*
X132340377Y-72802106D01*
X132196214Y-72657943D01*
X132026696Y-72544675D01*
X131838338Y-72466654D01*
X131638379Y-72426880D01*
X131434501Y-72426880D01*
X131234542Y-72466654D01*
X131046184Y-72544675D01*
X130876666Y-72657943D01*
X130732503Y-72802106D01*
X130619235Y-72971624D01*
X130541214Y-73159982D01*
X130501440Y-73359941D01*
X116449761Y-73359941D01*
X116367791Y-73162050D01*
X116025579Y-72649894D01*
X115703925Y-72328240D01*
X170472845Y-72328240D01*
X170151191Y-72649894D01*
X170151191Y-72649894D01*
G37*
X170151191Y-72649894D02*
X169808979Y-73162050D01*
X169573259Y-73731128D01*
X169453090Y-74335257D01*
X169453090Y-74951223D01*
X169573259Y-75555352D01*
X169808979Y-76124430D01*
X170151191Y-76636586D01*
X170586744Y-77072139D01*
X171098900Y-77414351D01*
X171667978Y-77650071D01*
X172272107Y-77770240D01*
X172888073Y-77770240D01*
X173492202Y-77650071D01*
X174061280Y-77414351D01*
X174573436Y-77072139D01*
X174890001Y-76755574D01*
X174890001Y-83880212D01*
X174888706Y-83873702D01*
X174810685Y-83685344D01*
X174697417Y-83515826D01*
X174553254Y-83371663D01*
X174383736Y-83258395D01*
X174195378Y-83180374D01*
X173995419Y-83140600D01*
X173791541Y-83140600D01*
X173591582Y-83180374D01*
X173403224Y-83258395D01*
X173233706Y-83371663D01*
X173089543Y-83515826D01*
X172976275Y-83685344D01*
X172898254Y-83873702D01*
X172858480Y-84073661D01*
X172858480Y-84277539D01*
X172898254Y-84477498D01*
X172976275Y-84665856D01*
X173089543Y-84835374D01*
X173233706Y-84979537D01*
X173403224Y-85092805D01*
X173591582Y-85170826D01*
X173791541Y-85210600D01*
X173995419Y-85210600D01*
X174195378Y-85170826D01*
X174383736Y-85092805D01*
X174553254Y-84979537D01*
X174697417Y-84835374D01*
X174810685Y-84665856D01*
X174888706Y-84477498D01*
X174890001Y-84470988D01*
X174890000Y-113974595D01*
X174825925Y-113819904D01*
X174712657Y-113650386D01*
X174568494Y-113506223D01*
X174398976Y-113392955D01*
X174210618Y-113314934D01*
X174010659Y-113275160D01*
X173806781Y-113275160D01*
X173606822Y-113314934D01*
X173418464Y-113392955D01*
X173248946Y-113506223D01*
X173104783Y-113650386D01*
X172991515Y-113819904D01*
X172913494Y-114008262D01*
X172873720Y-114208221D01*
X172873720Y-114412099D01*
X172913494Y-114612058D01*
X172991515Y-114800416D01*
X173104783Y-114969934D01*
X173248946Y-115114097D01*
X173418464Y-115227365D01*
X173606822Y-115305386D01*
X173806781Y-115345160D01*
X174010659Y-115345160D01*
X174210618Y-115305386D01*
X174398976Y-115227365D01*
X174568494Y-115114097D01*
X174712657Y-114969934D01*
X174825925Y-114800416D01*
X174890000Y-114645725D01*
X174890000Y-140531265D01*
X174573436Y-140214701D01*
X174061280Y-139872489D01*
X173492202Y-139636769D01*
X172888073Y-139516600D01*
X172272107Y-139516600D01*
X171667978Y-139636769D01*
X171098900Y-139872489D01*
X170586744Y-140214701D01*
X170151191Y-140650254D01*
X169808979Y-141162410D01*
X169573259Y-141731488D01*
X169453090Y-142335617D01*
X169453090Y-142951583D01*
X169573259Y-143555712D01*
X169808979Y-144124790D01*
X170151191Y-144636946D01*
X170586744Y-145072499D01*
X171098900Y-145414711D01*
X171667978Y-145650431D01*
X172272107Y-145770600D01*
X172888073Y-145770600D01*
X173492202Y-145650431D01*
X174061280Y-145414711D01*
X174573436Y-145072499D01*
X174890000Y-144755935D01*
X174890000Y-147958240D01*
X118749286Y-147958240D01*
X118749286Y-145401048D01*
X118902410Y-145464474D01*
X119172308Y-145518160D01*
X119447492Y-145518160D01*
X119717390Y-145464474D01*
X119971627Y-145359165D01*
X120200435Y-145206280D01*
X120395020Y-145011695D01*
X120547905Y-144782887D01*
X120653214Y-144528650D01*
X120706900Y-144258752D01*
X120706900Y-143983568D01*
X120653214Y-143713670D01*
X120547905Y-143459433D01*
X120395020Y-143230625D01*
X120360555Y-143196160D01*
X120395020Y-143161695D01*
X120547905Y-142932887D01*
X120653214Y-142678650D01*
X120706900Y-142408752D01*
X120706900Y-142133568D01*
X120653214Y-141863670D01*
X120547905Y-141609433D01*
X120395020Y-141380625D01*
X120360555Y-141346160D01*
X120395020Y-141311695D01*
X120547905Y-141082887D01*
X120653214Y-140828650D01*
X120706900Y-140558752D01*
X120706900Y-140283568D01*
X165412900Y-140283568D01*
X165412900Y-140558752D01*
X165466586Y-140828650D01*
X165571895Y-141082887D01*
X165724780Y-141311695D01*
X165759245Y-141346160D01*
X165724780Y-141380625D01*
X165571895Y-141609433D01*
X165466586Y-141863670D01*
X165412900Y-142133568D01*
X165412900Y-142408752D01*
X165466586Y-142678650D01*
X165571895Y-142932887D01*
X165724780Y-143161695D01*
X165759245Y-143196160D01*
X165724780Y-143230625D01*
X165571895Y-143459433D01*
X165466586Y-143713670D01*
X165412900Y-143983568D01*
X165412900Y-144258752D01*
X165466586Y-144528650D01*
X165571895Y-144782887D01*
X165724780Y-145011695D01*
X165919365Y-145206280D01*
X166148173Y-145359165D01*
X166402410Y-145464474D01*
X166672308Y-145518160D01*
X166947492Y-145518160D01*
X167217390Y-145464474D01*
X167471627Y-145359165D01*
X167700435Y-145206280D01*
X167895020Y-145011695D01*
X168047905Y-144782887D01*
X168153214Y-144528650D01*
X168206900Y-144258752D01*
X168206900Y-143983568D01*
X168153214Y-143713670D01*
X168047905Y-143459433D01*
X167895020Y-143230625D01*
X167860555Y-143196160D01*
X167895020Y-143161695D01*
X168047905Y-142932887D01*
X168153214Y-142678650D01*
X168206900Y-142408752D01*
X168206900Y-142133568D01*
X168153214Y-141863670D01*
X168047905Y-141609433D01*
X167895020Y-141380625D01*
X167860555Y-141346160D01*
X167895020Y-141311695D01*
X168047905Y-141082887D01*
X168153214Y-140828650D01*
X168206900Y-140558752D01*
X168206900Y-140283568D01*
X168153214Y-140013670D01*
X168047905Y-139759433D01*
X167895020Y-139530625D01*
X167700435Y-139336040D01*
X167471627Y-139183155D01*
X167217390Y-139077846D01*
X166947492Y-139024160D01*
X166672308Y-139024160D01*
X166402410Y-139077846D01*
X166148173Y-139183155D01*
X165919365Y-139336040D01*
X165724780Y-139530625D01*
X165571895Y-139759433D01*
X165466586Y-140013670D01*
X165412900Y-140283568D01*
X120706900Y-140283568D01*
X120653214Y-140013670D01*
X120547905Y-139759433D01*
X120395020Y-139530625D01*
X120200435Y-139336040D01*
X119971627Y-139183155D01*
X119717390Y-139077846D01*
X119447492Y-139024160D01*
X119172308Y-139024160D01*
X118902410Y-139077846D01*
X118648173Y-139183155D01*
X118419365Y-139336040D01*
X118224780Y-139530625D01*
X118071895Y-139759433D01*
X117966586Y-140013670D01*
X117912900Y-140283568D01*
X117912900Y-140558752D01*
X117966586Y-140828650D01*
X118071895Y-141082887D01*
X118224780Y-141311695D01*
X118259245Y-141346160D01*
X118224780Y-141380625D01*
X118071895Y-141609433D01*
X117966586Y-141863670D01*
X117912900Y-142133568D01*
X117912900Y-142408752D01*
X117966586Y-142678650D01*
X118071895Y-142932887D01*
X118224780Y-143161695D01*
X118259245Y-143196160D01*
X118224780Y-143230625D01*
X118071895Y-143459433D01*
X117966586Y-143713670D01*
X117912900Y-143983568D01*
X117912900Y-144258752D01*
X117966586Y-144528650D01*
X118071895Y-144782887D01*
X118224780Y-145011695D01*
X118419365Y-145206280D01*
X118424932Y-145210000D01*
X115750715Y-145210000D01*
X115750715Y-147958240D01*
X111253880Y-147958240D01*
X111253880Y-144723045D01*
X111603334Y-145072499D01*
X112115490Y-145414711D01*
X112684568Y-145650431D01*
X113288697Y-145770600D01*
X113904663Y-145770600D01*
X114508792Y-145650431D01*
X115077870Y-145414711D01*
X115590026Y-145072499D01*
X116025579Y-144636946D01*
X116367791Y-144124790D01*
X116603511Y-143555712D01*
X116723680Y-142951583D01*
X116723680Y-142335617D01*
X116603511Y-141731488D01*
X116367791Y-141162410D01*
X116025579Y-140650254D01*
X115590026Y-140214701D01*
X115077870Y-139872489D01*
X114508792Y-139636769D01*
X113904663Y-139516600D01*
X113288697Y-139516600D01*
X112684568Y-139636769D01*
X112115490Y-139872489D01*
X111603334Y-140214701D01*
X111253880Y-140564155D01*
X111253880Y-134223421D01*
X171710400Y-134223421D01*
X171710400Y-134427299D01*
X171750174Y-134627258D01*
X171828195Y-134815616D01*
X171941463Y-134985134D01*
X172085626Y-135129297D01*
X172255144Y-135242565D01*
X172443502Y-135320586D01*
X172643461Y-135360360D01*
X172847339Y-135360360D01*
X173047298Y-135320586D01*
X173235656Y-135242565D01*
X173405174Y-135129297D01*
X173549337Y-134985134D01*
X173662605Y-134815616D01*
X173740626Y-134627258D01*
X173780400Y-134427299D01*
X173780400Y-134223421D01*
X173740626Y-134023462D01*
X173662605Y-133835104D01*
X173549337Y-133665586D01*
X173405174Y-133521423D01*
X173235656Y-133408155D01*
X173047298Y-133330134D01*
X172847339Y-133290360D01*
X172643461Y-133290360D01*
X172443502Y-133330134D01*
X172255144Y-133408155D01*
X172085626Y-133521423D01*
X171941463Y-133665586D01*
X171828195Y-133835104D01*
X171750174Y-134023462D01*
X171710400Y-134223421D01*
X111253880Y-134223421D01*
X111253880Y-132135541D01*
X112548720Y-132135541D01*
X112548720Y-132339419D01*
X112588494Y-132539378D01*
X112666515Y-132727736D01*
X112779783Y-132897254D01*
X112923946Y-133041417D01*
X113093464Y-133154685D01*
X113281822Y-133232706D01*
X113481781Y-133272480D01*
X113685659Y-133272480D01*
X113885618Y-133232706D01*
X114073976Y-133154685D01*
X114243494Y-133041417D01*
X114387657Y-132897254D01*
X114500925Y-132727736D01*
X114578946Y-132539378D01*
X114618720Y-132339419D01*
X114618720Y-132135541D01*
X114578946Y-131935582D01*
X114500925Y-131747224D01*
X114387657Y-131577706D01*
X114243494Y-131433543D01*
X114073976Y-131320275D01*
X113885618Y-131242254D01*
X113685659Y-131202480D01*
X113481781Y-131202480D01*
X113281822Y-131242254D01*
X113093464Y-131320275D01*
X112923946Y-131433543D01*
X112779783Y-131577706D01*
X112666515Y-131747224D01*
X112588494Y-131935582D01*
X112548720Y-132135541D01*
X111253880Y-132135541D01*
X111253880Y-129097701D01*
X117130880Y-129097701D01*
X117130880Y-129301579D01*
X117170654Y-129501538D01*
X117248675Y-129689896D01*
X117361943Y-129859414D01*
X117506106Y-130003577D01*
X117675624Y-130116845D01*
X117863982Y-130194866D01*
X118063941Y-130234640D01*
X118267819Y-130234640D01*
X118467778Y-130194866D01*
X118656136Y-130116845D01*
X118825654Y-130003577D01*
X118969817Y-129859414D01*
X119083085Y-129689896D01*
X119161106Y-129501538D01*
X119200880Y-129301579D01*
X119200880Y-129158661D01*
X171405600Y-129158661D01*
X171405600Y-129362539D01*
X171445374Y-129562498D01*
X171523395Y-129750856D01*
X171636663Y-129920374D01*
X171780826Y-130064537D01*
X171950344Y-130177805D01*
X172138702Y-130255826D01*
X172338661Y-130295600D01*
X172542539Y-130295600D01*
X172742498Y-130255826D01*
X172930856Y-130177805D01*
X173100374Y-130064537D01*
X173244537Y-129920374D01*
X173357805Y-129750856D01*
X173435826Y-129562498D01*
X173475600Y-129362539D01*
X173475600Y-129158661D01*
X173435826Y-128958702D01*
X173357805Y-128770344D01*
X173244537Y-128600826D01*
X173100374Y-128456663D01*
X172930856Y-128343395D01*
X172742498Y-128265374D01*
X172542539Y-128225600D01*
X172338661Y-128225600D01*
X172138702Y-128265374D01*
X171950344Y-128343395D01*
X171780826Y-128456663D01*
X171636663Y-128600826D01*
X171523395Y-128770344D01*
X171445374Y-128958702D01*
X171405600Y-129158661D01*
X119200880Y-129158661D01*
X119200880Y-129097701D01*
X119161106Y-128897742D01*
X119083085Y-128709384D01*
X118969817Y-128539866D01*
X118825654Y-128395703D01*
X118656136Y-128282435D01*
X118467778Y-128204414D01*
X118267819Y-128164640D01*
X118063941Y-128164640D01*
X117863982Y-128204414D01*
X117675624Y-128282435D01*
X117506106Y-128395703D01*
X117361943Y-128539866D01*
X117248675Y-128709384D01*
X117170654Y-128897742D01*
X117130880Y-129097701D01*
X111253880Y-129097701D01*
X111253880Y-127832781D01*
X113046560Y-127832781D01*
X113046560Y-128036659D01*
X113086334Y-128236618D01*
X113164355Y-128424976D01*
X113277623Y-128594494D01*
X113421786Y-128738657D01*
X113591304Y-128851925D01*
X113779662Y-128929946D01*
X113979621Y-128969720D01*
X114183499Y-128969720D01*
X114383458Y-128929946D01*
X114571816Y-128851925D01*
X114741334Y-128738657D01*
X114885497Y-128594494D01*
X114998765Y-128424976D01*
X115076786Y-128236618D01*
X115116560Y-128036659D01*
X115116560Y-127832781D01*
X115076786Y-127632822D01*
X114998765Y-127444464D01*
X114885497Y-127274946D01*
X114741334Y-127130783D01*
X114571816Y-127017515D01*
X114383458Y-126939494D01*
X114183499Y-126899720D01*
X113979621Y-126899720D01*
X113779662Y-126939494D01*
X113591304Y-127017515D01*
X113421786Y-127130783D01*
X113277623Y-127274946D01*
X113164355Y-127444464D01*
X113086334Y-127632822D01*
X113046560Y-127832781D01*
X111253880Y-127832781D01*
X111253880Y-123130567D01*
X111842040Y-123130567D01*
X111842040Y-123452633D01*
X111904872Y-123768512D01*
X112028122Y-124066063D01*
X112207053Y-124333852D01*
X112434788Y-124561587D01*
X112702577Y-124740518D01*
X113000128Y-124863768D01*
X113316007Y-124926600D01*
X113638073Y-124926600D01*
X113953952Y-124863768D01*
X114251503Y-124740518D01*
X114519292Y-124561587D01*
X114747027Y-124333852D01*
X114925958Y-124066063D01*
X115049208Y-123768512D01*
X115112040Y-123452633D01*
X115112040Y-123130567D01*
X115049208Y-122814688D01*
X114925958Y-122517137D01*
X114747027Y-122249348D01*
X114519292Y-122021613D01*
X114251503Y-121842682D01*
X113953952Y-121719432D01*
X113638073Y-121656600D01*
X113316007Y-121656600D01*
X113000128Y-121719432D01*
X112702577Y-121842682D01*
X112434788Y-122021613D01*
X112207053Y-122249348D01*
X112028122Y-122517137D01*
X111904872Y-122814688D01*
X111842040Y-123130567D01*
X111253880Y-123130567D01*
X111253880Y-119770821D01*
X113788240Y-119770821D01*
X113788240Y-119974699D01*
X113828014Y-120174658D01*
X113906035Y-120363016D01*
X114019303Y-120532534D01*
X114163466Y-120676697D01*
X114332984Y-120789965D01*
X114521342Y-120867986D01*
X114721301Y-120907760D01*
X114925179Y-120907760D01*
X115125138Y-120867986D01*
X115313496Y-120789965D01*
X115483014Y-120676697D01*
X115627177Y-120532534D01*
X115740445Y-120363016D01*
X115818466Y-120174658D01*
X115858240Y-119974699D01*
X115858240Y-119770821D01*
X115818466Y-119570862D01*
X115740445Y-119382504D01*
X115627177Y-119212986D01*
X115483014Y-119068823D01*
X115313496Y-118955555D01*
X115125138Y-118877534D01*
X114925179Y-118837760D01*
X114721301Y-118837760D01*
X114521342Y-118877534D01*
X114332984Y-118955555D01*
X114163466Y-119068823D01*
X114019303Y-119212986D01*
X113906035Y-119382504D01*
X113828014Y-119570862D01*
X113788240Y-119770821D01*
X111253880Y-119770821D01*
X111253880Y-111428787D01*
X116718840Y-111428787D01*
X116718840Y-111750853D01*
X116781672Y-112066732D01*
X116904922Y-112364283D01*
X117083853Y-112632072D01*
X117311588Y-112859807D01*
X117579377Y-113038738D01*
X117876928Y-113161988D01*
X118192807Y-113224820D01*
X118514873Y-113224820D01*
X118830752Y-113161988D01*
X119128303Y-113038738D01*
X119396092Y-112859807D01*
X119623827Y-112632072D01*
X119802758Y-112364283D01*
X119926008Y-112066732D01*
X119988840Y-111750853D01*
X119988840Y-111428787D01*
X119926008Y-111112908D01*
X119802758Y-110815357D01*
X119623827Y-110547568D01*
X119396092Y-110319833D01*
X119128303Y-110140902D01*
X118830752Y-110017652D01*
X118514873Y-109954820D01*
X118192807Y-109954820D01*
X117876928Y-110017652D01*
X117579377Y-110140902D01*
X117311588Y-110319833D01*
X117083853Y-110547568D01*
X116904922Y-110815357D01*
X116781672Y-111112908D01*
X116718840Y-111428787D01*
X111253880Y-111428787D01*
X111253880Y-105148061D01*
X115465000Y-105148061D01*
X115465000Y-105351939D01*
X115504774Y-105551898D01*
X115582795Y-105740256D01*
X115696063Y-105909774D01*
X115840226Y-106053937D01*
X116009744Y-106167205D01*
X116198102Y-106245226D01*
X116398061Y-106285000D01*
X116601939Y-106285000D01*
X116801898Y-106245226D01*
X116990256Y-106167205D01*
X117159774Y-106053937D01*
X117303937Y-105909774D01*
X117417205Y-105740256D01*
X117495226Y-105551898D01*
X117535000Y-105351939D01*
X117535000Y-105148061D01*
X117495226Y-104948102D01*
X117417205Y-104759744D01*
X117303937Y-104590226D01*
X117159774Y-104446063D01*
X116990256Y-104332795D01*
X116801898Y-104254774D01*
X116601939Y-104215000D01*
X116398061Y-104215000D01*
X116198102Y-104254774D01*
X116009744Y-104332795D01*
X115840226Y-104446063D01*
X115696063Y-104590226D01*
X115582795Y-104759744D01*
X115504774Y-104948102D01*
X115465000Y-105148061D01*
X111253880Y-105148061D01*
X111253880Y-102113282D01*
X119978209Y-102113282D01*
X119978209Y-102336858D01*
X120021826Y-102556137D01*
X120107385Y-102762694D01*
X120231597Y-102948590D01*
X120389689Y-103106682D01*
X120575585Y-103230894D01*
X120782142Y-103316453D01*
X121001421Y-103360070D01*
X121224997Y-103360070D01*
X121444276Y-103316453D01*
X121650833Y-103230894D01*
X121836729Y-103106682D01*
X121994821Y-102948590D01*
X122119033Y-102762694D01*
X122138390Y-102715963D01*
X122138390Y-105506618D01*
X122039000Y-105407228D01*
X121853104Y-105283016D01*
X121646547Y-105197457D01*
X121427268Y-105153840D01*
X121203692Y-105153840D01*
X120984413Y-105197457D01*
X120777856Y-105283016D01*
X120591960Y-105407228D01*
X120433868Y-105565320D01*
X120309656Y-105751216D01*
X120224097Y-105957773D01*
X120180480Y-106177052D01*
X120180480Y-106400628D01*
X120224097Y-106619907D01*
X120309656Y-106826464D01*
X120433868Y-107012360D01*
X120591960Y-107170452D01*
X120777856Y-107294664D01*
X120984413Y-107380223D01*
X121203692Y-107423840D01*
X121427268Y-107423840D01*
X121646547Y-107380223D01*
X121853104Y-107294664D01*
X122039000Y-107170452D01*
X122138389Y-107071063D01*
X122138389Y-122085840D01*
X122134108Y-122129309D01*
X122138389Y-122172778D01*
X122138389Y-122172785D01*
X122151194Y-122302798D01*
X122201800Y-122469621D01*
X122283978Y-122623367D01*
X122394572Y-122758126D01*
X122428345Y-122785843D01*
X125083635Y-125441134D01*
X125111343Y-125474896D01*
X125145105Y-125502604D01*
X125145113Y-125502612D01*
X125246100Y-125585490D01*
X125399846Y-125667668D01*
X125566669Y-125718274D01*
X125740159Y-125735361D01*
X125783635Y-125731079D01*
X140448784Y-125731080D01*
X140389157Y-125875033D01*
X140345540Y-126094312D01*
X140345540Y-126317888D01*
X140389157Y-126537167D01*
X140474716Y-126743724D01*
X140598928Y-126929620D01*
X140757020Y-127087712D01*
X140942916Y-127211924D01*
X141149473Y-127297483D01*
X141368752Y-127341100D01*
X141592328Y-127341100D01*
X141811607Y-127297483D01*
X142018164Y-127211924D01*
X142204060Y-127087712D01*
X142362152Y-126929620D01*
X142486364Y-126743724D01*
X142571923Y-126537167D01*
X142615540Y-126317888D01*
X142615540Y-126094312D01*
X142571923Y-125875033D01*
X142512296Y-125731081D01*
X147410623Y-125731081D01*
X148132105Y-126452564D01*
X148143414Y-126509418D01*
X148221435Y-126697776D01*
X148334703Y-126867294D01*
X148478866Y-127011457D01*
X148648384Y-127124725D01*
X148836742Y-127202746D01*
X149036701Y-127242520D01*
X149240579Y-127242520D01*
X149440538Y-127202746D01*
X149628896Y-127124725D01*
X149798414Y-127011457D01*
X149942577Y-126867294D01*
X150055845Y-126697776D01*
X150133866Y-126509418D01*
X150173640Y-126309459D01*
X150173640Y-126105581D01*
X150133866Y-125905622D01*
X150055845Y-125717264D01*
X149942577Y-125547746D01*
X149798414Y-125403583D01*
X149628896Y-125290315D01*
X149440538Y-125212294D01*
X149383684Y-125200985D01*
X149213769Y-125031070D01*
X150515532Y-125031070D01*
X152221505Y-126737044D01*
X152232814Y-126793898D01*
X152310835Y-126982256D01*
X152424103Y-127151774D01*
X152568266Y-127295937D01*
X152737784Y-127409205D01*
X152926142Y-127487226D01*
X153126101Y-127527000D01*
X153329979Y-127527000D01*
X153529938Y-127487226D01*
X153718296Y-127409205D01*
X153887814Y-127295937D01*
X153946189Y-127237562D01*
X154073824Y-127322845D01*
X154262182Y-127400866D01*
X154462141Y-127440640D01*
X154666019Y-127440640D01*
X154865978Y-127400866D01*
X155049768Y-127324737D01*
X155176184Y-127409205D01*
X155364542Y-127487226D01*
X155564501Y-127527000D01*
X155768379Y-127527000D01*
X155910281Y-127498774D01*
X155927795Y-127541056D01*
X156041063Y-127710574D01*
X156185226Y-127854737D01*
X156354744Y-127968005D01*
X156543102Y-128046026D01*
X156743061Y-128085800D01*
X156946939Y-128085800D01*
X157146898Y-128046026D01*
X157335256Y-127968005D01*
X157392689Y-127929630D01*
X157541606Y-127991314D01*
X157741565Y-128031088D01*
X157945443Y-128031088D01*
X158145402Y-127991314D01*
X158333760Y-127913293D01*
X158468999Y-127822930D01*
X158534064Y-127866405D01*
X158722422Y-127944426D01*
X158922381Y-127984200D01*
X159126259Y-127984200D01*
X159326218Y-127944426D01*
X159471158Y-127884389D01*
X159477066Y-127890297D01*
X159646584Y-128003565D01*
X159834942Y-128081586D01*
X160034901Y-128121360D01*
X160238779Y-128121360D01*
X160438738Y-128081586D01*
X160627096Y-128003565D01*
X160675294Y-127971360D01*
X160969373Y-127971360D01*
X161012842Y-127975641D01*
X161056311Y-127971360D01*
X161056319Y-127971360D01*
X161186332Y-127958555D01*
X161353155Y-127907949D01*
X161506901Y-127825771D01*
X161641659Y-127715177D01*
X161669376Y-127681404D01*
X164383119Y-124967661D01*
X168347440Y-124967661D01*
X168347440Y-125171539D01*
X168387214Y-125371498D01*
X168465235Y-125559856D01*
X168578503Y-125729374D01*
X168722666Y-125873537D01*
X168892184Y-125986805D01*
X169080542Y-126064826D01*
X169280501Y-126104600D01*
X169484379Y-126104600D01*
X169684338Y-126064826D01*
X169872696Y-125986805D01*
X170042214Y-125873537D01*
X170186377Y-125729374D01*
X170299645Y-125559856D01*
X170377666Y-125371498D01*
X170417440Y-125171539D01*
X170417440Y-124967661D01*
X170377666Y-124767702D01*
X170299645Y-124579344D01*
X170186377Y-124409826D01*
X170119372Y-124342821D01*
X172091400Y-124342821D01*
X172091400Y-124546699D01*
X172131174Y-124746658D01*
X172209195Y-124935016D01*
X172322463Y-125104534D01*
X172466626Y-125248697D01*
X172636144Y-125361965D01*
X172824502Y-125439986D01*
X173024461Y-125479760D01*
X173228339Y-125479760D01*
X173428298Y-125439986D01*
X173616656Y-125361965D01*
X173786174Y-125248697D01*
X173930337Y-125104534D01*
X174043605Y-124935016D01*
X174121626Y-124746658D01*
X174161400Y-124546699D01*
X174161400Y-124342821D01*
X174121626Y-124142862D01*
X174043605Y-123954504D01*
X173930337Y-123784986D01*
X173786174Y-123640823D01*
X173616656Y-123527555D01*
X173428298Y-123449534D01*
X173228339Y-123409760D01*
X173024461Y-123409760D01*
X172824502Y-123449534D01*
X172636144Y-123527555D01*
X172466626Y-123640823D01*
X172322463Y-123784986D01*
X172209195Y-123954504D01*
X172131174Y-124142862D01*
X172091400Y-124342821D01*
X170119372Y-124342821D01*
X170042214Y-124265663D01*
X169872696Y-124152395D01*
X169684338Y-124074374D01*
X169484379Y-124034600D01*
X169280501Y-124034600D01*
X169080542Y-124074374D01*
X168892184Y-124152395D01*
X168722666Y-124265663D01*
X168578503Y-124409826D01*
X168465235Y-124579344D01*
X168387214Y-124767702D01*
X168347440Y-124967661D01*
X164383119Y-124967661D01*
X170167950Y-119182831D01*
X170201716Y-119155120D01*
X170312310Y-119020362D01*
X170394488Y-118866616D01*
X170445094Y-118699793D01*
X170457899Y-118569780D01*
X170457899Y-118569772D01*
X170462180Y-118526303D01*
X170458170Y-118485581D01*
X172812760Y-118485581D01*
X172812760Y-118689459D01*
X172852534Y-118889418D01*
X172930555Y-119077776D01*
X173043823Y-119247294D01*
X173187986Y-119391457D01*
X173357504Y-119504725D01*
X173545862Y-119582746D01*
X173745821Y-119622520D01*
X173949699Y-119622520D01*
X174149658Y-119582746D01*
X174338016Y-119504725D01*
X174507534Y-119391457D01*
X174651697Y-119247294D01*
X174764965Y-119077776D01*
X174842986Y-118889418D01*
X174882760Y-118689459D01*
X174882760Y-118485581D01*
X174842986Y-118285622D01*
X174764965Y-118097264D01*
X174651697Y-117927746D01*
X174507534Y-117783583D01*
X174338016Y-117670315D01*
X174149658Y-117592294D01*
X173949699Y-117552520D01*
X173745821Y-117552520D01*
X173545862Y-117592294D01*
X173357504Y-117670315D01*
X173187986Y-117783583D01*
X173043823Y-117927746D01*
X172930555Y-118097264D01*
X172852534Y-118285622D01*
X172812760Y-118485581D01*
X170458170Y-118485581D01*
X170457899Y-118482834D01*
X170457899Y-116852320D01*
X170634688Y-116852320D01*
X170853967Y-116808703D01*
X171060524Y-116723144D01*
X171246420Y-116598932D01*
X171404512Y-116440840D01*
X171528724Y-116254944D01*
X171614283Y-116048387D01*
X171657900Y-115829108D01*
X171657900Y-115605532D01*
X171614283Y-115386253D01*
X171528724Y-115179696D01*
X171404512Y-114993800D01*
X171246420Y-114835708D01*
X171060524Y-114711496D01*
X170853967Y-114625937D01*
X170634688Y-114582320D01*
X170457899Y-114582320D01*
X170457899Y-109616557D01*
X170845936Y-109228520D01*
X170978721Y-109427246D01*
X171171634Y-109620159D01*
X171398477Y-109771731D01*
X171650531Y-109876135D01*
X171918109Y-109929360D01*
X172190931Y-109929360D01*
X172458509Y-109876135D01*
X172710563Y-109771731D01*
X172937406Y-109620159D01*
X173130319Y-109427246D01*
X173281891Y-109200403D01*
X173386295Y-108948349D01*
X173439520Y-108680771D01*
X173439520Y-108407949D01*
X173386295Y-108140371D01*
X173281891Y-107888317D01*
X173130319Y-107661474D01*
X172937406Y-107468561D01*
X172710563Y-107316989D01*
X172607647Y-107274360D01*
X172710563Y-107231731D01*
X172937406Y-107080159D01*
X173130319Y-106887246D01*
X173281891Y-106660403D01*
X173386295Y-106408349D01*
X173439520Y-106140771D01*
X173439520Y-105867949D01*
X173386295Y-105600371D01*
X173281891Y-105348317D01*
X173130319Y-105121474D01*
X172937406Y-104928561D01*
X172710563Y-104776989D01*
X172607647Y-104734360D01*
X172710563Y-104691731D01*
X172937406Y-104540159D01*
X173130319Y-104347246D01*
X173281891Y-104120403D01*
X173386295Y-103868349D01*
X173439520Y-103600771D01*
X173439520Y-103327949D01*
X173386295Y-103060371D01*
X173281891Y-102808317D01*
X173130319Y-102581474D01*
X172937406Y-102388561D01*
X172710563Y-102236989D01*
X172458509Y-102132585D01*
X172190931Y-102079360D01*
X171918109Y-102079360D01*
X171650531Y-102132585D01*
X171398477Y-102236989D01*
X171356201Y-102265237D01*
X171356201Y-98617217D01*
X173528924Y-96444495D01*
X173585778Y-96433186D01*
X173774136Y-96355165D01*
X173943654Y-96241897D01*
X174087817Y-96097734D01*
X174201085Y-95928216D01*
X174279106Y-95739858D01*
X174318880Y-95539899D01*
X174318880Y-95336021D01*
X174279106Y-95136062D01*
X174201085Y-94947704D01*
X174087817Y-94778186D01*
X173943654Y-94634023D01*
X173774136Y-94520755D01*
X173585778Y-94442734D01*
X173385819Y-94402960D01*
X173181941Y-94402960D01*
X172981982Y-94442734D01*
X172793624Y-94520755D01*
X172624106Y-94634023D01*
X172479943Y-94778186D01*
X172366675Y-94947704D01*
X172288654Y-95136062D01*
X172277345Y-95192916D01*
X170517205Y-96953056D01*
X170425137Y-96815266D01*
X170280974Y-96671103D01*
X170111456Y-96557835D01*
X169923098Y-96479814D01*
X169723139Y-96440040D01*
X169519261Y-96440040D01*
X169319302Y-96479814D01*
X169130944Y-96557835D01*
X168961426Y-96671103D01*
X168817263Y-96815266D01*
X168703995Y-96984784D01*
X168625974Y-97173142D01*
X168586200Y-97373101D01*
X168586200Y-97576979D01*
X168625974Y-97776938D01*
X168703995Y-97965296D01*
X168736201Y-98013496D01*
X168736200Y-106635737D01*
X164705159Y-110666779D01*
X164705159Y-101823181D01*
X166462760Y-101823181D01*
X166462760Y-102027059D01*
X166502534Y-102227018D01*
X166580555Y-102415376D01*
X166693823Y-102584894D01*
X166837986Y-102729057D01*
X167007504Y-102842325D01*
X167195862Y-102920346D01*
X167395821Y-102960120D01*
X167599699Y-102960120D01*
X167799658Y-102920346D01*
X167988016Y-102842325D01*
X168157534Y-102729057D01*
X168301697Y-102584894D01*
X168414965Y-102415376D01*
X168492986Y-102227018D01*
X168532760Y-102027059D01*
X168532760Y-101823181D01*
X168492986Y-101623222D01*
X168414965Y-101434864D01*
X168301697Y-101265346D01*
X168157534Y-101121183D01*
X167988016Y-101007915D01*
X167799658Y-100929894D01*
X167599699Y-100890120D01*
X167395821Y-100890120D01*
X167195862Y-100929894D01*
X167007504Y-101007915D01*
X166837986Y-101121183D01*
X166693823Y-101265346D01*
X166580555Y-101434864D01*
X166502534Y-101623222D01*
X166462760Y-101823181D01*
X164705159Y-101823181D01*
X164705159Y-99852141D01*
X165467080Y-99852141D01*
X165467080Y-100056019D01*
X165506854Y-100255978D01*
X165584875Y-100444336D01*
X165698143Y-100613854D01*
X165842306Y-100758017D01*
X166011824Y-100871285D01*
X166200182Y-100949306D01*
X166400141Y-100989080D01*
X166604019Y-100989080D01*
X166803978Y-100949306D01*
X166992336Y-100871285D01*
X167161854Y-100758017D01*
X167306017Y-100613854D01*
X167419285Y-100444336D01*
X167497306Y-100255978D01*
X167537080Y-100056019D01*
X167537080Y-99852141D01*
X167497306Y-99652182D01*
X167419285Y-99463824D01*
X167306017Y-99294306D01*
X167161854Y-99150143D01*
X166992336Y-99036875D01*
X166803978Y-98958854D01*
X166604019Y-98919080D01*
X166400141Y-98919080D01*
X166200182Y-98958854D01*
X166011824Y-99036875D01*
X165842306Y-99150143D01*
X165698143Y-99294306D01*
X165584875Y-99463824D01*
X165506854Y-99652182D01*
X165467080Y-99852141D01*
X164705159Y-99852141D01*
X164705159Y-96494261D01*
X165964920Y-96494261D01*
X165964920Y-96698139D01*
X166004694Y-96898098D01*
X166082715Y-97086456D01*
X166195983Y-97255974D01*
X166340146Y-97400137D01*
X166509664Y-97513405D01*
X166698022Y-97591426D01*
X166897981Y-97631200D01*
X167101859Y-97631200D01*
X167301818Y-97591426D01*
X167490176Y-97513405D01*
X167659694Y-97400137D01*
X167803857Y-97255974D01*
X167917125Y-97086456D01*
X167995146Y-96898098D01*
X168034920Y-96698139D01*
X168034920Y-96494261D01*
X167995146Y-96294302D01*
X167917125Y-96105944D01*
X167803857Y-95936426D01*
X167659694Y-95792263D01*
X167490176Y-95678995D01*
X167301818Y-95600974D01*
X167101859Y-95561200D01*
X166897981Y-95561200D01*
X166698022Y-95600974D01*
X166509664Y-95678995D01*
X166340146Y-95792263D01*
X166195983Y-95936426D01*
X166082715Y-96105944D01*
X166004694Y-96294302D01*
X165964920Y-96494261D01*
X164705159Y-96494261D01*
X164705159Y-88056381D01*
X169170400Y-88056381D01*
X169170400Y-88260259D01*
X169210174Y-88460218D01*
X169288195Y-88648576D01*
X169401463Y-88818094D01*
X169545626Y-88962257D01*
X169715144Y-89075525D01*
X169903502Y-89153546D01*
X170103461Y-89193320D01*
X170307339Y-89193320D01*
X170507298Y-89153546D01*
X170695656Y-89075525D01*
X170865174Y-88962257D01*
X171009337Y-88818094D01*
X171122605Y-88648576D01*
X171200626Y-88460218D01*
X171240400Y-88260259D01*
X171240400Y-88056381D01*
X171200626Y-87856422D01*
X171122605Y-87668064D01*
X171009337Y-87498546D01*
X170865174Y-87354383D01*
X170695656Y-87241115D01*
X170507298Y-87163094D01*
X170307339Y-87123320D01*
X170103461Y-87123320D01*
X169903502Y-87163094D01*
X169715144Y-87241115D01*
X169545626Y-87354383D01*
X169401463Y-87498546D01*
X169288195Y-87668064D01*
X169210174Y-87856422D01*
X169170400Y-88056381D01*
X164705159Y-88056381D01*
X164705159Y-85028150D01*
X164710650Y-84972398D01*
X164688736Y-84749899D01*
X164663241Y-84665856D01*
X164623835Y-84535952D01*
X164518443Y-84338776D01*
X164376608Y-84165950D01*
X164333299Y-84130407D01*
X164205160Y-84002268D01*
X164205160Y-83811367D01*
X164142328Y-83495488D01*
X164019078Y-83197937D01*
X163840147Y-82930148D01*
X163612412Y-82702413D01*
X163344623Y-82523482D01*
X163047072Y-82400232D01*
X162731193Y-82337400D01*
X162409127Y-82337400D01*
X162093248Y-82400232D01*
X161795697Y-82523482D01*
X161527908Y-82702413D01*
X161300173Y-82930148D01*
X161121242Y-83197937D01*
X160997992Y-83495488D01*
X160935160Y-83811367D01*
X160935160Y-84133433D01*
X160997992Y-84449312D01*
X161071227Y-84626117D01*
X160970340Y-84693528D01*
X160812248Y-84851620D01*
X160688036Y-85037516D01*
X160602477Y-85244073D01*
X160558860Y-85463352D01*
X160558860Y-85686928D01*
X160602477Y-85906207D01*
X160688036Y-86112764D01*
X160812248Y-86298660D01*
X160970340Y-86456752D01*
X161156236Y-86580964D01*
X161362793Y-86666523D01*
X161582072Y-86710140D01*
X161805648Y-86710140D01*
X162024927Y-86666523D01*
X162231484Y-86580964D01*
X162417380Y-86456752D01*
X162435159Y-86438973D01*
X162435159Y-94610906D01*
X162241070Y-94530511D01*
X161925191Y-94467679D01*
X161603125Y-94467679D01*
X161287246Y-94530511D01*
X160989695Y-94653761D01*
X160721906Y-94832692D01*
X160494171Y-95060427D01*
X160315240Y-95328216D01*
X160191990Y-95625767D01*
X160129158Y-95941646D01*
X160129158Y-96263712D01*
X160191990Y-96579591D01*
X160315240Y-96877142D01*
X160494171Y-97144931D01*
X160721906Y-97372666D01*
X160989695Y-97551597D01*
X161287246Y-97674847D01*
X161603125Y-97737679D01*
X161925191Y-97737679D01*
X162241070Y-97674847D01*
X162435159Y-97594452D01*
X162435160Y-107414733D01*
X162417992Y-107389040D01*
X162259900Y-107230948D01*
X162074004Y-107106736D01*
X161867447Y-107021177D01*
X161648168Y-106977560D01*
X161424592Y-106977560D01*
X161205313Y-107021177D01*
X160998756Y-107106736D01*
X160812860Y-107230948D01*
X160654768Y-107389040D01*
X160583415Y-107495827D01*
X160500600Y-107371885D01*
X160306015Y-107177300D01*
X160077207Y-107024415D01*
X159999965Y-106992420D01*
X160077207Y-106960425D01*
X160306015Y-106807540D01*
X160500600Y-106612955D01*
X160653485Y-106384147D01*
X160758794Y-106129910D01*
X160812480Y-105860012D01*
X160812480Y-105584828D01*
X160758794Y-105314930D01*
X160653485Y-105060693D01*
X160500600Y-104831885D01*
X160306015Y-104637300D01*
X160077207Y-104484415D01*
X159999965Y-104452420D01*
X160077207Y-104420425D01*
X160306015Y-104267540D01*
X160500600Y-104072955D01*
X160653485Y-103844147D01*
X160758794Y-103589910D01*
X160812480Y-103320012D01*
X160812480Y-103044828D01*
X160758794Y-102774930D01*
X160653485Y-102520693D01*
X160500600Y-102291885D01*
X160306015Y-102097300D01*
X160077207Y-101944415D01*
X159822970Y-101839106D01*
X159553072Y-101785420D01*
X159277888Y-101785420D01*
X159007990Y-101839106D01*
X158753753Y-101944415D01*
X158524945Y-102097300D01*
X158330360Y-102291885D01*
X158177475Y-102520693D01*
X158145480Y-102597935D01*
X158113485Y-102520693D01*
X157960600Y-102291885D01*
X157766015Y-102097300D01*
X157537207Y-101944415D01*
X157282970Y-101839106D01*
X157013072Y-101785420D01*
X156737888Y-101785420D01*
X156500640Y-101832612D01*
X156500640Y-98241670D01*
X156504921Y-98198204D01*
X156500640Y-98154738D01*
X156500640Y-98154728D01*
X156487835Y-98024715D01*
X156437229Y-97857892D01*
X156355051Y-97704146D01*
X156296047Y-97632250D01*
X156272172Y-97603158D01*
X156272170Y-97603156D01*
X156244457Y-97569388D01*
X156210690Y-97541676D01*
X155389488Y-96720475D01*
X155391666Y-96715218D01*
X155395198Y-96697461D01*
X157516880Y-96697461D01*
X157516880Y-96901339D01*
X157556654Y-97101298D01*
X157634675Y-97289656D01*
X157747943Y-97459174D01*
X157892106Y-97603337D01*
X158061624Y-97716605D01*
X158249982Y-97794626D01*
X158449941Y-97834400D01*
X158653819Y-97834400D01*
X158853778Y-97794626D01*
X159042136Y-97716605D01*
X159211654Y-97603337D01*
X159355817Y-97459174D01*
X159469085Y-97289656D01*
X159547106Y-97101298D01*
X159586880Y-96901339D01*
X159586880Y-96697461D01*
X159547106Y-96497502D01*
X159469085Y-96309144D01*
X159355817Y-96139626D01*
X159211654Y-95995463D01*
X159042136Y-95882195D01*
X158853778Y-95804174D01*
X158653819Y-95764400D01*
X158449941Y-95764400D01*
X158249982Y-95804174D01*
X158061624Y-95882195D01*
X157892106Y-95995463D01*
X157747943Y-96139626D01*
X157634675Y-96309144D01*
X157556654Y-96497502D01*
X157516880Y-96697461D01*
X155395198Y-96697461D01*
X155431440Y-96515259D01*
X155431440Y-96311381D01*
X155391666Y-96111422D01*
X155313645Y-95923064D01*
X155200377Y-95753546D01*
X155056214Y-95609383D01*
X154886696Y-95496115D01*
X154698338Y-95418094D01*
X154498379Y-95378320D01*
X154294501Y-95378320D01*
X154094542Y-95418094D01*
X153906184Y-95496115D01*
X153736666Y-95609383D01*
X153592503Y-95753546D01*
X153479235Y-95923064D01*
X153401214Y-96111422D01*
X153361440Y-96311381D01*
X153361440Y-96515259D01*
X153401214Y-96715218D01*
X153479235Y-96903576D01*
X153510046Y-96949688D01*
X153507159Y-96979005D01*
X153511440Y-97022474D01*
X153511440Y-97022482D01*
X153524245Y-97152495D01*
X153574851Y-97319318D01*
X153647925Y-97456030D01*
X153657030Y-97473064D01*
X153739908Y-97574051D01*
X153739911Y-97574054D01*
X153767624Y-97607822D01*
X153801391Y-97635534D01*
X154730640Y-98564784D01*
X154730640Y-101836653D01*
X154473072Y-101785420D01*
X154197888Y-101785420D01*
X153947940Y-101835138D01*
X153947940Y-100391245D01*
X153952221Y-100347779D01*
X153947940Y-100304313D01*
X153947940Y-100304303D01*
X153935135Y-100174290D01*
X153884529Y-100007467D01*
X153802351Y-99853721D01*
X153691757Y-99718963D01*
X153657989Y-99691250D01*
X152604280Y-98637542D01*
X152604280Y-92602981D01*
X153620520Y-92602981D01*
X153620520Y-92806859D01*
X153660294Y-93006818D01*
X153738315Y-93195176D01*
X153851583Y-93364694D01*
X153995746Y-93508857D01*
X154165264Y-93622125D01*
X154353622Y-93700146D01*
X154553581Y-93739920D01*
X154757459Y-93739920D01*
X154957418Y-93700146D01*
X155145776Y-93622125D01*
X155315294Y-93508857D01*
X155459457Y-93364694D01*
X155572725Y-93195176D01*
X155650746Y-93006818D01*
X155690520Y-92806859D01*
X155690520Y-92602981D01*
X155650746Y-92403022D01*
X155572725Y-92214664D01*
X155459457Y-92045146D01*
X155315294Y-91900983D01*
X155145776Y-91787715D01*
X154957418Y-91709694D01*
X154757459Y-91669920D01*
X154553581Y-91669920D01*
X154353622Y-91709694D01*
X154165264Y-91787715D01*
X153995746Y-91900983D01*
X153851583Y-92045146D01*
X153738315Y-92214664D01*
X153660294Y-92403022D01*
X153620520Y-92602981D01*
X152604280Y-92602981D01*
X152604280Y-91470385D01*
X152656805Y-91391776D01*
X152734826Y-91203418D01*
X152774600Y-91003459D01*
X152774600Y-90799581D01*
X152734826Y-90599622D01*
X152656805Y-90411264D01*
X152543537Y-90241746D01*
X152399374Y-90097583D01*
X152229856Y-89984315D01*
X152041498Y-89906294D01*
X151841539Y-89866520D01*
X151637661Y-89866520D01*
X151437702Y-89906294D01*
X151249344Y-89984315D01*
X151079826Y-90097583D01*
X151053024Y-90124385D01*
X151010656Y-90096075D01*
X150822298Y-90018054D01*
X150622339Y-89978280D01*
X150418461Y-89978280D01*
X150218502Y-90018054D01*
X150030144Y-90096075D01*
X149860626Y-90209343D01*
X149716463Y-90353506D01*
X149603195Y-90523024D01*
X149525174Y-90711382D01*
X149485400Y-90911341D01*
X149485400Y-91115219D01*
X149525174Y-91315178D01*
X149603195Y-91503536D01*
X149635400Y-91551734D01*
X149635400Y-91622441D01*
X149635401Y-91622451D01*
X149635401Y-95563147D01*
X149547513Y-95526743D01*
X149328234Y-95483126D01*
X149104658Y-95483126D01*
X148885379Y-95526743D01*
X148870909Y-95532737D01*
X148838058Y-95424445D01*
X148837549Y-95422766D01*
X148755371Y-95269021D01*
X148672492Y-95168033D01*
X148672490Y-95168031D01*
X148644777Y-95134263D01*
X148611010Y-95106551D01*
X147544215Y-94039757D01*
X147532906Y-93982902D01*
X147454885Y-93794544D01*
X147341617Y-93625026D01*
X147197454Y-93480863D01*
X147027936Y-93367595D01*
X146839578Y-93289574D01*
X146639619Y-93249800D01*
X146435741Y-93249800D01*
X146235782Y-93289574D01*
X146047424Y-93367595D01*
X145877906Y-93480863D01*
X145733743Y-93625026D01*
X145620475Y-93794544D01*
X145542454Y-93982902D01*
X145502680Y-94182861D01*
X145502680Y-94386739D01*
X145542454Y-94586698D01*
X145620475Y-94775056D01*
X145733743Y-94944574D01*
X145877906Y-95088737D01*
X146047424Y-95202005D01*
X146235782Y-95280026D01*
X146292637Y-95291335D01*
X147130960Y-96129659D01*
X147130960Y-101842416D01*
X147122970Y-101839106D01*
X146853072Y-101785420D01*
X146577888Y-101785420D01*
X146307990Y-101839106D01*
X146053753Y-101944415D01*
X145824945Y-102097300D01*
X145630360Y-102291885D01*
X145477475Y-102520693D01*
X145445480Y-102597935D01*
X145413485Y-102520693D01*
X145260600Y-102291885D01*
X145066015Y-102097300D01*
X144837207Y-101944415D01*
X144582970Y-101839106D01*
X144313072Y-101785420D01*
X144037888Y-101785420D01*
X143767990Y-101839106D01*
X143513753Y-101944415D01*
X143284945Y-102097300D01*
X143090360Y-102291885D01*
X142937475Y-102520693D01*
X142905480Y-102597935D01*
X142873485Y-102520693D01*
X142720600Y-102291885D01*
X142526015Y-102097300D01*
X142297207Y-101944415D01*
X142042970Y-101839106D01*
X141773072Y-101785420D01*
X141497888Y-101785420D01*
X141227990Y-101839106D01*
X140973753Y-101944415D01*
X140744945Y-102097300D01*
X140550360Y-102291885D01*
X140397475Y-102520693D01*
X140365480Y-102597935D01*
X140333485Y-102520693D01*
X140180600Y-102291885D01*
X139986015Y-102097300D01*
X139757207Y-101944415D01*
X139502970Y-101839106D01*
X139233072Y-101785420D01*
X138957888Y-101785420D01*
X138687990Y-101839106D01*
X138433753Y-101944415D01*
X138204945Y-102097300D01*
X138010360Y-102291885D01*
X137857475Y-102520693D01*
X137825480Y-102597935D01*
X137793485Y-102520693D01*
X137640600Y-102291885D01*
X137446015Y-102097300D01*
X137217207Y-101944415D01*
X136962970Y-101839106D01*
X136693072Y-101785420D01*
X136417888Y-101785420D01*
X136147990Y-101839106D01*
X135893753Y-101944415D01*
X135664945Y-102097300D01*
X135470360Y-102291885D01*
X135317475Y-102520693D01*
X135285480Y-102597935D01*
X135253485Y-102520693D01*
X135100600Y-102291885D01*
X135065476Y-102256761D01*
X135086046Y-102243017D01*
X135230209Y-102098854D01*
X135343477Y-101929336D01*
X135421498Y-101740978D01*
X135461272Y-101541019D01*
X135461272Y-101337141D01*
X135421498Y-101137182D01*
X135343477Y-100948824D01*
X135230209Y-100779306D01*
X135086046Y-100635143D01*
X134916528Y-100521875D01*
X134728170Y-100443854D01*
X134528211Y-100404080D01*
X134324333Y-100404080D01*
X134124374Y-100443854D01*
X133936016Y-100521875D01*
X133766498Y-100635143D01*
X133622335Y-100779306D01*
X133509067Y-100948824D01*
X133431046Y-101137182D01*
X133391272Y-101337141D01*
X133391272Y-101541019D01*
X133431046Y-101740978D01*
X133491653Y-101887295D01*
X133353753Y-101944415D01*
X133124945Y-102097300D01*
X132930360Y-102291885D01*
X132777475Y-102520693D01*
X132745480Y-102597935D01*
X132713485Y-102520693D01*
X132560600Y-102291885D01*
X132366015Y-102097300D01*
X132137207Y-101944415D01*
X131882970Y-101839106D01*
X131613072Y-101785420D01*
X131337888Y-101785420D01*
X131067990Y-101839106D01*
X130813753Y-101944415D01*
X130584945Y-102097300D01*
X130390360Y-102291885D01*
X130237475Y-102520693D01*
X130205480Y-102597935D01*
X130173485Y-102520693D01*
X130020600Y-102291885D01*
X129826015Y-102097300D01*
X129597207Y-101944415D01*
X129342970Y-101839106D01*
X129073072Y-101785420D01*
X128797888Y-101785420D01*
X128527990Y-101839106D01*
X128273753Y-101944415D01*
X128044945Y-102097300D01*
X127850360Y-102291885D01*
X127697475Y-102520693D01*
X127665480Y-102597935D01*
X127633485Y-102520693D01*
X127480600Y-102291885D01*
X127286015Y-102097300D01*
X127057207Y-101944415D01*
X126802970Y-101839106D01*
X126533072Y-101785420D01*
X126257888Y-101785420D01*
X125987990Y-101839106D01*
X125733753Y-101944415D01*
X125504945Y-102097300D01*
X125310360Y-102291885D01*
X125157475Y-102520693D01*
X125052166Y-102774930D01*
X124998480Y-103044828D01*
X124998480Y-103320012D01*
X125052166Y-103589910D01*
X125157475Y-103844147D01*
X125310360Y-104072955D01*
X125504945Y-104267540D01*
X125733753Y-104420425D01*
X125987990Y-104525734D01*
X126257888Y-104579420D01*
X126533072Y-104579420D01*
X126802970Y-104525734D01*
X127057207Y-104420425D01*
X127286015Y-104267540D01*
X127480600Y-104072955D01*
X127633485Y-103844147D01*
X127665480Y-103766905D01*
X127697475Y-103844147D01*
X127850360Y-104072955D01*
X128044945Y-104267540D01*
X128273753Y-104420425D01*
X128527990Y-104525734D01*
X128797888Y-104579420D01*
X129073072Y-104579420D01*
X129342970Y-104525734D01*
X129597207Y-104420425D01*
X129826015Y-104267540D01*
X130020600Y-104072955D01*
X130173485Y-103844147D01*
X130205480Y-103766905D01*
X130237475Y-103844147D01*
X130340480Y-103998305D01*
X130340481Y-109054387D01*
X124908012Y-114486857D01*
X124801717Y-114616378D01*
X124696324Y-114813554D01*
X124631423Y-115027502D01*
X124609509Y-115250000D01*
X124631423Y-115472498D01*
X124696324Y-115686446D01*
X124801717Y-115883622D01*
X124943552Y-116056448D01*
X125116378Y-116198283D01*
X125313554Y-116303676D01*
X125527502Y-116368577D01*
X125750000Y-116390491D01*
X125972498Y-116368577D01*
X126186446Y-116303676D01*
X126383622Y-116198283D01*
X126513143Y-116091988D01*
X127901299Y-114703832D01*
X142684880Y-114703832D01*
X142684880Y-114927408D01*
X142728497Y-115146687D01*
X142814056Y-115353244D01*
X142938268Y-115539140D01*
X143096360Y-115697232D01*
X143282256Y-115821444D01*
X143488813Y-115907003D01*
X143708092Y-115950620D01*
X143931668Y-115950620D01*
X144150947Y-115907003D01*
X144357504Y-115821444D01*
X144543400Y-115697232D01*
X144701492Y-115539140D01*
X144825704Y-115353244D01*
X144911263Y-115146687D01*
X144954880Y-114927408D01*
X144954880Y-114703832D01*
X144911263Y-114484553D01*
X144825704Y-114277996D01*
X144701492Y-114092100D01*
X144543400Y-113934008D01*
X144357504Y-113809796D01*
X144150947Y-113724237D01*
X143931668Y-113680620D01*
X143708092Y-113680620D01*
X143488813Y-113724237D01*
X143282256Y-113809796D01*
X143096360Y-113934008D01*
X142938268Y-114092100D01*
X142814056Y-114277996D01*
X142728497Y-114484553D01*
X142684880Y-114703832D01*
X127901299Y-114703832D01*
X132238621Y-110366511D01*
X132281929Y-110330969D01*
X132423764Y-110158143D01*
X132529156Y-109960967D01*
X132594057Y-109747019D01*
X132610480Y-109580272D01*
X132610480Y-109580263D01*
X132615970Y-109524521D01*
X132610480Y-109468779D01*
X132610480Y-106846852D01*
X132639731Y-106852670D01*
X132843609Y-106852670D01*
X133043568Y-106812896D01*
X133231926Y-106734875D01*
X133401444Y-106621607D01*
X133545607Y-106477444D01*
X133658875Y-106307926D01*
X133736896Y-106119568D01*
X133776670Y-105919609D01*
X133776670Y-105715731D01*
X133736896Y-105515772D01*
X133658875Y-105327414D01*
X133545607Y-105157896D01*
X133401444Y-105013733D01*
X133231926Y-104900465D01*
X133043568Y-104822444D01*
X132843609Y-104782670D01*
X132639731Y-104782670D01*
X132610480Y-104788488D01*
X132610480Y-103998304D01*
X132713485Y-103844147D01*
X132745480Y-103766905D01*
X132777475Y-103844147D01*
X132930360Y-104072955D01*
X133124945Y-104267540D01*
X133353753Y-104420425D01*
X133607990Y-104525734D01*
X133877888Y-104579420D01*
X134153072Y-104579420D01*
X134422970Y-104525734D01*
X134677207Y-104420425D01*
X134906015Y-104267540D01*
X135100600Y-104072955D01*
X135253485Y-103844147D01*
X135285480Y-103766905D01*
X135317475Y-103844147D01*
X135470360Y-104072955D01*
X135664945Y-104267540D01*
X135893753Y-104420425D01*
X136147990Y-104525734D01*
X136417888Y-104579420D01*
X136693072Y-104579420D01*
X136962970Y-104525734D01*
X137217207Y-104420425D01*
X137446015Y-104267540D01*
X137640600Y-104072955D01*
X137793485Y-103844147D01*
X137825480Y-103766905D01*
X137857475Y-103844147D01*
X138010360Y-104072955D01*
X138204945Y-104267540D01*
X138433753Y-104420425D01*
X138687990Y-104525734D01*
X138957888Y-104579420D01*
X139233072Y-104579420D01*
X139502970Y-104525734D01*
X139757207Y-104420425D01*
X139986015Y-104267540D01*
X140180600Y-104072955D01*
X140333485Y-103844147D01*
X140365480Y-103766905D01*
X140397475Y-103844147D01*
X140550360Y-104072955D01*
X140744945Y-104267540D01*
X140973753Y-104420425D01*
X141227990Y-104525734D01*
X141497888Y-104579420D01*
X141773072Y-104579420D01*
X142042970Y-104525734D01*
X142297207Y-104420425D01*
X142526015Y-104267540D01*
X142720600Y-104072955D01*
X142873485Y-103844147D01*
X142905480Y-103766905D01*
X142937475Y-103844147D01*
X143090360Y-104072955D01*
X143284945Y-104267540D01*
X143513753Y-104420425D01*
X143767990Y-104525734D01*
X144037888Y-104579420D01*
X144313072Y-104579420D01*
X144582970Y-104525734D01*
X144837207Y-104420425D01*
X145066015Y-104267540D01*
X145260600Y-104072955D01*
X145413485Y-103844147D01*
X145445480Y-103766905D01*
X145477475Y-103844147D01*
X145630360Y-104072955D01*
X145824945Y-104267540D01*
X146053753Y-104420425D01*
X146307990Y-104525734D01*
X146577888Y-104579420D01*
X146853072Y-104579420D01*
X147122970Y-104525734D01*
X147130960Y-104522424D01*
X147130961Y-113721338D01*
X146939028Y-113683160D01*
X146715452Y-113683160D01*
X146496173Y-113726777D01*
X146289616Y-113812336D01*
X146103720Y-113936548D01*
X145945628Y-114094640D01*
X145821416Y-114280536D01*
X145735857Y-114487093D01*
X145692240Y-114706372D01*
X145692240Y-114929948D01*
X145735857Y-115149227D01*
X145821416Y-115355784D01*
X145945628Y-115541680D01*
X146103720Y-115699772D01*
X146289616Y-115823984D01*
X146496173Y-115909543D01*
X146715452Y-115953160D01*
X146939028Y-115953160D01*
X147130961Y-115914982D01*
X147130961Y-117082416D01*
X147122970Y-117079106D01*
X146853072Y-117025420D01*
X146577888Y-117025420D01*
X146307990Y-117079106D01*
X146053753Y-117184415D01*
X145824945Y-117337300D01*
X145630360Y-117531885D01*
X145477475Y-117760693D01*
X145445480Y-117837935D01*
X145413485Y-117760693D01*
X145260600Y-117531885D01*
X145066015Y-117337300D01*
X144837207Y-117184415D01*
X144582970Y-117079106D01*
X144313072Y-117025420D01*
X144037888Y-117025420D01*
X143767990Y-117079106D01*
X143513753Y-117184415D01*
X143284945Y-117337300D01*
X143090360Y-117531885D01*
X142937475Y-117760693D01*
X142905480Y-117837935D01*
X142873485Y-117760693D01*
X142720600Y-117531885D01*
X142526015Y-117337300D01*
X142297207Y-117184415D01*
X142042970Y-117079106D01*
X141773072Y-117025420D01*
X141497888Y-117025420D01*
X141227990Y-117079106D01*
X140973753Y-117184415D01*
X140744945Y-117337300D01*
X140550360Y-117531885D01*
X140397475Y-117760693D01*
X140365480Y-117837935D01*
X140333485Y-117760693D01*
X140180600Y-117531885D01*
X139986015Y-117337300D01*
X139757207Y-117184415D01*
X139502970Y-117079106D01*
X139233072Y-117025420D01*
X138957888Y-117025420D01*
X138687990Y-117079106D01*
X138433753Y-117184415D01*
X138204945Y-117337300D01*
X138010360Y-117531885D01*
X137857475Y-117760693D01*
X137825480Y-117837935D01*
X137793485Y-117760693D01*
X137640600Y-117531885D01*
X137446015Y-117337300D01*
X137217207Y-117184415D01*
X136962970Y-117079106D01*
X136693072Y-117025420D01*
X136417888Y-117025420D01*
X136147990Y-117079106D01*
X135893753Y-117184415D01*
X135664945Y-117337300D01*
X135470360Y-117531885D01*
X135317475Y-117760693D01*
X135285480Y-117837935D01*
X135253485Y-117760693D01*
X135100600Y-117531885D01*
X134906015Y-117337300D01*
X134677207Y-117184415D01*
X134422970Y-117079106D01*
X134153072Y-117025420D01*
X133877888Y-117025420D01*
X133607990Y-117079106D01*
X133353753Y-117184415D01*
X133124945Y-117337300D01*
X132930360Y-117531885D01*
X132777475Y-117760693D01*
X132745480Y-117837935D01*
X132713485Y-117760693D01*
X132560600Y-117531885D01*
X132366015Y-117337300D01*
X132137207Y-117184415D01*
X131882970Y-117079106D01*
X131613072Y-117025420D01*
X131337888Y-117025420D01*
X131067990Y-117079106D01*
X130813753Y-117184415D01*
X130584945Y-117337300D01*
X130390360Y-117531885D01*
X130237475Y-117760693D01*
X130205480Y-117837935D01*
X130173485Y-117760693D01*
X130020600Y-117531885D01*
X129826015Y-117337300D01*
X129597207Y-117184415D01*
X129342970Y-117079106D01*
X129073072Y-117025420D01*
X128797888Y-117025420D01*
X128527990Y-117079106D01*
X128273753Y-117184415D01*
X128044945Y-117337300D01*
X127850360Y-117531885D01*
X127697475Y-117760693D01*
X127665480Y-117837935D01*
X127633485Y-117760693D01*
X127480600Y-117531885D01*
X127286015Y-117337300D01*
X127057207Y-117184415D01*
X126802970Y-117079106D01*
X126533072Y-117025420D01*
X126257888Y-117025420D01*
X125987990Y-117079106D01*
X125733753Y-117184415D01*
X125504945Y-117337300D01*
X125310360Y-117531885D01*
X125157475Y-117760693D01*
X125052166Y-118014930D01*
X124998480Y-118284828D01*
X124998480Y-118560012D01*
X125052166Y-118829910D01*
X125157475Y-119084147D01*
X125310360Y-119312955D01*
X125504945Y-119507540D01*
X125733753Y-119660425D01*
X125987990Y-119765734D01*
X126257888Y-119819420D01*
X126533072Y-119819420D01*
X126802970Y-119765734D01*
X127057207Y-119660425D01*
X127286015Y-119507540D01*
X127480600Y-119312955D01*
X127633485Y-119084147D01*
X127665480Y-119006905D01*
X127697475Y-119084147D01*
X127850360Y-119312955D01*
X128044945Y-119507540D01*
X128273753Y-119660425D01*
X128527990Y-119765734D01*
X128797888Y-119819420D01*
X129073072Y-119819420D01*
X129342970Y-119765734D01*
X129597207Y-119660425D01*
X129826015Y-119507540D01*
X130020600Y-119312955D01*
X130173485Y-119084147D01*
X130205480Y-119006905D01*
X130237475Y-119084147D01*
X130390360Y-119312955D01*
X130584945Y-119507540D01*
X130813753Y-119660425D01*
X131067990Y-119765734D01*
X131337888Y-119819420D01*
X131613072Y-119819420D01*
X131882970Y-119765734D01*
X132137207Y-119660425D01*
X132366015Y-119507540D01*
X132560600Y-119312955D01*
X132713485Y-119084147D01*
X132745480Y-119006905D01*
X132777475Y-119084147D01*
X132930360Y-119312955D01*
X133124945Y-119507540D01*
X133353753Y-119660425D01*
X133607990Y-119765734D01*
X133877888Y-119819420D01*
X134153072Y-119819420D01*
X134422970Y-119765734D01*
X134677207Y-119660425D01*
X134906015Y-119507540D01*
X135100600Y-119312955D01*
X135253485Y-119084147D01*
X135285480Y-119006905D01*
X135317475Y-119084147D01*
X135470360Y-119312955D01*
X135664945Y-119507540D01*
X135893753Y-119660425D01*
X136147990Y-119765734D01*
X136417888Y-119819420D01*
X136693072Y-119819420D01*
X136962970Y-119765734D01*
X137217207Y-119660425D01*
X137446015Y-119507540D01*
X137640600Y-119312955D01*
X137793485Y-119084147D01*
X137825480Y-119006905D01*
X137857475Y-119084147D01*
X138010360Y-119312955D01*
X138204945Y-119507540D01*
X138433753Y-119660425D01*
X138687990Y-119765734D01*
X138957888Y-119819420D01*
X139233072Y-119819420D01*
X139502970Y-119765734D01*
X139757207Y-119660425D01*
X139986015Y-119507540D01*
X140180600Y-119312955D01*
X140333485Y-119084147D01*
X140365480Y-119006905D01*
X140397475Y-119084147D01*
X140550360Y-119312955D01*
X140744945Y-119507540D01*
X140973753Y-119660425D01*
X141227990Y-119765734D01*
X141497888Y-119819420D01*
X141773072Y-119819420D01*
X142042970Y-119765734D01*
X142297207Y-119660425D01*
X142526015Y-119507540D01*
X142720600Y-119312955D01*
X142873485Y-119084147D01*
X142905480Y-119006905D01*
X142937475Y-119084147D01*
X143090360Y-119312955D01*
X143284945Y-119507540D01*
X143513753Y-119660425D01*
X143767990Y-119765734D01*
X144037888Y-119819420D01*
X144313072Y-119819420D01*
X144582970Y-119765734D01*
X144837207Y-119660425D01*
X145066015Y-119507540D01*
X145260600Y-119312955D01*
X145413485Y-119084147D01*
X145445480Y-119006905D01*
X145477475Y-119084147D01*
X145630360Y-119312955D01*
X145824945Y-119507540D01*
X146053753Y-119660425D01*
X146307990Y-119765734D01*
X146577888Y-119819420D01*
X146853072Y-119819420D01*
X147122970Y-119765734D01*
X147130961Y-119762424D01*
X147130961Y-119814041D01*
X147126679Y-119857520D01*
X147143765Y-120031010D01*
X147194372Y-120197833D01*
X147276550Y-120351579D01*
X147359428Y-120452566D01*
X147359431Y-120452569D01*
X147387144Y-120486337D01*
X147420912Y-120514050D01*
X150167932Y-123261070D01*
X126437969Y-123261070D01*
X124608400Y-121431502D01*
X124608400Y-100423641D01*
X129193340Y-100423641D01*
X129193340Y-100627519D01*
X129233114Y-100827478D01*
X129311135Y-101015836D01*
X129424403Y-101185354D01*
X129568566Y-101329517D01*
X129738084Y-101442785D01*
X129926442Y-101520806D01*
X130126401Y-101560580D01*
X130330279Y-101560580D01*
X130530238Y-101520806D01*
X130718596Y-101442785D01*
X130888114Y-101329517D01*
X131032277Y-101185354D01*
X131145545Y-101015836D01*
X131223566Y-100827478D01*
X131263340Y-100627519D01*
X131263340Y-100423641D01*
X131223566Y-100223682D01*
X131145545Y-100035324D01*
X131032277Y-99865806D01*
X130888114Y-99721643D01*
X130718596Y-99608375D01*
X130530238Y-99530354D01*
X130330279Y-99490580D01*
X130126401Y-99490580D01*
X129926442Y-99530354D01*
X129738084Y-99608375D01*
X129568566Y-99721643D01*
X129424403Y-99865806D01*
X129311135Y-100035324D01*
X129233114Y-100223682D01*
X129193340Y-100423641D01*
X124608400Y-100423641D01*
X124608400Y-98061251D01*
X127814120Y-98061251D01*
X127814120Y-98265129D01*
X127853894Y-98465088D01*
X127931915Y-98653446D01*
X128045183Y-98822964D01*
X128189346Y-98967127D01*
X128358864Y-99080395D01*
X128547222Y-99158416D01*
X128747181Y-99198190D01*
X128951059Y-99198190D01*
X129151018Y-99158416D01*
X129339376Y-99080395D01*
X129508894Y-98967127D01*
X129653057Y-98822964D01*
X129739437Y-98693688D01*
X129812406Y-98766657D01*
X129981924Y-98879925D01*
X130170282Y-98957946D01*
X130370241Y-98997720D01*
X130574119Y-98997720D01*
X130774078Y-98957946D01*
X130962436Y-98879925D01*
X131131954Y-98766657D01*
X131276117Y-98622494D01*
X131389385Y-98452976D01*
X131467406Y-98264618D01*
X131478715Y-98207763D01*
X131535360Y-98151118D01*
X131535360Y-100050626D01*
X131503155Y-100098824D01*
X131425134Y-100287182D01*
X131385360Y-100487141D01*
X131385360Y-100691019D01*
X131425134Y-100890978D01*
X131503155Y-101079336D01*
X131616423Y-101248854D01*
X131760586Y-101393017D01*
X131930104Y-101506285D01*
X132118462Y-101584306D01*
X132318421Y-101624080D01*
X132522299Y-101624080D01*
X132722258Y-101584306D01*
X132910616Y-101506285D01*
X133080134Y-101393017D01*
X133224297Y-101248854D01*
X133337565Y-101079336D01*
X133415586Y-100890978D01*
X133455360Y-100691019D01*
X133455360Y-100487141D01*
X133415586Y-100287182D01*
X133337565Y-100098824D01*
X133305360Y-100050626D01*
X133305360Y-96921292D01*
X137046080Y-96921292D01*
X137046080Y-97144868D01*
X137089697Y-97364147D01*
X137175256Y-97570704D01*
X137299468Y-97756600D01*
X137457560Y-97914692D01*
X137643456Y-98038904D01*
X137850013Y-98124463D01*
X138069292Y-98168080D01*
X138292868Y-98168080D01*
X138512147Y-98124463D01*
X138718704Y-98038904D01*
X138904600Y-97914692D01*
X139062692Y-97756600D01*
X139186904Y-97570704D01*
X139272463Y-97364147D01*
X139316080Y-97144868D01*
X139316080Y-96921292D01*
X139272463Y-96702013D01*
X139186904Y-96495456D01*
X139062692Y-96309560D01*
X138904600Y-96151468D01*
X138718704Y-96027256D01*
X138512147Y-95941697D01*
X138292868Y-95898080D01*
X138069292Y-95898080D01*
X137850013Y-95941697D01*
X137643456Y-96027256D01*
X137457560Y-96151468D01*
X137299468Y-96309560D01*
X137175256Y-96495456D01*
X137089697Y-96702013D01*
X137046080Y-96921292D01*
X133305360Y-96921292D01*
X133305360Y-95711941D01*
X141382800Y-95711941D01*
X141382800Y-95915819D01*
X141422574Y-96115778D01*
X141500595Y-96304136D01*
X141613863Y-96473654D01*
X141758026Y-96617817D01*
X141927544Y-96731085D01*
X142115902Y-96809106D01*
X142315861Y-96848880D01*
X142519739Y-96848880D01*
X142707445Y-96811543D01*
X143074452Y-97178551D01*
X143074452Y-97255299D01*
X143114226Y-97455258D01*
X143192247Y-97643616D01*
X143305515Y-97813134D01*
X143449678Y-97957297D01*
X143619196Y-98070565D01*
X143807554Y-98148586D01*
X144007513Y-98188360D01*
X144020293Y-98188360D01*
X144049347Y-98334427D01*
X144134906Y-98540984D01*
X144259118Y-98726880D01*
X144417210Y-98884972D01*
X144603106Y-99009184D01*
X144809663Y-99094743D01*
X145028942Y-99138360D01*
X145252518Y-99138360D01*
X145471797Y-99094743D01*
X145678354Y-99009184D01*
X145864250Y-98884972D01*
X146022342Y-98726880D01*
X146146554Y-98540984D01*
X146232113Y-98334427D01*
X146275730Y-98115148D01*
X146275730Y-97891572D01*
X146232113Y-97672293D01*
X146146554Y-97465736D01*
X146022342Y-97279840D01*
X145864250Y-97121748D01*
X145678354Y-96997536D01*
X145471797Y-96911977D01*
X145252518Y-96868360D01*
X145108039Y-96868360D01*
X145104678Y-96851462D01*
X145026657Y-96663104D01*
X144913389Y-96493586D01*
X144769226Y-96349423D01*
X144709307Y-96309387D01*
X144704502Y-96305443D01*
X143617894Y-95218836D01*
X143590177Y-95185063D01*
X143455419Y-95074469D01*
X143301673Y-94992291D01*
X143134850Y-94941685D01*
X143004837Y-94928880D01*
X143004829Y-94928880D01*
X142961360Y-94924599D01*
X142951326Y-94925587D01*
X142908056Y-94896675D01*
X142719698Y-94818654D01*
X142519739Y-94778880D01*
X142315861Y-94778880D01*
X142115902Y-94818654D01*
X141927544Y-94896675D01*
X141758026Y-95009943D01*
X141613863Y-95154106D01*
X141500595Y-95323624D01*
X141422574Y-95511982D01*
X141382800Y-95711941D01*
X133305360Y-95711941D01*
X133305360Y-93542247D01*
X133742353Y-93542247D01*
X133742353Y-93864313D01*
X133805185Y-94180192D01*
X133928435Y-94477743D01*
X134107366Y-94745532D01*
X134335101Y-94973267D01*
X134602890Y-95152198D01*
X134900441Y-95275448D01*
X135216320Y-95338280D01*
X135538386Y-95338280D01*
X135854265Y-95275448D01*
X136151816Y-95152198D01*
X136419605Y-94973267D01*
X136647340Y-94745532D01*
X136826271Y-94477743D01*
X136949521Y-94180192D01*
X137012353Y-93864313D01*
X137012353Y-93542247D01*
X136949521Y-93226368D01*
X136826271Y-92928817D01*
X136647340Y-92661028D01*
X136419605Y-92433293D01*
X136151816Y-92254362D01*
X135854265Y-92131112D01*
X135538386Y-92068280D01*
X135216320Y-92068280D01*
X134900441Y-92131112D01*
X134602890Y-92254362D01*
X134335101Y-92433293D01*
X134107366Y-92661028D01*
X133928435Y-92928817D01*
X133805185Y-93226368D01*
X133742353Y-93542247D01*
X133305360Y-93542247D01*
X133305360Y-87756661D01*
X143496080Y-87756661D01*
X143496080Y-87960539D01*
X143535854Y-88160498D01*
X143613875Y-88348856D01*
X143727143Y-88518374D01*
X143871306Y-88662537D01*
X144040824Y-88775805D01*
X144229182Y-88853826D01*
X144429141Y-88893600D01*
X144633019Y-88893600D01*
X144832978Y-88853826D01*
X145021336Y-88775805D01*
X145190854Y-88662537D01*
X145335017Y-88518374D01*
X145448285Y-88348856D01*
X145526306Y-88160498D01*
X145548026Y-88051301D01*
X152447040Y-88051301D01*
X152447040Y-88255179D01*
X152486814Y-88455138D01*
X152564835Y-88643496D01*
X152678103Y-88813014D01*
X152822266Y-88957177D01*
X152991784Y-89070445D01*
X153180142Y-89148466D01*
X153380101Y-89188240D01*
X153583979Y-89188240D01*
X153783938Y-89148466D01*
X153972296Y-89070445D01*
X154141814Y-88957177D01*
X154285977Y-88813014D01*
X154399245Y-88643496D01*
X154477266Y-88455138D01*
X154517040Y-88255179D01*
X154517040Y-88051301D01*
X154477266Y-87851342D01*
X154399245Y-87662984D01*
X154285977Y-87493466D01*
X154141814Y-87349303D01*
X153972296Y-87236035D01*
X153783938Y-87158014D01*
X153583979Y-87118240D01*
X153380101Y-87118240D01*
X153180142Y-87158014D01*
X152991784Y-87236035D01*
X152822266Y-87349303D01*
X152678103Y-87493466D01*
X152564835Y-87662984D01*
X152486814Y-87851342D01*
X152447040Y-88051301D01*
X145548026Y-88051301D01*
X145566080Y-87960539D01*
X145566080Y-87756661D01*
X145526306Y-87556702D01*
X145448285Y-87368344D01*
X145335017Y-87198826D01*
X145190854Y-87054663D01*
X145021336Y-86941395D01*
X144832978Y-86863374D01*
X144633019Y-86823600D01*
X144429141Y-86823600D01*
X144229182Y-86863374D01*
X144040824Y-86941395D01*
X143871306Y-87054663D01*
X143727143Y-87198826D01*
X143613875Y-87368344D01*
X143535854Y-87556702D01*
X143496080Y-87756661D01*
X133305360Y-87756661D01*
X133305360Y-79826781D01*
X171618960Y-79826781D01*
X171618960Y-80030659D01*
X171658734Y-80230618D01*
X171736755Y-80418976D01*
X171850023Y-80588494D01*
X171994186Y-80732657D01*
X172163704Y-80845925D01*
X172352062Y-80923946D01*
X172552021Y-80963720D01*
X172755899Y-80963720D01*
X172955858Y-80923946D01*
X173144216Y-80845925D01*
X173313734Y-80732657D01*
X173457897Y-80588494D01*
X173571165Y-80418976D01*
X173649186Y-80230618D01*
X173688960Y-80030659D01*
X173688960Y-79826781D01*
X173649186Y-79626822D01*
X173571165Y-79438464D01*
X173457897Y-79268946D01*
X173313734Y-79124783D01*
X173144216Y-79011515D01*
X172955858Y-78933494D01*
X172755899Y-78893720D01*
X172552021Y-78893720D01*
X172352062Y-78933494D01*
X172163704Y-79011515D01*
X171994186Y-79124783D01*
X171850023Y-79268946D01*
X171736755Y-79438464D01*
X171658734Y-79626822D01*
X171618960Y-79826781D01*
X133305360Y-79826781D01*
X133305360Y-78648221D01*
X153376680Y-78648221D01*
X153376680Y-78852099D01*
X153416454Y-79052058D01*
X153494475Y-79240416D01*
X153607743Y-79409934D01*
X153751906Y-79554097D01*
X153921424Y-79667365D01*
X154109782Y-79745386D01*
X154309741Y-79785160D01*
X154513619Y-79785160D01*
X154713578Y-79745386D01*
X154901936Y-79667365D01*
X155071454Y-79554097D01*
X155215617Y-79409934D01*
X155328885Y-79240416D01*
X155406906Y-79052058D01*
X155446680Y-78852099D01*
X155446680Y-78648221D01*
X155406906Y-78448262D01*
X155328885Y-78259904D01*
X155215617Y-78090386D01*
X155071454Y-77946223D01*
X154901936Y-77832955D01*
X154713578Y-77754934D01*
X154513619Y-77715160D01*
X154309741Y-77715160D01*
X154109782Y-77754934D01*
X153921424Y-77832955D01*
X153751906Y-77946223D01*
X153607743Y-78090386D01*
X153494475Y-78259904D01*
X153416454Y-78448262D01*
X153376680Y-78648221D01*
X133305360Y-78648221D01*
X133305360Y-78369445D01*
X133309641Y-78325979D01*
X133305360Y-78282513D01*
X133305360Y-78282503D01*
X133292555Y-78152490D01*
X133241949Y-77985667D01*
X133159771Y-77831921D01*
X133109150Y-77770240D01*
X133076892Y-77730933D01*
X133076890Y-77730931D01*
X133049177Y-77697163D01*
X133015409Y-77669450D01*
X132515900Y-77169941D01*
X155495040Y-77169941D01*
X155495040Y-77373819D01*
X155534814Y-77573778D01*
X155612835Y-77762136D01*
X155726103Y-77931654D01*
X155870266Y-78075817D01*
X156039784Y-78189085D01*
X156228142Y-78267106D01*
X156428101Y-78306880D01*
X156631979Y-78306880D01*
X156831938Y-78267106D01*
X157020296Y-78189085D01*
X157189814Y-78075817D01*
X157333977Y-77931654D01*
X157447245Y-77762136D01*
X157525266Y-77573778D01*
X157565040Y-77373819D01*
X157565040Y-77276621D01*
X159066280Y-77276621D01*
X159066280Y-77480499D01*
X159106054Y-77680458D01*
X159184075Y-77868816D01*
X159297343Y-78038334D01*
X159441506Y-78182497D01*
X159611024Y-78295765D01*
X159799382Y-78373786D01*
X159999341Y-78413560D01*
X160203219Y-78413560D01*
X160403178Y-78373786D01*
X160591536Y-78295765D01*
X160761054Y-78182497D01*
X160905217Y-78038334D01*
X161018485Y-77868816D01*
X161021796Y-77860821D01*
X164969240Y-77860821D01*
X164969240Y-78064699D01*
X165009014Y-78264658D01*
X165087035Y-78453016D01*
X165200303Y-78622534D01*
X165344466Y-78766697D01*
X165513984Y-78879965D01*
X165702342Y-78957986D01*
X165902301Y-78997760D01*
X166106179Y-78997760D01*
X166306138Y-78957986D01*
X166494496Y-78879965D01*
X166664014Y-78766697D01*
X166808177Y-78622534D01*
X166921445Y-78453016D01*
X166999466Y-78264658D01*
X167039240Y-78064699D01*
X167039240Y-77860821D01*
X166999466Y-77660862D01*
X166921445Y-77472504D01*
X166808177Y-77302986D01*
X166664014Y-77158823D01*
X166494496Y-77045555D01*
X166306138Y-76967534D01*
X166106179Y-76927760D01*
X165902301Y-76927760D01*
X165702342Y-76967534D01*
X165513984Y-77045555D01*
X165344466Y-77158823D01*
X165200303Y-77302986D01*
X165087035Y-77472504D01*
X165009014Y-77660862D01*
X164969240Y-77860821D01*
X161021796Y-77860821D01*
X161096506Y-77680458D01*
X161136280Y-77480499D01*
X161136280Y-77276621D01*
X161096506Y-77076662D01*
X161018485Y-76888304D01*
X160905217Y-76718786D01*
X160761054Y-76574623D01*
X160591536Y-76461355D01*
X160403178Y-76383334D01*
X160203219Y-76343560D01*
X159999341Y-76343560D01*
X159799382Y-76383334D01*
X159611024Y-76461355D01*
X159441506Y-76574623D01*
X159297343Y-76718786D01*
X159184075Y-76888304D01*
X159106054Y-77076662D01*
X159066280Y-77276621D01*
X157565040Y-77276621D01*
X157565040Y-77169941D01*
X157525266Y-76969982D01*
X157447245Y-76781624D01*
X157333977Y-76612106D01*
X157189814Y-76467943D01*
X157020296Y-76354675D01*
X156831938Y-76276654D01*
X156631979Y-76236880D01*
X156428101Y-76236880D01*
X156228142Y-76276654D01*
X156039784Y-76354675D01*
X155870266Y-76467943D01*
X155726103Y-76612106D01*
X155612835Y-76781624D01*
X155534814Y-76969982D01*
X155495040Y-77169941D01*
X132515900Y-77169941D01*
X130991035Y-75645077D01*
X130979726Y-75588222D01*
X130901705Y-75399864D01*
X130788437Y-75230346D01*
X130644274Y-75086183D01*
X130474756Y-74972915D01*
X130286398Y-74894894D01*
X130086439Y-74855120D01*
X129882561Y-74855120D01*
X129682602Y-74894894D01*
X129494244Y-74972915D01*
X129324726Y-75086183D01*
X129180563Y-75230346D01*
X129067295Y-75399864D01*
X128989274Y-75588222D01*
X128949500Y-75788181D01*
X128949500Y-75992059D01*
X128989274Y-76192018D01*
X129067295Y-76380376D01*
X129180563Y-76549894D01*
X129324726Y-76694057D01*
X129494244Y-76807325D01*
X129682602Y-76885346D01*
X129739457Y-76896655D01*
X131535361Y-78692560D01*
X131535360Y-94705150D01*
X131465946Y-94691343D01*
X131262068Y-94691343D01*
X131062109Y-94731117D01*
X130873751Y-94809138D01*
X130704233Y-94922406D01*
X130560070Y-95066569D01*
X130446802Y-95236087D01*
X130368781Y-95424445D01*
X130329007Y-95624404D01*
X130329007Y-95828282D01*
X130368781Y-96028241D01*
X130446802Y-96216599D01*
X130479007Y-96264798D01*
X130479008Y-96704314D01*
X130227137Y-96956185D01*
X130170282Y-96967494D01*
X129981924Y-97045515D01*
X129812406Y-97158783D01*
X129668243Y-97302946D01*
X129581863Y-97432222D01*
X129508894Y-97359253D01*
X129339376Y-97245985D01*
X129151018Y-97167964D01*
X128951059Y-97128190D01*
X128747181Y-97128190D01*
X128547222Y-97167964D01*
X128358864Y-97245985D01*
X128189346Y-97359253D01*
X128045183Y-97503416D01*
X127931915Y-97672934D01*
X127853894Y-97861292D01*
X127814120Y-98061251D01*
X124608400Y-98061251D01*
X124608400Y-94869818D01*
X126229044Y-93249175D01*
X126285898Y-93237866D01*
X126474256Y-93159845D01*
X126643774Y-93046577D01*
X126787937Y-92902414D01*
X126901205Y-92732896D01*
X126979226Y-92544538D01*
X127019000Y-92344579D01*
X127019000Y-92140701D01*
X126979226Y-91940742D01*
X126901205Y-91752384D01*
X126787937Y-91582866D01*
X126643774Y-91438703D01*
X126474256Y-91325435D01*
X126285898Y-91247414D01*
X126085939Y-91207640D01*
X125882061Y-91207640D01*
X125682102Y-91247414D01*
X125493744Y-91325435D01*
X125324226Y-91438703D01*
X125180063Y-91582866D01*
X125066795Y-91752384D01*
X124988774Y-91940742D01*
X124977465Y-91997596D01*
X123908389Y-93066673D01*
X123908389Y-92349109D01*
X127951164Y-88306335D01*
X128008018Y-88295026D01*
X128196376Y-88217005D01*
X128365894Y-88103737D01*
X128510057Y-87959574D01*
X128623325Y-87790056D01*
X128701346Y-87601698D01*
X128741120Y-87401739D01*
X128741120Y-87197861D01*
X128701346Y-86997902D01*
X128623325Y-86809544D01*
X128510057Y-86640026D01*
X128365894Y-86495863D01*
X128196376Y-86382595D01*
X128008018Y-86304574D01*
X127808059Y-86264800D01*
X127604181Y-86264800D01*
X127404222Y-86304574D01*
X127215864Y-86382595D01*
X127046346Y-86495863D01*
X126902183Y-86640026D01*
X126788915Y-86809544D01*
X126710894Y-86997902D01*
X126699585Y-87054756D01*
X122428340Y-91326001D01*
X122394573Y-91353714D01*
X122366860Y-91387482D01*
X122366857Y-91387485D01*
X122283979Y-91488472D01*
X122201801Y-91642218D01*
X122151194Y-91809041D01*
X122134108Y-91982531D01*
X122138390Y-92026010D01*
X122138390Y-101734177D01*
X122119033Y-101687446D01*
X121994821Y-101501550D01*
X121836729Y-101343458D01*
X121650833Y-101219246D01*
X121444276Y-101133687D01*
X121224997Y-101090070D01*
X121001421Y-101090070D01*
X120782142Y-101133687D01*
X120575585Y-101219246D01*
X120389689Y-101343458D01*
X120231597Y-101501550D01*
X120107385Y-101687446D01*
X120021826Y-101894003D01*
X119978209Y-102113282D01*
X111253880Y-102113282D01*
X111253880Y-92986814D01*
X113132392Y-92986814D01*
X113132392Y-93190692D01*
X113172166Y-93390651D01*
X113250187Y-93579009D01*
X113363455Y-93748527D01*
X113507618Y-93892690D01*
X113677136Y-94005958D01*
X113865494Y-94083979D01*
X114065453Y-94123753D01*
X114269331Y-94123753D01*
X114469290Y-94083979D01*
X114657648Y-94005958D01*
X114827166Y-93892690D01*
X114971329Y-93748527D01*
X115058544Y-93618000D01*
X115143619Y-93618000D01*
X115343578Y-93578226D01*
X115531936Y-93500205D01*
X115701454Y-93386937D01*
X115845617Y-93242774D01*
X115958885Y-93073256D01*
X116036906Y-92884898D01*
X116076680Y-92684939D01*
X116076680Y-92481061D01*
X116036906Y-92281102D01*
X115958885Y-92092744D01*
X115845617Y-91923226D01*
X115701454Y-91779063D01*
X115531936Y-91665795D01*
X115343578Y-91587774D01*
X115143619Y-91548000D01*
X114939741Y-91548000D01*
X114739782Y-91587774D01*
X114551424Y-91665795D01*
X114381906Y-91779063D01*
X114237743Y-91923226D01*
X114150528Y-92053753D01*
X114065453Y-92053753D01*
X113865494Y-92093527D01*
X113677136Y-92171548D01*
X113507618Y-92284816D01*
X113363455Y-92428979D01*
X113250187Y-92598497D01*
X113172166Y-92786855D01*
X113132392Y-92986814D01*
X111253880Y-92986814D01*
X111253880Y-88372631D01*
X120928219Y-88372631D01*
X120928219Y-88596207D01*
X120971836Y-88815486D01*
X121057395Y-89022043D01*
X121181607Y-89207939D01*
X121339699Y-89366031D01*
X121525595Y-89490243D01*
X121732152Y-89575802D01*
X121951431Y-89619419D01*
X122175007Y-89619419D01*
X122394286Y-89575802D01*
X122600843Y-89490243D01*
X122786739Y-89366031D01*
X122944831Y-89207939D01*
X123069043Y-89022043D01*
X123154602Y-88815486D01*
X123198219Y-88596207D01*
X123198219Y-88372631D01*
X123154602Y-88153352D01*
X123069043Y-87946795D01*
X122944831Y-87760899D01*
X122786739Y-87602807D01*
X122600843Y-87478595D01*
X122394286Y-87393036D01*
X122175007Y-87349419D01*
X121951431Y-87349419D01*
X121732152Y-87393036D01*
X121525595Y-87478595D01*
X121339699Y-87602807D01*
X121181607Y-87760899D01*
X121057395Y-87946795D01*
X120971836Y-88153352D01*
X120928219Y-88372631D01*
X111253880Y-88372631D01*
X111253880Y-82826521D01*
X113877140Y-82826521D01*
X113877140Y-83030399D01*
X113916914Y-83230358D01*
X113994935Y-83418716D01*
X114108203Y-83588234D01*
X114252366Y-83732397D01*
X114421884Y-83845665D01*
X114610242Y-83923686D01*
X114810201Y-83963460D01*
X115014079Y-83963460D01*
X115214038Y-83923686D01*
X115402396Y-83845665D01*
X115571914Y-83732397D01*
X115716077Y-83588234D01*
X115829345Y-83418716D01*
X115875997Y-83306090D01*
X115925962Y-83326786D01*
X116125921Y-83366560D01*
X116329799Y-83366560D01*
X116529758Y-83326786D01*
X116718116Y-83248765D01*
X116887634Y-83135497D01*
X117031797Y-82991334D01*
X117145065Y-82821816D01*
X117223086Y-82633458D01*
X117262860Y-82433499D01*
X117262860Y-82229621D01*
X117223086Y-82029662D01*
X117145065Y-81841304D01*
X117031797Y-81671786D01*
X116887634Y-81527623D01*
X116718116Y-81414355D01*
X116529758Y-81336334D01*
X116329799Y-81296560D01*
X116125921Y-81296560D01*
X115925962Y-81336334D01*
X115737604Y-81414355D01*
X115568086Y-81527623D01*
X115423923Y-81671786D01*
X115310655Y-81841304D01*
X115264003Y-81953930D01*
X115214038Y-81933234D01*
X115014079Y-81893460D01*
X114810201Y-81893460D01*
X114610242Y-81933234D01*
X114421884Y-82011255D01*
X114252366Y-82124523D01*
X114108203Y-82268686D01*
X113994935Y-82438204D01*
X113916914Y-82626562D01*
X113877140Y-82826521D01*
X111253880Y-82826521D01*
X111253880Y-80649741D01*
X125330000Y-80649741D01*
X125330000Y-80853619D01*
X125369774Y-81053578D01*
X125447795Y-81241936D01*
X125561063Y-81411454D01*
X125705226Y-81555617D01*
X125874744Y-81668885D01*
X126063102Y-81746906D01*
X126263061Y-81786680D01*
X126466939Y-81786680D01*
X126666898Y-81746906D01*
X126855256Y-81668885D01*
X127024774Y-81555617D01*
X127168937Y-81411454D01*
X127282205Y-81241936D01*
X127360226Y-81053578D01*
X127400000Y-80853619D01*
X127400000Y-80649741D01*
X127360226Y-80449782D01*
X127282205Y-80261424D01*
X127168937Y-80091906D01*
X127024774Y-79947743D01*
X126855256Y-79834475D01*
X126666898Y-79756454D01*
X126466939Y-79716680D01*
X126263061Y-79716680D01*
X126063102Y-79756454D01*
X125874744Y-79834475D01*
X125705226Y-79947743D01*
X125561063Y-80091906D01*
X125447795Y-80261424D01*
X125369774Y-80449782D01*
X125330000Y-80649741D01*
X111253880Y-80649741D01*
X111253880Y-78475501D01*
X124842320Y-78475501D01*
X124842320Y-78679379D01*
X124882094Y-78879338D01*
X124960115Y-79067696D01*
X125073383Y-79237214D01*
X125217546Y-79381377D01*
X125387064Y-79494645D01*
X125575422Y-79572666D01*
X125775381Y-79612440D01*
X125979259Y-79612440D01*
X126179218Y-79572666D01*
X126367576Y-79494645D01*
X126537094Y-79381377D01*
X126681257Y-79237214D01*
X126794525Y-79067696D01*
X126872546Y-78879338D01*
X126912320Y-78679379D01*
X126912320Y-78475501D01*
X126872546Y-78275542D01*
X126794525Y-78087184D01*
X126681257Y-77917666D01*
X126537094Y-77773503D01*
X126367576Y-77660235D01*
X126179218Y-77582214D01*
X125979259Y-77542440D01*
X125775381Y-77542440D01*
X125575422Y-77582214D01*
X125387064Y-77660235D01*
X125217546Y-77773503D01*
X125073383Y-77917666D01*
X124960115Y-78087184D01*
X124882094Y-78275542D01*
X124842320Y-78475501D01*
X111253880Y-78475501D01*
X111253880Y-76722685D01*
X111603334Y-77072139D01*
X112115490Y-77414351D01*
X112684568Y-77650071D01*
X113288697Y-77770240D01*
X113904663Y-77770240D01*
X114508792Y-77650071D01*
X115077870Y-77414351D01*
X115590026Y-77072139D01*
X116025579Y-76636586D01*
X116367791Y-76124430D01*
X116603511Y-75555352D01*
X116723680Y-74951223D01*
X116723680Y-74614701D01*
X153783080Y-74614701D01*
X153783080Y-74818579D01*
X153822854Y-75018538D01*
X153900875Y-75206896D01*
X154014143Y-75376414D01*
X154158306Y-75520577D01*
X154327824Y-75633845D01*
X154516182Y-75711866D01*
X154716141Y-75751640D01*
X154920019Y-75751640D01*
X155119978Y-75711866D01*
X155308336Y-75633845D01*
X155477854Y-75520577D01*
X155622017Y-75376414D01*
X155735285Y-75206896D01*
X155813306Y-75018538D01*
X155853080Y-74818579D01*
X155853080Y-74665501D01*
X163465560Y-74665501D01*
X163465560Y-74869379D01*
X163505334Y-75069338D01*
X163583355Y-75257696D01*
X163696623Y-75427214D01*
X163840786Y-75571377D01*
X164010304Y-75684645D01*
X164198662Y-75762666D01*
X164398621Y-75802440D01*
X164602499Y-75802440D01*
X164802458Y-75762666D01*
X164990816Y-75684645D01*
X165160334Y-75571377D01*
X165304497Y-75427214D01*
X165417765Y-75257696D01*
X165495786Y-75069338D01*
X165535560Y-74869379D01*
X165535560Y-74665501D01*
X165495786Y-74465542D01*
X165417765Y-74277184D01*
X165304497Y-74107666D01*
X165160334Y-73963503D01*
X164990816Y-73850235D01*
X164802458Y-73772214D01*
X164602499Y-73732440D01*
X164398621Y-73732440D01*
X164198662Y-73772214D01*
X164010304Y-73850235D01*
X163840786Y-73963503D01*
X163696623Y-74107666D01*
X163583355Y-74277184D01*
X163505334Y-74465542D01*
X163465560Y-74665501D01*
X155853080Y-74665501D01*
X155853080Y-74614701D01*
X155813306Y-74414742D01*
X155735285Y-74226384D01*
X155622017Y-74056866D01*
X155477854Y-73912703D01*
X155308336Y-73799435D01*
X155119978Y-73721414D01*
X154920019Y-73681640D01*
X154716141Y-73681640D01*
X154516182Y-73721414D01*
X154327824Y-73799435D01*
X154158306Y-73912703D01*
X154014143Y-74056866D01*
X153900875Y-74226384D01*
X153822854Y-74414742D01*
X153783080Y-74614701D01*
X116723680Y-74614701D01*
X116723680Y-74335257D01*
X116603511Y-73731128D01*
X116449761Y-73359941D01*
X130501440Y-73359941D01*
X130501440Y-73563819D01*
X130541214Y-73763778D01*
X130619235Y-73952136D01*
X130732503Y-74121654D01*
X130876666Y-74265817D01*
X131046184Y-74379085D01*
X131234542Y-74457106D01*
X131434501Y-74496880D01*
X131638379Y-74496880D01*
X131838338Y-74457106D01*
X132026696Y-74379085D01*
X132196214Y-74265817D01*
X132340377Y-74121654D01*
X132453645Y-73952136D01*
X132531666Y-73763778D01*
X132571440Y-73563819D01*
X132571440Y-73359941D01*
X132531666Y-73159982D01*
X132453645Y-72971624D01*
X132340377Y-72802106D01*
X132196214Y-72657943D01*
X132026696Y-72544675D01*
X131838338Y-72466654D01*
X131638379Y-72426880D01*
X131434501Y-72426880D01*
X131234542Y-72466654D01*
X131046184Y-72544675D01*
X130876666Y-72657943D01*
X130732503Y-72802106D01*
X130619235Y-72971624D01*
X130541214Y-73159982D01*
X130501440Y-73359941D01*
X116449761Y-73359941D01*
X116367791Y-73162050D01*
X116025579Y-72649894D01*
X115703925Y-72328240D01*
X170472845Y-72328240D01*
X170151191Y-72649894D01*
M02*
