G04 #@! TF.GenerationSoftware,KiCad,Pcbnew,(5.1.4)-1*
G04 #@! TF.CreationDate,2020-01-13T16:59:02+01:00*
G04 #@! TF.ProjectId,teensy4_header_breakout,7465656e-7379-4345-9f68-65616465725f,rev?*
G04 #@! TF.SameCoordinates,Original*
G04 #@! TF.FileFunction,Soldermask,Bot*
G04 #@! TF.FilePolarity,Negative*
%FSLAX46Y46*%
G04 Gerber Fmt 4.6, Leading zero omitted, Abs format (unit mm)*
G04 Created by KiCad (PCBNEW (5.1.4)-1) date 2020-01-13 16:59:02*
%MOMM*%
%LPD*%
G04 APERTURE LIST*
%ADD10C,0.100000*%
G04 APERTURE END LIST*
D10*
G36*
X173309312Y-140239673D02*
G01*
X173764282Y-140428128D01*
X173764284Y-140428129D01*
X173970405Y-140565855D01*
X174173746Y-140701723D01*
X174521967Y-141049944D01*
X174650446Y-141242227D01*
X174766295Y-141415606D01*
X174795562Y-141459408D01*
X174984017Y-141914378D01*
X175080090Y-142397370D01*
X175080090Y-142889830D01*
X174984017Y-143372822D01*
X174833519Y-143736155D01*
X174795561Y-143827794D01*
X174521966Y-144237257D01*
X174173747Y-144585476D01*
X173764284Y-144859071D01*
X173764283Y-144859072D01*
X173764282Y-144859072D01*
X173309312Y-145047527D01*
X172826320Y-145143600D01*
X172333860Y-145143600D01*
X171850868Y-145047527D01*
X171395898Y-144859072D01*
X171395897Y-144859072D01*
X171395896Y-144859071D01*
X170986433Y-144585476D01*
X170638214Y-144237257D01*
X170364619Y-143827794D01*
X170326661Y-143736155D01*
X170176163Y-143372822D01*
X170080090Y-142889830D01*
X170080090Y-142397370D01*
X170176163Y-141914378D01*
X170364618Y-141459408D01*
X170393886Y-141415606D01*
X170509734Y-141242227D01*
X170638213Y-141049944D01*
X170986434Y-140701723D01*
X171189775Y-140565855D01*
X171395896Y-140428129D01*
X171395898Y-140428128D01*
X171850868Y-140239673D01*
X172333860Y-140143600D01*
X172826320Y-140143600D01*
X173309312Y-140239673D01*
X173309312Y-140239673D01*
G37*
G36*
X114325902Y-140239673D02*
G01*
X114780872Y-140428128D01*
X114780874Y-140428129D01*
X114986995Y-140565855D01*
X115190336Y-140701723D01*
X115538557Y-141049944D01*
X115667036Y-141242227D01*
X115782885Y-141415606D01*
X115812152Y-141459408D01*
X116000607Y-141914378D01*
X116096680Y-142397370D01*
X116096680Y-142889830D01*
X116000607Y-143372822D01*
X115850109Y-143736155D01*
X115812151Y-143827794D01*
X115538556Y-144237257D01*
X115190337Y-144585476D01*
X114780874Y-144859071D01*
X114780873Y-144859072D01*
X114780872Y-144859072D01*
X114325902Y-145047527D01*
X113842910Y-145143600D01*
X113350450Y-145143600D01*
X112867458Y-145047527D01*
X112412488Y-144859072D01*
X112412487Y-144859072D01*
X112412486Y-144859071D01*
X112003023Y-144585476D01*
X111654804Y-144237257D01*
X111381209Y-143827794D01*
X111343251Y-143736155D01*
X111192753Y-143372822D01*
X111096680Y-142889830D01*
X111096680Y-142397370D01*
X111192753Y-141914378D01*
X111381208Y-141459408D01*
X111410476Y-141415606D01*
X111526324Y-141242227D01*
X111654803Y-141049944D01*
X112003024Y-140701723D01*
X112206365Y-140565855D01*
X112412486Y-140428129D01*
X112412488Y-140428128D01*
X112867458Y-140239673D01*
X113350450Y-140143600D01*
X113842910Y-140143600D01*
X114325902Y-140239673D01*
X114325902Y-140239673D01*
G37*
G36*
X119546985Y-139639595D02*
G01*
X119694904Y-139700865D01*
X119694905Y-139700866D01*
X119828030Y-139789817D01*
X119941243Y-139903030D01*
X119941244Y-139903032D01*
X120030195Y-140036156D01*
X120091465Y-140184075D01*
X120122700Y-140341105D01*
X120122700Y-140501215D01*
X120091465Y-140658245D01*
X120030195Y-140806164D01*
X120030194Y-140806165D01*
X119941243Y-140939290D01*
X119828030Y-141052503D01*
X119761015Y-141097281D01*
X119694904Y-141141455D01*
X119546985Y-141202725D01*
X119442224Y-141223563D01*
X119418775Y-141230676D01*
X119397164Y-141242227D01*
X119378222Y-141257772D01*
X119362677Y-141276714D01*
X119351126Y-141298325D01*
X119344013Y-141321774D01*
X119341611Y-141346160D01*
X119344013Y-141370546D01*
X119351126Y-141393995D01*
X119362677Y-141415606D01*
X119378222Y-141434548D01*
X119397164Y-141450093D01*
X119418775Y-141461644D01*
X119442224Y-141468757D01*
X119546985Y-141489595D01*
X119694904Y-141550865D01*
X119694905Y-141550866D01*
X119828030Y-141639817D01*
X119941243Y-141753030D01*
X119941244Y-141753032D01*
X120030195Y-141886156D01*
X120091465Y-142034075D01*
X120122700Y-142191105D01*
X120122700Y-142351215D01*
X120091465Y-142508245D01*
X120030195Y-142656164D01*
X120030194Y-142656165D01*
X119941243Y-142789290D01*
X119828030Y-142902503D01*
X119761015Y-142947281D01*
X119694904Y-142991455D01*
X119546985Y-143052725D01*
X119442224Y-143073563D01*
X119418775Y-143080676D01*
X119397164Y-143092227D01*
X119378222Y-143107772D01*
X119362677Y-143126714D01*
X119351126Y-143148325D01*
X119344013Y-143171774D01*
X119341611Y-143196160D01*
X119344013Y-143220546D01*
X119351126Y-143243995D01*
X119362677Y-143265606D01*
X119378222Y-143284548D01*
X119397164Y-143300093D01*
X119418775Y-143311644D01*
X119442224Y-143318757D01*
X119546985Y-143339595D01*
X119694904Y-143400865D01*
X119694905Y-143400866D01*
X119828030Y-143489817D01*
X119941243Y-143603030D01*
X119941244Y-143603032D01*
X120030195Y-143736156D01*
X120091465Y-143884075D01*
X120122700Y-144041105D01*
X120122700Y-144201215D01*
X120091465Y-144358245D01*
X120030195Y-144506164D01*
X120030194Y-144506165D01*
X119941243Y-144639290D01*
X119828030Y-144752503D01*
X119761015Y-144797281D01*
X119694904Y-144841455D01*
X119546985Y-144902725D01*
X119389955Y-144933960D01*
X119229845Y-144933960D01*
X119072815Y-144902725D01*
X118924896Y-144841455D01*
X118858785Y-144797281D01*
X118791770Y-144752503D01*
X118678557Y-144639290D01*
X118589606Y-144506165D01*
X118589605Y-144506164D01*
X118528335Y-144358245D01*
X118497100Y-144201215D01*
X118497100Y-144041105D01*
X118528335Y-143884075D01*
X118589605Y-143736156D01*
X118678556Y-143603032D01*
X118678557Y-143603030D01*
X118791770Y-143489817D01*
X118924895Y-143400866D01*
X118924896Y-143400865D01*
X119072815Y-143339595D01*
X119177576Y-143318757D01*
X119201025Y-143311644D01*
X119222636Y-143300093D01*
X119241578Y-143284548D01*
X119257123Y-143265606D01*
X119268674Y-143243995D01*
X119275787Y-143220546D01*
X119278189Y-143196160D01*
X119275787Y-143171774D01*
X119268674Y-143148325D01*
X119257123Y-143126714D01*
X119241578Y-143107772D01*
X119222636Y-143092227D01*
X119201025Y-143080676D01*
X119177576Y-143073563D01*
X119072815Y-143052725D01*
X118924896Y-142991455D01*
X118858785Y-142947281D01*
X118791770Y-142902503D01*
X118678557Y-142789290D01*
X118589606Y-142656165D01*
X118589605Y-142656164D01*
X118528335Y-142508245D01*
X118497100Y-142351215D01*
X118497100Y-142191105D01*
X118528335Y-142034075D01*
X118589605Y-141886156D01*
X118678556Y-141753032D01*
X118678557Y-141753030D01*
X118791770Y-141639817D01*
X118924895Y-141550866D01*
X118924896Y-141550865D01*
X119072815Y-141489595D01*
X119177576Y-141468757D01*
X119201025Y-141461644D01*
X119222636Y-141450093D01*
X119241578Y-141434548D01*
X119257123Y-141415606D01*
X119268674Y-141393995D01*
X119275787Y-141370546D01*
X119278189Y-141346160D01*
X119275787Y-141321774D01*
X119268674Y-141298325D01*
X119257123Y-141276714D01*
X119241578Y-141257772D01*
X119222636Y-141242227D01*
X119201025Y-141230676D01*
X119177576Y-141223563D01*
X119072815Y-141202725D01*
X118924896Y-141141455D01*
X118858785Y-141097281D01*
X118791770Y-141052503D01*
X118678557Y-140939290D01*
X118589606Y-140806165D01*
X118589605Y-140806164D01*
X118528335Y-140658245D01*
X118497100Y-140501215D01*
X118497100Y-140341105D01*
X118528335Y-140184075D01*
X118589605Y-140036156D01*
X118678556Y-139903032D01*
X118678557Y-139903030D01*
X118791770Y-139789817D01*
X118924895Y-139700866D01*
X118924896Y-139700865D01*
X119072815Y-139639595D01*
X119229845Y-139608360D01*
X119389955Y-139608360D01*
X119546985Y-139639595D01*
X119546985Y-139639595D01*
G37*
G36*
X167046985Y-139639595D02*
G01*
X167194904Y-139700865D01*
X167194905Y-139700866D01*
X167328030Y-139789817D01*
X167441243Y-139903030D01*
X167441244Y-139903032D01*
X167530195Y-140036156D01*
X167591465Y-140184075D01*
X167622700Y-140341105D01*
X167622700Y-140501215D01*
X167591465Y-140658245D01*
X167530195Y-140806164D01*
X167530194Y-140806165D01*
X167441243Y-140939290D01*
X167328030Y-141052503D01*
X167261015Y-141097281D01*
X167194904Y-141141455D01*
X167046985Y-141202725D01*
X166942224Y-141223563D01*
X166918775Y-141230676D01*
X166897164Y-141242227D01*
X166878222Y-141257772D01*
X166862677Y-141276714D01*
X166851126Y-141298325D01*
X166844013Y-141321774D01*
X166841611Y-141346160D01*
X166844013Y-141370546D01*
X166851126Y-141393995D01*
X166862677Y-141415606D01*
X166878222Y-141434548D01*
X166897164Y-141450093D01*
X166918775Y-141461644D01*
X166942224Y-141468757D01*
X167046985Y-141489595D01*
X167194904Y-141550865D01*
X167194905Y-141550866D01*
X167328030Y-141639817D01*
X167441243Y-141753030D01*
X167441244Y-141753032D01*
X167530195Y-141886156D01*
X167591465Y-142034075D01*
X167622700Y-142191105D01*
X167622700Y-142351215D01*
X167591465Y-142508245D01*
X167530195Y-142656164D01*
X167530194Y-142656165D01*
X167441243Y-142789290D01*
X167328030Y-142902503D01*
X167261015Y-142947281D01*
X167194904Y-142991455D01*
X167046985Y-143052725D01*
X166942224Y-143073563D01*
X166918775Y-143080676D01*
X166897164Y-143092227D01*
X166878222Y-143107772D01*
X166862677Y-143126714D01*
X166851126Y-143148325D01*
X166844013Y-143171774D01*
X166841611Y-143196160D01*
X166844013Y-143220546D01*
X166851126Y-143243995D01*
X166862677Y-143265606D01*
X166878222Y-143284548D01*
X166897164Y-143300093D01*
X166918775Y-143311644D01*
X166942224Y-143318757D01*
X167046985Y-143339595D01*
X167194904Y-143400865D01*
X167194905Y-143400866D01*
X167328030Y-143489817D01*
X167441243Y-143603030D01*
X167441244Y-143603032D01*
X167530195Y-143736156D01*
X167591465Y-143884075D01*
X167622700Y-144041105D01*
X167622700Y-144201215D01*
X167591465Y-144358245D01*
X167530195Y-144506164D01*
X167530194Y-144506165D01*
X167441243Y-144639290D01*
X167328030Y-144752503D01*
X167261015Y-144797281D01*
X167194904Y-144841455D01*
X167046985Y-144902725D01*
X166889955Y-144933960D01*
X166729845Y-144933960D01*
X166572815Y-144902725D01*
X166424896Y-144841455D01*
X166358785Y-144797281D01*
X166291770Y-144752503D01*
X166178557Y-144639290D01*
X166089606Y-144506165D01*
X166089605Y-144506164D01*
X166028335Y-144358245D01*
X165997100Y-144201215D01*
X165997100Y-144041105D01*
X166028335Y-143884075D01*
X166089605Y-143736156D01*
X166178556Y-143603032D01*
X166178557Y-143603030D01*
X166291770Y-143489817D01*
X166424895Y-143400866D01*
X166424896Y-143400865D01*
X166572815Y-143339595D01*
X166677576Y-143318757D01*
X166701025Y-143311644D01*
X166722636Y-143300093D01*
X166741578Y-143284548D01*
X166757123Y-143265606D01*
X166768674Y-143243995D01*
X166775787Y-143220546D01*
X166778189Y-143196160D01*
X166775787Y-143171774D01*
X166768674Y-143148325D01*
X166757123Y-143126714D01*
X166741578Y-143107772D01*
X166722636Y-143092227D01*
X166701025Y-143080676D01*
X166677576Y-143073563D01*
X166572815Y-143052725D01*
X166424896Y-142991455D01*
X166358785Y-142947281D01*
X166291770Y-142902503D01*
X166178557Y-142789290D01*
X166089606Y-142656165D01*
X166089605Y-142656164D01*
X166028335Y-142508245D01*
X165997100Y-142351215D01*
X165997100Y-142191105D01*
X166028335Y-142034075D01*
X166089605Y-141886156D01*
X166178556Y-141753032D01*
X166178557Y-141753030D01*
X166291770Y-141639817D01*
X166424895Y-141550866D01*
X166424896Y-141550865D01*
X166572815Y-141489595D01*
X166677576Y-141468757D01*
X166701025Y-141461644D01*
X166722636Y-141450093D01*
X166741578Y-141434548D01*
X166757123Y-141415606D01*
X166768674Y-141393995D01*
X166775787Y-141370546D01*
X166778189Y-141346160D01*
X166775787Y-141321774D01*
X166768674Y-141298325D01*
X166757123Y-141276714D01*
X166741578Y-141257772D01*
X166722636Y-141242227D01*
X166701025Y-141230676D01*
X166677576Y-141223563D01*
X166572815Y-141202725D01*
X166424896Y-141141455D01*
X166358785Y-141097281D01*
X166291770Y-141052503D01*
X166178557Y-140939290D01*
X166089606Y-140806165D01*
X166089605Y-140806164D01*
X166028335Y-140658245D01*
X165997100Y-140501215D01*
X165997100Y-140341105D01*
X166028335Y-140184075D01*
X166089605Y-140036156D01*
X166178556Y-139903032D01*
X166178557Y-139903030D01*
X166291770Y-139789817D01*
X166424895Y-139700866D01*
X166424896Y-139700865D01*
X166572815Y-139639595D01*
X166729845Y-139608360D01*
X166889955Y-139608360D01*
X167046985Y-139639595D01*
X167046985Y-139639595D01*
G37*
G36*
X144412565Y-117640855D02*
G01*
X144560484Y-117702125D01*
X144560485Y-117702126D01*
X144693610Y-117791077D01*
X144806823Y-117904290D01*
X144806824Y-117904292D01*
X144895775Y-118037416D01*
X144957045Y-118185335D01*
X144988280Y-118342365D01*
X144988280Y-118502475D01*
X144957045Y-118659505D01*
X144895775Y-118807424D01*
X144895774Y-118807425D01*
X144806823Y-118940550D01*
X144693610Y-119053763D01*
X144626595Y-119098541D01*
X144560484Y-119142715D01*
X144412565Y-119203985D01*
X144255535Y-119235220D01*
X144095425Y-119235220D01*
X143938395Y-119203985D01*
X143790476Y-119142715D01*
X143724365Y-119098541D01*
X143657350Y-119053763D01*
X143544137Y-118940550D01*
X143455186Y-118807425D01*
X143455185Y-118807424D01*
X143393915Y-118659505D01*
X143362680Y-118502475D01*
X143362680Y-118342365D01*
X143393915Y-118185335D01*
X143455185Y-118037416D01*
X143544136Y-117904292D01*
X143544137Y-117904290D01*
X143657350Y-117791077D01*
X143790475Y-117702126D01*
X143790476Y-117702125D01*
X143938395Y-117640855D01*
X144095425Y-117609620D01*
X144255535Y-117609620D01*
X144412565Y-117640855D01*
X144412565Y-117640855D01*
G37*
G36*
X141872565Y-117640855D02*
G01*
X142020484Y-117702125D01*
X142020485Y-117702126D01*
X142153610Y-117791077D01*
X142266823Y-117904290D01*
X142266824Y-117904292D01*
X142355775Y-118037416D01*
X142417045Y-118185335D01*
X142448280Y-118342365D01*
X142448280Y-118502475D01*
X142417045Y-118659505D01*
X142355775Y-118807424D01*
X142355774Y-118807425D01*
X142266823Y-118940550D01*
X142153610Y-119053763D01*
X142086595Y-119098541D01*
X142020484Y-119142715D01*
X141872565Y-119203985D01*
X141715535Y-119235220D01*
X141555425Y-119235220D01*
X141398395Y-119203985D01*
X141250476Y-119142715D01*
X141184365Y-119098541D01*
X141117350Y-119053763D01*
X141004137Y-118940550D01*
X140915186Y-118807425D01*
X140915185Y-118807424D01*
X140853915Y-118659505D01*
X140822680Y-118502475D01*
X140822680Y-118342365D01*
X140853915Y-118185335D01*
X140915185Y-118037416D01*
X141004136Y-117904292D01*
X141004137Y-117904290D01*
X141117350Y-117791077D01*
X141250475Y-117702126D01*
X141250476Y-117702125D01*
X141398395Y-117640855D01*
X141555425Y-117609620D01*
X141715535Y-117609620D01*
X141872565Y-117640855D01*
X141872565Y-117640855D01*
G37*
G36*
X152032565Y-117640855D02*
G01*
X152180484Y-117702125D01*
X152180485Y-117702126D01*
X152313610Y-117791077D01*
X152426823Y-117904290D01*
X152426824Y-117904292D01*
X152515775Y-118037416D01*
X152577045Y-118185335D01*
X152608280Y-118342365D01*
X152608280Y-118502475D01*
X152577045Y-118659505D01*
X152515775Y-118807424D01*
X152515774Y-118807425D01*
X152426823Y-118940550D01*
X152313610Y-119053763D01*
X152246595Y-119098541D01*
X152180484Y-119142715D01*
X152032565Y-119203985D01*
X151875535Y-119235220D01*
X151715425Y-119235220D01*
X151558395Y-119203985D01*
X151410476Y-119142715D01*
X151344365Y-119098541D01*
X151277350Y-119053763D01*
X151164137Y-118940550D01*
X151075186Y-118807425D01*
X151075185Y-118807424D01*
X151013915Y-118659505D01*
X150982680Y-118502475D01*
X150982680Y-118342365D01*
X151013915Y-118185335D01*
X151075185Y-118037416D01*
X151164136Y-117904292D01*
X151164137Y-117904290D01*
X151277350Y-117791077D01*
X151410475Y-117702126D01*
X151410476Y-117702125D01*
X151558395Y-117640855D01*
X151715425Y-117609620D01*
X151875535Y-117609620D01*
X152032565Y-117640855D01*
X152032565Y-117640855D01*
G37*
G36*
X149492565Y-117640855D02*
G01*
X149640484Y-117702125D01*
X149640485Y-117702126D01*
X149773610Y-117791077D01*
X149886823Y-117904290D01*
X149886824Y-117904292D01*
X149975775Y-118037416D01*
X150037045Y-118185335D01*
X150068280Y-118342365D01*
X150068280Y-118502475D01*
X150037045Y-118659505D01*
X149975775Y-118807424D01*
X149975774Y-118807425D01*
X149886823Y-118940550D01*
X149773610Y-119053763D01*
X149706595Y-119098541D01*
X149640484Y-119142715D01*
X149492565Y-119203985D01*
X149335535Y-119235220D01*
X149175425Y-119235220D01*
X149018395Y-119203985D01*
X148870476Y-119142715D01*
X148804365Y-119098541D01*
X148737350Y-119053763D01*
X148624137Y-118940550D01*
X148535186Y-118807425D01*
X148535185Y-118807424D01*
X148473915Y-118659505D01*
X148442680Y-118502475D01*
X148442680Y-118342365D01*
X148473915Y-118185335D01*
X148535185Y-118037416D01*
X148624136Y-117904292D01*
X148624137Y-117904290D01*
X148737350Y-117791077D01*
X148870475Y-117702126D01*
X148870476Y-117702125D01*
X149018395Y-117640855D01*
X149175425Y-117609620D01*
X149335535Y-117609620D01*
X149492565Y-117640855D01*
X149492565Y-117640855D01*
G37*
G36*
X146952565Y-117640855D02*
G01*
X147100484Y-117702125D01*
X147100485Y-117702126D01*
X147233610Y-117791077D01*
X147346823Y-117904290D01*
X147346824Y-117904292D01*
X147435775Y-118037416D01*
X147497045Y-118185335D01*
X147528280Y-118342365D01*
X147528280Y-118502475D01*
X147497045Y-118659505D01*
X147435775Y-118807424D01*
X147435774Y-118807425D01*
X147346823Y-118940550D01*
X147233610Y-119053763D01*
X147166595Y-119098541D01*
X147100484Y-119142715D01*
X146952565Y-119203985D01*
X146795535Y-119235220D01*
X146635425Y-119235220D01*
X146478395Y-119203985D01*
X146330476Y-119142715D01*
X146264365Y-119098541D01*
X146197350Y-119053763D01*
X146084137Y-118940550D01*
X145995186Y-118807425D01*
X145995185Y-118807424D01*
X145933915Y-118659505D01*
X145902680Y-118502475D01*
X145902680Y-118342365D01*
X145933915Y-118185335D01*
X145995185Y-118037416D01*
X146084136Y-117904292D01*
X146084137Y-117904290D01*
X146197350Y-117791077D01*
X146330475Y-117702126D01*
X146330476Y-117702125D01*
X146478395Y-117640855D01*
X146635425Y-117609620D01*
X146795535Y-117609620D01*
X146952565Y-117640855D01*
X146952565Y-117640855D01*
G37*
G36*
X139332565Y-117640855D02*
G01*
X139480484Y-117702125D01*
X139480485Y-117702126D01*
X139613610Y-117791077D01*
X139726823Y-117904290D01*
X139726824Y-117904292D01*
X139815775Y-118037416D01*
X139877045Y-118185335D01*
X139908280Y-118342365D01*
X139908280Y-118502475D01*
X139877045Y-118659505D01*
X139815775Y-118807424D01*
X139815774Y-118807425D01*
X139726823Y-118940550D01*
X139613610Y-119053763D01*
X139546595Y-119098541D01*
X139480484Y-119142715D01*
X139332565Y-119203985D01*
X139175535Y-119235220D01*
X139015425Y-119235220D01*
X138858395Y-119203985D01*
X138710476Y-119142715D01*
X138644365Y-119098541D01*
X138577350Y-119053763D01*
X138464137Y-118940550D01*
X138375186Y-118807425D01*
X138375185Y-118807424D01*
X138313915Y-118659505D01*
X138282680Y-118502475D01*
X138282680Y-118342365D01*
X138313915Y-118185335D01*
X138375185Y-118037416D01*
X138464136Y-117904292D01*
X138464137Y-117904290D01*
X138577350Y-117791077D01*
X138710475Y-117702126D01*
X138710476Y-117702125D01*
X138858395Y-117640855D01*
X139015425Y-117609620D01*
X139175535Y-117609620D01*
X139332565Y-117640855D01*
X139332565Y-117640855D01*
G37*
G36*
X136792565Y-117640855D02*
G01*
X136940484Y-117702125D01*
X136940485Y-117702126D01*
X137073610Y-117791077D01*
X137186823Y-117904290D01*
X137186824Y-117904292D01*
X137275775Y-118037416D01*
X137337045Y-118185335D01*
X137368280Y-118342365D01*
X137368280Y-118502475D01*
X137337045Y-118659505D01*
X137275775Y-118807424D01*
X137275774Y-118807425D01*
X137186823Y-118940550D01*
X137073610Y-119053763D01*
X137006595Y-119098541D01*
X136940484Y-119142715D01*
X136792565Y-119203985D01*
X136635535Y-119235220D01*
X136475425Y-119235220D01*
X136318395Y-119203985D01*
X136170476Y-119142715D01*
X136104365Y-119098541D01*
X136037350Y-119053763D01*
X135924137Y-118940550D01*
X135835186Y-118807425D01*
X135835185Y-118807424D01*
X135773915Y-118659505D01*
X135742680Y-118502475D01*
X135742680Y-118342365D01*
X135773915Y-118185335D01*
X135835185Y-118037416D01*
X135924136Y-117904292D01*
X135924137Y-117904290D01*
X136037350Y-117791077D01*
X136170475Y-117702126D01*
X136170476Y-117702125D01*
X136318395Y-117640855D01*
X136475425Y-117609620D01*
X136635535Y-117609620D01*
X136792565Y-117640855D01*
X136792565Y-117640855D01*
G37*
G36*
X131712565Y-117640855D02*
G01*
X131860484Y-117702125D01*
X131860485Y-117702126D01*
X131993610Y-117791077D01*
X132106823Y-117904290D01*
X132106824Y-117904292D01*
X132195775Y-118037416D01*
X132257045Y-118185335D01*
X132288280Y-118342365D01*
X132288280Y-118502475D01*
X132257045Y-118659505D01*
X132195775Y-118807424D01*
X132195774Y-118807425D01*
X132106823Y-118940550D01*
X131993610Y-119053763D01*
X131926595Y-119098541D01*
X131860484Y-119142715D01*
X131712565Y-119203985D01*
X131555535Y-119235220D01*
X131395425Y-119235220D01*
X131238395Y-119203985D01*
X131090476Y-119142715D01*
X131024365Y-119098541D01*
X130957350Y-119053763D01*
X130844137Y-118940550D01*
X130755186Y-118807425D01*
X130755185Y-118807424D01*
X130693915Y-118659505D01*
X130662680Y-118502475D01*
X130662680Y-118342365D01*
X130693915Y-118185335D01*
X130755185Y-118037416D01*
X130844136Y-117904292D01*
X130844137Y-117904290D01*
X130957350Y-117791077D01*
X131090475Y-117702126D01*
X131090476Y-117702125D01*
X131238395Y-117640855D01*
X131395425Y-117609620D01*
X131555535Y-117609620D01*
X131712565Y-117640855D01*
X131712565Y-117640855D01*
G37*
G36*
X129172565Y-117640855D02*
G01*
X129320484Y-117702125D01*
X129320485Y-117702126D01*
X129453610Y-117791077D01*
X129566823Y-117904290D01*
X129566824Y-117904292D01*
X129655775Y-118037416D01*
X129717045Y-118185335D01*
X129748280Y-118342365D01*
X129748280Y-118502475D01*
X129717045Y-118659505D01*
X129655775Y-118807424D01*
X129655774Y-118807425D01*
X129566823Y-118940550D01*
X129453610Y-119053763D01*
X129386595Y-119098541D01*
X129320484Y-119142715D01*
X129172565Y-119203985D01*
X129015535Y-119235220D01*
X128855425Y-119235220D01*
X128698395Y-119203985D01*
X128550476Y-119142715D01*
X128484365Y-119098541D01*
X128417350Y-119053763D01*
X128304137Y-118940550D01*
X128215186Y-118807425D01*
X128215185Y-118807424D01*
X128153915Y-118659505D01*
X128122680Y-118502475D01*
X128122680Y-118342365D01*
X128153915Y-118185335D01*
X128215185Y-118037416D01*
X128304136Y-117904292D01*
X128304137Y-117904290D01*
X128417350Y-117791077D01*
X128550475Y-117702126D01*
X128550476Y-117702125D01*
X128698395Y-117640855D01*
X128855425Y-117609620D01*
X129015535Y-117609620D01*
X129172565Y-117640855D01*
X129172565Y-117640855D01*
G37*
G36*
X126632565Y-117640855D02*
G01*
X126780484Y-117702125D01*
X126780485Y-117702126D01*
X126913610Y-117791077D01*
X127026823Y-117904290D01*
X127026824Y-117904292D01*
X127115775Y-118037416D01*
X127177045Y-118185335D01*
X127208280Y-118342365D01*
X127208280Y-118502475D01*
X127177045Y-118659505D01*
X127115775Y-118807424D01*
X127115774Y-118807425D01*
X127026823Y-118940550D01*
X126913610Y-119053763D01*
X126846595Y-119098541D01*
X126780484Y-119142715D01*
X126632565Y-119203985D01*
X126475535Y-119235220D01*
X126315425Y-119235220D01*
X126158395Y-119203985D01*
X126010476Y-119142715D01*
X125944365Y-119098541D01*
X125877350Y-119053763D01*
X125764137Y-118940550D01*
X125675186Y-118807425D01*
X125675185Y-118807424D01*
X125613915Y-118659505D01*
X125582680Y-118502475D01*
X125582680Y-118342365D01*
X125613915Y-118185335D01*
X125675185Y-118037416D01*
X125764136Y-117904292D01*
X125764137Y-117904290D01*
X125877350Y-117791077D01*
X126010475Y-117702126D01*
X126010476Y-117702125D01*
X126158395Y-117640855D01*
X126315425Y-117609620D01*
X126475535Y-117609620D01*
X126632565Y-117640855D01*
X126632565Y-117640855D01*
G37*
G36*
X157112565Y-117640855D02*
G01*
X157260484Y-117702125D01*
X157260485Y-117702126D01*
X157393610Y-117791077D01*
X157506823Y-117904290D01*
X157506824Y-117904292D01*
X157595775Y-118037416D01*
X157657045Y-118185335D01*
X157688280Y-118342365D01*
X157688280Y-118502475D01*
X157657045Y-118659505D01*
X157595775Y-118807424D01*
X157595774Y-118807425D01*
X157506823Y-118940550D01*
X157393610Y-119053763D01*
X157326595Y-119098541D01*
X157260484Y-119142715D01*
X157112565Y-119203985D01*
X156955535Y-119235220D01*
X156795425Y-119235220D01*
X156638395Y-119203985D01*
X156490476Y-119142715D01*
X156424365Y-119098541D01*
X156357350Y-119053763D01*
X156244137Y-118940550D01*
X156155186Y-118807425D01*
X156155185Y-118807424D01*
X156093915Y-118659505D01*
X156062680Y-118502475D01*
X156062680Y-118342365D01*
X156093915Y-118185335D01*
X156155185Y-118037416D01*
X156244136Y-117904292D01*
X156244137Y-117904290D01*
X156357350Y-117791077D01*
X156490475Y-117702126D01*
X156490476Y-117702125D01*
X156638395Y-117640855D01*
X156795425Y-117609620D01*
X156955535Y-117609620D01*
X157112565Y-117640855D01*
X157112565Y-117640855D01*
G37*
G36*
X159652565Y-117640855D02*
G01*
X159800484Y-117702125D01*
X159800485Y-117702126D01*
X159933610Y-117791077D01*
X160046823Y-117904290D01*
X160046824Y-117904292D01*
X160135775Y-118037416D01*
X160197045Y-118185335D01*
X160228280Y-118342365D01*
X160228280Y-118502475D01*
X160197045Y-118659505D01*
X160135775Y-118807424D01*
X160135774Y-118807425D01*
X160046823Y-118940550D01*
X159933610Y-119053763D01*
X159866595Y-119098541D01*
X159800484Y-119142715D01*
X159652565Y-119203985D01*
X159495535Y-119235220D01*
X159335425Y-119235220D01*
X159178395Y-119203985D01*
X159030476Y-119142715D01*
X158964365Y-119098541D01*
X158897350Y-119053763D01*
X158784137Y-118940550D01*
X158695186Y-118807425D01*
X158695185Y-118807424D01*
X158633915Y-118659505D01*
X158602680Y-118502475D01*
X158602680Y-118342365D01*
X158633915Y-118185335D01*
X158695185Y-118037416D01*
X158784136Y-117904292D01*
X158784137Y-117904290D01*
X158897350Y-117791077D01*
X159030475Y-117702126D01*
X159030476Y-117702125D01*
X159178395Y-117640855D01*
X159335425Y-117609620D01*
X159495535Y-117609620D01*
X159652565Y-117640855D01*
X159652565Y-117640855D01*
G37*
G36*
X154572565Y-117640855D02*
G01*
X154720484Y-117702125D01*
X154720485Y-117702126D01*
X154853610Y-117791077D01*
X154966823Y-117904290D01*
X154966824Y-117904292D01*
X155055775Y-118037416D01*
X155117045Y-118185335D01*
X155148280Y-118342365D01*
X155148280Y-118502475D01*
X155117045Y-118659505D01*
X155055775Y-118807424D01*
X155055774Y-118807425D01*
X154966823Y-118940550D01*
X154853610Y-119053763D01*
X154786595Y-119098541D01*
X154720484Y-119142715D01*
X154572565Y-119203985D01*
X154415535Y-119235220D01*
X154255425Y-119235220D01*
X154098395Y-119203985D01*
X153950476Y-119142715D01*
X153884365Y-119098541D01*
X153817350Y-119053763D01*
X153704137Y-118940550D01*
X153615186Y-118807425D01*
X153615185Y-118807424D01*
X153553915Y-118659505D01*
X153522680Y-118502475D01*
X153522680Y-118342365D01*
X153553915Y-118185335D01*
X153615185Y-118037416D01*
X153704136Y-117904292D01*
X153704137Y-117904290D01*
X153817350Y-117791077D01*
X153950475Y-117702126D01*
X153950476Y-117702125D01*
X154098395Y-117640855D01*
X154255425Y-117609620D01*
X154415535Y-117609620D01*
X154572565Y-117640855D01*
X154572565Y-117640855D01*
G37*
G36*
X134252565Y-117640855D02*
G01*
X134400484Y-117702125D01*
X134400485Y-117702126D01*
X134533610Y-117791077D01*
X134646823Y-117904290D01*
X134646824Y-117904292D01*
X134735775Y-118037416D01*
X134797045Y-118185335D01*
X134828280Y-118342365D01*
X134828280Y-118502475D01*
X134797045Y-118659505D01*
X134735775Y-118807424D01*
X134735774Y-118807425D01*
X134646823Y-118940550D01*
X134533610Y-119053763D01*
X134466595Y-119098541D01*
X134400484Y-119142715D01*
X134252565Y-119203985D01*
X134095535Y-119235220D01*
X133935425Y-119235220D01*
X133778395Y-119203985D01*
X133630476Y-119142715D01*
X133564365Y-119098541D01*
X133497350Y-119053763D01*
X133384137Y-118940550D01*
X133295186Y-118807425D01*
X133295185Y-118807424D01*
X133233915Y-118659505D01*
X133202680Y-118502475D01*
X133202680Y-118342365D01*
X133233915Y-118185335D01*
X133295185Y-118037416D01*
X133384136Y-117904292D01*
X133384137Y-117904290D01*
X133497350Y-117791077D01*
X133630475Y-117702126D01*
X133630476Y-117702125D01*
X133778395Y-117640855D01*
X133935425Y-117609620D01*
X134095535Y-117609620D01*
X134252565Y-117640855D01*
X134252565Y-117640855D01*
G37*
G36*
X152032565Y-115100855D02*
G01*
X152180484Y-115162125D01*
X152180485Y-115162126D01*
X152313610Y-115251077D01*
X152426823Y-115364290D01*
X152426824Y-115364292D01*
X152515775Y-115497416D01*
X152577045Y-115645335D01*
X152608280Y-115802365D01*
X152608280Y-115962475D01*
X152577045Y-116119505D01*
X152515775Y-116267424D01*
X152515774Y-116267425D01*
X152426823Y-116400550D01*
X152313610Y-116513763D01*
X152246595Y-116558541D01*
X152180484Y-116602715D01*
X152032565Y-116663985D01*
X151875535Y-116695220D01*
X151715425Y-116695220D01*
X151558395Y-116663985D01*
X151410476Y-116602715D01*
X151344365Y-116558541D01*
X151277350Y-116513763D01*
X151164137Y-116400550D01*
X151075186Y-116267425D01*
X151075185Y-116267424D01*
X151013915Y-116119505D01*
X150982680Y-115962475D01*
X150982680Y-115802365D01*
X151013915Y-115645335D01*
X151075185Y-115497416D01*
X151164136Y-115364292D01*
X151164137Y-115364290D01*
X151277350Y-115251077D01*
X151410475Y-115162126D01*
X151410476Y-115162125D01*
X151558395Y-115100855D01*
X151715425Y-115069620D01*
X151875535Y-115069620D01*
X152032565Y-115100855D01*
X152032565Y-115100855D01*
G37*
G36*
X159652565Y-115100855D02*
G01*
X159800484Y-115162125D01*
X159800485Y-115162126D01*
X159933610Y-115251077D01*
X160046823Y-115364290D01*
X160046824Y-115364292D01*
X160135775Y-115497416D01*
X160197045Y-115645335D01*
X160228280Y-115802365D01*
X160228280Y-115962475D01*
X160197045Y-116119505D01*
X160135775Y-116267424D01*
X160135774Y-116267425D01*
X160046823Y-116400550D01*
X159933610Y-116513763D01*
X159866595Y-116558541D01*
X159800484Y-116602715D01*
X159652565Y-116663985D01*
X159495535Y-116695220D01*
X159335425Y-116695220D01*
X159178395Y-116663985D01*
X159030476Y-116602715D01*
X158964365Y-116558541D01*
X158897350Y-116513763D01*
X158784137Y-116400550D01*
X158695186Y-116267425D01*
X158695185Y-116267424D01*
X158633915Y-116119505D01*
X158602680Y-115962475D01*
X158602680Y-115802365D01*
X158633915Y-115645335D01*
X158695185Y-115497416D01*
X158784136Y-115364292D01*
X158784137Y-115364290D01*
X158897350Y-115251077D01*
X159030475Y-115162126D01*
X159030476Y-115162125D01*
X159178395Y-115100855D01*
X159335425Y-115069620D01*
X159495535Y-115069620D01*
X159652565Y-115100855D01*
X159652565Y-115100855D01*
G37*
G36*
X154632565Y-115100855D02*
G01*
X154780484Y-115162125D01*
X154780485Y-115162126D01*
X154913610Y-115251077D01*
X155026823Y-115364290D01*
X155026824Y-115364292D01*
X155115775Y-115497416D01*
X155177045Y-115645335D01*
X155208280Y-115802365D01*
X155208280Y-115962475D01*
X155177045Y-116119505D01*
X155115775Y-116267424D01*
X155115774Y-116267425D01*
X155026823Y-116400550D01*
X154913610Y-116513763D01*
X154846595Y-116558541D01*
X154780484Y-116602715D01*
X154632565Y-116663985D01*
X154475535Y-116695220D01*
X154315425Y-116695220D01*
X154158395Y-116663985D01*
X154010476Y-116602715D01*
X153944365Y-116558541D01*
X153877350Y-116513763D01*
X153764137Y-116400550D01*
X153675186Y-116267425D01*
X153675185Y-116267424D01*
X153613915Y-116119505D01*
X153582680Y-115962475D01*
X153582680Y-115802365D01*
X153613915Y-115645335D01*
X153675185Y-115497416D01*
X153764136Y-115364292D01*
X153764137Y-115364290D01*
X153877350Y-115251077D01*
X154010475Y-115162126D01*
X154010476Y-115162125D01*
X154158395Y-115100855D01*
X154315425Y-115069620D01*
X154475535Y-115069620D01*
X154632565Y-115100855D01*
X154632565Y-115100855D01*
G37*
G36*
X152032565Y-112560855D02*
G01*
X152180484Y-112622125D01*
X152180485Y-112622126D01*
X152313610Y-112711077D01*
X152426823Y-112824290D01*
X152426824Y-112824292D01*
X152515775Y-112957416D01*
X152577045Y-113105335D01*
X152608280Y-113262365D01*
X152608280Y-113422475D01*
X152577045Y-113579505D01*
X152515775Y-113727424D01*
X152515774Y-113727425D01*
X152426823Y-113860550D01*
X152313610Y-113973763D01*
X152246595Y-114018541D01*
X152180484Y-114062715D01*
X152032565Y-114123985D01*
X151875535Y-114155220D01*
X151715425Y-114155220D01*
X151558395Y-114123985D01*
X151410476Y-114062715D01*
X151344365Y-114018541D01*
X151277350Y-113973763D01*
X151164137Y-113860550D01*
X151075186Y-113727425D01*
X151075185Y-113727424D01*
X151013915Y-113579505D01*
X150982680Y-113422475D01*
X150982680Y-113262365D01*
X151013915Y-113105335D01*
X151075185Y-112957416D01*
X151164136Y-112824292D01*
X151164137Y-112824290D01*
X151277350Y-112711077D01*
X151410475Y-112622126D01*
X151410476Y-112622125D01*
X151558395Y-112560855D01*
X151715425Y-112529620D01*
X151875535Y-112529620D01*
X152032565Y-112560855D01*
X152032565Y-112560855D01*
G37*
G36*
X159652565Y-112560855D02*
G01*
X159800484Y-112622125D01*
X159800485Y-112622126D01*
X159933610Y-112711077D01*
X160046823Y-112824290D01*
X160046824Y-112824292D01*
X160135775Y-112957416D01*
X160197045Y-113105335D01*
X160228280Y-113262365D01*
X160228280Y-113422475D01*
X160197045Y-113579505D01*
X160135775Y-113727424D01*
X160135774Y-113727425D01*
X160046823Y-113860550D01*
X159933610Y-113973763D01*
X159866595Y-114018541D01*
X159800484Y-114062715D01*
X159652565Y-114123985D01*
X159495535Y-114155220D01*
X159335425Y-114155220D01*
X159178395Y-114123985D01*
X159030476Y-114062715D01*
X158964365Y-114018541D01*
X158897350Y-113973763D01*
X158784137Y-113860550D01*
X158695186Y-113727425D01*
X158695185Y-113727424D01*
X158633915Y-113579505D01*
X158602680Y-113422475D01*
X158602680Y-113262365D01*
X158633915Y-113105335D01*
X158695185Y-112957416D01*
X158784136Y-112824292D01*
X158784137Y-112824290D01*
X158897350Y-112711077D01*
X159030475Y-112622126D01*
X159030476Y-112622125D01*
X159178395Y-112560855D01*
X159335425Y-112529620D01*
X159495535Y-112529620D01*
X159652565Y-112560855D01*
X159652565Y-112560855D01*
G37*
G36*
X154632565Y-112560855D02*
G01*
X154780484Y-112622125D01*
X154780485Y-112622126D01*
X154913610Y-112711077D01*
X155026823Y-112824290D01*
X155026824Y-112824292D01*
X155115775Y-112957416D01*
X155177045Y-113105335D01*
X155208280Y-113262365D01*
X155208280Y-113422475D01*
X155177045Y-113579505D01*
X155115775Y-113727424D01*
X155115774Y-113727425D01*
X155026823Y-113860550D01*
X154913610Y-113973763D01*
X154846595Y-114018541D01*
X154780484Y-114062715D01*
X154632565Y-114123985D01*
X154475535Y-114155220D01*
X154315425Y-114155220D01*
X154158395Y-114123985D01*
X154010476Y-114062715D01*
X153944365Y-114018541D01*
X153877350Y-113973763D01*
X153764137Y-113860550D01*
X153675186Y-113727425D01*
X153675185Y-113727424D01*
X153613915Y-113579505D01*
X153582680Y-113422475D01*
X153582680Y-113262365D01*
X153613915Y-113105335D01*
X153675185Y-112957416D01*
X153764136Y-112824292D01*
X153764137Y-112824290D01*
X153877350Y-112711077D01*
X154010475Y-112622126D01*
X154010476Y-112622125D01*
X154158395Y-112560855D01*
X154315425Y-112529620D01*
X154475535Y-112529620D01*
X154632565Y-112560855D01*
X154632565Y-112560855D01*
G37*
G36*
X154632565Y-110020855D02*
G01*
X154780484Y-110082125D01*
X154780485Y-110082126D01*
X154913610Y-110171077D01*
X155026823Y-110284290D01*
X155026824Y-110284292D01*
X155115775Y-110417416D01*
X155177045Y-110565335D01*
X155208280Y-110722365D01*
X155208280Y-110882475D01*
X155177045Y-111039505D01*
X155115775Y-111187424D01*
X155115774Y-111187425D01*
X155026823Y-111320550D01*
X154913610Y-111433763D01*
X154846595Y-111478541D01*
X154780484Y-111522715D01*
X154632565Y-111583985D01*
X154475535Y-111615220D01*
X154315425Y-111615220D01*
X154158395Y-111583985D01*
X154010476Y-111522715D01*
X153944365Y-111478541D01*
X153877350Y-111433763D01*
X153764137Y-111320550D01*
X153675186Y-111187425D01*
X153675185Y-111187424D01*
X153613915Y-111039505D01*
X153582680Y-110882475D01*
X153582680Y-110722365D01*
X153613915Y-110565335D01*
X153675185Y-110417416D01*
X153764136Y-110284292D01*
X153764137Y-110284290D01*
X153877350Y-110171077D01*
X154010475Y-110082126D01*
X154010476Y-110082125D01*
X154158395Y-110020855D01*
X154315425Y-109989620D01*
X154475535Y-109989620D01*
X154632565Y-110020855D01*
X154632565Y-110020855D01*
G37*
G36*
X159652565Y-110020855D02*
G01*
X159800484Y-110082125D01*
X159800485Y-110082126D01*
X159933610Y-110171077D01*
X160046823Y-110284290D01*
X160046824Y-110284292D01*
X160135775Y-110417416D01*
X160197045Y-110565335D01*
X160228280Y-110722365D01*
X160228280Y-110882475D01*
X160197045Y-111039505D01*
X160135775Y-111187424D01*
X160135774Y-111187425D01*
X160046823Y-111320550D01*
X159933610Y-111433763D01*
X159866595Y-111478541D01*
X159800484Y-111522715D01*
X159652565Y-111583985D01*
X159495535Y-111615220D01*
X159335425Y-111615220D01*
X159178395Y-111583985D01*
X159030476Y-111522715D01*
X158964365Y-111478541D01*
X158897350Y-111433763D01*
X158784137Y-111320550D01*
X158695186Y-111187425D01*
X158695185Y-111187424D01*
X158633915Y-111039505D01*
X158602680Y-110882475D01*
X158602680Y-110722365D01*
X158633915Y-110565335D01*
X158695185Y-110417416D01*
X158784136Y-110284292D01*
X158784137Y-110284290D01*
X158897350Y-110171077D01*
X159030475Y-110082126D01*
X159030476Y-110082125D01*
X159178395Y-110020855D01*
X159335425Y-109989620D01*
X159495535Y-109989620D01*
X159652565Y-110020855D01*
X159652565Y-110020855D01*
G37*
G36*
X152032565Y-110020855D02*
G01*
X152180484Y-110082125D01*
X152180485Y-110082126D01*
X152313610Y-110171077D01*
X152426823Y-110284290D01*
X152426824Y-110284292D01*
X152515775Y-110417416D01*
X152577045Y-110565335D01*
X152608280Y-110722365D01*
X152608280Y-110882475D01*
X152577045Y-111039505D01*
X152515775Y-111187424D01*
X152515774Y-111187425D01*
X152426823Y-111320550D01*
X152313610Y-111433763D01*
X152246595Y-111478541D01*
X152180484Y-111522715D01*
X152032565Y-111583985D01*
X151875535Y-111615220D01*
X151715425Y-111615220D01*
X151558395Y-111583985D01*
X151410476Y-111522715D01*
X151344365Y-111478541D01*
X151277350Y-111433763D01*
X151164137Y-111320550D01*
X151075186Y-111187425D01*
X151075185Y-111187424D01*
X151013915Y-111039505D01*
X150982680Y-110882475D01*
X150982680Y-110722365D01*
X151013915Y-110565335D01*
X151075185Y-110417416D01*
X151164136Y-110284292D01*
X151164137Y-110284290D01*
X151277350Y-110171077D01*
X151410475Y-110082126D01*
X151410476Y-110082125D01*
X151558395Y-110020855D01*
X151715425Y-109989620D01*
X151875535Y-109989620D01*
X152032565Y-110020855D01*
X152032565Y-110020855D01*
G37*
G36*
X172288105Y-107774334D02*
G01*
X172433841Y-107834700D01*
X172565000Y-107922338D01*
X172676542Y-108033880D01*
X172764181Y-108165041D01*
X172824546Y-108310775D01*
X172855320Y-108465487D01*
X172855320Y-108623233D01*
X172824546Y-108777945D01*
X172776573Y-108893763D01*
X172764180Y-108923681D01*
X172676542Y-109054840D01*
X172565000Y-109166382D01*
X172433841Y-109254020D01*
X172433840Y-109254021D01*
X172433839Y-109254021D01*
X172288105Y-109314386D01*
X172133393Y-109345160D01*
X171975647Y-109345160D01*
X171820935Y-109314386D01*
X171675201Y-109254021D01*
X171675200Y-109254021D01*
X171675199Y-109254020D01*
X171544040Y-109166382D01*
X171432498Y-109054840D01*
X171344860Y-108923681D01*
X171332468Y-108893763D01*
X171284494Y-108777945D01*
X171253720Y-108623233D01*
X171253720Y-108465487D01*
X171284494Y-108310775D01*
X171344859Y-108165041D01*
X171432498Y-108033880D01*
X171544040Y-107922338D01*
X171675199Y-107834700D01*
X171820935Y-107774334D01*
X171975647Y-107743560D01*
X172133393Y-107743560D01*
X172288105Y-107774334D01*
X172288105Y-107774334D01*
G37*
G36*
X152032565Y-107480855D02*
G01*
X152180484Y-107542125D01*
X152180485Y-107542126D01*
X152313610Y-107631077D01*
X152426823Y-107744290D01*
X152426824Y-107744292D01*
X152515775Y-107877416D01*
X152577045Y-108025335D01*
X152608280Y-108182365D01*
X152608280Y-108342475D01*
X152577045Y-108499505D01*
X152515775Y-108647424D01*
X152515774Y-108647425D01*
X152426823Y-108780550D01*
X152313610Y-108893763D01*
X152268837Y-108923679D01*
X152180484Y-108982715D01*
X152032565Y-109043985D01*
X151875535Y-109075220D01*
X151715425Y-109075220D01*
X151558395Y-109043985D01*
X151410476Y-108982715D01*
X151322123Y-108923679D01*
X151277350Y-108893763D01*
X151164137Y-108780550D01*
X151075186Y-108647425D01*
X151075185Y-108647424D01*
X151013915Y-108499505D01*
X150982680Y-108342475D01*
X150982680Y-108182365D01*
X151013915Y-108025335D01*
X151075185Y-107877416D01*
X151164136Y-107744292D01*
X151164137Y-107744290D01*
X151277350Y-107631077D01*
X151410475Y-107542126D01*
X151410476Y-107542125D01*
X151558395Y-107480855D01*
X151715425Y-107449620D01*
X151875535Y-107449620D01*
X152032565Y-107480855D01*
X152032565Y-107480855D01*
G37*
G36*
X154632565Y-107480855D02*
G01*
X154780484Y-107542125D01*
X154780485Y-107542126D01*
X154913610Y-107631077D01*
X155026823Y-107744290D01*
X155026824Y-107744292D01*
X155115775Y-107877416D01*
X155177045Y-108025335D01*
X155208280Y-108182365D01*
X155208280Y-108342475D01*
X155177045Y-108499505D01*
X155115775Y-108647424D01*
X155115774Y-108647425D01*
X155026823Y-108780550D01*
X154913610Y-108893763D01*
X154868837Y-108923679D01*
X154780484Y-108982715D01*
X154632565Y-109043985D01*
X154475535Y-109075220D01*
X154315425Y-109075220D01*
X154158395Y-109043985D01*
X154010476Y-108982715D01*
X153922123Y-108923679D01*
X153877350Y-108893763D01*
X153764137Y-108780550D01*
X153675186Y-108647425D01*
X153675185Y-108647424D01*
X153613915Y-108499505D01*
X153582680Y-108342475D01*
X153582680Y-108182365D01*
X153613915Y-108025335D01*
X153675185Y-107877416D01*
X153764136Y-107744292D01*
X153764137Y-107744290D01*
X153877350Y-107631077D01*
X154010475Y-107542126D01*
X154010476Y-107542125D01*
X154158395Y-107480855D01*
X154315425Y-107449620D01*
X154475535Y-107449620D01*
X154632565Y-107480855D01*
X154632565Y-107480855D01*
G37*
G36*
X159652565Y-107480855D02*
G01*
X159800484Y-107542125D01*
X159800485Y-107542126D01*
X159933610Y-107631077D01*
X160046823Y-107744290D01*
X160046824Y-107744292D01*
X160135775Y-107877416D01*
X160197045Y-108025335D01*
X160228280Y-108182365D01*
X160228280Y-108342475D01*
X160197045Y-108499505D01*
X160135775Y-108647424D01*
X160135774Y-108647425D01*
X160046823Y-108780550D01*
X159933610Y-108893763D01*
X159888837Y-108923679D01*
X159800484Y-108982715D01*
X159652565Y-109043985D01*
X159495535Y-109075220D01*
X159335425Y-109075220D01*
X159178395Y-109043985D01*
X159030476Y-108982715D01*
X158942123Y-108923679D01*
X158897350Y-108893763D01*
X158784137Y-108780550D01*
X158695186Y-108647425D01*
X158695185Y-108647424D01*
X158633915Y-108499505D01*
X158602680Y-108342475D01*
X158602680Y-108182365D01*
X158633915Y-108025335D01*
X158695185Y-107877416D01*
X158784136Y-107744292D01*
X158784137Y-107744290D01*
X158897350Y-107631077D01*
X159030475Y-107542126D01*
X159030476Y-107542125D01*
X159178395Y-107480855D01*
X159335425Y-107449620D01*
X159495535Y-107449620D01*
X159652565Y-107480855D01*
X159652565Y-107480855D01*
G37*
G36*
X172288105Y-105234334D02*
G01*
X172433841Y-105294700D01*
X172565000Y-105382338D01*
X172676542Y-105493880D01*
X172764181Y-105625041D01*
X172824546Y-105770775D01*
X172855320Y-105925487D01*
X172855320Y-106083233D01*
X172824546Y-106237945D01*
X172776573Y-106353763D01*
X172764180Y-106383681D01*
X172676542Y-106514840D01*
X172565000Y-106626382D01*
X172433841Y-106714020D01*
X172433840Y-106714021D01*
X172433839Y-106714021D01*
X172288105Y-106774386D01*
X172133393Y-106805160D01*
X171975647Y-106805160D01*
X171820935Y-106774386D01*
X171675201Y-106714021D01*
X171675200Y-106714021D01*
X171675199Y-106714020D01*
X171544040Y-106626382D01*
X171432498Y-106514840D01*
X171344860Y-106383681D01*
X171332468Y-106353763D01*
X171284494Y-106237945D01*
X171253720Y-106083233D01*
X171253720Y-105925487D01*
X171284494Y-105770775D01*
X171344859Y-105625041D01*
X171432498Y-105493880D01*
X171544040Y-105382338D01*
X171675199Y-105294700D01*
X171820935Y-105234334D01*
X171975647Y-105203560D01*
X172133393Y-105203560D01*
X172288105Y-105234334D01*
X172288105Y-105234334D01*
G37*
G36*
X152032565Y-104940855D02*
G01*
X152180484Y-105002125D01*
X152180485Y-105002126D01*
X152313610Y-105091077D01*
X152426823Y-105204290D01*
X152426824Y-105204292D01*
X152515775Y-105337416D01*
X152577045Y-105485335D01*
X152608280Y-105642365D01*
X152608280Y-105802475D01*
X152577045Y-105959505D01*
X152515775Y-106107424D01*
X152515774Y-106107425D01*
X152426823Y-106240550D01*
X152313610Y-106353763D01*
X152268837Y-106383679D01*
X152180484Y-106442715D01*
X152032565Y-106503985D01*
X151875535Y-106535220D01*
X151715425Y-106535220D01*
X151558395Y-106503985D01*
X151410476Y-106442715D01*
X151322123Y-106383679D01*
X151277350Y-106353763D01*
X151164137Y-106240550D01*
X151075186Y-106107425D01*
X151075185Y-106107424D01*
X151013915Y-105959505D01*
X150982680Y-105802475D01*
X150982680Y-105642365D01*
X151013915Y-105485335D01*
X151075185Y-105337416D01*
X151164136Y-105204292D01*
X151164137Y-105204290D01*
X151277350Y-105091077D01*
X151410475Y-105002126D01*
X151410476Y-105002125D01*
X151558395Y-104940855D01*
X151715425Y-104909620D01*
X151875535Y-104909620D01*
X152032565Y-104940855D01*
X152032565Y-104940855D01*
G37*
G36*
X159652565Y-104940855D02*
G01*
X159800484Y-105002125D01*
X159800485Y-105002126D01*
X159933610Y-105091077D01*
X160046823Y-105204290D01*
X160046824Y-105204292D01*
X160135775Y-105337416D01*
X160197045Y-105485335D01*
X160228280Y-105642365D01*
X160228280Y-105802475D01*
X160197045Y-105959505D01*
X160135775Y-106107424D01*
X160135774Y-106107425D01*
X160046823Y-106240550D01*
X159933610Y-106353763D01*
X159888837Y-106383679D01*
X159800484Y-106442715D01*
X159652565Y-106503985D01*
X159495535Y-106535220D01*
X159335425Y-106535220D01*
X159178395Y-106503985D01*
X159030476Y-106442715D01*
X158942123Y-106383679D01*
X158897350Y-106353763D01*
X158784137Y-106240550D01*
X158695186Y-106107425D01*
X158695185Y-106107424D01*
X158633915Y-105959505D01*
X158602680Y-105802475D01*
X158602680Y-105642365D01*
X158633915Y-105485335D01*
X158695185Y-105337416D01*
X158784136Y-105204292D01*
X158784137Y-105204290D01*
X158897350Y-105091077D01*
X159030475Y-105002126D01*
X159030476Y-105002125D01*
X159178395Y-104940855D01*
X159335425Y-104909620D01*
X159495535Y-104909620D01*
X159652565Y-104940855D01*
X159652565Y-104940855D01*
G37*
G36*
X154572565Y-104940855D02*
G01*
X154720484Y-105002125D01*
X154720485Y-105002126D01*
X154853610Y-105091077D01*
X154966823Y-105204290D01*
X154966824Y-105204292D01*
X155055775Y-105337416D01*
X155117045Y-105485335D01*
X155148280Y-105642365D01*
X155148280Y-105802475D01*
X155117045Y-105959505D01*
X155055775Y-106107424D01*
X155055774Y-106107425D01*
X154966823Y-106240550D01*
X154853610Y-106353763D01*
X154808837Y-106383679D01*
X154720484Y-106442715D01*
X154572565Y-106503985D01*
X154415535Y-106535220D01*
X154255425Y-106535220D01*
X154098395Y-106503985D01*
X153950476Y-106442715D01*
X153862123Y-106383679D01*
X153817350Y-106353763D01*
X153704137Y-106240550D01*
X153615186Y-106107425D01*
X153615185Y-106107424D01*
X153553915Y-105959505D01*
X153522680Y-105802475D01*
X153522680Y-105642365D01*
X153553915Y-105485335D01*
X153615185Y-105337416D01*
X153704136Y-105204292D01*
X153704137Y-105204290D01*
X153817350Y-105091077D01*
X153950475Y-105002126D01*
X153950476Y-105002125D01*
X154098395Y-104940855D01*
X154255425Y-104909620D01*
X154415535Y-104909620D01*
X154572565Y-104940855D01*
X154572565Y-104940855D01*
G37*
G36*
X172288105Y-102694334D02*
G01*
X172433841Y-102754700D01*
X172565000Y-102842338D01*
X172676542Y-102953880D01*
X172764181Y-103085041D01*
X172824546Y-103230775D01*
X172855320Y-103385487D01*
X172855320Y-103543233D01*
X172824546Y-103697945D01*
X172776573Y-103813763D01*
X172764180Y-103843681D01*
X172676542Y-103974840D01*
X172565000Y-104086382D01*
X172433841Y-104174020D01*
X172433840Y-104174021D01*
X172433839Y-104174021D01*
X172288105Y-104234386D01*
X172133393Y-104265160D01*
X171975647Y-104265160D01*
X171820935Y-104234386D01*
X171675201Y-104174021D01*
X171675200Y-104174021D01*
X171675199Y-104174020D01*
X171544040Y-104086382D01*
X171432498Y-103974840D01*
X171344860Y-103843681D01*
X171332468Y-103813763D01*
X171284494Y-103697945D01*
X171253720Y-103543233D01*
X171253720Y-103385487D01*
X171284494Y-103230775D01*
X171344859Y-103085041D01*
X171432498Y-102953880D01*
X171544040Y-102842338D01*
X171675199Y-102754700D01*
X171820935Y-102694334D01*
X171975647Y-102663560D01*
X172133393Y-102663560D01*
X172288105Y-102694334D01*
X172288105Y-102694334D01*
G37*
G36*
X149492565Y-102400855D02*
G01*
X149640484Y-102462125D01*
X149640485Y-102462126D01*
X149773610Y-102551077D01*
X149886823Y-102664290D01*
X149886824Y-102664292D01*
X149975775Y-102797416D01*
X150037045Y-102945335D01*
X150068280Y-103102365D01*
X150068280Y-103262475D01*
X150037045Y-103419505D01*
X149975775Y-103567424D01*
X149975774Y-103567425D01*
X149886823Y-103700550D01*
X149773610Y-103813763D01*
X149728837Y-103843679D01*
X149640484Y-103902715D01*
X149492565Y-103963985D01*
X149335535Y-103995220D01*
X149175425Y-103995220D01*
X149018395Y-103963985D01*
X148870476Y-103902715D01*
X148782123Y-103843679D01*
X148737350Y-103813763D01*
X148624137Y-103700550D01*
X148535186Y-103567425D01*
X148535185Y-103567424D01*
X148473915Y-103419505D01*
X148442680Y-103262475D01*
X148442680Y-103102365D01*
X148473915Y-102945335D01*
X148535185Y-102797416D01*
X148624136Y-102664292D01*
X148624137Y-102664290D01*
X148737350Y-102551077D01*
X148870475Y-102462126D01*
X148870476Y-102462125D01*
X149018395Y-102400855D01*
X149175425Y-102369620D01*
X149335535Y-102369620D01*
X149492565Y-102400855D01*
X149492565Y-102400855D01*
G37*
G36*
X129172565Y-102400855D02*
G01*
X129320484Y-102462125D01*
X129320485Y-102462126D01*
X129453610Y-102551077D01*
X129566823Y-102664290D01*
X129566824Y-102664292D01*
X129655775Y-102797416D01*
X129717045Y-102945335D01*
X129748280Y-103102365D01*
X129748280Y-103262475D01*
X129717045Y-103419505D01*
X129655775Y-103567424D01*
X129655774Y-103567425D01*
X129566823Y-103700550D01*
X129453610Y-103813763D01*
X129408837Y-103843679D01*
X129320484Y-103902715D01*
X129172565Y-103963985D01*
X129015535Y-103995220D01*
X128855425Y-103995220D01*
X128698395Y-103963985D01*
X128550476Y-103902715D01*
X128462123Y-103843679D01*
X128417350Y-103813763D01*
X128304137Y-103700550D01*
X128215186Y-103567425D01*
X128215185Y-103567424D01*
X128153915Y-103419505D01*
X128122680Y-103262475D01*
X128122680Y-103102365D01*
X128153915Y-102945335D01*
X128215185Y-102797416D01*
X128304136Y-102664292D01*
X128304137Y-102664290D01*
X128417350Y-102551077D01*
X128550475Y-102462126D01*
X128550476Y-102462125D01*
X128698395Y-102400855D01*
X128855425Y-102369620D01*
X129015535Y-102369620D01*
X129172565Y-102400855D01*
X129172565Y-102400855D01*
G37*
G36*
X131712565Y-102400855D02*
G01*
X131860484Y-102462125D01*
X131860485Y-102462126D01*
X131993610Y-102551077D01*
X132106823Y-102664290D01*
X132106824Y-102664292D01*
X132195775Y-102797416D01*
X132257045Y-102945335D01*
X132288280Y-103102365D01*
X132288280Y-103262475D01*
X132257045Y-103419505D01*
X132195775Y-103567424D01*
X132195774Y-103567425D01*
X132106823Y-103700550D01*
X131993610Y-103813763D01*
X131948837Y-103843679D01*
X131860484Y-103902715D01*
X131712565Y-103963985D01*
X131555535Y-103995220D01*
X131395425Y-103995220D01*
X131238395Y-103963985D01*
X131090476Y-103902715D01*
X131002123Y-103843679D01*
X130957350Y-103813763D01*
X130844137Y-103700550D01*
X130755186Y-103567425D01*
X130755185Y-103567424D01*
X130693915Y-103419505D01*
X130662680Y-103262475D01*
X130662680Y-103102365D01*
X130693915Y-102945335D01*
X130755185Y-102797416D01*
X130844136Y-102664292D01*
X130844137Y-102664290D01*
X130957350Y-102551077D01*
X131090475Y-102462126D01*
X131090476Y-102462125D01*
X131238395Y-102400855D01*
X131395425Y-102369620D01*
X131555535Y-102369620D01*
X131712565Y-102400855D01*
X131712565Y-102400855D01*
G37*
G36*
X134252565Y-102400855D02*
G01*
X134400484Y-102462125D01*
X134400485Y-102462126D01*
X134533610Y-102551077D01*
X134646823Y-102664290D01*
X134646824Y-102664292D01*
X134735775Y-102797416D01*
X134797045Y-102945335D01*
X134828280Y-103102365D01*
X134828280Y-103262475D01*
X134797045Y-103419505D01*
X134735775Y-103567424D01*
X134735774Y-103567425D01*
X134646823Y-103700550D01*
X134533610Y-103813763D01*
X134488837Y-103843679D01*
X134400484Y-103902715D01*
X134252565Y-103963985D01*
X134095535Y-103995220D01*
X133935425Y-103995220D01*
X133778395Y-103963985D01*
X133630476Y-103902715D01*
X133542123Y-103843679D01*
X133497350Y-103813763D01*
X133384137Y-103700550D01*
X133295186Y-103567425D01*
X133295185Y-103567424D01*
X133233915Y-103419505D01*
X133202680Y-103262475D01*
X133202680Y-103102365D01*
X133233915Y-102945335D01*
X133295185Y-102797416D01*
X133384136Y-102664292D01*
X133384137Y-102664290D01*
X133497350Y-102551077D01*
X133630475Y-102462126D01*
X133630476Y-102462125D01*
X133778395Y-102400855D01*
X133935425Y-102369620D01*
X134095535Y-102369620D01*
X134252565Y-102400855D01*
X134252565Y-102400855D01*
G37*
G36*
X136792565Y-102400855D02*
G01*
X136940484Y-102462125D01*
X136940485Y-102462126D01*
X137073610Y-102551077D01*
X137186823Y-102664290D01*
X137186824Y-102664292D01*
X137275775Y-102797416D01*
X137337045Y-102945335D01*
X137368280Y-103102365D01*
X137368280Y-103262475D01*
X137337045Y-103419505D01*
X137275775Y-103567424D01*
X137275774Y-103567425D01*
X137186823Y-103700550D01*
X137073610Y-103813763D01*
X137028837Y-103843679D01*
X136940484Y-103902715D01*
X136792565Y-103963985D01*
X136635535Y-103995220D01*
X136475425Y-103995220D01*
X136318395Y-103963985D01*
X136170476Y-103902715D01*
X136082123Y-103843679D01*
X136037350Y-103813763D01*
X135924137Y-103700550D01*
X135835186Y-103567425D01*
X135835185Y-103567424D01*
X135773915Y-103419505D01*
X135742680Y-103262475D01*
X135742680Y-103102365D01*
X135773915Y-102945335D01*
X135835185Y-102797416D01*
X135924136Y-102664292D01*
X135924137Y-102664290D01*
X136037350Y-102551077D01*
X136170475Y-102462126D01*
X136170476Y-102462125D01*
X136318395Y-102400855D01*
X136475425Y-102369620D01*
X136635535Y-102369620D01*
X136792565Y-102400855D01*
X136792565Y-102400855D01*
G37*
G36*
X139332565Y-102400855D02*
G01*
X139480484Y-102462125D01*
X139480485Y-102462126D01*
X139613610Y-102551077D01*
X139726823Y-102664290D01*
X139726824Y-102664292D01*
X139815775Y-102797416D01*
X139877045Y-102945335D01*
X139908280Y-103102365D01*
X139908280Y-103262475D01*
X139877045Y-103419505D01*
X139815775Y-103567424D01*
X139815774Y-103567425D01*
X139726823Y-103700550D01*
X139613610Y-103813763D01*
X139568837Y-103843679D01*
X139480484Y-103902715D01*
X139332565Y-103963985D01*
X139175535Y-103995220D01*
X139015425Y-103995220D01*
X138858395Y-103963985D01*
X138710476Y-103902715D01*
X138622123Y-103843679D01*
X138577350Y-103813763D01*
X138464137Y-103700550D01*
X138375186Y-103567425D01*
X138375185Y-103567424D01*
X138313915Y-103419505D01*
X138282680Y-103262475D01*
X138282680Y-103102365D01*
X138313915Y-102945335D01*
X138375185Y-102797416D01*
X138464136Y-102664292D01*
X138464137Y-102664290D01*
X138577350Y-102551077D01*
X138710475Y-102462126D01*
X138710476Y-102462125D01*
X138858395Y-102400855D01*
X139015425Y-102369620D01*
X139175535Y-102369620D01*
X139332565Y-102400855D01*
X139332565Y-102400855D01*
G37*
G36*
X141872565Y-102400855D02*
G01*
X142020484Y-102462125D01*
X142020485Y-102462126D01*
X142153610Y-102551077D01*
X142266823Y-102664290D01*
X142266824Y-102664292D01*
X142355775Y-102797416D01*
X142417045Y-102945335D01*
X142448280Y-103102365D01*
X142448280Y-103262475D01*
X142417045Y-103419505D01*
X142355775Y-103567424D01*
X142355774Y-103567425D01*
X142266823Y-103700550D01*
X142153610Y-103813763D01*
X142108837Y-103843679D01*
X142020484Y-103902715D01*
X141872565Y-103963985D01*
X141715535Y-103995220D01*
X141555425Y-103995220D01*
X141398395Y-103963985D01*
X141250476Y-103902715D01*
X141162123Y-103843679D01*
X141117350Y-103813763D01*
X141004137Y-103700550D01*
X140915186Y-103567425D01*
X140915185Y-103567424D01*
X140853915Y-103419505D01*
X140822680Y-103262475D01*
X140822680Y-103102365D01*
X140853915Y-102945335D01*
X140915185Y-102797416D01*
X141004136Y-102664292D01*
X141004137Y-102664290D01*
X141117350Y-102551077D01*
X141250475Y-102462126D01*
X141250476Y-102462125D01*
X141398395Y-102400855D01*
X141555425Y-102369620D01*
X141715535Y-102369620D01*
X141872565Y-102400855D01*
X141872565Y-102400855D01*
G37*
G36*
X144412565Y-102400855D02*
G01*
X144560484Y-102462125D01*
X144560485Y-102462126D01*
X144693610Y-102551077D01*
X144806823Y-102664290D01*
X144806824Y-102664292D01*
X144895775Y-102797416D01*
X144957045Y-102945335D01*
X144988280Y-103102365D01*
X144988280Y-103262475D01*
X144957045Y-103419505D01*
X144895775Y-103567424D01*
X144895774Y-103567425D01*
X144806823Y-103700550D01*
X144693610Y-103813763D01*
X144648837Y-103843679D01*
X144560484Y-103902715D01*
X144412565Y-103963985D01*
X144255535Y-103995220D01*
X144095425Y-103995220D01*
X143938395Y-103963985D01*
X143790476Y-103902715D01*
X143702123Y-103843679D01*
X143657350Y-103813763D01*
X143544137Y-103700550D01*
X143455186Y-103567425D01*
X143455185Y-103567424D01*
X143393915Y-103419505D01*
X143362680Y-103262475D01*
X143362680Y-103102365D01*
X143393915Y-102945335D01*
X143455185Y-102797416D01*
X143544136Y-102664292D01*
X143544137Y-102664290D01*
X143657350Y-102551077D01*
X143790475Y-102462126D01*
X143790476Y-102462125D01*
X143938395Y-102400855D01*
X144095425Y-102369620D01*
X144255535Y-102369620D01*
X144412565Y-102400855D01*
X144412565Y-102400855D01*
G37*
G36*
X146952565Y-102400855D02*
G01*
X147100484Y-102462125D01*
X147100485Y-102462126D01*
X147233610Y-102551077D01*
X147346823Y-102664290D01*
X147346824Y-102664292D01*
X147435775Y-102797416D01*
X147497045Y-102945335D01*
X147528280Y-103102365D01*
X147528280Y-103262475D01*
X147497045Y-103419505D01*
X147435775Y-103567424D01*
X147435774Y-103567425D01*
X147346823Y-103700550D01*
X147233610Y-103813763D01*
X147188837Y-103843679D01*
X147100484Y-103902715D01*
X146952565Y-103963985D01*
X146795535Y-103995220D01*
X146635425Y-103995220D01*
X146478395Y-103963985D01*
X146330476Y-103902715D01*
X146242123Y-103843679D01*
X146197350Y-103813763D01*
X146084137Y-103700550D01*
X145995186Y-103567425D01*
X145995185Y-103567424D01*
X145933915Y-103419505D01*
X145902680Y-103262475D01*
X145902680Y-103102365D01*
X145933915Y-102945335D01*
X145995185Y-102797416D01*
X146084136Y-102664292D01*
X146084137Y-102664290D01*
X146197350Y-102551077D01*
X146330475Y-102462126D01*
X146330476Y-102462125D01*
X146478395Y-102400855D01*
X146635425Y-102369620D01*
X146795535Y-102369620D01*
X146952565Y-102400855D01*
X146952565Y-102400855D01*
G37*
G36*
X152032565Y-102400855D02*
G01*
X152180484Y-102462125D01*
X152180485Y-102462126D01*
X152313610Y-102551077D01*
X152426823Y-102664290D01*
X152426824Y-102664292D01*
X152515775Y-102797416D01*
X152577045Y-102945335D01*
X152608280Y-103102365D01*
X152608280Y-103262475D01*
X152577045Y-103419505D01*
X152515775Y-103567424D01*
X152515774Y-103567425D01*
X152426823Y-103700550D01*
X152313610Y-103813763D01*
X152268837Y-103843679D01*
X152180484Y-103902715D01*
X152032565Y-103963985D01*
X151875535Y-103995220D01*
X151715425Y-103995220D01*
X151558395Y-103963985D01*
X151410476Y-103902715D01*
X151322123Y-103843679D01*
X151277350Y-103813763D01*
X151164137Y-103700550D01*
X151075186Y-103567425D01*
X151075185Y-103567424D01*
X151013915Y-103419505D01*
X150982680Y-103262475D01*
X150982680Y-103102365D01*
X151013915Y-102945335D01*
X151075185Y-102797416D01*
X151164136Y-102664292D01*
X151164137Y-102664290D01*
X151277350Y-102551077D01*
X151410475Y-102462126D01*
X151410476Y-102462125D01*
X151558395Y-102400855D01*
X151715425Y-102369620D01*
X151875535Y-102369620D01*
X152032565Y-102400855D01*
X152032565Y-102400855D01*
G37*
G36*
X159652565Y-102400855D02*
G01*
X159800484Y-102462125D01*
X159800485Y-102462126D01*
X159933610Y-102551077D01*
X160046823Y-102664290D01*
X160046824Y-102664292D01*
X160135775Y-102797416D01*
X160197045Y-102945335D01*
X160228280Y-103102365D01*
X160228280Y-103262475D01*
X160197045Y-103419505D01*
X160135775Y-103567424D01*
X160135774Y-103567425D01*
X160046823Y-103700550D01*
X159933610Y-103813763D01*
X159888837Y-103843679D01*
X159800484Y-103902715D01*
X159652565Y-103963985D01*
X159495535Y-103995220D01*
X159335425Y-103995220D01*
X159178395Y-103963985D01*
X159030476Y-103902715D01*
X158942123Y-103843679D01*
X158897350Y-103813763D01*
X158784137Y-103700550D01*
X158695186Y-103567425D01*
X158695185Y-103567424D01*
X158633915Y-103419505D01*
X158602680Y-103262475D01*
X158602680Y-103102365D01*
X158633915Y-102945335D01*
X158695185Y-102797416D01*
X158784136Y-102664292D01*
X158784137Y-102664290D01*
X158897350Y-102551077D01*
X159030475Y-102462126D01*
X159030476Y-102462125D01*
X159178395Y-102400855D01*
X159335425Y-102369620D01*
X159495535Y-102369620D01*
X159652565Y-102400855D01*
X159652565Y-102400855D01*
G37*
G36*
X154572565Y-102400855D02*
G01*
X154720484Y-102462125D01*
X154720485Y-102462126D01*
X154853610Y-102551077D01*
X154966823Y-102664290D01*
X154966824Y-102664292D01*
X155055775Y-102797416D01*
X155117045Y-102945335D01*
X155148280Y-103102365D01*
X155148280Y-103262475D01*
X155117045Y-103419505D01*
X155055775Y-103567424D01*
X155055774Y-103567425D01*
X154966823Y-103700550D01*
X154853610Y-103813763D01*
X154808837Y-103843679D01*
X154720484Y-103902715D01*
X154572565Y-103963985D01*
X154415535Y-103995220D01*
X154255425Y-103995220D01*
X154098395Y-103963985D01*
X153950476Y-103902715D01*
X153862123Y-103843679D01*
X153817350Y-103813763D01*
X153704137Y-103700550D01*
X153615186Y-103567425D01*
X153615185Y-103567424D01*
X153553915Y-103419505D01*
X153522680Y-103262475D01*
X153522680Y-103102365D01*
X153553915Y-102945335D01*
X153615185Y-102797416D01*
X153704136Y-102664292D01*
X153704137Y-102664290D01*
X153817350Y-102551077D01*
X153950475Y-102462126D01*
X153950476Y-102462125D01*
X154098395Y-102400855D01*
X154255425Y-102369620D01*
X154415535Y-102369620D01*
X154572565Y-102400855D01*
X154572565Y-102400855D01*
G37*
G36*
X157112565Y-102400855D02*
G01*
X157260484Y-102462125D01*
X157260485Y-102462126D01*
X157393610Y-102551077D01*
X157506823Y-102664290D01*
X157506824Y-102664292D01*
X157595775Y-102797416D01*
X157657045Y-102945335D01*
X157688280Y-103102365D01*
X157688280Y-103262475D01*
X157657045Y-103419505D01*
X157595775Y-103567424D01*
X157595774Y-103567425D01*
X157506823Y-103700550D01*
X157393610Y-103813763D01*
X157348837Y-103843679D01*
X157260484Y-103902715D01*
X157112565Y-103963985D01*
X156955535Y-103995220D01*
X156795425Y-103995220D01*
X156638395Y-103963985D01*
X156490476Y-103902715D01*
X156402123Y-103843679D01*
X156357350Y-103813763D01*
X156244137Y-103700550D01*
X156155186Y-103567425D01*
X156155185Y-103567424D01*
X156093915Y-103419505D01*
X156062680Y-103262475D01*
X156062680Y-103102365D01*
X156093915Y-102945335D01*
X156155185Y-102797416D01*
X156244136Y-102664292D01*
X156244137Y-102664290D01*
X156357350Y-102551077D01*
X156490475Y-102462126D01*
X156490476Y-102462125D01*
X156638395Y-102400855D01*
X156795425Y-102369620D01*
X156955535Y-102369620D01*
X157112565Y-102400855D01*
X157112565Y-102400855D01*
G37*
G36*
X126632565Y-102400855D02*
G01*
X126780484Y-102462125D01*
X126780485Y-102462126D01*
X126913610Y-102551077D01*
X127026823Y-102664290D01*
X127026824Y-102664292D01*
X127115775Y-102797416D01*
X127177045Y-102945335D01*
X127208280Y-103102365D01*
X127208280Y-103262475D01*
X127177045Y-103419505D01*
X127115775Y-103567424D01*
X127115774Y-103567425D01*
X127026823Y-103700550D01*
X126913610Y-103813763D01*
X126868837Y-103843679D01*
X126780484Y-103902715D01*
X126632565Y-103963985D01*
X126475535Y-103995220D01*
X126315425Y-103995220D01*
X126158395Y-103963985D01*
X126010476Y-103902715D01*
X125922123Y-103843679D01*
X125877350Y-103813763D01*
X125764137Y-103700550D01*
X125675186Y-103567425D01*
X125675185Y-103567424D01*
X125613915Y-103419505D01*
X125582680Y-103262475D01*
X125582680Y-103102365D01*
X125613915Y-102945335D01*
X125675185Y-102797416D01*
X125764136Y-102664292D01*
X125764137Y-102664290D01*
X125877350Y-102551077D01*
X126010475Y-102462126D01*
X126010476Y-102462125D01*
X126158395Y-102400855D01*
X126315425Y-102369620D01*
X126475535Y-102369620D01*
X126632565Y-102400855D01*
X126632565Y-102400855D01*
G37*
G36*
X131918440Y-98259240D02*
G01*
X131316840Y-98259240D01*
X131316840Y-96457640D01*
X131918440Y-96457640D01*
X131918440Y-98259240D01*
X131918440Y-98259240D01*
G37*
G36*
X133818440Y-98259240D02*
G01*
X133216840Y-98259240D01*
X133216840Y-97757640D01*
X133818440Y-97757640D01*
X133818440Y-98259240D01*
X133818440Y-98259240D01*
G37*
G36*
X133818440Y-96959240D02*
G01*
X133216840Y-96959240D01*
X133216840Y-96457640D01*
X133818440Y-96457640D01*
X133818440Y-96959240D01*
X133818440Y-96959240D01*
G37*
G36*
X128794848Y-95723963D02*
G01*
X128828813Y-95734266D01*
X128860114Y-95750997D01*
X128887548Y-95773512D01*
X128910063Y-95800946D01*
X128926794Y-95832247D01*
X128937097Y-95866212D01*
X128941180Y-95907670D01*
X128941180Y-96583690D01*
X128937097Y-96625148D01*
X128926794Y-96659113D01*
X128910063Y-96690414D01*
X128887548Y-96717848D01*
X128860114Y-96740363D01*
X128828813Y-96757094D01*
X128794848Y-96767397D01*
X128753390Y-96771480D01*
X128152370Y-96771480D01*
X128110912Y-96767397D01*
X128076947Y-96757094D01*
X128045646Y-96740363D01*
X128018212Y-96717848D01*
X127995697Y-96690414D01*
X127978966Y-96659113D01*
X127968663Y-96625148D01*
X127964580Y-96583690D01*
X127964580Y-95907670D01*
X127968663Y-95866212D01*
X127978966Y-95832247D01*
X127995697Y-95800946D01*
X128018212Y-95773512D01*
X128045646Y-95750997D01*
X128076947Y-95734266D01*
X128110912Y-95723963D01*
X128152370Y-95719880D01*
X128753390Y-95719880D01*
X128794848Y-95723963D01*
X128794848Y-95723963D01*
G37*
G36*
X127219848Y-95723963D02*
G01*
X127253813Y-95734266D01*
X127285114Y-95750997D01*
X127312548Y-95773512D01*
X127335063Y-95800946D01*
X127351794Y-95832247D01*
X127362097Y-95866212D01*
X127366180Y-95907670D01*
X127366180Y-96583690D01*
X127362097Y-96625148D01*
X127351794Y-96659113D01*
X127335063Y-96690414D01*
X127312548Y-96717848D01*
X127285114Y-96740363D01*
X127253813Y-96757094D01*
X127219848Y-96767397D01*
X127178390Y-96771480D01*
X126577370Y-96771480D01*
X126535912Y-96767397D01*
X126501947Y-96757094D01*
X126470646Y-96740363D01*
X126443212Y-96717848D01*
X126420697Y-96690414D01*
X126403966Y-96659113D01*
X126393663Y-96625148D01*
X126389580Y-96583690D01*
X126389580Y-95907670D01*
X126393663Y-95866212D01*
X126403966Y-95832247D01*
X126420697Y-95800946D01*
X126443212Y-95773512D01*
X126470646Y-95750997D01*
X126501947Y-95734266D01*
X126535912Y-95723963D01*
X126577370Y-95719880D01*
X127178390Y-95719880D01*
X127219848Y-95723963D01*
X127219848Y-95723963D01*
G37*
G36*
X130041888Y-93445583D02*
G01*
X130075853Y-93455886D01*
X130107154Y-93472617D01*
X130134588Y-93495132D01*
X130157103Y-93522566D01*
X130173834Y-93553867D01*
X130184137Y-93587832D01*
X130188220Y-93629290D01*
X130188220Y-94305310D01*
X130184137Y-94346768D01*
X130173834Y-94380733D01*
X130157103Y-94412034D01*
X130134588Y-94439468D01*
X130107154Y-94461983D01*
X130075853Y-94478714D01*
X130041888Y-94489017D01*
X130000430Y-94493100D01*
X129399410Y-94493100D01*
X129357952Y-94489017D01*
X129323987Y-94478714D01*
X129292686Y-94461983D01*
X129265252Y-94439468D01*
X129242737Y-94412034D01*
X129226006Y-94380733D01*
X129215703Y-94346768D01*
X129211620Y-94305310D01*
X129211620Y-93629290D01*
X129215703Y-93587832D01*
X129226006Y-93553867D01*
X129242737Y-93522566D01*
X129265252Y-93495132D01*
X129292686Y-93472617D01*
X129323987Y-93455886D01*
X129357952Y-93445583D01*
X129399410Y-93441500D01*
X130000430Y-93441500D01*
X130041888Y-93445583D01*
X130041888Y-93445583D01*
G37*
G36*
X131616888Y-93445583D02*
G01*
X131650853Y-93455886D01*
X131682154Y-93472617D01*
X131709588Y-93495132D01*
X131732103Y-93522566D01*
X131748834Y-93553867D01*
X131759137Y-93587832D01*
X131763220Y-93629290D01*
X131763220Y-94305310D01*
X131759137Y-94346768D01*
X131748834Y-94380733D01*
X131732103Y-94412034D01*
X131709588Y-94439468D01*
X131682154Y-94461983D01*
X131650853Y-94478714D01*
X131616888Y-94489017D01*
X131575430Y-94493100D01*
X130974410Y-94493100D01*
X130932952Y-94489017D01*
X130898987Y-94478714D01*
X130867686Y-94461983D01*
X130840252Y-94439468D01*
X130817737Y-94412034D01*
X130801006Y-94380733D01*
X130790703Y-94346768D01*
X130786620Y-94305310D01*
X130786620Y-93629290D01*
X130790703Y-93587832D01*
X130801006Y-93553867D01*
X130817737Y-93522566D01*
X130840252Y-93495132D01*
X130867686Y-93472617D01*
X130898987Y-93455886D01*
X130932952Y-93445583D01*
X130974410Y-93441500D01*
X131575430Y-93441500D01*
X131616888Y-93445583D01*
X131616888Y-93445583D01*
G37*
G36*
X131555828Y-91527883D02*
G01*
X131589793Y-91538186D01*
X131621094Y-91554917D01*
X131648528Y-91577432D01*
X131671043Y-91604866D01*
X131687774Y-91636167D01*
X131698077Y-91670132D01*
X131702160Y-91711590D01*
X131702160Y-92387610D01*
X131698077Y-92429068D01*
X131687774Y-92463033D01*
X131671043Y-92494334D01*
X131648528Y-92521768D01*
X131621094Y-92544283D01*
X131589793Y-92561014D01*
X131555828Y-92571317D01*
X131514370Y-92575400D01*
X130913350Y-92575400D01*
X130871892Y-92571317D01*
X130837927Y-92561014D01*
X130806626Y-92544283D01*
X130779192Y-92521768D01*
X130756677Y-92494334D01*
X130739946Y-92463033D01*
X130729643Y-92429068D01*
X130725560Y-92387610D01*
X130725560Y-91711590D01*
X130729643Y-91670132D01*
X130739946Y-91636167D01*
X130756677Y-91604866D01*
X130779192Y-91577432D01*
X130806626Y-91554917D01*
X130837927Y-91538186D01*
X130871892Y-91527883D01*
X130913350Y-91523800D01*
X131514370Y-91523800D01*
X131555828Y-91527883D01*
X131555828Y-91527883D01*
G37*
G36*
X129980828Y-91527883D02*
G01*
X130014793Y-91538186D01*
X130046094Y-91554917D01*
X130073528Y-91577432D01*
X130096043Y-91604866D01*
X130112774Y-91636167D01*
X130123077Y-91670132D01*
X130127160Y-91711590D01*
X130127160Y-92387610D01*
X130123077Y-92429068D01*
X130112774Y-92463033D01*
X130096043Y-92494334D01*
X130073528Y-92521768D01*
X130046094Y-92544283D01*
X130014793Y-92561014D01*
X129980828Y-92571317D01*
X129939370Y-92575400D01*
X129338350Y-92575400D01*
X129296892Y-92571317D01*
X129262927Y-92561014D01*
X129231626Y-92544283D01*
X129204192Y-92521768D01*
X129181677Y-92494334D01*
X129164946Y-92463033D01*
X129154643Y-92429068D01*
X129150560Y-92387610D01*
X129150560Y-91711590D01*
X129154643Y-91670132D01*
X129164946Y-91636167D01*
X129181677Y-91604866D01*
X129204192Y-91577432D01*
X129231626Y-91554917D01*
X129262927Y-91538186D01*
X129296892Y-91527883D01*
X129338350Y-91523800D01*
X129939370Y-91523800D01*
X129980828Y-91527883D01*
X129980828Y-91527883D01*
G37*
G36*
X131571268Y-89818463D02*
G01*
X131605233Y-89828766D01*
X131636534Y-89845497D01*
X131663968Y-89868012D01*
X131686483Y-89895446D01*
X131703214Y-89926747D01*
X131713517Y-89960712D01*
X131717600Y-90002170D01*
X131717600Y-90678190D01*
X131713517Y-90719648D01*
X131703214Y-90753613D01*
X131686483Y-90784914D01*
X131663968Y-90812348D01*
X131636534Y-90834863D01*
X131605233Y-90851594D01*
X131571268Y-90861897D01*
X131529810Y-90865980D01*
X130928790Y-90865980D01*
X130887332Y-90861897D01*
X130853367Y-90851594D01*
X130822066Y-90834863D01*
X130794632Y-90812348D01*
X130772117Y-90784914D01*
X130755386Y-90753613D01*
X130745083Y-90719648D01*
X130741000Y-90678190D01*
X130741000Y-90002170D01*
X130745083Y-89960712D01*
X130755386Y-89926747D01*
X130772117Y-89895446D01*
X130794632Y-89868012D01*
X130822066Y-89845497D01*
X130853367Y-89828766D01*
X130887332Y-89818463D01*
X130928790Y-89814380D01*
X131529810Y-89814380D01*
X131571268Y-89818463D01*
X131571268Y-89818463D01*
G37*
G36*
X129996268Y-89818463D02*
G01*
X130030233Y-89828766D01*
X130061534Y-89845497D01*
X130088968Y-89868012D01*
X130111483Y-89895446D01*
X130128214Y-89926747D01*
X130138517Y-89960712D01*
X130142600Y-90002170D01*
X130142600Y-90678190D01*
X130138517Y-90719648D01*
X130128214Y-90753613D01*
X130111483Y-90784914D01*
X130088968Y-90812348D01*
X130061534Y-90834863D01*
X130030233Y-90851594D01*
X129996268Y-90861897D01*
X129954810Y-90865980D01*
X129353790Y-90865980D01*
X129312332Y-90861897D01*
X129278367Y-90851594D01*
X129247066Y-90834863D01*
X129219632Y-90812348D01*
X129197117Y-90784914D01*
X129180386Y-90753613D01*
X129170083Y-90719648D01*
X129166000Y-90678190D01*
X129166000Y-90002170D01*
X129170083Y-89960712D01*
X129180386Y-89926747D01*
X129197117Y-89895446D01*
X129219632Y-89868012D01*
X129247066Y-89845497D01*
X129278367Y-89828766D01*
X129312332Y-89818463D01*
X129353790Y-89814380D01*
X129954810Y-89814380D01*
X129996268Y-89818463D01*
X129996268Y-89818463D01*
G37*
G36*
X129511956Y-87276974D02*
G01*
X129521536Y-87279880D01*
X129529824Y-87284310D01*
X129530360Y-87284597D01*
X129538095Y-87290945D01*
X129548054Y-87303080D01*
X129555374Y-87314036D01*
X129572701Y-87331363D01*
X129593076Y-87344977D01*
X129615715Y-87354355D01*
X129639748Y-87359135D01*
X129664252Y-87359135D01*
X129688285Y-87354355D01*
X129710924Y-87344977D01*
X129731298Y-87331364D01*
X129748625Y-87314037D01*
X129755946Y-87303081D01*
X129759556Y-87298682D01*
X129759557Y-87298680D01*
X129765905Y-87290945D01*
X129773640Y-87284597D01*
X129774176Y-87284310D01*
X129782464Y-87279880D01*
X129792044Y-87276974D01*
X129808138Y-87275389D01*
X130295862Y-87275389D01*
X130314200Y-87277195D01*
X130326451Y-87277797D01*
X130344871Y-87277797D01*
X130367109Y-87279987D01*
X130451191Y-87296712D01*
X130472588Y-87303203D01*
X130551789Y-87336008D01*
X130571495Y-87346542D01*
X130642785Y-87394176D01*
X130647554Y-87398090D01*
X130647557Y-87398092D01*
X130655292Y-87404440D01*
X130655296Y-87404444D01*
X130660059Y-87408353D01*
X130720687Y-87468981D01*
X130724596Y-87473744D01*
X130724600Y-87473748D01*
X130730948Y-87481483D01*
X130734864Y-87486255D01*
X130782498Y-87557545D01*
X130793032Y-87577251D01*
X130825837Y-87656452D01*
X130832328Y-87677849D01*
X130849053Y-87761931D01*
X130851243Y-87784169D01*
X130851243Y-87802589D01*
X130851845Y-87814840D01*
X130853651Y-87833178D01*
X130853651Y-88320902D01*
X130851845Y-88339240D01*
X130851243Y-88351491D01*
X130851243Y-88369911D01*
X130849053Y-88392149D01*
X130832328Y-88476231D01*
X130825837Y-88497628D01*
X130793032Y-88576829D01*
X130782498Y-88596535D01*
X130734864Y-88667825D01*
X130730950Y-88672594D01*
X130730948Y-88672597D01*
X130724600Y-88680332D01*
X130724596Y-88680336D01*
X130720687Y-88685099D01*
X130660059Y-88745727D01*
X130655296Y-88749636D01*
X130655292Y-88749640D01*
X130647557Y-88755988D01*
X130647554Y-88755990D01*
X130642785Y-88759904D01*
X130571495Y-88807538D01*
X130551789Y-88818072D01*
X130472588Y-88850877D01*
X130451191Y-88857368D01*
X130367109Y-88874093D01*
X130344871Y-88876283D01*
X130326451Y-88876283D01*
X130314200Y-88876885D01*
X130295862Y-88878691D01*
X129808138Y-88878691D01*
X129792044Y-88877106D01*
X129782464Y-88874200D01*
X129773642Y-88869484D01*
X129773640Y-88869483D01*
X129765905Y-88863135D01*
X129759557Y-88855400D01*
X129755946Y-88851000D01*
X129748626Y-88840044D01*
X129731299Y-88822717D01*
X129710924Y-88809103D01*
X129688285Y-88799725D01*
X129664252Y-88794945D01*
X129639748Y-88794945D01*
X129615715Y-88799725D01*
X129593076Y-88809103D01*
X129572702Y-88822716D01*
X129555375Y-88840043D01*
X129548054Y-88850999D01*
X129544444Y-88855398D01*
X129544443Y-88855400D01*
X129538095Y-88863135D01*
X129530360Y-88869483D01*
X129530358Y-88869484D01*
X129521536Y-88874200D01*
X129511956Y-88877106D01*
X129495862Y-88878691D01*
X129008138Y-88878691D01*
X128989800Y-88876885D01*
X128977549Y-88876283D01*
X128959129Y-88876283D01*
X128936891Y-88874093D01*
X128852809Y-88857368D01*
X128831412Y-88850877D01*
X128752211Y-88818072D01*
X128732505Y-88807538D01*
X128661215Y-88759904D01*
X128656446Y-88755990D01*
X128656443Y-88755988D01*
X128648708Y-88749640D01*
X128648704Y-88749636D01*
X128643941Y-88745727D01*
X128583313Y-88685099D01*
X128579404Y-88680336D01*
X128579400Y-88680332D01*
X128573052Y-88672597D01*
X128573050Y-88672594D01*
X128569136Y-88667825D01*
X128521502Y-88596535D01*
X128510968Y-88576829D01*
X128478163Y-88497628D01*
X128471672Y-88476231D01*
X128454947Y-88392149D01*
X128452757Y-88369911D01*
X128452757Y-88351491D01*
X128452155Y-88339240D01*
X128450349Y-88320902D01*
X128450349Y-87833178D01*
X128452155Y-87814840D01*
X128452757Y-87802589D01*
X128452757Y-87784169D01*
X128454947Y-87761931D01*
X128471672Y-87677849D01*
X128478163Y-87656452D01*
X128510968Y-87577251D01*
X128521502Y-87557545D01*
X128569136Y-87486255D01*
X128573052Y-87481483D01*
X128579400Y-87473748D01*
X128579404Y-87473744D01*
X128583313Y-87468981D01*
X128643941Y-87408353D01*
X128648704Y-87404444D01*
X128648708Y-87404440D01*
X128656443Y-87398092D01*
X128656446Y-87398090D01*
X128661215Y-87394176D01*
X128732505Y-87346542D01*
X128752211Y-87336008D01*
X128831412Y-87303203D01*
X128852809Y-87296712D01*
X128936891Y-87279987D01*
X128959129Y-87277797D01*
X128977549Y-87277797D01*
X128989800Y-87277195D01*
X129008138Y-87275389D01*
X129495862Y-87275389D01*
X129511956Y-87276974D01*
X129511956Y-87276974D01*
G37*
G36*
X154106380Y-85018880D02*
G01*
X152734780Y-85018880D01*
X152734780Y-79837280D01*
X154106380Y-79837280D01*
X154106380Y-85018880D01*
X154106380Y-85018880D01*
G37*
G36*
X132136380Y-85018880D02*
G01*
X130764780Y-85018880D01*
X130764780Y-79837280D01*
X132136380Y-79837280D01*
X132136380Y-85018880D01*
X132136380Y-85018880D01*
G37*
G36*
X144466380Y-84458880D02*
G01*
X140404780Y-84458880D01*
X140404780Y-80397280D01*
X144466380Y-80397280D01*
X144466380Y-84458880D01*
X144466380Y-84458880D01*
G37*
G36*
X173309312Y-72239313D02*
G01*
X173764282Y-72427768D01*
X173764284Y-72427769D01*
X173970405Y-72565495D01*
X174173746Y-72701363D01*
X174521967Y-73049584D01*
X174795562Y-73459048D01*
X174984017Y-73914018D01*
X175080090Y-74397010D01*
X175080090Y-74889470D01*
X174984017Y-75372462D01*
X174795562Y-75827432D01*
X174795561Y-75827434D01*
X174521966Y-76236897D01*
X174173747Y-76585116D01*
X173764284Y-76858711D01*
X173764283Y-76858712D01*
X173764282Y-76858712D01*
X173309312Y-77047167D01*
X172826320Y-77143240D01*
X172333860Y-77143240D01*
X171850868Y-77047167D01*
X171395898Y-76858712D01*
X171395897Y-76858712D01*
X171395896Y-76858711D01*
X170986433Y-76585116D01*
X170638214Y-76236897D01*
X170364619Y-75827434D01*
X170364618Y-75827432D01*
X170176163Y-75372462D01*
X170080090Y-74889470D01*
X170080090Y-74397010D01*
X170176163Y-73914018D01*
X170364618Y-73459048D01*
X170638213Y-73049584D01*
X170986434Y-72701363D01*
X171189775Y-72565495D01*
X171395896Y-72427769D01*
X171395898Y-72427768D01*
X171850868Y-72239313D01*
X172333860Y-72143240D01*
X172826320Y-72143240D01*
X173309312Y-72239313D01*
X173309312Y-72239313D01*
G37*
G36*
X114325902Y-72239313D02*
G01*
X114780872Y-72427768D01*
X114780874Y-72427769D01*
X114986995Y-72565495D01*
X115190336Y-72701363D01*
X115538557Y-73049584D01*
X115812152Y-73459048D01*
X116000607Y-73914018D01*
X116096680Y-74397010D01*
X116096680Y-74889470D01*
X116000607Y-75372462D01*
X115812152Y-75827432D01*
X115812151Y-75827434D01*
X115538556Y-76236897D01*
X115190337Y-76585116D01*
X114780874Y-76858711D01*
X114780873Y-76858712D01*
X114780872Y-76858712D01*
X114325902Y-77047167D01*
X113842910Y-77143240D01*
X113350450Y-77143240D01*
X112867458Y-77047167D01*
X112412488Y-76858712D01*
X112412487Y-76858712D01*
X112412486Y-76858711D01*
X112003023Y-76585116D01*
X111654804Y-76236897D01*
X111381209Y-75827434D01*
X111381208Y-75827432D01*
X111192753Y-75372462D01*
X111096680Y-74889470D01*
X111096680Y-74397010D01*
X111192753Y-73914018D01*
X111381208Y-73459048D01*
X111654803Y-73049584D01*
X112003024Y-72701363D01*
X112206365Y-72565495D01*
X112412486Y-72427769D01*
X112412488Y-72427768D01*
X112867458Y-72239313D01*
X113350450Y-72143240D01*
X113842910Y-72143240D01*
X114325902Y-72239313D01*
X114325902Y-72239313D01*
G37*
M02*
