G04 #@! TF.GenerationSoftware,KiCad,Pcbnew,(5.1.4)-1*
G04 #@! TF.CreationDate,2020-01-30T13:19:47+01:00*
G04 #@! TF.ProjectId,teensy4_header_breakout,7465656e-7379-4345-9f68-65616465725f,rev?*
G04 #@! TF.SameCoordinates,Original*
G04 #@! TF.FileFunction,Legend,Top*
G04 #@! TF.FilePolarity,Positive*
%FSLAX46Y46*%
G04 Gerber Fmt 4.6, Leading zero omitted, Abs format (unit mm)*
G04 Created by KiCad (PCBNEW (5.1.4)-1) date 2020-01-30 13:19:47*
%MOMM*%
%LPD*%
G04 APERTURE LIST*
%ADD10C,0.120000*%
%ADD11C,0.150000*%
%ADD12C,0.050000*%
%ADD13C,0.100000*%
%ADD14C,0.125000*%
G04 APERTURE END LIST*
D10*
X173356120Y-105392220D02*
G75*
G03X173356120Y-105392220I-1200000J0D01*
G01*
X173356120Y-108544360D02*
G75*
G03X173356120Y-108544360I-1200000J0D01*
G01*
X173356120Y-102095300D02*
G75*
G03X173356120Y-102095300I-1200000J0D01*
G01*
X127546500Y-72611460D02*
X127546500Y-75211460D01*
X121246500Y-77361460D02*
X121246500Y-77111460D01*
X127546500Y-77361460D02*
X121246500Y-77361460D01*
X127546500Y-77111460D02*
X127546500Y-77361460D01*
X121246500Y-75211460D02*
X121246500Y-72611460D01*
X127546500Y-70461460D02*
X127546500Y-70711460D01*
X121246500Y-70461460D02*
X127546500Y-70461460D01*
X121246500Y-70711460D02*
X121246500Y-70461460D01*
X162495000Y-83703000D02*
X159045000Y-83703000D01*
X162495000Y-83703000D02*
X164445000Y-83703000D01*
X162495000Y-92573000D02*
X160545000Y-92573000D01*
X162495000Y-92573000D02*
X164445000Y-92573000D01*
X116039540Y-118713380D02*
X116039540Y-115713380D01*
X112819540Y-117213380D02*
X112819540Y-115713380D01*
X123646220Y-91561400D02*
X123646220Y-91671400D01*
X122486220Y-78801400D02*
X123646220Y-78801400D01*
X123646220Y-78801400D02*
X123646220Y-90061400D01*
X123646220Y-91671400D02*
X121836220Y-91671400D01*
X119236220Y-78801400D02*
X113636220Y-78801400D01*
X119936220Y-91671400D02*
X113636220Y-91671400D01*
X118134860Y-119700359D02*
X118134860Y-119374801D01*
X117114860Y-119700359D02*
X117114860Y-119374801D01*
X168830720Y-110126627D02*
X168830720Y-109784093D01*
X167810720Y-110126627D02*
X167810720Y-109784093D01*
X165504400Y-109850133D02*
X165504400Y-110192667D01*
X166524400Y-109850133D02*
X166524400Y-110192667D01*
X170110880Y-85953719D02*
X170110880Y-85628161D01*
X169090880Y-85953719D02*
X169090880Y-85628161D01*
X172307980Y-85976779D02*
X172307980Y-85651221D01*
X171287980Y-85976779D02*
X171287980Y-85651221D01*
X169101040Y-90433841D02*
X169101040Y-90759399D01*
X170121040Y-90433841D02*
X170121040Y-90759399D01*
X172285120Y-90769759D02*
X172285120Y-90444201D01*
X171265120Y-90769759D02*
X171265120Y-90444201D01*
X154938000Y-90464321D02*
X154938000Y-90789879D01*
X155958000Y-90464321D02*
X155958000Y-90789879D01*
X153971720Y-90764679D02*
X153971720Y-90439121D01*
X152951720Y-90764679D02*
X152951720Y-90439121D01*
X155958000Y-85735279D02*
X155958000Y-85409721D01*
X154938000Y-85735279D02*
X154938000Y-85409721D01*
X154027600Y-85735279D02*
X154027600Y-85409721D01*
X153007600Y-85735279D02*
X153007600Y-85409721D01*
X144021080Y-84952521D02*
X144021080Y-85278079D01*
X145041080Y-84952521D02*
X145041080Y-85278079D01*
X147144200Y-85278279D02*
X147144200Y-84952721D01*
X146124200Y-85278279D02*
X146124200Y-84952721D01*
X143881380Y-90936761D02*
X143881380Y-91262319D01*
X144901380Y-90936761D02*
X144901380Y-91262319D01*
X147047680Y-91292799D02*
X147047680Y-90967241D01*
X146027680Y-91292799D02*
X146027680Y-90967241D01*
X129276380Y-90921521D02*
X129276380Y-91247079D01*
X130296380Y-90921521D02*
X130296380Y-91247079D01*
X128043400Y-91249619D02*
X128043400Y-90924061D01*
X127023400Y-91249619D02*
X127023400Y-90924061D01*
X130197320Y-85204619D02*
X130197320Y-84879061D01*
X129177320Y-85204619D02*
X129177320Y-84879061D01*
X128137380Y-85212239D02*
X128137380Y-84886681D01*
X127117380Y-85212239D02*
X127117380Y-84886681D01*
X136797820Y-83476940D02*
X133347820Y-83476940D01*
X136797820Y-83476940D02*
X138747820Y-83476940D01*
X136797820Y-92346940D02*
X134847820Y-92346940D01*
X136797820Y-92346940D02*
X138747820Y-92346940D01*
X114256501Y-113842260D02*
X114582059Y-113842260D01*
X114256501Y-112822260D02*
X114582059Y-112822260D01*
X165776400Y-106831600D02*
X165776400Y-105431600D01*
X166476400Y-104731600D02*
X167076400Y-104731600D01*
X167776400Y-105431600D02*
X167776400Y-106831600D01*
X167076400Y-107531600D02*
X166476400Y-107531600D01*
X166476400Y-107531600D02*
G75*
G02X165776400Y-106831600I0J700000D01*
G01*
X167776400Y-106831600D02*
G75*
G02X167076400Y-107531600I-700000J0D01*
G01*
X167076400Y-104731600D02*
G75*
G02X167776400Y-105431600I0J-700000D01*
G01*
X165776400Y-105431600D02*
G75*
G02X166476400Y-104731600I700000J0D01*
G01*
X166980360Y-82962740D02*
X166980360Y-81562740D01*
X167680360Y-80862740D02*
X168280360Y-80862740D01*
X168980360Y-81562740D02*
X168980360Y-82962740D01*
X168280360Y-83662740D02*
X167680360Y-83662740D01*
X167680360Y-83662740D02*
G75*
G02X166980360Y-82962740I0J700000D01*
G01*
X168980360Y-82962740D02*
G75*
G02X168280360Y-83662740I-700000J0D01*
G01*
X168280360Y-80862740D02*
G75*
G02X168980360Y-81562740I0J-700000D01*
G01*
X166980360Y-81562740D02*
G75*
G02X167680360Y-80862740I700000J0D01*
G01*
X168228020Y-92822520D02*
X169628020Y-92822520D01*
X170328020Y-93522520D02*
X170328020Y-94122520D01*
X169628020Y-94822520D02*
X168228020Y-94822520D01*
X167528020Y-94122520D02*
X167528020Y-93522520D01*
X167528020Y-93522520D02*
G75*
G02X168228020Y-92822520I700000J0D01*
G01*
X168228020Y-94822520D02*
G75*
G02X167528020Y-94122520I0J700000D01*
G01*
X170328020Y-94122520D02*
G75*
G02X169628020Y-94822520I-700000J0D01*
G01*
X169628020Y-92822520D02*
G75*
G02X170328020Y-93522520I0J-700000D01*
G01*
X156742120Y-95269560D02*
X155342120Y-95269560D01*
X154642120Y-94569560D02*
X154642120Y-93969560D01*
X155342120Y-93269560D02*
X156742120Y-93269560D01*
X157442120Y-93969560D02*
X157442120Y-94569560D01*
X157442120Y-94569560D02*
G75*
G02X156742120Y-95269560I-700000J0D01*
G01*
X156742120Y-93269560D02*
G75*
G02X157442120Y-93969560I0J-700000D01*
G01*
X154642120Y-93969560D02*
G75*
G02X155342120Y-93269560I700000J0D01*
G01*
X155342120Y-95269560D02*
G75*
G02X154642120Y-94569560I0J700000D01*
G01*
X155692600Y-82782400D02*
X155692600Y-81382400D01*
X156392600Y-80682400D02*
X156992600Y-80682400D01*
X157692600Y-81382400D02*
X157692600Y-82782400D01*
X156992600Y-83482400D02*
X156392600Y-83482400D01*
X156392600Y-83482400D02*
G75*
G02X155692600Y-82782400I0J700000D01*
G01*
X157692600Y-82782400D02*
G75*
G02X156992600Y-83482400I-700000J0D01*
G01*
X156992600Y-80682400D02*
G75*
G02X157692600Y-81382400I0J-700000D01*
G01*
X155692600Y-81382400D02*
G75*
G02X156392600Y-80682400I700000J0D01*
G01*
X141351760Y-82358220D02*
X141351760Y-80958220D01*
X142051760Y-80258220D02*
X142651760Y-80258220D01*
X143351760Y-80958220D02*
X143351760Y-82358220D01*
X142651760Y-83058220D02*
X142051760Y-83058220D01*
X142051760Y-83058220D02*
G75*
G02X141351760Y-82358220I0J700000D01*
G01*
X143351760Y-82358220D02*
G75*
G02X142651760Y-83058220I-700000J0D01*
G01*
X142651760Y-80258220D02*
G75*
G02X143351760Y-80958220I0J-700000D01*
G01*
X141351760Y-80958220D02*
G75*
G02X142051760Y-80258220I700000J0D01*
G01*
X142835640Y-93300040D02*
X144235640Y-93300040D01*
X144935640Y-94000040D02*
X144935640Y-94600040D01*
X144235640Y-95300040D02*
X142835640Y-95300040D01*
X142135640Y-94600040D02*
X142135640Y-94000040D01*
X142135640Y-94000040D02*
G75*
G02X142835640Y-93300040I700000J0D01*
G01*
X142835640Y-95300040D02*
G75*
G02X142135640Y-94600040I0J700000D01*
G01*
X144935640Y-94600040D02*
G75*
G02X144235640Y-95300040I-700000J0D01*
G01*
X144235640Y-93300040D02*
G75*
G02X144935640Y-94000040I0J-700000D01*
G01*
X129971000Y-95985840D02*
X128571000Y-95985840D01*
X127871000Y-95285840D02*
X127871000Y-94685840D01*
X128571000Y-93985840D02*
X129971000Y-93985840D01*
X130671000Y-94685840D02*
X130671000Y-95285840D01*
X130671000Y-95285840D02*
G75*
G02X129971000Y-95985840I-700000J0D01*
G01*
X129971000Y-93985840D02*
G75*
G02X130671000Y-94685840I0J-700000D01*
G01*
X127871000Y-94685840D02*
G75*
G02X128571000Y-93985840I700000J0D01*
G01*
X128571000Y-95985840D02*
G75*
G02X127871000Y-95285840I0J700000D01*
G01*
X130173220Y-82210900D02*
X130173220Y-80810900D01*
X130873220Y-80110900D02*
X131473220Y-80110900D01*
X132173220Y-80810900D02*
X132173220Y-82210900D01*
X131473220Y-82910900D02*
X130873220Y-82910900D01*
X130873220Y-82910900D02*
G75*
G02X130173220Y-82210900I0J700000D01*
G01*
X132173220Y-82210900D02*
G75*
G02X131473220Y-82910900I-700000J0D01*
G01*
X131473220Y-80110900D02*
G75*
G02X132173220Y-80810900I0J-700000D01*
G01*
X130173220Y-80810900D02*
G75*
G02X130873220Y-80110900I700000J0D01*
G01*
X165837540Y-83196900D02*
X165837540Y-80911900D01*
X164367540Y-83196900D02*
X165837540Y-83196900D01*
X164367540Y-80911900D02*
X164367540Y-83196900D01*
X163876520Y-94631180D02*
X166161520Y-94631180D01*
X163876520Y-93161180D02*
X163876520Y-94631180D01*
X166161520Y-93161180D02*
X163876520Y-93161180D01*
X158589040Y-93155300D02*
X158589040Y-95440300D01*
X160059040Y-93155300D02*
X158589040Y-93155300D01*
X160059040Y-95440300D02*
X160059040Y-93155300D01*
X160678800Y-83196900D02*
X160678800Y-80911900D01*
X159208800Y-83196900D02*
X160678800Y-83196900D01*
X159208800Y-80911900D02*
X159208800Y-83196900D01*
X140556920Y-82838760D02*
X140556920Y-80553760D01*
X139086920Y-82838760D02*
X140556920Y-82838760D01*
X139086920Y-80553760D02*
X139086920Y-82838760D01*
X138911660Y-92860660D02*
X138911660Y-95145660D01*
X140381660Y-92860660D02*
X138911660Y-92860660D01*
X140381660Y-95145660D02*
X140381660Y-92860660D01*
X131822520Y-92909120D02*
X131822520Y-95194120D01*
X133292520Y-92909120D02*
X131822520Y-92909120D01*
X133292520Y-95194120D02*
X133292520Y-92909120D01*
X134387260Y-82823520D02*
X134387260Y-80538520D01*
X132917260Y-82823520D02*
X134387260Y-82823520D01*
X132917260Y-80538520D02*
X132917260Y-82823520D01*
X166446520Y-116446300D02*
X166446520Y-119896300D01*
X166446520Y-116446300D02*
X166446520Y-114496300D01*
X171566520Y-116446300D02*
X171566520Y-118396300D01*
X171566520Y-116446300D02*
X171566520Y-114496300D01*
X164561401Y-126745460D02*
X164886959Y-126745460D01*
X164561401Y-125725460D02*
X164886959Y-125725460D01*
X118008081Y-116184140D02*
X118333639Y-116184140D01*
X118008081Y-115164140D02*
X118333639Y-115164140D01*
X117990501Y-113918460D02*
X118316059Y-113918460D01*
X117990501Y-112898460D02*
X118316059Y-112898460D01*
X120090660Y-119735919D02*
X120090660Y-119410361D01*
X119070660Y-119735919D02*
X119070660Y-119410361D01*
X120399080Y-122519121D02*
X120399080Y-122844679D01*
X121419080Y-122519121D02*
X121419080Y-122844679D01*
X170601321Y-121815320D02*
X170926879Y-121815320D01*
X170601321Y-120795320D02*
X170926879Y-120795320D01*
X167967120Y-85948839D02*
X167967120Y-85623281D01*
X166947120Y-85948839D02*
X166947120Y-85623281D01*
X166947120Y-90428761D02*
X166947120Y-90754319D01*
X167967120Y-90428761D02*
X167967120Y-90754319D01*
X156626341Y-88607360D02*
X156951899Y-88607360D01*
X156626341Y-87587360D02*
X156951899Y-87587360D01*
X156995400Y-90464321D02*
X156995400Y-90789879D01*
X158015400Y-90464321D02*
X158015400Y-90789879D01*
X158040800Y-85760779D02*
X158040800Y-85435221D01*
X157020800Y-85760779D02*
X157020800Y-85435221D01*
X142856680Y-85270459D02*
X142856680Y-84944901D01*
X141836680Y-85270459D02*
X141836680Y-84944901D01*
X141742700Y-90908821D02*
X141742700Y-91234379D01*
X142762700Y-90908821D02*
X142762700Y-91234379D01*
X130680141Y-88406700D02*
X131005699Y-88406700D01*
X130680141Y-87386700D02*
X131005699Y-87386700D01*
X131087400Y-90921521D02*
X131087400Y-91247079D01*
X132107400Y-90921521D02*
X132107400Y-91247079D01*
X132155660Y-85186839D02*
X132155660Y-84861281D01*
X131135660Y-85186839D02*
X131135660Y-84861281D01*
D11*
X168897395Y-105595680D02*
X168897395Y-104595680D01*
X168897395Y-105071871D02*
X169468823Y-105071871D01*
X169468823Y-105595680D02*
X169468823Y-104595680D01*
X169897395Y-104690919D02*
X169945014Y-104643300D01*
X170040252Y-104595680D01*
X170278347Y-104595680D01*
X170373585Y-104643300D01*
X170421204Y-104690919D01*
X170468823Y-104786157D01*
X170468823Y-104881395D01*
X170421204Y-105024252D01*
X169849776Y-105595680D01*
X170468823Y-105595680D01*
X169034555Y-107769920D02*
X169034555Y-106769920D01*
X169034555Y-107246111D02*
X169605983Y-107246111D01*
X169605983Y-107769920D02*
X169605983Y-106769920D01*
X170605983Y-107769920D02*
X170034555Y-107769920D01*
X170320269Y-107769920D02*
X170320269Y-106769920D01*
X170225031Y-106912778D01*
X170129793Y-107008016D01*
X170034555Y-107055635D01*
X170918024Y-99597300D02*
X170822786Y-99549680D01*
X170679929Y-99549680D01*
X170537072Y-99597300D01*
X170441834Y-99692538D01*
X170394215Y-99787776D01*
X170346596Y-99978252D01*
X170346596Y-100121109D01*
X170394215Y-100311585D01*
X170441834Y-100406823D01*
X170537072Y-100502061D01*
X170679929Y-100549680D01*
X170775167Y-100549680D01*
X170918024Y-100502061D01*
X170965643Y-100454442D01*
X170965643Y-100121109D01*
X170775167Y-100121109D01*
X171394215Y-100549680D02*
X171394215Y-99549680D01*
X171965643Y-100549680D01*
X171965643Y-99549680D01*
X172441834Y-100549680D02*
X172441834Y-99549680D01*
X172679929Y-99549680D01*
X172822786Y-99597300D01*
X172918024Y-99692538D01*
X172965643Y-99787776D01*
X173013262Y-99978252D01*
X173013262Y-100121109D01*
X172965643Y-100311585D01*
X172918024Y-100406823D01*
X172822786Y-100502061D01*
X172679929Y-100549680D01*
X172441834Y-100549680D01*
X173965643Y-100549680D02*
X173394215Y-100549680D01*
X173679929Y-100549680D02*
X173679929Y-99549680D01*
X173584691Y-99692538D01*
X173489453Y-99787776D01*
X173394215Y-99835395D01*
X125535440Y-115824188D02*
X125535440Y-115252760D01*
X126535440Y-115538474D02*
X125535440Y-115538474D01*
X126487821Y-114538474D02*
X126535440Y-114633712D01*
X126535440Y-114824188D01*
X126487821Y-114919426D01*
X126392583Y-114967045D01*
X126011631Y-114967045D01*
X125916393Y-114919426D01*
X125868774Y-114824188D01*
X125868774Y-114633712D01*
X125916393Y-114538474D01*
X126011631Y-114490855D01*
X126106869Y-114490855D01*
X126202107Y-114967045D01*
X126487821Y-113681331D02*
X126535440Y-113776569D01*
X126535440Y-113967045D01*
X126487821Y-114062283D01*
X126392583Y-114109902D01*
X126011631Y-114109902D01*
X125916393Y-114062283D01*
X125868774Y-113967045D01*
X125868774Y-113776569D01*
X125916393Y-113681331D01*
X126011631Y-113633712D01*
X126106869Y-113633712D01*
X126202107Y-114109902D01*
X125868774Y-113205140D02*
X126535440Y-113205140D01*
X125964012Y-113205140D02*
X125916393Y-113157521D01*
X125868774Y-113062283D01*
X125868774Y-112919426D01*
X125916393Y-112824188D01*
X126011631Y-112776569D01*
X126535440Y-112776569D01*
X126487821Y-112347998D02*
X126535440Y-112252760D01*
X126535440Y-112062283D01*
X126487821Y-111967045D01*
X126392583Y-111919426D01*
X126344964Y-111919426D01*
X126249726Y-111967045D01*
X126202107Y-112062283D01*
X126202107Y-112205140D01*
X126154488Y-112300379D01*
X126059250Y-112347998D01*
X126011631Y-112347998D01*
X125916393Y-112300379D01*
X125868774Y-112205140D01*
X125868774Y-112062283D01*
X125916393Y-111967045D01*
X125868774Y-111586093D02*
X126535440Y-111347998D01*
X125868774Y-111109902D02*
X126535440Y-111347998D01*
X126773536Y-111443236D01*
X126821155Y-111490855D01*
X126868774Y-111586093D01*
X125868774Y-110300379D02*
X126535440Y-110300379D01*
X125487821Y-110538474D02*
X126202107Y-110776569D01*
X126202107Y-110157521D01*
X126440202Y-109776569D02*
X126487821Y-109728950D01*
X126535440Y-109776569D01*
X126487821Y-109824188D01*
X126440202Y-109776569D01*
X126535440Y-109776569D01*
X125535440Y-109109902D02*
X125535440Y-109014664D01*
X125583060Y-108919426D01*
X125630679Y-108871807D01*
X125725917Y-108824188D01*
X125916393Y-108776569D01*
X126154488Y-108776569D01*
X126344964Y-108824188D01*
X126440202Y-108871807D01*
X126487821Y-108919426D01*
X126535440Y-109014664D01*
X126535440Y-109109902D01*
X126487821Y-109205140D01*
X126440202Y-109252760D01*
X126344964Y-109300379D01*
X126154488Y-109347998D01*
X125916393Y-109347998D01*
X125725917Y-109300379D01*
X125630679Y-109252760D01*
X125583060Y-109205140D01*
X125535440Y-109109902D01*
X116413446Y-77128001D02*
X116556303Y-77175620D01*
X116794399Y-77175620D01*
X116889637Y-77128001D01*
X116937256Y-77080382D01*
X116984875Y-76985144D01*
X116984875Y-76889906D01*
X116937256Y-76794668D01*
X116889637Y-76747049D01*
X116794399Y-76699430D01*
X116603922Y-76651811D01*
X116508684Y-76604192D01*
X116461065Y-76556573D01*
X116413446Y-76461335D01*
X116413446Y-76366097D01*
X116461065Y-76270859D01*
X116508684Y-76223240D01*
X116603922Y-76175620D01*
X116842018Y-76175620D01*
X116984875Y-76223240D01*
X117318208Y-76175620D02*
X117556303Y-77175620D01*
X117746780Y-76461335D01*
X117937256Y-77175620D01*
X118175351Y-76175620D01*
X119080113Y-77175620D02*
X118508684Y-77175620D01*
X118794399Y-77175620D02*
X118794399Y-76175620D01*
X118699160Y-76318478D01*
X118603922Y-76413716D01*
X118508684Y-76461335D01*
X141885945Y-135173980D02*
X141885945Y-134173980D01*
X142219279Y-134888266D01*
X142552612Y-134173980D01*
X142552612Y-135173980D01*
X142933564Y-134173980D02*
X143600231Y-135173980D01*
X143600231Y-134173980D02*
X142933564Y-135173980D01*
X144504993Y-135173980D02*
X143933564Y-135173980D01*
X144219279Y-135173980D02*
X144219279Y-134173980D01*
X144124040Y-134316838D01*
X144028802Y-134412076D01*
X143933564Y-134459695D01*
X161756904Y-83310380D02*
X161280714Y-83310380D01*
X161280714Y-82310380D01*
X162090238Y-83310380D02*
X162090238Y-82310380D01*
X162423571Y-83024666D01*
X162756904Y-82310380D01*
X162756904Y-83310380D01*
X163185476Y-82405619D02*
X163233095Y-82358000D01*
X163328333Y-82310380D01*
X163566428Y-82310380D01*
X163661666Y-82358000D01*
X163709285Y-82405619D01*
X163756904Y-82500857D01*
X163756904Y-82596095D01*
X163709285Y-82738952D01*
X163137857Y-83310380D01*
X163756904Y-83310380D01*
X112301921Y-121839739D02*
X112349540Y-121696881D01*
X112349540Y-121458786D01*
X112301921Y-121363548D01*
X112254302Y-121315929D01*
X112159064Y-121268310D01*
X112063826Y-121268310D01*
X111968588Y-121315929D01*
X111920969Y-121363548D01*
X111873350Y-121458786D01*
X111825731Y-121649262D01*
X111778112Y-121744500D01*
X111730493Y-121792120D01*
X111635255Y-121839739D01*
X111540017Y-121839739D01*
X111444779Y-121792120D01*
X111397160Y-121744500D01*
X111349540Y-121649262D01*
X111349540Y-121411167D01*
X111397160Y-121268310D01*
X111349540Y-120934977D02*
X112349540Y-120696881D01*
X111635255Y-120506405D01*
X112349540Y-120315929D01*
X111349540Y-120077834D01*
X112349540Y-119125453D02*
X111873350Y-119458786D01*
X112349540Y-119696881D02*
X111349540Y-119696881D01*
X111349540Y-119315929D01*
X111397160Y-119220691D01*
X111444779Y-119173072D01*
X111540017Y-119125453D01*
X111682874Y-119125453D01*
X111778112Y-119173072D01*
X111825731Y-119220691D01*
X111873350Y-119315929D01*
X111873350Y-119696881D01*
X112301921Y-118315929D02*
X112349540Y-118411167D01*
X112349540Y-118601643D01*
X112301921Y-118696881D01*
X112206683Y-118744500D01*
X111825731Y-118744500D01*
X111730493Y-118696881D01*
X111682874Y-118601643D01*
X111682874Y-118411167D01*
X111730493Y-118315929D01*
X111825731Y-118268310D01*
X111920969Y-118268310D01*
X112016207Y-118744500D01*
X111682874Y-117411167D02*
X112492398Y-117411167D01*
X112587636Y-117458786D01*
X112635255Y-117506405D01*
X112682874Y-117601643D01*
X112682874Y-117744500D01*
X112635255Y-117839739D01*
X112301921Y-117411167D02*
X112349540Y-117506405D01*
X112349540Y-117696881D01*
X112301921Y-117792120D01*
X112254302Y-117839739D01*
X112159064Y-117887358D01*
X111873350Y-117887358D01*
X111778112Y-117839739D01*
X111730493Y-117792120D01*
X111682874Y-117696881D01*
X111682874Y-117506405D01*
X111730493Y-117411167D01*
X112444779Y-117173072D02*
X112444779Y-116411167D01*
X112349540Y-116173072D02*
X111349540Y-116173072D01*
X112349540Y-115601643D01*
X111349540Y-115601643D01*
X111349540Y-115268310D02*
X112349540Y-114934977D01*
X111349540Y-114601643D01*
X112254302Y-113696881D02*
X112301921Y-113744500D01*
X112349540Y-113887358D01*
X112349540Y-113982596D01*
X112301921Y-114125453D01*
X112206683Y-114220691D01*
X112111445Y-114268310D01*
X111920969Y-114315929D01*
X111778112Y-114315929D01*
X111587636Y-114268310D01*
X111492398Y-114220691D01*
X111397160Y-114125453D01*
X111349540Y-113982596D01*
X111349540Y-113887358D01*
X111397160Y-113744500D01*
X111444779Y-113696881D01*
X112349540Y-112744500D02*
X112349540Y-113315929D01*
X112349540Y-113030215D02*
X111349540Y-113030215D01*
X111492398Y-113125453D01*
X111587636Y-113220691D01*
X111635255Y-113315929D01*
X125139081Y-88324961D02*
X125186700Y-88182104D01*
X125186700Y-87944009D01*
X125139081Y-87848771D01*
X125091462Y-87801152D01*
X124996224Y-87753533D01*
X124900986Y-87753533D01*
X124805748Y-87801152D01*
X124758129Y-87848771D01*
X124710510Y-87944009D01*
X124662891Y-88134485D01*
X124615272Y-88229723D01*
X124567653Y-88277342D01*
X124472415Y-88324961D01*
X124377177Y-88324961D01*
X124281939Y-88277342D01*
X124234320Y-88229723D01*
X124186700Y-88134485D01*
X124186700Y-87896390D01*
X124234320Y-87753533D01*
X125186700Y-87324961D02*
X124186700Y-87324961D01*
X124186700Y-87086866D01*
X124234320Y-86944009D01*
X124329558Y-86848771D01*
X124424796Y-86801152D01*
X124615272Y-86753533D01*
X124758129Y-86753533D01*
X124948605Y-86801152D01*
X125043843Y-86848771D01*
X125139081Y-86944009D01*
X125186700Y-87086866D01*
X125186700Y-87324961D01*
X125139081Y-85896390D02*
X125186700Y-85991628D01*
X125186700Y-86182104D01*
X125139081Y-86277342D01*
X125091462Y-86324961D01*
X124996224Y-86372580D01*
X124710510Y-86372580D01*
X124615272Y-86324961D01*
X124567653Y-86277342D01*
X124520034Y-86182104D01*
X124520034Y-85991628D01*
X124567653Y-85896390D01*
X125186700Y-85039247D02*
X124662891Y-85039247D01*
X124567653Y-85086866D01*
X124520034Y-85182104D01*
X124520034Y-85372580D01*
X124567653Y-85467819D01*
X125139081Y-85039247D02*
X125186700Y-85134485D01*
X125186700Y-85372580D01*
X125139081Y-85467819D01*
X125043843Y-85515438D01*
X124948605Y-85515438D01*
X124853367Y-85467819D01*
X124805748Y-85372580D01*
X124805748Y-85134485D01*
X124758129Y-85039247D01*
X125186700Y-84563057D02*
X124520034Y-84563057D01*
X124710510Y-84563057D02*
X124615272Y-84515438D01*
X124567653Y-84467819D01*
X124520034Y-84372580D01*
X124520034Y-84277342D01*
X125186700Y-83515438D02*
X124186700Y-83515438D01*
X125139081Y-83515438D02*
X125186700Y-83610676D01*
X125186700Y-83801152D01*
X125139081Y-83896390D01*
X125091462Y-83944009D01*
X124996224Y-83991628D01*
X124710510Y-83991628D01*
X124615272Y-83944009D01*
X124567653Y-83896390D01*
X124520034Y-83801152D01*
X124520034Y-83610676D01*
X124567653Y-83515438D01*
X125186700Y-82515438D02*
X125186700Y-83086866D01*
X125186700Y-82801152D02*
X124186700Y-82801152D01*
X124329558Y-82896390D01*
X124424796Y-82991628D01*
X124472415Y-83086866D01*
X117907060Y-123289297D02*
X117430870Y-123622630D01*
X117907060Y-123860725D02*
X116907060Y-123860725D01*
X116907060Y-123479773D01*
X116954680Y-123384535D01*
X117002299Y-123336916D01*
X117097537Y-123289297D01*
X117240394Y-123289297D01*
X117335632Y-123336916D01*
X117383251Y-123384535D01*
X117430870Y-123479773D01*
X117430870Y-123860725D01*
X117002299Y-122908344D02*
X116954680Y-122860725D01*
X116907060Y-122765487D01*
X116907060Y-122527392D01*
X116954680Y-122432154D01*
X117002299Y-122384535D01*
X117097537Y-122336916D01*
X117192775Y-122336916D01*
X117335632Y-122384535D01*
X117907060Y-122955963D01*
X117907060Y-122336916D01*
X116907060Y-121717868D02*
X116907060Y-121622630D01*
X116954680Y-121527392D01*
X117002299Y-121479773D01*
X117097537Y-121432154D01*
X117288013Y-121384535D01*
X117526108Y-121384535D01*
X117716584Y-121432154D01*
X117811822Y-121479773D01*
X117859441Y-121527392D01*
X117907060Y-121622630D01*
X117907060Y-121717868D01*
X117859441Y-121813106D01*
X117811822Y-121860725D01*
X117716584Y-121908344D01*
X117526108Y-121955963D01*
X117288013Y-121955963D01*
X117097537Y-121908344D01*
X117002299Y-121860725D01*
X116954680Y-121813106D01*
X116907060Y-121717868D01*
X170054224Y-109436320D02*
X169673272Y-109669653D01*
X170054224Y-109836320D02*
X169254224Y-109836320D01*
X169254224Y-109569653D01*
X169292320Y-109502986D01*
X169330415Y-109469653D01*
X169406605Y-109436320D01*
X169520891Y-109436320D01*
X169597081Y-109469653D01*
X169635177Y-109502986D01*
X169673272Y-109569653D01*
X169673272Y-109836320D01*
X170054224Y-108769653D02*
X170054224Y-109169653D01*
X170054224Y-108969653D02*
X169254224Y-108969653D01*
X169368510Y-109036320D01*
X169444700Y-109102986D01*
X169482796Y-109169653D01*
X169597081Y-108369653D02*
X169558986Y-108436320D01*
X169520891Y-108469653D01*
X169444700Y-108502986D01*
X169406605Y-108502986D01*
X169330415Y-108469653D01*
X169292320Y-108436320D01*
X169254224Y-108369653D01*
X169254224Y-108236320D01*
X169292320Y-108169653D01*
X169330415Y-108136320D01*
X169406605Y-108102986D01*
X169444700Y-108102986D01*
X169520891Y-108136320D01*
X169558986Y-108169653D01*
X169597081Y-108236320D01*
X169597081Y-108369653D01*
X169635177Y-108436320D01*
X169673272Y-108469653D01*
X169749462Y-108502986D01*
X169901843Y-108502986D01*
X169978034Y-108469653D01*
X170016129Y-108436320D01*
X170054224Y-108369653D01*
X170054224Y-108236320D01*
X170016129Y-108169653D01*
X169978034Y-108136320D01*
X169901843Y-108102986D01*
X169749462Y-108102986D01*
X169673272Y-108136320D01*
X169635177Y-108169653D01*
X169597081Y-108236320D01*
X164764980Y-110482617D02*
X164288790Y-110815950D01*
X164764980Y-111054045D02*
X163764980Y-111054045D01*
X163764980Y-110673093D01*
X163812600Y-110577855D01*
X163860219Y-110530236D01*
X163955457Y-110482617D01*
X164098314Y-110482617D01*
X164193552Y-110530236D01*
X164241171Y-110577855D01*
X164288790Y-110673093D01*
X164288790Y-111054045D01*
X164764980Y-109530236D02*
X164764980Y-110101664D01*
X164764980Y-109815950D02*
X163764980Y-109815950D01*
X163907838Y-109911188D01*
X164003076Y-110006426D01*
X164050695Y-110101664D01*
X163764980Y-109196902D02*
X163764980Y-108530236D01*
X164764980Y-108958807D01*
D12*
X168799391Y-88197644D02*
X168632724Y-87816692D01*
X168513677Y-88197644D02*
X168513677Y-87397644D01*
X168704153Y-87397644D01*
X168751772Y-87435740D01*
X168775581Y-87473835D01*
X168799391Y-87550025D01*
X168799391Y-87664311D01*
X168775581Y-87740501D01*
X168751772Y-87778597D01*
X168704153Y-87816692D01*
X168513677Y-87816692D01*
X169275581Y-88197644D02*
X168989867Y-88197644D01*
X169132724Y-88197644D02*
X169132724Y-87397644D01*
X169085105Y-87511930D01*
X169037486Y-87588120D01*
X168989867Y-87626216D01*
X169704153Y-87397644D02*
X169608915Y-87397644D01*
X169561296Y-87435740D01*
X169537486Y-87473835D01*
X169489867Y-87588120D01*
X169466058Y-87740501D01*
X169466058Y-88045263D01*
X169489867Y-88121454D01*
X169513677Y-88159549D01*
X169561296Y-88197644D01*
X169656534Y-88197644D01*
X169704153Y-88159549D01*
X169727962Y-88121454D01*
X169751772Y-88045263D01*
X169751772Y-87854787D01*
X169727962Y-87778597D01*
X169704153Y-87740501D01*
X169656534Y-87702406D01*
X169561296Y-87702406D01*
X169513677Y-87740501D01*
X169489867Y-87778597D01*
X169466058Y-87854787D01*
X171301291Y-88195104D02*
X171134624Y-87814152D01*
X171015577Y-88195104D02*
X171015577Y-87395104D01*
X171206053Y-87395104D01*
X171253672Y-87433200D01*
X171277481Y-87471295D01*
X171301291Y-87547485D01*
X171301291Y-87661771D01*
X171277481Y-87737961D01*
X171253672Y-87776057D01*
X171206053Y-87814152D01*
X171015577Y-87814152D01*
X171777481Y-88195104D02*
X171491767Y-88195104D01*
X171634624Y-88195104D02*
X171634624Y-87395104D01*
X171587005Y-87509390D01*
X171539386Y-87585580D01*
X171491767Y-87623676D01*
X172229862Y-87395104D02*
X171991767Y-87395104D01*
X171967958Y-87776057D01*
X171991767Y-87737961D01*
X172039386Y-87699866D01*
X172158434Y-87699866D01*
X172206053Y-87737961D01*
X172229862Y-87776057D01*
X172253672Y-87852247D01*
X172253672Y-88042723D01*
X172229862Y-88118914D01*
X172206053Y-88157009D01*
X172158434Y-88195104D01*
X172039386Y-88195104D01*
X171991767Y-88157009D01*
X171967958Y-88118914D01*
X168809551Y-89150144D02*
X168642884Y-88769192D01*
X168523837Y-89150144D02*
X168523837Y-88350144D01*
X168714313Y-88350144D01*
X168761932Y-88388240D01*
X168785741Y-88426335D01*
X168809551Y-88502525D01*
X168809551Y-88616811D01*
X168785741Y-88693001D01*
X168761932Y-88731097D01*
X168714313Y-88769192D01*
X168523837Y-88769192D01*
X169285741Y-89150144D02*
X169000027Y-89150144D01*
X169142884Y-89150144D02*
X169142884Y-88350144D01*
X169095265Y-88464430D01*
X169047646Y-88540620D01*
X169000027Y-88578716D01*
X169714313Y-88616811D02*
X169714313Y-89150144D01*
X169595265Y-88312049D02*
X169476218Y-88883478D01*
X169785741Y-88883478D01*
X171301291Y-89079024D02*
X171134624Y-88698072D01*
X171015577Y-89079024D02*
X171015577Y-88279024D01*
X171206053Y-88279024D01*
X171253672Y-88317120D01*
X171277481Y-88355215D01*
X171301291Y-88431405D01*
X171301291Y-88545691D01*
X171277481Y-88621881D01*
X171253672Y-88659977D01*
X171206053Y-88698072D01*
X171015577Y-88698072D01*
X171777481Y-89079024D02*
X171491767Y-89079024D01*
X171634624Y-89079024D02*
X171634624Y-88279024D01*
X171587005Y-88393310D01*
X171539386Y-88469500D01*
X171491767Y-88507596D01*
X171944148Y-88279024D02*
X172253672Y-88279024D01*
X172087005Y-88583786D01*
X172158434Y-88583786D01*
X172206053Y-88621881D01*
X172229862Y-88659977D01*
X172253672Y-88736167D01*
X172253672Y-88926643D01*
X172229862Y-89002834D01*
X172206053Y-89040929D01*
X172158434Y-89079024D01*
X172015577Y-89079024D01*
X171967958Y-89040929D01*
X171944148Y-89002834D01*
D13*
X156008737Y-92797584D02*
X155875403Y-92416632D01*
X155780165Y-92797584D02*
X155780165Y-91997584D01*
X155932546Y-91997584D01*
X155970641Y-92035680D01*
X155989689Y-92073775D01*
X156008737Y-92149965D01*
X156008737Y-92264251D01*
X155989689Y-92340441D01*
X155970641Y-92378537D01*
X155932546Y-92416632D01*
X155780165Y-92416632D01*
X156389689Y-92797584D02*
X156161118Y-92797584D01*
X156275403Y-92797584D02*
X156275403Y-91997584D01*
X156237308Y-92111870D01*
X156199213Y-92188060D01*
X156161118Y-92226156D01*
X156542070Y-92073775D02*
X156561118Y-92035680D01*
X156599213Y-91997584D01*
X156694451Y-91997584D01*
X156732546Y-92035680D01*
X156751594Y-92073775D01*
X156770641Y-92149965D01*
X156770641Y-92226156D01*
X156751594Y-92340441D01*
X156523022Y-92797584D01*
X156770641Y-92797584D01*
D12*
X151725511Y-92751864D02*
X151558844Y-92370912D01*
X151439797Y-92751864D02*
X151439797Y-91951864D01*
X151630273Y-91951864D01*
X151677892Y-91989960D01*
X151701701Y-92028055D01*
X151725511Y-92104245D01*
X151725511Y-92218531D01*
X151701701Y-92294721D01*
X151677892Y-92332817D01*
X151630273Y-92370912D01*
X151439797Y-92370912D01*
X152201701Y-92751864D02*
X151915987Y-92751864D01*
X152058844Y-92751864D02*
X152058844Y-91951864D01*
X152011225Y-92066150D01*
X151963606Y-92142340D01*
X151915987Y-92180436D01*
X152677892Y-92751864D02*
X152392178Y-92751864D01*
X152535035Y-92751864D02*
X152535035Y-91951864D01*
X152487416Y-92066150D01*
X152439797Y-92142340D01*
X152392178Y-92180436D01*
D11*
X154493220Y-83484957D02*
X154017030Y-83818290D01*
X154493220Y-84056385D02*
X153493220Y-84056385D01*
X153493220Y-83675433D01*
X153540840Y-83580195D01*
X153588459Y-83532576D01*
X153683697Y-83484957D01*
X153826554Y-83484957D01*
X153921792Y-83532576D01*
X153969411Y-83580195D01*
X154017030Y-83675433D01*
X154017030Y-84056385D01*
X154493220Y-82532576D02*
X154493220Y-83104004D01*
X154493220Y-82818290D02*
X153493220Y-82818290D01*
X153636078Y-82913528D01*
X153731316Y-83008766D01*
X153778935Y-83104004D01*
X153493220Y-81913528D02*
X153493220Y-81818290D01*
X153540840Y-81723052D01*
X153588459Y-81675433D01*
X153683697Y-81627814D01*
X153874173Y-81580195D01*
X154112268Y-81580195D01*
X154302744Y-81627814D01*
X154397982Y-81675433D01*
X154445601Y-81723052D01*
X154493220Y-81818290D01*
X154493220Y-81913528D01*
X154445601Y-82008766D01*
X154397982Y-82056385D01*
X154302744Y-82104004D01*
X154112268Y-82151623D01*
X153874173Y-82151623D01*
X153683697Y-82104004D01*
X153588459Y-82056385D01*
X153540840Y-82008766D01*
X153493220Y-81913528D01*
X152539980Y-85739166D02*
X152063790Y-86072500D01*
X152539980Y-86310595D02*
X151539980Y-86310595D01*
X151539980Y-85929642D01*
X151587600Y-85834404D01*
X151635219Y-85786785D01*
X151730457Y-85739166D01*
X151873314Y-85739166D01*
X151968552Y-85786785D01*
X152016171Y-85834404D01*
X152063790Y-85929642D01*
X152063790Y-86310595D01*
X152539980Y-85262976D02*
X152539980Y-85072500D01*
X152492361Y-84977261D01*
X152444742Y-84929642D01*
X152301885Y-84834404D01*
X152111409Y-84786785D01*
X151730457Y-84786785D01*
X151635219Y-84834404D01*
X151587600Y-84882023D01*
X151539980Y-84977261D01*
X151539980Y-85167738D01*
X151587600Y-85262976D01*
X151635219Y-85310595D01*
X151730457Y-85358214D01*
X151968552Y-85358214D01*
X152063790Y-85310595D01*
X152111409Y-85262976D01*
X152159028Y-85167738D01*
X152159028Y-84977261D01*
X152111409Y-84882023D01*
X152063790Y-84834404D01*
X151968552Y-84786785D01*
D12*
X145219906Y-87377224D02*
X145053240Y-86996272D01*
X144934192Y-87377224D02*
X144934192Y-86577224D01*
X145124668Y-86577224D01*
X145172287Y-86615320D01*
X145196097Y-86653415D01*
X145219906Y-86729605D01*
X145219906Y-86843891D01*
X145196097Y-86920081D01*
X145172287Y-86958177D01*
X145124668Y-86996272D01*
X144934192Y-86996272D01*
X145505620Y-86920081D02*
X145458001Y-86881986D01*
X145434192Y-86843891D01*
X145410382Y-86767700D01*
X145410382Y-86729605D01*
X145434192Y-86653415D01*
X145458001Y-86615320D01*
X145505620Y-86577224D01*
X145600859Y-86577224D01*
X145648478Y-86615320D01*
X145672287Y-86653415D01*
X145696097Y-86729605D01*
X145696097Y-86767700D01*
X145672287Y-86843891D01*
X145648478Y-86881986D01*
X145600859Y-86920081D01*
X145505620Y-86920081D01*
X145458001Y-86958177D01*
X145434192Y-86996272D01*
X145410382Y-87072462D01*
X145410382Y-87224843D01*
X145434192Y-87301034D01*
X145458001Y-87339129D01*
X145505620Y-87377224D01*
X145600859Y-87377224D01*
X145648478Y-87339129D01*
X145672287Y-87301034D01*
X145696097Y-87224843D01*
X145696097Y-87072462D01*
X145672287Y-86996272D01*
X145648478Y-86958177D01*
X145600859Y-86920081D01*
X147693866Y-87341664D02*
X147527200Y-86960712D01*
X147408152Y-87341664D02*
X147408152Y-86541664D01*
X147598628Y-86541664D01*
X147646247Y-86579760D01*
X147670057Y-86617855D01*
X147693866Y-86694045D01*
X147693866Y-86808331D01*
X147670057Y-86884521D01*
X147646247Y-86922617D01*
X147598628Y-86960712D01*
X147408152Y-86960712D01*
X147860533Y-86541664D02*
X148193866Y-86541664D01*
X147979580Y-87341664D01*
X144330906Y-89541304D02*
X144164240Y-89160352D01*
X144045192Y-89541304D02*
X144045192Y-88741304D01*
X144235668Y-88741304D01*
X144283287Y-88779400D01*
X144307097Y-88817495D01*
X144330906Y-88893685D01*
X144330906Y-89007971D01*
X144307097Y-89084161D01*
X144283287Y-89122257D01*
X144235668Y-89160352D01*
X144045192Y-89160352D01*
X144759478Y-88741304D02*
X144664240Y-88741304D01*
X144616620Y-88779400D01*
X144592811Y-88817495D01*
X144545192Y-88931780D01*
X144521382Y-89084161D01*
X144521382Y-89388923D01*
X144545192Y-89465114D01*
X144569001Y-89503209D01*
X144616620Y-89541304D01*
X144711859Y-89541304D01*
X144759478Y-89503209D01*
X144783287Y-89465114D01*
X144807097Y-89388923D01*
X144807097Y-89198447D01*
X144783287Y-89122257D01*
X144759478Y-89084161D01*
X144711859Y-89046066D01*
X144616620Y-89046066D01*
X144569001Y-89084161D01*
X144545192Y-89122257D01*
X144521382Y-89198447D01*
X146398466Y-89576864D02*
X146231800Y-89195912D01*
X146112752Y-89576864D02*
X146112752Y-88776864D01*
X146303228Y-88776864D01*
X146350847Y-88814960D01*
X146374657Y-88853055D01*
X146398466Y-88929245D01*
X146398466Y-89043531D01*
X146374657Y-89119721D01*
X146350847Y-89157817D01*
X146303228Y-89195912D01*
X146112752Y-89195912D01*
X146850847Y-88776864D02*
X146612752Y-88776864D01*
X146588942Y-89157817D01*
X146612752Y-89119721D01*
X146660371Y-89081626D01*
X146779419Y-89081626D01*
X146827038Y-89119721D01*
X146850847Y-89157817D01*
X146874657Y-89234007D01*
X146874657Y-89424483D01*
X146850847Y-89500674D01*
X146827038Y-89538769D01*
X146779419Y-89576864D01*
X146660371Y-89576864D01*
X146612752Y-89538769D01*
X146588942Y-89500674D01*
D11*
X129774653Y-93690700D02*
X129441320Y-93214510D01*
X129203224Y-93690700D02*
X129203224Y-92690700D01*
X129584177Y-92690700D01*
X129679415Y-92738320D01*
X129727034Y-92785939D01*
X129774653Y-92881177D01*
X129774653Y-93024034D01*
X129727034Y-93119272D01*
X129679415Y-93166891D01*
X129584177Y-93214510D01*
X129203224Y-93214510D01*
X130631796Y-93024034D02*
X130631796Y-93690700D01*
X130393700Y-92643081D02*
X130155605Y-93357367D01*
X130774653Y-93357367D01*
X126619260Y-90824346D02*
X126143070Y-91157680D01*
X126619260Y-91395775D02*
X125619260Y-91395775D01*
X125619260Y-91014822D01*
X125666880Y-90919584D01*
X125714499Y-90871965D01*
X125809737Y-90824346D01*
X125952594Y-90824346D01*
X126047832Y-90871965D01*
X126095451Y-90919584D01*
X126143070Y-91014822D01*
X126143070Y-91395775D01*
X125619260Y-90491013D02*
X125619260Y-89871965D01*
X126000213Y-90205299D01*
X126000213Y-90062441D01*
X126047832Y-89967203D01*
X126095451Y-89919584D01*
X126190689Y-89871965D01*
X126428784Y-89871965D01*
X126524022Y-89919584D01*
X126571641Y-89967203D01*
X126619260Y-90062441D01*
X126619260Y-90348156D01*
X126571641Y-90443394D01*
X126524022Y-90491013D01*
X129758700Y-82838586D02*
X129282510Y-83171920D01*
X129758700Y-83410015D02*
X128758700Y-83410015D01*
X128758700Y-83029062D01*
X128806320Y-82933824D01*
X128853939Y-82886205D01*
X128949177Y-82838586D01*
X129092034Y-82838586D01*
X129187272Y-82886205D01*
X129234891Y-82933824D01*
X129282510Y-83029062D01*
X129282510Y-83410015D01*
X128853939Y-82457634D02*
X128806320Y-82410015D01*
X128758700Y-82314777D01*
X128758700Y-82076681D01*
X128806320Y-81981443D01*
X128853939Y-81933824D01*
X128949177Y-81886205D01*
X129044415Y-81886205D01*
X129187272Y-81933824D01*
X129758700Y-82505253D01*
X129758700Y-81886205D01*
X126649760Y-85216126D02*
X126173570Y-85549460D01*
X126649760Y-85787555D02*
X125649760Y-85787555D01*
X125649760Y-85406602D01*
X125697380Y-85311364D01*
X125744999Y-85263745D01*
X125840237Y-85216126D01*
X125983094Y-85216126D01*
X126078332Y-85263745D01*
X126125951Y-85311364D01*
X126173570Y-85406602D01*
X126173570Y-85787555D01*
X126649760Y-84263745D02*
X126649760Y-84835174D01*
X126649760Y-84549460D02*
X125649760Y-84549460D01*
X125792618Y-84644698D01*
X125887856Y-84739936D01*
X125935475Y-84835174D01*
X136059724Y-83084320D02*
X135583534Y-83084320D01*
X135583534Y-82084320D01*
X136393058Y-83084320D02*
X136393058Y-82084320D01*
X136726391Y-82798606D01*
X137059724Y-82084320D01*
X137059724Y-83084320D01*
X138059724Y-83084320D02*
X137488296Y-83084320D01*
X137774010Y-83084320D02*
X137774010Y-82084320D01*
X137678772Y-82227178D01*
X137583534Y-82322416D01*
X137488296Y-82370035D01*
X112116573Y-112319060D02*
X111640382Y-112319060D01*
X111640382Y-111319060D01*
X112973716Y-112319060D02*
X112402287Y-112319060D01*
X112688001Y-112319060D02*
X112688001Y-111319060D01*
X112592763Y-111461918D01*
X112497525Y-111557156D01*
X112402287Y-111604775D01*
X164222180Y-106832613D02*
X164936466Y-106832613D01*
X165079323Y-106880232D01*
X165174561Y-106975470D01*
X165222180Y-107118327D01*
X165222180Y-107213565D01*
X165222180Y-106356422D02*
X164222180Y-106356422D01*
X164222180Y-105975470D01*
X164269800Y-105880232D01*
X164317419Y-105832613D01*
X164412657Y-105784994D01*
X164555514Y-105784994D01*
X164650752Y-105832613D01*
X164698371Y-105880232D01*
X164745990Y-105975470D01*
X164745990Y-106356422D01*
X165222180Y-105308803D02*
X165222180Y-105118327D01*
X165174561Y-105023089D01*
X165126942Y-104975470D01*
X164984085Y-104880232D01*
X164793609Y-104832613D01*
X164412657Y-104832613D01*
X164317419Y-104880232D01*
X164269800Y-104927851D01*
X164222180Y-105023089D01*
X164222180Y-105213565D01*
X164269800Y-105308803D01*
X164317419Y-105356422D01*
X164412657Y-105404041D01*
X164650752Y-105404041D01*
X164745990Y-105356422D01*
X164793609Y-105308803D01*
X164841228Y-105213565D01*
X164841228Y-105023089D01*
X164793609Y-104927851D01*
X164745990Y-104880232D01*
X164650752Y-104832613D01*
X167141946Y-79467460D02*
X167141946Y-80181746D01*
X167094327Y-80324603D01*
X166999089Y-80419841D01*
X166856232Y-80467460D01*
X166760994Y-80467460D01*
X167618137Y-80467460D02*
X167618137Y-79467460D01*
X167999089Y-79467460D01*
X168094327Y-79515080D01*
X168141946Y-79562699D01*
X168189565Y-79657937D01*
X168189565Y-79800794D01*
X168141946Y-79896032D01*
X168094327Y-79943651D01*
X167999089Y-79991270D01*
X167618137Y-79991270D01*
X168760994Y-79896032D02*
X168665756Y-79848413D01*
X168618137Y-79800794D01*
X168570518Y-79705556D01*
X168570518Y-79657937D01*
X168618137Y-79562699D01*
X168665756Y-79515080D01*
X168760994Y-79467460D01*
X168951470Y-79467460D01*
X169046708Y-79515080D01*
X169094327Y-79562699D01*
X169141946Y-79657937D01*
X169141946Y-79705556D01*
X169094327Y-79800794D01*
X169046708Y-79848413D01*
X168951470Y-79896032D01*
X168760994Y-79896032D01*
X168665756Y-79943651D01*
X168618137Y-79991270D01*
X168570518Y-80086508D01*
X168570518Y-80276984D01*
X168618137Y-80372222D01*
X168665756Y-80419841D01*
X168760994Y-80467460D01*
X168951470Y-80467460D01*
X169046708Y-80419841D01*
X169094327Y-80372222D01*
X169141946Y-80276984D01*
X169141946Y-80086508D01*
X169094327Y-79991270D01*
X169046708Y-79943651D01*
X168951470Y-79896032D01*
X168025866Y-95317060D02*
X168025866Y-96031346D01*
X167978247Y-96174203D01*
X167883009Y-96269441D01*
X167740152Y-96317060D01*
X167644914Y-96317060D01*
X168502057Y-96317060D02*
X168502057Y-95317060D01*
X168883009Y-95317060D01*
X168978247Y-95364680D01*
X169025866Y-95412299D01*
X169073485Y-95507537D01*
X169073485Y-95650394D01*
X169025866Y-95745632D01*
X168978247Y-95793251D01*
X168883009Y-95840870D01*
X168502057Y-95840870D01*
X169406819Y-95317060D02*
X170073485Y-95317060D01*
X169644914Y-96317060D01*
D12*
X155290413Y-95457064D02*
X155290413Y-96028493D01*
X155266603Y-96142779D01*
X155218984Y-96218969D01*
X155147556Y-96257064D01*
X155099937Y-96257064D01*
X155528508Y-96257064D02*
X155528508Y-95457064D01*
X155718984Y-95457064D01*
X155766603Y-95495160D01*
X155790413Y-95533255D01*
X155814222Y-95609445D01*
X155814222Y-95723731D01*
X155790413Y-95799921D01*
X155766603Y-95838017D01*
X155718984Y-95876112D01*
X155528508Y-95876112D01*
X156242794Y-95457064D02*
X156147556Y-95457064D01*
X156099937Y-95495160D01*
X156076127Y-95533255D01*
X156028508Y-95647540D01*
X156004699Y-95799921D01*
X156004699Y-96104683D01*
X156028508Y-96180874D01*
X156052318Y-96218969D01*
X156099937Y-96257064D01*
X156195175Y-96257064D01*
X156242794Y-96218969D01*
X156266603Y-96180874D01*
X156290413Y-96104683D01*
X156290413Y-95914207D01*
X156266603Y-95838017D01*
X156242794Y-95799921D01*
X156195175Y-95761826D01*
X156099937Y-95761826D01*
X156052318Y-95799921D01*
X156028508Y-95838017D01*
X156004699Y-95914207D01*
D11*
X155777986Y-79040740D02*
X155777986Y-79755026D01*
X155730367Y-79897883D01*
X155635129Y-79993121D01*
X155492272Y-80040740D01*
X155397034Y-80040740D01*
X156254177Y-80040740D02*
X156254177Y-79040740D01*
X156635129Y-79040740D01*
X156730367Y-79088360D01*
X156777986Y-79135979D01*
X156825605Y-79231217D01*
X156825605Y-79374074D01*
X156777986Y-79469312D01*
X156730367Y-79516931D01*
X156635129Y-79564550D01*
X156254177Y-79564550D01*
X157730367Y-79040740D02*
X157254177Y-79040740D01*
X157206558Y-79516931D01*
X157254177Y-79469312D01*
X157349415Y-79421693D01*
X157587510Y-79421693D01*
X157682748Y-79469312D01*
X157730367Y-79516931D01*
X157777986Y-79612169D01*
X157777986Y-79850264D01*
X157730367Y-79945502D01*
X157682748Y-79993121D01*
X157587510Y-80040740D01*
X157349415Y-80040740D01*
X157254177Y-79993121D01*
X157206558Y-79945502D01*
X141477786Y-79045820D02*
X141477786Y-79760106D01*
X141430167Y-79902963D01*
X141334929Y-79998201D01*
X141192072Y-80045820D01*
X141096834Y-80045820D01*
X141953977Y-80045820D02*
X141953977Y-79045820D01*
X142334929Y-79045820D01*
X142430167Y-79093440D01*
X142477786Y-79141059D01*
X142525405Y-79236297D01*
X142525405Y-79379154D01*
X142477786Y-79474392D01*
X142430167Y-79522011D01*
X142334929Y-79569630D01*
X141953977Y-79569630D01*
X143382548Y-79379154D02*
X143382548Y-80045820D01*
X143144453Y-78998201D02*
X142906358Y-79712487D01*
X143525405Y-79712487D01*
X144612146Y-95505020D02*
X144612146Y-96219306D01*
X144564527Y-96362163D01*
X144469289Y-96457401D01*
X144326432Y-96505020D01*
X144231194Y-96505020D01*
X145088337Y-96505020D02*
X145088337Y-95505020D01*
X145469289Y-95505020D01*
X145564527Y-95552640D01*
X145612146Y-95600259D01*
X145659765Y-95695497D01*
X145659765Y-95838354D01*
X145612146Y-95933592D01*
X145564527Y-95981211D01*
X145469289Y-96028830D01*
X145088337Y-96028830D01*
X145993099Y-95505020D02*
X146612146Y-95505020D01*
X146278813Y-95885973D01*
X146421670Y-95885973D01*
X146516908Y-95933592D01*
X146564527Y-95981211D01*
X146612146Y-96076449D01*
X146612146Y-96314544D01*
X146564527Y-96409782D01*
X146516908Y-96457401D01*
X146421670Y-96505020D01*
X146135956Y-96505020D01*
X146040718Y-96457401D01*
X145993099Y-96409782D01*
X128447586Y-96333060D02*
X128447586Y-97047346D01*
X128399967Y-97190203D01*
X128304729Y-97285441D01*
X128161872Y-97333060D01*
X128066634Y-97333060D01*
X128923777Y-97333060D02*
X128923777Y-96333060D01*
X129304729Y-96333060D01*
X129399967Y-96380680D01*
X129447586Y-96428299D01*
X129495205Y-96523537D01*
X129495205Y-96666394D01*
X129447586Y-96761632D01*
X129399967Y-96809251D01*
X129304729Y-96856870D01*
X128923777Y-96856870D01*
X129876158Y-96428299D02*
X129923777Y-96380680D01*
X130019015Y-96333060D01*
X130257110Y-96333060D01*
X130352348Y-96380680D01*
X130399967Y-96428299D01*
X130447586Y-96523537D01*
X130447586Y-96618775D01*
X130399967Y-96761632D01*
X129828539Y-97333060D01*
X130447586Y-97333060D01*
X130027466Y-78634340D02*
X130027466Y-79348626D01*
X129979847Y-79491483D01*
X129884609Y-79586721D01*
X129741752Y-79634340D01*
X129646514Y-79634340D01*
X130503657Y-79634340D02*
X130503657Y-78634340D01*
X130884609Y-78634340D01*
X130979847Y-78681960D01*
X131027466Y-78729579D01*
X131075085Y-78824817D01*
X131075085Y-78967674D01*
X131027466Y-79062912D01*
X130979847Y-79110531D01*
X130884609Y-79158150D01*
X130503657Y-79158150D01*
X132027466Y-79634340D02*
X131456038Y-79634340D01*
X131741752Y-79634340D02*
X131741752Y-78634340D01*
X131646514Y-78777198D01*
X131551276Y-78872436D01*
X131456038Y-78920055D01*
X171818185Y-139595980D02*
X171818185Y-138595980D01*
X171818185Y-139072171D02*
X172389613Y-139072171D01*
X172389613Y-139595980D02*
X172389613Y-138595980D01*
X172770566Y-138595980D02*
X173437232Y-138595980D01*
X173008661Y-139595980D01*
X112834775Y-139595980D02*
X112834775Y-138595980D01*
X112834775Y-139072171D02*
X113406203Y-139072171D01*
X113406203Y-139595980D02*
X113406203Y-138595980D01*
X114310965Y-138595980D02*
X114120489Y-138595980D01*
X114025251Y-138643600D01*
X113977632Y-138691219D01*
X113882394Y-138834076D01*
X113834775Y-139024552D01*
X113834775Y-139405504D01*
X113882394Y-139500742D01*
X113930013Y-139548361D01*
X114025251Y-139595980D01*
X114215727Y-139595980D01*
X114310965Y-139548361D01*
X114358584Y-139500742D01*
X114406203Y-139405504D01*
X114406203Y-139167409D01*
X114358584Y-139072171D01*
X114310965Y-139024552D01*
X114215727Y-138976933D01*
X114025251Y-138976933D01*
X113930013Y-139024552D01*
X113882394Y-139072171D01*
X113834775Y-139167409D01*
X168010725Y-73525900D02*
X168010725Y-72525900D01*
X168010725Y-73002091D02*
X168582153Y-73002091D01*
X168582153Y-73525900D02*
X168582153Y-72525900D01*
X169534534Y-72525900D02*
X169058344Y-72525900D01*
X169010725Y-73002091D01*
X169058344Y-72954472D01*
X169153582Y-72906853D01*
X169391677Y-72906853D01*
X169486915Y-72954472D01*
X169534534Y-73002091D01*
X169582153Y-73097329D01*
X169582153Y-73335424D01*
X169534534Y-73430662D01*
X169486915Y-73478281D01*
X169391677Y-73525900D01*
X169153582Y-73525900D01*
X169058344Y-73478281D01*
X169010725Y-73430662D01*
X116040255Y-72951860D02*
X116040255Y-71951860D01*
X116040255Y-72428051D02*
X116611683Y-72428051D01*
X116611683Y-72951860D02*
X116611683Y-71951860D01*
X117516445Y-72285194D02*
X117516445Y-72951860D01*
X117278350Y-71904241D02*
X117040255Y-72618527D01*
X117659302Y-72618527D01*
X164062184Y-79908660D02*
X164062184Y-78908660D01*
X164300280Y-78908660D01*
X164443137Y-78956280D01*
X164538375Y-79051518D01*
X164585994Y-79146756D01*
X164633613Y-79337232D01*
X164633613Y-79480089D01*
X164585994Y-79670565D01*
X164538375Y-79765803D01*
X164443137Y-79861041D01*
X164300280Y-79908660D01*
X164062184Y-79908660D01*
X165205041Y-79337232D02*
X165109803Y-79289613D01*
X165062184Y-79241994D01*
X165014565Y-79146756D01*
X165014565Y-79099137D01*
X165062184Y-79003899D01*
X165109803Y-78956280D01*
X165205041Y-78908660D01*
X165395518Y-78908660D01*
X165490756Y-78956280D01*
X165538375Y-79003899D01*
X165585994Y-79099137D01*
X165585994Y-79146756D01*
X165538375Y-79241994D01*
X165490756Y-79289613D01*
X165395518Y-79337232D01*
X165205041Y-79337232D01*
X165109803Y-79384851D01*
X165062184Y-79432470D01*
X165014565Y-79527708D01*
X165014565Y-79718184D01*
X165062184Y-79813422D01*
X165109803Y-79861041D01*
X165205041Y-79908660D01*
X165395518Y-79908660D01*
X165490756Y-79861041D01*
X165538375Y-79813422D01*
X165585994Y-79718184D01*
X165585994Y-79527708D01*
X165538375Y-79432470D01*
X165490756Y-79384851D01*
X165395518Y-79337232D01*
X165291544Y-96098620D02*
X165291544Y-95098620D01*
X165529640Y-95098620D01*
X165672497Y-95146240D01*
X165767735Y-95241478D01*
X165815354Y-95336716D01*
X165862973Y-95527192D01*
X165862973Y-95670049D01*
X165815354Y-95860525D01*
X165767735Y-95955763D01*
X165672497Y-96051001D01*
X165529640Y-96098620D01*
X165291544Y-96098620D01*
X166196306Y-95098620D02*
X166862973Y-95098620D01*
X166434401Y-96098620D01*
X161108344Y-95001977D02*
X160308344Y-95001977D01*
X160308344Y-94859120D01*
X160346440Y-94773405D01*
X160422630Y-94716262D01*
X160498820Y-94687691D01*
X160651201Y-94659120D01*
X160765487Y-94659120D01*
X160917868Y-94687691D01*
X160994059Y-94716262D01*
X161070249Y-94773405D01*
X161108344Y-94859120D01*
X161108344Y-95001977D01*
X160308344Y-94144834D02*
X160308344Y-94259120D01*
X160346440Y-94316262D01*
X160384535Y-94344834D01*
X160498820Y-94401977D01*
X160651201Y-94430548D01*
X160955963Y-94430548D01*
X161032154Y-94401977D01*
X161070249Y-94373405D01*
X161108344Y-94316262D01*
X161108344Y-94201977D01*
X161070249Y-94144834D01*
X161032154Y-94116262D01*
X160955963Y-94087691D01*
X160765487Y-94087691D01*
X160689297Y-94116262D01*
X160651201Y-94144834D01*
X160613106Y-94201977D01*
X160613106Y-94316262D01*
X160651201Y-94373405D01*
X160689297Y-94401977D01*
X160765487Y-94430548D01*
X159027904Y-79771500D02*
X159027904Y-78771500D01*
X159266000Y-78771500D01*
X159408857Y-78819120D01*
X159504095Y-78914358D01*
X159551714Y-79009596D01*
X159599333Y-79200072D01*
X159599333Y-79342929D01*
X159551714Y-79533405D01*
X159504095Y-79628643D01*
X159408857Y-79723881D01*
X159266000Y-79771500D01*
X159027904Y-79771500D01*
X160504095Y-78771500D02*
X160027904Y-78771500D01*
X159980285Y-79247691D01*
X160027904Y-79200072D01*
X160123142Y-79152453D01*
X160361238Y-79152453D01*
X160456476Y-79200072D01*
X160504095Y-79247691D01*
X160551714Y-79342929D01*
X160551714Y-79581024D01*
X160504095Y-79676262D01*
X160456476Y-79723881D01*
X160361238Y-79771500D01*
X160123142Y-79771500D01*
X160027904Y-79723881D01*
X159980285Y-79676262D01*
X138575824Y-79705460D02*
X138575824Y-78705460D01*
X138813920Y-78705460D01*
X138956777Y-78753080D01*
X139052015Y-78848318D01*
X139099634Y-78943556D01*
X139147253Y-79134032D01*
X139147253Y-79276889D01*
X139099634Y-79467365D01*
X139052015Y-79562603D01*
X138956777Y-79657841D01*
X138813920Y-79705460D01*
X138575824Y-79705460D01*
X140004396Y-79038794D02*
X140004396Y-79705460D01*
X139766300Y-78657841D02*
X139528205Y-79372127D01*
X140147253Y-79372127D01*
X141363960Y-97324135D02*
X140363960Y-97324135D01*
X140363960Y-97086040D01*
X140411580Y-96943182D01*
X140506818Y-96847944D01*
X140602056Y-96800325D01*
X140792532Y-96752706D01*
X140935389Y-96752706D01*
X141125865Y-96800325D01*
X141221103Y-96847944D01*
X141316341Y-96943182D01*
X141363960Y-97086040D01*
X141363960Y-97324135D01*
X140363960Y-96419373D02*
X140363960Y-95800325D01*
X140744913Y-96133659D01*
X140744913Y-95990801D01*
X140792532Y-95895563D01*
X140840151Y-95847944D01*
X140935389Y-95800325D01*
X141173484Y-95800325D01*
X141268722Y-95847944D01*
X141316341Y-95895563D01*
X141363960Y-95990801D01*
X141363960Y-96276516D01*
X141316341Y-96371754D01*
X141268722Y-96419373D01*
X131733064Y-97058740D02*
X131733064Y-96058740D01*
X131971160Y-96058740D01*
X132114017Y-96106360D01*
X132209255Y-96201598D01*
X132256874Y-96296836D01*
X132304493Y-96487312D01*
X132304493Y-96630169D01*
X132256874Y-96820645D01*
X132209255Y-96915883D01*
X132114017Y-97011121D01*
X131971160Y-97058740D01*
X131733064Y-97058740D01*
X132685445Y-96153979D02*
X132733064Y-96106360D01*
X132828302Y-96058740D01*
X133066398Y-96058740D01*
X133161636Y-96106360D01*
X133209255Y-96153979D01*
X133256874Y-96249217D01*
X133256874Y-96344455D01*
X133209255Y-96487312D01*
X132637826Y-97058740D01*
X133256874Y-97058740D01*
X132942104Y-79659740D02*
X132942104Y-78659740D01*
X133180200Y-78659740D01*
X133323057Y-78707360D01*
X133418295Y-78802598D01*
X133465914Y-78897836D01*
X133513533Y-79088312D01*
X133513533Y-79231169D01*
X133465914Y-79421645D01*
X133418295Y-79516883D01*
X133323057Y-79612121D01*
X133180200Y-79659740D01*
X132942104Y-79659740D01*
X134465914Y-79659740D02*
X133894485Y-79659740D01*
X134180200Y-79659740D02*
X134180200Y-78659740D01*
X134084961Y-78802598D01*
X133989723Y-78897836D01*
X133894485Y-78945455D01*
X173265102Y-122982193D02*
X173312721Y-123029812D01*
X173360340Y-123172669D01*
X173360340Y-123267907D01*
X173312721Y-123410764D01*
X173217483Y-123506002D01*
X173122245Y-123553621D01*
X172931769Y-123601240D01*
X172788912Y-123601240D01*
X172598436Y-123553621D01*
X172503198Y-123506002D01*
X172407960Y-123410764D01*
X172360340Y-123267907D01*
X172360340Y-123172669D01*
X172407960Y-123029812D01*
X172455579Y-122982193D01*
X173074626Y-122601240D02*
X173074626Y-122125050D01*
X173360340Y-122696479D02*
X172360340Y-122363145D01*
X173360340Y-122029812D01*
X173360340Y-121696479D02*
X172360340Y-121696479D01*
X173360340Y-121125050D01*
X172360340Y-121125050D01*
X173360340Y-120648860D02*
X172693674Y-120648860D01*
X172788912Y-120648860D02*
X172741293Y-120601240D01*
X172693674Y-120506002D01*
X172693674Y-120363145D01*
X172741293Y-120267907D01*
X172836531Y-120220288D01*
X173360340Y-120220288D01*
X172836531Y-120220288D02*
X172741293Y-120172669D01*
X172693674Y-120077431D01*
X172693674Y-119934574D01*
X172741293Y-119839336D01*
X172836531Y-119791717D01*
X173360340Y-119791717D01*
X173360340Y-119172669D02*
X173312721Y-119267907D01*
X173265102Y-119315526D01*
X173169864Y-119363145D01*
X172884150Y-119363145D01*
X172788912Y-119315526D01*
X172741293Y-119267907D01*
X172693674Y-119172669D01*
X172693674Y-119029812D01*
X172741293Y-118934574D01*
X172788912Y-118886955D01*
X172884150Y-118839336D01*
X173169864Y-118839336D01*
X173265102Y-118886955D01*
X173312721Y-118934574D01*
X173360340Y-119029812D01*
X173360340Y-119172669D01*
X173360340Y-117982193D02*
X172360340Y-117982193D01*
X173312721Y-117982193D02*
X173360340Y-118077431D01*
X173360340Y-118267907D01*
X173312721Y-118363145D01*
X173265102Y-118410764D01*
X173169864Y-118458383D01*
X172884150Y-118458383D01*
X172788912Y-118410764D01*
X172741293Y-118363145D01*
X172693674Y-118267907D01*
X172693674Y-118077431D01*
X172741293Y-117982193D01*
X172693674Y-117077431D02*
X173360340Y-117077431D01*
X172693674Y-117506002D02*
X173217483Y-117506002D01*
X173312721Y-117458383D01*
X173360340Y-117363145D01*
X173360340Y-117220288D01*
X173312721Y-117125050D01*
X173265102Y-117077431D01*
X173360340Y-116458383D02*
X173312721Y-116553621D01*
X173217483Y-116601240D01*
X172360340Y-116601240D01*
X173312721Y-115696479D02*
X173360340Y-115791717D01*
X173360340Y-115982193D01*
X173312721Y-116077431D01*
X173217483Y-116125050D01*
X172836531Y-116125050D01*
X172741293Y-116077431D01*
X172693674Y-115982193D01*
X172693674Y-115791717D01*
X172741293Y-115696479D01*
X172836531Y-115648860D01*
X172931769Y-115648860D01*
X173027007Y-116125050D01*
X173360340Y-114696479D02*
X173360340Y-115267907D01*
X173360340Y-114982193D02*
X172360340Y-114982193D01*
X172503198Y-115077431D01*
X172598436Y-115172669D01*
X172646055Y-115267907D01*
X164081322Y-125162602D02*
X164033703Y-125210221D01*
X163890846Y-125257840D01*
X163795608Y-125257840D01*
X163652751Y-125210221D01*
X163557513Y-125114983D01*
X163509894Y-125019745D01*
X163462275Y-124829269D01*
X163462275Y-124686412D01*
X163509894Y-124495936D01*
X163557513Y-124400698D01*
X163652751Y-124305460D01*
X163795608Y-124257840D01*
X163890846Y-124257840D01*
X164033703Y-124305460D01*
X164081322Y-124353079D01*
X165033703Y-125257840D02*
X164462275Y-125257840D01*
X164747989Y-125257840D02*
X164747989Y-124257840D01*
X164652751Y-124400698D01*
X164557513Y-124495936D01*
X164462275Y-124543555D01*
X165605132Y-124686412D02*
X165509894Y-124638793D01*
X165462275Y-124591174D01*
X165414656Y-124495936D01*
X165414656Y-124448317D01*
X165462275Y-124353079D01*
X165509894Y-124305460D01*
X165605132Y-124257840D01*
X165795608Y-124257840D01*
X165890846Y-124305460D01*
X165938465Y-124353079D01*
X165986084Y-124448317D01*
X165986084Y-124495936D01*
X165938465Y-124591174D01*
X165890846Y-124638793D01*
X165795608Y-124686412D01*
X165605132Y-124686412D01*
X165509894Y-124734031D01*
X165462275Y-124781650D01*
X165414656Y-124876888D01*
X165414656Y-125067364D01*
X165462275Y-125162602D01*
X165509894Y-125210221D01*
X165605132Y-125257840D01*
X165795608Y-125257840D01*
X165890846Y-125210221D01*
X165938465Y-125162602D01*
X165986084Y-125067364D01*
X165986084Y-124876888D01*
X165938465Y-124781650D01*
X165890846Y-124734031D01*
X165795608Y-124686412D01*
X120611662Y-116165902D02*
X120564043Y-116213521D01*
X120421186Y-116261140D01*
X120325948Y-116261140D01*
X120183091Y-116213521D01*
X120087853Y-116118283D01*
X120040234Y-116023045D01*
X119992615Y-115832569D01*
X119992615Y-115689712D01*
X120040234Y-115499236D01*
X120087853Y-115403998D01*
X120183091Y-115308760D01*
X120325948Y-115261140D01*
X120421186Y-115261140D01*
X120564043Y-115308760D01*
X120611662Y-115356379D01*
X121564043Y-116261140D02*
X120992615Y-116261140D01*
X121278329Y-116261140D02*
X121278329Y-115261140D01*
X121183091Y-115403998D01*
X121087853Y-115499236D01*
X120992615Y-115546855D01*
X121897377Y-115261140D02*
X122564043Y-115261140D01*
X122135472Y-116261140D01*
X120479582Y-113646222D02*
X120431963Y-113693841D01*
X120289106Y-113741460D01*
X120193868Y-113741460D01*
X120051011Y-113693841D01*
X119955773Y-113598603D01*
X119908154Y-113503365D01*
X119860535Y-113312889D01*
X119860535Y-113170032D01*
X119908154Y-112979556D01*
X119955773Y-112884318D01*
X120051011Y-112789080D01*
X120193868Y-112741460D01*
X120289106Y-112741460D01*
X120431963Y-112789080D01*
X120479582Y-112836699D01*
X121431963Y-113741460D02*
X120860535Y-113741460D01*
X121146249Y-113741460D02*
X121146249Y-112741460D01*
X121051011Y-112884318D01*
X120955773Y-112979556D01*
X120860535Y-113027175D01*
X122289106Y-112741460D02*
X122098630Y-112741460D01*
X122003392Y-112789080D01*
X121955773Y-112836699D01*
X121860535Y-112979556D01*
X121812916Y-113170032D01*
X121812916Y-113550984D01*
X121860535Y-113646222D01*
X121908154Y-113693841D01*
X122003392Y-113741460D01*
X122193868Y-113741460D01*
X122289106Y-113693841D01*
X122336725Y-113646222D01*
X122384344Y-113550984D01*
X122384344Y-113312889D01*
X122336725Y-113217651D01*
X122289106Y-113170032D01*
X122193868Y-113122413D01*
X122003392Y-113122413D01*
X121908154Y-113170032D01*
X121860535Y-113217651D01*
X121812916Y-113312889D01*
X121611662Y-120180337D02*
X121659281Y-120227956D01*
X121706900Y-120370813D01*
X121706900Y-120466051D01*
X121659281Y-120608908D01*
X121564043Y-120704146D01*
X121468805Y-120751765D01*
X121278329Y-120799384D01*
X121135472Y-120799384D01*
X120944996Y-120751765D01*
X120849758Y-120704146D01*
X120754520Y-120608908D01*
X120706900Y-120466051D01*
X120706900Y-120370813D01*
X120754520Y-120227956D01*
X120802139Y-120180337D01*
X121706900Y-119227956D02*
X121706900Y-119799384D01*
X121706900Y-119513670D02*
X120706900Y-119513670D01*
X120849758Y-119608908D01*
X120944996Y-119704146D01*
X120992615Y-119799384D01*
X120706900Y-118323194D02*
X120706900Y-118799384D01*
X121183091Y-118847003D01*
X121135472Y-118799384D01*
X121087853Y-118704146D01*
X121087853Y-118466051D01*
X121135472Y-118370813D01*
X121183091Y-118323194D01*
X121278329Y-118275575D01*
X121516424Y-118275575D01*
X121611662Y-118323194D01*
X121659281Y-118370813D01*
X121706900Y-118466051D01*
X121706900Y-118704146D01*
X121659281Y-118799384D01*
X121611662Y-118847003D01*
X122800382Y-123314697D02*
X122848001Y-123362316D01*
X122895620Y-123505173D01*
X122895620Y-123600411D01*
X122848001Y-123743268D01*
X122752763Y-123838506D01*
X122657525Y-123886125D01*
X122467049Y-123933744D01*
X122324192Y-123933744D01*
X122133716Y-123886125D01*
X122038478Y-123838506D01*
X121943240Y-123743268D01*
X121895620Y-123600411D01*
X121895620Y-123505173D01*
X121943240Y-123362316D01*
X121990859Y-123314697D01*
X122895620Y-122362316D02*
X122895620Y-122933744D01*
X122895620Y-122648030D02*
X121895620Y-122648030D01*
X122038478Y-122743268D01*
X122133716Y-122838506D01*
X122181335Y-122933744D01*
X122228954Y-121505173D02*
X122895620Y-121505173D01*
X121848001Y-121743268D02*
X122562287Y-121981363D01*
X122562287Y-121362316D01*
X170090862Y-123455702D02*
X170043243Y-123503321D01*
X169900386Y-123550940D01*
X169805148Y-123550940D01*
X169662291Y-123503321D01*
X169567053Y-123408083D01*
X169519434Y-123312845D01*
X169471815Y-123122369D01*
X169471815Y-122979512D01*
X169519434Y-122789036D01*
X169567053Y-122693798D01*
X169662291Y-122598560D01*
X169805148Y-122550940D01*
X169900386Y-122550940D01*
X170043243Y-122598560D01*
X170090862Y-122646179D01*
X171043243Y-123550940D02*
X170471815Y-123550940D01*
X170757529Y-123550940D02*
X170757529Y-122550940D01*
X170662291Y-122693798D01*
X170567053Y-122789036D01*
X170471815Y-122836655D01*
X171995624Y-123550940D02*
X171424196Y-123550940D01*
X171709910Y-123550940D02*
X171709910Y-122550940D01*
X171614672Y-122693798D01*
X171519434Y-122789036D01*
X171424196Y-122836655D01*
D12*
X167059491Y-88103674D02*
X167035681Y-88141769D01*
X166964253Y-88179864D01*
X166916634Y-88179864D01*
X166845205Y-88141769D01*
X166797586Y-88065579D01*
X166773777Y-87989388D01*
X166749967Y-87837007D01*
X166749967Y-87722721D01*
X166773777Y-87570340D01*
X166797586Y-87494150D01*
X166845205Y-87417960D01*
X166916634Y-87379864D01*
X166964253Y-87379864D01*
X167035681Y-87417960D01*
X167059491Y-87456055D01*
X167535681Y-88179864D02*
X167249967Y-88179864D01*
X167392824Y-88179864D02*
X167392824Y-87379864D01*
X167345205Y-87494150D01*
X167297586Y-87570340D01*
X167249967Y-87608436D01*
X167845205Y-87379864D02*
X167892824Y-87379864D01*
X167940443Y-87417960D01*
X167964253Y-87456055D01*
X167988062Y-87532245D01*
X168011872Y-87684626D01*
X168011872Y-87875102D01*
X167988062Y-88027483D01*
X167964253Y-88103674D01*
X167940443Y-88141769D01*
X167892824Y-88179864D01*
X167845205Y-88179864D01*
X167797586Y-88141769D01*
X167773777Y-88103674D01*
X167749967Y-88027483D01*
X167726158Y-87875102D01*
X167726158Y-87684626D01*
X167749967Y-87532245D01*
X167773777Y-87456055D01*
X167797586Y-87417960D01*
X167845205Y-87379864D01*
X167503326Y-89005374D02*
X167479517Y-89043469D01*
X167408088Y-89081564D01*
X167360469Y-89081564D01*
X167289040Y-89043469D01*
X167241421Y-88967279D01*
X167217612Y-88891088D01*
X167193802Y-88738707D01*
X167193802Y-88624421D01*
X167217612Y-88472040D01*
X167241421Y-88395850D01*
X167289040Y-88319660D01*
X167360469Y-88281564D01*
X167408088Y-88281564D01*
X167479517Y-88319660D01*
X167503326Y-88357755D01*
X167741421Y-89081564D02*
X167836660Y-89081564D01*
X167884279Y-89043469D01*
X167908088Y-89005374D01*
X167955707Y-88891088D01*
X167979517Y-88738707D01*
X167979517Y-88433945D01*
X167955707Y-88357755D01*
X167931898Y-88319660D01*
X167884279Y-88281564D01*
X167789040Y-88281564D01*
X167741421Y-88319660D01*
X167717612Y-88357755D01*
X167693802Y-88433945D01*
X167693802Y-88624421D01*
X167717612Y-88700612D01*
X167741421Y-88738707D01*
X167789040Y-88776802D01*
X167884279Y-88776802D01*
X167931898Y-88738707D01*
X167955707Y-88700612D01*
X167979517Y-88624421D01*
D14*
X154602666Y-88489754D02*
X154578857Y-88527849D01*
X154507428Y-88565944D01*
X154459809Y-88565944D01*
X154388380Y-88527849D01*
X154340761Y-88451659D01*
X154316952Y-88375468D01*
X154293142Y-88223087D01*
X154293142Y-88108801D01*
X154316952Y-87956420D01*
X154340761Y-87880230D01*
X154388380Y-87804040D01*
X154459809Y-87765944D01*
X154507428Y-87765944D01*
X154578857Y-87804040D01*
X154602666Y-87842135D01*
X154888380Y-88108801D02*
X154840761Y-88070706D01*
X154816952Y-88032611D01*
X154793142Y-87956420D01*
X154793142Y-87918325D01*
X154816952Y-87842135D01*
X154840761Y-87804040D01*
X154888380Y-87765944D01*
X154983619Y-87765944D01*
X155031238Y-87804040D01*
X155055047Y-87842135D01*
X155078857Y-87918325D01*
X155078857Y-87956420D01*
X155055047Y-88032611D01*
X155031238Y-88070706D01*
X154983619Y-88108801D01*
X154888380Y-88108801D01*
X154840761Y-88146897D01*
X154816952Y-88184992D01*
X154793142Y-88261182D01*
X154793142Y-88413563D01*
X154816952Y-88489754D01*
X154840761Y-88527849D01*
X154888380Y-88565944D01*
X154983619Y-88565944D01*
X155031238Y-88527849D01*
X155055047Y-88489754D01*
X155078857Y-88413563D01*
X155078857Y-88261182D01*
X155055047Y-88184992D01*
X155031238Y-88146897D01*
X154983619Y-88108801D01*
X158209466Y-92756954D02*
X158185657Y-92795049D01*
X158114228Y-92833144D01*
X158066609Y-92833144D01*
X157995180Y-92795049D01*
X157947561Y-92718859D01*
X157923752Y-92642668D01*
X157899942Y-92490287D01*
X157899942Y-92376001D01*
X157923752Y-92223620D01*
X157947561Y-92147430D01*
X157995180Y-92071240D01*
X158066609Y-92033144D01*
X158114228Y-92033144D01*
X158185657Y-92071240D01*
X158209466Y-92109335D01*
X158376133Y-92033144D02*
X158709466Y-92033144D01*
X158495180Y-92833144D01*
X158092626Y-84034594D02*
X158068817Y-84072689D01*
X157997388Y-84110784D01*
X157949769Y-84110784D01*
X157878340Y-84072689D01*
X157830721Y-83996499D01*
X157806912Y-83920308D01*
X157783102Y-83767927D01*
X157783102Y-83653641D01*
X157806912Y-83501260D01*
X157830721Y-83425070D01*
X157878340Y-83348880D01*
X157949769Y-83310784D01*
X157997388Y-83310784D01*
X158068817Y-83348880D01*
X158092626Y-83386975D01*
X158521198Y-83310784D02*
X158425960Y-83310784D01*
X158378340Y-83348880D01*
X158354531Y-83386975D01*
X158306912Y-83501260D01*
X158283102Y-83653641D01*
X158283102Y-83958403D01*
X158306912Y-84034594D01*
X158330721Y-84072689D01*
X158378340Y-84110784D01*
X158473579Y-84110784D01*
X158521198Y-84072689D01*
X158545007Y-84034594D01*
X158568817Y-83958403D01*
X158568817Y-83767927D01*
X158545007Y-83691737D01*
X158521198Y-83653641D01*
X158473579Y-83615546D01*
X158378340Y-83615546D01*
X158330721Y-83653641D01*
X158306912Y-83691737D01*
X158283102Y-83767927D01*
D12*
X142364946Y-87367074D02*
X142341137Y-87405169D01*
X142269708Y-87443264D01*
X142222089Y-87443264D01*
X142150660Y-87405169D01*
X142103041Y-87328979D01*
X142079232Y-87252788D01*
X142055422Y-87100407D01*
X142055422Y-86986121D01*
X142079232Y-86833740D01*
X142103041Y-86757550D01*
X142150660Y-86681360D01*
X142222089Y-86643264D01*
X142269708Y-86643264D01*
X142341137Y-86681360D01*
X142364946Y-86719455D01*
X142817327Y-86643264D02*
X142579232Y-86643264D01*
X142555422Y-87024217D01*
X142579232Y-86986121D01*
X142626851Y-86948026D01*
X142745899Y-86948026D01*
X142793518Y-86986121D01*
X142817327Y-87024217D01*
X142841137Y-87100407D01*
X142841137Y-87290883D01*
X142817327Y-87367074D01*
X142793518Y-87405169D01*
X142745899Y-87443264D01*
X142626851Y-87443264D01*
X142579232Y-87405169D01*
X142555422Y-87367074D01*
X142349706Y-89282234D02*
X142325897Y-89320329D01*
X142254468Y-89358424D01*
X142206849Y-89358424D01*
X142135420Y-89320329D01*
X142087801Y-89244139D01*
X142063992Y-89167948D01*
X142040182Y-89015567D01*
X142040182Y-88901281D01*
X142063992Y-88748900D01*
X142087801Y-88672710D01*
X142135420Y-88596520D01*
X142206849Y-88558424D01*
X142254468Y-88558424D01*
X142325897Y-88596520D01*
X142349706Y-88634615D01*
X142778278Y-88825091D02*
X142778278Y-89358424D01*
X142659230Y-88520329D02*
X142540182Y-89091758D01*
X142849706Y-89091758D01*
D11*
X128301453Y-88723742D02*
X128253834Y-88771361D01*
X128110977Y-88818980D01*
X128015739Y-88818980D01*
X127872881Y-88771361D01*
X127777643Y-88676123D01*
X127730024Y-88580885D01*
X127682405Y-88390409D01*
X127682405Y-88247552D01*
X127730024Y-88057076D01*
X127777643Y-87961838D01*
X127872881Y-87866600D01*
X128015739Y-87818980D01*
X128110977Y-87818980D01*
X128253834Y-87866600D01*
X128301453Y-87914219D01*
X128634786Y-87818980D02*
X129253834Y-87818980D01*
X128920500Y-88199933D01*
X129063358Y-88199933D01*
X129158596Y-88247552D01*
X129206215Y-88295171D01*
X129253834Y-88390409D01*
X129253834Y-88628504D01*
X129206215Y-88723742D01*
X129158596Y-88771361D01*
X129063358Y-88818980D01*
X128777643Y-88818980D01*
X128682405Y-88771361D01*
X128634786Y-88723742D01*
D12*
X131183866Y-89541314D02*
X131160057Y-89579409D01*
X131088628Y-89617504D01*
X131041009Y-89617504D01*
X130969580Y-89579409D01*
X130921961Y-89503219D01*
X130898152Y-89427028D01*
X130874342Y-89274647D01*
X130874342Y-89160361D01*
X130898152Y-89007980D01*
X130921961Y-88931790D01*
X130969580Y-88855600D01*
X131041009Y-88817504D01*
X131088628Y-88817504D01*
X131160057Y-88855600D01*
X131183866Y-88893695D01*
X131374342Y-88893695D02*
X131398152Y-88855600D01*
X131445771Y-88817504D01*
X131564819Y-88817504D01*
X131612438Y-88855600D01*
X131636247Y-88893695D01*
X131660057Y-88969885D01*
X131660057Y-89046076D01*
X131636247Y-89160361D01*
X131350533Y-89617504D01*
X131660057Y-89617504D01*
X131595346Y-87046571D02*
X131571537Y-87070380D01*
X131500108Y-87094190D01*
X131452489Y-87094190D01*
X131381060Y-87070380D01*
X131333441Y-87022761D01*
X131309632Y-86975142D01*
X131285822Y-86879904D01*
X131285822Y-86808476D01*
X131309632Y-86713238D01*
X131333441Y-86665619D01*
X131381060Y-86618000D01*
X131452489Y-86594190D01*
X131500108Y-86594190D01*
X131571537Y-86618000D01*
X131595346Y-86641809D01*
X132071537Y-87094190D02*
X131785822Y-87094190D01*
X131928680Y-87094190D02*
X131928680Y-86594190D01*
X131881060Y-86665619D01*
X131833441Y-86713238D01*
X131785822Y-86737047D01*
M02*
