G04 #@! TF.GenerationSoftware,KiCad,Pcbnew,(5.1.4)-1*
G04 #@! TF.CreationDate,2019-12-10T17:27:58+01:00*
G04 #@! TF.ProjectId,teensy4_header_breakout,7465656e-7379-4345-9f68-65616465725f,rev?*
G04 #@! TF.SameCoordinates,Original*
G04 #@! TF.FileFunction,Copper,L4,Bot*
G04 #@! TF.FilePolarity,Positive*
%FSLAX46Y46*%
G04 Gerber Fmt 4.6, Leading zero omitted, Abs format (unit mm)*
G04 Created by KiCad (PCBNEW (5.1.4)-1) date 2019-12-10 17:27:58*
%MOMM*%
%LPD*%
G04 APERTURE LIST*
%ADD10C,0.300000*%
%ADD11C,0.625000*%
%ADD12C,1.524000*%
%ADD13C,0.100000*%
%ADD14C,0.875000*%
%ADD15R,0.500000X0.400000*%
%ADD16C,0.500000*%
%ADD17C,4.000000*%
%ADD18C,1.500000*%
%ADD19R,1.270000X5.080000*%
%ADD20R,3.960000X3.960000*%
%ADD21C,0.800000*%
%ADD22C,2.000000*%
%ADD23C,1.000000*%
%ADD24C,0.250000*%
%ADD25C,1.000000*%
%ADD26C,0.500000*%
%ADD27C,0.254000*%
G04 APERTURE END LIST*
D10*
X116964285Y-146678571D02*
X116964285Y-147678571D01*
X117321428Y-146107142D02*
X117678571Y-147178571D01*
X116750000Y-147178571D01*
D11*
X154142792Y-140981596D02*
X154142792Y-142172072D01*
X154976125Y-139672072D02*
X154142792Y-140981596D01*
X153309459Y-139672072D01*
X151999935Y-139672072D02*
X151523744Y-139672072D01*
X151285649Y-139791120D01*
X151047554Y-140029215D01*
X150928506Y-140505405D01*
X150928506Y-141338739D01*
X151047554Y-141814929D01*
X151285649Y-142053024D01*
X151523744Y-142172072D01*
X151999935Y-142172072D01*
X152238030Y-142053024D01*
X152476125Y-141814929D01*
X152595173Y-141338739D01*
X152595173Y-140505405D01*
X152476125Y-140029215D01*
X152238030Y-139791120D01*
X151999935Y-139672072D01*
X148666601Y-142172072D02*
X149857078Y-142172072D01*
X149857078Y-139672072D01*
X147357078Y-139672072D02*
X146880887Y-139672072D01*
X146642792Y-139791120D01*
X146404697Y-140029215D01*
X146285649Y-140505405D01*
X146285649Y-141338739D01*
X146404697Y-141814929D01*
X146642792Y-142053024D01*
X146880887Y-142172072D01*
X147357078Y-142172072D01*
X147595173Y-142053024D01*
X147833268Y-141814929D01*
X147952316Y-141338739D01*
X147952316Y-140505405D01*
X147833268Y-140029215D01*
X147595173Y-139791120D01*
X147357078Y-139672072D01*
X145214220Y-141219691D02*
X143309459Y-141219691D01*
X142238030Y-141457786D02*
X141047554Y-141457786D01*
X142476125Y-142172072D02*
X141642792Y-139672072D01*
X140809459Y-142172072D01*
X138547554Y-142172072D02*
X139380887Y-140981596D01*
X139976125Y-142172072D02*
X139976125Y-139672072D01*
X139023744Y-139672072D01*
X138785649Y-139791120D01*
X138666601Y-139910167D01*
X138547554Y-140148262D01*
X138547554Y-140505405D01*
X138666601Y-140743500D01*
X138785649Y-140862548D01*
X139023744Y-140981596D01*
X139976125Y-140981596D01*
X137595173Y-139910167D02*
X137476125Y-139791120D01*
X137238030Y-139672072D01*
X136642792Y-139672072D01*
X136404697Y-139791120D01*
X136285649Y-139910167D01*
X136166601Y-140148262D01*
X136166601Y-140386358D01*
X136285649Y-140743500D01*
X137714220Y-142172072D01*
X136166601Y-142172072D01*
X134618982Y-139672072D02*
X134380887Y-139672072D01*
X134142792Y-139791120D01*
X134023744Y-139910167D01*
X133904697Y-140148262D01*
X133785649Y-140624453D01*
X133785649Y-141219691D01*
X133904697Y-141695881D01*
X134023744Y-141933977D01*
X134142792Y-142053024D01*
X134380887Y-142172072D01*
X134618982Y-142172072D01*
X134857078Y-142053024D01*
X134976125Y-141933977D01*
X135095173Y-141695881D01*
X135214220Y-141219691D01*
X135214220Y-140624453D01*
X135095173Y-140148262D01*
X134976125Y-139910167D01*
X134857078Y-139791120D01*
X134618982Y-139672072D01*
D12*
X166809900Y-144121160D03*
X119309900Y-144121160D03*
X166809900Y-142271160D03*
X119309900Y-142271160D03*
X166809900Y-140421160D03*
X119309900Y-140421160D03*
D13*
G36*
X127118071Y-95771733D02*
G01*
X127139306Y-95774883D01*
X127160130Y-95780099D01*
X127180342Y-95787331D01*
X127199748Y-95796510D01*
X127218161Y-95807546D01*
X127235404Y-95820334D01*
X127251310Y-95834750D01*
X127265726Y-95850656D01*
X127278514Y-95867899D01*
X127289550Y-95886312D01*
X127298729Y-95905718D01*
X127305961Y-95925930D01*
X127311177Y-95946754D01*
X127314327Y-95967989D01*
X127315380Y-95989430D01*
X127315380Y-96501930D01*
X127314327Y-96523371D01*
X127311177Y-96544606D01*
X127305961Y-96565430D01*
X127298729Y-96585642D01*
X127289550Y-96605048D01*
X127278514Y-96623461D01*
X127265726Y-96640704D01*
X127251310Y-96656610D01*
X127235404Y-96671026D01*
X127218161Y-96683814D01*
X127199748Y-96694850D01*
X127180342Y-96704029D01*
X127160130Y-96711261D01*
X127139306Y-96716477D01*
X127118071Y-96719627D01*
X127096630Y-96720680D01*
X126659130Y-96720680D01*
X126637689Y-96719627D01*
X126616454Y-96716477D01*
X126595630Y-96711261D01*
X126575418Y-96704029D01*
X126556012Y-96694850D01*
X126537599Y-96683814D01*
X126520356Y-96671026D01*
X126504450Y-96656610D01*
X126490034Y-96640704D01*
X126477246Y-96623461D01*
X126466210Y-96605048D01*
X126457031Y-96585642D01*
X126449799Y-96565430D01*
X126444583Y-96544606D01*
X126441433Y-96523371D01*
X126440380Y-96501930D01*
X126440380Y-95989430D01*
X126441433Y-95967989D01*
X126444583Y-95946754D01*
X126449799Y-95925930D01*
X126457031Y-95905718D01*
X126466210Y-95886312D01*
X126477246Y-95867899D01*
X126490034Y-95850656D01*
X126504450Y-95834750D01*
X126520356Y-95820334D01*
X126537599Y-95807546D01*
X126556012Y-95796510D01*
X126575418Y-95787331D01*
X126595630Y-95780099D01*
X126616454Y-95774883D01*
X126637689Y-95771733D01*
X126659130Y-95770680D01*
X127096630Y-95770680D01*
X127118071Y-95771733D01*
X127118071Y-95771733D01*
G37*
D14*
X126877880Y-96245680D03*
D13*
G36*
X128693071Y-95771733D02*
G01*
X128714306Y-95774883D01*
X128735130Y-95780099D01*
X128755342Y-95787331D01*
X128774748Y-95796510D01*
X128793161Y-95807546D01*
X128810404Y-95820334D01*
X128826310Y-95834750D01*
X128840726Y-95850656D01*
X128853514Y-95867899D01*
X128864550Y-95886312D01*
X128873729Y-95905718D01*
X128880961Y-95925930D01*
X128886177Y-95946754D01*
X128889327Y-95967989D01*
X128890380Y-95989430D01*
X128890380Y-96501930D01*
X128889327Y-96523371D01*
X128886177Y-96544606D01*
X128880961Y-96565430D01*
X128873729Y-96585642D01*
X128864550Y-96605048D01*
X128853514Y-96623461D01*
X128840726Y-96640704D01*
X128826310Y-96656610D01*
X128810404Y-96671026D01*
X128793161Y-96683814D01*
X128774748Y-96694850D01*
X128755342Y-96704029D01*
X128735130Y-96711261D01*
X128714306Y-96716477D01*
X128693071Y-96719627D01*
X128671630Y-96720680D01*
X128234130Y-96720680D01*
X128212689Y-96719627D01*
X128191454Y-96716477D01*
X128170630Y-96711261D01*
X128150418Y-96704029D01*
X128131012Y-96694850D01*
X128112599Y-96683814D01*
X128095356Y-96671026D01*
X128079450Y-96656610D01*
X128065034Y-96640704D01*
X128052246Y-96623461D01*
X128041210Y-96605048D01*
X128032031Y-96585642D01*
X128024799Y-96565430D01*
X128019583Y-96544606D01*
X128016433Y-96523371D01*
X128015380Y-96501930D01*
X128015380Y-95989430D01*
X128016433Y-95967989D01*
X128019583Y-95946754D01*
X128024799Y-95925930D01*
X128032031Y-95905718D01*
X128041210Y-95886312D01*
X128052246Y-95867899D01*
X128065034Y-95850656D01*
X128079450Y-95834750D01*
X128095356Y-95820334D01*
X128112599Y-95807546D01*
X128131012Y-95796510D01*
X128150418Y-95787331D01*
X128170630Y-95780099D01*
X128191454Y-95774883D01*
X128212689Y-95771733D01*
X128234130Y-95770680D01*
X128671630Y-95770680D01*
X128693071Y-95771733D01*
X128693071Y-95771733D01*
G37*
D14*
X128452880Y-96245680D03*
D15*
X133517640Y-96708440D03*
X131617640Y-96708440D03*
X131617640Y-97358440D03*
X133517640Y-98008440D03*
X131617640Y-98008440D03*
D13*
G36*
X131751431Y-89147413D02*
G01*
X131772666Y-89150563D01*
X131793490Y-89155779D01*
X131813702Y-89163011D01*
X131833108Y-89172190D01*
X131851521Y-89183226D01*
X131868764Y-89196014D01*
X131884670Y-89210430D01*
X131899086Y-89226336D01*
X131911874Y-89243579D01*
X131922910Y-89261992D01*
X131932089Y-89281398D01*
X131939321Y-89301610D01*
X131944537Y-89322434D01*
X131947687Y-89343669D01*
X131948740Y-89365110D01*
X131948740Y-89877610D01*
X131947687Y-89899051D01*
X131944537Y-89920286D01*
X131939321Y-89941110D01*
X131932089Y-89961322D01*
X131922910Y-89980728D01*
X131911874Y-89999141D01*
X131899086Y-90016384D01*
X131884670Y-90032290D01*
X131868764Y-90046706D01*
X131851521Y-90059494D01*
X131833108Y-90070530D01*
X131813702Y-90079709D01*
X131793490Y-90086941D01*
X131772666Y-90092157D01*
X131751431Y-90095307D01*
X131729990Y-90096360D01*
X131292490Y-90096360D01*
X131271049Y-90095307D01*
X131249814Y-90092157D01*
X131228990Y-90086941D01*
X131208778Y-90079709D01*
X131189372Y-90070530D01*
X131170959Y-90059494D01*
X131153716Y-90046706D01*
X131137810Y-90032290D01*
X131123394Y-90016384D01*
X131110606Y-89999141D01*
X131099570Y-89980728D01*
X131090391Y-89961322D01*
X131083159Y-89941110D01*
X131077943Y-89920286D01*
X131074793Y-89899051D01*
X131073740Y-89877610D01*
X131073740Y-89365110D01*
X131074793Y-89343669D01*
X131077943Y-89322434D01*
X131083159Y-89301610D01*
X131090391Y-89281398D01*
X131099570Y-89261992D01*
X131110606Y-89243579D01*
X131123394Y-89226336D01*
X131137810Y-89210430D01*
X131153716Y-89196014D01*
X131170959Y-89183226D01*
X131189372Y-89172190D01*
X131208778Y-89163011D01*
X131228990Y-89155779D01*
X131249814Y-89150563D01*
X131271049Y-89147413D01*
X131292490Y-89146360D01*
X131729990Y-89146360D01*
X131751431Y-89147413D01*
X131751431Y-89147413D01*
G37*
D14*
X131511240Y-89621360D03*
D13*
G36*
X130176431Y-89147413D02*
G01*
X130197666Y-89150563D01*
X130218490Y-89155779D01*
X130238702Y-89163011D01*
X130258108Y-89172190D01*
X130276521Y-89183226D01*
X130293764Y-89196014D01*
X130309670Y-89210430D01*
X130324086Y-89226336D01*
X130336874Y-89243579D01*
X130347910Y-89261992D01*
X130357089Y-89281398D01*
X130364321Y-89301610D01*
X130369537Y-89322434D01*
X130372687Y-89343669D01*
X130373740Y-89365110D01*
X130373740Y-89877610D01*
X130372687Y-89899051D01*
X130369537Y-89920286D01*
X130364321Y-89941110D01*
X130357089Y-89961322D01*
X130347910Y-89980728D01*
X130336874Y-89999141D01*
X130324086Y-90016384D01*
X130309670Y-90032290D01*
X130293764Y-90046706D01*
X130276521Y-90059494D01*
X130258108Y-90070530D01*
X130238702Y-90079709D01*
X130218490Y-90086941D01*
X130197666Y-90092157D01*
X130176431Y-90095307D01*
X130154990Y-90096360D01*
X129717490Y-90096360D01*
X129696049Y-90095307D01*
X129674814Y-90092157D01*
X129653990Y-90086941D01*
X129633778Y-90079709D01*
X129614372Y-90070530D01*
X129595959Y-90059494D01*
X129578716Y-90046706D01*
X129562810Y-90032290D01*
X129548394Y-90016384D01*
X129535606Y-89999141D01*
X129524570Y-89980728D01*
X129515391Y-89961322D01*
X129508159Y-89941110D01*
X129502943Y-89920286D01*
X129499793Y-89899051D01*
X129498740Y-89877610D01*
X129498740Y-89365110D01*
X129499793Y-89343669D01*
X129502943Y-89322434D01*
X129508159Y-89301610D01*
X129515391Y-89281398D01*
X129524570Y-89261992D01*
X129535606Y-89243579D01*
X129548394Y-89226336D01*
X129562810Y-89210430D01*
X129578716Y-89196014D01*
X129595959Y-89183226D01*
X129614372Y-89172190D01*
X129633778Y-89163011D01*
X129653990Y-89155779D01*
X129674814Y-89150563D01*
X129696049Y-89147413D01*
X129717490Y-89146360D01*
X130154990Y-89146360D01*
X130176431Y-89147413D01*
X130176431Y-89147413D01*
G37*
D14*
X129936240Y-89621360D03*
D13*
G36*
X129297491Y-87410053D02*
G01*
X129318726Y-87413203D01*
X129339550Y-87418419D01*
X129359762Y-87425651D01*
X129379168Y-87434830D01*
X129397581Y-87445866D01*
X129414824Y-87458654D01*
X129430730Y-87473070D01*
X129445146Y-87488976D01*
X129457934Y-87506219D01*
X129468970Y-87524632D01*
X129478149Y-87544038D01*
X129485381Y-87564250D01*
X129490597Y-87585074D01*
X129493747Y-87606309D01*
X129494800Y-87627750D01*
X129494800Y-88140250D01*
X129493747Y-88161691D01*
X129490597Y-88182926D01*
X129485381Y-88203750D01*
X129478149Y-88223962D01*
X129468970Y-88243368D01*
X129457934Y-88261781D01*
X129445146Y-88279024D01*
X129430730Y-88294930D01*
X129414824Y-88309346D01*
X129397581Y-88322134D01*
X129379168Y-88333170D01*
X129359762Y-88342349D01*
X129339550Y-88349581D01*
X129318726Y-88354797D01*
X129297491Y-88357947D01*
X129276050Y-88359000D01*
X128838550Y-88359000D01*
X128817109Y-88357947D01*
X128795874Y-88354797D01*
X128775050Y-88349581D01*
X128754838Y-88342349D01*
X128735432Y-88333170D01*
X128717019Y-88322134D01*
X128699776Y-88309346D01*
X128683870Y-88294930D01*
X128669454Y-88279024D01*
X128656666Y-88261781D01*
X128645630Y-88243368D01*
X128636451Y-88223962D01*
X128629219Y-88203750D01*
X128624003Y-88182926D01*
X128620853Y-88161691D01*
X128619800Y-88140250D01*
X128619800Y-87627750D01*
X128620853Y-87606309D01*
X128624003Y-87585074D01*
X128629219Y-87564250D01*
X128636451Y-87544038D01*
X128645630Y-87524632D01*
X128656666Y-87506219D01*
X128669454Y-87488976D01*
X128683870Y-87473070D01*
X128699776Y-87458654D01*
X128717019Y-87445866D01*
X128735432Y-87434830D01*
X128754838Y-87425651D01*
X128775050Y-87418419D01*
X128795874Y-87413203D01*
X128817109Y-87410053D01*
X128838550Y-87409000D01*
X129276050Y-87409000D01*
X129297491Y-87410053D01*
X129297491Y-87410053D01*
G37*
D14*
X129057300Y-87884000D03*
D13*
G36*
X130872491Y-87410053D02*
G01*
X130893726Y-87413203D01*
X130914550Y-87418419D01*
X130934762Y-87425651D01*
X130954168Y-87434830D01*
X130972581Y-87445866D01*
X130989824Y-87458654D01*
X131005730Y-87473070D01*
X131020146Y-87488976D01*
X131032934Y-87506219D01*
X131043970Y-87524632D01*
X131053149Y-87544038D01*
X131060381Y-87564250D01*
X131065597Y-87585074D01*
X131068747Y-87606309D01*
X131069800Y-87627750D01*
X131069800Y-88140250D01*
X131068747Y-88161691D01*
X131065597Y-88182926D01*
X131060381Y-88203750D01*
X131053149Y-88223962D01*
X131043970Y-88243368D01*
X131032934Y-88261781D01*
X131020146Y-88279024D01*
X131005730Y-88294930D01*
X130989824Y-88309346D01*
X130972581Y-88322134D01*
X130954168Y-88333170D01*
X130934762Y-88342349D01*
X130914550Y-88349581D01*
X130893726Y-88354797D01*
X130872491Y-88357947D01*
X130851050Y-88359000D01*
X130413550Y-88359000D01*
X130392109Y-88357947D01*
X130370874Y-88354797D01*
X130350050Y-88349581D01*
X130329838Y-88342349D01*
X130310432Y-88333170D01*
X130292019Y-88322134D01*
X130274776Y-88309346D01*
X130258870Y-88294930D01*
X130244454Y-88279024D01*
X130231666Y-88261781D01*
X130220630Y-88243368D01*
X130211451Y-88223962D01*
X130204219Y-88203750D01*
X130199003Y-88182926D01*
X130195853Y-88161691D01*
X130194800Y-88140250D01*
X130194800Y-87627750D01*
X130195853Y-87606309D01*
X130199003Y-87585074D01*
X130204219Y-87564250D01*
X130211451Y-87544038D01*
X130220630Y-87524632D01*
X130231666Y-87506219D01*
X130244454Y-87488976D01*
X130258870Y-87473070D01*
X130274776Y-87458654D01*
X130292019Y-87445866D01*
X130310432Y-87434830D01*
X130329838Y-87425651D01*
X130350050Y-87418419D01*
X130370874Y-87413203D01*
X130392109Y-87410053D01*
X130413550Y-87409000D01*
X130851050Y-87409000D01*
X130872491Y-87410053D01*
X130872491Y-87410053D01*
G37*
D14*
X130632300Y-87884000D03*
D16*
X130002760Y-93944440D03*
D13*
G36*
X130002760Y-94693838D02*
G01*
X129978226Y-94693838D01*
X129929395Y-94689028D01*
X129881270Y-94679456D01*
X129834315Y-94665212D01*
X129788982Y-94646435D01*
X129745709Y-94623304D01*
X129704910Y-94596044D01*
X129666981Y-94564916D01*
X129632284Y-94530219D01*
X129601156Y-94492290D01*
X129573896Y-94451491D01*
X129550765Y-94408218D01*
X129531988Y-94362885D01*
X129517744Y-94315930D01*
X129508172Y-94267805D01*
X129503362Y-94218974D01*
X129503362Y-94194440D01*
X129502760Y-94194440D01*
X129502760Y-93694440D01*
X129503362Y-93694440D01*
X129503362Y-93669906D01*
X129508172Y-93621075D01*
X129517744Y-93572950D01*
X129531988Y-93525995D01*
X129550765Y-93480662D01*
X129573896Y-93437389D01*
X129601156Y-93396590D01*
X129632284Y-93358661D01*
X129666981Y-93323964D01*
X129704910Y-93292836D01*
X129745709Y-93265576D01*
X129788982Y-93242445D01*
X129834315Y-93223668D01*
X129881270Y-93209424D01*
X129929395Y-93199852D01*
X129978226Y-93195042D01*
X130002760Y-93195042D01*
X130002760Y-93194440D01*
X130502760Y-93194440D01*
X130502760Y-94694440D01*
X130002760Y-94694440D01*
X130002760Y-94693838D01*
X130002760Y-94693838D01*
G37*
D16*
X131302760Y-93944440D03*
D13*
G36*
X130802760Y-93194440D02*
G01*
X131302760Y-93194440D01*
X131302760Y-93195042D01*
X131327294Y-93195042D01*
X131376125Y-93199852D01*
X131424250Y-93209424D01*
X131471205Y-93223668D01*
X131516538Y-93242445D01*
X131559811Y-93265576D01*
X131600610Y-93292836D01*
X131638539Y-93323964D01*
X131673236Y-93358661D01*
X131704364Y-93396590D01*
X131731624Y-93437389D01*
X131754755Y-93480662D01*
X131773532Y-93525995D01*
X131787776Y-93572950D01*
X131797348Y-93621075D01*
X131802158Y-93669906D01*
X131802158Y-93694440D01*
X131802760Y-93694440D01*
X131802760Y-94194440D01*
X131802158Y-94194440D01*
X131802158Y-94218974D01*
X131797348Y-94267805D01*
X131787776Y-94315930D01*
X131773532Y-94362885D01*
X131754755Y-94408218D01*
X131731624Y-94451491D01*
X131704364Y-94492290D01*
X131673236Y-94530219D01*
X131638539Y-94564916D01*
X131600610Y-94596044D01*
X131559811Y-94623304D01*
X131516538Y-94646435D01*
X131471205Y-94665212D01*
X131424250Y-94679456D01*
X131376125Y-94689028D01*
X131327294Y-94693838D01*
X131302760Y-94693838D01*
X131302760Y-94694440D01*
X130802760Y-94694440D01*
X130802760Y-93194440D01*
X130802760Y-93194440D01*
G37*
G36*
X131700631Y-91077813D02*
G01*
X131721866Y-91080963D01*
X131742690Y-91086179D01*
X131762902Y-91093411D01*
X131782308Y-91102590D01*
X131800721Y-91113626D01*
X131817964Y-91126414D01*
X131833870Y-91140830D01*
X131848286Y-91156736D01*
X131861074Y-91173979D01*
X131872110Y-91192392D01*
X131881289Y-91211798D01*
X131888521Y-91232010D01*
X131893737Y-91252834D01*
X131896887Y-91274069D01*
X131897940Y-91295510D01*
X131897940Y-91808010D01*
X131896887Y-91829451D01*
X131893737Y-91850686D01*
X131888521Y-91871510D01*
X131881289Y-91891722D01*
X131872110Y-91911128D01*
X131861074Y-91929541D01*
X131848286Y-91946784D01*
X131833870Y-91962690D01*
X131817964Y-91977106D01*
X131800721Y-91989894D01*
X131782308Y-92000930D01*
X131762902Y-92010109D01*
X131742690Y-92017341D01*
X131721866Y-92022557D01*
X131700631Y-92025707D01*
X131679190Y-92026760D01*
X131241690Y-92026760D01*
X131220249Y-92025707D01*
X131199014Y-92022557D01*
X131178190Y-92017341D01*
X131157978Y-92010109D01*
X131138572Y-92000930D01*
X131120159Y-91989894D01*
X131102916Y-91977106D01*
X131087010Y-91962690D01*
X131072594Y-91946784D01*
X131059806Y-91929541D01*
X131048770Y-91911128D01*
X131039591Y-91891722D01*
X131032359Y-91871510D01*
X131027143Y-91850686D01*
X131023993Y-91829451D01*
X131022940Y-91808010D01*
X131022940Y-91295510D01*
X131023993Y-91274069D01*
X131027143Y-91252834D01*
X131032359Y-91232010D01*
X131039591Y-91211798D01*
X131048770Y-91192392D01*
X131059806Y-91173979D01*
X131072594Y-91156736D01*
X131087010Y-91140830D01*
X131102916Y-91126414D01*
X131120159Y-91113626D01*
X131138572Y-91102590D01*
X131157978Y-91093411D01*
X131178190Y-91086179D01*
X131199014Y-91080963D01*
X131220249Y-91077813D01*
X131241690Y-91076760D01*
X131679190Y-91076760D01*
X131700631Y-91077813D01*
X131700631Y-91077813D01*
G37*
D14*
X131460440Y-91551760D03*
D13*
G36*
X130125631Y-91077813D02*
G01*
X130146866Y-91080963D01*
X130167690Y-91086179D01*
X130187902Y-91093411D01*
X130207308Y-91102590D01*
X130225721Y-91113626D01*
X130242964Y-91126414D01*
X130258870Y-91140830D01*
X130273286Y-91156736D01*
X130286074Y-91173979D01*
X130297110Y-91192392D01*
X130306289Y-91211798D01*
X130313521Y-91232010D01*
X130318737Y-91252834D01*
X130321887Y-91274069D01*
X130322940Y-91295510D01*
X130322940Y-91808010D01*
X130321887Y-91829451D01*
X130318737Y-91850686D01*
X130313521Y-91871510D01*
X130306289Y-91891722D01*
X130297110Y-91911128D01*
X130286074Y-91929541D01*
X130273286Y-91946784D01*
X130258870Y-91962690D01*
X130242964Y-91977106D01*
X130225721Y-91989894D01*
X130207308Y-92000930D01*
X130187902Y-92010109D01*
X130167690Y-92017341D01*
X130146866Y-92022557D01*
X130125631Y-92025707D01*
X130104190Y-92026760D01*
X129666690Y-92026760D01*
X129645249Y-92025707D01*
X129624014Y-92022557D01*
X129603190Y-92017341D01*
X129582978Y-92010109D01*
X129563572Y-92000930D01*
X129545159Y-91989894D01*
X129527916Y-91977106D01*
X129512010Y-91962690D01*
X129497594Y-91946784D01*
X129484806Y-91929541D01*
X129473770Y-91911128D01*
X129464591Y-91891722D01*
X129457359Y-91871510D01*
X129452143Y-91850686D01*
X129448993Y-91829451D01*
X129447940Y-91808010D01*
X129447940Y-91295510D01*
X129448993Y-91274069D01*
X129452143Y-91252834D01*
X129457359Y-91232010D01*
X129464591Y-91211798D01*
X129473770Y-91192392D01*
X129484806Y-91173979D01*
X129497594Y-91156736D01*
X129512010Y-91140830D01*
X129527916Y-91126414D01*
X129545159Y-91113626D01*
X129563572Y-91102590D01*
X129582978Y-91093411D01*
X129603190Y-91086179D01*
X129624014Y-91080963D01*
X129645249Y-91077813D01*
X129666690Y-91076760D01*
X130104190Y-91076760D01*
X130125631Y-91077813D01*
X130125631Y-91077813D01*
G37*
D14*
X129885440Y-91551760D03*
D12*
X151795480Y-105722420D03*
X151795480Y-108262420D03*
X151795480Y-110802420D03*
X151795480Y-113342420D03*
X151795480Y-115882420D03*
X154335480Y-105722420D03*
X154395480Y-108262420D03*
X154395480Y-110802420D03*
X154395480Y-113342420D03*
X154395480Y-115882420D03*
X159415480Y-105722420D03*
X159415480Y-108262420D03*
X159415480Y-110802420D03*
X159415480Y-113342420D03*
X159415480Y-115882420D03*
X159415480Y-103182420D03*
X159415480Y-118422420D03*
X156875480Y-103182420D03*
X156875480Y-118422420D03*
X154335480Y-103182420D03*
X154335480Y-118422420D03*
X151795480Y-103182420D03*
X151795480Y-118422420D03*
X149255480Y-103182420D03*
X149255480Y-118422420D03*
X146715480Y-103182420D03*
X146715480Y-118422420D03*
X144175480Y-103182420D03*
X144175480Y-118422420D03*
X141635480Y-103182420D03*
X141635480Y-118422420D03*
X139095480Y-103182420D03*
X139095480Y-118422420D03*
X136555480Y-103182420D03*
X136555480Y-118422420D03*
X134015480Y-103182420D03*
X134015480Y-118422420D03*
X131475480Y-103182420D03*
X131475480Y-118422420D03*
X128935480Y-103182420D03*
X128935480Y-118422420D03*
X126395480Y-103182420D03*
X126395480Y-118422420D03*
D17*
X172580090Y-142643600D03*
X113596680Y-142643600D03*
X172580090Y-74643240D03*
X113596680Y-74643240D03*
D18*
X172054520Y-106004360D03*
X172054520Y-108544360D03*
X172054520Y-103464360D03*
D19*
X131450580Y-82428080D03*
X153420580Y-82428080D03*
D20*
X142435580Y-82428080D03*
D21*
X114823240Y-119872760D03*
X158551880Y-96799400D03*
X154655520Y-92704920D03*
X156530040Y-77271880D03*
X160101280Y-77378560D03*
X166004240Y-77962760D03*
X172653960Y-79928720D03*
X173893480Y-84175600D03*
X166999920Y-96596200D03*
X166502080Y-99954080D03*
X167497760Y-101925120D03*
X173908720Y-114310160D03*
X173847760Y-118587520D03*
X173126400Y-124444760D03*
X172440600Y-129260600D03*
X169382440Y-125069600D03*
X172745400Y-134325360D03*
X113583720Y-132237480D03*
X118165880Y-129199640D03*
X114081560Y-127934720D03*
X116500000Y-105250000D03*
X125877320Y-78577440D03*
X126365000Y-80751680D03*
X131536440Y-73461880D03*
X154818080Y-74716640D03*
X164500560Y-74767440D03*
X134426272Y-101439080D03*
X154411680Y-78750160D03*
X144531080Y-87858600D03*
X153482040Y-88153240D03*
X170205400Y-88158320D03*
X114912140Y-82928460D03*
X128849120Y-98163190D03*
D22*
X162570160Y-83972400D03*
D21*
X132420360Y-100589080D03*
X129984500Y-75890120D03*
D23*
X170522900Y-115717320D03*
D22*
X164807900Y-116400020D03*
X118353840Y-111589820D03*
X135377353Y-93703280D03*
X161764158Y-96102679D03*
D23*
X165346956Y-118012294D03*
X121113209Y-102225070D03*
X121315480Y-106288840D03*
X161536380Y-108112560D03*
D21*
X116227860Y-82331560D03*
D23*
X122063219Y-88484419D03*
D21*
X115041680Y-92583000D03*
D23*
X146827240Y-114818160D03*
X143819880Y-114815620D03*
D21*
X114167392Y-93088753D03*
X142417800Y-95813880D03*
X144109452Y-97153360D03*
D23*
X145140730Y-98003360D03*
X138181080Y-97033080D03*
D22*
X160947100Y-125006100D03*
X113477040Y-123291600D03*
D23*
X141480540Y-126206100D03*
X149250400Y-112059720D03*
D21*
X130228340Y-100525580D03*
X132741670Y-105817670D03*
X149138640Y-126207520D03*
X127706120Y-87299800D03*
X125984000Y-92242640D03*
X153228040Y-126492000D03*
X146537680Y-94284800D03*
X154564080Y-126405640D03*
X155666440Y-126492000D03*
X150520400Y-91013280D03*
D23*
X161693860Y-85575140D03*
X149216446Y-96618126D03*
D21*
X156845000Y-127050800D03*
X151739600Y-90901520D03*
X154396440Y-96413320D03*
X157843504Y-126996088D03*
X159024320Y-126949200D03*
X169621200Y-97475040D03*
X160136840Y-127086360D03*
X173283880Y-95437960D03*
X125750000Y-115250000D03*
X131364007Y-95726343D03*
X130472180Y-97962720D03*
D23*
X113750000Y-106500000D03*
D24*
X130910558Y-97151358D02*
X129860952Y-97151358D01*
X129249119Y-97763191D02*
X128849120Y-98163190D01*
X129860952Y-97151358D02*
X129249119Y-97763191D01*
X131117640Y-97358440D02*
X130910558Y-97151358D01*
X131617640Y-97358440D02*
X131117640Y-97358440D01*
D25*
X151750000Y-82200000D02*
X148344380Y-85605620D01*
X153385000Y-82200000D02*
X151750000Y-82200000D01*
X148344380Y-85605620D02*
X148344380Y-85605620D01*
X134820620Y-85605620D02*
X131415000Y-82200000D01*
X135394700Y-85605620D02*
X134820620Y-85605620D01*
X135887460Y-85605620D02*
X135394700Y-85605620D01*
X148344380Y-85605620D02*
X135887460Y-85605620D01*
X132910680Y-85605620D02*
X130632300Y-87884000D01*
X134820620Y-85605620D02*
X132910680Y-85605620D01*
X161570161Y-82972401D02*
X162570160Y-83972400D01*
X153420580Y-82428080D02*
X161025840Y-82428080D01*
X161025840Y-82428080D02*
X161570161Y-82972401D01*
D26*
X134020000Y-103160000D02*
X136380100Y-100799900D01*
X136380100Y-100799900D02*
X162227260Y-100799900D01*
X162227260Y-100799900D02*
X165427660Y-104000300D01*
X165427660Y-104000300D02*
X165427660Y-114726720D01*
X165427660Y-114726720D02*
X166418260Y-115717320D01*
X166418260Y-115717320D02*
X170522900Y-115717320D01*
D25*
X134767640Y-98008440D02*
X133517640Y-98008440D01*
X135377353Y-97398727D02*
X134767640Y-98008440D01*
X135377353Y-93703280D02*
X135377353Y-97398727D01*
D26*
X164037094Y-118012294D02*
X165346956Y-118012294D01*
X162986720Y-116961920D02*
X164037094Y-118012294D01*
X136560000Y-103160000D02*
X138008240Y-101711760D01*
X138008240Y-101711760D02*
X149247860Y-101711760D01*
X149247860Y-101711760D02*
X149265640Y-101693980D01*
X161721800Y-101693980D02*
X162986720Y-102958900D01*
X149265640Y-101693980D02*
X161721800Y-101693980D01*
X162986720Y-102958900D02*
X162986720Y-116961920D01*
X123376138Y-104487999D02*
X158109901Y-104487999D01*
X121113209Y-102225070D02*
X123376138Y-104487999D01*
X158109901Y-104487999D02*
X159415480Y-103182420D01*
X121315480Y-106288840D02*
X122054639Y-107027999D01*
X122054639Y-107027999D02*
X160451819Y-107027999D01*
X161036381Y-107612561D02*
X161536380Y-108112560D01*
X160451819Y-107027999D02*
X161036381Y-107612561D01*
X116227860Y-82331560D02*
X122063219Y-88166919D01*
X122063219Y-88166919D02*
X122063219Y-88484419D01*
X115041680Y-93148685D02*
X115041680Y-92583000D01*
X115041680Y-101489624D02*
X115041680Y-93148685D01*
X123120055Y-109567999D02*
X115041680Y-101489624D01*
X155674079Y-109567999D02*
X123120055Y-109567999D01*
X156875480Y-118422420D02*
X156875480Y-110769400D01*
X156875480Y-110769400D02*
X155674079Y-109567999D01*
X147327239Y-115318159D02*
X146827240Y-114818160D01*
X149197079Y-117187999D02*
X147327239Y-115318159D01*
X153127999Y-117187999D02*
X149197079Y-117187999D01*
X154335480Y-118422420D02*
X154335480Y-118395480D01*
X154335480Y-118395480D02*
X153127999Y-117187999D01*
X114167392Y-101614712D02*
X114167392Y-93654438D01*
X143819880Y-114815620D02*
X127368300Y-114815620D01*
X127368300Y-114815620D02*
X114167392Y-101614712D01*
X114167392Y-93654438D02*
X114167392Y-93088753D01*
X148179676Y-112059720D02*
X148543294Y-112059720D01*
X148543294Y-112059720D02*
X149250400Y-112059720D01*
X141480540Y-126206100D02*
X142908020Y-124778620D01*
X142908020Y-124778620D02*
X142908020Y-117331376D01*
X142908020Y-117331376D02*
X148179676Y-112059720D01*
X132573240Y-96708440D02*
X131617640Y-96708440D01*
X133517640Y-96708440D02*
X132573240Y-96708440D01*
X131617640Y-96708440D02*
X131485547Y-96576347D01*
X129321047Y-96576347D02*
X128990380Y-96245680D01*
X128990380Y-96245680D02*
X128452880Y-96245680D01*
X131485547Y-96576347D02*
X129321047Y-96576347D01*
D24*
X130628339Y-100125581D02*
X130228340Y-100525580D01*
X132573240Y-98180680D02*
X130628339Y-100125581D01*
X132573240Y-96708440D02*
X132573240Y-98180680D01*
D26*
X160259432Y-85575140D02*
X149716445Y-96118127D01*
X149716445Y-96118127D02*
X149216446Y-96618126D01*
X161693860Y-85575140D02*
X160259432Y-85575140D01*
D25*
X129936240Y-91500960D02*
X129885440Y-91551760D01*
X129885440Y-93827120D02*
X130002760Y-93944440D01*
D26*
X130002760Y-91669080D02*
X129885440Y-91551760D01*
X130002760Y-93944440D02*
X130002760Y-91669080D01*
X129885440Y-89672160D02*
X129936240Y-89621360D01*
X129885440Y-91551760D02*
X129885440Y-89672160D01*
X129936240Y-88762940D02*
X129057300Y-87884000D01*
X129936240Y-89621360D02*
X129936240Y-88762940D01*
X131302760Y-93944440D02*
X131302760Y-95665096D01*
X130517900Y-98008440D02*
X130472180Y-97962720D01*
X131617640Y-98008440D02*
X130517900Y-98008440D01*
X131302760Y-95665096D02*
X131364007Y-95726343D01*
D27*
G36*
X170151191Y-72649894D02*
G01*
X169808979Y-73162050D01*
X169573259Y-73731128D01*
X169453090Y-74335257D01*
X169453090Y-74951223D01*
X169573259Y-75555352D01*
X169808979Y-76124430D01*
X170151191Y-76636586D01*
X170586744Y-77072139D01*
X171098900Y-77414351D01*
X171667978Y-77650071D01*
X172272107Y-77770240D01*
X172888073Y-77770240D01*
X173492202Y-77650071D01*
X174061280Y-77414351D01*
X174573436Y-77072139D01*
X174890001Y-76755574D01*
X174890000Y-140531265D01*
X174573436Y-140214701D01*
X174061280Y-139872489D01*
X173492202Y-139636769D01*
X172888073Y-139516600D01*
X172272107Y-139516600D01*
X171667978Y-139636769D01*
X171098900Y-139872489D01*
X170586744Y-140214701D01*
X170151191Y-140650254D01*
X169808979Y-141162410D01*
X169573259Y-141731488D01*
X169453090Y-142335617D01*
X169453090Y-142951583D01*
X169573259Y-143555712D01*
X169808979Y-144124790D01*
X170151191Y-144636946D01*
X170586744Y-145072499D01*
X171098900Y-145414711D01*
X171667978Y-145650431D01*
X172272107Y-145770600D01*
X172888073Y-145770600D01*
X173492202Y-145650431D01*
X174061280Y-145414711D01*
X174573436Y-145072499D01*
X174890000Y-144755935D01*
X174890000Y-147958240D01*
X118749286Y-147958240D01*
X118749286Y-145401048D01*
X118902410Y-145464474D01*
X119172308Y-145518160D01*
X119447492Y-145518160D01*
X119717390Y-145464474D01*
X119971627Y-145359165D01*
X120200435Y-145206280D01*
X120395020Y-145011695D01*
X120547905Y-144782887D01*
X120653214Y-144528650D01*
X120706900Y-144258752D01*
X120706900Y-143983568D01*
X120653214Y-143713670D01*
X120547905Y-143459433D01*
X120395020Y-143230625D01*
X120360555Y-143196160D01*
X120395020Y-143161695D01*
X120547905Y-142932887D01*
X120653214Y-142678650D01*
X120706900Y-142408752D01*
X120706900Y-142133568D01*
X120653214Y-141863670D01*
X120547905Y-141609433D01*
X120395020Y-141380625D01*
X120360555Y-141346160D01*
X120395020Y-141311695D01*
X120547905Y-141082887D01*
X120653214Y-140828650D01*
X120706900Y-140558752D01*
X120706900Y-140283568D01*
X120653214Y-140013670D01*
X120547905Y-139759433D01*
X120395020Y-139530625D01*
X120200435Y-139336040D01*
X119971627Y-139183155D01*
X119717390Y-139077846D01*
X119447492Y-139024160D01*
X119172308Y-139024160D01*
X118902410Y-139077846D01*
X118648173Y-139183155D01*
X118419365Y-139336040D01*
X118224780Y-139530625D01*
X118071895Y-139759433D01*
X117966586Y-140013670D01*
X117912900Y-140283568D01*
X117912900Y-140558752D01*
X117966586Y-140828650D01*
X118071895Y-141082887D01*
X118224780Y-141311695D01*
X118259245Y-141346160D01*
X118224780Y-141380625D01*
X118071895Y-141609433D01*
X117966586Y-141863670D01*
X117912900Y-142133568D01*
X117912900Y-142408752D01*
X117966586Y-142678650D01*
X118071895Y-142932887D01*
X118224780Y-143161695D01*
X118259245Y-143196160D01*
X118224780Y-143230625D01*
X118071895Y-143459433D01*
X117966586Y-143713670D01*
X117912900Y-143983568D01*
X117912900Y-144258752D01*
X117966586Y-144528650D01*
X118071895Y-144782887D01*
X118224780Y-145011695D01*
X118419365Y-145206280D01*
X118424932Y-145210000D01*
X115750715Y-145210000D01*
X115750715Y-147958240D01*
X111253880Y-147958240D01*
X111253880Y-144723045D01*
X111603334Y-145072499D01*
X112115490Y-145414711D01*
X112684568Y-145650431D01*
X113288697Y-145770600D01*
X113904663Y-145770600D01*
X114508792Y-145650431D01*
X115077870Y-145414711D01*
X115590026Y-145072499D01*
X116025579Y-144636946D01*
X116367791Y-144124790D01*
X116603511Y-143555712D01*
X116723680Y-142951583D01*
X116723680Y-142335617D01*
X116603511Y-141731488D01*
X116367791Y-141162410D01*
X116025579Y-140650254D01*
X115590026Y-140214701D01*
X115077870Y-139872489D01*
X114508792Y-139636769D01*
X113904663Y-139516600D01*
X113288697Y-139516600D01*
X112684568Y-139636769D01*
X112115490Y-139872489D01*
X111603334Y-140214701D01*
X111253880Y-140564155D01*
X111253880Y-138449870D01*
X132361959Y-138449870D01*
X132361959Y-144094870D01*
X156161721Y-144094870D01*
X156161721Y-140283568D01*
X165412900Y-140283568D01*
X165412900Y-140558752D01*
X165466586Y-140828650D01*
X165571895Y-141082887D01*
X165724780Y-141311695D01*
X165759245Y-141346160D01*
X165724780Y-141380625D01*
X165571895Y-141609433D01*
X165466586Y-141863670D01*
X165412900Y-142133568D01*
X165412900Y-142408752D01*
X165466586Y-142678650D01*
X165571895Y-142932887D01*
X165724780Y-143161695D01*
X165759245Y-143196160D01*
X165724780Y-143230625D01*
X165571895Y-143459433D01*
X165466586Y-143713670D01*
X165412900Y-143983568D01*
X165412900Y-144258752D01*
X165466586Y-144528650D01*
X165571895Y-144782887D01*
X165724780Y-145011695D01*
X165919365Y-145206280D01*
X166148173Y-145359165D01*
X166402410Y-145464474D01*
X166672308Y-145518160D01*
X166947492Y-145518160D01*
X167217390Y-145464474D01*
X167471627Y-145359165D01*
X167700435Y-145206280D01*
X167895020Y-145011695D01*
X168047905Y-144782887D01*
X168153214Y-144528650D01*
X168206900Y-144258752D01*
X168206900Y-143983568D01*
X168153214Y-143713670D01*
X168047905Y-143459433D01*
X167895020Y-143230625D01*
X167860555Y-143196160D01*
X167895020Y-143161695D01*
X168047905Y-142932887D01*
X168153214Y-142678650D01*
X168206900Y-142408752D01*
X168206900Y-142133568D01*
X168153214Y-141863670D01*
X168047905Y-141609433D01*
X167895020Y-141380625D01*
X167860555Y-141346160D01*
X167895020Y-141311695D01*
X168047905Y-141082887D01*
X168153214Y-140828650D01*
X168206900Y-140558752D01*
X168206900Y-140283568D01*
X168153214Y-140013670D01*
X168047905Y-139759433D01*
X167895020Y-139530625D01*
X167700435Y-139336040D01*
X167471627Y-139183155D01*
X167217390Y-139077846D01*
X166947492Y-139024160D01*
X166672308Y-139024160D01*
X166402410Y-139077846D01*
X166148173Y-139183155D01*
X165919365Y-139336040D01*
X165724780Y-139530625D01*
X165571895Y-139759433D01*
X165466586Y-140013670D01*
X165412900Y-140283568D01*
X156161721Y-140283568D01*
X156161721Y-138449870D01*
X132361959Y-138449870D01*
X111253880Y-138449870D01*
X111253880Y-123130567D01*
X111842040Y-123130567D01*
X111842040Y-123452633D01*
X111904872Y-123768512D01*
X112028122Y-124066063D01*
X112207053Y-124333852D01*
X112434788Y-124561587D01*
X112702577Y-124740518D01*
X113000128Y-124863768D01*
X113316007Y-124926600D01*
X113638073Y-124926600D01*
X113953952Y-124863768D01*
X114251503Y-124740518D01*
X114519292Y-124561587D01*
X114747027Y-124333852D01*
X114925958Y-124066063D01*
X115049208Y-123768512D01*
X115112040Y-123452633D01*
X115112040Y-123130567D01*
X115049208Y-122814688D01*
X114925958Y-122517137D01*
X114747027Y-122249348D01*
X114519292Y-122021613D01*
X114251503Y-121842682D01*
X113953952Y-121719432D01*
X113638073Y-121656600D01*
X113316007Y-121656600D01*
X113000128Y-121719432D01*
X112702577Y-121842682D01*
X112434788Y-122021613D01*
X112207053Y-122249348D01*
X112028122Y-122517137D01*
X111904872Y-122814688D01*
X111842040Y-123130567D01*
X111253880Y-123130567D01*
X111253880Y-119387985D01*
X125609520Y-119387985D01*
X125676500Y-119628076D01*
X125925528Y-119745176D01*
X126192615Y-119811443D01*
X126467497Y-119824330D01*
X126739613Y-119783342D01*
X126998503Y-119690056D01*
X127114460Y-119628076D01*
X127181440Y-119387985D01*
X126395480Y-118602025D01*
X125609520Y-119387985D01*
X111253880Y-119387985D01*
X111253880Y-118494437D01*
X124993570Y-118494437D01*
X125034558Y-118766553D01*
X125127844Y-119025443D01*
X125189824Y-119141400D01*
X125429915Y-119208380D01*
X126215875Y-118422420D01*
X125429915Y-117636460D01*
X125189824Y-117703440D01*
X125072724Y-117952468D01*
X125006457Y-118219555D01*
X124993570Y-118494437D01*
X111253880Y-118494437D01*
X111253880Y-117456855D01*
X125609520Y-117456855D01*
X126395480Y-118242815D01*
X127181440Y-117456855D01*
X127114460Y-117216764D01*
X126865432Y-117099664D01*
X126598345Y-117033397D01*
X126323463Y-117020510D01*
X126051347Y-117061498D01*
X125792457Y-117154784D01*
X125676500Y-117216764D01*
X125609520Y-117456855D01*
X111253880Y-117456855D01*
X111253880Y-111428787D01*
X116718840Y-111428787D01*
X116718840Y-111750853D01*
X116781672Y-112066732D01*
X116904922Y-112364283D01*
X117083853Y-112632072D01*
X117311588Y-112859807D01*
X117579377Y-113038738D01*
X117876928Y-113161988D01*
X118192807Y-113224820D01*
X118514873Y-113224820D01*
X118830752Y-113161988D01*
X119128303Y-113038738D01*
X119396092Y-112859807D01*
X119623827Y-112632072D01*
X119802758Y-112364283D01*
X119926008Y-112066732D01*
X119988840Y-111750853D01*
X119988840Y-111428787D01*
X119926008Y-111112908D01*
X119802758Y-110815357D01*
X119623827Y-110547568D01*
X119396092Y-110319833D01*
X119128303Y-110140902D01*
X118830752Y-110017652D01*
X118514873Y-109954820D01*
X118192807Y-109954820D01*
X117876928Y-110017652D01*
X117579377Y-110140902D01*
X117311588Y-110319833D01*
X117083853Y-110547568D01*
X116904922Y-110815357D01*
X116781672Y-111112908D01*
X116718840Y-111428787D01*
X111253880Y-111428787D01*
X111253880Y-106388212D01*
X112615000Y-106388212D01*
X112615000Y-106611788D01*
X112658617Y-106831067D01*
X112744176Y-107037624D01*
X112868388Y-107223520D01*
X113026480Y-107381612D01*
X113212376Y-107505824D01*
X113418933Y-107591383D01*
X113638212Y-107635000D01*
X113861788Y-107635000D01*
X114081067Y-107591383D01*
X114287624Y-107505824D01*
X114473520Y-107381612D01*
X114631612Y-107223520D01*
X114755824Y-107037624D01*
X114841383Y-106831067D01*
X114885000Y-106611788D01*
X114885000Y-106388212D01*
X114841383Y-106168933D01*
X114755824Y-105962376D01*
X114631612Y-105776480D01*
X114473520Y-105618388D01*
X114287624Y-105494176D01*
X114081067Y-105408617D01*
X113861788Y-105365000D01*
X113638212Y-105365000D01*
X113418933Y-105408617D01*
X113212376Y-105494176D01*
X113026480Y-105618388D01*
X112868388Y-105776480D01*
X112744176Y-105962376D01*
X112658617Y-106168933D01*
X112615000Y-106388212D01*
X111253880Y-106388212D01*
X111253880Y-92986814D01*
X113132392Y-92986814D01*
X113132392Y-93190692D01*
X113172166Y-93390651D01*
X113250187Y-93579009D01*
X113282392Y-93627207D01*
X113282392Y-93697914D01*
X113282393Y-93697924D01*
X113282392Y-101571243D01*
X113278111Y-101614712D01*
X113282392Y-101658181D01*
X113282392Y-101658188D01*
X113293604Y-101772026D01*
X113294440Y-101780510D01*
X113295197Y-101788201D01*
X113345803Y-101955024D01*
X113427981Y-102108770D01*
X113538575Y-102243529D01*
X113572348Y-102271246D01*
X125537995Y-114236893D01*
X125448102Y-114254774D01*
X125259744Y-114332795D01*
X125090226Y-114446063D01*
X124946063Y-114590226D01*
X124832795Y-114759744D01*
X124754774Y-114948102D01*
X124715000Y-115148061D01*
X124715000Y-115351939D01*
X124754774Y-115551898D01*
X124832795Y-115740256D01*
X124946063Y-115909774D01*
X125090226Y-116053937D01*
X125259744Y-116167205D01*
X125448102Y-116245226D01*
X125648061Y-116285000D01*
X125851939Y-116285000D01*
X126051898Y-116245226D01*
X126240256Y-116167205D01*
X126409774Y-116053937D01*
X126553937Y-115909774D01*
X126667205Y-115740256D01*
X126745226Y-115551898D01*
X126762796Y-115463569D01*
X126773251Y-115472150D01*
X126773253Y-115472152D01*
X126797009Y-115491648D01*
X126874241Y-115555031D01*
X127027987Y-115637209D01*
X127194810Y-115687815D01*
X127324823Y-115700620D01*
X127324833Y-115700620D01*
X127368299Y-115704901D01*
X127411765Y-115700620D01*
X143101430Y-115700620D01*
X143212790Y-115775028D01*
X142312972Y-116674846D01*
X142279204Y-116702559D01*
X142251491Y-116736327D01*
X142251488Y-116736330D01*
X142168610Y-116837317D01*
X142086432Y-116991063D01*
X142057853Y-117085271D01*
X142042970Y-117079106D01*
X141773072Y-117025420D01*
X141497888Y-117025420D01*
X141227990Y-117079106D01*
X140973753Y-117184415D01*
X140744945Y-117337300D01*
X140550360Y-117531885D01*
X140397475Y-117760693D01*
X140365480Y-117837935D01*
X140333485Y-117760693D01*
X140180600Y-117531885D01*
X139986015Y-117337300D01*
X139757207Y-117184415D01*
X139502970Y-117079106D01*
X139233072Y-117025420D01*
X138957888Y-117025420D01*
X138687990Y-117079106D01*
X138433753Y-117184415D01*
X138204945Y-117337300D01*
X138010360Y-117531885D01*
X137857475Y-117760693D01*
X137825480Y-117837935D01*
X137793485Y-117760693D01*
X137640600Y-117531885D01*
X137446015Y-117337300D01*
X137217207Y-117184415D01*
X136962970Y-117079106D01*
X136693072Y-117025420D01*
X136417888Y-117025420D01*
X136147990Y-117079106D01*
X135893753Y-117184415D01*
X135664945Y-117337300D01*
X135470360Y-117531885D01*
X135317475Y-117760693D01*
X135285480Y-117837935D01*
X135253485Y-117760693D01*
X135100600Y-117531885D01*
X134906015Y-117337300D01*
X134677207Y-117184415D01*
X134422970Y-117079106D01*
X134153072Y-117025420D01*
X133877888Y-117025420D01*
X133607990Y-117079106D01*
X133353753Y-117184415D01*
X133124945Y-117337300D01*
X132930360Y-117531885D01*
X132777475Y-117760693D01*
X132745480Y-117837935D01*
X132713485Y-117760693D01*
X132560600Y-117531885D01*
X132366015Y-117337300D01*
X132137207Y-117184415D01*
X131882970Y-117079106D01*
X131613072Y-117025420D01*
X131337888Y-117025420D01*
X131067990Y-117079106D01*
X130813753Y-117184415D01*
X130584945Y-117337300D01*
X130390360Y-117531885D01*
X130237475Y-117760693D01*
X130205480Y-117837935D01*
X130173485Y-117760693D01*
X130020600Y-117531885D01*
X129826015Y-117337300D01*
X129597207Y-117184415D01*
X129342970Y-117079106D01*
X129073072Y-117025420D01*
X128797888Y-117025420D01*
X128527990Y-117079106D01*
X128273753Y-117184415D01*
X128044945Y-117337300D01*
X127850360Y-117531885D01*
X127697475Y-117760693D01*
X127667788Y-117832363D01*
X127663116Y-117819397D01*
X127601136Y-117703440D01*
X127361045Y-117636460D01*
X126575085Y-118422420D01*
X127361045Y-119208380D01*
X127601136Y-119141400D01*
X127664965Y-119005660D01*
X127697475Y-119084147D01*
X127850360Y-119312955D01*
X128044945Y-119507540D01*
X128273753Y-119660425D01*
X128527990Y-119765734D01*
X128797888Y-119819420D01*
X129073072Y-119819420D01*
X129342970Y-119765734D01*
X129597207Y-119660425D01*
X129826015Y-119507540D01*
X130020600Y-119312955D01*
X130173485Y-119084147D01*
X130205480Y-119006905D01*
X130237475Y-119084147D01*
X130390360Y-119312955D01*
X130584945Y-119507540D01*
X130813753Y-119660425D01*
X131067990Y-119765734D01*
X131337888Y-119819420D01*
X131613072Y-119819420D01*
X131882970Y-119765734D01*
X132137207Y-119660425D01*
X132366015Y-119507540D01*
X132560600Y-119312955D01*
X132713485Y-119084147D01*
X132745480Y-119006905D01*
X132777475Y-119084147D01*
X132930360Y-119312955D01*
X133124945Y-119507540D01*
X133353753Y-119660425D01*
X133607990Y-119765734D01*
X133877888Y-119819420D01*
X134153072Y-119819420D01*
X134422970Y-119765734D01*
X134677207Y-119660425D01*
X134906015Y-119507540D01*
X135100600Y-119312955D01*
X135253485Y-119084147D01*
X135285480Y-119006905D01*
X135317475Y-119084147D01*
X135470360Y-119312955D01*
X135664945Y-119507540D01*
X135893753Y-119660425D01*
X136147990Y-119765734D01*
X136417888Y-119819420D01*
X136693072Y-119819420D01*
X136962970Y-119765734D01*
X137217207Y-119660425D01*
X137446015Y-119507540D01*
X137640600Y-119312955D01*
X137793485Y-119084147D01*
X137825480Y-119006905D01*
X137857475Y-119084147D01*
X138010360Y-119312955D01*
X138204945Y-119507540D01*
X138433753Y-119660425D01*
X138687990Y-119765734D01*
X138957888Y-119819420D01*
X139233072Y-119819420D01*
X139502970Y-119765734D01*
X139757207Y-119660425D01*
X139986015Y-119507540D01*
X140180600Y-119312955D01*
X140333485Y-119084147D01*
X140365480Y-119006905D01*
X140397475Y-119084147D01*
X140550360Y-119312955D01*
X140744945Y-119507540D01*
X140973753Y-119660425D01*
X141227990Y-119765734D01*
X141497888Y-119819420D01*
X141773072Y-119819420D01*
X142023021Y-119769702D01*
X142023020Y-124412041D01*
X141362772Y-125072289D01*
X141149473Y-125114717D01*
X140942916Y-125200276D01*
X140757020Y-125324488D01*
X140598928Y-125482580D01*
X140474716Y-125668476D01*
X140389157Y-125875033D01*
X140345540Y-126094312D01*
X140345540Y-126317888D01*
X140389157Y-126537167D01*
X140474716Y-126743724D01*
X140598928Y-126929620D01*
X140757020Y-127087712D01*
X140942916Y-127211924D01*
X141149473Y-127297483D01*
X141368752Y-127341100D01*
X141592328Y-127341100D01*
X141811607Y-127297483D01*
X142018164Y-127211924D01*
X142204060Y-127087712D01*
X142362152Y-126929620D01*
X142486364Y-126743724D01*
X142571923Y-126537167D01*
X142614351Y-126323868D01*
X142832638Y-126105581D01*
X148103640Y-126105581D01*
X148103640Y-126309459D01*
X148143414Y-126509418D01*
X148221435Y-126697776D01*
X148334703Y-126867294D01*
X148478866Y-127011457D01*
X148648384Y-127124725D01*
X148836742Y-127202746D01*
X149036701Y-127242520D01*
X149240579Y-127242520D01*
X149440538Y-127202746D01*
X149628896Y-127124725D01*
X149798414Y-127011457D01*
X149942577Y-126867294D01*
X150055845Y-126697776D01*
X150133866Y-126509418D01*
X150157607Y-126390061D01*
X152193040Y-126390061D01*
X152193040Y-126593939D01*
X152232814Y-126793898D01*
X152310835Y-126982256D01*
X152424103Y-127151774D01*
X152568266Y-127295937D01*
X152737784Y-127409205D01*
X152926142Y-127487226D01*
X153126101Y-127527000D01*
X153329979Y-127527000D01*
X153529938Y-127487226D01*
X153718296Y-127409205D01*
X153887814Y-127295937D01*
X153946189Y-127237562D01*
X154073824Y-127322845D01*
X154262182Y-127400866D01*
X154462141Y-127440640D01*
X154666019Y-127440640D01*
X154865978Y-127400866D01*
X155049768Y-127324737D01*
X155176184Y-127409205D01*
X155364542Y-127487226D01*
X155564501Y-127527000D01*
X155768379Y-127527000D01*
X155910281Y-127498774D01*
X155927795Y-127541056D01*
X156041063Y-127710574D01*
X156185226Y-127854737D01*
X156354744Y-127968005D01*
X156543102Y-128046026D01*
X156743061Y-128085800D01*
X156946939Y-128085800D01*
X157146898Y-128046026D01*
X157335256Y-127968005D01*
X157392689Y-127929630D01*
X157541606Y-127991314D01*
X157741565Y-128031088D01*
X157945443Y-128031088D01*
X158145402Y-127991314D01*
X158333760Y-127913293D01*
X158468999Y-127822930D01*
X158534064Y-127866405D01*
X158722422Y-127944426D01*
X158922381Y-127984200D01*
X159126259Y-127984200D01*
X159326218Y-127944426D01*
X159471158Y-127884389D01*
X159477066Y-127890297D01*
X159646584Y-128003565D01*
X159834942Y-128081586D01*
X160034901Y-128121360D01*
X160238779Y-128121360D01*
X160438738Y-128081586D01*
X160627096Y-128003565D01*
X160796614Y-127890297D01*
X160940777Y-127746134D01*
X161054045Y-127576616D01*
X161132066Y-127388258D01*
X161171840Y-127188299D01*
X161171840Y-126984421D01*
X161132066Y-126784462D01*
X161072683Y-126641100D01*
X161108133Y-126641100D01*
X161424012Y-126578268D01*
X161721563Y-126455018D01*
X161989352Y-126276087D01*
X162217087Y-126048352D01*
X162396018Y-125780563D01*
X162519268Y-125483012D01*
X162582100Y-125167133D01*
X162582100Y-124845067D01*
X162519268Y-124529188D01*
X162396018Y-124231637D01*
X162217087Y-123963848D01*
X161989352Y-123736113D01*
X161721563Y-123557182D01*
X161424012Y-123433932D01*
X161108133Y-123371100D01*
X160786067Y-123371100D01*
X160470188Y-123433932D01*
X160172637Y-123557182D01*
X159904848Y-123736113D01*
X159677113Y-123963848D01*
X159498182Y-124231637D01*
X159374932Y-124529188D01*
X159312100Y-124845067D01*
X159312100Y-125167133D01*
X159374932Y-125483012D01*
X159498182Y-125780563D01*
X159677113Y-126048352D01*
X159753592Y-126124831D01*
X159690002Y-126151171D01*
X159684094Y-126145263D01*
X159514576Y-126031995D01*
X159326218Y-125953974D01*
X159126259Y-125914200D01*
X158922381Y-125914200D01*
X158722422Y-125953974D01*
X158534064Y-126031995D01*
X158398825Y-126122358D01*
X158333760Y-126078883D01*
X158145402Y-126000862D01*
X157945443Y-125961088D01*
X157741565Y-125961088D01*
X157541606Y-126000862D01*
X157353248Y-126078883D01*
X157295815Y-126117258D01*
X157146898Y-126055574D01*
X156946939Y-126015800D01*
X156743061Y-126015800D01*
X156601159Y-126044026D01*
X156583645Y-126001744D01*
X156470377Y-125832226D01*
X156326214Y-125688063D01*
X156156696Y-125574795D01*
X155968338Y-125496774D01*
X155768379Y-125457000D01*
X155564501Y-125457000D01*
X155364542Y-125496774D01*
X155180752Y-125572903D01*
X155054336Y-125488435D01*
X154865978Y-125410414D01*
X154666019Y-125370640D01*
X154462141Y-125370640D01*
X154262182Y-125410414D01*
X154073824Y-125488435D01*
X153904306Y-125601703D01*
X153845931Y-125660078D01*
X153718296Y-125574795D01*
X153529938Y-125496774D01*
X153329979Y-125457000D01*
X153126101Y-125457000D01*
X152926142Y-125496774D01*
X152737784Y-125574795D01*
X152568266Y-125688063D01*
X152424103Y-125832226D01*
X152310835Y-126001744D01*
X152232814Y-126190102D01*
X152193040Y-126390061D01*
X150157607Y-126390061D01*
X150173640Y-126309459D01*
X150173640Y-126105581D01*
X150133866Y-125905622D01*
X150055845Y-125717264D01*
X149942577Y-125547746D01*
X149798414Y-125403583D01*
X149628896Y-125290315D01*
X149440538Y-125212294D01*
X149240579Y-125172520D01*
X149036701Y-125172520D01*
X148836742Y-125212294D01*
X148648384Y-125290315D01*
X148478866Y-125403583D01*
X148334703Y-125547746D01*
X148221435Y-125717264D01*
X148143414Y-125905622D01*
X148103640Y-126105581D01*
X142832638Y-126105581D01*
X143503070Y-125435149D01*
X143536837Y-125407437D01*
X143647431Y-125272679D01*
X143686131Y-125200276D01*
X143729609Y-125118934D01*
X143780215Y-124952110D01*
X143782727Y-124926600D01*
X143793020Y-124822097D01*
X143793020Y-124822089D01*
X143797301Y-124778620D01*
X143793020Y-124735151D01*
X143793020Y-119770713D01*
X144037888Y-119819420D01*
X144313072Y-119819420D01*
X144582970Y-119765734D01*
X144837207Y-119660425D01*
X145066015Y-119507540D01*
X145260600Y-119312955D01*
X145413485Y-119084147D01*
X145445480Y-119006905D01*
X145477475Y-119084147D01*
X145630360Y-119312955D01*
X145824945Y-119507540D01*
X146053753Y-119660425D01*
X146307990Y-119765734D01*
X146577888Y-119819420D01*
X146853072Y-119819420D01*
X147122970Y-119765734D01*
X147377207Y-119660425D01*
X147606015Y-119507540D01*
X147800600Y-119312955D01*
X147953485Y-119084147D01*
X147985480Y-119006905D01*
X148017475Y-119084147D01*
X148170360Y-119312955D01*
X148364945Y-119507540D01*
X148593753Y-119660425D01*
X148847990Y-119765734D01*
X149117888Y-119819420D01*
X149393072Y-119819420D01*
X149662970Y-119765734D01*
X149917207Y-119660425D01*
X150146015Y-119507540D01*
X150340600Y-119312955D01*
X150493485Y-119084147D01*
X150525480Y-119006905D01*
X150557475Y-119084147D01*
X150710360Y-119312955D01*
X150904945Y-119507540D01*
X151133753Y-119660425D01*
X151387990Y-119765734D01*
X151657888Y-119819420D01*
X151933072Y-119819420D01*
X152202970Y-119765734D01*
X152457207Y-119660425D01*
X152686015Y-119507540D01*
X152880600Y-119312955D01*
X153033485Y-119084147D01*
X153065480Y-119006905D01*
X153097475Y-119084147D01*
X153250360Y-119312955D01*
X153444945Y-119507540D01*
X153673753Y-119660425D01*
X153927990Y-119765734D01*
X154197888Y-119819420D01*
X154473072Y-119819420D01*
X154742970Y-119765734D01*
X154997207Y-119660425D01*
X155226015Y-119507540D01*
X155420600Y-119312955D01*
X155573485Y-119084147D01*
X155605480Y-119006905D01*
X155637475Y-119084147D01*
X155790360Y-119312955D01*
X155984945Y-119507540D01*
X156213753Y-119660425D01*
X156467990Y-119765734D01*
X156737888Y-119819420D01*
X157013072Y-119819420D01*
X157282970Y-119765734D01*
X157537207Y-119660425D01*
X157766015Y-119507540D01*
X157960600Y-119312955D01*
X158113485Y-119084147D01*
X158145480Y-119006905D01*
X158177475Y-119084147D01*
X158330360Y-119312955D01*
X158524945Y-119507540D01*
X158753753Y-119660425D01*
X159007990Y-119765734D01*
X159277888Y-119819420D01*
X159553072Y-119819420D01*
X159822970Y-119765734D01*
X160077207Y-119660425D01*
X160306015Y-119507540D01*
X160500600Y-119312955D01*
X160653485Y-119084147D01*
X160758794Y-118829910D01*
X160812480Y-118560012D01*
X160812480Y-118284828D01*
X160758794Y-118014930D01*
X160653485Y-117760693D01*
X160500600Y-117531885D01*
X160306015Y-117337300D01*
X160077207Y-117184415D01*
X159999965Y-117152420D01*
X160077207Y-117120425D01*
X160306015Y-116967540D01*
X160500600Y-116772955D01*
X160653485Y-116544147D01*
X160758794Y-116289910D01*
X160812480Y-116020012D01*
X160812480Y-115744828D01*
X160758794Y-115474930D01*
X160653485Y-115220693D01*
X160500600Y-114991885D01*
X160306015Y-114797300D01*
X160077207Y-114644415D01*
X159999965Y-114612420D01*
X160077207Y-114580425D01*
X160306015Y-114427540D01*
X160500600Y-114232955D01*
X160653485Y-114004147D01*
X160758794Y-113749910D01*
X160812480Y-113480012D01*
X160812480Y-113204828D01*
X160758794Y-112934930D01*
X160653485Y-112680693D01*
X160500600Y-112451885D01*
X160306015Y-112257300D01*
X160077207Y-112104415D01*
X160005537Y-112074728D01*
X160018503Y-112070056D01*
X160134460Y-112008076D01*
X160201440Y-111767985D01*
X159415480Y-110982025D01*
X158629520Y-111767985D01*
X158696500Y-112008076D01*
X158832240Y-112071905D01*
X158753753Y-112104415D01*
X158524945Y-112257300D01*
X158330360Y-112451885D01*
X158177475Y-112680693D01*
X158072166Y-112934930D01*
X158018480Y-113204828D01*
X158018480Y-113480012D01*
X158072166Y-113749910D01*
X158177475Y-114004147D01*
X158330360Y-114232955D01*
X158524945Y-114427540D01*
X158753753Y-114580425D01*
X158830995Y-114612420D01*
X158753753Y-114644415D01*
X158524945Y-114797300D01*
X158330360Y-114991885D01*
X158177475Y-115220693D01*
X158072166Y-115474930D01*
X158018480Y-115744828D01*
X158018480Y-116020012D01*
X158072166Y-116289910D01*
X158177475Y-116544147D01*
X158330360Y-116772955D01*
X158524945Y-116967540D01*
X158753753Y-117120425D01*
X158830995Y-117152420D01*
X158753753Y-117184415D01*
X158524945Y-117337300D01*
X158330360Y-117531885D01*
X158177475Y-117760693D01*
X158145480Y-117837935D01*
X158113485Y-117760693D01*
X157960600Y-117531885D01*
X157766015Y-117337300D01*
X157760480Y-117333602D01*
X157760480Y-110874437D01*
X158013570Y-110874437D01*
X158054558Y-111146553D01*
X158147844Y-111405443D01*
X158209824Y-111521400D01*
X158449915Y-111588380D01*
X159235875Y-110802420D01*
X159595085Y-110802420D01*
X160381045Y-111588380D01*
X160621136Y-111521400D01*
X160738236Y-111272372D01*
X160804503Y-111005285D01*
X160817390Y-110730403D01*
X160776402Y-110458287D01*
X160683116Y-110199397D01*
X160621136Y-110083440D01*
X160381045Y-110016460D01*
X159595085Y-110802420D01*
X159235875Y-110802420D01*
X158449915Y-110016460D01*
X158209824Y-110083440D01*
X158092724Y-110332468D01*
X158026457Y-110599555D01*
X158013570Y-110874437D01*
X157760480Y-110874437D01*
X157760480Y-110812869D01*
X157764761Y-110769400D01*
X157760480Y-110725931D01*
X157760480Y-110725923D01*
X157747675Y-110595910D01*
X157705927Y-110458287D01*
X157697069Y-110429086D01*
X157614891Y-110275341D01*
X157532012Y-110174353D01*
X157532010Y-110174351D01*
X157504297Y-110140583D01*
X157470529Y-110112870D01*
X156330613Y-108972955D01*
X156302896Y-108939182D01*
X156168138Y-108828588D01*
X156014392Y-108746410D01*
X155847569Y-108695804D01*
X155732752Y-108684496D01*
X155738794Y-108669910D01*
X155792480Y-108400012D01*
X155792480Y-108124828D01*
X155750345Y-107912999D01*
X158060615Y-107912999D01*
X158018480Y-108124828D01*
X158018480Y-108400012D01*
X158072166Y-108669910D01*
X158177475Y-108924147D01*
X158330360Y-109152955D01*
X158524945Y-109347540D01*
X158753753Y-109500425D01*
X158825423Y-109530112D01*
X158812457Y-109534784D01*
X158696500Y-109596764D01*
X158629520Y-109836855D01*
X159415480Y-110622815D01*
X160201440Y-109836855D01*
X160134460Y-109596764D01*
X159998720Y-109532935D01*
X160077207Y-109500425D01*
X160306015Y-109347540D01*
X160500600Y-109152955D01*
X160653485Y-108924147D01*
X160679655Y-108860967D01*
X160812860Y-108994172D01*
X160998756Y-109118384D01*
X161205313Y-109203943D01*
X161424592Y-109247560D01*
X161648168Y-109247560D01*
X161867447Y-109203943D01*
X162074004Y-109118384D01*
X162101720Y-109099864D01*
X162101721Y-116918441D01*
X162097439Y-116961920D01*
X162114525Y-117135410D01*
X162165132Y-117302233D01*
X162247310Y-117455979D01*
X162330188Y-117556966D01*
X162330191Y-117556969D01*
X162357904Y-117590737D01*
X162391671Y-117618449D01*
X163380564Y-118607343D01*
X163408277Y-118641111D01*
X163442045Y-118668824D01*
X163442047Y-118668826D01*
X163513546Y-118727504D01*
X163543035Y-118751705D01*
X163696781Y-118833883D01*
X163863604Y-118884489D01*
X163993617Y-118897294D01*
X163993627Y-118897294D01*
X164037093Y-118901575D01*
X164080559Y-118897294D01*
X164628506Y-118897294D01*
X164809332Y-119018118D01*
X165015889Y-119103677D01*
X165235168Y-119147294D01*
X165458744Y-119147294D01*
X165678023Y-119103677D01*
X165884580Y-119018118D01*
X166070476Y-118893906D01*
X166228568Y-118735814D01*
X166352780Y-118549918D01*
X166438339Y-118343361D01*
X166481956Y-118124082D01*
X166481956Y-117900506D01*
X166438339Y-117681227D01*
X166352780Y-117474670D01*
X166228568Y-117288774D01*
X166199724Y-117259930D01*
X166256818Y-117174483D01*
X166380068Y-116876932D01*
X166434151Y-116605036D01*
X166461729Y-116602320D01*
X169804450Y-116602320D01*
X169985276Y-116723144D01*
X170191833Y-116808703D01*
X170411112Y-116852320D01*
X170634688Y-116852320D01*
X170853967Y-116808703D01*
X171060524Y-116723144D01*
X171246420Y-116598932D01*
X171404512Y-116440840D01*
X171528724Y-116254944D01*
X171614283Y-116048387D01*
X171657900Y-115829108D01*
X171657900Y-115605532D01*
X171614283Y-115386253D01*
X171528724Y-115179696D01*
X171404512Y-114993800D01*
X171246420Y-114835708D01*
X171060524Y-114711496D01*
X170853967Y-114625937D01*
X170634688Y-114582320D01*
X170411112Y-114582320D01*
X170191833Y-114625937D01*
X169985276Y-114711496D01*
X169804450Y-114832320D01*
X166784839Y-114832320D01*
X166312660Y-114360142D01*
X166312660Y-105867949D01*
X170669520Y-105867949D01*
X170669520Y-106140771D01*
X170722745Y-106408349D01*
X170827149Y-106660403D01*
X170978721Y-106887246D01*
X171171634Y-107080159D01*
X171398477Y-107231731D01*
X171501393Y-107274360D01*
X171398477Y-107316989D01*
X171171634Y-107468561D01*
X170978721Y-107661474D01*
X170827149Y-107888317D01*
X170722745Y-108140371D01*
X170669520Y-108407949D01*
X170669520Y-108680771D01*
X170722745Y-108948349D01*
X170827149Y-109200403D01*
X170978721Y-109427246D01*
X171171634Y-109620159D01*
X171398477Y-109771731D01*
X171650531Y-109876135D01*
X171918109Y-109929360D01*
X172190931Y-109929360D01*
X172458509Y-109876135D01*
X172710563Y-109771731D01*
X172937406Y-109620159D01*
X173130319Y-109427246D01*
X173281891Y-109200403D01*
X173386295Y-108948349D01*
X173439520Y-108680771D01*
X173439520Y-108407949D01*
X173386295Y-108140371D01*
X173281891Y-107888317D01*
X173130319Y-107661474D01*
X172937406Y-107468561D01*
X172710563Y-107316989D01*
X172607647Y-107274360D01*
X172710563Y-107231731D01*
X172937406Y-107080159D01*
X173130319Y-106887246D01*
X173281891Y-106660403D01*
X173386295Y-106408349D01*
X173439520Y-106140771D01*
X173439520Y-105867949D01*
X173386295Y-105600371D01*
X173281891Y-105348317D01*
X173130319Y-105121474D01*
X172937406Y-104928561D01*
X172710563Y-104776989D01*
X172611241Y-104735849D01*
X172653352Y-104720637D01*
X172766383Y-104660220D01*
X172831908Y-104421353D01*
X172054520Y-103643965D01*
X171277132Y-104421353D01*
X171342657Y-104660220D01*
X171500997Y-104734524D01*
X171398477Y-104776989D01*
X171171634Y-104928561D01*
X170978721Y-105121474D01*
X170827149Y-105348317D01*
X170722745Y-105600371D01*
X170669520Y-105867949D01*
X166312660Y-105867949D01*
X166312660Y-104043766D01*
X166316941Y-104000299D01*
X166312660Y-103956833D01*
X166312660Y-103956823D01*
X166299855Y-103826810D01*
X166249249Y-103659987D01*
X166183433Y-103536852D01*
X170664708Y-103536852D01*
X170705555Y-103806598D01*
X170798243Y-104063192D01*
X170858660Y-104176223D01*
X171097527Y-104241748D01*
X171874915Y-103464360D01*
X172234125Y-103464360D01*
X173011513Y-104241748D01*
X173250380Y-104176223D01*
X173366280Y-103929244D01*
X173431770Y-103664400D01*
X173444332Y-103391868D01*
X173403485Y-103122122D01*
X173310797Y-102865528D01*
X173250380Y-102752497D01*
X173011513Y-102686972D01*
X172234125Y-103464360D01*
X171874915Y-103464360D01*
X171097527Y-102686972D01*
X170858660Y-102752497D01*
X170742760Y-102999476D01*
X170677270Y-103264320D01*
X170664708Y-103536852D01*
X166183433Y-103536852D01*
X166167071Y-103506241D01*
X166056477Y-103371483D01*
X166022710Y-103343771D01*
X165186306Y-102507367D01*
X171277132Y-102507367D01*
X172054520Y-103284755D01*
X172831908Y-102507367D01*
X172766383Y-102268500D01*
X172519404Y-102152600D01*
X172254560Y-102087110D01*
X171982028Y-102074548D01*
X171712282Y-102115395D01*
X171455688Y-102208083D01*
X171342657Y-102268500D01*
X171277132Y-102507367D01*
X165186306Y-102507367D01*
X162883794Y-100204856D01*
X162856077Y-100171083D01*
X162721319Y-100060489D01*
X162567573Y-99978311D01*
X162400750Y-99927705D01*
X162270737Y-99914900D01*
X162270729Y-99914900D01*
X162227260Y-99910619D01*
X162183791Y-99914900D01*
X136423565Y-99914900D01*
X136380099Y-99910619D01*
X136336633Y-99914900D01*
X136336623Y-99914900D01*
X136206610Y-99927705D01*
X136039787Y-99978311D01*
X135886041Y-100060489D01*
X135886039Y-100060490D01*
X135886040Y-100060490D01*
X135785053Y-100143368D01*
X135785051Y-100143370D01*
X135751283Y-100171083D01*
X135723570Y-100204851D01*
X134143002Y-101785420D01*
X133877888Y-101785420D01*
X133607990Y-101839106D01*
X133353753Y-101944415D01*
X133124945Y-102097300D01*
X132930360Y-102291885D01*
X132777475Y-102520693D01*
X132745480Y-102597935D01*
X132713485Y-102520693D01*
X132560600Y-102291885D01*
X132366015Y-102097300D01*
X132137207Y-101944415D01*
X131882970Y-101839106D01*
X131613072Y-101785420D01*
X131337888Y-101785420D01*
X131067990Y-101839106D01*
X130813753Y-101944415D01*
X130584945Y-102097300D01*
X130390360Y-102291885D01*
X130237475Y-102520693D01*
X130207788Y-102592363D01*
X130203116Y-102579397D01*
X130141136Y-102463440D01*
X129901045Y-102396460D01*
X129115085Y-103182420D01*
X129129228Y-103196563D01*
X128949623Y-103376168D01*
X128935480Y-103362025D01*
X128921338Y-103376168D01*
X128741733Y-103196563D01*
X128755875Y-103182420D01*
X127969915Y-102396460D01*
X127729824Y-102463440D01*
X127665995Y-102599180D01*
X127633485Y-102520693D01*
X127480600Y-102291885D01*
X127405570Y-102216855D01*
X128149520Y-102216855D01*
X128935480Y-103002815D01*
X129721440Y-102216855D01*
X129654460Y-101976764D01*
X129405432Y-101859664D01*
X129138345Y-101793397D01*
X128863463Y-101780510D01*
X128591347Y-101821498D01*
X128332457Y-101914784D01*
X128216500Y-101976764D01*
X128149520Y-102216855D01*
X127405570Y-102216855D01*
X127286015Y-102097300D01*
X127057207Y-101944415D01*
X126802970Y-101839106D01*
X126533072Y-101785420D01*
X126257888Y-101785420D01*
X125987990Y-101839106D01*
X125733753Y-101944415D01*
X125504945Y-102097300D01*
X125310360Y-102291885D01*
X125157475Y-102520693D01*
X125052166Y-102774930D01*
X124998480Y-103044828D01*
X124998480Y-103320012D01*
X125052166Y-103589910D01*
X125057588Y-103602999D01*
X123742717Y-103602999D01*
X122247020Y-102107302D01*
X122204592Y-101894003D01*
X122119033Y-101687446D01*
X121994821Y-101501550D01*
X121836729Y-101343458D01*
X121650833Y-101219246D01*
X121444276Y-101133687D01*
X121224997Y-101090070D01*
X121001421Y-101090070D01*
X120782142Y-101133687D01*
X120575585Y-101219246D01*
X120389689Y-101343458D01*
X120231597Y-101501550D01*
X120107385Y-101687446D01*
X120021826Y-101894003D01*
X119978209Y-102113282D01*
X119978209Y-102336858D01*
X120021826Y-102556137D01*
X120107385Y-102762694D01*
X120231597Y-102948590D01*
X120389689Y-103106682D01*
X120575585Y-103230894D01*
X120782142Y-103316453D01*
X120995441Y-103358881D01*
X122719608Y-105083048D01*
X122747321Y-105116816D01*
X122781089Y-105144529D01*
X122781091Y-105144531D01*
X122845581Y-105197457D01*
X122882079Y-105227410D01*
X123035825Y-105309588D01*
X123202648Y-105360194D01*
X123332661Y-105372999D01*
X123332669Y-105372999D01*
X123376138Y-105377280D01*
X123419607Y-105372999D01*
X131805583Y-105372999D01*
X131746444Y-105515772D01*
X131706670Y-105715731D01*
X131706670Y-105919609D01*
X131746444Y-106119568D01*
X131756150Y-106142999D01*
X122443706Y-106142999D01*
X122406863Y-105957773D01*
X122321304Y-105751216D01*
X122197092Y-105565320D01*
X122039000Y-105407228D01*
X121853104Y-105283016D01*
X121646547Y-105197457D01*
X121427268Y-105153840D01*
X121203692Y-105153840D01*
X120984413Y-105197457D01*
X120777856Y-105283016D01*
X120591960Y-105407228D01*
X120433868Y-105565320D01*
X120407867Y-105604233D01*
X115926680Y-101123046D01*
X115926680Y-96720680D01*
X125802308Y-96720680D01*
X125814568Y-96845162D01*
X125850878Y-96964860D01*
X125909843Y-97075174D01*
X125989195Y-97171865D01*
X126085886Y-97251217D01*
X126196200Y-97310182D01*
X126315898Y-97346492D01*
X126440380Y-97358752D01*
X126592130Y-97355680D01*
X126750880Y-97196930D01*
X126750880Y-96372680D01*
X125964130Y-96372680D01*
X125805380Y-96531430D01*
X125802308Y-96720680D01*
X115926680Y-96720680D01*
X115926680Y-95770680D01*
X125802308Y-95770680D01*
X125805380Y-95959930D01*
X125964130Y-96118680D01*
X126750880Y-96118680D01*
X126750880Y-95294430D01*
X126592130Y-95135680D01*
X126440380Y-95132608D01*
X126315898Y-95144868D01*
X126196200Y-95181178D01*
X126085886Y-95240143D01*
X125989195Y-95319495D01*
X125909843Y-95416186D01*
X125850878Y-95526500D01*
X125814568Y-95646198D01*
X125802308Y-95770680D01*
X115926680Y-95770680D01*
X115926680Y-93121454D01*
X115958885Y-93073256D01*
X116036906Y-92884898D01*
X116076680Y-92684939D01*
X116076680Y-92481061D01*
X116036906Y-92281102D01*
X115978750Y-92140701D01*
X124949000Y-92140701D01*
X124949000Y-92344579D01*
X124988774Y-92544538D01*
X125066795Y-92732896D01*
X125180063Y-92902414D01*
X125324226Y-93046577D01*
X125493744Y-93159845D01*
X125682102Y-93237866D01*
X125882061Y-93277640D01*
X126085939Y-93277640D01*
X126285898Y-93237866D01*
X126474256Y-93159845D01*
X126643774Y-93046577D01*
X126787937Y-92902414D01*
X126901205Y-92732896D01*
X126979226Y-92544538D01*
X127019000Y-92344579D01*
X127019000Y-92140701D01*
X126979226Y-91940742D01*
X126901205Y-91752384D01*
X126787937Y-91582866D01*
X126643774Y-91438703D01*
X126474256Y-91325435D01*
X126285898Y-91247414D01*
X126085939Y-91207640D01*
X125882061Y-91207640D01*
X125682102Y-91247414D01*
X125493744Y-91325435D01*
X125324226Y-91438703D01*
X125180063Y-91582866D01*
X125066795Y-91752384D01*
X124988774Y-91940742D01*
X124949000Y-92140701D01*
X115978750Y-92140701D01*
X115958885Y-92092744D01*
X115845617Y-91923226D01*
X115701454Y-91779063D01*
X115531936Y-91665795D01*
X115343578Y-91587774D01*
X115143619Y-91548000D01*
X114939741Y-91548000D01*
X114739782Y-91587774D01*
X114551424Y-91665795D01*
X114381906Y-91779063D01*
X114237743Y-91923226D01*
X114150528Y-92053753D01*
X114065453Y-92053753D01*
X113865494Y-92093527D01*
X113677136Y-92171548D01*
X113507618Y-92284816D01*
X113363455Y-92428979D01*
X113250187Y-92598497D01*
X113172166Y-92786855D01*
X113132392Y-92986814D01*
X111253880Y-92986814D01*
X111253880Y-82229621D01*
X115192860Y-82229621D01*
X115192860Y-82433499D01*
X115232634Y-82633458D01*
X115310655Y-82821816D01*
X115423923Y-82991334D01*
X115568086Y-83135497D01*
X115737604Y-83248765D01*
X115925962Y-83326786D01*
X115982817Y-83338095D01*
X120943007Y-88298286D01*
X120928219Y-88372631D01*
X120928219Y-88596207D01*
X120971836Y-88815486D01*
X121057395Y-89022043D01*
X121181607Y-89207939D01*
X121339699Y-89366031D01*
X121525595Y-89490243D01*
X121732152Y-89575802D01*
X121951431Y-89619419D01*
X122175007Y-89619419D01*
X122394286Y-89575802D01*
X122600843Y-89490243D01*
X122786739Y-89366031D01*
X122944831Y-89207939D01*
X123069043Y-89022043D01*
X123154602Y-88815486D01*
X123198219Y-88596207D01*
X123198219Y-88372631D01*
X123154602Y-88153352D01*
X123069043Y-87946795D01*
X122944831Y-87760899D01*
X122786739Y-87602807D01*
X122694628Y-87541260D01*
X122692036Y-87538102D01*
X122658270Y-87510391D01*
X122345740Y-87197861D01*
X126671120Y-87197861D01*
X126671120Y-87401739D01*
X126710894Y-87601698D01*
X126788915Y-87790056D01*
X126902183Y-87959574D01*
X127046346Y-88103737D01*
X127215864Y-88217005D01*
X127404222Y-88295026D01*
X127604181Y-88334800D01*
X127808059Y-88334800D01*
X127997185Y-88297181D01*
X127998192Y-88307408D01*
X128046950Y-88468142D01*
X128126129Y-88616275D01*
X128232685Y-88746115D01*
X128362525Y-88852671D01*
X128510658Y-88931850D01*
X128671392Y-88980608D01*
X128838550Y-88997072D01*
X128918793Y-88997072D01*
X128937402Y-89015681D01*
X128925890Y-89037218D01*
X128877132Y-89197952D01*
X128860668Y-89365110D01*
X128860668Y-89877610D01*
X128877132Y-90044768D01*
X128925890Y-90205502D01*
X129000441Y-90344976D01*
X129000440Y-90763224D01*
X128954269Y-90819485D01*
X128875090Y-90967618D01*
X128826332Y-91128352D01*
X128825622Y-91135562D01*
X128766863Y-91329262D01*
X128744949Y-91551760D01*
X128766863Y-91774258D01*
X128825622Y-91967958D01*
X128826332Y-91975168D01*
X128875090Y-92135902D01*
X128954269Y-92284035D01*
X129060825Y-92413875D01*
X129117761Y-92460600D01*
X129117760Y-92983705D01*
X129104814Y-92999480D01*
X129078992Y-93020672D01*
X128937157Y-93193498D01*
X128831764Y-93390674D01*
X128766863Y-93604622D01*
X128744949Y-93827120D01*
X128766863Y-94049618D01*
X128831764Y-94263566D01*
X128877506Y-94349142D01*
X128879356Y-94367930D01*
X128898478Y-94464063D01*
X128934787Y-94583759D01*
X128972296Y-94674315D01*
X129031262Y-94784632D01*
X129085718Y-94866131D01*
X129165070Y-94962822D01*
X129234378Y-95032130D01*
X129331069Y-95111482D01*
X129412568Y-95165938D01*
X129522885Y-95224904D01*
X129613441Y-95262413D01*
X129733137Y-95298722D01*
X129829270Y-95317844D01*
X129953751Y-95330104D01*
X129978310Y-95330104D01*
X130002760Y-95332512D01*
X130406861Y-95332512D01*
X130368781Y-95424445D01*
X130329007Y-95624404D01*
X130329007Y-95691347D01*
X129687625Y-95691347D01*
X129646914Y-95650636D01*
X129619197Y-95616863D01*
X129484439Y-95506269D01*
X129330693Y-95424091D01*
X129304144Y-95416037D01*
X129277495Y-95383565D01*
X129147655Y-95277009D01*
X128999522Y-95197830D01*
X128838788Y-95149072D01*
X128671630Y-95132608D01*
X128234130Y-95132608D01*
X128066972Y-95149072D01*
X127906238Y-95197830D01*
X127758105Y-95277009D01*
X127736450Y-95294780D01*
X127669874Y-95240143D01*
X127559560Y-95181178D01*
X127439862Y-95144868D01*
X127315380Y-95132608D01*
X127163630Y-95135680D01*
X127004880Y-95294430D01*
X127004880Y-96118680D01*
X127024880Y-96118680D01*
X127024880Y-96372680D01*
X127004880Y-96372680D01*
X127004880Y-97196930D01*
X127163630Y-97355680D01*
X127315380Y-97358752D01*
X127439862Y-97346492D01*
X127559560Y-97310182D01*
X127669874Y-97251217D01*
X127736450Y-97196580D01*
X127758105Y-97214351D01*
X127906238Y-97293530D01*
X128066972Y-97342288D01*
X128234130Y-97358752D01*
X128671630Y-97358752D01*
X128838788Y-97342288D01*
X128862925Y-97334966D01*
X128980734Y-97397936D01*
X129147557Y-97448542D01*
X129277570Y-97461347D01*
X129277578Y-97461347D01*
X129321047Y-97465628D01*
X129364516Y-97461347D01*
X129562403Y-97461347D01*
X129554975Y-97472464D01*
X129476954Y-97660822D01*
X129437180Y-97860781D01*
X129437180Y-98064659D01*
X129476954Y-98264618D01*
X129554975Y-98452976D01*
X129668243Y-98622494D01*
X129812406Y-98766657D01*
X129981924Y-98879925D01*
X130170282Y-98957946D01*
X130370241Y-98997720D01*
X130574119Y-98997720D01*
X130708036Y-98971082D01*
X130188539Y-99490580D01*
X130126401Y-99490580D01*
X129926442Y-99530354D01*
X129738084Y-99608375D01*
X129568566Y-99721643D01*
X129424403Y-99865806D01*
X129311135Y-100035324D01*
X129233114Y-100223682D01*
X129193340Y-100423641D01*
X129193340Y-100627519D01*
X129233114Y-100827478D01*
X129311135Y-101015836D01*
X129424403Y-101185354D01*
X129568566Y-101329517D01*
X129738084Y-101442785D01*
X129926442Y-101520806D01*
X130126401Y-101560580D01*
X130330279Y-101560580D01*
X130530238Y-101520806D01*
X130718596Y-101442785D01*
X130888114Y-101329517D01*
X131032277Y-101185354D01*
X131145545Y-101015836D01*
X131223566Y-100827478D01*
X131263340Y-100627519D01*
X131263340Y-100565381D01*
X131396231Y-100432491D01*
X131385360Y-100487141D01*
X131385360Y-100691019D01*
X131425134Y-100890978D01*
X131503155Y-101079336D01*
X131616423Y-101248854D01*
X131760586Y-101393017D01*
X131930104Y-101506285D01*
X132118462Y-101584306D01*
X132318421Y-101624080D01*
X132522299Y-101624080D01*
X132722258Y-101584306D01*
X132910616Y-101506285D01*
X133080134Y-101393017D01*
X133224297Y-101248854D01*
X133337565Y-101079336D01*
X133415586Y-100890978D01*
X133455360Y-100691019D01*
X133455360Y-100487141D01*
X133415586Y-100287182D01*
X133337565Y-100098824D01*
X133224297Y-99929306D01*
X133080134Y-99785143D01*
X132910616Y-99671875D01*
X132722258Y-99593854D01*
X132522299Y-99554080D01*
X132318421Y-99554080D01*
X132263771Y-99564950D01*
X132877416Y-98951306D01*
X132884017Y-98956724D01*
X133081193Y-99062116D01*
X133295141Y-99127017D01*
X133461888Y-99143440D01*
X134711889Y-99143440D01*
X134767640Y-99148931D01*
X134823391Y-99143440D01*
X134823392Y-99143440D01*
X134990139Y-99127017D01*
X135204087Y-99062116D01*
X135401263Y-98956724D01*
X135574089Y-98814889D01*
X135609636Y-98771575D01*
X136140488Y-98240723D01*
X136183802Y-98205176D01*
X136325637Y-98032350D01*
X136431029Y-97835174D01*
X136495930Y-97621226D01*
X136512353Y-97454479D01*
X136512353Y-97454470D01*
X136517843Y-97398728D01*
X136512353Y-97342986D01*
X136512353Y-96921292D01*
X137046080Y-96921292D01*
X137046080Y-97144868D01*
X137089697Y-97364147D01*
X137175256Y-97570704D01*
X137299468Y-97756600D01*
X137457560Y-97914692D01*
X137643456Y-98038904D01*
X137850013Y-98124463D01*
X138069292Y-98168080D01*
X138292868Y-98168080D01*
X138512147Y-98124463D01*
X138718704Y-98038904D01*
X138904600Y-97914692D01*
X139062692Y-97756600D01*
X139186904Y-97570704D01*
X139272463Y-97364147D01*
X139316080Y-97144868D01*
X139316080Y-97051421D01*
X143074452Y-97051421D01*
X143074452Y-97255299D01*
X143114226Y-97455258D01*
X143192247Y-97643616D01*
X143305515Y-97813134D01*
X143449678Y-97957297D01*
X143619196Y-98070565D01*
X143807554Y-98148586D01*
X144007513Y-98188360D01*
X144020293Y-98188360D01*
X144049347Y-98334427D01*
X144134906Y-98540984D01*
X144259118Y-98726880D01*
X144417210Y-98884972D01*
X144603106Y-99009184D01*
X144809663Y-99094743D01*
X145028942Y-99138360D01*
X145252518Y-99138360D01*
X145471797Y-99094743D01*
X145678354Y-99009184D01*
X145864250Y-98884972D01*
X146022342Y-98726880D01*
X146146554Y-98540984D01*
X146232113Y-98334427D01*
X146275730Y-98115148D01*
X146275730Y-97891572D01*
X146232113Y-97672293D01*
X146146554Y-97465736D01*
X146022342Y-97279840D01*
X145864250Y-97121748D01*
X145678354Y-96997536D01*
X145471797Y-96911977D01*
X145252518Y-96868360D01*
X145108039Y-96868360D01*
X145104678Y-96851462D01*
X145026657Y-96663104D01*
X144913389Y-96493586D01*
X144769226Y-96349423D01*
X144599708Y-96236155D01*
X144411350Y-96158134D01*
X144211391Y-96118360D01*
X144007513Y-96118360D01*
X143807554Y-96158134D01*
X143619196Y-96236155D01*
X143449678Y-96349423D01*
X143305515Y-96493586D01*
X143192247Y-96663104D01*
X143114226Y-96851462D01*
X143074452Y-97051421D01*
X139316080Y-97051421D01*
X139316080Y-96921292D01*
X139272463Y-96702013D01*
X139186904Y-96495456D01*
X139062692Y-96309560D01*
X138904600Y-96151468D01*
X138718704Y-96027256D01*
X138512147Y-95941697D01*
X138292868Y-95898080D01*
X138069292Y-95898080D01*
X137850013Y-95941697D01*
X137643456Y-96027256D01*
X137457560Y-96151468D01*
X137299468Y-96309560D01*
X137175256Y-96495456D01*
X137089697Y-96702013D01*
X137046080Y-96921292D01*
X136512353Y-96921292D01*
X136512353Y-95711941D01*
X141382800Y-95711941D01*
X141382800Y-95915819D01*
X141422574Y-96115778D01*
X141500595Y-96304136D01*
X141613863Y-96473654D01*
X141758026Y-96617817D01*
X141927544Y-96731085D01*
X142115902Y-96809106D01*
X142315861Y-96848880D01*
X142519739Y-96848880D01*
X142719698Y-96809106D01*
X142908056Y-96731085D01*
X143077574Y-96617817D01*
X143221737Y-96473654D01*
X143335005Y-96304136D01*
X143413026Y-96115778D01*
X143452800Y-95915819D01*
X143452800Y-95711941D01*
X143413026Y-95511982D01*
X143335005Y-95323624D01*
X143221737Y-95154106D01*
X143077574Y-95009943D01*
X142908056Y-94896675D01*
X142719698Y-94818654D01*
X142519739Y-94778880D01*
X142315861Y-94778880D01*
X142115902Y-94818654D01*
X141927544Y-94896675D01*
X141758026Y-95009943D01*
X141613863Y-95154106D01*
X141500595Y-95323624D01*
X141422574Y-95511982D01*
X141382800Y-95711941D01*
X136512353Y-95711941D01*
X136512353Y-94880519D01*
X136647340Y-94745532D01*
X136826271Y-94477743D01*
X136948415Y-94182861D01*
X145502680Y-94182861D01*
X145502680Y-94386739D01*
X145542454Y-94586698D01*
X145620475Y-94775056D01*
X145733743Y-94944574D01*
X145877906Y-95088737D01*
X146047424Y-95202005D01*
X146235782Y-95280026D01*
X146435741Y-95319800D01*
X146639619Y-95319800D01*
X146839578Y-95280026D01*
X147027936Y-95202005D01*
X147197454Y-95088737D01*
X147341617Y-94944574D01*
X147454885Y-94775056D01*
X147532906Y-94586698D01*
X147572680Y-94386739D01*
X147572680Y-94182861D01*
X147532906Y-93982902D01*
X147454885Y-93794544D01*
X147341617Y-93625026D01*
X147197454Y-93480863D01*
X147027936Y-93367595D01*
X146839578Y-93289574D01*
X146639619Y-93249800D01*
X146435741Y-93249800D01*
X146235782Y-93289574D01*
X146047424Y-93367595D01*
X145877906Y-93480863D01*
X145733743Y-93625026D01*
X145620475Y-93794544D01*
X145542454Y-93982902D01*
X145502680Y-94182861D01*
X136948415Y-94182861D01*
X136949521Y-94180192D01*
X137012353Y-93864313D01*
X137012353Y-93542247D01*
X136949521Y-93226368D01*
X136826271Y-92928817D01*
X136647340Y-92661028D01*
X136419605Y-92433293D01*
X136151816Y-92254362D01*
X135854265Y-92131112D01*
X135538386Y-92068280D01*
X135216320Y-92068280D01*
X134900441Y-92131112D01*
X134602890Y-92254362D01*
X134335101Y-92433293D01*
X134107366Y-92661028D01*
X133928435Y-92928817D01*
X133805185Y-93226368D01*
X133742353Y-93542247D01*
X133742353Y-93864313D01*
X133805185Y-94180192D01*
X133928435Y-94477743D01*
X134107366Y-94745532D01*
X134242353Y-94880519D01*
X134242354Y-96085925D01*
X134218825Y-96057255D01*
X134122134Y-95977903D01*
X134011820Y-95918938D01*
X133892122Y-95882628D01*
X133820912Y-95875615D01*
X133691130Y-95836245D01*
X133561117Y-95823440D01*
X132399007Y-95823440D01*
X132399007Y-95624404D01*
X132359233Y-95424445D01*
X132281212Y-95236087D01*
X132187760Y-95096226D01*
X132187760Y-94905174D01*
X132219802Y-94866131D01*
X132274258Y-94784632D01*
X132333224Y-94674315D01*
X132370733Y-94583759D01*
X132407042Y-94464063D01*
X132426164Y-94367930D01*
X132438424Y-94243449D01*
X132438424Y-94218890D01*
X132440832Y-94194440D01*
X132440832Y-93694440D01*
X132438424Y-93669990D01*
X132438424Y-93645431D01*
X132426164Y-93520950D01*
X132407042Y-93424817D01*
X132370733Y-93305121D01*
X132333224Y-93214565D01*
X132274258Y-93104248D01*
X132219802Y-93022749D01*
X132140450Y-92926058D01*
X132071142Y-92856750D01*
X131974451Y-92777398D01*
X131892952Y-92722942D01*
X131782635Y-92663976D01*
X131778883Y-92662422D01*
X131897940Y-92664832D01*
X132022422Y-92652572D01*
X132142120Y-92616262D01*
X132252434Y-92557297D01*
X132349125Y-92477945D01*
X132428477Y-92381254D01*
X132487442Y-92270940D01*
X132523752Y-92151242D01*
X132536012Y-92026760D01*
X132532940Y-91837510D01*
X132374190Y-91678760D01*
X131587440Y-91678760D01*
X131587440Y-91698760D01*
X131333440Y-91698760D01*
X131333440Y-91678760D01*
X131313440Y-91678760D01*
X131313440Y-91424760D01*
X131333440Y-91424760D01*
X131333440Y-90623410D01*
X131356340Y-90600510D01*
X131587440Y-90600510D01*
X131587440Y-91424760D01*
X132374190Y-91424760D01*
X132532940Y-91266010D01*
X132536012Y-91076760D01*
X132523752Y-90952278D01*
X132511334Y-90911341D01*
X149485400Y-90911341D01*
X149485400Y-91115219D01*
X149525174Y-91315178D01*
X149603195Y-91503536D01*
X149716463Y-91673054D01*
X149860626Y-91817217D01*
X150030144Y-91930485D01*
X150218502Y-92008506D01*
X150418461Y-92048280D01*
X150622339Y-92048280D01*
X150822298Y-92008506D01*
X151010656Y-91930485D01*
X151180174Y-91817217D01*
X151206976Y-91790415D01*
X151249344Y-91818725D01*
X151437702Y-91896746D01*
X151637661Y-91936520D01*
X151841539Y-91936520D01*
X152041498Y-91896746D01*
X152229856Y-91818725D01*
X152399374Y-91705457D01*
X152543537Y-91561294D01*
X152656805Y-91391776D01*
X152734826Y-91203418D01*
X152774600Y-91003459D01*
X152774600Y-90799581D01*
X152734826Y-90599622D01*
X152656805Y-90411264D01*
X152543537Y-90241746D01*
X152399374Y-90097583D01*
X152229856Y-89984315D01*
X152041498Y-89906294D01*
X151841539Y-89866520D01*
X151637661Y-89866520D01*
X151437702Y-89906294D01*
X151249344Y-89984315D01*
X151079826Y-90097583D01*
X151053024Y-90124385D01*
X151010656Y-90096075D01*
X150822298Y-90018054D01*
X150622339Y-89978280D01*
X150418461Y-89978280D01*
X150218502Y-90018054D01*
X150030144Y-90096075D01*
X149860626Y-90209343D01*
X149716463Y-90353506D01*
X149603195Y-90523024D01*
X149525174Y-90711382D01*
X149485400Y-90911341D01*
X132511334Y-90911341D01*
X132487442Y-90832580D01*
X132428477Y-90722266D01*
X132349125Y-90625575D01*
X132326985Y-90607405D01*
X132399925Y-90547545D01*
X132479277Y-90450854D01*
X132538242Y-90340540D01*
X132574552Y-90220842D01*
X132586812Y-90096360D01*
X132583740Y-89907110D01*
X132424990Y-89748360D01*
X131638240Y-89748360D01*
X131638240Y-90549710D01*
X131587440Y-90600510D01*
X131356340Y-90600510D01*
X131384240Y-90572610D01*
X131384240Y-89748360D01*
X131364240Y-89748360D01*
X131364240Y-89494360D01*
X131384240Y-89494360D01*
X131384240Y-89474360D01*
X131638240Y-89474360D01*
X131638240Y-89494360D01*
X132424990Y-89494360D01*
X132583740Y-89335610D01*
X132586812Y-89146360D01*
X132574552Y-89021878D01*
X132538242Y-88902180D01*
X132479277Y-88791866D01*
X132399925Y-88695175D01*
X132303234Y-88615823D01*
X132192920Y-88556858D01*
X132073222Y-88520548D01*
X131948740Y-88508288D01*
X131796990Y-88511360D01*
X131638242Y-88670108D01*
X131638242Y-88511360D01*
X131619549Y-88511360D01*
X131630433Y-88490998D01*
X133380812Y-86740620D01*
X134764868Y-86740620D01*
X134820620Y-86746111D01*
X134876371Y-86740620D01*
X148288629Y-86740620D01*
X148344380Y-86746111D01*
X148400131Y-86740620D01*
X148400132Y-86740620D01*
X148566879Y-86724197D01*
X148780827Y-86659296D01*
X148978003Y-86553904D01*
X149150829Y-86412069D01*
X149186376Y-86368755D01*
X152147508Y-83407624D01*
X152147508Y-84968080D01*
X152159768Y-85092562D01*
X152196078Y-85212260D01*
X152255043Y-85322574D01*
X152334395Y-85419265D01*
X152431086Y-85498617D01*
X152541400Y-85557582D01*
X152661098Y-85593892D01*
X152785580Y-85606152D01*
X154055580Y-85606152D01*
X154180062Y-85593892D01*
X154299760Y-85557582D01*
X154410074Y-85498617D01*
X154506765Y-85419265D01*
X154586117Y-85322574D01*
X154645082Y-85212260D01*
X154681392Y-85092562D01*
X154693652Y-84968080D01*
X154693652Y-83563080D01*
X160555709Y-83563080D01*
X160935160Y-83942531D01*
X160935160Y-84133433D01*
X160997992Y-84449312D01*
X161071227Y-84626117D01*
X160975410Y-84690140D01*
X160302897Y-84690140D01*
X160259431Y-84685859D01*
X160215965Y-84690140D01*
X160215955Y-84690140D01*
X160085942Y-84702945D01*
X159919119Y-84753551D01*
X159765373Y-84835729D01*
X159765371Y-84835730D01*
X159765372Y-84835730D01*
X159664385Y-84918608D01*
X159664383Y-84918610D01*
X159630615Y-84946323D01*
X159602902Y-84980091D01*
X149121399Y-95461595D01*
X149098679Y-95484315D01*
X148885379Y-95526743D01*
X148678822Y-95612302D01*
X148492926Y-95736514D01*
X148334834Y-95894606D01*
X148210622Y-96080502D01*
X148125063Y-96287059D01*
X148081446Y-96506338D01*
X148081446Y-96729914D01*
X148125063Y-96949193D01*
X148210622Y-97155750D01*
X148334834Y-97341646D01*
X148492926Y-97499738D01*
X148678822Y-97623950D01*
X148885379Y-97709509D01*
X149104658Y-97753126D01*
X149328234Y-97753126D01*
X149547513Y-97709509D01*
X149754070Y-97623950D01*
X149939966Y-97499738D01*
X150098058Y-97341646D01*
X150222270Y-97155750D01*
X150307829Y-96949193D01*
X150350257Y-96735893D01*
X150372977Y-96713173D01*
X150774769Y-96311381D01*
X153361440Y-96311381D01*
X153361440Y-96515259D01*
X153401214Y-96715218D01*
X153479235Y-96903576D01*
X153592503Y-97073094D01*
X153736666Y-97217257D01*
X153906184Y-97330525D01*
X154094542Y-97408546D01*
X154294501Y-97448320D01*
X154498379Y-97448320D01*
X154698338Y-97408546D01*
X154886696Y-97330525D01*
X155056214Y-97217257D01*
X155200377Y-97073094D01*
X155313645Y-96903576D01*
X155391666Y-96715218D01*
X155431440Y-96515259D01*
X155431440Y-96311381D01*
X155391666Y-96111422D01*
X155321342Y-95941646D01*
X160129158Y-95941646D01*
X160129158Y-96263712D01*
X160191990Y-96579591D01*
X160315240Y-96877142D01*
X160494171Y-97144931D01*
X160721906Y-97372666D01*
X160989695Y-97551597D01*
X161287246Y-97674847D01*
X161603125Y-97737679D01*
X161925191Y-97737679D01*
X162241070Y-97674847D01*
X162538621Y-97551597D01*
X162805758Y-97373101D01*
X168586200Y-97373101D01*
X168586200Y-97576979D01*
X168625974Y-97776938D01*
X168703995Y-97965296D01*
X168817263Y-98134814D01*
X168961426Y-98278977D01*
X169130944Y-98392245D01*
X169319302Y-98470266D01*
X169519261Y-98510040D01*
X169723139Y-98510040D01*
X169923098Y-98470266D01*
X170111456Y-98392245D01*
X170280974Y-98278977D01*
X170425137Y-98134814D01*
X170538405Y-97965296D01*
X170616426Y-97776938D01*
X170656200Y-97576979D01*
X170656200Y-97373101D01*
X170616426Y-97173142D01*
X170538405Y-96984784D01*
X170425137Y-96815266D01*
X170280974Y-96671103D01*
X170111456Y-96557835D01*
X169923098Y-96479814D01*
X169723139Y-96440040D01*
X169519261Y-96440040D01*
X169319302Y-96479814D01*
X169130944Y-96557835D01*
X168961426Y-96671103D01*
X168817263Y-96815266D01*
X168703995Y-96984784D01*
X168625974Y-97173142D01*
X168586200Y-97373101D01*
X162805758Y-97373101D01*
X162806410Y-97372666D01*
X163034145Y-97144931D01*
X163213076Y-96877142D01*
X163336326Y-96579591D01*
X163399158Y-96263712D01*
X163399158Y-95941646D01*
X163336326Y-95625767D01*
X163216309Y-95336021D01*
X172248880Y-95336021D01*
X172248880Y-95539899D01*
X172288654Y-95739858D01*
X172366675Y-95928216D01*
X172479943Y-96097734D01*
X172624106Y-96241897D01*
X172793624Y-96355165D01*
X172981982Y-96433186D01*
X173181941Y-96472960D01*
X173385819Y-96472960D01*
X173585778Y-96433186D01*
X173774136Y-96355165D01*
X173943654Y-96241897D01*
X174087817Y-96097734D01*
X174201085Y-95928216D01*
X174279106Y-95739858D01*
X174318880Y-95539899D01*
X174318880Y-95336021D01*
X174279106Y-95136062D01*
X174201085Y-94947704D01*
X174087817Y-94778186D01*
X173943654Y-94634023D01*
X173774136Y-94520755D01*
X173585778Y-94442734D01*
X173385819Y-94402960D01*
X173181941Y-94402960D01*
X172981982Y-94442734D01*
X172793624Y-94520755D01*
X172624106Y-94634023D01*
X172479943Y-94778186D01*
X172366675Y-94947704D01*
X172288654Y-95136062D01*
X172248880Y-95336021D01*
X163216309Y-95336021D01*
X163213076Y-95328216D01*
X163034145Y-95060427D01*
X162806410Y-94832692D01*
X162538621Y-94653761D01*
X162241070Y-94530511D01*
X161925191Y-94467679D01*
X161603125Y-94467679D01*
X161287246Y-94530511D01*
X160989695Y-94653761D01*
X160721906Y-94832692D01*
X160494171Y-95060427D01*
X160315240Y-95328216D01*
X160191990Y-95625767D01*
X160129158Y-95941646D01*
X155321342Y-95941646D01*
X155313645Y-95923064D01*
X155200377Y-95753546D01*
X155056214Y-95609383D01*
X154886696Y-95496115D01*
X154698338Y-95418094D01*
X154498379Y-95378320D01*
X154294501Y-95378320D01*
X154094542Y-95418094D01*
X153906184Y-95496115D01*
X153736666Y-95609383D01*
X153592503Y-95753546D01*
X153479235Y-95923064D01*
X153401214Y-96111422D01*
X153361440Y-96311381D01*
X150774769Y-96311381D01*
X160626011Y-86460140D01*
X160975410Y-86460140D01*
X161156236Y-86580964D01*
X161362793Y-86666523D01*
X161582072Y-86710140D01*
X161805648Y-86710140D01*
X162024927Y-86666523D01*
X162231484Y-86580964D01*
X162417380Y-86456752D01*
X162575472Y-86298660D01*
X162699684Y-86112764D01*
X162785243Y-85906207D01*
X162828860Y-85686928D01*
X162828860Y-85587973D01*
X163047072Y-85544568D01*
X163344623Y-85421318D01*
X163612412Y-85242387D01*
X163840147Y-85014652D01*
X164019078Y-84746863D01*
X164142328Y-84449312D01*
X164205160Y-84133433D01*
X164205160Y-83811367D01*
X164142328Y-83495488D01*
X164019078Y-83197937D01*
X163840147Y-82930148D01*
X163612412Y-82702413D01*
X163344623Y-82523482D01*
X163047072Y-82400232D01*
X162731193Y-82337400D01*
X162540291Y-82337400D01*
X161867836Y-81664945D01*
X161832289Y-81621631D01*
X161659463Y-81479796D01*
X161462287Y-81374404D01*
X161248339Y-81309503D01*
X161081592Y-81293080D01*
X161081591Y-81293080D01*
X161025840Y-81287589D01*
X160970089Y-81293080D01*
X154693652Y-81293080D01*
X154693652Y-79888080D01*
X154681392Y-79763598D01*
X154645082Y-79643900D01*
X154586117Y-79533586D01*
X154506765Y-79436895D01*
X154410074Y-79357543D01*
X154299760Y-79298578D01*
X154180062Y-79262268D01*
X154055580Y-79250008D01*
X152785580Y-79250008D01*
X152661098Y-79262268D01*
X152541400Y-79298578D01*
X152431086Y-79357543D01*
X152334395Y-79436895D01*
X152255043Y-79533586D01*
X152196078Y-79643900D01*
X152159768Y-79763598D01*
X152147508Y-79888080D01*
X152147508Y-81065000D01*
X151805751Y-81065000D01*
X151750000Y-81059509D01*
X151694248Y-81065000D01*
X151527501Y-81081423D01*
X151313553Y-81146324D01*
X151116377Y-81251716D01*
X150943551Y-81393551D01*
X150908009Y-81436859D01*
X147874249Y-84470620D01*
X145047493Y-84470620D01*
X145053652Y-84408080D01*
X145050580Y-82713830D01*
X144891830Y-82555080D01*
X142562580Y-82555080D01*
X142562580Y-82575080D01*
X142308580Y-82575080D01*
X142308580Y-82555080D01*
X139979330Y-82555080D01*
X139820580Y-82713830D01*
X139817508Y-84408080D01*
X139823667Y-84470620D01*
X135290752Y-84470620D01*
X132723652Y-81903521D01*
X132723652Y-80448080D01*
X139817508Y-80448080D01*
X139820580Y-82142330D01*
X139979330Y-82301080D01*
X142308580Y-82301080D01*
X142308580Y-79971830D01*
X142562580Y-79971830D01*
X142562580Y-82301080D01*
X144891830Y-82301080D01*
X145050580Y-82142330D01*
X145053652Y-80448080D01*
X145041392Y-80323598D01*
X145005082Y-80203900D01*
X144946117Y-80093586D01*
X144866765Y-79996895D01*
X144770074Y-79917543D01*
X144659760Y-79858578D01*
X144540062Y-79822268D01*
X144415580Y-79810008D01*
X142721330Y-79813080D01*
X142562580Y-79971830D01*
X142308580Y-79971830D01*
X142149830Y-79813080D01*
X140455580Y-79810008D01*
X140331098Y-79822268D01*
X140211400Y-79858578D01*
X140101086Y-79917543D01*
X140004395Y-79996895D01*
X139925043Y-80093586D01*
X139866078Y-80203900D01*
X139829768Y-80323598D01*
X139817508Y-80448080D01*
X132723652Y-80448080D01*
X132723652Y-79888080D01*
X132711392Y-79763598D01*
X132675082Y-79643900D01*
X132616117Y-79533586D01*
X132536765Y-79436895D01*
X132440074Y-79357543D01*
X132329760Y-79298578D01*
X132210062Y-79262268D01*
X132085580Y-79250008D01*
X130815580Y-79250008D01*
X130691098Y-79262268D01*
X130571400Y-79298578D01*
X130461086Y-79357543D01*
X130364395Y-79436895D01*
X130285043Y-79533586D01*
X130226078Y-79643900D01*
X130189768Y-79763598D01*
X130177508Y-79888080D01*
X130177508Y-84968080D01*
X130189768Y-85092562D01*
X130226078Y-85212260D01*
X130285043Y-85322574D01*
X130364395Y-85419265D01*
X130461086Y-85498617D01*
X130571400Y-85557582D01*
X130691098Y-85593892D01*
X130815580Y-85606152D01*
X131305016Y-85606152D01*
X130062802Y-86848367D01*
X129937525Y-86915329D01*
X129844800Y-86991426D01*
X129752075Y-86915329D01*
X129603942Y-86836150D01*
X129443208Y-86787392D01*
X129276050Y-86770928D01*
X128838550Y-86770928D01*
X128671392Y-86787392D01*
X128619119Y-86803249D01*
X128510057Y-86640026D01*
X128365894Y-86495863D01*
X128196376Y-86382595D01*
X128008018Y-86304574D01*
X127808059Y-86264800D01*
X127604181Y-86264800D01*
X127404222Y-86304574D01*
X127215864Y-86382595D01*
X127046346Y-86495863D01*
X126902183Y-86640026D01*
X126788915Y-86809544D01*
X126710894Y-86997902D01*
X126671120Y-87197861D01*
X122345740Y-87197861D01*
X117234395Y-82086517D01*
X117223086Y-82029662D01*
X117145065Y-81841304D01*
X117031797Y-81671786D01*
X116887634Y-81527623D01*
X116718116Y-81414355D01*
X116529758Y-81336334D01*
X116329799Y-81296560D01*
X116125921Y-81296560D01*
X115925962Y-81336334D01*
X115737604Y-81414355D01*
X115568086Y-81527623D01*
X115423923Y-81671786D01*
X115310655Y-81841304D01*
X115232634Y-82029662D01*
X115192860Y-82229621D01*
X111253880Y-82229621D01*
X111253880Y-76722685D01*
X111603334Y-77072139D01*
X112115490Y-77414351D01*
X112684568Y-77650071D01*
X113288697Y-77770240D01*
X113904663Y-77770240D01*
X114508792Y-77650071D01*
X115077870Y-77414351D01*
X115590026Y-77072139D01*
X116025579Y-76636586D01*
X116367791Y-76124430D01*
X116507069Y-75788181D01*
X128949500Y-75788181D01*
X128949500Y-75992059D01*
X128989274Y-76192018D01*
X129067295Y-76380376D01*
X129180563Y-76549894D01*
X129324726Y-76694057D01*
X129494244Y-76807325D01*
X129682602Y-76885346D01*
X129882561Y-76925120D01*
X130086439Y-76925120D01*
X130286398Y-76885346D01*
X130474756Y-76807325D01*
X130644274Y-76694057D01*
X130788437Y-76549894D01*
X130901705Y-76380376D01*
X130979726Y-76192018D01*
X131019500Y-75992059D01*
X131019500Y-75788181D01*
X130979726Y-75588222D01*
X130901705Y-75399864D01*
X130788437Y-75230346D01*
X130644274Y-75086183D01*
X130474756Y-74972915D01*
X130286398Y-74894894D01*
X130086439Y-74855120D01*
X129882561Y-74855120D01*
X129682602Y-74894894D01*
X129494244Y-74972915D01*
X129324726Y-75086183D01*
X129180563Y-75230346D01*
X129067295Y-75399864D01*
X128989274Y-75588222D01*
X128949500Y-75788181D01*
X116507069Y-75788181D01*
X116603511Y-75555352D01*
X116723680Y-74951223D01*
X116723680Y-74335257D01*
X116603511Y-73731128D01*
X116367791Y-73162050D01*
X116025579Y-72649894D01*
X115703925Y-72328240D01*
X170472845Y-72328240D01*
X170151191Y-72649894D01*
X170151191Y-72649894D01*
G37*
X170151191Y-72649894D02*
X169808979Y-73162050D01*
X169573259Y-73731128D01*
X169453090Y-74335257D01*
X169453090Y-74951223D01*
X169573259Y-75555352D01*
X169808979Y-76124430D01*
X170151191Y-76636586D01*
X170586744Y-77072139D01*
X171098900Y-77414351D01*
X171667978Y-77650071D01*
X172272107Y-77770240D01*
X172888073Y-77770240D01*
X173492202Y-77650071D01*
X174061280Y-77414351D01*
X174573436Y-77072139D01*
X174890001Y-76755574D01*
X174890000Y-140531265D01*
X174573436Y-140214701D01*
X174061280Y-139872489D01*
X173492202Y-139636769D01*
X172888073Y-139516600D01*
X172272107Y-139516600D01*
X171667978Y-139636769D01*
X171098900Y-139872489D01*
X170586744Y-140214701D01*
X170151191Y-140650254D01*
X169808979Y-141162410D01*
X169573259Y-141731488D01*
X169453090Y-142335617D01*
X169453090Y-142951583D01*
X169573259Y-143555712D01*
X169808979Y-144124790D01*
X170151191Y-144636946D01*
X170586744Y-145072499D01*
X171098900Y-145414711D01*
X171667978Y-145650431D01*
X172272107Y-145770600D01*
X172888073Y-145770600D01*
X173492202Y-145650431D01*
X174061280Y-145414711D01*
X174573436Y-145072499D01*
X174890000Y-144755935D01*
X174890000Y-147958240D01*
X118749286Y-147958240D01*
X118749286Y-145401048D01*
X118902410Y-145464474D01*
X119172308Y-145518160D01*
X119447492Y-145518160D01*
X119717390Y-145464474D01*
X119971627Y-145359165D01*
X120200435Y-145206280D01*
X120395020Y-145011695D01*
X120547905Y-144782887D01*
X120653214Y-144528650D01*
X120706900Y-144258752D01*
X120706900Y-143983568D01*
X120653214Y-143713670D01*
X120547905Y-143459433D01*
X120395020Y-143230625D01*
X120360555Y-143196160D01*
X120395020Y-143161695D01*
X120547905Y-142932887D01*
X120653214Y-142678650D01*
X120706900Y-142408752D01*
X120706900Y-142133568D01*
X120653214Y-141863670D01*
X120547905Y-141609433D01*
X120395020Y-141380625D01*
X120360555Y-141346160D01*
X120395020Y-141311695D01*
X120547905Y-141082887D01*
X120653214Y-140828650D01*
X120706900Y-140558752D01*
X120706900Y-140283568D01*
X120653214Y-140013670D01*
X120547905Y-139759433D01*
X120395020Y-139530625D01*
X120200435Y-139336040D01*
X119971627Y-139183155D01*
X119717390Y-139077846D01*
X119447492Y-139024160D01*
X119172308Y-139024160D01*
X118902410Y-139077846D01*
X118648173Y-139183155D01*
X118419365Y-139336040D01*
X118224780Y-139530625D01*
X118071895Y-139759433D01*
X117966586Y-140013670D01*
X117912900Y-140283568D01*
X117912900Y-140558752D01*
X117966586Y-140828650D01*
X118071895Y-141082887D01*
X118224780Y-141311695D01*
X118259245Y-141346160D01*
X118224780Y-141380625D01*
X118071895Y-141609433D01*
X117966586Y-141863670D01*
X117912900Y-142133568D01*
X117912900Y-142408752D01*
X117966586Y-142678650D01*
X118071895Y-142932887D01*
X118224780Y-143161695D01*
X118259245Y-143196160D01*
X118224780Y-143230625D01*
X118071895Y-143459433D01*
X117966586Y-143713670D01*
X117912900Y-143983568D01*
X117912900Y-144258752D01*
X117966586Y-144528650D01*
X118071895Y-144782887D01*
X118224780Y-145011695D01*
X118419365Y-145206280D01*
X118424932Y-145210000D01*
X115750715Y-145210000D01*
X115750715Y-147958240D01*
X111253880Y-147958240D01*
X111253880Y-144723045D01*
X111603334Y-145072499D01*
X112115490Y-145414711D01*
X112684568Y-145650431D01*
X113288697Y-145770600D01*
X113904663Y-145770600D01*
X114508792Y-145650431D01*
X115077870Y-145414711D01*
X115590026Y-145072499D01*
X116025579Y-144636946D01*
X116367791Y-144124790D01*
X116603511Y-143555712D01*
X116723680Y-142951583D01*
X116723680Y-142335617D01*
X116603511Y-141731488D01*
X116367791Y-141162410D01*
X116025579Y-140650254D01*
X115590026Y-140214701D01*
X115077870Y-139872489D01*
X114508792Y-139636769D01*
X113904663Y-139516600D01*
X113288697Y-139516600D01*
X112684568Y-139636769D01*
X112115490Y-139872489D01*
X111603334Y-140214701D01*
X111253880Y-140564155D01*
X111253880Y-138449870D01*
X132361959Y-138449870D01*
X132361959Y-144094870D01*
X156161721Y-144094870D01*
X156161721Y-140283568D01*
X165412900Y-140283568D01*
X165412900Y-140558752D01*
X165466586Y-140828650D01*
X165571895Y-141082887D01*
X165724780Y-141311695D01*
X165759245Y-141346160D01*
X165724780Y-141380625D01*
X165571895Y-141609433D01*
X165466586Y-141863670D01*
X165412900Y-142133568D01*
X165412900Y-142408752D01*
X165466586Y-142678650D01*
X165571895Y-142932887D01*
X165724780Y-143161695D01*
X165759245Y-143196160D01*
X165724780Y-143230625D01*
X165571895Y-143459433D01*
X165466586Y-143713670D01*
X165412900Y-143983568D01*
X165412900Y-144258752D01*
X165466586Y-144528650D01*
X165571895Y-144782887D01*
X165724780Y-145011695D01*
X165919365Y-145206280D01*
X166148173Y-145359165D01*
X166402410Y-145464474D01*
X166672308Y-145518160D01*
X166947492Y-145518160D01*
X167217390Y-145464474D01*
X167471627Y-145359165D01*
X167700435Y-145206280D01*
X167895020Y-145011695D01*
X168047905Y-144782887D01*
X168153214Y-144528650D01*
X168206900Y-144258752D01*
X168206900Y-143983568D01*
X168153214Y-143713670D01*
X168047905Y-143459433D01*
X167895020Y-143230625D01*
X167860555Y-143196160D01*
X167895020Y-143161695D01*
X168047905Y-142932887D01*
X168153214Y-142678650D01*
X168206900Y-142408752D01*
X168206900Y-142133568D01*
X168153214Y-141863670D01*
X168047905Y-141609433D01*
X167895020Y-141380625D01*
X167860555Y-141346160D01*
X167895020Y-141311695D01*
X168047905Y-141082887D01*
X168153214Y-140828650D01*
X168206900Y-140558752D01*
X168206900Y-140283568D01*
X168153214Y-140013670D01*
X168047905Y-139759433D01*
X167895020Y-139530625D01*
X167700435Y-139336040D01*
X167471627Y-139183155D01*
X167217390Y-139077846D01*
X166947492Y-139024160D01*
X166672308Y-139024160D01*
X166402410Y-139077846D01*
X166148173Y-139183155D01*
X165919365Y-139336040D01*
X165724780Y-139530625D01*
X165571895Y-139759433D01*
X165466586Y-140013670D01*
X165412900Y-140283568D01*
X156161721Y-140283568D01*
X156161721Y-138449870D01*
X132361959Y-138449870D01*
X111253880Y-138449870D01*
X111253880Y-123130567D01*
X111842040Y-123130567D01*
X111842040Y-123452633D01*
X111904872Y-123768512D01*
X112028122Y-124066063D01*
X112207053Y-124333852D01*
X112434788Y-124561587D01*
X112702577Y-124740518D01*
X113000128Y-124863768D01*
X113316007Y-124926600D01*
X113638073Y-124926600D01*
X113953952Y-124863768D01*
X114251503Y-124740518D01*
X114519292Y-124561587D01*
X114747027Y-124333852D01*
X114925958Y-124066063D01*
X115049208Y-123768512D01*
X115112040Y-123452633D01*
X115112040Y-123130567D01*
X115049208Y-122814688D01*
X114925958Y-122517137D01*
X114747027Y-122249348D01*
X114519292Y-122021613D01*
X114251503Y-121842682D01*
X113953952Y-121719432D01*
X113638073Y-121656600D01*
X113316007Y-121656600D01*
X113000128Y-121719432D01*
X112702577Y-121842682D01*
X112434788Y-122021613D01*
X112207053Y-122249348D01*
X112028122Y-122517137D01*
X111904872Y-122814688D01*
X111842040Y-123130567D01*
X111253880Y-123130567D01*
X111253880Y-119387985D01*
X125609520Y-119387985D01*
X125676500Y-119628076D01*
X125925528Y-119745176D01*
X126192615Y-119811443D01*
X126467497Y-119824330D01*
X126739613Y-119783342D01*
X126998503Y-119690056D01*
X127114460Y-119628076D01*
X127181440Y-119387985D01*
X126395480Y-118602025D01*
X125609520Y-119387985D01*
X111253880Y-119387985D01*
X111253880Y-118494437D01*
X124993570Y-118494437D01*
X125034558Y-118766553D01*
X125127844Y-119025443D01*
X125189824Y-119141400D01*
X125429915Y-119208380D01*
X126215875Y-118422420D01*
X125429915Y-117636460D01*
X125189824Y-117703440D01*
X125072724Y-117952468D01*
X125006457Y-118219555D01*
X124993570Y-118494437D01*
X111253880Y-118494437D01*
X111253880Y-117456855D01*
X125609520Y-117456855D01*
X126395480Y-118242815D01*
X127181440Y-117456855D01*
X127114460Y-117216764D01*
X126865432Y-117099664D01*
X126598345Y-117033397D01*
X126323463Y-117020510D01*
X126051347Y-117061498D01*
X125792457Y-117154784D01*
X125676500Y-117216764D01*
X125609520Y-117456855D01*
X111253880Y-117456855D01*
X111253880Y-111428787D01*
X116718840Y-111428787D01*
X116718840Y-111750853D01*
X116781672Y-112066732D01*
X116904922Y-112364283D01*
X117083853Y-112632072D01*
X117311588Y-112859807D01*
X117579377Y-113038738D01*
X117876928Y-113161988D01*
X118192807Y-113224820D01*
X118514873Y-113224820D01*
X118830752Y-113161988D01*
X119128303Y-113038738D01*
X119396092Y-112859807D01*
X119623827Y-112632072D01*
X119802758Y-112364283D01*
X119926008Y-112066732D01*
X119988840Y-111750853D01*
X119988840Y-111428787D01*
X119926008Y-111112908D01*
X119802758Y-110815357D01*
X119623827Y-110547568D01*
X119396092Y-110319833D01*
X119128303Y-110140902D01*
X118830752Y-110017652D01*
X118514873Y-109954820D01*
X118192807Y-109954820D01*
X117876928Y-110017652D01*
X117579377Y-110140902D01*
X117311588Y-110319833D01*
X117083853Y-110547568D01*
X116904922Y-110815357D01*
X116781672Y-111112908D01*
X116718840Y-111428787D01*
X111253880Y-111428787D01*
X111253880Y-106388212D01*
X112615000Y-106388212D01*
X112615000Y-106611788D01*
X112658617Y-106831067D01*
X112744176Y-107037624D01*
X112868388Y-107223520D01*
X113026480Y-107381612D01*
X113212376Y-107505824D01*
X113418933Y-107591383D01*
X113638212Y-107635000D01*
X113861788Y-107635000D01*
X114081067Y-107591383D01*
X114287624Y-107505824D01*
X114473520Y-107381612D01*
X114631612Y-107223520D01*
X114755824Y-107037624D01*
X114841383Y-106831067D01*
X114885000Y-106611788D01*
X114885000Y-106388212D01*
X114841383Y-106168933D01*
X114755824Y-105962376D01*
X114631612Y-105776480D01*
X114473520Y-105618388D01*
X114287624Y-105494176D01*
X114081067Y-105408617D01*
X113861788Y-105365000D01*
X113638212Y-105365000D01*
X113418933Y-105408617D01*
X113212376Y-105494176D01*
X113026480Y-105618388D01*
X112868388Y-105776480D01*
X112744176Y-105962376D01*
X112658617Y-106168933D01*
X112615000Y-106388212D01*
X111253880Y-106388212D01*
X111253880Y-92986814D01*
X113132392Y-92986814D01*
X113132392Y-93190692D01*
X113172166Y-93390651D01*
X113250187Y-93579009D01*
X113282392Y-93627207D01*
X113282392Y-93697914D01*
X113282393Y-93697924D01*
X113282392Y-101571243D01*
X113278111Y-101614712D01*
X113282392Y-101658181D01*
X113282392Y-101658188D01*
X113293604Y-101772026D01*
X113294440Y-101780510D01*
X113295197Y-101788201D01*
X113345803Y-101955024D01*
X113427981Y-102108770D01*
X113538575Y-102243529D01*
X113572348Y-102271246D01*
X125537995Y-114236893D01*
X125448102Y-114254774D01*
X125259744Y-114332795D01*
X125090226Y-114446063D01*
X124946063Y-114590226D01*
X124832795Y-114759744D01*
X124754774Y-114948102D01*
X124715000Y-115148061D01*
X124715000Y-115351939D01*
X124754774Y-115551898D01*
X124832795Y-115740256D01*
X124946063Y-115909774D01*
X125090226Y-116053937D01*
X125259744Y-116167205D01*
X125448102Y-116245226D01*
X125648061Y-116285000D01*
X125851939Y-116285000D01*
X126051898Y-116245226D01*
X126240256Y-116167205D01*
X126409774Y-116053937D01*
X126553937Y-115909774D01*
X126667205Y-115740256D01*
X126745226Y-115551898D01*
X126762796Y-115463569D01*
X126773251Y-115472150D01*
X126773253Y-115472152D01*
X126797009Y-115491648D01*
X126874241Y-115555031D01*
X127027987Y-115637209D01*
X127194810Y-115687815D01*
X127324823Y-115700620D01*
X127324833Y-115700620D01*
X127368299Y-115704901D01*
X127411765Y-115700620D01*
X143101430Y-115700620D01*
X143212790Y-115775028D01*
X142312972Y-116674846D01*
X142279204Y-116702559D01*
X142251491Y-116736327D01*
X142251488Y-116736330D01*
X142168610Y-116837317D01*
X142086432Y-116991063D01*
X142057853Y-117085271D01*
X142042970Y-117079106D01*
X141773072Y-117025420D01*
X141497888Y-117025420D01*
X141227990Y-117079106D01*
X140973753Y-117184415D01*
X140744945Y-117337300D01*
X140550360Y-117531885D01*
X140397475Y-117760693D01*
X140365480Y-117837935D01*
X140333485Y-117760693D01*
X140180600Y-117531885D01*
X139986015Y-117337300D01*
X139757207Y-117184415D01*
X139502970Y-117079106D01*
X139233072Y-117025420D01*
X138957888Y-117025420D01*
X138687990Y-117079106D01*
X138433753Y-117184415D01*
X138204945Y-117337300D01*
X138010360Y-117531885D01*
X137857475Y-117760693D01*
X137825480Y-117837935D01*
X137793485Y-117760693D01*
X137640600Y-117531885D01*
X137446015Y-117337300D01*
X137217207Y-117184415D01*
X136962970Y-117079106D01*
X136693072Y-117025420D01*
X136417888Y-117025420D01*
X136147990Y-117079106D01*
X135893753Y-117184415D01*
X135664945Y-117337300D01*
X135470360Y-117531885D01*
X135317475Y-117760693D01*
X135285480Y-117837935D01*
X135253485Y-117760693D01*
X135100600Y-117531885D01*
X134906015Y-117337300D01*
X134677207Y-117184415D01*
X134422970Y-117079106D01*
X134153072Y-117025420D01*
X133877888Y-117025420D01*
X133607990Y-117079106D01*
X133353753Y-117184415D01*
X133124945Y-117337300D01*
X132930360Y-117531885D01*
X132777475Y-117760693D01*
X132745480Y-117837935D01*
X132713485Y-117760693D01*
X132560600Y-117531885D01*
X132366015Y-117337300D01*
X132137207Y-117184415D01*
X131882970Y-117079106D01*
X131613072Y-117025420D01*
X131337888Y-117025420D01*
X131067990Y-117079106D01*
X130813753Y-117184415D01*
X130584945Y-117337300D01*
X130390360Y-117531885D01*
X130237475Y-117760693D01*
X130205480Y-117837935D01*
X130173485Y-117760693D01*
X130020600Y-117531885D01*
X129826015Y-117337300D01*
X129597207Y-117184415D01*
X129342970Y-117079106D01*
X129073072Y-117025420D01*
X128797888Y-117025420D01*
X128527990Y-117079106D01*
X128273753Y-117184415D01*
X128044945Y-117337300D01*
X127850360Y-117531885D01*
X127697475Y-117760693D01*
X127667788Y-117832363D01*
X127663116Y-117819397D01*
X127601136Y-117703440D01*
X127361045Y-117636460D01*
X126575085Y-118422420D01*
X127361045Y-119208380D01*
X127601136Y-119141400D01*
X127664965Y-119005660D01*
X127697475Y-119084147D01*
X127850360Y-119312955D01*
X128044945Y-119507540D01*
X128273753Y-119660425D01*
X128527990Y-119765734D01*
X128797888Y-119819420D01*
X129073072Y-119819420D01*
X129342970Y-119765734D01*
X129597207Y-119660425D01*
X129826015Y-119507540D01*
X130020600Y-119312955D01*
X130173485Y-119084147D01*
X130205480Y-119006905D01*
X130237475Y-119084147D01*
X130390360Y-119312955D01*
X130584945Y-119507540D01*
X130813753Y-119660425D01*
X131067990Y-119765734D01*
X131337888Y-119819420D01*
X131613072Y-119819420D01*
X131882970Y-119765734D01*
X132137207Y-119660425D01*
X132366015Y-119507540D01*
X132560600Y-119312955D01*
X132713485Y-119084147D01*
X132745480Y-119006905D01*
X132777475Y-119084147D01*
X132930360Y-119312955D01*
X133124945Y-119507540D01*
X133353753Y-119660425D01*
X133607990Y-119765734D01*
X133877888Y-119819420D01*
X134153072Y-119819420D01*
X134422970Y-119765734D01*
X134677207Y-119660425D01*
X134906015Y-119507540D01*
X135100600Y-119312955D01*
X135253485Y-119084147D01*
X135285480Y-119006905D01*
X135317475Y-119084147D01*
X135470360Y-119312955D01*
X135664945Y-119507540D01*
X135893753Y-119660425D01*
X136147990Y-119765734D01*
X136417888Y-119819420D01*
X136693072Y-119819420D01*
X136962970Y-119765734D01*
X137217207Y-119660425D01*
X137446015Y-119507540D01*
X137640600Y-119312955D01*
X137793485Y-119084147D01*
X137825480Y-119006905D01*
X137857475Y-119084147D01*
X138010360Y-119312955D01*
X138204945Y-119507540D01*
X138433753Y-119660425D01*
X138687990Y-119765734D01*
X138957888Y-119819420D01*
X139233072Y-119819420D01*
X139502970Y-119765734D01*
X139757207Y-119660425D01*
X139986015Y-119507540D01*
X140180600Y-119312955D01*
X140333485Y-119084147D01*
X140365480Y-119006905D01*
X140397475Y-119084147D01*
X140550360Y-119312955D01*
X140744945Y-119507540D01*
X140973753Y-119660425D01*
X141227990Y-119765734D01*
X141497888Y-119819420D01*
X141773072Y-119819420D01*
X142023021Y-119769702D01*
X142023020Y-124412041D01*
X141362772Y-125072289D01*
X141149473Y-125114717D01*
X140942916Y-125200276D01*
X140757020Y-125324488D01*
X140598928Y-125482580D01*
X140474716Y-125668476D01*
X140389157Y-125875033D01*
X140345540Y-126094312D01*
X140345540Y-126317888D01*
X140389157Y-126537167D01*
X140474716Y-126743724D01*
X140598928Y-126929620D01*
X140757020Y-127087712D01*
X140942916Y-127211924D01*
X141149473Y-127297483D01*
X141368752Y-127341100D01*
X141592328Y-127341100D01*
X141811607Y-127297483D01*
X142018164Y-127211924D01*
X142204060Y-127087712D01*
X142362152Y-126929620D01*
X142486364Y-126743724D01*
X142571923Y-126537167D01*
X142614351Y-126323868D01*
X142832638Y-126105581D01*
X148103640Y-126105581D01*
X148103640Y-126309459D01*
X148143414Y-126509418D01*
X148221435Y-126697776D01*
X148334703Y-126867294D01*
X148478866Y-127011457D01*
X148648384Y-127124725D01*
X148836742Y-127202746D01*
X149036701Y-127242520D01*
X149240579Y-127242520D01*
X149440538Y-127202746D01*
X149628896Y-127124725D01*
X149798414Y-127011457D01*
X149942577Y-126867294D01*
X150055845Y-126697776D01*
X150133866Y-126509418D01*
X150157607Y-126390061D01*
X152193040Y-126390061D01*
X152193040Y-126593939D01*
X152232814Y-126793898D01*
X152310835Y-126982256D01*
X152424103Y-127151774D01*
X152568266Y-127295937D01*
X152737784Y-127409205D01*
X152926142Y-127487226D01*
X153126101Y-127527000D01*
X153329979Y-127527000D01*
X153529938Y-127487226D01*
X153718296Y-127409205D01*
X153887814Y-127295937D01*
X153946189Y-127237562D01*
X154073824Y-127322845D01*
X154262182Y-127400866D01*
X154462141Y-127440640D01*
X154666019Y-127440640D01*
X154865978Y-127400866D01*
X155049768Y-127324737D01*
X155176184Y-127409205D01*
X155364542Y-127487226D01*
X155564501Y-127527000D01*
X155768379Y-127527000D01*
X155910281Y-127498774D01*
X155927795Y-127541056D01*
X156041063Y-127710574D01*
X156185226Y-127854737D01*
X156354744Y-127968005D01*
X156543102Y-128046026D01*
X156743061Y-128085800D01*
X156946939Y-128085800D01*
X157146898Y-128046026D01*
X157335256Y-127968005D01*
X157392689Y-127929630D01*
X157541606Y-127991314D01*
X157741565Y-128031088D01*
X157945443Y-128031088D01*
X158145402Y-127991314D01*
X158333760Y-127913293D01*
X158468999Y-127822930D01*
X158534064Y-127866405D01*
X158722422Y-127944426D01*
X158922381Y-127984200D01*
X159126259Y-127984200D01*
X159326218Y-127944426D01*
X159471158Y-127884389D01*
X159477066Y-127890297D01*
X159646584Y-128003565D01*
X159834942Y-128081586D01*
X160034901Y-128121360D01*
X160238779Y-128121360D01*
X160438738Y-128081586D01*
X160627096Y-128003565D01*
X160796614Y-127890297D01*
X160940777Y-127746134D01*
X161054045Y-127576616D01*
X161132066Y-127388258D01*
X161171840Y-127188299D01*
X161171840Y-126984421D01*
X161132066Y-126784462D01*
X161072683Y-126641100D01*
X161108133Y-126641100D01*
X161424012Y-126578268D01*
X161721563Y-126455018D01*
X161989352Y-126276087D01*
X162217087Y-126048352D01*
X162396018Y-125780563D01*
X162519268Y-125483012D01*
X162582100Y-125167133D01*
X162582100Y-124845067D01*
X162519268Y-124529188D01*
X162396018Y-124231637D01*
X162217087Y-123963848D01*
X161989352Y-123736113D01*
X161721563Y-123557182D01*
X161424012Y-123433932D01*
X161108133Y-123371100D01*
X160786067Y-123371100D01*
X160470188Y-123433932D01*
X160172637Y-123557182D01*
X159904848Y-123736113D01*
X159677113Y-123963848D01*
X159498182Y-124231637D01*
X159374932Y-124529188D01*
X159312100Y-124845067D01*
X159312100Y-125167133D01*
X159374932Y-125483012D01*
X159498182Y-125780563D01*
X159677113Y-126048352D01*
X159753592Y-126124831D01*
X159690002Y-126151171D01*
X159684094Y-126145263D01*
X159514576Y-126031995D01*
X159326218Y-125953974D01*
X159126259Y-125914200D01*
X158922381Y-125914200D01*
X158722422Y-125953974D01*
X158534064Y-126031995D01*
X158398825Y-126122358D01*
X158333760Y-126078883D01*
X158145402Y-126000862D01*
X157945443Y-125961088D01*
X157741565Y-125961088D01*
X157541606Y-126000862D01*
X157353248Y-126078883D01*
X157295815Y-126117258D01*
X157146898Y-126055574D01*
X156946939Y-126015800D01*
X156743061Y-126015800D01*
X156601159Y-126044026D01*
X156583645Y-126001744D01*
X156470377Y-125832226D01*
X156326214Y-125688063D01*
X156156696Y-125574795D01*
X155968338Y-125496774D01*
X155768379Y-125457000D01*
X155564501Y-125457000D01*
X155364542Y-125496774D01*
X155180752Y-125572903D01*
X155054336Y-125488435D01*
X154865978Y-125410414D01*
X154666019Y-125370640D01*
X154462141Y-125370640D01*
X154262182Y-125410414D01*
X154073824Y-125488435D01*
X153904306Y-125601703D01*
X153845931Y-125660078D01*
X153718296Y-125574795D01*
X153529938Y-125496774D01*
X153329979Y-125457000D01*
X153126101Y-125457000D01*
X152926142Y-125496774D01*
X152737784Y-125574795D01*
X152568266Y-125688063D01*
X152424103Y-125832226D01*
X152310835Y-126001744D01*
X152232814Y-126190102D01*
X152193040Y-126390061D01*
X150157607Y-126390061D01*
X150173640Y-126309459D01*
X150173640Y-126105581D01*
X150133866Y-125905622D01*
X150055845Y-125717264D01*
X149942577Y-125547746D01*
X149798414Y-125403583D01*
X149628896Y-125290315D01*
X149440538Y-125212294D01*
X149240579Y-125172520D01*
X149036701Y-125172520D01*
X148836742Y-125212294D01*
X148648384Y-125290315D01*
X148478866Y-125403583D01*
X148334703Y-125547746D01*
X148221435Y-125717264D01*
X148143414Y-125905622D01*
X148103640Y-126105581D01*
X142832638Y-126105581D01*
X143503070Y-125435149D01*
X143536837Y-125407437D01*
X143647431Y-125272679D01*
X143686131Y-125200276D01*
X143729609Y-125118934D01*
X143780215Y-124952110D01*
X143782727Y-124926600D01*
X143793020Y-124822097D01*
X143793020Y-124822089D01*
X143797301Y-124778620D01*
X143793020Y-124735151D01*
X143793020Y-119770713D01*
X144037888Y-119819420D01*
X144313072Y-119819420D01*
X144582970Y-119765734D01*
X144837207Y-119660425D01*
X145066015Y-119507540D01*
X145260600Y-119312955D01*
X145413485Y-119084147D01*
X145445480Y-119006905D01*
X145477475Y-119084147D01*
X145630360Y-119312955D01*
X145824945Y-119507540D01*
X146053753Y-119660425D01*
X146307990Y-119765734D01*
X146577888Y-119819420D01*
X146853072Y-119819420D01*
X147122970Y-119765734D01*
X147377207Y-119660425D01*
X147606015Y-119507540D01*
X147800600Y-119312955D01*
X147953485Y-119084147D01*
X147985480Y-119006905D01*
X148017475Y-119084147D01*
X148170360Y-119312955D01*
X148364945Y-119507540D01*
X148593753Y-119660425D01*
X148847990Y-119765734D01*
X149117888Y-119819420D01*
X149393072Y-119819420D01*
X149662970Y-119765734D01*
X149917207Y-119660425D01*
X150146015Y-119507540D01*
X150340600Y-119312955D01*
X150493485Y-119084147D01*
X150525480Y-119006905D01*
X150557475Y-119084147D01*
X150710360Y-119312955D01*
X150904945Y-119507540D01*
X151133753Y-119660425D01*
X151387990Y-119765734D01*
X151657888Y-119819420D01*
X151933072Y-119819420D01*
X152202970Y-119765734D01*
X152457207Y-119660425D01*
X152686015Y-119507540D01*
X152880600Y-119312955D01*
X153033485Y-119084147D01*
X153065480Y-119006905D01*
X153097475Y-119084147D01*
X153250360Y-119312955D01*
X153444945Y-119507540D01*
X153673753Y-119660425D01*
X153927990Y-119765734D01*
X154197888Y-119819420D01*
X154473072Y-119819420D01*
X154742970Y-119765734D01*
X154997207Y-119660425D01*
X155226015Y-119507540D01*
X155420600Y-119312955D01*
X155573485Y-119084147D01*
X155605480Y-119006905D01*
X155637475Y-119084147D01*
X155790360Y-119312955D01*
X155984945Y-119507540D01*
X156213753Y-119660425D01*
X156467990Y-119765734D01*
X156737888Y-119819420D01*
X157013072Y-119819420D01*
X157282970Y-119765734D01*
X157537207Y-119660425D01*
X157766015Y-119507540D01*
X157960600Y-119312955D01*
X158113485Y-119084147D01*
X158145480Y-119006905D01*
X158177475Y-119084147D01*
X158330360Y-119312955D01*
X158524945Y-119507540D01*
X158753753Y-119660425D01*
X159007990Y-119765734D01*
X159277888Y-119819420D01*
X159553072Y-119819420D01*
X159822970Y-119765734D01*
X160077207Y-119660425D01*
X160306015Y-119507540D01*
X160500600Y-119312955D01*
X160653485Y-119084147D01*
X160758794Y-118829910D01*
X160812480Y-118560012D01*
X160812480Y-118284828D01*
X160758794Y-118014930D01*
X160653485Y-117760693D01*
X160500600Y-117531885D01*
X160306015Y-117337300D01*
X160077207Y-117184415D01*
X159999965Y-117152420D01*
X160077207Y-117120425D01*
X160306015Y-116967540D01*
X160500600Y-116772955D01*
X160653485Y-116544147D01*
X160758794Y-116289910D01*
X160812480Y-116020012D01*
X160812480Y-115744828D01*
X160758794Y-115474930D01*
X160653485Y-115220693D01*
X160500600Y-114991885D01*
X160306015Y-114797300D01*
X160077207Y-114644415D01*
X159999965Y-114612420D01*
X160077207Y-114580425D01*
X160306015Y-114427540D01*
X160500600Y-114232955D01*
X160653485Y-114004147D01*
X160758794Y-113749910D01*
X160812480Y-113480012D01*
X160812480Y-113204828D01*
X160758794Y-112934930D01*
X160653485Y-112680693D01*
X160500600Y-112451885D01*
X160306015Y-112257300D01*
X160077207Y-112104415D01*
X160005537Y-112074728D01*
X160018503Y-112070056D01*
X160134460Y-112008076D01*
X160201440Y-111767985D01*
X159415480Y-110982025D01*
X158629520Y-111767985D01*
X158696500Y-112008076D01*
X158832240Y-112071905D01*
X158753753Y-112104415D01*
X158524945Y-112257300D01*
X158330360Y-112451885D01*
X158177475Y-112680693D01*
X158072166Y-112934930D01*
X158018480Y-113204828D01*
X158018480Y-113480012D01*
X158072166Y-113749910D01*
X158177475Y-114004147D01*
X158330360Y-114232955D01*
X158524945Y-114427540D01*
X158753753Y-114580425D01*
X158830995Y-114612420D01*
X158753753Y-114644415D01*
X158524945Y-114797300D01*
X158330360Y-114991885D01*
X158177475Y-115220693D01*
X158072166Y-115474930D01*
X158018480Y-115744828D01*
X158018480Y-116020012D01*
X158072166Y-116289910D01*
X158177475Y-116544147D01*
X158330360Y-116772955D01*
X158524945Y-116967540D01*
X158753753Y-117120425D01*
X158830995Y-117152420D01*
X158753753Y-117184415D01*
X158524945Y-117337300D01*
X158330360Y-117531885D01*
X158177475Y-117760693D01*
X158145480Y-117837935D01*
X158113485Y-117760693D01*
X157960600Y-117531885D01*
X157766015Y-117337300D01*
X157760480Y-117333602D01*
X157760480Y-110874437D01*
X158013570Y-110874437D01*
X158054558Y-111146553D01*
X158147844Y-111405443D01*
X158209824Y-111521400D01*
X158449915Y-111588380D01*
X159235875Y-110802420D01*
X159595085Y-110802420D01*
X160381045Y-111588380D01*
X160621136Y-111521400D01*
X160738236Y-111272372D01*
X160804503Y-111005285D01*
X160817390Y-110730403D01*
X160776402Y-110458287D01*
X160683116Y-110199397D01*
X160621136Y-110083440D01*
X160381045Y-110016460D01*
X159595085Y-110802420D01*
X159235875Y-110802420D01*
X158449915Y-110016460D01*
X158209824Y-110083440D01*
X158092724Y-110332468D01*
X158026457Y-110599555D01*
X158013570Y-110874437D01*
X157760480Y-110874437D01*
X157760480Y-110812869D01*
X157764761Y-110769400D01*
X157760480Y-110725931D01*
X157760480Y-110725923D01*
X157747675Y-110595910D01*
X157705927Y-110458287D01*
X157697069Y-110429086D01*
X157614891Y-110275341D01*
X157532012Y-110174353D01*
X157532010Y-110174351D01*
X157504297Y-110140583D01*
X157470529Y-110112870D01*
X156330613Y-108972955D01*
X156302896Y-108939182D01*
X156168138Y-108828588D01*
X156014392Y-108746410D01*
X155847569Y-108695804D01*
X155732752Y-108684496D01*
X155738794Y-108669910D01*
X155792480Y-108400012D01*
X155792480Y-108124828D01*
X155750345Y-107912999D01*
X158060615Y-107912999D01*
X158018480Y-108124828D01*
X158018480Y-108400012D01*
X158072166Y-108669910D01*
X158177475Y-108924147D01*
X158330360Y-109152955D01*
X158524945Y-109347540D01*
X158753753Y-109500425D01*
X158825423Y-109530112D01*
X158812457Y-109534784D01*
X158696500Y-109596764D01*
X158629520Y-109836855D01*
X159415480Y-110622815D01*
X160201440Y-109836855D01*
X160134460Y-109596764D01*
X159998720Y-109532935D01*
X160077207Y-109500425D01*
X160306015Y-109347540D01*
X160500600Y-109152955D01*
X160653485Y-108924147D01*
X160679655Y-108860967D01*
X160812860Y-108994172D01*
X160998756Y-109118384D01*
X161205313Y-109203943D01*
X161424592Y-109247560D01*
X161648168Y-109247560D01*
X161867447Y-109203943D01*
X162074004Y-109118384D01*
X162101720Y-109099864D01*
X162101721Y-116918441D01*
X162097439Y-116961920D01*
X162114525Y-117135410D01*
X162165132Y-117302233D01*
X162247310Y-117455979D01*
X162330188Y-117556966D01*
X162330191Y-117556969D01*
X162357904Y-117590737D01*
X162391671Y-117618449D01*
X163380564Y-118607343D01*
X163408277Y-118641111D01*
X163442045Y-118668824D01*
X163442047Y-118668826D01*
X163513546Y-118727504D01*
X163543035Y-118751705D01*
X163696781Y-118833883D01*
X163863604Y-118884489D01*
X163993617Y-118897294D01*
X163993627Y-118897294D01*
X164037093Y-118901575D01*
X164080559Y-118897294D01*
X164628506Y-118897294D01*
X164809332Y-119018118D01*
X165015889Y-119103677D01*
X165235168Y-119147294D01*
X165458744Y-119147294D01*
X165678023Y-119103677D01*
X165884580Y-119018118D01*
X166070476Y-118893906D01*
X166228568Y-118735814D01*
X166352780Y-118549918D01*
X166438339Y-118343361D01*
X166481956Y-118124082D01*
X166481956Y-117900506D01*
X166438339Y-117681227D01*
X166352780Y-117474670D01*
X166228568Y-117288774D01*
X166199724Y-117259930D01*
X166256818Y-117174483D01*
X166380068Y-116876932D01*
X166434151Y-116605036D01*
X166461729Y-116602320D01*
X169804450Y-116602320D01*
X169985276Y-116723144D01*
X170191833Y-116808703D01*
X170411112Y-116852320D01*
X170634688Y-116852320D01*
X170853967Y-116808703D01*
X171060524Y-116723144D01*
X171246420Y-116598932D01*
X171404512Y-116440840D01*
X171528724Y-116254944D01*
X171614283Y-116048387D01*
X171657900Y-115829108D01*
X171657900Y-115605532D01*
X171614283Y-115386253D01*
X171528724Y-115179696D01*
X171404512Y-114993800D01*
X171246420Y-114835708D01*
X171060524Y-114711496D01*
X170853967Y-114625937D01*
X170634688Y-114582320D01*
X170411112Y-114582320D01*
X170191833Y-114625937D01*
X169985276Y-114711496D01*
X169804450Y-114832320D01*
X166784839Y-114832320D01*
X166312660Y-114360142D01*
X166312660Y-105867949D01*
X170669520Y-105867949D01*
X170669520Y-106140771D01*
X170722745Y-106408349D01*
X170827149Y-106660403D01*
X170978721Y-106887246D01*
X171171634Y-107080159D01*
X171398477Y-107231731D01*
X171501393Y-107274360D01*
X171398477Y-107316989D01*
X171171634Y-107468561D01*
X170978721Y-107661474D01*
X170827149Y-107888317D01*
X170722745Y-108140371D01*
X170669520Y-108407949D01*
X170669520Y-108680771D01*
X170722745Y-108948349D01*
X170827149Y-109200403D01*
X170978721Y-109427246D01*
X171171634Y-109620159D01*
X171398477Y-109771731D01*
X171650531Y-109876135D01*
X171918109Y-109929360D01*
X172190931Y-109929360D01*
X172458509Y-109876135D01*
X172710563Y-109771731D01*
X172937406Y-109620159D01*
X173130319Y-109427246D01*
X173281891Y-109200403D01*
X173386295Y-108948349D01*
X173439520Y-108680771D01*
X173439520Y-108407949D01*
X173386295Y-108140371D01*
X173281891Y-107888317D01*
X173130319Y-107661474D01*
X172937406Y-107468561D01*
X172710563Y-107316989D01*
X172607647Y-107274360D01*
X172710563Y-107231731D01*
X172937406Y-107080159D01*
X173130319Y-106887246D01*
X173281891Y-106660403D01*
X173386295Y-106408349D01*
X173439520Y-106140771D01*
X173439520Y-105867949D01*
X173386295Y-105600371D01*
X173281891Y-105348317D01*
X173130319Y-105121474D01*
X172937406Y-104928561D01*
X172710563Y-104776989D01*
X172611241Y-104735849D01*
X172653352Y-104720637D01*
X172766383Y-104660220D01*
X172831908Y-104421353D01*
X172054520Y-103643965D01*
X171277132Y-104421353D01*
X171342657Y-104660220D01*
X171500997Y-104734524D01*
X171398477Y-104776989D01*
X171171634Y-104928561D01*
X170978721Y-105121474D01*
X170827149Y-105348317D01*
X170722745Y-105600371D01*
X170669520Y-105867949D01*
X166312660Y-105867949D01*
X166312660Y-104043766D01*
X166316941Y-104000299D01*
X166312660Y-103956833D01*
X166312660Y-103956823D01*
X166299855Y-103826810D01*
X166249249Y-103659987D01*
X166183433Y-103536852D01*
X170664708Y-103536852D01*
X170705555Y-103806598D01*
X170798243Y-104063192D01*
X170858660Y-104176223D01*
X171097527Y-104241748D01*
X171874915Y-103464360D01*
X172234125Y-103464360D01*
X173011513Y-104241748D01*
X173250380Y-104176223D01*
X173366280Y-103929244D01*
X173431770Y-103664400D01*
X173444332Y-103391868D01*
X173403485Y-103122122D01*
X173310797Y-102865528D01*
X173250380Y-102752497D01*
X173011513Y-102686972D01*
X172234125Y-103464360D01*
X171874915Y-103464360D01*
X171097527Y-102686972D01*
X170858660Y-102752497D01*
X170742760Y-102999476D01*
X170677270Y-103264320D01*
X170664708Y-103536852D01*
X166183433Y-103536852D01*
X166167071Y-103506241D01*
X166056477Y-103371483D01*
X166022710Y-103343771D01*
X165186306Y-102507367D01*
X171277132Y-102507367D01*
X172054520Y-103284755D01*
X172831908Y-102507367D01*
X172766383Y-102268500D01*
X172519404Y-102152600D01*
X172254560Y-102087110D01*
X171982028Y-102074548D01*
X171712282Y-102115395D01*
X171455688Y-102208083D01*
X171342657Y-102268500D01*
X171277132Y-102507367D01*
X165186306Y-102507367D01*
X162883794Y-100204856D01*
X162856077Y-100171083D01*
X162721319Y-100060489D01*
X162567573Y-99978311D01*
X162400750Y-99927705D01*
X162270737Y-99914900D01*
X162270729Y-99914900D01*
X162227260Y-99910619D01*
X162183791Y-99914900D01*
X136423565Y-99914900D01*
X136380099Y-99910619D01*
X136336633Y-99914900D01*
X136336623Y-99914900D01*
X136206610Y-99927705D01*
X136039787Y-99978311D01*
X135886041Y-100060489D01*
X135886039Y-100060490D01*
X135886040Y-100060490D01*
X135785053Y-100143368D01*
X135785051Y-100143370D01*
X135751283Y-100171083D01*
X135723570Y-100204851D01*
X134143002Y-101785420D01*
X133877888Y-101785420D01*
X133607990Y-101839106D01*
X133353753Y-101944415D01*
X133124945Y-102097300D01*
X132930360Y-102291885D01*
X132777475Y-102520693D01*
X132745480Y-102597935D01*
X132713485Y-102520693D01*
X132560600Y-102291885D01*
X132366015Y-102097300D01*
X132137207Y-101944415D01*
X131882970Y-101839106D01*
X131613072Y-101785420D01*
X131337888Y-101785420D01*
X131067990Y-101839106D01*
X130813753Y-101944415D01*
X130584945Y-102097300D01*
X130390360Y-102291885D01*
X130237475Y-102520693D01*
X130207788Y-102592363D01*
X130203116Y-102579397D01*
X130141136Y-102463440D01*
X129901045Y-102396460D01*
X129115085Y-103182420D01*
X129129228Y-103196563D01*
X128949623Y-103376168D01*
X128935480Y-103362025D01*
X128921338Y-103376168D01*
X128741733Y-103196563D01*
X128755875Y-103182420D01*
X127969915Y-102396460D01*
X127729824Y-102463440D01*
X127665995Y-102599180D01*
X127633485Y-102520693D01*
X127480600Y-102291885D01*
X127405570Y-102216855D01*
X128149520Y-102216855D01*
X128935480Y-103002815D01*
X129721440Y-102216855D01*
X129654460Y-101976764D01*
X129405432Y-101859664D01*
X129138345Y-101793397D01*
X128863463Y-101780510D01*
X128591347Y-101821498D01*
X128332457Y-101914784D01*
X128216500Y-101976764D01*
X128149520Y-102216855D01*
X127405570Y-102216855D01*
X127286015Y-102097300D01*
X127057207Y-101944415D01*
X126802970Y-101839106D01*
X126533072Y-101785420D01*
X126257888Y-101785420D01*
X125987990Y-101839106D01*
X125733753Y-101944415D01*
X125504945Y-102097300D01*
X125310360Y-102291885D01*
X125157475Y-102520693D01*
X125052166Y-102774930D01*
X124998480Y-103044828D01*
X124998480Y-103320012D01*
X125052166Y-103589910D01*
X125057588Y-103602999D01*
X123742717Y-103602999D01*
X122247020Y-102107302D01*
X122204592Y-101894003D01*
X122119033Y-101687446D01*
X121994821Y-101501550D01*
X121836729Y-101343458D01*
X121650833Y-101219246D01*
X121444276Y-101133687D01*
X121224997Y-101090070D01*
X121001421Y-101090070D01*
X120782142Y-101133687D01*
X120575585Y-101219246D01*
X120389689Y-101343458D01*
X120231597Y-101501550D01*
X120107385Y-101687446D01*
X120021826Y-101894003D01*
X119978209Y-102113282D01*
X119978209Y-102336858D01*
X120021826Y-102556137D01*
X120107385Y-102762694D01*
X120231597Y-102948590D01*
X120389689Y-103106682D01*
X120575585Y-103230894D01*
X120782142Y-103316453D01*
X120995441Y-103358881D01*
X122719608Y-105083048D01*
X122747321Y-105116816D01*
X122781089Y-105144529D01*
X122781091Y-105144531D01*
X122845581Y-105197457D01*
X122882079Y-105227410D01*
X123035825Y-105309588D01*
X123202648Y-105360194D01*
X123332661Y-105372999D01*
X123332669Y-105372999D01*
X123376138Y-105377280D01*
X123419607Y-105372999D01*
X131805583Y-105372999D01*
X131746444Y-105515772D01*
X131706670Y-105715731D01*
X131706670Y-105919609D01*
X131746444Y-106119568D01*
X131756150Y-106142999D01*
X122443706Y-106142999D01*
X122406863Y-105957773D01*
X122321304Y-105751216D01*
X122197092Y-105565320D01*
X122039000Y-105407228D01*
X121853104Y-105283016D01*
X121646547Y-105197457D01*
X121427268Y-105153840D01*
X121203692Y-105153840D01*
X120984413Y-105197457D01*
X120777856Y-105283016D01*
X120591960Y-105407228D01*
X120433868Y-105565320D01*
X120407867Y-105604233D01*
X115926680Y-101123046D01*
X115926680Y-96720680D01*
X125802308Y-96720680D01*
X125814568Y-96845162D01*
X125850878Y-96964860D01*
X125909843Y-97075174D01*
X125989195Y-97171865D01*
X126085886Y-97251217D01*
X126196200Y-97310182D01*
X126315898Y-97346492D01*
X126440380Y-97358752D01*
X126592130Y-97355680D01*
X126750880Y-97196930D01*
X126750880Y-96372680D01*
X125964130Y-96372680D01*
X125805380Y-96531430D01*
X125802308Y-96720680D01*
X115926680Y-96720680D01*
X115926680Y-95770680D01*
X125802308Y-95770680D01*
X125805380Y-95959930D01*
X125964130Y-96118680D01*
X126750880Y-96118680D01*
X126750880Y-95294430D01*
X126592130Y-95135680D01*
X126440380Y-95132608D01*
X126315898Y-95144868D01*
X126196200Y-95181178D01*
X126085886Y-95240143D01*
X125989195Y-95319495D01*
X125909843Y-95416186D01*
X125850878Y-95526500D01*
X125814568Y-95646198D01*
X125802308Y-95770680D01*
X115926680Y-95770680D01*
X115926680Y-93121454D01*
X115958885Y-93073256D01*
X116036906Y-92884898D01*
X116076680Y-92684939D01*
X116076680Y-92481061D01*
X116036906Y-92281102D01*
X115978750Y-92140701D01*
X124949000Y-92140701D01*
X124949000Y-92344579D01*
X124988774Y-92544538D01*
X125066795Y-92732896D01*
X125180063Y-92902414D01*
X125324226Y-93046577D01*
X125493744Y-93159845D01*
X125682102Y-93237866D01*
X125882061Y-93277640D01*
X126085939Y-93277640D01*
X126285898Y-93237866D01*
X126474256Y-93159845D01*
X126643774Y-93046577D01*
X126787937Y-92902414D01*
X126901205Y-92732896D01*
X126979226Y-92544538D01*
X127019000Y-92344579D01*
X127019000Y-92140701D01*
X126979226Y-91940742D01*
X126901205Y-91752384D01*
X126787937Y-91582866D01*
X126643774Y-91438703D01*
X126474256Y-91325435D01*
X126285898Y-91247414D01*
X126085939Y-91207640D01*
X125882061Y-91207640D01*
X125682102Y-91247414D01*
X125493744Y-91325435D01*
X125324226Y-91438703D01*
X125180063Y-91582866D01*
X125066795Y-91752384D01*
X124988774Y-91940742D01*
X124949000Y-92140701D01*
X115978750Y-92140701D01*
X115958885Y-92092744D01*
X115845617Y-91923226D01*
X115701454Y-91779063D01*
X115531936Y-91665795D01*
X115343578Y-91587774D01*
X115143619Y-91548000D01*
X114939741Y-91548000D01*
X114739782Y-91587774D01*
X114551424Y-91665795D01*
X114381906Y-91779063D01*
X114237743Y-91923226D01*
X114150528Y-92053753D01*
X114065453Y-92053753D01*
X113865494Y-92093527D01*
X113677136Y-92171548D01*
X113507618Y-92284816D01*
X113363455Y-92428979D01*
X113250187Y-92598497D01*
X113172166Y-92786855D01*
X113132392Y-92986814D01*
X111253880Y-92986814D01*
X111253880Y-82229621D01*
X115192860Y-82229621D01*
X115192860Y-82433499D01*
X115232634Y-82633458D01*
X115310655Y-82821816D01*
X115423923Y-82991334D01*
X115568086Y-83135497D01*
X115737604Y-83248765D01*
X115925962Y-83326786D01*
X115982817Y-83338095D01*
X120943007Y-88298286D01*
X120928219Y-88372631D01*
X120928219Y-88596207D01*
X120971836Y-88815486D01*
X121057395Y-89022043D01*
X121181607Y-89207939D01*
X121339699Y-89366031D01*
X121525595Y-89490243D01*
X121732152Y-89575802D01*
X121951431Y-89619419D01*
X122175007Y-89619419D01*
X122394286Y-89575802D01*
X122600843Y-89490243D01*
X122786739Y-89366031D01*
X122944831Y-89207939D01*
X123069043Y-89022043D01*
X123154602Y-88815486D01*
X123198219Y-88596207D01*
X123198219Y-88372631D01*
X123154602Y-88153352D01*
X123069043Y-87946795D01*
X122944831Y-87760899D01*
X122786739Y-87602807D01*
X122694628Y-87541260D01*
X122692036Y-87538102D01*
X122658270Y-87510391D01*
X122345740Y-87197861D01*
X126671120Y-87197861D01*
X126671120Y-87401739D01*
X126710894Y-87601698D01*
X126788915Y-87790056D01*
X126902183Y-87959574D01*
X127046346Y-88103737D01*
X127215864Y-88217005D01*
X127404222Y-88295026D01*
X127604181Y-88334800D01*
X127808059Y-88334800D01*
X127997185Y-88297181D01*
X127998192Y-88307408D01*
X128046950Y-88468142D01*
X128126129Y-88616275D01*
X128232685Y-88746115D01*
X128362525Y-88852671D01*
X128510658Y-88931850D01*
X128671392Y-88980608D01*
X128838550Y-88997072D01*
X128918793Y-88997072D01*
X128937402Y-89015681D01*
X128925890Y-89037218D01*
X128877132Y-89197952D01*
X128860668Y-89365110D01*
X128860668Y-89877610D01*
X128877132Y-90044768D01*
X128925890Y-90205502D01*
X129000441Y-90344976D01*
X129000440Y-90763224D01*
X128954269Y-90819485D01*
X128875090Y-90967618D01*
X128826332Y-91128352D01*
X128825622Y-91135562D01*
X128766863Y-91329262D01*
X128744949Y-91551760D01*
X128766863Y-91774258D01*
X128825622Y-91967958D01*
X128826332Y-91975168D01*
X128875090Y-92135902D01*
X128954269Y-92284035D01*
X129060825Y-92413875D01*
X129117761Y-92460600D01*
X129117760Y-92983705D01*
X129104814Y-92999480D01*
X129078992Y-93020672D01*
X128937157Y-93193498D01*
X128831764Y-93390674D01*
X128766863Y-93604622D01*
X128744949Y-93827120D01*
X128766863Y-94049618D01*
X128831764Y-94263566D01*
X128877506Y-94349142D01*
X128879356Y-94367930D01*
X128898478Y-94464063D01*
X128934787Y-94583759D01*
X128972296Y-94674315D01*
X129031262Y-94784632D01*
X129085718Y-94866131D01*
X129165070Y-94962822D01*
X129234378Y-95032130D01*
X129331069Y-95111482D01*
X129412568Y-95165938D01*
X129522885Y-95224904D01*
X129613441Y-95262413D01*
X129733137Y-95298722D01*
X129829270Y-95317844D01*
X129953751Y-95330104D01*
X129978310Y-95330104D01*
X130002760Y-95332512D01*
X130406861Y-95332512D01*
X130368781Y-95424445D01*
X130329007Y-95624404D01*
X130329007Y-95691347D01*
X129687625Y-95691347D01*
X129646914Y-95650636D01*
X129619197Y-95616863D01*
X129484439Y-95506269D01*
X129330693Y-95424091D01*
X129304144Y-95416037D01*
X129277495Y-95383565D01*
X129147655Y-95277009D01*
X128999522Y-95197830D01*
X128838788Y-95149072D01*
X128671630Y-95132608D01*
X128234130Y-95132608D01*
X128066972Y-95149072D01*
X127906238Y-95197830D01*
X127758105Y-95277009D01*
X127736450Y-95294780D01*
X127669874Y-95240143D01*
X127559560Y-95181178D01*
X127439862Y-95144868D01*
X127315380Y-95132608D01*
X127163630Y-95135680D01*
X127004880Y-95294430D01*
X127004880Y-96118680D01*
X127024880Y-96118680D01*
X127024880Y-96372680D01*
X127004880Y-96372680D01*
X127004880Y-97196930D01*
X127163630Y-97355680D01*
X127315380Y-97358752D01*
X127439862Y-97346492D01*
X127559560Y-97310182D01*
X127669874Y-97251217D01*
X127736450Y-97196580D01*
X127758105Y-97214351D01*
X127906238Y-97293530D01*
X128066972Y-97342288D01*
X128234130Y-97358752D01*
X128671630Y-97358752D01*
X128838788Y-97342288D01*
X128862925Y-97334966D01*
X128980734Y-97397936D01*
X129147557Y-97448542D01*
X129277570Y-97461347D01*
X129277578Y-97461347D01*
X129321047Y-97465628D01*
X129364516Y-97461347D01*
X129562403Y-97461347D01*
X129554975Y-97472464D01*
X129476954Y-97660822D01*
X129437180Y-97860781D01*
X129437180Y-98064659D01*
X129476954Y-98264618D01*
X129554975Y-98452976D01*
X129668243Y-98622494D01*
X129812406Y-98766657D01*
X129981924Y-98879925D01*
X130170282Y-98957946D01*
X130370241Y-98997720D01*
X130574119Y-98997720D01*
X130708036Y-98971082D01*
X130188539Y-99490580D01*
X130126401Y-99490580D01*
X129926442Y-99530354D01*
X129738084Y-99608375D01*
X129568566Y-99721643D01*
X129424403Y-99865806D01*
X129311135Y-100035324D01*
X129233114Y-100223682D01*
X129193340Y-100423641D01*
X129193340Y-100627519D01*
X129233114Y-100827478D01*
X129311135Y-101015836D01*
X129424403Y-101185354D01*
X129568566Y-101329517D01*
X129738084Y-101442785D01*
X129926442Y-101520806D01*
X130126401Y-101560580D01*
X130330279Y-101560580D01*
X130530238Y-101520806D01*
X130718596Y-101442785D01*
X130888114Y-101329517D01*
X131032277Y-101185354D01*
X131145545Y-101015836D01*
X131223566Y-100827478D01*
X131263340Y-100627519D01*
X131263340Y-100565381D01*
X131396231Y-100432491D01*
X131385360Y-100487141D01*
X131385360Y-100691019D01*
X131425134Y-100890978D01*
X131503155Y-101079336D01*
X131616423Y-101248854D01*
X131760586Y-101393017D01*
X131930104Y-101506285D01*
X132118462Y-101584306D01*
X132318421Y-101624080D01*
X132522299Y-101624080D01*
X132722258Y-101584306D01*
X132910616Y-101506285D01*
X133080134Y-101393017D01*
X133224297Y-101248854D01*
X133337565Y-101079336D01*
X133415586Y-100890978D01*
X133455360Y-100691019D01*
X133455360Y-100487141D01*
X133415586Y-100287182D01*
X133337565Y-100098824D01*
X133224297Y-99929306D01*
X133080134Y-99785143D01*
X132910616Y-99671875D01*
X132722258Y-99593854D01*
X132522299Y-99554080D01*
X132318421Y-99554080D01*
X132263771Y-99564950D01*
X132877416Y-98951306D01*
X132884017Y-98956724D01*
X133081193Y-99062116D01*
X133295141Y-99127017D01*
X133461888Y-99143440D01*
X134711889Y-99143440D01*
X134767640Y-99148931D01*
X134823391Y-99143440D01*
X134823392Y-99143440D01*
X134990139Y-99127017D01*
X135204087Y-99062116D01*
X135401263Y-98956724D01*
X135574089Y-98814889D01*
X135609636Y-98771575D01*
X136140488Y-98240723D01*
X136183802Y-98205176D01*
X136325637Y-98032350D01*
X136431029Y-97835174D01*
X136495930Y-97621226D01*
X136512353Y-97454479D01*
X136512353Y-97454470D01*
X136517843Y-97398728D01*
X136512353Y-97342986D01*
X136512353Y-96921292D01*
X137046080Y-96921292D01*
X137046080Y-97144868D01*
X137089697Y-97364147D01*
X137175256Y-97570704D01*
X137299468Y-97756600D01*
X137457560Y-97914692D01*
X137643456Y-98038904D01*
X137850013Y-98124463D01*
X138069292Y-98168080D01*
X138292868Y-98168080D01*
X138512147Y-98124463D01*
X138718704Y-98038904D01*
X138904600Y-97914692D01*
X139062692Y-97756600D01*
X139186904Y-97570704D01*
X139272463Y-97364147D01*
X139316080Y-97144868D01*
X139316080Y-97051421D01*
X143074452Y-97051421D01*
X143074452Y-97255299D01*
X143114226Y-97455258D01*
X143192247Y-97643616D01*
X143305515Y-97813134D01*
X143449678Y-97957297D01*
X143619196Y-98070565D01*
X143807554Y-98148586D01*
X144007513Y-98188360D01*
X144020293Y-98188360D01*
X144049347Y-98334427D01*
X144134906Y-98540984D01*
X144259118Y-98726880D01*
X144417210Y-98884972D01*
X144603106Y-99009184D01*
X144809663Y-99094743D01*
X145028942Y-99138360D01*
X145252518Y-99138360D01*
X145471797Y-99094743D01*
X145678354Y-99009184D01*
X145864250Y-98884972D01*
X146022342Y-98726880D01*
X146146554Y-98540984D01*
X146232113Y-98334427D01*
X146275730Y-98115148D01*
X146275730Y-97891572D01*
X146232113Y-97672293D01*
X146146554Y-97465736D01*
X146022342Y-97279840D01*
X145864250Y-97121748D01*
X145678354Y-96997536D01*
X145471797Y-96911977D01*
X145252518Y-96868360D01*
X145108039Y-96868360D01*
X145104678Y-96851462D01*
X145026657Y-96663104D01*
X144913389Y-96493586D01*
X144769226Y-96349423D01*
X144599708Y-96236155D01*
X144411350Y-96158134D01*
X144211391Y-96118360D01*
X144007513Y-96118360D01*
X143807554Y-96158134D01*
X143619196Y-96236155D01*
X143449678Y-96349423D01*
X143305515Y-96493586D01*
X143192247Y-96663104D01*
X143114226Y-96851462D01*
X143074452Y-97051421D01*
X139316080Y-97051421D01*
X139316080Y-96921292D01*
X139272463Y-96702013D01*
X139186904Y-96495456D01*
X139062692Y-96309560D01*
X138904600Y-96151468D01*
X138718704Y-96027256D01*
X138512147Y-95941697D01*
X138292868Y-95898080D01*
X138069292Y-95898080D01*
X137850013Y-95941697D01*
X137643456Y-96027256D01*
X137457560Y-96151468D01*
X137299468Y-96309560D01*
X137175256Y-96495456D01*
X137089697Y-96702013D01*
X137046080Y-96921292D01*
X136512353Y-96921292D01*
X136512353Y-95711941D01*
X141382800Y-95711941D01*
X141382800Y-95915819D01*
X141422574Y-96115778D01*
X141500595Y-96304136D01*
X141613863Y-96473654D01*
X141758026Y-96617817D01*
X141927544Y-96731085D01*
X142115902Y-96809106D01*
X142315861Y-96848880D01*
X142519739Y-96848880D01*
X142719698Y-96809106D01*
X142908056Y-96731085D01*
X143077574Y-96617817D01*
X143221737Y-96473654D01*
X143335005Y-96304136D01*
X143413026Y-96115778D01*
X143452800Y-95915819D01*
X143452800Y-95711941D01*
X143413026Y-95511982D01*
X143335005Y-95323624D01*
X143221737Y-95154106D01*
X143077574Y-95009943D01*
X142908056Y-94896675D01*
X142719698Y-94818654D01*
X142519739Y-94778880D01*
X142315861Y-94778880D01*
X142115902Y-94818654D01*
X141927544Y-94896675D01*
X141758026Y-95009943D01*
X141613863Y-95154106D01*
X141500595Y-95323624D01*
X141422574Y-95511982D01*
X141382800Y-95711941D01*
X136512353Y-95711941D01*
X136512353Y-94880519D01*
X136647340Y-94745532D01*
X136826271Y-94477743D01*
X136948415Y-94182861D01*
X145502680Y-94182861D01*
X145502680Y-94386739D01*
X145542454Y-94586698D01*
X145620475Y-94775056D01*
X145733743Y-94944574D01*
X145877906Y-95088737D01*
X146047424Y-95202005D01*
X146235782Y-95280026D01*
X146435741Y-95319800D01*
X146639619Y-95319800D01*
X146839578Y-95280026D01*
X147027936Y-95202005D01*
X147197454Y-95088737D01*
X147341617Y-94944574D01*
X147454885Y-94775056D01*
X147532906Y-94586698D01*
X147572680Y-94386739D01*
X147572680Y-94182861D01*
X147532906Y-93982902D01*
X147454885Y-93794544D01*
X147341617Y-93625026D01*
X147197454Y-93480863D01*
X147027936Y-93367595D01*
X146839578Y-93289574D01*
X146639619Y-93249800D01*
X146435741Y-93249800D01*
X146235782Y-93289574D01*
X146047424Y-93367595D01*
X145877906Y-93480863D01*
X145733743Y-93625026D01*
X145620475Y-93794544D01*
X145542454Y-93982902D01*
X145502680Y-94182861D01*
X136948415Y-94182861D01*
X136949521Y-94180192D01*
X137012353Y-93864313D01*
X137012353Y-93542247D01*
X136949521Y-93226368D01*
X136826271Y-92928817D01*
X136647340Y-92661028D01*
X136419605Y-92433293D01*
X136151816Y-92254362D01*
X135854265Y-92131112D01*
X135538386Y-92068280D01*
X135216320Y-92068280D01*
X134900441Y-92131112D01*
X134602890Y-92254362D01*
X134335101Y-92433293D01*
X134107366Y-92661028D01*
X133928435Y-92928817D01*
X133805185Y-93226368D01*
X133742353Y-93542247D01*
X133742353Y-93864313D01*
X133805185Y-94180192D01*
X133928435Y-94477743D01*
X134107366Y-94745532D01*
X134242353Y-94880519D01*
X134242354Y-96085925D01*
X134218825Y-96057255D01*
X134122134Y-95977903D01*
X134011820Y-95918938D01*
X133892122Y-95882628D01*
X133820912Y-95875615D01*
X133691130Y-95836245D01*
X133561117Y-95823440D01*
X132399007Y-95823440D01*
X132399007Y-95624404D01*
X132359233Y-95424445D01*
X132281212Y-95236087D01*
X132187760Y-95096226D01*
X132187760Y-94905174D01*
X132219802Y-94866131D01*
X132274258Y-94784632D01*
X132333224Y-94674315D01*
X132370733Y-94583759D01*
X132407042Y-94464063D01*
X132426164Y-94367930D01*
X132438424Y-94243449D01*
X132438424Y-94218890D01*
X132440832Y-94194440D01*
X132440832Y-93694440D01*
X132438424Y-93669990D01*
X132438424Y-93645431D01*
X132426164Y-93520950D01*
X132407042Y-93424817D01*
X132370733Y-93305121D01*
X132333224Y-93214565D01*
X132274258Y-93104248D01*
X132219802Y-93022749D01*
X132140450Y-92926058D01*
X132071142Y-92856750D01*
X131974451Y-92777398D01*
X131892952Y-92722942D01*
X131782635Y-92663976D01*
X131778883Y-92662422D01*
X131897940Y-92664832D01*
X132022422Y-92652572D01*
X132142120Y-92616262D01*
X132252434Y-92557297D01*
X132349125Y-92477945D01*
X132428477Y-92381254D01*
X132487442Y-92270940D01*
X132523752Y-92151242D01*
X132536012Y-92026760D01*
X132532940Y-91837510D01*
X132374190Y-91678760D01*
X131587440Y-91678760D01*
X131587440Y-91698760D01*
X131333440Y-91698760D01*
X131333440Y-91678760D01*
X131313440Y-91678760D01*
X131313440Y-91424760D01*
X131333440Y-91424760D01*
X131333440Y-90623410D01*
X131356340Y-90600510D01*
X131587440Y-90600510D01*
X131587440Y-91424760D01*
X132374190Y-91424760D01*
X132532940Y-91266010D01*
X132536012Y-91076760D01*
X132523752Y-90952278D01*
X132511334Y-90911341D01*
X149485400Y-90911341D01*
X149485400Y-91115219D01*
X149525174Y-91315178D01*
X149603195Y-91503536D01*
X149716463Y-91673054D01*
X149860626Y-91817217D01*
X150030144Y-91930485D01*
X150218502Y-92008506D01*
X150418461Y-92048280D01*
X150622339Y-92048280D01*
X150822298Y-92008506D01*
X151010656Y-91930485D01*
X151180174Y-91817217D01*
X151206976Y-91790415D01*
X151249344Y-91818725D01*
X151437702Y-91896746D01*
X151637661Y-91936520D01*
X151841539Y-91936520D01*
X152041498Y-91896746D01*
X152229856Y-91818725D01*
X152399374Y-91705457D01*
X152543537Y-91561294D01*
X152656805Y-91391776D01*
X152734826Y-91203418D01*
X152774600Y-91003459D01*
X152774600Y-90799581D01*
X152734826Y-90599622D01*
X152656805Y-90411264D01*
X152543537Y-90241746D01*
X152399374Y-90097583D01*
X152229856Y-89984315D01*
X152041498Y-89906294D01*
X151841539Y-89866520D01*
X151637661Y-89866520D01*
X151437702Y-89906294D01*
X151249344Y-89984315D01*
X151079826Y-90097583D01*
X151053024Y-90124385D01*
X151010656Y-90096075D01*
X150822298Y-90018054D01*
X150622339Y-89978280D01*
X150418461Y-89978280D01*
X150218502Y-90018054D01*
X150030144Y-90096075D01*
X149860626Y-90209343D01*
X149716463Y-90353506D01*
X149603195Y-90523024D01*
X149525174Y-90711382D01*
X149485400Y-90911341D01*
X132511334Y-90911341D01*
X132487442Y-90832580D01*
X132428477Y-90722266D01*
X132349125Y-90625575D01*
X132326985Y-90607405D01*
X132399925Y-90547545D01*
X132479277Y-90450854D01*
X132538242Y-90340540D01*
X132574552Y-90220842D01*
X132586812Y-90096360D01*
X132583740Y-89907110D01*
X132424990Y-89748360D01*
X131638240Y-89748360D01*
X131638240Y-90549710D01*
X131587440Y-90600510D01*
X131356340Y-90600510D01*
X131384240Y-90572610D01*
X131384240Y-89748360D01*
X131364240Y-89748360D01*
X131364240Y-89494360D01*
X131384240Y-89494360D01*
X131384240Y-89474360D01*
X131638240Y-89474360D01*
X131638240Y-89494360D01*
X132424990Y-89494360D01*
X132583740Y-89335610D01*
X132586812Y-89146360D01*
X132574552Y-89021878D01*
X132538242Y-88902180D01*
X132479277Y-88791866D01*
X132399925Y-88695175D01*
X132303234Y-88615823D01*
X132192920Y-88556858D01*
X132073222Y-88520548D01*
X131948740Y-88508288D01*
X131796990Y-88511360D01*
X131638242Y-88670108D01*
X131638242Y-88511360D01*
X131619549Y-88511360D01*
X131630433Y-88490998D01*
X133380812Y-86740620D01*
X134764868Y-86740620D01*
X134820620Y-86746111D01*
X134876371Y-86740620D01*
X148288629Y-86740620D01*
X148344380Y-86746111D01*
X148400131Y-86740620D01*
X148400132Y-86740620D01*
X148566879Y-86724197D01*
X148780827Y-86659296D01*
X148978003Y-86553904D01*
X149150829Y-86412069D01*
X149186376Y-86368755D01*
X152147508Y-83407624D01*
X152147508Y-84968080D01*
X152159768Y-85092562D01*
X152196078Y-85212260D01*
X152255043Y-85322574D01*
X152334395Y-85419265D01*
X152431086Y-85498617D01*
X152541400Y-85557582D01*
X152661098Y-85593892D01*
X152785580Y-85606152D01*
X154055580Y-85606152D01*
X154180062Y-85593892D01*
X154299760Y-85557582D01*
X154410074Y-85498617D01*
X154506765Y-85419265D01*
X154586117Y-85322574D01*
X154645082Y-85212260D01*
X154681392Y-85092562D01*
X154693652Y-84968080D01*
X154693652Y-83563080D01*
X160555709Y-83563080D01*
X160935160Y-83942531D01*
X160935160Y-84133433D01*
X160997992Y-84449312D01*
X161071227Y-84626117D01*
X160975410Y-84690140D01*
X160302897Y-84690140D01*
X160259431Y-84685859D01*
X160215965Y-84690140D01*
X160215955Y-84690140D01*
X160085942Y-84702945D01*
X159919119Y-84753551D01*
X159765373Y-84835729D01*
X159765371Y-84835730D01*
X159765372Y-84835730D01*
X159664385Y-84918608D01*
X159664383Y-84918610D01*
X159630615Y-84946323D01*
X159602902Y-84980091D01*
X149121399Y-95461595D01*
X149098679Y-95484315D01*
X148885379Y-95526743D01*
X148678822Y-95612302D01*
X148492926Y-95736514D01*
X148334834Y-95894606D01*
X148210622Y-96080502D01*
X148125063Y-96287059D01*
X148081446Y-96506338D01*
X148081446Y-96729914D01*
X148125063Y-96949193D01*
X148210622Y-97155750D01*
X148334834Y-97341646D01*
X148492926Y-97499738D01*
X148678822Y-97623950D01*
X148885379Y-97709509D01*
X149104658Y-97753126D01*
X149328234Y-97753126D01*
X149547513Y-97709509D01*
X149754070Y-97623950D01*
X149939966Y-97499738D01*
X150098058Y-97341646D01*
X150222270Y-97155750D01*
X150307829Y-96949193D01*
X150350257Y-96735893D01*
X150372977Y-96713173D01*
X150774769Y-96311381D01*
X153361440Y-96311381D01*
X153361440Y-96515259D01*
X153401214Y-96715218D01*
X153479235Y-96903576D01*
X153592503Y-97073094D01*
X153736666Y-97217257D01*
X153906184Y-97330525D01*
X154094542Y-97408546D01*
X154294501Y-97448320D01*
X154498379Y-97448320D01*
X154698338Y-97408546D01*
X154886696Y-97330525D01*
X155056214Y-97217257D01*
X155200377Y-97073094D01*
X155313645Y-96903576D01*
X155391666Y-96715218D01*
X155431440Y-96515259D01*
X155431440Y-96311381D01*
X155391666Y-96111422D01*
X155321342Y-95941646D01*
X160129158Y-95941646D01*
X160129158Y-96263712D01*
X160191990Y-96579591D01*
X160315240Y-96877142D01*
X160494171Y-97144931D01*
X160721906Y-97372666D01*
X160989695Y-97551597D01*
X161287246Y-97674847D01*
X161603125Y-97737679D01*
X161925191Y-97737679D01*
X162241070Y-97674847D01*
X162538621Y-97551597D01*
X162805758Y-97373101D01*
X168586200Y-97373101D01*
X168586200Y-97576979D01*
X168625974Y-97776938D01*
X168703995Y-97965296D01*
X168817263Y-98134814D01*
X168961426Y-98278977D01*
X169130944Y-98392245D01*
X169319302Y-98470266D01*
X169519261Y-98510040D01*
X169723139Y-98510040D01*
X169923098Y-98470266D01*
X170111456Y-98392245D01*
X170280974Y-98278977D01*
X170425137Y-98134814D01*
X170538405Y-97965296D01*
X170616426Y-97776938D01*
X170656200Y-97576979D01*
X170656200Y-97373101D01*
X170616426Y-97173142D01*
X170538405Y-96984784D01*
X170425137Y-96815266D01*
X170280974Y-96671103D01*
X170111456Y-96557835D01*
X169923098Y-96479814D01*
X169723139Y-96440040D01*
X169519261Y-96440040D01*
X169319302Y-96479814D01*
X169130944Y-96557835D01*
X168961426Y-96671103D01*
X168817263Y-96815266D01*
X168703995Y-96984784D01*
X168625974Y-97173142D01*
X168586200Y-97373101D01*
X162805758Y-97373101D01*
X162806410Y-97372666D01*
X163034145Y-97144931D01*
X163213076Y-96877142D01*
X163336326Y-96579591D01*
X163399158Y-96263712D01*
X163399158Y-95941646D01*
X163336326Y-95625767D01*
X163216309Y-95336021D01*
X172248880Y-95336021D01*
X172248880Y-95539899D01*
X172288654Y-95739858D01*
X172366675Y-95928216D01*
X172479943Y-96097734D01*
X172624106Y-96241897D01*
X172793624Y-96355165D01*
X172981982Y-96433186D01*
X173181941Y-96472960D01*
X173385819Y-96472960D01*
X173585778Y-96433186D01*
X173774136Y-96355165D01*
X173943654Y-96241897D01*
X174087817Y-96097734D01*
X174201085Y-95928216D01*
X174279106Y-95739858D01*
X174318880Y-95539899D01*
X174318880Y-95336021D01*
X174279106Y-95136062D01*
X174201085Y-94947704D01*
X174087817Y-94778186D01*
X173943654Y-94634023D01*
X173774136Y-94520755D01*
X173585778Y-94442734D01*
X173385819Y-94402960D01*
X173181941Y-94402960D01*
X172981982Y-94442734D01*
X172793624Y-94520755D01*
X172624106Y-94634023D01*
X172479943Y-94778186D01*
X172366675Y-94947704D01*
X172288654Y-95136062D01*
X172248880Y-95336021D01*
X163216309Y-95336021D01*
X163213076Y-95328216D01*
X163034145Y-95060427D01*
X162806410Y-94832692D01*
X162538621Y-94653761D01*
X162241070Y-94530511D01*
X161925191Y-94467679D01*
X161603125Y-94467679D01*
X161287246Y-94530511D01*
X160989695Y-94653761D01*
X160721906Y-94832692D01*
X160494171Y-95060427D01*
X160315240Y-95328216D01*
X160191990Y-95625767D01*
X160129158Y-95941646D01*
X155321342Y-95941646D01*
X155313645Y-95923064D01*
X155200377Y-95753546D01*
X155056214Y-95609383D01*
X154886696Y-95496115D01*
X154698338Y-95418094D01*
X154498379Y-95378320D01*
X154294501Y-95378320D01*
X154094542Y-95418094D01*
X153906184Y-95496115D01*
X153736666Y-95609383D01*
X153592503Y-95753546D01*
X153479235Y-95923064D01*
X153401214Y-96111422D01*
X153361440Y-96311381D01*
X150774769Y-96311381D01*
X160626011Y-86460140D01*
X160975410Y-86460140D01*
X161156236Y-86580964D01*
X161362793Y-86666523D01*
X161582072Y-86710140D01*
X161805648Y-86710140D01*
X162024927Y-86666523D01*
X162231484Y-86580964D01*
X162417380Y-86456752D01*
X162575472Y-86298660D01*
X162699684Y-86112764D01*
X162785243Y-85906207D01*
X162828860Y-85686928D01*
X162828860Y-85587973D01*
X163047072Y-85544568D01*
X163344623Y-85421318D01*
X163612412Y-85242387D01*
X163840147Y-85014652D01*
X164019078Y-84746863D01*
X164142328Y-84449312D01*
X164205160Y-84133433D01*
X164205160Y-83811367D01*
X164142328Y-83495488D01*
X164019078Y-83197937D01*
X163840147Y-82930148D01*
X163612412Y-82702413D01*
X163344623Y-82523482D01*
X163047072Y-82400232D01*
X162731193Y-82337400D01*
X162540291Y-82337400D01*
X161867836Y-81664945D01*
X161832289Y-81621631D01*
X161659463Y-81479796D01*
X161462287Y-81374404D01*
X161248339Y-81309503D01*
X161081592Y-81293080D01*
X161081591Y-81293080D01*
X161025840Y-81287589D01*
X160970089Y-81293080D01*
X154693652Y-81293080D01*
X154693652Y-79888080D01*
X154681392Y-79763598D01*
X154645082Y-79643900D01*
X154586117Y-79533586D01*
X154506765Y-79436895D01*
X154410074Y-79357543D01*
X154299760Y-79298578D01*
X154180062Y-79262268D01*
X154055580Y-79250008D01*
X152785580Y-79250008D01*
X152661098Y-79262268D01*
X152541400Y-79298578D01*
X152431086Y-79357543D01*
X152334395Y-79436895D01*
X152255043Y-79533586D01*
X152196078Y-79643900D01*
X152159768Y-79763598D01*
X152147508Y-79888080D01*
X152147508Y-81065000D01*
X151805751Y-81065000D01*
X151750000Y-81059509D01*
X151694248Y-81065000D01*
X151527501Y-81081423D01*
X151313553Y-81146324D01*
X151116377Y-81251716D01*
X150943551Y-81393551D01*
X150908009Y-81436859D01*
X147874249Y-84470620D01*
X145047493Y-84470620D01*
X145053652Y-84408080D01*
X145050580Y-82713830D01*
X144891830Y-82555080D01*
X142562580Y-82555080D01*
X142562580Y-82575080D01*
X142308580Y-82575080D01*
X142308580Y-82555080D01*
X139979330Y-82555080D01*
X139820580Y-82713830D01*
X139817508Y-84408080D01*
X139823667Y-84470620D01*
X135290752Y-84470620D01*
X132723652Y-81903521D01*
X132723652Y-80448080D01*
X139817508Y-80448080D01*
X139820580Y-82142330D01*
X139979330Y-82301080D01*
X142308580Y-82301080D01*
X142308580Y-79971830D01*
X142562580Y-79971830D01*
X142562580Y-82301080D01*
X144891830Y-82301080D01*
X145050580Y-82142330D01*
X145053652Y-80448080D01*
X145041392Y-80323598D01*
X145005082Y-80203900D01*
X144946117Y-80093586D01*
X144866765Y-79996895D01*
X144770074Y-79917543D01*
X144659760Y-79858578D01*
X144540062Y-79822268D01*
X144415580Y-79810008D01*
X142721330Y-79813080D01*
X142562580Y-79971830D01*
X142308580Y-79971830D01*
X142149830Y-79813080D01*
X140455580Y-79810008D01*
X140331098Y-79822268D01*
X140211400Y-79858578D01*
X140101086Y-79917543D01*
X140004395Y-79996895D01*
X139925043Y-80093586D01*
X139866078Y-80203900D01*
X139829768Y-80323598D01*
X139817508Y-80448080D01*
X132723652Y-80448080D01*
X132723652Y-79888080D01*
X132711392Y-79763598D01*
X132675082Y-79643900D01*
X132616117Y-79533586D01*
X132536765Y-79436895D01*
X132440074Y-79357543D01*
X132329760Y-79298578D01*
X132210062Y-79262268D01*
X132085580Y-79250008D01*
X130815580Y-79250008D01*
X130691098Y-79262268D01*
X130571400Y-79298578D01*
X130461086Y-79357543D01*
X130364395Y-79436895D01*
X130285043Y-79533586D01*
X130226078Y-79643900D01*
X130189768Y-79763598D01*
X130177508Y-79888080D01*
X130177508Y-84968080D01*
X130189768Y-85092562D01*
X130226078Y-85212260D01*
X130285043Y-85322574D01*
X130364395Y-85419265D01*
X130461086Y-85498617D01*
X130571400Y-85557582D01*
X130691098Y-85593892D01*
X130815580Y-85606152D01*
X131305016Y-85606152D01*
X130062802Y-86848367D01*
X129937525Y-86915329D01*
X129844800Y-86991426D01*
X129752075Y-86915329D01*
X129603942Y-86836150D01*
X129443208Y-86787392D01*
X129276050Y-86770928D01*
X128838550Y-86770928D01*
X128671392Y-86787392D01*
X128619119Y-86803249D01*
X128510057Y-86640026D01*
X128365894Y-86495863D01*
X128196376Y-86382595D01*
X128008018Y-86304574D01*
X127808059Y-86264800D01*
X127604181Y-86264800D01*
X127404222Y-86304574D01*
X127215864Y-86382595D01*
X127046346Y-86495863D01*
X126902183Y-86640026D01*
X126788915Y-86809544D01*
X126710894Y-86997902D01*
X126671120Y-87197861D01*
X122345740Y-87197861D01*
X117234395Y-82086517D01*
X117223086Y-82029662D01*
X117145065Y-81841304D01*
X117031797Y-81671786D01*
X116887634Y-81527623D01*
X116718116Y-81414355D01*
X116529758Y-81336334D01*
X116329799Y-81296560D01*
X116125921Y-81296560D01*
X115925962Y-81336334D01*
X115737604Y-81414355D01*
X115568086Y-81527623D01*
X115423923Y-81671786D01*
X115310655Y-81841304D01*
X115232634Y-82029662D01*
X115192860Y-82229621D01*
X111253880Y-82229621D01*
X111253880Y-76722685D01*
X111603334Y-77072139D01*
X112115490Y-77414351D01*
X112684568Y-77650071D01*
X113288697Y-77770240D01*
X113904663Y-77770240D01*
X114508792Y-77650071D01*
X115077870Y-77414351D01*
X115590026Y-77072139D01*
X116025579Y-76636586D01*
X116367791Y-76124430D01*
X116507069Y-75788181D01*
X128949500Y-75788181D01*
X128949500Y-75992059D01*
X128989274Y-76192018D01*
X129067295Y-76380376D01*
X129180563Y-76549894D01*
X129324726Y-76694057D01*
X129494244Y-76807325D01*
X129682602Y-76885346D01*
X129882561Y-76925120D01*
X130086439Y-76925120D01*
X130286398Y-76885346D01*
X130474756Y-76807325D01*
X130644274Y-76694057D01*
X130788437Y-76549894D01*
X130901705Y-76380376D01*
X130979726Y-76192018D01*
X131019500Y-75992059D01*
X131019500Y-75788181D01*
X130979726Y-75588222D01*
X130901705Y-75399864D01*
X130788437Y-75230346D01*
X130644274Y-75086183D01*
X130474756Y-74972915D01*
X130286398Y-74894894D01*
X130086439Y-74855120D01*
X129882561Y-74855120D01*
X129682602Y-74894894D01*
X129494244Y-74972915D01*
X129324726Y-75086183D01*
X129180563Y-75230346D01*
X129067295Y-75399864D01*
X128989274Y-75588222D01*
X128949500Y-75788181D01*
X116507069Y-75788181D01*
X116603511Y-75555352D01*
X116723680Y-74951223D01*
X116723680Y-74335257D01*
X116603511Y-73731128D01*
X116367791Y-73162050D01*
X116025579Y-72649894D01*
X115703925Y-72328240D01*
X170472845Y-72328240D01*
X170151191Y-72649894D01*
M02*
