G04 #@! TF.GenerationSoftware,KiCad,Pcbnew,(5.1.4)-1*
G04 #@! TF.CreationDate,2020-01-30T13:19:47+01:00*
G04 #@! TF.ProjectId,teensy4_header_breakout,7465656e-7379-4345-9f68-65616465725f,rev?*
G04 #@! TF.SameCoordinates,Original*
G04 #@! TF.FileFunction,Soldermask,Bot*
G04 #@! TF.FilePolarity,Negative*
%FSLAX46Y46*%
G04 Gerber Fmt 4.6, Leading zero omitted, Abs format (unit mm)*
G04 Created by KiCad (PCBNEW (5.1.4)-1) date 2020-01-30 13:19:47*
%MOMM*%
%LPD*%
G04 APERTURE LIST*
%ADD10C,0.100000*%
G04 APERTURE END LIST*
D10*
G36*
X173309312Y-140239673D02*
G01*
X173764282Y-140428128D01*
X173764284Y-140428129D01*
X173970405Y-140565855D01*
X174173746Y-140701723D01*
X174521967Y-141049944D01*
X174650446Y-141242227D01*
X174766295Y-141415606D01*
X174795562Y-141459408D01*
X174984017Y-141914378D01*
X175080090Y-142397370D01*
X175080090Y-142889830D01*
X174984017Y-143372822D01*
X174833519Y-143736155D01*
X174795561Y-143827794D01*
X174521966Y-144237257D01*
X174173747Y-144585476D01*
X173764284Y-144859071D01*
X173764283Y-144859072D01*
X173764282Y-144859072D01*
X173309312Y-145047527D01*
X172826320Y-145143600D01*
X172333860Y-145143600D01*
X171850868Y-145047527D01*
X171395898Y-144859072D01*
X171395897Y-144859072D01*
X171395896Y-144859071D01*
X170986433Y-144585476D01*
X170638214Y-144237257D01*
X170364619Y-143827794D01*
X170326661Y-143736155D01*
X170176163Y-143372822D01*
X170080090Y-142889830D01*
X170080090Y-142397370D01*
X170176163Y-141914378D01*
X170364618Y-141459408D01*
X170393886Y-141415606D01*
X170509734Y-141242227D01*
X170638213Y-141049944D01*
X170986434Y-140701723D01*
X171189775Y-140565855D01*
X171395896Y-140428129D01*
X171395898Y-140428128D01*
X171850868Y-140239673D01*
X172333860Y-140143600D01*
X172826320Y-140143600D01*
X173309312Y-140239673D01*
X173309312Y-140239673D01*
G37*
G36*
X114325902Y-140239673D02*
G01*
X114780872Y-140428128D01*
X114780874Y-140428129D01*
X114986995Y-140565855D01*
X115190336Y-140701723D01*
X115538557Y-141049944D01*
X115667036Y-141242227D01*
X115782885Y-141415606D01*
X115812152Y-141459408D01*
X116000607Y-141914378D01*
X116096680Y-142397370D01*
X116096680Y-142889830D01*
X116000607Y-143372822D01*
X115850109Y-143736155D01*
X115812151Y-143827794D01*
X115538556Y-144237257D01*
X115190337Y-144585476D01*
X114780874Y-144859071D01*
X114780873Y-144859072D01*
X114780872Y-144859072D01*
X114325902Y-145047527D01*
X113842910Y-145143600D01*
X113350450Y-145143600D01*
X112867458Y-145047527D01*
X112412488Y-144859072D01*
X112412487Y-144859072D01*
X112412486Y-144859071D01*
X112003023Y-144585476D01*
X111654804Y-144237257D01*
X111381209Y-143827794D01*
X111343251Y-143736155D01*
X111192753Y-143372822D01*
X111096680Y-142889830D01*
X111096680Y-142397370D01*
X111192753Y-141914378D01*
X111381208Y-141459408D01*
X111410476Y-141415606D01*
X111526324Y-141242227D01*
X111654803Y-141049944D01*
X112003024Y-140701723D01*
X112206365Y-140565855D01*
X112412486Y-140428129D01*
X112412488Y-140428128D01*
X112867458Y-140239673D01*
X113350450Y-140143600D01*
X113842910Y-140143600D01*
X114325902Y-140239673D01*
X114325902Y-140239673D01*
G37*
G36*
X119546985Y-139639595D02*
G01*
X119694904Y-139700865D01*
X119694905Y-139700866D01*
X119828030Y-139789817D01*
X119941243Y-139903030D01*
X119941244Y-139903032D01*
X120030195Y-140036156D01*
X120091465Y-140184075D01*
X120122700Y-140341105D01*
X120122700Y-140501215D01*
X120091465Y-140658245D01*
X120030195Y-140806164D01*
X120030194Y-140806165D01*
X119941243Y-140939290D01*
X119828030Y-141052503D01*
X119761015Y-141097281D01*
X119694904Y-141141455D01*
X119546985Y-141202725D01*
X119442224Y-141223563D01*
X119418775Y-141230676D01*
X119397164Y-141242227D01*
X119378222Y-141257772D01*
X119362677Y-141276714D01*
X119351126Y-141298325D01*
X119344013Y-141321774D01*
X119341611Y-141346160D01*
X119344013Y-141370546D01*
X119351126Y-141393995D01*
X119362677Y-141415606D01*
X119378222Y-141434548D01*
X119397164Y-141450093D01*
X119418775Y-141461644D01*
X119442224Y-141468757D01*
X119546985Y-141489595D01*
X119694904Y-141550865D01*
X119694905Y-141550866D01*
X119828030Y-141639817D01*
X119941243Y-141753030D01*
X119941244Y-141753032D01*
X120030195Y-141886156D01*
X120091465Y-142034075D01*
X120122700Y-142191105D01*
X120122700Y-142351215D01*
X120091465Y-142508245D01*
X120030195Y-142656164D01*
X120030194Y-142656165D01*
X119941243Y-142789290D01*
X119828030Y-142902503D01*
X119761015Y-142947281D01*
X119694904Y-142991455D01*
X119546985Y-143052725D01*
X119442224Y-143073563D01*
X119418775Y-143080676D01*
X119397164Y-143092227D01*
X119378222Y-143107772D01*
X119362677Y-143126714D01*
X119351126Y-143148325D01*
X119344013Y-143171774D01*
X119341611Y-143196160D01*
X119344013Y-143220546D01*
X119351126Y-143243995D01*
X119362677Y-143265606D01*
X119378222Y-143284548D01*
X119397164Y-143300093D01*
X119418775Y-143311644D01*
X119442224Y-143318757D01*
X119546985Y-143339595D01*
X119694904Y-143400865D01*
X119694905Y-143400866D01*
X119828030Y-143489817D01*
X119941243Y-143603030D01*
X119941244Y-143603032D01*
X120030195Y-143736156D01*
X120091465Y-143884075D01*
X120122700Y-144041105D01*
X120122700Y-144201215D01*
X120091465Y-144358245D01*
X120030195Y-144506164D01*
X120030194Y-144506165D01*
X119941243Y-144639290D01*
X119828030Y-144752503D01*
X119761015Y-144797281D01*
X119694904Y-144841455D01*
X119546985Y-144902725D01*
X119389955Y-144933960D01*
X119229845Y-144933960D01*
X119072815Y-144902725D01*
X118924896Y-144841455D01*
X118858785Y-144797281D01*
X118791770Y-144752503D01*
X118678557Y-144639290D01*
X118589606Y-144506165D01*
X118589605Y-144506164D01*
X118528335Y-144358245D01*
X118497100Y-144201215D01*
X118497100Y-144041105D01*
X118528335Y-143884075D01*
X118589605Y-143736156D01*
X118678556Y-143603032D01*
X118678557Y-143603030D01*
X118791770Y-143489817D01*
X118924895Y-143400866D01*
X118924896Y-143400865D01*
X119072815Y-143339595D01*
X119177576Y-143318757D01*
X119201025Y-143311644D01*
X119222636Y-143300093D01*
X119241578Y-143284548D01*
X119257123Y-143265606D01*
X119268674Y-143243995D01*
X119275787Y-143220546D01*
X119278189Y-143196160D01*
X119275787Y-143171774D01*
X119268674Y-143148325D01*
X119257123Y-143126714D01*
X119241578Y-143107772D01*
X119222636Y-143092227D01*
X119201025Y-143080676D01*
X119177576Y-143073563D01*
X119072815Y-143052725D01*
X118924896Y-142991455D01*
X118858785Y-142947281D01*
X118791770Y-142902503D01*
X118678557Y-142789290D01*
X118589606Y-142656165D01*
X118589605Y-142656164D01*
X118528335Y-142508245D01*
X118497100Y-142351215D01*
X118497100Y-142191105D01*
X118528335Y-142034075D01*
X118589605Y-141886156D01*
X118678556Y-141753032D01*
X118678557Y-141753030D01*
X118791770Y-141639817D01*
X118924895Y-141550866D01*
X118924896Y-141550865D01*
X119072815Y-141489595D01*
X119177576Y-141468757D01*
X119201025Y-141461644D01*
X119222636Y-141450093D01*
X119241578Y-141434548D01*
X119257123Y-141415606D01*
X119268674Y-141393995D01*
X119275787Y-141370546D01*
X119278189Y-141346160D01*
X119275787Y-141321774D01*
X119268674Y-141298325D01*
X119257123Y-141276714D01*
X119241578Y-141257772D01*
X119222636Y-141242227D01*
X119201025Y-141230676D01*
X119177576Y-141223563D01*
X119072815Y-141202725D01*
X118924896Y-141141455D01*
X118858785Y-141097281D01*
X118791770Y-141052503D01*
X118678557Y-140939290D01*
X118589606Y-140806165D01*
X118589605Y-140806164D01*
X118528335Y-140658245D01*
X118497100Y-140501215D01*
X118497100Y-140341105D01*
X118528335Y-140184075D01*
X118589605Y-140036156D01*
X118678556Y-139903032D01*
X118678557Y-139903030D01*
X118791770Y-139789817D01*
X118924895Y-139700866D01*
X118924896Y-139700865D01*
X119072815Y-139639595D01*
X119229845Y-139608360D01*
X119389955Y-139608360D01*
X119546985Y-139639595D01*
X119546985Y-139639595D01*
G37*
G36*
X167046985Y-139639595D02*
G01*
X167194904Y-139700865D01*
X167194905Y-139700866D01*
X167328030Y-139789817D01*
X167441243Y-139903030D01*
X167441244Y-139903032D01*
X167530195Y-140036156D01*
X167591465Y-140184075D01*
X167622700Y-140341105D01*
X167622700Y-140501215D01*
X167591465Y-140658245D01*
X167530195Y-140806164D01*
X167530194Y-140806165D01*
X167441243Y-140939290D01*
X167328030Y-141052503D01*
X167261015Y-141097281D01*
X167194904Y-141141455D01*
X167046985Y-141202725D01*
X166942224Y-141223563D01*
X166918775Y-141230676D01*
X166897164Y-141242227D01*
X166878222Y-141257772D01*
X166862677Y-141276714D01*
X166851126Y-141298325D01*
X166844013Y-141321774D01*
X166841611Y-141346160D01*
X166844013Y-141370546D01*
X166851126Y-141393995D01*
X166862677Y-141415606D01*
X166878222Y-141434548D01*
X166897164Y-141450093D01*
X166918775Y-141461644D01*
X166942224Y-141468757D01*
X167046985Y-141489595D01*
X167194904Y-141550865D01*
X167194905Y-141550866D01*
X167328030Y-141639817D01*
X167441243Y-141753030D01*
X167441244Y-141753032D01*
X167530195Y-141886156D01*
X167591465Y-142034075D01*
X167622700Y-142191105D01*
X167622700Y-142351215D01*
X167591465Y-142508245D01*
X167530195Y-142656164D01*
X167530194Y-142656165D01*
X167441243Y-142789290D01*
X167328030Y-142902503D01*
X167261015Y-142947281D01*
X167194904Y-142991455D01*
X167046985Y-143052725D01*
X166942224Y-143073563D01*
X166918775Y-143080676D01*
X166897164Y-143092227D01*
X166878222Y-143107772D01*
X166862677Y-143126714D01*
X166851126Y-143148325D01*
X166844013Y-143171774D01*
X166841611Y-143196160D01*
X166844013Y-143220546D01*
X166851126Y-143243995D01*
X166862677Y-143265606D01*
X166878222Y-143284548D01*
X166897164Y-143300093D01*
X166918775Y-143311644D01*
X166942224Y-143318757D01*
X167046985Y-143339595D01*
X167194904Y-143400865D01*
X167194905Y-143400866D01*
X167328030Y-143489817D01*
X167441243Y-143603030D01*
X167441244Y-143603032D01*
X167530195Y-143736156D01*
X167591465Y-143884075D01*
X167622700Y-144041105D01*
X167622700Y-144201215D01*
X167591465Y-144358245D01*
X167530195Y-144506164D01*
X167530194Y-144506165D01*
X167441243Y-144639290D01*
X167328030Y-144752503D01*
X167261015Y-144797281D01*
X167194904Y-144841455D01*
X167046985Y-144902725D01*
X166889955Y-144933960D01*
X166729845Y-144933960D01*
X166572815Y-144902725D01*
X166424896Y-144841455D01*
X166358785Y-144797281D01*
X166291770Y-144752503D01*
X166178557Y-144639290D01*
X166089606Y-144506165D01*
X166089605Y-144506164D01*
X166028335Y-144358245D01*
X165997100Y-144201215D01*
X165997100Y-144041105D01*
X166028335Y-143884075D01*
X166089605Y-143736156D01*
X166178556Y-143603032D01*
X166178557Y-143603030D01*
X166291770Y-143489817D01*
X166424895Y-143400866D01*
X166424896Y-143400865D01*
X166572815Y-143339595D01*
X166677576Y-143318757D01*
X166701025Y-143311644D01*
X166722636Y-143300093D01*
X166741578Y-143284548D01*
X166757123Y-143265606D01*
X166768674Y-143243995D01*
X166775787Y-143220546D01*
X166778189Y-143196160D01*
X166775787Y-143171774D01*
X166768674Y-143148325D01*
X166757123Y-143126714D01*
X166741578Y-143107772D01*
X166722636Y-143092227D01*
X166701025Y-143080676D01*
X166677576Y-143073563D01*
X166572815Y-143052725D01*
X166424896Y-142991455D01*
X166358785Y-142947281D01*
X166291770Y-142902503D01*
X166178557Y-142789290D01*
X166089606Y-142656165D01*
X166089605Y-142656164D01*
X166028335Y-142508245D01*
X165997100Y-142351215D01*
X165997100Y-142191105D01*
X166028335Y-142034075D01*
X166089605Y-141886156D01*
X166178556Y-141753032D01*
X166178557Y-141753030D01*
X166291770Y-141639817D01*
X166424895Y-141550866D01*
X166424896Y-141550865D01*
X166572815Y-141489595D01*
X166677576Y-141468757D01*
X166701025Y-141461644D01*
X166722636Y-141450093D01*
X166741578Y-141434548D01*
X166757123Y-141415606D01*
X166768674Y-141393995D01*
X166775787Y-141370546D01*
X166778189Y-141346160D01*
X166775787Y-141321774D01*
X166768674Y-141298325D01*
X166757123Y-141276714D01*
X166741578Y-141257772D01*
X166722636Y-141242227D01*
X166701025Y-141230676D01*
X166677576Y-141223563D01*
X166572815Y-141202725D01*
X166424896Y-141141455D01*
X166358785Y-141097281D01*
X166291770Y-141052503D01*
X166178557Y-140939290D01*
X166089606Y-140806165D01*
X166089605Y-140806164D01*
X166028335Y-140658245D01*
X165997100Y-140501215D01*
X165997100Y-140341105D01*
X166028335Y-140184075D01*
X166089605Y-140036156D01*
X166178556Y-139903032D01*
X166178557Y-139903030D01*
X166291770Y-139789817D01*
X166424895Y-139700866D01*
X166424896Y-139700865D01*
X166572815Y-139639595D01*
X166729845Y-139608360D01*
X166889955Y-139608360D01*
X167046985Y-139639595D01*
X167046985Y-139639595D01*
G37*
G36*
X157353478Y-117467518D02*
G01*
X157526513Y-117539192D01*
X157682240Y-117643245D01*
X157814675Y-117775680D01*
X157918728Y-117931407D01*
X157990402Y-118104442D01*
X158026940Y-118288134D01*
X158026940Y-118475426D01*
X157990402Y-118659118D01*
X157918728Y-118832153D01*
X157814675Y-118987880D01*
X157682240Y-119120315D01*
X157526513Y-119224368D01*
X157353478Y-119296042D01*
X157169786Y-119332580D01*
X156982494Y-119332580D01*
X156798802Y-119296042D01*
X156625767Y-119224368D01*
X156470040Y-119120315D01*
X156337605Y-118987880D01*
X156233552Y-118832153D01*
X156161878Y-118659118D01*
X156125340Y-118475426D01*
X156125340Y-118288134D01*
X156161878Y-118104442D01*
X156233552Y-117931407D01*
X156337605Y-117775680D01*
X156470040Y-117643245D01*
X156625767Y-117539192D01*
X156798802Y-117467518D01*
X156982494Y-117430980D01*
X157169786Y-117430980D01*
X157353478Y-117467518D01*
X157353478Y-117467518D01*
G37*
G36*
X159893478Y-117467518D02*
G01*
X160066513Y-117539192D01*
X160222240Y-117643245D01*
X160354675Y-117775680D01*
X160458728Y-117931407D01*
X160530402Y-118104442D01*
X160566940Y-118288134D01*
X160566940Y-118475426D01*
X160530402Y-118659118D01*
X160458728Y-118832153D01*
X160354675Y-118987880D01*
X160222240Y-119120315D01*
X160066513Y-119224368D01*
X159893478Y-119296042D01*
X159709786Y-119332580D01*
X159522494Y-119332580D01*
X159338802Y-119296042D01*
X159165767Y-119224368D01*
X159010040Y-119120315D01*
X158877605Y-118987880D01*
X158773552Y-118832153D01*
X158701878Y-118659118D01*
X158665340Y-118475426D01*
X158665340Y-118288134D01*
X158701878Y-118104442D01*
X158773552Y-117931407D01*
X158877605Y-117775680D01*
X159010040Y-117643245D01*
X159165767Y-117539192D01*
X159338802Y-117467518D01*
X159522494Y-117430980D01*
X159709786Y-117430980D01*
X159893478Y-117467518D01*
X159893478Y-117467518D01*
G37*
G36*
X126873478Y-117467518D02*
G01*
X127046513Y-117539192D01*
X127202240Y-117643245D01*
X127334675Y-117775680D01*
X127438728Y-117931407D01*
X127510402Y-118104442D01*
X127546940Y-118288134D01*
X127546940Y-118475426D01*
X127510402Y-118659118D01*
X127438728Y-118832153D01*
X127334675Y-118987880D01*
X127202240Y-119120315D01*
X127046513Y-119224368D01*
X126873478Y-119296042D01*
X126689786Y-119332580D01*
X126502494Y-119332580D01*
X126318802Y-119296042D01*
X126145767Y-119224368D01*
X125990040Y-119120315D01*
X125857605Y-118987880D01*
X125753552Y-118832153D01*
X125681878Y-118659118D01*
X125645340Y-118475426D01*
X125645340Y-118288134D01*
X125681878Y-118104442D01*
X125753552Y-117931407D01*
X125857605Y-117775680D01*
X125990040Y-117643245D01*
X126145767Y-117539192D01*
X126318802Y-117467518D01*
X126502494Y-117430980D01*
X126689786Y-117430980D01*
X126873478Y-117467518D01*
X126873478Y-117467518D01*
G37*
G36*
X134493478Y-117467518D02*
G01*
X134666513Y-117539192D01*
X134822240Y-117643245D01*
X134954675Y-117775680D01*
X135058728Y-117931407D01*
X135130402Y-118104442D01*
X135166940Y-118288134D01*
X135166940Y-118475426D01*
X135130402Y-118659118D01*
X135058728Y-118832153D01*
X134954675Y-118987880D01*
X134822240Y-119120315D01*
X134666513Y-119224368D01*
X134493478Y-119296042D01*
X134309786Y-119332580D01*
X134122494Y-119332580D01*
X133938802Y-119296042D01*
X133765767Y-119224368D01*
X133610040Y-119120315D01*
X133477605Y-118987880D01*
X133373552Y-118832153D01*
X133301878Y-118659118D01*
X133265340Y-118475426D01*
X133265340Y-118288134D01*
X133301878Y-118104442D01*
X133373552Y-117931407D01*
X133477605Y-117775680D01*
X133610040Y-117643245D01*
X133765767Y-117539192D01*
X133938802Y-117467518D01*
X134122494Y-117430980D01*
X134309786Y-117430980D01*
X134493478Y-117467518D01*
X134493478Y-117467518D01*
G37*
G36*
X131953478Y-117467518D02*
G01*
X132126513Y-117539192D01*
X132282240Y-117643245D01*
X132414675Y-117775680D01*
X132518728Y-117931407D01*
X132590402Y-118104442D01*
X132626940Y-118288134D01*
X132626940Y-118475426D01*
X132590402Y-118659118D01*
X132518728Y-118832153D01*
X132414675Y-118987880D01*
X132282240Y-119120315D01*
X132126513Y-119224368D01*
X131953478Y-119296042D01*
X131769786Y-119332580D01*
X131582494Y-119332580D01*
X131398802Y-119296042D01*
X131225767Y-119224368D01*
X131070040Y-119120315D01*
X130937605Y-118987880D01*
X130833552Y-118832153D01*
X130761878Y-118659118D01*
X130725340Y-118475426D01*
X130725340Y-118288134D01*
X130761878Y-118104442D01*
X130833552Y-117931407D01*
X130937605Y-117775680D01*
X131070040Y-117643245D01*
X131225767Y-117539192D01*
X131398802Y-117467518D01*
X131582494Y-117430980D01*
X131769786Y-117430980D01*
X131953478Y-117467518D01*
X131953478Y-117467518D01*
G37*
G36*
X129413478Y-117467518D02*
G01*
X129586513Y-117539192D01*
X129742240Y-117643245D01*
X129874675Y-117775680D01*
X129978728Y-117931407D01*
X130050402Y-118104442D01*
X130086940Y-118288134D01*
X130086940Y-118475426D01*
X130050402Y-118659118D01*
X129978728Y-118832153D01*
X129874675Y-118987880D01*
X129742240Y-119120315D01*
X129586513Y-119224368D01*
X129413478Y-119296042D01*
X129229786Y-119332580D01*
X129042494Y-119332580D01*
X128858802Y-119296042D01*
X128685767Y-119224368D01*
X128530040Y-119120315D01*
X128397605Y-118987880D01*
X128293552Y-118832153D01*
X128221878Y-118659118D01*
X128185340Y-118475426D01*
X128185340Y-118288134D01*
X128221878Y-118104442D01*
X128293552Y-117931407D01*
X128397605Y-117775680D01*
X128530040Y-117643245D01*
X128685767Y-117539192D01*
X128858802Y-117467518D01*
X129042494Y-117430980D01*
X129229786Y-117430980D01*
X129413478Y-117467518D01*
X129413478Y-117467518D01*
G37*
G36*
X139573478Y-117467518D02*
G01*
X139746513Y-117539192D01*
X139902240Y-117643245D01*
X140034675Y-117775680D01*
X140138728Y-117931407D01*
X140210402Y-118104442D01*
X140246940Y-118288134D01*
X140246940Y-118475426D01*
X140210402Y-118659118D01*
X140138728Y-118832153D01*
X140034675Y-118987880D01*
X139902240Y-119120315D01*
X139746513Y-119224368D01*
X139573478Y-119296042D01*
X139389786Y-119332580D01*
X139202494Y-119332580D01*
X139018802Y-119296042D01*
X138845767Y-119224368D01*
X138690040Y-119120315D01*
X138557605Y-118987880D01*
X138453552Y-118832153D01*
X138381878Y-118659118D01*
X138345340Y-118475426D01*
X138345340Y-118288134D01*
X138381878Y-118104442D01*
X138453552Y-117931407D01*
X138557605Y-117775680D01*
X138690040Y-117643245D01*
X138845767Y-117539192D01*
X139018802Y-117467518D01*
X139202494Y-117430980D01*
X139389786Y-117430980D01*
X139573478Y-117467518D01*
X139573478Y-117467518D01*
G37*
G36*
X154813478Y-117467518D02*
G01*
X154986513Y-117539192D01*
X155142240Y-117643245D01*
X155274675Y-117775680D01*
X155378728Y-117931407D01*
X155450402Y-118104442D01*
X155486940Y-118288134D01*
X155486940Y-118475426D01*
X155450402Y-118659118D01*
X155378728Y-118832153D01*
X155274675Y-118987880D01*
X155142240Y-119120315D01*
X154986513Y-119224368D01*
X154813478Y-119296042D01*
X154629786Y-119332580D01*
X154442494Y-119332580D01*
X154258802Y-119296042D01*
X154085767Y-119224368D01*
X153930040Y-119120315D01*
X153797605Y-118987880D01*
X153693552Y-118832153D01*
X153621878Y-118659118D01*
X153585340Y-118475426D01*
X153585340Y-118288134D01*
X153621878Y-118104442D01*
X153693552Y-117931407D01*
X153797605Y-117775680D01*
X153930040Y-117643245D01*
X154085767Y-117539192D01*
X154258802Y-117467518D01*
X154442494Y-117430980D01*
X154629786Y-117430980D01*
X154813478Y-117467518D01*
X154813478Y-117467518D01*
G37*
G36*
X152273478Y-117467518D02*
G01*
X152446513Y-117539192D01*
X152602240Y-117643245D01*
X152734675Y-117775680D01*
X152838728Y-117931407D01*
X152910402Y-118104442D01*
X152946940Y-118288134D01*
X152946940Y-118475426D01*
X152910402Y-118659118D01*
X152838728Y-118832153D01*
X152734675Y-118987880D01*
X152602240Y-119120315D01*
X152446513Y-119224368D01*
X152273478Y-119296042D01*
X152089786Y-119332580D01*
X151902494Y-119332580D01*
X151718802Y-119296042D01*
X151545767Y-119224368D01*
X151390040Y-119120315D01*
X151257605Y-118987880D01*
X151153552Y-118832153D01*
X151081878Y-118659118D01*
X151045340Y-118475426D01*
X151045340Y-118288134D01*
X151081878Y-118104442D01*
X151153552Y-117931407D01*
X151257605Y-117775680D01*
X151390040Y-117643245D01*
X151545767Y-117539192D01*
X151718802Y-117467518D01*
X151902494Y-117430980D01*
X152089786Y-117430980D01*
X152273478Y-117467518D01*
X152273478Y-117467518D01*
G37*
G36*
X149733478Y-117467518D02*
G01*
X149906513Y-117539192D01*
X150062240Y-117643245D01*
X150194675Y-117775680D01*
X150298728Y-117931407D01*
X150370402Y-118104442D01*
X150406940Y-118288134D01*
X150406940Y-118475426D01*
X150370402Y-118659118D01*
X150298728Y-118832153D01*
X150194675Y-118987880D01*
X150062240Y-119120315D01*
X149906513Y-119224368D01*
X149733478Y-119296042D01*
X149549786Y-119332580D01*
X149362494Y-119332580D01*
X149178802Y-119296042D01*
X149005767Y-119224368D01*
X148850040Y-119120315D01*
X148717605Y-118987880D01*
X148613552Y-118832153D01*
X148541878Y-118659118D01*
X148505340Y-118475426D01*
X148505340Y-118288134D01*
X148541878Y-118104442D01*
X148613552Y-117931407D01*
X148717605Y-117775680D01*
X148850040Y-117643245D01*
X149005767Y-117539192D01*
X149178802Y-117467518D01*
X149362494Y-117430980D01*
X149549786Y-117430980D01*
X149733478Y-117467518D01*
X149733478Y-117467518D01*
G37*
G36*
X147193478Y-117467518D02*
G01*
X147366513Y-117539192D01*
X147522240Y-117643245D01*
X147654675Y-117775680D01*
X147758728Y-117931407D01*
X147830402Y-118104442D01*
X147866940Y-118288134D01*
X147866940Y-118475426D01*
X147830402Y-118659118D01*
X147758728Y-118832153D01*
X147654675Y-118987880D01*
X147522240Y-119120315D01*
X147366513Y-119224368D01*
X147193478Y-119296042D01*
X147009786Y-119332580D01*
X146822494Y-119332580D01*
X146638802Y-119296042D01*
X146465767Y-119224368D01*
X146310040Y-119120315D01*
X146177605Y-118987880D01*
X146073552Y-118832153D01*
X146001878Y-118659118D01*
X145965340Y-118475426D01*
X145965340Y-118288134D01*
X146001878Y-118104442D01*
X146073552Y-117931407D01*
X146177605Y-117775680D01*
X146310040Y-117643245D01*
X146465767Y-117539192D01*
X146638802Y-117467518D01*
X146822494Y-117430980D01*
X147009786Y-117430980D01*
X147193478Y-117467518D01*
X147193478Y-117467518D01*
G37*
G36*
X144653478Y-117467518D02*
G01*
X144826513Y-117539192D01*
X144982240Y-117643245D01*
X145114675Y-117775680D01*
X145218728Y-117931407D01*
X145290402Y-118104442D01*
X145326940Y-118288134D01*
X145326940Y-118475426D01*
X145290402Y-118659118D01*
X145218728Y-118832153D01*
X145114675Y-118987880D01*
X144982240Y-119120315D01*
X144826513Y-119224368D01*
X144653478Y-119296042D01*
X144469786Y-119332580D01*
X144282494Y-119332580D01*
X144098802Y-119296042D01*
X143925767Y-119224368D01*
X143770040Y-119120315D01*
X143637605Y-118987880D01*
X143533552Y-118832153D01*
X143461878Y-118659118D01*
X143425340Y-118475426D01*
X143425340Y-118288134D01*
X143461878Y-118104442D01*
X143533552Y-117931407D01*
X143637605Y-117775680D01*
X143770040Y-117643245D01*
X143925767Y-117539192D01*
X144098802Y-117467518D01*
X144282494Y-117430980D01*
X144469786Y-117430980D01*
X144653478Y-117467518D01*
X144653478Y-117467518D01*
G37*
G36*
X142113478Y-117467518D02*
G01*
X142286513Y-117539192D01*
X142442240Y-117643245D01*
X142574675Y-117775680D01*
X142678728Y-117931407D01*
X142750402Y-118104442D01*
X142786940Y-118288134D01*
X142786940Y-118475426D01*
X142750402Y-118659118D01*
X142678728Y-118832153D01*
X142574675Y-118987880D01*
X142442240Y-119120315D01*
X142286513Y-119224368D01*
X142113478Y-119296042D01*
X141929786Y-119332580D01*
X141742494Y-119332580D01*
X141558802Y-119296042D01*
X141385767Y-119224368D01*
X141230040Y-119120315D01*
X141097605Y-118987880D01*
X140993552Y-118832153D01*
X140921878Y-118659118D01*
X140885340Y-118475426D01*
X140885340Y-118288134D01*
X140921878Y-118104442D01*
X140993552Y-117931407D01*
X141097605Y-117775680D01*
X141230040Y-117643245D01*
X141385767Y-117539192D01*
X141558802Y-117467518D01*
X141742494Y-117430980D01*
X141929786Y-117430980D01*
X142113478Y-117467518D01*
X142113478Y-117467518D01*
G37*
G36*
X137033478Y-117467518D02*
G01*
X137206513Y-117539192D01*
X137362240Y-117643245D01*
X137494675Y-117775680D01*
X137598728Y-117931407D01*
X137670402Y-118104442D01*
X137706940Y-118288134D01*
X137706940Y-118475426D01*
X137670402Y-118659118D01*
X137598728Y-118832153D01*
X137494675Y-118987880D01*
X137362240Y-119120315D01*
X137206513Y-119224368D01*
X137033478Y-119296042D01*
X136849786Y-119332580D01*
X136662494Y-119332580D01*
X136478802Y-119296042D01*
X136305767Y-119224368D01*
X136150040Y-119120315D01*
X136017605Y-118987880D01*
X135913552Y-118832153D01*
X135841878Y-118659118D01*
X135805340Y-118475426D01*
X135805340Y-118288134D01*
X135841878Y-118104442D01*
X135913552Y-117931407D01*
X136017605Y-117775680D01*
X136150040Y-117643245D01*
X136305767Y-117539192D01*
X136478802Y-117467518D01*
X136662494Y-117430980D01*
X136849786Y-117430980D01*
X137033478Y-117467518D01*
X137033478Y-117467518D01*
G37*
G36*
X159893478Y-114927518D02*
G01*
X160066513Y-114999192D01*
X160222240Y-115103245D01*
X160354675Y-115235680D01*
X160458728Y-115391407D01*
X160530402Y-115564442D01*
X160566940Y-115748134D01*
X160566940Y-115935426D01*
X160530402Y-116119118D01*
X160458728Y-116292153D01*
X160354675Y-116447880D01*
X160222240Y-116580315D01*
X160066513Y-116684368D01*
X159893478Y-116756042D01*
X159709786Y-116792580D01*
X159522494Y-116792580D01*
X159338802Y-116756042D01*
X159165767Y-116684368D01*
X159010040Y-116580315D01*
X158877605Y-116447880D01*
X158773552Y-116292153D01*
X158701878Y-116119118D01*
X158665340Y-115935426D01*
X158665340Y-115748134D01*
X158701878Y-115564442D01*
X158773552Y-115391407D01*
X158877605Y-115235680D01*
X159010040Y-115103245D01*
X159165767Y-114999192D01*
X159338802Y-114927518D01*
X159522494Y-114890980D01*
X159709786Y-114890980D01*
X159893478Y-114927518D01*
X159893478Y-114927518D01*
G37*
G36*
X152273478Y-114927518D02*
G01*
X152446513Y-114999192D01*
X152602240Y-115103245D01*
X152734675Y-115235680D01*
X152838728Y-115391407D01*
X152910402Y-115564442D01*
X152946940Y-115748134D01*
X152946940Y-115935426D01*
X152910402Y-116119118D01*
X152838728Y-116292153D01*
X152734675Y-116447880D01*
X152602240Y-116580315D01*
X152446513Y-116684368D01*
X152273478Y-116756042D01*
X152089786Y-116792580D01*
X151902494Y-116792580D01*
X151718802Y-116756042D01*
X151545767Y-116684368D01*
X151390040Y-116580315D01*
X151257605Y-116447880D01*
X151153552Y-116292153D01*
X151081878Y-116119118D01*
X151045340Y-115935426D01*
X151045340Y-115748134D01*
X151081878Y-115564442D01*
X151153552Y-115391407D01*
X151257605Y-115235680D01*
X151390040Y-115103245D01*
X151545767Y-114999192D01*
X151718802Y-114927518D01*
X151902494Y-114890980D01*
X152089786Y-114890980D01*
X152273478Y-114927518D01*
X152273478Y-114927518D01*
G37*
G36*
X154873478Y-114927518D02*
G01*
X155046513Y-114999192D01*
X155202240Y-115103245D01*
X155334675Y-115235680D01*
X155438728Y-115391407D01*
X155510402Y-115564442D01*
X155546940Y-115748134D01*
X155546940Y-115935426D01*
X155510402Y-116119118D01*
X155438728Y-116292153D01*
X155334675Y-116447880D01*
X155202240Y-116580315D01*
X155046513Y-116684368D01*
X154873478Y-116756042D01*
X154689786Y-116792580D01*
X154502494Y-116792580D01*
X154318802Y-116756042D01*
X154145767Y-116684368D01*
X153990040Y-116580315D01*
X153857605Y-116447880D01*
X153753552Y-116292153D01*
X153681878Y-116119118D01*
X153645340Y-115935426D01*
X153645340Y-115748134D01*
X153681878Y-115564442D01*
X153753552Y-115391407D01*
X153857605Y-115235680D01*
X153990040Y-115103245D01*
X154145767Y-114999192D01*
X154318802Y-114927518D01*
X154502494Y-114890980D01*
X154689786Y-114890980D01*
X154873478Y-114927518D01*
X154873478Y-114927518D01*
G37*
G36*
X152273478Y-112387518D02*
G01*
X152446513Y-112459192D01*
X152602240Y-112563245D01*
X152734675Y-112695680D01*
X152838728Y-112851407D01*
X152910402Y-113024442D01*
X152946940Y-113208134D01*
X152946940Y-113395426D01*
X152910402Y-113579118D01*
X152838728Y-113752153D01*
X152734675Y-113907880D01*
X152602240Y-114040315D01*
X152446513Y-114144368D01*
X152273478Y-114216042D01*
X152089786Y-114252580D01*
X151902494Y-114252580D01*
X151718802Y-114216042D01*
X151545767Y-114144368D01*
X151390040Y-114040315D01*
X151257605Y-113907880D01*
X151153552Y-113752153D01*
X151081878Y-113579118D01*
X151045340Y-113395426D01*
X151045340Y-113208134D01*
X151081878Y-113024442D01*
X151153552Y-112851407D01*
X151257605Y-112695680D01*
X151390040Y-112563245D01*
X151545767Y-112459192D01*
X151718802Y-112387518D01*
X151902494Y-112350980D01*
X152089786Y-112350980D01*
X152273478Y-112387518D01*
X152273478Y-112387518D01*
G37*
G36*
X154873478Y-112387518D02*
G01*
X155046513Y-112459192D01*
X155202240Y-112563245D01*
X155334675Y-112695680D01*
X155438728Y-112851407D01*
X155510402Y-113024442D01*
X155546940Y-113208134D01*
X155546940Y-113395426D01*
X155510402Y-113579118D01*
X155438728Y-113752153D01*
X155334675Y-113907880D01*
X155202240Y-114040315D01*
X155046513Y-114144368D01*
X154873478Y-114216042D01*
X154689786Y-114252580D01*
X154502494Y-114252580D01*
X154318802Y-114216042D01*
X154145767Y-114144368D01*
X153990040Y-114040315D01*
X153857605Y-113907880D01*
X153753552Y-113752153D01*
X153681878Y-113579118D01*
X153645340Y-113395426D01*
X153645340Y-113208134D01*
X153681878Y-113024442D01*
X153753552Y-112851407D01*
X153857605Y-112695680D01*
X153990040Y-112563245D01*
X154145767Y-112459192D01*
X154318802Y-112387518D01*
X154502494Y-112350980D01*
X154689786Y-112350980D01*
X154873478Y-112387518D01*
X154873478Y-112387518D01*
G37*
G36*
X159893478Y-112387518D02*
G01*
X160066513Y-112459192D01*
X160222240Y-112563245D01*
X160354675Y-112695680D01*
X160458728Y-112851407D01*
X160530402Y-113024442D01*
X160566940Y-113208134D01*
X160566940Y-113395426D01*
X160530402Y-113579118D01*
X160458728Y-113752153D01*
X160354675Y-113907880D01*
X160222240Y-114040315D01*
X160066513Y-114144368D01*
X159893478Y-114216042D01*
X159709786Y-114252580D01*
X159522494Y-114252580D01*
X159338802Y-114216042D01*
X159165767Y-114144368D01*
X159010040Y-114040315D01*
X158877605Y-113907880D01*
X158773552Y-113752153D01*
X158701878Y-113579118D01*
X158665340Y-113395426D01*
X158665340Y-113208134D01*
X158701878Y-113024442D01*
X158773552Y-112851407D01*
X158877605Y-112695680D01*
X159010040Y-112563245D01*
X159165767Y-112459192D01*
X159338802Y-112387518D01*
X159522494Y-112350980D01*
X159709786Y-112350980D01*
X159893478Y-112387518D01*
X159893478Y-112387518D01*
G37*
G36*
X154873478Y-109847518D02*
G01*
X155046513Y-109919192D01*
X155202240Y-110023245D01*
X155334675Y-110155680D01*
X155438728Y-110311407D01*
X155510402Y-110484442D01*
X155546940Y-110668134D01*
X155546940Y-110855426D01*
X155510402Y-111039118D01*
X155438728Y-111212153D01*
X155334675Y-111367880D01*
X155202240Y-111500315D01*
X155046513Y-111604368D01*
X154873478Y-111676042D01*
X154689786Y-111712580D01*
X154502494Y-111712580D01*
X154318802Y-111676042D01*
X154145767Y-111604368D01*
X153990040Y-111500315D01*
X153857605Y-111367880D01*
X153753552Y-111212153D01*
X153681878Y-111039118D01*
X153645340Y-110855426D01*
X153645340Y-110668134D01*
X153681878Y-110484442D01*
X153753552Y-110311407D01*
X153857605Y-110155680D01*
X153990040Y-110023245D01*
X154145767Y-109919192D01*
X154318802Y-109847518D01*
X154502494Y-109810980D01*
X154689786Y-109810980D01*
X154873478Y-109847518D01*
X154873478Y-109847518D01*
G37*
G36*
X152273478Y-109847518D02*
G01*
X152446513Y-109919192D01*
X152602240Y-110023245D01*
X152734675Y-110155680D01*
X152838728Y-110311407D01*
X152910402Y-110484442D01*
X152946940Y-110668134D01*
X152946940Y-110855426D01*
X152910402Y-111039118D01*
X152838728Y-111212153D01*
X152734675Y-111367880D01*
X152602240Y-111500315D01*
X152446513Y-111604368D01*
X152273478Y-111676042D01*
X152089786Y-111712580D01*
X151902494Y-111712580D01*
X151718802Y-111676042D01*
X151545767Y-111604368D01*
X151390040Y-111500315D01*
X151257605Y-111367880D01*
X151153552Y-111212153D01*
X151081878Y-111039118D01*
X151045340Y-110855426D01*
X151045340Y-110668134D01*
X151081878Y-110484442D01*
X151153552Y-110311407D01*
X151257605Y-110155680D01*
X151390040Y-110023245D01*
X151545767Y-109919192D01*
X151718802Y-109847518D01*
X151902494Y-109810980D01*
X152089786Y-109810980D01*
X152273478Y-109847518D01*
X152273478Y-109847518D01*
G37*
G36*
X159893478Y-109847518D02*
G01*
X160066513Y-109919192D01*
X160222240Y-110023245D01*
X160354675Y-110155680D01*
X160458728Y-110311407D01*
X160530402Y-110484442D01*
X160566940Y-110668134D01*
X160566940Y-110855426D01*
X160530402Y-111039118D01*
X160458728Y-111212153D01*
X160354675Y-111367880D01*
X160222240Y-111500315D01*
X160066513Y-111604368D01*
X159893478Y-111676042D01*
X159709786Y-111712580D01*
X159522494Y-111712580D01*
X159338802Y-111676042D01*
X159165767Y-111604368D01*
X159010040Y-111500315D01*
X158877605Y-111367880D01*
X158773552Y-111212153D01*
X158701878Y-111039118D01*
X158665340Y-110855426D01*
X158665340Y-110668134D01*
X158701878Y-110484442D01*
X158773552Y-110311407D01*
X158877605Y-110155680D01*
X159010040Y-110023245D01*
X159165767Y-109919192D01*
X159338802Y-109847518D01*
X159522494Y-109810980D01*
X159709786Y-109810980D01*
X159893478Y-109847518D01*
X159893478Y-109847518D01*
G37*
G36*
X172462626Y-107533941D02*
G01*
X172574648Y-107580342D01*
X172653860Y-107613153D01*
X172825966Y-107728151D01*
X172972329Y-107874514D01*
X173087327Y-108046620D01*
X173087327Y-108046621D01*
X173166539Y-108237854D01*
X173206920Y-108440864D01*
X173206920Y-108647856D01*
X173166539Y-108850866D01*
X173121204Y-108960314D01*
X173087327Y-109042100D01*
X172972329Y-109214206D01*
X172825966Y-109360569D01*
X172653860Y-109475567D01*
X172574648Y-109508378D01*
X172462626Y-109554779D01*
X172259616Y-109595160D01*
X172052624Y-109595160D01*
X171849614Y-109554779D01*
X171737592Y-109508378D01*
X171658380Y-109475567D01*
X171486274Y-109360569D01*
X171339911Y-109214206D01*
X171224913Y-109042100D01*
X171191036Y-108960314D01*
X171145701Y-108850866D01*
X171105320Y-108647856D01*
X171105320Y-108440864D01*
X171145701Y-108237854D01*
X171224913Y-108046621D01*
X171224913Y-108046620D01*
X171339911Y-107874514D01*
X171486274Y-107728151D01*
X171658380Y-107613153D01*
X171737592Y-107580342D01*
X171849614Y-107533941D01*
X172052624Y-107493560D01*
X172259616Y-107493560D01*
X172462626Y-107533941D01*
X172462626Y-107533941D01*
G37*
G36*
X152273478Y-107307518D02*
G01*
X152446513Y-107379192D01*
X152602240Y-107483245D01*
X152734675Y-107615680D01*
X152838728Y-107771407D01*
X152910402Y-107944442D01*
X152946940Y-108128134D01*
X152946940Y-108315426D01*
X152910402Y-108499118D01*
X152838728Y-108672153D01*
X152734675Y-108827880D01*
X152602240Y-108960315D01*
X152446513Y-109064368D01*
X152273478Y-109136042D01*
X152089786Y-109172580D01*
X151902494Y-109172580D01*
X151718802Y-109136042D01*
X151545767Y-109064368D01*
X151390040Y-108960315D01*
X151257605Y-108827880D01*
X151153552Y-108672153D01*
X151081878Y-108499118D01*
X151045340Y-108315426D01*
X151045340Y-108128134D01*
X151081878Y-107944442D01*
X151153552Y-107771407D01*
X151257605Y-107615680D01*
X151390040Y-107483245D01*
X151545767Y-107379192D01*
X151718802Y-107307518D01*
X151902494Y-107270980D01*
X152089786Y-107270980D01*
X152273478Y-107307518D01*
X152273478Y-107307518D01*
G37*
G36*
X154873478Y-107307518D02*
G01*
X155046513Y-107379192D01*
X155202240Y-107483245D01*
X155334675Y-107615680D01*
X155438728Y-107771407D01*
X155510402Y-107944442D01*
X155546940Y-108128134D01*
X155546940Y-108315426D01*
X155510402Y-108499118D01*
X155438728Y-108672153D01*
X155334675Y-108827880D01*
X155202240Y-108960315D01*
X155046513Y-109064368D01*
X154873478Y-109136042D01*
X154689786Y-109172580D01*
X154502494Y-109172580D01*
X154318802Y-109136042D01*
X154145767Y-109064368D01*
X153990040Y-108960315D01*
X153857605Y-108827880D01*
X153753552Y-108672153D01*
X153681878Y-108499118D01*
X153645340Y-108315426D01*
X153645340Y-108128134D01*
X153681878Y-107944442D01*
X153753552Y-107771407D01*
X153857605Y-107615680D01*
X153990040Y-107483245D01*
X154145767Y-107379192D01*
X154318802Y-107307518D01*
X154502494Y-107270980D01*
X154689786Y-107270980D01*
X154873478Y-107307518D01*
X154873478Y-107307518D01*
G37*
G36*
X159893478Y-107307518D02*
G01*
X160066513Y-107379192D01*
X160222240Y-107483245D01*
X160354675Y-107615680D01*
X160458728Y-107771407D01*
X160530402Y-107944442D01*
X160566940Y-108128134D01*
X160566940Y-108315426D01*
X160530402Y-108499118D01*
X160458728Y-108672153D01*
X160354675Y-108827880D01*
X160222240Y-108960315D01*
X160066513Y-109064368D01*
X159893478Y-109136042D01*
X159709786Y-109172580D01*
X159522494Y-109172580D01*
X159338802Y-109136042D01*
X159165767Y-109064368D01*
X159010040Y-108960315D01*
X158877605Y-108827880D01*
X158773552Y-108672153D01*
X158701878Y-108499118D01*
X158665340Y-108315426D01*
X158665340Y-108128134D01*
X158701878Y-107944442D01*
X158773552Y-107771407D01*
X158877605Y-107615680D01*
X159010040Y-107483245D01*
X159165767Y-107379192D01*
X159338802Y-107307518D01*
X159522494Y-107270980D01*
X159709786Y-107270980D01*
X159893478Y-107307518D01*
X159893478Y-107307518D01*
G37*
G36*
X154813478Y-104767518D02*
G01*
X154986513Y-104839192D01*
X155142240Y-104943245D01*
X155274675Y-105075680D01*
X155378728Y-105231407D01*
X155450402Y-105404442D01*
X155486940Y-105588134D01*
X155486940Y-105775426D01*
X155450402Y-105959118D01*
X155378728Y-106132153D01*
X155274675Y-106287880D01*
X155142240Y-106420315D01*
X154986513Y-106524368D01*
X154813478Y-106596042D01*
X154629786Y-106632580D01*
X154442494Y-106632580D01*
X154258802Y-106596042D01*
X154085767Y-106524368D01*
X153930040Y-106420315D01*
X153797605Y-106287880D01*
X153693552Y-106132153D01*
X153621878Y-105959118D01*
X153585340Y-105775426D01*
X153585340Y-105588134D01*
X153621878Y-105404442D01*
X153693552Y-105231407D01*
X153797605Y-105075680D01*
X153930040Y-104943245D01*
X154085767Y-104839192D01*
X154258802Y-104767518D01*
X154442494Y-104730980D01*
X154629786Y-104730980D01*
X154813478Y-104767518D01*
X154813478Y-104767518D01*
G37*
G36*
X159893478Y-104767518D02*
G01*
X160066513Y-104839192D01*
X160222240Y-104943245D01*
X160354675Y-105075680D01*
X160458728Y-105231407D01*
X160530402Y-105404442D01*
X160566940Y-105588134D01*
X160566940Y-105775426D01*
X160530402Y-105959118D01*
X160458728Y-106132153D01*
X160354675Y-106287880D01*
X160222240Y-106420315D01*
X160066513Y-106524368D01*
X159893478Y-106596042D01*
X159709786Y-106632580D01*
X159522494Y-106632580D01*
X159338802Y-106596042D01*
X159165767Y-106524368D01*
X159010040Y-106420315D01*
X158877605Y-106287880D01*
X158773552Y-106132153D01*
X158701878Y-105959118D01*
X158665340Y-105775426D01*
X158665340Y-105588134D01*
X158701878Y-105404442D01*
X158773552Y-105231407D01*
X158877605Y-105075680D01*
X159010040Y-104943245D01*
X159165767Y-104839192D01*
X159338802Y-104767518D01*
X159522494Y-104730980D01*
X159709786Y-104730980D01*
X159893478Y-104767518D01*
X159893478Y-104767518D01*
G37*
G36*
X152273478Y-104767518D02*
G01*
X152446513Y-104839192D01*
X152602240Y-104943245D01*
X152734675Y-105075680D01*
X152838728Y-105231407D01*
X152910402Y-105404442D01*
X152946940Y-105588134D01*
X152946940Y-105775426D01*
X152910402Y-105959118D01*
X152838728Y-106132153D01*
X152734675Y-106287880D01*
X152602240Y-106420315D01*
X152446513Y-106524368D01*
X152273478Y-106596042D01*
X152089786Y-106632580D01*
X151902494Y-106632580D01*
X151718802Y-106596042D01*
X151545767Y-106524368D01*
X151390040Y-106420315D01*
X151257605Y-106287880D01*
X151153552Y-106132153D01*
X151081878Y-105959118D01*
X151045340Y-105775426D01*
X151045340Y-105588134D01*
X151081878Y-105404442D01*
X151153552Y-105231407D01*
X151257605Y-105075680D01*
X151390040Y-104943245D01*
X151545767Y-104839192D01*
X151718802Y-104767518D01*
X151902494Y-104730980D01*
X152089786Y-104730980D01*
X152273478Y-104767518D01*
X152273478Y-104767518D01*
G37*
G36*
X172488026Y-104381801D02*
G01*
X172600048Y-104428202D01*
X172679260Y-104461013D01*
X172794257Y-104537852D01*
X172851365Y-104576010D01*
X172997730Y-104722375D01*
X173027893Y-104767518D01*
X173112727Y-104894480D01*
X173112727Y-104894481D01*
X173191939Y-105085714D01*
X173232320Y-105288724D01*
X173232320Y-105495716D01*
X173191939Y-105698726D01*
X173145538Y-105810748D01*
X173112727Y-105889960D01*
X172997729Y-106062066D01*
X172851366Y-106208429D01*
X172679260Y-106323427D01*
X172600048Y-106356238D01*
X172488026Y-106402639D01*
X172285016Y-106443020D01*
X172078024Y-106443020D01*
X171875014Y-106402639D01*
X171762992Y-106356238D01*
X171683780Y-106323427D01*
X171511674Y-106208429D01*
X171365311Y-106062066D01*
X171250313Y-105889960D01*
X171217502Y-105810748D01*
X171171101Y-105698726D01*
X171130720Y-105495716D01*
X171130720Y-105288724D01*
X171171101Y-105085714D01*
X171250313Y-104894481D01*
X171250313Y-104894480D01*
X171335147Y-104767518D01*
X171365310Y-104722375D01*
X171511675Y-104576010D01*
X171568783Y-104537852D01*
X171683780Y-104461013D01*
X171762992Y-104428202D01*
X171875014Y-104381801D01*
X172078024Y-104341420D01*
X172285016Y-104341420D01*
X172488026Y-104381801D01*
X172488026Y-104381801D01*
G37*
G36*
X137033478Y-102227518D02*
G01*
X137206513Y-102299192D01*
X137362240Y-102403245D01*
X137494675Y-102535680D01*
X137598728Y-102691407D01*
X137670402Y-102864442D01*
X137706940Y-103048134D01*
X137706940Y-103235426D01*
X137670402Y-103419118D01*
X137598728Y-103592153D01*
X137494675Y-103747880D01*
X137362240Y-103880315D01*
X137206513Y-103984368D01*
X137033478Y-104056042D01*
X136849786Y-104092580D01*
X136662494Y-104092580D01*
X136478802Y-104056042D01*
X136305767Y-103984368D01*
X136150040Y-103880315D01*
X136017605Y-103747880D01*
X135913552Y-103592153D01*
X135841878Y-103419118D01*
X135805340Y-103235426D01*
X135805340Y-103048134D01*
X135841878Y-102864442D01*
X135913552Y-102691407D01*
X136017605Y-102535680D01*
X136150040Y-102403245D01*
X136305767Y-102299192D01*
X136478802Y-102227518D01*
X136662494Y-102190980D01*
X136849786Y-102190980D01*
X137033478Y-102227518D01*
X137033478Y-102227518D01*
G37*
G36*
X139573478Y-102227518D02*
G01*
X139746513Y-102299192D01*
X139902240Y-102403245D01*
X140034675Y-102535680D01*
X140138728Y-102691407D01*
X140210402Y-102864442D01*
X140246940Y-103048134D01*
X140246940Y-103235426D01*
X140210402Y-103419118D01*
X140138728Y-103592153D01*
X140034675Y-103747880D01*
X139902240Y-103880315D01*
X139746513Y-103984368D01*
X139573478Y-104056042D01*
X139389786Y-104092580D01*
X139202494Y-104092580D01*
X139018802Y-104056042D01*
X138845767Y-103984368D01*
X138690040Y-103880315D01*
X138557605Y-103747880D01*
X138453552Y-103592153D01*
X138381878Y-103419118D01*
X138345340Y-103235426D01*
X138345340Y-103048134D01*
X138381878Y-102864442D01*
X138453552Y-102691407D01*
X138557605Y-102535680D01*
X138690040Y-102403245D01*
X138845767Y-102299192D01*
X139018802Y-102227518D01*
X139202494Y-102190980D01*
X139389786Y-102190980D01*
X139573478Y-102227518D01*
X139573478Y-102227518D01*
G37*
G36*
X126873478Y-102227518D02*
G01*
X127046513Y-102299192D01*
X127202240Y-102403245D01*
X127334675Y-102535680D01*
X127438728Y-102691407D01*
X127510402Y-102864442D01*
X127546940Y-103048134D01*
X127546940Y-103235426D01*
X127510402Y-103419118D01*
X127438728Y-103592153D01*
X127334675Y-103747880D01*
X127202240Y-103880315D01*
X127046513Y-103984368D01*
X126873478Y-104056042D01*
X126689786Y-104092580D01*
X126502494Y-104092580D01*
X126318802Y-104056042D01*
X126145767Y-103984368D01*
X125990040Y-103880315D01*
X125857605Y-103747880D01*
X125753552Y-103592153D01*
X125681878Y-103419118D01*
X125645340Y-103235426D01*
X125645340Y-103048134D01*
X125681878Y-102864442D01*
X125753552Y-102691407D01*
X125857605Y-102535680D01*
X125990040Y-102403245D01*
X126145767Y-102299192D01*
X126318802Y-102227518D01*
X126502494Y-102190980D01*
X126689786Y-102190980D01*
X126873478Y-102227518D01*
X126873478Y-102227518D01*
G37*
G36*
X129413478Y-102227518D02*
G01*
X129586513Y-102299192D01*
X129742240Y-102403245D01*
X129874675Y-102535680D01*
X129978728Y-102691407D01*
X130050402Y-102864442D01*
X130086940Y-103048134D01*
X130086940Y-103235426D01*
X130050402Y-103419118D01*
X129978728Y-103592153D01*
X129874675Y-103747880D01*
X129742240Y-103880315D01*
X129586513Y-103984368D01*
X129413478Y-104056042D01*
X129229786Y-104092580D01*
X129042494Y-104092580D01*
X128858802Y-104056042D01*
X128685767Y-103984368D01*
X128530040Y-103880315D01*
X128397605Y-103747880D01*
X128293552Y-103592153D01*
X128221878Y-103419118D01*
X128185340Y-103235426D01*
X128185340Y-103048134D01*
X128221878Y-102864442D01*
X128293552Y-102691407D01*
X128397605Y-102535680D01*
X128530040Y-102403245D01*
X128685767Y-102299192D01*
X128858802Y-102227518D01*
X129042494Y-102190980D01*
X129229786Y-102190980D01*
X129413478Y-102227518D01*
X129413478Y-102227518D01*
G37*
G36*
X131953478Y-102227518D02*
G01*
X132126513Y-102299192D01*
X132282240Y-102403245D01*
X132414675Y-102535680D01*
X132518728Y-102691407D01*
X132590402Y-102864442D01*
X132626940Y-103048134D01*
X132626940Y-103235426D01*
X132590402Y-103419118D01*
X132518728Y-103592153D01*
X132414675Y-103747880D01*
X132282240Y-103880315D01*
X132126513Y-103984368D01*
X131953478Y-104056042D01*
X131769786Y-104092580D01*
X131582494Y-104092580D01*
X131398802Y-104056042D01*
X131225767Y-103984368D01*
X131070040Y-103880315D01*
X130937605Y-103747880D01*
X130833552Y-103592153D01*
X130761878Y-103419118D01*
X130725340Y-103235426D01*
X130725340Y-103048134D01*
X130761878Y-102864442D01*
X130833552Y-102691407D01*
X130937605Y-102535680D01*
X131070040Y-102403245D01*
X131225767Y-102299192D01*
X131398802Y-102227518D01*
X131582494Y-102190980D01*
X131769786Y-102190980D01*
X131953478Y-102227518D01*
X131953478Y-102227518D01*
G37*
G36*
X134493478Y-102227518D02*
G01*
X134666513Y-102299192D01*
X134822240Y-102403245D01*
X134954675Y-102535680D01*
X135058728Y-102691407D01*
X135130402Y-102864442D01*
X135166940Y-103048134D01*
X135166940Y-103235426D01*
X135130402Y-103419118D01*
X135058728Y-103592153D01*
X134954675Y-103747880D01*
X134822240Y-103880315D01*
X134666513Y-103984368D01*
X134493478Y-104056042D01*
X134309786Y-104092580D01*
X134122494Y-104092580D01*
X133938802Y-104056042D01*
X133765767Y-103984368D01*
X133610040Y-103880315D01*
X133477605Y-103747880D01*
X133373552Y-103592153D01*
X133301878Y-103419118D01*
X133265340Y-103235426D01*
X133265340Y-103048134D01*
X133301878Y-102864442D01*
X133373552Y-102691407D01*
X133477605Y-102535680D01*
X133610040Y-102403245D01*
X133765767Y-102299192D01*
X133938802Y-102227518D01*
X134122494Y-102190980D01*
X134309786Y-102190980D01*
X134493478Y-102227518D01*
X134493478Y-102227518D01*
G37*
G36*
X159893478Y-102227518D02*
G01*
X160066513Y-102299192D01*
X160222240Y-102403245D01*
X160354675Y-102535680D01*
X160458728Y-102691407D01*
X160530402Y-102864442D01*
X160566940Y-103048134D01*
X160566940Y-103235426D01*
X160530402Y-103419118D01*
X160458728Y-103592153D01*
X160354675Y-103747880D01*
X160222240Y-103880315D01*
X160066513Y-103984368D01*
X159893478Y-104056042D01*
X159709786Y-104092580D01*
X159522494Y-104092580D01*
X159338802Y-104056042D01*
X159165767Y-103984368D01*
X159010040Y-103880315D01*
X158877605Y-103747880D01*
X158773552Y-103592153D01*
X158701878Y-103419118D01*
X158665340Y-103235426D01*
X158665340Y-103048134D01*
X158701878Y-102864442D01*
X158773552Y-102691407D01*
X158877605Y-102535680D01*
X159010040Y-102403245D01*
X159165767Y-102299192D01*
X159338802Y-102227518D01*
X159522494Y-102190980D01*
X159709786Y-102190980D01*
X159893478Y-102227518D01*
X159893478Y-102227518D01*
G37*
G36*
X149733478Y-102227518D02*
G01*
X149906513Y-102299192D01*
X150062240Y-102403245D01*
X150194675Y-102535680D01*
X150298728Y-102691407D01*
X150370402Y-102864442D01*
X150406940Y-103048134D01*
X150406940Y-103235426D01*
X150370402Y-103419118D01*
X150298728Y-103592153D01*
X150194675Y-103747880D01*
X150062240Y-103880315D01*
X149906513Y-103984368D01*
X149733478Y-104056042D01*
X149549786Y-104092580D01*
X149362494Y-104092580D01*
X149178802Y-104056042D01*
X149005767Y-103984368D01*
X148850040Y-103880315D01*
X148717605Y-103747880D01*
X148613552Y-103592153D01*
X148541878Y-103419118D01*
X148505340Y-103235426D01*
X148505340Y-103048134D01*
X148541878Y-102864442D01*
X148613552Y-102691407D01*
X148717605Y-102535680D01*
X148850040Y-102403245D01*
X149005767Y-102299192D01*
X149178802Y-102227518D01*
X149362494Y-102190980D01*
X149549786Y-102190980D01*
X149733478Y-102227518D01*
X149733478Y-102227518D01*
G37*
G36*
X147193478Y-102227518D02*
G01*
X147366513Y-102299192D01*
X147522240Y-102403245D01*
X147654675Y-102535680D01*
X147758728Y-102691407D01*
X147830402Y-102864442D01*
X147866940Y-103048134D01*
X147866940Y-103235426D01*
X147830402Y-103419118D01*
X147758728Y-103592153D01*
X147654675Y-103747880D01*
X147522240Y-103880315D01*
X147366513Y-103984368D01*
X147193478Y-104056042D01*
X147009786Y-104092580D01*
X146822494Y-104092580D01*
X146638802Y-104056042D01*
X146465767Y-103984368D01*
X146310040Y-103880315D01*
X146177605Y-103747880D01*
X146073552Y-103592153D01*
X146001878Y-103419118D01*
X145965340Y-103235426D01*
X145965340Y-103048134D01*
X146001878Y-102864442D01*
X146073552Y-102691407D01*
X146177605Y-102535680D01*
X146310040Y-102403245D01*
X146465767Y-102299192D01*
X146638802Y-102227518D01*
X146822494Y-102190980D01*
X147009786Y-102190980D01*
X147193478Y-102227518D01*
X147193478Y-102227518D01*
G37*
G36*
X152273478Y-102227518D02*
G01*
X152446513Y-102299192D01*
X152602240Y-102403245D01*
X152734675Y-102535680D01*
X152838728Y-102691407D01*
X152910402Y-102864442D01*
X152946940Y-103048134D01*
X152946940Y-103235426D01*
X152910402Y-103419118D01*
X152838728Y-103592153D01*
X152734675Y-103747880D01*
X152602240Y-103880315D01*
X152446513Y-103984368D01*
X152273478Y-104056042D01*
X152089786Y-104092580D01*
X151902494Y-104092580D01*
X151718802Y-104056042D01*
X151545767Y-103984368D01*
X151390040Y-103880315D01*
X151257605Y-103747880D01*
X151153552Y-103592153D01*
X151081878Y-103419118D01*
X151045340Y-103235426D01*
X151045340Y-103048134D01*
X151081878Y-102864442D01*
X151153552Y-102691407D01*
X151257605Y-102535680D01*
X151390040Y-102403245D01*
X151545767Y-102299192D01*
X151718802Y-102227518D01*
X151902494Y-102190980D01*
X152089786Y-102190980D01*
X152273478Y-102227518D01*
X152273478Y-102227518D01*
G37*
G36*
X144653478Y-102227518D02*
G01*
X144826513Y-102299192D01*
X144982240Y-102403245D01*
X145114675Y-102535680D01*
X145218728Y-102691407D01*
X145290402Y-102864442D01*
X145326940Y-103048134D01*
X145326940Y-103235426D01*
X145290402Y-103419118D01*
X145218728Y-103592153D01*
X145114675Y-103747880D01*
X144982240Y-103880315D01*
X144826513Y-103984368D01*
X144653478Y-104056042D01*
X144469786Y-104092580D01*
X144282494Y-104092580D01*
X144098802Y-104056042D01*
X143925767Y-103984368D01*
X143770040Y-103880315D01*
X143637605Y-103747880D01*
X143533552Y-103592153D01*
X143461878Y-103419118D01*
X143425340Y-103235426D01*
X143425340Y-103048134D01*
X143461878Y-102864442D01*
X143533552Y-102691407D01*
X143637605Y-102535680D01*
X143770040Y-102403245D01*
X143925767Y-102299192D01*
X144098802Y-102227518D01*
X144282494Y-102190980D01*
X144469786Y-102190980D01*
X144653478Y-102227518D01*
X144653478Y-102227518D01*
G37*
G36*
X154813478Y-102227518D02*
G01*
X154986513Y-102299192D01*
X155142240Y-102403245D01*
X155274675Y-102535680D01*
X155378728Y-102691407D01*
X155450402Y-102864442D01*
X155486940Y-103048134D01*
X155486940Y-103235426D01*
X155450402Y-103419118D01*
X155378728Y-103592153D01*
X155274675Y-103747880D01*
X155142240Y-103880315D01*
X154986513Y-103984368D01*
X154813478Y-104056042D01*
X154629786Y-104092580D01*
X154442494Y-104092580D01*
X154258802Y-104056042D01*
X154085767Y-103984368D01*
X153930040Y-103880315D01*
X153797605Y-103747880D01*
X153693552Y-103592153D01*
X153621878Y-103419118D01*
X153585340Y-103235426D01*
X153585340Y-103048134D01*
X153621878Y-102864442D01*
X153693552Y-102691407D01*
X153797605Y-102535680D01*
X153930040Y-102403245D01*
X154085767Y-102299192D01*
X154258802Y-102227518D01*
X154442494Y-102190980D01*
X154629786Y-102190980D01*
X154813478Y-102227518D01*
X154813478Y-102227518D01*
G37*
G36*
X142113478Y-102227518D02*
G01*
X142286513Y-102299192D01*
X142442240Y-102403245D01*
X142574675Y-102535680D01*
X142678728Y-102691407D01*
X142750402Y-102864442D01*
X142786940Y-103048134D01*
X142786940Y-103235426D01*
X142750402Y-103419118D01*
X142678728Y-103592153D01*
X142574675Y-103747880D01*
X142442240Y-103880315D01*
X142286513Y-103984368D01*
X142113478Y-104056042D01*
X141929786Y-104092580D01*
X141742494Y-104092580D01*
X141558802Y-104056042D01*
X141385767Y-103984368D01*
X141230040Y-103880315D01*
X141097605Y-103747880D01*
X140993552Y-103592153D01*
X140921878Y-103419118D01*
X140885340Y-103235426D01*
X140885340Y-103048134D01*
X140921878Y-102864442D01*
X140993552Y-102691407D01*
X141097605Y-102535680D01*
X141230040Y-102403245D01*
X141385767Y-102299192D01*
X141558802Y-102227518D01*
X141742494Y-102190980D01*
X141929786Y-102190980D01*
X142113478Y-102227518D01*
X142113478Y-102227518D01*
G37*
G36*
X157353478Y-102227518D02*
G01*
X157526513Y-102299192D01*
X157682240Y-102403245D01*
X157814675Y-102535680D01*
X157918728Y-102691407D01*
X157990402Y-102864442D01*
X158026940Y-103048134D01*
X158026940Y-103235426D01*
X157990402Y-103419118D01*
X157918728Y-103592153D01*
X157814675Y-103747880D01*
X157682240Y-103880315D01*
X157526513Y-103984368D01*
X157353478Y-104056042D01*
X157169786Y-104092580D01*
X156982494Y-104092580D01*
X156798802Y-104056042D01*
X156625767Y-103984368D01*
X156470040Y-103880315D01*
X156337605Y-103747880D01*
X156233552Y-103592153D01*
X156161878Y-103419118D01*
X156125340Y-103235426D01*
X156125340Y-103048134D01*
X156161878Y-102864442D01*
X156233552Y-102691407D01*
X156337605Y-102535680D01*
X156470040Y-102403245D01*
X156625767Y-102299192D01*
X156798802Y-102227518D01*
X156982494Y-102190980D01*
X157169786Y-102190980D01*
X157353478Y-102227518D01*
X157353478Y-102227518D01*
G37*
G36*
X172462626Y-101084881D02*
G01*
X172574648Y-101131282D01*
X172653860Y-101164093D01*
X172825966Y-101279091D01*
X172972329Y-101425454D01*
X173087327Y-101597560D01*
X173087327Y-101597561D01*
X173166539Y-101788794D01*
X173206920Y-101991804D01*
X173206920Y-102198796D01*
X173166539Y-102401806D01*
X173120138Y-102513828D01*
X173087327Y-102593040D01*
X172972329Y-102765146D01*
X172825966Y-102911509D01*
X172653860Y-103026507D01*
X172574648Y-103059318D01*
X172462626Y-103105719D01*
X172259616Y-103146100D01*
X172052624Y-103146100D01*
X171849614Y-103105719D01*
X171737592Y-103059318D01*
X171658380Y-103026507D01*
X171486274Y-102911509D01*
X171339911Y-102765146D01*
X171224913Y-102593040D01*
X171192102Y-102513828D01*
X171145701Y-102401806D01*
X171105320Y-102198796D01*
X171105320Y-101991804D01*
X171145701Y-101788794D01*
X171224913Y-101597561D01*
X171224913Y-101597560D01*
X171339911Y-101425454D01*
X171486274Y-101279091D01*
X171658380Y-101164093D01*
X171737592Y-101131282D01*
X171849614Y-101084881D01*
X172052624Y-101044500D01*
X172259616Y-101044500D01*
X172462626Y-101084881D01*
X172462626Y-101084881D01*
G37*
G36*
X131918440Y-98259240D02*
G01*
X131316840Y-98259240D01*
X131316840Y-96457640D01*
X131918440Y-96457640D01*
X131918440Y-98259240D01*
X131918440Y-98259240D01*
G37*
G36*
X133818440Y-98259240D02*
G01*
X133216840Y-98259240D01*
X133216840Y-97757640D01*
X133818440Y-97757640D01*
X133818440Y-98259240D01*
X133818440Y-98259240D01*
G37*
G36*
X133818440Y-96959240D02*
G01*
X133216840Y-96959240D01*
X133216840Y-96457640D01*
X133818440Y-96457640D01*
X133818440Y-96959240D01*
X133818440Y-96959240D01*
G37*
G36*
X128794848Y-95723963D02*
G01*
X128828813Y-95734266D01*
X128860114Y-95750997D01*
X128887548Y-95773512D01*
X128910063Y-95800946D01*
X128926794Y-95832247D01*
X128937097Y-95866212D01*
X128941180Y-95907670D01*
X128941180Y-96583690D01*
X128937097Y-96625148D01*
X128926794Y-96659113D01*
X128910063Y-96690414D01*
X128887548Y-96717848D01*
X128860114Y-96740363D01*
X128828813Y-96757094D01*
X128794848Y-96767397D01*
X128753390Y-96771480D01*
X128152370Y-96771480D01*
X128110912Y-96767397D01*
X128076947Y-96757094D01*
X128045646Y-96740363D01*
X128018212Y-96717848D01*
X127995697Y-96690414D01*
X127978966Y-96659113D01*
X127968663Y-96625148D01*
X127964580Y-96583690D01*
X127964580Y-95907670D01*
X127968663Y-95866212D01*
X127978966Y-95832247D01*
X127995697Y-95800946D01*
X128018212Y-95773512D01*
X128045646Y-95750997D01*
X128076947Y-95734266D01*
X128110912Y-95723963D01*
X128152370Y-95719880D01*
X128753390Y-95719880D01*
X128794848Y-95723963D01*
X128794848Y-95723963D01*
G37*
G36*
X127219848Y-95723963D02*
G01*
X127253813Y-95734266D01*
X127285114Y-95750997D01*
X127312548Y-95773512D01*
X127335063Y-95800946D01*
X127351794Y-95832247D01*
X127362097Y-95866212D01*
X127366180Y-95907670D01*
X127366180Y-96583690D01*
X127362097Y-96625148D01*
X127351794Y-96659113D01*
X127335063Y-96690414D01*
X127312548Y-96717848D01*
X127285114Y-96740363D01*
X127253813Y-96757094D01*
X127219848Y-96767397D01*
X127178390Y-96771480D01*
X126577370Y-96771480D01*
X126535912Y-96767397D01*
X126501947Y-96757094D01*
X126470646Y-96740363D01*
X126443212Y-96717848D01*
X126420697Y-96690414D01*
X126403966Y-96659113D01*
X126393663Y-96625148D01*
X126389580Y-96583690D01*
X126389580Y-95907670D01*
X126393663Y-95866212D01*
X126403966Y-95832247D01*
X126420697Y-95800946D01*
X126443212Y-95773512D01*
X126470646Y-95750997D01*
X126501947Y-95734266D01*
X126535912Y-95723963D01*
X126577370Y-95719880D01*
X127178390Y-95719880D01*
X127219848Y-95723963D01*
X127219848Y-95723963D01*
G37*
G36*
X131616888Y-93445583D02*
G01*
X131650853Y-93455886D01*
X131682154Y-93472617D01*
X131709588Y-93495132D01*
X131732103Y-93522566D01*
X131748834Y-93553867D01*
X131759137Y-93587832D01*
X131763220Y-93629290D01*
X131763220Y-94305310D01*
X131759137Y-94346768D01*
X131748834Y-94380733D01*
X131732103Y-94412034D01*
X131709588Y-94439468D01*
X131682154Y-94461983D01*
X131650853Y-94478714D01*
X131616888Y-94489017D01*
X131575430Y-94493100D01*
X130974410Y-94493100D01*
X130932952Y-94489017D01*
X130898987Y-94478714D01*
X130867686Y-94461983D01*
X130840252Y-94439468D01*
X130817737Y-94412034D01*
X130801006Y-94380733D01*
X130790703Y-94346768D01*
X130786620Y-94305310D01*
X130786620Y-93629290D01*
X130790703Y-93587832D01*
X130801006Y-93553867D01*
X130817737Y-93522566D01*
X130840252Y-93495132D01*
X130867686Y-93472617D01*
X130898987Y-93455886D01*
X130932952Y-93445583D01*
X130974410Y-93441500D01*
X131575430Y-93441500D01*
X131616888Y-93445583D01*
X131616888Y-93445583D01*
G37*
G36*
X130041888Y-93445583D02*
G01*
X130075853Y-93455886D01*
X130107154Y-93472617D01*
X130134588Y-93495132D01*
X130157103Y-93522566D01*
X130173834Y-93553867D01*
X130184137Y-93587832D01*
X130188220Y-93629290D01*
X130188220Y-94305310D01*
X130184137Y-94346768D01*
X130173834Y-94380733D01*
X130157103Y-94412034D01*
X130134588Y-94439468D01*
X130107154Y-94461983D01*
X130075853Y-94478714D01*
X130041888Y-94489017D01*
X130000430Y-94493100D01*
X129399410Y-94493100D01*
X129357952Y-94489017D01*
X129323987Y-94478714D01*
X129292686Y-94461983D01*
X129265252Y-94439468D01*
X129242737Y-94412034D01*
X129226006Y-94380733D01*
X129215703Y-94346768D01*
X129211620Y-94305310D01*
X129211620Y-93629290D01*
X129215703Y-93587832D01*
X129226006Y-93553867D01*
X129242737Y-93522566D01*
X129265252Y-93495132D01*
X129292686Y-93472617D01*
X129323987Y-93455886D01*
X129357952Y-93445583D01*
X129399410Y-93441500D01*
X130000430Y-93441500D01*
X130041888Y-93445583D01*
X130041888Y-93445583D01*
G37*
G36*
X131555828Y-91527883D02*
G01*
X131589793Y-91538186D01*
X131621094Y-91554917D01*
X131648528Y-91577432D01*
X131671043Y-91604866D01*
X131687774Y-91636167D01*
X131698077Y-91670132D01*
X131702160Y-91711590D01*
X131702160Y-92387610D01*
X131698077Y-92429068D01*
X131687774Y-92463033D01*
X131671043Y-92494334D01*
X131648528Y-92521768D01*
X131621094Y-92544283D01*
X131589793Y-92561014D01*
X131555828Y-92571317D01*
X131514370Y-92575400D01*
X130913350Y-92575400D01*
X130871892Y-92571317D01*
X130837927Y-92561014D01*
X130806626Y-92544283D01*
X130779192Y-92521768D01*
X130756677Y-92494334D01*
X130739946Y-92463033D01*
X130729643Y-92429068D01*
X130725560Y-92387610D01*
X130725560Y-91711590D01*
X130729643Y-91670132D01*
X130739946Y-91636167D01*
X130756677Y-91604866D01*
X130779192Y-91577432D01*
X130806626Y-91554917D01*
X130837927Y-91538186D01*
X130871892Y-91527883D01*
X130913350Y-91523800D01*
X131514370Y-91523800D01*
X131555828Y-91527883D01*
X131555828Y-91527883D01*
G37*
G36*
X129980828Y-91527883D02*
G01*
X130014793Y-91538186D01*
X130046094Y-91554917D01*
X130073528Y-91577432D01*
X130096043Y-91604866D01*
X130112774Y-91636167D01*
X130123077Y-91670132D01*
X130127160Y-91711590D01*
X130127160Y-92387610D01*
X130123077Y-92429068D01*
X130112774Y-92463033D01*
X130096043Y-92494334D01*
X130073528Y-92521768D01*
X130046094Y-92544283D01*
X130014793Y-92561014D01*
X129980828Y-92571317D01*
X129939370Y-92575400D01*
X129338350Y-92575400D01*
X129296892Y-92571317D01*
X129262927Y-92561014D01*
X129231626Y-92544283D01*
X129204192Y-92521768D01*
X129181677Y-92494334D01*
X129164946Y-92463033D01*
X129154643Y-92429068D01*
X129150560Y-92387610D01*
X129150560Y-91711590D01*
X129154643Y-91670132D01*
X129164946Y-91636167D01*
X129181677Y-91604866D01*
X129204192Y-91577432D01*
X129231626Y-91554917D01*
X129262927Y-91538186D01*
X129296892Y-91527883D01*
X129338350Y-91523800D01*
X129939370Y-91523800D01*
X129980828Y-91527883D01*
X129980828Y-91527883D01*
G37*
G36*
X129996268Y-89818463D02*
G01*
X130030233Y-89828766D01*
X130061534Y-89845497D01*
X130088968Y-89868012D01*
X130111483Y-89895446D01*
X130128214Y-89926747D01*
X130138517Y-89960712D01*
X130142600Y-90002170D01*
X130142600Y-90678190D01*
X130138517Y-90719648D01*
X130128214Y-90753613D01*
X130111483Y-90784914D01*
X130088968Y-90812348D01*
X130061534Y-90834863D01*
X130030233Y-90851594D01*
X129996268Y-90861897D01*
X129954810Y-90865980D01*
X129353790Y-90865980D01*
X129312332Y-90861897D01*
X129278367Y-90851594D01*
X129247066Y-90834863D01*
X129219632Y-90812348D01*
X129197117Y-90784914D01*
X129180386Y-90753613D01*
X129170083Y-90719648D01*
X129166000Y-90678190D01*
X129166000Y-90002170D01*
X129170083Y-89960712D01*
X129180386Y-89926747D01*
X129197117Y-89895446D01*
X129219632Y-89868012D01*
X129247066Y-89845497D01*
X129278367Y-89828766D01*
X129312332Y-89818463D01*
X129353790Y-89814380D01*
X129954810Y-89814380D01*
X129996268Y-89818463D01*
X129996268Y-89818463D01*
G37*
G36*
X131571268Y-89818463D02*
G01*
X131605233Y-89828766D01*
X131636534Y-89845497D01*
X131663968Y-89868012D01*
X131686483Y-89895446D01*
X131703214Y-89926747D01*
X131713517Y-89960712D01*
X131717600Y-90002170D01*
X131717600Y-90678190D01*
X131713517Y-90719648D01*
X131703214Y-90753613D01*
X131686483Y-90784914D01*
X131663968Y-90812348D01*
X131636534Y-90834863D01*
X131605233Y-90851594D01*
X131571268Y-90861897D01*
X131529810Y-90865980D01*
X130928790Y-90865980D01*
X130887332Y-90861897D01*
X130853367Y-90851594D01*
X130822066Y-90834863D01*
X130794632Y-90812348D01*
X130772117Y-90784914D01*
X130755386Y-90753613D01*
X130745083Y-90719648D01*
X130741000Y-90678190D01*
X130741000Y-90002170D01*
X130745083Y-89960712D01*
X130755386Y-89926747D01*
X130772117Y-89895446D01*
X130794632Y-89868012D01*
X130822066Y-89845497D01*
X130853367Y-89828766D01*
X130887332Y-89818463D01*
X130928790Y-89814380D01*
X131529810Y-89814380D01*
X131571268Y-89818463D01*
X131571268Y-89818463D01*
G37*
G36*
X129511956Y-87276974D02*
G01*
X129521536Y-87279880D01*
X129529824Y-87284310D01*
X129530360Y-87284597D01*
X129538095Y-87290945D01*
X129548054Y-87303080D01*
X129555374Y-87314036D01*
X129572701Y-87331363D01*
X129593076Y-87344977D01*
X129615715Y-87354355D01*
X129639748Y-87359135D01*
X129664252Y-87359135D01*
X129688285Y-87354355D01*
X129710924Y-87344977D01*
X129731298Y-87331364D01*
X129748625Y-87314037D01*
X129755946Y-87303081D01*
X129759556Y-87298682D01*
X129759557Y-87298680D01*
X129765905Y-87290945D01*
X129773640Y-87284597D01*
X129774176Y-87284310D01*
X129782464Y-87279880D01*
X129792044Y-87276974D01*
X129808138Y-87275389D01*
X130295862Y-87275389D01*
X130314200Y-87277195D01*
X130326451Y-87277797D01*
X130344871Y-87277797D01*
X130367109Y-87279987D01*
X130451191Y-87296712D01*
X130472588Y-87303203D01*
X130551789Y-87336008D01*
X130571495Y-87346542D01*
X130642785Y-87394176D01*
X130647554Y-87398090D01*
X130647557Y-87398092D01*
X130655292Y-87404440D01*
X130655296Y-87404444D01*
X130660059Y-87408353D01*
X130720687Y-87468981D01*
X130724596Y-87473744D01*
X130724600Y-87473748D01*
X130730948Y-87481483D01*
X130734864Y-87486255D01*
X130782498Y-87557545D01*
X130793032Y-87577251D01*
X130825837Y-87656452D01*
X130832328Y-87677849D01*
X130849053Y-87761931D01*
X130851243Y-87784169D01*
X130851243Y-87802589D01*
X130851845Y-87814840D01*
X130853651Y-87833178D01*
X130853651Y-88320902D01*
X130851845Y-88339240D01*
X130851243Y-88351491D01*
X130851243Y-88369911D01*
X130849053Y-88392149D01*
X130832328Y-88476231D01*
X130825837Y-88497628D01*
X130793032Y-88576829D01*
X130782498Y-88596535D01*
X130734864Y-88667825D01*
X130730950Y-88672594D01*
X130730948Y-88672597D01*
X130724600Y-88680332D01*
X130724596Y-88680336D01*
X130720687Y-88685099D01*
X130660059Y-88745727D01*
X130655296Y-88749636D01*
X130655292Y-88749640D01*
X130647557Y-88755988D01*
X130647554Y-88755990D01*
X130642785Y-88759904D01*
X130571495Y-88807538D01*
X130551789Y-88818072D01*
X130472588Y-88850877D01*
X130451191Y-88857368D01*
X130367109Y-88874093D01*
X130344871Y-88876283D01*
X130326451Y-88876283D01*
X130314200Y-88876885D01*
X130295862Y-88878691D01*
X129808138Y-88878691D01*
X129792044Y-88877106D01*
X129782464Y-88874200D01*
X129773642Y-88869484D01*
X129773640Y-88869483D01*
X129765905Y-88863135D01*
X129759557Y-88855400D01*
X129755946Y-88851000D01*
X129748626Y-88840044D01*
X129731299Y-88822717D01*
X129710924Y-88809103D01*
X129688285Y-88799725D01*
X129664252Y-88794945D01*
X129639748Y-88794945D01*
X129615715Y-88799725D01*
X129593076Y-88809103D01*
X129572702Y-88822716D01*
X129555375Y-88840043D01*
X129548054Y-88850999D01*
X129544444Y-88855398D01*
X129544443Y-88855400D01*
X129538095Y-88863135D01*
X129530360Y-88869483D01*
X129530358Y-88869484D01*
X129521536Y-88874200D01*
X129511956Y-88877106D01*
X129495862Y-88878691D01*
X129008138Y-88878691D01*
X128989800Y-88876885D01*
X128977549Y-88876283D01*
X128959129Y-88876283D01*
X128936891Y-88874093D01*
X128852809Y-88857368D01*
X128831412Y-88850877D01*
X128752211Y-88818072D01*
X128732505Y-88807538D01*
X128661215Y-88759904D01*
X128656446Y-88755990D01*
X128656443Y-88755988D01*
X128648708Y-88749640D01*
X128648704Y-88749636D01*
X128643941Y-88745727D01*
X128583313Y-88685099D01*
X128579404Y-88680336D01*
X128579400Y-88680332D01*
X128573052Y-88672597D01*
X128573050Y-88672594D01*
X128569136Y-88667825D01*
X128521502Y-88596535D01*
X128510968Y-88576829D01*
X128478163Y-88497628D01*
X128471672Y-88476231D01*
X128454947Y-88392149D01*
X128452757Y-88369911D01*
X128452757Y-88351491D01*
X128452155Y-88339240D01*
X128450349Y-88320902D01*
X128450349Y-87833178D01*
X128452155Y-87814840D01*
X128452757Y-87802589D01*
X128452757Y-87784169D01*
X128454947Y-87761931D01*
X128471672Y-87677849D01*
X128478163Y-87656452D01*
X128510968Y-87577251D01*
X128521502Y-87557545D01*
X128569136Y-87486255D01*
X128573052Y-87481483D01*
X128579400Y-87473748D01*
X128579404Y-87473744D01*
X128583313Y-87468981D01*
X128643941Y-87408353D01*
X128648704Y-87404444D01*
X128648708Y-87404440D01*
X128656443Y-87398092D01*
X128656446Y-87398090D01*
X128661215Y-87394176D01*
X128732505Y-87346542D01*
X128752211Y-87336008D01*
X128831412Y-87303203D01*
X128852809Y-87296712D01*
X128936891Y-87279987D01*
X128959129Y-87277797D01*
X128977549Y-87277797D01*
X128989800Y-87277195D01*
X129008138Y-87275389D01*
X129495862Y-87275389D01*
X129511956Y-87276974D01*
X129511956Y-87276974D01*
G37*
G36*
X132136380Y-85018880D02*
G01*
X130764780Y-85018880D01*
X130764780Y-79837280D01*
X132136380Y-79837280D01*
X132136380Y-85018880D01*
X132136380Y-85018880D01*
G37*
G36*
X154106380Y-85018880D02*
G01*
X152734780Y-85018880D01*
X152734780Y-79837280D01*
X154106380Y-79837280D01*
X154106380Y-85018880D01*
X154106380Y-85018880D01*
G37*
G36*
X144466380Y-84458880D02*
G01*
X140404780Y-84458880D01*
X140404780Y-80397280D01*
X144466380Y-80397280D01*
X144466380Y-84458880D01*
X144466380Y-84458880D01*
G37*
G36*
X173309312Y-72239313D02*
G01*
X173764282Y-72427768D01*
X173764284Y-72427769D01*
X173970405Y-72565495D01*
X174173746Y-72701363D01*
X174521967Y-73049584D01*
X174795562Y-73459048D01*
X174984017Y-73914018D01*
X175080090Y-74397010D01*
X175080090Y-74889470D01*
X174984017Y-75372462D01*
X174795562Y-75827432D01*
X174795561Y-75827434D01*
X174521966Y-76236897D01*
X174173747Y-76585116D01*
X173764284Y-76858711D01*
X173764283Y-76858712D01*
X173764282Y-76858712D01*
X173309312Y-77047167D01*
X172826320Y-77143240D01*
X172333860Y-77143240D01*
X171850868Y-77047167D01*
X171395898Y-76858712D01*
X171395897Y-76858712D01*
X171395896Y-76858711D01*
X170986433Y-76585116D01*
X170638214Y-76236897D01*
X170364619Y-75827434D01*
X170364618Y-75827432D01*
X170176163Y-75372462D01*
X170080090Y-74889470D01*
X170080090Y-74397010D01*
X170176163Y-73914018D01*
X170364618Y-73459048D01*
X170638213Y-73049584D01*
X170986434Y-72701363D01*
X171189775Y-72565495D01*
X171395896Y-72427769D01*
X171395898Y-72427768D01*
X171850868Y-72239313D01*
X172333860Y-72143240D01*
X172826320Y-72143240D01*
X173309312Y-72239313D01*
X173309312Y-72239313D01*
G37*
G36*
X114325902Y-72239313D02*
G01*
X114780872Y-72427768D01*
X114780874Y-72427769D01*
X114986995Y-72565495D01*
X115190336Y-72701363D01*
X115538557Y-73049584D01*
X115812152Y-73459048D01*
X116000607Y-73914018D01*
X116096680Y-74397010D01*
X116096680Y-74889470D01*
X116000607Y-75372462D01*
X115812152Y-75827432D01*
X115812151Y-75827434D01*
X115538556Y-76236897D01*
X115190337Y-76585116D01*
X114780874Y-76858711D01*
X114780873Y-76858712D01*
X114780872Y-76858712D01*
X114325902Y-77047167D01*
X113842910Y-77143240D01*
X113350450Y-77143240D01*
X112867458Y-77047167D01*
X112412488Y-76858712D01*
X112412487Y-76858712D01*
X112412486Y-76858711D01*
X112003023Y-76585116D01*
X111654804Y-76236897D01*
X111381209Y-75827434D01*
X111381208Y-75827432D01*
X111192753Y-75372462D01*
X111096680Y-74889470D01*
X111096680Y-74397010D01*
X111192753Y-73914018D01*
X111381208Y-73459048D01*
X111654803Y-73049584D01*
X112003024Y-72701363D01*
X112206365Y-72565495D01*
X112412486Y-72427769D01*
X112412488Y-72427768D01*
X112867458Y-72239313D01*
X113350450Y-72143240D01*
X113842910Y-72143240D01*
X114325902Y-72239313D01*
X114325902Y-72239313D01*
G37*
M02*
