G04 #@! TF.GenerationSoftware,KiCad,Pcbnew,(5.1.2)-2*
G04 #@! TF.CreationDate,2019-11-11T20:09:09+01:00*
G04 #@! TF.ProjectId,MCP25625_Breakoutboard,4d435032-3536-4323-955f-427265616b6f,rev?*
G04 #@! TF.SameCoordinates,Original*
G04 #@! TF.FileFunction,Soldermask,Bot*
G04 #@! TF.FilePolarity,Negative*
%FSLAX46Y46*%
G04 Gerber Fmt 4.6, Leading zero omitted, Abs format (unit mm)*
G04 Created by KiCad (PCBNEW (5.1.2)-2) date 2019-11-11 20:09:09*
%MOMM*%
%LPD*%
G04 APERTURE LIST*
%ADD10C,0.100000*%
G04 APERTURE END LIST*
D10*
G36*
X153023523Y-112625519D02*
G01*
X153089707Y-112632037D01*
X153259546Y-112683557D01*
X153416071Y-112767222D01*
X153451809Y-112796552D01*
X153553266Y-112879814D01*
X153636528Y-112981271D01*
X153665858Y-113017009D01*
X153749523Y-113173534D01*
X153801043Y-113343373D01*
X153818439Y-113520000D01*
X153801043Y-113696627D01*
X153749523Y-113866466D01*
X153665858Y-114022991D01*
X153636528Y-114058729D01*
X153553266Y-114160186D01*
X153451809Y-114243448D01*
X153416071Y-114272778D01*
X153259546Y-114356443D01*
X153089707Y-114407963D01*
X153023522Y-114414482D01*
X152957340Y-114421000D01*
X152868820Y-114421000D01*
X152802638Y-114414482D01*
X152736453Y-114407963D01*
X152566614Y-114356443D01*
X152410089Y-114272778D01*
X152374351Y-114243448D01*
X152272894Y-114160186D01*
X152189632Y-114058729D01*
X152160302Y-114022991D01*
X152076637Y-113866466D01*
X152025117Y-113696627D01*
X152007721Y-113520000D01*
X152025117Y-113343373D01*
X152076637Y-113173534D01*
X152160302Y-113017009D01*
X152189632Y-112981271D01*
X152272894Y-112879814D01*
X152374351Y-112796552D01*
X152410089Y-112767222D01*
X152566614Y-112683557D01*
X152736453Y-112632037D01*
X152802637Y-112625519D01*
X152868820Y-112619000D01*
X152957340Y-112619000D01*
X153023523Y-112625519D01*
X153023523Y-112625519D01*
G37*
G36*
X138574080Y-114401000D02*
G01*
X136772080Y-114401000D01*
X136772080Y-112599000D01*
X138574080Y-112599000D01*
X138574080Y-114401000D01*
X138574080Y-114401000D01*
G37*
G36*
X153023523Y-110085519D02*
G01*
X153089707Y-110092037D01*
X153259546Y-110143557D01*
X153416071Y-110227222D01*
X153451809Y-110256552D01*
X153553266Y-110339814D01*
X153636528Y-110441271D01*
X153665858Y-110477009D01*
X153749523Y-110633534D01*
X153801043Y-110803373D01*
X153818439Y-110980000D01*
X153801043Y-111156627D01*
X153749523Y-111326466D01*
X153665858Y-111482991D01*
X153636528Y-111518729D01*
X153553266Y-111620186D01*
X153451809Y-111703448D01*
X153416071Y-111732778D01*
X153259546Y-111816443D01*
X153089707Y-111867963D01*
X153023522Y-111874482D01*
X152957340Y-111881000D01*
X152868820Y-111881000D01*
X152802638Y-111874482D01*
X152736453Y-111867963D01*
X152566614Y-111816443D01*
X152410089Y-111732778D01*
X152374351Y-111703448D01*
X152272894Y-111620186D01*
X152189632Y-111518729D01*
X152160302Y-111482991D01*
X152076637Y-111326466D01*
X152025117Y-111156627D01*
X152007721Y-110980000D01*
X152025117Y-110803373D01*
X152076637Y-110633534D01*
X152160302Y-110477009D01*
X152189632Y-110441271D01*
X152272894Y-110339814D01*
X152374351Y-110256552D01*
X152410089Y-110227222D01*
X152566614Y-110143557D01*
X152736453Y-110092037D01*
X152802637Y-110085519D01*
X152868820Y-110079000D01*
X152957340Y-110079000D01*
X153023523Y-110085519D01*
X153023523Y-110085519D01*
G37*
G36*
X137783522Y-110065518D02*
G01*
X137849707Y-110072037D01*
X138019546Y-110123557D01*
X138176071Y-110207222D01*
X138200441Y-110227222D01*
X138313266Y-110319814D01*
X138396528Y-110421271D01*
X138425858Y-110457009D01*
X138509523Y-110613534D01*
X138561043Y-110783373D01*
X138578439Y-110960000D01*
X138561043Y-111136627D01*
X138509523Y-111306466D01*
X138425858Y-111462991D01*
X138409446Y-111482989D01*
X138313266Y-111600186D01*
X138211809Y-111683448D01*
X138176071Y-111712778D01*
X138019546Y-111796443D01*
X137849707Y-111847963D01*
X137783523Y-111854481D01*
X137717340Y-111861000D01*
X137628820Y-111861000D01*
X137562637Y-111854481D01*
X137496453Y-111847963D01*
X137326614Y-111796443D01*
X137170089Y-111712778D01*
X137134351Y-111683448D01*
X137032894Y-111600186D01*
X136936714Y-111482989D01*
X136920302Y-111462991D01*
X136836637Y-111306466D01*
X136785117Y-111136627D01*
X136767721Y-110960000D01*
X136785117Y-110783373D01*
X136836637Y-110613534D01*
X136920302Y-110457009D01*
X136949632Y-110421271D01*
X137032894Y-110319814D01*
X137145719Y-110227222D01*
X137170089Y-110207222D01*
X137326614Y-110123557D01*
X137496453Y-110072037D01*
X137562638Y-110065518D01*
X137628820Y-110059000D01*
X137717340Y-110059000D01*
X137783522Y-110065518D01*
X137783522Y-110065518D01*
G37*
G36*
X153023522Y-107545518D02*
G01*
X153089707Y-107552037D01*
X153259546Y-107603557D01*
X153416071Y-107687222D01*
X153451809Y-107716552D01*
X153553266Y-107799814D01*
X153636528Y-107901271D01*
X153665858Y-107937009D01*
X153749523Y-108093534D01*
X153801043Y-108263373D01*
X153818439Y-108440000D01*
X153801043Y-108616627D01*
X153749523Y-108786466D01*
X153665858Y-108942991D01*
X153636528Y-108978729D01*
X153553266Y-109080186D01*
X153451809Y-109163448D01*
X153416071Y-109192778D01*
X153259546Y-109276443D01*
X153089707Y-109327963D01*
X153023523Y-109334481D01*
X152957340Y-109341000D01*
X152868820Y-109341000D01*
X152802637Y-109334481D01*
X152736453Y-109327963D01*
X152566614Y-109276443D01*
X152410089Y-109192778D01*
X152374351Y-109163448D01*
X152272894Y-109080186D01*
X152189632Y-108978729D01*
X152160302Y-108942991D01*
X152076637Y-108786466D01*
X152025117Y-108616627D01*
X152007721Y-108440000D01*
X152025117Y-108263373D01*
X152076637Y-108093534D01*
X152160302Y-107937009D01*
X152189632Y-107901271D01*
X152272894Y-107799814D01*
X152374351Y-107716552D01*
X152410089Y-107687222D01*
X152566614Y-107603557D01*
X152736453Y-107552037D01*
X152802638Y-107545518D01*
X152868820Y-107539000D01*
X152957340Y-107539000D01*
X153023522Y-107545518D01*
X153023522Y-107545518D01*
G37*
G36*
X137783522Y-107525518D02*
G01*
X137849707Y-107532037D01*
X138019546Y-107583557D01*
X138176071Y-107667222D01*
X138200441Y-107687222D01*
X138313266Y-107779814D01*
X138396528Y-107881271D01*
X138425858Y-107917009D01*
X138509523Y-108073534D01*
X138561043Y-108243373D01*
X138578439Y-108420000D01*
X138561043Y-108596627D01*
X138509523Y-108766466D01*
X138425858Y-108922991D01*
X138409446Y-108942989D01*
X138313266Y-109060186D01*
X138211809Y-109143448D01*
X138176071Y-109172778D01*
X138019546Y-109256443D01*
X137849707Y-109307963D01*
X137783522Y-109314482D01*
X137717340Y-109321000D01*
X137628820Y-109321000D01*
X137562638Y-109314482D01*
X137496453Y-109307963D01*
X137326614Y-109256443D01*
X137170089Y-109172778D01*
X137134351Y-109143448D01*
X137032894Y-109060186D01*
X136936714Y-108942989D01*
X136920302Y-108922991D01*
X136836637Y-108766466D01*
X136785117Y-108596627D01*
X136767721Y-108420000D01*
X136785117Y-108243373D01*
X136836637Y-108073534D01*
X136920302Y-107917009D01*
X136949632Y-107881271D01*
X137032894Y-107779814D01*
X137145719Y-107687222D01*
X137170089Y-107667222D01*
X137326614Y-107583557D01*
X137496453Y-107532037D01*
X137562638Y-107525518D01*
X137628820Y-107519000D01*
X137717340Y-107519000D01*
X137783522Y-107525518D01*
X137783522Y-107525518D01*
G37*
G36*
X153023522Y-105005518D02*
G01*
X153089707Y-105012037D01*
X153259546Y-105063557D01*
X153416071Y-105147222D01*
X153451809Y-105176552D01*
X153553266Y-105259814D01*
X153636528Y-105361271D01*
X153665858Y-105397009D01*
X153749523Y-105553534D01*
X153801043Y-105723373D01*
X153818439Y-105900000D01*
X153801043Y-106076627D01*
X153749523Y-106246466D01*
X153665858Y-106402991D01*
X153636528Y-106438729D01*
X153553266Y-106540186D01*
X153451809Y-106623448D01*
X153416071Y-106652778D01*
X153259546Y-106736443D01*
X153089707Y-106787963D01*
X153023523Y-106794481D01*
X152957340Y-106801000D01*
X152868820Y-106801000D01*
X152802637Y-106794481D01*
X152736453Y-106787963D01*
X152566614Y-106736443D01*
X152410089Y-106652778D01*
X152374351Y-106623448D01*
X152272894Y-106540186D01*
X152189632Y-106438729D01*
X152160302Y-106402991D01*
X152076637Y-106246466D01*
X152025117Y-106076627D01*
X152007721Y-105900000D01*
X152025117Y-105723373D01*
X152076637Y-105553534D01*
X152160302Y-105397009D01*
X152189632Y-105361271D01*
X152272894Y-105259814D01*
X152374351Y-105176552D01*
X152410089Y-105147222D01*
X152566614Y-105063557D01*
X152736453Y-105012037D01*
X152802638Y-105005518D01*
X152868820Y-104999000D01*
X152957340Y-104999000D01*
X153023522Y-105005518D01*
X153023522Y-105005518D01*
G37*
G36*
X137783522Y-104985518D02*
G01*
X137849707Y-104992037D01*
X138019546Y-105043557D01*
X138176071Y-105127222D01*
X138200441Y-105147222D01*
X138313266Y-105239814D01*
X138396528Y-105341271D01*
X138425858Y-105377009D01*
X138509523Y-105533534D01*
X138561043Y-105703373D01*
X138578439Y-105880000D01*
X138561043Y-106056627D01*
X138509523Y-106226466D01*
X138425858Y-106382991D01*
X138409446Y-106402989D01*
X138313266Y-106520186D01*
X138211809Y-106603448D01*
X138176071Y-106632778D01*
X138019546Y-106716443D01*
X137849707Y-106767963D01*
X137783522Y-106774482D01*
X137717340Y-106781000D01*
X137628820Y-106781000D01*
X137562638Y-106774482D01*
X137496453Y-106767963D01*
X137326614Y-106716443D01*
X137170089Y-106632778D01*
X137134351Y-106603448D01*
X137032894Y-106520186D01*
X136936714Y-106402989D01*
X136920302Y-106382991D01*
X136836637Y-106226466D01*
X136785117Y-106056627D01*
X136767721Y-105880000D01*
X136785117Y-105703373D01*
X136836637Y-105533534D01*
X136920302Y-105377009D01*
X136949632Y-105341271D01*
X137032894Y-105239814D01*
X137145719Y-105147222D01*
X137170089Y-105127222D01*
X137326614Y-105043557D01*
X137496453Y-104992037D01*
X137562638Y-104985518D01*
X137628820Y-104979000D01*
X137717340Y-104979000D01*
X137783522Y-104985518D01*
X137783522Y-104985518D01*
G37*
G36*
X153023523Y-102465519D02*
G01*
X153089707Y-102472037D01*
X153259546Y-102523557D01*
X153416071Y-102607222D01*
X153451809Y-102636552D01*
X153553266Y-102719814D01*
X153636528Y-102821271D01*
X153665858Y-102857009D01*
X153749523Y-103013534D01*
X153801043Y-103183373D01*
X153818439Y-103360000D01*
X153801043Y-103536627D01*
X153749523Y-103706466D01*
X153665858Y-103862991D01*
X153636528Y-103898729D01*
X153553266Y-104000186D01*
X153451809Y-104083448D01*
X153416071Y-104112778D01*
X153259546Y-104196443D01*
X153089707Y-104247963D01*
X153023522Y-104254482D01*
X152957340Y-104261000D01*
X152868820Y-104261000D01*
X152802637Y-104254481D01*
X152736453Y-104247963D01*
X152566614Y-104196443D01*
X152410089Y-104112778D01*
X152374351Y-104083448D01*
X152272894Y-104000186D01*
X152189632Y-103898729D01*
X152160302Y-103862991D01*
X152076637Y-103706466D01*
X152025117Y-103536627D01*
X152007721Y-103360000D01*
X152025117Y-103183373D01*
X152076637Y-103013534D01*
X152160302Y-102857009D01*
X152189632Y-102821271D01*
X152272894Y-102719814D01*
X152374351Y-102636552D01*
X152410089Y-102607222D01*
X152566614Y-102523557D01*
X152736453Y-102472037D01*
X152802637Y-102465519D01*
X152868820Y-102459000D01*
X152957340Y-102459000D01*
X153023523Y-102465519D01*
X153023523Y-102465519D01*
G37*
G36*
X137783522Y-102445518D02*
G01*
X137849707Y-102452037D01*
X138019546Y-102503557D01*
X138176071Y-102587222D01*
X138200441Y-102607222D01*
X138313266Y-102699814D01*
X138396528Y-102801271D01*
X138425858Y-102837009D01*
X138509523Y-102993534D01*
X138561043Y-103163373D01*
X138578439Y-103340000D01*
X138561043Y-103516627D01*
X138509523Y-103686466D01*
X138425858Y-103842991D01*
X138409446Y-103862989D01*
X138313266Y-103980186D01*
X138211809Y-104063448D01*
X138176071Y-104092778D01*
X138019546Y-104176443D01*
X137849707Y-104227963D01*
X137783522Y-104234482D01*
X137717340Y-104241000D01*
X137628820Y-104241000D01*
X137562638Y-104234482D01*
X137496453Y-104227963D01*
X137326614Y-104176443D01*
X137170089Y-104092778D01*
X137134351Y-104063448D01*
X137032894Y-103980186D01*
X136936714Y-103862989D01*
X136920302Y-103842991D01*
X136836637Y-103686466D01*
X136785117Y-103516627D01*
X136767721Y-103340000D01*
X136785117Y-103163373D01*
X136836637Y-102993534D01*
X136920302Y-102837009D01*
X136949632Y-102801271D01*
X137032894Y-102699814D01*
X137145719Y-102607222D01*
X137170089Y-102587222D01*
X137326614Y-102503557D01*
X137496453Y-102452037D01*
X137562637Y-102445519D01*
X137628820Y-102439000D01*
X137717340Y-102439000D01*
X137783522Y-102445518D01*
X137783522Y-102445518D01*
G37*
G36*
X153023523Y-99925519D02*
G01*
X153089707Y-99932037D01*
X153259546Y-99983557D01*
X153416071Y-100067222D01*
X153451809Y-100096552D01*
X153553266Y-100179814D01*
X153636528Y-100281271D01*
X153665858Y-100317009D01*
X153749523Y-100473534D01*
X153801043Y-100643373D01*
X153818439Y-100820000D01*
X153801043Y-100996627D01*
X153749523Y-101166466D01*
X153665858Y-101322991D01*
X153636528Y-101358729D01*
X153553266Y-101460186D01*
X153451809Y-101543448D01*
X153416071Y-101572778D01*
X153259546Y-101656443D01*
X153089707Y-101707963D01*
X153023522Y-101714482D01*
X152957340Y-101721000D01*
X152868820Y-101721000D01*
X152802637Y-101714481D01*
X152736453Y-101707963D01*
X152566614Y-101656443D01*
X152410089Y-101572778D01*
X152374351Y-101543448D01*
X152272894Y-101460186D01*
X152189632Y-101358729D01*
X152160302Y-101322991D01*
X152076637Y-101166466D01*
X152025117Y-100996627D01*
X152007721Y-100820000D01*
X152025117Y-100643373D01*
X152076637Y-100473534D01*
X152160302Y-100317009D01*
X152189632Y-100281271D01*
X152272894Y-100179814D01*
X152374351Y-100096552D01*
X152410089Y-100067222D01*
X152566614Y-99983557D01*
X152736453Y-99932037D01*
X152802637Y-99925519D01*
X152868820Y-99919000D01*
X152957340Y-99919000D01*
X153023523Y-99925519D01*
X153023523Y-99925519D01*
G37*
G36*
X137783523Y-99905519D02*
G01*
X137849707Y-99912037D01*
X138019546Y-99963557D01*
X138176071Y-100047222D01*
X138200441Y-100067222D01*
X138313266Y-100159814D01*
X138396528Y-100261271D01*
X138425858Y-100297009D01*
X138509523Y-100453534D01*
X138561043Y-100623373D01*
X138578439Y-100800000D01*
X138561043Y-100976627D01*
X138509523Y-101146466D01*
X138425858Y-101302991D01*
X138409446Y-101322989D01*
X138313266Y-101440186D01*
X138211809Y-101523448D01*
X138176071Y-101552778D01*
X138019546Y-101636443D01*
X137849707Y-101687963D01*
X137783522Y-101694482D01*
X137717340Y-101701000D01*
X137628820Y-101701000D01*
X137562637Y-101694481D01*
X137496453Y-101687963D01*
X137326614Y-101636443D01*
X137170089Y-101552778D01*
X137134351Y-101523448D01*
X137032894Y-101440186D01*
X136936714Y-101322989D01*
X136920302Y-101302991D01*
X136836637Y-101146466D01*
X136785117Y-100976627D01*
X136767721Y-100800000D01*
X136785117Y-100623373D01*
X136836637Y-100453534D01*
X136920302Y-100297009D01*
X136949632Y-100261271D01*
X137032894Y-100159814D01*
X137145719Y-100067222D01*
X137170089Y-100047222D01*
X137326614Y-99963557D01*
X137496453Y-99912037D01*
X137562637Y-99905519D01*
X137628820Y-99899000D01*
X137717340Y-99899000D01*
X137783523Y-99905519D01*
X137783523Y-99905519D01*
G37*
G36*
X153023523Y-97385519D02*
G01*
X153089707Y-97392037D01*
X153259546Y-97443557D01*
X153416071Y-97527222D01*
X153451809Y-97556552D01*
X153553266Y-97639814D01*
X153636528Y-97741271D01*
X153665858Y-97777009D01*
X153749523Y-97933534D01*
X153801043Y-98103373D01*
X153818439Y-98280000D01*
X153801043Y-98456627D01*
X153749523Y-98626466D01*
X153665858Y-98782991D01*
X153636528Y-98818729D01*
X153553266Y-98920186D01*
X153451809Y-99003448D01*
X153416071Y-99032778D01*
X153259546Y-99116443D01*
X153089707Y-99167963D01*
X153023522Y-99174482D01*
X152957340Y-99181000D01*
X152868820Y-99181000D01*
X152802638Y-99174482D01*
X152736453Y-99167963D01*
X152566614Y-99116443D01*
X152410089Y-99032778D01*
X152374351Y-99003448D01*
X152272894Y-98920186D01*
X152189632Y-98818729D01*
X152160302Y-98782991D01*
X152076637Y-98626466D01*
X152025117Y-98456627D01*
X152007721Y-98280000D01*
X152025117Y-98103373D01*
X152076637Y-97933534D01*
X152160302Y-97777009D01*
X152189632Y-97741271D01*
X152272894Y-97639814D01*
X152374351Y-97556552D01*
X152410089Y-97527222D01*
X152566614Y-97443557D01*
X152736453Y-97392037D01*
X152802637Y-97385519D01*
X152868820Y-97379000D01*
X152957340Y-97379000D01*
X153023523Y-97385519D01*
X153023523Y-97385519D01*
G37*
G36*
X137783523Y-97365519D02*
G01*
X137849707Y-97372037D01*
X138019546Y-97423557D01*
X138176071Y-97507222D01*
X138200441Y-97527222D01*
X138313266Y-97619814D01*
X138396528Y-97721271D01*
X138425858Y-97757009D01*
X138509523Y-97913534D01*
X138561043Y-98083373D01*
X138578439Y-98260000D01*
X138561043Y-98436627D01*
X138509523Y-98606466D01*
X138425858Y-98762991D01*
X138409446Y-98782989D01*
X138313266Y-98900186D01*
X138211809Y-98983448D01*
X138176071Y-99012778D01*
X138019546Y-99096443D01*
X137849707Y-99147963D01*
X137783523Y-99154481D01*
X137717340Y-99161000D01*
X137628820Y-99161000D01*
X137562637Y-99154481D01*
X137496453Y-99147963D01*
X137326614Y-99096443D01*
X137170089Y-99012778D01*
X137134351Y-98983448D01*
X137032894Y-98900186D01*
X136936714Y-98782989D01*
X136920302Y-98762991D01*
X136836637Y-98606466D01*
X136785117Y-98436627D01*
X136767721Y-98260000D01*
X136785117Y-98083373D01*
X136836637Y-97913534D01*
X136920302Y-97757009D01*
X136949632Y-97721271D01*
X137032894Y-97619814D01*
X137145719Y-97527222D01*
X137170089Y-97507222D01*
X137326614Y-97423557D01*
X137496453Y-97372037D01*
X137562637Y-97365519D01*
X137628820Y-97359000D01*
X137717340Y-97359000D01*
X137783523Y-97365519D01*
X137783523Y-97365519D01*
G37*
G36*
X153023522Y-94845518D02*
G01*
X153089707Y-94852037D01*
X153259546Y-94903557D01*
X153416071Y-94987222D01*
X153451809Y-95016552D01*
X153553266Y-95099814D01*
X153636528Y-95201271D01*
X153665858Y-95237009D01*
X153749523Y-95393534D01*
X153801043Y-95563373D01*
X153818439Y-95740000D01*
X153801043Y-95916627D01*
X153749523Y-96086466D01*
X153665858Y-96242991D01*
X153636528Y-96278729D01*
X153553266Y-96380186D01*
X153451809Y-96463448D01*
X153416071Y-96492778D01*
X153259546Y-96576443D01*
X153089707Y-96627963D01*
X153023522Y-96634482D01*
X152957340Y-96641000D01*
X152868820Y-96641000D01*
X152802638Y-96634482D01*
X152736453Y-96627963D01*
X152566614Y-96576443D01*
X152410089Y-96492778D01*
X152374351Y-96463448D01*
X152272894Y-96380186D01*
X152189632Y-96278729D01*
X152160302Y-96242991D01*
X152076637Y-96086466D01*
X152025117Y-95916627D01*
X152007721Y-95740000D01*
X152025117Y-95563373D01*
X152076637Y-95393534D01*
X152160302Y-95237009D01*
X152189632Y-95201271D01*
X152272894Y-95099814D01*
X152374351Y-95016552D01*
X152410089Y-94987222D01*
X152566614Y-94903557D01*
X152736453Y-94852037D01*
X152802638Y-94845518D01*
X152868820Y-94839000D01*
X152957340Y-94839000D01*
X153023522Y-94845518D01*
X153023522Y-94845518D01*
G37*
G36*
X137783522Y-94825518D02*
G01*
X137849707Y-94832037D01*
X138019546Y-94883557D01*
X138176071Y-94967222D01*
X138200441Y-94987222D01*
X138313266Y-95079814D01*
X138396528Y-95181271D01*
X138425858Y-95217009D01*
X138509523Y-95373534D01*
X138561043Y-95543373D01*
X138578439Y-95720000D01*
X138561043Y-95896627D01*
X138509523Y-96066466D01*
X138425858Y-96222991D01*
X138409446Y-96242989D01*
X138313266Y-96360186D01*
X138211809Y-96443448D01*
X138176071Y-96472778D01*
X138019546Y-96556443D01*
X137849707Y-96607963D01*
X137783522Y-96614482D01*
X137717340Y-96621000D01*
X137628820Y-96621000D01*
X137562638Y-96614482D01*
X137496453Y-96607963D01*
X137326614Y-96556443D01*
X137170089Y-96472778D01*
X137134351Y-96443448D01*
X137032894Y-96360186D01*
X136936714Y-96242989D01*
X136920302Y-96222991D01*
X136836637Y-96066466D01*
X136785117Y-95896627D01*
X136767721Y-95720000D01*
X136785117Y-95543373D01*
X136836637Y-95373534D01*
X136920302Y-95217009D01*
X136949632Y-95181271D01*
X137032894Y-95079814D01*
X137145719Y-94987222D01*
X137170089Y-94967222D01*
X137326614Y-94883557D01*
X137496453Y-94832037D01*
X137562638Y-94825518D01*
X137628820Y-94819000D01*
X137717340Y-94819000D01*
X137783522Y-94825518D01*
X137783522Y-94825518D01*
G37*
G36*
X153023523Y-92305519D02*
G01*
X153089707Y-92312037D01*
X153259546Y-92363557D01*
X153416071Y-92447222D01*
X153451809Y-92476552D01*
X153553266Y-92559814D01*
X153636528Y-92661271D01*
X153665858Y-92697009D01*
X153749523Y-92853534D01*
X153801043Y-93023373D01*
X153818439Y-93200000D01*
X153801043Y-93376627D01*
X153749523Y-93546466D01*
X153665858Y-93702991D01*
X153636528Y-93738729D01*
X153553266Y-93840186D01*
X153451809Y-93923448D01*
X153416071Y-93952778D01*
X153259546Y-94036443D01*
X153089707Y-94087963D01*
X153023522Y-94094482D01*
X152957340Y-94101000D01*
X152868820Y-94101000D01*
X152802638Y-94094482D01*
X152736453Y-94087963D01*
X152566614Y-94036443D01*
X152410089Y-93952778D01*
X152374351Y-93923448D01*
X152272894Y-93840186D01*
X152189632Y-93738729D01*
X152160302Y-93702991D01*
X152076637Y-93546466D01*
X152025117Y-93376627D01*
X152007721Y-93200000D01*
X152025117Y-93023373D01*
X152076637Y-92853534D01*
X152160302Y-92697009D01*
X152189632Y-92661271D01*
X152272894Y-92559814D01*
X152374351Y-92476552D01*
X152410089Y-92447222D01*
X152566614Y-92363557D01*
X152736453Y-92312037D01*
X152802637Y-92305519D01*
X152868820Y-92299000D01*
X152957340Y-92299000D01*
X153023523Y-92305519D01*
X153023523Y-92305519D01*
G37*
G36*
X137783522Y-92285518D02*
G01*
X137849707Y-92292037D01*
X138019546Y-92343557D01*
X138176071Y-92427222D01*
X138200441Y-92447222D01*
X138313266Y-92539814D01*
X138396528Y-92641271D01*
X138425858Y-92677009D01*
X138509523Y-92833534D01*
X138561043Y-93003373D01*
X138578439Y-93180000D01*
X138561043Y-93356627D01*
X138509523Y-93526466D01*
X138425858Y-93682991D01*
X138409446Y-93702989D01*
X138313266Y-93820186D01*
X138211809Y-93903448D01*
X138176071Y-93932778D01*
X138019546Y-94016443D01*
X137849707Y-94067963D01*
X137783523Y-94074481D01*
X137717340Y-94081000D01*
X137628820Y-94081000D01*
X137562638Y-94074482D01*
X137496453Y-94067963D01*
X137326614Y-94016443D01*
X137170089Y-93932778D01*
X137134351Y-93903448D01*
X137032894Y-93820186D01*
X136936714Y-93702989D01*
X136920302Y-93682991D01*
X136836637Y-93526466D01*
X136785117Y-93356627D01*
X136767721Y-93180000D01*
X136785117Y-93003373D01*
X136836637Y-92833534D01*
X136920302Y-92677009D01*
X136949632Y-92641271D01*
X137032894Y-92539814D01*
X137145719Y-92447222D01*
X137170089Y-92427222D01*
X137326614Y-92343557D01*
X137496453Y-92292037D01*
X137562638Y-92285518D01*
X137628820Y-92279000D01*
X137717340Y-92279000D01*
X137783522Y-92285518D01*
X137783522Y-92285518D01*
G37*
G36*
X153023522Y-89765518D02*
G01*
X153089707Y-89772037D01*
X153259546Y-89823557D01*
X153416071Y-89907222D01*
X153451809Y-89936552D01*
X153553266Y-90019814D01*
X153636528Y-90121271D01*
X153665858Y-90157009D01*
X153749523Y-90313534D01*
X153801043Y-90483373D01*
X153818439Y-90660000D01*
X153801043Y-90836627D01*
X153749523Y-91006466D01*
X153665858Y-91162991D01*
X153636528Y-91198729D01*
X153553266Y-91300186D01*
X153451809Y-91383448D01*
X153416071Y-91412778D01*
X153259546Y-91496443D01*
X153089707Y-91547963D01*
X153023523Y-91554481D01*
X152957340Y-91561000D01*
X152868820Y-91561000D01*
X152802637Y-91554481D01*
X152736453Y-91547963D01*
X152566614Y-91496443D01*
X152410089Y-91412778D01*
X152374351Y-91383448D01*
X152272894Y-91300186D01*
X152189632Y-91198729D01*
X152160302Y-91162991D01*
X152076637Y-91006466D01*
X152025117Y-90836627D01*
X152007721Y-90660000D01*
X152025117Y-90483373D01*
X152076637Y-90313534D01*
X152160302Y-90157009D01*
X152189632Y-90121271D01*
X152272894Y-90019814D01*
X152374351Y-89936552D01*
X152410089Y-89907222D01*
X152566614Y-89823557D01*
X152736453Y-89772037D01*
X152802638Y-89765518D01*
X152868820Y-89759000D01*
X152957340Y-89759000D01*
X153023522Y-89765518D01*
X153023522Y-89765518D01*
G37*
G36*
X137783523Y-89745519D02*
G01*
X137849707Y-89752037D01*
X138019546Y-89803557D01*
X138176071Y-89887222D01*
X138200441Y-89907222D01*
X138313266Y-89999814D01*
X138396528Y-90101271D01*
X138425858Y-90137009D01*
X138509523Y-90293534D01*
X138561043Y-90463373D01*
X138578439Y-90640000D01*
X138561043Y-90816627D01*
X138509523Y-90986466D01*
X138425858Y-91142991D01*
X138409446Y-91162989D01*
X138313266Y-91280186D01*
X138211809Y-91363448D01*
X138176071Y-91392778D01*
X138019546Y-91476443D01*
X137849707Y-91527963D01*
X137783522Y-91534482D01*
X137717340Y-91541000D01*
X137628820Y-91541000D01*
X137562638Y-91534482D01*
X137496453Y-91527963D01*
X137326614Y-91476443D01*
X137170089Y-91392778D01*
X137134351Y-91363448D01*
X137032894Y-91280186D01*
X136936714Y-91162989D01*
X136920302Y-91142991D01*
X136836637Y-90986466D01*
X136785117Y-90816627D01*
X136767721Y-90640000D01*
X136785117Y-90463373D01*
X136836637Y-90293534D01*
X136920302Y-90137009D01*
X136949632Y-90101271D01*
X137032894Y-89999814D01*
X137145719Y-89907222D01*
X137170089Y-89887222D01*
X137326614Y-89803557D01*
X137496453Y-89752037D01*
X137562637Y-89745519D01*
X137628820Y-89739000D01*
X137717340Y-89739000D01*
X137783523Y-89745519D01*
X137783523Y-89745519D01*
G37*
G36*
X153023523Y-87225519D02*
G01*
X153089707Y-87232037D01*
X153259546Y-87283557D01*
X153416071Y-87367222D01*
X153451809Y-87396552D01*
X153553266Y-87479814D01*
X153636528Y-87581271D01*
X153665858Y-87617009D01*
X153749523Y-87773534D01*
X153801043Y-87943373D01*
X153818439Y-88120000D01*
X153801043Y-88296627D01*
X153749523Y-88466466D01*
X153665858Y-88622991D01*
X153636528Y-88658729D01*
X153553266Y-88760186D01*
X153451809Y-88843448D01*
X153416071Y-88872778D01*
X153259546Y-88956443D01*
X153089707Y-89007963D01*
X153023522Y-89014482D01*
X152957340Y-89021000D01*
X152868820Y-89021000D01*
X152802638Y-89014482D01*
X152736453Y-89007963D01*
X152566614Y-88956443D01*
X152410089Y-88872778D01*
X152374351Y-88843448D01*
X152272894Y-88760186D01*
X152189632Y-88658729D01*
X152160302Y-88622991D01*
X152076637Y-88466466D01*
X152025117Y-88296627D01*
X152007721Y-88120000D01*
X152025117Y-87943373D01*
X152076637Y-87773534D01*
X152160302Y-87617009D01*
X152189632Y-87581271D01*
X152272894Y-87479814D01*
X152374351Y-87396552D01*
X152410089Y-87367222D01*
X152566614Y-87283557D01*
X152736453Y-87232037D01*
X152802637Y-87225519D01*
X152868820Y-87219000D01*
X152957340Y-87219000D01*
X153023523Y-87225519D01*
X153023523Y-87225519D01*
G37*
G36*
X137783522Y-87205518D02*
G01*
X137849707Y-87212037D01*
X138019546Y-87263557D01*
X138176071Y-87347222D01*
X138200441Y-87367222D01*
X138313266Y-87459814D01*
X138396528Y-87561271D01*
X138425858Y-87597009D01*
X138509523Y-87753534D01*
X138561043Y-87923373D01*
X138578439Y-88100000D01*
X138561043Y-88276627D01*
X138509523Y-88446466D01*
X138425858Y-88602991D01*
X138409446Y-88622989D01*
X138313266Y-88740186D01*
X138211809Y-88823448D01*
X138176071Y-88852778D01*
X138019546Y-88936443D01*
X137849707Y-88987963D01*
X137783523Y-88994481D01*
X137717340Y-89001000D01*
X137628820Y-89001000D01*
X137562637Y-88994481D01*
X137496453Y-88987963D01*
X137326614Y-88936443D01*
X137170089Y-88852778D01*
X137134351Y-88823448D01*
X137032894Y-88740186D01*
X136936714Y-88622989D01*
X136920302Y-88602991D01*
X136836637Y-88446466D01*
X136785117Y-88276627D01*
X136767721Y-88100000D01*
X136785117Y-87923373D01*
X136836637Y-87753534D01*
X136920302Y-87597009D01*
X136949632Y-87561271D01*
X137032894Y-87459814D01*
X137145719Y-87367222D01*
X137170089Y-87347222D01*
X137326614Y-87263557D01*
X137496453Y-87212037D01*
X137562638Y-87205518D01*
X137628820Y-87199000D01*
X137717340Y-87199000D01*
X137783522Y-87205518D01*
X137783522Y-87205518D01*
G37*
G36*
X153023522Y-84685518D02*
G01*
X153089707Y-84692037D01*
X153259546Y-84743557D01*
X153416071Y-84827222D01*
X153451809Y-84856552D01*
X153553266Y-84939814D01*
X153636528Y-85041271D01*
X153665858Y-85077009D01*
X153749523Y-85233534D01*
X153801043Y-85403373D01*
X153818439Y-85580000D01*
X153801043Y-85756627D01*
X153749523Y-85926466D01*
X153665858Y-86082991D01*
X153636528Y-86118729D01*
X153553266Y-86220186D01*
X153451809Y-86303448D01*
X153416071Y-86332778D01*
X153259546Y-86416443D01*
X153089707Y-86467963D01*
X153023522Y-86474482D01*
X152957340Y-86481000D01*
X152868820Y-86481000D01*
X152802638Y-86474482D01*
X152736453Y-86467963D01*
X152566614Y-86416443D01*
X152410089Y-86332778D01*
X152374351Y-86303448D01*
X152272894Y-86220186D01*
X152189632Y-86118729D01*
X152160302Y-86082991D01*
X152076637Y-85926466D01*
X152025117Y-85756627D01*
X152007721Y-85580000D01*
X152025117Y-85403373D01*
X152076637Y-85233534D01*
X152160302Y-85077009D01*
X152189632Y-85041271D01*
X152272894Y-84939814D01*
X152374351Y-84856552D01*
X152410089Y-84827222D01*
X152566614Y-84743557D01*
X152736453Y-84692037D01*
X152802638Y-84685518D01*
X152868820Y-84679000D01*
X152957340Y-84679000D01*
X153023522Y-84685518D01*
X153023522Y-84685518D01*
G37*
G36*
X137783523Y-84665519D02*
G01*
X137849707Y-84672037D01*
X138019546Y-84723557D01*
X138176071Y-84807222D01*
X138200441Y-84827222D01*
X138313266Y-84919814D01*
X138396528Y-85021271D01*
X138425858Y-85057009D01*
X138509523Y-85213534D01*
X138561043Y-85383373D01*
X138578439Y-85560000D01*
X138561043Y-85736627D01*
X138509523Y-85906466D01*
X138425858Y-86062991D01*
X138409446Y-86082989D01*
X138313266Y-86200186D01*
X138211809Y-86283448D01*
X138176071Y-86312778D01*
X138019546Y-86396443D01*
X137849707Y-86447963D01*
X137783522Y-86454482D01*
X137717340Y-86461000D01*
X137628820Y-86461000D01*
X137562638Y-86454482D01*
X137496453Y-86447963D01*
X137326614Y-86396443D01*
X137170089Y-86312778D01*
X137134351Y-86283448D01*
X137032894Y-86200186D01*
X136936714Y-86082989D01*
X136920302Y-86062991D01*
X136836637Y-85906466D01*
X136785117Y-85736627D01*
X136767721Y-85560000D01*
X136785117Y-85383373D01*
X136836637Y-85213534D01*
X136920302Y-85057009D01*
X136949632Y-85021271D01*
X137032894Y-84919814D01*
X137145719Y-84827222D01*
X137170089Y-84807222D01*
X137326614Y-84723557D01*
X137496453Y-84672037D01*
X137562637Y-84665519D01*
X137628820Y-84659000D01*
X137717340Y-84659000D01*
X137783523Y-84665519D01*
X137783523Y-84665519D01*
G37*
G36*
X153023522Y-82145518D02*
G01*
X153089707Y-82152037D01*
X153259546Y-82203557D01*
X153416071Y-82287222D01*
X153451809Y-82316552D01*
X153553266Y-82399814D01*
X153636528Y-82501271D01*
X153665858Y-82537009D01*
X153749523Y-82693534D01*
X153801043Y-82863373D01*
X153818439Y-83040000D01*
X153801043Y-83216627D01*
X153749523Y-83386466D01*
X153665858Y-83542991D01*
X153636528Y-83578729D01*
X153553266Y-83680186D01*
X153451809Y-83763448D01*
X153416071Y-83792778D01*
X153259546Y-83876443D01*
X153089707Y-83927963D01*
X153023523Y-83934481D01*
X152957340Y-83941000D01*
X152868820Y-83941000D01*
X152802637Y-83934481D01*
X152736453Y-83927963D01*
X152566614Y-83876443D01*
X152410089Y-83792778D01*
X152374351Y-83763448D01*
X152272894Y-83680186D01*
X152189632Y-83578729D01*
X152160302Y-83542991D01*
X152076637Y-83386466D01*
X152025117Y-83216627D01*
X152007721Y-83040000D01*
X152025117Y-82863373D01*
X152076637Y-82693534D01*
X152160302Y-82537009D01*
X152189632Y-82501271D01*
X152272894Y-82399814D01*
X152374351Y-82316552D01*
X152410089Y-82287222D01*
X152566614Y-82203557D01*
X152736453Y-82152037D01*
X152802638Y-82145518D01*
X152868820Y-82139000D01*
X152957340Y-82139000D01*
X153023522Y-82145518D01*
X153023522Y-82145518D01*
G37*
G36*
X137783522Y-82125518D02*
G01*
X137849707Y-82132037D01*
X138019546Y-82183557D01*
X138176071Y-82267222D01*
X138200441Y-82287222D01*
X138313266Y-82379814D01*
X138396528Y-82481271D01*
X138425858Y-82517009D01*
X138509523Y-82673534D01*
X138561043Y-82843373D01*
X138578439Y-83020000D01*
X138561043Y-83196627D01*
X138509523Y-83366466D01*
X138425858Y-83522991D01*
X138409446Y-83542989D01*
X138313266Y-83660186D01*
X138211809Y-83743448D01*
X138176071Y-83772778D01*
X138019546Y-83856443D01*
X137849707Y-83907963D01*
X137783522Y-83914482D01*
X137717340Y-83921000D01*
X137628820Y-83921000D01*
X137562638Y-83914482D01*
X137496453Y-83907963D01*
X137326614Y-83856443D01*
X137170089Y-83772778D01*
X137134351Y-83743448D01*
X137032894Y-83660186D01*
X136936714Y-83542989D01*
X136920302Y-83522991D01*
X136836637Y-83366466D01*
X136785117Y-83196627D01*
X136767721Y-83020000D01*
X136785117Y-82843373D01*
X136836637Y-82673534D01*
X136920302Y-82517009D01*
X136949632Y-82481271D01*
X137032894Y-82379814D01*
X137145719Y-82287222D01*
X137170089Y-82267222D01*
X137326614Y-82183557D01*
X137496453Y-82132037D01*
X137562638Y-82125518D01*
X137628820Y-82119000D01*
X137717340Y-82119000D01*
X137783522Y-82125518D01*
X137783522Y-82125518D01*
G37*
G36*
X153814080Y-81401000D02*
G01*
X152012080Y-81401000D01*
X152012080Y-79599000D01*
X153814080Y-79599000D01*
X153814080Y-81401000D01*
X153814080Y-81401000D01*
G37*
G36*
X137783523Y-79585519D02*
G01*
X137849707Y-79592037D01*
X138019546Y-79643557D01*
X138176071Y-79727222D01*
X138211809Y-79756552D01*
X138313266Y-79839814D01*
X138396528Y-79941271D01*
X138425858Y-79977009D01*
X138509523Y-80133534D01*
X138561043Y-80303373D01*
X138578439Y-80480000D01*
X138561043Y-80656627D01*
X138509523Y-80826466D01*
X138425858Y-80982991D01*
X138396528Y-81018729D01*
X138313266Y-81120186D01*
X138211809Y-81203448D01*
X138176071Y-81232778D01*
X138019546Y-81316443D01*
X137849707Y-81367963D01*
X137783523Y-81374481D01*
X137717340Y-81381000D01*
X137628820Y-81381000D01*
X137562637Y-81374481D01*
X137496453Y-81367963D01*
X137326614Y-81316443D01*
X137170089Y-81232778D01*
X137134351Y-81203448D01*
X137032894Y-81120186D01*
X136949632Y-81018729D01*
X136920302Y-80982991D01*
X136836637Y-80826466D01*
X136785117Y-80656627D01*
X136767721Y-80480000D01*
X136785117Y-80303373D01*
X136836637Y-80133534D01*
X136920302Y-79977009D01*
X136949632Y-79941271D01*
X137032894Y-79839814D01*
X137134351Y-79756552D01*
X137170089Y-79727222D01*
X137326614Y-79643557D01*
X137496453Y-79592037D01*
X137562637Y-79585519D01*
X137628820Y-79579000D01*
X137717340Y-79579000D01*
X137783523Y-79585519D01*
X137783523Y-79585519D01*
G37*
M02*
