G04 #@! TF.GenerationSoftware,KiCad,Pcbnew,(5.1.2)-2*
G04 #@! TF.CreationDate,2019-11-11T20:09:09+01:00*
G04 #@! TF.ProjectId,MCP25625_Breakoutboard,4d435032-3536-4323-955f-427265616b6f,rev?*
G04 #@! TF.SameCoordinates,Original*
G04 #@! TF.FileFunction,Legend,Top*
G04 #@! TF.FilePolarity,Positive*
%FSLAX46Y46*%
G04 Gerber Fmt 4.6, Leading zero omitted, Abs format (unit mm)*
G04 Created by KiCad (PCBNEW (5.1.2)-2) date 2019-11-11 20:09:09*
%MOMM*%
%LPD*%
G04 APERTURE LIST*
%ADD10C,0.325000*%
%ADD11C,0.120000*%
%ADD12C,0.254000*%
%ADD13C,0.150000*%
G04 APERTURE END LIST*
D10*
X145137736Y-92418641D02*
G75*
G03X145137736Y-92418641I-162500J0D01*
G01*
D11*
X151583080Y-79170000D02*
X152913080Y-79170000D01*
X151583080Y-80500000D02*
X151583080Y-79170000D01*
X151583080Y-81770000D02*
X154243080Y-81770000D01*
X154243080Y-81770000D02*
X154243080Y-114850000D01*
X151583080Y-81770000D02*
X151583080Y-114850000D01*
X151583080Y-114850000D02*
X154243080Y-114850000D01*
X139003080Y-114830000D02*
X137673080Y-114830000D01*
X139003080Y-113500000D02*
X139003080Y-114830000D01*
X139003080Y-112230000D02*
X136343080Y-112230000D01*
X136343080Y-112230000D02*
X136343080Y-79150000D01*
X139003080Y-112230000D02*
X139003080Y-79150000D01*
X139003080Y-79150000D02*
X136343080Y-79150000D01*
D12*
X144010186Y-96402665D02*
X144908211Y-95504640D01*
X145036501Y-97257928D02*
X144950975Y-97257928D01*
X144779922Y-97172401D01*
X144694396Y-97086875D01*
X144608870Y-96915823D01*
X144608870Y-96744770D01*
X144651633Y-96616481D01*
X144779922Y-96402665D01*
X144908211Y-96274376D01*
X145122027Y-96146086D01*
X145250316Y-96103323D01*
X145421369Y-96103323D01*
X145592421Y-96188850D01*
X145677948Y-96274376D01*
X145763474Y-96445428D01*
X145763474Y-96530955D01*
X145806237Y-98198716D02*
X145293080Y-97685559D01*
X145549658Y-97942138D02*
X146447684Y-97044112D01*
X146233868Y-97086875D01*
X146062816Y-97086875D01*
X145934526Y-97044112D01*
D13*
X152579746Y-77622380D02*
X152579746Y-78336666D01*
X152532127Y-78479523D01*
X152436889Y-78574761D01*
X152294032Y-78622380D01*
X152198794Y-78622380D01*
X153008318Y-77717619D02*
X153055937Y-77670000D01*
X153151175Y-77622380D01*
X153389270Y-77622380D01*
X153484508Y-77670000D01*
X153532127Y-77717619D01*
X153579746Y-77812857D01*
X153579746Y-77908095D01*
X153532127Y-78050952D01*
X152960699Y-78622380D01*
X153579746Y-78622380D01*
X137339746Y-115282380D02*
X137339746Y-115996666D01*
X137292127Y-116139523D01*
X137196889Y-116234761D01*
X137054032Y-116282380D01*
X136958794Y-116282380D01*
X138339746Y-116282380D02*
X137768318Y-116282380D01*
X138054032Y-116282380D02*
X138054032Y-115282380D01*
X137958794Y-115425238D01*
X137863556Y-115520476D01*
X137768318Y-115568095D01*
M02*
