G04 #@! TF.GenerationSoftware,KiCad,Pcbnew,(5.1.4)-1*
G04 #@! TF.CreationDate,2019-12-09T14:47:42+01:00*
G04 #@! TF.ProjectId,teensy4_header_breakout,7465656e-7379-4345-9f68-65616465725f,rev?*
G04 #@! TF.SameCoordinates,Original*
G04 #@! TF.FileFunction,Legend,Bot*
G04 #@! TF.FilePolarity,Positive*
%FSLAX46Y46*%
G04 Gerber Fmt 4.6, Leading zero omitted, Abs format (unit mm)*
G04 Created by KiCad (PCBNEW (5.1.4)-1) date 2019-12-09 14:47:42*
%MOMM*%
%LPD*%
G04 APERTURE LIST*
%ADD10C,0.120000*%
%ADD11C,0.100000*%
%ADD12C,0.150000*%
G04 APERTURE END LIST*
D10*
X129150380Y-96980680D02*
X126865380Y-96980680D01*
X129150380Y-95510680D02*
X129150380Y-96980680D01*
X126865380Y-95510680D02*
X129150380Y-95510680D01*
X130560961Y-89111360D02*
X130886519Y-89111360D01*
X130560961Y-90131360D02*
X130886519Y-90131360D01*
X130007579Y-88394000D02*
X129682021Y-88394000D01*
X130007579Y-87374000D02*
X129682021Y-87374000D01*
X131352760Y-92944440D02*
X129952760Y-92944440D01*
X129252760Y-93644440D02*
X129252760Y-94244440D01*
X129952760Y-94944440D02*
X131352760Y-94944440D01*
X132052760Y-94244440D02*
X132052760Y-93644440D01*
X132052760Y-93644440D02*
G75*
G03X131352760Y-92944440I-700000J0D01*
G01*
X131352760Y-94944440D02*
G75*
G03X132052760Y-94244440I0J700000D01*
G01*
X129252760Y-94244440D02*
G75*
G03X129952760Y-94944440I700000J0D01*
G01*
X129952760Y-92944440D02*
G75*
G03X129252760Y-93644440I0J-700000D01*
G01*
X130510161Y-91041760D02*
X130835719Y-91041760D01*
X130510161Y-92061760D02*
X130835719Y-92061760D01*
D11*
X153215580Y-79428080D02*
X153215580Y-78798080D01*
X153215580Y-87888080D02*
X153215580Y-85428080D01*
X131655580Y-79428080D02*
X131655580Y-78798080D01*
X131655580Y-87888080D02*
X131655580Y-85428080D01*
X151760824Y-74839911D02*
G75*
G03X148435580Y-73878080I-2015244J-738169D01*
G01*
X153215580Y-78798080D02*
X151775580Y-74848080D01*
X151135580Y-89968080D02*
X153215580Y-87888080D01*
X151135580Y-89968080D02*
X133735580Y-89968080D01*
X133735580Y-89968080D02*
X131655580Y-87888080D01*
X131655580Y-78798080D02*
X133095580Y-74848080D01*
X136432226Y-73861550D02*
G75*
G03X133095580Y-74848080I-1306646J-1716530D01*
G01*
X136430979Y-73874544D02*
G75*
G03X148435580Y-73878080I6004601J7806464D01*
G01*
D12*
X128403475Y-95268060D02*
X128403475Y-94268060D01*
X128165380Y-94268060D01*
X128022522Y-94315680D01*
X127927284Y-94410918D01*
X127879665Y-94506156D01*
X127832046Y-94696632D01*
X127832046Y-94839489D01*
X127879665Y-95029965D01*
X127927284Y-95125203D01*
X128022522Y-95220441D01*
X128165380Y-95268060D01*
X128403475Y-95268060D01*
X127355856Y-95268060D02*
X127165380Y-95268060D01*
X127070141Y-95220441D01*
X127022522Y-95172822D01*
X126927284Y-95029965D01*
X126879665Y-94839489D01*
X126879665Y-94458537D01*
X126927284Y-94363299D01*
X126974903Y-94315680D01*
X127070141Y-94268060D01*
X127260618Y-94268060D01*
X127355856Y-94315680D01*
X127403475Y-94363299D01*
X127451094Y-94458537D01*
X127451094Y-94696632D01*
X127403475Y-94791870D01*
X127355856Y-94839489D01*
X127260618Y-94887108D01*
X127070141Y-94887108D01*
X126974903Y-94839489D01*
X126927284Y-94791870D01*
X126879665Y-94696632D01*
X136078980Y-94857891D02*
X136078980Y-95048367D01*
X136126600Y-95143605D01*
X136221838Y-95238843D01*
X136412314Y-95286462D01*
X136745647Y-95286462D01*
X136936123Y-95238843D01*
X137031361Y-95143605D01*
X137078980Y-95048367D01*
X137078980Y-94857891D01*
X137031361Y-94762653D01*
X136936123Y-94667415D01*
X136745647Y-94619796D01*
X136412314Y-94619796D01*
X136221838Y-94667415D01*
X136126600Y-94762653D01*
X136078980Y-94857891D01*
X136412314Y-95715034D02*
X137412314Y-95715034D01*
X136459933Y-95715034D02*
X136412314Y-95810272D01*
X136412314Y-96000748D01*
X136459933Y-96095986D01*
X136507552Y-96143605D01*
X136602790Y-96191224D01*
X136888504Y-96191224D01*
X136983742Y-96143605D01*
X137031361Y-96095986D01*
X137078980Y-96000748D01*
X137078980Y-95810272D01*
X137031361Y-95715034D01*
X136793266Y-96572177D02*
X136793266Y-97048367D01*
X137078980Y-96476939D02*
X136078980Y-96810272D01*
X137078980Y-97143605D01*
X137078980Y-97476939D02*
X136412314Y-97476939D01*
X136507552Y-97476939D02*
X136459933Y-97524558D01*
X136412314Y-97619796D01*
X136412314Y-97762653D01*
X136459933Y-97857891D01*
X136555171Y-97905510D01*
X137078980Y-97905510D01*
X136555171Y-97905510D02*
X136459933Y-97953129D01*
X136412314Y-98048367D01*
X136412314Y-98191224D01*
X136459933Y-98286462D01*
X136555171Y-98334081D01*
X137078980Y-98334081D01*
X136412314Y-98810272D02*
X137412314Y-98810272D01*
X136459933Y-98810272D02*
X136412314Y-98905510D01*
X136412314Y-99095986D01*
X136459933Y-99191224D01*
X136507552Y-99238843D01*
X136602790Y-99286462D01*
X136888504Y-99286462D01*
X136983742Y-99238843D01*
X137031361Y-99191224D01*
X137078980Y-99095986D01*
X137078980Y-98905510D01*
X137031361Y-98810272D01*
X137078980Y-100238843D02*
X137078980Y-99667415D01*
X137078980Y-99953129D02*
X136078980Y-99953129D01*
X136221838Y-99857891D01*
X136317076Y-99762653D01*
X136364695Y-99667415D01*
X128394897Y-89748620D02*
X128728230Y-89272430D01*
X128966325Y-89748620D02*
X128966325Y-88748620D01*
X128585373Y-88748620D01*
X128490135Y-88796240D01*
X128442516Y-88843859D01*
X128394897Y-88939097D01*
X128394897Y-89081954D01*
X128442516Y-89177192D01*
X128490135Y-89224811D01*
X128585373Y-89272430D01*
X128966325Y-89272430D01*
X128013944Y-88843859D02*
X127966325Y-88796240D01*
X127871087Y-88748620D01*
X127632992Y-88748620D01*
X127537754Y-88796240D01*
X127490135Y-88843859D01*
X127442516Y-88939097D01*
X127442516Y-89034335D01*
X127490135Y-89177192D01*
X128061563Y-89748620D01*
X127442516Y-89748620D01*
X127061563Y-88843859D02*
X127013944Y-88796240D01*
X126918706Y-88748620D01*
X126680611Y-88748620D01*
X126585373Y-88796240D01*
X126537754Y-88843859D01*
X126490135Y-88939097D01*
X126490135Y-89034335D01*
X126537754Y-89177192D01*
X127109182Y-89748620D01*
X126490135Y-89748620D01*
X127581997Y-88234780D02*
X127915330Y-87758590D01*
X128153425Y-88234780D02*
X128153425Y-87234780D01*
X127772473Y-87234780D01*
X127677235Y-87282400D01*
X127629616Y-87330019D01*
X127581997Y-87425257D01*
X127581997Y-87568114D01*
X127629616Y-87663352D01*
X127677235Y-87710971D01*
X127772473Y-87758590D01*
X128153425Y-87758590D01*
X127201044Y-87330019D02*
X127153425Y-87282400D01*
X127058187Y-87234780D01*
X126820092Y-87234780D01*
X126724854Y-87282400D01*
X126677235Y-87330019D01*
X126629616Y-87425257D01*
X126629616Y-87520495D01*
X126677235Y-87663352D01*
X127248663Y-88234780D01*
X126629616Y-88234780D01*
X125677235Y-88234780D02*
X126248663Y-88234780D01*
X125962949Y-88234780D02*
X125962949Y-87234780D01*
X126058187Y-87377638D01*
X126153425Y-87472876D01*
X126248663Y-87520495D01*
X131962283Y-91596820D02*
X131962283Y-92311106D01*
X132009902Y-92453963D01*
X132105140Y-92549201D01*
X132247998Y-92596820D01*
X132343236Y-92596820D01*
X131486093Y-92596820D02*
X131486093Y-91596820D01*
X131105140Y-91596820D01*
X131009902Y-91644440D01*
X130962283Y-91692059D01*
X130914664Y-91787297D01*
X130914664Y-91930154D01*
X130962283Y-92025392D01*
X131009902Y-92073011D01*
X131105140Y-92120630D01*
X131486093Y-92120630D01*
X129962283Y-92596820D02*
X130533712Y-92596820D01*
X130247998Y-92596820D02*
X130247998Y-91596820D01*
X130343236Y-91739678D01*
X130438474Y-91834916D01*
X130533712Y-91882535D01*
X129343236Y-91596820D02*
X129247998Y-91596820D01*
X129152760Y-91644440D01*
X129105140Y-91692059D01*
X129057521Y-91787297D01*
X129009902Y-91977773D01*
X129009902Y-92215868D01*
X129057521Y-92406344D01*
X129105140Y-92501582D01*
X129152760Y-92549201D01*
X129247998Y-92596820D01*
X129343236Y-92596820D01*
X129438474Y-92549201D01*
X129486093Y-92501582D01*
X129533712Y-92406344D01*
X129581331Y-92215868D01*
X129581331Y-91977773D01*
X129533712Y-91787297D01*
X129486093Y-91692059D01*
X129438474Y-91644440D01*
X129343236Y-91596820D01*
X131315797Y-93338902D02*
X131363416Y-93386521D01*
X131506273Y-93434140D01*
X131601511Y-93434140D01*
X131744368Y-93386521D01*
X131839606Y-93291283D01*
X131887225Y-93196045D01*
X131934844Y-93005569D01*
X131934844Y-92862712D01*
X131887225Y-92672236D01*
X131839606Y-92576998D01*
X131744368Y-92481760D01*
X131601511Y-92434140D01*
X131506273Y-92434140D01*
X131363416Y-92481760D01*
X131315797Y-92529379D01*
X130363416Y-93434140D02*
X130934844Y-93434140D01*
X130649130Y-93434140D02*
X130649130Y-92434140D01*
X130744368Y-92576998D01*
X130839606Y-92672236D01*
X130934844Y-92719855D01*
X129887225Y-93434140D02*
X129696749Y-93434140D01*
X129601511Y-93386521D01*
X129553892Y-93338902D01*
X129458654Y-93196045D01*
X129411035Y-93005569D01*
X129411035Y-92624617D01*
X129458654Y-92529379D01*
X129506273Y-92481760D01*
X129601511Y-92434140D01*
X129791987Y-92434140D01*
X129887225Y-92481760D01*
X129934844Y-92529379D01*
X129982463Y-92624617D01*
X129982463Y-92862712D01*
X129934844Y-92957950D01*
X129887225Y-93005569D01*
X129791987Y-93053188D01*
X129601511Y-93053188D01*
X129506273Y-93005569D01*
X129458654Y-92957950D01*
X129411035Y-92862712D01*
X154435394Y-73029771D02*
X154292537Y-73077390D01*
X154244918Y-73125009D01*
X154197299Y-73220247D01*
X154197299Y-73363104D01*
X154244918Y-73458342D01*
X154292537Y-73505961D01*
X154387775Y-73553580D01*
X154768727Y-73553580D01*
X154768727Y-72553580D01*
X154435394Y-72553580D01*
X154340156Y-72601200D01*
X154292537Y-72648819D01*
X154244918Y-72744057D01*
X154244918Y-72839295D01*
X154292537Y-72934533D01*
X154340156Y-72982152D01*
X154435394Y-73029771D01*
X154768727Y-73029771D01*
X153911584Y-72553580D02*
X153340156Y-72553580D01*
X153625870Y-73553580D02*
X153625870Y-72553580D01*
X152483013Y-73553580D02*
X153054441Y-73553580D01*
X152768727Y-73553580D02*
X152768727Y-72553580D01*
X152863965Y-72696438D01*
X152959203Y-72791676D01*
X153054441Y-72839295D01*
M02*
