G04 #@! TF.GenerationSoftware,KiCad,Pcbnew,(5.1.6)-1*
G04 #@! TF.CreationDate,2020-12-13T21:15:54+01:00*
G04 #@! TF.ProjectId,AR21_Battery_PCB,41523231-5f42-4617-9474-6572795f5043,rev?*
G04 #@! TF.SameCoordinates,Original*
G04 #@! TF.FileFunction,Soldermask,Bot*
G04 #@! TF.FilePolarity,Negative*
%FSLAX46Y46*%
G04 Gerber Fmt 4.6, Leading zero omitted, Abs format (unit mm)*
G04 Created by KiCad (PCBNEW (5.1.6)-1) date 2020-12-13 21:15:54*
%MOMM*%
%LPD*%
G01*
G04 APERTURE LIST*
%ADD10C,0.100000*%
%ADD11C,3.200000*%
%ADD12R,20.100000X15.100000*%
%ADD13C,3.300000*%
%ADD14C,5.200000*%
G04 APERTURE END LIST*
D10*
G36*
X115189000Y-95758000D02*
G01*
X115189000Y-108458000D01*
X108204000Y-124333000D01*
X89154000Y-124333000D01*
X89154000Y-79248000D01*
X108839000Y-79248000D01*
X115189000Y-95758000D01*
G37*
X115189000Y-95758000D02*
X115189000Y-108458000D01*
X108204000Y-124333000D01*
X89154000Y-124333000D01*
X89154000Y-79248000D01*
X108839000Y-79248000D01*
X115189000Y-95758000D01*
G36*
X192024000Y-123698000D02*
G01*
X172339000Y-123698000D01*
X165989000Y-108458000D01*
X165989000Y-95758000D01*
X172339000Y-79248000D01*
X192024000Y-79248000D01*
X192024000Y-123698000D01*
G37*
X192024000Y-123698000D02*
X172339000Y-123698000D01*
X165989000Y-108458000D01*
X165989000Y-95758000D01*
X172339000Y-79248000D01*
X192024000Y-79248000D01*
X192024000Y-123698000D01*
D11*
X140462000Y-79108000D03*
X140462000Y-125108000D03*
D12*
X99060000Y-86600000D03*
X99060000Y-116600000D03*
D13*
X103515000Y-97673000D03*
X107950000Y-97673000D03*
X112385000Y-97673000D03*
X103515000Y-102108000D03*
D14*
X107950000Y-102108000D03*
D13*
X112385000Y-102108000D03*
X103515000Y-106543000D03*
X107950000Y-106543000D03*
X112385000Y-106543000D03*
D12*
X181864000Y-86600000D03*
X181864000Y-116600000D03*
D13*
X168539000Y-97673000D03*
X172974000Y-97673000D03*
X177409000Y-97673000D03*
X168539000Y-102108000D03*
D14*
X172974000Y-102108000D03*
D13*
X177409000Y-102108000D03*
X168539000Y-106543000D03*
X172974000Y-106543000D03*
X177409000Y-106543000D03*
M02*
