G04 #@! TF.GenerationSoftware,KiCad,Pcbnew,(5.1.6)-1*
G04 #@! TF.CreationDate,2020-12-13T21:15:54+01:00*
G04 #@! TF.ProjectId,AR21_Battery_PCB,41523231-5f42-4617-9474-6572795f5043,rev?*
G04 #@! TF.SameCoordinates,Original*
G04 #@! TF.FileFunction,Legend,Top*
G04 #@! TF.FilePolarity,Positive*
%FSLAX46Y46*%
G04 Gerber Fmt 4.6, Leading zero omitted, Abs format (unit mm)*
G04 Created by KiCad (PCBNEW (5.1.6)-1) date 2020-12-13 21:15:54*
%MOMM*%
%LPD*%
G01*
G04 APERTURE LIST*
%ADD10C,0.150000*%
G04 APERTURE END LIST*
D10*
X89759452Y-81028933D02*
X90711833Y-81028933D01*
X89568976Y-81600361D02*
X90235642Y-79600361D01*
X90902309Y-81600361D01*
X92711833Y-81600361D02*
X92045166Y-80647980D01*
X91568976Y-81600361D02*
X91568976Y-79600361D01*
X92330880Y-79600361D01*
X92521357Y-79695600D01*
X92616595Y-79790838D01*
X92711833Y-79981314D01*
X92711833Y-80267028D01*
X92616595Y-80457504D01*
X92521357Y-80552742D01*
X92330880Y-80647980D01*
X91568976Y-80647980D01*
X93473738Y-79790838D02*
X93568976Y-79695600D01*
X93759452Y-79600361D01*
X94235642Y-79600361D01*
X94426119Y-79695600D01*
X94521357Y-79790838D01*
X94616595Y-79981314D01*
X94616595Y-80171790D01*
X94521357Y-80457504D01*
X93378500Y-81600361D01*
X94616595Y-81600361D01*
X96521357Y-81600361D02*
X95378500Y-81600361D01*
X95949928Y-81600361D02*
X95949928Y-79600361D01*
X95759452Y-79886076D01*
X95568976Y-80076552D01*
X95378500Y-80171790D01*
X99568976Y-80552742D02*
X99854690Y-80647980D01*
X99949928Y-80743219D01*
X100045166Y-80933695D01*
X100045166Y-81219409D01*
X99949928Y-81409885D01*
X99854690Y-81505123D01*
X99664214Y-81600361D01*
X98902309Y-81600361D01*
X98902309Y-79600361D01*
X99568976Y-79600361D01*
X99759452Y-79695600D01*
X99854690Y-79790838D01*
X99949928Y-79981314D01*
X99949928Y-80171790D01*
X99854690Y-80362266D01*
X99759452Y-80457504D01*
X99568976Y-80552742D01*
X98902309Y-80552742D01*
X101759452Y-81600361D02*
X101759452Y-80552742D01*
X101664214Y-80362266D01*
X101473738Y-80267028D01*
X101092785Y-80267028D01*
X100902309Y-80362266D01*
X101759452Y-81505123D02*
X101568976Y-81600361D01*
X101092785Y-81600361D01*
X100902309Y-81505123D01*
X100807071Y-81314647D01*
X100807071Y-81124171D01*
X100902309Y-80933695D01*
X101092785Y-80838457D01*
X101568976Y-80838457D01*
X101759452Y-80743219D01*
X102426119Y-80267028D02*
X103188023Y-80267028D01*
X102711833Y-79600361D02*
X102711833Y-81314647D01*
X102807071Y-81505123D01*
X102997547Y-81600361D01*
X103188023Y-81600361D01*
X103568976Y-80267028D02*
X104330880Y-80267028D01*
X103854690Y-79600361D02*
X103854690Y-81314647D01*
X103949928Y-81505123D01*
X104140404Y-81600361D01*
X104330880Y-81600361D01*
X105759452Y-81505123D02*
X105568976Y-81600361D01*
X105188023Y-81600361D01*
X104997547Y-81505123D01*
X104902309Y-81314647D01*
X104902309Y-80552742D01*
X104997547Y-80362266D01*
X105188023Y-80267028D01*
X105568976Y-80267028D01*
X105759452Y-80362266D01*
X105854690Y-80552742D01*
X105854690Y-80743219D01*
X104902309Y-80933695D01*
X106711833Y-81600361D02*
X106711833Y-80267028D01*
X106711833Y-80647980D02*
X106807071Y-80457504D01*
X106902309Y-80362266D01*
X107092785Y-80267028D01*
X107283261Y-80267028D01*
X107759452Y-80267028D02*
X108235642Y-81600361D01*
X108711833Y-80267028D02*
X108235642Y-81600361D01*
X108045166Y-82076552D01*
X107949928Y-82171790D01*
X107759452Y-82267028D01*
X110997547Y-81600361D02*
X110997547Y-80267028D01*
X110997547Y-80457504D02*
X111092785Y-80362266D01*
X111283261Y-80267028D01*
X111568976Y-80267028D01*
X111759452Y-80362266D01*
X111854690Y-80552742D01*
X111854690Y-81600361D01*
X111854690Y-80552742D02*
X111949928Y-80362266D01*
X112140404Y-80267028D01*
X112426119Y-80267028D01*
X112616595Y-80362266D01*
X112711833Y-80552742D01*
X112711833Y-81600361D01*
X113949928Y-81600361D02*
X113759452Y-81505123D01*
X113664214Y-81409885D01*
X113568976Y-81219409D01*
X113568976Y-80647980D01*
X113664214Y-80457504D01*
X113759452Y-80362266D01*
X113949928Y-80267028D01*
X114235642Y-80267028D01*
X114426119Y-80362266D01*
X114521357Y-80457504D01*
X114616595Y-80647980D01*
X114616595Y-81219409D01*
X114521357Y-81409885D01*
X114426119Y-81505123D01*
X114235642Y-81600361D01*
X113949928Y-81600361D01*
X116330880Y-81600361D02*
X116330880Y-79600361D01*
X116330880Y-81505123D02*
X116140404Y-81600361D01*
X115759452Y-81600361D01*
X115568976Y-81505123D01*
X115473738Y-81409885D01*
X115378500Y-81219409D01*
X115378500Y-80647980D01*
X115473738Y-80457504D01*
X115568976Y-80362266D01*
X115759452Y-80267028D01*
X116140404Y-80267028D01*
X116330880Y-80362266D01*
X118140404Y-80267028D02*
X118140404Y-81600361D01*
X117283261Y-80267028D02*
X117283261Y-81314647D01*
X117378500Y-81505123D01*
X117568976Y-81600361D01*
X117854690Y-81600361D01*
X118045166Y-81505123D01*
X118140404Y-81409885D01*
X119378500Y-81600361D02*
X119188023Y-81505123D01*
X119092785Y-81314647D01*
X119092785Y-79600361D01*
X120902309Y-81505123D02*
X120711833Y-81600361D01*
X120330880Y-81600361D01*
X120140404Y-81505123D01*
X120045166Y-81314647D01*
X120045166Y-80552742D01*
X120140404Y-80362266D01*
X120330880Y-80267028D01*
X120711833Y-80267028D01*
X120902309Y-80362266D01*
X120997547Y-80552742D01*
X120997547Y-80743219D01*
X120045166Y-80933695D01*
X89664214Y-83417028D02*
X90140404Y-84750361D01*
X90616595Y-83417028D01*
X92426119Y-84750361D02*
X91283261Y-84750361D01*
X91854690Y-84750361D02*
X91854690Y-82750361D01*
X91664214Y-83036076D01*
X91473738Y-83226552D01*
X91283261Y-83321790D01*
X93283261Y-84559885D02*
X93378500Y-84655123D01*
X93283261Y-84750361D01*
X93188023Y-84655123D01*
X93283261Y-84559885D01*
X93283261Y-84750361D01*
X94616595Y-82750361D02*
X94807071Y-82750361D01*
X94997547Y-82845600D01*
X95092785Y-82940838D01*
X95188023Y-83131314D01*
X95283261Y-83512266D01*
X95283261Y-83988457D01*
X95188023Y-84369409D01*
X95092785Y-84559885D01*
X94997547Y-84655123D01*
X94807071Y-84750361D01*
X94616595Y-84750361D01*
X94426119Y-84655123D01*
X94330880Y-84559885D01*
X94235642Y-84369409D01*
X94140404Y-83988457D01*
X94140404Y-83512266D01*
X94235642Y-83131314D01*
X94330880Y-82940838D01*
X94426119Y-82845600D01*
X94616595Y-82750361D01*
X139700095Y-80060380D02*
X139700095Y-79060380D01*
X139700095Y-79536571D02*
X140271523Y-79536571D01*
X140271523Y-80060380D02*
X140271523Y-79060380D01*
X140700095Y-79155619D02*
X140747714Y-79108000D01*
X140842952Y-79060380D01*
X141081047Y-79060380D01*
X141176285Y-79108000D01*
X141223904Y-79155619D01*
X141271523Y-79250857D01*
X141271523Y-79346095D01*
X141223904Y-79488952D01*
X140652476Y-80060380D01*
X141271523Y-80060380D01*
X139700095Y-126060380D02*
X139700095Y-125060380D01*
X139700095Y-125536571D02*
X140271523Y-125536571D01*
X140271523Y-126060380D02*
X140271523Y-125060380D01*
X141271523Y-126060380D02*
X140700095Y-126060380D01*
X140985809Y-126060380D02*
X140985809Y-125060380D01*
X140890571Y-125203238D01*
X140795333Y-125298476D01*
X140700095Y-125346095D01*
M02*
