G04 #@! TF.GenerationSoftware,KiCad,Pcbnew,(5.1.6)-1*
G04 #@! TF.CreationDate,2020-12-13T21:15:54+01:00*
G04 #@! TF.ProjectId,AR21_Battery_PCB,41523231-5f42-4617-9474-6572795f5043,rev?*
G04 #@! TF.SameCoordinates,Original*
G04 #@! TF.FileFunction,Legend,Bot*
G04 #@! TF.FilePolarity,Positive*
%FSLAX46Y46*%
G04 Gerber Fmt 4.6, Leading zero omitted, Abs format (unit mm)*
G04 Created by KiCad (PCBNEW (5.1.6)-1) date 2020-12-13 21:15:54*
%MOMM*%
%LPD*%
G01*
G04 APERTURE LIST*
%ADD10C,0.150000*%
G04 APERTURE END LIST*
D10*
X99393333Y-100552380D02*
X99393333Y-101266666D01*
X99440952Y-101409523D01*
X99536190Y-101504761D01*
X99679047Y-101552380D01*
X99774285Y-101552380D01*
X98964761Y-100647619D02*
X98917142Y-100600000D01*
X98821904Y-100552380D01*
X98583809Y-100552380D01*
X98488571Y-100600000D01*
X98440952Y-100647619D01*
X98393333Y-100742857D01*
X98393333Y-100838095D01*
X98440952Y-100980952D01*
X99012380Y-101552380D01*
X98393333Y-101552380D01*
X182197333Y-100552380D02*
X182197333Y-101266666D01*
X182244952Y-101409523D01*
X182340190Y-101504761D01*
X182483047Y-101552380D01*
X182578285Y-101552380D01*
X181816380Y-100552380D02*
X181197333Y-100552380D01*
X181530666Y-100933333D01*
X181387809Y-100933333D01*
X181292571Y-100980952D01*
X181244952Y-101028571D01*
X181197333Y-101123809D01*
X181197333Y-101361904D01*
X181244952Y-101457142D01*
X181292571Y-101504761D01*
X181387809Y-101552380D01*
X181673523Y-101552380D01*
X181768761Y-101504761D01*
X181816380Y-101457142D01*
X169761333Y-112464380D02*
X169761333Y-113178666D01*
X169808952Y-113321523D01*
X169904190Y-113416761D01*
X170047047Y-113464380D01*
X170142285Y-113464380D01*
X168856571Y-112797714D02*
X168856571Y-113464380D01*
X169094666Y-112416761D02*
X169332761Y-113131047D01*
X168713714Y-113131047D01*
M02*
